G04*
G04 #@! TF.GenerationSoftware,Altium Limited,Altium Designer,21.6.4 (81)*
G04*
G04 Layer_Color=32768*
%FSLAX44Y44*%
%MOMM*%
G71*
G04*
G04 #@! TF.SameCoordinates,F90923F9-7617-4D74-A59D-B478042C8B54*
G04*
G04*
G04 #@! TF.FilePolarity,Positive*
G04*
G01*
G75*
%ADD50C,0.0500*%
%ADD52C,0.1000*%
D50*
X213948Y127762D02*
X223948D01*
X218948Y122762D02*
Y132762D01*
X203948Y139762D02*
X233948D01*
Y115762D02*
Y139762D01*
X203948Y115762D02*
X233948D01*
X203948D02*
Y139762D01*
X195000Y14000D02*
X205000D01*
X200000Y9000D02*
Y19000D01*
X94900Y51950D02*
X305100D01*
Y-60700D02*
Y51950D01*
X94900Y-60700D02*
X305100D01*
X94900D02*
Y51950D01*
X57000Y138750D02*
Y148750D01*
X5000Y220750D02*
X109000D01*
Y66750D02*
Y220750D01*
X52000Y143750D02*
X62000D01*
X5000Y66750D02*
X109000D01*
X5000D02*
Y220750D01*
X113000Y159000D02*
Y171000D01*
X135000Y159000D02*
Y171000D01*
X113000D02*
X135000D01*
X113000Y159000D02*
X135000D01*
X134900Y171000D02*
Y183000D01*
X112900Y171000D02*
Y183000D01*
Y171000D02*
X134900D01*
X112900Y183000D02*
X134900D01*
X289000Y156000D02*
Y166000D01*
X284000Y161000D02*
X294000D01*
X275000Y138000D02*
Y184000D01*
X302750D01*
Y138000D02*
Y184000D01*
X275000Y138000D02*
X302750D01*
X289000Y92000D02*
Y102000D01*
X284000Y97000D02*
X294000D01*
X303000Y74000D02*
Y120000D01*
X275250Y74000D02*
X303000D01*
X275250D02*
Y120000D01*
X303000D01*
X194056Y119174D02*
Y125174D01*
X191056Y122174D02*
X197056D01*
X186056Y118174D02*
X202056D01*
X186056Y126174D02*
X202056D01*
Y118174D02*
Y126174D01*
X186056Y118174D02*
Y126174D01*
X194000Y130000D02*
Y136000D01*
X191000Y133000D02*
X197000D01*
X186000Y129000D02*
X202000D01*
X186000Y137000D02*
X202000D01*
Y129000D02*
Y137000D01*
X186000Y129000D02*
Y137000D01*
X236776Y138176D02*
X242776D01*
X239776Y135176D02*
Y141176D01*
X235776Y130176D02*
Y146176D01*
X243776Y130176D02*
Y146176D01*
X235776Y130176D02*
X243776D01*
X235776Y146176D02*
X243776D01*
X265250Y148000D02*
X271250D01*
X268000Y145000D02*
Y151250D01*
X272000Y140500D02*
Y155000D01*
X264000Y140500D02*
Y155000D01*
X272000D01*
X264000Y140500D02*
X272000D01*
X264750Y110000D02*
X270750D01*
X268000Y106750D02*
Y113000D01*
X264000Y103000D02*
Y117500D01*
X272000Y103000D02*
Y117500D01*
X264000Y103000D02*
X272000D01*
X264000Y117500D02*
X272000D01*
D52*
X121000Y165000D02*
X127000D01*
X124000Y162000D02*
Y168000D01*
X120900Y177000D02*
X126900D01*
X123900Y174000D02*
Y180000D01*
X46003Y144750D02*
X54334D01*
X56000Y146416D01*
Y149748D01*
X54334Y151414D01*
X46003D01*
X56000Y154747D02*
Y158079D01*
Y156413D01*
X46003D01*
X47669Y154747D01*
M02*
