G04*
G04 #@! TF.GenerationSoftware,Altium Limited,Altium Designer,21.6.4 (81)*
G04*
G04 Layer_Physical_Order=2*
G04 Layer_Color=36540*
%FSLAX44Y44*%
%MOMM*%
G71*
G04*
G04 #@! TF.SameCoordinates,F90923F9-7617-4D74-A59D-B478042C8B54*
G04*
G04*
G04 #@! TF.FilePolarity,Positive*
G04*
G01*
G75*
%ADD45C,1.6500*%
%ADD46R,1.6500X1.6500*%
%ADD47C,0.9000*%
%ADD48C,0.6000*%
%ADD49C,2.1590*%
G36*
X395922Y93992D02*
X394652Y93313D01*
X394096Y93684D01*
X392430Y94016D01*
X390764Y93684D01*
X389352Y92740D01*
X388408Y91328D01*
X388076Y89662D01*
X388408Y87996D01*
X389352Y86583D01*
X390764Y85640D01*
X392430Y85308D01*
X394096Y85640D01*
X394652Y86011D01*
X395922Y85332D01*
Y4078D01*
X4078Y4078D01*
Y102220D01*
X5198Y102818D01*
X5334Y102728D01*
X7000Y102396D01*
X8666Y102728D01*
X10079Y103672D01*
X11022Y105084D01*
X11354Y106750D01*
X11022Y108416D01*
X10079Y109829D01*
X8666Y110772D01*
X7000Y111104D01*
X5624Y110830D01*
X4683Y111448D01*
X4457Y111684D01*
Y111816D01*
X4683Y112052D01*
X5624Y112670D01*
X7000Y112396D01*
X8666Y112728D01*
X10079Y113672D01*
X11022Y115084D01*
X11354Y116750D01*
X11022Y118416D01*
X10079Y119829D01*
X8666Y120772D01*
X7000Y121104D01*
X5624Y120830D01*
X4683Y121448D01*
X4457Y121684D01*
Y121816D01*
X4683Y122052D01*
X5624Y122670D01*
X7000Y122396D01*
X8666Y122728D01*
X10079Y123672D01*
X11022Y125084D01*
X11354Y126750D01*
X11022Y128416D01*
X10079Y129829D01*
X8666Y130772D01*
X7000Y131104D01*
X5624Y130830D01*
X4683Y131448D01*
X4457Y131684D01*
Y131816D01*
X4683Y132052D01*
X5624Y132670D01*
X7000Y132396D01*
X8666Y132728D01*
X10079Y133672D01*
X11022Y135084D01*
X11354Y136750D01*
X11022Y138416D01*
X10079Y139829D01*
X8666Y140772D01*
X7634Y140978D01*
Y142273D01*
X8666Y142478D01*
X10078Y143421D01*
X11022Y144834D01*
X11353Y146500D01*
X11022Y148166D01*
X10078Y149579D01*
X8666Y150522D01*
X7000Y150854D01*
X5334Y150522D01*
X5198Y150432D01*
X4078Y151030D01*
Y215922D01*
X395922Y215922D01*
Y93992D01*
D02*
G37*
%LPC*%
G36*
X37000Y169354D02*
X35334Y169022D01*
X33921Y168078D01*
X32978Y166666D01*
X32646Y165000D01*
X32978Y163334D01*
X33921Y161922D01*
X35334Y160978D01*
X37000Y160646D01*
X38666Y160978D01*
X40079Y161922D01*
X41022Y163334D01*
X41354Y165000D01*
X41022Y166666D01*
X40079Y168078D01*
X38666Y169022D01*
X37000Y169354D01*
D02*
G37*
G36*
X78740Y169200D02*
X77074Y168868D01*
X75662Y167924D01*
X74718Y166512D01*
X74386Y164846D01*
X74718Y163180D01*
X75662Y161768D01*
X77074Y160824D01*
X78740Y160492D01*
X80406Y160824D01*
X81819Y161768D01*
X82762Y163180D01*
X83094Y164846D01*
X82762Y166512D01*
X81819Y167924D01*
X80406Y168868D01*
X78740Y169200D01*
D02*
G37*
G36*
X230886Y148118D02*
X229220Y147786D01*
X227808Y146842D01*
X226864Y145430D01*
X226532Y143764D01*
X226864Y142098D01*
X227808Y140686D01*
X229220Y139742D01*
X230886Y139410D01*
X232552Y139742D01*
X233965Y140686D01*
X234908Y142098D01*
X235240Y143764D01*
X234908Y145430D01*
X233965Y146842D01*
X232552Y147786D01*
X230886Y148118D01*
D02*
G37*
G36*
X164592Y142276D02*
X162926Y141944D01*
X161514Y141000D01*
X160570Y139588D01*
X160238Y137922D01*
X160570Y136256D01*
X161514Y134844D01*
X162926Y133900D01*
X164592Y133568D01*
X166258Y133900D01*
X167670Y134844D01*
X168614Y136256D01*
X168946Y137922D01*
X168614Y139588D01*
X167670Y141000D01*
X166258Y141944D01*
X164592Y142276D01*
D02*
G37*
G36*
X245364Y128814D02*
X243698Y128482D01*
X242285Y127538D01*
X241342Y126126D01*
X241010Y124460D01*
X241342Y122794D01*
X242285Y121382D01*
X243698Y120438D01*
X245364Y120106D01*
X247030Y120438D01*
X248442Y121382D01*
X249386Y122794D01*
X249718Y124460D01*
X249386Y126126D01*
X248442Y127538D01*
X247030Y128482D01*
X245364Y128814D01*
D02*
G37*
G36*
X182880Y126528D02*
X181214Y126196D01*
X179802Y125253D01*
X178858Y123840D01*
X178526Y122174D01*
X178858Y120508D01*
X179802Y119095D01*
X181214Y118152D01*
X182880Y117820D01*
X184546Y118152D01*
X185958Y119095D01*
X186902Y120508D01*
X187234Y122174D01*
X186902Y123840D01*
X185958Y125253D01*
X184546Y126196D01*
X182880Y126528D01*
D02*
G37*
G36*
X375000Y121367D02*
X372563Y120883D01*
X370498Y119502D01*
X369117Y117437D01*
X368633Y115000D01*
X369117Y112563D01*
X370498Y110498D01*
X372563Y109117D01*
X375000Y108633D01*
X377437Y109117D01*
X379502Y110498D01*
X380883Y112563D01*
X381367Y115000D01*
X380883Y117437D01*
X379502Y119502D01*
X377437Y120883D01*
X375000Y121367D01*
D02*
G37*
G36*
X386842Y116368D02*
X385176Y116036D01*
X383764Y115092D01*
X382820Y113680D01*
X382488Y112014D01*
X382820Y110348D01*
X383764Y108935D01*
X385176Y107992D01*
X386842Y107660D01*
X388508Y107992D01*
X389921Y108935D01*
X390864Y110348D01*
X391196Y112014D01*
X390864Y113680D01*
X389921Y115092D01*
X388508Y116036D01*
X386842Y116368D01*
D02*
G37*
G36*
X109250Y111104D02*
X107584Y110772D01*
X106172Y109829D01*
X105228Y108416D01*
X104896Y106750D01*
X105228Y105084D01*
X106172Y103672D01*
X107584Y102728D01*
X109250Y102396D01*
X110916Y102728D01*
X112329Y103672D01*
X113272Y105084D01*
X113604Y106750D01*
X113272Y108416D01*
X112329Y109829D01*
X110916Y110772D01*
X109250Y111104D01*
D02*
G37*
G36*
X359664Y106716D02*
X357998Y106384D01*
X356586Y105441D01*
X355642Y104028D01*
X355310Y102362D01*
X355642Y100696D01*
X356586Y99284D01*
X357998Y98340D01*
X359664Y98008D01*
X361330Y98340D01*
X362743Y99284D01*
X363686Y100696D01*
X364018Y102362D01*
X363686Y104028D01*
X362743Y105441D01*
X361330Y106384D01*
X359664Y106716D01*
D02*
G37*
G36*
X109250Y101104D02*
X107584Y100772D01*
X106172Y99829D01*
X105228Y98416D01*
X104896Y96750D01*
X105228Y95084D01*
X106172Y93672D01*
X107584Y92728D01*
X109250Y92396D01*
X110916Y92728D01*
X112329Y93672D01*
X113272Y95084D01*
X113604Y96750D01*
X113272Y98416D01*
X112329Y99829D01*
X110916Y100772D01*
X109250Y101104D01*
D02*
G37*
G36*
Y91104D02*
X107584Y90772D01*
X106172Y89829D01*
X105228Y88416D01*
X104896Y86750D01*
X105228Y85084D01*
X106172Y83672D01*
X107584Y82728D01*
X109250Y82396D01*
X110916Y82728D01*
X112329Y83672D01*
X113272Y85084D01*
X113604Y86750D01*
X113272Y88416D01*
X112329Y89829D01*
X110916Y90772D01*
X109250Y91104D01*
D02*
G37*
G36*
X385160Y70567D02*
X382723Y70083D01*
X380658Y68702D01*
X379277Y66637D01*
X378793Y64200D01*
X379277Y61763D01*
X380658Y59697D01*
X382723Y58317D01*
X385160Y57833D01*
X387597Y58317D01*
X389662Y59697D01*
X391043Y61763D01*
X391527Y64200D01*
X391043Y66637D01*
X389662Y68702D01*
X387597Y70083D01*
X385160Y70567D01*
D02*
G37*
G36*
X364840D02*
X362403Y70083D01*
X360338Y68702D01*
X358957Y66637D01*
X358473Y64200D01*
X358957Y61763D01*
X360338Y59697D01*
X362403Y58317D01*
X364840Y57833D01*
X367277Y58317D01*
X369342Y59697D01*
X370723Y61763D01*
X371207Y64200D01*
X370723Y66637D01*
X369342Y68702D01*
X367277Y70083D01*
X364840Y70567D01*
D02*
G37*
G36*
X101092Y62012D02*
X99426Y61680D01*
X98013Y60736D01*
X97070Y59324D01*
X96738Y57658D01*
X97070Y55992D01*
X98013Y54580D01*
X99426Y53636D01*
X101092Y53304D01*
X102758Y53636D01*
X104171Y54580D01*
X105114Y55992D01*
X105446Y57658D01*
X105114Y59324D01*
X104171Y60736D01*
X102758Y61680D01*
X101092Y62012D01*
D02*
G37*
G36*
X111862Y51202D02*
Y42462D01*
X120602D01*
X120375Y44185D01*
X119416Y46501D01*
X117890Y48490D01*
X115901Y50016D01*
X113585Y50975D01*
X111862Y51202D01*
D02*
G37*
G36*
X110338D02*
X108615Y50975D01*
X106299Y50016D01*
X104310Y48490D01*
X102784Y46501D01*
X101825Y44185D01*
X101598Y42462D01*
X110338D01*
Y51202D01*
D02*
G37*
G36*
X120602Y40938D02*
X111862D01*
Y32198D01*
X113585Y32425D01*
X115901Y33384D01*
X117890Y34910D01*
X119416Y36899D01*
X120375Y39215D01*
X120602Y40938D01*
D02*
G37*
G36*
X110338D02*
X101598D01*
X101825Y39215D01*
X102784Y36899D01*
X104310Y34910D01*
X106299Y33384D01*
X108615Y32425D01*
X110338Y32198D01*
Y40938D01*
D02*
G37*
G36*
X298420Y51220D02*
X279380D01*
Y32180D01*
X298420D01*
Y51220D01*
D02*
G37*
G36*
X263500Y51302D02*
X261015Y50975D01*
X258699Y50016D01*
X256710Y48490D01*
X255184Y46501D01*
X254225Y44185D01*
X253898Y41700D01*
X254225Y39215D01*
X255184Y36899D01*
X256710Y34910D01*
X258699Y33384D01*
X261015Y32425D01*
X263500Y32098D01*
X265985Y32425D01*
X268301Y33384D01*
X270290Y34910D01*
X271816Y36899D01*
X272775Y39215D01*
X273102Y41700D01*
X272775Y44185D01*
X271816Y46501D01*
X270290Y48490D01*
X268301Y50016D01*
X265985Y50975D01*
X263500Y51302D01*
D02*
G37*
G36*
X238100D02*
X235615Y50975D01*
X233299Y50016D01*
X231310Y48490D01*
X229784Y46501D01*
X228825Y44185D01*
X228498Y41700D01*
X228825Y39215D01*
X229784Y36899D01*
X231310Y34910D01*
X233299Y33384D01*
X235615Y32425D01*
X238100Y32098D01*
X240585Y32425D01*
X242901Y33384D01*
X244890Y34910D01*
X246416Y36899D01*
X247375Y39215D01*
X247702Y41700D01*
X247375Y44185D01*
X246416Y46501D01*
X244890Y48490D01*
X242901Y50016D01*
X240585Y50975D01*
X238100Y51302D01*
D02*
G37*
G36*
X212700D02*
X210215Y50975D01*
X207899Y50016D01*
X205910Y48490D01*
X204384Y46501D01*
X203425Y44185D01*
X203098Y41700D01*
X203425Y39215D01*
X204384Y36899D01*
X205910Y34910D01*
X207899Y33384D01*
X210215Y32425D01*
X212700Y32098D01*
X215185Y32425D01*
X217501Y33384D01*
X219490Y34910D01*
X221016Y36899D01*
X221975Y39215D01*
X222302Y41700D01*
X221975Y44185D01*
X221016Y46501D01*
X219490Y48490D01*
X217501Y50016D01*
X215185Y50975D01*
X212700Y51302D01*
D02*
G37*
G36*
X187300D02*
X184815Y50975D01*
X182499Y50016D01*
X180510Y48490D01*
X178984Y46501D01*
X178025Y44185D01*
X177698Y41700D01*
X178025Y39215D01*
X178984Y36899D01*
X180510Y34910D01*
X182499Y33384D01*
X184815Y32425D01*
X187300Y32098D01*
X189785Y32425D01*
X192101Y33384D01*
X194090Y34910D01*
X195616Y36899D01*
X196575Y39215D01*
X196902Y41700D01*
X196575Y44185D01*
X195616Y46501D01*
X194090Y48490D01*
X192101Y50016D01*
X189785Y50975D01*
X187300Y51302D01*
D02*
G37*
G36*
X161900D02*
X159415Y50975D01*
X157099Y50016D01*
X155110Y48490D01*
X153584Y46501D01*
X152625Y44185D01*
X152298Y41700D01*
X152625Y39215D01*
X153584Y36899D01*
X155110Y34910D01*
X157099Y33384D01*
X159415Y32425D01*
X161900Y32098D01*
X164385Y32425D01*
X166701Y33384D01*
X168690Y34910D01*
X170216Y36899D01*
X171175Y39215D01*
X171502Y41700D01*
X171175Y44185D01*
X170216Y46501D01*
X168690Y48490D01*
X166701Y50016D01*
X164385Y50975D01*
X161900Y51302D01*
D02*
G37*
G36*
X136500D02*
X134015Y50975D01*
X131699Y50016D01*
X129710Y48490D01*
X128184Y46501D01*
X127225Y44185D01*
X126898Y41700D01*
X127225Y39215D01*
X128184Y36899D01*
X129710Y34910D01*
X131699Y33384D01*
X134015Y32425D01*
X136500Y32098D01*
X138985Y32425D01*
X141301Y33384D01*
X143290Y34910D01*
X144816Y36899D01*
X145775Y39215D01*
X146102Y41700D01*
X145775Y44185D01*
X144816Y46501D01*
X143290Y48490D01*
X141301Y50016D01*
X138985Y50975D01*
X136500Y51302D01*
D02*
G37*
G36*
X375762Y37069D02*
Y25762D01*
X387069D01*
X386754Y28150D01*
X385539Y31085D01*
X383605Y33605D01*
X381085Y35539D01*
X378150Y36755D01*
X375762Y37069D01*
D02*
G37*
G36*
X374238D02*
X371850Y36755D01*
X368915Y35539D01*
X366395Y33605D01*
X364461Y31085D01*
X363246Y28150D01*
X362931Y25762D01*
X374238D01*
Y37069D01*
D02*
G37*
G36*
X25762D02*
Y25762D01*
X37069D01*
X36755Y28150D01*
X35539Y31085D01*
X33605Y33605D01*
X31084Y35539D01*
X28150Y36755D01*
X25762Y37069D01*
D02*
G37*
G36*
X24238D02*
X21850Y36755D01*
X18915Y35539D01*
X16395Y33605D01*
X14461Y31085D01*
X13246Y28150D01*
X12931Y25762D01*
X24238D01*
Y37069D01*
D02*
G37*
G36*
X387069Y24238D02*
X375762D01*
Y12931D01*
X378150Y13246D01*
X381085Y14461D01*
X383605Y16395D01*
X385539Y18915D01*
X386754Y21850D01*
X387069Y24238D01*
D02*
G37*
G36*
X374238D02*
X362931D01*
X363246Y21850D01*
X364461Y18915D01*
X366395Y16395D01*
X368915Y14461D01*
X371850Y13246D01*
X374238Y12931D01*
Y24238D01*
D02*
G37*
G36*
X37069D02*
X25762D01*
Y12931D01*
X28150Y13246D01*
X31084Y14461D01*
X33605Y16395D01*
X35539Y18915D01*
X36755Y21850D01*
X37069Y24238D01*
D02*
G37*
G36*
X24238D02*
X12931D01*
X13246Y21850D01*
X14461Y18915D01*
X16395Y16395D01*
X18915Y14461D01*
X21850Y13246D01*
X24238Y12931D01*
Y24238D01*
D02*
G37*
%LPD*%
D45*
X161900Y41700D02*
D03*
X187300D02*
D03*
X212700D02*
D03*
X263500D02*
D03*
X238100D02*
D03*
X136500D02*
D03*
X111100D02*
D03*
D46*
X288900D02*
D03*
D47*
X375000Y115000D02*
D03*
X385160Y64200D02*
D03*
X364840D02*
D03*
D48*
X135000Y79250D02*
D03*
X118500Y95750D02*
D03*
X7000Y106750D02*
D03*
Y116750D02*
D03*
Y126750D02*
D03*
Y136750D02*
D03*
X7000Y146500D02*
D03*
X392000Y137000D02*
D03*
Y152000D02*
D03*
Y167000D02*
D03*
Y182000D02*
D03*
Y197000D02*
D03*
Y212000D02*
D03*
X143000Y92000D02*
D03*
X308000Y64000D02*
D03*
X293000Y63000D02*
D03*
X278000D02*
D03*
X263000D02*
D03*
X248000D02*
D03*
X233000D02*
D03*
X218000D02*
D03*
X203000D02*
D03*
X188000D02*
D03*
X173000D02*
D03*
X143000D02*
D03*
X353000Y20000D02*
D03*
Y8000D02*
D03*
X293000D02*
D03*
X278000D02*
D03*
X263000D02*
D03*
X248000D02*
D03*
X233000D02*
D03*
X218000D02*
D03*
X203000D02*
D03*
X83000Y20000D02*
D03*
X68000D02*
D03*
X53000D02*
D03*
X188000Y8000D02*
D03*
X173000D02*
D03*
X158000D02*
D03*
X143000D02*
D03*
X128000D02*
D03*
X113000D02*
D03*
X98000D02*
D03*
X83000D02*
D03*
X68000D02*
D03*
X53000D02*
D03*
X383000Y212000D02*
D03*
Y197000D02*
D03*
Y182000D02*
D03*
Y167000D02*
D03*
Y152000D02*
D03*
Y47000D02*
D03*
X368000Y212000D02*
D03*
Y197000D02*
D03*
Y182000D02*
D03*
Y167000D02*
D03*
Y122000D02*
D03*
Y47000D02*
D03*
X353000Y212000D02*
D03*
Y197000D02*
D03*
Y182000D02*
D03*
Y167000D02*
D03*
Y137000D02*
D03*
Y122000D02*
D03*
Y62000D02*
D03*
Y47000D02*
D03*
Y32000D02*
D03*
X338000Y212000D02*
D03*
Y197000D02*
D03*
Y182000D02*
D03*
Y167000D02*
D03*
Y137000D02*
D03*
Y122000D02*
D03*
Y107000D02*
D03*
Y92000D02*
D03*
Y47000D02*
D03*
Y32000D02*
D03*
X323000Y212000D02*
D03*
Y197000D02*
D03*
Y182000D02*
D03*
Y167000D02*
D03*
Y137000D02*
D03*
Y122000D02*
D03*
Y107000D02*
D03*
Y92000D02*
D03*
Y77000D02*
D03*
Y47000D02*
D03*
Y32000D02*
D03*
X308000Y212000D02*
D03*
Y197000D02*
D03*
Y182000D02*
D03*
Y167000D02*
D03*
Y137000D02*
D03*
Y122000D02*
D03*
Y107000D02*
D03*
Y92000D02*
D03*
Y77000D02*
D03*
Y32000D02*
D03*
X293000Y212000D02*
D03*
Y197000D02*
D03*
Y167000D02*
D03*
Y92000D02*
D03*
X278000Y212000D02*
D03*
Y197000D02*
D03*
Y167000D02*
D03*
Y92000D02*
D03*
X263000Y212000D02*
D03*
Y197000D02*
D03*
Y182000D02*
D03*
Y167000D02*
D03*
Y122000D02*
D03*
Y92000D02*
D03*
Y77000D02*
D03*
X248000Y212000D02*
D03*
Y197000D02*
D03*
Y182000D02*
D03*
Y167000D02*
D03*
Y92000D02*
D03*
Y77000D02*
D03*
X233000Y212000D02*
D03*
Y197000D02*
D03*
Y182000D02*
D03*
Y167000D02*
D03*
Y92000D02*
D03*
Y77000D02*
D03*
X218000Y212000D02*
D03*
Y197000D02*
D03*
Y182000D02*
D03*
Y167000D02*
D03*
Y92000D02*
D03*
Y77000D02*
D03*
X203000Y212000D02*
D03*
Y197000D02*
D03*
Y182000D02*
D03*
Y167000D02*
D03*
Y92000D02*
D03*
Y77000D02*
D03*
Y32000D02*
D03*
X188000Y212000D02*
D03*
Y197000D02*
D03*
Y182000D02*
D03*
Y167000D02*
D03*
Y92000D02*
D03*
Y77000D02*
D03*
X173000Y212000D02*
D03*
Y197000D02*
D03*
Y182000D02*
D03*
Y167000D02*
D03*
Y122000D02*
D03*
Y92000D02*
D03*
Y77000D02*
D03*
X158000Y212000D02*
D03*
Y197000D02*
D03*
Y182000D02*
D03*
Y167000D02*
D03*
Y122000D02*
D03*
Y92000D02*
D03*
Y77000D02*
D03*
X143000Y212000D02*
D03*
Y197000D02*
D03*
Y182000D02*
D03*
Y167000D02*
D03*
Y122000D02*
D03*
X128000Y212000D02*
D03*
Y197000D02*
D03*
Y122000D02*
D03*
X113000Y212000D02*
D03*
Y197000D02*
D03*
Y137000D02*
D03*
Y77000D02*
D03*
X98000Y212000D02*
D03*
Y197000D02*
D03*
Y47000D02*
D03*
X83000Y212000D02*
D03*
Y197000D02*
D03*
X68000Y212000D02*
D03*
Y197000D02*
D03*
Y32000D02*
D03*
X53000Y212000D02*
D03*
Y197000D02*
D03*
Y47000D02*
D03*
Y32000D02*
D03*
X38000Y212000D02*
D03*
Y197000D02*
D03*
Y137000D02*
D03*
Y62000D02*
D03*
Y47000D02*
D03*
X23000Y212000D02*
D03*
Y197000D02*
D03*
Y62000D02*
D03*
Y47000D02*
D03*
X8000Y212000D02*
D03*
Y197000D02*
D03*
Y77000D02*
D03*
Y62000D02*
D03*
Y47000D02*
D03*
X78740Y164846D02*
D03*
X101092Y57658D02*
D03*
X182880Y122174D02*
D03*
X164592Y137922D02*
D03*
X230886Y143764D02*
D03*
X245364Y124460D02*
D03*
X359664Y102362D02*
D03*
X386842Y112014D02*
D03*
X392430Y89662D02*
D03*
X37000Y165000D02*
D03*
X109250Y86750D02*
D03*
Y96750D02*
D03*
Y106750D02*
D03*
D49*
X375000Y25000D02*
D03*
X25000D02*
D03*
M02*
