G04*
G04 #@! TF.GenerationSoftware,Altium Limited,Altium Designer,21.6.4 (81)*
G04*
G04 Layer_Color=16711935*
%FSLAX44Y44*%
%MOMM*%
G71*
G04*
G04 #@! TF.SameCoordinates,F90923F9-7617-4D74-A59D-B478042C8B54*
G04*
G04*
G04 #@! TF.FilePolarity,Positive*
G04*
G01*
G75*
%ADD50C,0.0500*%
%ADD52C,0.1000*%
D50*
X383890Y25000D02*
G03*
X383890Y25000I-8890J0D01*
G01*
X33890D02*
G03*
X33890Y25000I-8890J0D01*
G01*
X208448Y138262D02*
X229448D01*
Y117262D02*
Y138262D01*
X208448Y117262D02*
X229448D01*
X208448D02*
Y138262D01*
X276500Y169500D02*
X276501Y152502D01*
X276500Y152500D02*
X276501Y152502D01*
X276500Y141000D02*
Y152500D01*
Y169500D02*
Y181000D01*
Y141000D02*
X301500D01*
X276500Y181000D02*
X301500D01*
Y141000D02*
Y181000D01*
X301499Y105498D02*
X301500Y88500D01*
X301499Y105498D02*
X301500Y105500D01*
Y117000D01*
Y77000D02*
Y88500D01*
X276500Y117000D02*
X301500D01*
X276500Y77000D02*
X301500D01*
X276500D02*
Y117000D01*
X188556Y119174D02*
X199556D01*
X188556Y125174D02*
X199556D01*
Y119174D02*
Y125174D01*
X188556Y119174D02*
Y125174D01*
X188500Y130000D02*
X199500D01*
X188500Y136000D02*
X199500D01*
Y130000D02*
Y136000D01*
X188500Y130000D02*
Y136000D01*
X236776Y132676D02*
Y143676D01*
X242776Y132676D02*
Y143676D01*
X236776Y132676D02*
X242776D01*
X236776Y143676D02*
X242776D01*
X271000Y144001D02*
Y152001D01*
X265000Y144001D02*
Y152001D01*
X271000D01*
X265000Y144001D02*
X271000D01*
X265000Y105999D02*
Y113999D01*
X271000Y105999D02*
Y113999D01*
X265000Y105999D02*
X271000D01*
X265000Y113999D02*
X271000D01*
D52*
X98400Y26700D02*
X301600D01*
Y1300D02*
Y26700D01*
X98400Y1300D02*
X301600D01*
X98400D02*
Y26700D01*
X107000Y68750D02*
Y218750D01*
X7000D02*
X107000D01*
X7000Y68750D02*
Y218750D01*
Y68750D02*
X107000D01*
X118500Y162000D02*
Y168000D01*
X129500Y162000D02*
Y168000D01*
X118500D02*
X129500D01*
X118500Y162000D02*
X129500D01*
X129400Y174000D02*
Y180000D01*
X118400Y174000D02*
Y180000D01*
Y174000D02*
X129400D01*
X118400Y180000D02*
X129400D01*
M02*
