G04*
G04 #@! TF.GenerationSoftware,Altium Limited,Altium Designer,21.6.4 (81)*
G04*
G04 Layer_Physical_Order=4*
G04 Layer_Color=16711680*
%FSLAX44Y44*%
%MOMM*%
G71*
G04*
G04 #@! TF.SameCoordinates,F90923F9-7617-4D74-A59D-B478042C8B54*
G04*
G04*
G04 #@! TF.FilePolarity,Positive*
G04*
G01*
G75*
%ADD42C,0.1520*%
%ADD43C,0.3500*%
%ADD44C,3.4000*%
%ADD45C,1.6500*%
%ADD46R,1.6500X1.6500*%
%ADD47C,0.9000*%
%ADD48C,0.6000*%
G36*
X395922Y95300D02*
X394652Y94581D01*
X394500Y94672D01*
Y121920D01*
X394342Y122712D01*
X393894Y123384D01*
X357073Y160204D01*
X356402Y160653D01*
X355610Y160810D01*
X85703D01*
X82857Y163656D01*
X83094Y164846D01*
X82762Y166512D01*
X81819Y167924D01*
X80406Y168868D01*
X78740Y169200D01*
X77074Y168868D01*
X75662Y167924D01*
X74718Y166512D01*
X74628Y166061D01*
X73250Y165643D01*
X72429Y166464D01*
X71758Y166912D01*
X70966Y167070D01*
X40753D01*
X40079Y168078D01*
X38666Y169022D01*
X37000Y169354D01*
X35334Y169022D01*
X33921Y168078D01*
X32978Y166666D01*
X32646Y165000D01*
X32978Y163334D01*
X33921Y161922D01*
X35334Y160978D01*
X37000Y160646D01*
X38666Y160978D01*
X40079Y161922D01*
X40753Y162930D01*
X70109D01*
X79309Y153730D01*
X79980Y153282D01*
X80772Y153124D01*
X353999D01*
X384655Y122469D01*
Y115688D01*
X383764Y115092D01*
X382820Y113680D01*
X382488Y112014D01*
X382820Y110348D01*
X383764Y108935D01*
X385176Y107992D01*
X386842Y107660D01*
X388508Y107992D01*
X389090Y108381D01*
X390360Y107702D01*
Y93414D01*
X389352Y92740D01*
X388408Y91328D01*
X388076Y89662D01*
X388408Y87996D01*
X389352Y86583D01*
X390764Y85640D01*
X392430Y85308D01*
X394096Y85640D01*
X394652Y86011D01*
X395922Y85332D01*
Y4078D01*
X4078Y4078D01*
Y102220D01*
X5198Y102818D01*
X5334Y102728D01*
X7000Y102396D01*
X8666Y102728D01*
X10079Y103672D01*
X10753Y104680D01*
X12027D01*
X99171Y17536D01*
X99842Y17088D01*
X100634Y16930D01*
X240800D01*
X241592Y17088D01*
X242264Y17536D01*
X258367Y33639D01*
X258699Y33384D01*
X261015Y32425D01*
X263500Y32098D01*
X265985Y32425D01*
X268301Y33384D01*
X270290Y34910D01*
X271816Y36899D01*
X272775Y39215D01*
X273102Y41700D01*
X272775Y44185D01*
X271816Y46501D01*
X270290Y48490D01*
X268301Y50016D01*
X265985Y50975D01*
X263500Y51302D01*
X261015Y50975D01*
X258699Y50016D01*
X256710Y48490D01*
X255184Y46501D01*
X254225Y44185D01*
X253898Y41700D01*
X254225Y39215D01*
X255184Y36899D01*
X255439Y36567D01*
X239943Y21070D01*
X222056D01*
X221570Y22243D01*
X232966Y33639D01*
X233299Y33384D01*
X235615Y32425D01*
X238100Y32098D01*
X240585Y32425D01*
X242901Y33384D01*
X244890Y34910D01*
X246416Y36899D01*
X247375Y39215D01*
X247702Y41700D01*
X247375Y44185D01*
X246416Y46501D01*
X244890Y48490D01*
X242901Y50016D01*
X240585Y50975D01*
X238100Y51302D01*
X235615Y50975D01*
X233299Y50016D01*
X231310Y48490D01*
X229784Y46501D01*
X228825Y44185D01*
X228498Y41700D01*
X228825Y39215D01*
X229784Y36899D01*
X230039Y36567D01*
X217583Y24110D01*
X210446D01*
X209960Y25283D01*
X214164Y29486D01*
X214612Y30158D01*
X214770Y30950D01*
Y32370D01*
X215185Y32425D01*
X217501Y33384D01*
X219490Y34910D01*
X221016Y36899D01*
X221975Y39215D01*
X222302Y41700D01*
X221975Y44185D01*
X221016Y46501D01*
X219490Y48490D01*
X217501Y50016D01*
X215185Y50975D01*
X212700Y51302D01*
X210215Y50975D01*
X207899Y50016D01*
X205910Y48490D01*
X204384Y46501D01*
X203425Y44185D01*
X203098Y41700D01*
X203425Y39215D01*
X204384Y36899D01*
X205910Y34910D01*
X207899Y33384D01*
X209675Y32648D01*
X210041Y31370D01*
X210011Y31188D01*
X205973Y27150D01*
X177336D01*
X176850Y28323D01*
X182167Y33639D01*
X182499Y33384D01*
X184815Y32425D01*
X187300Y32098D01*
X189785Y32425D01*
X192101Y33384D01*
X194090Y34910D01*
X195616Y36899D01*
X196575Y39215D01*
X196902Y41700D01*
X196575Y44185D01*
X195616Y46501D01*
X194090Y48490D01*
X192101Y50016D01*
X189785Y50975D01*
X187300Y51302D01*
X184815Y50975D01*
X182499Y50016D01*
X180510Y48490D01*
X178984Y46501D01*
X178025Y44185D01*
X177698Y41700D01*
X178025Y39215D01*
X178984Y36899D01*
X179239Y36567D01*
X172863Y30190D01*
X105325D01*
X81100Y54415D01*
X81586Y55588D01*
X97339D01*
X98013Y54580D01*
X99426Y53636D01*
X101092Y53304D01*
X102758Y53636D01*
X104171Y54580D01*
X105114Y55992D01*
X105446Y57658D01*
X105114Y59324D01*
X104171Y60736D01*
X102758Y61680D01*
X101092Y62012D01*
X99426Y61680D01*
X98013Y60736D01*
X97339Y59728D01*
X80351D01*
X24160Y115919D01*
Y131410D01*
X24002Y132202D01*
X23554Y132873D01*
X11117Y145310D01*
X11353Y146500D01*
X11022Y148166D01*
X10078Y149579D01*
X8666Y150522D01*
X7000Y150854D01*
X5334Y150522D01*
X5198Y150432D01*
X4078Y151030D01*
Y215922D01*
X395922Y215922D01*
Y95300D01*
D02*
G37*
%LPC*%
G36*
X230886Y148118D02*
X229220Y147786D01*
X227808Y146842D01*
X227134Y145834D01*
X133858D01*
X133066Y145676D01*
X132395Y145227D01*
X100899Y113731D01*
X100450Y113060D01*
X100292Y112268D01*
Y93638D01*
X100450Y92846D01*
X100899Y92174D01*
X105133Y87940D01*
X104896Y86750D01*
X105228Y85084D01*
X106172Y83672D01*
X107584Y82728D01*
X109250Y82396D01*
X110916Y82728D01*
X112329Y83672D01*
X113272Y85084D01*
X113604Y86750D01*
X113374Y87902D01*
X114545Y88528D01*
X134430Y68643D01*
Y51030D01*
X134015Y50975D01*
X131699Y50016D01*
X129710Y48490D01*
X128184Y46501D01*
X127225Y44185D01*
X126898Y41700D01*
X127225Y39215D01*
X128184Y36899D01*
X129710Y34910D01*
X131699Y33384D01*
X134015Y32425D01*
X136500Y32098D01*
X138985Y32425D01*
X141301Y33384D01*
X143290Y34910D01*
X144816Y36899D01*
X145775Y39215D01*
X146102Y41700D01*
X145775Y44185D01*
X144816Y46501D01*
X143290Y48490D01*
X141301Y50016D01*
X138985Y50975D01*
X138570Y51030D01*
Y69500D01*
X138412Y70292D01*
X137964Y70964D01*
X113367Y95560D01*
X113604Y96750D01*
X113272Y98416D01*
X112329Y99829D01*
X110916Y100772D01*
X109250Y101104D01*
X107584Y100772D01*
X106172Y99829D01*
X105702Y99125D01*
X104432Y99511D01*
Y103989D01*
X105702Y104375D01*
X106172Y103672D01*
X107584Y102728D01*
X109250Y102396D01*
X110916Y102728D01*
X112329Y103672D01*
X113003Y104680D01*
X114643D01*
X159830Y59493D01*
Y51030D01*
X159415Y50975D01*
X157099Y50016D01*
X155110Y48490D01*
X153584Y46501D01*
X152625Y44185D01*
X152298Y41700D01*
X152625Y39215D01*
X153584Y36899D01*
X155110Y34910D01*
X157099Y33384D01*
X159415Y32425D01*
X161900Y32098D01*
X164385Y32425D01*
X166701Y33384D01*
X168690Y34910D01*
X170216Y36899D01*
X171175Y39215D01*
X171502Y41700D01*
X171175Y44185D01*
X170216Y46501D01*
X168690Y48490D01*
X166701Y50016D01*
X164385Y50975D01*
X163970Y51030D01*
Y60350D01*
X163812Y61142D01*
X163364Y61814D01*
X116964Y108214D01*
X116292Y108662D01*
X115500Y108820D01*
X113003D01*
X112329Y109829D01*
X110916Y110772D01*
X109250Y111104D01*
X107584Y110772D01*
X106172Y109829D01*
X105702Y109125D01*
X104432Y109511D01*
Y111411D01*
X134715Y141694D01*
X160450D01*
X161129Y140424D01*
X160570Y139588D01*
X160238Y137922D01*
X160570Y136256D01*
X161514Y134844D01*
X162926Y133900D01*
X164592Y133568D01*
X166258Y133900D01*
X167670Y134844D01*
X167931Y135234D01*
X171719D01*
X180024Y126929D01*
X179863Y125294D01*
X179802Y125253D01*
X178858Y123840D01*
X178526Y122174D01*
X178858Y120508D01*
X179802Y119095D01*
X181214Y118152D01*
X182880Y117820D01*
X184546Y118152D01*
X185958Y119095D01*
X186902Y120508D01*
X187234Y122174D01*
X186902Y123840D01*
X185958Y125253D01*
X184950Y125927D01*
Y127000D01*
X184792Y127792D01*
X184343Y128464D01*
X174040Y138767D01*
X173368Y139216D01*
X172576Y139374D01*
X168657D01*
X168614Y139588D01*
X168055Y140424D01*
X168734Y141694D01*
X227134D01*
X227808Y140686D01*
X229220Y139742D01*
X230886Y139410D01*
X232552Y139742D01*
X233965Y140686D01*
X234908Y142098D01*
X235240Y143764D01*
X234908Y145430D01*
X233965Y146842D01*
X232552Y147786D01*
X230886Y148118D01*
D02*
G37*
G36*
X375000Y121367D02*
X372563Y120883D01*
X370498Y119502D01*
X369117Y117437D01*
X368633Y115000D01*
X369117Y112563D01*
X370498Y110498D01*
X372563Y109117D01*
X375000Y108633D01*
X377437Y109117D01*
X379502Y110498D01*
X380883Y112563D01*
X381367Y115000D01*
X380883Y117437D01*
X379502Y119502D01*
X377437Y120883D01*
X375000Y121367D01*
D02*
G37*
G36*
X385160Y70567D02*
X382723Y70083D01*
X380658Y68702D01*
X379277Y66637D01*
X378793Y64200D01*
X379277Y61763D01*
X380658Y59697D01*
X382723Y58317D01*
X385160Y57833D01*
X387597Y58317D01*
X389662Y59697D01*
X391043Y61763D01*
X391527Y64200D01*
X391043Y66637D01*
X389662Y68702D01*
X387597Y70083D01*
X385160Y70567D01*
D02*
G37*
G36*
X364840D02*
X362403Y70083D01*
X360338Y68702D01*
X358957Y66637D01*
X358473Y64200D01*
X358957Y61763D01*
X360338Y59697D01*
X362403Y58317D01*
X364840Y57833D01*
X367277Y58317D01*
X369342Y59697D01*
X370723Y61763D01*
X371207Y64200D01*
X370723Y66637D01*
X369342Y68702D01*
X367277Y70083D01*
X364840Y70567D01*
D02*
G37*
G36*
X245364Y128814D02*
X243698Y128482D01*
X242285Y127538D01*
X241342Y126126D01*
X241010Y124460D01*
X241342Y122794D01*
X242285Y121382D01*
X243698Y120438D01*
X245363Y120107D01*
X254109Y111361D01*
X255108Y110693D01*
X256286Y110459D01*
X256286Y110459D01*
X347213D01*
X355311Y102361D01*
X355642Y100696D01*
X356585Y99284D01*
Y96525D01*
X304839Y44779D01*
X298420D01*
Y51220D01*
X279380D01*
Y32180D01*
X298420D01*
Y38621D01*
X306114D01*
X307292Y38855D01*
X308291Y39523D01*
X361841Y93073D01*
X362509Y94072D01*
X362743Y95250D01*
Y99284D01*
X363686Y100696D01*
X364018Y102362D01*
X363686Y104028D01*
X362743Y105441D01*
X361330Y106384D01*
X359665Y106715D01*
X350665Y115715D01*
X349666Y116383D01*
X348488Y116617D01*
X257561D01*
X249717Y124461D01*
X249386Y126126D01*
X248442Y127538D01*
X247030Y128482D01*
X245364Y128814D01*
D02*
G37*
G36*
X111862Y51202D02*
Y42462D01*
X120602D01*
X120375Y44185D01*
X119416Y46501D01*
X117890Y48490D01*
X115901Y50016D01*
X113585Y50975D01*
X111862Y51202D01*
D02*
G37*
G36*
X110338D02*
X108615Y50975D01*
X106299Y50016D01*
X104310Y48490D01*
X102784Y46501D01*
X101825Y44185D01*
X101598Y42462D01*
X110338D01*
Y51202D01*
D02*
G37*
G36*
X120602Y40938D02*
X111862D01*
Y32198D01*
X113585Y32425D01*
X115901Y33384D01*
X117890Y34910D01*
X119416Y36899D01*
X120375Y39215D01*
X120602Y40938D01*
D02*
G37*
G36*
X110338D02*
X101598D01*
X101825Y39215D01*
X102784Y36899D01*
X104310Y34910D01*
X106299Y33384D01*
X108615Y32425D01*
X110338Y32198D01*
Y40938D01*
D02*
G37*
G36*
X375762Y43283D02*
Y25762D01*
X393283D01*
X393006Y28582D01*
X391961Y32025D01*
X390264Y35199D01*
X387981Y37981D01*
X385199Y40264D01*
X382025Y41961D01*
X378582Y43006D01*
X375762Y43283D01*
D02*
G37*
G36*
X374238D02*
X371418Y43006D01*
X367975Y41961D01*
X364801Y40264D01*
X362019Y37981D01*
X359736Y35199D01*
X358039Y32025D01*
X356994Y28582D01*
X356717Y25762D01*
X374238D01*
Y43283D01*
D02*
G37*
G36*
X25762D02*
Y25762D01*
X43283D01*
X43006Y28582D01*
X41961Y32025D01*
X40264Y35199D01*
X37981Y37981D01*
X35199Y40264D01*
X32025Y41961D01*
X28582Y43006D01*
X25762Y43283D01*
D02*
G37*
G36*
X24238D02*
X21418Y43006D01*
X17975Y41961D01*
X14801Y40264D01*
X12019Y37981D01*
X9736Y35199D01*
X8039Y32025D01*
X6994Y28582D01*
X6717Y25762D01*
X24238D01*
Y43283D01*
D02*
G37*
G36*
X338670Y21082D02*
X312420D01*
Y9906D01*
X338670D01*
Y21082D01*
D02*
G37*
G36*
X393283Y24238D02*
X375762D01*
Y6717D01*
X378582Y6994D01*
X382025Y8039D01*
X385199Y9736D01*
X387981Y12019D01*
X390264Y14801D01*
X391961Y17975D01*
X393006Y21418D01*
X393283Y24238D01*
D02*
G37*
G36*
X374238D02*
X356717D01*
X356994Y21418D01*
X358039Y17975D01*
X359736Y14801D01*
X362019Y12019D01*
X364801Y9736D01*
X367975Y8039D01*
X371418Y6994D01*
X374238Y6717D01*
Y24238D01*
D02*
G37*
G36*
X43283D02*
X25762D01*
Y6717D01*
X28582Y6994D01*
X32025Y8039D01*
X35199Y9736D01*
X37981Y12019D01*
X40264Y14801D01*
X41961Y17975D01*
X43006Y21418D01*
X43283Y24238D01*
D02*
G37*
G36*
X24238D02*
X6717D01*
X6994Y21418D01*
X8039Y17975D01*
X9736Y14801D01*
X12019Y12019D01*
X14801Y9736D01*
X17975Y8039D01*
X21418Y6994D01*
X24238Y6717D01*
Y24238D01*
D02*
G37*
%LPD*%
G36*
X330900Y11549D02*
X329826D01*
Y14365D01*
X328500Y15644D01*
X325607Y11549D01*
X324188D01*
X327749Y16372D01*
X324334Y19669D01*
X325795D01*
X329826Y15639D01*
Y19669D01*
X330900D01*
Y11549D01*
D02*
G37*
G36*
X337207D02*
X332138D01*
Y12505D01*
X336134D01*
Y19669D01*
X337207D01*
Y11549D01*
D02*
G37*
G36*
X323114D02*
X322040D01*
Y19669D01*
X323114D01*
Y11549D01*
D02*
G37*
G36*
X317499Y19804D02*
X317645Y19799D01*
X317786Y19787D01*
X317927Y19769D01*
X318056Y19746D01*
X318179Y19722D01*
X318291Y19699D01*
X318396Y19669D01*
X318496Y19646D01*
X318584Y19617D01*
X318655Y19593D01*
X318719Y19576D01*
X318772Y19552D01*
X318807Y19540D01*
X318831Y19534D01*
X318836Y19529D01*
X318960Y19476D01*
X319071Y19417D01*
X319177Y19353D01*
X319277Y19288D01*
X319370Y19218D01*
X319452Y19153D01*
X319529Y19083D01*
X319593Y19018D01*
X319652Y18959D01*
X319705Y18901D01*
X319752Y18854D01*
X319787Y18807D01*
X319816Y18772D01*
X319834Y18742D01*
X319846Y18725D01*
X319851Y18719D01*
X319910Y18619D01*
X319963Y18514D01*
X320010Y18414D01*
X320051Y18314D01*
X320086Y18214D01*
X320116Y18120D01*
X320133Y18032D01*
X320157Y17944D01*
X320168Y17862D01*
X320180Y17792D01*
X320186Y17727D01*
X320192Y17674D01*
X320198Y17628D01*
Y17598D01*
Y17575D01*
Y17569D01*
X320192Y17463D01*
X320186Y17364D01*
X320151Y17176D01*
X320110Y17006D01*
X320080Y16929D01*
X320057Y16853D01*
X320028Y16789D01*
X320004Y16730D01*
X319981Y16683D01*
X319957Y16642D01*
X319939Y16607D01*
X319928Y16583D01*
X319922Y16566D01*
X319916Y16560D01*
X319857Y16478D01*
X319799Y16395D01*
X319658Y16249D01*
X319517Y16120D01*
X319376Y16014D01*
X319306Y15967D01*
X319247Y15926D01*
X319188Y15885D01*
X319142Y15856D01*
X319100Y15832D01*
X319071Y15814D01*
X319054Y15809D01*
X319048Y15803D01*
X318954Y15756D01*
X318854Y15715D01*
X318737Y15668D01*
X318613Y15621D01*
X318355Y15533D01*
X318097Y15457D01*
X317980Y15421D01*
X317862Y15392D01*
X317757Y15363D01*
X317669Y15339D01*
X317593Y15322D01*
X317534Y15304D01*
X317516Y15298D01*
X317499D01*
X317493Y15292D01*
X317487D01*
X317288Y15245D01*
X317106Y15199D01*
X316935Y15157D01*
X316789Y15116D01*
X316654Y15081D01*
X316537Y15052D01*
X316437Y15022D01*
X316343Y14993D01*
X316267Y14970D01*
X316202Y14952D01*
X316155Y14934D01*
X316114Y14923D01*
X316079Y14911D01*
X316061Y14905D01*
X316049Y14899D01*
X316044D01*
X315950Y14858D01*
X315868Y14823D01*
X315785Y14782D01*
X315715Y14741D01*
X315645Y14700D01*
X315586Y14659D01*
X315533Y14618D01*
X315486Y14582D01*
X315445Y14547D01*
X315410Y14512D01*
X315351Y14459D01*
X315322Y14424D01*
X315310Y14418D01*
Y14412D01*
X315234Y14301D01*
X315175Y14189D01*
X315134Y14078D01*
X315111Y13978D01*
X315093Y13884D01*
X315087Y13849D01*
Y13814D01*
X315081Y13784D01*
Y13767D01*
Y13755D01*
Y13749D01*
X315093Y13614D01*
X315117Y13479D01*
X315158Y13362D01*
X315199Y13262D01*
X315240Y13174D01*
X315263Y13139D01*
X315281Y13110D01*
X315293Y13086D01*
X315304Y13069D01*
X315316Y13057D01*
Y13051D01*
X315410Y12939D01*
X315521Y12840D01*
X315639Y12752D01*
X315750Y12681D01*
X315856Y12629D01*
X315897Y12605D01*
X315938Y12587D01*
X315967Y12570D01*
X315991Y12558D01*
X316008Y12552D01*
X316014D01*
X316196Y12494D01*
X316378Y12447D01*
X316560Y12417D01*
X316730Y12394D01*
X316806Y12388D01*
X316877Y12382D01*
X316935Y12376D01*
X316988D01*
X317035Y12370D01*
X317094D01*
X317346Y12382D01*
X317581Y12406D01*
X317692Y12429D01*
X317792Y12447D01*
X317892Y12470D01*
X317980Y12494D01*
X318056Y12511D01*
X318132Y12535D01*
X318191Y12558D01*
X318244Y12576D01*
X318285Y12587D01*
X318320Y12599D01*
X318338Y12611D01*
X318344D01*
X318443Y12658D01*
X318537Y12705D01*
X318625Y12758D01*
X318701Y12810D01*
X318778Y12863D01*
X318842Y12916D01*
X318907Y12969D01*
X318960Y13016D01*
X319007Y13063D01*
X319048Y13104D01*
X319083Y13139D01*
X319106Y13174D01*
X319130Y13204D01*
X319147Y13221D01*
X319153Y13233D01*
X319159Y13239D01*
X319247Y13397D01*
X319318Y13562D01*
X319376Y13732D01*
X319417Y13890D01*
X319435Y13966D01*
X319452Y14031D01*
X319464Y14095D01*
X319470Y14148D01*
X319482Y14189D01*
Y14219D01*
X319488Y14242D01*
Y14248D01*
X320503Y14160D01*
X320497Y14007D01*
X320479Y13861D01*
X320456Y13720D01*
X320426Y13585D01*
X320391Y13462D01*
X320356Y13339D01*
X320315Y13227D01*
X320274Y13121D01*
X320239Y13027D01*
X320198Y12945D01*
X320163Y12875D01*
X320127Y12810D01*
X320104Y12764D01*
X320080Y12728D01*
X320069Y12705D01*
X320063Y12699D01*
X319981Y12582D01*
X319893Y12470D01*
X319799Y12370D01*
X319699Y12277D01*
X319605Y12189D01*
X319505Y12106D01*
X319412Y12036D01*
X319318Y11971D01*
X319235Y11919D01*
X319153Y11866D01*
X319083Y11825D01*
X319018Y11789D01*
X318966Y11766D01*
X318930Y11748D01*
X318901Y11737D01*
X318895Y11731D01*
X318754Y11678D01*
X318602Y11625D01*
X318449Y11584D01*
X318291Y11549D01*
X317980Y11490D01*
X317833Y11473D01*
X317692Y11455D01*
X317557Y11443D01*
X317434Y11432D01*
X317323Y11426D01*
X317229Y11420D01*
X317153Y11414D01*
X317047D01*
X316889Y11420D01*
X316730Y11426D01*
X316577Y11443D01*
X316437Y11461D01*
X316302Y11490D01*
X316173Y11514D01*
X316049Y11543D01*
X315938Y11572D01*
X315838Y11602D01*
X315750Y11631D01*
X315674Y11660D01*
X315609Y11684D01*
X315557Y11702D01*
X315515Y11719D01*
X315492Y11725D01*
X315486Y11731D01*
X315357Y11795D01*
X315240Y11860D01*
X315128Y11930D01*
X315028Y12001D01*
X314935Y12077D01*
X314847Y12153D01*
X314764Y12224D01*
X314694Y12294D01*
X314629Y12359D01*
X314577Y12417D01*
X314530Y12476D01*
X314495Y12523D01*
X314465Y12564D01*
X314442Y12593D01*
X314430Y12611D01*
X314424Y12617D01*
X314360Y12728D01*
X314301Y12834D01*
X314248Y12945D01*
X314207Y13051D01*
X314172Y13157D01*
X314143Y13256D01*
X314113Y13356D01*
X314096Y13444D01*
X314078Y13532D01*
X314066Y13608D01*
X314060Y13673D01*
X314055Y13732D01*
X314049Y13779D01*
Y13814D01*
Y13837D01*
Y13843D01*
X314055Y13966D01*
X314060Y14078D01*
X314078Y14189D01*
X314102Y14295D01*
X314125Y14401D01*
X314154Y14494D01*
X314189Y14582D01*
X314219Y14664D01*
X314248Y14735D01*
X314283Y14799D01*
X314313Y14858D01*
X314336Y14905D01*
X314360Y14940D01*
X314371Y14970D01*
X314383Y14987D01*
X314389Y14993D01*
X314459Y15087D01*
X314530Y15175D01*
X314694Y15339D01*
X314870Y15480D01*
X314958Y15545D01*
X315040Y15597D01*
X315122Y15650D01*
X315199Y15697D01*
X315263Y15732D01*
X315322Y15768D01*
X315369Y15791D01*
X315410Y15809D01*
X315433Y15820D01*
X315439Y15826D01*
X315539Y15867D01*
X315656Y15908D01*
X315785Y15955D01*
X315926Y15996D01*
X316073Y16043D01*
X316220Y16084D01*
X316519Y16161D01*
X316660Y16202D01*
X316795Y16231D01*
X316918Y16260D01*
X317023Y16290D01*
X317111Y16307D01*
X317147Y16319D01*
X317176Y16325D01*
X317199Y16331D01*
X317217D01*
X317229Y16337D01*
X317235D01*
X317469Y16395D01*
X317681Y16448D01*
X317868Y16501D01*
X318039Y16554D01*
X318185Y16607D01*
X318320Y16654D01*
X318432Y16701D01*
X318531Y16742D01*
X318613Y16783D01*
X318678Y16818D01*
X318737Y16847D01*
X318778Y16876D01*
X318813Y16894D01*
X318831Y16912D01*
X318842Y16918D01*
X318848Y16924D01*
X318901Y16976D01*
X318948Y17035D01*
X318995Y17094D01*
X319030Y17158D01*
X319083Y17276D01*
X319118Y17393D01*
X319142Y17493D01*
X319147Y17534D01*
X319153Y17575D01*
X319159Y17604D01*
Y17628D01*
Y17639D01*
Y17645D01*
X319153Y17739D01*
X319142Y17827D01*
X319118Y17915D01*
X319089Y17991D01*
X319018Y18138D01*
X318977Y18208D01*
X318936Y18267D01*
X318895Y18320D01*
X318860Y18367D01*
X318819Y18408D01*
X318790Y18443D01*
X318760Y18472D01*
X318737Y18490D01*
X318725Y18502D01*
X318719Y18508D01*
X318631Y18572D01*
X318531Y18625D01*
X318420Y18672D01*
X318308Y18713D01*
X318191Y18748D01*
X318074Y18778D01*
X317839Y18819D01*
X317733Y18836D01*
X317628Y18848D01*
X317540Y18854D01*
X317458Y18860D01*
X317393Y18866D01*
X317299D01*
X317129Y18860D01*
X316971Y18848D01*
X316824Y18830D01*
X316683Y18807D01*
X316560Y18772D01*
X316443Y18742D01*
X316337Y18707D01*
X316243Y18672D01*
X316161Y18631D01*
X316091Y18596D01*
X316032Y18566D01*
X315979Y18537D01*
X315938Y18508D01*
X315914Y18490D01*
X315897Y18478D01*
X315891Y18472D01*
X315809Y18396D01*
X315733Y18308D01*
X315662Y18220D01*
X315604Y18126D01*
X315551Y18027D01*
X315504Y17933D01*
X315463Y17839D01*
X315433Y17745D01*
X315404Y17657D01*
X315381Y17575D01*
X315363Y17499D01*
X315351Y17440D01*
X315340Y17387D01*
X315334Y17346D01*
X315328Y17322D01*
Y17311D01*
X314295Y17387D01*
X314307Y17516D01*
X314319Y17645D01*
X314342Y17768D01*
X314371Y17886D01*
X314401Y17997D01*
X314436Y18103D01*
X314471Y18203D01*
X314506Y18291D01*
X314547Y18373D01*
X314577Y18443D01*
X314612Y18508D01*
X314641Y18561D01*
X314665Y18602D01*
X314682Y18637D01*
X314694Y18654D01*
X314700Y18660D01*
X314770Y18766D01*
X314853Y18860D01*
X314935Y18954D01*
X315023Y19036D01*
X315111Y19112D01*
X315199Y19182D01*
X315281Y19247D01*
X315369Y19300D01*
X315445Y19353D01*
X315521Y19394D01*
X315586Y19435D01*
X315645Y19464D01*
X315692Y19488D01*
X315727Y19505D01*
X315750Y19511D01*
X315756Y19517D01*
X315885Y19570D01*
X316020Y19617D01*
X316155Y19652D01*
X316296Y19687D01*
X316560Y19740D01*
X316689Y19757D01*
X316806Y19775D01*
X316924Y19787D01*
X317023Y19793D01*
X317117Y19804D01*
X317194D01*
X317258Y19810D01*
X317346D01*
X317499Y19804D01*
D02*
G37*
D42*
X206830Y25080D02*
X212700Y30950D01*
Y41700D01*
X103209Y25080D02*
X206830D01*
X173720Y28120D02*
X187300Y41700D01*
X7000Y106750D02*
X12884D01*
X7183Y116750D02*
X101893Y22040D01*
X7000Y116750D02*
X7183D01*
X7000Y126750D02*
X16002Y117748D01*
X19050Y113538D02*
Y124700D01*
X7000Y136750D02*
X19050Y124700D01*
X22090Y115062D02*
Y131410D01*
X7000Y146500D02*
X22090Y131410D01*
X109250Y96750D02*
X136500Y69500D01*
Y41700D02*
Y69500D01*
X115500Y106750D02*
X161900Y60350D01*
X109250Y106750D02*
X115500D01*
X161900Y41700D02*
Y60350D01*
X37000Y165000D02*
X70966D01*
X80772Y155194D02*
X354857D01*
X70966Y165000D02*
X80772Y155194D01*
X78740Y164846D02*
X84846Y158740D01*
X355610D01*
X354857Y155194D02*
X386724Y123326D01*
X355610Y158740D02*
X392430Y121920D01*
X22090Y115062D02*
X79494Y57658D01*
X101092D01*
X165210Y137304D02*
X172576D01*
X182880Y122174D02*
Y127000D01*
X172576Y137304D02*
X182880Y127000D01*
X164592Y137922D02*
X165210Y137304D01*
X102362Y112268D02*
X133858Y143764D01*
X230886D01*
X386724Y112132D02*
Y123326D01*
Y112132D02*
X386842Y112014D01*
X392430Y89662D02*
Y121920D01*
X16002Y112287D02*
X103209Y25080D01*
X100634Y19000D02*
X240800D01*
X101893Y22040D02*
X218440D01*
X19050Y113538D02*
X104468Y28120D01*
X12884Y106750D02*
X100634Y19000D01*
X104468Y28120D02*
X173720D01*
X102362Y93638D02*
Y112268D01*
Y93638D02*
X109250Y86750D01*
X16002Y112287D02*
Y117748D01*
X240800Y19000D02*
X263500Y41700D01*
X218440Y22040D02*
X238100Y41700D01*
D43*
X245364Y124460D02*
X256286Y113538D01*
X348488D02*
X359664Y102362D01*
X256286Y113538D02*
X348488D01*
X359664Y95250D02*
Y102362D01*
X306114Y41700D02*
X359664Y95250D01*
X288900Y41700D02*
X306114D01*
D44*
X375000Y25000D02*
D03*
X25000D02*
D03*
D45*
X161900Y41700D02*
D03*
X187300D02*
D03*
X212700D02*
D03*
X263500D02*
D03*
X238100D02*
D03*
X136500D02*
D03*
X111100D02*
D03*
D46*
X288900D02*
D03*
D47*
X375000Y115000D02*
D03*
X385160Y64200D02*
D03*
X364840D02*
D03*
D48*
X135000Y79250D02*
D03*
X118500Y95750D02*
D03*
X7000Y106750D02*
D03*
Y116750D02*
D03*
Y126750D02*
D03*
Y136750D02*
D03*
X7000Y146500D02*
D03*
X392000Y137000D02*
D03*
Y152000D02*
D03*
Y167000D02*
D03*
Y182000D02*
D03*
Y197000D02*
D03*
Y212000D02*
D03*
X143000Y92000D02*
D03*
X308000Y64000D02*
D03*
X293000Y63000D02*
D03*
X278000D02*
D03*
X263000D02*
D03*
X248000D02*
D03*
X233000D02*
D03*
X218000D02*
D03*
X203000D02*
D03*
X188000D02*
D03*
X173000D02*
D03*
X143000D02*
D03*
X353000Y20000D02*
D03*
Y8000D02*
D03*
X293000D02*
D03*
X278000D02*
D03*
X263000D02*
D03*
X248000D02*
D03*
X233000D02*
D03*
X218000D02*
D03*
X203000D02*
D03*
X83000Y20000D02*
D03*
X68000D02*
D03*
X53000D02*
D03*
X188000Y8000D02*
D03*
X173000D02*
D03*
X158000D02*
D03*
X143000D02*
D03*
X128000D02*
D03*
X113000D02*
D03*
X98000D02*
D03*
X83000D02*
D03*
X68000D02*
D03*
X53000D02*
D03*
X383000Y212000D02*
D03*
Y197000D02*
D03*
Y182000D02*
D03*
Y167000D02*
D03*
Y152000D02*
D03*
Y47000D02*
D03*
X368000Y212000D02*
D03*
Y197000D02*
D03*
Y182000D02*
D03*
Y167000D02*
D03*
Y122000D02*
D03*
Y47000D02*
D03*
X353000Y212000D02*
D03*
Y197000D02*
D03*
Y182000D02*
D03*
Y167000D02*
D03*
Y137000D02*
D03*
Y122000D02*
D03*
Y62000D02*
D03*
Y47000D02*
D03*
Y32000D02*
D03*
X338000Y212000D02*
D03*
Y197000D02*
D03*
Y182000D02*
D03*
Y167000D02*
D03*
Y137000D02*
D03*
Y122000D02*
D03*
Y107000D02*
D03*
Y92000D02*
D03*
Y47000D02*
D03*
Y32000D02*
D03*
X323000Y212000D02*
D03*
Y197000D02*
D03*
Y182000D02*
D03*
Y167000D02*
D03*
Y137000D02*
D03*
Y122000D02*
D03*
Y107000D02*
D03*
Y92000D02*
D03*
Y77000D02*
D03*
Y47000D02*
D03*
Y32000D02*
D03*
X308000Y212000D02*
D03*
Y197000D02*
D03*
Y182000D02*
D03*
Y167000D02*
D03*
Y137000D02*
D03*
Y122000D02*
D03*
Y107000D02*
D03*
Y92000D02*
D03*
Y77000D02*
D03*
Y32000D02*
D03*
X293000Y212000D02*
D03*
Y197000D02*
D03*
Y167000D02*
D03*
Y92000D02*
D03*
X278000Y212000D02*
D03*
Y197000D02*
D03*
Y167000D02*
D03*
Y92000D02*
D03*
X263000Y212000D02*
D03*
Y197000D02*
D03*
Y182000D02*
D03*
Y167000D02*
D03*
Y122000D02*
D03*
Y92000D02*
D03*
Y77000D02*
D03*
X248000Y212000D02*
D03*
Y197000D02*
D03*
Y182000D02*
D03*
Y167000D02*
D03*
Y92000D02*
D03*
Y77000D02*
D03*
X233000Y212000D02*
D03*
Y197000D02*
D03*
Y182000D02*
D03*
Y167000D02*
D03*
Y92000D02*
D03*
Y77000D02*
D03*
X218000Y212000D02*
D03*
Y197000D02*
D03*
Y182000D02*
D03*
Y167000D02*
D03*
Y92000D02*
D03*
Y77000D02*
D03*
X203000Y212000D02*
D03*
Y197000D02*
D03*
Y182000D02*
D03*
Y167000D02*
D03*
Y92000D02*
D03*
Y77000D02*
D03*
Y32000D02*
D03*
X188000Y212000D02*
D03*
Y197000D02*
D03*
Y182000D02*
D03*
Y167000D02*
D03*
Y92000D02*
D03*
Y77000D02*
D03*
X173000Y212000D02*
D03*
Y197000D02*
D03*
Y182000D02*
D03*
Y167000D02*
D03*
Y122000D02*
D03*
Y92000D02*
D03*
Y77000D02*
D03*
X158000Y212000D02*
D03*
Y197000D02*
D03*
Y182000D02*
D03*
Y167000D02*
D03*
Y122000D02*
D03*
Y92000D02*
D03*
Y77000D02*
D03*
X143000Y212000D02*
D03*
Y197000D02*
D03*
Y182000D02*
D03*
Y167000D02*
D03*
Y122000D02*
D03*
X128000Y212000D02*
D03*
Y197000D02*
D03*
Y122000D02*
D03*
X113000Y212000D02*
D03*
Y197000D02*
D03*
Y137000D02*
D03*
Y77000D02*
D03*
X98000Y212000D02*
D03*
Y197000D02*
D03*
Y47000D02*
D03*
X83000Y212000D02*
D03*
Y197000D02*
D03*
X68000Y212000D02*
D03*
Y197000D02*
D03*
Y32000D02*
D03*
X53000Y212000D02*
D03*
Y197000D02*
D03*
Y47000D02*
D03*
Y32000D02*
D03*
X38000Y212000D02*
D03*
Y197000D02*
D03*
Y137000D02*
D03*
Y62000D02*
D03*
Y47000D02*
D03*
X23000Y212000D02*
D03*
Y197000D02*
D03*
Y62000D02*
D03*
Y47000D02*
D03*
X8000Y212000D02*
D03*
Y197000D02*
D03*
Y77000D02*
D03*
Y62000D02*
D03*
Y47000D02*
D03*
X78740Y164846D02*
D03*
X101092Y57658D02*
D03*
X182880Y122174D02*
D03*
X164592Y137922D02*
D03*
X230886Y143764D02*
D03*
X245364Y124460D02*
D03*
X359664Y102362D02*
D03*
X386842Y112014D02*
D03*
X392430Y89662D02*
D03*
X37000Y165000D02*
D03*
X109250Y86750D02*
D03*
Y96750D02*
D03*
Y106750D02*
D03*
M02*
