G04*
G04 #@! TF.GenerationSoftware,Altium Limited,Altium Designer,21.6.4 (81)*
G04*
G04 Layer_Color=128*
%FSLAX44Y44*%
%MOMM*%
G71*
G04*
G04 #@! TF.SameCoordinates,F90923F9-7617-4D74-A59D-B478042C8B54*
G04*
G04*
G04 #@! TF.FilePolarity,Positive*
G04*
G01*
G75*
%ADD51C,0.0508*%
D51*
X366000Y25000D02*
X384000D01*
X375000Y16000D02*
Y34000D01*
X16000Y25000D02*
X34000D01*
X25000Y16000D02*
Y34000D01*
X156400Y41700D02*
X167400D01*
X161900Y36200D02*
Y47200D01*
X181800Y41700D02*
X192800D01*
X187300Y36200D02*
Y47200D01*
X207200Y41700D02*
X218200D01*
X212700Y36200D02*
Y47200D01*
X258000Y41700D02*
X269000D01*
X263500Y36200D02*
Y47200D01*
X283400Y41700D02*
X294400D01*
X288900Y36200D02*
Y47200D01*
X232600Y41700D02*
X243600D01*
X238100Y36200D02*
Y47200D01*
X131000Y41700D02*
X142000D01*
X136500Y36200D02*
Y47200D01*
X105600Y41700D02*
X116600D01*
X111100Y36200D02*
Y47200D01*
X370025Y115000D02*
X379975D01*
X375000Y110025D02*
Y119975D01*
X380185Y64200D02*
X390135D01*
X385160Y59225D02*
Y69175D01*
X359865Y64200D02*
X369815D01*
X364840Y59225D02*
Y69175D01*
X133500Y79250D02*
X136500D01*
X135000Y77750D02*
Y80750D01*
X117000Y95750D02*
X120000D01*
X118500Y94250D02*
Y97250D01*
X5500Y106750D02*
X8500D01*
X7000Y105250D02*
Y108250D01*
X5500Y116750D02*
X8500D01*
X7000Y115250D02*
Y118250D01*
X5500Y126750D02*
X8500D01*
X7000Y125250D02*
Y128250D01*
X5500Y136750D02*
X8500D01*
X7000Y135250D02*
Y138250D01*
X5500Y146500D02*
X8500D01*
X7000Y145000D02*
Y148000D01*
X390500Y137000D02*
X393500D01*
X392000Y135500D02*
Y138500D01*
X390500Y152000D02*
X393500D01*
X392000Y150500D02*
Y153500D01*
X390500Y167000D02*
X393500D01*
X392000Y165500D02*
Y168500D01*
X390500Y182000D02*
X393500D01*
X392000Y180500D02*
Y183500D01*
X390500Y197000D02*
X393500D01*
X392000Y195500D02*
Y198500D01*
X390500Y212000D02*
X393500D01*
X392000Y210500D02*
Y213500D01*
X141500Y92000D02*
X144500D01*
X143000Y90500D02*
Y93500D01*
X306500Y64000D02*
X309500D01*
X308000Y62500D02*
Y65500D01*
X291500Y63000D02*
X294500D01*
X293000Y61500D02*
Y64500D01*
X276500Y63000D02*
X279500D01*
X278000Y61500D02*
Y64500D01*
X261500Y63000D02*
X264500D01*
X263000Y61500D02*
Y64500D01*
X246500Y63000D02*
X249500D01*
X248000Y61500D02*
Y64500D01*
X231500Y63000D02*
X234500D01*
X233000Y61500D02*
Y64500D01*
X216500Y63000D02*
X219500D01*
X218000Y61500D02*
Y64500D01*
X201500Y63000D02*
X204500D01*
X203000Y61500D02*
Y64500D01*
X186500Y63000D02*
X189500D01*
X188000Y61500D02*
Y64500D01*
X171500Y63000D02*
X174500D01*
X173000Y61500D02*
Y64500D01*
X141500Y63000D02*
X144500D01*
X143000Y61500D02*
Y64500D01*
X351500Y20000D02*
X354500D01*
X353000Y18500D02*
Y21500D01*
X351500Y8000D02*
X354500D01*
X353000Y6500D02*
Y9500D01*
X291500Y8000D02*
X294500D01*
X293000Y6500D02*
Y9500D01*
X276500Y8000D02*
X279500D01*
X278000Y6500D02*
Y9500D01*
X261500Y8000D02*
X264500D01*
X263000Y6500D02*
Y9500D01*
X246500Y8000D02*
X249500D01*
X248000Y6500D02*
Y9500D01*
X231500Y8000D02*
X234500D01*
X233000Y6500D02*
Y9500D01*
X216500Y8000D02*
X219500D01*
X218000Y6500D02*
Y9500D01*
X201500Y8000D02*
X204500D01*
X203000Y6500D02*
Y9500D01*
X81500Y20000D02*
X84500D01*
X83000Y18500D02*
Y21500D01*
X66500Y20000D02*
X69500D01*
X68000Y18500D02*
Y21500D01*
X51500Y20000D02*
X54500D01*
X53000Y18500D02*
Y21500D01*
X186500Y8000D02*
X189500D01*
X188000Y6500D02*
Y9500D01*
X171500Y8000D02*
X174500D01*
X173000Y6500D02*
Y9500D01*
X156500Y8000D02*
X159500D01*
X158000Y6500D02*
Y9500D01*
X141500Y8000D02*
X144500D01*
X143000Y6500D02*
Y9500D01*
X126500Y8000D02*
X129500D01*
X128000Y6500D02*
Y9500D01*
X111500Y8000D02*
X114500D01*
X113000Y6500D02*
Y9500D01*
X96500Y8000D02*
X99500D01*
X98000Y6500D02*
Y9500D01*
X81500Y8000D02*
X84500D01*
X83000Y6500D02*
Y9500D01*
X66500Y8000D02*
X69500D01*
X68000Y6500D02*
Y9500D01*
X51500Y8000D02*
X54500D01*
X53000Y6500D02*
Y9500D01*
X381500Y212000D02*
X384500D01*
X383000Y210500D02*
Y213500D01*
X381500Y197000D02*
X384500D01*
X383000Y195500D02*
Y198500D01*
X381500Y182000D02*
X384500D01*
X383000Y180500D02*
Y183500D01*
X381500Y167000D02*
X384500D01*
X383000Y165500D02*
Y168500D01*
X381500Y152000D02*
X384500D01*
X383000Y150500D02*
Y153500D01*
X381500Y47000D02*
X384500D01*
X383000Y45500D02*
Y48500D01*
X366500Y212000D02*
X369500D01*
X368000Y210500D02*
Y213500D01*
X366500Y197000D02*
X369500D01*
X368000Y195500D02*
Y198500D01*
X366500Y182000D02*
X369500D01*
X368000Y180500D02*
Y183500D01*
X366500Y167000D02*
X369500D01*
X368000Y165500D02*
Y168500D01*
X366500Y122000D02*
X369500D01*
X368000Y120500D02*
Y123500D01*
X366500Y47000D02*
X369500D01*
X368000Y45500D02*
Y48500D01*
X351500Y212000D02*
X354500D01*
X353000Y210500D02*
Y213500D01*
X351500Y197000D02*
X354500D01*
X353000Y195500D02*
Y198500D01*
X351500Y182000D02*
X354500D01*
X353000Y180500D02*
Y183500D01*
X351500Y167000D02*
X354500D01*
X353000Y165500D02*
Y168500D01*
X351500Y137000D02*
X354500D01*
X353000Y135500D02*
Y138500D01*
X351500Y122000D02*
X354500D01*
X353000Y120500D02*
Y123500D01*
X351500Y62000D02*
X354500D01*
X353000Y60500D02*
Y63500D01*
X351500Y47000D02*
X354500D01*
X353000Y45500D02*
Y48500D01*
X351500Y32000D02*
X354500D01*
X353000Y30500D02*
Y33500D01*
X336500Y212000D02*
X339500D01*
X338000Y210500D02*
Y213500D01*
X336500Y197000D02*
X339500D01*
X338000Y195500D02*
Y198500D01*
X336500Y182000D02*
X339500D01*
X338000Y180500D02*
Y183500D01*
X336500Y167000D02*
X339500D01*
X338000Y165500D02*
Y168500D01*
X336500Y137000D02*
X339500D01*
X338000Y135500D02*
Y138500D01*
X336500Y122000D02*
X339500D01*
X338000Y120500D02*
Y123500D01*
X336500Y107000D02*
X339500D01*
X338000Y105500D02*
Y108500D01*
X336500Y92000D02*
X339500D01*
X338000Y90500D02*
Y93500D01*
X336500Y47000D02*
X339500D01*
X338000Y45500D02*
Y48500D01*
X336500Y32000D02*
X339500D01*
X338000Y30500D02*
Y33500D01*
X321500Y212000D02*
X324500D01*
X323000Y210500D02*
Y213500D01*
X321500Y197000D02*
X324500D01*
X323000Y195500D02*
Y198500D01*
X321500Y182000D02*
X324500D01*
X323000Y180500D02*
Y183500D01*
X321500Y167000D02*
X324500D01*
X323000Y165500D02*
Y168500D01*
X321500Y137000D02*
X324500D01*
X323000Y135500D02*
Y138500D01*
X321500Y122000D02*
X324500D01*
X323000Y120500D02*
Y123500D01*
X321500Y107000D02*
X324500D01*
X323000Y105500D02*
Y108500D01*
X321500Y92000D02*
X324500D01*
X323000Y90500D02*
Y93500D01*
X321500Y77000D02*
X324500D01*
X323000Y75500D02*
Y78500D01*
X321500Y47000D02*
X324500D01*
X323000Y45500D02*
Y48500D01*
X321500Y32000D02*
X324500D01*
X323000Y30500D02*
Y33500D01*
X306500Y212000D02*
X309500D01*
X308000Y210500D02*
Y213500D01*
X306500Y197000D02*
X309500D01*
X308000Y195500D02*
Y198500D01*
X306500Y182000D02*
X309500D01*
X308000Y180500D02*
Y183500D01*
X306500Y167000D02*
X309500D01*
X308000Y165500D02*
Y168500D01*
X306500Y137000D02*
X309500D01*
X308000Y135500D02*
Y138500D01*
X306500Y122000D02*
X309500D01*
X308000Y120500D02*
Y123500D01*
X306500Y107000D02*
X309500D01*
X308000Y105500D02*
Y108500D01*
X306500Y92000D02*
X309500D01*
X308000Y90500D02*
Y93500D01*
X306500Y77000D02*
X309500D01*
X308000Y75500D02*
Y78500D01*
X306500Y32000D02*
X309500D01*
X308000Y30500D02*
Y33500D01*
X291500Y212000D02*
X294500D01*
X293000Y210500D02*
Y213500D01*
X291500Y197000D02*
X294500D01*
X293000Y195500D02*
Y198500D01*
X291500Y167000D02*
X294500D01*
X293000Y165500D02*
Y168500D01*
X291500Y92000D02*
X294500D01*
X293000Y90500D02*
Y93500D01*
X276500Y212000D02*
X279500D01*
X278000Y210500D02*
Y213500D01*
X276500Y197000D02*
X279500D01*
X278000Y195500D02*
Y198500D01*
X276500Y167000D02*
X279500D01*
X278000Y165500D02*
Y168500D01*
X276500Y92000D02*
X279500D01*
X278000Y90500D02*
Y93500D01*
X261500Y212000D02*
X264500D01*
X263000Y210500D02*
Y213500D01*
X261500Y197000D02*
X264500D01*
X263000Y195500D02*
Y198500D01*
X261500Y182000D02*
X264500D01*
X263000Y180500D02*
Y183500D01*
X261500Y167000D02*
X264500D01*
X263000Y165500D02*
Y168500D01*
X261500Y122000D02*
X264500D01*
X263000Y120500D02*
Y123500D01*
X261500Y92000D02*
X264500D01*
X263000Y90500D02*
Y93500D01*
X261500Y77000D02*
X264500D01*
X263000Y75500D02*
Y78500D01*
X246500Y212000D02*
X249500D01*
X248000Y210500D02*
Y213500D01*
X246500Y197000D02*
X249500D01*
X248000Y195500D02*
Y198500D01*
X246500Y182000D02*
X249500D01*
X248000Y180500D02*
Y183500D01*
X246500Y167000D02*
X249500D01*
X248000Y165500D02*
Y168500D01*
X246500Y92000D02*
X249500D01*
X248000Y90500D02*
Y93500D01*
X246500Y77000D02*
X249500D01*
X248000Y75500D02*
Y78500D01*
X231500Y212000D02*
X234500D01*
X233000Y210500D02*
Y213500D01*
X231500Y197000D02*
X234500D01*
X233000Y195500D02*
Y198500D01*
X231500Y182000D02*
X234500D01*
X233000Y180500D02*
Y183500D01*
X231500Y167000D02*
X234500D01*
X233000Y165500D02*
Y168500D01*
X231500Y92000D02*
X234500D01*
X233000Y90500D02*
Y93500D01*
X231500Y77000D02*
X234500D01*
X233000Y75500D02*
Y78500D01*
X216500Y212000D02*
X219500D01*
X218000Y210500D02*
Y213500D01*
X216500Y197000D02*
X219500D01*
X218000Y195500D02*
Y198500D01*
X216500Y182000D02*
X219500D01*
X218000Y180500D02*
Y183500D01*
X216500Y167000D02*
X219500D01*
X218000Y165500D02*
Y168500D01*
X216500Y92000D02*
X219500D01*
X218000Y90500D02*
Y93500D01*
X216500Y77000D02*
X219500D01*
X218000Y75500D02*
Y78500D01*
X201500Y212000D02*
X204500D01*
X203000Y210500D02*
Y213500D01*
X201500Y197000D02*
X204500D01*
X203000Y195500D02*
Y198500D01*
X201500Y182000D02*
X204500D01*
X203000Y180500D02*
Y183500D01*
X201500Y167000D02*
X204500D01*
X203000Y165500D02*
Y168500D01*
X201500Y92000D02*
X204500D01*
X203000Y90500D02*
Y93500D01*
X201500Y77000D02*
X204500D01*
X203000Y75500D02*
Y78500D01*
X201500Y32000D02*
X204500D01*
X203000Y30500D02*
Y33500D01*
X186500Y212000D02*
X189500D01*
X188000Y210500D02*
Y213500D01*
X186500Y197000D02*
X189500D01*
X188000Y195500D02*
Y198500D01*
X186500Y182000D02*
X189500D01*
X188000Y180500D02*
Y183500D01*
X186500Y167000D02*
X189500D01*
X188000Y165500D02*
Y168500D01*
X186500Y92000D02*
X189500D01*
X188000Y90500D02*
Y93500D01*
X186500Y77000D02*
X189500D01*
X188000Y75500D02*
Y78500D01*
X171500Y212000D02*
X174500D01*
X173000Y210500D02*
Y213500D01*
X171500Y197000D02*
X174500D01*
X173000Y195500D02*
Y198500D01*
X171500Y182000D02*
X174500D01*
X173000Y180500D02*
Y183500D01*
X171500Y167000D02*
X174500D01*
X173000Y165500D02*
Y168500D01*
X171500Y122000D02*
X174500D01*
X173000Y120500D02*
Y123500D01*
X171500Y92000D02*
X174500D01*
X173000Y90500D02*
Y93500D01*
X171500Y77000D02*
X174500D01*
X173000Y75500D02*
Y78500D01*
X156500Y212000D02*
X159500D01*
X158000Y210500D02*
Y213500D01*
X156500Y197000D02*
X159500D01*
X158000Y195500D02*
Y198500D01*
X156500Y182000D02*
X159500D01*
X158000Y180500D02*
Y183500D01*
X156500Y167000D02*
X159500D01*
X158000Y165500D02*
Y168500D01*
X156500Y122000D02*
X159500D01*
X158000Y120500D02*
Y123500D01*
X156500Y92000D02*
X159500D01*
X158000Y90500D02*
Y93500D01*
X156500Y77000D02*
X159500D01*
X158000Y75500D02*
Y78500D01*
X141500Y212000D02*
X144500D01*
X143000Y210500D02*
Y213500D01*
X141500Y197000D02*
X144500D01*
X143000Y195500D02*
Y198500D01*
X141500Y182000D02*
X144500D01*
X143000Y180500D02*
Y183500D01*
X141500Y167000D02*
X144500D01*
X143000Y165500D02*
Y168500D01*
X141500Y122000D02*
X144500D01*
X143000Y120500D02*
Y123500D01*
X126500Y212000D02*
X129500D01*
X128000Y210500D02*
Y213500D01*
X126500Y197000D02*
X129500D01*
X128000Y195500D02*
Y198500D01*
X126500Y122000D02*
X129500D01*
X128000Y120500D02*
Y123500D01*
X111500Y212000D02*
X114500D01*
X113000Y210500D02*
Y213500D01*
X111500Y197000D02*
X114500D01*
X113000Y195500D02*
Y198500D01*
X111500Y137000D02*
X114500D01*
X113000Y135500D02*
Y138500D01*
X111500Y77000D02*
X114500D01*
X113000Y75500D02*
Y78500D01*
X96500Y212000D02*
X99500D01*
X98000Y210500D02*
Y213500D01*
X96500Y197000D02*
X99500D01*
X98000Y195500D02*
Y198500D01*
X96500Y47000D02*
X99500D01*
X98000Y45500D02*
Y48500D01*
X81500Y212000D02*
X84500D01*
X83000Y210500D02*
Y213500D01*
X81500Y197000D02*
X84500D01*
X83000Y195500D02*
Y198500D01*
X66500Y212000D02*
X69500D01*
X68000Y210500D02*
Y213500D01*
X66500Y197000D02*
X69500D01*
X68000Y195500D02*
Y198500D01*
X66500Y32000D02*
X69500D01*
X68000Y30500D02*
Y33500D01*
X51500Y212000D02*
X54500D01*
X53000Y210500D02*
Y213500D01*
X51500Y197000D02*
X54500D01*
X53000Y195500D02*
Y198500D01*
X51500Y47000D02*
X54500D01*
X53000Y45500D02*
Y48500D01*
X51500Y32000D02*
X54500D01*
X53000Y30500D02*
Y33500D01*
X36500Y212000D02*
X39500D01*
X38000Y210500D02*
Y213500D01*
X36500Y197000D02*
X39500D01*
X38000Y195500D02*
Y198500D01*
X36500Y137000D02*
X39500D01*
X38000Y135500D02*
Y138500D01*
X36500Y62000D02*
X39500D01*
X38000Y60500D02*
Y63500D01*
X36500Y47000D02*
X39500D01*
X38000Y45500D02*
Y48500D01*
X21500Y212000D02*
X24500D01*
X23000Y210500D02*
Y213500D01*
X21500Y197000D02*
X24500D01*
X23000Y195500D02*
Y198500D01*
X21500Y62000D02*
X24500D01*
X23000Y60500D02*
Y63500D01*
X21500Y47000D02*
X24500D01*
X23000Y45500D02*
Y48500D01*
X6500Y212000D02*
X9500D01*
X8000Y210500D02*
Y213500D01*
X6500Y197000D02*
X9500D01*
X8000Y195500D02*
Y198500D01*
X6500Y77000D02*
X9500D01*
X8000Y75500D02*
Y78500D01*
X6500Y62000D02*
X9500D01*
X8000Y60500D02*
Y63500D01*
X6500Y47000D02*
X9500D01*
X8000Y45500D02*
Y48500D01*
X77240Y164846D02*
X80240D01*
X78740Y163346D02*
Y166346D01*
X99592Y57658D02*
X102592D01*
X101092Y56158D02*
Y59158D01*
X181380Y122174D02*
X184380D01*
X182880Y120674D02*
Y123674D01*
X163092Y137922D02*
X166092D01*
X164592Y136422D02*
Y139422D01*
X229386Y143764D02*
X232386D01*
X230886Y142264D02*
Y145264D01*
X243864Y124460D02*
X246864D01*
X245364Y122960D02*
Y125960D01*
X358164Y102362D02*
X361164D01*
X359664Y100862D02*
Y103862D01*
X385342Y112014D02*
X388342D01*
X386842Y110514D02*
Y113514D01*
X390930Y89662D02*
X393930D01*
X392430Y88162D02*
Y91162D01*
X35500Y165000D02*
X38500D01*
X37000Y163500D02*
Y166500D01*
X107750Y86750D02*
X110750D01*
X109250Y85250D02*
Y88250D01*
X107750Y96750D02*
X110750D01*
X109250Y95250D02*
Y98250D01*
X107750Y106750D02*
X110750D01*
X109250Y105250D02*
Y108250D01*
M02*
