G04*
G04 #@! TF.GenerationSoftware,Altium Limited,Altium Designer,21.6.4 (81)*
G04*
G04 Layer_Color=32768*
%FSLAX44Y44*%
%MOMM*%
G71*
G04*
G04 #@! TF.SameCoordinates,F90923F9-7617-4D74-A59D-B478042C8B54*
G04*
G04*
G04 #@! TF.FilePolarity,Positive*
G04*
G01*
G75*
%ADD50C,0.0500*%
%ADD51C,0.0508*%
D50*
X208948Y131759D02*
Y123762D01*
X212947D01*
X214280Y125095D01*
Y130427D01*
X212947Y131759D01*
X208948D01*
X216945Y130427D02*
X218278Y131759D01*
X220944D01*
X222277Y130427D01*
Y129094D01*
X220944Y127761D01*
X219611D01*
X220944D01*
X222277Y126428D01*
Y125095D01*
X220944Y123762D01*
X218278D01*
X216945Y125095D01*
X359760Y21190D02*
Y31187D01*
X363092Y27854D01*
X366424Y31187D01*
Y21190D01*
X369757Y31187D02*
Y21190D01*
Y26188D01*
X376421D01*
Y31187D01*
Y21190D01*
X386418D02*
X379754D01*
X386418Y27854D01*
Y29521D01*
X384752Y31187D01*
X381420D01*
X379754Y29521D01*
X9760Y21190D02*
Y31187D01*
X13092Y27854D01*
X16424Y31187D01*
Y21190D01*
X19757Y31187D02*
Y21190D01*
Y26188D01*
X26421D01*
Y31187D01*
Y21190D01*
X29754D02*
X33086D01*
X31420D01*
Y31187D01*
X29754Y29521D01*
X283504Y147997D02*
X281005Y145498D01*
Y140499D01*
X283504Y138000D01*
X286003D01*
X288502Y140499D01*
Y145498D01*
X291002Y147997D01*
X293501D01*
X296000Y145498D01*
Y140499D01*
X293501Y138000D01*
X281005Y152995D02*
X296000D01*
X291002Y157993D01*
X296000Y162992D01*
X281005D01*
X296000Y177987D02*
Y167990D01*
X286003Y177987D01*
X283504D01*
X281005Y175488D01*
Y170490D01*
X283504Y167990D01*
X294496Y110003D02*
X296995Y112502D01*
Y117501D01*
X294496Y120000D01*
X291997D01*
X289498Y117501D01*
Y112502D01*
X286998Y110003D01*
X284499D01*
X282000Y112502D01*
Y117501D01*
X284499Y120000D01*
X296995Y105005D02*
X282000D01*
X286998Y100007D01*
X282000Y95008D01*
X296995D01*
X282000Y90010D02*
Y85011D01*
Y87510D01*
X296995D01*
X294496Y90010D01*
X188556Y119924D02*
Y124922D01*
X191055D01*
X191888Y124089D01*
Y122423D01*
X191055Y121590D01*
X188556D01*
X190222D02*
X191888Y119924D01*
X193554Y124089D02*
X194387Y124922D01*
X196054D01*
X196887Y124089D01*
Y123256D01*
X196054Y122423D01*
X195221D01*
X196054D01*
X196887Y121590D01*
Y120757D01*
X196054Y119924D01*
X194387D01*
X193554Y120757D01*
X188500Y130750D02*
Y135748D01*
X190999D01*
X191832Y134915D01*
Y133249D01*
X190999Y132416D01*
X188500D01*
X190166D02*
X191832Y130750D01*
X196831D02*
X193498D01*
X196831Y134082D01*
Y134915D01*
X195998Y135748D01*
X194331D01*
X193498Y134915D01*
X237526Y143676D02*
X242524D01*
Y141177D01*
X241691Y140344D01*
X240025D01*
X239192Y141177D01*
Y143676D01*
Y142010D02*
X237526Y140344D01*
Y138678D02*
Y137011D01*
Y137845D01*
X242524D01*
X241691Y138678D01*
D51*
X265501Y141000D02*
X270000D01*
Y143249D01*
X269250Y143999D01*
X266251D01*
X265501Y143249D01*
Y141000D01*
X270000Y148498D02*
Y145499D01*
X267001Y148498D01*
X266251D01*
X265501Y147748D01*
Y146248D01*
X266251Y145499D01*
X270499Y117000D02*
X266000D01*
Y114751D01*
X266750Y114001D01*
X269749D01*
X270499Y114751D01*
Y117000D01*
X266000Y112501D02*
Y111002D01*
Y111752D01*
X270499D01*
X269749Y112501D01*
M02*
