G04*
G04 #@! TF.GenerationSoftware,Altium Limited,Altium Designer,21.6.4 (81)*
G04*
G04 Layer_Color=8388736*
%FSLAX44Y44*%
%MOMM*%
G71*
G04*
G04 #@! TF.SameCoordinates,F90923F9-7617-4D74-A59D-B478042C8B54*
G04*
G04*
G04 #@! TF.FilePolarity,Negative*
G04*
G01*
G75*
%ADD26R,1.1000X0.9000*%
%ADD27R,1.2500X0.8000*%
%ADD28R,0.8000X1.2500*%
%ADD29R,0.8000X0.8000*%
%ADD30R,0.8000X0.8000*%
%ADD31R,0.8800X0.8400*%
%ADD32C,0.8900*%
%ADD33R,1.8000X0.9000*%
%ADD34R,0.6200X0.6500*%
%ADD35R,0.6500X0.6200*%
%ADD36R,0.4500X0.4600*%
%ADD37C,3.5000*%
%ADD38C,1.7500*%
%ADD39R,1.7500X1.7500*%
%ADD40C,1.0000*%
D26*
X226448Y133262D02*
D03*
X211448D02*
D03*
Y122262D02*
D03*
X226448D02*
D03*
D27*
X98250Y86750D02*
D03*
Y96750D02*
D03*
Y106750D02*
D03*
Y116750D02*
D03*
Y126750D02*
D03*
Y136750D02*
D03*
Y146750D02*
D03*
Y156750D02*
D03*
Y166750D02*
D03*
Y176750D02*
D03*
X15750D02*
D03*
Y166750D02*
D03*
Y156750D02*
D03*
Y146750D02*
D03*
Y136750D02*
D03*
Y126750D02*
D03*
Y116750D02*
D03*
Y106750D02*
D03*
Y96750D02*
D03*
Y86750D02*
D03*
D28*
X37000Y176000D02*
D03*
X47000D02*
D03*
X57000D02*
D03*
X67000D02*
D03*
X77000D02*
D03*
Y87500D02*
D03*
X67000D02*
D03*
X57000D02*
D03*
X47000D02*
D03*
X37000D02*
D03*
D29*
X74250Y149000D02*
D03*
X62750D02*
D03*
X51250D02*
D03*
X39750D02*
D03*
Y126000D02*
D03*
X51250Y137500D02*
D03*
X62750D02*
D03*
Y114500D02*
D03*
X74250Y126000D02*
D03*
X62750D02*
D03*
X51250D02*
D03*
Y114500D02*
D03*
D30*
X84500Y101250D02*
D03*
Y112250D02*
D03*
Y123250D02*
D03*
Y134250D02*
D03*
Y145250D02*
D03*
Y156250D02*
D03*
X29500D02*
D03*
Y145250D02*
D03*
Y134250D02*
D03*
Y123250D02*
D03*
Y112250D02*
D03*
Y101250D02*
D03*
X40500D02*
D03*
X51500D02*
D03*
X62500D02*
D03*
X73500D02*
D03*
X17000Y75250D02*
D03*
X27000D02*
D03*
X37000D02*
D03*
X47000D02*
D03*
X57000D02*
D03*
X67000D02*
D03*
X77000D02*
D03*
X87000D02*
D03*
X97000D02*
D03*
D31*
X119100Y165000D02*
D03*
X128900D02*
D03*
X128800Y177000D02*
D03*
X119000D02*
D03*
D32*
X368650Y102300D02*
D03*
X381350D02*
D03*
X368650Y89600D02*
D03*
X381350D02*
D03*
X368650Y76900D02*
D03*
X381350D02*
D03*
D33*
X289000Y144000D02*
D03*
Y178000D02*
D03*
Y114000D02*
D03*
Y80000D02*
D03*
D34*
X198056Y122174D02*
D03*
X190056D02*
D03*
X198000Y133000D02*
D03*
X190000D02*
D03*
D35*
X239776Y134176D02*
D03*
Y142176D02*
D03*
D36*
X268000Y152200D02*
D03*
Y143800D02*
D03*
X268000Y105800D02*
D03*
Y114200D02*
D03*
D37*
X375000Y25000D02*
D03*
X25000D02*
D03*
D38*
X161900Y41700D02*
D03*
X187300D02*
D03*
X212700D02*
D03*
X263500D02*
D03*
X238100D02*
D03*
X136500D02*
D03*
X111100D02*
D03*
D39*
X288900D02*
D03*
D40*
X375000Y115000D02*
D03*
X385160Y64200D02*
D03*
X364840D02*
D03*
M02*
