G04*
G04 #@! TF.GenerationSoftware,Altium Limited,Altium Designer,21.6.4 (81)*
G04*
G04 Layer_Physical_Order=1*
G04 Layer_Color=255*
%FSLAX44Y44*%
%MOMM*%
G71*
G04*
G04 #@! TF.SameCoordinates,F90923F9-7617-4D74-A59D-B478042C8B54*
G04*
G04*
G04 #@! TF.FilePolarity,Positive*
G04*
G01*
G75*
%ADD15R,1.0000X0.8000*%
%ADD16R,1.1500X0.7000*%
%ADD17R,0.7000X1.1500*%
%ADD18R,0.7000X0.7000*%
%ADD19R,0.7000X0.7000*%
%ADD20R,0.7800X0.7400*%
%ADD22R,1.7000X0.8000*%
%ADD23R,0.5200X0.5500*%
%ADD24R,0.5500X0.5200*%
%ADD25R,0.3500X0.3600*%
%ADD41C,0.7900*%
%ADD42C,0.1520*%
%ADD43C,0.3500*%
%ADD44C,3.4000*%
%ADD45C,1.6500*%
%ADD46R,1.6500X1.6500*%
%ADD47C,0.9000*%
%ADD48C,0.6000*%
G36*
X395922Y93992D02*
X394652Y93313D01*
X394096Y93684D01*
X392430Y94016D01*
X390764Y93684D01*
X389352Y92740D01*
X388657Y91701D01*
X386224D01*
X385113Y93363D01*
X383387Y94517D01*
X381350Y94922D01*
Y96978D01*
X383387Y97383D01*
X385113Y98537D01*
X386267Y100263D01*
X386672Y102300D01*
X386275Y104298D01*
X388306Y106328D01*
X388754Y107000D01*
X388912Y107792D01*
Y108261D01*
X389921Y108935D01*
X390864Y110348D01*
X391196Y112014D01*
X390864Y113680D01*
X389921Y115092D01*
X388508Y116036D01*
X386842Y116368D01*
X385176Y116036D01*
X383764Y115092D01*
X382820Y113680D01*
X382488Y112014D01*
X382820Y110348D01*
X383764Y108935D01*
X383824Y108318D01*
X382772Y107339D01*
X381350Y107622D01*
X379313Y107217D01*
X377587Y106063D01*
X376433Y104337D01*
X376048Y102400D01*
X373952D01*
X373567Y104337D01*
X372413Y106063D01*
X370687Y107217D01*
X368650Y107622D01*
X366613Y107217D01*
X364887Y106063D01*
X364471Y105441D01*
X362742D01*
X361330Y106384D01*
X359664Y106716D01*
X357998Y106384D01*
X356586Y105441D01*
X355642Y104028D01*
X355310Y102362D01*
X355642Y100696D01*
X356586Y99284D01*
X357998Y98340D01*
X359664Y98008D01*
X361330Y98340D01*
X362742Y99283D01*
X364388D01*
X364887Y98537D01*
X366613Y97383D01*
X368650Y96978D01*
Y94922D01*
X366613Y94517D01*
X364887Y93363D01*
X363733Y91637D01*
X363328Y89600D01*
X363725Y87602D01*
X335851Y59728D01*
X104845D01*
X104171Y60736D01*
X102758Y61680D01*
X101092Y62012D01*
X99426Y61680D01*
X98013Y60736D01*
X97070Y59324D01*
X96738Y57658D01*
X97070Y55992D01*
X98013Y54580D01*
X99426Y53636D01*
X101092Y53304D01*
X102758Y53636D01*
X104171Y54580D01*
X104845Y55588D01*
X336708D01*
X337500Y55746D01*
X338172Y56195D01*
X366652Y84675D01*
X368650Y84278D01*
Y82222D01*
X366613Y81817D01*
X364887Y80663D01*
X363733Y78937D01*
X363479Y77662D01*
X368650D01*
Y76900D01*
X369412D01*
Y71729D01*
X370687Y71983D01*
X372413Y73137D01*
X373567Y74863D01*
X373972Y76900D01*
X376028D01*
X376433Y74863D01*
X377587Y73137D01*
X379313Y71983D01*
X381350Y71578D01*
X383387Y71983D01*
X385113Y73137D01*
X386267Y74863D01*
X386672Y76900D01*
X386267Y78937D01*
X385113Y80663D01*
X383387Y81817D01*
X381350Y82222D01*
Y84278D01*
X383387Y84683D01*
X385113Y85836D01*
X386266Y87561D01*
X388698D01*
X389352Y86583D01*
X390764Y85640D01*
X392430Y85308D01*
X394096Y85640D01*
X394652Y86011D01*
X395922Y85332D01*
Y4078D01*
X4078Y4078D01*
Y102220D01*
X5198Y102818D01*
X5334Y102728D01*
X7000Y102396D01*
X7460Y102488D01*
X8624Y102022D01*
X8730Y101446D01*
X8730Y100710D01*
Y92790D01*
X8730Y91980D01*
X8730Y90710D01*
Y81980D01*
X22770D01*
Y90710D01*
X22770Y91520D01*
X22770Y92790D01*
Y100710D01*
X22770Y101520D01*
X22770Y102790D01*
Y111520D01*
X22770D01*
Y111980D01*
X22770D01*
Y121520D01*
X22770D01*
Y121980D01*
X22770D01*
Y131520D01*
X22770D01*
Y131980D01*
X22770D01*
Y141520D01*
X22770D01*
Y141980D01*
X22770D01*
Y150710D01*
X22770Y151520D01*
X22770Y152790D01*
Y160710D01*
X22770Y161520D01*
X22770Y162790D01*
Y170710D01*
X22770Y171520D01*
X22770Y172790D01*
Y181520D01*
X8730D01*
Y172790D01*
X8730Y171980D01*
X8730Y170710D01*
Y162790D01*
X8730Y161980D01*
X8730Y160710D01*
Y152790D01*
X8730Y151520D01*
X7460Y150762D01*
X7000Y150854D01*
X5334Y150522D01*
X5198Y150432D01*
X4078Y151030D01*
Y215922D01*
X395922Y215922D01*
Y93992D01*
D02*
G37*
%LPC*%
G36*
X72230Y183020D02*
X70960Y183020D01*
X67762D01*
Y176000D01*
Y168980D01*
X70960D01*
X71770Y168980D01*
X73040Y168980D01*
X74956D01*
X75276Y168501D01*
X75518Y167710D01*
X74718Y166512D01*
X74386Y164846D01*
X74718Y163180D01*
X75662Y161768D01*
X77074Y160824D01*
X78740Y160492D01*
X78748Y160494D01*
X79730Y159688D01*
Y154746D01*
X79020Y153770D01*
X78460Y153770D01*
X75012D01*
Y149000D01*
Y144230D01*
X78460D01*
X79020Y144230D01*
X79730Y143254D01*
Y140480D01*
X89270D01*
Y150020D01*
X80788D01*
X80365Y150750D01*
X80788Y151480D01*
X89270D01*
Y161020D01*
X82812D01*
X82168Y162290D01*
X82762Y163180D01*
X83094Y164846D01*
X82762Y166512D01*
X81920Y167772D01*
X81770Y168980D01*
X81770Y168980D01*
X81770Y168980D01*
Y183020D01*
X72230Y183020D01*
D02*
G37*
G36*
X62230D02*
X60960Y183020D01*
X53040D01*
X52230Y183020D01*
X50960Y183020D01*
X47762D01*
Y176000D01*
Y168980D01*
X50960D01*
X51770Y168980D01*
X53040Y168980D01*
X60960D01*
X61770Y168980D01*
X63040Y168980D01*
X66238D01*
Y176000D01*
Y183020D01*
X63040D01*
X62230Y183020D01*
D02*
G37*
G36*
X128038Y181970D02*
X113830D01*
Y179954D01*
X105270D01*
Y181520D01*
X91230D01*
Y171980D01*
X91230D01*
Y171520D01*
X91230D01*
Y162790D01*
X91230Y161980D01*
X91230Y160710D01*
Y151980D01*
X91230D01*
Y151520D01*
X91230D01*
Y142790D01*
X91230Y141980D01*
X91230Y140710D01*
Y137512D01*
X98250D01*
X105270D01*
Y140710D01*
X105270Y141520D01*
X105270Y142790D01*
Y144680D01*
X113251D01*
X127569Y130363D01*
X128240Y129914D01*
X129032Y129756D01*
X186130D01*
Y128980D01*
X192860D01*
X193870Y128980D01*
X195140Y128980D01*
X201870D01*
Y131192D01*
X204280D01*
X205178Y130294D01*
X205178Y127992D01*
X205178Y126722D01*
Y124332D01*
X201926D01*
Y126194D01*
X195196D01*
X194186Y126194D01*
X192916Y126194D01*
X186186D01*
X186186Y126194D01*
Y126194D01*
X184916Y125949D01*
X184546Y126196D01*
X182880Y126528D01*
X181214Y126196D01*
X179802Y125253D01*
X178858Y123840D01*
X178526Y122174D01*
X178858Y120508D01*
X179802Y119095D01*
X181214Y118152D01*
X182551Y117886D01*
X182426Y116616D01*
X124055D01*
X112458Y128214D01*
X111786Y128662D01*
X110994Y128820D01*
X106168D01*
X105270Y129718D01*
X105270Y131520D01*
X105270Y132790D01*
Y135988D01*
X98250D01*
X91230D01*
Y132790D01*
X91230Y131980D01*
X91230Y130710D01*
Y121980D01*
X91230D01*
Y121520D01*
X91230D01*
Y112790D01*
X91230Y111980D01*
X91230Y110710D01*
Y102790D01*
X91230Y101980D01*
X91230Y100710D01*
Y92790D01*
X91230Y91980D01*
X91230Y90710D01*
Y81980D01*
X105270D01*
Y82863D01*
X105364Y82947D01*
X106540Y83425D01*
X107584Y82728D01*
X109250Y82396D01*
X110916Y82728D01*
X112329Y83672D01*
X113272Y85084D01*
X113604Y86750D01*
X113272Y88416D01*
X112329Y89829D01*
X110916Y90772D01*
X109250Y91104D01*
X107584Y90772D01*
X106540Y90075D01*
X105364Y90553D01*
X105270Y90637D01*
X105270Y91520D01*
X105270Y92863D01*
X105364Y92947D01*
X106540Y93425D01*
X107584Y92728D01*
X109250Y92396D01*
X110916Y92728D01*
X112329Y93672D01*
X113272Y95084D01*
X113604Y96750D01*
X113272Y98416D01*
X112329Y99829D01*
X110916Y100772D01*
X109250Y101104D01*
X107584Y100772D01*
X106540Y100075D01*
X105364Y100553D01*
X105270Y100637D01*
X105270Y101520D01*
X105270Y102863D01*
X105364Y102947D01*
X106540Y103425D01*
X107584Y102728D01*
X109250Y102396D01*
X110916Y102728D01*
X112329Y103672D01*
X113272Y105084D01*
X113604Y106750D01*
X113272Y108416D01*
X112329Y109829D01*
X110916Y110772D01*
X109250Y111104D01*
X107584Y110772D01*
X106540Y110075D01*
X105364Y110553D01*
X105270Y110637D01*
X105270Y111520D01*
X105270Y112790D01*
Y114680D01*
X115837D01*
X120475Y110042D01*
X121147Y109594D01*
X121939Y109436D01*
X258826D01*
X259618Y109594D01*
X260289Y110042D01*
X262377Y112130D01*
X264980D01*
Y111130D01*
X271020D01*
Y112130D01*
X279230D01*
Y108730D01*
X298770D01*
Y119270D01*
X279230D01*
Y116270D01*
X271020D01*
Y117270D01*
X264980D01*
Y116270D01*
X261520D01*
X260728Y116112D01*
X260056Y115663D01*
X257969Y113576D01*
X249988D01*
X249502Y114749D01*
X269464Y134711D01*
X269912Y135382D01*
X270070Y136174D01*
Y140730D01*
X271020D01*
Y141730D01*
X279230D01*
Y138730D01*
X298770D01*
Y149270D01*
X279230D01*
Y145870D01*
X271020D01*
Y146870D01*
X264980D01*
Y140730D01*
X265930D01*
Y137031D01*
X245515Y116616D01*
X233832D01*
X232718Y116992D01*
X232718Y118285D01*
X233616Y119183D01*
X242738D01*
X243917Y119417D01*
X244916Y120085D01*
X245008Y120177D01*
X245364Y120106D01*
X247030Y120438D01*
X248442Y121382D01*
X249386Y122794D01*
X249718Y124460D01*
X249647Y124816D01*
X250843Y126012D01*
X251511Y127011D01*
X251745Y128189D01*
X251745Y128190D01*
Y147828D01*
X251511Y149006D01*
X250843Y150005D01*
X244747Y156101D01*
X243748Y156769D01*
X242570Y157003D01*
X124719D01*
X122963Y158760D01*
X123489Y160030D01*
X128138D01*
Y165000D01*
Y169970D01*
X122129D01*
Y172030D01*
X128038D01*
Y177000D01*
Y181970D01*
D02*
G37*
G36*
X298770Y183270D02*
X289762D01*
Y178762D01*
X298770D01*
Y183270D01*
D02*
G37*
G36*
X288238D02*
X279230D01*
Y178762D01*
X288238D01*
Y183270D01*
D02*
G37*
G36*
X133970Y181970D02*
X129562D01*
Y177762D01*
X133970D01*
Y181970D01*
D02*
G37*
G36*
X298770Y177238D02*
X289762D01*
Y172730D01*
X298770D01*
Y177238D01*
D02*
G37*
G36*
X288238D02*
X279230D01*
Y172730D01*
X288238D01*
Y177238D01*
D02*
G37*
G36*
X133970Y176238D02*
X129562D01*
Y172030D01*
X133970D01*
Y176238D01*
D02*
G37*
G36*
X42230Y183020D02*
X40960Y183020D01*
X32230D01*
Y168980D01*
X33113D01*
X33197Y168886D01*
X33675Y167710D01*
X32978Y166666D01*
X32646Y165000D01*
X32978Y163334D01*
X33675Y162290D01*
X33197Y161114D01*
X33113Y161020D01*
X24730D01*
Y151480D01*
X33212D01*
X33635Y150750D01*
X33212Y150020D01*
X24730D01*
Y140480D01*
X34270D01*
Y143254D01*
X34980Y144230D01*
X35540Y144230D01*
X38988D01*
Y149000D01*
Y153770D01*
X35540D01*
X34980Y153770D01*
X34270Y154746D01*
Y160161D01*
X34818Y160582D01*
X35540Y160937D01*
X37000Y160646D01*
X38666Y160978D01*
X40079Y161922D01*
X41022Y163334D01*
X41354Y165000D01*
X41022Y166666D01*
X40325Y167710D01*
X40803Y168886D01*
X40887Y168980D01*
X41770Y168980D01*
X43040Y168980D01*
X46238D01*
Y176000D01*
Y183020D01*
X43040D01*
X42230Y183020D01*
D02*
G37*
G36*
X134070Y169970D02*
X129662D01*
Y165762D01*
X134070D01*
Y169970D01*
D02*
G37*
G36*
Y164238D02*
X129662D01*
Y160030D01*
X134070D01*
Y164238D01*
D02*
G37*
G36*
X271020Y155270D02*
X268762D01*
Y152962D01*
X271020D01*
Y155270D01*
D02*
G37*
G36*
X267238D02*
X264980D01*
Y152962D01*
X267238D01*
Y155270D01*
D02*
G37*
G36*
X67520Y153770D02*
X63512D01*
Y149762D01*
X67520D01*
Y153770D01*
D02*
G37*
G36*
X56020D02*
X52012D01*
Y149762D01*
X56020D01*
Y153770D01*
D02*
G37*
G36*
X40512D02*
Y149762D01*
X44520D01*
Y153770D01*
X40512D01*
D02*
G37*
G36*
X50488D02*
X46480D01*
Y149762D01*
X50488D01*
Y153770D01*
D02*
G37*
G36*
X61988D02*
X57980D01*
Y149762D01*
X61988D01*
Y153770D01*
D02*
G37*
G36*
X73488D02*
X69480D01*
Y149762D01*
X73488D01*
Y153770D01*
D02*
G37*
G36*
X271020Y151438D02*
X268762D01*
Y149130D01*
X271020D01*
Y151438D01*
D02*
G37*
G36*
X267238D02*
X264980D01*
Y149130D01*
X267238D01*
Y151438D01*
D02*
G37*
G36*
X67520Y148238D02*
X63512D01*
Y144230D01*
X67520D01*
Y148238D01*
D02*
G37*
G36*
X61988D02*
X57980D01*
Y144230D01*
X61988D01*
Y148238D01*
D02*
G37*
G36*
X56020D02*
X52012D01*
Y144230D01*
X56020D01*
Y148238D01*
D02*
G37*
G36*
X50488D02*
X46480D01*
Y144230D01*
X50488D01*
Y148238D01*
D02*
G37*
G36*
X44520D02*
X40512D01*
Y144230D01*
X44520D01*
Y148238D01*
D02*
G37*
G36*
X73488D02*
X69480D01*
Y144230D01*
X73488D01*
Y148238D01*
D02*
G37*
G36*
X67520Y142270D02*
X63512D01*
Y138262D01*
X67520D01*
Y142270D01*
D02*
G37*
G36*
X56020D02*
X52012D01*
Y138262D01*
X56020D01*
Y142270D01*
D02*
G37*
G36*
X50488D02*
X46480D01*
Y138262D01*
X50488D01*
Y142270D01*
D02*
G37*
G36*
X61988D02*
X57980D01*
Y138262D01*
X61988D01*
Y142270D01*
D02*
G37*
G36*
X67520Y136738D02*
X63512D01*
Y132730D01*
X67520D01*
Y136738D01*
D02*
G37*
G36*
X61988D02*
X57980D01*
Y132730D01*
X61988D01*
Y136738D01*
D02*
G37*
G36*
X56020D02*
X52012D01*
Y132730D01*
X56020D01*
Y136738D01*
D02*
G37*
G36*
X50488D02*
X46480D01*
Y132730D01*
X50488D01*
Y136738D01*
D02*
G37*
G36*
X67520Y130770D02*
X63512D01*
Y126762D01*
X67520D01*
Y130770D01*
D02*
G37*
G36*
X56020D02*
X52012D01*
Y126762D01*
X56020D01*
Y130770D01*
D02*
G37*
G36*
X40512D02*
Y126762D01*
X44520D01*
Y130770D01*
X40512D01*
D02*
G37*
G36*
X50488D02*
X46480D01*
Y126762D01*
X50488D01*
Y130770D01*
D02*
G37*
G36*
X61988D02*
X57980D01*
Y126762D01*
X61988D01*
Y130770D01*
D02*
G37*
G36*
X73488D02*
X69480D01*
Y126762D01*
X73488D01*
Y130770D01*
D02*
G37*
G36*
X67520Y125238D02*
X63512D01*
Y121230D01*
X67520D01*
Y125238D01*
D02*
G37*
G36*
X61988D02*
X57980D01*
Y121230D01*
X61988D01*
Y125238D01*
D02*
G37*
G36*
X56020D02*
X52012D01*
Y121230D01*
X56020D01*
Y125238D01*
D02*
G37*
G36*
X50488D02*
X46480D01*
Y121230D01*
X50488D01*
Y125238D01*
D02*
G37*
G36*
X44520D02*
X40512D01*
Y121230D01*
X44520D01*
Y125238D01*
D02*
G37*
G36*
X73488D02*
X69480D01*
Y121230D01*
X73488D01*
Y125238D01*
D02*
G37*
G36*
X89270Y139020D02*
X79730D01*
Y131746D01*
X79020Y130770D01*
X78460Y130770D01*
X75012D01*
Y126000D01*
Y121230D01*
X78460D01*
X79020Y121230D01*
X79730Y120254D01*
Y118480D01*
X89270D01*
Y128020D01*
X80788D01*
X80365Y128750D01*
X80788Y129480D01*
X89270D01*
Y139020D01*
D02*
G37*
G36*
X34270D02*
X24730D01*
Y129480D01*
X33212D01*
X33635Y128750D01*
X33212Y128020D01*
X24730D01*
Y118480D01*
X34270D01*
Y120254D01*
X34980Y121230D01*
X35540Y121230D01*
X38988D01*
Y126000D01*
X39750D01*
D01*
X38988D01*
Y130770D01*
X35540D01*
X34980Y130770D01*
X34270Y131746D01*
Y139020D01*
D02*
G37*
G36*
X67520Y119270D02*
X63512D01*
Y115262D01*
X67520D01*
Y119270D01*
D02*
G37*
G36*
X56020D02*
X52012D01*
Y115262D01*
X56020D01*
Y119270D01*
D02*
G37*
G36*
X50488D02*
X46480D01*
Y115262D01*
X50488D01*
Y119270D01*
D02*
G37*
G36*
X61988D02*
X57980D01*
Y115262D01*
X61988D01*
Y119270D01*
D02*
G37*
G36*
X67520Y113738D02*
X63512D01*
Y109730D01*
X67520D01*
Y113738D01*
D02*
G37*
G36*
X61988D02*
X57980D01*
Y109730D01*
X61988D01*
Y113738D01*
D02*
G37*
G36*
X56020D02*
X52012D01*
Y109730D01*
X56020D01*
Y113738D01*
D02*
G37*
G36*
X50488D02*
X46480D01*
Y109730D01*
X50488D01*
Y113738D01*
D02*
G37*
G36*
X375000Y121367D02*
X372563Y120883D01*
X370498Y119502D01*
X369117Y117437D01*
X368633Y115000D01*
X369117Y112563D01*
X370498Y110498D01*
X372563Y109117D01*
X375000Y108633D01*
X377437Y109117D01*
X379502Y110498D01*
X380883Y112563D01*
X381367Y115000D01*
X380883Y117437D01*
X379502Y119502D01*
X377437Y120883D01*
X375000Y121367D01*
D02*
G37*
G36*
X89270Y117020D02*
X79730D01*
Y107480D01*
X89270D01*
Y117020D01*
D02*
G37*
G36*
X34270D02*
X24730D01*
Y107480D01*
X34270D01*
Y117020D01*
D02*
G37*
G36*
X271020Y108870D02*
X268762D01*
Y106562D01*
X271020D01*
Y108870D01*
D02*
G37*
G36*
X267238D02*
X264980D01*
Y106562D01*
X267238D01*
Y108870D01*
D02*
G37*
G36*
X271020Y105038D02*
X268762D01*
Y102730D01*
X271020D01*
Y105038D01*
D02*
G37*
G36*
X267238D02*
X264980D01*
Y102730D01*
X267238D01*
Y105038D01*
D02*
G37*
G36*
X89270Y106020D02*
X79730D01*
Y96480D01*
X89270D01*
Y106020D01*
D02*
G37*
G36*
X78270D02*
X68730D01*
Y96480D01*
X78270D01*
Y106020D01*
D02*
G37*
G36*
X67270D02*
X57730D01*
Y96480D01*
X67270D01*
Y106020D01*
D02*
G37*
G36*
X56270D02*
X46730D01*
Y96480D01*
X56270D01*
Y106020D01*
D02*
G37*
G36*
X45270D02*
X35730D01*
Y96480D01*
X45270D01*
Y106020D01*
D02*
G37*
G36*
X34270D02*
X24730D01*
Y96480D01*
X34270D01*
Y106020D01*
D02*
G37*
G36*
X72230Y94520D02*
X70960Y94520D01*
X63040D01*
X62230Y94520D01*
X60960Y94520D01*
X53040D01*
X52230Y94520D01*
X50960Y94520D01*
X43040D01*
X42230Y94520D01*
X40960Y94520D01*
X37762D01*
Y87500D01*
X37000D01*
Y86738D01*
X32230D01*
Y81099D01*
X31907Y80343D01*
X31151Y80020D01*
X30960D01*
X23040D01*
X22230Y80020D01*
X20960Y80020D01*
X12230D01*
Y70480D01*
X20960D01*
X21770Y70480D01*
X23040Y70480D01*
X30960D01*
X31770Y70480D01*
X33040Y70480D01*
X40960D01*
X41770Y70480D01*
X43040Y70480D01*
X50960D01*
X51770Y70480D01*
X53040Y70480D01*
X60960D01*
X61770Y70480D01*
X63040Y70480D01*
X70960D01*
X71770Y70480D01*
X73040Y70480D01*
X76238D01*
Y75250D01*
X77762D01*
Y70480D01*
X80960D01*
X81770Y70480D01*
X83040Y70480D01*
X90960D01*
X91770Y70480D01*
X93040Y70480D01*
X101770D01*
Y80020D01*
X93040D01*
X92230Y80020D01*
X90960Y80020D01*
X82849D01*
X82093Y80343D01*
X81770Y81099D01*
Y81290D01*
Y86738D01*
X77000D01*
Y87500D01*
X76238D01*
Y94520D01*
X72230D01*
D02*
G37*
G36*
X77762Y94520D02*
Y88262D01*
X81770D01*
Y94520D01*
X77762D01*
D02*
G37*
G36*
X36238D02*
X32230D01*
Y88262D01*
X36238D01*
Y94520D01*
D02*
G37*
G36*
X298770Y85270D02*
X289762D01*
Y80762D01*
X298770D01*
Y85270D01*
D02*
G37*
G36*
X288238D02*
X279230D01*
Y80762D01*
X288238D01*
Y85270D01*
D02*
G37*
G36*
X298770Y79238D02*
X289762D01*
Y74730D01*
X298770D01*
Y79238D01*
D02*
G37*
G36*
X288238D02*
X279230D01*
Y74730D01*
X288238D01*
Y79238D01*
D02*
G37*
G36*
X367888Y76138D02*
X363479D01*
X363733Y74863D01*
X364887Y73137D01*
X366613Y71983D01*
X367888Y71729D01*
Y76138D01*
D02*
G37*
G36*
X385160Y70567D02*
X382723Y70083D01*
X380658Y68702D01*
X379277Y66637D01*
X378793Y64200D01*
X379277Y61763D01*
X380658Y59697D01*
X382723Y58317D01*
X385160Y57833D01*
X387597Y58317D01*
X389662Y59697D01*
X391043Y61763D01*
X391527Y64200D01*
X391043Y66637D01*
X389662Y68702D01*
X387597Y70083D01*
X385160Y70567D01*
D02*
G37*
G36*
X364840D02*
X362403Y70083D01*
X360338Y68702D01*
X358957Y66637D01*
X358473Y64200D01*
X358957Y61763D01*
X360338Y59697D01*
X362403Y58317D01*
X364840Y57833D01*
X367277Y58317D01*
X369342Y59697D01*
X370723Y61763D01*
X371207Y64200D01*
X370723Y66637D01*
X369342Y68702D01*
X367277Y70083D01*
X364840Y70567D01*
D02*
G37*
G36*
X111862Y51202D02*
Y42462D01*
X120602D01*
X120375Y44185D01*
X119416Y46501D01*
X117890Y48490D01*
X115901Y50016D01*
X113585Y50975D01*
X111862Y51202D01*
D02*
G37*
G36*
X110338D02*
X108615Y50975D01*
X106299Y50016D01*
X104310Y48490D01*
X102784Y46501D01*
X101825Y44185D01*
X101598Y42462D01*
X110338D01*
Y51202D01*
D02*
G37*
G36*
X120602Y40938D02*
X111862D01*
Y32198D01*
X113585Y32425D01*
X115901Y33384D01*
X117890Y34910D01*
X119416Y36899D01*
X120375Y39215D01*
X120602Y40938D01*
D02*
G37*
G36*
X110338D02*
X101598D01*
X101825Y39215D01*
X102784Y36899D01*
X104310Y34910D01*
X106299Y33384D01*
X108615Y32425D01*
X110338Y32198D01*
Y40938D01*
D02*
G37*
G36*
X298420Y51220D02*
X279380D01*
Y32180D01*
X298420D01*
Y51220D01*
D02*
G37*
G36*
X263500Y51302D02*
X261015Y50975D01*
X258699Y50016D01*
X256710Y48490D01*
X255184Y46501D01*
X254225Y44185D01*
X253898Y41700D01*
X254225Y39215D01*
X255184Y36899D01*
X256710Y34910D01*
X258699Y33384D01*
X261015Y32425D01*
X263500Y32098D01*
X265985Y32425D01*
X268301Y33384D01*
X270290Y34910D01*
X271816Y36899D01*
X272775Y39215D01*
X273102Y41700D01*
X272775Y44185D01*
X271816Y46501D01*
X270290Y48490D01*
X268301Y50016D01*
X265985Y50975D01*
X263500Y51302D01*
D02*
G37*
G36*
X238100D02*
X235615Y50975D01*
X233299Y50016D01*
X231310Y48490D01*
X229784Y46501D01*
X228825Y44185D01*
X228498Y41700D01*
X228825Y39215D01*
X229784Y36899D01*
X231310Y34910D01*
X233299Y33384D01*
X235615Y32425D01*
X238100Y32098D01*
X240585Y32425D01*
X242901Y33384D01*
X244890Y34910D01*
X246416Y36899D01*
X247375Y39215D01*
X247702Y41700D01*
X247375Y44185D01*
X246416Y46501D01*
X244890Y48490D01*
X242901Y50016D01*
X240585Y50975D01*
X238100Y51302D01*
D02*
G37*
G36*
X212700D02*
X210215Y50975D01*
X207899Y50016D01*
X205910Y48490D01*
X204384Y46501D01*
X203425Y44185D01*
X203098Y41700D01*
X203425Y39215D01*
X204384Y36899D01*
X205910Y34910D01*
X207899Y33384D01*
X210215Y32425D01*
X212700Y32098D01*
X215185Y32425D01*
X217501Y33384D01*
X219490Y34910D01*
X221016Y36899D01*
X221975Y39215D01*
X222302Y41700D01*
X221975Y44185D01*
X221016Y46501D01*
X219490Y48490D01*
X217501Y50016D01*
X215185Y50975D01*
X212700Y51302D01*
D02*
G37*
G36*
X187300D02*
X184815Y50975D01*
X182499Y50016D01*
X180510Y48490D01*
X178984Y46501D01*
X178025Y44185D01*
X177698Y41700D01*
X178025Y39215D01*
X178984Y36899D01*
X180510Y34910D01*
X182499Y33384D01*
X184815Y32425D01*
X187300Y32098D01*
X189785Y32425D01*
X192101Y33384D01*
X194090Y34910D01*
X195616Y36899D01*
X196575Y39215D01*
X196902Y41700D01*
X196575Y44185D01*
X195616Y46501D01*
X194090Y48490D01*
X192101Y50016D01*
X189785Y50975D01*
X187300Y51302D01*
D02*
G37*
G36*
X161900D02*
X159415Y50975D01*
X157099Y50016D01*
X155110Y48490D01*
X153584Y46501D01*
X152625Y44185D01*
X152298Y41700D01*
X152625Y39215D01*
X153584Y36899D01*
X155110Y34910D01*
X157099Y33384D01*
X159415Y32425D01*
X161900Y32098D01*
X164385Y32425D01*
X166701Y33384D01*
X168690Y34910D01*
X170216Y36899D01*
X171175Y39215D01*
X171502Y41700D01*
X171175Y44185D01*
X170216Y46501D01*
X168690Y48490D01*
X166701Y50016D01*
X164385Y50975D01*
X161900Y51302D01*
D02*
G37*
G36*
X136500D02*
X134015Y50975D01*
X131699Y50016D01*
X129710Y48490D01*
X128184Y46501D01*
X127225Y44185D01*
X126898Y41700D01*
X127225Y39215D01*
X128184Y36899D01*
X129710Y34910D01*
X131699Y33384D01*
X134015Y32425D01*
X136500Y32098D01*
X138985Y32425D01*
X141301Y33384D01*
X143290Y34910D01*
X144816Y36899D01*
X145775Y39215D01*
X146102Y41700D01*
X145775Y44185D01*
X144816Y46501D01*
X143290Y48490D01*
X141301Y50016D01*
X138985Y50975D01*
X136500Y51302D01*
D02*
G37*
G36*
X375762Y43283D02*
Y25762D01*
X393283D01*
X393006Y28582D01*
X391961Y32025D01*
X390264Y35199D01*
X387981Y37981D01*
X385199Y40264D01*
X382025Y41961D01*
X378582Y43006D01*
X375762Y43283D01*
D02*
G37*
G36*
X374238D02*
X371418Y43006D01*
X367975Y41961D01*
X364801Y40264D01*
X362019Y37981D01*
X359736Y35199D01*
X358039Y32025D01*
X356994Y28582D01*
X356717Y25762D01*
X374238D01*
Y43283D01*
D02*
G37*
G36*
X25762D02*
Y25762D01*
X43283D01*
X43006Y28582D01*
X41961Y32025D01*
X40264Y35199D01*
X37981Y37981D01*
X35199Y40264D01*
X32025Y41961D01*
X28582Y43006D01*
X25762Y43283D01*
D02*
G37*
G36*
X24238D02*
X21418Y43006D01*
X17975Y41961D01*
X14801Y40264D01*
X12019Y37981D01*
X9736Y35199D01*
X8039Y32025D01*
X6994Y28582D01*
X6717Y25762D01*
X24238D01*
Y43283D01*
D02*
G37*
G36*
X393283Y24238D02*
X375762D01*
Y6717D01*
X378582Y6994D01*
X382025Y8039D01*
X385199Y9736D01*
X387981Y12019D01*
X390264Y14801D01*
X391961Y17975D01*
X393006Y21418D01*
X393283Y24238D01*
D02*
G37*
G36*
X374238D02*
X356717D01*
X356994Y21418D01*
X358039Y17975D01*
X359736Y14801D01*
X362019Y12019D01*
X364801Y9736D01*
X367975Y8039D01*
X371418Y6994D01*
X374238Y6717D01*
Y24238D01*
D02*
G37*
G36*
X43283D02*
X25762D01*
Y6717D01*
X28582Y6994D01*
X32025Y8039D01*
X35199Y9736D01*
X37981Y12019D01*
X40264Y14801D01*
X41961Y17975D01*
X43006Y21418D01*
X43283Y24238D01*
D02*
G37*
G36*
X24238D02*
X6717D01*
X6994Y21418D01*
X8039Y17975D01*
X9736Y14801D01*
X12019Y12019D01*
X14801Y9736D01*
X17975Y8039D01*
X21418Y6994D01*
X24238Y6717D01*
Y24238D01*
D02*
G37*
%LPD*%
D15*
X226448Y133262D02*
D03*
X211448D02*
D03*
Y122262D02*
D03*
X226448D02*
D03*
D16*
X98250Y86750D02*
D03*
Y96750D02*
D03*
Y106750D02*
D03*
Y116750D02*
D03*
Y126750D02*
D03*
Y136750D02*
D03*
Y146750D02*
D03*
Y156750D02*
D03*
Y166750D02*
D03*
Y176750D02*
D03*
X15750D02*
D03*
Y166750D02*
D03*
Y156750D02*
D03*
Y146750D02*
D03*
Y136750D02*
D03*
Y126750D02*
D03*
Y116750D02*
D03*
Y106750D02*
D03*
Y96750D02*
D03*
Y86750D02*
D03*
D17*
X37000Y176000D02*
D03*
X47000D02*
D03*
X57000D02*
D03*
X67000D02*
D03*
X77000D02*
D03*
Y87500D02*
D03*
X67000D02*
D03*
X57000D02*
D03*
X47000D02*
D03*
X37000D02*
D03*
D18*
X74250Y149000D02*
D03*
X62750D02*
D03*
X51250D02*
D03*
X39750D02*
D03*
Y126000D02*
D03*
X51250Y137500D02*
D03*
X62750D02*
D03*
Y114500D02*
D03*
X74250Y126000D02*
D03*
X62750D02*
D03*
X51250D02*
D03*
Y114500D02*
D03*
D19*
X84500Y101250D02*
D03*
Y112250D02*
D03*
Y123250D02*
D03*
Y134250D02*
D03*
Y145250D02*
D03*
Y156250D02*
D03*
X29500D02*
D03*
Y145250D02*
D03*
Y134250D02*
D03*
Y123250D02*
D03*
Y112250D02*
D03*
Y101250D02*
D03*
X40500D02*
D03*
X51500D02*
D03*
X62500D02*
D03*
X73500D02*
D03*
X17000Y75250D02*
D03*
X27000D02*
D03*
X37000D02*
D03*
X47000D02*
D03*
X57000D02*
D03*
X67000D02*
D03*
X77000D02*
D03*
X87000D02*
D03*
X97000D02*
D03*
D20*
X119100Y165000D02*
D03*
X128900D02*
D03*
X128800Y177000D02*
D03*
X119000D02*
D03*
D22*
X289000Y144000D02*
D03*
Y178000D02*
D03*
Y114000D02*
D03*
Y80000D02*
D03*
D23*
X198056Y122174D02*
D03*
X190056D02*
D03*
X198000Y133000D02*
D03*
X190000D02*
D03*
D24*
X239776Y134176D02*
D03*
Y142176D02*
D03*
D25*
X268000Y152200D02*
D03*
Y143800D02*
D03*
X268000Y105800D02*
D03*
Y114200D02*
D03*
D41*
X368650Y102300D02*
D03*
X381350D02*
D03*
X368650Y89600D02*
D03*
X381350D02*
D03*
X368650Y76900D02*
D03*
X381350D02*
D03*
D42*
X7000Y106750D02*
X15750D01*
X7000Y116750D02*
X15750D01*
X7000Y126750D02*
X15750D01*
X7000Y136750D02*
X15750D01*
X6750Y146750D02*
X7000Y146500D01*
X6750Y146750D02*
X15750D01*
X6750Y146750D02*
Y146750D01*
X78740Y164846D02*
Y174260D01*
X77000Y176000D02*
X78740Y174260D01*
X114108Y146750D02*
X129032Y131826D01*
X188826D02*
X190000Y133000D01*
X129032Y131826D02*
X188826D01*
X198056Y122174D02*
X198144Y122262D01*
X211448D01*
X198000Y133000D02*
X198262Y133262D01*
X211448D01*
X123198Y114546D02*
X246372D01*
X268000Y136174D02*
Y143800D01*
X246372Y114546D02*
X268000Y136174D01*
X336708Y57658D02*
X368650Y89600D01*
X101092Y57658D02*
X336708D01*
X182880Y122174D02*
X190056D01*
X109442Y156750D02*
X128270Y137922D01*
X164592D01*
X227362Y134176D02*
X239776D01*
X226448Y133262D02*
X227362Y134176D01*
X230886Y143764D02*
X238188D01*
X239776Y142176D01*
X116695Y116750D02*
X121939Y111506D01*
X258826D01*
X261520Y114200D01*
X110994Y126750D02*
X123198Y114546D01*
X98250Y126750D02*
X110994D01*
X98250Y116750D02*
X116695D01*
X268000Y143800D02*
X288800D01*
X381350Y102300D02*
X386842Y107792D01*
Y112014D01*
X381350Y89600D02*
X381381Y89631D01*
X392399D01*
X392430Y89662D01*
X37000Y165000D02*
Y176000D01*
X98250Y86750D02*
X109250D01*
X98250Y96750D02*
X109250D01*
X98250Y106750D02*
X109250D01*
X288800Y114200D02*
X289000Y114000D01*
X268000Y114200D02*
X288800D01*
Y143800D02*
X289000Y144000D01*
X261520Y114200D02*
X268000D01*
X98250Y146750D02*
X114108D01*
X98250Y156750D02*
X109442D01*
D43*
X226448Y122262D02*
X242738D01*
X123444Y153924D02*
X242570D01*
X119050Y158318D02*
X123444Y153924D01*
X242570D02*
X248666Y147828D01*
Y128189D02*
Y147828D01*
X242738Y122262D02*
X248666Y128189D01*
X119050Y158318D02*
Y165050D01*
X368588Y102362D02*
X368650Y102300D01*
X359664Y102362D02*
X368588D01*
X118225Y165875D02*
X119050Y165050D01*
X118875Y176875D02*
X119050Y176700D01*
Y165050D02*
Y176700D01*
X99125Y165875D02*
X118225D01*
X98250Y166750D02*
X99125Y165875D01*
X98250Y176750D02*
X98375Y176875D01*
X118875D01*
D44*
X375000Y25000D02*
D03*
X25000D02*
D03*
D45*
X161900Y41700D02*
D03*
X187300D02*
D03*
X212700D02*
D03*
X263500D02*
D03*
X238100D02*
D03*
X136500D02*
D03*
X111100D02*
D03*
D46*
X288900D02*
D03*
D47*
X375000Y115000D02*
D03*
X385160Y64200D02*
D03*
X364840D02*
D03*
D48*
X135000Y79250D02*
D03*
X118500Y95750D02*
D03*
X7000Y106750D02*
D03*
Y116750D02*
D03*
Y126750D02*
D03*
Y136750D02*
D03*
X7000Y146500D02*
D03*
X392000Y137000D02*
D03*
Y152000D02*
D03*
Y167000D02*
D03*
Y182000D02*
D03*
Y197000D02*
D03*
Y212000D02*
D03*
X143000Y92000D02*
D03*
X308000Y64000D02*
D03*
X293000Y63000D02*
D03*
X278000D02*
D03*
X263000D02*
D03*
X248000D02*
D03*
X233000D02*
D03*
X218000D02*
D03*
X203000D02*
D03*
X188000D02*
D03*
X173000D02*
D03*
X143000D02*
D03*
X353000Y20000D02*
D03*
Y8000D02*
D03*
X293000D02*
D03*
X278000D02*
D03*
X263000D02*
D03*
X248000D02*
D03*
X233000D02*
D03*
X218000D02*
D03*
X203000D02*
D03*
X83000Y20000D02*
D03*
X68000D02*
D03*
X53000D02*
D03*
X188000Y8000D02*
D03*
X173000D02*
D03*
X158000D02*
D03*
X143000D02*
D03*
X128000D02*
D03*
X113000D02*
D03*
X98000D02*
D03*
X83000D02*
D03*
X68000D02*
D03*
X53000D02*
D03*
X383000Y212000D02*
D03*
Y197000D02*
D03*
Y182000D02*
D03*
Y167000D02*
D03*
Y152000D02*
D03*
Y47000D02*
D03*
X368000Y212000D02*
D03*
Y197000D02*
D03*
Y182000D02*
D03*
Y167000D02*
D03*
Y122000D02*
D03*
Y47000D02*
D03*
X353000Y212000D02*
D03*
Y197000D02*
D03*
Y182000D02*
D03*
Y167000D02*
D03*
Y137000D02*
D03*
Y122000D02*
D03*
Y62000D02*
D03*
Y47000D02*
D03*
Y32000D02*
D03*
X338000Y212000D02*
D03*
Y197000D02*
D03*
Y182000D02*
D03*
Y167000D02*
D03*
Y137000D02*
D03*
Y122000D02*
D03*
Y107000D02*
D03*
Y92000D02*
D03*
Y47000D02*
D03*
Y32000D02*
D03*
X323000Y212000D02*
D03*
Y197000D02*
D03*
Y182000D02*
D03*
Y167000D02*
D03*
Y137000D02*
D03*
Y122000D02*
D03*
Y107000D02*
D03*
Y92000D02*
D03*
Y77000D02*
D03*
Y47000D02*
D03*
Y32000D02*
D03*
X308000Y212000D02*
D03*
Y197000D02*
D03*
Y182000D02*
D03*
Y167000D02*
D03*
Y137000D02*
D03*
Y122000D02*
D03*
Y107000D02*
D03*
Y92000D02*
D03*
Y77000D02*
D03*
Y32000D02*
D03*
X293000Y212000D02*
D03*
Y197000D02*
D03*
Y167000D02*
D03*
Y92000D02*
D03*
X278000Y212000D02*
D03*
Y197000D02*
D03*
Y167000D02*
D03*
Y92000D02*
D03*
X263000Y212000D02*
D03*
Y197000D02*
D03*
Y182000D02*
D03*
Y167000D02*
D03*
Y122000D02*
D03*
Y92000D02*
D03*
Y77000D02*
D03*
X248000Y212000D02*
D03*
Y197000D02*
D03*
Y182000D02*
D03*
Y167000D02*
D03*
Y92000D02*
D03*
Y77000D02*
D03*
X233000Y212000D02*
D03*
Y197000D02*
D03*
Y182000D02*
D03*
Y167000D02*
D03*
Y92000D02*
D03*
Y77000D02*
D03*
X218000Y212000D02*
D03*
Y197000D02*
D03*
Y182000D02*
D03*
Y167000D02*
D03*
Y92000D02*
D03*
Y77000D02*
D03*
X203000Y212000D02*
D03*
Y197000D02*
D03*
Y182000D02*
D03*
Y167000D02*
D03*
Y92000D02*
D03*
Y77000D02*
D03*
Y32000D02*
D03*
X188000Y212000D02*
D03*
Y197000D02*
D03*
Y182000D02*
D03*
Y167000D02*
D03*
Y92000D02*
D03*
Y77000D02*
D03*
X173000Y212000D02*
D03*
Y197000D02*
D03*
Y182000D02*
D03*
Y167000D02*
D03*
Y122000D02*
D03*
Y92000D02*
D03*
Y77000D02*
D03*
X158000Y212000D02*
D03*
Y197000D02*
D03*
Y182000D02*
D03*
Y167000D02*
D03*
Y122000D02*
D03*
Y92000D02*
D03*
Y77000D02*
D03*
X143000Y212000D02*
D03*
Y197000D02*
D03*
Y182000D02*
D03*
Y167000D02*
D03*
Y122000D02*
D03*
X128000Y212000D02*
D03*
Y197000D02*
D03*
Y122000D02*
D03*
X113000Y212000D02*
D03*
Y197000D02*
D03*
Y137000D02*
D03*
Y77000D02*
D03*
X98000Y212000D02*
D03*
Y197000D02*
D03*
Y47000D02*
D03*
X83000Y212000D02*
D03*
Y197000D02*
D03*
X68000Y212000D02*
D03*
Y197000D02*
D03*
Y32000D02*
D03*
X53000Y212000D02*
D03*
Y197000D02*
D03*
Y47000D02*
D03*
Y32000D02*
D03*
X38000Y212000D02*
D03*
Y197000D02*
D03*
Y137000D02*
D03*
Y62000D02*
D03*
Y47000D02*
D03*
X23000Y212000D02*
D03*
Y197000D02*
D03*
Y62000D02*
D03*
Y47000D02*
D03*
X8000Y212000D02*
D03*
Y197000D02*
D03*
Y77000D02*
D03*
Y62000D02*
D03*
Y47000D02*
D03*
X78740Y164846D02*
D03*
X101092Y57658D02*
D03*
X182880Y122174D02*
D03*
X164592Y137922D02*
D03*
X230886Y143764D02*
D03*
X245364Y124460D02*
D03*
X359664Y102362D02*
D03*
X386842Y112014D02*
D03*
X392430Y89662D02*
D03*
X37000Y165000D02*
D03*
X109250Y86750D02*
D03*
Y96750D02*
D03*
Y106750D02*
D03*
M02*
