M48
;Layer_Color=9474304
;FILE_FORMAT=4:4
METRIC,LZ
;TYPE=PLATED
T1F00S00C0.3000
T2F00S00C1.1000
T3F00S00C1.8000
;TYPE=NON_PLATED
T4F00S00C0.9950
%
T01
X000178Y00177
X00021Y00204
X00008
Y00215
X0003Y00202
X0004
X0005
X0006
X0007
X00081Y00205
X00091Y00202
X00101
X00115Y00204
X00123
X00132Y00202
X00142
X00151961Y00180024
X00162Y0018
X00182Y00179
X00192
X0019Y00206
X00212Y00204
Y00215
X00109
X00101Y0018
X00091
X00101Y0016197
X00086Y0014
X00128Y00152
X00135384Y0015933
X00127Y0017503
X00043Y00163
X00097Y00084
X0009725Y0007125
X00098Y00227
Y00242
X00113
X00143
Y00227
X00128
X00083
Y00242
X00081Y00268
X00053Y00272
Y00257
Y00242
X00038
Y00257
Y00272
Y00287
Y00302
X00053
X0005925Y00307
Y00297
Y00287
Y00317
Y00327
X00053Y00332
Y00347
Y00362
Y00377
Y00392
X00038
Y00377
Y00362
Y00347
Y00332
Y00317
X00023
Y00332
Y00347
Y00362
Y00377
Y00392
Y00302
Y00287
Y00272
Y00257
Y00242
Y00227
X00038
X00094Y00295
X00093Y00318
Y00338
X00103
X00113
X00122Y00345
X0013025Y00346
X00128Y00317
X00126Y00296
X00139Y00268
X0016225Y00277
Y00287
X00188Y00287
Y00302
X00173
Y00317
X00203
X00212Y00317
Y00302
Y00287
Y00272
Y00257
Y00242
Y00227
X00188Y00227
Y00242
Y00257
Y00272
Y00332
X00203
X00212Y00332
Y00347
X00203Y00347
Y00362
X00212Y00362
Y00377
X00203
Y00392
X00212
X00188
Y00377
X00173
Y00392
X00158Y00377
X0009025Y00346
X00008Y00347
Y00362
Y00377
Y00392
Y00332
Y00317
Y00302
Y00287
Y00272
Y00257
Y00242
Y00227
T02
X000211Y000422
X000465
X000719
X000973
X001227
X001481
X001735
X001989
T03
X00035Y001
X00185
T04
X000846Y001
X001354Y0008984
Y0011016
M30
