G04*
G04 #@! TF.GenerationSoftware,Altium Limited,Altium Designer,21.6.4 (81)*
G04*
G04 Layer_Color=32768*
%FSLAX44Y44*%
%MOMM*%
G71*
G04*
G04 #@! TF.SameCoordinates,EAB3D259-4ACE-4868-9577-5A2B5B6BA7EE*
G04*
G04*
G04 #@! TF.FilePolarity,Positive*
G04*
G01*
G75*
%ADD48C,0.0500*%
%ADD50C,0.1000*%
D48*
X-1000Y77000D02*
Y221000D01*
X103000D01*
Y77000D02*
Y221000D01*
X-1000Y77000D02*
X103000D01*
X195000Y14000D02*
X205000D01*
X200000Y9000D02*
Y19000D01*
X94900Y51950D02*
X305100D01*
Y-60700D02*
Y51950D01*
X94900Y-60700D02*
X305100D01*
X94900D02*
Y51950D01*
X204000Y127000D02*
X214000D01*
X209000Y122000D02*
Y132000D01*
X194000Y139000D02*
X224000D01*
Y115000D02*
Y139000D01*
X194000Y115000D02*
X224000D01*
X194000D02*
Y139000D01*
X106000Y160000D02*
Y172000D01*
X128000Y160000D02*
Y172000D01*
X106000D02*
X128000D01*
X106000Y160000D02*
X128000D01*
Y172000D02*
Y184000D01*
X106000Y172000D02*
Y184000D01*
Y172000D02*
X128000D01*
X106000Y184000D02*
X128000D01*
X289000Y156000D02*
Y166000D01*
X284000Y161000D02*
X294000D01*
X275000Y138000D02*
Y184000D01*
X302750D01*
Y138000D02*
Y184000D01*
X275000Y138000D02*
X302750D01*
X289000Y92000D02*
Y102000D01*
X284000Y97000D02*
X294000D01*
X303000Y74000D02*
Y120000D01*
X275250Y74000D02*
X303000D01*
X275250D02*
Y120000D01*
X303000D01*
X184000Y119000D02*
Y125000D01*
X181000Y122000D02*
X187000D01*
X176000Y118000D02*
X192000D01*
X176000Y126000D02*
X192000D01*
Y118000D02*
Y126000D01*
X176000Y118000D02*
Y126000D01*
X184000Y132000D02*
Y138000D01*
X181000Y135000D02*
X187000D01*
X176000Y131000D02*
X192000D01*
X176000Y139000D02*
X192000D01*
Y131000D02*
Y139000D01*
X176000Y131000D02*
Y139000D01*
X233000Y131000D02*
X239000D01*
X236000Y128000D02*
Y134000D01*
X240000Y123000D02*
Y139000D01*
X232000Y123000D02*
Y139000D01*
X240000D01*
X232000Y123000D02*
X240000D01*
X263250Y148000D02*
X269250D01*
X266000Y145000D02*
Y151250D01*
X270000Y140500D02*
Y155000D01*
X262000Y140500D02*
Y155000D01*
X270000D01*
X262000Y140500D02*
X270000D01*
X262750Y110000D02*
X268750D01*
X266000Y106750D02*
Y113000D01*
X262000Y103000D02*
Y117500D01*
X270000Y103000D02*
Y117500D01*
X262000Y103000D02*
X270000D01*
X262000Y117500D02*
X270000D01*
D50*
X51000Y144000D02*
Y149000D01*
Y154000D01*
Y149000D02*
Y154000D01*
X46000Y149000D02*
X56000D01*
X114000Y166000D02*
X120000D01*
X117000Y163000D02*
Y169000D01*
X114000Y178000D02*
X120000D01*
X117000Y175000D02*
Y181000D01*
X40003Y150000D02*
X48334D01*
X50000Y151666D01*
Y154998D01*
X48334Y156664D01*
X40003D01*
X50000Y159997D02*
Y163329D01*
Y161663D01*
X40003D01*
X41669Y159997D01*
M02*
