G04*
G04 #@! TF.GenerationSoftware,Altium Limited,Altium Designer,21.6.4 (81)*
G04*
G04 Layer_Physical_Order=3*
G04 Layer_Color=16440176*
%FSLAX44Y44*%
%MOMM*%
G71*
G04*
G04 #@! TF.SameCoordinates,EAB3D259-4ACE-4868-9577-5A2B5B6BA7EE*
G04*
G04*
G04 #@! TF.FilePolarity,Positive*
G04*
G01*
G75*
%ADD42C,0.9000*%
%ADD43C,1.6500*%
%ADD44R,1.6500X1.6500*%
%ADD46C,0.6000*%
%ADD47C,2.1590*%
G36*
X395922Y94351D02*
X394652Y93725D01*
X393192Y94016D01*
X391526Y93684D01*
X390113Y92740D01*
X389170Y91328D01*
X388838Y89662D01*
X389170Y87996D01*
X390113Y86583D01*
X391526Y85640D01*
X393192Y85308D01*
X394652Y85599D01*
X395922Y84973D01*
Y4078D01*
X4078Y4078D01*
Y215922D01*
X395922Y215922D01*
Y94351D01*
D02*
G37*
%LPC*%
G36*
X34544Y168184D02*
X32878Y167852D01*
X31465Y166908D01*
X30522Y165496D01*
X30190Y163830D01*
X30522Y162164D01*
X31465Y160751D01*
X32878Y159808D01*
X34544Y159476D01*
X36210Y159808D01*
X37622Y160751D01*
X38566Y162164D01*
X38898Y163830D01*
X38566Y165496D01*
X37622Y166908D01*
X36210Y167852D01*
X34544Y168184D01*
D02*
G37*
G36*
X76962Y167676D02*
X75296Y167344D01*
X73884Y166401D01*
X72940Y164988D01*
X72608Y163322D01*
X72940Y161656D01*
X73884Y160243D01*
X75296Y159300D01*
X76962Y158968D01*
X78628Y159300D01*
X80041Y160243D01*
X80984Y161656D01*
X81316Y163322D01*
X80984Y164988D01*
X80041Y166401D01*
X78628Y167344D01*
X76962Y167676D01*
D02*
G37*
G36*
X228000Y145354D02*
X226334Y145022D01*
X224921Y144079D01*
X223978Y142666D01*
X223646Y141000D01*
X223978Y139334D01*
X224921Y137921D01*
X226334Y136978D01*
X228000Y136646D01*
X229666Y136978D01*
X231078Y137921D01*
X232022Y139334D01*
X232354Y141000D01*
X232022Y142666D01*
X231078Y144079D01*
X229666Y145022D01*
X228000Y145354D01*
D02*
G37*
G36*
X152000D02*
X150334Y145022D01*
X148921Y144079D01*
X147978Y142666D01*
X147646Y141000D01*
X147978Y139334D01*
X148921Y137921D01*
X150334Y136978D01*
X152000Y136646D01*
X153666Y136978D01*
X155078Y137921D01*
X156022Y139334D01*
X156354Y141000D01*
X156022Y142666D01*
X155078Y144079D01*
X153666Y145022D01*
X152000Y145354D01*
D02*
G37*
G36*
X266000Y140354D02*
X264334Y140022D01*
X262922Y139079D01*
X261978Y137666D01*
X261646Y136000D01*
X261978Y134334D01*
X262922Y132921D01*
X264334Y131978D01*
X266000Y131646D01*
X267666Y131978D01*
X269079Y132921D01*
X270022Y134334D01*
X270354Y136000D01*
X270022Y137666D01*
X269079Y139079D01*
X267666Y140022D01*
X266000Y140354D01*
D02*
G37*
G36*
X160500Y132854D02*
X158834Y132522D01*
X157422Y131579D01*
X156478Y130166D01*
X156146Y128500D01*
X156478Y126834D01*
X157422Y125421D01*
X158834Y124478D01*
X160500Y124146D01*
X162166Y124478D01*
X163578Y125421D01*
X164522Y126834D01*
X164854Y128500D01*
X164522Y130166D01*
X163578Y131579D01*
X162166Y132522D01*
X160500Y132854D01*
D02*
G37*
G36*
X228000Y127354D02*
X226334Y127022D01*
X224921Y126079D01*
X223978Y124666D01*
X223646Y123000D01*
X223978Y121334D01*
X224921Y119922D01*
X226334Y118978D01*
X228000Y118646D01*
X229666Y118978D01*
X231078Y119922D01*
X232022Y121334D01*
X232354Y123000D01*
X232022Y124666D01*
X231078Y126079D01*
X229666Y127022D01*
X228000Y127354D01*
D02*
G37*
G36*
X105156Y121448D02*
X103490Y121116D01*
X102078Y120173D01*
X101134Y118760D01*
X100802Y117094D01*
X101134Y115428D01*
X102078Y114016D01*
X103490Y113072D01*
X105156Y112740D01*
X106822Y113072D01*
X108235Y114016D01*
X109178Y115428D01*
X109510Y117094D01*
X109178Y118760D01*
X108235Y120173D01*
X106822Y121116D01*
X105156Y121448D01*
D02*
G37*
G36*
X258064Y118400D02*
X256398Y118068D01*
X254986Y117125D01*
X254042Y115712D01*
X253710Y114046D01*
X254042Y112380D01*
X254986Y110968D01*
X256398Y110024D01*
X258064Y109692D01*
X259730Y110024D01*
X261143Y110968D01*
X262086Y112380D01*
X262418Y114046D01*
X262086Y115712D01*
X261143Y117125D01*
X259730Y118068D01*
X258064Y118400D01*
D02*
G37*
G36*
X375000Y121367D02*
X372563Y120883D01*
X370498Y119502D01*
X369117Y117437D01*
X368633Y115000D01*
X369117Y112563D01*
X370498Y110498D01*
X372563Y109117D01*
X375000Y108633D01*
X377437Y109117D01*
X379502Y110498D01*
X380883Y112563D01*
X381367Y115000D01*
X380883Y117437D01*
X379502Y119502D01*
X377437Y120883D01*
X375000Y121367D01*
D02*
G37*
G36*
X387350Y113320D02*
X385684Y112988D01*
X384272Y112044D01*
X383328Y110632D01*
X382996Y108966D01*
X383328Y107300D01*
X384272Y105887D01*
X385684Y104944D01*
X387350Y104612D01*
X389016Y104944D01*
X390429Y105887D01*
X391372Y107300D01*
X391704Y108966D01*
X391372Y110632D01*
X390429Y112044D01*
X389016Y112988D01*
X387350Y113320D01*
D02*
G37*
G36*
X105123Y111321D02*
X103457Y110989D01*
X102044Y110045D01*
X101101Y108633D01*
X100769Y106967D01*
X101101Y105301D01*
X102044Y103889D01*
X103457Y102945D01*
X105123Y102613D01*
X106789Y102945D01*
X108202Y103889D01*
X109145Y105301D01*
X109477Y106967D01*
X109145Y108633D01*
X108202Y110045D01*
X106789Y110989D01*
X105123Y111321D01*
D02*
G37*
G36*
X357632Y106208D02*
X355966Y105876D01*
X354553Y104932D01*
X353610Y103520D01*
X353278Y101854D01*
X353610Y100188D01*
X354553Y98776D01*
X355966Y97832D01*
X357632Y97500D01*
X359298Y97832D01*
X360710Y98776D01*
X361654Y100188D01*
X361986Y101854D01*
X361654Y103520D01*
X360710Y104932D01*
X359298Y105876D01*
X357632Y106208D01*
D02*
G37*
G36*
X181000Y70354D02*
X179334Y70022D01*
X177922Y69078D01*
X176978Y67666D01*
X176646Y66000D01*
X176978Y64334D01*
X177922Y62922D01*
X179334Y61978D01*
X181000Y61646D01*
X182666Y61978D01*
X184079Y62922D01*
X185022Y64334D01*
X185354Y66000D01*
X185022Y67666D01*
X184079Y69078D01*
X182666Y70022D01*
X181000Y70354D01*
D02*
G37*
G36*
X385160Y70567D02*
X382723Y70083D01*
X380658Y68702D01*
X379277Y66637D01*
X378793Y64200D01*
X379277Y61763D01*
X380658Y59698D01*
X382723Y58317D01*
X385160Y57833D01*
X387597Y58317D01*
X389662Y59698D01*
X391043Y61763D01*
X391527Y64200D01*
X391043Y66637D01*
X389662Y68702D01*
X387597Y70083D01*
X385160Y70567D01*
D02*
G37*
G36*
X364840D02*
X362403Y70083D01*
X360338Y68702D01*
X358957Y66637D01*
X358473Y64200D01*
X358957Y61763D01*
X360338Y59698D01*
X362403Y58317D01*
X364840Y57833D01*
X367277Y58317D01*
X369342Y59698D01*
X370723Y61763D01*
X371207Y64200D01*
X370723Y66637D01*
X369342Y68702D01*
X367277Y70083D01*
X364840Y70567D01*
D02*
G37*
G36*
X111862Y51202D02*
Y42462D01*
X120602D01*
X120375Y44185D01*
X119416Y46501D01*
X117890Y48490D01*
X115901Y50016D01*
X113585Y50975D01*
X111862Y51202D01*
D02*
G37*
G36*
X110338D02*
X108615Y50975D01*
X106299Y50016D01*
X104310Y48490D01*
X102784Y46501D01*
X101825Y44185D01*
X101598Y42462D01*
X110338D01*
Y51202D01*
D02*
G37*
G36*
X120602Y40938D02*
X111862D01*
Y32198D01*
X113585Y32425D01*
X115901Y33384D01*
X117890Y34910D01*
X119416Y36899D01*
X120375Y39215D01*
X120602Y40938D01*
D02*
G37*
G36*
X110338D02*
X101598D01*
X101825Y39215D01*
X102784Y36899D01*
X104310Y34910D01*
X106299Y33384D01*
X108615Y32425D01*
X110338Y32198D01*
Y40938D01*
D02*
G37*
G36*
X298420Y51220D02*
X279380D01*
Y32180D01*
X298420D01*
Y51220D01*
D02*
G37*
G36*
X263500Y51302D02*
X261015Y50975D01*
X258699Y50016D01*
X256710Y48490D01*
X255184Y46501D01*
X254225Y44185D01*
X253898Y41700D01*
X254225Y39215D01*
X255184Y36899D01*
X256710Y34910D01*
X258699Y33384D01*
X261015Y32425D01*
X263500Y32098D01*
X265985Y32425D01*
X268301Y33384D01*
X270290Y34910D01*
X271816Y36899D01*
X272775Y39215D01*
X273102Y41700D01*
X272775Y44185D01*
X271816Y46501D01*
X270290Y48490D01*
X268301Y50016D01*
X265985Y50975D01*
X263500Y51302D01*
D02*
G37*
G36*
X238100D02*
X235615Y50975D01*
X233299Y50016D01*
X231310Y48490D01*
X229784Y46501D01*
X228825Y44185D01*
X228498Y41700D01*
X228825Y39215D01*
X229784Y36899D01*
X231310Y34910D01*
X233299Y33384D01*
X235615Y32425D01*
X238100Y32098D01*
X240585Y32425D01*
X242901Y33384D01*
X244890Y34910D01*
X246416Y36899D01*
X247375Y39215D01*
X247702Y41700D01*
X247375Y44185D01*
X246416Y46501D01*
X244890Y48490D01*
X242901Y50016D01*
X240585Y50975D01*
X238100Y51302D01*
D02*
G37*
G36*
X212700D02*
X210215Y50975D01*
X207899Y50016D01*
X205910Y48490D01*
X204384Y46501D01*
X203425Y44185D01*
X203098Y41700D01*
X203425Y39215D01*
X204384Y36899D01*
X205910Y34910D01*
X207899Y33384D01*
X210215Y32425D01*
X212700Y32098D01*
X215185Y32425D01*
X217501Y33384D01*
X219490Y34910D01*
X221016Y36899D01*
X221975Y39215D01*
X222302Y41700D01*
X221975Y44185D01*
X221016Y46501D01*
X219490Y48490D01*
X217501Y50016D01*
X215185Y50975D01*
X212700Y51302D01*
D02*
G37*
G36*
X187300D02*
X184815Y50975D01*
X182499Y50016D01*
X180510Y48490D01*
X178984Y46501D01*
X178025Y44185D01*
X177698Y41700D01*
X178025Y39215D01*
X178984Y36899D01*
X180510Y34910D01*
X182499Y33384D01*
X184815Y32425D01*
X187300Y32098D01*
X189785Y32425D01*
X192101Y33384D01*
X194090Y34910D01*
X195616Y36899D01*
X196575Y39215D01*
X196902Y41700D01*
X196575Y44185D01*
X195616Y46501D01*
X194090Y48490D01*
X192101Y50016D01*
X189785Y50975D01*
X187300Y51302D01*
D02*
G37*
G36*
X161900D02*
X159415Y50975D01*
X157099Y50016D01*
X155110Y48490D01*
X153584Y46501D01*
X152625Y44185D01*
X152298Y41700D01*
X152625Y39215D01*
X153584Y36899D01*
X155110Y34910D01*
X157099Y33384D01*
X159415Y32425D01*
X161900Y32098D01*
X164385Y32425D01*
X166701Y33384D01*
X168690Y34910D01*
X170216Y36899D01*
X171175Y39215D01*
X171502Y41700D01*
X171175Y44185D01*
X170216Y46501D01*
X168690Y48490D01*
X166701Y50016D01*
X164385Y50975D01*
X161900Y51302D01*
D02*
G37*
G36*
X136500D02*
X134015Y50975D01*
X131699Y50016D01*
X129710Y48490D01*
X128184Y46501D01*
X127225Y44185D01*
X126898Y41700D01*
X127225Y39215D01*
X128184Y36899D01*
X129710Y34910D01*
X131699Y33384D01*
X134015Y32425D01*
X136500Y32098D01*
X138985Y32425D01*
X141301Y33384D01*
X143290Y34910D01*
X144816Y36899D01*
X145775Y39215D01*
X146102Y41700D01*
X145775Y44185D01*
X144816Y46501D01*
X143290Y48490D01*
X141301Y50016D01*
X138985Y50975D01*
X136500Y51302D01*
D02*
G37*
G36*
X375762Y37069D02*
Y25762D01*
X387069D01*
X386754Y28150D01*
X385539Y31085D01*
X383605Y33605D01*
X381085Y35539D01*
X378150Y36755D01*
X375762Y37069D01*
D02*
G37*
G36*
X374238D02*
X371850Y36755D01*
X368915Y35539D01*
X366395Y33605D01*
X364461Y31085D01*
X363246Y28150D01*
X362931Y25762D01*
X374238D01*
Y37069D01*
D02*
G37*
G36*
X25762D02*
Y25762D01*
X37069D01*
X36755Y28150D01*
X35539Y31085D01*
X33605Y33605D01*
X31084Y35539D01*
X28150Y36755D01*
X25762Y37069D01*
D02*
G37*
G36*
X24238D02*
X21850Y36755D01*
X18915Y35539D01*
X16395Y33605D01*
X14461Y31085D01*
X13246Y28150D01*
X12931Y25762D01*
X24238D01*
Y37069D01*
D02*
G37*
G36*
X387069Y24238D02*
X375762D01*
Y12931D01*
X378150Y13246D01*
X381085Y14461D01*
X383605Y16395D01*
X385539Y18915D01*
X386754Y21850D01*
X387069Y24238D01*
D02*
G37*
G36*
X374238D02*
X362931D01*
X363246Y21850D01*
X364461Y18915D01*
X366395Y16395D01*
X368915Y14461D01*
X371850Y13246D01*
X374238Y12931D01*
Y24238D01*
D02*
G37*
G36*
X37069D02*
X25762D01*
Y12931D01*
X28150Y13246D01*
X31084Y14461D01*
X33605Y16395D01*
X35539Y18915D01*
X36755Y21850D01*
X37069Y24238D01*
D02*
G37*
G36*
X24238D02*
X12931D01*
X13246Y21850D01*
X14461Y18915D01*
X16395Y16395D01*
X18915Y14461D01*
X21850Y13246D01*
X24238Y12931D01*
Y24238D01*
D02*
G37*
%LPD*%
D42*
X364840Y64200D02*
D03*
X385160D02*
D03*
X375000Y115000D02*
D03*
D43*
X161900Y41700D02*
D03*
X187300D02*
D03*
X212700D02*
D03*
X263500D02*
D03*
X238100D02*
D03*
X136500D02*
D03*
X111100D02*
D03*
D44*
X288900D02*
D03*
D46*
X181000Y66000D02*
D03*
X392000Y77000D02*
D03*
Y137000D02*
D03*
Y152000D02*
D03*
Y167000D02*
D03*
Y182000D02*
D03*
Y197000D02*
D03*
Y212000D02*
D03*
X353000Y8000D02*
D03*
Y19000D02*
D03*
X308000Y8000D02*
D03*
X293000D02*
D03*
X278000D02*
D03*
X263000D02*
D03*
X248000D02*
D03*
X233000D02*
D03*
X218000D02*
D03*
X203000D02*
D03*
X308000Y19000D02*
D03*
X293000D02*
D03*
X278000D02*
D03*
X263000D02*
D03*
X248000D02*
D03*
X233000D02*
D03*
X218000D02*
D03*
X203000D02*
D03*
X188000Y8000D02*
D03*
X173000D02*
D03*
X158000D02*
D03*
X143000D02*
D03*
X128000D02*
D03*
X113000D02*
D03*
X98000D02*
D03*
X83000D02*
D03*
X68000D02*
D03*
X53000D02*
D03*
X188000Y19000D02*
D03*
X173000D02*
D03*
X158000D02*
D03*
X143000D02*
D03*
X128000D02*
D03*
X113000D02*
D03*
X98000D02*
D03*
X83000D02*
D03*
X68000D02*
D03*
X53000D02*
D03*
X81000Y109000D02*
D03*
X79000Y149000D02*
D03*
Y126000D02*
D03*
X68000Y116000D02*
D03*
X36000Y117000D02*
D03*
X34000Y137000D02*
D03*
X288000Y130000D02*
D03*
X263000Y80000D02*
D03*
X248000D02*
D03*
X233000D02*
D03*
X218000D02*
D03*
X203000D02*
D03*
X188000D02*
D03*
X173000D02*
D03*
X158000D02*
D03*
X143000D02*
D03*
X128000D02*
D03*
X116000Y92000D02*
D03*
X130000Y107000D02*
D03*
X104000Y80000D02*
D03*
X105000Y98000D02*
D03*
X107000Y131000D02*
D03*
X134000Y124000D02*
D03*
X150000D02*
D03*
X160500Y128500D02*
D03*
X152000Y141000D02*
D03*
X383000Y212000D02*
D03*
Y197000D02*
D03*
Y182000D02*
D03*
Y167000D02*
D03*
Y152000D02*
D03*
Y47000D02*
D03*
X368000Y212000D02*
D03*
Y197000D02*
D03*
Y182000D02*
D03*
Y167000D02*
D03*
Y152000D02*
D03*
Y122000D02*
D03*
Y47000D02*
D03*
X353000Y212000D02*
D03*
Y197000D02*
D03*
Y182000D02*
D03*
Y167000D02*
D03*
Y152000D02*
D03*
Y122000D02*
D03*
Y62000D02*
D03*
Y47000D02*
D03*
Y32000D02*
D03*
X338000Y212000D02*
D03*
Y197000D02*
D03*
Y182000D02*
D03*
Y167000D02*
D03*
Y152000D02*
D03*
Y107000D02*
D03*
Y92000D02*
D03*
Y62000D02*
D03*
Y47000D02*
D03*
Y32000D02*
D03*
X323000Y212000D02*
D03*
Y197000D02*
D03*
Y182000D02*
D03*
Y167000D02*
D03*
Y152000D02*
D03*
Y122000D02*
D03*
Y107000D02*
D03*
Y92000D02*
D03*
Y47000D02*
D03*
Y32000D02*
D03*
X308000Y212000D02*
D03*
Y197000D02*
D03*
Y182000D02*
D03*
Y167000D02*
D03*
Y122000D02*
D03*
Y107000D02*
D03*
Y92000D02*
D03*
Y62000D02*
D03*
Y32000D02*
D03*
X293000Y212000D02*
D03*
Y197000D02*
D03*
Y167000D02*
D03*
Y92000D02*
D03*
Y62000D02*
D03*
X278000Y212000D02*
D03*
Y197000D02*
D03*
Y167000D02*
D03*
Y92000D02*
D03*
Y62000D02*
D03*
X263000Y212000D02*
D03*
Y197000D02*
D03*
Y182000D02*
D03*
Y167000D02*
D03*
Y122000D02*
D03*
Y92000D02*
D03*
Y62000D02*
D03*
X248000Y212000D02*
D03*
Y197000D02*
D03*
Y182000D02*
D03*
Y167000D02*
D03*
Y137000D02*
D03*
Y107000D02*
D03*
Y92000D02*
D03*
Y62000D02*
D03*
X233000Y212000D02*
D03*
Y197000D02*
D03*
Y182000D02*
D03*
Y167000D02*
D03*
Y107000D02*
D03*
Y92000D02*
D03*
Y62000D02*
D03*
X218000Y212000D02*
D03*
Y197000D02*
D03*
Y182000D02*
D03*
Y167000D02*
D03*
Y107000D02*
D03*
Y92000D02*
D03*
Y62000D02*
D03*
X203000Y212000D02*
D03*
Y197000D02*
D03*
Y182000D02*
D03*
Y167000D02*
D03*
Y107000D02*
D03*
Y92000D02*
D03*
Y62000D02*
D03*
X188000Y212000D02*
D03*
Y197000D02*
D03*
Y182000D02*
D03*
Y167000D02*
D03*
Y107000D02*
D03*
Y92000D02*
D03*
X173000Y212000D02*
D03*
Y197000D02*
D03*
Y182000D02*
D03*
Y167000D02*
D03*
Y107000D02*
D03*
Y92000D02*
D03*
X158000Y212000D02*
D03*
Y197000D02*
D03*
Y182000D02*
D03*
Y167000D02*
D03*
Y107000D02*
D03*
Y92000D02*
D03*
X143000Y212000D02*
D03*
Y197000D02*
D03*
Y182000D02*
D03*
Y167000D02*
D03*
Y107000D02*
D03*
Y92000D02*
D03*
X128000Y212000D02*
D03*
Y197000D02*
D03*
Y92000D02*
D03*
Y32000D02*
D03*
X113000Y212000D02*
D03*
Y197000D02*
D03*
Y107000D02*
D03*
X98000Y212000D02*
D03*
Y197000D02*
D03*
Y47000D02*
D03*
Y32000D02*
D03*
X83000Y212000D02*
D03*
Y197000D02*
D03*
Y47000D02*
D03*
Y32000D02*
D03*
X68000Y212000D02*
D03*
Y197000D02*
D03*
Y137000D02*
D03*
Y77000D02*
D03*
Y47000D02*
D03*
Y32000D02*
D03*
X53000Y212000D02*
D03*
Y197000D02*
D03*
Y77000D02*
D03*
Y47000D02*
D03*
Y32000D02*
D03*
X38000Y212000D02*
D03*
Y197000D02*
D03*
Y77000D02*
D03*
Y47000D02*
D03*
X23000Y212000D02*
D03*
Y197000D02*
D03*
Y182000D02*
D03*
Y167000D02*
D03*
Y152000D02*
D03*
Y47000D02*
D03*
X8000Y212000D02*
D03*
Y197000D02*
D03*
Y62000D02*
D03*
Y47000D02*
D03*
X228000Y123000D02*
D03*
Y141000D02*
D03*
X266000Y136000D02*
D03*
X357632Y101854D02*
D03*
X258064Y114046D02*
D03*
X105123Y106967D02*
D03*
X105156Y117094D02*
D03*
X76962Y163322D02*
D03*
X387350Y108966D02*
D03*
X393192Y89662D02*
D03*
X34544Y163830D02*
D03*
D47*
X375000Y25000D02*
D03*
X25000D02*
D03*
M02*
