G04*
G04 #@! TF.GenerationSoftware,Altium Limited,Altium Designer,21.6.4 (81)*
G04*
G04 Layer_Color=16711935*
%FSLAX44Y44*%
%MOMM*%
G71*
G04*
G04 #@! TF.SameCoordinates,EAB3D259-4ACE-4868-9577-5A2B5B6BA7EE*
G04*
G04*
G04 #@! TF.FilePolarity,Positive*
G04*
G01*
G75*
%ADD48C,0.0500*%
%ADD50C,0.1000*%
D48*
X383890Y25000D02*
G03*
X383890Y25000I-8890J0D01*
G01*
X33890D02*
G03*
X33890Y25000I-8890J0D01*
G01*
X198500Y137500D02*
X219500D01*
Y116500D02*
Y137500D01*
X198500Y116500D02*
X219500D01*
X198500D02*
Y137500D01*
X276500Y169500D02*
X276501Y152502D01*
X276500Y152500D02*
X276501Y152502D01*
X276500Y141000D02*
Y152500D01*
Y169500D02*
Y181000D01*
Y141000D02*
X301500D01*
X276500Y181000D02*
X301500D01*
Y141000D02*
Y181000D01*
X301499Y105498D02*
X301500Y88500D01*
X301499Y105498D02*
X301500Y105500D01*
Y117000D01*
Y77000D02*
Y88500D01*
X276500Y117000D02*
X301500D01*
X276500Y77000D02*
X301500D01*
X276500D02*
Y117000D01*
X178500Y119000D02*
X189500D01*
X178500Y125000D02*
X189500D01*
Y119000D02*
Y125000D01*
X178500Y119000D02*
Y125000D01*
X178500Y132000D02*
X189500D01*
X178500Y138000D02*
X189500D01*
Y132000D02*
Y138000D01*
X178500Y132000D02*
Y138000D01*
X239000Y125500D02*
Y136500D01*
X233000Y125500D02*
Y136500D01*
X239000D01*
X233000Y125500D02*
X239000D01*
X269000Y144001D02*
Y152001D01*
X263000Y144001D02*
Y152001D01*
X269000D01*
X263000Y144001D02*
X269000D01*
X263000Y105999D02*
Y113999D01*
X269000Y105999D02*
Y113999D01*
X263000Y105999D02*
X269000D01*
X263000Y113999D02*
X269000D01*
D50*
X101000Y79000D02*
Y219000D01*
X1000D02*
X101000D01*
X1000Y79000D02*
Y219000D01*
Y79000D02*
X101000D01*
X98400Y26700D02*
X301600D01*
Y1300D02*
Y26700D01*
X98400Y1300D02*
X301600D01*
X98400D02*
Y26700D01*
X111500Y163000D02*
Y169000D01*
X122500Y163000D02*
Y169000D01*
X111500D02*
X122500D01*
X111500Y163000D02*
X122500D01*
X122500Y175000D02*
Y181000D01*
X111500Y175000D02*
Y181000D01*
Y175000D02*
X122500D01*
X111500Y181000D02*
X122500D01*
M02*
