G04*
G04 #@! TF.GenerationSoftware,Altium Limited,Altium Designer,21.6.4 (81)*
G04*
G04 Layer_Physical_Order=1*
G04 Layer_Color=255*
%FSLAX44Y44*%
%MOMM*%
G71*
G04*
G04 #@! TF.SameCoordinates,EAB3D259-4ACE-4868-9577-5A2B5B6BA7EE*
G04*
G04*
G04 #@! TF.FilePolarity,Positive*
G04*
G01*
G75*
G04:AMPARAMS|DCode=15|XSize=1.15mm|YSize=0.7mm|CornerRadius=0.035mm|HoleSize=0mm|Usage=FLASHONLY|Rotation=180.000|XOffset=0mm|YOffset=0mm|HoleType=Round|Shape=RoundedRectangle|*
%AMROUNDEDRECTD15*
21,1,1.1500,0.6300,0,0,180.0*
21,1,1.0800,0.7000,0,0,180.0*
1,1,0.0700,-0.5400,0.3150*
1,1,0.0700,0.5400,0.3150*
1,1,0.0700,0.5400,-0.3150*
1,1,0.0700,-0.5400,-0.3150*
%
%ADD15ROUNDEDRECTD15*%
G04:AMPARAMS|DCode=16|XSize=1.15mm|YSize=0.7mm|CornerRadius=0.035mm|HoleSize=0mm|Usage=FLASHONLY|Rotation=90.000|XOffset=0mm|YOffset=0mm|HoleType=Round|Shape=RoundedRectangle|*
%AMROUNDEDRECTD16*
21,1,1.1500,0.6300,0,0,90.0*
21,1,1.0800,0.7000,0,0,90.0*
1,1,0.0700,0.3150,0.5400*
1,1,0.0700,0.3150,-0.5400*
1,1,0.0700,-0.3150,-0.5400*
1,1,0.0700,-0.3150,0.5400*
%
%ADD16ROUNDEDRECTD16*%
%ADD17R,0.7000X0.7000*%
%ADD19R,1.0000X0.8000*%
%ADD20R,0.7800X0.7400*%
%ADD21R,1.7000X0.8000*%
%ADD22R,0.5200X0.5500*%
%ADD23R,0.5500X0.5200*%
%ADD24R,0.3500X0.3600*%
%ADD39C,0.7900*%
%ADD40C,0.1520*%
%ADD41C,0.3500*%
%ADD42C,0.9000*%
%ADD43C,1.6500*%
%ADD44R,1.6500X1.6500*%
%ADD45C,3.4000*%
%ADD46C,0.6000*%
G36*
X280823Y152823D02*
X281822Y152155D01*
X283000Y151921D01*
X283000Y151921D01*
X303211D01*
X353279Y101853D01*
X353610Y100188D01*
X354553Y98776D01*
X355966Y97832D01*
X357632Y97500D01*
X359298Y97832D01*
X360709Y98775D01*
X364727D01*
X364887Y98537D01*
X366613Y97383D01*
X368650Y96978D01*
Y94922D01*
X366613Y94517D01*
X364887Y93363D01*
X363733Y91637D01*
X363328Y89600D01*
X363725Y87602D01*
X351043Y74920D01*
X298770D01*
Y79238D01*
X279230D01*
Y74920D01*
X88498D01*
X85636Y77782D01*
Y81243D01*
X85688Y81340D01*
X86850Y82198D01*
X97650D01*
X98282Y82324D01*
X98818Y82682D01*
X99176Y83218D01*
X99302Y83850D01*
Y84930D01*
X102000D01*
X102792Y85088D01*
X103464Y85536D01*
X128857Y110930D01*
X230000D01*
X230792Y111088D01*
X231464Y111537D01*
X237464Y117536D01*
X237912Y118208D01*
X238070Y119000D01*
Y123130D01*
X240020D01*
Y130870D01*
X240020D01*
Y131130D01*
X240020D01*
Y138870D01*
X233126D01*
X233122Y138872D01*
X232183Y140140D01*
X232354Y141000D01*
X232022Y142666D01*
X231079Y144078D01*
Y151607D01*
X240478D01*
X241656Y151841D01*
X242655Y152509D01*
X245067Y154921D01*
X262980D01*
Y152962D01*
X266000D01*
X269020D01*
Y154921D01*
X278725D01*
X280823Y152823D01*
D02*
G37*
G36*
X395922Y94351D02*
X394652Y93725D01*
X393192Y94016D01*
X391526Y93684D01*
X390113Y92740D01*
X389419Y91701D01*
X386224D01*
X385113Y93363D01*
X383387Y94517D01*
X381350Y94922D01*
Y96978D01*
X383387Y97383D01*
X385113Y98537D01*
X386267Y100263D01*
X386672Y102300D01*
X386434Y103500D01*
X387289Y104538D01*
X387477Y104638D01*
X389016Y104944D01*
X390429Y105887D01*
X391372Y107300D01*
X391704Y108966D01*
X391372Y110632D01*
X390429Y112044D01*
X389016Y112988D01*
X387350Y113320D01*
X385684Y112988D01*
X384272Y112044D01*
X383328Y110632D01*
X382996Y108966D01*
X383078Y108556D01*
X382013Y107490D01*
X381350Y107622D01*
X379313Y107217D01*
X377587Y106063D01*
X376433Y104337D01*
X376048Y102400D01*
X373952D01*
X373567Y104337D01*
X372413Y106063D01*
X370687Y107217D01*
X368650Y107622D01*
X366613Y107217D01*
X364887Y106063D01*
X364131Y104933D01*
X360709D01*
X359298Y105876D01*
X357633Y106207D01*
X306663Y157177D01*
X305664Y157845D01*
X304486Y158079D01*
X284275D01*
X282177Y160177D01*
X281178Y160845D01*
X280000Y161079D01*
X243792D01*
X242614Y160845D01*
X241615Y160177D01*
X239203Y157765D01*
X118369D01*
X116375Y159760D01*
X116901Y161030D01*
X121138D01*
Y166000D01*
Y170970D01*
X115179D01*
Y173030D01*
X121138D01*
Y178000D01*
Y182970D01*
X106930D01*
Y180579D01*
X99216D01*
X99176Y180782D01*
X98818Y181318D01*
X98282Y181676D01*
X97650Y181802D01*
X86850D01*
X86218Y181676D01*
X85682Y181318D01*
X85324Y180782D01*
X85198Y180150D01*
Y173850D01*
X85324Y173218D01*
X85660Y172715D01*
X85682Y172674D01*
Y171326D01*
X85660Y171285D01*
X85324Y170782D01*
X85198Y170150D01*
Y163850D01*
X85324Y163218D01*
X85633Y162756D01*
X85660Y162705D01*
X85673Y162000D01*
X85660Y161296D01*
X85633Y161244D01*
X85324Y160782D01*
X85198Y160150D01*
Y153850D01*
X85324Y153218D01*
X85660Y152715D01*
X85682Y152674D01*
Y151326D01*
X85660Y151285D01*
X85324Y150782D01*
X85198Y150150D01*
Y143850D01*
X85324Y143218D01*
X85633Y142756D01*
X85660Y142705D01*
X85673Y142000D01*
X85660Y141295D01*
X85633Y141244D01*
X85324Y140782D01*
X85198Y140150D01*
Y137762D01*
X92250D01*
X99302D01*
Y140150D01*
X99176Y140782D01*
X98867Y141244D01*
X98840Y141295D01*
X98827Y142000D01*
X98840Y142705D01*
X98867Y142756D01*
X99176Y143218D01*
X99302Y143850D01*
Y144032D01*
X100200Y144930D01*
X102079D01*
X113472Y133537D01*
X114144Y133088D01*
X114936Y132930D01*
X157159D01*
X157544Y131660D01*
X157422Y131579D01*
X156478Y130166D01*
X156146Y128500D01*
X156478Y126834D01*
X157422Y125421D01*
X158834Y124478D01*
X160500Y124146D01*
X161690Y124383D01*
X165536Y120536D01*
X166208Y120088D01*
X167000Y119930D01*
X176130D01*
Y117980D01*
X182860D01*
X183870Y117980D01*
X185140Y117980D01*
X191870D01*
Y119930D01*
X195230D01*
Y116340D01*
X195230Y116230D01*
X194965Y115070D01*
X128000D01*
X127208Y114912D01*
X126537Y114464D01*
X101143Y89070D01*
X99302D01*
Y90150D01*
X99176Y90782D01*
X98840Y91285D01*
X98818Y91326D01*
Y92674D01*
X98840Y92715D01*
X99176Y93218D01*
X99302Y93850D01*
Y100150D01*
X99176Y100782D01*
X98867Y101244D01*
X98840Y101295D01*
X98827Y102000D01*
X98840Y102705D01*
X98867Y102756D01*
X99176Y103218D01*
X99302Y103850D01*
Y104032D01*
X100200Y104930D01*
X101348D01*
X102044Y103889D01*
X103457Y102945D01*
X105123Y102613D01*
X106789Y102945D01*
X108202Y103889D01*
X109145Y105301D01*
X109477Y106967D01*
X109145Y108633D01*
X108202Y110045D01*
X106789Y110989D01*
X105123Y111321D01*
X103457Y110989D01*
X102044Y110045D01*
X101393Y109070D01*
X99302D01*
Y110150D01*
X99176Y110782D01*
X98867Y111244D01*
X98840Y111295D01*
X98827Y112000D01*
X98840Y112705D01*
X98867Y112756D01*
X99176Y113218D01*
X99302Y113850D01*
Y114032D01*
X100200Y114930D01*
X101466D01*
X102078Y114016D01*
X103490Y113072D01*
X105156Y112740D01*
X106822Y113072D01*
X108235Y114016D01*
X109178Y115428D01*
X109510Y117094D01*
X109178Y118760D01*
X108235Y120173D01*
X106822Y121116D01*
X105156Y121448D01*
X103490Y121116D01*
X102078Y120173D01*
X101341Y119070D01*
X99302D01*
Y120150D01*
X99176Y120782D01*
X98867Y121244D01*
X98840Y121295D01*
X98827Y122000D01*
X98840Y122705D01*
X98867Y122756D01*
X99176Y123218D01*
X99302Y123850D01*
Y130150D01*
X99176Y130782D01*
X98867Y131244D01*
X98840Y131295D01*
X98827Y132000D01*
X98840Y132705D01*
X98867Y132756D01*
X99176Y133218D01*
X99302Y133850D01*
Y136238D01*
X92250D01*
X85198D01*
Y133850D01*
X85324Y133218D01*
X85633Y132756D01*
X85660Y132705D01*
X85673Y132000D01*
X85660Y131295D01*
X85633Y131244D01*
X85324Y130782D01*
X85198Y130150D01*
Y123850D01*
X85324Y123218D01*
X85633Y122756D01*
X85660Y122705D01*
X85673Y122000D01*
X85660Y121295D01*
X85633Y121244D01*
X85324Y120782D01*
X85198Y120150D01*
Y113850D01*
X85324Y113218D01*
X85633Y112756D01*
X85660Y112705D01*
X85673Y112000D01*
X85660Y111295D01*
X85633Y111244D01*
X85324Y110782D01*
X85198Y110150D01*
Y103850D01*
X85324Y103218D01*
X85633Y102756D01*
X85660Y102705D01*
X85673Y102000D01*
X85660Y101295D01*
X85651Y101278D01*
X85564Y101206D01*
X85564Y101205D01*
X84607Y100667D01*
X83987Y100569D01*
X79012Y105544D01*
X78340Y105992D01*
X77548Y106150D01*
X40076D01*
X27070Y119157D01*
Y136000D01*
X26912Y136792D01*
X26463Y137464D01*
X17953Y145974D01*
X17282Y146423D01*
X16802Y146518D01*
Y150150D01*
X16676Y150782D01*
X16340Y151285D01*
X16318Y151326D01*
Y152674D01*
X16340Y152715D01*
X16676Y153218D01*
X16802Y153850D01*
Y160150D01*
X16676Y160782D01*
X16340Y161285D01*
X16318Y161326D01*
Y162674D01*
X16340Y162715D01*
X16676Y163218D01*
X16802Y163850D01*
Y170150D01*
X16676Y170782D01*
X16340Y171285D01*
X16318Y171326D01*
Y172674D01*
X16340Y172715D01*
X16676Y173218D01*
X16802Y173850D01*
Y180150D01*
X16676Y180782D01*
X16318Y181318D01*
X15782Y181676D01*
X15150Y181802D01*
X4350D01*
X4078Y182025D01*
Y215922D01*
X395922Y215922D01*
Y94351D01*
D02*
G37*
G36*
X71762Y80698D02*
X74150D01*
X75328Y79876D01*
X75400Y79751D01*
Y74422D01*
X75558Y73630D01*
X76006Y72958D01*
X81992Y66973D01*
X81506Y65800D01*
X30546D01*
X27150Y69196D01*
Y79543D01*
X27850Y80698D01*
X30238D01*
Y87750D01*
X31762D01*
Y80698D01*
X34150D01*
X34782Y80824D01*
X35244Y81133D01*
X35296Y81160D01*
X36000Y81173D01*
X36705Y81160D01*
X36756Y81133D01*
X37218Y80824D01*
X37850Y80698D01*
X44150D01*
X44782Y80824D01*
X45244Y81133D01*
X45296Y81160D01*
X46000Y81173D01*
X46705Y81160D01*
X46756Y81133D01*
X47218Y80824D01*
X47850Y80698D01*
X54150D01*
X54782Y80824D01*
X55244Y81133D01*
X55296Y81160D01*
X56000Y81173D01*
X56705Y81160D01*
X56756Y81133D01*
X57218Y80824D01*
X57850Y80698D01*
X64150D01*
X64782Y80824D01*
X65244Y81133D01*
X65295Y81160D01*
X66000Y81173D01*
X66705Y81160D01*
X66756Y81133D01*
X67218Y80824D01*
X67850Y80698D01*
X70238D01*
Y87750D01*
X71762D01*
Y80698D01*
D02*
G37*
G36*
X390113Y86583D02*
X391526Y85640D01*
X393192Y85308D01*
X394652Y85599D01*
X395922Y84973D01*
Y4078D01*
X4078Y4078D01*
Y81975D01*
X4350Y82198D01*
X7680D01*
Y70250D01*
X7838Y69458D01*
X8286Y68787D01*
X23926Y53147D01*
X24598Y52698D01*
X25390Y52540D01*
X110774D01*
X110858Y51270D01*
X110135Y51175D01*
X108615Y50975D01*
X106299Y50016D01*
X104310Y48490D01*
X102784Y46501D01*
X101825Y44185D01*
X101598Y42462D01*
X120602D01*
X120375Y44185D01*
X119416Y46501D01*
X117890Y48490D01*
X115901Y50016D01*
X113585Y50975D01*
X112065Y51175D01*
X111342Y51270D01*
X111426Y52540D01*
X122733D01*
X128439Y46834D01*
X128184Y46501D01*
X127225Y44185D01*
X126898Y41700D01*
X127225Y39215D01*
X128184Y36899D01*
X129710Y34910D01*
X131699Y33384D01*
X134015Y32425D01*
X136500Y32098D01*
X138985Y32425D01*
X141301Y33384D01*
X143290Y34910D01*
X144816Y36899D01*
X145775Y39215D01*
X146102Y41700D01*
X145775Y44185D01*
X144816Y46501D01*
X143290Y48490D01*
X141301Y50016D01*
X138985Y50975D01*
X136500Y51302D01*
X134015Y50975D01*
X131699Y50016D01*
X131367Y49761D01*
X126720Y54407D01*
X127206Y55580D01*
X145093D01*
X153839Y46834D01*
X153584Y46501D01*
X152625Y44185D01*
X152298Y41700D01*
X152625Y39215D01*
X153584Y36899D01*
X155110Y34910D01*
X157099Y33384D01*
X159415Y32425D01*
X161900Y32098D01*
X164385Y32425D01*
X166701Y33384D01*
X168690Y34910D01*
X169660Y36175D01*
X170930Y35744D01*
Y31701D01*
X171088Y30909D01*
X171537Y30237D01*
X178277Y23496D01*
X178949Y23048D01*
X179741Y22890D01*
X246760D01*
X247552Y23048D01*
X248223Y23496D01*
X258367Y33639D01*
X258699Y33384D01*
X261015Y32425D01*
X263500Y32098D01*
X265985Y32425D01*
X268301Y33384D01*
X270290Y34910D01*
X271816Y36899D01*
X272775Y39215D01*
X273102Y41700D01*
X272775Y44185D01*
X271816Y46501D01*
X270290Y48490D01*
X268301Y50016D01*
X265985Y50975D01*
X263500Y51302D01*
X261015Y50975D01*
X258699Y50016D01*
X256710Y48490D01*
X255184Y46501D01*
X254225Y44185D01*
X253898Y41700D01*
X254225Y39215D01*
X255184Y36899D01*
X255439Y36567D01*
X245903Y27030D01*
X227616D01*
X227130Y28203D01*
X232740Y33813D01*
X233299Y33384D01*
X235615Y32425D01*
X238100Y32098D01*
X240585Y32425D01*
X242901Y33384D01*
X244890Y34910D01*
X246416Y36899D01*
X247375Y39215D01*
X247702Y41700D01*
X247375Y44185D01*
X246416Y46501D01*
X244890Y48490D01*
X242901Y50016D01*
X240585Y50975D01*
X238100Y51302D01*
X235615Y50975D01*
X233299Y50016D01*
X231310Y48490D01*
X229784Y46501D01*
X228825Y44185D01*
X228498Y41700D01*
X228825Y39215D01*
X229784Y36899D01*
X229866Y36793D01*
X223143Y30070D01*
X181857D01*
X178110Y33817D01*
Y35952D01*
X179380Y36384D01*
X180510Y34910D01*
X182499Y33384D01*
X184815Y32425D01*
X187300Y32098D01*
X189785Y32425D01*
X192101Y33384D01*
X194090Y34910D01*
X195616Y36899D01*
X196575Y39215D01*
X196902Y41700D01*
X196575Y44185D01*
X195616Y46501D01*
X194090Y48490D01*
X192101Y50016D01*
X189785Y50975D01*
X187300Y51302D01*
X184815Y50975D01*
X182499Y50016D01*
X180510Y48490D01*
X179380Y47017D01*
X178110Y47448D01*
Y51259D01*
X177952Y52051D01*
X177504Y52723D01*
X176469Y53757D01*
X176955Y54930D01*
X196543D01*
X204639Y46834D01*
X204384Y46501D01*
X203425Y44185D01*
X203098Y41700D01*
X203425Y39215D01*
X204384Y36899D01*
X205910Y34910D01*
X207899Y33384D01*
X210215Y32425D01*
X212700Y32098D01*
X215185Y32425D01*
X217501Y33384D01*
X219490Y34910D01*
X221016Y36899D01*
X221975Y39215D01*
X222302Y41700D01*
X221975Y44185D01*
X221016Y46501D01*
X219490Y48490D01*
X217501Y50016D01*
X215185Y50975D01*
X212700Y51302D01*
X210215Y50975D01*
X207899Y50016D01*
X207567Y49761D01*
X198864Y58464D01*
X198192Y58912D01*
X197400Y59070D01*
X175456D01*
X167769Y66757D01*
X168255Y67930D01*
X175967D01*
X176835Y66947D01*
X176646Y66000D01*
X176978Y64334D01*
X177922Y62922D01*
X179334Y61978D01*
X181000Y61646D01*
X182666Y61978D01*
X184079Y62922D01*
X185022Y64334D01*
X185354Y66000D01*
X185022Y67666D01*
X184079Y69078D01*
X183432Y69510D01*
X183817Y70780D01*
X351900D01*
X352692Y70938D01*
X353364Y71387D01*
X366652Y84675D01*
X368650Y84278D01*
Y82222D01*
X366613Y81817D01*
X364887Y80663D01*
X363733Y78937D01*
X363479Y77662D01*
X368650D01*
Y76900D01*
X369412D01*
Y71729D01*
X370687Y71983D01*
X372413Y73137D01*
X373567Y74863D01*
X373972Y76900D01*
X376028D01*
X376433Y74863D01*
X377587Y73137D01*
X379313Y71983D01*
X381350Y71578D01*
X383387Y71983D01*
X385113Y73137D01*
X386267Y74863D01*
X386672Y76900D01*
X386267Y78937D01*
X385113Y80663D01*
X383387Y81817D01*
X381350Y82222D01*
Y84278D01*
X383387Y84683D01*
X385113Y85837D01*
X386266Y87561D01*
X389460D01*
X390113Y86583D01*
D02*
G37*
%LPC*%
G36*
X269020Y151438D02*
X266762D01*
Y149130D01*
X269020D01*
Y151438D01*
D02*
G37*
G36*
X265238D02*
X262980D01*
Y149130D01*
X265238D01*
Y151438D01*
D02*
G37*
G36*
X298770Y149270D02*
X279230D01*
Y145870D01*
X269020D01*
Y146870D01*
X262980D01*
Y140730D01*
X263107D01*
X263493Y139460D01*
X262922Y139079D01*
X261978Y137666D01*
X261646Y136000D01*
X261978Y134334D01*
X262922Y132921D01*
X264334Y131978D01*
X266000Y131646D01*
X267666Y131978D01*
X269079Y132921D01*
X270022Y134334D01*
X270354Y136000D01*
X270022Y137666D01*
X269079Y139079D01*
X268507Y139460D01*
X268893Y140730D01*
X269020D01*
Y141730D01*
X279230D01*
Y138730D01*
X298770D01*
Y149270D01*
D02*
G37*
G36*
Y119270D02*
X279230D01*
Y116270D01*
X269020D01*
Y117270D01*
X262980D01*
Y116193D01*
X261765D01*
X261143Y117125D01*
X259730Y118068D01*
X258064Y118400D01*
X256398Y118068D01*
X254986Y117125D01*
X254042Y115712D01*
X253710Y114046D01*
X254042Y112380D01*
X254986Y110968D01*
X256398Y110024D01*
X258064Y109692D01*
X259730Y110024D01*
X261143Y110968D01*
X261710Y111817D01*
X262980Y111629D01*
Y111130D01*
X269020D01*
Y112130D01*
X279230D01*
Y108730D01*
X298770D01*
Y119270D01*
D02*
G37*
G36*
X269020Y108870D02*
X266762D01*
Y106562D01*
X269020D01*
Y108870D01*
D02*
G37*
G36*
X265238D02*
X262980D01*
Y106562D01*
X265238D01*
Y108870D01*
D02*
G37*
G36*
X269020Y105038D02*
X266762D01*
Y102730D01*
X269020D01*
Y105038D01*
D02*
G37*
G36*
X265238D02*
X262980D01*
Y102730D01*
X265238D01*
Y105038D01*
D02*
G37*
G36*
X298770Y85270D02*
X289762D01*
Y80762D01*
X298770D01*
Y85270D01*
D02*
G37*
G36*
X288238D02*
X279230D01*
Y80762D01*
X288238D01*
Y85270D01*
D02*
G37*
G36*
X298770Y183270D02*
X289762D01*
Y178762D01*
X298770D01*
Y183270D01*
D02*
G37*
G36*
X288238D02*
X279230D01*
Y178762D01*
X288238D01*
Y183270D01*
D02*
G37*
G36*
X127070Y182970D02*
X122662D01*
Y178762D01*
X127070D01*
Y182970D01*
D02*
G37*
G36*
Y177238D02*
X122662D01*
Y173030D01*
X127070D01*
Y177238D01*
D02*
G37*
G36*
X298770Y177238D02*
X289762D01*
Y172730D01*
X298770D01*
Y177238D01*
D02*
G37*
G36*
X288238D02*
X279230D01*
Y172730D01*
X288238D01*
Y177238D01*
D02*
G37*
G36*
X44150Y183302D02*
X41762D01*
Y176250D01*
Y169198D01*
X44150D01*
X44782Y169324D01*
X45244Y169633D01*
X45296Y169660D01*
X46000Y169673D01*
X46705Y169660D01*
X46756Y169633D01*
X47218Y169324D01*
X47850Y169198D01*
X54150D01*
X54782Y169324D01*
X55244Y169633D01*
X55296Y169660D01*
X56000Y169673D01*
X56705Y169660D01*
X56756Y169633D01*
X57218Y169324D01*
X57850Y169198D01*
X60238D01*
Y176250D01*
Y183302D01*
X57850D01*
X57218Y183176D01*
X56756Y182867D01*
X56705Y182840D01*
X56000Y182827D01*
X55296Y182840D01*
X55244Y182867D01*
X54782Y183176D01*
X54150Y183302D01*
X47850D01*
X47218Y183176D01*
X46756Y182867D01*
X46705Y182840D01*
X46000Y182827D01*
X45296Y182840D01*
X45244Y182867D01*
X44782Y183176D01*
X44150Y183302D01*
D02*
G37*
G36*
X34150D02*
X27850D01*
X27218Y183176D01*
X26682Y182818D01*
X26324Y182282D01*
X26198Y181650D01*
Y170850D01*
X26324Y170218D01*
X26682Y169682D01*
X27218Y169324D01*
X27850Y169198D01*
X28930D01*
Y167374D01*
X29088Y166582D01*
X29536Y165910D01*
X30427Y165020D01*
X30190Y163830D01*
X30522Y162164D01*
X31465Y160751D01*
X32878Y159808D01*
X34544Y159476D01*
X36210Y159808D01*
X37622Y160751D01*
X38566Y162164D01*
X38898Y163830D01*
X38566Y165496D01*
X37622Y166908D01*
X36210Y167852D01*
X36044Y167885D01*
X35941Y167971D01*
X35475Y169293D01*
X35756Y169669D01*
X36000Y169673D01*
X36705Y169660D01*
X36756Y169633D01*
X37218Y169324D01*
X37850Y169198D01*
X40238D01*
Y176250D01*
Y183302D01*
X37850D01*
X37218Y183176D01*
X36756Y182867D01*
X36705Y182840D01*
X36000Y182827D01*
X35296Y182840D01*
X35244Y182867D01*
X34782Y183176D01*
X34150Y183302D01*
D02*
G37*
G36*
X127070Y170970D02*
X122662D01*
Y166762D01*
X127070D01*
Y170970D01*
D02*
G37*
G36*
Y165238D02*
X122662D01*
Y161030D01*
X127070D01*
Y165238D01*
D02*
G37*
G36*
X64150Y183302D02*
X61762D01*
Y176250D01*
Y169198D01*
X64150D01*
X64782Y169324D01*
X65244Y169633D01*
X65295Y169660D01*
X66000Y169673D01*
X66705Y169660D01*
X66756Y169633D01*
X67218Y169324D01*
X67850Y169198D01*
X72875D01*
X74040Y168033D01*
X73884Y166401D01*
X72940Y164988D01*
X72608Y163322D01*
X72940Y161656D01*
X73884Y160243D01*
X75296Y159300D01*
X76962Y158968D01*
X78628Y159300D01*
X80041Y160243D01*
X80984Y161656D01*
X81316Y163322D01*
X80984Y164988D01*
X80041Y166401D01*
X79032Y167075D01*
Y168038D01*
X78874Y168830D01*
X78425Y169502D01*
X75802Y172125D01*
Y181650D01*
X75676Y182282D01*
X75318Y182818D01*
X74782Y183176D01*
X74150Y183302D01*
X67850D01*
X67218Y183176D01*
X66756Y182867D01*
X66705Y182840D01*
X66000Y182827D01*
X65295Y182840D01*
X65244Y182867D01*
X64782Y183176D01*
X64150Y183302D01*
D02*
G37*
G36*
X50020Y154020D02*
X46012D01*
Y150012D01*
X50020D01*
Y154020D01*
D02*
G37*
G36*
X61520D02*
X57512D01*
Y150012D01*
X61520D01*
Y154020D01*
D02*
G37*
G36*
X38520D02*
X34512D01*
Y150012D01*
X38520D01*
Y154020D01*
D02*
G37*
G36*
X73020D02*
X69012D01*
Y150012D01*
X73020D01*
Y154020D01*
D02*
G37*
G36*
X44488D02*
X40480D01*
Y150012D01*
X44488D01*
Y154020D01*
D02*
G37*
G36*
X55988D02*
X51980D01*
Y150012D01*
X55988D01*
Y154020D01*
D02*
G37*
G36*
X32988D02*
X28980D01*
Y150012D01*
X32988D01*
Y154020D01*
D02*
G37*
G36*
X67488D02*
X63480D01*
Y150012D01*
X67488D01*
Y154020D01*
D02*
G37*
G36*
X73020Y148488D02*
X69012D01*
Y144480D01*
X73020D01*
Y148488D01*
D02*
G37*
G36*
X67488D02*
X63480D01*
Y144480D01*
X67488D01*
Y148488D01*
D02*
G37*
G36*
X61520D02*
X57512D01*
Y144480D01*
X61520D01*
Y148488D01*
D02*
G37*
G36*
X55988D02*
X51980D01*
Y144480D01*
X55988D01*
Y148488D01*
D02*
G37*
G36*
X50020D02*
X46012D01*
Y144480D01*
X50020D01*
Y148488D01*
D02*
G37*
G36*
X44488D02*
X40480D01*
Y144480D01*
X44488D01*
Y148488D01*
D02*
G37*
G36*
X38520D02*
X34512D01*
Y144480D01*
X38520D01*
Y148488D01*
D02*
G37*
G36*
X32988D02*
X28980D01*
Y144480D01*
X32988D01*
Y148488D01*
D02*
G37*
G36*
X50020Y142520D02*
X46012D01*
Y138512D01*
X50020D01*
Y142520D01*
D02*
G37*
G36*
X61520D02*
X57512D01*
Y138512D01*
X61520D01*
Y142520D01*
D02*
G37*
G36*
X44488D02*
X40480D01*
Y138512D01*
X44488D01*
Y142520D01*
D02*
G37*
G36*
X55988D02*
X51980D01*
Y138512D01*
X55988D01*
Y142520D01*
D02*
G37*
G36*
X61520Y136988D02*
X57512D01*
Y132980D01*
X61520D01*
Y136988D01*
D02*
G37*
G36*
X55988D02*
X51980D01*
Y132980D01*
X55988D01*
Y136988D01*
D02*
G37*
G36*
X50020D02*
X46012D01*
Y132980D01*
X50020D01*
Y136988D01*
D02*
G37*
G36*
X44488D02*
X40480D01*
Y132980D01*
X44488D01*
Y136988D01*
D02*
G37*
G36*
X50020Y131020D02*
X46012D01*
Y127012D01*
X50020D01*
Y131020D01*
D02*
G37*
G36*
X61520D02*
X57512D01*
Y127012D01*
X61520D01*
Y131020D01*
D02*
G37*
G36*
X38520D02*
X34512D01*
Y127012D01*
X38520D01*
Y131020D01*
D02*
G37*
G36*
X73020D02*
X69012D01*
Y127012D01*
X73020D01*
Y131020D01*
D02*
G37*
G36*
X44488D02*
X40480D01*
Y127012D01*
X44488D01*
Y131020D01*
D02*
G37*
G36*
X55988D02*
X51980D01*
Y127012D01*
X55988D01*
Y131020D01*
D02*
G37*
G36*
X32988D02*
X28980D01*
Y127012D01*
X32988D01*
Y131020D01*
D02*
G37*
G36*
X67488D02*
X63480D01*
Y127012D01*
X67488D01*
Y131020D01*
D02*
G37*
G36*
X73020Y125488D02*
X69012D01*
Y121480D01*
X73020D01*
Y125488D01*
D02*
G37*
G36*
X67488D02*
X63480D01*
Y121480D01*
X67488D01*
Y125488D01*
D02*
G37*
G36*
X61520D02*
X57512D01*
Y121480D01*
X61520D01*
Y125488D01*
D02*
G37*
G36*
X55988D02*
X51980D01*
Y121480D01*
X55988D01*
Y125488D01*
D02*
G37*
G36*
X50020D02*
X46012D01*
Y121480D01*
X50020D01*
Y125488D01*
D02*
G37*
G36*
X44488D02*
X40480D01*
Y121480D01*
X44488D01*
Y125488D01*
D02*
G37*
G36*
X38520D02*
X34512D01*
Y121480D01*
X38520D01*
Y125488D01*
D02*
G37*
G36*
X32988D02*
X28980D01*
Y121480D01*
X32988D01*
Y125488D01*
D02*
G37*
G36*
X50020Y119520D02*
X46012D01*
Y115512D01*
X50020D01*
Y119520D01*
D02*
G37*
G36*
X61520D02*
X57512D01*
Y115512D01*
X61520D01*
Y119520D01*
D02*
G37*
G36*
X44488D02*
X40480D01*
Y115512D01*
X44488D01*
Y119520D01*
D02*
G37*
G36*
X55988D02*
X51980D01*
Y115512D01*
X55988D01*
Y119520D01*
D02*
G37*
G36*
X61520Y113988D02*
X57512D01*
Y109980D01*
X61520D01*
Y113988D01*
D02*
G37*
G36*
X55988D02*
X51980D01*
Y109980D01*
X55988D01*
Y113988D01*
D02*
G37*
G36*
X50020D02*
X46012D01*
Y109980D01*
X50020D01*
Y113988D01*
D02*
G37*
G36*
X44488D02*
X40480D01*
Y109980D01*
X44488D01*
Y113988D01*
D02*
G37*
G36*
X375000Y121367D02*
X372563Y120883D01*
X370498Y119502D01*
X369117Y117437D01*
X368633Y115000D01*
X369117Y112563D01*
X370498Y110498D01*
X372563Y109117D01*
X375000Y108633D01*
X377437Y109117D01*
X379502Y110498D01*
X380883Y112563D01*
X381367Y115000D01*
X380883Y117437D01*
X379502Y119502D01*
X377437Y120883D01*
X375000Y121367D01*
D02*
G37*
G36*
X367888Y76138D02*
X363479D01*
X363733Y74863D01*
X364887Y73137D01*
X366613Y71983D01*
X367888Y71729D01*
Y76138D01*
D02*
G37*
G36*
X385160Y70567D02*
X382723Y70083D01*
X380658Y68702D01*
X379277Y66637D01*
X378793Y64200D01*
X379277Y61763D01*
X380658Y59698D01*
X382723Y58317D01*
X385160Y57833D01*
X387597Y58317D01*
X389662Y59698D01*
X391043Y61763D01*
X391527Y64200D01*
X391043Y66637D01*
X389662Y68702D01*
X387597Y70083D01*
X385160Y70567D01*
D02*
G37*
G36*
X364840D02*
X362403Y70083D01*
X360338Y68702D01*
X358957Y66637D01*
X358473Y64200D01*
X358957Y61763D01*
X360338Y59698D01*
X362403Y58317D01*
X364840Y57833D01*
X367277Y58317D01*
X369342Y59698D01*
X370723Y61763D01*
X371207Y64200D01*
X370723Y66637D01*
X369342Y68702D01*
X367277Y70083D01*
X364840Y70567D01*
D02*
G37*
G36*
X120602Y40938D02*
X111862D01*
Y32198D01*
X113585Y32425D01*
X115901Y33384D01*
X117890Y34910D01*
X119416Y36899D01*
X120375Y39215D01*
X120602Y40938D01*
D02*
G37*
G36*
X110338D02*
X101598D01*
X101825Y39215D01*
X102784Y36899D01*
X104310Y34910D01*
X106299Y33384D01*
X108615Y32425D01*
X110338Y32198D01*
Y40938D01*
D02*
G37*
G36*
X298420Y51220D02*
X279380D01*
Y32180D01*
X298420D01*
Y51220D01*
D02*
G37*
G36*
X375762Y43283D02*
Y25762D01*
X393283D01*
X393006Y28582D01*
X391961Y32025D01*
X390264Y35199D01*
X387981Y37981D01*
X385199Y40264D01*
X382025Y41961D01*
X378582Y43006D01*
X375762Y43283D01*
D02*
G37*
G36*
X374238D02*
X371418Y43006D01*
X367975Y41961D01*
X364801Y40264D01*
X362019Y37981D01*
X359736Y35199D01*
X358039Y32025D01*
X356994Y28582D01*
X356717Y25762D01*
X374238D01*
Y43283D01*
D02*
G37*
G36*
X25762D02*
Y25762D01*
X43283D01*
X43006Y28582D01*
X41961Y32025D01*
X40264Y35199D01*
X37981Y37981D01*
X35199Y40264D01*
X32025Y41961D01*
X28582Y43006D01*
X25762Y43283D01*
D02*
G37*
G36*
X24238D02*
X21418Y43006D01*
X17975Y41961D01*
X14801Y40264D01*
X12019Y37981D01*
X9736Y35199D01*
X8039Y32025D01*
X6994Y28582D01*
X6717Y25762D01*
X24238D01*
Y43283D01*
D02*
G37*
G36*
X393283Y24238D02*
X375762D01*
Y6717D01*
X378582Y6994D01*
X382025Y8039D01*
X385199Y9736D01*
X387981Y12019D01*
X390264Y14801D01*
X391961Y17975D01*
X393006Y21418D01*
X393283Y24238D01*
D02*
G37*
G36*
X374238D02*
X356717D01*
X356994Y21418D01*
X358039Y17975D01*
X359736Y14801D01*
X362019Y12019D01*
X364801Y9736D01*
X367975Y8039D01*
X371418Y6994D01*
X374238Y6717D01*
Y24238D01*
D02*
G37*
G36*
X43283D02*
X25762D01*
Y6717D01*
X28582Y6994D01*
X32025Y8039D01*
X35199Y9736D01*
X37981Y12019D01*
X40264Y14801D01*
X41961Y17975D01*
X43006Y21418D01*
X43283Y24238D01*
D02*
G37*
G36*
X24238D02*
X6717D01*
X6994Y21418D01*
X8039Y17975D01*
X9736Y14801D01*
X12019Y12019D01*
X14801Y9736D01*
X17975Y8039D01*
X21418Y6994D01*
X24238Y6717D01*
Y24238D01*
D02*
G37*
%LPD*%
D15*
X92250Y87000D02*
D03*
Y97000D02*
D03*
Y107000D02*
D03*
Y117000D02*
D03*
Y127000D02*
D03*
Y137000D02*
D03*
Y147000D02*
D03*
Y157000D02*
D03*
Y167000D02*
D03*
Y177000D02*
D03*
X9750D02*
D03*
Y167000D02*
D03*
Y157000D02*
D03*
Y147000D02*
D03*
Y137000D02*
D03*
Y127000D02*
D03*
Y117000D02*
D03*
Y107000D02*
D03*
Y97000D02*
D03*
Y87000D02*
D03*
D16*
X31000Y176250D02*
D03*
X41000D02*
D03*
X51000D02*
D03*
X61000D02*
D03*
X71000D02*
D03*
Y87750D02*
D03*
X61000D02*
D03*
X51000D02*
D03*
X41000D02*
D03*
X31000D02*
D03*
D17*
X68250Y149250D02*
D03*
X56750D02*
D03*
X45250D02*
D03*
X33750D02*
D03*
Y126250D02*
D03*
X45250Y137750D02*
D03*
X56750D02*
D03*
Y114750D02*
D03*
X68250Y126250D02*
D03*
X56750D02*
D03*
X45250D02*
D03*
Y114750D02*
D03*
D19*
X216500Y132500D02*
D03*
X201500D02*
D03*
Y121500D02*
D03*
X216500D02*
D03*
D20*
X112100Y166000D02*
D03*
X121900D02*
D03*
Y178000D02*
D03*
X112100D02*
D03*
D21*
X289000Y144000D02*
D03*
Y178000D02*
D03*
Y114000D02*
D03*
Y80000D02*
D03*
D22*
X188000Y122000D02*
D03*
X180000D02*
D03*
X188000Y135000D02*
D03*
X180000D02*
D03*
D23*
X236000Y135000D02*
D03*
Y127000D02*
D03*
D24*
X266000Y152200D02*
D03*
Y143800D02*
D03*
X266000Y105800D02*
D03*
Y114200D02*
D03*
D39*
X381350Y76900D02*
D03*
X368650D02*
D03*
X381350Y89600D02*
D03*
X368650D02*
D03*
X381350Y102300D02*
D03*
X368650D02*
D03*
D40*
X197400Y57000D02*
X212700Y41700D01*
X174599Y57000D02*
X197400D01*
X164828Y66770D02*
X174599Y57000D01*
X176040Y46751D02*
Y51259D01*
X29688Y63730D02*
X163569D01*
X176040Y51259D01*
X173000Y36701D02*
Y50000D01*
X85122Y66770D02*
X164828D01*
X162310Y60690D02*
X173000Y50000D01*
X87640Y72850D02*
X351900D01*
X83566Y76925D02*
X87640Y72850D01*
X351900D02*
X368650Y89600D01*
X86191Y70000D02*
X177000D01*
X28429Y60690D02*
X162310D01*
X80518Y75673D02*
X86191Y70000D01*
X77470Y74422D02*
X85122Y66770D01*
X177000Y70000D02*
X181000Y66000D01*
X22040Y67079D02*
X28429Y60690D01*
X25080Y68338D02*
X29688Y63730D01*
X266000Y136000D02*
Y143800D01*
X266000Y143800D01*
X92250Y87000D02*
X102000D01*
X128000Y113000D02*
X230000D01*
X102000Y87000D02*
X128000Y113000D01*
X219000Y135000D02*
X236000D01*
X236000Y135000D01*
Y119000D02*
Y127000D01*
X230000Y113000D02*
X236000Y119000D01*
X216500Y132500D02*
X219000Y135000D01*
X100076Y156972D02*
X116048Y141000D01*
X152000D01*
X167000Y122000D02*
X180000D01*
X160500Y128500D02*
X167000Y122000D01*
X188000D02*
X201000D01*
X201500Y121500D01*
X194500Y132500D02*
X201500D01*
X192000Y135000D02*
X194500Y132500D01*
X188000Y135000D02*
X192000D01*
X105090Y107000D02*
X105156Y106934D01*
X114936Y135000D02*
X180000D01*
X102936Y147000D02*
X114936Y135000D01*
X258064Y114046D02*
X258141Y114123D01*
X265923D01*
X266000Y114200D01*
X92250Y107000D02*
X105090D01*
X92250Y117000D02*
X105062D01*
X105156Y117094D01*
X76962Y163576D02*
Y168038D01*
X381350Y102966D02*
X387350Y108966D01*
X381350Y102300D02*
Y102966D01*
Y89600D02*
X381381Y89631D01*
X393161D01*
X393192Y89662D01*
X31000Y167374D02*
Y176250D01*
Y167374D02*
X34544Y163830D01*
X71000Y174000D02*
Y176250D01*
Y174000D02*
X76962Y168038D01*
X77470Y74422D02*
Y95250D01*
X83566Y76925D02*
Y98062D01*
X80518Y75673D02*
Y96811D01*
X9750Y70250D02*
X25390Y54610D01*
X27170Y57650D02*
X145950D01*
X161900Y41700D01*
X19000Y65820D02*
X27170Y57650D01*
X25390Y54610D02*
X123590D01*
X136500Y41700D01*
X92278Y156972D02*
X100076D01*
X92250Y157000D02*
X92278Y156972D01*
X92250Y147000D02*
X102936D01*
X266000Y143800D02*
X288800D01*
X289000Y144000D01*
X288800Y114200D02*
X289000Y114000D01*
X266000Y114200D02*
X288800D01*
X36701Y98000D02*
X74720D01*
X77470Y95250D01*
X76289Y101040D02*
X80518Y96811D01*
X77548Y104080D02*
X83566Y98062D01*
X21960Y117040D02*
X37960Y101040D01*
X76289D01*
X39219Y104080D02*
X77548D01*
X25000Y118299D02*
X39219Y104080D01*
X18920Y115781D02*
X36701Y98000D01*
X21960Y117040D02*
Y132040D01*
X16490Y144510D02*
X25000Y136000D01*
X17000Y137000D02*
X21960Y132040D01*
X25000Y118299D02*
Y136000D01*
X9750Y127000D02*
X17000D01*
X18920Y125080D01*
Y115781D02*
Y125080D01*
X9750Y147000D02*
X12240Y144510D01*
X16490D01*
X9750Y137000D02*
X17000D01*
X25080Y68338D02*
Y103939D01*
X16239Y112780D02*
X25080Y103939D01*
X176040Y32960D02*
Y46751D01*
Y32960D02*
X181000Y28000D01*
X224000D01*
X173000Y31701D02*
X179741Y24960D01*
X173000Y31701D02*
Y36701D01*
X179741Y24960D02*
X184182D01*
X246760D01*
X237700Y41700D02*
X238100D01*
X224000Y28000D02*
X237700Y41700D01*
X246760Y24960D02*
X263500Y41700D01*
X16220Y112780D02*
X16239D01*
X9750Y117000D02*
X12000D01*
X16220Y112780D01*
X22040Y67079D02*
Y96979D01*
X9750Y107000D02*
X12000D01*
X16220Y102780D01*
X16239D01*
X22040Y96979D01*
X9750Y97000D02*
X17000D01*
X19000Y95000D01*
Y65820D02*
Y95000D01*
X9750Y70250D02*
Y87000D01*
D41*
X216500Y121500D02*
X218000Y123000D01*
X228000D01*
X240478Y154686D02*
X243792Y158000D01*
X280000D02*
X283000Y155000D01*
X243792Y158000D02*
X280000D01*
X228000Y154686D02*
X240478D01*
X117094D02*
X228000D01*
Y141000D02*
Y154686D01*
X283000Y155000D02*
X304486D01*
X357632Y101854D01*
X112100Y166000D02*
Y178000D01*
Y159680D02*
X117094Y154686D01*
X112100Y159680D02*
Y166000D01*
X111600Y166500D02*
X112100Y166000D01*
X92250Y167000D02*
X92750Y166500D01*
X111600D01*
X92250Y177000D02*
X92750Y177500D01*
X111600D01*
X112100Y178000D01*
X368204Y101854D02*
X368650Y102300D01*
X357632Y101854D02*
X368204D01*
D42*
X364840Y64200D02*
D03*
X385160D02*
D03*
X375000Y115000D02*
D03*
D43*
X161900Y41700D02*
D03*
X187300D02*
D03*
X212700D02*
D03*
X263500D02*
D03*
X238100D02*
D03*
X136500D02*
D03*
X111100D02*
D03*
D44*
X288900D02*
D03*
D45*
X375000Y25000D02*
D03*
X25000D02*
D03*
D46*
X181000Y66000D02*
D03*
X392000Y77000D02*
D03*
Y137000D02*
D03*
Y152000D02*
D03*
Y167000D02*
D03*
Y182000D02*
D03*
Y197000D02*
D03*
Y212000D02*
D03*
X353000Y8000D02*
D03*
Y19000D02*
D03*
X308000Y8000D02*
D03*
X293000D02*
D03*
X278000D02*
D03*
X263000D02*
D03*
X248000D02*
D03*
X233000D02*
D03*
X218000D02*
D03*
X203000D02*
D03*
X308000Y19000D02*
D03*
X293000D02*
D03*
X278000D02*
D03*
X263000D02*
D03*
X248000D02*
D03*
X233000D02*
D03*
X218000D02*
D03*
X203000D02*
D03*
X188000Y8000D02*
D03*
X173000D02*
D03*
X158000D02*
D03*
X143000D02*
D03*
X128000D02*
D03*
X113000D02*
D03*
X98000D02*
D03*
X83000D02*
D03*
X68000D02*
D03*
X53000D02*
D03*
X188000Y19000D02*
D03*
X173000D02*
D03*
X158000D02*
D03*
X143000D02*
D03*
X128000D02*
D03*
X113000D02*
D03*
X98000D02*
D03*
X83000D02*
D03*
X68000D02*
D03*
X53000D02*
D03*
X81000Y109000D02*
D03*
X79000Y149000D02*
D03*
Y126000D02*
D03*
X68000Y116000D02*
D03*
X36000Y117000D02*
D03*
X34000Y137000D02*
D03*
X288000Y130000D02*
D03*
X263000Y80000D02*
D03*
X248000D02*
D03*
X233000D02*
D03*
X218000D02*
D03*
X203000D02*
D03*
X188000D02*
D03*
X173000D02*
D03*
X158000D02*
D03*
X143000D02*
D03*
X128000D02*
D03*
X116000Y92000D02*
D03*
X130000Y107000D02*
D03*
X104000Y80000D02*
D03*
X105000Y98000D02*
D03*
X107000Y131000D02*
D03*
X134000Y124000D02*
D03*
X150000D02*
D03*
X160500Y128500D02*
D03*
X152000Y141000D02*
D03*
X383000Y212000D02*
D03*
Y197000D02*
D03*
Y182000D02*
D03*
Y167000D02*
D03*
Y152000D02*
D03*
Y47000D02*
D03*
X368000Y212000D02*
D03*
Y197000D02*
D03*
Y182000D02*
D03*
Y167000D02*
D03*
Y152000D02*
D03*
Y122000D02*
D03*
Y47000D02*
D03*
X353000Y212000D02*
D03*
Y197000D02*
D03*
Y182000D02*
D03*
Y167000D02*
D03*
Y152000D02*
D03*
Y122000D02*
D03*
Y62000D02*
D03*
Y47000D02*
D03*
Y32000D02*
D03*
X338000Y212000D02*
D03*
Y197000D02*
D03*
Y182000D02*
D03*
Y167000D02*
D03*
Y152000D02*
D03*
Y107000D02*
D03*
Y92000D02*
D03*
Y62000D02*
D03*
Y47000D02*
D03*
Y32000D02*
D03*
X323000Y212000D02*
D03*
Y197000D02*
D03*
Y182000D02*
D03*
Y167000D02*
D03*
Y152000D02*
D03*
Y122000D02*
D03*
Y107000D02*
D03*
Y92000D02*
D03*
Y47000D02*
D03*
Y32000D02*
D03*
X308000Y212000D02*
D03*
Y197000D02*
D03*
Y182000D02*
D03*
Y167000D02*
D03*
Y122000D02*
D03*
Y107000D02*
D03*
Y92000D02*
D03*
Y62000D02*
D03*
Y32000D02*
D03*
X293000Y212000D02*
D03*
Y197000D02*
D03*
Y167000D02*
D03*
Y92000D02*
D03*
Y62000D02*
D03*
X278000Y212000D02*
D03*
Y197000D02*
D03*
Y167000D02*
D03*
Y92000D02*
D03*
Y62000D02*
D03*
X263000Y212000D02*
D03*
Y197000D02*
D03*
Y182000D02*
D03*
Y167000D02*
D03*
Y122000D02*
D03*
Y92000D02*
D03*
Y62000D02*
D03*
X248000Y212000D02*
D03*
Y197000D02*
D03*
Y182000D02*
D03*
Y167000D02*
D03*
Y137000D02*
D03*
Y107000D02*
D03*
Y92000D02*
D03*
Y62000D02*
D03*
X233000Y212000D02*
D03*
Y197000D02*
D03*
Y182000D02*
D03*
Y167000D02*
D03*
Y107000D02*
D03*
Y92000D02*
D03*
Y62000D02*
D03*
X218000Y212000D02*
D03*
Y197000D02*
D03*
Y182000D02*
D03*
Y167000D02*
D03*
Y107000D02*
D03*
Y92000D02*
D03*
Y62000D02*
D03*
X203000Y212000D02*
D03*
Y197000D02*
D03*
Y182000D02*
D03*
Y167000D02*
D03*
Y107000D02*
D03*
Y92000D02*
D03*
Y62000D02*
D03*
X188000Y212000D02*
D03*
Y197000D02*
D03*
Y182000D02*
D03*
Y167000D02*
D03*
Y107000D02*
D03*
Y92000D02*
D03*
X173000Y212000D02*
D03*
Y197000D02*
D03*
Y182000D02*
D03*
Y167000D02*
D03*
Y107000D02*
D03*
Y92000D02*
D03*
X158000Y212000D02*
D03*
Y197000D02*
D03*
Y182000D02*
D03*
Y167000D02*
D03*
Y107000D02*
D03*
Y92000D02*
D03*
X143000Y212000D02*
D03*
Y197000D02*
D03*
Y182000D02*
D03*
Y167000D02*
D03*
Y107000D02*
D03*
Y92000D02*
D03*
X128000Y212000D02*
D03*
Y197000D02*
D03*
Y92000D02*
D03*
Y32000D02*
D03*
X113000Y212000D02*
D03*
Y197000D02*
D03*
Y107000D02*
D03*
X98000Y212000D02*
D03*
Y197000D02*
D03*
Y47000D02*
D03*
Y32000D02*
D03*
X83000Y212000D02*
D03*
Y197000D02*
D03*
Y47000D02*
D03*
Y32000D02*
D03*
X68000Y212000D02*
D03*
Y197000D02*
D03*
Y137000D02*
D03*
Y77000D02*
D03*
Y47000D02*
D03*
Y32000D02*
D03*
X53000Y212000D02*
D03*
Y197000D02*
D03*
Y77000D02*
D03*
Y47000D02*
D03*
Y32000D02*
D03*
X38000Y212000D02*
D03*
Y197000D02*
D03*
Y77000D02*
D03*
Y47000D02*
D03*
X23000Y212000D02*
D03*
Y197000D02*
D03*
Y182000D02*
D03*
Y167000D02*
D03*
Y152000D02*
D03*
Y47000D02*
D03*
X8000Y212000D02*
D03*
Y197000D02*
D03*
Y62000D02*
D03*
Y47000D02*
D03*
X228000Y123000D02*
D03*
Y141000D02*
D03*
X266000Y136000D02*
D03*
X357632Y101854D02*
D03*
X258064Y114046D02*
D03*
X105123Y106967D02*
D03*
X105156Y117094D02*
D03*
X76962Y163322D02*
D03*
X387350Y108966D02*
D03*
X393192Y89662D02*
D03*
X34544Y163830D02*
D03*
M02*
