G04*
G04 #@! TF.GenerationSoftware,Altium Limited,Altium Designer,21.6.4 (81)*
G04*
G04 Layer_Color=128*
%FSLAX44Y44*%
%MOMM*%
G71*
G04*
G04 #@! TF.SameCoordinates,EAB3D259-4ACE-4868-9577-5A2B5B6BA7EE*
G04*
G04*
G04 #@! TF.FilePolarity,Positive*
G04*
G01*
G75*
%ADD49C,0.0508*%
D49*
X359865Y64200D02*
X369815D01*
X364840Y59225D02*
Y69175D01*
X380185Y64200D02*
X390135D01*
X385160Y59225D02*
Y69175D01*
X370025Y115000D02*
X379975D01*
X375000Y110025D02*
Y119975D01*
X156400Y41700D02*
X167400D01*
X161900Y36200D02*
Y47200D01*
X181800Y41700D02*
X192800D01*
X187300Y36200D02*
Y47200D01*
X207200Y41700D02*
X218200D01*
X212700Y36200D02*
Y47200D01*
X258000Y41700D02*
X269000D01*
X263500Y36200D02*
Y47200D01*
X283400Y41700D02*
X294400D01*
X288900Y36200D02*
Y47200D01*
X232600Y41700D02*
X243600D01*
X238100Y36200D02*
Y47200D01*
X131000Y41700D02*
X142000D01*
X136500Y36200D02*
Y47200D01*
X105600Y41700D02*
X116600D01*
X111100Y36200D02*
Y47200D01*
X366000Y25000D02*
X384000D01*
X375000Y16000D02*
Y34000D01*
X16000Y25000D02*
X34000D01*
X25000Y16000D02*
Y34000D01*
X179500Y66000D02*
X182500D01*
X181000Y64500D02*
Y67500D01*
X390500Y77000D02*
X393500D01*
X392000Y75500D02*
Y78500D01*
X390500Y137000D02*
X393500D01*
X392000Y135500D02*
Y138500D01*
X390500Y152000D02*
X393500D01*
X392000Y150500D02*
Y153500D01*
X390500Y167000D02*
X393500D01*
X392000Y165500D02*
Y168500D01*
X390500Y182000D02*
X393500D01*
X392000Y180500D02*
Y183500D01*
X390500Y197000D02*
X393500D01*
X392000Y195500D02*
Y198500D01*
X390500Y212000D02*
X393500D01*
X392000Y210500D02*
Y213500D01*
X351500Y8000D02*
X354500D01*
X353000Y6500D02*
Y9500D01*
X351500Y19000D02*
X354500D01*
X353000Y17500D02*
Y20500D01*
X306500Y8000D02*
X309500D01*
X308000Y6500D02*
Y9500D01*
X291500Y8000D02*
X294500D01*
X293000Y6500D02*
Y9500D01*
X276500Y8000D02*
X279500D01*
X278000Y6500D02*
Y9500D01*
X261500Y8000D02*
X264500D01*
X263000Y6500D02*
Y9500D01*
X246500Y8000D02*
X249500D01*
X248000Y6500D02*
Y9500D01*
X231500Y8000D02*
X234500D01*
X233000Y6500D02*
Y9500D01*
X216500Y8000D02*
X219500D01*
X218000Y6500D02*
Y9500D01*
X201500Y8000D02*
X204500D01*
X203000Y6500D02*
Y9500D01*
X306500Y19000D02*
X309500D01*
X308000Y17500D02*
Y20500D01*
X291500Y19000D02*
X294500D01*
X293000Y17500D02*
Y20500D01*
X276500Y19000D02*
X279500D01*
X278000Y17500D02*
Y20500D01*
X261500Y19000D02*
X264500D01*
X263000Y17500D02*
Y20500D01*
X246500Y19000D02*
X249500D01*
X248000Y17500D02*
Y20500D01*
X231500Y19000D02*
X234500D01*
X233000Y17500D02*
Y20500D01*
X216500Y19000D02*
X219500D01*
X218000Y17500D02*
Y20500D01*
X201500Y19000D02*
X204500D01*
X203000Y17500D02*
Y20500D01*
X186500Y8000D02*
X189500D01*
X188000Y6500D02*
Y9500D01*
X171500Y8000D02*
X174500D01*
X173000Y6500D02*
Y9500D01*
X156500Y8000D02*
X159500D01*
X158000Y6500D02*
Y9500D01*
X141500Y8000D02*
X144500D01*
X143000Y6500D02*
Y9500D01*
X126500Y8000D02*
X129500D01*
X128000Y6500D02*
Y9500D01*
X111500Y8000D02*
X114500D01*
X113000Y6500D02*
Y9500D01*
X96500Y8000D02*
X99500D01*
X98000Y6500D02*
Y9500D01*
X81500Y8000D02*
X84500D01*
X83000Y6500D02*
Y9500D01*
X66500Y8000D02*
X69500D01*
X68000Y6500D02*
Y9500D01*
X51500Y8000D02*
X54500D01*
X53000Y6500D02*
Y9500D01*
X186500Y19000D02*
X189500D01*
X188000Y17500D02*
Y20500D01*
X171500Y19000D02*
X174500D01*
X173000Y17500D02*
Y20500D01*
X156500Y19000D02*
X159500D01*
X158000Y17500D02*
Y20500D01*
X141500Y19000D02*
X144500D01*
X143000Y17500D02*
Y20500D01*
X126500Y19000D02*
X129500D01*
X128000Y17500D02*
Y20500D01*
X111500Y19000D02*
X114500D01*
X113000Y17500D02*
Y20500D01*
X96500Y19000D02*
X99500D01*
X98000Y17500D02*
Y20500D01*
X81500Y19000D02*
X84500D01*
X83000Y17500D02*
Y20500D01*
X66500Y19000D02*
X69500D01*
X68000Y17500D02*
Y20500D01*
X51500Y19000D02*
X54500D01*
X53000Y17500D02*
Y20500D01*
X79500Y109000D02*
X82500D01*
X81000Y107500D02*
Y110500D01*
X77500Y149000D02*
X80500D01*
X79000Y147500D02*
Y150500D01*
X77500Y126000D02*
X80500D01*
X79000Y124500D02*
Y127500D01*
X66500Y116000D02*
X69500D01*
X68000Y114500D02*
Y117500D01*
X34500Y117000D02*
X37500D01*
X36000Y115500D02*
Y118500D01*
X32500Y137000D02*
X35500D01*
X34000Y135500D02*
Y138500D01*
X286500Y130000D02*
X289500D01*
X288000Y128500D02*
Y131500D01*
X261500Y80000D02*
X264500D01*
X263000Y78500D02*
Y81500D01*
X246500Y80000D02*
X249500D01*
X248000Y78500D02*
Y81500D01*
X231500Y80000D02*
X234500D01*
X233000Y78500D02*
Y81500D01*
X216500Y80000D02*
X219500D01*
X218000Y78500D02*
Y81500D01*
X201500Y80000D02*
X204500D01*
X203000Y78500D02*
Y81500D01*
X186500Y80000D02*
X189500D01*
X188000Y78500D02*
Y81500D01*
X171500Y80000D02*
X174500D01*
X173000Y78500D02*
Y81500D01*
X156500Y80000D02*
X159500D01*
X158000Y78500D02*
Y81500D01*
X141500Y80000D02*
X144500D01*
X143000Y78500D02*
Y81500D01*
X126500Y80000D02*
X129500D01*
X128000Y78500D02*
Y81500D01*
X114500Y92000D02*
X117500D01*
X116000Y90500D02*
Y93500D01*
X128500Y107000D02*
X131500D01*
X130000Y105500D02*
Y108500D01*
X102500Y80000D02*
X105500D01*
X104000Y78500D02*
Y81500D01*
X103500Y98000D02*
X106500D01*
X105000Y96500D02*
Y99500D01*
X105500Y131000D02*
X108500D01*
X107000Y129500D02*
Y132500D01*
X132500Y124000D02*
X135500D01*
X134000Y122500D02*
Y125500D01*
X148500Y124000D02*
X151500D01*
X150000Y122500D02*
Y125500D01*
X159000Y128500D02*
X162000D01*
X160500Y127000D02*
Y130000D01*
X150500Y141000D02*
X153500D01*
X152000Y139500D02*
Y142500D01*
X381500Y212000D02*
X384500D01*
X383000Y210500D02*
Y213500D01*
X381500Y197000D02*
X384500D01*
X383000Y195500D02*
Y198500D01*
X381500Y182000D02*
X384500D01*
X383000Y180500D02*
Y183500D01*
X381500Y167000D02*
X384500D01*
X383000Y165500D02*
Y168500D01*
X381500Y152000D02*
X384500D01*
X383000Y150500D02*
Y153500D01*
X381500Y47000D02*
X384500D01*
X383000Y45500D02*
Y48500D01*
X366500Y212000D02*
X369500D01*
X368000Y210500D02*
Y213500D01*
X366500Y197000D02*
X369500D01*
X368000Y195500D02*
Y198500D01*
X366500Y182000D02*
X369500D01*
X368000Y180500D02*
Y183500D01*
X366500Y167000D02*
X369500D01*
X368000Y165500D02*
Y168500D01*
X366500Y152000D02*
X369500D01*
X368000Y150500D02*
Y153500D01*
X366500Y122000D02*
X369500D01*
X368000Y120500D02*
Y123500D01*
X366500Y47000D02*
X369500D01*
X368000Y45500D02*
Y48500D01*
X351500Y212000D02*
X354500D01*
X353000Y210500D02*
Y213500D01*
X351500Y197000D02*
X354500D01*
X353000Y195500D02*
Y198500D01*
X351500Y182000D02*
X354500D01*
X353000Y180500D02*
Y183500D01*
X351500Y167000D02*
X354500D01*
X353000Y165500D02*
Y168500D01*
X351500Y152000D02*
X354500D01*
X353000Y150500D02*
Y153500D01*
X351500Y122000D02*
X354500D01*
X353000Y120500D02*
Y123500D01*
X351500Y62000D02*
X354500D01*
X353000Y60500D02*
Y63500D01*
X351500Y47000D02*
X354500D01*
X353000Y45500D02*
Y48500D01*
X351500Y32000D02*
X354500D01*
X353000Y30500D02*
Y33500D01*
X336500Y212000D02*
X339500D01*
X338000Y210500D02*
Y213500D01*
X336500Y197000D02*
X339500D01*
X338000Y195500D02*
Y198500D01*
X336500Y182000D02*
X339500D01*
X338000Y180500D02*
Y183500D01*
X336500Y167000D02*
X339500D01*
X338000Y165500D02*
Y168500D01*
X336500Y152000D02*
X339500D01*
X338000Y150500D02*
Y153500D01*
X336500Y107000D02*
X339500D01*
X338000Y105500D02*
Y108500D01*
X336500Y92000D02*
X339500D01*
X338000Y90500D02*
Y93500D01*
X336500Y62000D02*
X339500D01*
X338000Y60500D02*
Y63500D01*
X336500Y47000D02*
X339500D01*
X338000Y45500D02*
Y48500D01*
X336500Y32000D02*
X339500D01*
X338000Y30500D02*
Y33500D01*
X321500Y212000D02*
X324500D01*
X323000Y210500D02*
Y213500D01*
X321500Y197000D02*
X324500D01*
X323000Y195500D02*
Y198500D01*
X321500Y182000D02*
X324500D01*
X323000Y180500D02*
Y183500D01*
X321500Y167000D02*
X324500D01*
X323000Y165500D02*
Y168500D01*
X321500Y152000D02*
X324500D01*
X323000Y150500D02*
Y153500D01*
X321500Y122000D02*
X324500D01*
X323000Y120500D02*
Y123500D01*
X321500Y107000D02*
X324500D01*
X323000Y105500D02*
Y108500D01*
X321500Y92000D02*
X324500D01*
X323000Y90500D02*
Y93500D01*
X321500Y47000D02*
X324500D01*
X323000Y45500D02*
Y48500D01*
X321500Y32000D02*
X324500D01*
X323000Y30500D02*
Y33500D01*
X306500Y212000D02*
X309500D01*
X308000Y210500D02*
Y213500D01*
X306500Y197000D02*
X309500D01*
X308000Y195500D02*
Y198500D01*
X306500Y182000D02*
X309500D01*
X308000Y180500D02*
Y183500D01*
X306500Y167000D02*
X309500D01*
X308000Y165500D02*
Y168500D01*
X306500Y122000D02*
X309500D01*
X308000Y120500D02*
Y123500D01*
X306500Y107000D02*
X309500D01*
X308000Y105500D02*
Y108500D01*
X306500Y92000D02*
X309500D01*
X308000Y90500D02*
Y93500D01*
X306500Y62000D02*
X309500D01*
X308000Y60500D02*
Y63500D01*
X306500Y32000D02*
X309500D01*
X308000Y30500D02*
Y33500D01*
X291500Y212000D02*
X294500D01*
X293000Y210500D02*
Y213500D01*
X291500Y197000D02*
X294500D01*
X293000Y195500D02*
Y198500D01*
X291500Y167000D02*
X294500D01*
X293000Y165500D02*
Y168500D01*
X291500Y92000D02*
X294500D01*
X293000Y90500D02*
Y93500D01*
X291500Y62000D02*
X294500D01*
X293000Y60500D02*
Y63500D01*
X276500Y212000D02*
X279500D01*
X278000Y210500D02*
Y213500D01*
X276500Y197000D02*
X279500D01*
X278000Y195500D02*
Y198500D01*
X276500Y167000D02*
X279500D01*
X278000Y165500D02*
Y168500D01*
X276500Y92000D02*
X279500D01*
X278000Y90500D02*
Y93500D01*
X276500Y62000D02*
X279500D01*
X278000Y60500D02*
Y63500D01*
X261500Y212000D02*
X264500D01*
X263000Y210500D02*
Y213500D01*
X261500Y197000D02*
X264500D01*
X263000Y195500D02*
Y198500D01*
X261500Y182000D02*
X264500D01*
X263000Y180500D02*
Y183500D01*
X261500Y167000D02*
X264500D01*
X263000Y165500D02*
Y168500D01*
X261500Y122000D02*
X264500D01*
X263000Y120500D02*
Y123500D01*
X261500Y92000D02*
X264500D01*
X263000Y90500D02*
Y93500D01*
X261500Y62000D02*
X264500D01*
X263000Y60500D02*
Y63500D01*
X246500Y212000D02*
X249500D01*
X248000Y210500D02*
Y213500D01*
X246500Y197000D02*
X249500D01*
X248000Y195500D02*
Y198500D01*
X246500Y182000D02*
X249500D01*
X248000Y180500D02*
Y183500D01*
X246500Y167000D02*
X249500D01*
X248000Y165500D02*
Y168500D01*
X246500Y137000D02*
X249500D01*
X248000Y135500D02*
Y138500D01*
X246500Y107000D02*
X249500D01*
X248000Y105500D02*
Y108500D01*
X246500Y92000D02*
X249500D01*
X248000Y90500D02*
Y93500D01*
X246500Y62000D02*
X249500D01*
X248000Y60500D02*
Y63500D01*
X231500Y212000D02*
X234500D01*
X233000Y210500D02*
Y213500D01*
X231500Y197000D02*
X234500D01*
X233000Y195500D02*
Y198500D01*
X231500Y182000D02*
X234500D01*
X233000Y180500D02*
Y183500D01*
X231500Y167000D02*
X234500D01*
X233000Y165500D02*
Y168500D01*
X231500Y107000D02*
X234500D01*
X233000Y105500D02*
Y108500D01*
X231500Y92000D02*
X234500D01*
X233000Y90500D02*
Y93500D01*
X231500Y62000D02*
X234500D01*
X233000Y60500D02*
Y63500D01*
X216500Y212000D02*
X219500D01*
X218000Y210500D02*
Y213500D01*
X216500Y197000D02*
X219500D01*
X218000Y195500D02*
Y198500D01*
X216500Y182000D02*
X219500D01*
X218000Y180500D02*
Y183500D01*
X216500Y167000D02*
X219500D01*
X218000Y165500D02*
Y168500D01*
X216500Y107000D02*
X219500D01*
X218000Y105500D02*
Y108500D01*
X216500Y92000D02*
X219500D01*
X218000Y90500D02*
Y93500D01*
X216500Y62000D02*
X219500D01*
X218000Y60500D02*
Y63500D01*
X201500Y212000D02*
X204500D01*
X203000Y210500D02*
Y213500D01*
X201500Y197000D02*
X204500D01*
X203000Y195500D02*
Y198500D01*
X201500Y182000D02*
X204500D01*
X203000Y180500D02*
Y183500D01*
X201500Y167000D02*
X204500D01*
X203000Y165500D02*
Y168500D01*
X201500Y107000D02*
X204500D01*
X203000Y105500D02*
Y108500D01*
X201500Y92000D02*
X204500D01*
X203000Y90500D02*
Y93500D01*
X201500Y62000D02*
X204500D01*
X203000Y60500D02*
Y63500D01*
X186500Y212000D02*
X189500D01*
X188000Y210500D02*
Y213500D01*
X186500Y197000D02*
X189500D01*
X188000Y195500D02*
Y198500D01*
X186500Y182000D02*
X189500D01*
X188000Y180500D02*
Y183500D01*
X186500Y167000D02*
X189500D01*
X188000Y165500D02*
Y168500D01*
X186500Y107000D02*
X189500D01*
X188000Y105500D02*
Y108500D01*
X186500Y92000D02*
X189500D01*
X188000Y90500D02*
Y93500D01*
X171500Y212000D02*
X174500D01*
X173000Y210500D02*
Y213500D01*
X171500Y197000D02*
X174500D01*
X173000Y195500D02*
Y198500D01*
X171500Y182000D02*
X174500D01*
X173000Y180500D02*
Y183500D01*
X171500Y167000D02*
X174500D01*
X173000Y165500D02*
Y168500D01*
X171500Y107000D02*
X174500D01*
X173000Y105500D02*
Y108500D01*
X171500Y92000D02*
X174500D01*
X173000Y90500D02*
Y93500D01*
X156500Y212000D02*
X159500D01*
X158000Y210500D02*
Y213500D01*
X156500Y197000D02*
X159500D01*
X158000Y195500D02*
Y198500D01*
X156500Y182000D02*
X159500D01*
X158000Y180500D02*
Y183500D01*
X156500Y167000D02*
X159500D01*
X158000Y165500D02*
Y168500D01*
X156500Y107000D02*
X159500D01*
X158000Y105500D02*
Y108500D01*
X156500Y92000D02*
X159500D01*
X158000Y90500D02*
Y93500D01*
X141500Y212000D02*
X144500D01*
X143000Y210500D02*
Y213500D01*
X141500Y197000D02*
X144500D01*
X143000Y195500D02*
Y198500D01*
X141500Y182000D02*
X144500D01*
X143000Y180500D02*
Y183500D01*
X141500Y167000D02*
X144500D01*
X143000Y165500D02*
Y168500D01*
X141500Y107000D02*
X144500D01*
X143000Y105500D02*
Y108500D01*
X141500Y92000D02*
X144500D01*
X143000Y90500D02*
Y93500D01*
X126500Y212000D02*
X129500D01*
X128000Y210500D02*
Y213500D01*
X126500Y197000D02*
X129500D01*
X128000Y195500D02*
Y198500D01*
X126500Y92000D02*
X129500D01*
X128000Y90500D02*
Y93500D01*
X126500Y32000D02*
X129500D01*
X128000Y30500D02*
Y33500D01*
X111500Y212000D02*
X114500D01*
X113000Y210500D02*
Y213500D01*
X111500Y197000D02*
X114500D01*
X113000Y195500D02*
Y198500D01*
X111500Y107000D02*
X114500D01*
X113000Y105500D02*
Y108500D01*
X96500Y212000D02*
X99500D01*
X98000Y210500D02*
Y213500D01*
X96500Y197000D02*
X99500D01*
X98000Y195500D02*
Y198500D01*
X96500Y47000D02*
X99500D01*
X98000Y45500D02*
Y48500D01*
X96500Y32000D02*
X99500D01*
X98000Y30500D02*
Y33500D01*
X81500Y212000D02*
X84500D01*
X83000Y210500D02*
Y213500D01*
X81500Y197000D02*
X84500D01*
X83000Y195500D02*
Y198500D01*
X81500Y47000D02*
X84500D01*
X83000Y45500D02*
Y48500D01*
X81500Y32000D02*
X84500D01*
X83000Y30500D02*
Y33500D01*
X66500Y212000D02*
X69500D01*
X68000Y210500D02*
Y213500D01*
X66500Y197000D02*
X69500D01*
X68000Y195500D02*
Y198500D01*
X66500Y137000D02*
X69500D01*
X68000Y135500D02*
Y138500D01*
X66500Y77000D02*
X69500D01*
X68000Y75500D02*
Y78500D01*
X66500Y47000D02*
X69500D01*
X68000Y45500D02*
Y48500D01*
X66500Y32000D02*
X69500D01*
X68000Y30500D02*
Y33500D01*
X51500Y212000D02*
X54500D01*
X53000Y210500D02*
Y213500D01*
X51500Y197000D02*
X54500D01*
X53000Y195500D02*
Y198500D01*
X51500Y77000D02*
X54500D01*
X53000Y75500D02*
Y78500D01*
X51500Y47000D02*
X54500D01*
X53000Y45500D02*
Y48500D01*
X51500Y32000D02*
X54500D01*
X53000Y30500D02*
Y33500D01*
X36500Y212000D02*
X39500D01*
X38000Y210500D02*
Y213500D01*
X36500Y197000D02*
X39500D01*
X38000Y195500D02*
Y198500D01*
X36500Y77000D02*
X39500D01*
X38000Y75500D02*
Y78500D01*
X36500Y47000D02*
X39500D01*
X38000Y45500D02*
Y48500D01*
X21500Y212000D02*
X24500D01*
X23000Y210500D02*
Y213500D01*
X21500Y197000D02*
X24500D01*
X23000Y195500D02*
Y198500D01*
X21500Y182000D02*
X24500D01*
X23000Y180500D02*
Y183500D01*
X21500Y167000D02*
X24500D01*
X23000Y165500D02*
Y168500D01*
X21500Y152000D02*
X24500D01*
X23000Y150500D02*
Y153500D01*
X21500Y47000D02*
X24500D01*
X23000Y45500D02*
Y48500D01*
X6500Y212000D02*
X9500D01*
X8000Y210500D02*
Y213500D01*
X6500Y197000D02*
X9500D01*
X8000Y195500D02*
Y198500D01*
X6500Y62000D02*
X9500D01*
X8000Y60500D02*
Y63500D01*
X6500Y47000D02*
X9500D01*
X8000Y45500D02*
Y48500D01*
X226500Y123000D02*
X229500D01*
X228000Y121500D02*
Y124500D01*
X226500Y141000D02*
X229500D01*
X228000Y139500D02*
Y142500D01*
X264500Y136000D02*
X267500D01*
X266000Y134500D02*
Y137500D01*
X356132Y101854D02*
X359132D01*
X357632Y100354D02*
Y103354D01*
X256564Y114046D02*
X259564D01*
X258064Y112546D02*
Y115546D01*
X103623Y106967D02*
X106623D01*
X105123Y105467D02*
Y108467D01*
X103656Y117094D02*
X106656D01*
X105156Y115594D02*
Y118594D01*
X75462Y163322D02*
X78462D01*
X76962Y161822D02*
Y164822D01*
X385850Y108966D02*
X388850D01*
X387350Y107466D02*
Y110466D01*
X391692Y89662D02*
X394692D01*
X393192Y88162D02*
Y91162D01*
X33044Y163830D02*
X36044D01*
X34544Y162330D02*
Y165330D01*
M02*
