M48
;Layer_Color=9474304
;FILE_FORMAT=4:4
METRIC,LZ
;TYPE=PLATED
T1F00S00C0.3000
T2F00S00C1.1000
T3F00S00C1.8000
;TYPE=NON_PLATED
T4F00S00C0.9950
%
T01
X000178Y00177
X00022Y00204
Y00215
X00008
Y00204
X0003Y00202
X0004
X0005
X0006
X0007
X0008Y00205
X00091Y00202
X00101
X00115Y00206
X00123
X00132Y00202
X00142
X00152Y0018
X00162
X00182
X00192
X00127Y00175
X00101Y0018
X00091
X00101Y00162
X00085Y00155
X00043Y00163
X00144Y00155
Y00147
X00097Y00084
X0009725Y000725
X00083Y00227
Y00242
X00068
Y00227
X00053
Y00242
X00038
X0002875Y0026675
X00039Y00294
X00038Y00317
X0003775Y0033625
X000375Y00345
X0004725Y0034475
X000675
X000775Y00345
X00062Y00337
X00071Y00317
X00072Y00294
X000855Y0026675
X001095Y00276
Y00286
X00113Y00257
Y00242
X00128
Y00227
X00113
X00158Y00257
X00149Y00268
X00203Y00272
X00212Y00272
Y00257
Y00287
X00203Y00287
Y00302
X00212Y00302
Y00317
X00203Y00317
Y00332
X00212Y00332
Y00347
X00203Y00347
Y00362
X00212Y00362
Y00377
X00203
Y00392
X00212
X00188
Y00377
Y00362
Y00347
Y00332
Y00317
Y00302
Y00287
X00173Y00302
Y00317
Y00332
Y00347
Y00362
Y00377
Y00392
X00158
Y00377
Y00362
Y00347
Y00332
Y00317
X00143Y00332
Y00347
Y00362
Y00377
Y00392
X00128
Y00377
X00113
Y00392
X00098
Y00377
X00083
Y00392
X00068
Y00377
X0006725Y00366
X0004725
X00053Y00377
Y00392
X00038
Y00377
X00023
Y00392
X00008
Y00377
X0000725Y00326
X00007Y00316
X0000725Y0030625
Y00296
Y00286
X00008Y00227
T02
X000211Y000422
X000465
X000719
X000973
X001227
X001481
X001735
X001989
T03
X00035Y001
X00185
T04
X000846Y001
X001354Y0011016
Y0008984
M30
