M48
;Layer_Color=9474304
;FILE_FORMAT=4:4
METRIC,LZ
;TYPE=PLATED
T1F00S00C0.3000
T2F00S00C1.1000
T3F00S00C1.8000
;TYPE=NON_PLATED
T4F00S00C0.9950
%
T01
X00008Y00047
Y00062
Y00077
Y00092
Y00107
Y00122
X00018796Y00146558
X00008Y00167
Y00182
Y00197
Y00212
X00023
X00038
X00053
X00068
X00083
X00098
X00113
X00128
X00143
Y00197
Y00182
X00143Y00169
X00128
X00128Y00182
Y00197
X00113
Y00182
X00113Y00169
X00098
X00098Y00182
Y00197
X00083
Y00182
X00083Y00169
X00068Y00167
Y00182
Y00197
X00053
Y00182
Y00167
Y00152
X00048Y00136
X000477Y001236
X00068Y00122
X00083
X00098
X00113
X0011176Y00112268
X00128Y00107
Y00122
Y00137
X00143
X00113
X00098
X00083
Y00092
X00098
X00113
Y00077
X00128
Y00062
X00113
X00098
Y00077
Y00047
X00097624Y00020222
X00098Y00008
X00113
X00128
X00143
X00158
X00173
X00188
X00203
X00218
X00233
X00248
X00263
X00278
X00277624Y00020222
X00292624
X00293Y00008
X00308
X00307624Y00020222
X00308Y00032
X00323
X00338
X00353
X00353Y0002
Y00008
X00353Y00047
X00368
X00383
Y00062
Y00077
Y00092
Y00107
Y00122
Y00137
Y00152
Y00167
Y00182
Y00197
Y00212
X00368
Y00197
Y00182
X00353
Y00197
Y00212
X00338
Y00197
Y00182
X00323
Y00197
Y00212
X00308
Y00197
Y00182
Y00167
X00293
Y00182
Y00197
Y00212
X00278
Y00197
Y00182
Y00167
X00298Y00154
X0031Y0015
X00321Y00159
X00323Y00122
X00338
X00353
X00368
Y00092
X00353
X00338
Y00077
Y00062
X00353
X00368
X00338Y00047
X00323
Y00062
Y00077
Y00092
X00312Y00092
X00287
Y00107
Y00122
X00253943Y00127057
X00266Y00102
X00229Y00088
X00217Y00115
X00218Y00137
X00217Y00164
X0021Y00166
X0019
X00183Y00163
Y00137
Y00115
X00171Y00088
X00149Y0008
X00156Y00067
X00128Y00032
X00083
X00082624Y00020222
X00083Y00008
X00068
X00067624Y00020222
X00068Y00032
Y00047
Y00062
Y00077
X00053
Y00092
X00068Y00107
X00053Y00062
Y00047
Y00032
X00052624Y00020222
X00053Y00008
X00038Y00047
Y00062
Y00077
X00023
Y00062
Y00047
Y00167
X00038
Y00182
Y00197
X00023
Y00182
X00156Y00199
X00248Y00197
X00263
Y00212
X00253
X00291Y00073
X00306Y00066
X00308Y00047
X00248Y00032
T02
X001111Y000417
X001365
X001619
X001873
X002127
X002381
X002635
X002889
T03
X00025Y00025
X00375
T04
X0002084Y000982
X0004116
X00031Y00149
M30
