G04*
G04 #@! TF.GenerationSoftware,Altium Limited,Altium Designer,21.6.4 (81)*
G04*
G04 Layer_Color=32768*
%FSLAX44Y44*%
%MOMM*%
G71*
G04*
G04 #@! TF.SameCoordinates,A75552D8-FC29-4B95-B53C-3B512D9A6700*
G04*
G04*
G04 #@! TF.FilePolarity,Positive*
G04*
G01*
G75*
%ADD43C,0.0500*%
%ADD45C,0.1000*%
D43*
X146000Y66000D02*
Y222000D01*
X254000D01*
X200000Y139000D02*
Y149000D01*
X195000Y144000D02*
X205000D01*
X146000Y66000D02*
X254000D01*
Y222000D01*
X210000Y58000D02*
Y64000D01*
X207000Y61000D02*
X213000D01*
X200500Y56000D02*
X219500D01*
X200500Y66000D02*
X219500D01*
Y56000D02*
Y66000D01*
X200500Y56000D02*
Y66000D01*
X157250Y58000D02*
Y64000D01*
X154250Y61000D02*
X160250D01*
X147750Y66000D02*
X166750D01*
X147750Y56000D02*
X166750D01*
X147750D02*
Y66000D01*
X166750Y56000D02*
Y66000D01*
X130500Y81750D02*
Y87750D01*
X127500Y84750D02*
X133500D01*
X121000Y89750D02*
X140000D01*
X121000Y79750D02*
X140000D01*
X121000D02*
Y89750D01*
X140000Y79750D02*
Y89750D01*
X130500Y134000D02*
Y140000D01*
X127500Y137000D02*
X133500D01*
X121000Y142000D02*
X140000D01*
X121000Y132000D02*
X140000D01*
X121000D02*
Y142000D01*
X140000Y132000D02*
Y142000D01*
X292500Y142500D02*
X302500D01*
X297500Y137500D02*
Y147500D01*
X282500Y154500D02*
X312500D01*
Y130500D02*
Y154500D01*
X282500Y130500D02*
X312500D01*
X282500D02*
Y154500D01*
X125750Y131000D02*
X144500D01*
X125750Y91000D02*
X144500D01*
Y131000D01*
X125750Y91000D02*
Y131000D01*
X135000Y106000D02*
Y116000D01*
X130000Y111000D02*
X140000D01*
X315000Y95500D02*
X325000D01*
X320000Y90500D02*
Y100500D01*
X297000Y109500D02*
X343000D01*
Y81750D02*
Y109500D01*
X297000Y81750D02*
X343000D01*
X297000D02*
Y109500D01*
X75000Y95500D02*
X85000D01*
X80000Y90500D02*
Y100500D01*
X57000Y81500D02*
X103000D01*
X57000D02*
Y109250D01*
X103000D01*
Y81500D02*
Y109250D01*
X274500Y145000D02*
Y151000D01*
X271500Y148000D02*
X277500D01*
X266500Y144000D02*
X282500D01*
X266500Y152000D02*
X282500D01*
Y144000D02*
Y152000D01*
X266500Y144000D02*
Y152000D01*
X274500Y134000D02*
Y140000D01*
X271500Y137000D02*
X277500D01*
X266500Y133000D02*
X282500D01*
X266500Y141000D02*
X282500D01*
Y133000D02*
Y141000D01*
X266500Y133000D02*
Y141000D01*
X320500Y145000D02*
Y151000D01*
X317500Y148000D02*
X323500D01*
X312500Y152000D02*
X328500D01*
X312500Y144000D02*
X328500D01*
X312500D02*
Y152000D01*
X328500Y144000D02*
Y152000D01*
X195000Y14000D02*
X205000D01*
X200000Y9000D02*
Y19000D01*
X94900Y51950D02*
X305100D01*
Y-60700D02*
Y51950D01*
X94900Y-60700D02*
X305100D01*
X94900D02*
Y51950D01*
X284500Y99750D02*
X290500D01*
X287250Y96750D02*
Y103000D01*
X291250Y92250D02*
Y106750D01*
X283250Y92250D02*
Y106750D01*
X291250D01*
X283250Y92250D02*
X291250D01*
X107750Y99750D02*
X113750D01*
X110500Y96750D02*
Y103000D01*
X114500Y92250D02*
Y106750D01*
X106500Y92250D02*
Y106750D01*
X114500D01*
X106500Y92250D02*
X114500D01*
D45*
X201000Y154997D02*
Y146666D01*
X202666Y145000D01*
X205998D01*
X207665Y146666D01*
Y154997D01*
X210997Y145000D02*
X214329D01*
X212663D01*
Y154997D01*
X210997Y153331D01*
M02*
