G04*
G04 #@! TF.GenerationSoftware,Altium Limited,Altium Designer,21.6.4 (81)*
G04*
G04 Layer_Color=128*
%FSLAX44Y44*%
%MOMM*%
G71*
G04*
G04 #@! TF.SameCoordinates,A75552D8-FC29-4B95-B53C-3B512D9A6700*
G04*
G04*
G04 #@! TF.FilePolarity,Positive*
G04*
G01*
G75*
%ADD44C,0.0508*%
D44*
X359765Y64550D02*
X369715D01*
X364740Y59575D02*
Y69525D01*
X380085Y64550D02*
X390035D01*
X385060Y59575D02*
Y69525D01*
X369925Y115350D02*
X379875D01*
X374900Y110375D02*
Y120325D01*
X366000Y25000D02*
X384000D01*
X375000Y16000D02*
Y34000D01*
X16000Y25000D02*
X34000D01*
X25000Y16000D02*
Y34000D01*
X156400Y41700D02*
X167400D01*
X161900Y36200D02*
Y47200D01*
X181800Y41700D02*
X192800D01*
X187300Y36200D02*
Y47200D01*
X207200Y41700D02*
X218200D01*
X212700Y36200D02*
Y47200D01*
X258000Y41700D02*
X269000D01*
X263500Y36200D02*
Y47200D01*
X283400Y41700D02*
X294400D01*
X288900Y36200D02*
Y47200D01*
X232600Y41700D02*
X243600D01*
X238100Y36200D02*
Y47200D01*
X131000Y41700D02*
X142000D01*
X136500Y36200D02*
Y47200D01*
X105600Y41700D02*
X116600D01*
X111100Y36200D02*
Y47200D01*
X138500Y66500D02*
X141500D01*
X140000Y65000D02*
Y68000D01*
X123500Y66500D02*
X126500D01*
X125000Y65000D02*
Y68000D01*
X378500Y171500D02*
X381500D01*
X380000Y170000D02*
Y173000D01*
X378500Y141500D02*
X381500D01*
X380000Y140000D02*
Y143000D01*
X378500Y51500D02*
X381500D01*
X380000Y50000D02*
Y53000D01*
X363500Y126500D02*
X366500D01*
X365000Y125000D02*
Y128000D01*
X363500Y111500D02*
X366500D01*
X365000Y110000D02*
Y113000D01*
X363500Y51500D02*
X366500D01*
X365000Y50000D02*
Y53000D01*
X348500Y126500D02*
X351500D01*
X350000Y125000D02*
Y128000D01*
X348500Y111500D02*
X351500D01*
X350000Y110000D02*
Y113000D01*
X348500Y96500D02*
X351500D01*
X350000Y95000D02*
Y98000D01*
X348500Y81500D02*
X351500D01*
X350000Y80000D02*
Y83000D01*
X348500Y66500D02*
X351500D01*
X350000Y65000D02*
Y68000D01*
X348500Y51500D02*
X351500D01*
X350000Y50000D02*
Y53000D01*
X348500Y36500D02*
X351500D01*
X350000Y35000D02*
Y38000D01*
X333500Y126500D02*
X336500D01*
X335000Y125000D02*
Y128000D01*
X333500Y111500D02*
X336500D01*
X335000Y110000D02*
Y113000D01*
X333500Y81500D02*
X336500D01*
X335000Y80000D02*
Y83000D01*
X333500Y66500D02*
X336500D01*
X335000Y65000D02*
Y68000D01*
X333500Y51500D02*
X336500D01*
X335000Y50000D02*
Y53000D01*
X333500Y36500D02*
X336500D01*
X335000Y35000D02*
Y38000D01*
X333500Y21500D02*
X336500D01*
X335000Y20000D02*
Y23000D01*
X318500Y111500D02*
X321500D01*
X320000Y110000D02*
Y113000D01*
X318500Y96500D02*
X321500D01*
X320000Y95000D02*
Y98000D01*
X318500Y81500D02*
X321500D01*
X320000Y80000D02*
Y83000D01*
X318500Y66500D02*
X321500D01*
X320000Y65000D02*
Y68000D01*
X318500Y51500D02*
X321500D01*
X320000Y50000D02*
Y53000D01*
X318500Y36500D02*
X321500D01*
X320000Y35000D02*
Y38000D01*
X318500Y21500D02*
X321500D01*
X320000Y20000D02*
Y23000D01*
X303500Y126500D02*
X306500D01*
X305000Y125000D02*
Y128000D01*
X303500Y111500D02*
X306500D01*
X305000Y110000D02*
Y113000D01*
X303500Y81500D02*
X306500D01*
X305000Y80000D02*
Y83000D01*
X303500Y66500D02*
X306500D01*
X305000Y65000D02*
Y68000D01*
X303500Y51500D02*
X306500D01*
X305000Y50000D02*
Y53000D01*
X303500Y36500D02*
X306500D01*
X305000Y35000D02*
Y38000D01*
X303500Y21500D02*
X306500D01*
X305000Y20000D02*
Y23000D01*
X288500Y126500D02*
X291500D01*
X290000Y125000D02*
Y128000D01*
X288500Y111500D02*
X291500D01*
X290000Y110000D02*
Y113000D01*
X288500Y81500D02*
X291500D01*
X290000Y80000D02*
Y83000D01*
X288500Y66500D02*
X291500D01*
X290000Y65000D02*
Y68000D01*
X288500Y21500D02*
X291500D01*
X290000Y20000D02*
Y23000D01*
X273500Y126500D02*
X276500D01*
X275000Y125000D02*
Y128000D01*
X273500Y111500D02*
X276500D01*
X275000Y110000D02*
Y113000D01*
X273500Y81500D02*
X276500D01*
X275000Y80000D02*
Y83000D01*
X273500Y66500D02*
X276500D01*
X275000Y65000D02*
Y68000D01*
X273500Y51500D02*
X276500D01*
X275000Y50000D02*
Y53000D01*
X273500Y36500D02*
X276500D01*
X275000Y35000D02*
Y38000D01*
X273500Y21500D02*
X276500D01*
X275000Y20000D02*
Y23000D01*
X258500Y171500D02*
X261500D01*
X260000Y170000D02*
Y173000D01*
X258500Y111500D02*
X261500D01*
X260000Y110000D02*
Y113000D01*
X258500Y81500D02*
X261500D01*
X260000Y80000D02*
Y83000D01*
X258500Y66500D02*
X261500D01*
X260000Y65000D02*
Y68000D01*
X258500Y21500D02*
X261500D01*
X260000Y20000D02*
Y23000D01*
X243500Y21500D02*
X246500D01*
X245000Y20000D02*
Y23000D01*
X228500Y51500D02*
X231500D01*
X230000Y50000D02*
Y53000D01*
X228500Y21500D02*
X231500D01*
X230000Y20000D02*
Y23000D01*
X213500Y156500D02*
X216500D01*
X215000Y155000D02*
Y158000D01*
X213500Y141500D02*
X216500D01*
X215000Y140000D02*
Y143000D01*
X213500Y126500D02*
X216500D01*
X215000Y125000D02*
Y128000D01*
X213500Y21500D02*
X216500D01*
X215000Y20000D02*
Y23000D01*
X198500Y171500D02*
X201500D01*
X200000Y170000D02*
Y173000D01*
X198500Y156500D02*
X201500D01*
X200000Y155000D02*
Y158000D01*
X198500Y141500D02*
X201500D01*
X200000Y140000D02*
Y143000D01*
X198500Y126500D02*
X201500D01*
X200000Y125000D02*
Y128000D01*
X198500Y36500D02*
X201500D01*
X200000Y35000D02*
Y38000D01*
X198500Y21500D02*
X201500D01*
X200000Y20000D02*
Y23000D01*
X183500Y156500D02*
X186500D01*
X185000Y155000D02*
Y158000D01*
X183500Y141500D02*
X186500D01*
X185000Y140000D02*
Y143000D01*
X183500Y126500D02*
X186500D01*
X185000Y125000D02*
Y128000D01*
X183500Y21500D02*
X186500D01*
X185000Y20000D02*
Y23000D01*
X168500Y21500D02*
X171500D01*
X170000Y20000D02*
Y23000D01*
X153500Y21500D02*
X156500D01*
X155000Y20000D02*
Y23000D01*
X138500Y171500D02*
X141500D01*
X140000Y170000D02*
Y173000D01*
X138500Y156500D02*
X141500D01*
X140000Y155000D02*
Y158000D01*
X138500Y21500D02*
X141500D01*
X140000Y20000D02*
Y23000D01*
X123500Y171500D02*
X126500D01*
X125000Y170000D02*
Y173000D01*
X123500Y156500D02*
X126500D01*
X125000Y155000D02*
Y158000D01*
X123500Y51500D02*
X126500D01*
X125000Y50000D02*
Y53000D01*
X123500Y36500D02*
X126500D01*
X125000Y35000D02*
Y38000D01*
X123500Y21500D02*
X126500D01*
X125000Y20000D02*
Y23000D01*
X108500Y171500D02*
X111500D01*
X110000Y170000D02*
Y173000D01*
X108500Y156500D02*
X111500D01*
X110000Y155000D02*
Y158000D01*
X108500Y141500D02*
X111500D01*
X110000Y140000D02*
Y143000D01*
X108500Y126500D02*
X111500D01*
X110000Y125000D02*
Y128000D01*
X108500Y111500D02*
X111500D01*
X110000Y110000D02*
Y113000D01*
X108500Y81500D02*
X111500D01*
X110000Y80000D02*
Y83000D01*
X108500Y66500D02*
X111500D01*
X110000Y65000D02*
Y68000D01*
X108500Y21500D02*
X111500D01*
X110000Y20000D02*
Y23000D01*
X93500Y171500D02*
X96500D01*
X95000Y170000D02*
Y173000D01*
X93500Y156500D02*
X96500D01*
X95000Y155000D02*
Y158000D01*
X93500Y141500D02*
X96500D01*
X95000Y140000D02*
Y143000D01*
X93500Y126500D02*
X96500D01*
X95000Y125000D02*
Y128000D01*
X93500Y111500D02*
X96500D01*
X95000Y110000D02*
Y113000D01*
X93500Y81500D02*
X96500D01*
X95000Y80000D02*
Y83000D01*
X93500Y66500D02*
X96500D01*
X95000Y65000D02*
Y68000D01*
X93500Y51500D02*
X96500D01*
X95000Y50000D02*
Y53000D01*
X93500Y36500D02*
X96500D01*
X95000Y35000D02*
Y38000D01*
X93500Y21500D02*
X96500D01*
X95000Y20000D02*
Y23000D01*
X78500Y171500D02*
X81500D01*
X80000Y170000D02*
Y173000D01*
X78500Y156500D02*
X81500D01*
X80000Y155000D02*
Y158000D01*
X78500Y141500D02*
X81500D01*
X80000Y140000D02*
Y143000D01*
X78500Y126500D02*
X81500D01*
X80000Y125000D02*
Y128000D01*
X78500Y111500D02*
X81500D01*
X80000Y110000D02*
Y113000D01*
X78500Y96500D02*
X81500D01*
X80000Y95000D02*
Y98000D01*
X78500Y81500D02*
X81500D01*
X80000Y80000D02*
Y83000D01*
X78500Y66500D02*
X81500D01*
X80000Y65000D02*
Y68000D01*
X78500Y51500D02*
X81500D01*
X80000Y50000D02*
Y53000D01*
X78500Y36500D02*
X81500D01*
X80000Y35000D02*
Y38000D01*
X78500Y21500D02*
X81500D01*
X80000Y20000D02*
Y23000D01*
X63500Y171500D02*
X66500D01*
X65000Y170000D02*
Y173000D01*
X63500Y156500D02*
X66500D01*
X65000Y155000D02*
Y158000D01*
X63500Y141500D02*
X66500D01*
X65000Y140000D02*
Y143000D01*
X63500Y126500D02*
X66500D01*
X65000Y125000D02*
Y128000D01*
X63500Y111500D02*
X66500D01*
X65000Y110000D02*
Y113000D01*
X63500Y81500D02*
X66500D01*
X65000Y80000D02*
Y83000D01*
X63500Y66500D02*
X66500D01*
X65000Y65000D02*
Y68000D01*
X63500Y51500D02*
X66500D01*
X65000Y50000D02*
Y53000D01*
X63500Y36500D02*
X66500D01*
X65000Y35000D02*
Y38000D01*
X63500Y21500D02*
X66500D01*
X65000Y20000D02*
Y23000D01*
X48500Y171500D02*
X51500D01*
X50000Y170000D02*
Y173000D01*
X48500Y156500D02*
X51500D01*
X50000Y155000D02*
Y158000D01*
X48500Y141500D02*
X51500D01*
X50000Y140000D02*
Y143000D01*
X48500Y126500D02*
X51500D01*
X50000Y125000D02*
Y128000D01*
X48500Y111500D02*
X51500D01*
X50000Y110000D02*
Y113000D01*
X48500Y96500D02*
X51500D01*
X50000Y95000D02*
Y98000D01*
X48500Y81500D02*
X51500D01*
X50000Y80000D02*
Y83000D01*
X48500Y66500D02*
X51500D01*
X50000Y65000D02*
Y68000D01*
X48500Y51500D02*
X51500D01*
X50000Y50000D02*
Y53000D01*
X48500Y36500D02*
X51500D01*
X50000Y35000D02*
Y38000D01*
X33500Y171500D02*
X36500D01*
X35000Y170000D02*
Y173000D01*
X33500Y156500D02*
X36500D01*
X35000Y155000D02*
Y158000D01*
X33500Y141500D02*
X36500D01*
X35000Y140000D02*
Y143000D01*
X33500Y126500D02*
X36500D01*
X35000Y125000D02*
Y128000D01*
X33500Y111500D02*
X36500D01*
X35000Y110000D02*
Y113000D01*
X33500Y96500D02*
X36500D01*
X35000Y95000D02*
Y98000D01*
X33500Y81500D02*
X36500D01*
X35000Y80000D02*
Y83000D01*
X33500Y66500D02*
X36500D01*
X35000Y65000D02*
Y68000D01*
X33500Y51500D02*
X36500D01*
X35000Y50000D02*
Y53000D01*
X18500Y171500D02*
X21500D01*
X20000Y170000D02*
Y173000D01*
X18500Y156500D02*
X21500D01*
X20000Y155000D02*
Y158000D01*
X18500Y141500D02*
X21500D01*
X20000Y140000D02*
Y143000D01*
X18500Y126500D02*
X21500D01*
X20000Y125000D02*
Y128000D01*
X18500Y111500D02*
X21500D01*
X20000Y110000D02*
Y113000D01*
X18500Y96500D02*
X21500D01*
X20000Y95000D02*
Y98000D01*
X18500Y81500D02*
X21500D01*
X20000Y80000D02*
Y83000D01*
X18500Y66500D02*
X21500D01*
X20000Y65000D02*
Y68000D01*
X18500Y51500D02*
X21500D01*
X20000Y50000D02*
Y53000D01*
X169000Y61000D02*
X172000D01*
X170500Y59500D02*
Y62500D01*
X194750Y61000D02*
X197750D01*
X196250Y59500D02*
Y62500D01*
X180970Y55156D02*
X183970D01*
X182470Y53657D02*
Y56656D01*
X329750Y148000D02*
X332750D01*
X331250Y146500D02*
Y149500D01*
X252500Y128500D02*
X255500D01*
X254000Y127000D02*
Y130000D01*
X348500Y155000D02*
X351500D01*
X350000Y153500D02*
Y156500D01*
X353500Y141500D02*
X356500D01*
X355000Y140000D02*
Y143000D01*
X363500Y155000D02*
X366500D01*
X365000Y153500D02*
Y156500D01*
X48500Y21500D02*
X51500D01*
X50000Y20000D02*
Y23000D01*
X348500Y21500D02*
X351500D01*
X350000Y20000D02*
Y23000D01*
X133750Y111250D02*
X136750D01*
X135250Y109750D02*
Y112750D01*
X6000Y66500D02*
X9000D01*
X7500Y65000D02*
Y68000D01*
X6000Y171500D02*
X9000D01*
X7500Y170000D02*
Y173000D01*
X6000Y156500D02*
X9000D01*
X7500Y155000D02*
Y158000D01*
X6000Y141500D02*
X9000D01*
X7500Y140000D02*
Y143000D01*
X6000Y126500D02*
X9000D01*
X7500Y125000D02*
Y128000D01*
X6000Y111500D02*
X9000D01*
X7500Y110000D02*
Y113000D01*
X6000Y96500D02*
X9000D01*
X7500Y95000D02*
Y98000D01*
X6000Y81500D02*
X9000D01*
X7500Y80000D02*
Y83000D01*
X6000Y51500D02*
X9000D01*
X7500Y50000D02*
Y53000D01*
X391000Y51500D02*
X394000D01*
X392500Y50000D02*
Y53000D01*
X391000Y81500D02*
X394000D01*
X392500Y80000D02*
Y83000D01*
X391000Y96500D02*
X394000D01*
X392500Y95000D02*
Y98000D01*
X391000Y111500D02*
X394000D01*
X392500Y110000D02*
Y113000D01*
X391000Y126500D02*
X394000D01*
X392500Y125000D02*
Y128000D01*
X391000Y141500D02*
X394000D01*
X392500Y140000D02*
Y143000D01*
X391000Y156500D02*
X394000D01*
X392500Y155000D02*
Y158000D01*
X391000Y171500D02*
X394000D01*
X392500Y170000D02*
Y173000D01*
X348500Y171500D02*
X351500D01*
X350000Y170000D02*
Y173000D01*
X273500Y171500D02*
X276500D01*
X275000Y170000D02*
Y173000D01*
X288500Y171500D02*
X291500D01*
X290000Y170000D02*
Y173000D01*
X318500Y171500D02*
X321500D01*
X320000Y170000D02*
Y173000D01*
X333500Y171500D02*
X336500D01*
X335000Y170000D02*
Y173000D01*
X249500Y171500D02*
X252500D01*
X251000Y170000D02*
Y173000D01*
X363500Y171500D02*
X366500D01*
X365000Y170000D02*
Y173000D01*
X303500Y171500D02*
X306500D01*
X305000Y170000D02*
Y173000D01*
X147000Y150500D02*
X150000D01*
X148500Y149000D02*
Y152000D01*
X245500Y76750D02*
X248500D01*
X247000Y75250D02*
Y78250D01*
X249750Y84500D02*
X252750D01*
X251250Y83000D02*
Y86000D01*
X234250Y92750D02*
X237250D01*
X235750Y91250D02*
Y94250D01*
X171000Y100500D02*
X174000D01*
X172500Y99000D02*
Y102000D01*
X162750Y92750D02*
X165750D01*
X164250Y91250D02*
Y94250D01*
X147500Y84500D02*
X150500D01*
X149000Y83000D02*
Y86000D01*
X348500Y7500D02*
X351500D01*
X350000Y6000D02*
Y9000D01*
X333500Y7500D02*
X336500D01*
X335000Y6000D02*
Y9000D01*
X318500Y7500D02*
X321500D01*
X320000Y6000D02*
Y9000D01*
X303500Y7500D02*
X306500D01*
X305000Y6000D02*
Y9000D01*
X288500Y7500D02*
X291500D01*
X290000Y6000D02*
Y9000D01*
X273500Y7500D02*
X276500D01*
X275000Y6000D02*
Y9000D01*
X258500Y7500D02*
X261500D01*
X260000Y6000D02*
Y9000D01*
X243500Y7500D02*
X246500D01*
X245000Y6000D02*
Y9000D01*
X228500Y7500D02*
X231500D01*
X230000Y6000D02*
Y9000D01*
X168500Y7500D02*
X171500D01*
X170000Y6000D02*
Y9000D01*
X153500Y7500D02*
X156500D01*
X155000Y6000D02*
Y9000D01*
X138500Y7500D02*
X141500D01*
X140000Y6000D02*
Y9000D01*
X123500Y7500D02*
X126500D01*
X125000Y6000D02*
Y9000D01*
X108500Y7500D02*
X111500D01*
X110000Y6000D02*
Y9000D01*
X93500Y7500D02*
X96500D01*
X95000Y6000D02*
Y9000D01*
X78500Y7500D02*
X81500D01*
X80000Y6000D02*
Y9000D01*
X63500Y7500D02*
X66500D01*
X65000Y6000D02*
Y9000D01*
X48500Y7500D02*
X51500D01*
X50000Y6000D02*
Y9000D01*
X359018Y102768D02*
X362018D01*
X360518Y101268D02*
Y104268D01*
X315000Y137000D02*
X318000D01*
X316500Y135500D02*
Y138500D01*
X147239Y171457D02*
X150239D01*
X148739Y169957D02*
Y172957D01*
X255000Y144250D02*
X258000D01*
X256500Y142750D02*
Y145750D01*
X221750Y171500D02*
X224750D01*
X223250Y170000D02*
Y173000D01*
X208250Y171500D02*
X211250D01*
X209750Y170000D02*
Y173000D01*
X188739Y171457D02*
X191739D01*
X190239Y169957D02*
Y172957D01*
X147000Y161500D02*
X150000D01*
X148500Y160000D02*
Y163000D01*
X175250Y171500D02*
X178250D01*
X176750Y170000D02*
Y173000D01*
X386750Y90000D02*
X389750D01*
X388250Y88500D02*
Y91500D01*
X117500Y95500D02*
X120500D01*
X119000Y94000D02*
Y97000D01*
X182000Y110000D02*
X185000D01*
X183500Y108500D02*
Y111500D01*
X216500Y116500D02*
X219500D01*
X218000Y115000D02*
Y118000D01*
X193000Y110000D02*
X196000D01*
X194500Y108500D02*
Y111500D01*
X204000Y111000D02*
X207000D01*
X205500Y109500D02*
Y112500D01*
X356930Y149086D02*
X359930D01*
X358430Y147586D02*
Y150586D01*
M02*
