G04*
G04 #@! TF.GenerationSoftware,Altium Limited,Altium Designer,21.6.4 (81)*
G04*
G04 Layer_Physical_Order=1*
G04 Layer_Color=255*
%FSLAX44Y44*%
%MOMM*%
G71*
G04*
G04 #@! TF.SameCoordinates,A75552D8-FC29-4B95-B53C-3B512D9A6700*
G04*
G04*
G04 #@! TF.FilePolarity,Positive*
G04*
G01*
G75*
%ADD10C,0.2540*%
%ADD11C,0.1270*%
%ADD14R,0.4900X0.4900*%
%ADD16R,0.6200X0.6200*%
%ADD17R,1.0000X0.8000*%
%ADD18R,1.5500X1.0000*%
%ADD19R,0.8000X1.7000*%
%ADD20R,0.5200X0.5500*%
%ADD21R,0.3500X0.3600*%
%ADD34C,0.7900*%
%ADD35C,0.1524*%
%ADD36C,0.1520*%
%ADD37C,0.9000*%
%ADD38C,3.4000*%
%ADD39C,1.6500*%
%ADD40R,1.6500X1.6500*%
%ADD41C,0.6000*%
G36*
X395922Y4078D02*
X4078Y4078D01*
X4078Y175000D01*
X152280D01*
Y173262D01*
X156000D01*
X159720D01*
Y175000D01*
X179780D01*
Y173262D01*
X183500D01*
X187220D01*
Y175000D01*
X212780D01*
Y173262D01*
X216500D01*
X220220D01*
Y175000D01*
X240280D01*
Y173262D01*
X244000D01*
X247720D01*
Y175000D01*
X395922D01*
X395922Y4078D01*
D02*
G37*
%LPC*%
G36*
X247720Y171738D02*
X244000D01*
X240280D01*
Y169070D01*
X238720D01*
Y170720D01*
X231280D01*
Y163280D01*
X238720D01*
Y164930D01*
X240280D01*
Y157780D01*
X244793D01*
X245786Y156786D01*
X246458Y156338D01*
X247250Y156180D01*
X256094D01*
X256580Y155007D01*
X248990Y147417D01*
X247720Y147943D01*
Y154220D01*
X240280D01*
Y146780D01*
X246557D01*
X247083Y145510D01*
X244793Y143220D01*
X240280D01*
Y135780D01*
X247720D01*
Y140293D01*
X260357Y152930D01*
X265762D01*
X266630Y152020D01*
X266630Y151660D01*
Y146877D01*
X264127Y144373D01*
X263706Y143743D01*
X263558Y143000D01*
Y130555D01*
X258971Y125968D01*
X257984Y126777D01*
X258022Y126834D01*
X258354Y128500D01*
X258022Y130166D01*
X257078Y131579D01*
X255666Y132522D01*
X254000Y132854D01*
X252334Y132522D01*
X250921Y131579D01*
X250247Y130570D01*
X247720D01*
Y132220D01*
X240280D01*
Y124942D01*
X238720D01*
Y126720D01*
X231280D01*
Y119280D01*
X238720D01*
Y121058D01*
X240280D01*
Y113780D01*
X247720D01*
Y115430D01*
X257250D01*
X258042Y115588D01*
X258713Y116036D01*
X271964Y129286D01*
X272412Y129958D01*
X272570Y130750D01*
Y132082D01*
X273468Y132980D01*
X274370Y132980D01*
X275640Y132980D01*
X282370D01*
Y134930D01*
X283730D01*
Y131730D01*
X296270D01*
Y141460D01*
X296270Y142270D01*
X296270Y143540D01*
Y152930D01*
X298730D01*
Y143540D01*
X298730Y142730D01*
X298730Y141460D01*
Y131730D01*
X311270D01*
Y134410D01*
X313095D01*
X313421Y133921D01*
X314834Y132978D01*
X316500Y132646D01*
X318166Y132978D01*
X319578Y133921D01*
X320522Y135334D01*
X320854Y137000D01*
X320522Y138666D01*
X319578Y140078D01*
X318166Y141022D01*
X316500Y141354D01*
X314834Y141022D01*
X313421Y140078D01*
X313307Y139907D01*
X311943Y139815D01*
X311270Y140488D01*
X311270Y142270D01*
X311270Y143540D01*
Y145930D01*
X312630D01*
Y143980D01*
X320370D01*
Y143980D01*
X320630D01*
Y143980D01*
X328370D01*
Y143980D01*
X328511Y144056D01*
X329635Y143968D01*
X331250Y143646D01*
X332916Y143978D01*
X334328Y144922D01*
X335272Y146334D01*
X335500Y147478D01*
X336806Y147967D01*
X353360Y131413D01*
Y100253D01*
X353518Y99461D01*
X353966Y98790D01*
X356790Y95966D01*
X357461Y95518D01*
X358254Y95360D01*
X360263D01*
X363634Y91989D01*
X363633Y91987D01*
X363228Y89950D01*
X363633Y87913D01*
X364787Y86187D01*
X366513Y85033D01*
X368550Y84628D01*
Y82572D01*
X366513Y82167D01*
X364787Y81013D01*
X363633Y79287D01*
X363379Y78012D01*
X368550D01*
Y77250D01*
X369312D01*
Y72079D01*
X370587Y72333D01*
X372313Y73487D01*
X373467Y75213D01*
X373872Y77250D01*
X375928D01*
X376333Y75213D01*
X377487Y73487D01*
X379213Y72333D01*
X381250Y71928D01*
X383287Y72333D01*
X385013Y73487D01*
X386167Y75213D01*
X386572Y77250D01*
X386167Y79287D01*
X385013Y81013D01*
X383287Y82167D01*
X381250Y82572D01*
Y84628D01*
X383287Y85033D01*
X385013Y86187D01*
X385983Y86379D01*
X386584Y85978D01*
X388250Y85646D01*
X389916Y85978D01*
X391329Y86922D01*
X392272Y88334D01*
X392604Y90000D01*
X392272Y91666D01*
X391329Y93078D01*
X389916Y94022D01*
X388250Y94354D01*
X386584Y94022D01*
X385868Y93544D01*
X385013Y93714D01*
X383287Y94867D01*
X381250Y95272D01*
Y97328D01*
X383287Y97733D01*
X385013Y98887D01*
X386167Y100613D01*
X386572Y102650D01*
X386167Y104687D01*
X386166Y104689D01*
X387714Y106236D01*
X388162Y106908D01*
X388320Y107700D01*
Y154250D01*
X388162Y155042D01*
X387714Y155714D01*
X380714Y162714D01*
X380042Y163162D01*
X379250Y163320D01*
X253357D01*
X248214Y168463D01*
X247720Y168793D01*
Y171738D01*
D02*
G37*
G36*
X220220Y171738D02*
X217262D01*
Y168780D01*
X220220D01*
Y171738D01*
D02*
G37*
G36*
X215738D02*
X212780D01*
Y168780D01*
X215738D01*
Y171738D01*
D02*
G37*
G36*
X187220Y171738D02*
X184262D01*
Y168780D01*
X187220D01*
Y171738D01*
D02*
G37*
G36*
X182738D02*
X179780D01*
Y168780D01*
X182738D01*
Y171738D01*
D02*
G37*
G36*
X159720Y171738D02*
X156762D01*
Y168780D01*
X159720D01*
Y171738D01*
D02*
G37*
G36*
X155238D02*
X152280D01*
Y168780D01*
X155238D01*
Y171738D01*
D02*
G37*
G36*
X168720Y170720D02*
X165762D01*
Y167762D01*
X168720D01*
Y170720D01*
D02*
G37*
G36*
X164238D02*
X161280D01*
Y167762D01*
X164238D01*
Y170720D01*
D02*
G37*
G36*
X168720Y166238D02*
X165762D01*
Y163280D01*
X168720D01*
Y166238D01*
D02*
G37*
G36*
X164238D02*
X161280D01*
Y163280D01*
X164238D01*
Y166238D01*
D02*
G37*
G36*
X159720Y165220D02*
X156762D01*
Y162262D01*
X159720D01*
Y165220D01*
D02*
G37*
G36*
X155238D02*
X152280D01*
Y162262D01*
X155238D01*
Y165220D01*
D02*
G37*
G36*
X229720D02*
X222280D01*
Y157780D01*
X229720D01*
Y165220D01*
D02*
G37*
G36*
X177720D02*
X170280D01*
Y157780D01*
X177720D01*
Y165220D01*
D02*
G37*
G36*
X159720Y160738D02*
X156762D01*
Y157780D01*
X159720D01*
Y160738D01*
D02*
G37*
G36*
X155238D02*
X152280D01*
Y157780D01*
X155238D01*
Y160738D01*
D02*
G37*
G36*
X168720Y159720D02*
X165762D01*
Y156762D01*
X168720D01*
Y159720D01*
D02*
G37*
G36*
X164238D02*
X161280D01*
Y156762D01*
X164238D01*
Y159720D01*
D02*
G37*
G36*
X238720D02*
X231280D01*
Y152280D01*
X238720D01*
Y159720D01*
D02*
G37*
G36*
X168720Y155238D02*
X165762D01*
Y152280D01*
X168720D01*
Y155238D01*
D02*
G37*
G36*
X164238D02*
X161280D01*
Y152280D01*
X164238D01*
Y155238D01*
D02*
G37*
G36*
X159720Y154220D02*
X156762D01*
Y151262D01*
X159720D01*
Y154220D01*
D02*
G37*
G36*
X155238D02*
X152280D01*
Y151262D01*
X155238D01*
Y154220D01*
D02*
G37*
G36*
X229720D02*
X222280D01*
Y146780D01*
X229720D01*
Y154220D01*
D02*
G37*
G36*
X177720D02*
X170280D01*
Y146780D01*
X177720D01*
Y154220D01*
D02*
G37*
G36*
X159720Y149738D02*
X156762D01*
Y146780D01*
X159720D01*
Y149738D01*
D02*
G37*
G36*
X155238D02*
X152280D01*
Y146780D01*
X155238D01*
Y149738D01*
D02*
G37*
G36*
X238720Y148720D02*
X231280D01*
Y141280D01*
X238720D01*
Y148720D01*
D02*
G37*
G36*
X168720D02*
X161280D01*
Y141280D01*
X168720D01*
Y148720D01*
D02*
G37*
G36*
X125238Y141370D02*
X121630D01*
Y137762D01*
X125238D01*
Y141370D01*
D02*
G37*
G36*
X229720Y143220D02*
X222280D01*
Y135780D01*
X229720D01*
Y143220D01*
D02*
G37*
G36*
X177720D02*
X170280D01*
Y135780D01*
X177720D01*
Y143220D01*
D02*
G37*
G36*
X159720D02*
X152280D01*
Y135780D01*
X159720D01*
Y143220D01*
D02*
G37*
G36*
X125238Y136238D02*
X121630D01*
Y132630D01*
X125238D01*
Y136238D01*
D02*
G37*
G36*
X238720Y137720D02*
X231280D01*
Y130280D01*
X238720D01*
Y137720D01*
D02*
G37*
G36*
X168720D02*
X161280D01*
Y130280D01*
X168720D01*
Y137720D01*
D02*
G37*
G36*
X229720Y132220D02*
X222280D01*
Y124780D01*
X229720D01*
Y132220D01*
D02*
G37*
G36*
X177720D02*
X170280D01*
Y124780D01*
X177720D01*
Y132220D01*
D02*
G37*
G36*
X159720D02*
X152280D01*
Y124780D01*
X159720D01*
Y132220D01*
D02*
G37*
G36*
X229720Y121220D02*
X222280D01*
Y120066D01*
X221387Y119704D01*
X221010Y119624D01*
X219666Y120522D01*
X218000Y120854D01*
X216334Y120522D01*
X214921Y119579D01*
X213978Y118166D01*
X213646Y116500D01*
X213978Y114834D01*
X214921Y113421D01*
X216334Y112478D01*
X218000Y112146D01*
X219190Y112383D01*
X223441Y108132D01*
X224113Y107683D01*
X224905Y107525D01*
X225548D01*
X231280Y101793D01*
Y98494D01*
X231280Y98464D01*
X231223Y97277D01*
X230035Y97220D01*
X230006Y97220D01*
X223780D01*
Y89780D01*
X231220D01*
Y96006D01*
X231220Y96035D01*
X231277Y97223D01*
X232465Y97280D01*
X232494Y97280D01*
X238720D01*
Y104720D01*
X234207D01*
X231917Y107010D01*
X232443Y108280D01*
X238720D01*
Y115720D01*
X231280D01*
Y109443D01*
X230010Y108917D01*
X227868Y111059D01*
X227197Y111507D01*
X226405Y111665D01*
X225762D01*
X224820Y112607D01*
X225306Y113780D01*
X229720D01*
Y121220D01*
D02*
G37*
G36*
X168720Y126720D02*
X161280D01*
Y119280D01*
X168720D01*
Y126720D01*
D02*
G37*
G36*
X177720Y121220D02*
X170280D01*
Y113780D01*
X177720D01*
Y121220D01*
D02*
G37*
G36*
X168720Y115720D02*
X161280D01*
Y108280D01*
X168720D01*
Y115720D01*
D02*
G37*
G36*
X205500Y115354D02*
X203834Y115022D01*
X202421Y114079D01*
X201478Y112666D01*
X201146Y111000D01*
X201478Y109334D01*
X202421Y107921D01*
X203067Y107490D01*
X202682Y106220D01*
X198637D01*
X197958Y107490D01*
X198522Y108334D01*
X198854Y110000D01*
X198522Y111666D01*
X197579Y113078D01*
X196166Y114022D01*
X194500Y114354D01*
X192834Y114022D01*
X191422Y113078D01*
X190478Y111666D01*
X190146Y110000D01*
X190478Y108334D01*
X191042Y107490D01*
X190363Y106220D01*
X187637D01*
X186958Y107490D01*
X187522Y108334D01*
X187854Y110000D01*
X187522Y111666D01*
X186579Y113078D01*
X185166Y114022D01*
X183500Y114354D01*
X181834Y114022D01*
X180422Y113078D01*
X179478Y111666D01*
X179146Y110000D01*
X179478Y108334D01*
X180422Y106922D01*
X181430Y106248D01*
Y97220D01*
X179780D01*
Y89780D01*
X187220D01*
Y97220D01*
X185570D01*
Y98780D01*
X192430D01*
Y97220D01*
X190780D01*
Y89780D01*
X198220D01*
Y97220D01*
X196570D01*
Y98780D01*
X203430D01*
Y97220D01*
X201780D01*
Y89780D01*
X209220D01*
Y97220D01*
X207570D01*
Y98780D01*
X210238D01*
Y102500D01*
Y106220D01*
X208318D01*
X207933Y107490D01*
X208578Y107921D01*
X209522Y109334D01*
X209854Y111000D01*
X209522Y112666D01*
X208578Y114079D01*
X207166Y115022D01*
X205500Y115354D01*
D02*
G37*
G36*
X113520Y107020D02*
X111262D01*
Y104712D01*
X113520D01*
Y107020D01*
D02*
G37*
G36*
X109738D02*
X107480D01*
Y104712D01*
X109738D01*
Y107020D01*
D02*
G37*
G36*
X290270D02*
X288012D01*
Y104712D01*
X290270D01*
Y107020D01*
D02*
G37*
G36*
X286488D02*
X284230D01*
Y104712D01*
X286488D01*
Y107020D01*
D02*
G37*
G36*
X214720Y106220D02*
X211762D01*
Y103262D01*
X214720D01*
Y106220D01*
D02*
G37*
G36*
X130630Y141370D02*
X129360Y141370D01*
X126762D01*
Y137000D01*
Y132630D01*
X129360D01*
X130370Y132630D01*
X131640Y132630D01*
X132928D01*
Y130270D01*
X125980D01*
Y117730D01*
X141090D01*
X152097Y106723D01*
X152097Y106723D01*
X152280Y106601D01*
Y103070D01*
X144020D01*
Y104270D01*
X125980D01*
Y91730D01*
X132930D01*
Y90018D01*
X132032Y89120D01*
X130630Y89120D01*
X129360Y89120D01*
X126762D01*
Y84750D01*
Y80380D01*
X129360D01*
X130370Y80380D01*
X131640Y80380D01*
X139370D01*
Y89120D01*
X137070D01*
Y91730D01*
X144020D01*
Y98930D01*
X152280D01*
Y91780D01*
X159720D01*
Y98930D01*
X161280D01*
Y97280D01*
X167506D01*
X167535Y97280D01*
X168723Y97223D01*
X168780Y96035D01*
X168780Y96006D01*
Y94262D01*
X171738D01*
Y97220D01*
X169994D01*
X169965Y97220D01*
X168777Y97277D01*
X168720Y98464D01*
X168720Y98494D01*
Y104720D01*
X161280D01*
Y103070D01*
X159720D01*
Y110220D01*
X154512D01*
X154447Y110233D01*
X152092Y112588D01*
X152696Y113780D01*
X153378Y113780D01*
X159720D01*
Y121220D01*
X152280D01*
Y114969D01*
X152280Y114196D01*
X151088Y113592D01*
X144020Y120660D01*
Y130270D01*
X137072D01*
Y132630D01*
X139370D01*
Y141370D01*
X130630Y141370D01*
D02*
G37*
G36*
X247720Y110220D02*
X240280D01*
Y102780D01*
X247720D01*
Y110220D01*
D02*
G37*
G36*
X290270Y103188D02*
X288012D01*
Y100880D01*
X290270D01*
Y103188D01*
D02*
G37*
G36*
X286488D02*
X284230D01*
Y100880D01*
X286488D01*
Y103188D01*
D02*
G37*
G36*
X113520Y103188D02*
X111262D01*
Y100880D01*
X113520D01*
Y103188D01*
D02*
G37*
G36*
X109738D02*
X107480D01*
Y100880D01*
X109738D01*
Y103188D01*
D02*
G37*
G36*
X214720Y101738D02*
X211762D01*
Y98780D01*
X214720D01*
Y101738D01*
D02*
G37*
G36*
X308270Y105270D02*
X297730D01*
Y97620D01*
X290270D01*
Y98620D01*
X284230D01*
Y97620D01*
X247720D01*
Y99220D01*
X240280D01*
Y91780D01*
X247720D01*
Y93480D01*
X284230D01*
Y92480D01*
X290270D01*
Y93480D01*
X297730D01*
Y85730D01*
X308270D01*
Y105270D01*
D02*
G37*
G36*
X342270D02*
X337762D01*
Y96262D01*
X342270D01*
Y105270D01*
D02*
G37*
G36*
X336238D02*
X331730D01*
Y96262D01*
X336238D01*
Y105270D01*
D02*
G37*
G36*
X68270D02*
X63762D01*
Y96262D01*
X68270D01*
Y105270D01*
D02*
G37*
G36*
X62238D02*
X57730D01*
Y96262D01*
X62238D01*
Y105270D01*
D02*
G37*
G36*
X173262Y97220D02*
Y94262D01*
X176220D01*
Y97220D01*
X173262D01*
D02*
G37*
G36*
X102270Y105270D02*
X91730D01*
Y85730D01*
X102270D01*
Y93480D01*
X107480D01*
Y92480D01*
X113520D01*
Y93430D01*
X115247D01*
X115921Y92422D01*
X117334Y91478D01*
X119000Y91146D01*
X120666Y91478D01*
X122079Y92422D01*
X123022Y93834D01*
X123354Y95500D01*
X123022Y97166D01*
X122079Y98579D01*
X120666Y99522D01*
X119000Y99854D01*
X117334Y99522D01*
X115921Y98579D01*
X115247Y97570D01*
X113520D01*
Y98620D01*
X107480D01*
Y97620D01*
X102270D01*
Y105270D01*
D02*
G37*
G36*
X220220Y97220D02*
X212780D01*
Y89780D01*
X220220D01*
Y97220D01*
D02*
G37*
G36*
X176220Y92738D02*
X173262D01*
Y89780D01*
X176220D01*
Y92738D01*
D02*
G37*
G36*
X171738D02*
X168780D01*
Y89780D01*
X171738D01*
Y92738D01*
D02*
G37*
G36*
X342270Y94738D02*
X337762D01*
Y85730D01*
X342270D01*
Y94738D01*
D02*
G37*
G36*
X336238D02*
X331730D01*
Y85730D01*
X336238D01*
Y94738D01*
D02*
G37*
G36*
X68270Y94738D02*
X63762D01*
Y85730D01*
X68270D01*
Y94738D01*
D02*
G37*
G36*
X62238D02*
X57730D01*
Y85730D01*
X62238D01*
Y94738D01*
D02*
G37*
G36*
X125238Y89120D02*
X121630D01*
Y85512D01*
X125238D01*
Y89120D01*
D02*
G37*
G36*
X247720Y88220D02*
X244762D01*
Y85262D01*
X247720D01*
Y88220D01*
D02*
G37*
G36*
X236720D02*
X233762D01*
Y85262D01*
X236720D01*
Y88220D01*
D02*
G37*
G36*
X243238D02*
X240280D01*
Y85262D01*
X243238D01*
Y88220D01*
D02*
G37*
G36*
X232238D02*
X229280D01*
Y85262D01*
X232238D01*
Y88220D01*
D02*
G37*
G36*
X159720D02*
X156762D01*
Y85262D01*
X159720D01*
Y88220D01*
D02*
G37*
G36*
X155238D02*
X152280D01*
Y85262D01*
X155238D01*
Y88220D01*
D02*
G37*
G36*
X225720D02*
X218280D01*
Y82090D01*
X214720D01*
Y88220D01*
X207280D01*
Y82090D01*
X205337D01*
X203720Y83707D01*
Y88220D01*
X196280D01*
Y80780D01*
X200793D01*
X201276Y80297D01*
X201780Y79220D01*
X201780D01*
X201780Y79220D01*
Y71780D01*
X202910D01*
Y65370D01*
X201130D01*
Y63590D01*
X199655D01*
X199328Y64078D01*
X197916Y65022D01*
X196250Y65354D01*
X194584Y65022D01*
X193172Y64078D01*
X192228Y62666D01*
X191896Y61000D01*
X192228Y59334D01*
X193172Y57922D01*
X194584Y56978D01*
X196250Y56646D01*
X197916Y56978D01*
X199328Y57922D01*
X199655Y58410D01*
X201130D01*
Y56630D01*
X208860D01*
X209870Y56630D01*
X211140Y56630D01*
X213738D01*
Y61000D01*
Y65370D01*
X211140D01*
X210130Y65370D01*
X208988Y65370D01*
X208090Y66268D01*
Y71780D01*
X209220D01*
Y77950D01*
X212780D01*
Y71780D01*
X220220D01*
X220950Y70813D01*
Y52877D01*
X217833Y49761D01*
X217501Y50016D01*
X215185Y50975D01*
X212700Y51302D01*
X210215Y50975D01*
X207899Y50016D01*
X205910Y48490D01*
X204384Y46501D01*
X203425Y44185D01*
X203098Y41700D01*
X203425Y39215D01*
X204384Y36899D01*
X205910Y34910D01*
X207899Y33384D01*
X210215Y32425D01*
X212700Y32098D01*
X215185Y32425D01*
X217501Y33384D01*
X219490Y34910D01*
X221016Y36899D01*
X221975Y39215D01*
X222302Y41700D01*
X221975Y44185D01*
X221016Y46501D01*
X220761Y46834D01*
X224484Y50556D01*
X224932Y51228D01*
X225090Y52020D01*
Y71780D01*
X231220D01*
Y79220D01*
X224306D01*
X224066Y79510D01*
X224665Y80780D01*
X225720D01*
Y88220D01*
D02*
G37*
G36*
X247720Y83738D02*
X244762D01*
Y80780D01*
X247720D01*
Y83738D01*
D02*
G37*
G36*
X243238D02*
X240280D01*
Y80780D01*
X243238D01*
Y83738D01*
D02*
G37*
G36*
X236720D02*
X233762D01*
Y80780D01*
X236720D01*
Y83738D01*
D02*
G37*
G36*
X232238D02*
X229280D01*
Y80780D01*
X232238D01*
Y83738D01*
D02*
G37*
G36*
X159720Y83738D02*
X156762D01*
Y80780D01*
X159720D01*
Y83738D01*
D02*
G37*
G36*
X155238D02*
X152280D01*
Y80780D01*
X155238D01*
Y83738D01*
D02*
G37*
G36*
X125238Y83988D02*
X121630D01*
Y80380D01*
X125238D01*
Y83988D01*
D02*
G37*
G36*
X192720Y88220D02*
X185280D01*
Y80780D01*
X186930D01*
Y79220D01*
X180975Y79220D01*
X180285Y80490D01*
X180472Y80780D01*
X181720D01*
Y88220D01*
X174280D01*
Y80780D01*
X175160D01*
Y79220D01*
X169590D01*
Y80780D01*
X170720D01*
Y88220D01*
X163280D01*
Y80780D01*
X164410D01*
Y79220D01*
X157780D01*
Y71780D01*
X161708D01*
X162194Y70607D01*
X159919Y68331D01*
X159357Y67491D01*
X159160Y66500D01*
Y66268D01*
X158262Y65370D01*
X157380D01*
X156110Y65370D01*
X153512D01*
Y61000D01*
Y56630D01*
X156110D01*
X157120Y56630D01*
X158390Y56630D01*
X166120D01*
Y57583D01*
X167390Y57969D01*
X167421Y57922D01*
X168834Y56978D01*
X170500Y56646D01*
X172166Y56978D01*
X173578Y57922D01*
X173890Y58388D01*
X175160Y58003D01*
Y55837D01*
X174393Y55070D01*
X147800D01*
X147008Y54912D01*
X146336Y54464D01*
X141634Y49761D01*
X141301Y50016D01*
X138985Y50975D01*
X136500Y51302D01*
X134015Y50975D01*
X131699Y50016D01*
X129710Y48490D01*
X128184Y46501D01*
X127225Y44185D01*
X126898Y41700D01*
X127225Y39215D01*
X128184Y36899D01*
X129710Y34910D01*
X131699Y33384D01*
X134015Y32425D01*
X136500Y32098D01*
X138985Y32425D01*
X141301Y33384D01*
X143290Y34910D01*
X144816Y36899D01*
X145775Y39215D01*
X146102Y41700D01*
X145775Y44185D01*
X144816Y46501D01*
X144561Y46834D01*
X148657Y50930D01*
X156205D01*
X156636Y49660D01*
X155110Y48490D01*
X153584Y46501D01*
X152625Y44185D01*
X152298Y41700D01*
X152625Y39215D01*
X153584Y36899D01*
X155110Y34910D01*
X157099Y33384D01*
X159415Y32425D01*
X161900Y32098D01*
X164385Y32425D01*
X166701Y33384D01*
X168690Y34910D01*
X170216Y36899D01*
X171175Y39215D01*
X171502Y41700D01*
X171175Y44185D01*
X170216Y46501D01*
X168690Y48490D01*
X167164Y49660D01*
X167596Y50930D01*
X175250D01*
X176042Y51088D01*
X176714Y51536D01*
X178694Y53517D01*
X179142Y54188D01*
X179300Y54980D01*
Y70709D01*
X179780Y71780D01*
X180570Y71780D01*
X186930D01*
Y65857D01*
X186036Y64964D01*
X185588Y64292D01*
X185430Y63500D01*
Y51056D01*
X184815Y50975D01*
X182499Y50016D01*
X180510Y48490D01*
X178984Y46501D01*
X178025Y44185D01*
X177698Y41700D01*
X178025Y39215D01*
X178984Y36899D01*
X180510Y34910D01*
X182499Y33384D01*
X184815Y32425D01*
X187300Y32098D01*
X189785Y32425D01*
X192101Y33384D01*
X194090Y34910D01*
X195616Y36899D01*
X196575Y39215D01*
X196902Y41700D01*
X196575Y44185D01*
X195616Y46501D01*
X194090Y48490D01*
X192101Y50016D01*
X189785Y50975D01*
X189570Y51003D01*
Y62643D01*
X190464Y63537D01*
X190912Y64208D01*
X191070Y65000D01*
Y71780D01*
X198220D01*
Y79220D01*
X191070D01*
Y80780D01*
X192720D01*
Y88220D01*
D02*
G37*
G36*
X367788Y76488D02*
X363379D01*
X363633Y75213D01*
X364787Y73487D01*
X366513Y72333D01*
X367788Y72079D01*
Y76488D01*
D02*
G37*
G36*
X242220Y79220D02*
X234780D01*
Y71780D01*
X242220D01*
Y79220D01*
D02*
G37*
G36*
X215262Y65370D02*
Y61762D01*
X218870D01*
Y65370D01*
X215262D01*
D02*
G37*
G36*
X151988D02*
X148380D01*
Y61762D01*
X151988D01*
Y65370D01*
D02*
G37*
G36*
X385060Y70917D02*
X382623Y70433D01*
X380558Y69052D01*
X379177Y66987D01*
X378693Y64550D01*
X379177Y62113D01*
X380558Y60048D01*
X382623Y58667D01*
X385060Y58183D01*
X387497Y58667D01*
X389562Y60048D01*
X390943Y62113D01*
X391427Y64550D01*
X390943Y66987D01*
X389562Y69052D01*
X387497Y70433D01*
X385060Y70917D01*
D02*
G37*
G36*
X364740D02*
X362303Y70433D01*
X360238Y69052D01*
X358857Y66987D01*
X358373Y64550D01*
X358857Y62113D01*
X360238Y60048D01*
X362303Y58667D01*
X364740Y58183D01*
X367177Y58667D01*
X369242Y60048D01*
X370623Y62113D01*
X371107Y64550D01*
X370623Y66987D01*
X369242Y69052D01*
X367177Y70433D01*
X364740Y70917D01*
D02*
G37*
G36*
X218870Y60238D02*
X215262D01*
Y56630D01*
X218870D01*
Y60238D01*
D02*
G37*
G36*
X151988D02*
X148380D01*
Y56630D01*
X151988D01*
Y60238D01*
D02*
G37*
G36*
X111862Y51202D02*
Y42462D01*
X120602D01*
X120375Y44185D01*
X119416Y46501D01*
X117890Y48490D01*
X115901Y50016D01*
X113585Y50975D01*
X111862Y51202D01*
D02*
G37*
G36*
X110338D02*
X108615Y50975D01*
X106299Y50016D01*
X104310Y48490D01*
X102784Y46501D01*
X101825Y44185D01*
X101598Y42462D01*
X110338D01*
Y51202D01*
D02*
G37*
G36*
X120602Y40938D02*
X111862D01*
Y32198D01*
X113585Y32425D01*
X115901Y33384D01*
X117890Y34910D01*
X119416Y36899D01*
X120375Y39215D01*
X120602Y40938D01*
D02*
G37*
G36*
X110338D02*
X101598D01*
X101825Y39215D01*
X102784Y36899D01*
X104310Y34910D01*
X106299Y33384D01*
X108615Y32425D01*
X110338Y32198D01*
Y40938D01*
D02*
G37*
G36*
X298420Y51220D02*
X279380D01*
Y32180D01*
X298420D01*
Y51220D01*
D02*
G37*
G36*
X263500Y51302D02*
X261015Y50975D01*
X258699Y50016D01*
X256710Y48490D01*
X255184Y46501D01*
X254225Y44185D01*
X253898Y41700D01*
X254225Y39215D01*
X255184Y36899D01*
X256710Y34910D01*
X258699Y33384D01*
X261015Y32425D01*
X263500Y32098D01*
X265985Y32425D01*
X268301Y33384D01*
X270290Y34910D01*
X271816Y36899D01*
X272775Y39215D01*
X273102Y41700D01*
X272775Y44185D01*
X271816Y46501D01*
X270290Y48490D01*
X268301Y50016D01*
X265985Y50975D01*
X263500Y51302D01*
D02*
G37*
G36*
X238100D02*
X235615Y50975D01*
X233299Y50016D01*
X231310Y48490D01*
X229784Y46501D01*
X228825Y44185D01*
X228498Y41700D01*
X228825Y39215D01*
X229784Y36899D01*
X231310Y34910D01*
X233299Y33384D01*
X235615Y32425D01*
X238100Y32098D01*
X240585Y32425D01*
X242901Y33384D01*
X244890Y34910D01*
X246416Y36899D01*
X247375Y39215D01*
X247702Y41700D01*
X247375Y44185D01*
X246416Y46501D01*
X244890Y48490D01*
X242901Y50016D01*
X240585Y50975D01*
X238100Y51302D01*
D02*
G37*
G36*
X375762Y43283D02*
Y25762D01*
X393283D01*
X393006Y28582D01*
X391961Y32025D01*
X390264Y35199D01*
X387981Y37981D01*
X385199Y40264D01*
X382025Y41961D01*
X378582Y43006D01*
X375762Y43283D01*
D02*
G37*
G36*
X374238D02*
X371418Y43006D01*
X367975Y41961D01*
X364801Y40264D01*
X362019Y37981D01*
X359736Y35199D01*
X358039Y32025D01*
X356994Y28582D01*
X356717Y25762D01*
X374238D01*
Y43283D01*
D02*
G37*
G36*
X25762D02*
Y25762D01*
X43283D01*
X43006Y28582D01*
X41961Y32025D01*
X40264Y35199D01*
X37981Y37981D01*
X35199Y40264D01*
X32025Y41961D01*
X28582Y43006D01*
X25762Y43283D01*
D02*
G37*
G36*
X24238D02*
X21418Y43006D01*
X17975Y41961D01*
X14801Y40264D01*
X12019Y37981D01*
X9736Y35199D01*
X8039Y32025D01*
X6994Y28582D01*
X6717Y25762D01*
X24238D01*
Y43283D01*
D02*
G37*
G36*
X393283Y24238D02*
X375762D01*
Y6717D01*
X378582Y6994D01*
X382025Y8039D01*
X385199Y9736D01*
X387981Y12019D01*
X390264Y14801D01*
X391961Y17975D01*
X393006Y21418D01*
X393283Y24238D01*
D02*
G37*
G36*
X374238D02*
X356717D01*
X356994Y21418D01*
X358039Y17975D01*
X359736Y14801D01*
X362019Y12019D01*
X364801Y9736D01*
X367975Y8039D01*
X371418Y6994D01*
X374238Y6717D01*
Y24238D01*
D02*
G37*
G36*
X43283D02*
X25762D01*
Y6717D01*
X28582Y6994D01*
X32025Y8039D01*
X35199Y9736D01*
X37981Y12019D01*
X40264Y14801D01*
X41961Y17975D01*
X43006Y21418D01*
X43283Y24238D01*
D02*
G37*
G36*
X24238D02*
X6717D01*
X6994Y21418D01*
X8039Y17975D01*
X9736Y14801D01*
X12019Y12019D01*
X14801Y9736D01*
X17975Y8039D01*
X21418Y6994D01*
X24238Y6717D01*
Y24238D01*
D02*
G37*
%LPD*%
G36*
X384180Y153393D02*
Y108557D01*
X383206Y107583D01*
X381250Y107972D01*
X379213Y107567D01*
X377487Y106413D01*
X376333Y104687D01*
X375948Y102750D01*
X373852D01*
X373467Y104687D01*
X372313Y106413D01*
X370587Y107567D01*
X368550Y107972D01*
X366513Y107567D01*
X364787Y106413D01*
X364766Y106382D01*
X364551Y106283D01*
X363101Y106177D01*
X362184Y106790D01*
X360518Y107121D01*
X358852Y106790D01*
X358620Y106635D01*
X357500Y107234D01*
Y132271D01*
X357342Y133063D01*
X356894Y133734D01*
X344121Y146507D01*
X344607Y147680D01*
X354356D01*
X354407Y147420D01*
X355351Y146008D01*
X356764Y145064D01*
X358430Y144733D01*
X360096Y145064D01*
X361508Y146008D01*
X362452Y147420D01*
X362783Y149086D01*
X362452Y150752D01*
X361508Y152165D01*
X360096Y153108D01*
X358430Y153440D01*
X356764Y153108D01*
X355351Y152165D01*
X355121Y151820D01*
X343107D01*
X336920Y158007D01*
X337406Y159180D01*
X378393D01*
X384180Y153393D01*
D02*
G37*
%LPC*%
G36*
X374900Y121717D02*
X372463Y121233D01*
X370398Y119852D01*
X369017Y117787D01*
X368533Y115350D01*
X369017Y112913D01*
X370398Y110848D01*
X372463Y109467D01*
X374900Y108983D01*
X377337Y109467D01*
X379402Y110848D01*
X380783Y112913D01*
X381267Y115350D01*
X380783Y117787D01*
X379402Y119852D01*
X377337Y121233D01*
X374900Y121717D01*
D02*
G37*
%LPD*%
D10*
X161750Y61000D02*
X170500D01*
X167000Y71750D02*
Y84500D01*
X161750Y66500D02*
X167000Y71750D01*
X161750Y61000D02*
Y66500D01*
X196250Y61000D02*
X205500D01*
X205500Y61000D02*
X205500Y61000D01*
X205500Y61000D02*
Y75500D01*
X167000Y84500D02*
X167250Y84250D01*
X305000Y137000D02*
X316500D01*
X360535Y102785D02*
X368415D01*
X360518Y102768D02*
X360535Y102785D01*
X368415D02*
X368550Y102650D01*
D11*
X270500Y147850D02*
Y148000D01*
X268535Y145885D02*
X270500Y147850D01*
X268385Y145885D02*
X268535D01*
X265500Y143000D02*
X268385Y145885D01*
X265500Y129750D02*
Y143000D01*
X258750Y123000D02*
X265500Y129750D01*
X235000Y123000D02*
X258750D01*
D14*
X235000Y167000D02*
D03*
Y156000D02*
D03*
Y145000D02*
D03*
Y134000D02*
D03*
Y123000D02*
D03*
Y112000D02*
D03*
Y101000D02*
D03*
X244000Y172500D02*
D03*
Y161500D02*
D03*
Y150500D02*
D03*
Y139500D02*
D03*
Y128500D02*
D03*
Y117500D02*
D03*
Y106500D02*
D03*
Y95500D02*
D03*
X227500Y93500D02*
D03*
X216500D02*
D03*
X205500D02*
D03*
X194500D02*
D03*
X183500D02*
D03*
X172500D02*
D03*
X244000Y84500D02*
D03*
X233000D02*
D03*
X222000D02*
D03*
X211000D02*
D03*
X200000D02*
D03*
X189000D02*
D03*
X178000D02*
D03*
X167000D02*
D03*
X156000D02*
D03*
Y172500D02*
D03*
X165000Y167000D02*
D03*
X156000Y161500D02*
D03*
Y150500D02*
D03*
Y139500D02*
D03*
Y128500D02*
D03*
Y117500D02*
D03*
Y106500D02*
D03*
Y95500D02*
D03*
X165000Y156000D02*
D03*
Y145000D02*
D03*
Y134000D02*
D03*
Y123000D02*
D03*
Y112000D02*
D03*
Y101000D02*
D03*
X216500Y172500D02*
D03*
X183500D02*
D03*
X174000Y161500D02*
D03*
Y150500D02*
D03*
Y139500D02*
D03*
Y128500D02*
D03*
Y117500D02*
D03*
X189000Y102500D02*
D03*
X200000D02*
D03*
X211000D02*
D03*
X226000Y117500D02*
D03*
Y128500D02*
D03*
Y139500D02*
D03*
Y150500D02*
D03*
Y161500D02*
D03*
X161500Y75500D02*
D03*
X172500D02*
D03*
X183500D02*
D03*
X194500D02*
D03*
X205500D02*
D03*
X216500D02*
D03*
X227500D02*
D03*
X238500D02*
D03*
D16*
X214500Y61000D02*
D03*
X205500D02*
D03*
X152750D02*
D03*
X161750D02*
D03*
X126000Y84750D02*
D03*
X135000D02*
D03*
X126000Y137000D02*
D03*
X135000D02*
D03*
D17*
X305000Y148000D02*
D03*
X290000D02*
D03*
Y137000D02*
D03*
X305000D02*
D03*
D18*
X135000Y98000D02*
D03*
Y124000D02*
D03*
D19*
X303000Y95500D02*
D03*
X337000D02*
D03*
X97000D02*
D03*
X63000D02*
D03*
D20*
X278500Y148000D02*
D03*
X270500D02*
D03*
X278500Y137000D02*
D03*
X270500D02*
D03*
X316500Y148000D02*
D03*
X324500D02*
D03*
D21*
X287250Y103950D02*
D03*
Y95550D02*
D03*
X110500Y103950D02*
D03*
Y95550D02*
D03*
D34*
X381250Y77250D02*
D03*
X368550D02*
D03*
X381250Y89950D02*
D03*
X368550D02*
D03*
X381250Y102650D02*
D03*
X368550D02*
D03*
D35*
X135000Y124000D02*
X137750D01*
X153562Y108188D01*
X154312D01*
X156000Y106500D01*
X135000Y124000D02*
Y137000D01*
D36*
Y98000D02*
X138000Y101000D01*
X165000D01*
X135000Y84750D02*
Y98000D01*
X147800Y53000D02*
X175250D01*
X177230Y54980D01*
Y83730D01*
X223020Y52020D02*
Y76751D01*
X219751Y80020D02*
X223020Y76751D01*
X212700Y41700D02*
X223020Y52020D01*
X204480Y80020D02*
X219751D01*
X200000Y84500D02*
X204480Y80020D01*
X136500Y41700D02*
X147800Y53000D01*
X187500Y41900D02*
Y63500D01*
X189000Y65000D01*
X187300Y41700D02*
X187500Y41900D01*
X270500Y130750D02*
Y137000D01*
X257250Y117500D02*
X270500Y130750D01*
X244000Y117500D02*
X257250D01*
X324500Y148000D02*
X331250D01*
X332701Y155000D02*
X355430Y132271D01*
X333750Y158250D02*
X342250Y149750D01*
X259500Y155000D02*
X332701D01*
X247250Y158250D02*
X333750D01*
X244000Y128500D02*
X254000D01*
X278500Y137000D02*
X290000D01*
X278500Y148000D02*
X290000D01*
X290000Y148000D01*
X305000D02*
X316500D01*
X316500Y148000D01*
X379250Y161250D02*
X386250Y154250D01*
X381250Y102700D02*
X386250Y107700D01*
Y154250D01*
X235000Y167000D02*
X246750D01*
X252500Y161250D02*
X379250D01*
X246750Y167000D02*
X252500Y161250D01*
X355430Y100253D02*
Y132271D01*
X361120Y97430D02*
X368550Y90000D01*
X358254Y97430D02*
X361120D01*
X355430Y100253D02*
X358254Y97430D01*
X381250Y89950D02*
X381275Y89975D01*
X388225D01*
X388250Y90000D01*
X244050Y95550D02*
X287250D01*
X244000Y95500D02*
X244050Y95550D01*
X302950D02*
X303000Y95500D01*
X287250Y95550D02*
X302950D01*
X110550Y95500D02*
X119000D01*
X110500Y95550D02*
X110550Y95500D01*
X183500Y93500D02*
Y110000D01*
X226405Y109595D02*
X235000Y101000D01*
X224905Y109595D02*
X226405D01*
X218000Y116500D02*
X224905Y109595D01*
X97050Y95550D02*
X110500D01*
X97000Y95500D02*
X97050Y95550D01*
X177230Y83730D02*
X178000Y84500D01*
X189000Y65000D02*
Y84500D01*
X194500Y110000D02*
X194500Y110000D01*
Y93500D02*
Y110000D01*
X205500Y93500D02*
Y111000D01*
X342250Y149750D02*
X357766D01*
X358430Y149086D01*
X244000Y161500D02*
X247250Y158250D01*
X244000Y139500D02*
X259500Y155000D01*
D37*
X364740Y64550D02*
D03*
X385060D02*
D03*
X374900Y115350D02*
D03*
D38*
X375000Y25000D02*
D03*
X25000D02*
D03*
D39*
X161900Y41700D02*
D03*
X187300D02*
D03*
X212700D02*
D03*
X263500D02*
D03*
X238100D02*
D03*
X136500D02*
D03*
X111100D02*
D03*
D40*
X288900D02*
D03*
D41*
X140000Y66500D02*
D03*
X125000D02*
D03*
X380000Y171500D02*
D03*
Y141500D02*
D03*
Y51500D02*
D03*
X365000Y126500D02*
D03*
Y111500D02*
D03*
Y51500D02*
D03*
X350000Y126500D02*
D03*
Y111500D02*
D03*
Y96500D02*
D03*
Y81500D02*
D03*
Y66500D02*
D03*
Y51500D02*
D03*
Y36500D02*
D03*
X335000Y126500D02*
D03*
Y111500D02*
D03*
Y81500D02*
D03*
Y66500D02*
D03*
Y51500D02*
D03*
Y36500D02*
D03*
Y21500D02*
D03*
X320000Y111500D02*
D03*
Y96500D02*
D03*
Y81500D02*
D03*
Y66500D02*
D03*
Y51500D02*
D03*
Y36500D02*
D03*
Y21500D02*
D03*
X305000Y126500D02*
D03*
Y111500D02*
D03*
Y81500D02*
D03*
Y66500D02*
D03*
Y51500D02*
D03*
Y36500D02*
D03*
Y21500D02*
D03*
X290000Y126500D02*
D03*
Y111500D02*
D03*
Y81500D02*
D03*
Y66500D02*
D03*
Y21500D02*
D03*
X275000Y126500D02*
D03*
Y111500D02*
D03*
Y81500D02*
D03*
Y66500D02*
D03*
Y51500D02*
D03*
Y36500D02*
D03*
Y21500D02*
D03*
X260000Y171500D02*
D03*
Y111500D02*
D03*
Y81500D02*
D03*
Y66500D02*
D03*
Y21500D02*
D03*
X245000D02*
D03*
X230000Y51500D02*
D03*
Y21500D02*
D03*
X215000Y156500D02*
D03*
Y141500D02*
D03*
Y126500D02*
D03*
Y21500D02*
D03*
X200000Y171500D02*
D03*
Y156500D02*
D03*
Y141500D02*
D03*
Y126500D02*
D03*
Y36500D02*
D03*
Y21500D02*
D03*
X185000Y156500D02*
D03*
Y141500D02*
D03*
Y126500D02*
D03*
Y21500D02*
D03*
X170000D02*
D03*
X155000D02*
D03*
X140000Y171500D02*
D03*
Y156500D02*
D03*
Y21500D02*
D03*
X125000Y171500D02*
D03*
Y156500D02*
D03*
Y51500D02*
D03*
Y36500D02*
D03*
Y21500D02*
D03*
X110000Y171500D02*
D03*
Y156500D02*
D03*
Y141500D02*
D03*
Y126500D02*
D03*
Y111500D02*
D03*
Y81500D02*
D03*
Y66500D02*
D03*
Y21500D02*
D03*
X95000Y171500D02*
D03*
Y156500D02*
D03*
Y141500D02*
D03*
Y126500D02*
D03*
Y111500D02*
D03*
Y81500D02*
D03*
Y66500D02*
D03*
Y51500D02*
D03*
Y36500D02*
D03*
Y21500D02*
D03*
X80000Y171500D02*
D03*
Y156500D02*
D03*
Y141500D02*
D03*
Y126500D02*
D03*
Y111500D02*
D03*
Y96500D02*
D03*
Y81500D02*
D03*
Y66500D02*
D03*
Y51500D02*
D03*
Y36500D02*
D03*
Y21500D02*
D03*
X65000Y171500D02*
D03*
Y156500D02*
D03*
Y141500D02*
D03*
Y126500D02*
D03*
Y111500D02*
D03*
Y81500D02*
D03*
Y66500D02*
D03*
Y51500D02*
D03*
Y36500D02*
D03*
Y21500D02*
D03*
X50000Y171500D02*
D03*
Y156500D02*
D03*
Y141500D02*
D03*
Y126500D02*
D03*
Y111500D02*
D03*
Y96500D02*
D03*
Y81500D02*
D03*
Y66500D02*
D03*
Y51500D02*
D03*
Y36500D02*
D03*
X35000Y171500D02*
D03*
Y156500D02*
D03*
Y141500D02*
D03*
Y126500D02*
D03*
Y111500D02*
D03*
Y96500D02*
D03*
Y81500D02*
D03*
Y66500D02*
D03*
Y51500D02*
D03*
X20000Y171500D02*
D03*
Y156500D02*
D03*
Y141500D02*
D03*
Y126500D02*
D03*
Y111500D02*
D03*
Y96500D02*
D03*
Y81500D02*
D03*
Y66500D02*
D03*
Y51500D02*
D03*
X170500Y61000D02*
D03*
X196250D02*
D03*
X182470Y55156D02*
D03*
X331250Y148000D02*
D03*
X254000Y128500D02*
D03*
X350000Y155000D02*
D03*
X355000Y141500D02*
D03*
X365000Y155000D02*
D03*
X50000Y21500D02*
D03*
X350000D02*
D03*
X135250Y111250D02*
D03*
X7500Y66500D02*
D03*
Y171500D02*
D03*
Y156500D02*
D03*
Y141500D02*
D03*
Y126500D02*
D03*
Y111500D02*
D03*
Y96500D02*
D03*
Y81500D02*
D03*
Y51500D02*
D03*
X392500D02*
D03*
Y81500D02*
D03*
Y96500D02*
D03*
Y111500D02*
D03*
Y126500D02*
D03*
Y141500D02*
D03*
Y156500D02*
D03*
Y171500D02*
D03*
X350000D02*
D03*
X275000D02*
D03*
X290000D02*
D03*
X320000D02*
D03*
X335000D02*
D03*
X251000D02*
D03*
X365000D02*
D03*
X305000D02*
D03*
X148500Y150500D02*
D03*
X247000Y76750D02*
D03*
X251250Y84500D02*
D03*
X235750Y92750D02*
D03*
X172500Y100500D02*
D03*
X164250Y92750D02*
D03*
X149000Y84500D02*
D03*
X350000Y7500D02*
D03*
X335000D02*
D03*
X320000D02*
D03*
X305000D02*
D03*
X290000D02*
D03*
X275000D02*
D03*
X260000D02*
D03*
X245000D02*
D03*
X230000D02*
D03*
X170000D02*
D03*
X155000D02*
D03*
X140000D02*
D03*
X125000D02*
D03*
X110000D02*
D03*
X95000D02*
D03*
X80000D02*
D03*
X65000D02*
D03*
X50000D02*
D03*
X360518Y102768D02*
D03*
X316500Y137000D02*
D03*
X148739Y171457D02*
D03*
X256500Y144250D02*
D03*
X223250Y171500D02*
D03*
X209750D02*
D03*
X190239Y171457D02*
D03*
X148500Y161500D02*
D03*
X176750Y171500D02*
D03*
X388250Y90000D02*
D03*
X119000Y95500D02*
D03*
X183500Y110000D02*
D03*
X218000Y116500D02*
D03*
X194500Y110000D02*
D03*
X205500Y111000D02*
D03*
X358430Y149086D02*
D03*
M02*
