G04*
G04 #@! TF.GenerationSoftware,Altium Limited,Altium Designer,21.6.4 (81)*
G04*
G04 Layer_Color=32768*
%FSLAX44Y44*%
%MOMM*%
G71*
G04*
G04 #@! TF.SameCoordinates,A75552D8-FC29-4B95-B53C-3B512D9A6700*
G04*
G04*
G04 #@! TF.FilePolarity,Positive*
G04*
G01*
G75*
%ADD43C,0.0500*%
%ADD44C,0.0508*%
D43*
X359760Y21190D02*
Y31187D01*
X363092Y27854D01*
X366424Y31187D01*
Y21190D01*
X369757Y31187D02*
Y21190D01*
Y26188D01*
X376421D01*
Y31187D01*
Y21190D01*
X386418D02*
X379754D01*
X386418Y27854D01*
Y29521D01*
X384752Y31187D01*
X381420D01*
X379754Y29521D01*
X9760Y21190D02*
Y31187D01*
X13092Y27854D01*
X16424Y31187D01*
Y21190D01*
X19757Y31187D02*
Y21190D01*
Y26188D01*
X26421D01*
Y31187D01*
Y21190D01*
X29754D02*
X33086D01*
X31420D01*
Y31187D01*
X29754Y29521D01*
X207582Y62665D02*
X206749Y63498D01*
X205083D01*
X204250Y62665D01*
Y59333D01*
X205083Y58500D01*
X206749D01*
X207582Y59333D01*
X211748Y58500D02*
Y63498D01*
X209248Y60999D01*
X212581D01*
X159668Y59335D02*
X160501Y58502D01*
X162167D01*
X163000Y59335D01*
Y62667D01*
X162167Y63500D01*
X160501D01*
X159668Y62667D01*
X158002Y59335D02*
X157169Y58502D01*
X155503D01*
X154669Y59335D01*
Y60168D01*
X155503Y61001D01*
X156335D01*
X155503D01*
X154669Y61834D01*
Y62667D01*
X155503Y63500D01*
X157169D01*
X158002Y62667D01*
X132918Y83085D02*
X133751Y82252D01*
X135417D01*
X136250Y83085D01*
Y86417D01*
X135417Y87250D01*
X133751D01*
X132918Y86417D01*
X127919Y87250D02*
X131252D01*
X127919Y83918D01*
Y83085D01*
X128752Y82252D01*
X130419D01*
X131252Y83085D01*
X132918Y135335D02*
X133751Y134502D01*
X135417D01*
X136250Y135335D01*
Y138667D01*
X135417Y139500D01*
X133751D01*
X132918Y138667D01*
X131252Y139500D02*
X129586D01*
X130419D01*
Y134502D01*
X131252Y135335D01*
X287500Y146497D02*
Y138500D01*
X291499D01*
X292832Y139833D01*
Y145164D01*
X291499Y146497D01*
X287500D01*
X295497Y138500D02*
X298163D01*
X296830D01*
Y146497D01*
X295497Y145164D01*
X139497Y124250D02*
X131500Y118918D01*
X139497D02*
X131500Y124250D01*
Y116253D02*
Y113587D01*
Y114920D01*
X139497D01*
X138165Y116253D01*
X306997Y100996D02*
X304498Y103495D01*
X299499D01*
X297000Y100996D01*
Y98497D01*
X299499Y95998D01*
X304498D01*
X306997Y93498D01*
Y90999D01*
X304498Y88500D01*
X299499D01*
X297000Y90999D01*
X311995Y103495D02*
Y88500D01*
X316994Y93498D01*
X321992Y88500D01*
Y103495D01*
X336987Y88500D02*
X326990D01*
X336987Y98497D01*
Y100996D01*
X334488Y103495D01*
X329490D01*
X326990Y100996D01*
X93003Y90004D02*
X95502Y87505D01*
X100501D01*
X103000Y90004D01*
Y92503D01*
X100501Y95002D01*
X95502D01*
X93003Y97502D01*
Y100001D01*
X95502Y102500D01*
X100501D01*
X103000Y100001D01*
X88005Y87505D02*
Y102500D01*
X83006Y97502D01*
X78008Y102500D01*
Y87505D01*
X73010Y102500D02*
X68011D01*
X70511D01*
Y87505D01*
X73010Y90004D01*
X269000Y145750D02*
Y150748D01*
X271499D01*
X272332Y149915D01*
Y148249D01*
X271499Y147416D01*
X269000D01*
X270666D02*
X272332Y145750D01*
X273998Y149915D02*
X274832Y150748D01*
X276498D01*
X277331Y149915D01*
Y149082D01*
X276498Y148249D01*
X275665D01*
X276498D01*
X277331Y147416D01*
Y146583D01*
X276498Y145750D01*
X274832D01*
X273998Y146583D01*
X269000Y134750D02*
Y139748D01*
X271499D01*
X272332Y138915D01*
Y137249D01*
X271499Y136416D01*
X269000D01*
X270666D02*
X272332Y134750D01*
X277331D02*
X273998D01*
X277331Y138082D01*
Y138915D01*
X276498Y139748D01*
X274832D01*
X273998Y138915D01*
X326000Y150250D02*
Y145252D01*
X323501D01*
X322668Y146085D01*
Y147751D01*
X323501Y148584D01*
X326000D01*
X324334D02*
X322668Y150250D01*
X321002D02*
X319335D01*
X320168D01*
Y145252D01*
X321002Y146085D01*
D44*
X284751Y92750D02*
X289250D01*
Y94999D01*
X288500Y95749D01*
X285501D01*
X284751Y94999D01*
Y92750D01*
X285501Y97248D02*
X284751Y97998D01*
Y99498D01*
X285501Y100248D01*
X286251D01*
X287001Y99498D01*
Y98748D01*
Y99498D01*
X287750Y100248D01*
X288500D01*
X289250Y99498D01*
Y97998D01*
X288500Y97248D01*
X108001Y92750D02*
X112500D01*
Y94999D01*
X111750Y95749D01*
X108751D01*
X108001Y94999D01*
Y92750D01*
X112500Y100248D02*
Y97248D01*
X109501Y100248D01*
X108751D01*
X108001Y99498D01*
Y97998D01*
X108751Y97248D01*
M02*
