G04*
G04 #@! TF.GenerationSoftware,Altium Limited,Altium Designer,21.6.4 (81)*
G04*
G04 Layer_Color=2752767*
%FSLAX44Y44*%
%MOMM*%
G71*
G04*
G04 #@! TF.SameCoordinates,A75552D8-FC29-4B95-B53C-3B512D9A6700*
G04*
G04*
G04 #@! TF.FilePolarity,Positive*
G04*
G01*
G75*
%ADD44C,0.0508*%
%ADD47C,0.0677*%
D44*
X362708Y62518D02*
Y66582D01*
X366772D01*
Y62518D01*
X362708D01*
X383028D02*
Y66582D01*
X387092D01*
Y62518D01*
X383028D01*
X372868Y113318D02*
Y117382D01*
X376932D01*
Y113318D01*
X372868D01*
X161900Y39668D02*
X159868Y43732D01*
X163932D01*
X161900Y39668D01*
X187300D02*
X185268Y43732D01*
X189332D01*
X187300Y39668D01*
X212700D02*
X210668Y43732D01*
X214732D01*
X212700Y39668D01*
X263500D02*
X261468Y43732D01*
X265532D01*
X263500Y39668D01*
X288900D02*
X286868Y43732D01*
X290932D01*
X288900Y39668D01*
X238100D02*
X236068Y43732D01*
X240132D01*
X238100Y39668D01*
X136500D02*
X134468Y43732D01*
X138532D01*
X136500Y39668D01*
X111100D02*
X109068Y43732D01*
X113132D01*
X111100Y39668D01*
X140000Y64468D02*
X141016Y65484D01*
X142032D01*
X141016Y66500D01*
X142032Y67516D01*
X141016D01*
X140000Y68532D01*
X138984Y67516D01*
X137968D01*
X138984Y66500D01*
X137968Y65484D01*
X138984D01*
X140000Y64468D01*
X125000D02*
X126016Y65484D01*
X127032D01*
X126016Y66500D01*
X127032Y67516D01*
X126016D01*
X125000Y68532D01*
X123984Y67516D01*
X122968D01*
X123984Y66500D01*
X122968Y65484D01*
X123984D01*
X125000Y64468D01*
X380000Y169468D02*
X381016Y170484D01*
X382032D01*
X381016Y171500D01*
X382032Y172516D01*
X381016D01*
X380000Y173532D01*
X378984Y172516D01*
X377968D01*
X378984Y171500D01*
X377968Y170484D01*
X378984D01*
X380000Y169468D01*
Y139468D02*
X381016Y140484D01*
X382032D01*
X381016Y141500D01*
X382032Y142516D01*
X381016D01*
X380000Y143532D01*
X378984Y142516D01*
X377968D01*
X378984Y141500D01*
X377968Y140484D01*
X378984D01*
X380000Y139468D01*
Y49468D02*
X381016Y50484D01*
X382032D01*
X381016Y51500D01*
X382032Y52516D01*
X381016D01*
X380000Y53532D01*
X378984Y52516D01*
X377968D01*
X378984Y51500D01*
X377968Y50484D01*
X378984D01*
X380000Y49468D01*
X365000Y124468D02*
X366016Y125484D01*
X367032D01*
X366016Y126500D01*
X367032Y127516D01*
X366016D01*
X365000Y128532D01*
X363984Y127516D01*
X362968D01*
X363984Y126500D01*
X362968Y125484D01*
X363984D01*
X365000Y124468D01*
Y109468D02*
X366016Y110484D01*
X367032D01*
X366016Y111500D01*
X367032Y112516D01*
X366016D01*
X365000Y113532D01*
X363984Y112516D01*
X362968D01*
X363984Y111500D01*
X362968Y110484D01*
X363984D01*
X365000Y109468D01*
Y49468D02*
X366016Y50484D01*
X367032D01*
X366016Y51500D01*
X367032Y52516D01*
X366016D01*
X365000Y53532D01*
X363984Y52516D01*
X362968D01*
X363984Y51500D01*
X362968Y50484D01*
X363984D01*
X365000Y49468D01*
X350000Y124468D02*
X351016Y125484D01*
X352032D01*
X351016Y126500D01*
X352032Y127516D01*
X351016D01*
X350000Y128532D01*
X348984Y127516D01*
X347968D01*
X348984Y126500D01*
X347968Y125484D01*
X348984D01*
X350000Y124468D01*
Y109468D02*
X351016Y110484D01*
X352032D01*
X351016Y111500D01*
X352032Y112516D01*
X351016D01*
X350000Y113532D01*
X348984Y112516D01*
X347968D01*
X348984Y111500D01*
X347968Y110484D01*
X348984D01*
X350000Y109468D01*
Y94468D02*
X351016Y95484D01*
X352032D01*
X351016Y96500D01*
X352032Y97516D01*
X351016D01*
X350000Y98532D01*
X348984Y97516D01*
X347968D01*
X348984Y96500D01*
X347968Y95484D01*
X348984D01*
X350000Y94468D01*
Y79468D02*
X351016Y80484D01*
X352032D01*
X351016Y81500D01*
X352032Y82516D01*
X351016D01*
X350000Y83532D01*
X348984Y82516D01*
X347968D01*
X348984Y81500D01*
X347968Y80484D01*
X348984D01*
X350000Y79468D01*
Y64468D02*
X351016Y65484D01*
X352032D01*
X351016Y66500D01*
X352032Y67516D01*
X351016D01*
X350000Y68532D01*
X348984Y67516D01*
X347968D01*
X348984Y66500D01*
X347968Y65484D01*
X348984D01*
X350000Y64468D01*
Y49468D02*
X351016Y50484D01*
X352032D01*
X351016Y51500D01*
X352032Y52516D01*
X351016D01*
X350000Y53532D01*
X348984Y52516D01*
X347968D01*
X348984Y51500D01*
X347968Y50484D01*
X348984D01*
X350000Y49468D01*
Y34468D02*
X351016Y35484D01*
X352032D01*
X351016Y36500D01*
X352032Y37516D01*
X351016D01*
X350000Y38532D01*
X348984Y37516D01*
X347968D01*
X348984Y36500D01*
X347968Y35484D01*
X348984D01*
X350000Y34468D01*
X335000Y124468D02*
X336016Y125484D01*
X337032D01*
X336016Y126500D01*
X337032Y127516D01*
X336016D01*
X335000Y128532D01*
X333984Y127516D01*
X332968D01*
X333984Y126500D01*
X332968Y125484D01*
X333984D01*
X335000Y124468D01*
Y109468D02*
X336016Y110484D01*
X337032D01*
X336016Y111500D01*
X337032Y112516D01*
X336016D01*
X335000Y113532D01*
X333984Y112516D01*
X332968D01*
X333984Y111500D01*
X332968Y110484D01*
X333984D01*
X335000Y109468D01*
Y79468D02*
X336016Y80484D01*
X337032D01*
X336016Y81500D01*
X337032Y82516D01*
X336016D01*
X335000Y83532D01*
X333984Y82516D01*
X332968D01*
X333984Y81500D01*
X332968Y80484D01*
X333984D01*
X335000Y79468D01*
Y64468D02*
X336016Y65484D01*
X337032D01*
X336016Y66500D01*
X337032Y67516D01*
X336016D01*
X335000Y68532D01*
X333984Y67516D01*
X332968D01*
X333984Y66500D01*
X332968Y65484D01*
X333984D01*
X335000Y64468D01*
Y49468D02*
X336016Y50484D01*
X337032D01*
X336016Y51500D01*
X337032Y52516D01*
X336016D01*
X335000Y53532D01*
X333984Y52516D01*
X332968D01*
X333984Y51500D01*
X332968Y50484D01*
X333984D01*
X335000Y49468D01*
Y34468D02*
X336016Y35484D01*
X337032D01*
X336016Y36500D01*
X337032Y37516D01*
X336016D01*
X335000Y38532D01*
X333984Y37516D01*
X332968D01*
X333984Y36500D01*
X332968Y35484D01*
X333984D01*
X335000Y34468D01*
Y19468D02*
X336016Y20484D01*
X337032D01*
X336016Y21500D01*
X337032Y22516D01*
X336016D01*
X335000Y23532D01*
X333984Y22516D01*
X332968D01*
X333984Y21500D01*
X332968Y20484D01*
X333984D01*
X335000Y19468D01*
X320000Y109468D02*
X321016Y110484D01*
X322032D01*
X321016Y111500D01*
X322032Y112516D01*
X321016D01*
X320000Y113532D01*
X318984Y112516D01*
X317968D01*
X318984Y111500D01*
X317968Y110484D01*
X318984D01*
X320000Y109468D01*
Y94468D02*
X321016Y95484D01*
X322032D01*
X321016Y96500D01*
X322032Y97516D01*
X321016D01*
X320000Y98532D01*
X318984Y97516D01*
X317968D01*
X318984Y96500D01*
X317968Y95484D01*
X318984D01*
X320000Y94468D01*
Y79468D02*
X321016Y80484D01*
X322032D01*
X321016Y81500D01*
X322032Y82516D01*
X321016D01*
X320000Y83532D01*
X318984Y82516D01*
X317968D01*
X318984Y81500D01*
X317968Y80484D01*
X318984D01*
X320000Y79468D01*
Y64468D02*
X321016Y65484D01*
X322032D01*
X321016Y66500D01*
X322032Y67516D01*
X321016D01*
X320000Y68532D01*
X318984Y67516D01*
X317968D01*
X318984Y66500D01*
X317968Y65484D01*
X318984D01*
X320000Y64468D01*
Y49468D02*
X321016Y50484D01*
X322032D01*
X321016Y51500D01*
X322032Y52516D01*
X321016D01*
X320000Y53532D01*
X318984Y52516D01*
X317968D01*
X318984Y51500D01*
X317968Y50484D01*
X318984D01*
X320000Y49468D01*
Y34468D02*
X321016Y35484D01*
X322032D01*
X321016Y36500D01*
X322032Y37516D01*
X321016D01*
X320000Y38532D01*
X318984Y37516D01*
X317968D01*
X318984Y36500D01*
X317968Y35484D01*
X318984D01*
X320000Y34468D01*
Y19468D02*
X321016Y20484D01*
X322032D01*
X321016Y21500D01*
X322032Y22516D01*
X321016D01*
X320000Y23532D01*
X318984Y22516D01*
X317968D01*
X318984Y21500D01*
X317968Y20484D01*
X318984D01*
X320000Y19468D01*
X305000Y124468D02*
X306016Y125484D01*
X307032D01*
X306016Y126500D01*
X307032Y127516D01*
X306016D01*
X305000Y128532D01*
X303984Y127516D01*
X302968D01*
X303984Y126500D01*
X302968Y125484D01*
X303984D01*
X305000Y124468D01*
Y109468D02*
X306016Y110484D01*
X307032D01*
X306016Y111500D01*
X307032Y112516D01*
X306016D01*
X305000Y113532D01*
X303984Y112516D01*
X302968D01*
X303984Y111500D01*
X302968Y110484D01*
X303984D01*
X305000Y109468D01*
Y79468D02*
X306016Y80484D01*
X307032D01*
X306016Y81500D01*
X307032Y82516D01*
X306016D01*
X305000Y83532D01*
X303984Y82516D01*
X302968D01*
X303984Y81500D01*
X302968Y80484D01*
X303984D01*
X305000Y79468D01*
Y64468D02*
X306016Y65484D01*
X307032D01*
X306016Y66500D01*
X307032Y67516D01*
X306016D01*
X305000Y68532D01*
X303984Y67516D01*
X302968D01*
X303984Y66500D01*
X302968Y65484D01*
X303984D01*
X305000Y64468D01*
Y49468D02*
X306016Y50484D01*
X307032D01*
X306016Y51500D01*
X307032Y52516D01*
X306016D01*
X305000Y53532D01*
X303984Y52516D01*
X302968D01*
X303984Y51500D01*
X302968Y50484D01*
X303984D01*
X305000Y49468D01*
Y34468D02*
X306016Y35484D01*
X307032D01*
X306016Y36500D01*
X307032Y37516D01*
X306016D01*
X305000Y38532D01*
X303984Y37516D01*
X302968D01*
X303984Y36500D01*
X302968Y35484D01*
X303984D01*
X305000Y34468D01*
Y19468D02*
X306016Y20484D01*
X307032D01*
X306016Y21500D01*
X307032Y22516D01*
X306016D01*
X305000Y23532D01*
X303984Y22516D01*
X302968D01*
X303984Y21500D01*
X302968Y20484D01*
X303984D01*
X305000Y19468D01*
X290000Y124468D02*
X291016Y125484D01*
X292032D01*
X291016Y126500D01*
X292032Y127516D01*
X291016D01*
X290000Y128532D01*
X288984Y127516D01*
X287968D01*
X288984Y126500D01*
X287968Y125484D01*
X288984D01*
X290000Y124468D01*
Y109468D02*
X291016Y110484D01*
X292032D01*
X291016Y111500D01*
X292032Y112516D01*
X291016D01*
X290000Y113532D01*
X288984Y112516D01*
X287968D01*
X288984Y111500D01*
X287968Y110484D01*
X288984D01*
X290000Y109468D01*
Y79468D02*
X291016Y80484D01*
X292032D01*
X291016Y81500D01*
X292032Y82516D01*
X291016D01*
X290000Y83532D01*
X288984Y82516D01*
X287968D01*
X288984Y81500D01*
X287968Y80484D01*
X288984D01*
X290000Y79468D01*
Y64468D02*
X291016Y65484D01*
X292032D01*
X291016Y66500D01*
X292032Y67516D01*
X291016D01*
X290000Y68532D01*
X288984Y67516D01*
X287968D01*
X288984Y66500D01*
X287968Y65484D01*
X288984D01*
X290000Y64468D01*
Y19468D02*
X291016Y20484D01*
X292032D01*
X291016Y21500D01*
X292032Y22516D01*
X291016D01*
X290000Y23532D01*
X288984Y22516D01*
X287968D01*
X288984Y21500D01*
X287968Y20484D01*
X288984D01*
X290000Y19468D01*
X275000Y124468D02*
X276016Y125484D01*
X277032D01*
X276016Y126500D01*
X277032Y127516D01*
X276016D01*
X275000Y128532D01*
X273984Y127516D01*
X272968D01*
X273984Y126500D01*
X272968Y125484D01*
X273984D01*
X275000Y124468D01*
Y109468D02*
X276016Y110484D01*
X277032D01*
X276016Y111500D01*
X277032Y112516D01*
X276016D01*
X275000Y113532D01*
X273984Y112516D01*
X272968D01*
X273984Y111500D01*
X272968Y110484D01*
X273984D01*
X275000Y109468D01*
Y79468D02*
X276016Y80484D01*
X277032D01*
X276016Y81500D01*
X277032Y82516D01*
X276016D01*
X275000Y83532D01*
X273984Y82516D01*
X272968D01*
X273984Y81500D01*
X272968Y80484D01*
X273984D01*
X275000Y79468D01*
Y64468D02*
X276016Y65484D01*
X277032D01*
X276016Y66500D01*
X277032Y67516D01*
X276016D01*
X275000Y68532D01*
X273984Y67516D01*
X272968D01*
X273984Y66500D01*
X272968Y65484D01*
X273984D01*
X275000Y64468D01*
Y49468D02*
X276016Y50484D01*
X277032D01*
X276016Y51500D01*
X277032Y52516D01*
X276016D01*
X275000Y53532D01*
X273984Y52516D01*
X272968D01*
X273984Y51500D01*
X272968Y50484D01*
X273984D01*
X275000Y49468D01*
Y34468D02*
X276016Y35484D01*
X277032D01*
X276016Y36500D01*
X277032Y37516D01*
X276016D01*
X275000Y38532D01*
X273984Y37516D01*
X272968D01*
X273984Y36500D01*
X272968Y35484D01*
X273984D01*
X275000Y34468D01*
Y19468D02*
X276016Y20484D01*
X277032D01*
X276016Y21500D01*
X277032Y22516D01*
X276016D01*
X275000Y23532D01*
X273984Y22516D01*
X272968D01*
X273984Y21500D01*
X272968Y20484D01*
X273984D01*
X275000Y19468D01*
X260000Y169468D02*
X261016Y170484D01*
X262032D01*
X261016Y171500D01*
X262032Y172516D01*
X261016D01*
X260000Y173532D01*
X258984Y172516D01*
X257968D01*
X258984Y171500D01*
X257968Y170484D01*
X258984D01*
X260000Y169468D01*
Y109468D02*
X261016Y110484D01*
X262032D01*
X261016Y111500D01*
X262032Y112516D01*
X261016D01*
X260000Y113532D01*
X258984Y112516D01*
X257968D01*
X258984Y111500D01*
X257968Y110484D01*
X258984D01*
X260000Y109468D01*
Y79468D02*
X261016Y80484D01*
X262032D01*
X261016Y81500D01*
X262032Y82516D01*
X261016D01*
X260000Y83532D01*
X258984Y82516D01*
X257968D01*
X258984Y81500D01*
X257968Y80484D01*
X258984D01*
X260000Y79468D01*
Y64468D02*
X261016Y65484D01*
X262032D01*
X261016Y66500D01*
X262032Y67516D01*
X261016D01*
X260000Y68532D01*
X258984Y67516D01*
X257968D01*
X258984Y66500D01*
X257968Y65484D01*
X258984D01*
X260000Y64468D01*
Y19468D02*
X261016Y20484D01*
X262032D01*
X261016Y21500D01*
X262032Y22516D01*
X261016D01*
X260000Y23532D01*
X258984Y22516D01*
X257968D01*
X258984Y21500D01*
X257968Y20484D01*
X258984D01*
X260000Y19468D01*
X245000D02*
X246016Y20484D01*
X247032D01*
X246016Y21500D01*
X247032Y22516D01*
X246016D01*
X245000Y23532D01*
X243984Y22516D01*
X242968D01*
X243984Y21500D01*
X242968Y20484D01*
X243984D01*
X245000Y19468D01*
X230000Y49468D02*
X231016Y50484D01*
X232032D01*
X231016Y51500D01*
X232032Y52516D01*
X231016D01*
X230000Y53532D01*
X228984Y52516D01*
X227968D01*
X228984Y51500D01*
X227968Y50484D01*
X228984D01*
X230000Y49468D01*
Y19468D02*
X231016Y20484D01*
X232032D01*
X231016Y21500D01*
X232032Y22516D01*
X231016D01*
X230000Y23532D01*
X228984Y22516D01*
X227968D01*
X228984Y21500D01*
X227968Y20484D01*
X228984D01*
X230000Y19468D01*
X215000Y154468D02*
X216016Y155484D01*
X217032D01*
X216016Y156500D01*
X217032Y157516D01*
X216016D01*
X215000Y158532D01*
X213984Y157516D01*
X212968D01*
X213984Y156500D01*
X212968Y155484D01*
X213984D01*
X215000Y154468D01*
Y139468D02*
X216016Y140484D01*
X217032D01*
X216016Y141500D01*
X217032Y142516D01*
X216016D01*
X215000Y143532D01*
X213984Y142516D01*
X212968D01*
X213984Y141500D01*
X212968Y140484D01*
X213984D01*
X215000Y139468D01*
Y124468D02*
X216016Y125484D01*
X217032D01*
X216016Y126500D01*
X217032Y127516D01*
X216016D01*
X215000Y128532D01*
X213984Y127516D01*
X212968D01*
X213984Y126500D01*
X212968Y125484D01*
X213984D01*
X215000Y124468D01*
Y19468D02*
X216016Y20484D01*
X217032D01*
X216016Y21500D01*
X217032Y22516D01*
X216016D01*
X215000Y23532D01*
X213984Y22516D01*
X212968D01*
X213984Y21500D01*
X212968Y20484D01*
X213984D01*
X215000Y19468D01*
X200000Y169468D02*
X201016Y170484D01*
X202032D01*
X201016Y171500D01*
X202032Y172516D01*
X201016D01*
X200000Y173532D01*
X198984Y172516D01*
X197968D01*
X198984Y171500D01*
X197968Y170484D01*
X198984D01*
X200000Y169468D01*
Y154468D02*
X201016Y155484D01*
X202032D01*
X201016Y156500D01*
X202032Y157516D01*
X201016D01*
X200000Y158532D01*
X198984Y157516D01*
X197968D01*
X198984Y156500D01*
X197968Y155484D01*
X198984D01*
X200000Y154468D01*
Y139468D02*
X201016Y140484D01*
X202032D01*
X201016Y141500D01*
X202032Y142516D01*
X201016D01*
X200000Y143532D01*
X198984Y142516D01*
X197968D01*
X198984Y141500D01*
X197968Y140484D01*
X198984D01*
X200000Y139468D01*
Y124468D02*
X201016Y125484D01*
X202032D01*
X201016Y126500D01*
X202032Y127516D01*
X201016D01*
X200000Y128532D01*
X198984Y127516D01*
X197968D01*
X198984Y126500D01*
X197968Y125484D01*
X198984D01*
X200000Y124468D01*
Y34468D02*
X201016Y35484D01*
X202032D01*
X201016Y36500D01*
X202032Y37516D01*
X201016D01*
X200000Y38532D01*
X198984Y37516D01*
X197968D01*
X198984Y36500D01*
X197968Y35484D01*
X198984D01*
X200000Y34468D01*
Y19468D02*
X201016Y20484D01*
X202032D01*
X201016Y21500D01*
X202032Y22516D01*
X201016D01*
X200000Y23532D01*
X198984Y22516D01*
X197968D01*
X198984Y21500D01*
X197968Y20484D01*
X198984D01*
X200000Y19468D01*
X185000Y154468D02*
X186016Y155484D01*
X187032D01*
X186016Y156500D01*
X187032Y157516D01*
X186016D01*
X185000Y158532D01*
X183984Y157516D01*
X182968D01*
X183984Y156500D01*
X182968Y155484D01*
X183984D01*
X185000Y154468D01*
Y139468D02*
X186016Y140484D01*
X187032D01*
X186016Y141500D01*
X187032Y142516D01*
X186016D01*
X185000Y143532D01*
X183984Y142516D01*
X182968D01*
X183984Y141500D01*
X182968Y140484D01*
X183984D01*
X185000Y139468D01*
Y124468D02*
X186016Y125484D01*
X187032D01*
X186016Y126500D01*
X187032Y127516D01*
X186016D01*
X185000Y128532D01*
X183984Y127516D01*
X182968D01*
X183984Y126500D01*
X182968Y125484D01*
X183984D01*
X185000Y124468D01*
Y19468D02*
X186016Y20484D01*
X187032D01*
X186016Y21500D01*
X187032Y22516D01*
X186016D01*
X185000Y23532D01*
X183984Y22516D01*
X182968D01*
X183984Y21500D01*
X182968Y20484D01*
X183984D01*
X185000Y19468D01*
X170000D02*
X171016Y20484D01*
X172032D01*
X171016Y21500D01*
X172032Y22516D01*
X171016D01*
X170000Y23532D01*
X168984Y22516D01*
X167968D01*
X168984Y21500D01*
X167968Y20484D01*
X168984D01*
X170000Y19468D01*
X155000D02*
X156016Y20484D01*
X157032D01*
X156016Y21500D01*
X157032Y22516D01*
X156016D01*
X155000Y23532D01*
X153984Y22516D01*
X152968D01*
X153984Y21500D01*
X152968Y20484D01*
X153984D01*
X155000Y19468D01*
X140000Y169468D02*
X141016Y170484D01*
X142032D01*
X141016Y171500D01*
X142032Y172516D01*
X141016D01*
X140000Y173532D01*
X138984Y172516D01*
X137968D01*
X138984Y171500D01*
X137968Y170484D01*
X138984D01*
X140000Y169468D01*
Y154468D02*
X141016Y155484D01*
X142032D01*
X141016Y156500D01*
X142032Y157516D01*
X141016D01*
X140000Y158532D01*
X138984Y157516D01*
X137968D01*
X138984Y156500D01*
X137968Y155484D01*
X138984D01*
X140000Y154468D01*
Y19468D02*
X141016Y20484D01*
X142032D01*
X141016Y21500D01*
X142032Y22516D01*
X141016D01*
X140000Y23532D01*
X138984Y22516D01*
X137968D01*
X138984Y21500D01*
X137968Y20484D01*
X138984D01*
X140000Y19468D01*
X125000Y169468D02*
X126016Y170484D01*
X127032D01*
X126016Y171500D01*
X127032Y172516D01*
X126016D01*
X125000Y173532D01*
X123984Y172516D01*
X122968D01*
X123984Y171500D01*
X122968Y170484D01*
X123984D01*
X125000Y169468D01*
Y154468D02*
X126016Y155484D01*
X127032D01*
X126016Y156500D01*
X127032Y157516D01*
X126016D01*
X125000Y158532D01*
X123984Y157516D01*
X122968D01*
X123984Y156500D01*
X122968Y155484D01*
X123984D01*
X125000Y154468D01*
Y49468D02*
X126016Y50484D01*
X127032D01*
X126016Y51500D01*
X127032Y52516D01*
X126016D01*
X125000Y53532D01*
X123984Y52516D01*
X122968D01*
X123984Y51500D01*
X122968Y50484D01*
X123984D01*
X125000Y49468D01*
Y34468D02*
X126016Y35484D01*
X127032D01*
X126016Y36500D01*
X127032Y37516D01*
X126016D01*
X125000Y38532D01*
X123984Y37516D01*
X122968D01*
X123984Y36500D01*
X122968Y35484D01*
X123984D01*
X125000Y34468D01*
Y19468D02*
X126016Y20484D01*
X127032D01*
X126016Y21500D01*
X127032Y22516D01*
X126016D01*
X125000Y23532D01*
X123984Y22516D01*
X122968D01*
X123984Y21500D01*
X122968Y20484D01*
X123984D01*
X125000Y19468D01*
X110000Y169468D02*
X111016Y170484D01*
X112032D01*
X111016Y171500D01*
X112032Y172516D01*
X111016D01*
X110000Y173532D01*
X108984Y172516D01*
X107968D01*
X108984Y171500D01*
X107968Y170484D01*
X108984D01*
X110000Y169468D01*
Y154468D02*
X111016Y155484D01*
X112032D01*
X111016Y156500D01*
X112032Y157516D01*
X111016D01*
X110000Y158532D01*
X108984Y157516D01*
X107968D01*
X108984Y156500D01*
X107968Y155484D01*
X108984D01*
X110000Y154468D01*
Y139468D02*
X111016Y140484D01*
X112032D01*
X111016Y141500D01*
X112032Y142516D01*
X111016D01*
X110000Y143532D01*
X108984Y142516D01*
X107968D01*
X108984Y141500D01*
X107968Y140484D01*
X108984D01*
X110000Y139468D01*
Y124468D02*
X111016Y125484D01*
X112032D01*
X111016Y126500D01*
X112032Y127516D01*
X111016D01*
X110000Y128532D01*
X108984Y127516D01*
X107968D01*
X108984Y126500D01*
X107968Y125484D01*
X108984D01*
X110000Y124468D01*
Y109468D02*
X111016Y110484D01*
X112032D01*
X111016Y111500D01*
X112032Y112516D01*
X111016D01*
X110000Y113532D01*
X108984Y112516D01*
X107968D01*
X108984Y111500D01*
X107968Y110484D01*
X108984D01*
X110000Y109468D01*
Y79468D02*
X111016Y80484D01*
X112032D01*
X111016Y81500D01*
X112032Y82516D01*
X111016D01*
X110000Y83532D01*
X108984Y82516D01*
X107968D01*
X108984Y81500D01*
X107968Y80484D01*
X108984D01*
X110000Y79468D01*
Y64468D02*
X111016Y65484D01*
X112032D01*
X111016Y66500D01*
X112032Y67516D01*
X111016D01*
X110000Y68532D01*
X108984Y67516D01*
X107968D01*
X108984Y66500D01*
X107968Y65484D01*
X108984D01*
X110000Y64468D01*
Y19468D02*
X111016Y20484D01*
X112032D01*
X111016Y21500D01*
X112032Y22516D01*
X111016D01*
X110000Y23532D01*
X108984Y22516D01*
X107968D01*
X108984Y21500D01*
X107968Y20484D01*
X108984D01*
X110000Y19468D01*
X95000Y169468D02*
X96016Y170484D01*
X97032D01*
X96016Y171500D01*
X97032Y172516D01*
X96016D01*
X95000Y173532D01*
X93984Y172516D01*
X92968D01*
X93984Y171500D01*
X92968Y170484D01*
X93984D01*
X95000Y169468D01*
Y154468D02*
X96016Y155484D01*
X97032D01*
X96016Y156500D01*
X97032Y157516D01*
X96016D01*
X95000Y158532D01*
X93984Y157516D01*
X92968D01*
X93984Y156500D01*
X92968Y155484D01*
X93984D01*
X95000Y154468D01*
Y139468D02*
X96016Y140484D01*
X97032D01*
X96016Y141500D01*
X97032Y142516D01*
X96016D01*
X95000Y143532D01*
X93984Y142516D01*
X92968D01*
X93984Y141500D01*
X92968Y140484D01*
X93984D01*
X95000Y139468D01*
Y124468D02*
X96016Y125484D01*
X97032D01*
X96016Y126500D01*
X97032Y127516D01*
X96016D01*
X95000Y128532D01*
X93984Y127516D01*
X92968D01*
X93984Y126500D01*
X92968Y125484D01*
X93984D01*
X95000Y124468D01*
Y109468D02*
X96016Y110484D01*
X97032D01*
X96016Y111500D01*
X97032Y112516D01*
X96016D01*
X95000Y113532D01*
X93984Y112516D01*
X92968D01*
X93984Y111500D01*
X92968Y110484D01*
X93984D01*
X95000Y109468D01*
Y79468D02*
X96016Y80484D01*
X97032D01*
X96016Y81500D01*
X97032Y82516D01*
X96016D01*
X95000Y83532D01*
X93984Y82516D01*
X92968D01*
X93984Y81500D01*
X92968Y80484D01*
X93984D01*
X95000Y79468D01*
Y64468D02*
X96016Y65484D01*
X97032D01*
X96016Y66500D01*
X97032Y67516D01*
X96016D01*
X95000Y68532D01*
X93984Y67516D01*
X92968D01*
X93984Y66500D01*
X92968Y65484D01*
X93984D01*
X95000Y64468D01*
Y49468D02*
X96016Y50484D01*
X97032D01*
X96016Y51500D01*
X97032Y52516D01*
X96016D01*
X95000Y53532D01*
X93984Y52516D01*
X92968D01*
X93984Y51500D01*
X92968Y50484D01*
X93984D01*
X95000Y49468D01*
Y34468D02*
X96016Y35484D01*
X97032D01*
X96016Y36500D01*
X97032Y37516D01*
X96016D01*
X95000Y38532D01*
X93984Y37516D01*
X92968D01*
X93984Y36500D01*
X92968Y35484D01*
X93984D01*
X95000Y34468D01*
Y19468D02*
X96016Y20484D01*
X97032D01*
X96016Y21500D01*
X97032Y22516D01*
X96016D01*
X95000Y23532D01*
X93984Y22516D01*
X92968D01*
X93984Y21500D01*
X92968Y20484D01*
X93984D01*
X95000Y19468D01*
X80000Y169468D02*
X81016Y170484D01*
X82032D01*
X81016Y171500D01*
X82032Y172516D01*
X81016D01*
X80000Y173532D01*
X78984Y172516D01*
X77968D01*
X78984Y171500D01*
X77968Y170484D01*
X78984D01*
X80000Y169468D01*
Y154468D02*
X81016Y155484D01*
X82032D01*
X81016Y156500D01*
X82032Y157516D01*
X81016D01*
X80000Y158532D01*
X78984Y157516D01*
X77968D01*
X78984Y156500D01*
X77968Y155484D01*
X78984D01*
X80000Y154468D01*
Y139468D02*
X81016Y140484D01*
X82032D01*
X81016Y141500D01*
X82032Y142516D01*
X81016D01*
X80000Y143532D01*
X78984Y142516D01*
X77968D01*
X78984Y141500D01*
X77968Y140484D01*
X78984D01*
X80000Y139468D01*
Y124468D02*
X81016Y125484D01*
X82032D01*
X81016Y126500D01*
X82032Y127516D01*
X81016D01*
X80000Y128532D01*
X78984Y127516D01*
X77968D01*
X78984Y126500D01*
X77968Y125484D01*
X78984D01*
X80000Y124468D01*
Y109468D02*
X81016Y110484D01*
X82032D01*
X81016Y111500D01*
X82032Y112516D01*
X81016D01*
X80000Y113532D01*
X78984Y112516D01*
X77968D01*
X78984Y111500D01*
X77968Y110484D01*
X78984D01*
X80000Y109468D01*
Y94468D02*
X81016Y95484D01*
X82032D01*
X81016Y96500D01*
X82032Y97516D01*
X81016D01*
X80000Y98532D01*
X78984Y97516D01*
X77968D01*
X78984Y96500D01*
X77968Y95484D01*
X78984D01*
X80000Y94468D01*
Y79468D02*
X81016Y80484D01*
X82032D01*
X81016Y81500D01*
X82032Y82516D01*
X81016D01*
X80000Y83532D01*
X78984Y82516D01*
X77968D01*
X78984Y81500D01*
X77968Y80484D01*
X78984D01*
X80000Y79468D01*
Y64468D02*
X81016Y65484D01*
X82032D01*
X81016Y66500D01*
X82032Y67516D01*
X81016D01*
X80000Y68532D01*
X78984Y67516D01*
X77968D01*
X78984Y66500D01*
X77968Y65484D01*
X78984D01*
X80000Y64468D01*
Y49468D02*
X81016Y50484D01*
X82032D01*
X81016Y51500D01*
X82032Y52516D01*
X81016D01*
X80000Y53532D01*
X78984Y52516D01*
X77968D01*
X78984Y51500D01*
X77968Y50484D01*
X78984D01*
X80000Y49468D01*
Y34468D02*
X81016Y35484D01*
X82032D01*
X81016Y36500D01*
X82032Y37516D01*
X81016D01*
X80000Y38532D01*
X78984Y37516D01*
X77968D01*
X78984Y36500D01*
X77968Y35484D01*
X78984D01*
X80000Y34468D01*
Y19468D02*
X81016Y20484D01*
X82032D01*
X81016Y21500D01*
X82032Y22516D01*
X81016D01*
X80000Y23532D01*
X78984Y22516D01*
X77968D01*
X78984Y21500D01*
X77968Y20484D01*
X78984D01*
X80000Y19468D01*
X65000Y169468D02*
X66016Y170484D01*
X67032D01*
X66016Y171500D01*
X67032Y172516D01*
X66016D01*
X65000Y173532D01*
X63984Y172516D01*
X62968D01*
X63984Y171500D01*
X62968Y170484D01*
X63984D01*
X65000Y169468D01*
Y154468D02*
X66016Y155484D01*
X67032D01*
X66016Y156500D01*
X67032Y157516D01*
X66016D01*
X65000Y158532D01*
X63984Y157516D01*
X62968D01*
X63984Y156500D01*
X62968Y155484D01*
X63984D01*
X65000Y154468D01*
Y139468D02*
X66016Y140484D01*
X67032D01*
X66016Y141500D01*
X67032Y142516D01*
X66016D01*
X65000Y143532D01*
X63984Y142516D01*
X62968D01*
X63984Y141500D01*
X62968Y140484D01*
X63984D01*
X65000Y139468D01*
Y124468D02*
X66016Y125484D01*
X67032D01*
X66016Y126500D01*
X67032Y127516D01*
X66016D01*
X65000Y128532D01*
X63984Y127516D01*
X62968D01*
X63984Y126500D01*
X62968Y125484D01*
X63984D01*
X65000Y124468D01*
Y109468D02*
X66016Y110484D01*
X67032D01*
X66016Y111500D01*
X67032Y112516D01*
X66016D01*
X65000Y113532D01*
X63984Y112516D01*
X62968D01*
X63984Y111500D01*
X62968Y110484D01*
X63984D01*
X65000Y109468D01*
Y79468D02*
X66016Y80484D01*
X67032D01*
X66016Y81500D01*
X67032Y82516D01*
X66016D01*
X65000Y83532D01*
X63984Y82516D01*
X62968D01*
X63984Y81500D01*
X62968Y80484D01*
X63984D01*
X65000Y79468D01*
Y64468D02*
X66016Y65484D01*
X67032D01*
X66016Y66500D01*
X67032Y67516D01*
X66016D01*
X65000Y68532D01*
X63984Y67516D01*
X62968D01*
X63984Y66500D01*
X62968Y65484D01*
X63984D01*
X65000Y64468D01*
Y49468D02*
X66016Y50484D01*
X67032D01*
X66016Y51500D01*
X67032Y52516D01*
X66016D01*
X65000Y53532D01*
X63984Y52516D01*
X62968D01*
X63984Y51500D01*
X62968Y50484D01*
X63984D01*
X65000Y49468D01*
Y34468D02*
X66016Y35484D01*
X67032D01*
X66016Y36500D01*
X67032Y37516D01*
X66016D01*
X65000Y38532D01*
X63984Y37516D01*
X62968D01*
X63984Y36500D01*
X62968Y35484D01*
X63984D01*
X65000Y34468D01*
Y19468D02*
X66016Y20484D01*
X67032D01*
X66016Y21500D01*
X67032Y22516D01*
X66016D01*
X65000Y23532D01*
X63984Y22516D01*
X62968D01*
X63984Y21500D01*
X62968Y20484D01*
X63984D01*
X65000Y19468D01*
X50000Y169468D02*
X51016Y170484D01*
X52032D01*
X51016Y171500D01*
X52032Y172516D01*
X51016D01*
X50000Y173532D01*
X48984Y172516D01*
X47968D01*
X48984Y171500D01*
X47968Y170484D01*
X48984D01*
X50000Y169468D01*
Y154468D02*
X51016Y155484D01*
X52032D01*
X51016Y156500D01*
X52032Y157516D01*
X51016D01*
X50000Y158532D01*
X48984Y157516D01*
X47968D01*
X48984Y156500D01*
X47968Y155484D01*
X48984D01*
X50000Y154468D01*
Y139468D02*
X51016Y140484D01*
X52032D01*
X51016Y141500D01*
X52032Y142516D01*
X51016D01*
X50000Y143532D01*
X48984Y142516D01*
X47968D01*
X48984Y141500D01*
X47968Y140484D01*
X48984D01*
X50000Y139468D01*
Y124468D02*
X51016Y125484D01*
X52032D01*
X51016Y126500D01*
X52032Y127516D01*
X51016D01*
X50000Y128532D01*
X48984Y127516D01*
X47968D01*
X48984Y126500D01*
X47968Y125484D01*
X48984D01*
X50000Y124468D01*
Y109468D02*
X51016Y110484D01*
X52032D01*
X51016Y111500D01*
X52032Y112516D01*
X51016D01*
X50000Y113532D01*
X48984Y112516D01*
X47968D01*
X48984Y111500D01*
X47968Y110484D01*
X48984D01*
X50000Y109468D01*
Y94468D02*
X51016Y95484D01*
X52032D01*
X51016Y96500D01*
X52032Y97516D01*
X51016D01*
X50000Y98532D01*
X48984Y97516D01*
X47968D01*
X48984Y96500D01*
X47968Y95484D01*
X48984D01*
X50000Y94468D01*
Y79468D02*
X51016Y80484D01*
X52032D01*
X51016Y81500D01*
X52032Y82516D01*
X51016D01*
X50000Y83532D01*
X48984Y82516D01*
X47968D01*
X48984Y81500D01*
X47968Y80484D01*
X48984D01*
X50000Y79468D01*
Y64468D02*
X51016Y65484D01*
X52032D01*
X51016Y66500D01*
X52032Y67516D01*
X51016D01*
X50000Y68532D01*
X48984Y67516D01*
X47968D01*
X48984Y66500D01*
X47968Y65484D01*
X48984D01*
X50000Y64468D01*
Y49468D02*
X51016Y50484D01*
X52032D01*
X51016Y51500D01*
X52032Y52516D01*
X51016D01*
X50000Y53532D01*
X48984Y52516D01*
X47968D01*
X48984Y51500D01*
X47968Y50484D01*
X48984D01*
X50000Y49468D01*
Y34468D02*
X51016Y35484D01*
X52032D01*
X51016Y36500D01*
X52032Y37516D01*
X51016D01*
X50000Y38532D01*
X48984Y37516D01*
X47968D01*
X48984Y36500D01*
X47968Y35484D01*
X48984D01*
X50000Y34468D01*
X35000Y169468D02*
X36016Y170484D01*
X37032D01*
X36016Y171500D01*
X37032Y172516D01*
X36016D01*
X35000Y173532D01*
X33984Y172516D01*
X32968D01*
X33984Y171500D01*
X32968Y170484D01*
X33984D01*
X35000Y169468D01*
Y154468D02*
X36016Y155484D01*
X37032D01*
X36016Y156500D01*
X37032Y157516D01*
X36016D01*
X35000Y158532D01*
X33984Y157516D01*
X32968D01*
X33984Y156500D01*
X32968Y155484D01*
X33984D01*
X35000Y154468D01*
Y139468D02*
X36016Y140484D01*
X37032D01*
X36016Y141500D01*
X37032Y142516D01*
X36016D01*
X35000Y143532D01*
X33984Y142516D01*
X32968D01*
X33984Y141500D01*
X32968Y140484D01*
X33984D01*
X35000Y139468D01*
Y124468D02*
X36016Y125484D01*
X37032D01*
X36016Y126500D01*
X37032Y127516D01*
X36016D01*
X35000Y128532D01*
X33984Y127516D01*
X32968D01*
X33984Y126500D01*
X32968Y125484D01*
X33984D01*
X35000Y124468D01*
Y109468D02*
X36016Y110484D01*
X37032D01*
X36016Y111500D01*
X37032Y112516D01*
X36016D01*
X35000Y113532D01*
X33984Y112516D01*
X32968D01*
X33984Y111500D01*
X32968Y110484D01*
X33984D01*
X35000Y109468D01*
Y94468D02*
X36016Y95484D01*
X37032D01*
X36016Y96500D01*
X37032Y97516D01*
X36016D01*
X35000Y98532D01*
X33984Y97516D01*
X32968D01*
X33984Y96500D01*
X32968Y95484D01*
X33984D01*
X35000Y94468D01*
Y79468D02*
X36016Y80484D01*
X37032D01*
X36016Y81500D01*
X37032Y82516D01*
X36016D01*
X35000Y83532D01*
X33984Y82516D01*
X32968D01*
X33984Y81500D01*
X32968Y80484D01*
X33984D01*
X35000Y79468D01*
Y64468D02*
X36016Y65484D01*
X37032D01*
X36016Y66500D01*
X37032Y67516D01*
X36016D01*
X35000Y68532D01*
X33984Y67516D01*
X32968D01*
X33984Y66500D01*
X32968Y65484D01*
X33984D01*
X35000Y64468D01*
Y49468D02*
X36016Y50484D01*
X37032D01*
X36016Y51500D01*
X37032Y52516D01*
X36016D01*
X35000Y53532D01*
X33984Y52516D01*
X32968D01*
X33984Y51500D01*
X32968Y50484D01*
X33984D01*
X35000Y49468D01*
X20000Y169468D02*
X21016Y170484D01*
X22032D01*
X21016Y171500D01*
X22032Y172516D01*
X21016D01*
X20000Y173532D01*
X18984Y172516D01*
X17968D01*
X18984Y171500D01*
X17968Y170484D01*
X18984D01*
X20000Y169468D01*
Y154468D02*
X21016Y155484D01*
X22032D01*
X21016Y156500D01*
X22032Y157516D01*
X21016D01*
X20000Y158532D01*
X18984Y157516D01*
X17968D01*
X18984Y156500D01*
X17968Y155484D01*
X18984D01*
X20000Y154468D01*
Y139468D02*
X21016Y140484D01*
X22032D01*
X21016Y141500D01*
X22032Y142516D01*
X21016D01*
X20000Y143532D01*
X18984Y142516D01*
X17968D01*
X18984Y141500D01*
X17968Y140484D01*
X18984D01*
X20000Y139468D01*
Y124468D02*
X21016Y125484D01*
X22032D01*
X21016Y126500D01*
X22032Y127516D01*
X21016D01*
X20000Y128532D01*
X18984Y127516D01*
X17968D01*
X18984Y126500D01*
X17968Y125484D01*
X18984D01*
X20000Y124468D01*
Y109468D02*
X21016Y110484D01*
X22032D01*
X21016Y111500D01*
X22032Y112516D01*
X21016D01*
X20000Y113532D01*
X18984Y112516D01*
X17968D01*
X18984Y111500D01*
X17968Y110484D01*
X18984D01*
X20000Y109468D01*
Y94468D02*
X21016Y95484D01*
X22032D01*
X21016Y96500D01*
X22032Y97516D01*
X21016D01*
X20000Y98532D01*
X18984Y97516D01*
X17968D01*
X18984Y96500D01*
X17968Y95484D01*
X18984D01*
X20000Y94468D01*
Y79468D02*
X21016Y80484D01*
X22032D01*
X21016Y81500D01*
X22032Y82516D01*
X21016D01*
X20000Y83532D01*
X18984Y82516D01*
X17968D01*
X18984Y81500D01*
X17968Y80484D01*
X18984D01*
X20000Y79468D01*
Y64468D02*
X21016Y65484D01*
X22032D01*
X21016Y66500D01*
X22032Y67516D01*
X21016D01*
X20000Y68532D01*
X18984Y67516D01*
X17968D01*
X18984Y66500D01*
X17968Y65484D01*
X18984D01*
X20000Y64468D01*
Y49468D02*
X21016Y50484D01*
X22032D01*
X21016Y51500D01*
X22032Y52516D01*
X21016D01*
X20000Y53532D01*
X18984Y52516D01*
X17968D01*
X18984Y51500D01*
X17968Y50484D01*
X18984D01*
X20000Y49468D01*
X170500Y58968D02*
X171516Y59984D01*
X172532D01*
X171516Y61000D01*
X172532Y62016D01*
X171516D01*
X170500Y63032D01*
X169484Y62016D01*
X168468D01*
X169484Y61000D01*
X168468Y59984D01*
X169484D01*
X170500Y58968D01*
X196250D02*
X197266Y59984D01*
X198282D01*
X197266Y61000D01*
X198282Y62016D01*
X197266D01*
X196250Y63032D01*
X195234Y62016D01*
X194218D01*
X195234Y61000D01*
X194218Y59984D01*
X195234D01*
X196250Y58968D01*
X182470Y53124D02*
X183486Y54141D01*
X184502D01*
X183486Y55156D01*
X184502Y56172D01*
X183486D01*
X182470Y57189D01*
X181454Y56172D01*
X180438D01*
X181454Y55156D01*
X180438Y54141D01*
X181454D01*
X182470Y53124D01*
X331250Y145968D02*
X332266Y146984D01*
X333282D01*
X332266Y148000D01*
X333282Y149016D01*
X332266D01*
X331250Y150032D01*
X330234Y149016D01*
X329218D01*
X330234Y148000D01*
X329218Y146984D01*
X330234D01*
X331250Y145968D01*
X254000Y126468D02*
X255016Y127484D01*
X256032D01*
X255016Y128500D01*
X256032Y129516D01*
X255016D01*
X254000Y130532D01*
X252984Y129516D01*
X251968D01*
X252984Y128500D01*
X251968Y127484D01*
X252984D01*
X254000Y126468D01*
X350000Y152968D02*
X351016Y153984D01*
X352032D01*
X351016Y155000D01*
X352032Y156016D01*
X351016D01*
X350000Y157032D01*
X348984Y156016D01*
X347968D01*
X348984Y155000D01*
X347968Y153984D01*
X348984D01*
X350000Y152968D01*
X355000Y139468D02*
X356016Y140484D01*
X357032D01*
X356016Y141500D01*
X357032Y142516D01*
X356016D01*
X355000Y143532D01*
X353984Y142516D01*
X352968D01*
X353984Y141500D01*
X352968Y140484D01*
X353984D01*
X355000Y139468D01*
X365000Y152968D02*
X366016Y153984D01*
X367032D01*
X366016Y155000D01*
X367032Y156016D01*
X366016D01*
X365000Y157032D01*
X363984Y156016D01*
X362968D01*
X363984Y155000D01*
X362968Y153984D01*
X363984D01*
X365000Y152968D01*
X50000Y19468D02*
X51016Y20484D01*
X52032D01*
X51016Y21500D01*
X52032Y22516D01*
X51016D01*
X50000Y23532D01*
X48984Y22516D01*
X47968D01*
X48984Y21500D01*
X47968Y20484D01*
X48984D01*
X50000Y19468D01*
X350000D02*
X351016Y20484D01*
X352032D01*
X351016Y21500D01*
X352032Y22516D01*
X351016D01*
X350000Y23532D01*
X348984Y22516D01*
X347968D01*
X348984Y21500D01*
X347968Y20484D01*
X348984D01*
X350000Y19468D01*
X135250Y109218D02*
X136266Y110234D01*
X137282D01*
X136266Y111250D01*
X137282Y112266D01*
X136266D01*
X135250Y113282D01*
X134234Y112266D01*
X133218D01*
X134234Y111250D01*
X133218Y110234D01*
X134234D01*
X135250Y109218D01*
X7500Y64468D02*
X8516Y65484D01*
X9532D01*
X8516Y66500D01*
X9532Y67516D01*
X8516D01*
X7500Y68532D01*
X6484Y67516D01*
X5468D01*
X6484Y66500D01*
X5468Y65484D01*
X6484D01*
X7500Y64468D01*
Y169468D02*
X8516Y170484D01*
X9532D01*
X8516Y171500D01*
X9532Y172516D01*
X8516D01*
X7500Y173532D01*
X6484Y172516D01*
X5468D01*
X6484Y171500D01*
X5468Y170484D01*
X6484D01*
X7500Y169468D01*
Y154468D02*
X8516Y155484D01*
X9532D01*
X8516Y156500D01*
X9532Y157516D01*
X8516D01*
X7500Y158532D01*
X6484Y157516D01*
X5468D01*
X6484Y156500D01*
X5468Y155484D01*
X6484D01*
X7500Y154468D01*
Y139468D02*
X8516Y140484D01*
X9532D01*
X8516Y141500D01*
X9532Y142516D01*
X8516D01*
X7500Y143532D01*
X6484Y142516D01*
X5468D01*
X6484Y141500D01*
X5468Y140484D01*
X6484D01*
X7500Y139468D01*
Y124468D02*
X8516Y125484D01*
X9532D01*
X8516Y126500D01*
X9532Y127516D01*
X8516D01*
X7500Y128532D01*
X6484Y127516D01*
X5468D01*
X6484Y126500D01*
X5468Y125484D01*
X6484D01*
X7500Y124468D01*
Y109468D02*
X8516Y110484D01*
X9532D01*
X8516Y111500D01*
X9532Y112516D01*
X8516D01*
X7500Y113532D01*
X6484Y112516D01*
X5468D01*
X6484Y111500D01*
X5468Y110484D01*
X6484D01*
X7500Y109468D01*
Y94468D02*
X8516Y95484D01*
X9532D01*
X8516Y96500D01*
X9532Y97516D01*
X8516D01*
X7500Y98532D01*
X6484Y97516D01*
X5468D01*
X6484Y96500D01*
X5468Y95484D01*
X6484D01*
X7500Y94468D01*
Y79468D02*
X8516Y80484D01*
X9532D01*
X8516Y81500D01*
X9532Y82516D01*
X8516D01*
X7500Y83532D01*
X6484Y82516D01*
X5468D01*
X6484Y81500D01*
X5468Y80484D01*
X6484D01*
X7500Y79468D01*
Y49468D02*
X8516Y50484D01*
X9532D01*
X8516Y51500D01*
X9532Y52516D01*
X8516D01*
X7500Y53532D01*
X6484Y52516D01*
X5468D01*
X6484Y51500D01*
X5468Y50484D01*
X6484D01*
X7500Y49468D01*
X392500D02*
X393516Y50484D01*
X394532D01*
X393516Y51500D01*
X394532Y52516D01*
X393516D01*
X392500Y53532D01*
X391484Y52516D01*
X390468D01*
X391484Y51500D01*
X390468Y50484D01*
X391484D01*
X392500Y49468D01*
Y79468D02*
X393516Y80484D01*
X394532D01*
X393516Y81500D01*
X394532Y82516D01*
X393516D01*
X392500Y83532D01*
X391484Y82516D01*
X390468D01*
X391484Y81500D01*
X390468Y80484D01*
X391484D01*
X392500Y79468D01*
Y94468D02*
X393516Y95484D01*
X394532D01*
X393516Y96500D01*
X394532Y97516D01*
X393516D01*
X392500Y98532D01*
X391484Y97516D01*
X390468D01*
X391484Y96500D01*
X390468Y95484D01*
X391484D01*
X392500Y94468D01*
Y109468D02*
X393516Y110484D01*
X394532D01*
X393516Y111500D01*
X394532Y112516D01*
X393516D01*
X392500Y113532D01*
X391484Y112516D01*
X390468D01*
X391484Y111500D01*
X390468Y110484D01*
X391484D01*
X392500Y109468D01*
Y124468D02*
X393516Y125484D01*
X394532D01*
X393516Y126500D01*
X394532Y127516D01*
X393516D01*
X392500Y128532D01*
X391484Y127516D01*
X390468D01*
X391484Y126500D01*
X390468Y125484D01*
X391484D01*
X392500Y124468D01*
Y139468D02*
X393516Y140484D01*
X394532D01*
X393516Y141500D01*
X394532Y142516D01*
X393516D01*
X392500Y143532D01*
X391484Y142516D01*
X390468D01*
X391484Y141500D01*
X390468Y140484D01*
X391484D01*
X392500Y139468D01*
Y154468D02*
X393516Y155484D01*
X394532D01*
X393516Y156500D01*
X394532Y157516D01*
X393516D01*
X392500Y158532D01*
X391484Y157516D01*
X390468D01*
X391484Y156500D01*
X390468Y155484D01*
X391484D01*
X392500Y154468D01*
Y169468D02*
X393516Y170484D01*
X394532D01*
X393516Y171500D01*
X394532Y172516D01*
X393516D01*
X392500Y173532D01*
X391484Y172516D01*
X390468D01*
X391484Y171500D01*
X390468Y170484D01*
X391484D01*
X392500Y169468D01*
X350000D02*
X351016Y170484D01*
X352032D01*
X351016Y171500D01*
X352032Y172516D01*
X351016D01*
X350000Y173532D01*
X348984Y172516D01*
X347968D01*
X348984Y171500D01*
X347968Y170484D01*
X348984D01*
X350000Y169468D01*
X275000D02*
X276016Y170484D01*
X277032D01*
X276016Y171500D01*
X277032Y172516D01*
X276016D01*
X275000Y173532D01*
X273984Y172516D01*
X272968D01*
X273984Y171500D01*
X272968Y170484D01*
X273984D01*
X275000Y169468D01*
X290000D02*
X291016Y170484D01*
X292032D01*
X291016Y171500D01*
X292032Y172516D01*
X291016D01*
X290000Y173532D01*
X288984Y172516D01*
X287968D01*
X288984Y171500D01*
X287968Y170484D01*
X288984D01*
X290000Y169468D01*
X320000D02*
X321016Y170484D01*
X322032D01*
X321016Y171500D01*
X322032Y172516D01*
X321016D01*
X320000Y173532D01*
X318984Y172516D01*
X317968D01*
X318984Y171500D01*
X317968Y170484D01*
X318984D01*
X320000Y169468D01*
X335000D02*
X336016Y170484D01*
X337032D01*
X336016Y171500D01*
X337032Y172516D01*
X336016D01*
X335000Y173532D01*
X333984Y172516D01*
X332968D01*
X333984Y171500D01*
X332968Y170484D01*
X333984D01*
X335000Y169468D01*
X251000D02*
X252016Y170484D01*
X253032D01*
X252016Y171500D01*
X253032Y172516D01*
X252016D01*
X251000Y173532D01*
X249984Y172516D01*
X248968D01*
X249984Y171500D01*
X248968Y170484D01*
X249984D01*
X251000Y169468D01*
X365000D02*
X366016Y170484D01*
X367032D01*
X366016Y171500D01*
X367032Y172516D01*
X366016D01*
X365000Y173532D01*
X363984Y172516D01*
X362968D01*
X363984Y171500D01*
X362968Y170484D01*
X363984D01*
X365000Y169468D01*
X305000D02*
X306016Y170484D01*
X307032D01*
X306016Y171500D01*
X307032Y172516D01*
X306016D01*
X305000Y173532D01*
X303984Y172516D01*
X302968D01*
X303984Y171500D01*
X302968Y170484D01*
X303984D01*
X305000Y169468D01*
X148500Y148468D02*
X149516Y149484D01*
X150532D01*
X149516Y150500D01*
X150532Y151516D01*
X149516D01*
X148500Y152532D01*
X147484Y151516D01*
X146468D01*
X147484Y150500D01*
X146468Y149484D01*
X147484D01*
X148500Y148468D01*
X247000Y74718D02*
X248016Y75734D01*
X249032D01*
X248016Y76750D01*
X249032Y77766D01*
X248016D01*
X247000Y78782D01*
X245984Y77766D01*
X244968D01*
X245984Y76750D01*
X244968Y75734D01*
X245984D01*
X247000Y74718D01*
X251250Y82468D02*
X252266Y83484D01*
X253282D01*
X252266Y84500D01*
X253282Y85516D01*
X252266D01*
X251250Y86532D01*
X250234Y85516D01*
X249218D01*
X250234Y84500D01*
X249218Y83484D01*
X250234D01*
X251250Y82468D01*
X235750Y90718D02*
X236766Y91734D01*
X237782D01*
X236766Y92750D01*
X237782Y93766D01*
X236766D01*
X235750Y94782D01*
X234734Y93766D01*
X233718D01*
X234734Y92750D01*
X233718Y91734D01*
X234734D01*
X235750Y90718D01*
X172500Y98468D02*
X173516Y99484D01*
X174532D01*
X173516Y100500D01*
X174532Y101516D01*
X173516D01*
X172500Y102532D01*
X171484Y101516D01*
X170468D01*
X171484Y100500D01*
X170468Y99484D01*
X171484D01*
X172500Y98468D01*
X164250Y90718D02*
X165266Y91734D01*
X166282D01*
X165266Y92750D01*
X166282Y93766D01*
X165266D01*
X164250Y94782D01*
X163234Y93766D01*
X162218D01*
X163234Y92750D01*
X162218Y91734D01*
X163234D01*
X164250Y90718D01*
X149000Y82468D02*
X150016Y83484D01*
X151032D01*
X150016Y84500D01*
X151032Y85516D01*
X150016D01*
X149000Y86532D01*
X147984Y85516D01*
X146968D01*
X147984Y84500D01*
X146968Y83484D01*
X147984D01*
X149000Y82468D01*
X350000Y5468D02*
X351016Y6484D01*
X352032D01*
X351016Y7500D01*
X352032Y8516D01*
X351016D01*
X350000Y9532D01*
X348984Y8516D01*
X347968D01*
X348984Y7500D01*
X347968Y6484D01*
X348984D01*
X350000Y5468D01*
X335000D02*
X336016Y6484D01*
X337032D01*
X336016Y7500D01*
X337032Y8516D01*
X336016D01*
X335000Y9532D01*
X333984Y8516D01*
X332968D01*
X333984Y7500D01*
X332968Y6484D01*
X333984D01*
X335000Y5468D01*
X320000D02*
X321016Y6484D01*
X322032D01*
X321016Y7500D01*
X322032Y8516D01*
X321016D01*
X320000Y9532D01*
X318984Y8516D01*
X317968D01*
X318984Y7500D01*
X317968Y6484D01*
X318984D01*
X320000Y5468D01*
X305000D02*
X306016Y6484D01*
X307032D01*
X306016Y7500D01*
X307032Y8516D01*
X306016D01*
X305000Y9532D01*
X303984Y8516D01*
X302968D01*
X303984Y7500D01*
X302968Y6484D01*
X303984D01*
X305000Y5468D01*
X290000D02*
X291016Y6484D01*
X292032D01*
X291016Y7500D01*
X292032Y8516D01*
X291016D01*
X290000Y9532D01*
X288984Y8516D01*
X287968D01*
X288984Y7500D01*
X287968Y6484D01*
X288984D01*
X290000Y5468D01*
X275000D02*
X276016Y6484D01*
X277032D01*
X276016Y7500D01*
X277032Y8516D01*
X276016D01*
X275000Y9532D01*
X273984Y8516D01*
X272968D01*
X273984Y7500D01*
X272968Y6484D01*
X273984D01*
X275000Y5468D01*
X260000D02*
X261016Y6484D01*
X262032D01*
X261016Y7500D01*
X262032Y8516D01*
X261016D01*
X260000Y9532D01*
X258984Y8516D01*
X257968D01*
X258984Y7500D01*
X257968Y6484D01*
X258984D01*
X260000Y5468D01*
X245000D02*
X246016Y6484D01*
X247032D01*
X246016Y7500D01*
X247032Y8516D01*
X246016D01*
X245000Y9532D01*
X243984Y8516D01*
X242968D01*
X243984Y7500D01*
X242968Y6484D01*
X243984D01*
X245000Y5468D01*
X230000D02*
X231016Y6484D01*
X232032D01*
X231016Y7500D01*
X232032Y8516D01*
X231016D01*
X230000Y9532D01*
X228984Y8516D01*
X227968D01*
X228984Y7500D01*
X227968Y6484D01*
X228984D01*
X230000Y5468D01*
X170000D02*
X171016Y6484D01*
X172032D01*
X171016Y7500D01*
X172032Y8516D01*
X171016D01*
X170000Y9532D01*
X168984Y8516D01*
X167968D01*
X168984Y7500D01*
X167968Y6484D01*
X168984D01*
X170000Y5468D01*
X155000D02*
X156016Y6484D01*
X157032D01*
X156016Y7500D01*
X157032Y8516D01*
X156016D01*
X155000Y9532D01*
X153984Y8516D01*
X152968D01*
X153984Y7500D01*
X152968Y6484D01*
X153984D01*
X155000Y5468D01*
X140000D02*
X141016Y6484D01*
X142032D01*
X141016Y7500D01*
X142032Y8516D01*
X141016D01*
X140000Y9532D01*
X138984Y8516D01*
X137968D01*
X138984Y7500D01*
X137968Y6484D01*
X138984D01*
X140000Y5468D01*
X125000D02*
X126016Y6484D01*
X127032D01*
X126016Y7500D01*
X127032Y8516D01*
X126016D01*
X125000Y9532D01*
X123984Y8516D01*
X122968D01*
X123984Y7500D01*
X122968Y6484D01*
X123984D01*
X125000Y5468D01*
X110000D02*
X111016Y6484D01*
X112032D01*
X111016Y7500D01*
X112032Y8516D01*
X111016D01*
X110000Y9532D01*
X108984Y8516D01*
X107968D01*
X108984Y7500D01*
X107968Y6484D01*
X108984D01*
X110000Y5468D01*
X95000D02*
X96016Y6484D01*
X97032D01*
X96016Y7500D01*
X97032Y8516D01*
X96016D01*
X95000Y9532D01*
X93984Y8516D01*
X92968D01*
X93984Y7500D01*
X92968Y6484D01*
X93984D01*
X95000Y5468D01*
X80000D02*
X81016Y6484D01*
X82032D01*
X81016Y7500D01*
X82032Y8516D01*
X81016D01*
X80000Y9532D01*
X78984Y8516D01*
X77968D01*
X78984Y7500D01*
X77968Y6484D01*
X78984D01*
X80000Y5468D01*
X65000D02*
X66016Y6484D01*
X67032D01*
X66016Y7500D01*
X67032Y8516D01*
X66016D01*
X65000Y9532D01*
X63984Y8516D01*
X62968D01*
X63984Y7500D01*
X62968Y6484D01*
X63984D01*
X65000Y5468D01*
X50000D02*
X51016Y6484D01*
X52032D01*
X51016Y7500D01*
X52032Y8516D01*
X51016D01*
X50000Y9532D01*
X48984Y8516D01*
X47968D01*
X48984Y7500D01*
X47968Y6484D01*
X48984D01*
X50000Y5468D01*
X360518Y100736D02*
X361534Y101752D01*
X362550D01*
X361534Y102768D01*
X362550Y103784D01*
X361534D01*
X360518Y104800D01*
X359502Y103784D01*
X358486D01*
X359502Y102768D01*
X358486Y101752D01*
X359502D01*
X360518Y100736D01*
X316500Y134968D02*
X317516Y135984D01*
X318532D01*
X317516Y137000D01*
X318532Y138016D01*
X317516D01*
X316500Y139032D01*
X315484Y138016D01*
X314468D01*
X315484Y137000D01*
X314468Y135984D01*
X315484D01*
X316500Y134968D01*
X148739Y169425D02*
X149755Y170441D01*
X150771D01*
X149755Y171457D01*
X150771Y172473D01*
X149755D01*
X148739Y173489D01*
X147723Y172473D01*
X146707D01*
X147723Y171457D01*
X146707Y170441D01*
X147723D01*
X148739Y169425D01*
X256500Y142218D02*
X257516Y143234D01*
X258532D01*
X257516Y144250D01*
X258532Y145266D01*
X257516D01*
X256500Y146282D01*
X255484Y145266D01*
X254468D01*
X255484Y144250D01*
X254468Y143234D01*
X255484D01*
X256500Y142218D01*
X223250Y169468D02*
X224266Y170484D01*
X225282D01*
X224266Y171500D01*
X225282Y172516D01*
X224266D01*
X223250Y173532D01*
X222234Y172516D01*
X221218D01*
X222234Y171500D01*
X221218Y170484D01*
X222234D01*
X223250Y169468D01*
X209750D02*
X210766Y170484D01*
X211782D01*
X210766Y171500D01*
X211782Y172516D01*
X210766D01*
X209750Y173532D01*
X208734Y172516D01*
X207718D01*
X208734Y171500D01*
X207718Y170484D01*
X208734D01*
X209750Y169468D01*
X190239Y169425D02*
X191255Y170441D01*
X192271D01*
X191255Y171457D01*
X192271Y172473D01*
X191255D01*
X190239Y173489D01*
X189223Y172473D01*
X188207D01*
X189223Y171457D01*
X188207Y170441D01*
X189223D01*
X190239Y169425D01*
X148500Y159468D02*
X149516Y160484D01*
X150532D01*
X149516Y161500D01*
X150532Y162516D01*
X149516D01*
X148500Y163532D01*
X147484Y162516D01*
X146468D01*
X147484Y161500D01*
X146468Y160484D01*
X147484D01*
X148500Y159468D01*
X176750Y169468D02*
X177766Y170484D01*
X178782D01*
X177766Y171500D01*
X178782Y172516D01*
X177766D01*
X176750Y173532D01*
X175734Y172516D01*
X174718D01*
X175734Y171500D01*
X174718Y170484D01*
X175734D01*
X176750Y169468D01*
X388250Y87968D02*
X389266Y88984D01*
X390282D01*
X389266Y90000D01*
X390282Y91016D01*
X389266D01*
X388250Y92032D01*
X387234Y91016D01*
X386218D01*
X387234Y90000D01*
X386218Y88984D01*
X387234D01*
X388250Y87968D01*
X119000Y93468D02*
X120016Y94484D01*
X121032D01*
X120016Y95500D01*
X121032Y96516D01*
X120016D01*
X119000Y97532D01*
X117984Y96516D01*
X116968D01*
X117984Y95500D01*
X116968Y94484D01*
X117984D01*
X119000Y93468D01*
X183500Y107968D02*
X184516Y108984D01*
X185532D01*
X184516Y110000D01*
X185532Y111016D01*
X184516D01*
X183500Y112032D01*
X182484Y111016D01*
X181468D01*
X182484Y110000D01*
X181468Y108984D01*
X182484D01*
X183500Y107968D01*
X218000Y114468D02*
X219016Y115484D01*
X220032D01*
X219016Y116500D01*
X220032Y117516D01*
X219016D01*
X218000Y118532D01*
X216984Y117516D01*
X215968D01*
X216984Y116500D01*
X215968Y115484D01*
X216984D01*
X218000Y114468D01*
X194500Y107968D02*
X195516Y108984D01*
X196532D01*
X195516Y110000D01*
X196532Y111016D01*
X195516D01*
X194500Y112032D01*
X193484Y111016D01*
X192468D01*
X193484Y110000D01*
X192468Y108984D01*
X193484D01*
X194500Y107968D01*
X205500Y108968D02*
X206516Y109984D01*
X207532D01*
X206516Y111000D01*
X207532Y112016D01*
X206516D01*
X205500Y113032D01*
X204484Y112016D01*
X203468D01*
X204484Y111000D01*
X203468Y109984D01*
X204484D01*
X205500Y108968D01*
X358430Y147054D02*
X359446Y148070D01*
X360462D01*
X359446Y149086D01*
X360462Y150102D01*
X359446D01*
X358430Y151118D01*
X357414Y150102D01*
X356398D01*
X357414Y149086D01*
X356398Y148070D01*
X357414D01*
X358430Y147054D01*
D47*
X377032Y25000D02*
G03*
X377032Y25000I-2032J0D01*
G01*
X27032D02*
G03*
X27032Y25000I-2032J0D01*
G01*
M02*
