G04*
G04 #@! TF.GenerationSoftware,Altium Limited,Altium Designer,21.6.4 (81)*
G04*
G04 Layer_Physical_Order=2*
G04 Layer_Color=36540*
%FSLAX44Y44*%
%MOMM*%
G71*
G04*
G04 #@! TF.SameCoordinates,A75552D8-FC29-4B95-B53C-3B512D9A6700*
G04*
G04*
G04 #@! TF.FilePolarity,Positive*
G04*
G01*
G75*
%ADD37C,0.9000*%
%ADD39C,1.6500*%
%ADD40R,1.6500X1.6500*%
%ADD41C,0.6000*%
%ADD42C,2.1590*%
G36*
X395922Y4078D02*
X4078Y4078D01*
X4078Y175000D01*
X149000D01*
X149000Y175000D01*
Y175000D01*
X251000Y175000D01*
Y175000D01*
X395922D01*
X395922Y4078D01*
D02*
G37*
%LPC*%
G36*
X358430Y153440D02*
X356764Y153108D01*
X355351Y152165D01*
X354407Y150752D01*
X354076Y149086D01*
X354407Y147420D01*
X355351Y146008D01*
X356764Y145064D01*
X358430Y144733D01*
X360096Y145064D01*
X361508Y146008D01*
X362452Y147420D01*
X362783Y149086D01*
X362452Y150752D01*
X361508Y152165D01*
X360096Y153108D01*
X358430Y153440D01*
D02*
G37*
G36*
X331250Y152354D02*
X329584Y152022D01*
X328172Y151079D01*
X327228Y149666D01*
X326896Y148000D01*
X327228Y146334D01*
X328172Y144922D01*
X329584Y143978D01*
X331250Y143646D01*
X332916Y143978D01*
X334328Y144922D01*
X335272Y146334D01*
X335604Y148000D01*
X335272Y149666D01*
X334328Y151079D01*
X332916Y152022D01*
X331250Y152354D01*
D02*
G37*
G36*
X316500Y141354D02*
X314834Y141022D01*
X313421Y140078D01*
X312478Y138666D01*
X312146Y137000D01*
X312478Y135334D01*
X313421Y133921D01*
X314834Y132978D01*
X316500Y132646D01*
X318166Y132978D01*
X319578Y133921D01*
X320522Y135334D01*
X320854Y137000D01*
X320522Y138666D01*
X319578Y140078D01*
X318166Y141022D01*
X316500Y141354D01*
D02*
G37*
G36*
X254000Y132854D02*
X252334Y132522D01*
X250921Y131579D01*
X249978Y130166D01*
X249646Y128500D01*
X249978Y126834D01*
X250921Y125421D01*
X252334Y124478D01*
X254000Y124146D01*
X255666Y124478D01*
X257078Y125421D01*
X258022Y126834D01*
X258354Y128500D01*
X258022Y130166D01*
X257078Y131579D01*
X255666Y132522D01*
X254000Y132854D01*
D02*
G37*
G36*
X218000Y120854D02*
X216334Y120522D01*
X214921Y119579D01*
X213978Y118166D01*
X213646Y116500D01*
X213978Y114834D01*
X214921Y113421D01*
X216334Y112478D01*
X218000Y112146D01*
X219666Y112478D01*
X221078Y113421D01*
X222022Y114834D01*
X222354Y116500D01*
X222022Y118166D01*
X221078Y119579D01*
X219666Y120522D01*
X218000Y120854D01*
D02*
G37*
G36*
X374900Y121717D02*
X372463Y121233D01*
X370398Y119852D01*
X369017Y117787D01*
X368533Y115350D01*
X369017Y112913D01*
X370398Y110848D01*
X372463Y109467D01*
X374900Y108983D01*
X377337Y109467D01*
X379402Y110848D01*
X380783Y112913D01*
X381267Y115350D01*
X380783Y117787D01*
X379402Y119852D01*
X377337Y121233D01*
X374900Y121717D01*
D02*
G37*
G36*
X205500Y115354D02*
X203834Y115022D01*
X202421Y114079D01*
X201478Y112666D01*
X201146Y111000D01*
X201478Y109334D01*
X202421Y107921D01*
X203834Y106978D01*
X205500Y106646D01*
X207166Y106978D01*
X208578Y107921D01*
X209522Y109334D01*
X209854Y111000D01*
X209522Y112666D01*
X208578Y114079D01*
X207166Y115022D01*
X205500Y115354D01*
D02*
G37*
G36*
X194500Y114354D02*
X192834Y114022D01*
X191422Y113078D01*
X190478Y111666D01*
X190146Y110000D01*
X190478Y108334D01*
X191422Y106922D01*
X192834Y105978D01*
X194500Y105646D01*
X196166Y105978D01*
X197579Y106922D01*
X198522Y108334D01*
X198854Y110000D01*
X198522Y111666D01*
X197579Y113078D01*
X196166Y114022D01*
X194500Y114354D01*
D02*
G37*
G36*
X183500D02*
X181834Y114022D01*
X180422Y113078D01*
X179478Y111666D01*
X179146Y110000D01*
X179478Y108334D01*
X180422Y106922D01*
X181834Y105978D01*
X183500Y105646D01*
X185166Y105978D01*
X186579Y106922D01*
X187522Y108334D01*
X187854Y110000D01*
X187522Y111666D01*
X186579Y113078D01*
X185166Y114022D01*
X183500Y114354D01*
D02*
G37*
G36*
X360518Y107121D02*
X358852Y106790D01*
X357439Y105846D01*
X356495Y104434D01*
X356164Y102768D01*
X356495Y101102D01*
X357439Y99689D01*
X358852Y98745D01*
X360518Y98414D01*
X362184Y98745D01*
X363596Y99689D01*
X364540Y101102D01*
X364871Y102768D01*
X364540Y104434D01*
X363596Y105846D01*
X362184Y106790D01*
X360518Y107121D01*
D02*
G37*
G36*
X119000Y99854D02*
X117334Y99522D01*
X115921Y98579D01*
X114978Y97166D01*
X114646Y95500D01*
X114978Y93834D01*
X115921Y92422D01*
X117334Y91478D01*
X119000Y91146D01*
X120666Y91478D01*
X122079Y92422D01*
X123022Y93834D01*
X123354Y95500D01*
X123022Y97166D01*
X122079Y98579D01*
X120666Y99522D01*
X119000Y99854D01*
D02*
G37*
G36*
X388250Y94354D02*
X386584Y94022D01*
X385172Y93078D01*
X384228Y91666D01*
X383896Y90000D01*
X384228Y88334D01*
X385172Y86922D01*
X386584Y85978D01*
X388250Y85646D01*
X389916Y85978D01*
X391329Y86922D01*
X392272Y88334D01*
X392604Y90000D01*
X392272Y91666D01*
X391329Y93078D01*
X389916Y94022D01*
X388250Y94354D01*
D02*
G37*
G36*
X385060Y70917D02*
X382623Y70433D01*
X380558Y69052D01*
X379177Y66987D01*
X378693Y64550D01*
X379177Y62113D01*
X380558Y60048D01*
X382623Y58667D01*
X385060Y58183D01*
X387497Y58667D01*
X389562Y60048D01*
X390943Y62113D01*
X391427Y64550D01*
X390943Y66987D01*
X389562Y69052D01*
X387497Y70433D01*
X385060Y70917D01*
D02*
G37*
G36*
X364740D02*
X362303Y70433D01*
X360238Y69052D01*
X358857Y66987D01*
X358373Y64550D01*
X358857Y62113D01*
X360238Y60048D01*
X362303Y58667D01*
X364740Y58183D01*
X367177Y58667D01*
X369242Y60048D01*
X370623Y62113D01*
X371107Y64550D01*
X370623Y66987D01*
X369242Y69052D01*
X367177Y70433D01*
X364740Y70917D01*
D02*
G37*
G36*
X196250Y65354D02*
X194584Y65022D01*
X193172Y64078D01*
X192228Y62666D01*
X191896Y61000D01*
X192228Y59334D01*
X193172Y57922D01*
X194584Y56978D01*
X196250Y56646D01*
X197916Y56978D01*
X199328Y57922D01*
X200272Y59334D01*
X200604Y61000D01*
X200272Y62666D01*
X199328Y64078D01*
X197916Y65022D01*
X196250Y65354D01*
D02*
G37*
G36*
X170500D02*
X168834Y65022D01*
X167421Y64078D01*
X166478Y62666D01*
X166146Y61000D01*
X166478Y59334D01*
X167421Y57922D01*
X168834Y56978D01*
X170500Y56646D01*
X172166Y56978D01*
X173578Y57922D01*
X174522Y59334D01*
X174854Y61000D01*
X174522Y62666D01*
X173578Y64078D01*
X172166Y65022D01*
X170500Y65354D01*
D02*
G37*
G36*
X111862Y51202D02*
Y42462D01*
X120602D01*
X120375Y44185D01*
X119416Y46501D01*
X117890Y48490D01*
X115901Y50016D01*
X113585Y50975D01*
X111862Y51202D01*
D02*
G37*
G36*
X110338D02*
X108615Y50975D01*
X106299Y50016D01*
X104310Y48490D01*
X102784Y46501D01*
X101825Y44185D01*
X101598Y42462D01*
X110338D01*
Y51202D01*
D02*
G37*
G36*
X120602Y40938D02*
X111862D01*
Y32198D01*
X113585Y32425D01*
X115901Y33384D01*
X117890Y34910D01*
X119416Y36899D01*
X120375Y39215D01*
X120602Y40938D01*
D02*
G37*
G36*
X110338D02*
X101598D01*
X101825Y39215D01*
X102784Y36899D01*
X104310Y34910D01*
X106299Y33384D01*
X108615Y32425D01*
X110338Y32198D01*
Y40938D01*
D02*
G37*
G36*
X298420Y51220D02*
X279380D01*
Y32180D01*
X298420D01*
Y51220D01*
D02*
G37*
G36*
X263500Y51302D02*
X261015Y50975D01*
X258699Y50016D01*
X256710Y48490D01*
X255184Y46501D01*
X254225Y44185D01*
X253898Y41700D01*
X254225Y39215D01*
X255184Y36899D01*
X256710Y34910D01*
X258699Y33384D01*
X261015Y32425D01*
X263500Y32098D01*
X265985Y32425D01*
X268301Y33384D01*
X270290Y34910D01*
X271816Y36899D01*
X272775Y39215D01*
X273102Y41700D01*
X272775Y44185D01*
X271816Y46501D01*
X270290Y48490D01*
X268301Y50016D01*
X265985Y50975D01*
X263500Y51302D01*
D02*
G37*
G36*
X238100D02*
X235615Y50975D01*
X233299Y50016D01*
X231310Y48490D01*
X229784Y46501D01*
X228825Y44185D01*
X228498Y41700D01*
X228825Y39215D01*
X229784Y36899D01*
X231310Y34910D01*
X233299Y33384D01*
X235615Y32425D01*
X238100Y32098D01*
X240585Y32425D01*
X242901Y33384D01*
X244890Y34910D01*
X246416Y36899D01*
X247375Y39215D01*
X247702Y41700D01*
X247375Y44185D01*
X246416Y46501D01*
X244890Y48490D01*
X242901Y50016D01*
X240585Y50975D01*
X238100Y51302D01*
D02*
G37*
G36*
X212700D02*
X210215Y50975D01*
X207899Y50016D01*
X205910Y48490D01*
X204384Y46501D01*
X203425Y44185D01*
X203098Y41700D01*
X203425Y39215D01*
X204384Y36899D01*
X205910Y34910D01*
X207899Y33384D01*
X210215Y32425D01*
X212700Y32098D01*
X215185Y32425D01*
X217501Y33384D01*
X219490Y34910D01*
X221016Y36899D01*
X221975Y39215D01*
X222302Y41700D01*
X221975Y44185D01*
X221016Y46501D01*
X219490Y48490D01*
X217501Y50016D01*
X215185Y50975D01*
X212700Y51302D01*
D02*
G37*
G36*
X187300D02*
X184815Y50975D01*
X182499Y50016D01*
X180510Y48490D01*
X178984Y46501D01*
X178025Y44185D01*
X177698Y41700D01*
X178025Y39215D01*
X178984Y36899D01*
X180510Y34910D01*
X182499Y33384D01*
X184815Y32425D01*
X187300Y32098D01*
X189785Y32425D01*
X192101Y33384D01*
X194090Y34910D01*
X195616Y36899D01*
X196575Y39215D01*
X196902Y41700D01*
X196575Y44185D01*
X195616Y46501D01*
X194090Y48490D01*
X192101Y50016D01*
X189785Y50975D01*
X187300Y51302D01*
D02*
G37*
G36*
X161900D02*
X159415Y50975D01*
X157099Y50016D01*
X155110Y48490D01*
X153584Y46501D01*
X152625Y44185D01*
X152298Y41700D01*
X152625Y39215D01*
X153584Y36899D01*
X155110Y34910D01*
X157099Y33384D01*
X159415Y32425D01*
X161900Y32098D01*
X164385Y32425D01*
X166701Y33384D01*
X168690Y34910D01*
X170216Y36899D01*
X171175Y39215D01*
X171502Y41700D01*
X171175Y44185D01*
X170216Y46501D01*
X168690Y48490D01*
X166701Y50016D01*
X164385Y50975D01*
X161900Y51302D01*
D02*
G37*
G36*
X136500D02*
X134015Y50975D01*
X131699Y50016D01*
X129710Y48490D01*
X128184Y46501D01*
X127225Y44185D01*
X126898Y41700D01*
X127225Y39215D01*
X128184Y36899D01*
X129710Y34910D01*
X131699Y33384D01*
X134015Y32425D01*
X136500Y32098D01*
X138985Y32425D01*
X141301Y33384D01*
X143290Y34910D01*
X144816Y36899D01*
X145775Y39215D01*
X146102Y41700D01*
X145775Y44185D01*
X144816Y46501D01*
X143290Y48490D01*
X141301Y50016D01*
X138985Y50975D01*
X136500Y51302D01*
D02*
G37*
G36*
X375762Y37069D02*
Y25762D01*
X387069D01*
X386754Y28150D01*
X385539Y31085D01*
X383605Y33605D01*
X381085Y35539D01*
X378150Y36755D01*
X375762Y37069D01*
D02*
G37*
G36*
X374238D02*
X371850Y36755D01*
X368915Y35539D01*
X366395Y33605D01*
X364461Y31085D01*
X363246Y28150D01*
X362931Y25762D01*
X374238D01*
Y37069D01*
D02*
G37*
G36*
X25762D02*
Y25762D01*
X37069D01*
X36755Y28150D01*
X35539Y31085D01*
X33605Y33605D01*
X31084Y35539D01*
X28150Y36755D01*
X25762Y37069D01*
D02*
G37*
G36*
X24238D02*
X21850Y36755D01*
X18915Y35539D01*
X16395Y33605D01*
X14461Y31085D01*
X13246Y28150D01*
X12931Y25762D01*
X24238D01*
Y37069D01*
D02*
G37*
G36*
X387069Y24238D02*
X375762D01*
Y12931D01*
X378150Y13246D01*
X381085Y14461D01*
X383605Y16395D01*
X385539Y18915D01*
X386754Y21850D01*
X387069Y24238D01*
D02*
G37*
G36*
X374238D02*
X362931D01*
X363246Y21850D01*
X364461Y18915D01*
X366395Y16395D01*
X368915Y14461D01*
X371850Y13246D01*
X374238Y12931D01*
Y24238D01*
D02*
G37*
G36*
X37069D02*
X25762D01*
Y12931D01*
X28150Y13246D01*
X31084Y14461D01*
X33605Y16395D01*
X35539Y18915D01*
X36755Y21850D01*
X37069Y24238D01*
D02*
G37*
G36*
X24238D02*
X12931D01*
X13246Y21850D01*
X14461Y18915D01*
X16395Y16395D01*
X18915Y14461D01*
X21850Y13246D01*
X24238Y12931D01*
Y24238D01*
D02*
G37*
%LPD*%
D37*
X364740Y64550D02*
D03*
X385060D02*
D03*
X374900Y115350D02*
D03*
D39*
X161900Y41700D02*
D03*
X187300D02*
D03*
X212700D02*
D03*
X263500D02*
D03*
X238100D02*
D03*
X136500D02*
D03*
X111100D02*
D03*
D40*
X288900D02*
D03*
D41*
X140000Y66500D02*
D03*
X125000D02*
D03*
X380000Y171500D02*
D03*
Y141500D02*
D03*
Y51500D02*
D03*
X365000Y126500D02*
D03*
Y111500D02*
D03*
Y51500D02*
D03*
X350000Y126500D02*
D03*
Y111500D02*
D03*
Y96500D02*
D03*
Y81500D02*
D03*
Y66500D02*
D03*
Y51500D02*
D03*
Y36500D02*
D03*
X335000Y126500D02*
D03*
Y111500D02*
D03*
Y81500D02*
D03*
Y66500D02*
D03*
Y51500D02*
D03*
Y36500D02*
D03*
Y21500D02*
D03*
X320000Y111500D02*
D03*
Y96500D02*
D03*
Y81500D02*
D03*
Y66500D02*
D03*
Y51500D02*
D03*
Y36500D02*
D03*
Y21500D02*
D03*
X305000Y126500D02*
D03*
Y111500D02*
D03*
Y81500D02*
D03*
Y66500D02*
D03*
Y51500D02*
D03*
Y36500D02*
D03*
Y21500D02*
D03*
X290000Y126500D02*
D03*
Y111500D02*
D03*
Y81500D02*
D03*
Y66500D02*
D03*
Y21500D02*
D03*
X275000Y126500D02*
D03*
Y111500D02*
D03*
Y81500D02*
D03*
Y66500D02*
D03*
Y51500D02*
D03*
Y36500D02*
D03*
Y21500D02*
D03*
X260000Y171500D02*
D03*
Y111500D02*
D03*
Y81500D02*
D03*
Y66500D02*
D03*
Y21500D02*
D03*
X245000D02*
D03*
X230000Y51500D02*
D03*
Y21500D02*
D03*
X215000Y156500D02*
D03*
Y141500D02*
D03*
Y126500D02*
D03*
Y21500D02*
D03*
X200000Y171500D02*
D03*
Y156500D02*
D03*
Y141500D02*
D03*
Y126500D02*
D03*
Y36500D02*
D03*
Y21500D02*
D03*
X185000Y156500D02*
D03*
Y141500D02*
D03*
Y126500D02*
D03*
Y21500D02*
D03*
X170000D02*
D03*
X155000D02*
D03*
X140000Y171500D02*
D03*
Y156500D02*
D03*
Y21500D02*
D03*
X125000Y171500D02*
D03*
Y156500D02*
D03*
Y51500D02*
D03*
Y36500D02*
D03*
Y21500D02*
D03*
X110000Y171500D02*
D03*
Y156500D02*
D03*
Y141500D02*
D03*
Y126500D02*
D03*
Y111500D02*
D03*
Y81500D02*
D03*
Y66500D02*
D03*
Y21500D02*
D03*
X95000Y171500D02*
D03*
Y156500D02*
D03*
Y141500D02*
D03*
Y126500D02*
D03*
Y111500D02*
D03*
Y81500D02*
D03*
Y66500D02*
D03*
Y51500D02*
D03*
Y36500D02*
D03*
Y21500D02*
D03*
X80000Y171500D02*
D03*
Y156500D02*
D03*
Y141500D02*
D03*
Y126500D02*
D03*
Y111500D02*
D03*
Y96500D02*
D03*
Y81500D02*
D03*
Y66500D02*
D03*
Y51500D02*
D03*
Y36500D02*
D03*
Y21500D02*
D03*
X65000Y171500D02*
D03*
Y156500D02*
D03*
Y141500D02*
D03*
Y126500D02*
D03*
Y111500D02*
D03*
Y81500D02*
D03*
Y66500D02*
D03*
Y51500D02*
D03*
Y36500D02*
D03*
Y21500D02*
D03*
X50000Y171500D02*
D03*
Y156500D02*
D03*
Y141500D02*
D03*
Y126500D02*
D03*
Y111500D02*
D03*
Y96500D02*
D03*
Y81500D02*
D03*
Y66500D02*
D03*
Y51500D02*
D03*
Y36500D02*
D03*
X35000Y171500D02*
D03*
Y156500D02*
D03*
Y141500D02*
D03*
Y126500D02*
D03*
Y111500D02*
D03*
Y96500D02*
D03*
Y81500D02*
D03*
Y66500D02*
D03*
Y51500D02*
D03*
X20000Y171500D02*
D03*
Y156500D02*
D03*
Y141500D02*
D03*
Y126500D02*
D03*
Y111500D02*
D03*
Y96500D02*
D03*
Y81500D02*
D03*
Y66500D02*
D03*
Y51500D02*
D03*
X170500Y61000D02*
D03*
X196250D02*
D03*
X182470Y55156D02*
D03*
X331250Y148000D02*
D03*
X254000Y128500D02*
D03*
X350000Y155000D02*
D03*
X355000Y141500D02*
D03*
X365000Y155000D02*
D03*
X50000Y21500D02*
D03*
X350000D02*
D03*
X135250Y111250D02*
D03*
X7500Y66500D02*
D03*
Y171500D02*
D03*
Y156500D02*
D03*
Y141500D02*
D03*
Y126500D02*
D03*
Y111500D02*
D03*
Y96500D02*
D03*
Y81500D02*
D03*
Y51500D02*
D03*
X392500D02*
D03*
Y81500D02*
D03*
Y96500D02*
D03*
Y111500D02*
D03*
Y126500D02*
D03*
Y141500D02*
D03*
Y156500D02*
D03*
Y171500D02*
D03*
X350000D02*
D03*
X275000D02*
D03*
X290000D02*
D03*
X320000D02*
D03*
X335000D02*
D03*
X251000D02*
D03*
X365000D02*
D03*
X305000D02*
D03*
X148500Y150500D02*
D03*
X247000Y76750D02*
D03*
X251250Y84500D02*
D03*
X235750Y92750D02*
D03*
X172500Y100500D02*
D03*
X164250Y92750D02*
D03*
X149000Y84500D02*
D03*
X350000Y7500D02*
D03*
X335000D02*
D03*
X320000D02*
D03*
X305000D02*
D03*
X290000D02*
D03*
X275000D02*
D03*
X260000D02*
D03*
X245000D02*
D03*
X230000D02*
D03*
X170000D02*
D03*
X155000D02*
D03*
X140000D02*
D03*
X125000D02*
D03*
X110000D02*
D03*
X95000D02*
D03*
X80000D02*
D03*
X65000D02*
D03*
X50000D02*
D03*
X360518Y102768D02*
D03*
X316500Y137000D02*
D03*
X148739Y171457D02*
D03*
X256500Y144250D02*
D03*
X223250Y171500D02*
D03*
X209750D02*
D03*
X190239Y171457D02*
D03*
X148500Y161500D02*
D03*
X176750Y171500D02*
D03*
X388250Y90000D02*
D03*
X119000Y95500D02*
D03*
X183500Y110000D02*
D03*
X218000Y116500D02*
D03*
X194500Y110000D02*
D03*
X205500Y111000D02*
D03*
X358430Y149086D02*
D03*
D42*
X375000Y25000D02*
D03*
X25000D02*
D03*
M02*
