M48
;Layer_Color=9474304
;FILE_FORMAT=4:4
METRIC,LZ
;TYPE=PLATED
T1F00S00C0.3000
T2F00S00C1.1000
T3F00S00C1.8000
;TYPE=NON_PLATED
T4F00S00C0.9950
%
T01
X000075Y000075
Y000475
X0002Y000475
Y000625
X000075Y000625
Y000775
X0002Y000775
Y000925
X000075Y000925
Y001075
X0002Y001075
Y001225
X000075
Y001375
X0002
Y001525
X000075
Y001675
X0002
Y001825
X000075
Y001975
X0002Y001975
Y002125
X000075Y002125
X00035Y002125
X0005
X00065
X0008
X00095
X0011
X00125
X0014
Y001975
Y001825
X00125
Y001975
X0011
Y001825
X00095
Y001975
X0008
Y001825
X00065
Y001975
X0005
Y001825
Y001675
X00065
Y001525
Y001375
X0008
X00095
X0011
X00125
X0014
X00135Y00104
X0012Y00093
X00125Y000775
Y000625
Y000475
Y000325
X00125Y000175
Y000075
X0014
Y000175
X00155
Y000075
X0017
Y000175
X00185Y0002
X002
X002Y000325
Y000475
Y000625
X00225Y000625
X002435Y000535
X00244Y0007425
X0025175Y00082
X0026Y000775
X00275
X0029
X00305
X0032
X00335
X0035
Y000625
Y000475
X00365
X0038
X003925Y000475
Y000775
Y000925
X0039253Y001075
Y001225
Y001375
Y001525
X003925Y001675
X0038
Y001825
X003925
Y001975
X0038Y001975
Y002125
X003925Y002125
X00365Y002125
Y001975
Y001825
Y001675
Y001525
Y001375
Y001225
X00365Y0011125
X0035Y001075
Y001225
Y001375
Y001525
Y001675
X00355Y001755
X0035Y001825
Y001975
Y002125
X00335
Y001975
Y001825
Y001675
Y001525
Y001375
Y001225
X0032
Y001375
Y001525
Y001675
Y001825
Y001975
Y002125
X00305
Y001975
Y001825
Y001675
Y001525
Y001375
Y001225
X0032Y001075
Y000925
Y000625
X00335
Y000475
Y000325
X0035
X0035Y000175
Y000075
X00335
Y000175
X0032
Y000075
X00305
Y000175
X0029
Y000075
X00275
Y000175
X0026
Y000075
X00245
Y000175
X0023
Y000075
X00215Y0002
X0022525Y000325
X00251
X00275Y000325
Y000475
Y000625
X0029
X00305
Y000475
X0032
Y000325
X00305
X0026Y000625
X00275Y000925
X0028725Y0009
X00275Y001075
Y001225
Y001375
X00275Y001485
X0026
X0026Y001375
X00254Y001315
Y001205
X0021375Y00126
X00214Y001405
Y00148
X0021375Y00159
X002
X0018625
X001855Y0018075
X001925
X002075
X002145
X0026Y001825
X0026Y0016972
X00275
X00275Y001825
X0029
X0029Y0016972
X0028725Y00159
X0029Y001975
Y002125
X00275
Y001975
X0026
Y002125
X002055Y0011775
X001945
X0018625Y00126
X0016875Y0006675
X00155Y000625
X00156Y00074
X0014775Y00082
X0011Y000775
Y000625
X00095
Y000775
X0008
Y000925
Y001075
Y001225
X00095
X0011
X00065
X0005
Y001375
Y001525
X00035
Y001675
Y001825
Y001975
Y001375
Y001225
Y001075
X0005
Y000925
Y000775
X00065
Y000625
X0008
Y000475
X00095
Y000325
X0008
X00065
Y000475
X0005
Y000625
X00035
Y000775
Y000925
Y000475
X0005Y000325
Y000175
Y000075
X00065
Y000175
X0008
Y000075
X00095
Y000175
X0011
Y000075
X0014925Y000325
X001745
X0009Y00168
X00355Y000925
T02
X001111Y000417
X001365
X001619
X001873
X002127
X002381
X002635
X002889
T03
X00025Y00025
X00375
T04
X0036474Y0006455
X0038506
X003749Y0011535
M30
