G04*
G04 #@! TF.GenerationSoftware,Altium Limited,Altium Designer,20.2.5 (213)*
G04*
G04 Layer_Color=2752767*
%FSLAX25Y25*%
%MOIN*%
G70*
G04*
G04 #@! TF.SameCoordinates,6F863687-9C3A-4172-A650-1A8696597D16*
G04*
G04*
G04 #@! TF.FilePolarity,Positive*
G04*
G01*
G75*
%ADD11C,0.00500*%
%ADD47C,0.00200*%
%ADD48C,0.00267*%
D11*
X0Y86614D02*
X157480Y86614D01*
X0Y-0D02*
X157480Y0D01*
X0Y-0D02*
Y86614D01*
X157480Y0D02*
Y86614D01*
D47*
X140338Y36424D02*
Y38024D01*
X141938D01*
Y36424D01*
X140338D01*
X148338D02*
Y38024D01*
X149938D01*
Y36424D01*
X148338D01*
X144338Y56424D02*
Y58024D01*
X145938D01*
Y56424D01*
X144338D01*
X147638Y9042D02*
X146838Y10643D01*
X148438D01*
X147638Y9042D01*
X9843D02*
X9042Y10643D01*
X10643D01*
X9843Y9042D01*
X154528Y17901D02*
X154928Y18301D01*
X155328D01*
X154928Y18701D01*
X155328Y19101D01*
X154928D01*
X154528Y19501D01*
X154128Y19101D01*
X153728D01*
X154128Y18701D01*
X153728Y18301D01*
X154128D01*
X154528Y17901D01*
Y23806D02*
X154928Y24206D01*
X155328D01*
X154928Y24606D01*
X155328Y25006D01*
X154928D01*
X154528Y25406D01*
X154128Y25006D01*
X153728D01*
X154128Y24606D01*
X153728Y24206D01*
X154128D01*
X154528Y23806D01*
Y29712D02*
X154928Y30112D01*
X155328D01*
X154928Y30512D01*
X155328Y30912D01*
X154928D01*
X154528Y31312D01*
X154128Y30912D01*
X153728D01*
X154128Y30512D01*
X153728Y30112D01*
X154128D01*
X154528Y29712D01*
Y35617D02*
X154928Y36017D01*
X155328D01*
X154928Y36417D01*
X155328Y36817D01*
X154928D01*
X154528Y37217D01*
X154128Y36817D01*
X153728D01*
X154128Y36417D01*
X153728Y36017D01*
X154128D01*
X154528Y35617D01*
Y41523D02*
X154928Y41923D01*
X155328D01*
X154928Y42323D01*
X155328Y42723D01*
X154928D01*
X154528Y43123D01*
X154128Y42723D01*
X153728D01*
X154128Y42323D01*
X153728Y41923D01*
X154128D01*
X154528Y41523D01*
Y58255D02*
X154928Y58655D01*
X155328D01*
X154928Y59055D01*
X155328Y59455D01*
X154928D01*
X154528Y59855D01*
X154128Y59455D01*
X153728D01*
X154128Y59055D01*
X153728Y58655D01*
X154128D01*
X154528Y58255D01*
Y65145D02*
X154928Y65545D01*
X155328D01*
X154928Y65945D01*
X155328Y66345D01*
X154928D01*
X154528Y66745D01*
X154128Y66345D01*
X153728D01*
X154128Y65945D01*
X153728Y65545D01*
X154128D01*
X154528Y65145D01*
Y71050D02*
X154928Y71450D01*
X155328D01*
X154928Y71850D01*
X155328Y72250D01*
X154928D01*
X154528Y72650D01*
X154128Y72250D01*
X153728D01*
X154128Y71850D01*
X153728Y71450D01*
X154128D01*
X154528Y71050D01*
Y76956D02*
X154928Y77356D01*
X155328D01*
X154928Y77756D01*
X155328Y78156D01*
X154928D01*
X154528Y78556D01*
X154128Y78156D01*
X153728D01*
X154128Y77756D01*
X153728Y77356D01*
X154128D01*
X154528Y76956D01*
Y82861D02*
X154928Y83261D01*
X155328D01*
X154928Y83661D01*
X155328Y84061D01*
X154928D01*
X154528Y84461D01*
X154128Y84061D01*
X153728D01*
X154128Y83661D01*
X153728Y83261D01*
X154128D01*
X154528Y82861D01*
X33465Y45460D02*
X33865Y45860D01*
X34265D01*
X33865Y46260D01*
X34265Y46660D01*
X33865D01*
X33465Y47060D01*
X33065Y46660D01*
X32665D01*
X33065Y46260D01*
X32665Y45860D01*
X33065D01*
X33465Y45460D01*
X114173Y2153D02*
X114573Y2553D01*
X114973D01*
X114573Y2953D01*
X114973Y3353D01*
X114573D01*
X114173Y3753D01*
X113773Y3353D01*
X113373D01*
X113773Y2953D01*
X113373Y2553D01*
X113773D01*
X114173Y2153D01*
X108268D02*
X108668Y2553D01*
X109068D01*
X108668Y2953D01*
X109068Y3353D01*
X108668D01*
X108268Y3753D01*
X107868Y3353D01*
X107468D01*
X107868Y2953D01*
X107468Y2553D01*
X107868D01*
X108268Y2153D01*
X102362D02*
X102762Y2553D01*
X103162D01*
X102762Y2953D01*
X103162Y3353D01*
X102762D01*
X102362Y3753D01*
X101962Y3353D01*
X101562D01*
X101962Y2953D01*
X101562Y2553D01*
X101962D01*
X102362Y2153D01*
X96457D02*
X96857Y2553D01*
X97257D01*
X96857Y2953D01*
X97257Y3353D01*
X96857D01*
X96457Y3753D01*
X96057Y3353D01*
X95657D01*
X96057Y2953D01*
X95657Y2553D01*
X96057D01*
X96457Y2153D01*
X90551D02*
X90951Y2553D01*
X91351D01*
X90951Y2953D01*
X91351Y3353D01*
X90951D01*
X90551Y3753D01*
X90151Y3353D01*
X89751D01*
X90151Y2953D01*
X89751Y2553D01*
X90151D01*
X90551Y2153D01*
X84646D02*
X85046Y2553D01*
X85446D01*
X85046Y2953D01*
X85446Y3353D01*
X85046D01*
X84646Y3753D01*
X84246Y3353D01*
X83846D01*
X84246Y2953D01*
X83846Y2553D01*
X84246D01*
X84646Y2153D01*
X78740D02*
X79140Y2553D01*
X79540D01*
X79140Y2953D01*
X79540Y3353D01*
X79140D01*
X78740Y3753D01*
X78340Y3353D01*
X77940D01*
X78340Y2953D01*
X77940Y2553D01*
X78340D01*
X78740Y2153D01*
X72835D02*
X73235Y2553D01*
X73635D01*
X73235Y2953D01*
X73635Y3353D01*
X73235D01*
X72835Y3753D01*
X72435Y3353D01*
X72035D01*
X72435Y2953D01*
X72035Y2553D01*
X72435D01*
X72835Y2153D01*
X66929D02*
X67329Y2553D01*
X67729D01*
X67329Y2953D01*
X67729Y3353D01*
X67329D01*
X66929Y3753D01*
X66529Y3353D01*
X66129D01*
X66529Y2953D01*
X66129Y2553D01*
X66529D01*
X66929Y2153D01*
X61024D02*
X61424Y2553D01*
X61824D01*
X61424Y2953D01*
X61824Y3353D01*
X61424D01*
X61024Y3753D01*
X60624Y3353D01*
X60224D01*
X60624Y2953D01*
X60224Y2553D01*
X60624D01*
X61024Y2153D01*
X55118D02*
X55518Y2553D01*
X55918D01*
X55518Y2953D01*
X55918Y3353D01*
X55518D01*
X55118Y3753D01*
X54718Y3353D01*
X54318D01*
X54718Y2953D01*
X54318Y2553D01*
X54718D01*
X55118Y2153D01*
X49213D02*
X49613Y2553D01*
X50013D01*
X49613Y2953D01*
X50013Y3353D01*
X49613D01*
X49213Y3753D01*
X48813Y3353D01*
X48413D01*
X48813Y2953D01*
X48413Y2553D01*
X48813D01*
X49213Y2153D01*
X43307D02*
X43707Y2553D01*
X44107D01*
X43707Y2953D01*
X44107Y3353D01*
X43707D01*
X43307Y3753D01*
X42907Y3353D01*
X42507D01*
X42907Y2953D01*
X42507Y2553D01*
X42907D01*
X43307Y2153D01*
X98425Y11995D02*
X98825Y12395D01*
X99225D01*
X98825Y12795D01*
X99225Y13195D01*
X98825D01*
X98425Y13595D01*
X98025Y13195D01*
X97625D01*
X98025Y12795D01*
X97625Y12395D01*
X98025D01*
X98425Y11995D01*
X88583D02*
X88983Y12395D01*
X89383D01*
X88983Y12795D01*
X89383Y13195D01*
X88983D01*
X88583Y13595D01*
X88183Y13195D01*
X87783D01*
X88183Y12795D01*
X87783Y12395D01*
X88183D01*
X88583Y11995D01*
X59055D02*
X59455Y12395D01*
X59855D01*
X59455Y12795D01*
X59855Y13195D01*
X59455D01*
X59055Y13595D01*
X58655Y13195D01*
X58255D01*
X58655Y12795D01*
X58255Y12395D01*
X58655D01*
X59055Y11995D01*
X88583Y20854D02*
X88983Y21253D01*
X89383D01*
X88983Y21654D01*
X89383Y22053D01*
X88983D01*
X88583Y22454D01*
X88183Y22053D01*
X87783D01*
X88183Y21654D01*
X87783Y21253D01*
X88183D01*
X88583Y20854D01*
X125984Y57271D02*
X126384Y57671D01*
X126784D01*
X126384Y58071D01*
X126784Y58471D01*
X126384D01*
X125984Y58871D01*
X125584Y58471D01*
X125184D01*
X125584Y58071D01*
X125184Y57671D01*
X125584D01*
X125984Y57271D01*
X120079D02*
X120479Y57671D01*
X120879D01*
X120479Y58071D01*
X120879Y58471D01*
X120479D01*
X120079Y58871D01*
X119679Y58471D01*
X119279D01*
X119679Y58071D01*
X119279Y57671D01*
X119679D01*
X120079Y57271D01*
X114173D02*
X114573Y57671D01*
X114973D01*
X114573Y58071D01*
X114973Y58471D01*
X114573D01*
X114173Y58871D01*
X113773Y58471D01*
X113373D01*
X113773Y58071D01*
X113373Y57671D01*
X113773D01*
X114173Y57271D01*
X108268D02*
X108668Y57671D01*
X109068D01*
X108668Y58071D01*
X109068Y58471D01*
X108668D01*
X108268Y58871D01*
X107868Y58471D01*
X107468D01*
X107868Y58071D01*
X107468Y57671D01*
X107868D01*
X108268Y57271D01*
X102362D02*
X102762Y57671D01*
X103162D01*
X102762Y58071D01*
X103162Y58471D01*
X102762D01*
X102362Y58871D01*
X101962Y58471D01*
X101562D01*
X101962Y58071D01*
X101562Y57671D01*
X101962D01*
X102362Y57271D01*
X96457D02*
X96857Y57671D01*
X97257D01*
X96857Y58071D01*
X97257Y58471D01*
X96857D01*
X96457Y58871D01*
X96057Y58471D01*
X95657D01*
X96057Y58071D01*
X95657Y57671D01*
X96057D01*
X96457Y57271D01*
X90551D02*
X90951Y57671D01*
X91351D01*
X90951Y58071D01*
X91351Y58471D01*
X90951D01*
X90551Y58871D01*
X90151Y58471D01*
X89751D01*
X90151Y58071D01*
X89751Y57671D01*
X90151D01*
X90551Y57271D01*
X70866Y33649D02*
X71266Y34049D01*
X71666D01*
X71266Y34449D01*
X71666Y34849D01*
X71266D01*
X70866Y35249D01*
X70466Y34849D01*
X70066D01*
X70466Y34449D01*
X70066Y34049D01*
X70466D01*
X70866Y33649D01*
X17717Y34633D02*
X18116Y35033D01*
X18517D01*
X18116Y35433D01*
X18517Y35833D01*
X18116D01*
X17717Y36233D01*
X17316Y35833D01*
X16917D01*
X17316Y35433D01*
X16917Y35033D01*
X17316D01*
X17717Y34633D01*
X22638Y39554D02*
X23038Y39954D01*
X23438D01*
X23038Y40354D01*
X23438Y40754D01*
X23038D01*
X22638Y41154D01*
X22238Y40754D01*
X21838D01*
X22238Y40354D01*
X21838Y39954D01*
X22238D01*
X22638Y39554D01*
X13780D02*
X14179Y39954D01*
X14580D01*
X14179Y40354D01*
X14580Y40754D01*
X14179D01*
X13780Y41154D01*
X13379Y40754D01*
X12979D01*
X13379Y40354D01*
X12979Y39954D01*
X13379D01*
X13780Y39554D01*
X2953Y17901D02*
X3353Y18301D01*
X3753D01*
X3353Y18701D01*
X3753Y19101D01*
X3353D01*
X2953Y19501D01*
X2553Y19101D01*
X2153D01*
X2553Y18701D01*
X2153Y18301D01*
X2553D01*
X2953Y17901D01*
X19685Y2153D02*
X20085Y2553D01*
X20485D01*
X20085Y2953D01*
X20485Y3353D01*
X20085D01*
X19685Y3753D01*
X19285Y3353D01*
X18885D01*
X19285Y2953D01*
X18885Y2553D01*
X19285D01*
X19685Y2153D01*
X25591D02*
X25991Y2553D01*
X26391D01*
X25991Y2953D01*
X26391Y3353D01*
X25991D01*
X25591Y3753D01*
X25190Y3353D01*
X24791D01*
X25190Y2953D01*
X24791Y2553D01*
X25190D01*
X25591Y2153D01*
X31496D02*
X31896Y2553D01*
X32296D01*
X31896Y2953D01*
X32296Y3353D01*
X31896D01*
X31496Y3753D01*
X31096Y3353D01*
X30696D01*
X31096Y2953D01*
X30696Y2553D01*
X31096D01*
X31496Y2153D01*
X37402D02*
X37802Y2553D01*
X38202D01*
X37802Y2953D01*
X38202Y3353D01*
X37802D01*
X37402Y3753D01*
X37002Y3353D01*
X36602D01*
X37002Y2953D01*
X36602Y2553D01*
X37002D01*
X37402Y2153D01*
X120079D02*
X120479Y2553D01*
X120879D01*
X120479Y2953D01*
X120879Y3353D01*
X120479D01*
X120079Y3753D01*
X119679Y3353D01*
X119279D01*
X119679Y2953D01*
X119279Y2553D01*
X119679D01*
X120079Y2153D01*
X137795D02*
X138195Y2553D01*
X138595D01*
X138195Y2953D01*
X138595Y3353D01*
X138195D01*
X137795Y3753D01*
X137395Y3353D01*
X136995D01*
X137395Y2953D01*
X136995Y2553D01*
X137395D01*
X137795Y2153D01*
Y6090D02*
X138195Y6490D01*
X138595D01*
X138195Y6890D01*
X138595Y7290D01*
X138195D01*
X137795Y7690D01*
X137395Y7290D01*
X136995D01*
X137395Y6890D01*
X136995Y6490D01*
X137395D01*
X137795Y6090D01*
X120079D02*
X120479Y6490D01*
X120879D01*
X120479Y6890D01*
X120879Y7290D01*
X120479D01*
X120079Y7690D01*
X119679Y7290D01*
X119279D01*
X119679Y6890D01*
X119279Y6490D01*
X119679D01*
X120079Y6090D01*
X37402D02*
X37802Y6490D01*
X38202D01*
X37802Y6890D01*
X38202Y7290D01*
X37802D01*
X37402Y7690D01*
X37002Y7290D01*
X36602D01*
X37002Y6890D01*
X36602Y6490D01*
X37002D01*
X37402Y6090D01*
X31496D02*
X31896Y6490D01*
X32296D01*
X31896Y6890D01*
X32296Y7290D01*
X31896D01*
X31496Y7690D01*
X31096Y7290D01*
X30696D01*
X31096Y6890D01*
X30696Y6490D01*
X31096D01*
X31496Y6090D01*
X25591D02*
X25991Y6490D01*
X26391D01*
X25991Y6890D01*
X26391Y7290D01*
X25991D01*
X25591Y7690D01*
X25190Y7290D01*
X24791D01*
X25190Y6890D01*
X24791Y6490D01*
X25190D01*
X25591Y6090D01*
X19685D02*
X20085Y6490D01*
X20485D01*
X20085Y6890D01*
X20485Y7290D01*
X20085D01*
X19685Y7690D01*
X19285Y7290D01*
X18885D01*
X19285Y6890D01*
X18885Y6490D01*
X19285D01*
X19685Y6090D01*
X149606Y82861D02*
X150006Y83261D01*
X150406D01*
X150006Y83661D01*
X150406Y84061D01*
X150006D01*
X149606Y84461D01*
X149206Y84061D01*
X148806D01*
X149206Y83661D01*
X148806Y83261D01*
X149206D01*
X149606Y82861D01*
Y76956D02*
X150006Y77356D01*
X150406D01*
X150006Y77756D01*
X150406Y78156D01*
X150006D01*
X149606Y78556D01*
X149206Y78156D01*
X148806D01*
X149206Y77756D01*
X148806Y77356D01*
X149206D01*
X149606Y76956D01*
Y71050D02*
X150006Y71450D01*
X150406D01*
X150006Y71850D01*
X150406Y72250D01*
X150006D01*
X149606Y72650D01*
X149206Y72250D01*
X148806D01*
X149206Y71850D01*
X148806Y71450D01*
X149206D01*
X149606Y71050D01*
Y65145D02*
X150006Y65545D01*
X150406D01*
X150006Y65945D01*
X150406Y66345D01*
X150006D01*
X149606Y66745D01*
X149206Y66345D01*
X148806D01*
X149206Y65945D01*
X148806Y65545D01*
X149206D01*
X149606Y65145D01*
Y29712D02*
X150006Y30112D01*
X150406D01*
X150006Y30512D01*
X150406Y30912D01*
X150006D01*
X149606Y31312D01*
X149206Y30912D01*
X148806D01*
X149206Y30512D01*
X148806Y30112D01*
X149206D01*
X149606Y29712D01*
Y23806D02*
X150006Y24206D01*
X150406D01*
X150006Y24606D01*
X150406Y25006D01*
X150006D01*
X149606Y25406D01*
X149206Y25006D01*
X148806D01*
X149206Y24606D01*
X148806Y24206D01*
X149206D01*
X149606Y23806D01*
Y17901D02*
X150006Y18301D01*
X150406D01*
X150006Y18701D01*
X150406Y19101D01*
X150006D01*
X149606Y19501D01*
X149206Y19101D01*
X148806D01*
X149206Y18701D01*
X148806Y18301D01*
X149206D01*
X149606Y17901D01*
X143701Y82861D02*
X144101Y83261D01*
X144501D01*
X144101Y83661D01*
X144501Y84061D01*
X144101D01*
X143701Y84461D01*
X143301Y84061D01*
X142901D01*
X143301Y83661D01*
X142901Y83261D01*
X143301D01*
X143701Y82861D01*
Y76956D02*
X144101Y77356D01*
X144501D01*
X144101Y77756D01*
X144501Y78156D01*
X144101D01*
X143701Y78556D01*
X143301Y78156D01*
X142901D01*
X143301Y77756D01*
X142901Y77356D01*
X143301D01*
X143701Y76956D01*
Y71050D02*
X144101Y71450D01*
X144501D01*
X144101Y71850D01*
X144501Y72250D01*
X144101D01*
X143701Y72650D01*
X143301Y72250D01*
X142901D01*
X143301Y71850D01*
X142901Y71450D01*
X143301D01*
X143701Y71050D01*
Y65145D02*
X144101Y65545D01*
X144501D01*
X144101Y65945D01*
X144501Y66345D01*
X144101D01*
X143701Y66745D01*
X143301Y66345D01*
X142901D01*
X143301Y65945D01*
X142901Y65545D01*
X143301D01*
X143701Y65145D01*
Y29712D02*
X144101Y30112D01*
X144501D01*
X144101Y30512D01*
X144501Y30912D01*
X144101D01*
X143701Y31312D01*
X143301Y30912D01*
X142901D01*
X143301Y30512D01*
X142901Y30112D01*
X143301D01*
X143701Y29712D01*
Y23806D02*
X144101Y24206D01*
X144501D01*
X144101Y24606D01*
X144501Y25006D01*
X144101D01*
X143701Y25406D01*
X143301Y25006D01*
X142901D01*
X143301Y24606D01*
X142901Y24206D01*
X143301D01*
X143701Y23806D01*
Y17901D02*
X144101Y18301D01*
X144501D01*
X144101Y18701D01*
X144501Y19101D01*
X144101D01*
X143701Y19501D01*
X143301Y19101D01*
X142901D01*
X143301Y18701D01*
X142901Y18301D01*
X143301D01*
X143701Y17901D01*
X137795Y82861D02*
X138195Y83261D01*
X138595D01*
X138195Y83661D01*
X138595Y84061D01*
X138195D01*
X137795Y84461D01*
X137395Y84061D01*
X136995D01*
X137395Y83661D01*
X136995Y83261D01*
X137395D01*
X137795Y82861D01*
Y76956D02*
X138195Y77356D01*
X138595D01*
X138195Y77756D01*
X138595Y78156D01*
X138195D01*
X137795Y78556D01*
X137395Y78156D01*
X136995D01*
X137395Y77756D01*
X136995Y77356D01*
X137395D01*
X137795Y76956D01*
Y71050D02*
X138195Y71450D01*
X138595D01*
X138195Y71850D01*
X138595Y72250D01*
X138195D01*
X137795Y72650D01*
X137395Y72250D01*
X136995D01*
X137395Y71850D01*
X136995Y71450D01*
X137395D01*
X137795Y71050D01*
Y65145D02*
X138195Y65545D01*
X138595D01*
X138195Y65945D01*
X138595Y66345D01*
X138195D01*
X137795Y66745D01*
X137395Y66345D01*
X136995D01*
X137395Y65945D01*
X136995Y65545D01*
X137395D01*
X137795Y65145D01*
Y41523D02*
X138195Y41923D01*
X138595D01*
X138195Y42323D01*
X138595Y42723D01*
X138195D01*
X137795Y43123D01*
X137395Y42723D01*
X136995D01*
X137395Y42323D01*
X136995Y41923D01*
X137395D01*
X137795Y41523D01*
Y29712D02*
X138195Y30112D01*
X138595D01*
X138195Y30512D01*
X138595Y30912D01*
X138195D01*
X137795Y31312D01*
X137395Y30912D01*
X136995D01*
X137395Y30512D01*
X136995Y30112D01*
X137395D01*
X137795Y29712D01*
Y23806D02*
X138195Y24206D01*
X138595D01*
X138195Y24606D01*
X138595Y25006D01*
X138195D01*
X137795Y25406D01*
X137395Y25006D01*
X136995D01*
X137395Y24606D01*
X136995Y24206D01*
X137395D01*
X137795Y23806D01*
Y17901D02*
X138195Y18301D01*
X138595D01*
X138195Y18701D01*
X138595Y19101D01*
X138195D01*
X137795Y19501D01*
X137395Y19101D01*
X136995D01*
X137395Y18701D01*
X136995Y18301D01*
X137395D01*
X137795Y17901D01*
Y11995D02*
X138195Y12395D01*
X138595D01*
X138195Y12795D01*
X138595Y13195D01*
X138195D01*
X137795Y13595D01*
X137395Y13195D01*
X136995D01*
X137395Y12795D01*
X136995Y12395D01*
X137395D01*
X137795Y11995D01*
X131890Y82861D02*
X132290Y83261D01*
X132690D01*
X132290Y83661D01*
X132690Y84061D01*
X132290D01*
X131890Y84461D01*
X131490Y84061D01*
X131090D01*
X131490Y83661D01*
X131090Y83261D01*
X131490D01*
X131890Y82861D01*
Y76956D02*
X132290Y77356D01*
X132690D01*
X132290Y77756D01*
X132690Y78156D01*
X132290D01*
X131890Y78556D01*
X131490Y78156D01*
X131090D01*
X131490Y77756D01*
X131090Y77356D01*
X131490D01*
X131890Y76956D01*
Y71050D02*
X132290Y71450D01*
X132690D01*
X132290Y71850D01*
X132690Y72250D01*
X132290D01*
X131890Y72650D01*
X131490Y72250D01*
X131090D01*
X131490Y71850D01*
X131090Y71450D01*
X131490D01*
X131890Y71050D01*
Y65145D02*
X132290Y65545D01*
X132690D01*
X132290Y65945D01*
X132690Y66345D01*
X132290D01*
X131890Y66745D01*
X131490Y66345D01*
X131090D01*
X131490Y65945D01*
X131090Y65545D01*
X131490D01*
X131890Y65145D01*
Y17901D02*
X132290Y18301D01*
X132690D01*
X132290Y18701D01*
X132690Y19101D01*
X132290D01*
X131890Y19501D01*
X131490Y19101D01*
X131090D01*
X131490Y18701D01*
X131090Y18301D01*
X131490D01*
X131890Y17901D01*
Y11995D02*
X132290Y12395D01*
X132690D01*
X132290Y12795D01*
X132690Y13195D01*
X132290D01*
X131890Y13595D01*
X131490Y13195D01*
X131090D01*
X131490Y12795D01*
X131090Y12395D01*
X131490D01*
X131890Y11995D01*
X125984Y82861D02*
X126384Y83261D01*
X126784D01*
X126384Y83661D01*
X126784Y84061D01*
X126384D01*
X125984Y84461D01*
X125584Y84061D01*
X125184D01*
X125584Y83661D01*
X125184Y83261D01*
X125584D01*
X125984Y82861D01*
Y76956D02*
X126384Y77356D01*
X126784D01*
X126384Y77756D01*
X126784Y78156D01*
X126384D01*
X125984Y78556D01*
X125584Y78156D01*
X125184D01*
X125584Y77756D01*
X125184Y77356D01*
X125584D01*
X125984Y76956D01*
Y71050D02*
X126384Y71450D01*
X126784D01*
X126384Y71850D01*
X126784Y72250D01*
X126384D01*
X125984Y72650D01*
X125584Y72250D01*
X125184D01*
X125584Y71850D01*
X125184Y71450D01*
X125584D01*
X125984Y71050D01*
Y47428D02*
X126384Y47828D01*
X126784D01*
X126384Y48228D01*
X126784Y48628D01*
X126384D01*
X125984Y49028D01*
X125584Y48628D01*
X125184D01*
X125584Y48228D01*
X125184Y47828D01*
X125584D01*
X125984Y47428D01*
Y41523D02*
X126384Y41923D01*
X126784D01*
X126384Y42323D01*
X126784Y42723D01*
X126384D01*
X125984Y43123D01*
X125584Y42723D01*
X125184D01*
X125584Y42323D01*
X125184Y41923D01*
X125584D01*
X125984Y41523D01*
Y35617D02*
X126384Y36017D01*
X126784D01*
X126384Y36417D01*
X126784Y36817D01*
X126384D01*
X125984Y37217D01*
X125584Y36817D01*
X125184D01*
X125584Y36417D01*
X125184Y36017D01*
X125584D01*
X125984Y35617D01*
Y29712D02*
X126384Y30112D01*
X126784D01*
X126384Y30512D01*
X126784Y30912D01*
X126384D01*
X125984Y31312D01*
X125584Y30912D01*
X125184D01*
X125584Y30512D01*
X125184Y30112D01*
X125584D01*
X125984Y29712D01*
Y23806D02*
X126384Y24206D01*
X126784D01*
X126384Y24606D01*
X126784Y25006D01*
X126384D01*
X125984Y25406D01*
X125584Y25006D01*
X125184D01*
X125584Y24606D01*
X125184Y24206D01*
X125584D01*
X125984Y23806D01*
Y11995D02*
X126384Y12395D01*
X126784D01*
X126384Y12795D01*
X126784Y13195D01*
X126384D01*
X125984Y13595D01*
X125584Y13195D01*
X125184D01*
X125584Y12795D01*
X125184Y12395D01*
X125584D01*
X125984Y11995D01*
X120079Y82861D02*
X120479Y83261D01*
X120879D01*
X120479Y83661D01*
X120879Y84061D01*
X120479D01*
X120079Y84461D01*
X119679Y84061D01*
X119279D01*
X119679Y83661D01*
X119279Y83261D01*
X119679D01*
X120079Y82861D01*
Y76956D02*
X120479Y77356D01*
X120879D01*
X120479Y77756D01*
X120879Y78156D01*
X120479D01*
X120079Y78556D01*
X119679Y78156D01*
X119279D01*
X119679Y77756D01*
X119279Y77356D01*
X119679D01*
X120079Y76956D01*
Y65145D02*
X120479Y65545D01*
X120879D01*
X120479Y65945D01*
X120879Y66345D01*
X120479D01*
X120079Y66745D01*
X119679Y66345D01*
X119279D01*
X119679Y65945D01*
X119279Y65545D01*
X119679D01*
X120079Y65145D01*
Y47428D02*
X120479Y47828D01*
X120879D01*
X120479Y48228D01*
X120879Y48628D01*
X120479D01*
X120079Y49028D01*
X119679Y48628D01*
X119279D01*
X119679Y48228D01*
X119279Y47828D01*
X119679D01*
X120079Y47428D01*
Y41523D02*
X120479Y41923D01*
X120879D01*
X120479Y42323D01*
X120879Y42723D01*
X120479D01*
X120079Y43123D01*
X119679Y42723D01*
X119279D01*
X119679Y42323D01*
X119279Y41923D01*
X119679D01*
X120079Y41523D01*
Y35617D02*
X120479Y36017D01*
X120879D01*
X120479Y36417D01*
X120879Y36817D01*
X120479D01*
X120079Y37217D01*
X119679Y36817D01*
X119279D01*
X119679Y36417D01*
X119279Y36017D01*
X119679D01*
X120079Y35617D01*
Y29712D02*
X120479Y30112D01*
X120879D01*
X120479Y30512D01*
X120879Y30912D01*
X120479D01*
X120079Y31312D01*
X119679Y30912D01*
X119279D01*
X119679Y30512D01*
X119279Y30112D01*
X119679D01*
X120079Y29712D01*
Y23806D02*
X120479Y24206D01*
X120879D01*
X120479Y24606D01*
X120879Y25006D01*
X120479D01*
X120079Y25406D01*
X119679Y25006D01*
X119279D01*
X119679Y24606D01*
X119279Y24206D01*
X119679D01*
X120079Y23806D01*
Y11995D02*
X120479Y12395D01*
X120879D01*
X120479Y12795D01*
X120879Y13195D01*
X120479D01*
X120079Y13595D01*
X119679Y13195D01*
X119279D01*
X119679Y12795D01*
X119279Y12395D01*
X119679D01*
X120079Y11995D01*
X114173Y82861D02*
X114573Y83261D01*
X114973D01*
X114573Y83661D01*
X114973Y84061D01*
X114573D01*
X114173Y84461D01*
X113773Y84061D01*
X113373D01*
X113773Y83661D01*
X113373Y83261D01*
X113773D01*
X114173Y82861D01*
Y71050D02*
X114573Y71450D01*
X114973D01*
X114573Y71850D01*
X114973Y72250D01*
X114573D01*
X114173Y72650D01*
X113773Y72250D01*
X113373D01*
X113773Y71850D01*
X113373Y71450D01*
X113773D01*
X114173Y71050D01*
Y65145D02*
X114573Y65545D01*
X114973D01*
X114573Y65945D01*
X114973Y66345D01*
X114573D01*
X114173Y66745D01*
X113773Y66345D01*
X113373D01*
X113773Y65945D01*
X113373Y65545D01*
X113773D01*
X114173Y65145D01*
Y47428D02*
X114573Y47828D01*
X114973D01*
X114573Y48228D01*
X114973Y48628D01*
X114573D01*
X114173Y49028D01*
X113773Y48628D01*
X113373D01*
X113773Y48228D01*
X113373Y47828D01*
X113773D01*
X114173Y47428D01*
Y41523D02*
X114573Y41923D01*
X114973D01*
X114573Y42323D01*
X114973Y42723D01*
X114573D01*
X114173Y43123D01*
X113773Y42723D01*
X113373D01*
X113773Y42323D01*
X113373Y41923D01*
X113773D01*
X114173Y41523D01*
Y35617D02*
X114573Y36017D01*
X114973D01*
X114573Y36417D01*
X114973Y36817D01*
X114573D01*
X114173Y37217D01*
X113773Y36817D01*
X113373D01*
X113773Y36417D01*
X113373Y36017D01*
X113773D01*
X114173Y35617D01*
Y29712D02*
X114573Y30112D01*
X114973D01*
X114573Y30512D01*
X114973Y30912D01*
X114573D01*
X114173Y31312D01*
X113773Y30912D01*
X113373D01*
X113773Y30512D01*
X113373Y30112D01*
X113773D01*
X114173Y29712D01*
Y23806D02*
X114573Y24206D01*
X114973D01*
X114573Y24606D01*
X114973Y25006D01*
X114573D01*
X114173Y25406D01*
X113773Y25006D01*
X113373D01*
X113773Y24606D01*
X113373Y24206D01*
X113773D01*
X114173Y23806D01*
X108268Y82861D02*
X108668Y83261D01*
X109068D01*
X108668Y83661D01*
X109068Y84061D01*
X108668D01*
X108268Y84461D01*
X107868Y84061D01*
X107468D01*
X107868Y83661D01*
X107468Y83261D01*
X107868D01*
X108268Y82861D01*
Y71050D02*
X108668Y71450D01*
X109068D01*
X108668Y71850D01*
X109068Y72250D01*
X108668D01*
X108268Y72650D01*
X107868Y72250D01*
X107468D01*
X107868Y71850D01*
X107468Y71450D01*
X107868D01*
X108268Y71050D01*
Y65145D02*
X108668Y65545D01*
X109068D01*
X108668Y65945D01*
X109068Y66345D01*
X108668D01*
X108268Y66745D01*
X107868Y66345D01*
X107468D01*
X107868Y65945D01*
X107468Y65545D01*
X107868D01*
X108268Y65145D01*
Y47428D02*
X108668Y47828D01*
X109068D01*
X108668Y48228D01*
X109068Y48628D01*
X108668D01*
X108268Y49028D01*
X107868Y48628D01*
X107468D01*
X107868Y48228D01*
X107468Y47828D01*
X107868D01*
X108268Y47428D01*
Y41523D02*
X108668Y41923D01*
X109068D01*
X108668Y42323D01*
X109068Y42723D01*
X108668D01*
X108268Y43123D01*
X107868Y42723D01*
X107468D01*
X107868Y42323D01*
X107468Y41923D01*
X107868D01*
X108268Y41523D01*
Y35617D02*
X108668Y36017D01*
X109068D01*
X108668Y36417D01*
X109068Y36817D01*
X108668D01*
X108268Y37217D01*
X107868Y36817D01*
X107468D01*
X107868Y36417D01*
X107468Y36017D01*
X107868D01*
X108268Y35617D01*
Y29712D02*
X108668Y30112D01*
X109068D01*
X108668Y30512D01*
X109068Y30912D01*
X108668D01*
X108268Y31312D01*
X107868Y30912D01*
X107468D01*
X107868Y30512D01*
X107468Y30112D01*
X107868D01*
X108268Y29712D01*
Y23806D02*
X108668Y24206D01*
X109068D01*
X108668Y24606D01*
X109068Y25006D01*
X108668D01*
X108268Y25406D01*
X107868Y25006D01*
X107468D01*
X107868Y24606D01*
X107468Y24206D01*
X107868D01*
X108268Y23806D01*
Y17901D02*
X108668Y18301D01*
X109068D01*
X108668Y18701D01*
X109068Y19101D01*
X108668D01*
X108268Y19501D01*
X107868Y19101D01*
X107468D01*
X107868Y18701D01*
X107468Y18301D01*
X107868D01*
X108268Y17901D01*
Y11995D02*
X108668Y12395D01*
X109068D01*
X108668Y12795D01*
X109068Y13195D01*
X108668D01*
X108268Y13595D01*
X107868Y13195D01*
X107468D01*
X107868Y12795D01*
X107468Y12395D01*
X107868D01*
X108268Y11995D01*
X102362Y82861D02*
X102762Y83261D01*
X103162D01*
X102762Y83661D01*
X103162Y84061D01*
X102762D01*
X102362Y84461D01*
X101962Y84061D01*
X101562D01*
X101962Y83661D01*
X101562Y83261D01*
X101962D01*
X102362Y82861D01*
Y71050D02*
X102762Y71450D01*
X103162D01*
X102762Y71850D01*
X103162Y72250D01*
X102762D01*
X102362Y72650D01*
X101962Y72250D01*
X101562D01*
X101962Y71850D01*
X101562Y71450D01*
X101962D01*
X102362Y71050D01*
Y65145D02*
X102762Y65545D01*
X103162D01*
X102762Y65945D01*
X103162Y66345D01*
X102762D01*
X102362Y66745D01*
X101962Y66345D01*
X101562D01*
X101962Y65945D01*
X101562Y65545D01*
X101962D01*
X102362Y65145D01*
Y47428D02*
X102762Y47828D01*
X103162D01*
X102762Y48228D01*
X103162Y48628D01*
X102762D01*
X102362Y49028D01*
X101962Y48628D01*
X101562D01*
X101962Y48228D01*
X101562Y47828D01*
X101962D01*
X102362Y47428D01*
Y41523D02*
X102762Y41923D01*
X103162D01*
X102762Y42323D01*
X103162Y42723D01*
X102762D01*
X102362Y43123D01*
X101962Y42723D01*
X101562D01*
X101962Y42323D01*
X101562Y41923D01*
X101962D01*
X102362Y41523D01*
Y29712D02*
X102762Y30112D01*
X103162D01*
X102762Y30512D01*
X103162Y30912D01*
X102762D01*
X102362Y31312D01*
X101962Y30912D01*
X101562D01*
X101962Y30512D01*
X101562Y30112D01*
X101962D01*
X102362Y29712D01*
X96457Y82861D02*
X96857Y83261D01*
X97257D01*
X96857Y83661D01*
X97257Y84061D01*
X96857D01*
X96457Y84461D01*
X96057Y84061D01*
X95657D01*
X96057Y83661D01*
X95657Y83261D01*
X96057D01*
X96457Y82861D01*
Y71050D02*
X96857Y71450D01*
X97257D01*
X96857Y71850D01*
X97257Y72250D01*
X96857D01*
X96457Y72650D01*
X96057Y72250D01*
X95657D01*
X96057Y71850D01*
X95657Y71450D01*
X96057D01*
X96457Y71050D01*
Y65145D02*
X96857Y65545D01*
X97257D01*
X96857Y65945D01*
X97257Y66345D01*
X96857D01*
X96457Y66745D01*
X96057Y66345D01*
X95657D01*
X96057Y65945D01*
X95657Y65545D01*
X96057D01*
X96457Y65145D01*
Y47428D02*
X96857Y47828D01*
X97257D01*
X96857Y48228D01*
X97257Y48628D01*
X96857D01*
X96457Y49028D01*
X96057Y48628D01*
X95657D01*
X96057Y48228D01*
X95657Y47828D01*
X96057D01*
X96457Y47428D01*
Y29712D02*
X96857Y30112D01*
X97257D01*
X96857Y30512D01*
X97257Y30912D01*
X96857D01*
X96457Y31312D01*
X96057Y30912D01*
X95657D01*
X96057Y30512D01*
X95657Y30112D01*
X96057D01*
X96457Y29712D01*
Y23806D02*
X96857Y24206D01*
X97257D01*
X96857Y24606D01*
X97257Y25006D01*
X96857D01*
X96457Y25406D01*
X96057Y25006D01*
X95657D01*
X96057Y24606D01*
X95657Y24206D01*
X96057D01*
X96457Y23806D01*
X90551Y82861D02*
X90951Y83261D01*
X91351D01*
X90951Y83661D01*
X91351Y84061D01*
X90951D01*
X90551Y84461D01*
X90151Y84061D01*
X89751D01*
X90151Y83661D01*
X89751Y83261D01*
X90151D01*
X90551Y82861D01*
Y71050D02*
X90951Y71450D01*
X91351D01*
X90951Y71850D01*
X91351Y72250D01*
X90951D01*
X90551Y72650D01*
X90151Y72250D01*
X89751D01*
X90151Y71850D01*
X89751Y71450D01*
X90151D01*
X90551Y71050D01*
Y65145D02*
X90951Y65545D01*
X91351D01*
X90951Y65945D01*
X91351Y66345D01*
X90951D01*
X90551Y66745D01*
X90151Y66345D01*
X89751D01*
X90151Y65945D01*
X89751Y65545D01*
X90151D01*
X90551Y65145D01*
Y47428D02*
X90951Y47828D01*
X91351D01*
X90951Y48228D01*
X91351Y48628D01*
X90951D01*
X90551Y49028D01*
X90151Y48628D01*
X89751D01*
X90151Y48228D01*
X89751Y47828D01*
X90151D01*
X90551Y47428D01*
Y41523D02*
X90951Y41923D01*
X91351D01*
X90951Y42323D01*
X91351Y42723D01*
X90951D01*
X90551Y43123D01*
X90151Y42723D01*
X89751D01*
X90151Y42323D01*
X89751Y41923D01*
X90151D01*
X90551Y41523D01*
Y35617D02*
X90951Y36017D01*
X91351D01*
X90951Y36417D01*
X91351Y36817D01*
X90951D01*
X90551Y37217D01*
X90151Y36817D01*
X89751D01*
X90151Y36417D01*
X89751Y36017D01*
X90151D01*
X90551Y35617D01*
Y29712D02*
X90951Y30112D01*
X91351D01*
X90951Y30512D01*
X91351Y30912D01*
X90951D01*
X90551Y31312D01*
X90151Y30912D01*
X89751D01*
X90151Y30512D01*
X89751Y30112D01*
X90151D01*
X90551Y29712D01*
X84646Y82861D02*
X85046Y83261D01*
X85446D01*
X85046Y83661D01*
X85446Y84061D01*
X85046D01*
X84646Y84461D01*
X84246Y84061D01*
X83846D01*
X84246Y83661D01*
X83846Y83261D01*
X84246D01*
X84646Y82861D01*
Y71050D02*
X85046Y71450D01*
X85446D01*
X85046Y71850D01*
X85446Y72250D01*
X85046D01*
X84646Y72650D01*
X84246Y72250D01*
X83846D01*
X84246Y71850D01*
X83846Y71450D01*
X84246D01*
X84646Y71050D01*
Y65145D02*
X85046Y65545D01*
X85446D01*
X85046Y65945D01*
X85446Y66345D01*
X85046D01*
X84646Y66745D01*
X84246Y66345D01*
X83846D01*
X84246Y65945D01*
X83846Y65545D01*
X84246D01*
X84646Y65145D01*
Y47428D02*
X85046Y47828D01*
X85446D01*
X85046Y48228D01*
X85446Y48628D01*
X85046D01*
X84646Y49028D01*
X84246Y48628D01*
X83846D01*
X84246Y48228D01*
X83846Y47828D01*
X84246D01*
X84646Y47428D01*
X78740Y82861D02*
X79140Y83261D01*
X79540D01*
X79140Y83661D01*
X79540Y84061D01*
X79140D01*
X78740Y84461D01*
X78340Y84061D01*
X77940D01*
X78340Y83661D01*
X77940Y83261D01*
X78340D01*
X78740Y82861D01*
Y71050D02*
X79140Y71450D01*
X79540D01*
X79140Y71850D01*
X79540Y72250D01*
X79140D01*
X78740Y72650D01*
X78340Y72250D01*
X77940D01*
X78340Y71850D01*
X77940Y71450D01*
X78340D01*
X78740Y71050D01*
Y65145D02*
X79140Y65545D01*
X79540D01*
X79140Y65945D01*
X79540Y66345D01*
X79140D01*
X78740Y66745D01*
X78340Y66345D01*
X77940D01*
X78340Y65945D01*
X77940Y65545D01*
X78340D01*
X78740Y65145D01*
Y47428D02*
X79140Y47828D01*
X79540D01*
X79140Y48228D01*
X79540Y48628D01*
X79140D01*
X78740Y49028D01*
X78340Y48628D01*
X77940D01*
X78340Y48228D01*
X77940Y47828D01*
X78340D01*
X78740Y47428D01*
Y23806D02*
X79140Y24206D01*
X79540D01*
X79140Y24606D01*
X79540Y25006D01*
X79140D01*
X78740Y25406D01*
X78340Y25006D01*
X77940D01*
X78340Y24606D01*
X77940Y24206D01*
X78340D01*
X78740Y23806D01*
Y17901D02*
X79140Y18301D01*
X79540D01*
X79140Y18701D01*
X79540Y19101D01*
X79140D01*
X78740Y19501D01*
X78340Y19101D01*
X77940D01*
X78340Y18701D01*
X77940Y18301D01*
X78340D01*
X78740Y17901D01*
Y11995D02*
X79140Y12395D01*
X79540D01*
X79140Y12795D01*
X79540Y13195D01*
X79140D01*
X78740Y13595D01*
X78340Y13195D01*
X77940D01*
X78340Y12795D01*
X77940Y12395D01*
X78340D01*
X78740Y11995D01*
X72835Y82861D02*
X73235Y83261D01*
X73635D01*
X73235Y83661D01*
X73635Y84061D01*
X73235D01*
X72835Y84461D01*
X72435Y84061D01*
X72035D01*
X72435Y83661D01*
X72035Y83261D01*
X72435D01*
X72835Y82861D01*
Y65145D02*
X73235Y65545D01*
X73635D01*
X73235Y65945D01*
X73635Y66345D01*
X73235D01*
X72835Y66745D01*
X72435Y66345D01*
X72035D01*
X72435Y65945D01*
X72035Y65545D01*
X72435D01*
X72835Y65145D01*
Y47428D02*
X73235Y47828D01*
X73635D01*
X73235Y48228D01*
X73635Y48628D01*
X73235D01*
X72835Y49028D01*
X72435Y48628D01*
X72035D01*
X72435Y48228D01*
X72035Y47828D01*
X72435D01*
X72835Y47428D01*
Y41523D02*
X73235Y41923D01*
X73635D01*
X73235Y42323D01*
X73635Y42723D01*
X73235D01*
X72835Y43123D01*
X72435Y42723D01*
X72035D01*
X72435Y42323D01*
X72035Y41923D01*
X72435D01*
X72835Y41523D01*
X66929Y82861D02*
X67329Y83261D01*
X67729D01*
X67329Y83661D01*
X67729Y84061D01*
X67329D01*
X66929Y84461D01*
X66529Y84061D01*
X66129D01*
X66529Y83661D01*
X66129Y83261D01*
X66529D01*
X66929Y82861D01*
Y47428D02*
X67329Y47828D01*
X67729D01*
X67329Y48228D01*
X67729Y48628D01*
X67329D01*
X66929Y49028D01*
X66529Y48628D01*
X66129D01*
X66529Y48228D01*
X66129Y47828D01*
X66529D01*
X66929Y47428D01*
Y41523D02*
X67329Y41923D01*
X67729D01*
X67329Y42323D01*
X67729Y42723D01*
X67329D01*
X66929Y43123D01*
X66529Y42723D01*
X66129D01*
X66529Y42323D01*
X66129Y41923D01*
X66529D01*
X66929Y41523D01*
Y23806D02*
X67329Y24206D01*
X67729D01*
X67329Y24606D01*
X67729Y25006D01*
X67329D01*
X66929Y25406D01*
X66529Y25006D01*
X66129D01*
X66529Y24606D01*
X66129Y24206D01*
X66529D01*
X66929Y23806D01*
X61024Y82861D02*
X61424Y83261D01*
X61824D01*
X61424Y83661D01*
X61824Y84061D01*
X61424D01*
X61024Y84461D01*
X60624Y84061D01*
X60224D01*
X60624Y83661D01*
X60224Y83261D01*
X60624D01*
X61024Y82861D01*
Y47428D02*
X61424Y47828D01*
X61824D01*
X61424Y48228D01*
X61824Y48628D01*
X61424D01*
X61024Y49028D01*
X60624Y48628D01*
X60224D01*
X60624Y48228D01*
X60224Y47828D01*
X60624D01*
X61024Y47428D01*
Y23806D02*
X61424Y24206D01*
X61824D01*
X61424Y24606D01*
X61824Y25006D01*
X61424D01*
X61024Y25406D01*
X60624Y25006D01*
X60224D01*
X60624Y24606D01*
X60224Y24206D01*
X60624D01*
X61024Y23806D01*
X55118Y82861D02*
X55518Y83261D01*
X55918D01*
X55518Y83661D01*
X55918Y84061D01*
X55518D01*
X55118Y84461D01*
X54718Y84061D01*
X54318D01*
X54718Y83661D01*
X54318Y83261D01*
X54718D01*
X55118Y82861D01*
Y53334D02*
X55518Y53734D01*
X55918D01*
X55518Y54134D01*
X55918Y54534D01*
X55518D01*
X55118Y54934D01*
X54718Y54534D01*
X54318D01*
X54718Y54134D01*
X54318Y53734D01*
X54718D01*
X55118Y53334D01*
Y35617D02*
X55518Y36017D01*
X55918D01*
X55518Y36417D01*
X55918Y36817D01*
X55518D01*
X55118Y37217D01*
X54718Y36817D01*
X54318D01*
X54718Y36417D01*
X54318Y36017D01*
X54718D01*
X55118Y35617D01*
X49213Y82861D02*
X49613Y83261D01*
X50013D01*
X49613Y83661D01*
X50013Y84061D01*
X49613D01*
X49213Y84461D01*
X48813Y84061D01*
X48413D01*
X48813Y83661D01*
X48413Y83261D01*
X48813D01*
X49213Y82861D01*
Y41523D02*
X49613Y41923D01*
X50013D01*
X49613Y42323D01*
X50013Y42723D01*
X49613D01*
X49213Y43123D01*
X48813Y42723D01*
X48413D01*
X48813Y42323D01*
X48413Y41923D01*
X48813D01*
X49213Y41523D01*
Y29712D02*
X49613Y30112D01*
X50013D01*
X49613Y30512D01*
X50013Y30912D01*
X49613D01*
X49213Y31312D01*
X48813Y30912D01*
X48413D01*
X48813Y30512D01*
X48413Y30112D01*
X48813D01*
X49213Y29712D01*
Y23806D02*
X49613Y24206D01*
X50013D01*
X49613Y24606D01*
X50013Y25006D01*
X49613D01*
X49213Y25406D01*
X48813Y25006D01*
X48413D01*
X48813Y24606D01*
X48413Y24206D01*
X48813D01*
X49213Y23806D01*
Y17901D02*
X49613Y18301D01*
X50013D01*
X49613Y18701D01*
X50013Y19101D01*
X49613D01*
X49213Y19501D01*
X48813Y19101D01*
X48413D01*
X48813Y18701D01*
X48413Y18301D01*
X48813D01*
X49213Y17901D01*
Y11995D02*
X49613Y12395D01*
X50013D01*
X49613Y12795D01*
X50013Y13195D01*
X49613D01*
X49213Y13595D01*
X48813Y13195D01*
X48413D01*
X48813Y12795D01*
X48413Y12395D01*
X48813D01*
X49213Y11995D01*
X43307Y82861D02*
X43707Y83261D01*
X44107D01*
X43707Y83661D01*
X44107Y84061D01*
X43707D01*
X43307Y84461D01*
X42907Y84061D01*
X42507D01*
X42907Y83661D01*
X42507Y83261D01*
X42907D01*
X43307Y82861D01*
Y76956D02*
X43707Y77356D01*
X44107D01*
X43707Y77756D01*
X44107Y78156D01*
X43707D01*
X43307Y78556D01*
X42907Y78156D01*
X42507D01*
X42907Y77756D01*
X42507Y77356D01*
X42907D01*
X43307Y76956D01*
Y71050D02*
X43707Y71450D01*
X44107D01*
X43707Y71850D01*
X44107Y72250D01*
X43707D01*
X43307Y72650D01*
X42907Y72250D01*
X42507D01*
X42907Y71850D01*
X42507Y71450D01*
X42907D01*
X43307Y71050D01*
Y47428D02*
X43707Y47828D01*
X44107D01*
X43707Y48228D01*
X44107Y48628D01*
X43707D01*
X43307Y49028D01*
X42907Y48628D01*
X42507D01*
X42907Y48228D01*
X42507Y47828D01*
X42907D01*
X43307Y47428D01*
Y35617D02*
X43707Y36017D01*
X44107D01*
X43707Y36417D01*
X44107Y36817D01*
X43707D01*
X43307Y37217D01*
X42907Y36817D01*
X42507D01*
X42907Y36417D01*
X42507Y36017D01*
X42907D01*
X43307Y35617D01*
Y29712D02*
X43707Y30112D01*
X44107D01*
X43707Y30512D01*
X44107Y30912D01*
X43707D01*
X43307Y31312D01*
X42907Y30912D01*
X42507D01*
X42907Y30512D01*
X42507Y30112D01*
X42907D01*
X43307Y29712D01*
Y23806D02*
X43707Y24206D01*
X44107D01*
X43707Y24606D01*
X44107Y25006D01*
X43707D01*
X43307Y25406D01*
X42907Y25006D01*
X42507D01*
X42907Y24606D01*
X42507Y24206D01*
X42907D01*
X43307Y23806D01*
X37402Y82861D02*
X37802Y83261D01*
X38202D01*
X37802Y83661D01*
X38202Y84061D01*
X37802D01*
X37402Y84461D01*
X37002Y84061D01*
X36602D01*
X37002Y83661D01*
X36602Y83261D01*
X37002D01*
X37402Y82861D01*
Y76956D02*
X37802Y77356D01*
X38202D01*
X37802Y77756D01*
X38202Y78156D01*
X37802D01*
X37402Y78556D01*
X37002Y78156D01*
X36602D01*
X37002Y77756D01*
X36602Y77356D01*
X37002D01*
X37402Y76956D01*
Y71050D02*
X37802Y71450D01*
X38202D01*
X37802Y71850D01*
X38202Y72250D01*
X37802D01*
X37402Y72650D01*
X37002Y72250D01*
X36602D01*
X37002Y71850D01*
X36602Y71450D01*
X37002D01*
X37402Y71050D01*
Y65145D02*
X37802Y65545D01*
X38202D01*
X37802Y65945D01*
X38202Y66345D01*
X37802D01*
X37402Y66745D01*
X37002Y66345D01*
X36602D01*
X37002Y65945D01*
X36602Y65545D01*
X37002D01*
X37402Y65145D01*
Y35617D02*
X37802Y36017D01*
X38202D01*
X37802Y36417D01*
X38202Y36817D01*
X37802D01*
X37402Y37217D01*
X37002Y36817D01*
X36602D01*
X37002Y36417D01*
X36602Y36017D01*
X37002D01*
X37402Y35617D01*
Y29712D02*
X37802Y30112D01*
X38202D01*
X37802Y30512D01*
X38202Y30912D01*
X37802D01*
X37402Y31312D01*
X37002Y30912D01*
X36602D01*
X37002Y30512D01*
X36602Y30112D01*
X37002D01*
X37402Y29712D01*
Y23806D02*
X37802Y24206D01*
X38202D01*
X37802Y24606D01*
X38202Y25006D01*
X37802D01*
X37402Y25406D01*
X37002Y25006D01*
X36602D01*
X37002Y24606D01*
X36602Y24206D01*
X37002D01*
X37402Y23806D01*
Y17901D02*
X37802Y18301D01*
X38202D01*
X37802Y18701D01*
X38202Y19101D01*
X37802D01*
X37402Y19501D01*
X37002Y19101D01*
X36602D01*
X37002Y18701D01*
X36602Y18301D01*
X37002D01*
X37402Y17901D01*
X31496Y82861D02*
X31896Y83261D01*
X32296D01*
X31896Y83661D01*
X32296Y84061D01*
X31896D01*
X31496Y84461D01*
X31096Y84061D01*
X30696D01*
X31096Y83661D01*
X30696Y83261D01*
X31096D01*
X31496Y82861D01*
Y76956D02*
X31896Y77356D01*
X32296D01*
X31896Y77756D01*
X32296Y78156D01*
X31896D01*
X31496Y78556D01*
X31096Y78156D01*
X30696D01*
X31096Y77756D01*
X30696Y77356D01*
X31096D01*
X31496Y76956D01*
Y71050D02*
X31896Y71450D01*
X32296D01*
X31896Y71850D01*
X32296Y72250D01*
X31896D01*
X31496Y72650D01*
X31096Y72250D01*
X30696D01*
X31096Y71850D01*
X30696Y71450D01*
X31096D01*
X31496Y71050D01*
Y65145D02*
X31896Y65545D01*
X32296D01*
X31896Y65945D01*
X32296Y66345D01*
X31896D01*
X31496Y66745D01*
X31096Y66345D01*
X30696D01*
X31096Y65945D01*
X30696Y65545D01*
X31096D01*
X31496Y65145D01*
Y23806D02*
X31896Y24206D01*
X32296D01*
X31896Y24606D01*
X32296Y25006D01*
X31896D01*
X31496Y25406D01*
X31096Y25006D01*
X30696D01*
X31096Y24606D01*
X30696Y24206D01*
X31096D01*
X31496Y23806D01*
Y11995D02*
X31896Y12395D01*
X32296D01*
X31896Y12795D01*
X32296Y13195D01*
X31896D01*
X31496Y13595D01*
X31096Y13195D01*
X30696D01*
X31096Y12795D01*
X30696Y12395D01*
X31096D01*
X31496Y11995D01*
X25591Y23806D02*
X25991Y24206D01*
X26391D01*
X25991Y24606D01*
X26391Y25006D01*
X25991D01*
X25591Y25406D01*
X25190Y25006D01*
X24791D01*
X25190Y24606D01*
X24791Y24206D01*
X25190D01*
X25591Y23806D01*
Y17901D02*
X25991Y18301D01*
X26391D01*
X25991Y18701D01*
X26391Y19101D01*
X25991D01*
X25591Y19501D01*
X25190Y19101D01*
X24791D01*
X25190Y18701D01*
X24791Y18301D01*
X25190D01*
X25591Y17901D01*
Y11995D02*
X25991Y12395D01*
X26391D01*
X25991Y12795D01*
X26391Y13195D01*
X25991D01*
X25591Y13595D01*
X25190Y13195D01*
X24791D01*
X25190Y12795D01*
X24791Y12395D01*
X25190D01*
X25591Y11995D01*
X19685Y29712D02*
X20085Y30112D01*
X20485D01*
X20085Y30512D01*
X20485Y30912D01*
X20085D01*
X19685Y31312D01*
X19285Y30912D01*
X18885D01*
X19285Y30512D01*
X18885Y30112D01*
X19285D01*
X19685Y29712D01*
Y23806D02*
X20085Y24206D01*
X20485D01*
X20085Y24606D01*
X20485Y25006D01*
X20085D01*
X19685Y25406D01*
X19285Y25006D01*
X18885D01*
X19285Y24606D01*
X18885Y24206D01*
X19285D01*
X19685Y23806D01*
Y17901D02*
X20085Y18301D01*
X20485D01*
X20085Y18701D01*
X20485Y19101D01*
X20085D01*
X19685Y19501D01*
X19285Y19101D01*
X18885D01*
X19285Y18701D01*
X18885Y18301D01*
X19285D01*
X19685Y17901D01*
Y11995D02*
X20085Y12395D01*
X20485D01*
X20085Y12795D01*
X20485Y13195D01*
X20085D01*
X19685Y13595D01*
X19285Y13195D01*
X18885D01*
X19285Y12795D01*
X18885Y12395D01*
X19285D01*
X19685Y11995D01*
X13780Y23806D02*
X14179Y24206D01*
X14580D01*
X14179Y24606D01*
X14580Y25006D01*
X14179D01*
X13780Y25406D01*
X13379Y25006D01*
X12979D01*
X13379Y24606D01*
X12979Y24206D01*
X13379D01*
X13780Y23806D01*
Y17901D02*
X14179Y18301D01*
X14580D01*
X14179Y18701D01*
X14580Y19101D01*
X14179D01*
X13780Y19501D01*
X13379Y19101D01*
X12979D01*
X13379Y18701D01*
X12979Y18301D01*
X13379D01*
X13780Y17901D01*
X7874D02*
X8274Y18301D01*
X8674D01*
X8274Y18701D01*
X8674Y19101D01*
X8274D01*
X7874Y19501D01*
X7474Y19101D01*
X7074D01*
X7474Y18701D01*
X7074Y18301D01*
X7474D01*
X7874Y17901D01*
X83750Y29800D02*
X84150Y30200D01*
X84550D01*
X84150Y30600D01*
X84550Y31000D01*
X84150D01*
X83750Y31400D01*
X83350Y31000D01*
X82950D01*
X83350Y30600D01*
X82950Y30200D01*
X83350D01*
X83750Y29800D01*
X23327Y60617D02*
X23727Y61017D01*
X24127D01*
X23727Y61417D01*
X24127Y61817D01*
X23727D01*
X23327Y62217D01*
X22927Y61817D01*
X22527D01*
X22927Y61417D01*
X22527Y61017D01*
X22927D01*
X23327Y60617D01*
X23193Y48468D02*
X23593Y48868D01*
X23993D01*
X23593Y49268D01*
X23993Y49668D01*
X23593D01*
X23193Y50068D01*
X22793Y49668D01*
X22393D01*
X22793Y49268D01*
X22393Y48868D01*
X22793D01*
X23193Y48468D01*
X21654Y51169D02*
X22053Y51569D01*
X22454D01*
X22053Y51968D01*
X22454Y52368D01*
X22053D01*
X21654Y52768D01*
X21253Y52368D01*
X20854D01*
X21253Y51968D01*
X20854Y51569D01*
X21253D01*
X21654Y51169D01*
X17126Y58550D02*
X17526Y58950D01*
X17926D01*
X17526Y59350D01*
X17926Y59750D01*
X17526D01*
X17126Y60150D01*
X16726Y59750D01*
X16326D01*
X16726Y59350D01*
X16326Y58950D01*
X16726D01*
X17126Y58550D01*
X68504Y68098D02*
X68904Y68498D01*
X69304D01*
X68904Y68898D01*
X69304Y69298D01*
X68904D01*
X68504Y69698D01*
X68104Y69298D01*
X67704D01*
X68104Y68898D01*
X67704Y68498D01*
X68104D01*
X68504Y68098D01*
X11417Y50775D02*
X11817Y51175D01*
X12217D01*
X11817Y51575D01*
X12217Y51975D01*
X11817D01*
X11417Y52375D01*
X11017Y51975D01*
X10617D01*
X11017Y51575D01*
X10617Y51175D01*
X11017D01*
X11417Y50775D01*
X10925Y57172D02*
X11325Y57572D01*
X11725D01*
X11325Y57972D01*
X11725Y58372D01*
X11325D01*
X10925Y58772D01*
X10525Y58372D01*
X10125D01*
X10525Y57972D01*
X10125Y57572D01*
X10525D01*
X10925Y57172D01*
X25787Y68590D02*
X26187Y68990D01*
X26587D01*
X26187Y69390D01*
X26587Y69790D01*
X26187D01*
X25787Y70190D01*
X25387Y69790D01*
X24987D01*
X25387Y69390D01*
X24987Y68990D01*
X25387D01*
X25787Y68590D01*
X22835D02*
X23235Y68990D01*
X23635D01*
X23235Y69390D01*
X23635Y69790D01*
X23235D01*
X22835Y70190D01*
X22435Y69790D01*
X22035D01*
X22435Y69390D01*
X22035Y68990D01*
X22435D01*
X22835Y68590D01*
X52362Y67704D02*
X52762Y68104D01*
X53162D01*
X52762Y68504D01*
X53162Y68904D01*
X52762D01*
X52362Y69304D01*
X51962Y68904D01*
X51562D01*
X51962Y68504D01*
X51562Y68104D01*
X51962D01*
X52362Y67704D01*
X62598D02*
X62998Y68104D01*
X63398D01*
X62998Y68504D01*
X63398Y68904D01*
X62998D01*
X62598Y69304D01*
X62198Y68904D01*
X61798D01*
X62198Y68504D01*
X61798Y68104D01*
X62198D01*
X62598Y67704D01*
X23228Y53924D02*
X23628Y54324D01*
X24028D01*
X23628Y54724D01*
X24028Y55124D01*
X23628D01*
X23228Y55524D01*
X22828Y55124D01*
X22428D01*
X22828Y54724D01*
X22428Y54324D01*
X22828D01*
X23228Y53924D01*
X151339Y46483D02*
X151739Y46883D01*
X152139D01*
X151739Y47283D01*
X152139Y47683D01*
X151739D01*
X151339Y48083D01*
X150939Y47683D01*
X150539D01*
X150939Y47283D01*
X150539Y46883D01*
X150939D01*
X151339Y46483D01*
X57972Y54712D02*
X58372Y55112D01*
X58772D01*
X58372Y55512D01*
X58772Y55912D01*
X58372D01*
X57972Y56312D01*
X57572Y55912D01*
X57172D01*
X57572Y55512D01*
X57172Y55112D01*
X57572D01*
X57972Y54712D01*
X21260Y65342D02*
X21660Y65742D01*
X22060D01*
X21660Y66142D01*
X22060Y66542D01*
X21660D01*
X21260Y66942D01*
X20860Y66542D01*
X20460D01*
X20860Y66142D01*
X20460Y65742D01*
X20860D01*
X21260Y65342D01*
X70472Y79121D02*
X70872Y79521D01*
X71272D01*
X70872Y79921D01*
X71272Y80321D01*
X70872D01*
X70472Y80721D01*
X70072Y80321D01*
X69672D01*
X70072Y79921D01*
X69672Y79521D01*
X70072D01*
X70472Y79121D01*
X1969Y51562D02*
X2369Y51962D01*
X2768D01*
X2369Y52362D01*
X2768Y52762D01*
X2369D01*
X1969Y53162D01*
X1568Y52762D01*
X1168D01*
X1568Y52362D01*
X1168Y51962D01*
X1568D01*
X1969Y51562D01*
X11448Y42772D02*
X11848Y43172D01*
X12248D01*
X11848Y43572D01*
X12248Y43972D01*
X11848D01*
X11448Y44372D01*
X11048Y43972D01*
X10648D01*
X11048Y43572D01*
X10648Y43172D01*
X11048D01*
X11448Y42772D01*
X138583Y46444D02*
X138983Y46844D01*
X139383D01*
X138983Y47244D01*
X139383Y47644D01*
X138983D01*
X138583Y48044D01*
X138183Y47644D01*
X137783D01*
X138183Y47244D01*
X137783Y46844D01*
X138183D01*
X138583Y46444D01*
X76870Y36995D02*
X77270Y37395D01*
X77670D01*
X77270Y37795D01*
X77670Y38195D01*
X77270D01*
X76870Y38595D01*
X76470Y38195D01*
X76070D01*
X76470Y37795D01*
X76070Y37395D01*
X76470D01*
X76870Y36995D01*
X8563Y42704D02*
X8963Y43104D01*
X9363D01*
X8963Y43504D01*
X9363Y43904D01*
X8963D01*
X8563Y44304D01*
X8163Y43904D01*
X7763D01*
X8163Y43504D01*
X7763Y43104D01*
X8163D01*
X8563Y42704D01*
X151575Y51464D02*
X151975Y51864D01*
X152375D01*
X151975Y52264D01*
X152375Y52664D01*
X151975D01*
X151575Y53064D01*
X151175Y52664D01*
X150775D01*
X151175Y52264D01*
X150775Y51864D01*
X151175D01*
X151575Y51464D01*
X12205Y53924D02*
X12605Y54324D01*
X13005D01*
X12605Y54724D01*
X13005Y55124D01*
X12605D01*
X12205Y55524D01*
X11805Y55124D01*
X11405D01*
X11805Y54724D01*
X11405Y54324D01*
X11805D01*
X12205Y53924D01*
X19882Y68590D02*
X20282Y68990D01*
X20682D01*
X20282Y69390D01*
X20682Y69790D01*
X20282D01*
X19882Y70190D01*
X19482Y69790D01*
X19082D01*
X19482Y69390D01*
X19082Y68990D01*
X19482D01*
X19882Y68590D01*
X8465Y60800D02*
X8865Y61200D01*
X9265D01*
X8865Y61600D01*
X9265Y62000D01*
X8865D01*
X8465Y62400D01*
X8065Y62000D01*
X7665D01*
X8065Y61600D01*
X7665Y61200D01*
X8065D01*
X8465Y60800D01*
X3642Y59732D02*
X4042Y60132D01*
X4442D01*
X4042Y60532D01*
X4442Y60931D01*
X4042D01*
X3642Y61331D01*
X3242Y60931D01*
X2842D01*
X3242Y60532D01*
X2842Y60132D01*
X3242D01*
X3642Y59732D01*
X14469Y58550D02*
X14868Y58950D01*
X15269D01*
X14868Y59350D01*
X15269Y59750D01*
X14868D01*
X14469Y60150D01*
X14069Y59750D01*
X13668D01*
X14069Y59350D01*
X13668Y58950D01*
X14069D01*
X14469Y58550D01*
X10925Y60814D02*
X11325Y61214D01*
X11725D01*
X11325Y61614D01*
X11725Y62014D01*
X11325D01*
X10925Y62414D01*
X10525Y62014D01*
X10125D01*
X10525Y61614D01*
X10125Y61214D01*
X10525D01*
X10925Y60814D01*
D48*
X64540Y16417D02*
G03*
X64540Y16417I-800J0D01*
G01*
X74540D02*
G03*
X74540Y16417I-800J0D01*
G01*
X84540D02*
G03*
X84540Y16417I-800J0D01*
G01*
X104540D02*
G03*
X104540Y16417I-800J0D01*
G01*
X114540D02*
G03*
X114540Y16417I-800J0D01*
G01*
X94540D02*
G03*
X94540Y16417I-800J0D01*
G01*
X54540D02*
G03*
X54540Y16417I-800J0D01*
G01*
X44540D02*
G03*
X44540Y16417I-800J0D01*
G01*
M02*
