M48
;Layer_Color=9474304
;FILE_FORMAT=2:5
INCH,LZ
;TYPE=PLATED
T1F00S00C0.01181
T2F00S00C0.04331
T3F00S00C0.07087
;TYPE=NON_PLATED
T4F00S00C0.03917
%
T01
X0002953Y0018701
X0007874Y0018701
X0008563Y0043504
X0001969Y0052362
X0003642Y0060532
X0008465Y00616
X0010925Y0061614
Y0057972
X0012205Y0054724
X0011417Y0051575
X0011448Y0043572
X001378Y0040354
X0017717Y0035433
X0019685Y0030512
Y0024606
X0025591
X0031496
X0037402
X0043307
X0049213
Y0030512
X0043307
Y0036417
X0037402
Y0030512
Y0018701
X0049213
Y0012795
X0049213Y0002953
X0055118
X0061024
X0066929
X0072835
X007874
X0084646
X0090551
X0096457
X0102362
X0108268
X0114173
X0120079
Y000689
X0120079Y0012795
X0125984
X013189
X0137795
Y0018701
X0143701
X0149606
X0154528Y0018701
Y0024606
X0149606Y0024606
Y0030512
X0154528Y0030512
Y0036417
Y0042323
X0151339Y0047283
X0151575Y0052264
X0154528Y0059055
Y0065945
X0149606Y0065945
Y007185
X0154528Y007185
Y0077756
X0149606
Y0083661
X0154528
X0143701
Y0077756
Y007185
Y0065945
X0137795
Y007185
Y0077756
Y0083661
X013189
Y0077756
Y007185
Y0065945
X0125984Y007185
Y0077756
Y0083661
X0120079
Y0077756
Y0065945
X0114173
Y007185
X0108268
Y0065945
X0102362
Y007185
X0096457
Y0065945
X0090551
Y007185
X0084646
Y0065945
X007874
Y007185
Y0083661
X0084646
X0090551
X0096457
X0102362
X0108268
X0114173
X0114173Y0058071
X0120079
X0125984
X0125984Y0048228
Y0042323
Y0036417
Y0030512
Y0024606
X0120079
Y0030512
Y0036417
Y0042323
Y0048228
X0114173
Y0042323
Y0036417
Y0030512
Y0024606
X0108268
Y0030512
Y0036417
Y0042323
Y0048228
X0102362
Y0042323
Y0030512
X0096457
Y0024606
X0088583Y0021654
Y0012795
X0098425
X0108268Y0012795
Y0018701
X013189
X0137795Y0024606
X0143701
Y0030512
X0137795
Y0042323
X0138583Y0047244
X0137795Y000689
Y0002953
X007874Y0012795
Y0018701
Y0024606
X008375Y00306
X0090551Y0030512
Y0036417
Y0042323
Y0048228
X0096457
X0096457Y0058071
X0102362
X0108268
X0090551
X0084646Y0048228
X007874
X0072835
Y0042323
X0066929
Y0048228
X0061024
X0057972Y0055512
X0055118Y0054134
X0052362Y0068504
X0062598
X0068504Y0068898
X0072835Y0065945
X0070472Y0079921
X0072835Y0083661
X0066929
X0061024
X0055118
X0049213
X0043307
Y0077756
Y007185
X0037402
Y0077756
Y0083661
X0031496
Y0077756
Y007185
Y0065945
X0037402
X0025787Y006939
X0022835
X0019882
X002126Y0066142
X0023327Y0061417
X0023228Y0054724
X0021654Y0051968
X0023193Y0049268
X0022638Y0040354
X0033465Y004626
X0043307Y0048228
X0049213Y0042323
X0055118Y0036417
X0061024Y0024606
X0066929
X0070866Y0034449
X007687Y0037795
X0059055Y0012795
X0043307Y0002953
X0037402
Y000689
X0031496
Y0002953
X0025591
Y000689
X0019685
Y0002953
Y0012795
X0025591
X0031496
X0025591Y0018701
X0019685
X001378
Y0024606
X0014469Y005935
X0017126
T02
X004374Y0016417
X005374
X006374
X007374
X008374
X009374
X010374
X011374
T03
X0009843Y0009843
X0147638
T04
X0141138Y0037224
X0149138
X0145138Y0057224
M30
