G04*
G04 #@! TF.GenerationSoftware,Altium Limited,Altium Designer,20.2.5 (213)*
G04*
G04 Layer_Color=128*
%FSLAX25Y25*%
%MOIN*%
G70*
G04*
G04 #@! TF.SameCoordinates,6F863687-9C3A-4172-A650-1A8696597D16*
G04*
G04*
G04 #@! TF.FilePolarity,Positive*
G04*
G01*
G75*
%ADD11C,0.00500*%
%ADD47C,0.00200*%
D11*
X0Y86614D02*
X157480Y86614D01*
X0Y-0D02*
X157480Y0D01*
X0Y-0D02*
Y86614D01*
X157480Y0D02*
Y86614D01*
D47*
X139179Y37224D02*
X143096D01*
X141138Y35266D02*
Y39183D01*
X147179Y37224D02*
X151096D01*
X149138Y35266D02*
Y39183D01*
X143179Y57224D02*
X147097D01*
X145138Y55266D02*
Y59183D01*
X61575Y16417D02*
X65905D01*
X63740Y14252D02*
Y18583D01*
X71575Y16417D02*
X75906D01*
X73740Y14252D02*
Y18583D01*
X81575Y16417D02*
X85905D01*
X83740Y14252D02*
Y18583D01*
X101575Y16417D02*
X105905D01*
X103740Y14252D02*
Y18583D01*
X111575Y16417D02*
X115905D01*
X113740Y14252D02*
Y18583D01*
X91575Y16417D02*
X95906D01*
X93740Y14252D02*
Y18583D01*
X51575Y16417D02*
X55905D01*
X53740Y14252D02*
Y18583D01*
X41575Y16417D02*
X45906D01*
X43740Y14252D02*
Y18583D01*
X144095Y9843D02*
X151181D01*
X147638Y6299D02*
Y13386D01*
X6299Y9843D02*
X13386D01*
X9843Y6299D02*
Y13386D01*
X153937Y18701D02*
X155118D01*
X154528Y18110D02*
Y19291D01*
X153937Y24606D02*
X155118D01*
X154528Y24016D02*
Y25197D01*
X153937Y30512D02*
X155118D01*
X154528Y29921D02*
Y31102D01*
X153937Y36417D02*
X155118D01*
X154528Y35827D02*
Y37008D01*
X153937Y42323D02*
X155118D01*
X154528Y41732D02*
Y42913D01*
X153937Y59055D02*
X155118D01*
X154528Y58465D02*
Y59646D01*
X153937Y65945D02*
X155118D01*
X154528Y65354D02*
Y66535D01*
X153937Y71850D02*
X155118D01*
X154528Y71260D02*
Y72441D01*
X153937Y77756D02*
X155118D01*
X154528Y77165D02*
Y78347D01*
X153937Y83661D02*
X155118D01*
X154528Y83071D02*
Y84252D01*
X32874Y46260D02*
X34055D01*
X33465Y45669D02*
Y46850D01*
X113583Y2953D02*
X114764D01*
X114173Y2362D02*
Y3543D01*
X107677Y2953D02*
X108858D01*
X108268Y2362D02*
Y3543D01*
X101772Y2953D02*
X102953D01*
X102362Y2362D02*
Y3543D01*
X95866Y2953D02*
X97047D01*
X96457Y2362D02*
Y3543D01*
X89961Y2953D02*
X91142D01*
X90551Y2362D02*
Y3543D01*
X84055Y2953D02*
X85236D01*
X84646Y2362D02*
Y3543D01*
X78150Y2953D02*
X79331D01*
X78740Y2362D02*
Y3543D01*
X72244Y2953D02*
X73425D01*
X72835Y2362D02*
Y3543D01*
X66339Y2953D02*
X67520D01*
X66929Y2362D02*
Y3543D01*
X60433Y2953D02*
X61614D01*
X61024Y2362D02*
Y3543D01*
X54528Y2953D02*
X55709D01*
X55118Y2362D02*
Y3543D01*
X48622Y2953D02*
X49803D01*
X49213Y2362D02*
Y3543D01*
X42717Y2953D02*
X43898D01*
X43307Y2362D02*
Y3543D01*
X97835Y12795D02*
X99016D01*
X98425Y12205D02*
Y13386D01*
X87992Y12795D02*
X89173D01*
X88583Y12205D02*
Y13386D01*
X58465Y12795D02*
X59646D01*
X59055Y12205D02*
Y13386D01*
X87992Y21654D02*
X89173D01*
X88583Y21063D02*
Y22244D01*
X125394Y58071D02*
X126575D01*
X125984Y57480D02*
Y58661D01*
X119488Y58071D02*
X120669D01*
X120079Y57480D02*
Y58661D01*
X113583Y58071D02*
X114764D01*
X114173Y57480D02*
Y58661D01*
X107677Y58071D02*
X108858D01*
X108268Y57480D02*
Y58661D01*
X101772Y58071D02*
X102953D01*
X102362Y57480D02*
Y58661D01*
X95866Y58071D02*
X97047D01*
X96457Y57480D02*
Y58661D01*
X89961Y58071D02*
X91142D01*
X90551Y57480D02*
Y58661D01*
X70276Y34449D02*
X71457D01*
X70866Y33858D02*
Y35039D01*
X17126Y35433D02*
X18307D01*
X17717Y34843D02*
Y36024D01*
X22047Y40354D02*
X23228D01*
X22638Y39764D02*
Y40945D01*
X13189Y40354D02*
X14370D01*
X13780Y39764D02*
Y40945D01*
X2362Y18701D02*
X3543D01*
X2953Y18110D02*
Y19291D01*
X19094Y2953D02*
X20276D01*
X19685Y2362D02*
Y3543D01*
X25000Y2953D02*
X26181D01*
X25591Y2362D02*
Y3543D01*
X30906Y2953D02*
X32087D01*
X31496Y2362D02*
Y3543D01*
X36811Y2953D02*
X37992D01*
X37402Y2362D02*
Y3543D01*
X119488Y2953D02*
X120669D01*
X120079Y2362D02*
Y3543D01*
X137205Y2953D02*
X138386D01*
X137795Y2362D02*
Y3543D01*
X137205Y6890D02*
X138386D01*
X137795Y6299D02*
Y7480D01*
X119488Y6890D02*
X120669D01*
X120079Y6299D02*
Y7480D01*
X36811Y6890D02*
X37992D01*
X37402Y6299D02*
Y7480D01*
X30906Y6890D02*
X32087D01*
X31496Y6299D02*
Y7480D01*
X25000Y6890D02*
X26181D01*
X25591Y6299D02*
Y7480D01*
X19094Y6890D02*
X20276D01*
X19685Y6299D02*
Y7480D01*
X149016Y83661D02*
X150197D01*
X149606Y83071D02*
Y84252D01*
X149016Y77756D02*
X150197D01*
X149606Y77165D02*
Y78347D01*
X149016Y71850D02*
X150197D01*
X149606Y71260D02*
Y72441D01*
X149016Y65945D02*
X150197D01*
X149606Y65354D02*
Y66535D01*
X149016Y30512D02*
X150197D01*
X149606Y29921D02*
Y31102D01*
X149016Y24606D02*
X150197D01*
X149606Y24016D02*
Y25197D01*
X149016Y18701D02*
X150197D01*
X149606Y18110D02*
Y19291D01*
X143110Y83661D02*
X144291D01*
X143701Y83071D02*
Y84252D01*
X143110Y77756D02*
X144291D01*
X143701Y77165D02*
Y78347D01*
X143110Y71850D02*
X144291D01*
X143701Y71260D02*
Y72441D01*
X143110Y65945D02*
X144291D01*
X143701Y65354D02*
Y66535D01*
X143110Y30512D02*
X144291D01*
X143701Y29921D02*
Y31102D01*
X143110Y24606D02*
X144291D01*
X143701Y24016D02*
Y25197D01*
X143110Y18701D02*
X144291D01*
X143701Y18110D02*
Y19291D01*
X137205Y83661D02*
X138386D01*
X137795Y83071D02*
Y84252D01*
X137205Y77756D02*
X138386D01*
X137795Y77165D02*
Y78347D01*
X137205Y71850D02*
X138386D01*
X137795Y71260D02*
Y72441D01*
X137205Y65945D02*
X138386D01*
X137795Y65354D02*
Y66535D01*
X137205Y42323D02*
X138386D01*
X137795Y41732D02*
Y42913D01*
X137205Y30512D02*
X138386D01*
X137795Y29921D02*
Y31102D01*
X137205Y24606D02*
X138386D01*
X137795Y24016D02*
Y25197D01*
X137205Y18701D02*
X138386D01*
X137795Y18110D02*
Y19291D01*
X137205Y12795D02*
X138386D01*
X137795Y12205D02*
Y13386D01*
X131299Y83661D02*
X132480D01*
X131890Y83071D02*
Y84252D01*
X131299Y77756D02*
X132480D01*
X131890Y77165D02*
Y78347D01*
X131299Y71850D02*
X132480D01*
X131890Y71260D02*
Y72441D01*
X131299Y65945D02*
X132480D01*
X131890Y65354D02*
Y66535D01*
X131299Y18701D02*
X132480D01*
X131890Y18110D02*
Y19291D01*
X131299Y12795D02*
X132480D01*
X131890Y12205D02*
Y13386D01*
X125394Y83661D02*
X126575D01*
X125984Y83071D02*
Y84252D01*
X125394Y77756D02*
X126575D01*
X125984Y77165D02*
Y78347D01*
X125394Y71850D02*
X126575D01*
X125984Y71260D02*
Y72441D01*
X125394Y48228D02*
X126575D01*
X125984Y47638D02*
Y48819D01*
X125394Y42323D02*
X126575D01*
X125984Y41732D02*
Y42913D01*
X125394Y36417D02*
X126575D01*
X125984Y35827D02*
Y37008D01*
X125394Y30512D02*
X126575D01*
X125984Y29921D02*
Y31102D01*
X125394Y24606D02*
X126575D01*
X125984Y24016D02*
Y25197D01*
X125394Y12795D02*
X126575D01*
X125984Y12205D02*
Y13386D01*
X119488Y83661D02*
X120669D01*
X120079Y83071D02*
Y84252D01*
X119488Y77756D02*
X120669D01*
X120079Y77165D02*
Y78347D01*
X119488Y65945D02*
X120669D01*
X120079Y65354D02*
Y66535D01*
X119488Y48228D02*
X120669D01*
X120079Y47638D02*
Y48819D01*
X119488Y42323D02*
X120669D01*
X120079Y41732D02*
Y42913D01*
X119488Y36417D02*
X120669D01*
X120079Y35827D02*
Y37008D01*
X119488Y30512D02*
X120669D01*
X120079Y29921D02*
Y31102D01*
X119488Y24606D02*
X120669D01*
X120079Y24016D02*
Y25197D01*
X119488Y12795D02*
X120669D01*
X120079Y12205D02*
Y13386D01*
X113583Y83661D02*
X114764D01*
X114173Y83071D02*
Y84252D01*
X113583Y71850D02*
X114764D01*
X114173Y71260D02*
Y72441D01*
X113583Y65945D02*
X114764D01*
X114173Y65354D02*
Y66535D01*
X113583Y48228D02*
X114764D01*
X114173Y47638D02*
Y48819D01*
X113583Y42323D02*
X114764D01*
X114173Y41732D02*
Y42913D01*
X113583Y36417D02*
X114764D01*
X114173Y35827D02*
Y37008D01*
X113583Y30512D02*
X114764D01*
X114173Y29921D02*
Y31102D01*
X113583Y24606D02*
X114764D01*
X114173Y24016D02*
Y25197D01*
X107677Y83661D02*
X108858D01*
X108268Y83071D02*
Y84252D01*
X107677Y71850D02*
X108858D01*
X108268Y71260D02*
Y72441D01*
X107677Y65945D02*
X108858D01*
X108268Y65354D02*
Y66535D01*
X107677Y48228D02*
X108858D01*
X108268Y47638D02*
Y48819D01*
X107677Y42323D02*
X108858D01*
X108268Y41732D02*
Y42913D01*
X107677Y36417D02*
X108858D01*
X108268Y35827D02*
Y37008D01*
X107677Y30512D02*
X108858D01*
X108268Y29921D02*
Y31102D01*
X107677Y24606D02*
X108858D01*
X108268Y24016D02*
Y25197D01*
X107677Y18701D02*
X108858D01*
X108268Y18110D02*
Y19291D01*
X107677Y12795D02*
X108858D01*
X108268Y12205D02*
Y13386D01*
X101772Y83661D02*
X102953D01*
X102362Y83071D02*
Y84252D01*
X101772Y71850D02*
X102953D01*
X102362Y71260D02*
Y72441D01*
X101772Y65945D02*
X102953D01*
X102362Y65354D02*
Y66535D01*
X101772Y48228D02*
X102953D01*
X102362Y47638D02*
Y48819D01*
X101772Y42323D02*
X102953D01*
X102362Y41732D02*
Y42913D01*
X101772Y30512D02*
X102953D01*
X102362Y29921D02*
Y31102D01*
X95866Y83661D02*
X97047D01*
X96457Y83071D02*
Y84252D01*
X95866Y71850D02*
X97047D01*
X96457Y71260D02*
Y72441D01*
X95866Y65945D02*
X97047D01*
X96457Y65354D02*
Y66535D01*
X95866Y48228D02*
X97047D01*
X96457Y47638D02*
Y48819D01*
X95866Y30512D02*
X97047D01*
X96457Y29921D02*
Y31102D01*
X95866Y24606D02*
X97047D01*
X96457Y24016D02*
Y25197D01*
X89961Y83661D02*
X91142D01*
X90551Y83071D02*
Y84252D01*
X89961Y71850D02*
X91142D01*
X90551Y71260D02*
Y72441D01*
X89961Y65945D02*
X91142D01*
X90551Y65354D02*
Y66535D01*
X89961Y48228D02*
X91142D01*
X90551Y47638D02*
Y48819D01*
X89961Y42323D02*
X91142D01*
X90551Y41732D02*
Y42913D01*
X89961Y36417D02*
X91142D01*
X90551Y35827D02*
Y37008D01*
X89961Y30512D02*
X91142D01*
X90551Y29921D02*
Y31102D01*
X84055Y83661D02*
X85236D01*
X84646Y83071D02*
Y84252D01*
X84055Y71850D02*
X85236D01*
X84646Y71260D02*
Y72441D01*
X84055Y65945D02*
X85236D01*
X84646Y65354D02*
Y66535D01*
X84055Y48228D02*
X85236D01*
X84646Y47638D02*
Y48819D01*
X78150Y83661D02*
X79331D01*
X78740Y83071D02*
Y84252D01*
X78150Y71850D02*
X79331D01*
X78740Y71260D02*
Y72441D01*
X78150Y65945D02*
X79331D01*
X78740Y65354D02*
Y66535D01*
X78150Y48228D02*
X79331D01*
X78740Y47638D02*
Y48819D01*
X78150Y24606D02*
X79331D01*
X78740Y24016D02*
Y25197D01*
X78150Y18701D02*
X79331D01*
X78740Y18110D02*
Y19291D01*
X78150Y12795D02*
X79331D01*
X78740Y12205D02*
Y13386D01*
X72244Y83661D02*
X73425D01*
X72835Y83071D02*
Y84252D01*
X72244Y65945D02*
X73425D01*
X72835Y65354D02*
Y66535D01*
X72244Y48228D02*
X73425D01*
X72835Y47638D02*
Y48819D01*
X72244Y42323D02*
X73425D01*
X72835Y41732D02*
Y42913D01*
X66339Y83661D02*
X67520D01*
X66929Y83071D02*
Y84252D01*
X66339Y48228D02*
X67520D01*
X66929Y47638D02*
Y48819D01*
X66339Y42323D02*
X67520D01*
X66929Y41732D02*
Y42913D01*
X66339Y24606D02*
X67520D01*
X66929Y24016D02*
Y25197D01*
X60433Y83661D02*
X61614D01*
X61024Y83071D02*
Y84252D01*
X60433Y48228D02*
X61614D01*
X61024Y47638D02*
Y48819D01*
X60433Y24606D02*
X61614D01*
X61024Y24016D02*
Y25197D01*
X54527Y83661D02*
X55709D01*
X55118Y83071D02*
Y84252D01*
X54527Y54134D02*
X55709D01*
X55118Y53543D02*
Y54724D01*
X54527Y36417D02*
X55709D01*
X55118Y35827D02*
Y37008D01*
X48622Y83661D02*
X49803D01*
X49213Y83071D02*
Y84252D01*
X48622Y42323D02*
X49803D01*
X49213Y41732D02*
Y42913D01*
X48622Y30512D02*
X49803D01*
X49213Y29921D02*
Y31102D01*
X48622Y24606D02*
X49803D01*
X49213Y24016D02*
Y25197D01*
X48622Y18701D02*
X49803D01*
X49213Y18110D02*
Y19291D01*
X48622Y12795D02*
X49803D01*
X49213Y12205D02*
Y13386D01*
X42717Y83661D02*
X43898D01*
X43307Y83071D02*
Y84252D01*
X42717Y77756D02*
X43898D01*
X43307Y77165D02*
Y78347D01*
X42717Y71850D02*
X43898D01*
X43307Y71260D02*
Y72441D01*
X42717Y48228D02*
X43898D01*
X43307Y47638D02*
Y48819D01*
X42717Y36417D02*
X43898D01*
X43307Y35827D02*
Y37008D01*
X42717Y30512D02*
X43898D01*
X43307Y29921D02*
Y31102D01*
X42717Y24606D02*
X43898D01*
X43307Y24016D02*
Y25197D01*
X36811Y83661D02*
X37992D01*
X37402Y83071D02*
Y84252D01*
X36811Y77756D02*
X37992D01*
X37402Y77165D02*
Y78347D01*
X36811Y71850D02*
X37992D01*
X37402Y71260D02*
Y72441D01*
X36811Y65945D02*
X37992D01*
X37402Y65354D02*
Y66535D01*
X36811Y36417D02*
X37992D01*
X37402Y35827D02*
Y37008D01*
X36811Y30512D02*
X37992D01*
X37402Y29921D02*
Y31102D01*
X36811Y24606D02*
X37992D01*
X37402Y24016D02*
Y25197D01*
X36811Y18701D02*
X37992D01*
X37402Y18110D02*
Y19291D01*
X30906Y83661D02*
X32087D01*
X31496Y83071D02*
Y84252D01*
X30906Y77756D02*
X32087D01*
X31496Y77165D02*
Y78347D01*
X30906Y71850D02*
X32087D01*
X31496Y71260D02*
Y72441D01*
X30906Y65945D02*
X32087D01*
X31496Y65354D02*
Y66535D01*
X30906Y24606D02*
X32087D01*
X31496Y24016D02*
Y25197D01*
X30906Y12795D02*
X32087D01*
X31496Y12205D02*
Y13386D01*
X25000Y24606D02*
X26181D01*
X25591Y24016D02*
Y25197D01*
X25000Y18701D02*
X26181D01*
X25591Y18110D02*
Y19291D01*
X25000Y12795D02*
X26181D01*
X25591Y12205D02*
Y13386D01*
X19094Y30512D02*
X20276D01*
X19685Y29921D02*
Y31102D01*
X19094Y24606D02*
X20276D01*
X19685Y24016D02*
Y25197D01*
X19094Y18701D02*
X20276D01*
X19685Y18110D02*
Y19291D01*
X19094Y12795D02*
X20276D01*
X19685Y12205D02*
Y13386D01*
X13189Y24606D02*
X14370D01*
X13780Y24016D02*
Y25197D01*
X13189Y18701D02*
X14370D01*
X13780Y18110D02*
Y19291D01*
X7283Y18701D02*
X8465D01*
X7874Y18110D02*
Y19291D01*
X83160Y30600D02*
X84341D01*
X83750Y30010D02*
Y31191D01*
X22736Y61417D02*
X23917D01*
X23327Y60827D02*
Y62008D01*
X22602Y49268D02*
X23784D01*
X23193Y48677D02*
Y49858D01*
X21063Y51968D02*
X22244D01*
X21654Y51378D02*
Y52559D01*
X16535Y59350D02*
X17717D01*
X17126Y58760D02*
Y59941D01*
X67913Y68898D02*
X69095D01*
X68504Y68307D02*
Y69488D01*
X10827Y51575D02*
X12008D01*
X11417Y50984D02*
Y52165D01*
X10335Y57972D02*
X11516D01*
X10925Y57382D02*
Y58563D01*
X25197Y69390D02*
X26378D01*
X25787Y68799D02*
Y69980D01*
X22244Y69390D02*
X23425D01*
X22835Y68799D02*
Y69980D01*
X51772Y68504D02*
X52953D01*
X52362Y67913D02*
Y69094D01*
X62008Y68504D02*
X63189D01*
X62598Y67913D02*
Y69094D01*
X22638Y54724D02*
X23819D01*
X23228Y54134D02*
Y55315D01*
X150748Y47283D02*
X151929D01*
X151339Y46693D02*
Y47874D01*
X57382Y55512D02*
X58563D01*
X57972Y54921D02*
Y56102D01*
X20669Y66142D02*
X21850D01*
X21260Y65551D02*
Y66732D01*
X69882Y79921D02*
X71063D01*
X70472Y79331D02*
Y80512D01*
X1378Y52362D02*
X2559D01*
X1969Y51772D02*
Y52953D01*
X10858Y43572D02*
X12039D01*
X11448Y42981D02*
Y44162D01*
X137992Y47244D02*
X139173D01*
X138583Y46654D02*
Y47835D01*
X76279Y37795D02*
X77461D01*
X76870Y37205D02*
Y38386D01*
X7972Y43504D02*
X9154D01*
X8563Y42913D02*
Y44094D01*
X150984Y52264D02*
X152165D01*
X151575Y51673D02*
Y52854D01*
X11614Y54724D02*
X12795D01*
X12205Y54134D02*
Y55315D01*
X19291Y69390D02*
X20472D01*
X19882Y68799D02*
Y69980D01*
X7875Y61600D02*
X9056D01*
X8465Y61010D02*
Y62191D01*
X3051Y60532D02*
X4232D01*
X3642Y59941D02*
Y61122D01*
X13878Y59350D02*
X15059D01*
X14469Y58760D02*
Y59941D01*
X10335Y61614D02*
X11516D01*
X10925Y61024D02*
Y62205D01*
M02*
