G04*
G04 #@! TF.GenerationSoftware,Altium Limited,Altium Designer,20.2.5 (213)*
G04*
G04 Layer_Physical_Order=4*
G04 Layer_Color=16711680*
%FSLAX25Y25*%
%MOIN*%
G70*
G04*
G04 #@! TF.SameCoordinates,6F863687-9C3A-4172-A650-1A8696597D16*
G04*
G04*
G04 #@! TF.FilePolarity,Positive*
G04*
G01*
G75*
%ADD10C,0.01000*%
%ADD11C,0.00500*%
%ADD39C,0.01378*%
%ADD40C,0.00598*%
%ADD41C,0.03543*%
%ADD42C,0.06496*%
%ADD43R,0.06496X0.06496*%
%ADD44C,0.13386*%
%ADD45C,0.02362*%
G36*
X155875Y1606D02*
X1606Y1606D01*
X1606Y65074D01*
X18524D01*
Y70979D01*
X29842D01*
Y85009D01*
X155875Y85009D01*
X155875Y1606D01*
D02*
G37*
%LPC*%
G36*
X70472Y81635D02*
X69816Y81505D01*
X69261Y81134D01*
X64173D01*
X64173Y81134D01*
X63709Y81041D01*
X63316Y80778D01*
X63316Y80778D01*
X52690Y70153D01*
X52362Y70218D01*
X51706Y70087D01*
X51150Y69716D01*
X50779Y69160D01*
X50648Y68504D01*
X50779Y67848D01*
X51150Y67292D01*
X51706Y66920D01*
X52362Y66790D01*
X53018Y66920D01*
X53574Y67292D01*
X53946Y67848D01*
X53978Y68012D01*
X64675Y78709D01*
X69261D01*
X69816Y78338D01*
X70472Y78207D01*
X71128Y78338D01*
X71684Y78709D01*
X72056Y79265D01*
X72186Y79921D01*
X72056Y80577D01*
X71684Y81133D01*
X71128Y81505D01*
X70472Y81635D01*
D02*
G37*
G36*
X68504Y70612D02*
X67848Y70481D01*
X67292Y70110D01*
X66920Y69554D01*
X66914Y69523D01*
X63939D01*
X63810Y69716D01*
X63254Y70087D01*
X62598Y70218D01*
X61942Y70087D01*
X61386Y69716D01*
X61015Y69160D01*
X60884Y68504D01*
X61015Y67848D01*
X61386Y67292D01*
X61942Y66920D01*
X62598Y66790D01*
X63254Y66920D01*
X63810Y67292D01*
X63939Y67484D01*
X67593D01*
X67848Y67314D01*
X68504Y67184D01*
X69160Y67314D01*
X69716Y67686D01*
X70087Y68242D01*
X70218Y68898D01*
X70087Y69554D01*
X69716Y70110D01*
X69160Y70481D01*
X68504Y70612D01*
D02*
G37*
G36*
X21260Y67856D02*
X20604Y67725D01*
X20048Y67354D01*
X19676Y66798D01*
X19546Y66142D01*
X19676Y65486D01*
X20048Y64930D01*
X20604Y64558D01*
X21260Y64428D01*
X21916Y64558D01*
X22472Y64930D01*
X22523Y65007D01*
X23155Y65062D01*
X25524Y62694D01*
X25332Y62232D01*
X24804D01*
X24539Y62629D01*
X23983Y63001D01*
X23327Y63131D01*
X22671Y63001D01*
X22115Y62629D01*
X21743Y62073D01*
X21613Y61417D01*
X21743Y60761D01*
X21823Y60642D01*
X21519Y60198D01*
X21293Y60153D01*
X21028Y59976D01*
X13607Y52555D01*
X12784D01*
X12629Y52787D01*
X12073Y53158D01*
X11417Y53289D01*
X10761Y53158D01*
X10205Y52787D01*
X9834Y52231D01*
X9703Y51575D01*
X9834Y50919D01*
X10205Y50363D01*
X10761Y49991D01*
X11417Y49861D01*
X11994Y49975D01*
X12180Y49779D01*
X12289Y49563D01*
X8140Y45414D01*
X7963Y45150D01*
X7952Y45096D01*
X7907Y45088D01*
X7351Y44716D01*
X6979Y44160D01*
X6849Y43504D01*
X6979Y42848D01*
X7351Y42292D01*
X7907Y41920D01*
X8563Y41790D01*
X9219Y41920D01*
X9709Y42248D01*
X10198Y42360D01*
X10236D01*
X10792Y41988D01*
X11448Y41858D01*
X12104Y41988D01*
X12660Y42360D01*
X13032Y42916D01*
X13162Y43572D01*
X13032Y44228D01*
X12660Y44784D01*
X12394Y44961D01*
X12357Y45501D01*
X19583Y52728D01*
X20041Y52478D01*
X19940Y51968D01*
X20070Y51313D01*
X20441Y50757D01*
X20998Y50385D01*
X21279Y50329D01*
X21604Y49930D01*
X21584Y49797D01*
X21479Y49268D01*
X21609Y48612D01*
X21981Y48056D01*
X22537Y47684D01*
X23193Y47554D01*
X23849Y47684D01*
X24405Y48056D01*
X24670Y48453D01*
X37107D01*
X52925Y32635D01*
Y20090D01*
X52762Y20069D01*
X51850Y19691D01*
X51067Y19091D01*
X50466Y18307D01*
X50089Y17396D01*
X49960Y16417D01*
X50089Y15439D01*
X50466Y14527D01*
X51067Y13744D01*
X51850Y13143D01*
X52762Y12766D01*
X53740Y12637D01*
X54719Y12766D01*
X55630Y13143D01*
X56413Y13744D01*
X57014Y14527D01*
X57392Y15439D01*
X57521Y16417D01*
X57392Y17396D01*
X57014Y18307D01*
X56413Y19091D01*
X55630Y19691D01*
X54719Y20069D01*
X54555Y20090D01*
Y32972D01*
X54493Y33284D01*
X54316Y33549D01*
X38021Y49844D01*
X37757Y50020D01*
X37445Y50083D01*
X24670D01*
X24405Y50480D01*
X24145Y50654D01*
X24296Y51154D01*
X47294D01*
X62866Y35581D01*
Y20083D01*
X62762Y20069D01*
X61850Y19691D01*
X61067Y19091D01*
X60466Y18307D01*
X60089Y17396D01*
X59960Y16417D01*
X60089Y15439D01*
X60466Y14527D01*
X61067Y13744D01*
X61850Y13143D01*
X62762Y12766D01*
X63740Y12637D01*
X64719Y12766D01*
X65630Y13143D01*
X66413Y13744D01*
X67014Y14527D01*
X67392Y15439D01*
X67520Y16417D01*
X67392Y17396D01*
X67014Y18307D01*
X66413Y19091D01*
X65630Y19691D01*
X64719Y20069D01*
X64496Y20098D01*
Y35045D01*
X64958Y35236D01*
X72925Y27269D01*
Y20090D01*
X72762Y20069D01*
X71850Y19691D01*
X71067Y19091D01*
X70466Y18307D01*
X70089Y17396D01*
X69960Y16417D01*
X70089Y15439D01*
X70466Y14527D01*
X71067Y13744D01*
X71850Y13143D01*
X72762Y12766D01*
X73740Y12637D01*
X74719Y12766D01*
X75630Y13143D01*
X76413Y13744D01*
X77014Y14527D01*
X77392Y15439D01*
X77521Y16417D01*
X77392Y17396D01*
X77014Y18307D01*
X76413Y19091D01*
X75630Y19691D01*
X74719Y20069D01*
X74555Y20090D01*
Y27606D01*
X74493Y27918D01*
X74316Y28183D01*
X65980Y36518D01*
X66172Y36980D01*
X75393D01*
X75658Y36583D01*
X76214Y36212D01*
X76870Y36081D01*
X77526Y36212D01*
X78082Y36583D01*
X78454Y37139D01*
X78584Y37795D01*
X78454Y38451D01*
X78082Y39007D01*
X77526Y39379D01*
X76870Y39509D01*
X76214Y39379D01*
X75658Y39007D01*
X75393Y38610D01*
X65442D01*
X47526Y56526D01*
X47717Y56988D01*
X55344D01*
X56352Y55980D01*
X56258Y55512D01*
X56389Y54856D01*
X56760Y54300D01*
X57316Y53928D01*
X57972Y53798D01*
X58628Y53928D01*
X59184Y54300D01*
X59556Y54856D01*
X59686Y55512D01*
X59556Y56168D01*
X59184Y56724D01*
X58628Y57095D01*
X57972Y57226D01*
X57504Y57133D01*
X56551Y58085D01*
X56759Y58585D01*
X62762D01*
X67924Y53424D01*
X68188Y53247D01*
X68500Y53185D01*
X131489D01*
X136962Y47712D01*
X136869Y47244D01*
X136999Y46588D01*
X137371Y46032D01*
X137927Y45660D01*
X138583Y45530D01*
X139239Y45660D01*
X139795Y46032D01*
X140166Y46588D01*
X140297Y47244D01*
X140166Y47900D01*
X139795Y48456D01*
X139239Y48828D01*
X138583Y48958D01*
X138114Y48865D01*
X132403Y54576D01*
X132139Y54753D01*
X131827Y54815D01*
X68837D01*
X63676Y59976D01*
X63487Y60102D01*
X63508Y60425D01*
X63570Y60602D01*
X147145D01*
X148385Y59363D01*
Y49422D01*
X148447Y49110D01*
X148624Y48846D01*
X149718Y47752D01*
X149625Y47283D01*
X149755Y46628D01*
X150127Y46071D01*
X150683Y45700D01*
X151339Y45569D01*
X151995Y45700D01*
X152551Y46071D01*
X152922Y46628D01*
X153053Y47283D01*
X152922Y47939D01*
X152551Y48495D01*
X151995Y48867D01*
X151339Y48998D01*
X150870Y48904D01*
X150015Y49760D01*
Y50741D01*
X150515Y50950D01*
X150919Y50680D01*
X151575Y50550D01*
X152231Y50680D01*
X152787Y51052D01*
X153158Y51608D01*
X153289Y52264D01*
X153158Y52920D01*
X152787Y53476D01*
X152390Y53741D01*
Y59525D01*
X152328Y59837D01*
X152151Y60101D01*
X149078Y63175D01*
X148813Y63351D01*
X148502Y63413D01*
X27109D01*
X23805Y66718D01*
X23540Y66894D01*
X23228Y66957D01*
X22737D01*
X22472Y67354D01*
X21916Y67725D01*
X21260Y67856D01*
D02*
G37*
G36*
X145138Y59731D02*
X144178Y59540D01*
X143365Y58997D01*
X142822Y58184D01*
X142631Y57224D01*
X142822Y56265D01*
X143365Y55452D01*
X144178Y54908D01*
X145138Y54718D01*
X146097Y54908D01*
X146910Y55452D01*
X147454Y56265D01*
X147645Y57224D01*
X147454Y58184D01*
X146910Y58997D01*
X146097Y59540D01*
X145138Y59731D01*
D02*
G37*
G36*
X149138Y39731D02*
X148179Y39540D01*
X147365Y38997D01*
X146822Y38184D01*
X146631Y37224D01*
X146822Y36265D01*
X147365Y35452D01*
X148179Y34908D01*
X149138Y34718D01*
X150097Y34908D01*
X150910Y35452D01*
X151454Y36265D01*
X151645Y37224D01*
X151454Y38184D01*
X150910Y38997D01*
X150097Y39540D01*
X149138Y39731D01*
D02*
G37*
G36*
X141138D02*
X140179Y39540D01*
X139365Y38997D01*
X138822Y38184D01*
X138631Y37224D01*
X138822Y36265D01*
X139365Y35452D01*
X140179Y34908D01*
X141138Y34718D01*
X142097Y34908D01*
X142910Y35452D01*
X143454Y36265D01*
X143645Y37224D01*
X143454Y38184D01*
X142910Y38997D01*
X142097Y39540D01*
X141138Y39731D01*
D02*
G37*
G36*
X44040Y20158D02*
Y16717D01*
X47481D01*
X47392Y17396D01*
X47014Y18307D01*
X46413Y19091D01*
X45630Y19691D01*
X44719Y20069D01*
X44040Y20158D01*
D02*
G37*
G36*
X43440D02*
X42762Y20069D01*
X41850Y19691D01*
X41067Y19091D01*
X40466Y18307D01*
X40089Y17396D01*
X39999Y16717D01*
X43440D01*
Y20158D01*
D02*
G37*
G36*
X47481Y16117D02*
X44040D01*
Y12676D01*
X44719Y12766D01*
X45630Y13143D01*
X46413Y13744D01*
X47014Y14527D01*
X47392Y15439D01*
X47481Y16117D01*
D02*
G37*
G36*
X43440D02*
X39999D01*
X40089Y15439D01*
X40466Y14527D01*
X41067Y13744D01*
X41850Y13143D01*
X42762Y12766D01*
X43440Y12676D01*
Y16117D01*
D02*
G37*
G36*
X117488Y20165D02*
X109992D01*
Y12669D01*
X117488D01*
Y20165D01*
D02*
G37*
G36*
X103740Y20198D02*
X102762Y20069D01*
X101850Y19691D01*
X101067Y19091D01*
X100466Y18307D01*
X100089Y17396D01*
X99960Y16417D01*
X100089Y15439D01*
X100466Y14527D01*
X101067Y13744D01*
X101850Y13143D01*
X102762Y12766D01*
X103740Y12637D01*
X104719Y12766D01*
X105630Y13143D01*
X106413Y13744D01*
X107014Y14527D01*
X107392Y15439D01*
X107520Y16417D01*
X107392Y17396D01*
X107014Y18307D01*
X106413Y19091D01*
X105630Y19691D01*
X104719Y20069D01*
X103740Y20198D01*
D02*
G37*
G36*
X93740D02*
X92762Y20069D01*
X91850Y19691D01*
X91067Y19091D01*
X90466Y18307D01*
X90089Y17396D01*
X89960Y16417D01*
X90089Y15439D01*
X90466Y14527D01*
X91067Y13744D01*
X91850Y13143D01*
X92762Y12766D01*
X93740Y12637D01*
X94719Y12766D01*
X95630Y13143D01*
X96413Y13744D01*
X97014Y14527D01*
X97392Y15439D01*
X97521Y16417D01*
X97392Y17396D01*
X97014Y18307D01*
X96413Y19091D01*
X95630Y19691D01*
X94719Y20069D01*
X93740Y20198D01*
D02*
G37*
G36*
X83750Y32314D02*
X83094Y32184D01*
X82538Y31812D01*
X82166Y31256D01*
X82036Y30600D01*
X82166Y29945D01*
X82538Y29388D01*
X82935Y29123D01*
Y20092D01*
X82762Y20069D01*
X81850Y19691D01*
X81067Y19091D01*
X80466Y18307D01*
X80089Y17396D01*
X79960Y16417D01*
X80089Y15439D01*
X80466Y14527D01*
X81067Y13744D01*
X81850Y13143D01*
X82762Y12766D01*
X83740Y12637D01*
X84719Y12766D01*
X85630Y13143D01*
X86413Y13744D01*
X87014Y14527D01*
X87392Y15439D01*
X87520Y16417D01*
X87392Y17396D01*
X87014Y18307D01*
X86413Y19091D01*
X85630Y19691D01*
X84719Y20069D01*
X84565Y20089D01*
Y29123D01*
X84962Y29388D01*
X85334Y29945D01*
X85464Y30600D01*
X85334Y31256D01*
X84962Y31812D01*
X84406Y32184D01*
X83750Y32314D01*
D02*
G37*
G36*
X147938Y17041D02*
Y10142D01*
X154836D01*
X154727Y11253D01*
X154315Y12608D01*
X153647Y13858D01*
X152749Y14953D01*
X151653Y15852D01*
X150404Y16520D01*
X149048Y16931D01*
X147938Y17041D01*
D02*
G37*
G36*
X147338D02*
X146228Y16931D01*
X144872Y16520D01*
X143622Y15852D01*
X142527Y14953D01*
X141628Y13858D01*
X140960Y12608D01*
X140549Y11253D01*
X140440Y10142D01*
X147338D01*
Y17041D01*
D02*
G37*
G36*
X10142D02*
Y10142D01*
X17041D01*
X16931Y11253D01*
X16520Y12608D01*
X15852Y13858D01*
X14953Y14953D01*
X13858Y15852D01*
X12608Y16520D01*
X11253Y16931D01*
X10142Y17041D01*
D02*
G37*
G36*
X9543D02*
X8433Y16931D01*
X7077Y16520D01*
X5827Y15852D01*
X4732Y14953D01*
X3833Y13858D01*
X3165Y12608D01*
X2754Y11253D01*
X2644Y10142D01*
X9543D01*
Y17041D01*
D02*
G37*
G36*
X135000Y8100D02*
X124500D01*
Y3900D01*
X135000D01*
Y8100D01*
D02*
G37*
G36*
X154836Y9543D02*
X147938D01*
Y2644D01*
X149048Y2754D01*
X150404Y3165D01*
X151653Y3833D01*
X152749Y4732D01*
X153647Y5827D01*
X154315Y7077D01*
X154727Y8433D01*
X154836Y9543D01*
D02*
G37*
G36*
X147338D02*
X140440D01*
X140549Y8433D01*
X140960Y7077D01*
X141628Y5827D01*
X142527Y4732D01*
X143622Y3833D01*
X144872Y3165D01*
X146228Y2754D01*
X147338Y2644D01*
Y9543D01*
D02*
G37*
G36*
X17041D02*
X10142D01*
Y2644D01*
X11253Y2754D01*
X12608Y3165D01*
X13858Y3833D01*
X14953Y4732D01*
X15852Y5827D01*
X16520Y7077D01*
X16931Y8433D01*
X17041Y9543D01*
D02*
G37*
G36*
X9543D02*
X2644D01*
X2754Y8433D01*
X3165Y7077D01*
X3833Y5827D01*
X4732Y4732D01*
X5827Y3833D01*
X7077Y3165D01*
X8433Y2754D01*
X9543Y2644D01*
Y9543D01*
D02*
G37*
%LPD*%
G36*
X131949Y4386D02*
X131524D01*
Y5495D01*
X131002Y5999D01*
X129865Y4386D01*
X129306D01*
X130706Y6285D01*
X129366Y7583D01*
X129944D01*
X131524Y5994D01*
Y7583D01*
X131949D01*
Y4386D01*
D02*
G37*
G36*
X134434D02*
X132434D01*
Y4765D01*
X134009D01*
Y7583D01*
X134434D01*
Y4386D01*
D02*
G37*
G36*
X128881D02*
X128456D01*
Y7583D01*
X128881D01*
Y4386D01*
D02*
G37*
G36*
X126728Y7634D02*
X126834Y7620D01*
X126936Y7602D01*
X127024Y7583D01*
X127093Y7565D01*
X127126Y7555D01*
X127149Y7546D01*
X127167Y7537D01*
X127181Y7532D01*
X127190Y7528D01*
X127195D01*
X127287Y7482D01*
X127370Y7431D01*
X127440Y7375D01*
X127495Y7324D01*
X127537Y7278D01*
X127569Y7241D01*
X127592Y7214D01*
X127597Y7209D01*
Y7204D01*
X127643Y7126D01*
X127675Y7047D01*
X127698Y6969D01*
X127712Y6899D01*
X127721Y6839D01*
X127731Y6793D01*
Y6775D01*
Y6761D01*
Y6756D01*
Y6752D01*
X127726Y6673D01*
X127712Y6599D01*
X127694Y6530D01*
X127675Y6470D01*
X127657Y6424D01*
X127638Y6387D01*
X127624Y6363D01*
X127620Y6354D01*
X127574Y6290D01*
X127518Y6230D01*
X127463Y6179D01*
X127407Y6137D01*
X127361Y6100D01*
X127320Y6077D01*
X127292Y6059D01*
X127287Y6054D01*
X127283D01*
X127246Y6036D01*
X127204Y6017D01*
X127112Y5985D01*
X127005Y5952D01*
X126904Y5920D01*
X126811Y5892D01*
X126770Y5883D01*
X126733Y5874D01*
X126705Y5864D01*
X126682Y5860D01*
X126668Y5855D01*
X126663D01*
X126585Y5837D01*
X126511Y5818D01*
X126446Y5800D01*
X126391Y5786D01*
X126335Y5772D01*
X126289Y5758D01*
X126248Y5749D01*
X126215Y5735D01*
X126183Y5726D01*
X126160Y5721D01*
X126123Y5708D01*
X126100Y5703D01*
X126095Y5698D01*
X126026Y5671D01*
X125966Y5638D01*
X125915Y5606D01*
X125878Y5578D01*
X125846Y5550D01*
X125827Y5532D01*
X125813Y5518D01*
X125809Y5513D01*
X125776Y5472D01*
X125753Y5426D01*
X125740Y5379D01*
X125726Y5342D01*
X125721Y5305D01*
X125716Y5278D01*
Y5255D01*
Y5250D01*
X125721Y5195D01*
X125730Y5144D01*
X125744Y5098D01*
X125763Y5061D01*
X125781Y5024D01*
X125795Y5001D01*
X125804Y4982D01*
X125809Y4978D01*
X125846Y4931D01*
X125892Y4894D01*
X125938Y4862D01*
X125980Y4830D01*
X126021Y4811D01*
X126054Y4793D01*
X126077Y4783D01*
X126086Y4779D01*
X126155Y4756D01*
X126229Y4737D01*
X126303Y4728D01*
X126368Y4719D01*
X126423Y4714D01*
X126469Y4710D01*
X126511D01*
X126613Y4714D01*
X126705Y4723D01*
X126788Y4737D01*
X126862Y4756D01*
X126922Y4774D01*
X126968Y4788D01*
X126982Y4793D01*
X126996Y4797D01*
X127001Y4802D01*
X127005D01*
X127079Y4839D01*
X127149Y4880D01*
X127199Y4922D01*
X127246Y4964D01*
X127283Y4996D01*
X127306Y5028D01*
X127320Y5047D01*
X127324Y5051D01*
X127357Y5111D01*
X127389Y5176D01*
X127407Y5246D01*
X127426Y5305D01*
X127440Y5366D01*
X127449Y5407D01*
Y5426D01*
X127453Y5440D01*
Y5444D01*
Y5449D01*
X127851Y5412D01*
X127842Y5296D01*
X127823Y5185D01*
X127795Y5088D01*
X127763Y5001D01*
X127731Y4931D01*
X127717Y4904D01*
X127708Y4880D01*
X127694Y4862D01*
X127689Y4848D01*
X127680Y4839D01*
Y4834D01*
X127611Y4747D01*
X127537Y4668D01*
X127458Y4603D01*
X127384Y4548D01*
X127320Y4506D01*
X127264Y4479D01*
X127246Y4469D01*
X127232Y4460D01*
X127223Y4455D01*
X127218D01*
X127102Y4414D01*
X126982Y4382D01*
X126862Y4363D01*
X126747Y4345D01*
X126691Y4340D01*
X126645Y4335D01*
X126603D01*
X126566Y4331D01*
X126493D01*
X126368Y4335D01*
X126252Y4349D01*
X126146Y4372D01*
X126058Y4395D01*
X125984Y4414D01*
X125952Y4428D01*
X125924Y4437D01*
X125906Y4446D01*
X125892Y4451D01*
X125883Y4455D01*
X125878D01*
X125781Y4506D01*
X125698Y4562D01*
X125624Y4622D01*
X125564Y4677D01*
X125518Y4723D01*
X125485Y4765D01*
X125462Y4793D01*
X125458Y4797D01*
Y4802D01*
X125407Y4890D01*
X125370Y4973D01*
X125347Y5051D01*
X125328Y5125D01*
X125319Y5190D01*
X125310Y5241D01*
Y5259D01*
Y5273D01*
Y5278D01*
Y5282D01*
X125314Y5375D01*
X125328Y5463D01*
X125351Y5541D01*
X125374Y5606D01*
X125402Y5661D01*
X125421Y5703D01*
X125439Y5726D01*
X125444Y5735D01*
X125499Y5804D01*
X125564Y5869D01*
X125633Y5925D01*
X125703Y5975D01*
X125763Y6012D01*
X125813Y6040D01*
X125832Y6049D01*
X125846Y6059D01*
X125855Y6063D01*
X125860D01*
X125897Y6082D01*
X125943Y6096D01*
X125994Y6114D01*
X126049Y6132D01*
X126164Y6165D01*
X126285Y6197D01*
X126340Y6211D01*
X126391Y6225D01*
X126442Y6239D01*
X126483Y6248D01*
X126516Y6257D01*
X126543Y6262D01*
X126562Y6267D01*
X126566D01*
X126659Y6290D01*
X126742Y6308D01*
X126816Y6331D01*
X126881Y6350D01*
X126941Y6373D01*
X126991Y6391D01*
X127038Y6410D01*
X127079Y6424D01*
X127112Y6442D01*
X127139Y6456D01*
X127158Y6465D01*
X127176Y6479D01*
X127199Y6493D01*
X127204Y6498D01*
X127246Y6544D01*
X127273Y6590D01*
X127296Y6636D01*
X127310Y6682D01*
X127320Y6719D01*
X127324Y6752D01*
Y6770D01*
Y6779D01*
X127315Y6853D01*
X127296Y6918D01*
X127269Y6973D01*
X127236Y7024D01*
X127209Y7061D01*
X127181Y7094D01*
X127162Y7112D01*
X127153Y7117D01*
X127116Y7140D01*
X127079Y7163D01*
X126991Y7200D01*
X126899Y7223D01*
X126807Y7241D01*
X126724Y7250D01*
X126687Y7255D01*
X126659Y7260D01*
X126594D01*
X126465Y7255D01*
X126349Y7237D01*
X126257Y7209D01*
X126178Y7181D01*
X126118Y7153D01*
X126072Y7126D01*
X126049Y7107D01*
X126040Y7103D01*
X125975Y7038D01*
X125924Y6969D01*
X125883Y6895D01*
X125855Y6821D01*
X125837Y6752D01*
X125823Y6701D01*
X125818Y6678D01*
X125813Y6664D01*
Y6655D01*
Y6650D01*
X125407Y6682D01*
X125416Y6784D01*
X125439Y6876D01*
X125462Y6964D01*
X125495Y7038D01*
X125522Y7098D01*
X125545Y7144D01*
X125555Y7158D01*
X125564Y7172D01*
X125568Y7177D01*
Y7181D01*
X125629Y7260D01*
X125693Y7329D01*
X125763Y7389D01*
X125832Y7435D01*
X125892Y7477D01*
X125938Y7500D01*
X125957Y7509D01*
X125970Y7519D01*
X125980Y7523D01*
X125984D01*
X126086Y7560D01*
X126197Y7588D01*
X126298Y7611D01*
X126395Y7625D01*
X126483Y7634D01*
X126516D01*
X126548Y7639D01*
X126608D01*
X126728Y7634D01*
D02*
G37*
D10*
X68110Y68504D02*
X68504Y68898D01*
X62598Y68504D02*
X68110D01*
D11*
X0Y86614D02*
X157480Y86614D01*
X0Y-0D02*
X157480Y0D01*
X0Y-0D02*
Y86614D01*
X157480Y0D02*
Y86614D01*
D39*
X52362Y68504D02*
X52756D01*
X64173Y79921D01*
X70472D01*
D40*
X21605Y59400D02*
X63100D01*
X131827Y54000D02*
X138583Y47244D01*
X68500Y54000D02*
X131827D01*
X63100Y59400D02*
X68500Y54000D01*
X148502Y62598D02*
X151575Y59525D01*
X26772Y62598D02*
X148502D01*
X151575Y52264D02*
Y59525D01*
X147483Y61417D02*
X149200Y59700D01*
Y49422D02*
X151339Y47283D01*
X149200Y49422D02*
Y59700D01*
X23327Y61417D02*
X147483D01*
X13945Y51740D02*
X21605Y59400D01*
X47631Y51968D02*
X63681Y35919D01*
X21654Y51968D02*
X47631D01*
X63681Y16476D02*
Y35919D01*
X73740Y16417D02*
Y27606D01*
X22408Y56705D02*
X46195D01*
X23228Y54724D02*
X46622D01*
X46195Y56705D02*
X65105Y37795D01*
X76870D01*
X46622Y54724D02*
X73740Y27606D01*
X83750Y16427D02*
Y30600D01*
X23228Y66142D02*
X26772Y62598D01*
X21260Y66142D02*
X23228D01*
X23193Y49268D02*
X37445D01*
X53740Y32972D01*
X21681Y57803D02*
X55681D01*
X8716Y44838D02*
X21681Y57803D01*
X21248Y55545D02*
X22408Y56705D01*
X21248Y55545D02*
Y55545D01*
X11448Y45745D02*
X21248Y55545D01*
X11417Y51575D02*
X11582Y51740D01*
X13945D01*
X8716Y43657D02*
Y44838D01*
X55681Y57803D02*
X57972Y55512D01*
X11448Y43572D02*
Y45745D01*
X8563Y43504D02*
X8716Y43657D01*
X53740Y16417D02*
Y32972D01*
X63681Y16476D02*
X63740Y16417D01*
X83740D02*
X83750Y16427D01*
D41*
X141138Y37224D02*
D03*
X149138D02*
D03*
X145138Y57224D02*
D03*
D42*
X63740Y16417D02*
D03*
X73740D02*
D03*
X83740D02*
D03*
X103740D02*
D03*
X93740D02*
D03*
X53740D02*
D03*
X43740D02*
D03*
D43*
X113740D02*
D03*
D44*
X147638Y9843D02*
D03*
X9843D02*
D03*
D45*
X154528Y18701D02*
D03*
Y24606D02*
D03*
Y30512D02*
D03*
Y36417D02*
D03*
Y42323D02*
D03*
Y59055D02*
D03*
Y65945D02*
D03*
Y71850D02*
D03*
Y77756D02*
D03*
Y83661D02*
D03*
X33465Y46260D02*
D03*
X114173Y2953D02*
D03*
X108268D02*
D03*
X102362D02*
D03*
X96457D02*
D03*
X90551D02*
D03*
X84646D02*
D03*
X78740D02*
D03*
X72835D02*
D03*
X66929D02*
D03*
X61024D02*
D03*
X55118D02*
D03*
X49213D02*
D03*
X43307D02*
D03*
X98425Y12795D02*
D03*
X88583D02*
D03*
X59055D02*
D03*
X88583Y21654D02*
D03*
X125984Y58071D02*
D03*
X120079D02*
D03*
X114173D02*
D03*
X108268D02*
D03*
X102362D02*
D03*
X96457D02*
D03*
X90551D02*
D03*
X70866Y34449D02*
D03*
X17717Y35433D02*
D03*
X22638Y40354D02*
D03*
X13780D02*
D03*
X2953Y18701D02*
D03*
X19685Y2953D02*
D03*
X25591D02*
D03*
X31496D02*
D03*
X37402D02*
D03*
X120079D02*
D03*
X137795D02*
D03*
Y6890D02*
D03*
X120079D02*
D03*
X37402D02*
D03*
X31496D02*
D03*
X25591D02*
D03*
X19685D02*
D03*
X149606Y83661D02*
D03*
Y77756D02*
D03*
Y71850D02*
D03*
Y65945D02*
D03*
Y30512D02*
D03*
Y24606D02*
D03*
Y18701D02*
D03*
X143701Y83661D02*
D03*
Y77756D02*
D03*
Y71850D02*
D03*
Y65945D02*
D03*
Y30512D02*
D03*
Y24606D02*
D03*
Y18701D02*
D03*
X137795Y83661D02*
D03*
Y77756D02*
D03*
Y71850D02*
D03*
Y65945D02*
D03*
Y42323D02*
D03*
Y30512D02*
D03*
Y24606D02*
D03*
Y18701D02*
D03*
Y12795D02*
D03*
X131890Y83661D02*
D03*
Y77756D02*
D03*
Y71850D02*
D03*
Y65945D02*
D03*
Y18701D02*
D03*
Y12795D02*
D03*
X125984Y83661D02*
D03*
Y77756D02*
D03*
Y71850D02*
D03*
Y48228D02*
D03*
Y42323D02*
D03*
Y36417D02*
D03*
Y30512D02*
D03*
Y24606D02*
D03*
Y12795D02*
D03*
X120079Y83661D02*
D03*
Y77756D02*
D03*
Y65945D02*
D03*
Y48228D02*
D03*
Y42323D02*
D03*
Y36417D02*
D03*
Y30512D02*
D03*
Y24606D02*
D03*
Y12795D02*
D03*
X114173Y83661D02*
D03*
Y71850D02*
D03*
Y65945D02*
D03*
Y48228D02*
D03*
Y42323D02*
D03*
Y36417D02*
D03*
Y30512D02*
D03*
Y24606D02*
D03*
X108268Y83661D02*
D03*
Y71850D02*
D03*
Y65945D02*
D03*
Y48228D02*
D03*
Y42323D02*
D03*
Y36417D02*
D03*
Y30512D02*
D03*
Y24606D02*
D03*
Y18701D02*
D03*
Y12795D02*
D03*
X102362Y83661D02*
D03*
Y71850D02*
D03*
Y65945D02*
D03*
Y48228D02*
D03*
Y42323D02*
D03*
Y30512D02*
D03*
X96457Y83661D02*
D03*
Y71850D02*
D03*
Y65945D02*
D03*
Y48228D02*
D03*
Y30512D02*
D03*
Y24606D02*
D03*
X90551Y83661D02*
D03*
Y71850D02*
D03*
Y65945D02*
D03*
Y48228D02*
D03*
Y42323D02*
D03*
Y36417D02*
D03*
Y30512D02*
D03*
X84646Y83661D02*
D03*
Y71850D02*
D03*
Y65945D02*
D03*
Y48228D02*
D03*
X78740Y83661D02*
D03*
Y71850D02*
D03*
Y65945D02*
D03*
Y48228D02*
D03*
Y24606D02*
D03*
Y18701D02*
D03*
Y12795D02*
D03*
X72835Y83661D02*
D03*
Y65945D02*
D03*
Y48228D02*
D03*
Y42323D02*
D03*
X66929Y83661D02*
D03*
Y48228D02*
D03*
Y42323D02*
D03*
Y24606D02*
D03*
X61024Y83661D02*
D03*
Y48228D02*
D03*
Y24606D02*
D03*
X55118Y83661D02*
D03*
Y54134D02*
D03*
Y36417D02*
D03*
X49213Y83661D02*
D03*
Y42323D02*
D03*
Y30512D02*
D03*
Y24606D02*
D03*
Y18701D02*
D03*
Y12795D02*
D03*
X43307Y83661D02*
D03*
Y77756D02*
D03*
Y71850D02*
D03*
Y48228D02*
D03*
Y36417D02*
D03*
Y30512D02*
D03*
Y24606D02*
D03*
X37402Y83661D02*
D03*
Y77756D02*
D03*
Y71850D02*
D03*
Y65945D02*
D03*
Y36417D02*
D03*
Y30512D02*
D03*
Y24606D02*
D03*
Y18701D02*
D03*
X31496Y83661D02*
D03*
Y77756D02*
D03*
Y71850D02*
D03*
Y65945D02*
D03*
Y24606D02*
D03*
Y12795D02*
D03*
X25591Y24606D02*
D03*
Y18701D02*
D03*
Y12795D02*
D03*
X19685Y30512D02*
D03*
Y24606D02*
D03*
Y18701D02*
D03*
Y12795D02*
D03*
X13780Y24606D02*
D03*
Y18701D02*
D03*
X7874D02*
D03*
X83750Y30600D02*
D03*
X23327Y61417D02*
D03*
X23193Y49268D02*
D03*
X21654Y51968D02*
D03*
X17126Y59350D02*
D03*
X68504Y68898D02*
D03*
X11417Y51575D02*
D03*
X10925Y57972D02*
D03*
X25787Y69390D02*
D03*
X22835D02*
D03*
X52362Y68504D02*
D03*
X62598D02*
D03*
X23228Y54724D02*
D03*
X151339Y47283D02*
D03*
X57972Y55512D02*
D03*
X21260Y66142D02*
D03*
X70472Y79921D02*
D03*
X1969Y52362D02*
D03*
X11448Y43572D02*
D03*
X138583Y47244D02*
D03*
X76870Y37795D02*
D03*
X8563Y43504D02*
D03*
X151575Y52264D02*
D03*
X12205Y54724D02*
D03*
X19882Y69390D02*
D03*
X8465Y61600D02*
D03*
X3642Y60532D02*
D03*
X14469Y59350D02*
D03*
X10925Y61614D02*
D03*
M02*
