G04*
G04 #@! TF.GenerationSoftware,Altium Limited,Altium Designer,20.2.5 (213)*
G04*
G04 Layer_Color=8388736*
%FSLAX25Y25*%
%MOIN*%
G70*
G04*
G04 #@! TF.SameCoordinates,6F863687-9C3A-4172-A650-1A8696597D16*
G04*
G04*
G04 #@! TF.FilePolarity,Negative*
G04*
G01*
G75*
%ADD11C,0.00500*%
%ADD24R,0.01772X0.01772*%
%ADD25R,0.02047X0.02047*%
%ADD26C,0.03504*%
%ADD27R,0.02441X0.02559*%
%ADD28R,0.02559X0.02441*%
%ADD29R,0.03543X0.04331*%
%ADD30R,0.03228X0.03228*%
%ADD31R,0.04331X0.06496*%
%ADD32R,0.03543X0.07087*%
%ADD33R,0.01772X0.01811*%
%ADD34C,0.03937*%
%ADD35C,0.06890*%
%ADD36R,0.06890X0.06890*%
%ADD37C,0.13779*%
D11*
X0Y86614D02*
X157480Y86614D01*
X0Y-0D02*
X157480Y0D01*
X0Y-0D02*
Y86614D01*
X157480Y0D02*
Y86614D01*
D24*
X5807Y69260D02*
D03*
Y66701D02*
D03*
Y62992D02*
D03*
Y60433D02*
D03*
Y57874D02*
D03*
Y55315D02*
D03*
Y52756D02*
D03*
Y50197D02*
D03*
Y47638D02*
D03*
X8366Y59153D02*
D03*
Y56595D02*
D03*
Y54035D02*
D03*
Y51476D02*
D03*
X9311Y46898D02*
D03*
X11870D02*
D03*
X16988D02*
D03*
X19547D02*
D03*
X24665D02*
D03*
X13150Y49457D02*
D03*
X18268D02*
D03*
X20827D02*
D03*
X28169Y47638D02*
D03*
Y50197D02*
D03*
Y52756D02*
D03*
Y55315D02*
D03*
Y57874D02*
D03*
Y60433D02*
D03*
Y62992D02*
D03*
Y66701D02*
D03*
Y69260D02*
D03*
X25610Y51476D02*
D03*
Y54035D02*
D03*
Y56595D02*
D03*
Y59153D02*
D03*
X24665Y63728D02*
D03*
X22106D02*
D03*
X19547D02*
D03*
X16988D02*
D03*
X14429D02*
D03*
X11870D02*
D03*
X9311D02*
D03*
X18268Y61169D02*
D03*
X13150D02*
D03*
X14429Y46898D02*
D03*
X22106D02*
D03*
X15709Y49457D02*
D03*
X20827Y61169D02*
D03*
X15709D02*
D03*
D25*
X14941Y57087D02*
D03*
Y53543D02*
D03*
X19035D02*
D03*
Y57087D02*
D03*
D26*
X147638Y42224D02*
D03*
X142638D02*
D03*
X147638Y47224D02*
D03*
X142638D02*
D03*
X147638Y52224D02*
D03*
X142638D02*
D03*
D27*
X2657Y42224D02*
D03*
X5807D02*
D03*
D28*
X49606Y74016D02*
D03*
Y77165D02*
D03*
X69291Y75984D02*
D03*
Y72835D02*
D03*
X65354D02*
D03*
Y75984D02*
D03*
D29*
X59646Y71457D02*
D03*
Y77362D02*
D03*
X55315D02*
D03*
Y71457D02*
D03*
D30*
X28996Y34193D02*
D03*
Y30177D02*
D03*
X7736Y34193D02*
D03*
Y30177D02*
D03*
D31*
X23484Y33957D02*
D03*
X13248D02*
D03*
D32*
X85925Y37795D02*
D03*
X99311D02*
D03*
X68012Y55512D02*
D03*
X81398D02*
D03*
D33*
X79921Y41122D02*
D03*
Y37815D02*
D03*
X61319Y58839D02*
D03*
Y55532D02*
D03*
D34*
X141138Y37224D02*
D03*
X149138D02*
D03*
X145138Y57224D02*
D03*
D35*
X63740Y16417D02*
D03*
X73740D02*
D03*
X83740D02*
D03*
X103740D02*
D03*
X93740D02*
D03*
X53740D02*
D03*
X43740D02*
D03*
D36*
X113740D02*
D03*
D37*
X147638Y9843D02*
D03*
X9843D02*
D03*
M02*
