G04*
G04 #@! TF.GenerationSoftware,Altium Limited,Altium Designer,20.2.5 (213)*
G04*
G04 Layer_Physical_Order=1*
G04 Layer_Color=255*
%FSLAX25Y25*%
%MOIN*%
G70*
G04*
G04 #@! TF.SameCoordinates,6F863687-9C3A-4172-A650-1A8696597D16*
G04*
G04*
G04 #@! TF.FilePolarity,Positive*
G04*
G01*
G75*
%ADD10C,0.01000*%
%ADD11C,0.00500*%
%ADD12C,0.00787*%
%ADD14R,0.01378X0.01378*%
%ADD15R,0.01654X0.01654*%
%ADD17R,0.02047X0.02165*%
%ADD18R,0.02165X0.02047*%
%ADD19R,0.03150X0.03937*%
%ADD20R,0.02835X0.02835*%
%ADD21R,0.03937X0.06102*%
%ADD22R,0.03150X0.06693*%
%ADD23R,0.01378X0.01417*%
%ADD38C,0.03110*%
%ADD39C,0.01378*%
%ADD40C,0.00598*%
%ADD41C,0.03543*%
%ADD42C,0.06496*%
%ADD43R,0.06496X0.06496*%
%ADD44C,0.13386*%
%ADD45C,0.02362*%
G36*
X25886Y78709D02*
X23917D01*
Y82646D01*
X6791D01*
Y70835D01*
X4823D01*
Y84614D01*
X25886D01*
Y78709D01*
D02*
G37*
G36*
X8122Y64917D02*
X8122Y64559D01*
Y64028D01*
X9311D01*
Y63728D01*
X9611D01*
Y62539D01*
X10181D01*
X10500Y62539D01*
X11000Y62539D01*
X11536D01*
X11961Y62358D01*
X11961Y62039D01*
Y61469D01*
X13150D01*
Y61169D01*
X13450D01*
Y59980D01*
X14020D01*
X14339Y59980D01*
X14839Y59980D01*
X15409D01*
Y61169D01*
X16009D01*
Y59980D01*
X16579D01*
X16898Y59980D01*
X17398Y59980D01*
X17968D01*
Y61169D01*
X18568D01*
Y59980D01*
X19138D01*
X19457Y59980D01*
X19957Y59980D01*
X22016D01*
X22016Y59980D01*
Y59980D01*
X22502Y59947D01*
X22671Y59834D01*
X23327Y59703D01*
X23921Y59821D01*
X24115Y59763D01*
X24421Y59599D01*
X24421Y57965D01*
X24421Y57465D01*
Y56480D01*
X23980Y56244D01*
X23884Y56308D01*
X23228Y56438D01*
X22572Y56308D01*
X22016Y55936D01*
X21645Y55380D01*
X21514Y54724D01*
X21629Y54149D01*
X21634Y54052D01*
X21343Y53621D01*
X20998Y53552D01*
X20862Y53462D01*
X20362Y53729D01*
Y54870D01*
X19335D01*
Y53543D01*
X19035D01*
Y53243D01*
X17709D01*
Y52217D01*
X18861D01*
X19068Y51717D01*
X18081Y50730D01*
X18025Y50646D01*
X17079Y50646D01*
X16579Y50646D01*
X14839D01*
X14520Y50646D01*
X14020Y50646D01*
X13374D01*
X13046Y51146D01*
X13131Y51575D01*
X13001Y52231D01*
X12629Y52787D01*
X12073Y53158D01*
X11417Y53289D01*
X10761Y53158D01*
X10595Y53047D01*
X9555Y54087D01*
X9555Y55224D01*
X9555Y55724D01*
Y56295D01*
X8366D01*
Y56894D01*
X9555D01*
Y57465D01*
X9555Y57784D01*
X9555Y58284D01*
Y58854D01*
X8366D01*
Y59153D01*
X8066D01*
Y60343D01*
X7177D01*
X6996Y60768D01*
X6996Y61622D01*
X6996Y62122D01*
Y64181D01*
X4618D01*
Y62122D01*
X4618Y61803D01*
X4618Y61303D01*
Y60733D01*
X5807D01*
Y60133D01*
X4618D01*
Y59563D01*
X4618Y59244D01*
X4618Y58744D01*
Y57991D01*
X4595Y57874D01*
Y55315D01*
X4618Y55198D01*
X4618Y54126D01*
X4618Y53626D01*
Y53056D01*
X5807D01*
Y52456D01*
X4618D01*
Y51886D01*
X4618Y51567D01*
X4618Y51067D01*
Y50497D01*
X5807D01*
Y49897D01*
X4618D01*
Y49327D01*
X4618Y49008D01*
X4618Y48508D01*
Y47755D01*
X4595Y47638D01*
Y44015D01*
X4181Y43807D01*
X2957D01*
Y42224D01*
X2358D01*
Y43807D01*
X1606D01*
Y65059D01*
X7681D01*
X8122Y64917D01*
D02*
G37*
G36*
X155875Y1606D02*
X1606Y1606D01*
Y25161D01*
X2067Y25352D01*
X6525Y20895D01*
X6918Y20632D01*
X7382Y20540D01*
X26762D01*
X41072Y6229D01*
X41465Y5967D01*
X41929Y5874D01*
X110138D01*
X110602Y5967D01*
X110995Y6229D01*
X114597Y9832D01*
X114860Y10225D01*
X114952Y10689D01*
Y12669D01*
X117488D01*
Y15205D01*
X123504D01*
X123968Y15297D01*
X124361Y15560D01*
X133239Y24438D01*
X133502Y24831D01*
X133594Y25295D01*
X133594Y25295D01*
Y47628D01*
X136821Y50855D01*
X141081D01*
X141156Y50743D01*
X141836Y50288D01*
X142638Y50129D01*
Y49320D01*
X141836Y49160D01*
X141156Y48706D01*
X140717Y48049D01*
X140067D01*
X139795Y48456D01*
X139239Y48828D01*
X138583Y48958D01*
X137927Y48828D01*
X137371Y48456D01*
X136999Y47900D01*
X136869Y47244D01*
X136999Y46588D01*
X137371Y46032D01*
X137927Y45660D01*
X138583Y45530D01*
X139239Y45660D01*
X139795Y46032D01*
X140053Y46419D01*
X140704D01*
X141156Y45743D01*
X141836Y45289D01*
X142638Y45129D01*
Y44320D01*
X141836Y44160D01*
X141156Y43706D01*
X140702Y43026D01*
X140602Y42524D01*
X142638D01*
Y42224D01*
X142938D01*
Y40189D01*
X143440Y40288D01*
X144120Y40743D01*
X144574Y41423D01*
X144733Y42224D01*
X145542D01*
X145702Y41423D01*
X146156Y40743D01*
X146836Y40288D01*
X147638Y40129D01*
X148440Y40288D01*
X149119Y40743D01*
X149574Y41423D01*
X149733Y42224D01*
X149574Y43026D01*
X149119Y43706D01*
X148440Y44160D01*
X147638Y44320D01*
Y45129D01*
X148440Y45289D01*
X149119Y45743D01*
X149439Y46222D01*
X150007Y46246D01*
X150011Y46245D01*
X150127Y46071D01*
X150683Y45700D01*
X151339Y45569D01*
X151995Y45700D01*
X152551Y46071D01*
X152922Y46628D01*
X153053Y47283D01*
X152922Y47939D01*
X152551Y48495D01*
X151995Y48867D01*
X151339Y48998D01*
X150683Y48867D01*
X150127Y48495D01*
X149966Y48254D01*
X149421D01*
X149119Y48706D01*
X148440Y49160D01*
X147638Y49320D01*
Y50129D01*
X148440Y50288D01*
X149119Y50743D01*
X149574Y51423D01*
X149575Y51429D01*
X150111D01*
X150363Y51052D01*
X150919Y50680D01*
X151575Y50550D01*
X152231Y50680D01*
X152787Y51052D01*
X153158Y51608D01*
X153289Y52264D01*
X153158Y52920D01*
X152787Y53476D01*
X152231Y53847D01*
X151575Y53978D01*
X150919Y53847D01*
X150363Y53476D01*
X150084Y53059D01*
X149552D01*
X149119Y53706D01*
X148440Y54160D01*
X147638Y54320D01*
X146836Y54160D01*
X146156Y53706D01*
X145702Y53026D01*
X145550Y52264D01*
X144725D01*
X144574Y53026D01*
X144120Y53706D01*
X143440Y54160D01*
X142638Y54320D01*
X141836Y54160D01*
X141156Y53706D01*
X140871Y53279D01*
X137531D01*
Y56890D01*
X137531Y56890D01*
X137439Y57354D01*
X137176Y57747D01*
X137176Y57747D01*
X114053Y80870D01*
X113660Y81133D01*
X113196Y81225D01*
X71547D01*
X71128Y81505D01*
X70472Y81635D01*
X69816Y81505D01*
X69260Y81133D01*
X68889Y80577D01*
X68758Y79921D01*
X68889Y79265D01*
X69260Y78709D01*
X69816Y78338D01*
X70472Y78207D01*
X71128Y78338D01*
X71684Y78709D01*
X71745Y78800D01*
X112694D01*
X135107Y56388D01*
Y52569D01*
X131525Y48987D01*
X131262Y48594D01*
X131170Y48130D01*
Y25797D01*
X123002Y17630D01*
X117488D01*
Y20165D01*
X109992D01*
Y12669D01*
X112528D01*
Y11191D01*
X109636Y8299D01*
X42431D01*
X28121Y22609D01*
X27728Y22872D01*
X27264Y22964D01*
X7884D01*
X3574Y27274D01*
Y36210D01*
X6664Y39300D01*
X6927Y39694D01*
X7019Y40157D01*
Y40642D01*
X7331D01*
Y41704D01*
X7831Y41971D01*
X7907Y41920D01*
X8563Y41790D01*
X9219Y41920D01*
X9775Y42292D01*
X10364Y42274D01*
X10792Y41988D01*
X11448Y41858D01*
X12104Y41988D01*
X12660Y42360D01*
X13032Y42916D01*
X13162Y43572D01*
X13032Y44228D01*
X12660Y44784D01*
X12104Y45155D01*
X11835Y45209D01*
X11885Y45709D01*
X13059Y45709D01*
X13559Y45709D01*
X15299D01*
X15618Y45709D01*
X15969Y45354D01*
Y39202D01*
X14275Y37508D01*
X10780D01*
Y34976D01*
X9653D01*
Y36110D01*
X5819D01*
Y32594D01*
X5819Y32276D01*
X5819Y31776D01*
Y30477D01*
X9653D01*
Y31776D01*
X9653Y32094D01*
X9653Y32583D01*
X10007Y32937D01*
X10780D01*
Y30406D01*
X15717D01*
Y36066D01*
X17709Y38059D01*
X17930Y38389D01*
X18008Y38780D01*
Y44888D01*
X18268Y45041D01*
X18528Y44888D01*
Y38976D01*
X18605Y38586D01*
X18826Y38255D01*
X21016Y36066D01*
Y30406D01*
X25953D01*
Y32937D01*
X26725D01*
X27079Y32583D01*
Y32276D01*
X27079Y31776D01*
Y30477D01*
X30913D01*
Y31776D01*
X30913Y32094D01*
X30913Y32594D01*
Y36110D01*
X27079D01*
Y34976D01*
X25953D01*
Y37508D01*
X22458D01*
X20567Y39399D01*
Y44996D01*
X21067Y45331D01*
X21195Y45278D01*
Y45020D01*
X21264Y44671D01*
X21462Y44375D01*
X25848Y39990D01*
X26143Y39792D01*
X26492Y39723D01*
X41764D01*
X55360Y26127D01*
X55655Y25930D01*
X56004Y25860D01*
X87123D01*
X92487Y20496D01*
X92370Y19906D01*
X91850Y19691D01*
X91067Y19091D01*
X90466Y18307D01*
X90089Y17396D01*
X89960Y16417D01*
X90089Y15439D01*
X90466Y14527D01*
X91067Y13744D01*
X91850Y13143D01*
X92762Y12766D01*
X93740Y12637D01*
X94719Y12766D01*
X95630Y13143D01*
X96413Y13744D01*
X97014Y14527D01*
X97392Y15439D01*
X97521Y16417D01*
X97392Y17396D01*
X97014Y18307D01*
X96413Y19091D01*
X95630Y19691D01*
X94719Y20069D01*
X94651Y20078D01*
Y20531D01*
X94582Y20880D01*
X94384Y21176D01*
X88625Y26935D01*
X88832Y27435D01*
X95686D01*
X102590Y20531D01*
X102467Y19947D01*
X101850Y19691D01*
X101067Y19091D01*
X100466Y18307D01*
X100089Y17396D01*
X99960Y16417D01*
X100089Y15439D01*
X100466Y14527D01*
X101067Y13744D01*
X101850Y13143D01*
X102762Y12766D01*
X103740Y12637D01*
X104719Y12766D01*
X105630Y13143D01*
X106413Y13744D01*
X107014Y14527D01*
X107392Y15439D01*
X107520Y16417D01*
X107392Y17396D01*
X107014Y18307D01*
X106413Y19091D01*
X105630Y19691D01*
X104719Y20069D01*
X104651Y20078D01*
Y20669D01*
X104582Y21018D01*
X104385Y21314D01*
X96707Y28991D01*
X96412Y29188D01*
X96063Y29258D01*
X85476D01*
X85209Y29758D01*
X85334Y29945D01*
X85464Y30600D01*
X85334Y31256D01*
X84962Y31812D01*
X84406Y32184D01*
X83750Y32314D01*
X83094Y32184D01*
X82538Y31812D01*
X82337Y31512D01*
X56875D01*
X44337Y44050D01*
X44041Y44247D01*
X43692Y44317D01*
X29610D01*
X27940Y45987D01*
X28131Y46449D01*
X29358D01*
Y48827D01*
X29358D01*
Y49008D01*
X29358D01*
Y51067D01*
X29358Y51386D01*
X29358Y51886D01*
Y53626D01*
X29358Y53945D01*
X29358Y54445D01*
Y56185D01*
X29358Y56504D01*
X29713Y56854D01*
X41135D01*
X41525Y56932D01*
X41856Y57153D01*
X47857Y63154D01*
X66929D01*
X67319Y63231D01*
X67650Y63452D01*
X72768Y68570D01*
X72989Y68901D01*
X73067Y69291D01*
Y74803D01*
X72989Y75193D01*
X72768Y75524D01*
X71913Y76379D01*
X71583Y76600D01*
X71193Y76677D01*
X70874D01*
Y77508D01*
X67709D01*
Y74461D01*
X67709D01*
Y74358D01*
X67709D01*
Y71311D01*
X68272D01*
Y70565D01*
X67848Y70481D01*
X67292Y70110D01*
X66920Y69554D01*
X66874Y69320D01*
X66374Y69369D01*
Y71311D01*
X66937D01*
Y73961D01*
X66937Y74358D01*
X66937Y74858D01*
Y77508D01*
X65214D01*
X64638Y78083D01*
X64307Y78304D01*
X63917Y78382D01*
X61721D01*
Y79831D01*
X57890D01*
X57571Y79831D01*
X57071Y79831D01*
X53240D01*
Y78185D01*
X51189D01*
Y78689D01*
X48024D01*
Y76039D01*
X48024Y75642D01*
X48024Y75142D01*
Y72492D01*
X48587D01*
Y71289D01*
X41310Y64012D01*
X29358D01*
Y64181D01*
X26980D01*
Y61803D01*
X26980D01*
Y61622D01*
X26980D01*
Y60768D01*
X26799Y60343D01*
X26480Y60343D01*
X25172D01*
X24927Y60843D01*
X25041Y61417D01*
X24917Y62039D01*
X24921Y62150D01*
X25129Y62539D01*
X25854D01*
Y64917D01*
X23476D01*
Y64917D01*
X23295D01*
X22913Y65202D01*
X22798Y65417D01*
X22843Y65486D01*
X22974Y66142D01*
X22843Y66798D01*
X22472Y67354D01*
X21916Y67725D01*
X21260Y67856D01*
X20604Y67725D01*
X20048Y67354D01*
X19676Y66798D01*
X19546Y66142D01*
X19639Y65673D01*
X19346Y65380D01*
X19169Y65116D01*
X19004Y65084D01*
X18829Y65153D01*
X18504Y65479D01*
Y70965D01*
X29823D01*
Y85009D01*
X155875Y85009D01*
X155875Y1606D01*
D02*
G37*
%LPC*%
G36*
X9011Y63428D02*
X8122D01*
Y62539D01*
X9011D01*
Y63428D01*
D02*
G37*
G36*
X12850Y60869D02*
X11961D01*
Y59980D01*
X12850D01*
Y60869D01*
D02*
G37*
G36*
X8666Y60343D02*
Y59453D01*
X9555D01*
Y60343D01*
X8666D01*
D02*
G37*
G36*
X20362Y58413D02*
X19335D01*
Y57387D01*
X20362D01*
Y58413D01*
D02*
G37*
G36*
X18735D02*
X17709D01*
Y57387D01*
X18735D01*
Y58413D01*
D02*
G37*
G36*
X16268D02*
X15241D01*
Y57387D01*
X16268D01*
Y58413D01*
D02*
G37*
G36*
X14641D02*
X13614D01*
Y57387D01*
X14641D01*
Y58413D01*
D02*
G37*
G36*
X20362Y56787D02*
X19335D01*
Y55760D01*
X20362D01*
Y56787D01*
D02*
G37*
G36*
X18735D02*
X17709D01*
Y55760D01*
X18735D01*
Y56787D01*
D02*
G37*
G36*
X16268D02*
X15241D01*
Y55760D01*
X16268D01*
Y56787D01*
D02*
G37*
G36*
X14641D02*
X13614D01*
Y55760D01*
X14641D01*
Y56787D01*
D02*
G37*
G36*
X18735Y54870D02*
X17709D01*
Y53843D01*
X18735D01*
Y54870D01*
D02*
G37*
G36*
X16268D02*
X15241D01*
Y53843D01*
X16268D01*
Y54870D01*
D02*
G37*
G36*
X14641D02*
X13614D01*
Y53843D01*
X14641D01*
Y54870D01*
D02*
G37*
G36*
X16268Y53243D02*
X15241D01*
Y52217D01*
X16268D01*
Y53243D01*
D02*
G37*
G36*
X14641D02*
X13614D01*
Y52217D01*
X14641D01*
Y53243D01*
D02*
G37*
G36*
X29358Y70449D02*
X28469D01*
Y69560D01*
X29358D01*
Y70449D01*
D02*
G37*
G36*
X27869D02*
X26980D01*
Y69560D01*
X27869D01*
Y70449D01*
D02*
G37*
G36*
X29358Y68960D02*
X26980D01*
Y68390D01*
X26980Y68071D01*
X26980Y67571D01*
Y67001D01*
X29358D01*
Y67571D01*
X29358Y67890D01*
X29358Y68390D01*
Y68960D01*
D02*
G37*
G36*
Y66401D02*
X28469D01*
Y65512D01*
X29358D01*
Y66401D01*
D02*
G37*
G36*
X27869D02*
X26980D01*
Y65512D01*
X27869D01*
Y66401D01*
D02*
G37*
G36*
X62508Y60047D02*
X61619D01*
Y59139D01*
X62508D01*
Y60047D01*
D02*
G37*
G36*
X61019D02*
X60130D01*
Y59139D01*
X61019D01*
Y60047D01*
D02*
G37*
G36*
X62508Y58539D02*
X61619D01*
Y57630D01*
X62508D01*
Y58539D01*
D02*
G37*
G36*
X61019D02*
X60130D01*
Y57630D01*
X61019D01*
Y58539D01*
D02*
G37*
G36*
X70087Y59358D02*
X65937D01*
Y56443D01*
X62508D01*
Y56740D01*
X60130D01*
Y56433D01*
X59379D01*
X59184Y56724D01*
X58628Y57095D01*
X57972Y57226D01*
X57316Y57095D01*
X56760Y56724D01*
X56389Y56168D01*
X56258Y55512D01*
X56389Y54856D01*
X56760Y54300D01*
X57316Y53928D01*
X57972Y53798D01*
X58628Y53928D01*
X59184Y54300D01*
X59392Y54610D01*
X60130D01*
Y54323D01*
X62508D01*
Y54620D01*
X65937D01*
Y51665D01*
X70087D01*
Y59358D01*
D02*
G37*
G36*
X83472D02*
X81698D01*
Y55812D01*
X83472D01*
Y59358D01*
D02*
G37*
G36*
X81098D02*
X79323D01*
Y55812D01*
X81098D01*
Y59358D01*
D02*
G37*
G36*
X145138Y59731D02*
X144178Y59540D01*
X143365Y58997D01*
X142822Y58184D01*
X142631Y57224D01*
X142822Y56265D01*
X143365Y55452D01*
X144178Y54908D01*
X145138Y54718D01*
X146097Y54908D01*
X146910Y55452D01*
X147454Y56265D01*
X147645Y57224D01*
X147454Y58184D01*
X146910Y58997D01*
X146097Y59540D01*
X145138Y59731D01*
D02*
G37*
G36*
X83472Y55212D02*
X81698D01*
Y51665D01*
X83472D01*
Y55212D01*
D02*
G37*
G36*
X81098D02*
X79323D01*
Y51665D01*
X81098D01*
Y55212D01*
D02*
G37*
G36*
X81110Y42331D02*
X80221D01*
Y41422D01*
X81110D01*
Y42331D01*
D02*
G37*
G36*
X79621D02*
X78732D01*
Y41422D01*
X79621D01*
Y42331D01*
D02*
G37*
G36*
X142338Y41924D02*
X140602D01*
X140702Y41423D01*
X141156Y40743D01*
X141836Y40288D01*
X142338Y40189D01*
Y41924D01*
D02*
G37*
G36*
X81110Y40822D02*
X80221D01*
Y39913D01*
X81110D01*
Y40822D01*
D02*
G37*
G36*
X79621D02*
X78732D01*
Y39913D01*
X79621D01*
Y40822D01*
D02*
G37*
G36*
X88000Y41642D02*
X83850D01*
Y38726D01*
X81110D01*
Y39024D01*
X78732D01*
Y38792D01*
X78232Y38782D01*
X78082Y39007D01*
X77526Y39379D01*
X76870Y39509D01*
X76214Y39379D01*
X75658Y39007D01*
X75287Y38451D01*
X75156Y37795D01*
X75287Y37139D01*
X75658Y36583D01*
X76214Y36212D01*
X76870Y36081D01*
X77526Y36212D01*
X78082Y36583D01*
X78232Y36808D01*
X78732Y36752D01*
Y36606D01*
X81110D01*
Y36904D01*
X83850D01*
Y33949D01*
X88000D01*
Y41642D01*
D02*
G37*
G36*
X101386D02*
X99611D01*
Y38095D01*
X101386D01*
Y41642D01*
D02*
G37*
G36*
X99011D02*
X97236D01*
Y38095D01*
X99011D01*
Y41642D01*
D02*
G37*
G36*
X149138Y39731D02*
X148179Y39540D01*
X147365Y38997D01*
X146822Y38184D01*
X146631Y37224D01*
X146822Y36265D01*
X147365Y35452D01*
X148179Y34908D01*
X149138Y34718D01*
X150097Y34908D01*
X150910Y35452D01*
X151454Y36265D01*
X151645Y37224D01*
X151454Y38184D01*
X150910Y38997D01*
X150097Y39540D01*
X149138Y39731D01*
D02*
G37*
G36*
X141138D02*
X140179Y39540D01*
X139365Y38997D01*
X138822Y38184D01*
X138631Y37224D01*
X138822Y36265D01*
X139365Y35452D01*
X140179Y34908D01*
X141138Y34718D01*
X142097Y34908D01*
X142910Y35452D01*
X143454Y36265D01*
X143645Y37224D01*
X143454Y38184D01*
X142910Y38997D01*
X142097Y39540D01*
X141138Y39731D01*
D02*
G37*
G36*
X101386Y37495D02*
X99611D01*
Y33949D01*
X101386D01*
Y37495D01*
D02*
G37*
G36*
X99011D02*
X97236D01*
Y33949D01*
X99011D01*
Y37495D01*
D02*
G37*
G36*
X30913Y29877D02*
X29296D01*
Y28260D01*
X30913D01*
Y29877D01*
D02*
G37*
G36*
X28696D02*
X27079D01*
Y28260D01*
X28696D01*
Y29877D01*
D02*
G37*
G36*
X9653D02*
X8036D01*
Y28260D01*
X9653D01*
Y29877D01*
D02*
G37*
G36*
X7436D02*
X5819D01*
Y28260D01*
X7436D01*
Y29877D01*
D02*
G37*
G36*
X44040Y20158D02*
Y16717D01*
X47481D01*
X47392Y17396D01*
X47014Y18307D01*
X46413Y19091D01*
X45630Y19691D01*
X44719Y20069D01*
X44040Y20158D01*
D02*
G37*
G36*
X43440D02*
X42762Y20069D01*
X41850Y19691D01*
X41067Y19091D01*
X40466Y18307D01*
X40089Y17396D01*
X39999Y16717D01*
X43440D01*
Y20158D01*
D02*
G37*
G36*
X47481Y16117D02*
X44040D01*
Y12676D01*
X44719Y12766D01*
X45630Y13143D01*
X46413Y13744D01*
X47014Y14527D01*
X47392Y15439D01*
X47481Y16117D01*
D02*
G37*
G36*
X43440D02*
X39999D01*
X40089Y15439D01*
X40466Y14527D01*
X41067Y13744D01*
X41850Y13143D01*
X42762Y12766D01*
X43440Y12676D01*
Y16117D01*
D02*
G37*
G36*
X83740Y20198D02*
X82762Y20069D01*
X81850Y19691D01*
X81067Y19091D01*
X80466Y18307D01*
X80089Y17396D01*
X79960Y16417D01*
X80089Y15439D01*
X80466Y14527D01*
X81067Y13744D01*
X81850Y13143D01*
X82762Y12766D01*
X83740Y12637D01*
X84719Y12766D01*
X85630Y13143D01*
X86413Y13744D01*
X87014Y14527D01*
X87392Y15439D01*
X87520Y16417D01*
X87392Y17396D01*
X87014Y18307D01*
X86413Y19091D01*
X85630Y19691D01*
X84719Y20069D01*
X83740Y20198D01*
D02*
G37*
G36*
X73740D02*
X72762Y20069D01*
X71850Y19691D01*
X71067Y19091D01*
X70466Y18307D01*
X70089Y17396D01*
X69960Y16417D01*
X70089Y15439D01*
X70466Y14527D01*
X71067Y13744D01*
X71850Y13143D01*
X72762Y12766D01*
X73740Y12637D01*
X74719Y12766D01*
X75630Y13143D01*
X76413Y13744D01*
X77014Y14527D01*
X77392Y15439D01*
X77521Y16417D01*
X77392Y17396D01*
X77014Y18307D01*
X76413Y19091D01*
X75630Y19691D01*
X74719Y20069D01*
X73740Y20198D01*
D02*
G37*
G36*
X63740D02*
X62762Y20069D01*
X61850Y19691D01*
X61067Y19091D01*
X60466Y18307D01*
X60089Y17396D01*
X59960Y16417D01*
X60089Y15439D01*
X60466Y14527D01*
X61067Y13744D01*
X61850Y13143D01*
X62762Y12766D01*
X63740Y12637D01*
X64719Y12766D01*
X65630Y13143D01*
X66413Y13744D01*
X67014Y14527D01*
X67392Y15439D01*
X67520Y16417D01*
X67392Y17396D01*
X67014Y18307D01*
X66413Y19091D01*
X65630Y19691D01*
X64719Y20069D01*
X63740Y20198D01*
D02*
G37*
G36*
X53740D02*
X52762Y20069D01*
X51850Y19691D01*
X51067Y19091D01*
X50466Y18307D01*
X50089Y17396D01*
X49960Y16417D01*
X50089Y15439D01*
X50466Y14527D01*
X51067Y13744D01*
X51850Y13143D01*
X52762Y12766D01*
X53740Y12637D01*
X54719Y12766D01*
X55630Y13143D01*
X56413Y13744D01*
X57014Y14527D01*
X57392Y15439D01*
X57521Y16417D01*
X57392Y17396D01*
X57014Y18307D01*
X56413Y19091D01*
X55630Y19691D01*
X54719Y20069D01*
X53740Y20198D01*
D02*
G37*
G36*
X147938Y17041D02*
Y10142D01*
X154836D01*
X154727Y11253D01*
X154315Y12608D01*
X153647Y13858D01*
X152749Y14953D01*
X151653Y15852D01*
X150404Y16520D01*
X149048Y16931D01*
X147938Y17041D01*
D02*
G37*
G36*
X147338D02*
X146228Y16931D01*
X144872Y16520D01*
X143622Y15852D01*
X142527Y14953D01*
X141628Y13858D01*
X140960Y12608D01*
X140549Y11253D01*
X140440Y10142D01*
X147338D01*
Y17041D01*
D02*
G37*
G36*
X10142D02*
Y10142D01*
X17041D01*
X16931Y11253D01*
X16520Y12608D01*
X15852Y13858D01*
X14953Y14953D01*
X13858Y15852D01*
X12608Y16520D01*
X11253Y16931D01*
X10142Y17041D01*
D02*
G37*
G36*
X9543D02*
X8433Y16931D01*
X7077Y16520D01*
X5827Y15852D01*
X4732Y14953D01*
X3833Y13858D01*
X3165Y12608D01*
X2754Y11253D01*
X2644Y10142D01*
X9543D01*
Y17041D01*
D02*
G37*
G36*
X154836Y9543D02*
X147938D01*
Y2644D01*
X149048Y2754D01*
X150404Y3165D01*
X151653Y3833D01*
X152749Y4732D01*
X153647Y5827D01*
X154315Y7077D01*
X154727Y8433D01*
X154836Y9543D01*
D02*
G37*
G36*
X147338D02*
X140440D01*
X140549Y8433D01*
X140960Y7077D01*
X141628Y5827D01*
X142527Y4732D01*
X143622Y3833D01*
X144872Y3165D01*
X146228Y2754D01*
X147338Y2644D01*
Y9543D01*
D02*
G37*
G36*
X17041D02*
X10142D01*
Y2644D01*
X11253Y2754D01*
X12608Y3165D01*
X13858Y3833D01*
X14953Y4732D01*
X15852Y5827D01*
X16520Y7077D01*
X16931Y8433D01*
X17041Y9543D01*
D02*
G37*
G36*
X9543D02*
X2644D01*
X2754Y8433D01*
X3165Y7077D01*
X3833Y5827D01*
X4732Y4732D01*
X5827Y3833D01*
X7077Y3165D01*
X8433Y2754D01*
X9543Y2644D01*
Y9543D01*
D02*
G37*
%LPD*%
D10*
X68504Y68898D02*
X69291Y69685D01*
X28169Y57874D02*
X41135D01*
X28169Y60433D02*
X41434D01*
X19547Y38976D02*
Y46898D01*
X49606Y70866D02*
Y74016D01*
X41732Y62992D02*
X49606Y70866D01*
X62205Y68504D02*
X62598D01*
X16988Y38780D02*
Y46898D01*
X59646Y71063D02*
X62205Y68504D01*
X41135Y57874D02*
X47434Y64173D01*
X66929D02*
X72047Y69291D01*
X47434Y64173D02*
X66929D01*
X71193Y75658D02*
X72047Y74803D01*
Y69291D02*
Y74803D01*
X69291Y75984D02*
X69618Y75658D01*
X71193D01*
X46749Y65748D02*
X63779D01*
X65354Y67323D02*
Y72835D01*
X63779Y65748D02*
X65354Y67323D01*
X28169Y62992D02*
X41732D01*
X41434Y60433D02*
X46749Y65748D01*
X49606Y77165D02*
X55118D01*
X55315Y77362D01*
X59646D02*
X63917D01*
X65295Y75984D01*
X65354D01*
X59646Y71063D02*
Y71457D01*
X69291Y69685D02*
Y72835D01*
X19547Y38976D02*
X23484Y35039D01*
X13248D02*
X16988Y38780D01*
X23484Y33957D02*
Y35039D01*
X13248Y33957D02*
Y35039D01*
X23484Y33957D02*
X23484Y33957D01*
X28996D01*
X13248D02*
X13248Y33957D01*
X7736Y33957D02*
X13248D01*
X5807Y69260D02*
X5807Y69260D01*
D11*
X0Y86614D02*
X157480Y86614D01*
X0Y-0D02*
X157480Y0D01*
X0Y-0D02*
Y86614D01*
X157480Y0D02*
Y86614D01*
D12*
X43692Y43406D02*
X56497Y30600D01*
X83750D01*
X56720Y28346D02*
X96063D01*
X103740Y20669D01*
X43047Y42020D02*
X56720Y28346D01*
X22106Y45020D02*
X26492Y40634D01*
X22106Y45020D02*
Y46898D01*
X26476Y46161D02*
X29232Y43406D01*
X26476Y46161D02*
Y50610D01*
X8366Y48815D02*
Y51476D01*
X7488Y47937D02*
X8366Y48815D01*
X7488Y44579D02*
Y47937D01*
Y44579D02*
X8563Y43504D01*
X24665Y45217D02*
X27862Y42020D01*
X24665Y45217D02*
Y46898D01*
X27862Y42020D02*
X43047D01*
X26492Y40634D02*
X42142D01*
X57972Y55512D02*
X57982Y55522D01*
X9311Y45709D02*
X11448Y43572D01*
X29232Y43406D02*
X43692D01*
X56004Y26772D02*
X87500D01*
X42142Y40634D02*
X56004Y26772D01*
X87500D02*
X93740Y20531D01*
X103740Y16417D02*
Y20669D01*
X93740Y16417D02*
Y20531D01*
X25610Y51476D02*
X26476Y50610D01*
X57982Y55522D02*
X61309D01*
X61319Y55532D01*
X67992D02*
X68012Y55512D01*
X61319Y55532D02*
X67992D01*
X79941Y37815D02*
X85905D01*
X76880Y37805D02*
X79912D01*
X9311Y45709D02*
Y46898D01*
D14*
X5807Y69260D02*
D03*
Y66701D02*
D03*
Y62992D02*
D03*
Y60433D02*
D03*
Y57874D02*
D03*
Y55315D02*
D03*
Y52756D02*
D03*
Y50197D02*
D03*
Y47638D02*
D03*
X8366Y59153D02*
D03*
Y56595D02*
D03*
Y54035D02*
D03*
Y51476D02*
D03*
X9311Y46898D02*
D03*
X11870D02*
D03*
X16988D02*
D03*
X19547D02*
D03*
X24665D02*
D03*
X13150Y49457D02*
D03*
X18268D02*
D03*
X20827D02*
D03*
X28169Y47638D02*
D03*
Y50197D02*
D03*
Y52756D02*
D03*
Y55315D02*
D03*
Y57874D02*
D03*
Y60433D02*
D03*
Y62992D02*
D03*
Y66701D02*
D03*
Y69260D02*
D03*
X25610Y51476D02*
D03*
Y54035D02*
D03*
Y56595D02*
D03*
Y59153D02*
D03*
X24665Y63728D02*
D03*
X22106D02*
D03*
X19547D02*
D03*
X16988D02*
D03*
X14429D02*
D03*
X11870D02*
D03*
X9311D02*
D03*
X18268Y61169D02*
D03*
X13150D02*
D03*
X14429Y46898D02*
D03*
X22106D02*
D03*
X15709Y49457D02*
D03*
X20827Y61169D02*
D03*
X15709D02*
D03*
D15*
X14941Y57087D02*
D03*
Y53543D02*
D03*
X19035D02*
D03*
Y57087D02*
D03*
D17*
X2657Y42224D02*
D03*
X5807D02*
D03*
D18*
X49606Y74016D02*
D03*
Y77165D02*
D03*
X69291Y75984D02*
D03*
Y72835D02*
D03*
X65354D02*
D03*
Y75984D02*
D03*
D19*
X59646Y71457D02*
D03*
Y77362D02*
D03*
X55315D02*
D03*
Y71457D02*
D03*
D20*
X28996Y34193D02*
D03*
Y30177D02*
D03*
X7736Y34193D02*
D03*
Y30177D02*
D03*
D21*
X23484Y33957D02*
D03*
X13248D02*
D03*
D22*
X85925Y37795D02*
D03*
X99311D02*
D03*
X68012Y55512D02*
D03*
X81398D02*
D03*
D23*
X79921Y41122D02*
D03*
Y37815D02*
D03*
X61319Y58839D02*
D03*
Y55532D02*
D03*
D38*
X147638Y42224D02*
D03*
X142638D02*
D03*
X147638Y47224D02*
D03*
X142638D02*
D03*
X147638Y52224D02*
D03*
X142638D02*
D03*
D39*
X110138Y7087D02*
X113740Y10689D01*
X27264Y21752D02*
X41929Y7087D01*
X110138D01*
X52362Y68110D02*
Y68504D01*
X52756D01*
X5807Y42224D02*
Y47638D01*
X52362Y68110D02*
X52362Y68110D01*
X52756Y68504D02*
X55315Y71063D01*
X5807Y55315D02*
Y57874D01*
X70472Y80013D02*
X113196D01*
X55315Y71063D02*
Y71457D01*
X5807Y40157D02*
Y42224D01*
X113196Y80013D02*
X136319Y56890D01*
X9311Y63728D02*
X11870D01*
X14429D01*
X16988D01*
X10925Y61614D02*
X11044Y61733D01*
X2362Y36713D02*
X5807Y40157D01*
X2362Y26772D02*
Y36713D01*
X7382Y21752D02*
X27264D01*
X2362Y26772D02*
X7382Y21752D01*
X113740Y10689D02*
Y16417D01*
X136319Y52067D02*
Y56890D01*
X132382Y25295D02*
Y48130D01*
X136319Y52067D02*
X142480D01*
X132382Y48130D02*
X136319Y52067D01*
X142480D02*
X142638Y52224D01*
X123504Y16417D02*
X132382Y25295D01*
X113740Y16417D02*
X123504D01*
X5807Y69260D02*
Y70835D01*
D40*
X22106Y62638D02*
X23327Y61417D01*
X20827Y49457D02*
X20921Y49362D01*
X23098D01*
X23193Y49268D01*
X18657Y50153D02*
X20135Y51631D01*
X18657Y49847D02*
Y50153D01*
X20135Y51631D02*
X21316D01*
X18268Y49457D02*
X18657Y49847D01*
X21316Y51631D02*
X21654Y51968D01*
X11417Y51290D02*
Y51575D01*
X23228Y54724D02*
X24921D01*
X25610Y54035D01*
X8844Y53646D02*
X11309Y51181D01*
X11417Y51290D01*
X22106Y62638D02*
Y63728D01*
X147697Y47283D02*
X151339D01*
X21260Y66142D02*
X21260D01*
X19547Y63728D02*
X19922Y64103D01*
Y64804D01*
X21260Y66142D01*
X8756Y53646D02*
X8844D01*
X8366Y54035D02*
X8756Y53646D01*
X43047Y42020D02*
X43252D01*
X142628Y47234D02*
X142638Y47224D01*
X138593Y47234D02*
X142628D01*
X138583Y47244D02*
X138593Y47234D01*
X79912Y37805D02*
X79921Y37815D01*
Y37795D02*
X79941Y37815D01*
X85905D02*
X85925Y37795D01*
X76870D02*
X76880Y37805D01*
X147638Y52224D02*
X147658Y52244D01*
X151555D01*
X151575Y52264D01*
X147638Y47224D02*
X147697Y47283D01*
X79921Y37795D02*
Y37815D01*
D41*
X141138Y37224D02*
D03*
X149138D02*
D03*
X145138Y57224D02*
D03*
D42*
X63740Y16417D02*
D03*
X73740D02*
D03*
X83740D02*
D03*
X103740D02*
D03*
X93740D02*
D03*
X53740D02*
D03*
X43740D02*
D03*
D43*
X113740D02*
D03*
D44*
X147638Y9843D02*
D03*
X9843D02*
D03*
D45*
X154528Y18701D02*
D03*
Y24606D02*
D03*
Y30512D02*
D03*
Y36417D02*
D03*
Y42323D02*
D03*
Y59055D02*
D03*
Y65945D02*
D03*
Y71850D02*
D03*
Y77756D02*
D03*
Y83661D02*
D03*
X33465Y46260D02*
D03*
X114173Y2953D02*
D03*
X108268D02*
D03*
X102362D02*
D03*
X96457D02*
D03*
X90551D02*
D03*
X84646D02*
D03*
X78740D02*
D03*
X72835D02*
D03*
X66929D02*
D03*
X61024D02*
D03*
X55118D02*
D03*
X49213D02*
D03*
X43307D02*
D03*
X98425Y12795D02*
D03*
X88583D02*
D03*
X59055D02*
D03*
X88583Y21654D02*
D03*
X125984Y58071D02*
D03*
X120079D02*
D03*
X114173D02*
D03*
X108268D02*
D03*
X102362D02*
D03*
X96457D02*
D03*
X90551D02*
D03*
X70866Y34449D02*
D03*
X17717Y35433D02*
D03*
X22638Y40354D02*
D03*
X13780D02*
D03*
X2953Y18701D02*
D03*
X19685Y2953D02*
D03*
X25591D02*
D03*
X31496D02*
D03*
X37402D02*
D03*
X120079D02*
D03*
X137795D02*
D03*
Y6890D02*
D03*
X120079D02*
D03*
X37402D02*
D03*
X31496D02*
D03*
X25591D02*
D03*
X19685D02*
D03*
X149606Y83661D02*
D03*
Y77756D02*
D03*
Y71850D02*
D03*
Y65945D02*
D03*
Y30512D02*
D03*
Y24606D02*
D03*
Y18701D02*
D03*
X143701Y83661D02*
D03*
Y77756D02*
D03*
Y71850D02*
D03*
Y65945D02*
D03*
Y30512D02*
D03*
Y24606D02*
D03*
Y18701D02*
D03*
X137795Y83661D02*
D03*
Y77756D02*
D03*
Y71850D02*
D03*
Y65945D02*
D03*
Y42323D02*
D03*
Y30512D02*
D03*
Y24606D02*
D03*
Y18701D02*
D03*
Y12795D02*
D03*
X131890Y83661D02*
D03*
Y77756D02*
D03*
Y71850D02*
D03*
Y65945D02*
D03*
Y18701D02*
D03*
Y12795D02*
D03*
X125984Y83661D02*
D03*
Y77756D02*
D03*
Y71850D02*
D03*
Y48228D02*
D03*
Y42323D02*
D03*
Y36417D02*
D03*
Y30512D02*
D03*
Y24606D02*
D03*
Y12795D02*
D03*
X120079Y83661D02*
D03*
Y77756D02*
D03*
Y65945D02*
D03*
Y48228D02*
D03*
Y42323D02*
D03*
Y36417D02*
D03*
Y30512D02*
D03*
Y24606D02*
D03*
Y12795D02*
D03*
X114173Y83661D02*
D03*
Y71850D02*
D03*
Y65945D02*
D03*
Y48228D02*
D03*
Y42323D02*
D03*
Y36417D02*
D03*
Y30512D02*
D03*
Y24606D02*
D03*
X108268Y83661D02*
D03*
Y71850D02*
D03*
Y65945D02*
D03*
Y48228D02*
D03*
Y42323D02*
D03*
Y36417D02*
D03*
Y30512D02*
D03*
Y24606D02*
D03*
Y18701D02*
D03*
Y12795D02*
D03*
X102362Y83661D02*
D03*
Y71850D02*
D03*
Y65945D02*
D03*
Y48228D02*
D03*
Y42323D02*
D03*
Y30512D02*
D03*
X96457Y83661D02*
D03*
Y71850D02*
D03*
Y65945D02*
D03*
Y48228D02*
D03*
Y30512D02*
D03*
Y24606D02*
D03*
X90551Y83661D02*
D03*
Y71850D02*
D03*
Y65945D02*
D03*
Y48228D02*
D03*
Y42323D02*
D03*
Y36417D02*
D03*
Y30512D02*
D03*
X84646Y83661D02*
D03*
Y71850D02*
D03*
Y65945D02*
D03*
Y48228D02*
D03*
X78740Y83661D02*
D03*
Y71850D02*
D03*
Y65945D02*
D03*
Y48228D02*
D03*
Y24606D02*
D03*
Y18701D02*
D03*
Y12795D02*
D03*
X72835Y83661D02*
D03*
Y65945D02*
D03*
Y48228D02*
D03*
Y42323D02*
D03*
X66929Y83661D02*
D03*
Y48228D02*
D03*
Y42323D02*
D03*
Y24606D02*
D03*
X61024Y83661D02*
D03*
Y48228D02*
D03*
Y24606D02*
D03*
X55118Y83661D02*
D03*
Y54134D02*
D03*
Y36417D02*
D03*
X49213Y83661D02*
D03*
Y42323D02*
D03*
Y30512D02*
D03*
Y24606D02*
D03*
Y18701D02*
D03*
Y12795D02*
D03*
X43307Y83661D02*
D03*
Y77756D02*
D03*
Y71850D02*
D03*
Y48228D02*
D03*
Y36417D02*
D03*
Y30512D02*
D03*
Y24606D02*
D03*
X37402Y83661D02*
D03*
Y77756D02*
D03*
Y71850D02*
D03*
Y65945D02*
D03*
Y36417D02*
D03*
Y30512D02*
D03*
Y24606D02*
D03*
Y18701D02*
D03*
X31496Y83661D02*
D03*
Y77756D02*
D03*
Y71850D02*
D03*
Y65945D02*
D03*
Y24606D02*
D03*
Y12795D02*
D03*
X25591Y24606D02*
D03*
Y18701D02*
D03*
Y12795D02*
D03*
X19685Y30512D02*
D03*
Y24606D02*
D03*
Y18701D02*
D03*
Y12795D02*
D03*
X13780Y24606D02*
D03*
Y18701D02*
D03*
X7874D02*
D03*
X83750Y30600D02*
D03*
X23327Y61417D02*
D03*
X23193Y49268D02*
D03*
X21654Y51968D02*
D03*
X17126Y59350D02*
D03*
X68504Y68898D02*
D03*
X11417Y51575D02*
D03*
X10925Y57972D02*
D03*
X25787Y69390D02*
D03*
X22835D02*
D03*
X52362Y68504D02*
D03*
X62598D02*
D03*
X23228Y54724D02*
D03*
X151339Y47283D02*
D03*
X57972Y55512D02*
D03*
X21260Y66142D02*
D03*
X70472Y79921D02*
D03*
X1969Y52362D02*
D03*
X11448Y43572D02*
D03*
X138583Y47244D02*
D03*
X76870Y37795D02*
D03*
X8563Y43504D02*
D03*
X151575Y52264D02*
D03*
X12205Y54724D02*
D03*
X19882Y69390D02*
D03*
X8465Y61600D02*
D03*
X3642Y60532D02*
D03*
X14469Y59350D02*
D03*
X10925Y61614D02*
D03*
M02*
