G04*
G04 #@! TF.GenerationSoftware,Altium Limited,Altium Designer,21.6.4 (81)*
G04*
G04 Layer_Physical_Order=4*
G04 Layer_Color=16711680*
%FSLAX44Y44*%
%MOMM*%
G71*
G04*
G04 #@! TF.SameCoordinates,0AEC0AEB-8793-4253-9BAD-FCEC690E4261*
G04*
G04*
G04 #@! TF.FilePolarity,Positive*
G04*
G01*
G75*
%ADD10C,0.2540*%
%ADD39C,0.3500*%
%ADD40C,0.1520*%
%ADD41C,0.9000*%
%ADD42C,1.6500*%
%ADD43R,1.6500X1.6500*%
%ADD44C,3.4000*%
%ADD45C,0.6000*%
G36*
X395922Y4078D02*
X4078Y4078D01*
X4078Y165288D01*
X47050D01*
Y180288D01*
X75800D01*
Y215922D01*
X395922Y215922D01*
X395922Y4078D01*
D02*
G37*
%LPC*%
G36*
X179000Y207354D02*
X177334Y207022D01*
X175923Y206079D01*
X163000D01*
X163000Y206079D01*
X161822Y205845D01*
X160823Y205177D01*
X160823Y205177D01*
X133833Y178188D01*
X133000Y178353D01*
X131334Y178022D01*
X129921Y177078D01*
X128977Y175666D01*
X128646Y174000D01*
X128977Y172334D01*
X129921Y170921D01*
X131334Y169977D01*
X133000Y169646D01*
X134666Y169977D01*
X136078Y170921D01*
X137022Y172334D01*
X137105Y172750D01*
X164275Y199921D01*
X175923D01*
X177334Y198978D01*
X179000Y198646D01*
X180666Y198978D01*
X182078Y199921D01*
X183022Y201334D01*
X183354Y203000D01*
X183022Y204666D01*
X182078Y206078D01*
X180666Y207022D01*
X179000Y207354D01*
D02*
G37*
G36*
X174000Y179354D02*
X172334Y179022D01*
X170921Y178078D01*
X169978Y176666D01*
X169963Y176589D01*
X162405D01*
X162078Y177078D01*
X160666Y178022D01*
X159000Y178353D01*
X157334Y178022D01*
X155921Y177078D01*
X154977Y175666D01*
X154646Y174000D01*
X154977Y172334D01*
X155921Y170921D01*
X157334Y169977D01*
X159000Y169646D01*
X160666Y169977D01*
X162078Y170921D01*
X162405Y171410D01*
X171687D01*
X172334Y170978D01*
X174000Y170646D01*
X175666Y170978D01*
X177078Y171922D01*
X178022Y173334D01*
X178354Y175000D01*
X178022Y176666D01*
X177078Y178078D01*
X175666Y179022D01*
X174000Y179354D01*
D02*
G37*
G36*
X54000Y172353D02*
X52334Y172022D01*
X50921Y171078D01*
X49978Y169666D01*
X49646Y168000D01*
X49978Y166334D01*
X50921Y164921D01*
X52334Y163977D01*
X54000Y163646D01*
X55666Y163977D01*
X57078Y164921D01*
X57210Y165117D01*
X58815Y165258D01*
X64830Y159243D01*
X64344Y158070D01*
X63003D01*
X62329Y159079D01*
X60916Y160022D01*
X59250Y160354D01*
X57584Y160022D01*
X56171Y159079D01*
X55228Y157666D01*
X54896Y156000D01*
X55228Y154334D01*
X55430Y154032D01*
X54657Y152902D01*
X54084Y152788D01*
X53412Y152339D01*
X34562Y133489D01*
X32472D01*
X32078Y134078D01*
X30666Y135022D01*
X29000Y135353D01*
X27334Y135022D01*
X25921Y134078D01*
X24978Y132666D01*
X24646Y131000D01*
X24978Y129334D01*
X25921Y127921D01*
X27334Y126978D01*
X29000Y126646D01*
X30464Y126937D01*
X30936Y126440D01*
X31213Y125890D01*
X20675Y115352D01*
X20226Y114680D01*
X20199Y114545D01*
X20084Y114522D01*
X18671Y113579D01*
X17728Y112166D01*
X17396Y110500D01*
X17728Y108834D01*
X18671Y107422D01*
X20084Y106478D01*
X21750Y106146D01*
X23416Y106478D01*
X24828Y107422D01*
X26325Y107376D01*
X27412Y106650D01*
X29078Y106318D01*
X30744Y106650D01*
X32156Y107594D01*
X33100Y109006D01*
X33432Y110672D01*
X33100Y112338D01*
X32156Y113750D01*
X31481Y114202D01*
X31387Y115573D01*
X49742Y133928D01*
X50904Y133294D01*
X50646Y132000D01*
X50978Y130334D01*
X51922Y128921D01*
X53334Y127978D01*
X54048Y127836D01*
X54875Y126822D01*
X54824Y126485D01*
X54556Y125140D01*
X54888Y123474D01*
X55832Y122062D01*
X57244Y121118D01*
X58910Y120786D01*
X60576Y121118D01*
X61989Y122062D01*
X62663Y123070D01*
X94253D01*
X134430Y82893D01*
Y51030D01*
X134015Y50975D01*
X131699Y50016D01*
X129710Y48490D01*
X128184Y46501D01*
X127225Y44185D01*
X126898Y41700D01*
X127225Y39215D01*
X128184Y36899D01*
X129710Y34910D01*
X131699Y33384D01*
X134015Y32425D01*
X136500Y32098D01*
X138985Y32425D01*
X141301Y33384D01*
X143290Y34910D01*
X144816Y36899D01*
X145775Y39215D01*
X146102Y41700D01*
X145775Y44185D01*
X144816Y46501D01*
X143290Y48490D01*
X141301Y50016D01*
X138985Y50975D01*
X138570Y51030D01*
Y83750D01*
X138412Y84542D01*
X137964Y85213D01*
X96573Y126603D01*
X95902Y127052D01*
X95110Y127210D01*
X62663D01*
X61989Y128218D01*
X61327Y128660D01*
X61713Y129930D01*
X120127D01*
X159680Y90377D01*
Y51010D01*
X159415Y50975D01*
X157099Y50016D01*
X155110Y48490D01*
X153584Y46501D01*
X152625Y44185D01*
X152298Y41700D01*
X152625Y39215D01*
X153584Y36899D01*
X155110Y34910D01*
X157099Y33384D01*
X159415Y32425D01*
X161900Y32098D01*
X164385Y32425D01*
X166701Y33384D01*
X168690Y34910D01*
X170216Y36899D01*
X171175Y39215D01*
X171502Y41700D01*
X171175Y44185D01*
X170216Y46501D01*
X168690Y48490D01*
X166701Y50016D01*
X164385Y50975D01*
X163820Y51049D01*
Y87730D01*
X164993Y88216D01*
X172203Y81006D01*
X172874Y80558D01*
X173666Y80400D01*
X182083D01*
X182385Y80460D01*
X182995D01*
X183594Y79340D01*
X183478Y79166D01*
X183146Y77500D01*
X183478Y75834D01*
X184422Y74422D01*
X185330Y73814D01*
Y51043D01*
X184815Y50975D01*
X182499Y50016D01*
X180510Y48490D01*
X178984Y46501D01*
X178025Y44185D01*
X177698Y41700D01*
X178025Y39215D01*
X178984Y36899D01*
X180510Y34910D01*
X182499Y33384D01*
X184815Y32425D01*
X187300Y32098D01*
X189785Y32425D01*
X192101Y33384D01*
X194090Y34910D01*
X195616Y36899D01*
X196575Y39215D01*
X196902Y41700D01*
X196575Y44185D01*
X195616Y46501D01*
X194090Y48490D01*
X192101Y50016D01*
X189785Y50975D01*
X189470Y51017D01*
Y73681D01*
X190578Y74422D01*
X191522Y75834D01*
X191563Y76039D01*
X192778Y76408D01*
X210630Y58556D01*
Y51030D01*
X210215Y50975D01*
X207899Y50016D01*
X205910Y48490D01*
X204384Y46501D01*
X203425Y44185D01*
X203098Y41700D01*
X203425Y39215D01*
X204384Y36899D01*
X205910Y34910D01*
X207899Y33384D01*
X210215Y32425D01*
X212700Y32098D01*
X215185Y32425D01*
X217501Y33384D01*
X219490Y34910D01*
X221016Y36899D01*
X221975Y39215D01*
X222302Y41700D01*
X221975Y44185D01*
X221016Y46501D01*
X219490Y48490D01*
X217501Y50016D01*
X215185Y50975D01*
X214770Y51030D01*
Y59413D01*
X214612Y60206D01*
X214164Y60877D01*
X191047Y83994D01*
X190376Y84442D01*
X189583Y84600D01*
X182143D01*
X181842Y84540D01*
X174524D01*
X166594Y92470D01*
X166556Y92660D01*
X167263Y93772D01*
X167479Y93930D01*
X191497D01*
X192171Y92921D01*
X193584Y91978D01*
X195250Y91646D01*
X196916Y91978D01*
X198328Y92921D01*
X199272Y94334D01*
X199604Y96000D01*
X199272Y97666D01*
X198328Y99079D01*
X196916Y100022D01*
X195250Y100354D01*
X193584Y100022D01*
X192171Y99079D01*
X191497Y98070D01*
X166223D01*
X120716Y143577D01*
X121202Y144750D01*
X140573D01*
X143133Y142190D01*
X142896Y141000D01*
X143228Y139334D01*
X144171Y137921D01*
X145584Y136978D01*
X147250Y136646D01*
X148916Y136978D01*
X150329Y137921D01*
X151272Y139334D01*
X151604Y141000D01*
X151272Y142666D01*
X150329Y144079D01*
X148916Y145022D01*
X147250Y145354D01*
X146060Y145117D01*
X143641Y147536D01*
X144167Y148806D01*
X159417D01*
X172526Y135696D01*
X173198Y135248D01*
X173990Y135090D01*
X333983D01*
X347883Y121190D01*
X347646Y120000D01*
X347978Y118334D01*
X348922Y116922D01*
X350334Y115978D01*
X352000Y115646D01*
X353666Y115978D01*
X355079Y116922D01*
X356022Y118334D01*
X356354Y120000D01*
X356022Y121666D01*
X355079Y123078D01*
X353666Y124022D01*
X352000Y124354D01*
X350810Y124117D01*
X336303Y138624D01*
X335632Y139072D01*
X334840Y139230D01*
X174847D01*
X161737Y152339D01*
X161258Y152660D01*
X161310Y153480D01*
X161469Y153930D01*
X373749D01*
X376898Y150781D01*
Y125532D01*
X377056Y124740D01*
X377505Y124068D01*
X380283Y121290D01*
X380046Y120100D01*
X380378Y118434D01*
X381321Y117022D01*
X382734Y116078D01*
X384400Y115746D01*
X386066Y116078D01*
X387478Y117022D01*
X388422Y118434D01*
X388754Y120100D01*
X388422Y121766D01*
X387478Y123178D01*
X386066Y124122D01*
X384400Y124454D01*
X383210Y124217D01*
X381038Y126389D01*
Y128882D01*
X382308Y129413D01*
X383334Y128728D01*
X385000Y128396D01*
X386666Y128728D01*
X388078Y129671D01*
X389022Y131084D01*
X389354Y132750D01*
X389022Y134416D01*
X388078Y135829D01*
X387070Y136503D01*
Y151194D01*
X386912Y151986D01*
X386464Y152658D01*
X378658Y160464D01*
X377986Y160912D01*
X377194Y161070D01*
X68857D01*
X60464Y169463D01*
X59792Y169912D01*
X59000Y170069D01*
X57752D01*
X57078Y171078D01*
X55666Y172022D01*
X54000Y172353D01*
D02*
G37*
G36*
X368650Y151717D02*
X366213Y151233D01*
X364148Y149852D01*
X362767Y147787D01*
X362283Y145350D01*
X362767Y142913D01*
X364148Y140848D01*
X366213Y139467D01*
X368650Y138983D01*
X371087Y139467D01*
X373152Y140848D01*
X374533Y142913D01*
X375017Y145350D01*
X374533Y147787D01*
X373152Y149852D01*
X371087Y151233D01*
X368650Y151717D01*
D02*
G37*
G36*
X378810Y100917D02*
X376373Y100433D01*
X374308Y99052D01*
X372927Y96987D01*
X372443Y94550D01*
X372927Y92113D01*
X374308Y90048D01*
X376373Y88667D01*
X378810Y88183D01*
X381247Y88667D01*
X383312Y90048D01*
X384693Y92113D01*
X385177Y94550D01*
X384693Y96987D01*
X383312Y99052D01*
X381247Y100433D01*
X378810Y100917D01*
D02*
G37*
G36*
X358490D02*
X356053Y100433D01*
X353988Y99052D01*
X352607Y96987D01*
X352123Y94550D01*
X352607Y92113D01*
X353988Y90048D01*
X356053Y88667D01*
X358490Y88183D01*
X360927Y88667D01*
X362992Y90048D01*
X364373Y92113D01*
X364857Y94550D01*
X364373Y96987D01*
X362992Y99052D01*
X360927Y100433D01*
X358490Y100917D01*
D02*
G37*
G36*
X111862Y51202D02*
Y42462D01*
X120602D01*
X120375Y44185D01*
X119416Y46501D01*
X117890Y48490D01*
X115901Y50016D01*
X113585Y50975D01*
X111862Y51202D01*
D02*
G37*
G36*
X110338D02*
X108615Y50975D01*
X106299Y50016D01*
X104310Y48490D01*
X102784Y46501D01*
X101825Y44185D01*
X101598Y42462D01*
X110338D01*
Y51202D01*
D02*
G37*
G36*
X120602Y40938D02*
X111862D01*
Y32198D01*
X113585Y32425D01*
X115901Y33384D01*
X117890Y34910D01*
X119416Y36899D01*
X120375Y39215D01*
X120602Y40938D01*
D02*
G37*
G36*
X110338D02*
X101598D01*
X101825Y39215D01*
X102784Y36899D01*
X104310Y34910D01*
X106299Y33384D01*
X108615Y32425D01*
X110338Y32198D01*
Y40938D01*
D02*
G37*
G36*
X298420Y51220D02*
X279380D01*
Y32180D01*
X298420D01*
Y51220D01*
D02*
G37*
G36*
X263500Y51302D02*
X261015Y50975D01*
X258699Y50016D01*
X256710Y48490D01*
X255184Y46501D01*
X254225Y44185D01*
X253898Y41700D01*
X254225Y39215D01*
X255184Y36899D01*
X256710Y34910D01*
X258699Y33384D01*
X261015Y32425D01*
X263500Y32098D01*
X265985Y32425D01*
X268301Y33384D01*
X270290Y34910D01*
X271816Y36899D01*
X272775Y39215D01*
X273102Y41700D01*
X272775Y44185D01*
X271816Y46501D01*
X270290Y48490D01*
X268301Y50016D01*
X265985Y50975D01*
X263500Y51302D01*
D02*
G37*
G36*
X238100D02*
X235615Y50975D01*
X233299Y50016D01*
X231310Y48490D01*
X229784Y46501D01*
X228825Y44185D01*
X228498Y41700D01*
X228825Y39215D01*
X229784Y36899D01*
X231310Y34910D01*
X233299Y33384D01*
X235615Y32425D01*
X238100Y32098D01*
X240585Y32425D01*
X242901Y33384D01*
X244890Y34910D01*
X246416Y36899D01*
X247375Y39215D01*
X247702Y41700D01*
X247375Y44185D01*
X246416Y46501D01*
X244890Y48490D01*
X242901Y50016D01*
X240585Y50975D01*
X238100Y51302D01*
D02*
G37*
G36*
X375762Y43283D02*
Y25762D01*
X393283D01*
X393006Y28582D01*
X391961Y32025D01*
X390264Y35199D01*
X387981Y37981D01*
X385199Y40264D01*
X382025Y41961D01*
X378582Y43006D01*
X375762Y43283D01*
D02*
G37*
G36*
X374238D02*
X371418Y43006D01*
X367975Y41961D01*
X364801Y40264D01*
X362019Y37981D01*
X359736Y35199D01*
X358039Y32025D01*
X356994Y28582D01*
X356717Y25762D01*
X374238D01*
Y43283D01*
D02*
G37*
G36*
X25762D02*
Y25762D01*
X43283D01*
X43006Y28582D01*
X41961Y32025D01*
X40264Y35199D01*
X37981Y37981D01*
X35199Y40264D01*
X32025Y41961D01*
X28582Y43006D01*
X25762Y43283D01*
D02*
G37*
G36*
X24238D02*
X21418Y43006D01*
X17975Y41961D01*
X14801Y40264D01*
X12019Y37981D01*
X9736Y35199D01*
X8039Y32025D01*
X6994Y28582D01*
X6717Y25762D01*
X24238D01*
Y43283D01*
D02*
G37*
G36*
X342900Y20574D02*
X316230D01*
Y9906D01*
X342900D01*
Y20574D01*
D02*
G37*
G36*
X393283Y24238D02*
X375762D01*
Y6717D01*
X378582Y6994D01*
X382025Y8039D01*
X385199Y9736D01*
X387981Y12019D01*
X390264Y14801D01*
X391961Y17975D01*
X393006Y21418D01*
X393283Y24238D01*
D02*
G37*
G36*
X374238D02*
X356717D01*
X356994Y21418D01*
X358039Y17975D01*
X359736Y14801D01*
X362019Y12019D01*
X364801Y9736D01*
X367975Y8039D01*
X371418Y6994D01*
X374238Y6717D01*
Y24238D01*
D02*
G37*
G36*
X43283D02*
X25762D01*
Y6717D01*
X28582Y6994D01*
X32025Y8039D01*
X35199Y9736D01*
X37981Y12019D01*
X40264Y14801D01*
X41961Y17975D01*
X43006Y21418D01*
X43283Y24238D01*
D02*
G37*
G36*
X24238D02*
X6717D01*
X6994Y21418D01*
X8039Y17975D01*
X9736Y14801D01*
X12019Y12019D01*
X14801Y9736D01*
X17975Y8039D01*
X21418Y6994D01*
X24238Y6717D01*
Y24238D01*
D02*
G37*
%LPD*%
G36*
X335147Y11135D02*
X334073D01*
Y13951D01*
X332747Y15230D01*
X329855Y11135D01*
X328434D01*
X331996Y15958D01*
X328581Y19255D01*
X330042D01*
X334073Y15224D01*
Y19255D01*
X335147D01*
Y11135D01*
D02*
G37*
G36*
X341454D02*
X336385D01*
Y12091D01*
X340381D01*
Y19255D01*
X341454D01*
Y11135D01*
D02*
G37*
G36*
X327361D02*
X326287D01*
Y19255D01*
X327361D01*
Y11135D01*
D02*
G37*
G36*
X321746Y19390D02*
X321892Y19384D01*
X322033Y19373D01*
X322174Y19355D01*
X322303Y19332D01*
X322426Y19308D01*
X322538Y19285D01*
X322643Y19255D01*
X322743Y19232D01*
X322831Y19203D01*
X322902Y19179D01*
X322966Y19162D01*
X323019Y19138D01*
X323054Y19126D01*
X323078Y19121D01*
X323083Y19115D01*
X323207Y19062D01*
X323318Y19003D01*
X323424Y18939D01*
X323523Y18874D01*
X323617Y18804D01*
X323700Y18739D01*
X323776Y18669D01*
X323840Y18604D01*
X323899Y18546D01*
X323952Y18487D01*
X323999Y18440D01*
X324034Y18393D01*
X324063Y18358D01*
X324081Y18328D01*
X324093Y18311D01*
X324099Y18305D01*
X324157Y18205D01*
X324210Y18100D01*
X324257Y18000D01*
X324298Y17900D01*
X324333Y17800D01*
X324363Y17706D01*
X324380Y17618D01*
X324404Y17530D01*
X324415Y17448D01*
X324427Y17378D01*
X324433Y17313D01*
X324439Y17261D01*
X324445Y17214D01*
Y17184D01*
Y17161D01*
Y17155D01*
X324439Y17049D01*
X324433Y16949D01*
X324398Y16762D01*
X324357Y16592D01*
X324327Y16515D01*
X324304Y16439D01*
X324275Y16374D01*
X324251Y16316D01*
X324228Y16269D01*
X324204Y16228D01*
X324187Y16193D01*
X324175Y16169D01*
X324169Y16152D01*
X324163Y16146D01*
X324104Y16064D01*
X324046Y15981D01*
X323905Y15835D01*
X323764Y15706D01*
X323623Y15600D01*
X323553Y15553D01*
X323494Y15512D01*
X323436Y15471D01*
X323389Y15442D01*
X323348Y15418D01*
X323318Y15401D01*
X323301Y15395D01*
X323295Y15389D01*
X323201Y15342D01*
X323101Y15301D01*
X322984Y15254D01*
X322860Y15207D01*
X322602Y15119D01*
X322344Y15043D01*
X322227Y15007D01*
X322109Y14978D01*
X322004Y14949D01*
X321916Y14925D01*
X321840Y14908D01*
X321781Y14890D01*
X321763Y14884D01*
X321746D01*
X321740Y14878D01*
X321734D01*
X321535Y14831D01*
X321353Y14784D01*
X321182Y14743D01*
X321036Y14702D01*
X320901Y14667D01*
X320784Y14638D01*
X320684Y14609D01*
X320590Y14579D01*
X320514Y14556D01*
X320449Y14538D01*
X320402Y14520D01*
X320361Y14509D01*
X320326Y14497D01*
X320308Y14491D01*
X320297Y14485D01*
X320291D01*
X320197Y14444D01*
X320115Y14409D01*
X320032Y14368D01*
X319962Y14327D01*
X319892Y14286D01*
X319833Y14245D01*
X319780Y14204D01*
X319733Y14168D01*
X319692Y14133D01*
X319657Y14098D01*
X319598Y14045D01*
X319569Y14010D01*
X319557Y14004D01*
Y13998D01*
X319481Y13887D01*
X319422Y13775D01*
X319381Y13664D01*
X319358Y13564D01*
X319340Y13470D01*
X319334Y13435D01*
Y13400D01*
X319328Y13370D01*
Y13353D01*
Y13341D01*
Y13335D01*
X319340Y13200D01*
X319363Y13065D01*
X319405Y12948D01*
X319446Y12848D01*
X319487Y12760D01*
X319510Y12725D01*
X319528Y12696D01*
X319540Y12672D01*
X319551Y12655D01*
X319563Y12643D01*
Y12637D01*
X319657Y12526D01*
X319768Y12426D01*
X319886Y12338D01*
X319997Y12267D01*
X320103Y12215D01*
X320144Y12191D01*
X320185Y12174D01*
X320214Y12156D01*
X320238Y12144D01*
X320255Y12138D01*
X320261D01*
X320443Y12080D01*
X320625Y12033D01*
X320807Y12003D01*
X320977Y11980D01*
X321053Y11974D01*
X321124Y11968D01*
X321182Y11962D01*
X321235D01*
X321282Y11956D01*
X321341D01*
X321593Y11968D01*
X321828Y11992D01*
X321939Y12015D01*
X322039Y12033D01*
X322139Y12056D01*
X322227Y12080D01*
X322303Y12097D01*
X322379Y12121D01*
X322438Y12144D01*
X322491Y12162D01*
X322532Y12174D01*
X322567Y12185D01*
X322585Y12197D01*
X322591D01*
X322690Y12244D01*
X322784Y12291D01*
X322872Y12344D01*
X322948Y12396D01*
X323025Y12449D01*
X323089Y12502D01*
X323154Y12555D01*
X323207Y12602D01*
X323254Y12649D01*
X323295Y12690D01*
X323330Y12725D01*
X323353Y12760D01*
X323377Y12790D01*
X323395Y12807D01*
X323400Y12819D01*
X323406Y12825D01*
X323494Y12983D01*
X323565Y13147D01*
X323623Y13318D01*
X323664Y13476D01*
X323682Y13552D01*
X323700Y13617D01*
X323711Y13681D01*
X323717Y13734D01*
X323729Y13775D01*
Y13805D01*
X323735Y13828D01*
Y13834D01*
X324750Y13746D01*
X324744Y13593D01*
X324726Y13447D01*
X324703Y13306D01*
X324674Y13171D01*
X324638Y13048D01*
X324603Y12924D01*
X324562Y12813D01*
X324521Y12707D01*
X324486Y12614D01*
X324445Y12531D01*
X324409Y12461D01*
X324374Y12396D01*
X324351Y12349D01*
X324327Y12314D01*
X324316Y12291D01*
X324310Y12285D01*
X324228Y12168D01*
X324140Y12056D01*
X324046Y11956D01*
X323946Y11862D01*
X323852Y11774D01*
X323752Y11692D01*
X323658Y11622D01*
X323565Y11557D01*
X323483Y11505D01*
X323400Y11452D01*
X323330Y11411D01*
X323265Y11375D01*
X323213Y11352D01*
X323177Y11334D01*
X323148Y11323D01*
X323142Y11317D01*
X323001Y11264D01*
X322849Y11211D01*
X322696Y11170D01*
X322538Y11135D01*
X322227Y11076D01*
X322080Y11059D01*
X321939Y11041D01*
X321804Y11029D01*
X321681Y11018D01*
X321570Y11012D01*
X321476Y11006D01*
X321399Y11000D01*
X321294D01*
X321135Y11006D01*
X320977Y11012D01*
X320825Y11029D01*
X320684Y11047D01*
X320549Y11076D01*
X320420Y11100D01*
X320297Y11129D01*
X320185Y11158D01*
X320085Y11188D01*
X319997Y11217D01*
X319921Y11246D01*
X319856Y11270D01*
X319804Y11287D01*
X319762Y11305D01*
X319739Y11311D01*
X319733Y11317D01*
X319604Y11381D01*
X319487Y11446D01*
X319375Y11516D01*
X319275Y11587D01*
X319182Y11663D01*
X319094Y11739D01*
X319011Y11810D01*
X318941Y11880D01*
X318877Y11945D01*
X318824Y12003D01*
X318777Y12062D01*
X318742Y12109D01*
X318712Y12150D01*
X318689Y12179D01*
X318677Y12197D01*
X318671Y12203D01*
X318607Y12314D01*
X318548Y12420D01*
X318495Y12531D01*
X318454Y12637D01*
X318419Y12743D01*
X318390Y12842D01*
X318360Y12942D01*
X318343Y13030D01*
X318325Y13118D01*
X318313Y13194D01*
X318307Y13259D01*
X318302Y13318D01*
X318296Y13365D01*
Y13400D01*
Y13423D01*
Y13429D01*
X318302Y13552D01*
X318307Y13664D01*
X318325Y13775D01*
X318349Y13881D01*
X318372Y13987D01*
X318401Y14080D01*
X318437Y14168D01*
X318466Y14251D01*
X318495Y14321D01*
X318530Y14385D01*
X318560Y14444D01*
X318583Y14491D01*
X318607Y14526D01*
X318618Y14556D01*
X318630Y14573D01*
X318636Y14579D01*
X318706Y14673D01*
X318777Y14761D01*
X318941Y14925D01*
X319117Y15066D01*
X319205Y15131D01*
X319287Y15184D01*
X319369Y15236D01*
X319446Y15283D01*
X319510Y15318D01*
X319569Y15354D01*
X319616Y15377D01*
X319657Y15395D01*
X319680Y15406D01*
X319686Y15412D01*
X319786Y15453D01*
X319903Y15494D01*
X320032Y15541D01*
X320173Y15582D01*
X320320Y15629D01*
X320467Y15670D01*
X320766Y15747D01*
X320907Y15788D01*
X321042Y15817D01*
X321165Y15847D01*
X321270Y15876D01*
X321358Y15893D01*
X321394Y15905D01*
X321423Y15911D01*
X321446Y15917D01*
X321464D01*
X321476Y15923D01*
X321482D01*
X321716Y15981D01*
X321928Y16034D01*
X322115Y16087D01*
X322285Y16140D01*
X322432Y16193D01*
X322567Y16240D01*
X322679Y16286D01*
X322778Y16328D01*
X322860Y16369D01*
X322925Y16404D01*
X322984Y16433D01*
X323025Y16463D01*
X323060Y16480D01*
X323078Y16498D01*
X323089Y16504D01*
X323095Y16509D01*
X323148Y16562D01*
X323195Y16621D01*
X323242Y16680D01*
X323277Y16744D01*
X323330Y16861D01*
X323365Y16979D01*
X323389Y17079D01*
X323395Y17120D01*
X323400Y17161D01*
X323406Y17190D01*
Y17214D01*
Y17225D01*
Y17231D01*
X323400Y17325D01*
X323389Y17413D01*
X323365Y17501D01*
X323336Y17577D01*
X323265Y17724D01*
X323224Y17795D01*
X323183Y17853D01*
X323142Y17906D01*
X323107Y17953D01*
X323066Y17994D01*
X323036Y18029D01*
X323007Y18059D01*
X322984Y18076D01*
X322972Y18088D01*
X322966Y18094D01*
X322878Y18158D01*
X322778Y18211D01*
X322667Y18258D01*
X322555Y18299D01*
X322438Y18334D01*
X322321Y18364D01*
X322086Y18405D01*
X321980Y18422D01*
X321875Y18434D01*
X321787Y18440D01*
X321705Y18446D01*
X321640Y18452D01*
X321546D01*
X321376Y18446D01*
X321218Y18434D01*
X321071Y18416D01*
X320930Y18393D01*
X320807Y18358D01*
X320690Y18328D01*
X320584Y18293D01*
X320490Y18258D01*
X320408Y18217D01*
X320337Y18182D01*
X320279Y18152D01*
X320226Y18123D01*
X320185Y18094D01*
X320162Y18076D01*
X320144Y18064D01*
X320138Y18059D01*
X320056Y17982D01*
X319980Y17894D01*
X319909Y17806D01*
X319851Y17712D01*
X319798Y17613D01*
X319751Y17519D01*
X319710Y17425D01*
X319680Y17331D01*
X319651Y17243D01*
X319628Y17161D01*
X319610Y17084D01*
X319598Y17026D01*
X319587Y16973D01*
X319581Y16932D01*
X319575Y16909D01*
Y16897D01*
X318542Y16973D01*
X318554Y17102D01*
X318566Y17231D01*
X318589Y17354D01*
X318618Y17472D01*
X318648Y17583D01*
X318683Y17689D01*
X318718Y17789D01*
X318753Y17877D01*
X318794Y17959D01*
X318824Y18029D01*
X318859Y18094D01*
X318888Y18147D01*
X318912Y18188D01*
X318929Y18223D01*
X318941Y18240D01*
X318947Y18246D01*
X319017Y18352D01*
X319100Y18446D01*
X319182Y18540D01*
X319270Y18622D01*
X319358Y18698D01*
X319446Y18768D01*
X319528Y18833D01*
X319616Y18886D01*
X319692Y18939D01*
X319768Y18980D01*
X319833Y19021D01*
X319892Y19050D01*
X319939Y19073D01*
X319974Y19091D01*
X319997Y19097D01*
X320003Y19103D01*
X320132Y19156D01*
X320267Y19203D01*
X320402Y19238D01*
X320543Y19273D01*
X320807Y19326D01*
X320936Y19343D01*
X321053Y19361D01*
X321171Y19373D01*
X321270Y19379D01*
X321364Y19390D01*
X321441D01*
X321505Y19396D01*
X321593D01*
X321746Y19390D01*
D02*
G37*
D10*
X173000Y174000D02*
X174000Y175000D01*
X159000Y174000D02*
X173000D01*
D39*
X133000D02*
X134000D01*
X163000Y203000D01*
X179000D01*
D40*
X187400Y41800D02*
Y77400D01*
X187300Y41700D02*
X187400Y41800D01*
Y77400D02*
X187500Y77500D01*
X164540Y91596D02*
X173666Y82470D01*
X182083D01*
X182143Y82530D01*
X189583D01*
X212700Y59413D01*
Y41700D02*
Y59413D01*
X164540Y91596D02*
Y92390D01*
X59000Y139000D02*
X117930D01*
X164540Y92390D01*
X54876Y150876D02*
X160274D01*
X334840Y137160D02*
X352000Y120000D01*
X173990Y137160D02*
X334840D01*
X160274Y150876D02*
X173990Y137160D01*
X377194Y159000D02*
X385000Y151194D01*
X68000Y159000D02*
X377194D01*
X385000Y132750D02*
Y151194D01*
X374606Y156000D02*
X378968Y151638D01*
Y125532D02*
X384400Y120100D01*
X378968Y125532D02*
Y151638D01*
X59250Y156000D02*
X374606D01*
X35419Y131419D02*
X54876Y150876D01*
X120984Y132000D02*
X161750Y91234D01*
X55000Y132000D02*
X120984D01*
X161750Y41850D02*
Y91234D01*
X56916Y144030D02*
X117336D01*
X165366Y96000D01*
X195250D01*
X59000Y168000D02*
X68000Y159000D01*
X54000Y168000D02*
X59000D01*
X58910Y125140D02*
X95110D01*
X136500Y83750D01*
X55070Y146820D02*
X141430D01*
X22138Y113888D02*
X55070Y146820D01*
X53970Y141083D02*
X56916Y144030D01*
X53970Y141083D02*
Y141083D01*
X29078Y116191D02*
X53970Y141083D01*
X29000Y131000D02*
X29420Y131419D01*
X35419D01*
X22138Y110888D02*
Y113888D01*
X141430Y146820D02*
X147250Y141000D01*
X29078Y110672D02*
Y116191D01*
X21750Y110500D02*
X22138Y110888D01*
X136500Y41700D02*
Y83750D01*
X161750Y41850D02*
X161900Y41700D01*
D41*
X358490Y94550D02*
D03*
X378810D02*
D03*
X368650Y145350D02*
D03*
D42*
X161900Y41700D02*
D03*
X187300D02*
D03*
X212700D02*
D03*
X263500D02*
D03*
X238100D02*
D03*
X136500D02*
D03*
X111100D02*
D03*
D43*
X288900D02*
D03*
D44*
X375000Y25000D02*
D03*
X25000D02*
D03*
D45*
X187500Y77500D02*
D03*
X200000Y47500D02*
D03*
X8000Y127500D02*
D03*
X392500Y47500D02*
D03*
Y62500D02*
D03*
Y77500D02*
D03*
Y92500D02*
D03*
Y107500D02*
D03*
Y150000D02*
D03*
Y167500D02*
D03*
Y182500D02*
D03*
Y197500D02*
D03*
Y212500D02*
D03*
X85000Y117500D02*
D03*
X290000Y7500D02*
D03*
X275000D02*
D03*
X260000D02*
D03*
X245000D02*
D03*
X230000D02*
D03*
X215000D02*
D03*
X200000D02*
D03*
X185000D02*
D03*
X170000D02*
D03*
X155000D02*
D03*
X140000D02*
D03*
X125000D02*
D03*
X110000D02*
D03*
X250000Y32500D02*
D03*
X225000D02*
D03*
X150000D02*
D03*
X225000Y55000D02*
D03*
X320000Y147500D02*
D03*
X305000D02*
D03*
X290000D02*
D03*
X275000D02*
D03*
X260000D02*
D03*
X245000D02*
D03*
X230000D02*
D03*
X180000Y87500D02*
D03*
X45000Y90000D02*
D03*
X57500Y102500D02*
D03*
X35000D02*
D03*
X7500Y47500D02*
D03*
X50000Y7500D02*
D03*
X65000D02*
D03*
X80000D02*
D03*
X95000D02*
D03*
X305000D02*
D03*
X350000D02*
D03*
Y17500D02*
D03*
X305000D02*
D03*
X95000D02*
D03*
X80000D02*
D03*
X65000D02*
D03*
X50000D02*
D03*
X380000Y212500D02*
D03*
Y197500D02*
D03*
Y182500D02*
D03*
Y167500D02*
D03*
Y77500D02*
D03*
Y62500D02*
D03*
Y47500D02*
D03*
X365000Y212500D02*
D03*
Y197500D02*
D03*
Y182500D02*
D03*
Y167500D02*
D03*
Y77500D02*
D03*
Y62500D02*
D03*
Y47500D02*
D03*
X350000Y212500D02*
D03*
Y197500D02*
D03*
Y182500D02*
D03*
Y167500D02*
D03*
Y107500D02*
D03*
Y77500D02*
D03*
Y62500D02*
D03*
Y47500D02*
D03*
Y32500D02*
D03*
X335000Y212500D02*
D03*
Y197500D02*
D03*
Y182500D02*
D03*
Y167500D02*
D03*
Y47500D02*
D03*
Y32500D02*
D03*
X320000Y212500D02*
D03*
Y197500D02*
D03*
Y182500D02*
D03*
Y122500D02*
D03*
Y107500D02*
D03*
Y92500D02*
D03*
Y77500D02*
D03*
Y62500D02*
D03*
Y32500D02*
D03*
X305000Y212500D02*
D03*
Y197500D02*
D03*
Y167500D02*
D03*
Y122500D02*
D03*
Y107500D02*
D03*
Y92500D02*
D03*
Y77500D02*
D03*
Y62500D02*
D03*
Y32500D02*
D03*
X290000Y212500D02*
D03*
Y182500D02*
D03*
Y167500D02*
D03*
Y122500D02*
D03*
Y107500D02*
D03*
Y92500D02*
D03*
Y77500D02*
D03*
Y62500D02*
D03*
X275000Y212500D02*
D03*
Y182500D02*
D03*
Y167500D02*
D03*
Y122500D02*
D03*
Y107500D02*
D03*
Y92500D02*
D03*
Y77500D02*
D03*
Y62500D02*
D03*
Y47500D02*
D03*
Y32500D02*
D03*
X260000Y212500D02*
D03*
Y182500D02*
D03*
Y167500D02*
D03*
Y122500D02*
D03*
Y107500D02*
D03*
Y77500D02*
D03*
X245000Y212500D02*
D03*
Y182500D02*
D03*
Y167500D02*
D03*
Y122500D02*
D03*
Y77500D02*
D03*
Y62500D02*
D03*
X230000Y212500D02*
D03*
Y182500D02*
D03*
Y167500D02*
D03*
Y122500D02*
D03*
Y107500D02*
D03*
Y92500D02*
D03*
Y77500D02*
D03*
X215000Y212500D02*
D03*
Y182500D02*
D03*
Y167500D02*
D03*
Y122500D02*
D03*
X200000Y212500D02*
D03*
Y182500D02*
D03*
Y167500D02*
D03*
Y122500D02*
D03*
Y62500D02*
D03*
Y32500D02*
D03*
X185000Y212500D02*
D03*
Y167500D02*
D03*
Y122500D02*
D03*
Y107500D02*
D03*
X170000Y212500D02*
D03*
Y122500D02*
D03*
Y107500D02*
D03*
Y62500D02*
D03*
X155000Y212500D02*
D03*
Y122500D02*
D03*
Y62500D02*
D03*
X140000Y212500D02*
D03*
Y137500D02*
D03*
Y92500D02*
D03*
X125000Y212500D02*
D03*
Y107500D02*
D03*
Y77500D02*
D03*
Y62500D02*
D03*
Y47500D02*
D03*
Y32500D02*
D03*
X110000Y212500D02*
D03*
Y197500D02*
D03*
Y182500D02*
D03*
Y122500D02*
D03*
Y92500D02*
D03*
Y77500D02*
D03*
Y62500D02*
D03*
X95000Y212500D02*
D03*
Y197500D02*
D03*
Y182500D02*
D03*
Y167500D02*
D03*
Y92500D02*
D03*
Y77500D02*
D03*
Y62500D02*
D03*
Y47500D02*
D03*
X80000Y212500D02*
D03*
Y197500D02*
D03*
Y182500D02*
D03*
Y167500D02*
D03*
Y62500D02*
D03*
Y32500D02*
D03*
X65000Y62500D02*
D03*
Y47500D02*
D03*
Y32500D02*
D03*
X50000Y77500D02*
D03*
Y62500D02*
D03*
Y47500D02*
D03*
Y32500D02*
D03*
X35000Y62500D02*
D03*
Y47500D02*
D03*
X20000D02*
D03*
X59250Y156000D02*
D03*
X58910Y125140D02*
D03*
X55000Y132000D02*
D03*
X43500Y150750D02*
D03*
X174000Y175000D02*
D03*
X29000Y131000D02*
D03*
X27750Y147250D02*
D03*
X65500Y176250D02*
D03*
X58000D02*
D03*
X133000Y174000D02*
D03*
X159000D02*
D03*
X59000Y139000D02*
D03*
X384400Y120100D02*
D03*
X147250Y141000D02*
D03*
X54000Y168000D02*
D03*
X179000Y203000D02*
D03*
X8000Y134000D02*
D03*
X29078Y110672D02*
D03*
X352000Y120000D02*
D03*
X195250Y96000D02*
D03*
X21750Y110500D02*
D03*
X385000Y132750D02*
D03*
X31000Y139000D02*
D03*
X50500Y176250D02*
D03*
X21502Y156465D02*
D03*
X8000Y153500D02*
D03*
X36750Y150750D02*
D03*
X27750Y156500D02*
D03*
M02*
