M48
;Layer_Color=9474304
;FILE_FORMAT=4:4
METRIC,LZ
;TYPE=PLATED
T1F00S00C0.3000
T2F00S00C1.1000
T3F00S00C1.8000
;TYPE=NON_PLATED
T4F00S00C0.9950
%
T01
X00015589Y00205236
X00044Y00203
X00055Y00205
X0008
X00078232Y001905
X00090992Y00179832
X00100992
X00110992
X00121Y00203
X00131
X00141
X00162602Y00179832
X00160528Y00167386
X00176022Y00163322
X00189992Y00179832
X00199992
X002Y00203
X0019
X0018Y002125
X002125
X0013208Y001651
X00130303Y00156209
X001035Y00132
X00117094Y00113284
X00109992Y00086482
X00043992Y00179832
X00033992
X00035Y002275
X0005
X00065
X0008
Y002425
X00065
X0005
Y002575
X00045Y0027
X000575Y002825
X00060706Y003048
X00056896Y00312166
X00056642Y00320548
X00059182Y00330454
X0004425Y0033025
X000375
X000285Y0032675
Y00336
X00022252Y00335965
X00030734Y00318008
X0002734Y0030566
X00035Y002875
X00043542Y00320957
X00053594Y00347472
X0005125Y0035575
X0005875
X0006625
X00065Y003475
X0008
X00095
X0011
X00125
X0014
X00155
X0017
X00185
X002
X002125Y003475
Y003325
X002Y003325
Y003175
X002125Y003175
Y003025
X002Y003025
Y002875
X002125Y002875
Y002725
X002Y002725
Y002575
X002125Y002575
Y002425
X002Y002425
Y002275
X002125Y002275
X00185Y002275
Y002425
Y002575
Y002725
Y002875
Y003025
Y003175
Y003325
X0017
Y003175
Y003025
Y002875
Y002725
X00155Y0026
X00155Y002875
Y003025
Y003175
Y003325
X0014
Y003175
Y003025
X00125Y0029
X00125Y003175
Y003325
X0011
X00095Y0032
X000825Y003325
X0008Y003625
X00095
X0011
X00125
X0014
X00155
X0017
X00185
X002
X002125
Y003775
X002
Y003925
X002125
X00185
Y003775
X0017
Y003925
X00155
Y003775
X0014
Y003925
X00125
Y003775
X0011
Y003925
X00095
Y003775
X0008
Y003925
X0011Y00305
X0014Y00275
X0011Y002425
Y002275
X00035Y002425
X0002
Y00275
X0001Y0033325
T02
X000211Y000422
X000465
X000719
X000973
X001227
X001481
X001735
X001989
T03
X00035Y001
X00185
T04
X000846Y001
X001354Y0011016
Y0008984
M30
