G04*
G04 #@! TF.GenerationSoftware,Altium Limited,Altium Designer,21.6.4 (81)*
G04*
G04 Layer_Color=8388736*
%FSLAX44Y44*%
%MOMM*%
G71*
G04*
G04 #@! TF.SameCoordinates,FA297D3A-E3D9-4574-8739-6FC88F1804E8*
G04*
G04*
G04 #@! TF.FilePolarity,Negative*
G04*
G01*
G75*
%ADD23R,0.5900X0.5900*%
%ADD24R,0.6500X0.6200*%
%ADD25C,0.8900*%
%ADD26R,1.1200X0.7400*%
%ADD27R,0.7200X0.7200*%
%ADD28R,0.4600X0.4500*%
%ADD29R,0.9000X1.8000*%
%ADD30R,1.6500X1.1000*%
%ADD31R,1.1000X0.9000*%
%ADD32C,1.0000*%
%ADD33C,3.5000*%
%ADD34C,1.7500*%
%ADD35R,1.7500X1.7500*%
D23*
X145000Y347000D02*
D03*
Y336000D02*
D03*
Y325000D02*
D03*
Y314000D02*
D03*
Y303000D02*
D03*
Y292000D02*
D03*
Y281000D02*
D03*
X154000Y352500D02*
D03*
Y341500D02*
D03*
Y330500D02*
D03*
Y319500D02*
D03*
Y308500D02*
D03*
Y297500D02*
D03*
Y286500D02*
D03*
Y275500D02*
D03*
X137500Y273500D02*
D03*
X126500D02*
D03*
X115500D02*
D03*
X104500D02*
D03*
X93500D02*
D03*
X82500D02*
D03*
X154000Y264500D02*
D03*
X143000D02*
D03*
X132000D02*
D03*
X121000D02*
D03*
X110000D02*
D03*
X99000D02*
D03*
X88000D02*
D03*
X77000D02*
D03*
X66000D02*
D03*
Y352500D02*
D03*
X75000Y347000D02*
D03*
X66000Y341500D02*
D03*
Y330500D02*
D03*
Y319500D02*
D03*
Y308500D02*
D03*
Y297500D02*
D03*
Y286500D02*
D03*
Y275500D02*
D03*
X75000Y336000D02*
D03*
Y325000D02*
D03*
Y314000D02*
D03*
Y303000D02*
D03*
Y292000D02*
D03*
Y281000D02*
D03*
X126500Y352500D02*
D03*
X93500D02*
D03*
X84000Y341500D02*
D03*
Y330500D02*
D03*
Y319500D02*
D03*
Y308500D02*
D03*
Y297500D02*
D03*
X99000Y282500D02*
D03*
X110000D02*
D03*
X121000D02*
D03*
X136000Y297500D02*
D03*
Y308500D02*
D03*
Y319500D02*
D03*
Y330500D02*
D03*
Y341500D02*
D03*
X71500Y255500D02*
D03*
X82500D02*
D03*
X93500D02*
D03*
X104500D02*
D03*
X115500D02*
D03*
X126500D02*
D03*
X137500D02*
D03*
X148500D02*
D03*
D24*
X122000Y204000D02*
D03*
Y196000D02*
D03*
X106000Y204000D02*
D03*
Y196000D02*
D03*
X90000Y204000D02*
D03*
Y196000D02*
D03*
X130000Y204000D02*
D03*
Y196000D02*
D03*
X114000Y204000D02*
D03*
Y196000D02*
D03*
X98000Y204000D02*
D03*
Y196000D02*
D03*
X155000D02*
D03*
Y204000D02*
D03*
X163000Y196000D02*
D03*
Y204000D02*
D03*
X195000Y196000D02*
D03*
Y204000D02*
D03*
X203000Y196000D02*
D03*
Y204000D02*
D03*
X211000Y196000D02*
D03*
Y204000D02*
D03*
X171000Y196000D02*
D03*
Y204000D02*
D03*
X179000Y196000D02*
D03*
Y204000D02*
D03*
X187000Y196000D02*
D03*
Y204000D02*
D03*
D25*
X122700Y106450D02*
D03*
Y93750D02*
D03*
X110000Y106450D02*
D03*
Y93750D02*
D03*
X97300Y106450D02*
D03*
Y93750D02*
D03*
D26*
X143000Y193150D02*
D03*
Y206850D02*
D03*
X77000Y193150D02*
D03*
Y206850D02*
D03*
D27*
X124500Y240000D02*
D03*
X115500D02*
D03*
X68000D02*
D03*
X77000D02*
D03*
X36000Y256250D02*
D03*
X45000D02*
D03*
X36000Y307500D02*
D03*
X45000D02*
D03*
D28*
X189200Y170000D02*
D03*
X180800D02*
D03*
X39200Y170000D02*
D03*
X30800D02*
D03*
D29*
X168000Y150000D02*
D03*
X202000D02*
D03*
X18000D02*
D03*
X52000D02*
D03*
D30*
X45000Y295000D02*
D03*
Y269000D02*
D03*
D31*
X102500Y150500D02*
D03*
X117500D02*
D03*
Y139500D02*
D03*
X102500D02*
D03*
D32*
X135400Y89940D02*
D03*
Y110260D02*
D03*
X84600Y100100D02*
D03*
D33*
X185000Y100000D02*
D03*
X35000D02*
D03*
D34*
X21100Y42200D02*
D03*
X46500D02*
D03*
X148100D02*
D03*
X173500D02*
D03*
X122700D02*
D03*
X97300D02*
D03*
X71900D02*
D03*
D35*
X198900D02*
D03*
M02*
