G04*
G04 #@! TF.GenerationSoftware,Altium Limited,Altium Designer,21.6.4 (81)*
G04*
G04 Layer_Physical_Order=2*
G04 Layer_Color=36540*
%FSLAX44Y44*%
%MOMM*%
G71*
G04*
G04 #@! TF.SameCoordinates,FA297D3A-E3D9-4574-8739-6FC88F1804E8*
G04*
G04*
G04 #@! TF.FilePolarity,Positive*
G04*
G01*
G75*
%ADD10C,0.2540*%
%ADD39C,0.9000*%
%ADD41C,1.6500*%
%ADD42R,1.6500X1.6500*%
%ADD43C,0.6000*%
%ADD44C,2.1590*%
G36*
X215922Y200000D02*
X4078D01*
X4078Y355000D01*
X59000D01*
X161000Y355000D01*
Y355000D01*
X215922D01*
X215922Y200000D01*
D02*
G37*
%LPC*%
G36*
X115500Y294354D02*
X113834Y294022D01*
X112422Y293078D01*
X111478Y291666D01*
X111146Y290000D01*
X111478Y288334D01*
X112422Y286922D01*
X113834Y285978D01*
X115500Y285646D01*
X117166Y285978D01*
X118579Y286922D01*
X119522Y288334D01*
X119854Y290000D01*
X119522Y291666D01*
X118579Y293078D01*
X117166Y294022D01*
X115500Y294354D01*
D02*
G37*
G36*
X104500D02*
X102834Y294022D01*
X101421Y293078D01*
X100478Y291666D01*
X100146Y290000D01*
X100478Y288334D01*
X101421Y286922D01*
X102834Y285978D01*
X104500Y285646D01*
X106166Y285978D01*
X107578Y286922D01*
X108522Y288334D01*
X108854Y290000D01*
X108522Y291666D01*
X107578Y293078D01*
X106166Y294022D01*
X104500Y294354D01*
D02*
G37*
G36*
X93500D02*
X91834Y294022D01*
X90421Y293078D01*
X89478Y291666D01*
X89146Y290000D01*
X89478Y288334D01*
X90421Y286922D01*
X91834Y285978D01*
X93500Y285646D01*
X95166Y285978D01*
X96579Y286922D01*
X97522Y288334D01*
X97854Y290000D01*
X97522Y291666D01*
X96579Y293078D01*
X95166Y294022D01*
X93500Y294354D01*
D02*
G37*
G36*
X115500Y237354D02*
X113834Y237022D01*
X112422Y236078D01*
X111478Y234666D01*
X111146Y233000D01*
X111478Y231334D01*
X112422Y229921D01*
X113834Y228978D01*
X115500Y228646D01*
X117166Y228978D01*
X118579Y229921D01*
X119522Y231334D01*
X119854Y233000D01*
X119522Y234666D01*
X118579Y236078D01*
X117166Y237022D01*
X115500Y237354D01*
D02*
G37*
G36*
X77000D02*
X75334Y237022D01*
X73921Y236078D01*
X72978Y234666D01*
X72646Y233000D01*
X72978Y231334D01*
X73921Y229921D01*
X75334Y228978D01*
X77000Y228646D01*
X78666Y228978D01*
X80078Y229921D01*
X81022Y231334D01*
X81354Y233000D01*
X81022Y234666D01*
X80078Y236078D01*
X78666Y237022D01*
X77000Y237354D01*
D02*
G37*
G36*
X83500Y218854D02*
X81834Y218522D01*
X80422Y217579D01*
X80078D01*
X78666Y218522D01*
X77000Y218854D01*
X75334Y218522D01*
X74740Y218126D01*
X73750Y217659D01*
X72760Y218126D01*
X72166Y218522D01*
X70500Y218854D01*
X68834Y218522D01*
X67421Y217579D01*
X66478Y216166D01*
X66146Y214500D01*
X66478Y212834D01*
X67421Y211422D01*
X68834Y210478D01*
X70500Y210146D01*
X72166Y210478D01*
X72760Y210874D01*
X73750Y211341D01*
X74740Y210874D01*
X75334Y210478D01*
X77000Y210146D01*
X78666Y210478D01*
X80078Y211422D01*
X80422D01*
X81834Y210478D01*
X83500Y210146D01*
X85166Y210478D01*
X86579Y211422D01*
X87522Y212834D01*
X87854Y214500D01*
X87522Y216166D01*
X86579Y217579D01*
X85166Y218522D01*
X83500Y218854D01*
D02*
G37*
G36*
X130000Y215604D02*
X128334Y215272D01*
X126922Y214328D01*
X125978Y212916D01*
X125646Y211250D01*
X125978Y209584D01*
X126922Y208172D01*
X128334Y207228D01*
X130000Y206896D01*
X131666Y207228D01*
X133078Y208172D01*
X134022Y209584D01*
X134354Y211250D01*
X134022Y212916D01*
X133078Y214328D01*
X131666Y215272D01*
X130000Y215604D01*
D02*
G37*
G36*
X114000D02*
X112334Y215272D01*
X110921Y214328D01*
X109978Y212916D01*
X109646Y211250D01*
X109978Y209584D01*
X110921Y208172D01*
X112334Y207228D01*
X114000Y206896D01*
X115666Y207228D01*
X117079Y208172D01*
X118022Y209584D01*
X118354Y211250D01*
X118022Y212916D01*
X117079Y214328D01*
X115666Y215272D01*
X114000Y215604D01*
D02*
G37*
G36*
X98000D02*
X96334Y215272D01*
X94922Y214328D01*
X93978Y212916D01*
X93646Y211250D01*
X93978Y209584D01*
X94922Y208172D01*
X96334Y207228D01*
X98000Y206896D01*
X99666Y207228D01*
X101079Y208172D01*
X102022Y209584D01*
X102354Y211250D01*
X102022Y212916D01*
X101079Y214328D01*
X99666Y215272D01*
X98000Y215604D01*
D02*
G37*
%LPD*%
D10*
X35000Y100000D02*
X59000D01*
X143000Y184000D01*
X35000Y100000D02*
X62500Y72500D01*
X157500D02*
X185000Y100000D01*
X62500Y72500D02*
X157500D01*
D39*
X135400Y89940D02*
D03*
Y110260D02*
D03*
X84600Y100100D02*
D03*
D41*
X21100Y42200D02*
D03*
X46500D02*
D03*
X148100D02*
D03*
X173500D02*
D03*
X122700D02*
D03*
X97300D02*
D03*
X71900D02*
D03*
D42*
X198900D02*
D03*
D43*
X129750Y139500D02*
D03*
X97500Y85000D02*
D03*
X30750Y195000D02*
D03*
X189250Y178750D02*
D03*
X136750Y214500D02*
D03*
X149250D02*
D03*
X155000Y216500D02*
D03*
X143000Y214500D02*
D03*
X58250Y294500D02*
D03*
X50000Y282000D02*
D03*
X35000D02*
D03*
X35000Y216500D02*
D03*
X20000D02*
D03*
X7500Y203500D02*
D03*
X20000D02*
D03*
X35000D02*
D03*
X50000D02*
D03*
X65000D02*
D03*
X99000Y240750D02*
D03*
Y222500D02*
D03*
X50000Y216500D02*
D03*
X7500Y231500D02*
D03*
Y246500D02*
D03*
Y261500D02*
D03*
Y276500D02*
D03*
Y291500D02*
D03*
Y306500D02*
D03*
Y321500D02*
D03*
Y336500D02*
D03*
Y351500D02*
D03*
Y216500D02*
D03*
X212500D02*
D03*
X82750Y280500D02*
D03*
X130250Y282500D02*
D03*
X200000Y351500D02*
D03*
Y336500D02*
D03*
Y321500D02*
D03*
Y306500D02*
D03*
Y291500D02*
D03*
Y276500D02*
D03*
Y261500D02*
D03*
Y246500D02*
D03*
Y231500D02*
D03*
X185000Y351500D02*
D03*
Y336500D02*
D03*
Y321500D02*
D03*
Y306500D02*
D03*
Y291500D02*
D03*
X170000Y351500D02*
D03*
Y336500D02*
D03*
Y321500D02*
D03*
X155000Y246500D02*
D03*
Y231500D02*
D03*
X140000Y246500D02*
D03*
Y231500D02*
D03*
X125000Y336500D02*
D03*
Y321500D02*
D03*
Y306500D02*
D03*
Y291500D02*
D03*
X110000Y351500D02*
D03*
Y336500D02*
D03*
Y321500D02*
D03*
Y306500D02*
D03*
X95000Y336500D02*
D03*
Y321500D02*
D03*
Y306500D02*
D03*
X65000Y231500D02*
D03*
X50000Y351500D02*
D03*
Y336500D02*
D03*
Y321500D02*
D03*
Y246500D02*
D03*
Y231500D02*
D03*
X35000Y351500D02*
D03*
Y336500D02*
D03*
Y321500D02*
D03*
Y246500D02*
D03*
Y231500D02*
D03*
X20000Y351500D02*
D03*
Y336500D02*
D03*
Y321500D02*
D03*
Y306500D02*
D03*
Y291500D02*
D03*
Y276500D02*
D03*
Y261500D02*
D03*
Y246500D02*
D03*
Y231500D02*
D03*
X70500Y214500D02*
D03*
X83500D02*
D03*
X77000D02*
D03*
X143000Y184000D02*
D03*
X130000Y188750D02*
D03*
X150825Y145675D02*
D03*
X159000Y152000D02*
D03*
X179000Y188750D02*
D03*
X163000D02*
D03*
X194942Y188643D02*
D03*
X155000Y188750D02*
D03*
X110000Y85000D02*
D03*
X203000Y188750D02*
D03*
X211000D02*
D03*
X122000D02*
D03*
X114000D02*
D03*
X106000D02*
D03*
X98000D02*
D03*
X90000D02*
D03*
X130000Y211250D02*
D03*
X115500Y290000D02*
D03*
X114000Y211250D02*
D03*
X104500Y290000D02*
D03*
X93500D02*
D03*
X98000Y211250D02*
D03*
X115500Y233000D02*
D03*
X161000Y264750D02*
D03*
X145750Y273250D02*
D03*
X77000Y233000D02*
D03*
X155500Y257250D02*
D03*
X63750Y257000D02*
D03*
X58750Y264500D02*
D03*
X74250Y272750D02*
D03*
X59250Y330750D02*
D03*
X56000Y308750D02*
D03*
X133250Y351500D02*
D03*
X119750D02*
D03*
X100250D02*
D03*
X86750D02*
D03*
X160750D02*
D03*
X81750Y348500D02*
D03*
X59000Y341500D02*
D03*
Y351500D02*
D03*
X212500D02*
D03*
Y336500D02*
D03*
Y321500D02*
D03*
Y306500D02*
D03*
Y291500D02*
D03*
Y276500D02*
D03*
Y261500D02*
D03*
Y246500D02*
D03*
Y231500D02*
D03*
D44*
X185000Y100000D02*
D03*
X35000D02*
D03*
M02*
