G04*
G04 #@! TF.GenerationSoftware,Altium Limited,Altium Designer,21.6.4 (81)*
G04*
G04 Layer_Color=128*
%FSLAX44Y44*%
%MOMM*%
G71*
G04*
G04 #@! TF.SameCoordinates,FA297D3A-E3D9-4574-8739-6FC88F1804E8*
G04*
G04*
G04 #@! TF.FilePolarity,Positive*
G04*
G01*
G75*
%ADD46C,0.0508*%
D46*
X130425Y89940D02*
X140375D01*
X135400Y84965D02*
Y94915D01*
X130425Y110260D02*
X140375D01*
X135400Y105285D02*
Y115235D01*
X79625Y100100D02*
X89575D01*
X84600Y95125D02*
Y105075D01*
X176000Y100000D02*
X194000D01*
X185000Y91000D02*
Y109000D01*
X26000Y100000D02*
X44000D01*
X35000Y91000D02*
Y109000D01*
X15600Y42200D02*
X26600D01*
X21100Y36700D02*
Y47700D01*
X41000Y42200D02*
X52000D01*
X46500Y36700D02*
Y47700D01*
X142600Y42200D02*
X153600D01*
X148100Y36700D02*
Y47700D01*
X193400Y42200D02*
X204400D01*
X198900Y36700D02*
Y47700D01*
X168000Y42200D02*
X179000D01*
X173500Y36700D02*
Y47700D01*
X117200Y42200D02*
X128200D01*
X122700Y36700D02*
Y47700D01*
X91800Y42200D02*
X102800D01*
X97300Y36700D02*
Y47700D01*
X66400Y42200D02*
X77400D01*
X71900Y36700D02*
Y47700D01*
X128250Y139500D02*
X131250D01*
X129750Y138000D02*
Y141000D01*
X96000Y85000D02*
X99000D01*
X97500Y83500D02*
Y86500D01*
X29250Y195000D02*
X32250D01*
X30750Y193500D02*
Y196500D01*
X187750Y178750D02*
X190750D01*
X189250Y177250D02*
Y180250D01*
X135250Y214500D02*
X138250D01*
X136750Y213000D02*
Y216000D01*
X147750Y214500D02*
X150750D01*
X149250Y213000D02*
Y216000D01*
X153500Y216500D02*
X156500D01*
X155000Y215000D02*
Y218000D01*
X141500Y214500D02*
X144500D01*
X143000Y213000D02*
Y216000D01*
X56750Y294500D02*
X59750D01*
X58250Y293000D02*
Y296000D01*
X48500Y282000D02*
X51500D01*
X50000Y280500D02*
Y283500D01*
X33500Y282000D02*
X36500D01*
X35000Y280500D02*
Y283500D01*
X33500Y216500D02*
X36500D01*
X35000Y215000D02*
Y218000D01*
X18500Y216500D02*
X21500D01*
X20000Y215000D02*
Y218000D01*
X6000Y203500D02*
X9000D01*
X7500Y202000D02*
Y205000D01*
X18500Y203500D02*
X21500D01*
X20000Y202000D02*
Y205000D01*
X33500Y203500D02*
X36500D01*
X35000Y202000D02*
Y205000D01*
X48500Y203500D02*
X51500D01*
X50000Y202000D02*
Y205000D01*
X63500Y203500D02*
X66500D01*
X65000Y202000D02*
Y205000D01*
X97500Y240750D02*
X100500D01*
X99000Y239250D02*
Y242250D01*
X97500Y222500D02*
X100500D01*
X99000Y221000D02*
Y224000D01*
X48500Y216500D02*
X51500D01*
X50000Y215000D02*
Y218000D01*
X6000Y231500D02*
X9000D01*
X7500Y230000D02*
Y233000D01*
X6000Y246500D02*
X9000D01*
X7500Y245000D02*
Y248000D01*
X6000Y261500D02*
X9000D01*
X7500Y260000D02*
Y263000D01*
X6000Y276500D02*
X9000D01*
X7500Y275000D02*
Y278000D01*
X6000Y291500D02*
X9000D01*
X7500Y290000D02*
Y293000D01*
X6000Y306500D02*
X9000D01*
X7500Y305000D02*
Y308000D01*
X6000Y321500D02*
X9000D01*
X7500Y320000D02*
Y323000D01*
X6000Y336500D02*
X9000D01*
X7500Y335000D02*
Y338000D01*
X6000Y351500D02*
X9000D01*
X7500Y350000D02*
Y353000D01*
X6000Y216500D02*
X9000D01*
X7500Y215000D02*
Y218000D01*
X211000Y216500D02*
X214000D01*
X212500Y215000D02*
Y218000D01*
X81250Y280500D02*
X84250D01*
X82750Y279000D02*
Y282000D01*
X128750Y282500D02*
X131750D01*
X130250Y281000D02*
Y284000D01*
X198500Y351500D02*
X201500D01*
X200000Y350000D02*
Y353000D01*
X198500Y336500D02*
X201500D01*
X200000Y335000D02*
Y338000D01*
X198500Y321500D02*
X201500D01*
X200000Y320000D02*
Y323000D01*
X198500Y306500D02*
X201500D01*
X200000Y305000D02*
Y308000D01*
X198500Y291500D02*
X201500D01*
X200000Y290000D02*
Y293000D01*
X198500Y276500D02*
X201500D01*
X200000Y275000D02*
Y278000D01*
X198500Y261500D02*
X201500D01*
X200000Y260000D02*
Y263000D01*
X198500Y246500D02*
X201500D01*
X200000Y245000D02*
Y248000D01*
X198500Y231500D02*
X201500D01*
X200000Y230000D02*
Y233000D01*
X183500Y351500D02*
X186500D01*
X185000Y350000D02*
Y353000D01*
X183500Y336500D02*
X186500D01*
X185000Y335000D02*
Y338000D01*
X183500Y321500D02*
X186500D01*
X185000Y320000D02*
Y323000D01*
X183500Y306500D02*
X186500D01*
X185000Y305000D02*
Y308000D01*
X183500Y291500D02*
X186500D01*
X185000Y290000D02*
Y293000D01*
X168500Y351500D02*
X171500D01*
X170000Y350000D02*
Y353000D01*
X168500Y336500D02*
X171500D01*
X170000Y335000D02*
Y338000D01*
X168500Y321500D02*
X171500D01*
X170000Y320000D02*
Y323000D01*
X153500Y246500D02*
X156500D01*
X155000Y245000D02*
Y248000D01*
X153500Y231500D02*
X156500D01*
X155000Y230000D02*
Y233000D01*
X138500Y246500D02*
X141500D01*
X140000Y245000D02*
Y248000D01*
X138500Y231500D02*
X141500D01*
X140000Y230000D02*
Y233000D01*
X123500Y336500D02*
X126500D01*
X125000Y335000D02*
Y338000D01*
X123500Y321500D02*
X126500D01*
X125000Y320000D02*
Y323000D01*
X123500Y306500D02*
X126500D01*
X125000Y305000D02*
Y308000D01*
X123500Y291500D02*
X126500D01*
X125000Y290000D02*
Y293000D01*
X108500Y351500D02*
X111500D01*
X110000Y350000D02*
Y353000D01*
X108500Y336500D02*
X111500D01*
X110000Y335000D02*
Y338000D01*
X108500Y321500D02*
X111500D01*
X110000Y320000D02*
Y323000D01*
X108500Y306500D02*
X111500D01*
X110000Y305000D02*
Y308000D01*
X93500Y336500D02*
X96500D01*
X95000Y335000D02*
Y338000D01*
X93500Y321500D02*
X96500D01*
X95000Y320000D02*
Y323000D01*
X93500Y306500D02*
X96500D01*
X95000Y305000D02*
Y308000D01*
X63500Y231500D02*
X66500D01*
X65000Y230000D02*
Y233000D01*
X48500Y351500D02*
X51500D01*
X50000Y350000D02*
Y353000D01*
X48500Y336500D02*
X51500D01*
X50000Y335000D02*
Y338000D01*
X48500Y321500D02*
X51500D01*
X50000Y320000D02*
Y323000D01*
X48500Y246500D02*
X51500D01*
X50000Y245000D02*
Y248000D01*
X48500Y231500D02*
X51500D01*
X50000Y230000D02*
Y233000D01*
X33500Y351500D02*
X36500D01*
X35000Y350000D02*
Y353000D01*
X33500Y336500D02*
X36500D01*
X35000Y335000D02*
Y338000D01*
X33500Y321500D02*
X36500D01*
X35000Y320000D02*
Y323000D01*
X33500Y246500D02*
X36500D01*
X35000Y245000D02*
Y248000D01*
X33500Y231500D02*
X36500D01*
X35000Y230000D02*
Y233000D01*
X18500Y351500D02*
X21500D01*
X20000Y350000D02*
Y353000D01*
X18500Y336500D02*
X21500D01*
X20000Y335000D02*
Y338000D01*
X18500Y321500D02*
X21500D01*
X20000Y320000D02*
Y323000D01*
X18500Y306500D02*
X21500D01*
X20000Y305000D02*
Y308000D01*
X18500Y291500D02*
X21500D01*
X20000Y290000D02*
Y293000D01*
X18500Y276500D02*
X21500D01*
X20000Y275000D02*
Y278000D01*
X18500Y261500D02*
X21500D01*
X20000Y260000D02*
Y263000D01*
X18500Y246500D02*
X21500D01*
X20000Y245000D02*
Y248000D01*
X18500Y231500D02*
X21500D01*
X20000Y230000D02*
Y233000D01*
X69000Y214500D02*
X72000D01*
X70500Y213000D02*
Y216000D01*
X82000Y214500D02*
X85000D01*
X83500Y213000D02*
Y216000D01*
X75500Y214500D02*
X78500D01*
X77000Y213000D02*
Y216000D01*
X141500Y184000D02*
X144500D01*
X143000Y182500D02*
Y185500D01*
X128500Y188750D02*
X131500D01*
X130000Y187250D02*
Y190250D01*
X149325Y145675D02*
X152325D01*
X150825Y144175D02*
Y147175D01*
X157500Y152000D02*
X160500D01*
X159000Y150500D02*
Y153500D01*
X177500Y188750D02*
X180500D01*
X179000Y187250D02*
Y190250D01*
X161500Y188750D02*
X164500D01*
X163000Y187250D02*
Y190250D01*
X193442Y188643D02*
X196442D01*
X194942Y187143D02*
Y190143D01*
X153500Y188750D02*
X156500D01*
X155000Y187250D02*
Y190250D01*
X108500Y85000D02*
X111500D01*
X110000Y83500D02*
Y86500D01*
X201500Y188750D02*
X204500D01*
X203000Y187250D02*
Y190250D01*
X209500Y188750D02*
X212500D01*
X211000Y187250D02*
Y190250D01*
X120500Y188750D02*
X123500D01*
X122000Y187250D02*
Y190250D01*
X112500Y188750D02*
X115500D01*
X114000Y187250D02*
Y190250D01*
X104500Y188750D02*
X107500D01*
X106000Y187250D02*
Y190250D01*
X96500Y188750D02*
X99500D01*
X98000Y187250D02*
Y190250D01*
X88500Y188750D02*
X91500D01*
X90000Y187250D02*
Y190250D01*
X128500Y211250D02*
X131500D01*
X130000Y209750D02*
Y212750D01*
X114000Y290000D02*
X117000D01*
X115500Y288500D02*
Y291500D01*
X112500Y211250D02*
X115500D01*
X114000Y209750D02*
Y212750D01*
X103000Y290000D02*
X106000D01*
X104500Y288500D02*
Y291500D01*
X92000Y290000D02*
X95000D01*
X93500Y288500D02*
Y291500D01*
X96500Y211250D02*
X99500D01*
X98000Y209750D02*
Y212750D01*
X114000Y233000D02*
X117000D01*
X115500Y231500D02*
Y234500D01*
X159500Y264750D02*
X162500D01*
X161000Y263250D02*
Y266250D01*
X144250Y273250D02*
X147250D01*
X145750Y271750D02*
Y274750D01*
X75500Y233000D02*
X78500D01*
X77000Y231500D02*
Y234500D01*
X154000Y257250D02*
X157000D01*
X155500Y255750D02*
Y258750D01*
X62250Y257000D02*
X65250D01*
X63750Y255500D02*
Y258500D01*
X57250Y264500D02*
X60250D01*
X58750Y263000D02*
Y266000D01*
X72750Y272750D02*
X75750D01*
X74250Y271250D02*
Y274250D01*
X57750Y330750D02*
X60750D01*
X59250Y329250D02*
Y332250D01*
X54500Y308750D02*
X57500D01*
X56000Y307250D02*
Y310250D01*
X131750Y351500D02*
X134750D01*
X133250Y350000D02*
Y353000D01*
X118250Y351500D02*
X121250D01*
X119750Y350000D02*
Y353000D01*
X98750Y351500D02*
X101750D01*
X100250Y350000D02*
Y353000D01*
X85250Y351500D02*
X88250D01*
X86750Y350000D02*
Y353000D01*
X159250Y351500D02*
X162250D01*
X160750Y350000D02*
Y353000D01*
X80250Y348500D02*
X83250D01*
X81750Y347000D02*
Y350000D01*
X57500Y341500D02*
X60500D01*
X59000Y340000D02*
Y343000D01*
X57500Y351500D02*
X60500D01*
X59000Y350000D02*
Y353000D01*
X211000Y351500D02*
X214000D01*
X212500Y350000D02*
Y353000D01*
X211000Y336500D02*
X214000D01*
X212500Y335000D02*
Y338000D01*
X211000Y321500D02*
X214000D01*
X212500Y320000D02*
Y323000D01*
X211000Y306500D02*
X214000D01*
X212500Y305000D02*
Y308000D01*
X211000Y291500D02*
X214000D01*
X212500Y290000D02*
Y293000D01*
X211000Y276500D02*
X214000D01*
X212500Y275000D02*
Y278000D01*
X211000Y261500D02*
X214000D01*
X212500Y260000D02*
Y263000D01*
X211000Y246500D02*
X214000D01*
X212500Y245000D02*
Y248000D01*
X211000Y231500D02*
X214000D01*
X212500Y230000D02*
Y233000D01*
M02*
