G04*
G04 #@! TF.GenerationSoftware,Altium Limited,Altium Designer,21.6.4 (81)*
G04*
G04 Layer_Color=2752767*
%FSLAX44Y44*%
%MOMM*%
G71*
G04*
G04 #@! TF.SameCoordinates,FA297D3A-E3D9-4574-8739-6FC88F1804E8*
G04*
G04*
G04 #@! TF.FilePolarity,Positive*
G04*
G01*
G75*
%ADD46C,0.0508*%
%ADD49C,0.0677*%
D46*
X133368Y87908D02*
Y91972D01*
X137432D01*
Y87908D01*
X133368D01*
Y108228D02*
Y112292D01*
X137432D01*
Y108228D01*
X133368D01*
X82568Y98068D02*
Y102132D01*
X86632D01*
Y98068D01*
X82568D01*
X21100Y40168D02*
X19068Y44232D01*
X23132D01*
X21100Y40168D01*
X46500D02*
X44468Y44232D01*
X48532D01*
X46500Y40168D01*
X148100D02*
X146068Y44232D01*
X150132D01*
X148100Y40168D01*
X198900D02*
X196868Y44232D01*
X200932D01*
X198900Y40168D01*
X173500D02*
X171468Y44232D01*
X175532D01*
X173500Y40168D01*
X122700D02*
X120668Y44232D01*
X124732D01*
X122700Y40168D01*
X97300D02*
X95268Y44232D01*
X99332D01*
X97300Y40168D01*
X71900D02*
X69868Y44232D01*
X73932D01*
X71900Y40168D01*
X129750Y137468D02*
X130766Y138484D01*
X131782D01*
X130766Y139500D01*
X131782Y140516D01*
X130766D01*
X129750Y141532D01*
X128734Y140516D01*
X127718D01*
X128734Y139500D01*
X127718Y138484D01*
X128734D01*
X129750Y137468D01*
X97500Y82968D02*
X98516Y83984D01*
X99532D01*
X98516Y85000D01*
X99532Y86016D01*
X98516D01*
X97500Y87032D01*
X96484Y86016D01*
X95468D01*
X96484Y85000D01*
X95468Y83984D01*
X96484D01*
X97500Y82968D01*
X30750Y192968D02*
X31766Y193984D01*
X32782D01*
X31766Y195000D01*
X32782Y196016D01*
X31766D01*
X30750Y197032D01*
X29734Y196016D01*
X28718D01*
X29734Y195000D01*
X28718Y193984D01*
X29734D01*
X30750Y192968D01*
X189250Y176718D02*
X190266Y177734D01*
X191282D01*
X190266Y178750D01*
X191282Y179766D01*
X190266D01*
X189250Y180782D01*
X188234Y179766D01*
X187218D01*
X188234Y178750D01*
X187218Y177734D01*
X188234D01*
X189250Y176718D01*
X136750Y212468D02*
X137766Y213484D01*
X138782D01*
X137766Y214500D01*
X138782Y215516D01*
X137766D01*
X136750Y216532D01*
X135734Y215516D01*
X134718D01*
X135734Y214500D01*
X134718Y213484D01*
X135734D01*
X136750Y212468D01*
X149250D02*
X150266Y213484D01*
X151282D01*
X150266Y214500D01*
X151282Y215516D01*
X150266D01*
X149250Y216532D01*
X148234Y215516D01*
X147218D01*
X148234Y214500D01*
X147218Y213484D01*
X148234D01*
X149250Y212468D01*
X155000Y214468D02*
X156016Y215484D01*
X157032D01*
X156016Y216500D01*
X157032Y217516D01*
X156016D01*
X155000Y218532D01*
X153984Y217516D01*
X152968D01*
X153984Y216500D01*
X152968Y215484D01*
X153984D01*
X155000Y214468D01*
X143000Y212468D02*
X144016Y213484D01*
X145032D01*
X144016Y214500D01*
X145032Y215516D01*
X144016D01*
X143000Y216532D01*
X141984Y215516D01*
X140968D01*
X141984Y214500D01*
X140968Y213484D01*
X141984D01*
X143000Y212468D01*
X58250Y292468D02*
X59266Y293484D01*
X60282D01*
X59266Y294500D01*
X60282Y295516D01*
X59266D01*
X58250Y296532D01*
X57234Y295516D01*
X56218D01*
X57234Y294500D01*
X56218Y293484D01*
X57234D01*
X58250Y292468D01*
X50000Y279968D02*
X51016Y280984D01*
X52032D01*
X51016Y282000D01*
X52032Y283016D01*
X51016D01*
X50000Y284032D01*
X48984Y283016D01*
X47968D01*
X48984Y282000D01*
X47968Y280984D01*
X48984D01*
X50000Y279968D01*
X35000D02*
X36016Y280984D01*
X37032D01*
X36016Y282000D01*
X37032Y283016D01*
X36016D01*
X35000Y284032D01*
X33984Y283016D01*
X32968D01*
X33984Y282000D01*
X32968Y280984D01*
X33984D01*
X35000Y279968D01*
X35000Y214468D02*
X36016Y215484D01*
X37032D01*
X36016Y216500D01*
X37032Y217516D01*
X36016D01*
X35000Y218532D01*
X33984Y217516D01*
X32968D01*
X33984Y216500D01*
X32968Y215484D01*
X33984D01*
X35000Y214468D01*
X20000D02*
X21016Y215484D01*
X22032D01*
X21016Y216500D01*
X22032Y217516D01*
X21016D01*
X20000Y218532D01*
X18984Y217516D01*
X17968D01*
X18984Y216500D01*
X17968Y215484D01*
X18984D01*
X20000Y214468D01*
X7500Y201468D02*
X8516Y202484D01*
X9532D01*
X8516Y203500D01*
X9532Y204516D01*
X8516D01*
X7500Y205532D01*
X6484Y204516D01*
X5468D01*
X6484Y203500D01*
X5468Y202484D01*
X6484D01*
X7500Y201468D01*
X20000D02*
X21016Y202484D01*
X22032D01*
X21016Y203500D01*
X22032Y204516D01*
X21016D01*
X20000Y205532D01*
X18984Y204516D01*
X17968D01*
X18984Y203500D01*
X17968Y202484D01*
X18984D01*
X20000Y201468D01*
X35000D02*
X36016Y202484D01*
X37032D01*
X36016Y203500D01*
X37032Y204516D01*
X36016D01*
X35000Y205532D01*
X33984Y204516D01*
X32968D01*
X33984Y203500D01*
X32968Y202484D01*
X33984D01*
X35000Y201468D01*
X50000D02*
X51016Y202484D01*
X52032D01*
X51016Y203500D01*
X52032Y204516D01*
X51016D01*
X50000Y205532D01*
X48984Y204516D01*
X47968D01*
X48984Y203500D01*
X47968Y202484D01*
X48984D01*
X50000Y201468D01*
X65000D02*
X66016Y202484D01*
X67032D01*
X66016Y203500D01*
X67032Y204516D01*
X66016D01*
X65000Y205532D01*
X63984Y204516D01*
X62968D01*
X63984Y203500D01*
X62968Y202484D01*
X63984D01*
X65000Y201468D01*
X99000Y238718D02*
X100016Y239734D01*
X101032D01*
X100016Y240750D01*
X101032Y241766D01*
X100016D01*
X99000Y242782D01*
X97984Y241766D01*
X96968D01*
X97984Y240750D01*
X96968Y239734D01*
X97984D01*
X99000Y238718D01*
Y220468D02*
X100016Y221484D01*
X101032D01*
X100016Y222500D01*
X101032Y223516D01*
X100016D01*
X99000Y224532D01*
X97984Y223516D01*
X96968D01*
X97984Y222500D01*
X96968Y221484D01*
X97984D01*
X99000Y220468D01*
X50000Y214468D02*
X51016Y215484D01*
X52032D01*
X51016Y216500D01*
X52032Y217516D01*
X51016D01*
X50000Y218532D01*
X48984Y217516D01*
X47968D01*
X48984Y216500D01*
X47968Y215484D01*
X48984D01*
X50000Y214468D01*
X7500Y229468D02*
X8516Y230484D01*
X9532D01*
X8516Y231500D01*
X9532Y232516D01*
X8516D01*
X7500Y233532D01*
X6484Y232516D01*
X5468D01*
X6484Y231500D01*
X5468Y230484D01*
X6484D01*
X7500Y229468D01*
Y244468D02*
X8516Y245484D01*
X9532D01*
X8516Y246500D01*
X9532Y247516D01*
X8516D01*
X7500Y248532D01*
X6484Y247516D01*
X5468D01*
X6484Y246500D01*
X5468Y245484D01*
X6484D01*
X7500Y244468D01*
Y259468D02*
X8516Y260484D01*
X9532D01*
X8516Y261500D01*
X9532Y262516D01*
X8516D01*
X7500Y263532D01*
X6484Y262516D01*
X5468D01*
X6484Y261500D01*
X5468Y260484D01*
X6484D01*
X7500Y259468D01*
Y274468D02*
X8516Y275484D01*
X9532D01*
X8516Y276500D01*
X9532Y277516D01*
X8516D01*
X7500Y278532D01*
X6484Y277516D01*
X5468D01*
X6484Y276500D01*
X5468Y275484D01*
X6484D01*
X7500Y274468D01*
Y289468D02*
X8516Y290484D01*
X9532D01*
X8516Y291500D01*
X9532Y292516D01*
X8516D01*
X7500Y293532D01*
X6484Y292516D01*
X5468D01*
X6484Y291500D01*
X5468Y290484D01*
X6484D01*
X7500Y289468D01*
Y304468D02*
X8516Y305484D01*
X9532D01*
X8516Y306500D01*
X9532Y307516D01*
X8516D01*
X7500Y308532D01*
X6484Y307516D01*
X5468D01*
X6484Y306500D01*
X5468Y305484D01*
X6484D01*
X7500Y304468D01*
Y319468D02*
X8516Y320484D01*
X9532D01*
X8516Y321500D01*
X9532Y322516D01*
X8516D01*
X7500Y323532D01*
X6484Y322516D01*
X5468D01*
X6484Y321500D01*
X5468Y320484D01*
X6484D01*
X7500Y319468D01*
Y334468D02*
X8516Y335484D01*
X9532D01*
X8516Y336500D01*
X9532Y337516D01*
X8516D01*
X7500Y338532D01*
X6484Y337516D01*
X5468D01*
X6484Y336500D01*
X5468Y335484D01*
X6484D01*
X7500Y334468D01*
Y349468D02*
X8516Y350484D01*
X9532D01*
X8516Y351500D01*
X9532Y352516D01*
X8516D01*
X7500Y353532D01*
X6484Y352516D01*
X5468D01*
X6484Y351500D01*
X5468Y350484D01*
X6484D01*
X7500Y349468D01*
Y214468D02*
X8516Y215484D01*
X9532D01*
X8516Y216500D01*
X9532Y217516D01*
X8516D01*
X7500Y218532D01*
X6484Y217516D01*
X5468D01*
X6484Y216500D01*
X5468Y215484D01*
X6484D01*
X7500Y214468D01*
X212500D02*
X213516Y215484D01*
X214532D01*
X213516Y216500D01*
X214532Y217516D01*
X213516D01*
X212500Y218532D01*
X211484Y217516D01*
X210468D01*
X211484Y216500D01*
X210468Y215484D01*
X211484D01*
X212500Y214468D01*
X82750Y278468D02*
X83766Y279484D01*
X84782D01*
X83766Y280500D01*
X84782Y281516D01*
X83766D01*
X82750Y282532D01*
X81734Y281516D01*
X80718D01*
X81734Y280500D01*
X80718Y279484D01*
X81734D01*
X82750Y278468D01*
X130250Y280468D02*
X131266Y281484D01*
X132282D01*
X131266Y282500D01*
X132282Y283516D01*
X131266D01*
X130250Y284532D01*
X129234Y283516D01*
X128218D01*
X129234Y282500D01*
X128218Y281484D01*
X129234D01*
X130250Y280468D01*
X200000Y349468D02*
X201016Y350484D01*
X202032D01*
X201016Y351500D01*
X202032Y352516D01*
X201016D01*
X200000Y353532D01*
X198984Y352516D01*
X197968D01*
X198984Y351500D01*
X197968Y350484D01*
X198984D01*
X200000Y349468D01*
Y334468D02*
X201016Y335484D01*
X202032D01*
X201016Y336500D01*
X202032Y337516D01*
X201016D01*
X200000Y338532D01*
X198984Y337516D01*
X197968D01*
X198984Y336500D01*
X197968Y335484D01*
X198984D01*
X200000Y334468D01*
Y319468D02*
X201016Y320484D01*
X202032D01*
X201016Y321500D01*
X202032Y322516D01*
X201016D01*
X200000Y323532D01*
X198984Y322516D01*
X197968D01*
X198984Y321500D01*
X197968Y320484D01*
X198984D01*
X200000Y319468D01*
Y304468D02*
X201016Y305484D01*
X202032D01*
X201016Y306500D01*
X202032Y307516D01*
X201016D01*
X200000Y308532D01*
X198984Y307516D01*
X197968D01*
X198984Y306500D01*
X197968Y305484D01*
X198984D01*
X200000Y304468D01*
Y289468D02*
X201016Y290484D01*
X202032D01*
X201016Y291500D01*
X202032Y292516D01*
X201016D01*
X200000Y293532D01*
X198984Y292516D01*
X197968D01*
X198984Y291500D01*
X197968Y290484D01*
X198984D01*
X200000Y289468D01*
Y274468D02*
X201016Y275484D01*
X202032D01*
X201016Y276500D01*
X202032Y277516D01*
X201016D01*
X200000Y278532D01*
X198984Y277516D01*
X197968D01*
X198984Y276500D01*
X197968Y275484D01*
X198984D01*
X200000Y274468D01*
Y259468D02*
X201016Y260484D01*
X202032D01*
X201016Y261500D01*
X202032Y262516D01*
X201016D01*
X200000Y263532D01*
X198984Y262516D01*
X197968D01*
X198984Y261500D01*
X197968Y260484D01*
X198984D01*
X200000Y259468D01*
Y244468D02*
X201016Y245484D01*
X202032D01*
X201016Y246500D01*
X202032Y247516D01*
X201016D01*
X200000Y248532D01*
X198984Y247516D01*
X197968D01*
X198984Y246500D01*
X197968Y245484D01*
X198984D01*
X200000Y244468D01*
Y229468D02*
X201016Y230484D01*
X202032D01*
X201016Y231500D01*
X202032Y232516D01*
X201016D01*
X200000Y233532D01*
X198984Y232516D01*
X197968D01*
X198984Y231500D01*
X197968Y230484D01*
X198984D01*
X200000Y229468D01*
X185000Y349468D02*
X186016Y350484D01*
X187032D01*
X186016Y351500D01*
X187032Y352516D01*
X186016D01*
X185000Y353532D01*
X183984Y352516D01*
X182968D01*
X183984Y351500D01*
X182968Y350484D01*
X183984D01*
X185000Y349468D01*
Y334468D02*
X186016Y335484D01*
X187032D01*
X186016Y336500D01*
X187032Y337516D01*
X186016D01*
X185000Y338532D01*
X183984Y337516D01*
X182968D01*
X183984Y336500D01*
X182968Y335484D01*
X183984D01*
X185000Y334468D01*
Y319468D02*
X186016Y320484D01*
X187032D01*
X186016Y321500D01*
X187032Y322516D01*
X186016D01*
X185000Y323532D01*
X183984Y322516D01*
X182968D01*
X183984Y321500D01*
X182968Y320484D01*
X183984D01*
X185000Y319468D01*
Y304468D02*
X186016Y305484D01*
X187032D01*
X186016Y306500D01*
X187032Y307516D01*
X186016D01*
X185000Y308532D01*
X183984Y307516D01*
X182968D01*
X183984Y306500D01*
X182968Y305484D01*
X183984D01*
X185000Y304468D01*
Y289468D02*
X186016Y290484D01*
X187032D01*
X186016Y291500D01*
X187032Y292516D01*
X186016D01*
X185000Y293532D01*
X183984Y292516D01*
X182968D01*
X183984Y291500D01*
X182968Y290484D01*
X183984D01*
X185000Y289468D01*
X170000Y349468D02*
X171016Y350484D01*
X172032D01*
X171016Y351500D01*
X172032Y352516D01*
X171016D01*
X170000Y353532D01*
X168984Y352516D01*
X167968D01*
X168984Y351500D01*
X167968Y350484D01*
X168984D01*
X170000Y349468D01*
Y334468D02*
X171016Y335484D01*
X172032D01*
X171016Y336500D01*
X172032Y337516D01*
X171016D01*
X170000Y338532D01*
X168984Y337516D01*
X167968D01*
X168984Y336500D01*
X167968Y335484D01*
X168984D01*
X170000Y334468D01*
Y319468D02*
X171016Y320484D01*
X172032D01*
X171016Y321500D01*
X172032Y322516D01*
X171016D01*
X170000Y323532D01*
X168984Y322516D01*
X167968D01*
X168984Y321500D01*
X167968Y320484D01*
X168984D01*
X170000Y319468D01*
X155000Y244468D02*
X156016Y245484D01*
X157032D01*
X156016Y246500D01*
X157032Y247516D01*
X156016D01*
X155000Y248532D01*
X153984Y247516D01*
X152968D01*
X153984Y246500D01*
X152968Y245484D01*
X153984D01*
X155000Y244468D01*
Y229468D02*
X156016Y230484D01*
X157032D01*
X156016Y231500D01*
X157032Y232516D01*
X156016D01*
X155000Y233532D01*
X153984Y232516D01*
X152968D01*
X153984Y231500D01*
X152968Y230484D01*
X153984D01*
X155000Y229468D01*
X140000Y244468D02*
X141016Y245484D01*
X142032D01*
X141016Y246500D01*
X142032Y247516D01*
X141016D01*
X140000Y248532D01*
X138984Y247516D01*
X137968D01*
X138984Y246500D01*
X137968Y245484D01*
X138984D01*
X140000Y244468D01*
Y229468D02*
X141016Y230484D01*
X142032D01*
X141016Y231500D01*
X142032Y232516D01*
X141016D01*
X140000Y233532D01*
X138984Y232516D01*
X137968D01*
X138984Y231500D01*
X137968Y230484D01*
X138984D01*
X140000Y229468D01*
X125000Y334468D02*
X126016Y335484D01*
X127032D01*
X126016Y336500D01*
X127032Y337516D01*
X126016D01*
X125000Y338532D01*
X123984Y337516D01*
X122968D01*
X123984Y336500D01*
X122968Y335484D01*
X123984D01*
X125000Y334468D01*
Y319468D02*
X126016Y320484D01*
X127032D01*
X126016Y321500D01*
X127032Y322516D01*
X126016D01*
X125000Y323532D01*
X123984Y322516D01*
X122968D01*
X123984Y321500D01*
X122968Y320484D01*
X123984D01*
X125000Y319468D01*
Y304468D02*
X126016Y305484D01*
X127032D01*
X126016Y306500D01*
X127032Y307516D01*
X126016D01*
X125000Y308532D01*
X123984Y307516D01*
X122968D01*
X123984Y306500D01*
X122968Y305484D01*
X123984D01*
X125000Y304468D01*
Y289468D02*
X126016Y290484D01*
X127032D01*
X126016Y291500D01*
X127032Y292516D01*
X126016D01*
X125000Y293532D01*
X123984Y292516D01*
X122968D01*
X123984Y291500D01*
X122968Y290484D01*
X123984D01*
X125000Y289468D01*
X110000Y349468D02*
X111016Y350484D01*
X112032D01*
X111016Y351500D01*
X112032Y352516D01*
X111016D01*
X110000Y353532D01*
X108984Y352516D01*
X107968D01*
X108984Y351500D01*
X107968Y350484D01*
X108984D01*
X110000Y349468D01*
Y334468D02*
X111016Y335484D01*
X112032D01*
X111016Y336500D01*
X112032Y337516D01*
X111016D01*
X110000Y338532D01*
X108984Y337516D01*
X107968D01*
X108984Y336500D01*
X107968Y335484D01*
X108984D01*
X110000Y334468D01*
Y319468D02*
X111016Y320484D01*
X112032D01*
X111016Y321500D01*
X112032Y322516D01*
X111016D01*
X110000Y323532D01*
X108984Y322516D01*
X107968D01*
X108984Y321500D01*
X107968Y320484D01*
X108984D01*
X110000Y319468D01*
Y304468D02*
X111016Y305484D01*
X112032D01*
X111016Y306500D01*
X112032Y307516D01*
X111016D01*
X110000Y308532D01*
X108984Y307516D01*
X107968D01*
X108984Y306500D01*
X107968Y305484D01*
X108984D01*
X110000Y304468D01*
X95000Y334468D02*
X96016Y335484D01*
X97032D01*
X96016Y336500D01*
X97032Y337516D01*
X96016D01*
X95000Y338532D01*
X93984Y337516D01*
X92968D01*
X93984Y336500D01*
X92968Y335484D01*
X93984D01*
X95000Y334468D01*
Y319468D02*
X96016Y320484D01*
X97032D01*
X96016Y321500D01*
X97032Y322516D01*
X96016D01*
X95000Y323532D01*
X93984Y322516D01*
X92968D01*
X93984Y321500D01*
X92968Y320484D01*
X93984D01*
X95000Y319468D01*
Y304468D02*
X96016Y305484D01*
X97032D01*
X96016Y306500D01*
X97032Y307516D01*
X96016D01*
X95000Y308532D01*
X93984Y307516D01*
X92968D01*
X93984Y306500D01*
X92968Y305484D01*
X93984D01*
X95000Y304468D01*
X65000Y229468D02*
X66016Y230484D01*
X67032D01*
X66016Y231500D01*
X67032Y232516D01*
X66016D01*
X65000Y233532D01*
X63984Y232516D01*
X62968D01*
X63984Y231500D01*
X62968Y230484D01*
X63984D01*
X65000Y229468D01*
X50000Y349468D02*
X51016Y350484D01*
X52032D01*
X51016Y351500D01*
X52032Y352516D01*
X51016D01*
X50000Y353532D01*
X48984Y352516D01*
X47968D01*
X48984Y351500D01*
X47968Y350484D01*
X48984D01*
X50000Y349468D01*
Y334468D02*
X51016Y335484D01*
X52032D01*
X51016Y336500D01*
X52032Y337516D01*
X51016D01*
X50000Y338532D01*
X48984Y337516D01*
X47968D01*
X48984Y336500D01*
X47968Y335484D01*
X48984D01*
X50000Y334468D01*
Y319468D02*
X51016Y320484D01*
X52032D01*
X51016Y321500D01*
X52032Y322516D01*
X51016D01*
X50000Y323532D01*
X48984Y322516D01*
X47968D01*
X48984Y321500D01*
X47968Y320484D01*
X48984D01*
X50000Y319468D01*
Y244468D02*
X51016Y245484D01*
X52032D01*
X51016Y246500D01*
X52032Y247516D01*
X51016D01*
X50000Y248532D01*
X48984Y247516D01*
X47968D01*
X48984Y246500D01*
X47968Y245484D01*
X48984D01*
X50000Y244468D01*
Y229468D02*
X51016Y230484D01*
X52032D01*
X51016Y231500D01*
X52032Y232516D01*
X51016D01*
X50000Y233532D01*
X48984Y232516D01*
X47968D01*
X48984Y231500D01*
X47968Y230484D01*
X48984D01*
X50000Y229468D01*
X35000Y349468D02*
X36016Y350484D01*
X37032D01*
X36016Y351500D01*
X37032Y352516D01*
X36016D01*
X35000Y353532D01*
X33984Y352516D01*
X32968D01*
X33984Y351500D01*
X32968Y350484D01*
X33984D01*
X35000Y349468D01*
Y334468D02*
X36016Y335484D01*
X37032D01*
X36016Y336500D01*
X37032Y337516D01*
X36016D01*
X35000Y338532D01*
X33984Y337516D01*
X32968D01*
X33984Y336500D01*
X32968Y335484D01*
X33984D01*
X35000Y334468D01*
Y319468D02*
X36016Y320484D01*
X37032D01*
X36016Y321500D01*
X37032Y322516D01*
X36016D01*
X35000Y323532D01*
X33984Y322516D01*
X32968D01*
X33984Y321500D01*
X32968Y320484D01*
X33984D01*
X35000Y319468D01*
Y244468D02*
X36016Y245484D01*
X37032D01*
X36016Y246500D01*
X37032Y247516D01*
X36016D01*
X35000Y248532D01*
X33984Y247516D01*
X32968D01*
X33984Y246500D01*
X32968Y245484D01*
X33984D01*
X35000Y244468D01*
Y229468D02*
X36016Y230484D01*
X37032D01*
X36016Y231500D01*
X37032Y232516D01*
X36016D01*
X35000Y233532D01*
X33984Y232516D01*
X32968D01*
X33984Y231500D01*
X32968Y230484D01*
X33984D01*
X35000Y229468D01*
X20000Y349468D02*
X21016Y350484D01*
X22032D01*
X21016Y351500D01*
X22032Y352516D01*
X21016D01*
X20000Y353532D01*
X18984Y352516D01*
X17968D01*
X18984Y351500D01*
X17968Y350484D01*
X18984D01*
X20000Y349468D01*
Y334468D02*
X21016Y335484D01*
X22032D01*
X21016Y336500D01*
X22032Y337516D01*
X21016D01*
X20000Y338532D01*
X18984Y337516D01*
X17968D01*
X18984Y336500D01*
X17968Y335484D01*
X18984D01*
X20000Y334468D01*
Y319468D02*
X21016Y320484D01*
X22032D01*
X21016Y321500D01*
X22032Y322516D01*
X21016D01*
X20000Y323532D01*
X18984Y322516D01*
X17968D01*
X18984Y321500D01*
X17968Y320484D01*
X18984D01*
X20000Y319468D01*
Y304468D02*
X21016Y305484D01*
X22032D01*
X21016Y306500D01*
X22032Y307516D01*
X21016D01*
X20000Y308532D01*
X18984Y307516D01*
X17968D01*
X18984Y306500D01*
X17968Y305484D01*
X18984D01*
X20000Y304468D01*
Y289468D02*
X21016Y290484D01*
X22032D01*
X21016Y291500D01*
X22032Y292516D01*
X21016D01*
X20000Y293532D01*
X18984Y292516D01*
X17968D01*
X18984Y291500D01*
X17968Y290484D01*
X18984D01*
X20000Y289468D01*
Y274468D02*
X21016Y275484D01*
X22032D01*
X21016Y276500D01*
X22032Y277516D01*
X21016D01*
X20000Y278532D01*
X18984Y277516D01*
X17968D01*
X18984Y276500D01*
X17968Y275484D01*
X18984D01*
X20000Y274468D01*
Y259468D02*
X21016Y260484D01*
X22032D01*
X21016Y261500D01*
X22032Y262516D01*
X21016D01*
X20000Y263532D01*
X18984Y262516D01*
X17968D01*
X18984Y261500D01*
X17968Y260484D01*
X18984D01*
X20000Y259468D01*
Y244468D02*
X21016Y245484D01*
X22032D01*
X21016Y246500D01*
X22032Y247516D01*
X21016D01*
X20000Y248532D01*
X18984Y247516D01*
X17968D01*
X18984Y246500D01*
X17968Y245484D01*
X18984D01*
X20000Y244468D01*
Y229468D02*
X21016Y230484D01*
X22032D01*
X21016Y231500D01*
X22032Y232516D01*
X21016D01*
X20000Y233532D01*
X18984Y232516D01*
X17968D01*
X18984Y231500D01*
X17968Y230484D01*
X18984D01*
X20000Y229468D01*
X70500Y212468D02*
X71516Y213484D01*
X72532D01*
X71516Y214500D01*
X72532Y215516D01*
X71516D01*
X70500Y216532D01*
X69484Y215516D01*
X68468D01*
X69484Y214500D01*
X68468Y213484D01*
X69484D01*
X70500Y212468D01*
X83500D02*
X84516Y213484D01*
X85532D01*
X84516Y214500D01*
X85532Y215516D01*
X84516D01*
X83500Y216532D01*
X82484Y215516D01*
X81468D01*
X82484Y214500D01*
X81468Y213484D01*
X82484D01*
X83500Y212468D01*
X77000D02*
X78016Y213484D01*
X79032D01*
X78016Y214500D01*
X79032Y215516D01*
X78016D01*
X77000Y216532D01*
X75984Y215516D01*
X74968D01*
X75984Y214500D01*
X74968Y213484D01*
X75984D01*
X77000Y212468D01*
X143000Y181968D02*
X144016Y182984D01*
X145032D01*
X144016Y184000D01*
X145032Y185016D01*
X144016D01*
X143000Y186032D01*
X141984Y185016D01*
X140968D01*
X141984Y184000D01*
X140968Y182984D01*
X141984D01*
X143000Y181968D01*
X130000Y186718D02*
X131016Y187734D01*
X132032D01*
X131016Y188750D01*
X132032Y189766D01*
X131016D01*
X130000Y190782D01*
X128984Y189766D01*
X127968D01*
X128984Y188750D01*
X127968Y187734D01*
X128984D01*
X130000Y186718D01*
X150825Y143643D02*
X151841Y144659D01*
X152857D01*
X151841Y145675D01*
X152857Y146691D01*
X151841D01*
X150825Y147707D01*
X149809Y146691D01*
X148793D01*
X149809Y145675D01*
X148793Y144659D01*
X149809D01*
X150825Y143643D01*
X159000Y149968D02*
X160016Y150984D01*
X161032D01*
X160016Y152000D01*
X161032Y153016D01*
X160016D01*
X159000Y154032D01*
X157984Y153016D01*
X156968D01*
X157984Y152000D01*
X156968Y150984D01*
X157984D01*
X159000Y149968D01*
X179000Y186718D02*
X180016Y187734D01*
X181032D01*
X180016Y188750D01*
X181032Y189766D01*
X180016D01*
X179000Y190782D01*
X177984Y189766D01*
X176968D01*
X177984Y188750D01*
X176968Y187734D01*
X177984D01*
X179000Y186718D01*
X163000D02*
X164016Y187734D01*
X165032D01*
X164016Y188750D01*
X165032Y189766D01*
X164016D01*
X163000Y190782D01*
X161984Y189766D01*
X160968D01*
X161984Y188750D01*
X160968Y187734D01*
X161984D01*
X163000Y186718D01*
X194942Y186611D02*
X195958Y187627D01*
X196974D01*
X195958Y188643D01*
X196974Y189659D01*
X195958D01*
X194942Y190675D01*
X193926Y189659D01*
X192910D01*
X193926Y188643D01*
X192910Y187627D01*
X193926D01*
X194942Y186611D01*
X155000Y186718D02*
X156016Y187734D01*
X157032D01*
X156016Y188750D01*
X157032Y189766D01*
X156016D01*
X155000Y190782D01*
X153984Y189766D01*
X152968D01*
X153984Y188750D01*
X152968Y187734D01*
X153984D01*
X155000Y186718D01*
X110000Y82968D02*
X111016Y83984D01*
X112032D01*
X111016Y85000D01*
X112032Y86016D01*
X111016D01*
X110000Y87032D01*
X108984Y86016D01*
X107968D01*
X108984Y85000D01*
X107968Y83984D01*
X108984D01*
X110000Y82968D01*
X203000Y186718D02*
X204016Y187734D01*
X205032D01*
X204016Y188750D01*
X205032Y189766D01*
X204016D01*
X203000Y190782D01*
X201984Y189766D01*
X200968D01*
X201984Y188750D01*
X200968Y187734D01*
X201984D01*
X203000Y186718D01*
X211000D02*
X212016Y187734D01*
X213032D01*
X212016Y188750D01*
X213032Y189766D01*
X212016D01*
X211000Y190782D01*
X209984Y189766D01*
X208968D01*
X209984Y188750D01*
X208968Y187734D01*
X209984D01*
X211000Y186718D01*
X122000D02*
X123016Y187734D01*
X124032D01*
X123016Y188750D01*
X124032Y189766D01*
X123016D01*
X122000Y190782D01*
X120984Y189766D01*
X119968D01*
X120984Y188750D01*
X119968Y187734D01*
X120984D01*
X122000Y186718D01*
X114000D02*
X115016Y187734D01*
X116032D01*
X115016Y188750D01*
X116032Y189766D01*
X115016D01*
X114000Y190782D01*
X112984Y189766D01*
X111968D01*
X112984Y188750D01*
X111968Y187734D01*
X112984D01*
X114000Y186718D01*
X106000D02*
X107016Y187734D01*
X108032D01*
X107016Y188750D01*
X108032Y189766D01*
X107016D01*
X106000Y190782D01*
X104984Y189766D01*
X103968D01*
X104984Y188750D01*
X103968Y187734D01*
X104984D01*
X106000Y186718D01*
X98000D02*
X99016Y187734D01*
X100032D01*
X99016Y188750D01*
X100032Y189766D01*
X99016D01*
X98000Y190782D01*
X96984Y189766D01*
X95968D01*
X96984Y188750D01*
X95968Y187734D01*
X96984D01*
X98000Y186718D01*
X90000D02*
X91016Y187734D01*
X92032D01*
X91016Y188750D01*
X92032Y189766D01*
X91016D01*
X90000Y190782D01*
X88984Y189766D01*
X87968D01*
X88984Y188750D01*
X87968Y187734D01*
X88984D01*
X90000Y186718D01*
X130000Y209218D02*
X131016Y210234D01*
X132032D01*
X131016Y211250D01*
X132032Y212266D01*
X131016D01*
X130000Y213282D01*
X128984Y212266D01*
X127968D01*
X128984Y211250D01*
X127968Y210234D01*
X128984D01*
X130000Y209218D01*
X115500Y287968D02*
X116516Y288984D01*
X117532D01*
X116516Y290000D01*
X117532Y291016D01*
X116516D01*
X115500Y292032D01*
X114484Y291016D01*
X113468D01*
X114484Y290000D01*
X113468Y288984D01*
X114484D01*
X115500Y287968D01*
X114000Y209218D02*
X115016Y210234D01*
X116032D01*
X115016Y211250D01*
X116032Y212266D01*
X115016D01*
X114000Y213282D01*
X112984Y212266D01*
X111968D01*
X112984Y211250D01*
X111968Y210234D01*
X112984D01*
X114000Y209218D01*
X104500Y287968D02*
X105516Y288984D01*
X106532D01*
X105516Y290000D01*
X106532Y291016D01*
X105516D01*
X104500Y292032D01*
X103484Y291016D01*
X102468D01*
X103484Y290000D01*
X102468Y288984D01*
X103484D01*
X104500Y287968D01*
X93500D02*
X94516Y288984D01*
X95532D01*
X94516Y290000D01*
X95532Y291016D01*
X94516D01*
X93500Y292032D01*
X92484Y291016D01*
X91468D01*
X92484Y290000D01*
X91468Y288984D01*
X92484D01*
X93500Y287968D01*
X98000Y209218D02*
X99016Y210234D01*
X100032D01*
X99016Y211250D01*
X100032Y212266D01*
X99016D01*
X98000Y213282D01*
X96984Y212266D01*
X95968D01*
X96984Y211250D01*
X95968Y210234D01*
X96984D01*
X98000Y209218D01*
X115500Y230968D02*
X116516Y231984D01*
X117532D01*
X116516Y233000D01*
X117532Y234016D01*
X116516D01*
X115500Y235032D01*
X114484Y234016D01*
X113468D01*
X114484Y233000D01*
X113468Y231984D01*
X114484D01*
X115500Y230968D01*
X161000Y262718D02*
X162016Y263734D01*
X163032D01*
X162016Y264750D01*
X163032Y265766D01*
X162016D01*
X161000Y266782D01*
X159984Y265766D01*
X158968D01*
X159984Y264750D01*
X158968Y263734D01*
X159984D01*
X161000Y262718D01*
X145750Y271218D02*
X146766Y272234D01*
X147782D01*
X146766Y273250D01*
X147782Y274266D01*
X146766D01*
X145750Y275282D01*
X144734Y274266D01*
X143718D01*
X144734Y273250D01*
X143718Y272234D01*
X144734D01*
X145750Y271218D01*
X77000Y230968D02*
X78016Y231984D01*
X79032D01*
X78016Y233000D01*
X79032Y234016D01*
X78016D01*
X77000Y235032D01*
X75984Y234016D01*
X74968D01*
X75984Y233000D01*
X74968Y231984D01*
X75984D01*
X77000Y230968D01*
X155500Y255218D02*
X156516Y256234D01*
X157532D01*
X156516Y257250D01*
X157532Y258266D01*
X156516D01*
X155500Y259282D01*
X154484Y258266D01*
X153468D01*
X154484Y257250D01*
X153468Y256234D01*
X154484D01*
X155500Y255218D01*
X63750Y254968D02*
X64766Y255984D01*
X65782D01*
X64766Y257000D01*
X65782Y258016D01*
X64766D01*
X63750Y259032D01*
X62734Y258016D01*
X61718D01*
X62734Y257000D01*
X61718Y255984D01*
X62734D01*
X63750Y254968D01*
X58750Y262468D02*
X59766Y263484D01*
X60782D01*
X59766Y264500D01*
X60782Y265516D01*
X59766D01*
X58750Y266532D01*
X57734Y265516D01*
X56718D01*
X57734Y264500D01*
X56718Y263484D01*
X57734D01*
X58750Y262468D01*
X74250Y270718D02*
X75266Y271734D01*
X76282D01*
X75266Y272750D01*
X76282Y273766D01*
X75266D01*
X74250Y274782D01*
X73234Y273766D01*
X72218D01*
X73234Y272750D01*
X72218Y271734D01*
X73234D01*
X74250Y270718D01*
X59250Y328718D02*
X60266Y329734D01*
X61282D01*
X60266Y330750D01*
X61282Y331766D01*
X60266D01*
X59250Y332782D01*
X58234Y331766D01*
X57218D01*
X58234Y330750D01*
X57218Y329734D01*
X58234D01*
X59250Y328718D01*
X56000Y306718D02*
X57016Y307734D01*
X58032D01*
X57016Y308750D01*
X58032Y309766D01*
X57016D01*
X56000Y310782D01*
X54984Y309766D01*
X53968D01*
X54984Y308750D01*
X53968Y307734D01*
X54984D01*
X56000Y306718D01*
X133250Y349468D02*
X134266Y350484D01*
X135282D01*
X134266Y351500D01*
X135282Y352516D01*
X134266D01*
X133250Y353532D01*
X132234Y352516D01*
X131218D01*
X132234Y351500D01*
X131218Y350484D01*
X132234D01*
X133250Y349468D01*
X119750D02*
X120766Y350484D01*
X121782D01*
X120766Y351500D01*
X121782Y352516D01*
X120766D01*
X119750Y353532D01*
X118734Y352516D01*
X117718D01*
X118734Y351500D01*
X117718Y350484D01*
X118734D01*
X119750Y349468D01*
X100250D02*
X101266Y350484D01*
X102282D01*
X101266Y351500D01*
X102282Y352516D01*
X101266D01*
X100250Y353532D01*
X99234Y352516D01*
X98218D01*
X99234Y351500D01*
X98218Y350484D01*
X99234D01*
X100250Y349468D01*
X86750D02*
X87766Y350484D01*
X88782D01*
X87766Y351500D01*
X88782Y352516D01*
X87766D01*
X86750Y353532D01*
X85734Y352516D01*
X84718D01*
X85734Y351500D01*
X84718Y350484D01*
X85734D01*
X86750Y349468D01*
X160750D02*
X161766Y350484D01*
X162782D01*
X161766Y351500D01*
X162782Y352516D01*
X161766D01*
X160750Y353532D01*
X159734Y352516D01*
X158718D01*
X159734Y351500D01*
X158718Y350484D01*
X159734D01*
X160750Y349468D01*
X81750Y346468D02*
X82766Y347484D01*
X83782D01*
X82766Y348500D01*
X83782Y349516D01*
X82766D01*
X81750Y350532D01*
X80734Y349516D01*
X79718D01*
X80734Y348500D01*
X79718Y347484D01*
X80734D01*
X81750Y346468D01*
X59000Y339468D02*
X60016Y340484D01*
X61032D01*
X60016Y341500D01*
X61032Y342516D01*
X60016D01*
X59000Y343532D01*
X57984Y342516D01*
X56968D01*
X57984Y341500D01*
X56968Y340484D01*
X57984D01*
X59000Y339468D01*
Y349468D02*
X60016Y350484D01*
X61032D01*
X60016Y351500D01*
X61032Y352516D01*
X60016D01*
X59000Y353532D01*
X57984Y352516D01*
X56968D01*
X57984Y351500D01*
X56968Y350484D01*
X57984D01*
X59000Y349468D01*
X212500D02*
X213516Y350484D01*
X214532D01*
X213516Y351500D01*
X214532Y352516D01*
X213516D01*
X212500Y353532D01*
X211484Y352516D01*
X210468D01*
X211484Y351500D01*
X210468Y350484D01*
X211484D01*
X212500Y349468D01*
Y334468D02*
X213516Y335484D01*
X214532D01*
X213516Y336500D01*
X214532Y337516D01*
X213516D01*
X212500Y338532D01*
X211484Y337516D01*
X210468D01*
X211484Y336500D01*
X210468Y335484D01*
X211484D01*
X212500Y334468D01*
Y319468D02*
X213516Y320484D01*
X214532D01*
X213516Y321500D01*
X214532Y322516D01*
X213516D01*
X212500Y323532D01*
X211484Y322516D01*
X210468D01*
X211484Y321500D01*
X210468Y320484D01*
X211484D01*
X212500Y319468D01*
Y304468D02*
X213516Y305484D01*
X214532D01*
X213516Y306500D01*
X214532Y307516D01*
X213516D01*
X212500Y308532D01*
X211484Y307516D01*
X210468D01*
X211484Y306500D01*
X210468Y305484D01*
X211484D01*
X212500Y304468D01*
Y289468D02*
X213516Y290484D01*
X214532D01*
X213516Y291500D01*
X214532Y292516D01*
X213516D01*
X212500Y293532D01*
X211484Y292516D01*
X210468D01*
X211484Y291500D01*
X210468Y290484D01*
X211484D01*
X212500Y289468D01*
Y274468D02*
X213516Y275484D01*
X214532D01*
X213516Y276500D01*
X214532Y277516D01*
X213516D01*
X212500Y278532D01*
X211484Y277516D01*
X210468D01*
X211484Y276500D01*
X210468Y275484D01*
X211484D01*
X212500Y274468D01*
Y259468D02*
X213516Y260484D01*
X214532D01*
X213516Y261500D01*
X214532Y262516D01*
X213516D01*
X212500Y263532D01*
X211484Y262516D01*
X210468D01*
X211484Y261500D01*
X210468Y260484D01*
X211484D01*
X212500Y259468D01*
Y244468D02*
X213516Y245484D01*
X214532D01*
X213516Y246500D01*
X214532Y247516D01*
X213516D01*
X212500Y248532D01*
X211484Y247516D01*
X210468D01*
X211484Y246500D01*
X210468Y245484D01*
X211484D01*
X212500Y244468D01*
Y229468D02*
X213516Y230484D01*
X214532D01*
X213516Y231500D01*
X214532Y232516D01*
X213516D01*
X212500Y233532D01*
X211484Y232516D01*
X210468D01*
X211484Y231500D01*
X210468Y230484D01*
X211484D01*
X212500Y229468D01*
D49*
X187032Y100000D02*
G03*
X187032Y100000I-2032J0D01*
G01*
X37032D02*
G03*
X37032Y100000I-2032J0D01*
G01*
M02*
