G04*
G04 #@! TF.GenerationSoftware,Altium Limited,Altium Designer,21.6.4 (81)*
G04*
G04 Layer_Physical_Order=3*
G04 Layer_Color=16440176*
%FSLAX44Y44*%
%MOMM*%
G71*
G04*
G04 #@! TF.SameCoordinates,FA297D3A-E3D9-4574-8739-6FC88F1804E8*
G04*
G04*
G04 #@! TF.FilePolarity,Positive*
G04*
G01*
G75*
%ADD37C,0.1520*%
%ADD39C,0.9000*%
%ADD41C,1.6500*%
%ADD42R,1.6500X1.6500*%
%ADD43C,0.6000*%
%ADD44C,2.1590*%
G36*
X208855Y353730D02*
X208478Y353166D01*
X208146Y351500D01*
X208478Y349834D01*
X209422Y348422D01*
X210834Y347478D01*
X212500Y347146D01*
X214166Y347478D01*
X214652Y347802D01*
X215922Y347123D01*
Y340877D01*
X214652Y340198D01*
X214166Y340522D01*
X212500Y340854D01*
X210834Y340522D01*
X209422Y339579D01*
X208478Y338166D01*
X208146Y336500D01*
X208478Y334834D01*
X209422Y333422D01*
X210834Y332478D01*
X212500Y332146D01*
X214166Y332478D01*
X214652Y332802D01*
X215922Y332123D01*
Y325877D01*
X214652Y325198D01*
X214166Y325522D01*
X212500Y325854D01*
X210834Y325522D01*
X209422Y324579D01*
X208478Y323166D01*
X208146Y321500D01*
X208478Y319834D01*
X209422Y318421D01*
X210834Y317478D01*
X212500Y317146D01*
X214166Y317478D01*
X214652Y317802D01*
X215922Y317124D01*
Y310877D01*
X214652Y310198D01*
X214166Y310522D01*
X212500Y310854D01*
X210834Y310522D01*
X209422Y309578D01*
X208478Y308166D01*
X208146Y306500D01*
X208478Y304834D01*
X209422Y303421D01*
X210834Y302478D01*
X212500Y302146D01*
X214166Y302478D01*
X214652Y302802D01*
X215922Y302124D01*
X215922Y295877D01*
X214652Y295198D01*
X214166Y295522D01*
X212500Y295854D01*
X210834Y295522D01*
X209422Y294578D01*
X208478Y293166D01*
X208146Y291500D01*
X208478Y289834D01*
X209422Y288421D01*
X210834Y287478D01*
X212500Y287146D01*
X214166Y287478D01*
X214652Y287802D01*
X215922Y287124D01*
Y280877D01*
X214652Y280198D01*
X214166Y280522D01*
X212500Y280854D01*
X210834Y280522D01*
X209422Y279578D01*
X208478Y278166D01*
X208146Y276500D01*
X208478Y274834D01*
X209422Y273421D01*
X210834Y272478D01*
X212500Y272146D01*
X214166Y272478D01*
X214652Y272802D01*
X215922Y272124D01*
Y265877D01*
X214652Y265198D01*
X214166Y265522D01*
X212500Y265854D01*
X210834Y265522D01*
X209422Y264578D01*
X208478Y263166D01*
X208146Y261500D01*
X208478Y259834D01*
X209422Y258421D01*
X210834Y257478D01*
X212500Y257146D01*
X214166Y257478D01*
X214652Y257802D01*
X215922Y257124D01*
Y250877D01*
X214652Y250198D01*
X214166Y250522D01*
X212500Y250854D01*
X210834Y250522D01*
X209422Y249578D01*
X208478Y248166D01*
X208146Y246500D01*
X208478Y244834D01*
X209422Y243421D01*
X210834Y242478D01*
X212500Y242146D01*
X214166Y242478D01*
X214652Y242802D01*
X215922Y242124D01*
Y235877D01*
X214652Y235198D01*
X214166Y235522D01*
X212500Y235854D01*
X210834Y235522D01*
X209422Y234578D01*
X208478Y233166D01*
X208146Y231500D01*
X208478Y229834D01*
X209422Y228421D01*
X210834Y227478D01*
X212500Y227146D01*
X214166Y227478D01*
X214652Y227802D01*
X215922Y227124D01*
Y220877D01*
X214652Y220198D01*
X214166Y220522D01*
X212500Y220854D01*
X210834Y220522D01*
X209422Y219578D01*
X208478Y218166D01*
X208146Y216500D01*
X208478Y214834D01*
X209422Y213421D01*
X210834Y212478D01*
X212500Y212146D01*
X214166Y212478D01*
X214652Y212802D01*
X215922Y212124D01*
Y200000D01*
X69324D01*
X68645Y201270D01*
X69022Y201834D01*
X69354Y203500D01*
X69022Y205166D01*
X68078Y206579D01*
X66666Y207522D01*
X65000Y207854D01*
X63334Y207522D01*
X61922Y206579D01*
X60978Y205166D01*
X60646Y203500D01*
X60978Y201834D01*
X61355Y201270D01*
X60676Y200000D01*
X54324D01*
X53645Y201270D01*
X54022Y201834D01*
X54354Y203500D01*
X54022Y205166D01*
X53078Y206579D01*
X51666Y207522D01*
X50000Y207854D01*
X48334Y207522D01*
X46922Y206579D01*
X45978Y205166D01*
X45646Y203500D01*
X45978Y201834D01*
X46355Y201270D01*
X45676Y200000D01*
X39324D01*
X38645Y201270D01*
X39022Y201834D01*
X39354Y203500D01*
X39022Y205166D01*
X38078Y206579D01*
X36666Y207522D01*
X35000Y207854D01*
X33334Y207522D01*
X31922Y206579D01*
X30978Y205166D01*
X30646Y203500D01*
X30978Y201834D01*
X31355Y201270D01*
X30676Y200000D01*
X24324D01*
X23645Y201270D01*
X24022Y201834D01*
X24354Y203500D01*
X24022Y205166D01*
X23078Y206579D01*
X21666Y207522D01*
X20000Y207854D01*
X18334Y207522D01*
X16921Y206579D01*
X15978Y205166D01*
X15646Y203500D01*
X15978Y201834D01*
X16355Y201270D01*
X15676Y200000D01*
X11824D01*
X11145Y201270D01*
X11522Y201834D01*
X11854Y203500D01*
X11522Y205166D01*
X10579Y206579D01*
X9166Y207522D01*
X7500Y207854D01*
X5834Y207522D01*
X5348Y207198D01*
X4078Y207876D01*
Y212124D01*
X5348Y212802D01*
X5834Y212478D01*
X7500Y212146D01*
X9166Y212478D01*
X10579Y213421D01*
X11522Y214834D01*
X11854Y216500D01*
X11522Y218166D01*
X10579Y219578D01*
X9166Y220522D01*
X7500Y220854D01*
X5834Y220522D01*
X5348Y220198D01*
X4078Y220877D01*
Y227124D01*
X5348Y227802D01*
X5834Y227478D01*
X7500Y227146D01*
X9166Y227478D01*
X10579Y228421D01*
X11522Y229834D01*
X11854Y231500D01*
X11522Y233166D01*
X10579Y234578D01*
X9166Y235522D01*
X7500Y235854D01*
X5834Y235522D01*
X5348Y235198D01*
X4078Y235877D01*
Y242124D01*
X5348Y242802D01*
X5834Y242478D01*
X7500Y242146D01*
X9166Y242478D01*
X10579Y243421D01*
X11522Y244834D01*
X11854Y246500D01*
X11522Y248166D01*
X10579Y249578D01*
X9166Y250522D01*
X7500Y250854D01*
X5834Y250522D01*
X5348Y250198D01*
X4078Y250877D01*
Y257124D01*
X5348Y257802D01*
X5834Y257478D01*
X7500Y257146D01*
X9166Y257478D01*
X10579Y258421D01*
X11522Y259834D01*
X11854Y261500D01*
X11522Y263166D01*
X10579Y264578D01*
X9166Y265522D01*
X7500Y265854D01*
X5834Y265522D01*
X5348Y265198D01*
X4078Y265877D01*
Y272124D01*
X5348Y272802D01*
X5834Y272478D01*
X7500Y272146D01*
X9166Y272478D01*
X10579Y273421D01*
X11522Y274834D01*
X11854Y276500D01*
X11522Y278166D01*
X10579Y279578D01*
X9166Y280522D01*
X7500Y280854D01*
X5834Y280522D01*
X5348Y280198D01*
X4078Y280877D01*
Y287124D01*
X5348Y287802D01*
X5834Y287478D01*
X7500Y287146D01*
X9166Y287478D01*
X10579Y288421D01*
X11522Y289834D01*
X11854Y291500D01*
X11522Y293166D01*
X10579Y294578D01*
X9166Y295522D01*
X7500Y295854D01*
X5834Y295522D01*
X5348Y295198D01*
X4078Y295877D01*
X4078Y302124D01*
X5348Y302802D01*
X5834Y302478D01*
X7500Y302146D01*
X9166Y302478D01*
X10579Y303421D01*
X11522Y304834D01*
X11854Y306500D01*
X11522Y308166D01*
X10579Y309578D01*
X9166Y310522D01*
X7500Y310854D01*
X5834Y310522D01*
X5348Y310198D01*
X4078Y310877D01*
Y317124D01*
X5348Y317802D01*
X5834Y317478D01*
X7500Y317146D01*
X9166Y317478D01*
X10579Y318421D01*
X11522Y319834D01*
X11854Y321500D01*
X11522Y323166D01*
X10579Y324579D01*
X9166Y325522D01*
X7500Y325854D01*
X5834Y325522D01*
X5348Y325198D01*
X4078Y325877D01*
Y332123D01*
X5348Y332802D01*
X5834Y332478D01*
X7500Y332146D01*
X9166Y332478D01*
X10579Y333422D01*
X11522Y334834D01*
X11854Y336500D01*
X11522Y338166D01*
X10579Y339579D01*
X9166Y340522D01*
X7500Y340854D01*
X5834Y340522D01*
X5348Y340198D01*
X4078Y340877D01*
Y347123D01*
X5348Y347802D01*
X5834Y347478D01*
X7500Y347146D01*
X9166Y347478D01*
X10579Y348422D01*
X11522Y349834D01*
X11854Y351500D01*
X11522Y353166D01*
X11145Y353730D01*
X11824Y355000D01*
X15676D01*
X16355Y353730D01*
X15978Y353166D01*
X15646Y351500D01*
X15978Y349834D01*
X16922Y348422D01*
X18334Y347478D01*
X20000Y347146D01*
X21666Y347478D01*
X23078Y348422D01*
X24022Y349834D01*
X24354Y351500D01*
X24022Y353166D01*
X23646Y353730D01*
X24324Y355000D01*
X30676D01*
X31355Y353730D01*
X30978Y353166D01*
X30646Y351500D01*
X30978Y349834D01*
X31922Y348422D01*
X33334Y347478D01*
X35000Y347146D01*
X36666Y347478D01*
X38078Y348422D01*
X39022Y349834D01*
X39354Y351500D01*
X39022Y353166D01*
X38646Y353730D01*
X39324Y355000D01*
X45676D01*
X46355Y353730D01*
X45978Y353166D01*
X45646Y351500D01*
X45978Y349834D01*
X46922Y348422D01*
X48334Y347478D01*
X50000Y347146D01*
X51666Y347478D01*
X53078Y348422D01*
X53794Y349493D01*
X54014Y349556D01*
X54986D01*
X55206Y349493D01*
X55922Y348422D01*
X57334Y347478D01*
X59000Y347146D01*
X60666Y347478D01*
X62078Y348422D01*
X63022Y349834D01*
X63354Y351500D01*
X63022Y353166D01*
X62645Y353730D01*
X63324Y355000D01*
X82426D01*
X83069Y353797D01*
X82799Y353273D01*
X82728Y353166D01*
X82717Y353114D01*
X82506Y352703D01*
X81750Y352854D01*
X80084Y352522D01*
X78671Y351578D01*
X77728Y350166D01*
X77396Y348500D01*
X77728Y346834D01*
X78671Y345421D01*
X80084Y344478D01*
X81750Y344146D01*
X83416Y344478D01*
X84829Y345421D01*
X85772Y346834D01*
X85869Y347322D01*
X86750Y347146D01*
X88416Y347478D01*
X89829Y348422D01*
X90772Y349834D01*
X91104Y351500D01*
X90772Y353166D01*
X90395Y353730D01*
X91074Y355000D01*
X95926D01*
X96605Y353730D01*
X96228Y353166D01*
X95896Y351500D01*
X96228Y349834D01*
X97171Y348422D01*
X98584Y347478D01*
X100250Y347146D01*
X101916Y347478D01*
X103329Y348422D01*
X104272Y349834D01*
X104478Y350866D01*
X105772D01*
X105978Y349834D01*
X106922Y348422D01*
X108334Y347478D01*
X110000Y347146D01*
X111666Y347478D01*
X113078Y348422D01*
X114022Y349834D01*
X114228Y350866D01*
X115522D01*
X115728Y349834D01*
X116671Y348422D01*
X118084Y347478D01*
X119750Y347146D01*
X121416Y347478D01*
X122829Y348422D01*
X123772Y349834D01*
X124104Y351500D01*
X123772Y353166D01*
X123396Y353730D01*
X124074Y355000D01*
X128926D01*
X129605Y353730D01*
X129228Y353166D01*
X128896Y351500D01*
X129228Y349834D01*
X130171Y348422D01*
X131584Y347478D01*
X133250Y347146D01*
X134916Y347478D01*
X136328Y348422D01*
X137272Y349834D01*
X137604Y351500D01*
X137272Y353166D01*
X136896Y353730D01*
X137574Y355000D01*
X156426D01*
X157105Y353730D01*
X156728Y353166D01*
X156396Y351500D01*
X156728Y349834D01*
X157671Y348422D01*
X159084Y347478D01*
X160750Y347146D01*
X162416Y347478D01*
X163829Y348422D01*
X164703Y349731D01*
X165375Y349798D01*
X166047Y349731D01*
X166922Y348422D01*
X168334Y347478D01*
X170000Y347146D01*
X171666Y347478D01*
X173078Y348422D01*
X174022Y349834D01*
X174354Y351500D01*
X174022Y353166D01*
X173645Y353730D01*
X174324Y355000D01*
X180676D01*
X181355Y353730D01*
X180978Y353166D01*
X180646Y351500D01*
X180978Y349834D01*
X181922Y348422D01*
X183334Y347478D01*
X185000Y347146D01*
X186666Y347478D01*
X188078Y348422D01*
X189022Y349834D01*
X189354Y351500D01*
X189022Y353166D01*
X188645Y353730D01*
X189324Y355000D01*
X195676D01*
X196355Y353730D01*
X195978Y353166D01*
X195646Y351500D01*
X195978Y349834D01*
X196922Y348422D01*
X198334Y347478D01*
X200000Y347146D01*
X201666Y347478D01*
X203078Y348422D01*
X204022Y349834D01*
X204354Y351500D01*
X204022Y353166D01*
X203645Y353730D01*
X204324Y355000D01*
X208176D01*
X208855Y353730D01*
D02*
G37*
%LPC*%
G36*
X59000Y345854D02*
X57334Y345522D01*
X55922Y344579D01*
X54978Y343166D01*
X54646Y341500D01*
X54978Y339834D01*
X55922Y338422D01*
X57334Y337478D01*
X59000Y337146D01*
X60666Y337478D01*
X62078Y338422D01*
X63022Y339834D01*
X63354Y341500D01*
X63022Y343166D01*
X62078Y344579D01*
X60666Y345522D01*
X59000Y345854D01*
D02*
G37*
G36*
X200000Y340854D02*
X198334Y340522D01*
X196922Y339579D01*
X195978Y338166D01*
X195646Y336500D01*
X195978Y334834D01*
X196922Y333422D01*
X198334Y332478D01*
X200000Y332146D01*
X201666Y332478D01*
X203078Y333422D01*
X204022Y334834D01*
X204354Y336500D01*
X204022Y338166D01*
X203078Y339579D01*
X201666Y340522D01*
X200000Y340854D01*
D02*
G37*
G36*
X185000D02*
X183334Y340522D01*
X181922Y339579D01*
X180978Y338166D01*
X180646Y336500D01*
X180978Y334834D01*
X181922Y333422D01*
X183334Y332478D01*
X185000Y332146D01*
X186666Y332478D01*
X188078Y333422D01*
X189022Y334834D01*
X189354Y336500D01*
X189022Y338166D01*
X188078Y339579D01*
X186666Y340522D01*
X185000Y340854D01*
D02*
G37*
G36*
X170000D02*
X168334Y340522D01*
X166922Y339579D01*
X165978Y338166D01*
X165646Y336500D01*
X165978Y334834D01*
X166922Y333422D01*
X168334Y332478D01*
X170000Y332146D01*
X171666Y332478D01*
X173078Y333422D01*
X174022Y334834D01*
X174354Y336500D01*
X174022Y338166D01*
X173078Y339579D01*
X171666Y340522D01*
X170000Y340854D01*
D02*
G37*
G36*
X125000D02*
X123334Y340522D01*
X121922Y339579D01*
X120978Y338166D01*
X120646Y336500D01*
X120978Y334834D01*
X121922Y333422D01*
X123334Y332478D01*
X125000Y332146D01*
X126666Y332478D01*
X128078Y333422D01*
X129022Y334834D01*
X129354Y336500D01*
X129022Y338166D01*
X128078Y339579D01*
X126666Y340522D01*
X125000Y340854D01*
D02*
G37*
G36*
X110000D02*
X108334Y340522D01*
X106922Y339579D01*
X105978Y338166D01*
X105646Y336500D01*
X105978Y334834D01*
X106922Y333422D01*
X108334Y332478D01*
X110000Y332146D01*
X111666Y332478D01*
X113078Y333422D01*
X114022Y334834D01*
X114354Y336500D01*
X114022Y338166D01*
X113078Y339579D01*
X111666Y340522D01*
X110000Y340854D01*
D02*
G37*
G36*
X95000D02*
X93334Y340522D01*
X91922Y339579D01*
X90978Y338166D01*
X90646Y336500D01*
X90978Y334834D01*
X91922Y333422D01*
X93334Y332478D01*
X95000Y332146D01*
X96666Y332478D01*
X98078Y333422D01*
X99022Y334834D01*
X99354Y336500D01*
X99022Y338166D01*
X98078Y339579D01*
X96666Y340522D01*
X95000Y340854D01*
D02*
G37*
G36*
X50000D02*
X48334Y340522D01*
X46922Y339579D01*
X45978Y338166D01*
X45646Y336500D01*
X45978Y334834D01*
X46922Y333422D01*
X48334Y332478D01*
X50000Y332146D01*
X51666Y332478D01*
X53078Y333422D01*
X54022Y334834D01*
X54354Y336500D01*
X54022Y338166D01*
X53078Y339579D01*
X51666Y340522D01*
X50000Y340854D01*
D02*
G37*
G36*
X35000D02*
X33334Y340522D01*
X31922Y339579D01*
X30978Y338166D01*
X30646Y336500D01*
X30978Y334834D01*
X31922Y333422D01*
X33334Y332478D01*
X35000Y332146D01*
X36666Y332478D01*
X38078Y333422D01*
X39022Y334834D01*
X39354Y336500D01*
X39022Y338166D01*
X38078Y339579D01*
X36666Y340522D01*
X35000Y340854D01*
D02*
G37*
G36*
X20000D02*
X18334Y340522D01*
X16922Y339579D01*
X15978Y338166D01*
X15646Y336500D01*
X15978Y334834D01*
X16922Y333422D01*
X18334Y332478D01*
X20000Y332146D01*
X21666Y332478D01*
X23078Y333422D01*
X24022Y334834D01*
X24354Y336500D01*
X24022Y338166D01*
X23078Y339579D01*
X21666Y340522D01*
X20000Y340854D01*
D02*
G37*
G36*
X59250Y335104D02*
X57584Y334772D01*
X56171Y333829D01*
X55228Y332416D01*
X54896Y330750D01*
X55228Y329084D01*
X56171Y327672D01*
X57584Y326728D01*
X59250Y326396D01*
X60916Y326728D01*
X62329Y327672D01*
X63272Y329084D01*
X63604Y330750D01*
X63272Y332416D01*
X62329Y333829D01*
X60916Y334772D01*
X59250Y335104D01*
D02*
G37*
G36*
X200000Y325854D02*
X198334Y325522D01*
X196922Y324579D01*
X195978Y323166D01*
X195646Y321500D01*
X195978Y319834D01*
X196922Y318421D01*
X198334Y317478D01*
X200000Y317146D01*
X201666Y317478D01*
X203078Y318421D01*
X204022Y319834D01*
X204354Y321500D01*
X204022Y323166D01*
X203078Y324579D01*
X201666Y325522D01*
X200000Y325854D01*
D02*
G37*
G36*
X185000D02*
X183334Y325522D01*
X181922Y324579D01*
X180978Y323166D01*
X180646Y321500D01*
X180978Y319834D01*
X181922Y318421D01*
X183334Y317478D01*
X185000Y317146D01*
X186666Y317478D01*
X188078Y318421D01*
X189022Y319834D01*
X189354Y321500D01*
X189022Y323166D01*
X188078Y324579D01*
X186666Y325522D01*
X185000Y325854D01*
D02*
G37*
G36*
X170000D02*
X168334Y325522D01*
X166922Y324579D01*
X165978Y323166D01*
X165646Y321500D01*
X165978Y319834D01*
X166922Y318421D01*
X168334Y317478D01*
X170000Y317146D01*
X171666Y317478D01*
X173078Y318421D01*
X174022Y319834D01*
X174354Y321500D01*
X174022Y323166D01*
X173078Y324579D01*
X171666Y325522D01*
X170000Y325854D01*
D02*
G37*
G36*
X125000D02*
X123334Y325522D01*
X121922Y324579D01*
X120978Y323166D01*
X120646Y321500D01*
X120978Y319834D01*
X121922Y318421D01*
X123334Y317478D01*
X125000Y317146D01*
X126666Y317478D01*
X128078Y318421D01*
X129022Y319834D01*
X129354Y321500D01*
X129022Y323166D01*
X128078Y324579D01*
X126666Y325522D01*
X125000Y325854D01*
D02*
G37*
G36*
X110000D02*
X108334Y325522D01*
X106922Y324579D01*
X105978Y323166D01*
X105646Y321500D01*
X105978Y319834D01*
X106922Y318421D01*
X108334Y317478D01*
X110000Y317146D01*
X111666Y317478D01*
X113078Y318421D01*
X114022Y319834D01*
X114354Y321500D01*
X114022Y323166D01*
X113078Y324579D01*
X111666Y325522D01*
X110000Y325854D01*
D02*
G37*
G36*
X95000D02*
X93334Y325522D01*
X91922Y324579D01*
X90978Y323166D01*
X90646Y321500D01*
X90978Y319834D01*
X91922Y318421D01*
X93334Y317478D01*
X95000Y317146D01*
X96666Y317478D01*
X98078Y318421D01*
X99022Y319834D01*
X99354Y321500D01*
X99022Y323166D01*
X98078Y324579D01*
X96666Y325522D01*
X95000Y325854D01*
D02*
G37*
G36*
X50000D02*
X48334Y325522D01*
X46922Y324579D01*
X45978Y323166D01*
X45646Y321500D01*
X45978Y319834D01*
X46922Y318421D01*
X48334Y317478D01*
X50000Y317146D01*
X51666Y317478D01*
X53078Y318421D01*
X54022Y319834D01*
X54354Y321500D01*
X54022Y323166D01*
X53078Y324579D01*
X51666Y325522D01*
X50000Y325854D01*
D02*
G37*
G36*
X35000D02*
X33334Y325522D01*
X31922Y324579D01*
X30978Y323166D01*
X30646Y321500D01*
X30978Y319834D01*
X31922Y318421D01*
X33334Y317478D01*
X35000Y317146D01*
X36666Y317478D01*
X38078Y318421D01*
X39022Y319834D01*
X39354Y321500D01*
X39022Y323166D01*
X38078Y324579D01*
X36666Y325522D01*
X35000Y325854D01*
D02*
G37*
G36*
X20000D02*
X18334Y325522D01*
X16922Y324579D01*
X15978Y323166D01*
X15646Y321500D01*
X15978Y319834D01*
X16922Y318421D01*
X18334Y317478D01*
X20000Y317146D01*
X21666Y317478D01*
X23078Y318421D01*
X24022Y319834D01*
X24354Y321500D01*
X24022Y323166D01*
X23078Y324579D01*
X21666Y325522D01*
X20000Y325854D01*
D02*
G37*
G36*
X56000Y313104D02*
X54334Y312772D01*
X52922Y311828D01*
X51978Y310416D01*
X51646Y308750D01*
X51978Y307084D01*
X52922Y305672D01*
X54334Y304728D01*
X56000Y304396D01*
X57666Y304728D01*
X59078Y305672D01*
X60022Y307084D01*
X60354Y308750D01*
X60022Y310416D01*
X59078Y311828D01*
X57666Y312772D01*
X56000Y313104D01*
D02*
G37*
G36*
X200000Y310854D02*
X198334Y310522D01*
X196922Y309578D01*
X195978Y308166D01*
X195646Y306500D01*
X195978Y304834D01*
X196922Y303421D01*
X198334Y302478D01*
X200000Y302146D01*
X201666Y302478D01*
X203078Y303421D01*
X204022Y304834D01*
X204354Y306500D01*
X204022Y308166D01*
X203078Y309578D01*
X201666Y310522D01*
X200000Y310854D01*
D02*
G37*
G36*
X185000D02*
X183334Y310522D01*
X181922Y309578D01*
X180978Y308166D01*
X180646Y306500D01*
X180978Y304834D01*
X181922Y303421D01*
X183334Y302478D01*
X185000Y302146D01*
X186666Y302478D01*
X188078Y303421D01*
X189022Y304834D01*
X189354Y306500D01*
X189022Y308166D01*
X188078Y309578D01*
X186666Y310522D01*
X185000Y310854D01*
D02*
G37*
G36*
X125000D02*
X123334Y310522D01*
X121922Y309578D01*
X120978Y308166D01*
X120646Y306500D01*
X120978Y304834D01*
X121922Y303421D01*
X123334Y302478D01*
X125000Y302146D01*
X126666Y302478D01*
X128078Y303421D01*
X129022Y304834D01*
X129354Y306500D01*
X129022Y308166D01*
X128078Y309578D01*
X126666Y310522D01*
X125000Y310854D01*
D02*
G37*
G36*
X110000D02*
X108334Y310522D01*
X106922Y309578D01*
X105978Y308166D01*
X105646Y306500D01*
X105978Y304834D01*
X106922Y303421D01*
X108334Y302478D01*
X110000Y302146D01*
X111666Y302478D01*
X113078Y303421D01*
X114022Y304834D01*
X114354Y306500D01*
X114022Y308166D01*
X113078Y309578D01*
X111666Y310522D01*
X110000Y310854D01*
D02*
G37*
G36*
X95000D02*
X93334Y310522D01*
X91922Y309578D01*
X90978Y308166D01*
X90646Y306500D01*
X90978Y304834D01*
X91922Y303421D01*
X93334Y302478D01*
X95000Y302146D01*
X96666Y302478D01*
X98078Y303421D01*
X99022Y304834D01*
X99354Y306500D01*
X99022Y308166D01*
X98078Y309578D01*
X96666Y310522D01*
X95000Y310854D01*
D02*
G37*
G36*
X20000D02*
X18334Y310522D01*
X16922Y309578D01*
X15978Y308166D01*
X15646Y306500D01*
X15978Y304834D01*
X16922Y303421D01*
X18334Y302478D01*
X20000Y302146D01*
X21666Y302478D01*
X23078Y303421D01*
X24022Y304834D01*
X24354Y306500D01*
X24022Y308166D01*
X23078Y309578D01*
X21666Y310522D01*
X20000Y310854D01*
D02*
G37*
G36*
X125000Y295854D02*
X123334Y295522D01*
X121922Y294578D01*
X120978Y293166D01*
X120738Y291959D01*
X120056Y291795D01*
X119416Y291825D01*
X118579Y293078D01*
X117166Y294022D01*
X115500Y294354D01*
X113834Y294022D01*
X112422Y293078D01*
X111478Y291666D01*
X111146Y290000D01*
X111478Y288334D01*
X112422Y286922D01*
X113834Y285978D01*
X115500Y285646D01*
X117166Y285978D01*
X118579Y286922D01*
X119522Y288334D01*
X119762Y289541D01*
X120444Y289705D01*
X121084Y289675D01*
X121922Y288421D01*
X123334Y287478D01*
X125000Y287146D01*
X126666Y287478D01*
X128078Y288421D01*
X129022Y289834D01*
X129354Y291500D01*
X129022Y293166D01*
X128078Y294578D01*
X126666Y295522D01*
X125000Y295854D01*
D02*
G37*
G36*
X58250Y298854D02*
X56584Y298522D01*
X55171Y297579D01*
X54228Y296166D01*
X53896Y294500D01*
X54228Y292834D01*
X55171Y291422D01*
X56584Y290478D01*
X58250Y290146D01*
X59916Y290478D01*
X61329Y291422D01*
X62272Y292834D01*
X62604Y294500D01*
X62272Y296166D01*
X61329Y297579D01*
X59916Y298522D01*
X58250Y298854D01*
D02*
G37*
G36*
X200000Y295854D02*
X198334Y295522D01*
X196922Y294578D01*
X195978Y293166D01*
X195646Y291500D01*
X195978Y289834D01*
X196922Y288421D01*
X198334Y287478D01*
X200000Y287146D01*
X201666Y287478D01*
X203078Y288421D01*
X204022Y289834D01*
X204354Y291500D01*
X204022Y293166D01*
X203078Y294578D01*
X201666Y295522D01*
X200000Y295854D01*
D02*
G37*
G36*
X185000D02*
X183334Y295522D01*
X181922Y294578D01*
X180978Y293166D01*
X180646Y291500D01*
X180978Y289834D01*
X181922Y288421D01*
X183334Y287478D01*
X185000Y287146D01*
X186666Y287478D01*
X188078Y288421D01*
X189022Y289834D01*
X189354Y291500D01*
X189022Y293166D01*
X188078Y294578D01*
X186666Y295522D01*
X185000Y295854D01*
D02*
G37*
G36*
X20000D02*
X18334Y295522D01*
X16922Y294578D01*
X15978Y293166D01*
X15646Y291500D01*
X15978Y289834D01*
X16922Y288421D01*
X18334Y287478D01*
X20000Y287146D01*
X21666Y287478D01*
X23078Y288421D01*
X24022Y289834D01*
X24354Y291500D01*
X24022Y293166D01*
X23078Y294578D01*
X21666Y295522D01*
X20000Y295854D01*
D02*
G37*
G36*
X104500Y294354D02*
X102834Y294022D01*
X101421Y293078D01*
X100478Y291666D01*
X100146Y290000D01*
X100478Y288334D01*
X101421Y286922D01*
X102834Y285978D01*
X104500Y285646D01*
X106166Y285978D01*
X107578Y286922D01*
X108522Y288334D01*
X108854Y290000D01*
X108522Y291666D01*
X107578Y293078D01*
X106166Y294022D01*
X104500Y294354D01*
D02*
G37*
G36*
X93500D02*
X91834Y294022D01*
X90421Y293078D01*
X89478Y291666D01*
X89146Y290000D01*
X89478Y288334D01*
X90421Y286922D01*
X91834Y285978D01*
X93500Y285646D01*
X95166Y285978D01*
X96579Y286922D01*
X97522Y288334D01*
X97854Y290000D01*
X97522Y291666D01*
X96579Y293078D01*
X95166Y294022D01*
X93500Y294354D01*
D02*
G37*
G36*
X130250Y286854D02*
X128584Y286522D01*
X127171Y285578D01*
X126228Y284166D01*
X125896Y282500D01*
X126228Y280834D01*
X127171Y279422D01*
X128584Y278478D01*
X130250Y278146D01*
X131916Y278478D01*
X133329Y279422D01*
X134272Y280834D01*
X134604Y282500D01*
X134272Y284166D01*
X133329Y285578D01*
X131916Y286522D01*
X130250Y286854D01*
D02*
G37*
G36*
X50000Y286354D02*
X48334Y286022D01*
X46922Y285079D01*
X45978Y283666D01*
X45646Y282000D01*
X45978Y280334D01*
X46922Y278922D01*
X48334Y277978D01*
X50000Y277646D01*
X51666Y277978D01*
X53078Y278922D01*
X54022Y280334D01*
X54354Y282000D01*
X54022Y283666D01*
X53078Y285079D01*
X51666Y286022D01*
X50000Y286354D01*
D02*
G37*
G36*
X35000D02*
X33334Y286022D01*
X31922Y285079D01*
X30978Y283666D01*
X30646Y282000D01*
X30978Y280334D01*
X31922Y278922D01*
X33334Y277978D01*
X35000Y277646D01*
X36666Y277978D01*
X38078Y278922D01*
X39022Y280334D01*
X39354Y282000D01*
X39022Y283666D01*
X38078Y285079D01*
X36666Y286022D01*
X35000Y286354D01*
D02*
G37*
G36*
X82750Y284854D02*
X81084Y284522D01*
X79672Y283578D01*
X78728Y282166D01*
X78396Y280500D01*
X78728Y278834D01*
X79672Y277421D01*
X81084Y276478D01*
X82750Y276146D01*
X84416Y276478D01*
X85829Y277421D01*
X86772Y278834D01*
X87104Y280500D01*
X86772Y282166D01*
X85829Y283578D01*
X84416Y284522D01*
X82750Y284854D01*
D02*
G37*
G36*
X200000Y280854D02*
X198334Y280522D01*
X196922Y279578D01*
X195978Y278166D01*
X195646Y276500D01*
X195978Y274834D01*
X196922Y273422D01*
X198334Y272478D01*
X200000Y272146D01*
X201666Y272478D01*
X203078Y273422D01*
X204022Y274834D01*
X204354Y276500D01*
X204022Y278166D01*
X203078Y279578D01*
X201666Y280522D01*
X200000Y280854D01*
D02*
G37*
G36*
X20000D02*
X18334Y280522D01*
X16922Y279578D01*
X15978Y278166D01*
X15646Y276500D01*
X15978Y274834D01*
X16922Y273422D01*
X18334Y272478D01*
X20000Y272146D01*
X21666Y272478D01*
X23078Y273422D01*
X24022Y274834D01*
X24354Y276500D01*
X24022Y278166D01*
X23078Y279578D01*
X21666Y280522D01*
X20000Y280854D01*
D02*
G37*
G36*
X145750Y277604D02*
X144084Y277272D01*
X142671Y276329D01*
X141728Y274916D01*
X141396Y273250D01*
X141728Y271584D01*
X142671Y270172D01*
X144084Y269228D01*
X145750Y268896D01*
X147416Y269228D01*
X148828Y270172D01*
X149772Y271584D01*
X150104Y273250D01*
X149772Y274916D01*
X148828Y276329D01*
X147416Y277272D01*
X145750Y277604D01*
D02*
G37*
G36*
X74250Y277104D02*
X72584Y276772D01*
X71171Y275828D01*
X70228Y274416D01*
X69896Y272750D01*
X70228Y271084D01*
X71171Y269671D01*
X72584Y268728D01*
X74250Y268396D01*
X75916Y268728D01*
X77329Y269671D01*
X78272Y271084D01*
X78604Y272750D01*
X78272Y274416D01*
X77329Y275828D01*
X75916Y276772D01*
X74250Y277104D01*
D02*
G37*
G36*
X161000Y269104D02*
X159334Y268772D01*
X157921Y267829D01*
X156978Y266416D01*
X156646Y264750D01*
X156978Y263084D01*
X157347Y262531D01*
X156583Y261388D01*
X155500Y261604D01*
X153834Y261272D01*
X152422Y260329D01*
X151478Y258916D01*
X151146Y257250D01*
X151478Y255584D01*
X152422Y254172D01*
X153834Y253228D01*
X155500Y252896D01*
X157166Y253228D01*
X158579Y254172D01*
X159522Y255584D01*
X159854Y257250D01*
X159522Y258916D01*
X159153Y259469D01*
X159917Y260612D01*
X161000Y260396D01*
X162666Y260728D01*
X164079Y261672D01*
X165022Y263084D01*
X165354Y264750D01*
X165022Y266416D01*
X164079Y267829D01*
X162666Y268772D01*
X161000Y269104D01*
D02*
G37*
G36*
X200000Y265854D02*
X198334Y265522D01*
X196922Y264578D01*
X195978Y263166D01*
X195646Y261500D01*
X195978Y259834D01*
X196922Y258422D01*
X198334Y257478D01*
X200000Y257146D01*
X201666Y257478D01*
X203078Y258422D01*
X204022Y259834D01*
X204354Y261500D01*
X204022Y263166D01*
X203078Y264578D01*
X201666Y265522D01*
X200000Y265854D01*
D02*
G37*
G36*
X20000D02*
X18334Y265522D01*
X16922Y264578D01*
X15978Y263166D01*
X15646Y261500D01*
X15978Y259834D01*
X16922Y258422D01*
X18334Y257478D01*
X20000Y257146D01*
X21666Y257478D01*
X23078Y258422D01*
X24022Y259834D01*
X24354Y261500D01*
X24022Y263166D01*
X23078Y264578D01*
X21666Y265522D01*
X20000Y265854D01*
D02*
G37*
G36*
X58750Y268854D02*
X57084Y268522D01*
X55672Y267579D01*
X54728Y266166D01*
X54396Y264500D01*
X54728Y262834D01*
X55672Y261422D01*
X57084Y260478D01*
X58750Y260146D01*
X59257Y260247D01*
X60020Y259104D01*
X59728Y258666D01*
X59396Y257000D01*
X59728Y255334D01*
X60672Y253922D01*
X62084Y252978D01*
X63750Y252646D01*
X65416Y252978D01*
X66828Y253922D01*
X67772Y255334D01*
X68104Y257000D01*
X67772Y258666D01*
X66828Y260079D01*
X65416Y261022D01*
X63750Y261354D01*
X63243Y261253D01*
X62480Y262396D01*
X62772Y262834D01*
X63104Y264500D01*
X62772Y266166D01*
X61828Y267579D01*
X60416Y268522D01*
X58750Y268854D01*
D02*
G37*
G36*
X200000Y250854D02*
X198334Y250522D01*
X196922Y249578D01*
X195978Y248166D01*
X195646Y246500D01*
X195978Y244834D01*
X196922Y243422D01*
X198334Y242478D01*
X200000Y242146D01*
X201666Y242478D01*
X203078Y243422D01*
X204022Y244834D01*
X204354Y246500D01*
X204022Y248166D01*
X203078Y249578D01*
X201666Y250522D01*
X200000Y250854D01*
D02*
G37*
G36*
X155000D02*
X153334Y250522D01*
X151922Y249578D01*
X150978Y248166D01*
X150646Y246500D01*
X150978Y244834D01*
X151922Y243422D01*
X153334Y242478D01*
X155000Y242146D01*
X156666Y242478D01*
X158078Y243422D01*
X159022Y244834D01*
X159354Y246500D01*
X159022Y248166D01*
X158078Y249578D01*
X156666Y250522D01*
X155000Y250854D01*
D02*
G37*
G36*
X140000D02*
X138334Y250522D01*
X136922Y249578D01*
X135978Y248166D01*
X135646Y246500D01*
X135978Y244834D01*
X136922Y243422D01*
X138334Y242478D01*
X140000Y242146D01*
X141666Y242478D01*
X143078Y243422D01*
X144022Y244834D01*
X144354Y246500D01*
X144022Y248166D01*
X143078Y249578D01*
X141666Y250522D01*
X140000Y250854D01*
D02*
G37*
G36*
X50000D02*
X48334Y250522D01*
X46922Y249578D01*
X45978Y248166D01*
X45646Y246500D01*
X45978Y244834D01*
X46922Y243422D01*
X48334Y242478D01*
X50000Y242146D01*
X51666Y242478D01*
X53078Y243422D01*
X54022Y244834D01*
X54354Y246500D01*
X54022Y248166D01*
X53078Y249578D01*
X51666Y250522D01*
X50000Y250854D01*
D02*
G37*
G36*
X35000D02*
X33334Y250522D01*
X31922Y249578D01*
X30978Y248166D01*
X30646Y246500D01*
X30978Y244834D01*
X31922Y243422D01*
X33334Y242478D01*
X35000Y242146D01*
X36666Y242478D01*
X38078Y243422D01*
X39022Y244834D01*
X39354Y246500D01*
X39022Y248166D01*
X38078Y249578D01*
X36666Y250522D01*
X35000Y250854D01*
D02*
G37*
G36*
X20000D02*
X18334Y250522D01*
X16922Y249578D01*
X15978Y248166D01*
X15646Y246500D01*
X15978Y244834D01*
X16922Y243422D01*
X18334Y242478D01*
X20000Y242146D01*
X21666Y242478D01*
X23078Y243422D01*
X24022Y244834D01*
X24354Y246500D01*
X24022Y248166D01*
X23078Y249578D01*
X21666Y250522D01*
X20000Y250854D01*
D02*
G37*
G36*
X99000Y245104D02*
X97334Y244772D01*
X95921Y243829D01*
X94978Y242416D01*
X94646Y240750D01*
X94978Y239084D01*
X95921Y237672D01*
X97334Y236728D01*
X99000Y236396D01*
X100666Y236728D01*
X102079Y237672D01*
X103022Y239084D01*
X103354Y240750D01*
X103022Y242416D01*
X102079Y243829D01*
X100666Y244772D01*
X99000Y245104D01*
D02*
G37*
G36*
X200000Y235854D02*
X198334Y235522D01*
X196922Y234578D01*
X195978Y233166D01*
X195646Y231500D01*
X195978Y229834D01*
X196922Y228422D01*
X198334Y227478D01*
X200000Y227146D01*
X201666Y227478D01*
X203078Y228422D01*
X204022Y229834D01*
X204354Y231500D01*
X204022Y233166D01*
X203078Y234578D01*
X201666Y235522D01*
X200000Y235854D01*
D02*
G37*
G36*
X155000D02*
X153334Y235522D01*
X151922Y234578D01*
X150978Y233166D01*
X150646Y231500D01*
X150978Y229834D01*
X151922Y228422D01*
X153334Y227478D01*
X155000Y227146D01*
X156666Y227478D01*
X158078Y228422D01*
X159022Y229834D01*
X159354Y231500D01*
X159022Y233166D01*
X158078Y234578D01*
X156666Y235522D01*
X155000Y235854D01*
D02*
G37*
G36*
X140000D02*
X138334Y235522D01*
X136922Y234578D01*
X135978Y233166D01*
X135646Y231500D01*
X135978Y229834D01*
X136922Y228422D01*
X138334Y227478D01*
X140000Y227146D01*
X141666Y227478D01*
X143078Y228422D01*
X144022Y229834D01*
X144354Y231500D01*
X144022Y233166D01*
X143078Y234578D01*
X141666Y235522D01*
X140000Y235854D01*
D02*
G37*
G36*
X65000D02*
X63334Y235522D01*
X61922Y234578D01*
X60978Y233166D01*
X60646Y231500D01*
X60978Y229834D01*
X61922Y228422D01*
X63334Y227478D01*
X65000Y227146D01*
X66666Y227478D01*
X68078Y228422D01*
X69022Y229834D01*
X69354Y231500D01*
X69022Y233166D01*
X68078Y234578D01*
X66666Y235522D01*
X65000Y235854D01*
D02*
G37*
G36*
X50000D02*
X48334Y235522D01*
X46922Y234578D01*
X45978Y233166D01*
X45646Y231500D01*
X45978Y229834D01*
X46922Y228422D01*
X48334Y227478D01*
X50000Y227146D01*
X51666Y227478D01*
X53078Y228422D01*
X54022Y229834D01*
X54354Y231500D01*
X54022Y233166D01*
X53078Y234578D01*
X51666Y235522D01*
X50000Y235854D01*
D02*
G37*
G36*
X35000D02*
X33334Y235522D01*
X31922Y234578D01*
X30978Y233166D01*
X30646Y231500D01*
X30978Y229834D01*
X31922Y228422D01*
X33334Y227478D01*
X35000Y227146D01*
X36666Y227478D01*
X38078Y228422D01*
X39022Y229834D01*
X39354Y231500D01*
X39022Y233166D01*
X38078Y234578D01*
X36666Y235522D01*
X35000Y235854D01*
D02*
G37*
G36*
X20000D02*
X18334Y235522D01*
X16922Y234578D01*
X15978Y233166D01*
X15646Y231500D01*
X15978Y229834D01*
X16922Y228422D01*
X18334Y227478D01*
X20000Y227146D01*
X21666Y227478D01*
X23078Y228422D01*
X24022Y229834D01*
X24354Y231500D01*
X24022Y233166D01*
X23078Y234578D01*
X21666Y235522D01*
X20000Y235854D01*
D02*
G37*
G36*
X155000Y220854D02*
X153334Y220522D01*
X151922Y219578D01*
X151123Y218384D01*
X150916Y218522D01*
X149250Y218854D01*
X147584Y218522D01*
X146172Y217579D01*
X146078D01*
X144666Y218522D01*
X143000Y218854D01*
X141334Y218522D01*
X139922Y217579D01*
X139828D01*
X138416Y218522D01*
X136750Y218854D01*
X135084Y218522D01*
X133672Y217579D01*
X132728Y216166D01*
X132629Y215671D01*
X131666Y215272D01*
X130000Y215604D01*
X128334Y215272D01*
X126922Y214328D01*
X125978Y212916D01*
X125646Y211250D01*
X125978Y209584D01*
X126922Y208172D01*
X128334Y207228D01*
X130000Y206896D01*
X131666Y207228D01*
X133078Y208172D01*
X134022Y209584D01*
X134121Y210079D01*
X135084Y210478D01*
X136750Y210146D01*
X138416Y210478D01*
X139828Y211422D01*
X139922D01*
X141334Y210478D01*
X143000Y210146D01*
X144666Y210478D01*
X146078Y211422D01*
X146172D01*
X147584Y210478D01*
X149250Y210146D01*
X150916Y210478D01*
X152329Y211422D01*
X153127Y212616D01*
X153334Y212478D01*
X155000Y212146D01*
X156666Y212478D01*
X158078Y213421D01*
X159022Y214834D01*
X159354Y216500D01*
X159022Y218166D01*
X158078Y219578D01*
X156666Y220522D01*
X155000Y220854D01*
D02*
G37*
G36*
X99000Y226854D02*
X97334Y226522D01*
X95921Y225578D01*
X94978Y224166D01*
X94646Y222500D01*
X94978Y220834D01*
X95921Y219422D01*
X97334Y218478D01*
X99000Y218146D01*
X100666Y218478D01*
X102079Y219422D01*
X103022Y220834D01*
X103354Y222500D01*
X103022Y224166D01*
X102079Y225578D01*
X100666Y226522D01*
X99000Y226854D01*
D02*
G37*
G36*
X50000Y220854D02*
X48334Y220522D01*
X46922Y219578D01*
X45978Y218166D01*
X45646Y216500D01*
X45978Y214834D01*
X46922Y213421D01*
X48334Y212478D01*
X50000Y212146D01*
X51666Y212478D01*
X53078Y213421D01*
X54022Y214834D01*
X54354Y216500D01*
X54022Y218166D01*
X53078Y219578D01*
X51666Y220522D01*
X50000Y220854D01*
D02*
G37*
G36*
X35000D02*
X33334Y220522D01*
X31922Y219578D01*
X30978Y218166D01*
X30646Y216500D01*
X30978Y214834D01*
X31922Y213421D01*
X33334Y212478D01*
X35000Y212146D01*
X36666Y212478D01*
X38078Y213421D01*
X39022Y214834D01*
X39354Y216500D01*
X39022Y218166D01*
X38078Y219578D01*
X36666Y220522D01*
X35000Y220854D01*
D02*
G37*
G36*
X20000D02*
X18334Y220522D01*
X16922Y219578D01*
X15978Y218166D01*
X15646Y216500D01*
X15978Y214834D01*
X16922Y213421D01*
X18334Y212478D01*
X20000Y212146D01*
X21666Y212478D01*
X23078Y213421D01*
X24022Y214834D01*
X24354Y216500D01*
X24022Y218166D01*
X23078Y219578D01*
X21666Y220522D01*
X20000Y220854D01*
D02*
G37*
G36*
X114000Y215604D02*
X112334Y215272D01*
X110921Y214328D01*
X109978Y212916D01*
X109646Y211250D01*
X109978Y209584D01*
X110921Y208172D01*
X112334Y207228D01*
X114000Y206896D01*
X115666Y207228D01*
X117079Y208172D01*
X118022Y209584D01*
X118354Y211250D01*
X118022Y212916D01*
X117079Y214328D01*
X115666Y215272D01*
X114000Y215604D01*
D02*
G37*
G36*
X98000D02*
X96334Y215272D01*
X94922Y214328D01*
X93978Y212916D01*
X93646Y211250D01*
X93978Y209584D01*
X94922Y208172D01*
X96334Y207228D01*
X98000Y206896D01*
X99666Y207228D01*
X101079Y208172D01*
X102022Y209584D01*
X102354Y211250D01*
X102022Y212916D01*
X101079Y214328D01*
X99666Y215272D01*
X98000Y215604D01*
D02*
G37*
%LPD*%
D37*
X165000Y178750D02*
X189250D01*
X155000Y188750D02*
X165000Y178750D01*
X122350Y42550D02*
Y188400D01*
X122000Y188750D02*
X122350Y188400D01*
Y42550D02*
X122700Y42200D01*
D39*
X135400Y89940D02*
D03*
Y110260D02*
D03*
X84600Y100100D02*
D03*
D41*
X21100Y42200D02*
D03*
X46500D02*
D03*
X148100D02*
D03*
X173500D02*
D03*
X122700D02*
D03*
X97300D02*
D03*
X71900D02*
D03*
D42*
X198900D02*
D03*
D43*
X129750Y139500D02*
D03*
X97500Y85000D02*
D03*
X30750Y195000D02*
D03*
X189250Y178750D02*
D03*
X136750Y214500D02*
D03*
X149250D02*
D03*
X155000Y216500D02*
D03*
X143000Y214500D02*
D03*
X58250Y294500D02*
D03*
X50000Y282000D02*
D03*
X35000D02*
D03*
X35000Y216500D02*
D03*
X20000D02*
D03*
X7500Y203500D02*
D03*
X20000D02*
D03*
X35000D02*
D03*
X50000D02*
D03*
X65000D02*
D03*
X99000Y240750D02*
D03*
Y222500D02*
D03*
X50000Y216500D02*
D03*
X7500Y231500D02*
D03*
Y246500D02*
D03*
Y261500D02*
D03*
Y276500D02*
D03*
Y291500D02*
D03*
Y306500D02*
D03*
Y321500D02*
D03*
Y336500D02*
D03*
Y351500D02*
D03*
Y216500D02*
D03*
X212500D02*
D03*
X82750Y280500D02*
D03*
X130250Y282500D02*
D03*
X200000Y351500D02*
D03*
Y336500D02*
D03*
Y321500D02*
D03*
Y306500D02*
D03*
Y291500D02*
D03*
Y276500D02*
D03*
Y261500D02*
D03*
Y246500D02*
D03*
Y231500D02*
D03*
X185000Y351500D02*
D03*
Y336500D02*
D03*
Y321500D02*
D03*
Y306500D02*
D03*
Y291500D02*
D03*
X170000Y351500D02*
D03*
Y336500D02*
D03*
Y321500D02*
D03*
X155000Y246500D02*
D03*
Y231500D02*
D03*
X140000Y246500D02*
D03*
Y231500D02*
D03*
X125000Y336500D02*
D03*
Y321500D02*
D03*
Y306500D02*
D03*
Y291500D02*
D03*
X110000Y351500D02*
D03*
Y336500D02*
D03*
Y321500D02*
D03*
Y306500D02*
D03*
X95000Y336500D02*
D03*
Y321500D02*
D03*
Y306500D02*
D03*
X65000Y231500D02*
D03*
X50000Y351500D02*
D03*
Y336500D02*
D03*
Y321500D02*
D03*
Y246500D02*
D03*
Y231500D02*
D03*
X35000Y351500D02*
D03*
Y336500D02*
D03*
Y321500D02*
D03*
Y246500D02*
D03*
Y231500D02*
D03*
X20000Y351500D02*
D03*
Y336500D02*
D03*
Y321500D02*
D03*
Y306500D02*
D03*
Y291500D02*
D03*
Y276500D02*
D03*
Y261500D02*
D03*
Y246500D02*
D03*
Y231500D02*
D03*
X70500Y214500D02*
D03*
X83500D02*
D03*
X77000D02*
D03*
X143000Y184000D02*
D03*
X130000Y188750D02*
D03*
X150825Y145675D02*
D03*
X159000Y152000D02*
D03*
X179000Y188750D02*
D03*
X163000D02*
D03*
X194942Y188643D02*
D03*
X155000Y188750D02*
D03*
X110000Y85000D02*
D03*
X203000Y188750D02*
D03*
X211000D02*
D03*
X122000D02*
D03*
X114000D02*
D03*
X106000D02*
D03*
X98000D02*
D03*
X90000D02*
D03*
X130000Y211250D02*
D03*
X115500Y290000D02*
D03*
X114000Y211250D02*
D03*
X104500Y290000D02*
D03*
X93500D02*
D03*
X98000Y211250D02*
D03*
X115500Y233000D02*
D03*
X161000Y264750D02*
D03*
X145750Y273250D02*
D03*
X77000Y233000D02*
D03*
X155500Y257250D02*
D03*
X63750Y257000D02*
D03*
X58750Y264500D02*
D03*
X74250Y272750D02*
D03*
X59250Y330750D02*
D03*
X56000Y308750D02*
D03*
X133250Y351500D02*
D03*
X119750D02*
D03*
X100250D02*
D03*
X86750D02*
D03*
X160750D02*
D03*
X81750Y348500D02*
D03*
X59000Y341500D02*
D03*
Y351500D02*
D03*
X212500D02*
D03*
Y336500D02*
D03*
Y321500D02*
D03*
Y306500D02*
D03*
Y291500D02*
D03*
Y276500D02*
D03*
Y261500D02*
D03*
Y246500D02*
D03*
Y231500D02*
D03*
D44*
X185000Y100000D02*
D03*
X35000D02*
D03*
M02*
