G04*
G04 #@! TF.GenerationSoftware,Altium Limited,Altium Designer,21.6.4 (81)*
G04*
G04 Layer_Physical_Order=3*
G04 Layer_Color=16440176*
%FSLAX44Y44*%
%MOMM*%
G71*
G04*
G04 #@! TF.SameCoordinates,74441D79-BE30-4494-89CB-7DD98D1B6E6E*
G04*
G04*
G04 #@! TF.FilePolarity,Positive*
G04*
G01*
G75*
%ADD38C,0.1520*%
%ADD39C,0.9000*%
%ADD41C,1.6500*%
%ADD42R,1.6500X1.6500*%
%ADD43C,0.6000*%
%ADD44C,2.1590*%
G36*
X388855Y214230D02*
X388478Y213666D01*
X388146Y212000D01*
X388478Y210334D01*
X389422Y208922D01*
X390834Y207978D01*
X392500Y207646D01*
X394166Y207978D01*
X394652Y208302D01*
X395922Y207624D01*
Y201376D01*
X394652Y200698D01*
X394166Y201022D01*
X392500Y201354D01*
X390834Y201022D01*
X389422Y200079D01*
X388478Y198666D01*
X388146Y197000D01*
X388478Y195334D01*
X389422Y193922D01*
X390834Y192978D01*
X392500Y192646D01*
X394166Y192978D01*
X394652Y193302D01*
X395922Y192624D01*
Y186376D01*
X394652Y185698D01*
X394166Y186022D01*
X392500Y186354D01*
X390834Y186022D01*
X389422Y185079D01*
X388478Y183666D01*
X388146Y182000D01*
X388478Y180334D01*
X389422Y178922D01*
X390834Y177978D01*
X392500Y177646D01*
X394166Y177978D01*
X394652Y178302D01*
X395922Y177624D01*
Y171376D01*
X394652Y170698D01*
X394166Y171022D01*
X392500Y171354D01*
X390834Y171022D01*
X389422Y170079D01*
X388478Y168666D01*
X388146Y167000D01*
X388478Y165334D01*
X389422Y163922D01*
X390834Y162978D01*
X392500Y162646D01*
X394166Y162978D01*
X394652Y163302D01*
X395922Y162624D01*
Y156376D01*
X394652Y155698D01*
X394166Y156022D01*
X392500Y156354D01*
X390834Y156022D01*
X389422Y155078D01*
X388478Y153666D01*
X388146Y152000D01*
X388478Y150334D01*
X389422Y148921D01*
X390834Y147978D01*
X392500Y147646D01*
X394166Y147978D01*
X394652Y148302D01*
X395922Y147624D01*
Y141376D01*
X394652Y140698D01*
X394166Y141022D01*
X392500Y141354D01*
X390834Y141022D01*
X389422Y140078D01*
X388478Y138666D01*
X388146Y137000D01*
X388478Y135334D01*
X389422Y133921D01*
X390834Y132978D01*
X392500Y132646D01*
X394166Y132978D01*
X394652Y133302D01*
X395922Y132624D01*
Y126376D01*
X394652Y125698D01*
X394166Y126022D01*
X392500Y126354D01*
X390834Y126022D01*
X389422Y125078D01*
X388478Y123666D01*
X388146Y122000D01*
X388478Y120334D01*
X389422Y118921D01*
X390834Y117978D01*
X392500Y117646D01*
X394166Y117978D01*
X394652Y118302D01*
X395922Y117624D01*
Y113876D01*
X394652Y113198D01*
X394166Y113522D01*
X392500Y113854D01*
X390834Y113522D01*
X390271Y113146D01*
X389116Y112933D01*
X388649Y113474D01*
X388078Y114328D01*
X386666Y115272D01*
X385000Y115604D01*
X383334Y115272D01*
X382426Y114666D01*
X381267Y115350D01*
X380783Y117787D01*
X379402Y119852D01*
X377337Y121233D01*
X374900Y121717D01*
X372463Y121233D01*
X370398Y119852D01*
X369017Y117787D01*
X368533Y115350D01*
X369017Y112913D01*
X370398Y110848D01*
X372463Y109467D01*
X374900Y108983D01*
X377337Y109467D01*
X379402Y110848D01*
X379425Y110881D01*
X380773Y110613D01*
X380978Y109584D01*
X381922Y108172D01*
X383334Y107228D01*
X385000Y106896D01*
X386666Y107228D01*
X387229Y107604D01*
X388384Y107817D01*
X388851Y107276D01*
X389422Y106421D01*
X390834Y105478D01*
X392500Y105146D01*
X394166Y105478D01*
X394652Y105802D01*
X395922Y105124D01*
Y81376D01*
X394652Y80698D01*
X394166Y81022D01*
X392500Y81354D01*
X390834Y81022D01*
X389422Y80078D01*
X388478Y78666D01*
X388146Y77000D01*
X388478Y75334D01*
X389422Y73921D01*
X390834Y72978D01*
X392500Y72646D01*
X394166Y72978D01*
X394652Y73302D01*
X395922Y72624D01*
Y51377D01*
X394652Y50698D01*
X394166Y51022D01*
X392500Y51354D01*
X390834Y51022D01*
X389422Y50079D01*
X388478Y48666D01*
X388146Y47000D01*
X388478Y45334D01*
X389422Y43921D01*
X390834Y42978D01*
X392500Y42646D01*
X394166Y42978D01*
X394652Y43302D01*
X395922Y42624D01*
Y4078D01*
X354210Y4078D01*
X353531Y5348D01*
X354022Y6084D01*
X354354Y7750D01*
X354022Y9416D01*
X353078Y10828D01*
X351666Y11772D01*
X350000Y12104D01*
X348334Y11772D01*
X346922Y10828D01*
X345978Y9416D01*
X345646Y7750D01*
X345978Y6084D01*
X346469Y5348D01*
X345790Y4078D01*
X339210D01*
X338531Y5348D01*
X339022Y6084D01*
X339354Y7750D01*
X339022Y9416D01*
X338078Y10828D01*
X336666Y11772D01*
X335000Y12104D01*
X333334Y11772D01*
X331922Y10828D01*
X330978Y9416D01*
X330646Y7750D01*
X330978Y6084D01*
X331469Y5348D01*
X330790Y4078D01*
X324210D01*
X323531Y5348D01*
X324022Y6084D01*
X324354Y7750D01*
X324022Y9416D01*
X323078Y10828D01*
X321666Y11772D01*
X320000Y12104D01*
X318334Y11772D01*
X316922Y10828D01*
X315978Y9416D01*
X315646Y7750D01*
X315978Y6084D01*
X316469Y5348D01*
X315791Y4078D01*
X309709Y4078D01*
X309031Y5348D01*
X309522Y6084D01*
X309854Y7750D01*
X309522Y9416D01*
X308578Y10828D01*
X307166Y11772D01*
X305500Y12104D01*
X303834Y11772D01*
X302421Y10828D01*
X301478Y9416D01*
X301146Y7750D01*
X301478Y6084D01*
X301969Y5348D01*
X301290Y4078D01*
X294209D01*
X293531Y5348D01*
X294022Y6084D01*
X294354Y7750D01*
X294022Y9416D01*
X293078Y10828D01*
X291666Y11772D01*
X290000Y12104D01*
X288334Y11772D01*
X286922Y10828D01*
X285978Y9416D01*
X285646Y7750D01*
X285978Y6084D01*
X286469Y5348D01*
X285791Y4078D01*
X279209D01*
X278531Y5348D01*
X279022Y6084D01*
X279354Y7750D01*
X279022Y9416D01*
X278078Y10828D01*
X276666Y11772D01*
X275000Y12104D01*
X273334Y11772D01*
X271922Y10828D01*
X270978Y9416D01*
X270646Y7750D01*
X270978Y6084D01*
X271469Y5348D01*
X270791Y4078D01*
X264209D01*
X263531Y5348D01*
X264022Y6084D01*
X264354Y7750D01*
X264022Y9416D01*
X263078Y10828D01*
X261666Y11772D01*
X260000Y12104D01*
X258334Y11772D01*
X256922Y10828D01*
X255978Y9416D01*
X255646Y7750D01*
X255978Y6084D01*
X256469Y5348D01*
X255791Y4078D01*
X249209D01*
X248531Y5348D01*
X249022Y6084D01*
X249354Y7750D01*
X249022Y9416D01*
X248078Y10828D01*
X246666Y11772D01*
X245000Y12104D01*
X243334Y11772D01*
X241922Y10828D01*
X240978Y9416D01*
X240646Y7750D01*
X240978Y6084D01*
X241469Y5348D01*
X240791Y4078D01*
X234209D01*
X233531Y5348D01*
X234022Y6084D01*
X234354Y7750D01*
X234022Y9416D01*
X233078Y10828D01*
X231666Y11772D01*
X230000Y12104D01*
X228334Y11772D01*
X226922Y10828D01*
X225978Y9416D01*
X225646Y7750D01*
X225978Y6084D01*
X226469Y5348D01*
X225791Y4078D01*
X174209Y4078D01*
X173531Y5348D01*
X174022Y6084D01*
X174354Y7750D01*
X174022Y9416D01*
X173078Y10828D01*
X171666Y11772D01*
X170000Y12104D01*
X168334Y11772D01*
X166922Y10828D01*
X165978Y9416D01*
X165646Y7750D01*
X165978Y6084D01*
X166469Y5348D01*
X165791Y4078D01*
X159209D01*
X158531Y5348D01*
X159022Y6084D01*
X159354Y7750D01*
X159022Y9416D01*
X158078Y10828D01*
X156666Y11772D01*
X155000Y12104D01*
X153334Y11772D01*
X151922Y10828D01*
X150978Y9416D01*
X150646Y7750D01*
X150978Y6084D01*
X151469Y5348D01*
X150791Y4078D01*
X144209D01*
X143531Y5348D01*
X144022Y6084D01*
X144354Y7750D01*
X144022Y9416D01*
X143078Y10828D01*
X141666Y11772D01*
X140000Y12104D01*
X138334Y11772D01*
X136922Y10828D01*
X135978Y9416D01*
X135646Y7750D01*
X135978Y6084D01*
X136469Y5348D01*
X135791Y4078D01*
X129209D01*
X128531Y5348D01*
X129022Y6084D01*
X129354Y7750D01*
X129022Y9416D01*
X128078Y10828D01*
X126666Y11772D01*
X125000Y12104D01*
X123334Y11772D01*
X121922Y10828D01*
X120978Y9416D01*
X120646Y7750D01*
X120978Y6084D01*
X121469Y5348D01*
X120791Y4078D01*
X114209D01*
X113531Y5348D01*
X114022Y6084D01*
X114354Y7750D01*
X114022Y9416D01*
X113078Y10828D01*
X111666Y11772D01*
X110000Y12104D01*
X108334Y11772D01*
X106922Y10828D01*
X105978Y9416D01*
X105646Y7750D01*
X105978Y6084D01*
X106469Y5348D01*
X105791Y4078D01*
X99209D01*
X98531Y5348D01*
X99022Y6084D01*
X99354Y7750D01*
X99022Y9416D01*
X98078Y10828D01*
X96666Y11772D01*
X95000Y12104D01*
X93334Y11772D01*
X91922Y10828D01*
X90978Y9416D01*
X90646Y7750D01*
X90978Y6084D01*
X91469Y5348D01*
X90791Y4078D01*
X84209Y4078D01*
X83531Y5348D01*
X84022Y6084D01*
X84354Y7750D01*
X84022Y9416D01*
X83078Y10828D01*
X81666Y11772D01*
X80000Y12104D01*
X78334Y11772D01*
X76922Y10828D01*
X75978Y9416D01*
X75646Y7750D01*
X75978Y6084D01*
X76469Y5348D01*
X75791Y4078D01*
X69209D01*
X68531Y5348D01*
X69022Y6084D01*
X69354Y7750D01*
X69022Y9416D01*
X68078Y10828D01*
X66666Y11772D01*
X65000Y12104D01*
X63334Y11772D01*
X61922Y10828D01*
X60978Y9416D01*
X60646Y7750D01*
X60978Y6084D01*
X61469Y5348D01*
X60791Y4078D01*
X54209D01*
X53531Y5348D01*
X54022Y6084D01*
X54354Y7750D01*
X54022Y9416D01*
X53078Y10828D01*
X51666Y11772D01*
X50000Y12104D01*
X48334Y11772D01*
X46922Y10828D01*
X45978Y9416D01*
X45646Y7750D01*
X45978Y6084D01*
X46469Y5348D01*
X45791Y4078D01*
X4078Y4078D01*
Y42634D01*
X5348Y43313D01*
X5852Y42976D01*
X7518Y42645D01*
X9184Y42976D01*
X10597Y43920D01*
X11541Y45332D01*
X11872Y46998D01*
X11541Y48664D01*
X10597Y50077D01*
X9184Y51020D01*
X7518Y51352D01*
X5852Y51020D01*
X5348Y50684D01*
X4078Y51363D01*
Y57634D01*
X5348Y58313D01*
X5852Y57976D01*
X7518Y57645D01*
X9184Y57976D01*
X10597Y58920D01*
X11541Y60332D01*
X11872Y61998D01*
X11541Y63664D01*
X10597Y65077D01*
X9184Y66020D01*
X7518Y66352D01*
X5852Y66020D01*
X5348Y65684D01*
X4078Y66363D01*
Y72634D01*
X5348Y73313D01*
X5852Y72976D01*
X7518Y72645D01*
X9184Y72976D01*
X10597Y73920D01*
X11541Y75332D01*
X11872Y76998D01*
X11541Y78664D01*
X10597Y80077D01*
X9184Y81020D01*
X7518Y81352D01*
X5852Y81020D01*
X5348Y80684D01*
X4078Y81362D01*
Y87624D01*
X5348Y88302D01*
X5834Y87978D01*
X7500Y87646D01*
X9166Y87978D01*
X10579Y88921D01*
X11522Y90334D01*
X11854Y92000D01*
X11522Y93666D01*
X10579Y95078D01*
X9166Y96022D01*
X7500Y96354D01*
X5834Y96022D01*
X5348Y95698D01*
X4078Y96376D01*
Y102624D01*
X5348Y103302D01*
X5834Y102978D01*
X7500Y102646D01*
X9166Y102978D01*
X10579Y103921D01*
X11522Y105334D01*
X11854Y107000D01*
X11522Y108666D01*
X10579Y110078D01*
X9166Y111022D01*
X7500Y111354D01*
X5834Y111022D01*
X5348Y110698D01*
X4078Y111376D01*
Y117634D01*
X5348Y118313D01*
X5852Y117976D01*
X7518Y117645D01*
X9184Y117976D01*
X10597Y118920D01*
X11541Y120332D01*
X11872Y121998D01*
X11541Y123664D01*
X10597Y125077D01*
X9184Y126020D01*
X7518Y126352D01*
X5852Y126020D01*
X5348Y125684D01*
X4078Y126362D01*
Y132634D01*
X5348Y133313D01*
X5852Y132976D01*
X7518Y132645D01*
X9184Y132976D01*
X10597Y133920D01*
X11541Y135332D01*
X11872Y136998D01*
X11541Y138664D01*
X10597Y140077D01*
X9184Y141020D01*
X7518Y141352D01*
X5852Y141020D01*
X5348Y140684D01*
X4078Y141362D01*
Y147634D01*
X5348Y148313D01*
X5852Y147976D01*
X7518Y147645D01*
X9184Y147976D01*
X10597Y148920D01*
X11541Y150332D01*
X11872Y151998D01*
X11541Y153664D01*
X10597Y155077D01*
X9184Y156020D01*
X7518Y156352D01*
X5852Y156020D01*
X5348Y155684D01*
X4078Y156362D01*
Y162634D01*
X5348Y163313D01*
X5852Y162976D01*
X7518Y162645D01*
X9184Y162976D01*
X10597Y163920D01*
X11541Y165332D01*
X11872Y166998D01*
X11541Y168664D01*
X10597Y170077D01*
X9184Y171021D01*
X7518Y171352D01*
X5852Y171021D01*
X5348Y170684D01*
X4078Y171362D01*
Y177634D01*
X5348Y178313D01*
X5852Y177976D01*
X7518Y177645D01*
X9184Y177976D01*
X10597Y178920D01*
X11541Y180332D01*
X11872Y181998D01*
X11541Y183664D01*
X10597Y185077D01*
X9184Y186021D01*
X7518Y186352D01*
X5852Y186021D01*
X5348Y185684D01*
X4078Y186362D01*
Y192634D01*
X5348Y193313D01*
X5852Y192976D01*
X7518Y192645D01*
X9184Y192976D01*
X10597Y193920D01*
X11541Y195332D01*
X11872Y196998D01*
X11541Y198664D01*
X10597Y200077D01*
X9184Y201021D01*
X7518Y201352D01*
X5852Y201021D01*
X5348Y200684D01*
X4078Y201362D01*
Y207634D01*
X5348Y208313D01*
X5852Y207976D01*
X7518Y207645D01*
X9184Y207976D01*
X10597Y208920D01*
X11541Y210332D01*
X11872Y211998D01*
X11541Y213664D01*
X11163Y214230D01*
X11841Y215500D01*
X15676D01*
X16355Y214230D01*
X15978Y213666D01*
X15646Y212000D01*
X15978Y210334D01*
X16922Y208922D01*
X18334Y207978D01*
X20000Y207646D01*
X21666Y207978D01*
X23078Y208922D01*
X24022Y210334D01*
X24354Y212000D01*
X24022Y213666D01*
X23646Y214230D01*
X24324Y215500D01*
X30676D01*
X31355Y214230D01*
X30978Y213666D01*
X30646Y212000D01*
X30978Y210334D01*
X31922Y208922D01*
X33334Y207978D01*
X35000Y207646D01*
X36666Y207978D01*
X38078Y208922D01*
X39022Y210334D01*
X39354Y212000D01*
X39022Y213666D01*
X38646Y214230D01*
X39324Y215500D01*
X45676D01*
X46355Y214230D01*
X45978Y213666D01*
X45646Y212000D01*
X45978Y210334D01*
X46922Y208922D01*
X48334Y207978D01*
X50000Y207646D01*
X51666Y207978D01*
X53078Y208922D01*
X54022Y210334D01*
X54354Y212000D01*
X54022Y213666D01*
X53646Y214230D01*
X54324Y215500D01*
X60676D01*
X61355Y214230D01*
X60978Y213666D01*
X60646Y212000D01*
X60978Y210334D01*
X61922Y208922D01*
X63334Y207978D01*
X65000Y207646D01*
X66666Y207978D01*
X68078Y208922D01*
X69022Y210334D01*
X69354Y212000D01*
X69022Y213666D01*
X68646Y214230D01*
X69324Y215500D01*
X75676D01*
X76355Y214230D01*
X75978Y213666D01*
X75646Y212000D01*
X75978Y210334D01*
X76922Y208922D01*
X78334Y207978D01*
X80000Y207646D01*
X81666Y207978D01*
X83078Y208922D01*
X84022Y210334D01*
X84354Y212000D01*
X84022Y213666D01*
X83645Y214230D01*
X84324Y215500D01*
X90676D01*
X91355Y214230D01*
X90978Y213666D01*
X90646Y212000D01*
X90978Y210334D01*
X91922Y208922D01*
X93334Y207978D01*
X95000Y207646D01*
X96666Y207978D01*
X98078Y208922D01*
X99022Y210334D01*
X99354Y212000D01*
X99022Y213666D01*
X98645Y214230D01*
X99324Y215500D01*
X105676D01*
X106355Y214230D01*
X105978Y213666D01*
X105646Y212000D01*
X105978Y210334D01*
X106922Y208922D01*
X108334Y207978D01*
X110000Y207646D01*
X111666Y207978D01*
X113078Y208922D01*
X114022Y210334D01*
X114354Y212000D01*
X114022Y213666D01*
X113645Y214230D01*
X114324Y215500D01*
X120676D01*
X121355Y214230D01*
X120978Y213666D01*
X120646Y212000D01*
X120978Y210334D01*
X121922Y208922D01*
X123334Y207978D01*
X125000Y207646D01*
X126666Y207978D01*
X128078Y208922D01*
X129022Y210334D01*
X129354Y212000D01*
X129022Y213666D01*
X128645Y214230D01*
X129324Y215500D01*
X135676D01*
X136355Y214230D01*
X135978Y213666D01*
X135646Y212000D01*
X135978Y210334D01*
X136922Y208922D01*
X138334Y207978D01*
X140000Y207646D01*
X141666Y207978D01*
X143078Y208922D01*
X144022Y210334D01*
X144354Y212000D01*
X144022Y213666D01*
X143645Y214230D01*
X144324Y215500D01*
X157272D01*
X157871Y214380D01*
X157728Y214166D01*
X157396Y212500D01*
X157728Y210834D01*
X158672Y209422D01*
X160084Y208478D01*
X161750Y208146D01*
X162717Y208339D01*
X163812Y207331D01*
X163646Y206500D01*
X163812Y205669D01*
X162717Y204661D01*
X161750Y204854D01*
X160084Y204522D01*
X158672Y203578D01*
X157728Y202166D01*
X157650Y201776D01*
X156223Y201110D01*
X155000Y201354D01*
X153334Y201022D01*
X151922Y200078D01*
X150978Y198666D01*
X150646Y197000D01*
X150953Y195459D01*
X150635Y194932D01*
X150121Y194329D01*
X150000Y194354D01*
X148334Y194022D01*
X146922Y193078D01*
X145978Y191666D01*
X145646Y190000D01*
X145978Y188334D01*
X146922Y186922D01*
X148334Y185978D01*
X150000Y185646D01*
X151666Y185978D01*
X153078Y186922D01*
X154022Y188334D01*
X154354Y190000D01*
X154047Y191541D01*
X154365Y192068D01*
X154879Y192670D01*
X155000Y192646D01*
X156666Y192978D01*
X158078Y193922D01*
X159022Y195334D01*
X159100Y195724D01*
X160527Y196390D01*
X161750Y196146D01*
X162717Y196339D01*
X163812Y195331D01*
X163646Y194500D01*
X163978Y192834D01*
X164921Y191422D01*
X166334Y190478D01*
X168000Y190146D01*
X169666Y190478D01*
X171078Y191422D01*
X172022Y192834D01*
X172354Y194500D01*
X172022Y196166D01*
X171078Y197579D01*
X169666Y198522D01*
X168000Y198854D01*
X167033Y198661D01*
X165938Y199669D01*
X166104Y200500D01*
X165938Y201331D01*
X167033Y202339D01*
X168000Y202146D01*
X169666Y202478D01*
X171078Y203421D01*
X172022Y204834D01*
X172354Y206500D01*
X172022Y208166D01*
X171078Y209578D01*
X169666Y210522D01*
X168000Y210854D01*
X167033Y210661D01*
X165938Y211669D01*
X166104Y212500D01*
X165772Y214166D01*
X165629Y214380D01*
X166228Y215500D01*
X176400D01*
Y186500D01*
X184772D01*
X185371Y185380D01*
X185228Y185166D01*
X184896Y183500D01*
X185228Y181834D01*
X186171Y180422D01*
X187584Y179478D01*
X189250Y179146D01*
X190916Y179478D01*
X192328Y180422D01*
X192369Y180482D01*
X193775Y180510D01*
X193480Y179119D01*
X192672Y178578D01*
X191728Y177166D01*
X191396Y175500D01*
X191728Y173834D01*
X192672Y172421D01*
X194084Y171478D01*
X195750Y171146D01*
X197416Y171478D01*
X198829Y172421D01*
X199772Y173834D01*
X200104Y175500D01*
X199772Y177166D01*
X199160Y178082D01*
X199597Y179423D01*
X199642Y179473D01*
X199666Y179478D01*
X201078Y180422D01*
X202022Y181834D01*
X202354Y183500D01*
X202022Y185166D01*
X201879Y185380D01*
X202478Y186500D01*
X206022D01*
X206621Y185380D01*
X206478Y185166D01*
X206146Y183500D01*
X206478Y181834D01*
X207421Y180422D01*
X208834Y179478D01*
X210500Y179146D01*
X212166Y179478D01*
X213578Y180422D01*
X214522Y181834D01*
X214854Y183500D01*
X214522Y185166D01*
X214379Y185380D01*
X214978Y186500D01*
X227900D01*
Y190693D01*
X228278Y190963D01*
X229170Y191255D01*
X230334Y190478D01*
X232000Y190146D01*
X233119Y190369D01*
X234119Y189369D01*
X233896Y188250D01*
X234228Y186584D01*
X235172Y185172D01*
X236584Y184228D01*
X238250Y183896D01*
X239892Y184223D01*
X240136Y184098D01*
X240919Y183370D01*
X240646Y182000D01*
X240978Y180334D01*
X241922Y178922D01*
X243334Y177978D01*
X245000Y177646D01*
X246666Y177978D01*
X248078Y178922D01*
X249022Y180334D01*
X249354Y182000D01*
X249022Y183666D01*
X248078Y185078D01*
X246666Y186022D01*
X245000Y186354D01*
X243358Y186027D01*
X243114Y186152D01*
X242331Y186880D01*
X242604Y188250D01*
X242272Y189916D01*
X241329Y191329D01*
X239916Y192272D01*
X238250Y192604D01*
X237131Y192381D01*
X236131Y193381D01*
X236354Y194500D01*
X236188Y195331D01*
X237283Y196339D01*
X238250Y196146D01*
X239916Y196478D01*
X240825Y196101D01*
X240978Y195334D01*
X241922Y193922D01*
X243334Y192978D01*
X245000Y192646D01*
X246666Y192978D01*
X248078Y193922D01*
X249022Y195334D01*
X249354Y197000D01*
X249022Y198666D01*
X248078Y200078D01*
X246666Y201022D01*
X245000Y201354D01*
X243334Y201022D01*
X242425Y201399D01*
X242272Y202166D01*
X241329Y203578D01*
X239916Y204522D01*
X238250Y204854D01*
X237283Y204661D01*
X236188Y205669D01*
X236354Y206500D01*
X236188Y207331D01*
X237283Y208339D01*
X238250Y208146D01*
X239916Y208478D01*
X241329Y209422D01*
X242272Y210834D01*
X242604Y212500D01*
X242272Y214166D01*
X242129Y214380D01*
X242728Y215500D01*
X255676D01*
X256355Y214230D01*
X255978Y213666D01*
X255646Y212000D01*
X255978Y210334D01*
X256922Y208922D01*
X258334Y207978D01*
X260000Y207646D01*
X261666Y207978D01*
X263078Y208922D01*
X264022Y210334D01*
X264354Y212000D01*
X264022Y213666D01*
X263645Y214230D01*
X264324Y215500D01*
X270676D01*
X271355Y214230D01*
X270978Y213666D01*
X270646Y212000D01*
X270978Y210334D01*
X271922Y208922D01*
X273334Y207978D01*
X275000Y207646D01*
X276666Y207978D01*
X278078Y208922D01*
X279022Y210334D01*
X279354Y212000D01*
X279022Y213666D01*
X278645Y214230D01*
X279324Y215500D01*
X285676D01*
X286355Y214230D01*
X285978Y213666D01*
X285646Y212000D01*
X285978Y210334D01*
X286922Y208922D01*
X288334Y207978D01*
X290000Y207646D01*
X291666Y207978D01*
X293078Y208922D01*
X294022Y210334D01*
X294354Y212000D01*
X294022Y213666D01*
X293645Y214230D01*
X294324Y215500D01*
X300676D01*
X301355Y214230D01*
X300978Y213666D01*
X300646Y212000D01*
X300978Y210334D01*
X301922Y208922D01*
X303334Y207978D01*
X305000Y207646D01*
X306666Y207978D01*
X308078Y208922D01*
X309022Y210334D01*
X309354Y212000D01*
X309022Y213666D01*
X308645Y214230D01*
X309324Y215500D01*
X315676D01*
X316355Y214230D01*
X315978Y213666D01*
X315646Y212000D01*
X315978Y210334D01*
X316922Y208922D01*
X318334Y207978D01*
X320000Y207646D01*
X321666Y207978D01*
X323078Y208922D01*
X324022Y210334D01*
X324354Y212000D01*
X324022Y213666D01*
X323645Y214230D01*
X324324Y215500D01*
X330676D01*
X331355Y214230D01*
X330978Y213666D01*
X330646Y212000D01*
X330978Y210334D01*
X331922Y208922D01*
X333334Y207978D01*
X335000Y207646D01*
X336666Y207978D01*
X338078Y208922D01*
X339022Y210334D01*
X339354Y212000D01*
X339022Y213666D01*
X338645Y214230D01*
X339324Y215500D01*
X345676D01*
X346355Y214230D01*
X345978Y213666D01*
X345646Y212000D01*
X345978Y210334D01*
X346922Y208922D01*
X348334Y207978D01*
X350000Y207646D01*
X351666Y207978D01*
X353078Y208922D01*
X354022Y210334D01*
X354354Y212000D01*
X354022Y213666D01*
X353645Y214230D01*
X354324Y215500D01*
X360676D01*
X361354Y214230D01*
X360978Y213666D01*
X360646Y212000D01*
X360978Y210334D01*
X361922Y208922D01*
X363334Y207978D01*
X365000Y207646D01*
X366666Y207978D01*
X368078Y208922D01*
X369022Y210334D01*
X369354Y212000D01*
X369022Y213666D01*
X368645Y214230D01*
X369324Y215500D01*
X375676D01*
X376354Y214230D01*
X375978Y213666D01*
X375646Y212000D01*
X375978Y210334D01*
X376922Y208922D01*
X378334Y207978D01*
X380000Y207646D01*
X381666Y207978D01*
X383078Y208922D01*
X384022Y210334D01*
X384354Y212000D01*
X384022Y213666D01*
X383645Y214230D01*
X384324Y215500D01*
X388176D01*
X388855Y214230D01*
D02*
G37*
%LPC*%
G36*
X380000Y201354D02*
X378334Y201022D01*
X376922Y200078D01*
X375978Y198666D01*
X375646Y197000D01*
X375978Y195334D01*
X376922Y193922D01*
X378334Y192978D01*
X380000Y192646D01*
X381666Y192978D01*
X383078Y193922D01*
X384022Y195334D01*
X384354Y197000D01*
X384022Y198666D01*
X383078Y200078D01*
X381666Y201022D01*
X380000Y201354D01*
D02*
G37*
G36*
X365000D02*
X363334Y201022D01*
X361922Y200078D01*
X360978Y198666D01*
X360646Y197000D01*
X360978Y195334D01*
X361922Y193922D01*
X363334Y192978D01*
X365000Y192646D01*
X366666Y192978D01*
X368078Y193922D01*
X369022Y195334D01*
X369354Y197000D01*
X369022Y198666D01*
X368078Y200078D01*
X366666Y201022D01*
X365000Y201354D01*
D02*
G37*
G36*
X350000D02*
X348334Y201022D01*
X346922Y200078D01*
X345978Y198666D01*
X345646Y197000D01*
X345978Y195334D01*
X346922Y193922D01*
X348334Y192978D01*
X350000Y192646D01*
X351666Y192978D01*
X353078Y193922D01*
X354022Y195334D01*
X354354Y197000D01*
X354022Y198666D01*
X353078Y200078D01*
X351666Y201022D01*
X350000Y201354D01*
D02*
G37*
G36*
X335000D02*
X333334Y201022D01*
X331922Y200078D01*
X330978Y198666D01*
X330646Y197000D01*
X330978Y195334D01*
X331922Y193922D01*
X333334Y192978D01*
X335000Y192646D01*
X336666Y192978D01*
X338078Y193922D01*
X339022Y195334D01*
X339354Y197000D01*
X339022Y198666D01*
X338078Y200078D01*
X336666Y201022D01*
X335000Y201354D01*
D02*
G37*
G36*
X320000D02*
X318334Y201022D01*
X316922Y200078D01*
X315978Y198666D01*
X315646Y197000D01*
X315978Y195334D01*
X316922Y193922D01*
X318334Y192978D01*
X320000Y192646D01*
X321666Y192978D01*
X323078Y193922D01*
X324022Y195334D01*
X324354Y197000D01*
X324022Y198666D01*
X323078Y200078D01*
X321666Y201022D01*
X320000Y201354D01*
D02*
G37*
G36*
X305000D02*
X303334Y201022D01*
X301922Y200078D01*
X300978Y198666D01*
X300646Y197000D01*
X300978Y195334D01*
X301922Y193922D01*
X303334Y192978D01*
X305000Y192646D01*
X306666Y192978D01*
X308078Y193922D01*
X309022Y195334D01*
X309354Y197000D01*
X309022Y198666D01*
X308078Y200078D01*
X306666Y201022D01*
X305000Y201354D01*
D02*
G37*
G36*
X290000D02*
X288334Y201022D01*
X286922Y200078D01*
X285978Y198666D01*
X285646Y197000D01*
X285978Y195334D01*
X286922Y193922D01*
X288334Y192978D01*
X290000Y192646D01*
X291666Y192978D01*
X293078Y193922D01*
X294022Y195334D01*
X294354Y197000D01*
X294022Y198666D01*
X293078Y200078D01*
X291666Y201022D01*
X290000Y201354D01*
D02*
G37*
G36*
X275000D02*
X273334Y201022D01*
X271922Y200078D01*
X270978Y198666D01*
X270646Y197000D01*
X270978Y195334D01*
X271922Y193922D01*
X273334Y192978D01*
X275000Y192646D01*
X276666Y192978D01*
X278078Y193922D01*
X279022Y195334D01*
X279354Y197000D01*
X279022Y198666D01*
X278078Y200078D01*
X276666Y201022D01*
X275000Y201354D01*
D02*
G37*
G36*
X260000D02*
X258334Y201022D01*
X256922Y200078D01*
X255978Y198666D01*
X255646Y197000D01*
X255978Y195334D01*
X256922Y193922D01*
X258334Y192978D01*
X260000Y192646D01*
X261666Y192978D01*
X263078Y193922D01*
X264022Y195334D01*
X264354Y197000D01*
X264022Y198666D01*
X263078Y200078D01*
X261666Y201022D01*
X260000Y201354D01*
D02*
G37*
G36*
X140000D02*
X138334Y201022D01*
X136922Y200078D01*
X135978Y198666D01*
X135646Y197000D01*
X135978Y195334D01*
X136922Y193922D01*
X138334Y192978D01*
X140000Y192646D01*
X141666Y192978D01*
X143078Y193922D01*
X144022Y195334D01*
X144354Y197000D01*
X144022Y198666D01*
X143078Y200078D01*
X141666Y201022D01*
X140000Y201354D01*
D02*
G37*
G36*
X125000D02*
X123334Y201022D01*
X121922Y200078D01*
X120978Y198666D01*
X120646Y197000D01*
X120978Y195334D01*
X121922Y193922D01*
X123334Y192978D01*
X125000Y192646D01*
X126666Y192978D01*
X128078Y193922D01*
X129022Y195334D01*
X129354Y197000D01*
X129022Y198666D01*
X128078Y200078D01*
X126666Y201022D01*
X125000Y201354D01*
D02*
G37*
G36*
X110000D02*
X108334Y201022D01*
X106922Y200078D01*
X105978Y198666D01*
X105646Y197000D01*
X105978Y195334D01*
X106922Y193922D01*
X108334Y192978D01*
X110000Y192646D01*
X111666Y192978D01*
X113078Y193922D01*
X114022Y195334D01*
X114354Y197000D01*
X114022Y198666D01*
X113078Y200078D01*
X111666Y201022D01*
X110000Y201354D01*
D02*
G37*
G36*
X95000D02*
X93334Y201022D01*
X91922Y200078D01*
X90978Y198666D01*
X90646Y197000D01*
X90978Y195334D01*
X91922Y193922D01*
X93334Y192978D01*
X95000Y192646D01*
X96666Y192978D01*
X98078Y193922D01*
X99022Y195334D01*
X99354Y197000D01*
X99022Y198666D01*
X98078Y200078D01*
X96666Y201022D01*
X95000Y201354D01*
D02*
G37*
G36*
X80000D02*
X78334Y201022D01*
X76922Y200078D01*
X75978Y198666D01*
X75646Y197000D01*
X75978Y195334D01*
X76922Y193922D01*
X78334Y192978D01*
X80000Y192646D01*
X81666Y192978D01*
X83078Y193922D01*
X84022Y195334D01*
X84354Y197000D01*
X84022Y198666D01*
X83078Y200078D01*
X81666Y201022D01*
X80000Y201354D01*
D02*
G37*
G36*
X65000D02*
X63334Y201022D01*
X61922Y200078D01*
X60978Y198666D01*
X60646Y197000D01*
X60978Y195334D01*
X61922Y193922D01*
X63334Y192978D01*
X65000Y192646D01*
X66666Y192978D01*
X68078Y193922D01*
X69022Y195334D01*
X69354Y197000D01*
X69022Y198666D01*
X68078Y200078D01*
X66666Y201022D01*
X65000Y201354D01*
D02*
G37*
G36*
X50000D02*
X48334Y201022D01*
X46922Y200078D01*
X45978Y198666D01*
X45646Y197000D01*
X45978Y195334D01*
X46922Y193922D01*
X48334Y192978D01*
X50000Y192646D01*
X51666Y192978D01*
X53078Y193922D01*
X54022Y195334D01*
X54354Y197000D01*
X54022Y198666D01*
X53078Y200078D01*
X51666Y201022D01*
X50000Y201354D01*
D02*
G37*
G36*
X35000D02*
X33334Y201022D01*
X31922Y200078D01*
X30978Y198666D01*
X30646Y197000D01*
X30978Y195334D01*
X31922Y193922D01*
X33334Y192978D01*
X35000Y192646D01*
X36666Y192978D01*
X38078Y193922D01*
X39022Y195334D01*
X39354Y197000D01*
X39022Y198666D01*
X38078Y200078D01*
X36666Y201022D01*
X35000Y201354D01*
D02*
G37*
G36*
X20000D02*
X18334Y201022D01*
X16922Y200078D01*
X15978Y198666D01*
X15646Y197000D01*
X15978Y195334D01*
X16922Y193922D01*
X18334Y192978D01*
X20000Y192646D01*
X21666Y192978D01*
X23078Y193922D01*
X24022Y195334D01*
X24354Y197000D01*
X24022Y198666D01*
X23078Y200078D01*
X21666Y201022D01*
X20000Y201354D01*
D02*
G37*
G36*
X380000Y186354D02*
X378334Y186022D01*
X376922Y185078D01*
X375978Y183666D01*
X375646Y182000D01*
X375978Y180334D01*
X376922Y178922D01*
X378334Y177978D01*
X380000Y177646D01*
X381666Y177978D01*
X383078Y178922D01*
X384022Y180334D01*
X384354Y182000D01*
X384022Y183666D01*
X383078Y185078D01*
X381666Y186022D01*
X380000Y186354D01*
D02*
G37*
G36*
X365000D02*
X363334Y186022D01*
X361922Y185078D01*
X360978Y183666D01*
X360646Y182000D01*
X360978Y180334D01*
X361922Y178922D01*
X363334Y177978D01*
X365000Y177646D01*
X366666Y177978D01*
X368078Y178922D01*
X369022Y180334D01*
X369354Y182000D01*
X369022Y183666D01*
X368078Y185078D01*
X366666Y186022D01*
X365000Y186354D01*
D02*
G37*
G36*
X350000D02*
X348334Y186022D01*
X346922Y185078D01*
X345978Y183666D01*
X345646Y182000D01*
X345978Y180334D01*
X346922Y178922D01*
X348334Y177978D01*
X350000Y177646D01*
X351666Y177978D01*
X353078Y178922D01*
X354022Y180334D01*
X354354Y182000D01*
X354022Y183666D01*
X353078Y185078D01*
X351666Y186022D01*
X350000Y186354D01*
D02*
G37*
G36*
X335000D02*
X333334Y186022D01*
X331922Y185078D01*
X330978Y183666D01*
X330646Y182000D01*
X330978Y180334D01*
X331922Y178922D01*
X333334Y177978D01*
X335000Y177646D01*
X336666Y177978D01*
X338078Y178922D01*
X339022Y180334D01*
X339354Y182000D01*
X339022Y183666D01*
X338078Y185078D01*
X336666Y186022D01*
X335000Y186354D01*
D02*
G37*
G36*
X320000D02*
X318334Y186022D01*
X316922Y185078D01*
X315978Y183666D01*
X315646Y182000D01*
X315978Y180334D01*
X316922Y178922D01*
X318334Y177978D01*
X320000Y177646D01*
X321666Y177978D01*
X323078Y178922D01*
X324022Y180334D01*
X324354Y182000D01*
X324022Y183666D01*
X323078Y185078D01*
X321666Y186022D01*
X320000Y186354D01*
D02*
G37*
G36*
X305000D02*
X303334Y186022D01*
X301922Y185078D01*
X300978Y183666D01*
X300646Y182000D01*
X300978Y180334D01*
X301922Y178922D01*
X303334Y177978D01*
X305000Y177646D01*
X306666Y177978D01*
X308078Y178922D01*
X309022Y180334D01*
X309354Y182000D01*
X309022Y183666D01*
X308078Y185078D01*
X306666Y186022D01*
X305000Y186354D01*
D02*
G37*
G36*
X290000D02*
X288334Y186022D01*
X286922Y185078D01*
X285978Y183666D01*
X285646Y182000D01*
X285978Y180334D01*
X286922Y178922D01*
X288334Y177978D01*
X290000Y177646D01*
X291666Y177978D01*
X293078Y178922D01*
X294022Y180334D01*
X294354Y182000D01*
X294022Y183666D01*
X293078Y185078D01*
X291666Y186022D01*
X290000Y186354D01*
D02*
G37*
G36*
X275000D02*
X273334Y186022D01*
X271922Y185078D01*
X270978Y183666D01*
X270646Y182000D01*
X270978Y180334D01*
X271922Y178922D01*
X273334Y177978D01*
X275000Y177646D01*
X276666Y177978D01*
X278078Y178922D01*
X279022Y180334D01*
X279354Y182000D01*
X279022Y183666D01*
X278078Y185078D01*
X276666Y186022D01*
X275000Y186354D01*
D02*
G37*
G36*
X260000D02*
X258334Y186022D01*
X256922Y185078D01*
X255978Y183666D01*
X255646Y182000D01*
X255978Y180334D01*
X256922Y178922D01*
X258334Y177978D01*
X260000Y177646D01*
X261666Y177978D01*
X263078Y178922D01*
X264022Y180334D01*
X264354Y182000D01*
X264022Y183666D01*
X263078Y185078D01*
X261666Y186022D01*
X260000Y186354D01*
D02*
G37*
G36*
X80000D02*
X78334Y186022D01*
X76922Y185078D01*
X75978Y183666D01*
X75646Y182000D01*
X75978Y180334D01*
X76922Y178922D01*
X78334Y177978D01*
X80000Y177646D01*
X81666Y177978D01*
X83078Y178922D01*
X84022Y180334D01*
X84354Y182000D01*
X84022Y183666D01*
X83078Y185078D01*
X81666Y186022D01*
X80000Y186354D01*
D02*
G37*
G36*
X65000D02*
X63334Y186022D01*
X61922Y185078D01*
X60978Y183666D01*
X60646Y182000D01*
X60978Y180334D01*
X61922Y178922D01*
X63334Y177978D01*
X65000Y177646D01*
X66666Y177978D01*
X68078Y178922D01*
X69022Y180334D01*
X69354Y182000D01*
X69022Y183666D01*
X68078Y185078D01*
X66666Y186022D01*
X65000Y186354D01*
D02*
G37*
G36*
X50000D02*
X48334Y186022D01*
X46922Y185078D01*
X45978Y183666D01*
X45646Y182000D01*
X45978Y180334D01*
X46922Y178922D01*
X48334Y177978D01*
X50000Y177646D01*
X51666Y177978D01*
X53078Y178922D01*
X54022Y180334D01*
X54354Y182000D01*
X54022Y183666D01*
X53078Y185078D01*
X51666Y186022D01*
X50000Y186354D01*
D02*
G37*
G36*
X35000D02*
X33334Y186022D01*
X31922Y185078D01*
X30978Y183666D01*
X30646Y182000D01*
X30978Y180334D01*
X31922Y178922D01*
X33334Y177978D01*
X35000Y177646D01*
X36666Y177978D01*
X38078Y178922D01*
X39022Y180334D01*
X39354Y182000D01*
X39022Y183666D01*
X38078Y185078D01*
X36666Y186022D01*
X35000Y186354D01*
D02*
G37*
G36*
X20000D02*
X18334Y186022D01*
X16922Y185078D01*
X15978Y183666D01*
X15646Y182000D01*
X15978Y180334D01*
X16922Y178922D01*
X18334Y177978D01*
X20000Y177646D01*
X21666Y177978D01*
X23078Y178922D01*
X24022Y180334D01*
X24354Y182000D01*
X24022Y183666D01*
X23078Y185078D01*
X21666Y186022D01*
X20000Y186354D01*
D02*
G37*
G36*
X155264Y185320D02*
X153598Y184989D01*
X152185Y184045D01*
X151241Y182633D01*
X150910Y180967D01*
X151241Y179301D01*
X152185Y177888D01*
X153598Y176945D01*
X155264Y176613D01*
X156930Y176945D01*
X158342Y177888D01*
X159286Y179301D01*
X159617Y180967D01*
X159286Y182633D01*
X158342Y184045D01*
X156930Y184989D01*
X155264Y185320D01*
D02*
G37*
G36*
X145000Y179354D02*
X143334Y179022D01*
X141922Y178078D01*
X140978Y176666D01*
X140646Y175000D01*
X140978Y173334D01*
X141922Y171922D01*
X143334Y170978D01*
X145000Y170646D01*
X146666Y170978D01*
X148078Y171922D01*
X149022Y173334D01*
X149354Y175000D01*
X149022Y176666D01*
X148078Y178078D01*
X146666Y179022D01*
X145000Y179354D01*
D02*
G37*
G36*
X73750Y172854D02*
X72084Y172522D01*
X70672Y171579D01*
X69728Y170166D01*
X69686Y169958D01*
X68338Y169690D01*
X68078Y170079D01*
X66666Y171022D01*
X65000Y171354D01*
X63334Y171022D01*
X61922Y170079D01*
X60978Y168666D01*
X60646Y167000D01*
X60978Y165334D01*
X61922Y163922D01*
X63334Y162978D01*
X65000Y162646D01*
X66666Y162978D01*
X68078Y163922D01*
X69022Y165334D01*
X69064Y165542D01*
X70412Y165810D01*
X70672Y165422D01*
X72084Y164478D01*
X73750Y164146D01*
X75416Y164478D01*
X76828Y165422D01*
X77772Y166834D01*
X78104Y168500D01*
X77772Y170166D01*
X76828Y171579D01*
X75416Y172522D01*
X73750Y172854D01*
D02*
G37*
G36*
X204250Y171354D02*
X202584Y171022D01*
X201171Y170079D01*
X200228Y168666D01*
X199896Y167000D01*
X200228Y165334D01*
X201171Y163922D01*
X202584Y162978D01*
X204250Y162646D01*
X205916Y162978D01*
X207328Y163922D01*
X208272Y165334D01*
X208604Y167000D01*
X208272Y168666D01*
X207328Y170079D01*
X205916Y171022D01*
X204250Y171354D01*
D02*
G37*
G36*
X380000Y171354D02*
X378334Y171022D01*
X376922Y170079D01*
X375978Y168666D01*
X375646Y167000D01*
X375978Y165334D01*
X376922Y163922D01*
X378334Y162978D01*
X380000Y162646D01*
X381666Y162978D01*
X383078Y163922D01*
X384022Y165334D01*
X384354Y167000D01*
X384022Y168666D01*
X383078Y170079D01*
X381666Y171022D01*
X380000Y171354D01*
D02*
G37*
G36*
X365000D02*
X363334Y171022D01*
X361922Y170079D01*
X360978Y168666D01*
X360646Y167000D01*
X360978Y165334D01*
X361922Y163922D01*
X363334Y162978D01*
X365000Y162646D01*
X366666Y162978D01*
X368078Y163922D01*
X369022Y165334D01*
X369354Y167000D01*
X369022Y168666D01*
X368078Y170079D01*
X366666Y171022D01*
X365000Y171354D01*
D02*
G37*
G36*
X350000D02*
X348334Y171022D01*
X346922Y170079D01*
X345978Y168666D01*
X345646Y167000D01*
X345978Y165334D01*
X346922Y163922D01*
X348334Y162978D01*
X350000Y162646D01*
X351666Y162978D01*
X353078Y163922D01*
X354022Y165334D01*
X354354Y167000D01*
X354022Y168666D01*
X353078Y170079D01*
X351666Y171022D01*
X350000Y171354D01*
D02*
G37*
G36*
X335000D02*
X333334Y171022D01*
X331922Y170079D01*
X330978Y168666D01*
X330646Y167000D01*
X330978Y165334D01*
X331922Y163922D01*
X333334Y162978D01*
X335000Y162646D01*
X336666Y162978D01*
X338078Y163922D01*
X339022Y165334D01*
X339354Y167000D01*
X339022Y168666D01*
X338078Y170079D01*
X336666Y171022D01*
X335000Y171354D01*
D02*
G37*
G36*
X320000D02*
X318334Y171022D01*
X316922Y170079D01*
X315978Y168666D01*
X315646Y167000D01*
X315978Y165334D01*
X316922Y163922D01*
X318334Y162978D01*
X320000Y162646D01*
X321666Y162978D01*
X323078Y163922D01*
X324022Y165334D01*
X324354Y167000D01*
X324022Y168666D01*
X323078Y170079D01*
X321666Y171022D01*
X320000Y171354D01*
D02*
G37*
G36*
X305000D02*
X303334Y171022D01*
X301922Y170079D01*
X300978Y168666D01*
X300646Y167000D01*
X300978Y165334D01*
X301922Y163922D01*
X303334Y162978D01*
X305000Y162646D01*
X306666Y162978D01*
X308078Y163922D01*
X309022Y165334D01*
X309354Y167000D01*
X309022Y168666D01*
X308078Y170079D01*
X306666Y171022D01*
X305000Y171354D01*
D02*
G37*
G36*
X290000D02*
X288334Y171022D01*
X286922Y170079D01*
X285978Y168666D01*
X285646Y167000D01*
X285978Y165334D01*
X286922Y163922D01*
X288334Y162978D01*
X290000Y162646D01*
X291666Y162978D01*
X293078Y163922D01*
X294022Y165334D01*
X294354Y167000D01*
X294022Y168666D01*
X293078Y170079D01*
X291666Y171022D01*
X290000Y171354D01*
D02*
G37*
G36*
X275000D02*
X273334Y171022D01*
X271922Y170079D01*
X270978Y168666D01*
X270646Y167000D01*
X270978Y165334D01*
X271922Y163922D01*
X273334Y162978D01*
X275000Y162646D01*
X276666Y162978D01*
X278078Y163922D01*
X279022Y165334D01*
X279354Y167000D01*
X279022Y168666D01*
X278078Y170079D01*
X276666Y171022D01*
X275000Y171354D01*
D02*
G37*
G36*
X50000D02*
X48334Y171022D01*
X46922Y170079D01*
X45978Y168666D01*
X45646Y167000D01*
X45978Y165334D01*
X46922Y163922D01*
X48334Y162978D01*
X50000Y162646D01*
X51666Y162978D01*
X53078Y163922D01*
X54022Y165334D01*
X54354Y167000D01*
X54022Y168666D01*
X53078Y170079D01*
X51666Y171022D01*
X50000Y171354D01*
D02*
G37*
G36*
X35000D02*
X33334Y171022D01*
X31922Y170079D01*
X30978Y168666D01*
X30646Y167000D01*
X30978Y165334D01*
X31922Y163922D01*
X33334Y162978D01*
X35000Y162646D01*
X36666Y162978D01*
X38078Y163922D01*
X39022Y165334D01*
X39354Y167000D01*
X39022Y168666D01*
X38078Y170079D01*
X36666Y171022D01*
X35000Y171354D01*
D02*
G37*
G36*
X20000D02*
X18334Y171022D01*
X16922Y170079D01*
X15978Y168666D01*
X15646Y167000D01*
X15978Y165334D01*
X16922Y163922D01*
X18334Y162978D01*
X20000Y162646D01*
X21666Y162978D01*
X23078Y163922D01*
X24022Y165334D01*
X24354Y167000D01*
X24022Y168666D01*
X23078Y170079D01*
X21666Y171022D01*
X20000Y171354D01*
D02*
G37*
G36*
X156450Y167634D02*
X154784Y167302D01*
X153371Y166359D01*
X152427Y164946D01*
X152096Y163280D01*
X152427Y161614D01*
X153371Y160201D01*
X154784Y159258D01*
X156450Y158926D01*
X158116Y159258D01*
X159528Y160201D01*
X160472Y161614D01*
X160803Y163280D01*
X160472Y164946D01*
X159528Y166359D01*
X158116Y167302D01*
X156450Y167634D01*
D02*
G37*
G36*
X380000Y156354D02*
X378334Y156022D01*
X376922Y155078D01*
X375978Y153666D01*
X375646Y152000D01*
X375978Y150334D01*
X376922Y148921D01*
X378334Y147978D01*
X380000Y147646D01*
X381666Y147978D01*
X383078Y148921D01*
X384022Y150334D01*
X384354Y152000D01*
X384022Y153666D01*
X383078Y155078D01*
X381666Y156022D01*
X380000Y156354D01*
D02*
G37*
G36*
X365000D02*
X363334Y156022D01*
X361922Y155078D01*
X360978Y153666D01*
X360646Y152000D01*
X360978Y150334D01*
X361922Y148921D01*
X363334Y147978D01*
X365000Y147646D01*
X366666Y147978D01*
X368078Y148921D01*
X369022Y150334D01*
X369354Y152000D01*
X369022Y153666D01*
X368078Y155078D01*
X366666Y156022D01*
X365000Y156354D01*
D02*
G37*
G36*
X350000D02*
X348334Y156022D01*
X346922Y155078D01*
X345978Y153666D01*
X345646Y152000D01*
X345978Y150334D01*
X346922Y148921D01*
X348334Y147978D01*
X350000Y147646D01*
X351666Y147978D01*
X353078Y148921D01*
X354022Y150334D01*
X354354Y152000D01*
X354022Y153666D01*
X353078Y155078D01*
X351666Y156022D01*
X350000Y156354D01*
D02*
G37*
G36*
X335000D02*
X333334Y156022D01*
X331922Y155078D01*
X330978Y153666D01*
X330646Y152000D01*
X330978Y150334D01*
X331922Y148921D01*
X333334Y147978D01*
X335000Y147646D01*
X336666Y147978D01*
X338078Y148921D01*
X339022Y150334D01*
X339354Y152000D01*
X339022Y153666D01*
X338078Y155078D01*
X336666Y156022D01*
X335000Y156354D01*
D02*
G37*
G36*
X320000D02*
X318334Y156022D01*
X316922Y155078D01*
X315978Y153666D01*
X315646Y152000D01*
X315978Y150334D01*
X316922Y148921D01*
X318334Y147978D01*
X320000Y147646D01*
X321666Y147978D01*
X323078Y148921D01*
X324022Y150334D01*
X324354Y152000D01*
X324022Y153666D01*
X323078Y155078D01*
X321666Y156022D01*
X320000Y156354D01*
D02*
G37*
G36*
X305000D02*
X303334Y156022D01*
X301922Y155078D01*
X300978Y153666D01*
X300646Y152000D01*
X300978Y150334D01*
X301922Y148921D01*
X303334Y147978D01*
X305000Y147646D01*
X306666Y147978D01*
X308078Y148921D01*
X309022Y150334D01*
X309354Y152000D01*
X309022Y153666D01*
X308078Y155078D01*
X306666Y156022D01*
X305000Y156354D01*
D02*
G37*
G36*
X290000D02*
X288334Y156022D01*
X286922Y155078D01*
X285978Y153666D01*
X285646Y152000D01*
X285978Y150334D01*
X286922Y148921D01*
X288334Y147978D01*
X290000Y147646D01*
X291666Y147978D01*
X293078Y148921D01*
X294022Y150334D01*
X294354Y152000D01*
X294022Y153666D01*
X293078Y155078D01*
X291666Y156022D01*
X290000Y156354D01*
D02*
G37*
G36*
X275000D02*
X273334Y156022D01*
X271922Y155078D01*
X270978Y153666D01*
X270646Y152000D01*
X270978Y150334D01*
X271922Y148921D01*
X273334Y147978D01*
X275000Y147646D01*
X276666Y147978D01*
X278078Y148921D01*
X279022Y150334D01*
X279354Y152000D01*
X279022Y153666D01*
X278078Y155078D01*
X276666Y156022D01*
X275000Y156354D01*
D02*
G37*
G36*
X155000D02*
X153334Y156022D01*
X151922Y155078D01*
X150978Y153666D01*
X150646Y152000D01*
X150978Y150334D01*
X151922Y148921D01*
X153334Y147978D01*
X155000Y147646D01*
X156666Y147978D01*
X158078Y148921D01*
X159022Y150334D01*
X159354Y152000D01*
X159022Y153666D01*
X158078Y155078D01*
X156666Y156022D01*
X155000Y156354D01*
D02*
G37*
G36*
X134500Y190604D02*
X132834Y190272D01*
X131421Y189328D01*
X130478Y187916D01*
X130146Y186250D01*
X130478Y184584D01*
X131421Y183172D01*
X132430Y182498D01*
Y162003D01*
X131421Y161329D01*
X130478Y159916D01*
X130146Y158250D01*
X130478Y156584D01*
X131421Y155171D01*
X132834Y154228D01*
X134500Y153896D01*
X134754Y153947D01*
X135818Y152864D01*
X135646Y152000D01*
X135978Y150334D01*
X136922Y148921D01*
X138334Y147978D01*
X140000Y147646D01*
X141666Y147978D01*
X143078Y148921D01*
X144022Y150334D01*
X144354Y152000D01*
X144022Y153666D01*
X143078Y155078D01*
X141666Y156022D01*
X140000Y156354D01*
X139746Y156303D01*
X138682Y157386D01*
X138854Y158250D01*
X138522Y159916D01*
X137578Y161329D01*
X136570Y162003D01*
Y182498D01*
X137578Y183172D01*
X138522Y184584D01*
X138854Y186250D01*
X138522Y187916D01*
X137578Y189328D01*
X136166Y190272D01*
X134500Y190604D01*
D02*
G37*
G36*
X125000Y156354D02*
X123334Y156022D01*
X121922Y155078D01*
X120978Y153666D01*
X120646Y152000D01*
X120978Y150334D01*
X121922Y148921D01*
X123334Y147978D01*
X125000Y147646D01*
X126666Y147978D01*
X128078Y148921D01*
X129022Y150334D01*
X129354Y152000D01*
X129022Y153666D01*
X128078Y155078D01*
X126666Y156022D01*
X125000Y156354D01*
D02*
G37*
G36*
X110000D02*
X108334Y156022D01*
X106922Y155078D01*
X105978Y153666D01*
X105646Y152000D01*
X105978Y150334D01*
X106922Y148921D01*
X108334Y147978D01*
X110000Y147646D01*
X111666Y147978D01*
X113078Y148921D01*
X114022Y150334D01*
X114354Y152000D01*
X114022Y153666D01*
X113078Y155078D01*
X111666Y156022D01*
X110000Y156354D01*
D02*
G37*
G36*
X95000D02*
X93334Y156022D01*
X91922Y155078D01*
X90978Y153666D01*
X90646Y152000D01*
X90978Y150334D01*
X91922Y148921D01*
X93334Y147978D01*
X95000Y147646D01*
X96666Y147978D01*
X98078Y148921D01*
X99022Y150334D01*
X99354Y152000D01*
X99022Y153666D01*
X98078Y155078D01*
X96666Y156022D01*
X95000Y156354D01*
D02*
G37*
G36*
X80000D02*
X78334Y156022D01*
X76922Y155078D01*
X75978Y153666D01*
X75646Y152000D01*
X75978Y150334D01*
X76922Y148921D01*
X78334Y147978D01*
X80000Y147646D01*
X81666Y147978D01*
X83078Y148921D01*
X84022Y150334D01*
X84354Y152000D01*
X84022Y153666D01*
X83078Y155078D01*
X81666Y156022D01*
X80000Y156354D01*
D02*
G37*
G36*
X65000D02*
X63334Y156022D01*
X61922Y155078D01*
X60978Y153666D01*
X60646Y152000D01*
X60978Y150334D01*
X61922Y148921D01*
X63334Y147978D01*
X65000Y147646D01*
X66666Y147978D01*
X68078Y148921D01*
X69022Y150334D01*
X69354Y152000D01*
X69022Y153666D01*
X68078Y155078D01*
X66666Y156022D01*
X65000Y156354D01*
D02*
G37*
G36*
X50000D02*
X48334Y156022D01*
X46922Y155078D01*
X45978Y153666D01*
X45646Y152000D01*
X45978Y150334D01*
X46922Y148921D01*
X48334Y147978D01*
X50000Y147646D01*
X51666Y147978D01*
X53078Y148921D01*
X54022Y150334D01*
X54354Y152000D01*
X54022Y153666D01*
X53078Y155078D01*
X51666Y156022D01*
X50000Y156354D01*
D02*
G37*
G36*
X35000D02*
X33334Y156022D01*
X31922Y155078D01*
X30978Y153666D01*
X30646Y152000D01*
X30978Y150334D01*
X31922Y148921D01*
X33334Y147978D01*
X35000Y147646D01*
X36666Y147978D01*
X38078Y148921D01*
X39022Y150334D01*
X39354Y152000D01*
X39022Y153666D01*
X38078Y155078D01*
X36666Y156022D01*
X35000Y156354D01*
D02*
G37*
G36*
X20000D02*
X18334Y156022D01*
X16922Y155078D01*
X15978Y153666D01*
X15646Y152000D01*
X15978Y150334D01*
X16922Y148921D01*
X18334Y147978D01*
X20000Y147646D01*
X21666Y147978D01*
X23078Y148921D01*
X24022Y150334D01*
X24354Y152000D01*
X24022Y153666D01*
X23078Y155078D01*
X21666Y156022D01*
X20000Y156354D01*
D02*
G37*
G36*
X204250Y152354D02*
X202584Y152022D01*
X201171Y151079D01*
X200228Y149666D01*
X199896Y148000D01*
X200228Y146334D01*
X201171Y144922D01*
X202584Y143978D01*
X204250Y143646D01*
X205916Y143978D01*
X207328Y144922D01*
X208272Y146334D01*
X208604Y148000D01*
X208272Y149666D01*
X207328Y151079D01*
X205916Y152022D01*
X204250Y152354D01*
D02*
G37*
G36*
X192250Y145225D02*
X190584Y144893D01*
X189172Y143949D01*
X188228Y142537D01*
X187896Y140871D01*
X188228Y139205D01*
X189172Y137793D01*
X190584Y136849D01*
X192250Y136517D01*
X193916Y136849D01*
X195329Y137793D01*
X196272Y139205D01*
X196604Y140871D01*
X196272Y142537D01*
X195329Y143949D01*
X193916Y144893D01*
X192250Y145225D01*
D02*
G37*
G36*
X380000Y141354D02*
X378334Y141022D01*
X376922Y140078D01*
X375978Y138666D01*
X375646Y137000D01*
X375978Y135334D01*
X376922Y133921D01*
X378334Y132978D01*
X380000Y132646D01*
X381666Y132978D01*
X383078Y133921D01*
X384022Y135334D01*
X384354Y137000D01*
X384022Y138666D01*
X383078Y140078D01*
X381666Y141022D01*
X380000Y141354D01*
D02*
G37*
G36*
X365000D02*
X363334Y141022D01*
X361922Y140078D01*
X360978Y138666D01*
X360646Y137000D01*
X360978Y135334D01*
X361922Y133921D01*
X363334Y132978D01*
X365000Y132646D01*
X366666Y132978D01*
X368078Y133921D01*
X369022Y135334D01*
X369354Y137000D01*
X369022Y138666D01*
X368078Y140078D01*
X366666Y141022D01*
X365000Y141354D01*
D02*
G37*
G36*
X350000D02*
X348334Y141022D01*
X346922Y140078D01*
X345978Y138666D01*
X345646Y137000D01*
X345978Y135334D01*
X346922Y133921D01*
X348334Y132978D01*
X350000Y132646D01*
X351666Y132978D01*
X353078Y133921D01*
X354022Y135334D01*
X354354Y137000D01*
X354022Y138666D01*
X353078Y140078D01*
X351666Y141022D01*
X350000Y141354D01*
D02*
G37*
G36*
X335000D02*
X333334Y141022D01*
X331922Y140078D01*
X330978Y138666D01*
X330646Y137000D01*
X330978Y135334D01*
X331922Y133921D01*
X333334Y132978D01*
X335000Y132646D01*
X336666Y132978D01*
X338078Y133921D01*
X339022Y135334D01*
X339354Y137000D01*
X339022Y138666D01*
X338078Y140078D01*
X336666Y141022D01*
X335000Y141354D01*
D02*
G37*
G36*
X320000D02*
X318334Y141022D01*
X316922Y140078D01*
X315978Y138666D01*
X315646Y137000D01*
X315978Y135334D01*
X316922Y133921D01*
X318334Y132978D01*
X320000Y132646D01*
X321666Y132978D01*
X323078Y133921D01*
X324022Y135334D01*
X324354Y137000D01*
X324022Y138666D01*
X323078Y140078D01*
X321666Y141022D01*
X320000Y141354D01*
D02*
G37*
G36*
X305000D02*
X303334Y141022D01*
X301922Y140078D01*
X300978Y138666D01*
X300646Y137000D01*
X300978Y135334D01*
X301922Y133921D01*
X303334Y132978D01*
X305000Y132646D01*
X306666Y132978D01*
X308078Y133921D01*
X309022Y135334D01*
X309354Y137000D01*
X309022Y138666D01*
X308078Y140078D01*
X306666Y141022D01*
X305000Y141354D01*
D02*
G37*
G36*
X290000D02*
X288334Y141022D01*
X286922Y140078D01*
X285978Y138666D01*
X285646Y137000D01*
X285978Y135334D01*
X286922Y133921D01*
X288334Y132978D01*
X290000Y132646D01*
X291666Y132978D01*
X293078Y133921D01*
X294022Y135334D01*
X294354Y137000D01*
X294022Y138666D01*
X293078Y140078D01*
X291666Y141022D01*
X290000Y141354D01*
D02*
G37*
G36*
X275000D02*
X273334Y141022D01*
X271922Y140078D01*
X270978Y138666D01*
X270646Y137000D01*
X270978Y135334D01*
X271922Y133921D01*
X273334Y132978D01*
X275000Y132646D01*
X276666Y132978D01*
X278078Y133921D01*
X279022Y135334D01*
X279354Y137000D01*
X279022Y138666D01*
X278078Y140078D01*
X276666Y141022D01*
X275000Y141354D01*
D02*
G37*
G36*
X260000D02*
X258334Y141022D01*
X256922Y140078D01*
X255978Y138666D01*
X255646Y137000D01*
X255978Y135334D01*
X256922Y133921D01*
X258334Y132978D01*
X260000Y132646D01*
X261666Y132978D01*
X263078Y133921D01*
X264022Y135334D01*
X264354Y137000D01*
X264022Y138666D01*
X263078Y140078D01*
X261666Y141022D01*
X260000Y141354D01*
D02*
G37*
G36*
X245000D02*
X243334Y141022D01*
X241922Y140078D01*
X240978Y138666D01*
X240646Y137000D01*
X240978Y135334D01*
X241922Y133921D01*
X243334Y132978D01*
X245000Y132646D01*
X246666Y132978D01*
X248078Y133921D01*
X249022Y135334D01*
X249354Y137000D01*
X249022Y138666D01*
X248078Y140078D01*
X246666Y141022D01*
X245000Y141354D01*
D02*
G37*
G36*
X140000D02*
X138334Y141022D01*
X136922Y140078D01*
X135978Y138666D01*
X135646Y137000D01*
X135978Y135334D01*
X136922Y133921D01*
X138334Y132978D01*
X140000Y132646D01*
X141666Y132978D01*
X143078Y133921D01*
X144022Y135334D01*
X144354Y137000D01*
X144022Y138666D01*
X143078Y140078D01*
X141666Y141022D01*
X140000Y141354D01*
D02*
G37*
G36*
X125000D02*
X123334Y141022D01*
X121922Y140078D01*
X120978Y138666D01*
X120646Y137000D01*
X120978Y135334D01*
X121922Y133921D01*
X123334Y132978D01*
X125000Y132646D01*
X126666Y132978D01*
X128078Y133921D01*
X129022Y135334D01*
X129354Y137000D01*
X129022Y138666D01*
X128078Y140078D01*
X126666Y141022D01*
X125000Y141354D01*
D02*
G37*
G36*
X110000D02*
X108334Y141022D01*
X106922Y140078D01*
X105978Y138666D01*
X105646Y137000D01*
X105978Y135334D01*
X106922Y133921D01*
X108334Y132978D01*
X110000Y132646D01*
X111666Y132978D01*
X113078Y133921D01*
X114022Y135334D01*
X114354Y137000D01*
X114022Y138666D01*
X113078Y140078D01*
X111666Y141022D01*
X110000Y141354D01*
D02*
G37*
G36*
X95000D02*
X93334Y141022D01*
X91922Y140078D01*
X90978Y138666D01*
X90646Y137000D01*
X90978Y135334D01*
X91922Y133921D01*
X93334Y132978D01*
X95000Y132646D01*
X96666Y132978D01*
X98078Y133921D01*
X99022Y135334D01*
X99354Y137000D01*
X99022Y138666D01*
X98078Y140078D01*
X96666Y141022D01*
X95000Y141354D01*
D02*
G37*
G36*
X80000D02*
X78334Y141022D01*
X76922Y140078D01*
X75978Y138666D01*
X75646Y137000D01*
X75978Y135334D01*
X76922Y133921D01*
X78334Y132978D01*
X80000Y132646D01*
X81666Y132978D01*
X83078Y133921D01*
X84022Y135334D01*
X84354Y137000D01*
X84022Y138666D01*
X83078Y140078D01*
X81666Y141022D01*
X80000Y141354D01*
D02*
G37*
G36*
X65000D02*
X63334Y141022D01*
X61922Y140078D01*
X60978Y138666D01*
X60646Y137000D01*
X60978Y135334D01*
X61922Y133921D01*
X63334Y132978D01*
X65000Y132646D01*
X66666Y132978D01*
X68078Y133921D01*
X69022Y135334D01*
X69354Y137000D01*
X69022Y138666D01*
X68078Y140078D01*
X66666Y141022D01*
X65000Y141354D01*
D02*
G37*
G36*
X50000D02*
X48334Y141022D01*
X46922Y140078D01*
X45978Y138666D01*
X45646Y137000D01*
X45978Y135334D01*
X46922Y133921D01*
X48334Y132978D01*
X50000Y132646D01*
X51666Y132978D01*
X53078Y133921D01*
X54022Y135334D01*
X54354Y137000D01*
X54022Y138666D01*
X53078Y140078D01*
X51666Y141022D01*
X50000Y141354D01*
D02*
G37*
G36*
X35000D02*
X33334Y141022D01*
X31922Y140078D01*
X30978Y138666D01*
X30646Y137000D01*
X30978Y135334D01*
X31922Y133921D01*
X33334Y132978D01*
X35000Y132646D01*
X36666Y132978D01*
X38078Y133921D01*
X39022Y135334D01*
X39354Y137000D01*
X39022Y138666D01*
X38078Y140078D01*
X36666Y141022D01*
X35000Y141354D01*
D02*
G37*
G36*
X20000D02*
X18334Y141022D01*
X16922Y140078D01*
X15978Y138666D01*
X15646Y137000D01*
X15978Y135334D01*
X16922Y133921D01*
X18334Y132978D01*
X20000Y132646D01*
X21666Y132978D01*
X23078Y133921D01*
X24022Y135334D01*
X24354Y137000D01*
X24022Y138666D01*
X23078Y140078D01*
X21666Y141022D01*
X20000Y141354D01*
D02*
G37*
G36*
X161000Y130854D02*
X159334Y130522D01*
X157921Y129579D01*
X156978Y128166D01*
X156785Y127195D01*
X156646Y126500D01*
X155405Y126273D01*
X155000Y126354D01*
X153334Y126022D01*
X151922Y125078D01*
X150978Y123666D01*
X150646Y122000D01*
X150978Y120334D01*
X151922Y118921D01*
X153334Y117978D01*
X155000Y117646D01*
X156666Y117978D01*
X158078Y118921D01*
X159022Y120334D01*
X159215Y121305D01*
X159354Y122000D01*
X160595Y122227D01*
X161000Y122146D01*
X162666Y122478D01*
X164079Y123421D01*
X165022Y124834D01*
X165354Y126500D01*
X165022Y128166D01*
X164079Y129579D01*
X162666Y130522D01*
X161000Y130854D01*
D02*
G37*
G36*
X365000Y126354D02*
X363334Y126022D01*
X361922Y125078D01*
X360978Y123666D01*
X360646Y122000D01*
X360978Y120334D01*
X361922Y118921D01*
X363334Y117978D01*
X365000Y117646D01*
X366666Y117978D01*
X368078Y118921D01*
X369022Y120334D01*
X369354Y122000D01*
X369022Y123666D01*
X368078Y125078D01*
X366666Y126022D01*
X365000Y126354D01*
D02*
G37*
G36*
X350000D02*
X348334Y126022D01*
X346922Y125078D01*
X345978Y123666D01*
X345646Y122000D01*
X345978Y120334D01*
X346922Y118921D01*
X348334Y117978D01*
X350000Y117646D01*
X351666Y117978D01*
X353078Y118921D01*
X354022Y120334D01*
X354354Y122000D01*
X354022Y123666D01*
X353078Y125078D01*
X351666Y126022D01*
X350000Y126354D01*
D02*
G37*
G36*
X335000D02*
X333334Y126022D01*
X331922Y125078D01*
X330978Y123666D01*
X330646Y122000D01*
X330978Y120334D01*
X331922Y118921D01*
X333334Y117978D01*
X335000Y117646D01*
X336666Y117978D01*
X338078Y118921D01*
X339022Y120334D01*
X339354Y122000D01*
X339022Y123666D01*
X338078Y125078D01*
X336666Y126022D01*
X335000Y126354D01*
D02*
G37*
G36*
X320000D02*
X318334Y126022D01*
X316922Y125078D01*
X315978Y123666D01*
X315646Y122000D01*
X315978Y120334D01*
X316922Y118921D01*
X318334Y117978D01*
X320000Y117646D01*
X321666Y117978D01*
X323078Y118921D01*
X324022Y120334D01*
X324354Y122000D01*
X324022Y123666D01*
X323078Y125078D01*
X321666Y126022D01*
X320000Y126354D01*
D02*
G37*
G36*
X305000D02*
X303334Y126022D01*
X301922Y125078D01*
X300978Y123666D01*
X300646Y122000D01*
X300978Y120334D01*
X301922Y118921D01*
X303334Y117978D01*
X305000Y117646D01*
X306666Y117978D01*
X308078Y118921D01*
X309022Y120334D01*
X309354Y122000D01*
X309022Y123666D01*
X308078Y125078D01*
X306666Y126022D01*
X305000Y126354D01*
D02*
G37*
G36*
X290000D02*
X288334Y126022D01*
X286922Y125078D01*
X285978Y123666D01*
X285646Y122000D01*
X285978Y120334D01*
X286922Y118921D01*
X288334Y117978D01*
X290000Y117646D01*
X291666Y117978D01*
X293078Y118921D01*
X294022Y120334D01*
X294354Y122000D01*
X294022Y123666D01*
X293078Y125078D01*
X291666Y126022D01*
X290000Y126354D01*
D02*
G37*
G36*
X275000D02*
X273334Y126022D01*
X271922Y125078D01*
X270978Y123666D01*
X270646Y122000D01*
X270978Y120334D01*
X271922Y118921D01*
X273334Y117978D01*
X275000Y117646D01*
X276666Y117978D01*
X278078Y118921D01*
X279022Y120334D01*
X279354Y122000D01*
X279022Y123666D01*
X278078Y125078D01*
X276666Y126022D01*
X275000Y126354D01*
D02*
G37*
G36*
X125000D02*
X123334Y126022D01*
X121922Y125078D01*
X120978Y123666D01*
X120646Y122000D01*
X120978Y120334D01*
X121922Y118921D01*
X123334Y117978D01*
X125000Y117646D01*
X126666Y117978D01*
X128078Y118921D01*
X129022Y120334D01*
X129354Y122000D01*
X129022Y123666D01*
X128078Y125078D01*
X126666Y126022D01*
X125000Y126354D01*
D02*
G37*
G36*
X110000D02*
X108334Y126022D01*
X106922Y125078D01*
X105978Y123666D01*
X105646Y122000D01*
X105978Y120334D01*
X106922Y118921D01*
X108334Y117978D01*
X110000Y117646D01*
X111666Y117978D01*
X113078Y118921D01*
X114022Y120334D01*
X114354Y122000D01*
X114022Y123666D01*
X113078Y125078D01*
X111666Y126022D01*
X110000Y126354D01*
D02*
G37*
G36*
X95000D02*
X93334Y126022D01*
X91922Y125078D01*
X90978Y123666D01*
X90646Y122000D01*
X90978Y120334D01*
X91922Y118921D01*
X93334Y117978D01*
X95000Y117646D01*
X96666Y117978D01*
X98078Y118921D01*
X99022Y120334D01*
X99354Y122000D01*
X99022Y123666D01*
X98078Y125078D01*
X96666Y126022D01*
X95000Y126354D01*
D02*
G37*
G36*
X80000D02*
X78334Y126022D01*
X76922Y125078D01*
X75978Y123666D01*
X75646Y122000D01*
X75978Y120334D01*
X76922Y118921D01*
X78334Y117978D01*
X80000Y117646D01*
X81666Y117978D01*
X83078Y118921D01*
X84022Y120334D01*
X84354Y122000D01*
X84022Y123666D01*
X83078Y125078D01*
X81666Y126022D01*
X80000Y126354D01*
D02*
G37*
G36*
X65000D02*
X63334Y126022D01*
X61922Y125078D01*
X60978Y123666D01*
X60646Y122000D01*
X60978Y120334D01*
X61922Y118921D01*
X63334Y117978D01*
X65000Y117646D01*
X66666Y117978D01*
X68078Y118921D01*
X69022Y120334D01*
X69354Y122000D01*
X69022Y123666D01*
X68078Y125078D01*
X66666Y126022D01*
X65000Y126354D01*
D02*
G37*
G36*
X50000D02*
X48334Y126022D01*
X46922Y125078D01*
X45978Y123666D01*
X45646Y122000D01*
X45978Y120334D01*
X46922Y118921D01*
X48334Y117978D01*
X50000Y117646D01*
X51666Y117978D01*
X53078Y118921D01*
X54022Y120334D01*
X54354Y122000D01*
X54022Y123666D01*
X53078Y125078D01*
X51666Y126022D01*
X50000Y126354D01*
D02*
G37*
G36*
X35000D02*
X33334Y126022D01*
X31922Y125078D01*
X30978Y123666D01*
X30646Y122000D01*
X30978Y120334D01*
X31922Y118921D01*
X33334Y117978D01*
X35000Y117646D01*
X36666Y117978D01*
X38078Y118921D01*
X39022Y120334D01*
X39354Y122000D01*
X39022Y123666D01*
X38078Y125078D01*
X36666Y126022D01*
X35000Y126354D01*
D02*
G37*
G36*
X20000D02*
X18334Y126022D01*
X16922Y125078D01*
X15978Y123666D01*
X15646Y122000D01*
X15978Y120334D01*
X16922Y118921D01*
X18334Y117978D01*
X20000Y117646D01*
X21666Y117978D01*
X23078Y118921D01*
X24022Y120334D01*
X24354Y122000D01*
X24022Y123666D01*
X23078Y125078D01*
X21666Y126022D01*
X20000Y126354D01*
D02*
G37*
G36*
X232000Y124604D02*
X230334Y124272D01*
X228922Y123329D01*
X227978Y121916D01*
X227646Y120250D01*
X227978Y118584D01*
X228922Y117171D01*
X230334Y116228D01*
X232000Y115896D01*
X233666Y116228D01*
X235079Y117171D01*
X236022Y118584D01*
X236354Y120250D01*
X236022Y121916D01*
X235079Y123329D01*
X233666Y124272D01*
X232000Y124604D01*
D02*
G37*
G36*
X191500Y124354D02*
X189834Y124022D01*
X188421Y123078D01*
X187478Y121666D01*
X187146Y120000D01*
X187478Y118334D01*
X188421Y116922D01*
X189430Y116248D01*
Y110341D01*
X188160Y109956D01*
X188078Y110078D01*
X186666Y111022D01*
X185000Y111354D01*
X183334Y111022D01*
X181922Y110078D01*
X180978Y108666D01*
X180646Y107000D01*
X180978Y105334D01*
X181922Y103921D01*
X183334Y102978D01*
X185000Y102646D01*
X186666Y102978D01*
X188078Y103921D01*
X188160Y104044D01*
X189430Y103659D01*
Y99750D01*
X189588Y98958D01*
X190036Y98286D01*
X210630Y77693D01*
Y51030D01*
X210215Y50975D01*
X207899Y50016D01*
X205910Y48490D01*
X205467Y47912D01*
X204109Y48229D01*
X204022Y48666D01*
X203078Y50079D01*
X201666Y51022D01*
X200000Y51354D01*
X198334Y51022D01*
X196922Y50079D01*
X195978Y48666D01*
X195891Y48229D01*
X194533Y47912D01*
X194090Y48490D01*
X192101Y50016D01*
X189785Y50975D01*
X187300Y51302D01*
X184815Y50975D01*
X182499Y50016D01*
X180510Y48490D01*
X178984Y46501D01*
X178025Y44185D01*
X177698Y41700D01*
X178025Y39215D01*
X178984Y36899D01*
X180510Y34910D01*
X182499Y33384D01*
X184815Y32425D01*
X187300Y32098D01*
X189785Y32425D01*
X192101Y33384D01*
X194090Y34910D01*
X195616Y36899D01*
X196575Y39215D01*
X196902Y41700D01*
X196800Y42475D01*
X197984Y43211D01*
X198334Y42978D01*
X200000Y42646D01*
X201666Y42978D01*
X202016Y43211D01*
X203200Y42475D01*
X203098Y41700D01*
X203425Y39215D01*
X204384Y36899D01*
X205910Y34910D01*
X207899Y33384D01*
X210215Y32425D01*
X212700Y32098D01*
X215185Y32425D01*
X217501Y33384D01*
X219490Y34910D01*
X221016Y36899D01*
X221975Y39215D01*
X222302Y41700D01*
X221975Y44185D01*
X221016Y46501D01*
X219490Y48490D01*
X217501Y50016D01*
X215185Y50975D01*
X214770Y51030D01*
Y76757D01*
X216040Y77283D01*
X226537Y66786D01*
X226864Y66568D01*
X227022Y65441D01*
X226951Y65098D01*
X226922Y65079D01*
X225978Y63666D01*
X225898Y63265D01*
X224550Y62997D01*
X224328Y63328D01*
X222916Y64272D01*
X221250Y64604D01*
X219584Y64272D01*
X218172Y63328D01*
X217228Y61916D01*
X216896Y60250D01*
X217228Y58584D01*
X218172Y57172D01*
X219584Y56228D01*
X221250Y55896D01*
X222916Y56228D01*
X224328Y57172D01*
X225272Y58584D01*
X225352Y58985D01*
X226700Y59253D01*
X226922Y58921D01*
X228334Y57978D01*
X230000Y57646D01*
X231666Y57978D01*
X233078Y58921D01*
X234022Y60334D01*
X234302Y61739D01*
X235076Y62227D01*
X235572Y62383D01*
X236030Y62049D01*
Y51030D01*
X235615Y50975D01*
X233299Y50016D01*
X231310Y48490D01*
X229784Y46501D01*
X228825Y44185D01*
X228498Y41700D01*
X228825Y39215D01*
X229514Y37552D01*
X228932Y36227D01*
X228787Y36112D01*
X228334Y36022D01*
X226922Y35078D01*
X225978Y33666D01*
X225646Y32000D01*
X225978Y30334D01*
X226922Y28921D01*
X228334Y27978D01*
X230000Y27646D01*
X231666Y27978D01*
X233078Y28921D01*
X234022Y30334D01*
X234275Y31605D01*
X235452Y32492D01*
X235615Y32425D01*
X238100Y32098D01*
X240585Y32425D01*
X242901Y33384D01*
X244890Y34910D01*
X246416Y36899D01*
X247375Y39215D01*
X247702Y41700D01*
X247375Y44185D01*
X246416Y46501D01*
X244890Y48490D01*
X242901Y50016D01*
X240585Y50975D01*
X240170Y51030D01*
Y59257D01*
X241440Y59643D01*
X241922Y58921D01*
X243334Y57978D01*
X245000Y57646D01*
X246666Y57978D01*
X248078Y58921D01*
X249022Y60334D01*
X249354Y62000D01*
X249022Y63666D01*
X248078Y65079D01*
X246666Y66022D01*
X245000Y66354D01*
X243334Y66022D01*
X241922Y65079D01*
X241312Y64167D01*
X240648Y64180D01*
X239915Y64338D01*
X239564Y64864D01*
X234713Y69714D01*
X234042Y70162D01*
X233250Y70320D01*
X228857D01*
X226504Y72673D01*
X227314Y73659D01*
X227554Y73499D01*
X228334Y72978D01*
X230000Y72646D01*
X231666Y72978D01*
X233078Y73921D01*
X234022Y75334D01*
X234354Y77000D01*
X234022Y78666D01*
X233078Y80078D01*
X231666Y81022D01*
X230000Y81354D01*
X228334Y81022D01*
X226922Y80078D01*
X225978Y78666D01*
X225646Y77000D01*
X225978Y75334D01*
X226499Y74554D01*
X226659Y74314D01*
X225673Y73504D01*
X203320Y95857D01*
Y101248D01*
X204328Y101922D01*
X205272Y103334D01*
X205604Y105000D01*
X205272Y106666D01*
X204328Y108078D01*
X202916Y109022D01*
X202222Y109160D01*
X202347Y110430D01*
X223393D01*
X250930Y82893D01*
Y63500D01*
X251088Y62708D01*
X251537Y62036D01*
X261291Y52282D01*
X261143Y50992D01*
X261015Y50975D01*
X258699Y50016D01*
X256710Y48490D01*
X255184Y46501D01*
X254225Y44185D01*
X253898Y41700D01*
X254225Y39215D01*
X255184Y36899D01*
X256710Y34910D01*
X258699Y33384D01*
X261015Y32425D01*
X263500Y32098D01*
X265985Y32425D01*
X268301Y33384D01*
X270290Y34910D01*
X271289Y34133D01*
X270978Y33666D01*
X270646Y32000D01*
X270978Y30334D01*
X271922Y28921D01*
X273334Y27978D01*
X275000Y27646D01*
X276666Y27978D01*
X278078Y28921D01*
X279022Y30334D01*
X279354Y32000D01*
X280586Y32180D01*
X288138D01*
Y41700D01*
Y51220D01*
X279380D01*
Y50416D01*
X278110Y50031D01*
X278078Y50079D01*
X276666Y51022D01*
X275000Y51354D01*
X273334Y51022D01*
X271922Y50079D01*
X271340Y49208D01*
X271185Y49102D01*
X269943Y48874D01*
X269734Y48916D01*
X268301Y50016D01*
X265985Y50975D01*
X265570Y51030D01*
Y53000D01*
X265412Y53792D01*
X264964Y54464D01*
X255070Y64357D01*
Y74407D01*
X256340Y74792D01*
X256922Y73921D01*
X258334Y72978D01*
X260000Y72646D01*
X261666Y72978D01*
X263078Y73921D01*
X264022Y75334D01*
X264354Y77000D01*
X264022Y78666D01*
X263078Y80078D01*
X261666Y81022D01*
X260000Y81354D01*
X258334Y81022D01*
X256922Y80078D01*
X256340Y79208D01*
X255070Y79593D01*
Y83750D01*
X254912Y84542D01*
X254464Y85213D01*
X225714Y113964D01*
X225042Y114412D01*
X224250Y114570D01*
X201252D01*
X200578Y115578D01*
X199166Y116522D01*
X197500Y116854D01*
X195840Y116523D01*
X195819Y116538D01*
X194928Y117444D01*
X195522Y118334D01*
X195854Y120000D01*
X195522Y121666D01*
X194578Y123078D01*
X193166Y124022D01*
X191500Y124354D01*
D02*
G37*
G36*
X170000Y111354D02*
X168334Y111022D01*
X166922Y110078D01*
X165978Y108666D01*
X165646Y107000D01*
X165978Y105334D01*
X166922Y103921D01*
X168334Y102978D01*
X170000Y102646D01*
X171666Y102978D01*
X173078Y103921D01*
X174022Y105334D01*
X174354Y107000D01*
X174022Y108666D01*
X173078Y110078D01*
X171666Y111022D01*
X170000Y111354D01*
D02*
G37*
G36*
X155000D02*
X153334Y111022D01*
X151922Y110078D01*
X150978Y108666D01*
X150646Y107000D01*
X150978Y105334D01*
X151922Y103921D01*
X153334Y102978D01*
X155000Y102646D01*
X156666Y102978D01*
X158078Y103921D01*
X159022Y105334D01*
X159354Y107000D01*
X159022Y108666D01*
X158078Y110078D01*
X156666Y111022D01*
X155000Y111354D01*
D02*
G37*
G36*
X140000D02*
X138334Y111022D01*
X136922Y110078D01*
X135978Y108666D01*
X135646Y107000D01*
X135978Y105334D01*
X136922Y103921D01*
X138334Y102978D01*
X140000Y102646D01*
X141666Y102978D01*
X143078Y103921D01*
X144022Y105334D01*
X144354Y107000D01*
X144022Y108666D01*
X143078Y110078D01*
X141666Y111022D01*
X140000Y111354D01*
D02*
G37*
G36*
X80000D02*
X78334Y111022D01*
X76922Y110078D01*
X75978Y108666D01*
X75646Y107000D01*
X75978Y105334D01*
X76922Y103921D01*
X78334Y102978D01*
X80000Y102646D01*
X81666Y102978D01*
X83078Y103921D01*
X84022Y105334D01*
X84354Y107000D01*
X84022Y108666D01*
X83078Y110078D01*
X81666Y111022D01*
X80000Y111354D01*
D02*
G37*
G36*
X50000D02*
X48334Y111022D01*
X46922Y110078D01*
X45978Y108666D01*
X45646Y107000D01*
X45978Y105334D01*
X46922Y103921D01*
X48334Y102978D01*
X50000Y102646D01*
X51666Y102978D01*
X53078Y103921D01*
X54022Y105334D01*
X54354Y107000D01*
X54022Y108666D01*
X53078Y110078D01*
X51666Y111022D01*
X50000Y111354D01*
D02*
G37*
G36*
X35000D02*
X33334Y111022D01*
X31922Y110078D01*
X30978Y108666D01*
X30646Y107000D01*
X30978Y105334D01*
X31922Y103921D01*
X33334Y102978D01*
X35000Y102646D01*
X36666Y102978D01*
X38078Y103921D01*
X39022Y105334D01*
X39354Y107000D01*
X39022Y108666D01*
X38078Y110078D01*
X36666Y111022D01*
X35000Y111354D01*
D02*
G37*
G36*
X20000D02*
X18334Y111022D01*
X16922Y110078D01*
X15978Y108666D01*
X15646Y107000D01*
X15978Y105334D01*
X16922Y103921D01*
X18334Y102978D01*
X20000Y102646D01*
X21666Y102978D01*
X23078Y103921D01*
X24022Y105334D01*
X24354Y107000D01*
X24022Y108666D01*
X23078Y110078D01*
X21666Y111022D01*
X20000Y111354D01*
D02*
G37*
G36*
X215000Y106604D02*
X213334Y106272D01*
X211922Y105329D01*
X210978Y103916D01*
X210646Y102250D01*
X210978Y100584D01*
X211922Y99171D01*
X213334Y98228D01*
X215000Y97896D01*
X216666Y98228D01*
X218078Y99171D01*
X219022Y100584D01*
X219354Y102250D01*
X219022Y103916D01*
X218078Y105329D01*
X216666Y106272D01*
X215000Y106604D01*
D02*
G37*
G36*
X275473Y99284D02*
X273807Y98952D01*
X272394Y98008D01*
X271451Y96596D01*
X271119Y94930D01*
X271451Y93264D01*
X272394Y91852D01*
X273807Y90908D01*
X275473Y90576D01*
X277139Y90908D01*
X278551Y91852D01*
X279495Y93264D01*
X279827Y94930D01*
X279495Y96596D01*
X278551Y98008D01*
X277139Y98952D01*
X275473Y99284D01*
D02*
G37*
G36*
X185000Y96354D02*
X183334Y96022D01*
X181922Y95078D01*
X180978Y93666D01*
X180646Y92000D01*
X180978Y90334D01*
X181922Y88921D01*
X183334Y87978D01*
X185000Y87646D01*
X186666Y87978D01*
X188078Y88921D01*
X189022Y90334D01*
X189354Y92000D01*
X189022Y93666D01*
X188078Y95078D01*
X186666Y96022D01*
X185000Y96354D01*
D02*
G37*
G36*
X170000D02*
X168334Y96022D01*
X166922Y95078D01*
X165978Y93666D01*
X165646Y92000D01*
X165978Y90334D01*
X166922Y88921D01*
X168334Y87978D01*
X170000Y87646D01*
X171666Y87978D01*
X173078Y88921D01*
X174022Y90334D01*
X174354Y92000D01*
X174022Y93666D01*
X173078Y95078D01*
X171666Y96022D01*
X170000Y96354D01*
D02*
G37*
G36*
X155000D02*
X153334Y96022D01*
X151922Y95078D01*
X150978Y93666D01*
X150646Y92000D01*
X150978Y90334D01*
X151922Y88921D01*
X153334Y87978D01*
X155000Y87646D01*
X156666Y87978D01*
X158078Y88921D01*
X159022Y90334D01*
X159354Y92000D01*
X159022Y93666D01*
X158078Y95078D01*
X156666Y96022D01*
X155000Y96354D01*
D02*
G37*
G36*
X140000D02*
X138334Y96022D01*
X136922Y95078D01*
X135978Y93666D01*
X135646Y92000D01*
X135978Y90334D01*
X136922Y88921D01*
X138334Y87978D01*
X140000Y87646D01*
X141666Y87978D01*
X143078Y88921D01*
X144022Y90334D01*
X144354Y92000D01*
X144022Y93666D01*
X143078Y95078D01*
X141666Y96022D01*
X140000Y96354D01*
D02*
G37*
G36*
X125000D02*
X123334Y96022D01*
X121922Y95078D01*
X120978Y93666D01*
X120646Y92000D01*
X120978Y90334D01*
X121922Y88921D01*
X123334Y87978D01*
X125000Y87646D01*
X126666Y87978D01*
X128078Y88921D01*
X129022Y90334D01*
X129354Y92000D01*
X129022Y93666D01*
X128078Y95078D01*
X126666Y96022D01*
X125000Y96354D01*
D02*
G37*
G36*
X80000D02*
X78334Y96022D01*
X76922Y95078D01*
X75978Y93666D01*
X75646Y92000D01*
X75978Y90334D01*
X76922Y88921D01*
X78334Y87978D01*
X80000Y87646D01*
X81666Y87978D01*
X83078Y88921D01*
X84022Y90334D01*
X84354Y92000D01*
X84022Y93666D01*
X83078Y95078D01*
X81666Y96022D01*
X80000Y96354D01*
D02*
G37*
G36*
X50000D02*
X48334Y96022D01*
X46922Y95078D01*
X45978Y93666D01*
X45646Y92000D01*
X45978Y90334D01*
X46922Y88921D01*
X48334Y87978D01*
X50000Y87646D01*
X51666Y87978D01*
X53078Y88921D01*
X54022Y90334D01*
X54354Y92000D01*
X54022Y93666D01*
X53078Y95078D01*
X51666Y96022D01*
X50000Y96354D01*
D02*
G37*
G36*
X35000D02*
X33334Y96022D01*
X31922Y95078D01*
X30978Y93666D01*
X30646Y92000D01*
X30978Y90334D01*
X31922Y88921D01*
X33334Y87978D01*
X35000Y87646D01*
X36666Y87978D01*
X38078Y88921D01*
X39022Y90334D01*
X39354Y92000D01*
X39022Y93666D01*
X38078Y95078D01*
X36666Y96022D01*
X35000Y96354D01*
D02*
G37*
G36*
X20000D02*
X18334Y96022D01*
X16922Y95078D01*
X15978Y93666D01*
X15646Y92000D01*
X15978Y90334D01*
X16922Y88921D01*
X18334Y87978D01*
X20000Y87646D01*
X21666Y87978D01*
X23078Y88921D01*
X24022Y90334D01*
X24354Y92000D01*
X24022Y93666D01*
X23078Y95078D01*
X21666Y96022D01*
X20000Y96354D01*
D02*
G37*
G36*
X388750Y94354D02*
X387084Y94022D01*
X385672Y93078D01*
X384728Y91666D01*
X384396Y90000D01*
X384728Y88334D01*
X385672Y86922D01*
X387084Y85978D01*
X388750Y85646D01*
X390416Y85978D01*
X391828Y86922D01*
X392772Y88334D01*
X393104Y90000D01*
X392772Y91666D01*
X391828Y93078D01*
X390416Y94022D01*
X388750Y94354D01*
D02*
G37*
G36*
X359000D02*
X357334Y94022D01*
X355922Y93078D01*
X354978Y91666D01*
X354646Y90000D01*
X354978Y88334D01*
X355922Y86922D01*
X357334Y85978D01*
X359000Y85646D01*
X360666Y85978D01*
X362079Y86922D01*
X363022Y88334D01*
X363354Y90000D01*
X363022Y91666D01*
X362079Y93078D01*
X360666Y94022D01*
X359000Y94354D01*
D02*
G37*
G36*
X350000Y81354D02*
X348334Y81022D01*
X346922Y80078D01*
X345978Y78666D01*
X345646Y77000D01*
X345978Y75334D01*
X346922Y73921D01*
X348334Y72978D01*
X350000Y72646D01*
X351666Y72978D01*
X353078Y73921D01*
X354022Y75334D01*
X354354Y77000D01*
X354022Y78666D01*
X353078Y80078D01*
X351666Y81022D01*
X350000Y81354D01*
D02*
G37*
G36*
X335000D02*
X333334Y81022D01*
X331922Y80078D01*
X330978Y78666D01*
X330646Y77000D01*
X330978Y75334D01*
X331922Y73921D01*
X333334Y72978D01*
X335000Y72646D01*
X336666Y72978D01*
X338078Y73921D01*
X339022Y75334D01*
X339354Y77000D01*
X339022Y78666D01*
X338078Y80078D01*
X336666Y81022D01*
X335000Y81354D01*
D02*
G37*
G36*
X320000D02*
X318334Y81022D01*
X316922Y80078D01*
X315978Y78666D01*
X315646Y77000D01*
X315978Y75334D01*
X316922Y73921D01*
X318334Y72978D01*
X320000Y72646D01*
X321666Y72978D01*
X323078Y73921D01*
X324022Y75334D01*
X324354Y77000D01*
X324022Y78666D01*
X323078Y80078D01*
X321666Y81022D01*
X320000Y81354D01*
D02*
G37*
G36*
X305000D02*
X303334Y81022D01*
X301922Y80078D01*
X300978Y78666D01*
X300646Y77000D01*
X300978Y75334D01*
X301922Y73921D01*
X303334Y72978D01*
X305000Y72646D01*
X306666Y72978D01*
X308078Y73921D01*
X309022Y75334D01*
X309354Y77000D01*
X309022Y78666D01*
X308078Y80078D01*
X306666Y81022D01*
X305000Y81354D01*
D02*
G37*
G36*
X290000D02*
X288334Y81022D01*
X286922Y80078D01*
X285978Y78666D01*
X285646Y77000D01*
X285978Y75334D01*
X286922Y73921D01*
X288334Y72978D01*
X290000Y72646D01*
X291666Y72978D01*
X293078Y73921D01*
X294022Y75334D01*
X294354Y77000D01*
X294022Y78666D01*
X293078Y80078D01*
X291666Y81022D01*
X290000Y81354D01*
D02*
G37*
G36*
X275000D02*
X273334Y81022D01*
X271922Y80078D01*
X270978Y78666D01*
X270646Y77000D01*
X270978Y75334D01*
X271922Y73921D01*
X273334Y72978D01*
X275000Y72646D01*
X276666Y72978D01*
X278078Y73921D01*
X279022Y75334D01*
X279354Y77000D01*
X279022Y78666D01*
X278078Y80078D01*
X276666Y81022D01*
X275000Y81354D01*
D02*
G37*
G36*
X245000D02*
X243334Y81022D01*
X241922Y80078D01*
X240978Y78666D01*
X240646Y77000D01*
X240978Y75334D01*
X241922Y73921D01*
X243334Y72978D01*
X245000Y72646D01*
X246666Y72978D01*
X248078Y73921D01*
X249022Y75334D01*
X249354Y77000D01*
X249022Y78666D01*
X248078Y80078D01*
X246666Y81022D01*
X245000Y81354D01*
D02*
G37*
G36*
X200000D02*
X198334Y81022D01*
X196922Y80078D01*
X195978Y78666D01*
X195646Y77000D01*
X195978Y75334D01*
X196922Y73921D01*
X198334Y72978D01*
X200000Y72646D01*
X201666Y72978D01*
X203078Y73921D01*
X204022Y75334D01*
X204354Y77000D01*
X204022Y78666D01*
X203078Y80078D01*
X201666Y81022D01*
X200000Y81354D01*
D02*
G37*
G36*
X185000D02*
X183334Y81022D01*
X181922Y80078D01*
X180978Y78666D01*
X180646Y77000D01*
X180978Y75334D01*
X181922Y73921D01*
X183334Y72978D01*
X185000Y72646D01*
X186666Y72978D01*
X188078Y73921D01*
X189022Y75334D01*
X189354Y77000D01*
X189022Y78666D01*
X188078Y80078D01*
X186666Y81022D01*
X185000Y81354D01*
D02*
G37*
G36*
X170000D02*
X168334Y81022D01*
X166922Y80078D01*
X165978Y78666D01*
X165646Y77000D01*
X165978Y75334D01*
X166922Y73921D01*
X168334Y72978D01*
X170000Y72646D01*
X171666Y72978D01*
X173078Y73921D01*
X174022Y75334D01*
X174354Y77000D01*
X174022Y78666D01*
X173078Y80078D01*
X171666Y81022D01*
X170000Y81354D01*
D02*
G37*
G36*
X155000D02*
X153334Y81022D01*
X151922Y80078D01*
X150978Y78666D01*
X150646Y77000D01*
X150978Y75334D01*
X151922Y73921D01*
X153334Y72978D01*
X155000Y72646D01*
X156666Y72978D01*
X158078Y73921D01*
X159022Y75334D01*
X159354Y77000D01*
X159022Y78666D01*
X158078Y80078D01*
X156666Y81022D01*
X155000Y81354D01*
D02*
G37*
G36*
X140000D02*
X138334Y81022D01*
X136922Y80078D01*
X135978Y78666D01*
X135646Y77000D01*
X135978Y75334D01*
X136922Y73921D01*
X138334Y72978D01*
X140000Y72646D01*
X141666Y72978D01*
X143078Y73921D01*
X144022Y75334D01*
X144354Y77000D01*
X144022Y78666D01*
X143078Y80078D01*
X141666Y81022D01*
X140000Y81354D01*
D02*
G37*
G36*
X125000D02*
X123334Y81022D01*
X121922Y80078D01*
X120978Y78666D01*
X120646Y77000D01*
X120978Y75334D01*
X121922Y73921D01*
X123334Y72978D01*
X125000Y72646D01*
X126666Y72978D01*
X128078Y73921D01*
X129022Y75334D01*
X129354Y77000D01*
X129022Y78666D01*
X128078Y80078D01*
X126666Y81022D01*
X125000Y81354D01*
D02*
G37*
G36*
X110000D02*
X108334Y81022D01*
X106922Y80078D01*
X105978Y78666D01*
X105646Y77000D01*
X105978Y75334D01*
X106922Y73921D01*
X108334Y72978D01*
X110000Y72646D01*
X111666Y72978D01*
X113078Y73921D01*
X114022Y75334D01*
X114354Y77000D01*
X114022Y78666D01*
X113078Y80078D01*
X111666Y81022D01*
X110000Y81354D01*
D02*
G37*
G36*
X95000D02*
X93334Y81022D01*
X91922Y80078D01*
X90978Y78666D01*
X90646Y77000D01*
X90978Y75334D01*
X91922Y73921D01*
X93334Y72978D01*
X95000Y72646D01*
X96666Y72978D01*
X98078Y73921D01*
X99022Y75334D01*
X99354Y77000D01*
X99022Y78666D01*
X98078Y80078D01*
X96666Y81022D01*
X95000Y81354D01*
D02*
G37*
G36*
X80000D02*
X78334Y81022D01*
X76922Y80078D01*
X75978Y78666D01*
X75646Y77000D01*
X75978Y75334D01*
X76922Y73921D01*
X78334Y72978D01*
X80000Y72646D01*
X81666Y72978D01*
X83078Y73921D01*
X84022Y75334D01*
X84354Y77000D01*
X84022Y78666D01*
X83078Y80078D01*
X81666Y81022D01*
X80000Y81354D01*
D02*
G37*
G36*
X65000D02*
X63334Y81022D01*
X61922Y80078D01*
X60978Y78666D01*
X60646Y77000D01*
X60978Y75334D01*
X61922Y73921D01*
X63334Y72978D01*
X65000Y72646D01*
X66666Y72978D01*
X68078Y73921D01*
X69022Y75334D01*
X69354Y77000D01*
X69022Y78666D01*
X68078Y80078D01*
X66666Y81022D01*
X65000Y81354D01*
D02*
G37*
G36*
X50000D02*
X48334Y81022D01*
X46922Y80078D01*
X45978Y78666D01*
X45646Y77000D01*
X45978Y75334D01*
X46922Y73921D01*
X48334Y72978D01*
X50000Y72646D01*
X51666Y72978D01*
X53078Y73921D01*
X54022Y75334D01*
X54354Y77000D01*
X54022Y78666D01*
X53078Y80078D01*
X51666Y81022D01*
X50000Y81354D01*
D02*
G37*
G36*
X35000D02*
X33334Y81022D01*
X31922Y80078D01*
X30978Y78666D01*
X30646Y77000D01*
X30978Y75334D01*
X31922Y73921D01*
X33334Y72978D01*
X35000Y72646D01*
X36666Y72978D01*
X38078Y73921D01*
X39022Y75334D01*
X39354Y77000D01*
X39022Y78666D01*
X38078Y80078D01*
X36666Y81022D01*
X35000Y81354D01*
D02*
G37*
G36*
X20000D02*
X18334Y81022D01*
X16922Y80078D01*
X15978Y78666D01*
X15646Y77000D01*
X15978Y75334D01*
X16922Y73921D01*
X18334Y72978D01*
X20000Y72646D01*
X21666Y72978D01*
X23078Y73921D01*
X24022Y75334D01*
X24354Y77000D01*
X24022Y78666D01*
X23078Y80078D01*
X21666Y81022D01*
X20000Y81354D01*
D02*
G37*
G36*
X385060Y70917D02*
X382623Y70433D01*
X380558Y69052D01*
X379177Y66987D01*
X378693Y64550D01*
X379177Y62113D01*
X380558Y60048D01*
X382623Y58667D01*
X385060Y58183D01*
X387497Y58667D01*
X389562Y60048D01*
X390943Y62113D01*
X391427Y64550D01*
X390943Y66987D01*
X389562Y69052D01*
X387497Y70433D01*
X385060Y70917D01*
D02*
G37*
G36*
X364740D02*
X362303Y70433D01*
X360238Y69052D01*
X358857Y66987D01*
X358373Y64550D01*
X358857Y62113D01*
X360238Y60048D01*
X362303Y58667D01*
X364740Y58183D01*
X367177Y58667D01*
X369242Y60048D01*
X370623Y62113D01*
X371107Y64550D01*
X370623Y66987D01*
X369242Y69052D01*
X367177Y70433D01*
X364740Y70917D01*
D02*
G37*
G36*
X350000Y66354D02*
X348334Y66022D01*
X346922Y65079D01*
X345978Y63666D01*
X345646Y62000D01*
X345978Y60334D01*
X346922Y58921D01*
X348334Y57978D01*
X350000Y57646D01*
X351666Y57978D01*
X353078Y58921D01*
X354022Y60334D01*
X354354Y62000D01*
X354022Y63666D01*
X353078Y65079D01*
X351666Y66022D01*
X350000Y66354D01*
D02*
G37*
G36*
X335000D02*
X333334Y66022D01*
X331922Y65079D01*
X330978Y63666D01*
X330646Y62000D01*
X330978Y60334D01*
X331922Y58921D01*
X333334Y57978D01*
X335000Y57646D01*
X336666Y57978D01*
X338078Y58921D01*
X339022Y60334D01*
X339354Y62000D01*
X339022Y63666D01*
X338078Y65079D01*
X336666Y66022D01*
X335000Y66354D01*
D02*
G37*
G36*
X320000D02*
X318334Y66022D01*
X316922Y65079D01*
X315978Y63666D01*
X315646Y62000D01*
X315978Y60334D01*
X316922Y58921D01*
X318334Y57978D01*
X320000Y57646D01*
X321666Y57978D01*
X323078Y58921D01*
X324022Y60334D01*
X324354Y62000D01*
X324022Y63666D01*
X323078Y65079D01*
X321666Y66022D01*
X320000Y66354D01*
D02*
G37*
G36*
X305000D02*
X303334Y66022D01*
X301922Y65079D01*
X300978Y63666D01*
X300646Y62000D01*
X300978Y60334D01*
X301922Y58921D01*
X303334Y57978D01*
X305000Y57646D01*
X306666Y57978D01*
X308078Y58921D01*
X309022Y60334D01*
X309354Y62000D01*
X309022Y63666D01*
X308078Y65079D01*
X306666Y66022D01*
X305000Y66354D01*
D02*
G37*
G36*
X290000D02*
X288334Y66022D01*
X286922Y65079D01*
X285978Y63666D01*
X285646Y62000D01*
X285978Y60334D01*
X286922Y58921D01*
X288334Y57978D01*
X290000Y57646D01*
X291666Y57978D01*
X293078Y58921D01*
X294022Y60334D01*
X294354Y62000D01*
X294022Y63666D01*
X293078Y65079D01*
X291666Y66022D01*
X290000Y66354D01*
D02*
G37*
G36*
X267500Y71854D02*
X265834Y71522D01*
X264422Y70578D01*
X263478Y69166D01*
X263146Y67500D01*
X263478Y65834D01*
X264422Y64422D01*
X265834Y63478D01*
X267500Y63146D01*
X269166Y63478D01*
X269719Y63847D01*
X270862Y63083D01*
X270646Y62000D01*
X270978Y60334D01*
X271922Y58921D01*
X273334Y57978D01*
X275000Y57646D01*
X276666Y57978D01*
X278078Y58921D01*
X279022Y60334D01*
X279354Y62000D01*
X279022Y63666D01*
X278078Y65079D01*
X276666Y66022D01*
X275000Y66354D01*
X273334Y66022D01*
X272781Y65653D01*
X271638Y66417D01*
X271854Y67500D01*
X271522Y69166D01*
X270578Y70578D01*
X269166Y71522D01*
X267500Y71854D01*
D02*
G37*
G36*
X170000Y66354D02*
X168334Y66022D01*
X166922Y65079D01*
X165978Y63666D01*
X165646Y62000D01*
X165978Y60334D01*
X166922Y58921D01*
X168334Y57978D01*
X170000Y57646D01*
X171666Y57978D01*
X173078Y58921D01*
X174022Y60334D01*
X174354Y62000D01*
X174022Y63666D01*
X173078Y65079D01*
X171666Y66022D01*
X170000Y66354D01*
D02*
G37*
G36*
X140000D02*
X138334Y66022D01*
X136922Y65079D01*
X135978Y63666D01*
X135646Y62000D01*
X135978Y60334D01*
X136922Y58921D01*
X138334Y57978D01*
X140000Y57646D01*
X141666Y57978D01*
X143078Y58921D01*
X144022Y60334D01*
X144354Y62000D01*
X144022Y63666D01*
X143078Y65079D01*
X141666Y66022D01*
X140000Y66354D01*
D02*
G37*
G36*
X125000D02*
X123334Y66022D01*
X121922Y65079D01*
X120978Y63666D01*
X120646Y62000D01*
X120978Y60334D01*
X121922Y58921D01*
X123334Y57978D01*
X125000Y57646D01*
X126666Y57978D01*
X128078Y58921D01*
X129022Y60334D01*
X129354Y62000D01*
X129022Y63666D01*
X128078Y65079D01*
X126666Y66022D01*
X125000Y66354D01*
D02*
G37*
G36*
X110000D02*
X108334Y66022D01*
X106922Y65079D01*
X105978Y63666D01*
X105646Y62000D01*
X105978Y60334D01*
X106922Y58921D01*
X108334Y57978D01*
X110000Y57646D01*
X111666Y57978D01*
X113078Y58921D01*
X114022Y60334D01*
X114354Y62000D01*
X114022Y63666D01*
X113078Y65079D01*
X111666Y66022D01*
X110000Y66354D01*
D02*
G37*
G36*
X95000D02*
X93334Y66022D01*
X91922Y65079D01*
X90978Y63666D01*
X90646Y62000D01*
X90978Y60334D01*
X91922Y58921D01*
X93334Y57978D01*
X95000Y57646D01*
X96666Y57978D01*
X98078Y58921D01*
X99022Y60334D01*
X99354Y62000D01*
X99022Y63666D01*
X98078Y65079D01*
X96666Y66022D01*
X95000Y66354D01*
D02*
G37*
G36*
X80000D02*
X78334Y66022D01*
X76922Y65079D01*
X75978Y63666D01*
X75646Y62000D01*
X75978Y60334D01*
X76922Y58921D01*
X78334Y57978D01*
X80000Y57646D01*
X81666Y57978D01*
X83078Y58921D01*
X84022Y60334D01*
X84354Y62000D01*
X84022Y63666D01*
X83078Y65079D01*
X81666Y66022D01*
X80000Y66354D01*
D02*
G37*
G36*
X65000D02*
X63334Y66022D01*
X61922Y65079D01*
X60978Y63666D01*
X60646Y62000D01*
X60978Y60334D01*
X61922Y58921D01*
X63334Y57978D01*
X65000Y57646D01*
X66666Y57978D01*
X68078Y58921D01*
X69022Y60334D01*
X69354Y62000D01*
X69022Y63666D01*
X68078Y65079D01*
X66666Y66022D01*
X65000Y66354D01*
D02*
G37*
G36*
X50000D02*
X48334Y66022D01*
X46922Y65079D01*
X45978Y63666D01*
X45646Y62000D01*
X45978Y60334D01*
X46922Y58921D01*
X48334Y57978D01*
X50000Y57646D01*
X51666Y57978D01*
X53078Y58921D01*
X54022Y60334D01*
X54354Y62000D01*
X54022Y63666D01*
X53078Y65079D01*
X51666Y66022D01*
X50000Y66354D01*
D02*
G37*
G36*
X35000D02*
X33334Y66022D01*
X31922Y65079D01*
X30978Y63666D01*
X30646Y62000D01*
X30978Y60334D01*
X31922Y58921D01*
X33334Y57978D01*
X35000Y57646D01*
X36666Y57978D01*
X38078Y58921D01*
X39022Y60334D01*
X39354Y62000D01*
X39022Y63666D01*
X38078Y65079D01*
X36666Y66022D01*
X35000Y66354D01*
D02*
G37*
G36*
X20000D02*
X18334Y66022D01*
X16922Y65079D01*
X15978Y63666D01*
X15646Y62000D01*
X15978Y60334D01*
X16922Y58921D01*
X18334Y57978D01*
X20000Y57646D01*
X21666Y57978D01*
X23078Y58921D01*
X24022Y60334D01*
X24354Y62000D01*
X24022Y63666D01*
X23078Y65079D01*
X21666Y66022D01*
X20000Y66354D01*
D02*
G37*
G36*
X125000Y51354D02*
X123334Y51022D01*
X121922Y50079D01*
X120978Y48666D01*
X120646Y47000D01*
X120704Y46709D01*
X119483Y46338D01*
X119416Y46501D01*
X117890Y48490D01*
X115901Y50016D01*
X113585Y50975D01*
X111100Y51302D01*
X108615Y50975D01*
X106299Y50016D01*
X104310Y48490D01*
X102784Y46501D01*
X101825Y44185D01*
X101498Y41700D01*
X101825Y39215D01*
X102784Y36899D01*
X104310Y34910D01*
X106299Y33384D01*
X108615Y32425D01*
X111100Y32098D01*
X113585Y32425D01*
X115901Y33384D01*
X117890Y34910D01*
X119416Y36899D01*
X120375Y39215D01*
X120702Y41700D01*
X120414Y43892D01*
X121631Y44356D01*
X121922Y43921D01*
X123334Y42978D01*
X125000Y42646D01*
X125761Y42798D01*
X126902Y41730D01*
X126898Y41700D01*
X127225Y39215D01*
X128184Y36899D01*
X128757Y36153D01*
X127877Y35213D01*
X126666Y36022D01*
X125000Y36354D01*
X123334Y36022D01*
X121922Y35078D01*
X120978Y33666D01*
X120646Y32000D01*
X120978Y30334D01*
X121922Y28921D01*
X123334Y27978D01*
X125000Y27646D01*
X126666Y27978D01*
X128078Y28921D01*
X129022Y30334D01*
X129354Y32000D01*
X129022Y33666D01*
X128711Y34133D01*
X129710Y34910D01*
X131699Y33384D01*
X134015Y32425D01*
X136500Y32098D01*
X138985Y32425D01*
X141301Y33384D01*
X143290Y34910D01*
X144816Y36899D01*
X145775Y39215D01*
X146102Y41700D01*
X145775Y44185D01*
X144816Y46501D01*
X143290Y48490D01*
X141301Y50016D01*
X138985Y50975D01*
X136500Y51302D01*
X134015Y50975D01*
X131699Y50016D01*
X130266Y48916D01*
X130057Y48874D01*
X128815Y49102D01*
X128660Y49208D01*
X128078Y50079D01*
X126666Y51022D01*
X125000Y51354D01*
D02*
G37*
G36*
X380000D02*
X378334Y51022D01*
X376922Y50079D01*
X375978Y48666D01*
X375646Y47000D01*
X375978Y45334D01*
X376922Y43921D01*
X378334Y42978D01*
X380000Y42646D01*
X381666Y42978D01*
X383078Y43921D01*
X384022Y45334D01*
X384354Y47000D01*
X384022Y48666D01*
X383078Y50079D01*
X381666Y51022D01*
X380000Y51354D01*
D02*
G37*
G36*
X365000D02*
X363334Y51022D01*
X361922Y50079D01*
X360978Y48666D01*
X360646Y47000D01*
X360978Y45334D01*
X361922Y43921D01*
X363334Y42978D01*
X365000Y42646D01*
X366666Y42978D01*
X368078Y43921D01*
X369022Y45334D01*
X369354Y47000D01*
X369022Y48666D01*
X368078Y50079D01*
X366666Y51022D01*
X365000Y51354D01*
D02*
G37*
G36*
X350000D02*
X348334Y51022D01*
X346922Y50079D01*
X345978Y48666D01*
X345646Y47000D01*
X345978Y45334D01*
X346922Y43921D01*
X348334Y42978D01*
X350000Y42646D01*
X351666Y42978D01*
X353078Y43921D01*
X354022Y45334D01*
X354354Y47000D01*
X354022Y48666D01*
X353078Y50079D01*
X351666Y51022D01*
X350000Y51354D01*
D02*
G37*
G36*
X335000D02*
X333334Y51022D01*
X331922Y50079D01*
X330978Y48666D01*
X330646Y47000D01*
X330978Y45334D01*
X331922Y43921D01*
X333334Y42978D01*
X335000Y42646D01*
X336666Y42978D01*
X338078Y43921D01*
X339022Y45334D01*
X339354Y47000D01*
X339022Y48666D01*
X338078Y50079D01*
X336666Y51022D01*
X335000Y51354D01*
D02*
G37*
G36*
X320000D02*
X318334Y51022D01*
X316922Y50079D01*
X315978Y48666D01*
X315646Y47000D01*
X315978Y45334D01*
X316922Y43921D01*
X318334Y42978D01*
X320000Y42646D01*
X321666Y42978D01*
X323078Y43921D01*
X324022Y45334D01*
X324354Y47000D01*
X324022Y48666D01*
X323078Y50079D01*
X321666Y51022D01*
X320000Y51354D01*
D02*
G37*
G36*
X305000D02*
X303334Y51022D01*
X301922Y50079D01*
X300978Y48666D01*
X300646Y47000D01*
X300978Y45334D01*
X301922Y43921D01*
X303334Y42978D01*
X305000Y42646D01*
X306666Y42978D01*
X308078Y43921D01*
X309022Y45334D01*
X309354Y47000D01*
X309022Y48666D01*
X308078Y50079D01*
X306666Y51022D01*
X305000Y51354D01*
D02*
G37*
G36*
X95000D02*
X93334Y51022D01*
X91922Y50079D01*
X90978Y48666D01*
X90646Y47000D01*
X90978Y45334D01*
X91922Y43921D01*
X93334Y42978D01*
X95000Y42646D01*
X96666Y42978D01*
X98078Y43921D01*
X99022Y45334D01*
X99354Y47000D01*
X99022Y48666D01*
X98078Y50079D01*
X96666Y51022D01*
X95000Y51354D01*
D02*
G37*
G36*
X80000D02*
X78334Y51022D01*
X76922Y50079D01*
X75978Y48666D01*
X75646Y47000D01*
X75978Y45334D01*
X76922Y43921D01*
X78334Y42978D01*
X80000Y42646D01*
X81666Y42978D01*
X83078Y43921D01*
X84022Y45334D01*
X84354Y47000D01*
X84022Y48666D01*
X83078Y50079D01*
X81666Y51022D01*
X80000Y51354D01*
D02*
G37*
G36*
X65000D02*
X63334Y51022D01*
X61922Y50079D01*
X60978Y48666D01*
X60646Y47000D01*
X60978Y45334D01*
X61922Y43921D01*
X63334Y42978D01*
X65000Y42646D01*
X66666Y42978D01*
X68078Y43921D01*
X69022Y45334D01*
X69354Y47000D01*
X69022Y48666D01*
X68078Y50079D01*
X66666Y51022D01*
X65000Y51354D01*
D02*
G37*
G36*
X50000D02*
X48334Y51022D01*
X46922Y50079D01*
X45978Y48666D01*
X45646Y47000D01*
X45978Y45334D01*
X46922Y43921D01*
X48334Y42978D01*
X50000Y42646D01*
X51666Y42978D01*
X53078Y43921D01*
X54022Y45334D01*
X54354Y47000D01*
X54022Y48666D01*
X53078Y50079D01*
X51666Y51022D01*
X50000Y51354D01*
D02*
G37*
G36*
X35000D02*
X33334Y51022D01*
X31922Y50079D01*
X30978Y48666D01*
X30646Y47000D01*
X30978Y45334D01*
X31922Y43921D01*
X33334Y42978D01*
X35000Y42646D01*
X36666Y42978D01*
X38078Y43921D01*
X39022Y45334D01*
X39354Y47000D01*
X39022Y48666D01*
X38078Y50079D01*
X36666Y51022D01*
X35000Y51354D01*
D02*
G37*
G36*
X20000D02*
X18334Y51022D01*
X16922Y50079D01*
X15978Y48666D01*
X15646Y47000D01*
X15978Y45334D01*
X16922Y43921D01*
X18334Y42978D01*
X20000Y42646D01*
X21666Y42978D01*
X23078Y43921D01*
X24022Y45334D01*
X24354Y47000D01*
X24022Y48666D01*
X23078Y50079D01*
X21666Y51022D01*
X20000Y51354D01*
D02*
G37*
G36*
X298420Y51220D02*
X289662D01*
Y42462D01*
X298420D01*
Y51220D01*
D02*
G37*
G36*
Y40938D02*
X289662D01*
Y32180D01*
X298420D01*
Y40938D01*
D02*
G37*
G36*
X350000Y36354D02*
X348334Y36022D01*
X346922Y35078D01*
X345978Y33666D01*
X345646Y32000D01*
X345978Y30334D01*
X346922Y28921D01*
X348334Y27978D01*
X350000Y27646D01*
X351666Y27978D01*
X353078Y28921D01*
X354022Y30334D01*
X354354Y32000D01*
X354022Y33666D01*
X353078Y35078D01*
X351666Y36022D01*
X350000Y36354D01*
D02*
G37*
G36*
X335000D02*
X333334Y36022D01*
X331922Y35078D01*
X330978Y33666D01*
X330646Y32000D01*
X330978Y30334D01*
X331922Y28921D01*
X333334Y27978D01*
X335000Y27646D01*
X336666Y27978D01*
X338078Y28921D01*
X339022Y30334D01*
X339354Y32000D01*
X339022Y33666D01*
X338078Y35078D01*
X336666Y36022D01*
X335000Y36354D01*
D02*
G37*
G36*
X320000D02*
X318334Y36022D01*
X316922Y35078D01*
X315978Y33666D01*
X315646Y32000D01*
X315978Y30334D01*
X316922Y28921D01*
X318334Y27978D01*
X320000Y27646D01*
X321666Y27978D01*
X323078Y28921D01*
X324022Y30334D01*
X324354Y32000D01*
X324022Y33666D01*
X323078Y35078D01*
X321666Y36022D01*
X320000Y36354D01*
D02*
G37*
G36*
X305000D02*
X303334Y36022D01*
X301922Y35078D01*
X300978Y33666D01*
X300646Y32000D01*
X300978Y30334D01*
X301922Y28921D01*
X303334Y27978D01*
X305000Y27646D01*
X306666Y27978D01*
X308078Y28921D01*
X309022Y30334D01*
X309354Y32000D01*
X309022Y33666D01*
X308078Y35078D01*
X306666Y36022D01*
X305000Y36354D01*
D02*
G37*
G36*
X200000D02*
X198334Y36022D01*
X196922Y35078D01*
X195978Y33666D01*
X195646Y32000D01*
X195978Y30334D01*
X196922Y28921D01*
X198334Y27978D01*
X200000Y27646D01*
X201666Y27978D01*
X203078Y28921D01*
X204022Y30334D01*
X204354Y32000D01*
X204022Y33666D01*
X203078Y35078D01*
X201666Y36022D01*
X200000Y36354D01*
D02*
G37*
G36*
X161900Y51302D02*
X159415Y50975D01*
X157099Y50016D01*
X155110Y48490D01*
X153584Y46501D01*
X152625Y44185D01*
X152298Y41700D01*
X152625Y39215D01*
X153584Y36899D01*
X155110Y34910D01*
X157099Y33384D01*
X159415Y32425D01*
X161900Y32098D01*
X164385Y32425D01*
X164548Y32492D01*
X165725Y31605D01*
X165978Y30334D01*
X166922Y28921D01*
X168334Y27978D01*
X170000Y27646D01*
X171666Y27978D01*
X173078Y28921D01*
X174022Y30334D01*
X174354Y32000D01*
X174022Y33666D01*
X173078Y35078D01*
X171666Y36022D01*
X171213Y36112D01*
X171068Y36227D01*
X170486Y37552D01*
X171175Y39215D01*
X171502Y41700D01*
X171175Y44185D01*
X170216Y46501D01*
X168690Y48490D01*
X166701Y50016D01*
X164385Y50975D01*
X161900Y51302D01*
D02*
G37*
G36*
X95000Y36354D02*
X93334Y36022D01*
X91922Y35078D01*
X90978Y33666D01*
X90646Y32000D01*
X90978Y30334D01*
X91922Y28921D01*
X93334Y27978D01*
X95000Y27646D01*
X96666Y27978D01*
X98078Y28921D01*
X99022Y30334D01*
X99354Y32000D01*
X99022Y33666D01*
X98078Y35078D01*
X96666Y36022D01*
X95000Y36354D01*
D02*
G37*
G36*
X80000D02*
X78334Y36022D01*
X76922Y35078D01*
X75978Y33666D01*
X75646Y32000D01*
X75978Y30334D01*
X76922Y28921D01*
X78334Y27978D01*
X80000Y27646D01*
X81666Y27978D01*
X83078Y28921D01*
X84022Y30334D01*
X84354Y32000D01*
X84022Y33666D01*
X83078Y35078D01*
X81666Y36022D01*
X80000Y36354D01*
D02*
G37*
G36*
X65000D02*
X63334Y36022D01*
X61922Y35078D01*
X60978Y33666D01*
X60646Y32000D01*
X60978Y30334D01*
X61922Y28921D01*
X63334Y27978D01*
X65000Y27646D01*
X66666Y27978D01*
X68078Y28921D01*
X69022Y30334D01*
X69354Y32000D01*
X69022Y33666D01*
X68078Y35078D01*
X66666Y36022D01*
X65000Y36354D01*
D02*
G37*
G36*
X50000D02*
X48334Y36022D01*
X46922Y35078D01*
X45978Y33666D01*
X45646Y32000D01*
X45978Y30334D01*
X46922Y28921D01*
X48334Y27978D01*
X50000Y27646D01*
X51666Y27978D01*
X53078Y28921D01*
X54022Y30334D01*
X54354Y32000D01*
X54022Y33666D01*
X53078Y35078D01*
X51666Y36022D01*
X50000Y36354D01*
D02*
G37*
G36*
X215000Y24854D02*
X213334Y24522D01*
X211922Y23579D01*
X210978Y22166D01*
X210646Y20500D01*
X210978Y18834D01*
X211922Y17421D01*
X213334Y16478D01*
X215000Y16146D01*
X216666Y16478D01*
X218078Y17421D01*
X219022Y18834D01*
X219354Y20500D01*
X219022Y22166D01*
X218078Y23579D01*
X216666Y24522D01*
X215000Y24854D01*
D02*
G37*
G36*
X200000D02*
X198334Y24522D01*
X196922Y23579D01*
X195978Y22166D01*
X195646Y20500D01*
X195978Y18834D01*
X196922Y17421D01*
X198334Y16478D01*
X200000Y16146D01*
X201666Y16478D01*
X203078Y17421D01*
X204022Y18834D01*
X204354Y20500D01*
X204022Y22166D01*
X203078Y23579D01*
X201666Y24522D01*
X200000Y24854D01*
D02*
G37*
G36*
X185000D02*
X183334Y24522D01*
X181922Y23579D01*
X180978Y22166D01*
X180646Y20500D01*
X180978Y18834D01*
X181922Y17421D01*
X183334Y16478D01*
X185000Y16146D01*
X186666Y16478D01*
X188078Y17421D01*
X189022Y18834D01*
X189354Y20500D01*
X189022Y22166D01*
X188078Y23579D01*
X186666Y24522D01*
X185000Y24854D01*
D02*
G37*
G36*
X350000Y22354D02*
X348334Y22022D01*
X346922Y21079D01*
X345978Y19666D01*
X345646Y18000D01*
X345978Y16334D01*
X346922Y14921D01*
X348334Y13978D01*
X350000Y13646D01*
X351666Y13978D01*
X353078Y14921D01*
X354022Y16334D01*
X354354Y18000D01*
X354022Y19666D01*
X353078Y21079D01*
X351666Y22022D01*
X350000Y22354D01*
D02*
G37*
G36*
X335000D02*
X333334Y22022D01*
X331922Y21079D01*
X330978Y19666D01*
X330646Y18000D01*
X330978Y16334D01*
X331922Y14921D01*
X333334Y13978D01*
X335000Y13646D01*
X336666Y13978D01*
X338078Y14921D01*
X339022Y16334D01*
X339354Y18000D01*
X339022Y19666D01*
X338078Y21079D01*
X336666Y22022D01*
X335000Y22354D01*
D02*
G37*
G36*
X320000D02*
X318334Y22022D01*
X316922Y21079D01*
X315978Y19666D01*
X315646Y18000D01*
X315978Y16334D01*
X316922Y14921D01*
X318334Y13978D01*
X320000Y13646D01*
X321666Y13978D01*
X323078Y14921D01*
X324022Y16334D01*
X324354Y18000D01*
X324022Y19666D01*
X323078Y21079D01*
X321666Y22022D01*
X320000Y22354D01*
D02*
G37*
G36*
X305000D02*
X303334Y22022D01*
X301922Y21079D01*
X300978Y19666D01*
X300646Y18000D01*
X300978Y16334D01*
X301922Y14921D01*
X303334Y13978D01*
X305000Y13646D01*
X306666Y13978D01*
X308078Y14921D01*
X309022Y16334D01*
X309354Y18000D01*
X309022Y19666D01*
X308078Y21079D01*
X306666Y22022D01*
X305000Y22354D01*
D02*
G37*
G36*
X290000D02*
X288334Y22022D01*
X286922Y21079D01*
X285978Y19666D01*
X285646Y18000D01*
X285978Y16334D01*
X286922Y14921D01*
X288334Y13978D01*
X290000Y13646D01*
X291666Y13978D01*
X293078Y14921D01*
X294022Y16334D01*
X294354Y18000D01*
X294022Y19666D01*
X293078Y21079D01*
X291666Y22022D01*
X290000Y22354D01*
D02*
G37*
G36*
X275000D02*
X273334Y22022D01*
X271922Y21079D01*
X270978Y19666D01*
X270646Y18000D01*
X270978Y16334D01*
X271922Y14921D01*
X273334Y13978D01*
X275000Y13646D01*
X276666Y13978D01*
X278078Y14921D01*
X279022Y16334D01*
X279354Y18000D01*
X279022Y19666D01*
X278078Y21079D01*
X276666Y22022D01*
X275000Y22354D01*
D02*
G37*
G36*
X260000D02*
X258334Y22022D01*
X256922Y21079D01*
X255978Y19666D01*
X255646Y18000D01*
X255978Y16334D01*
X256922Y14921D01*
X258334Y13978D01*
X260000Y13646D01*
X261666Y13978D01*
X263078Y14921D01*
X264022Y16334D01*
X264354Y18000D01*
X264022Y19666D01*
X263078Y21079D01*
X261666Y22022D01*
X260000Y22354D01*
D02*
G37*
G36*
X245000D02*
X243334Y22022D01*
X241922Y21079D01*
X240978Y19666D01*
X240646Y18000D01*
X240978Y16334D01*
X241922Y14921D01*
X243334Y13978D01*
X245000Y13646D01*
X246666Y13978D01*
X248078Y14921D01*
X249022Y16334D01*
X249354Y18000D01*
X249022Y19666D01*
X248078Y21079D01*
X246666Y22022D01*
X245000Y22354D01*
D02*
G37*
G36*
X230000D02*
X228334Y22022D01*
X226922Y21079D01*
X225978Y19666D01*
X225646Y18000D01*
X225978Y16334D01*
X226922Y14921D01*
X228334Y13978D01*
X230000Y13646D01*
X231666Y13978D01*
X233078Y14921D01*
X234022Y16334D01*
X234354Y18000D01*
X234022Y19666D01*
X233078Y21079D01*
X231666Y22022D01*
X230000Y22354D01*
D02*
G37*
G36*
X170000D02*
X168334Y22022D01*
X166922Y21079D01*
X165978Y19666D01*
X165646Y18000D01*
X165978Y16334D01*
X166922Y14921D01*
X168334Y13978D01*
X170000Y13646D01*
X171666Y13978D01*
X173078Y14921D01*
X174022Y16334D01*
X174354Y18000D01*
X174022Y19666D01*
X173078Y21079D01*
X171666Y22022D01*
X170000Y22354D01*
D02*
G37*
G36*
X155000D02*
X153334Y22022D01*
X151922Y21079D01*
X150978Y19666D01*
X150646Y18000D01*
X150978Y16334D01*
X151922Y14921D01*
X153334Y13978D01*
X155000Y13646D01*
X156666Y13978D01*
X158078Y14921D01*
X159022Y16334D01*
X159354Y18000D01*
X159022Y19666D01*
X158078Y21079D01*
X156666Y22022D01*
X155000Y22354D01*
D02*
G37*
G36*
X140000D02*
X138334Y22022D01*
X136922Y21079D01*
X135978Y19666D01*
X135646Y18000D01*
X135978Y16334D01*
X136922Y14921D01*
X138334Y13978D01*
X140000Y13646D01*
X141666Y13978D01*
X143078Y14921D01*
X144022Y16334D01*
X144354Y18000D01*
X144022Y19666D01*
X143078Y21079D01*
X141666Y22022D01*
X140000Y22354D01*
D02*
G37*
G36*
X125000D02*
X123334Y22022D01*
X121922Y21079D01*
X120978Y19666D01*
X120646Y18000D01*
X120978Y16334D01*
X121922Y14921D01*
X123334Y13978D01*
X125000Y13646D01*
X126666Y13978D01*
X128078Y14921D01*
X129022Y16334D01*
X129354Y18000D01*
X129022Y19666D01*
X128078Y21079D01*
X126666Y22022D01*
X125000Y22354D01*
D02*
G37*
G36*
X110000D02*
X108334Y22022D01*
X106922Y21079D01*
X105978Y19666D01*
X105646Y18000D01*
X105978Y16334D01*
X106922Y14921D01*
X108334Y13978D01*
X110000Y13646D01*
X111666Y13978D01*
X113078Y14921D01*
X114022Y16334D01*
X114354Y18000D01*
X114022Y19666D01*
X113078Y21079D01*
X111666Y22022D01*
X110000Y22354D01*
D02*
G37*
G36*
X95250D02*
X93584Y22022D01*
X92171Y21079D01*
X91228Y19666D01*
X90896Y18000D01*
X91228Y16334D01*
X92171Y14921D01*
X93584Y13978D01*
X95250Y13646D01*
X96916Y13978D01*
X98329Y14921D01*
X99272Y16334D01*
X99604Y18000D01*
X99272Y19666D01*
X98329Y21079D01*
X96916Y22022D01*
X95250Y22354D01*
D02*
G37*
G36*
X79500D02*
X77834Y22022D01*
X76421Y21079D01*
X75478Y19666D01*
X75146Y18000D01*
X75478Y16334D01*
X76421Y14921D01*
X77834Y13978D01*
X79500Y13646D01*
X81166Y13978D01*
X82578Y14921D01*
X83522Y16334D01*
X83854Y18000D01*
X83522Y19666D01*
X82578Y21079D01*
X81166Y22022D01*
X79500Y22354D01*
D02*
G37*
G36*
X64750D02*
X63084Y22022D01*
X61672Y21079D01*
X60728Y19666D01*
X60396Y18000D01*
X60728Y16334D01*
X61672Y14921D01*
X63084Y13978D01*
X64750Y13646D01*
X66416Y13978D01*
X67828Y14921D01*
X68772Y16334D01*
X69104Y18000D01*
X68772Y19666D01*
X67828Y21079D01*
X66416Y22022D01*
X64750Y22354D01*
D02*
G37*
G36*
X50000D02*
X48334Y22022D01*
X46922Y21079D01*
X45978Y19666D01*
X45646Y18000D01*
X45978Y16334D01*
X46922Y14921D01*
X48334Y13978D01*
X50000Y13646D01*
X51666Y13978D01*
X53078Y14921D01*
X54022Y16334D01*
X54354Y18000D01*
X54022Y19666D01*
X53078Y21079D01*
X51666Y22022D01*
X50000Y22354D01*
D02*
G37*
G36*
X375000Y37169D02*
X371850Y36755D01*
X368915Y35539D01*
X366395Y33605D01*
X364461Y31085D01*
X363246Y28150D01*
X362831Y25000D01*
X363246Y21850D01*
X364461Y18915D01*
X366395Y16395D01*
X368915Y14461D01*
X371850Y13246D01*
X375000Y12831D01*
X378150Y13246D01*
X381085Y14461D01*
X383605Y16395D01*
X385539Y18915D01*
X386754Y21850D01*
X387169Y25000D01*
X386754Y28150D01*
X385539Y31085D01*
X383605Y33605D01*
X381085Y35539D01*
X378150Y36755D01*
X375000Y37169D01*
D02*
G37*
G36*
X25000D02*
X21850Y36755D01*
X18915Y35539D01*
X16395Y33605D01*
X14461Y31085D01*
X13246Y28150D01*
X12831Y25000D01*
X13246Y21850D01*
X14461Y18915D01*
X16395Y16395D01*
X18915Y14461D01*
X21850Y13246D01*
X25000Y12831D01*
X28150Y13246D01*
X31084Y14461D01*
X33605Y16395D01*
X35539Y18915D01*
X36755Y21850D01*
X37169Y25000D01*
X36755Y28150D01*
X35539Y31085D01*
X33605Y33605D01*
X31084Y35539D01*
X28150Y36755D01*
X25000Y37169D01*
D02*
G37*
%LPD*%
D38*
X253000Y63500D02*
Y83750D01*
Y63500D02*
X263500Y53000D01*
X224250Y112500D02*
X253000Y83750D01*
X134500Y158250D02*
Y186250D01*
X197500Y112500D02*
X224250D01*
X238100Y41700D02*
Y63400D01*
X201250Y95000D02*
Y105000D01*
Y95000D02*
X228000Y68250D01*
X233250D01*
X238100Y63400D01*
X263500Y41700D02*
Y53000D01*
X191500Y99750D02*
Y120000D01*
Y99750D02*
X212700Y78550D01*
Y41700D02*
Y78550D01*
D39*
X374900Y115350D02*
D03*
X385060Y64550D02*
D03*
X364740D02*
D03*
D41*
X111100Y41700D02*
D03*
X136500D02*
D03*
X238100D02*
D03*
X263500D02*
D03*
X212700D02*
D03*
X187300D02*
D03*
X161900D02*
D03*
D42*
X288900D02*
D03*
D43*
X185000Y115000D02*
D03*
X215000Y102250D02*
D03*
X134500Y186250D02*
D03*
Y158250D02*
D03*
X156450Y163280D02*
D03*
X73750Y168500D02*
D03*
X145000Y175000D02*
D03*
X245000Y77000D02*
D03*
X230000D02*
D03*
X380000Y212000D02*
D03*
Y197000D02*
D03*
Y182000D02*
D03*
Y167000D02*
D03*
Y152000D02*
D03*
Y137000D02*
D03*
Y47000D02*
D03*
X365000Y212000D02*
D03*
Y197000D02*
D03*
Y182000D02*
D03*
Y167000D02*
D03*
Y152000D02*
D03*
Y137000D02*
D03*
Y122000D02*
D03*
Y47000D02*
D03*
X350000Y212000D02*
D03*
Y197000D02*
D03*
Y182000D02*
D03*
Y167000D02*
D03*
Y152000D02*
D03*
Y137000D02*
D03*
Y122000D02*
D03*
Y77000D02*
D03*
Y62000D02*
D03*
Y47000D02*
D03*
Y32000D02*
D03*
X335000Y212000D02*
D03*
Y197000D02*
D03*
Y182000D02*
D03*
Y167000D02*
D03*
Y152000D02*
D03*
Y137000D02*
D03*
Y122000D02*
D03*
Y77000D02*
D03*
Y62000D02*
D03*
Y47000D02*
D03*
Y32000D02*
D03*
X320000Y212000D02*
D03*
Y197000D02*
D03*
Y182000D02*
D03*
Y167000D02*
D03*
Y152000D02*
D03*
Y137000D02*
D03*
Y122000D02*
D03*
Y77000D02*
D03*
Y62000D02*
D03*
Y47000D02*
D03*
Y32000D02*
D03*
X305000Y212000D02*
D03*
Y197000D02*
D03*
Y182000D02*
D03*
Y167000D02*
D03*
Y152000D02*
D03*
Y137000D02*
D03*
Y122000D02*
D03*
Y77000D02*
D03*
Y62000D02*
D03*
Y47000D02*
D03*
Y32000D02*
D03*
X290000Y212000D02*
D03*
Y197000D02*
D03*
Y182000D02*
D03*
Y167000D02*
D03*
Y152000D02*
D03*
Y137000D02*
D03*
Y122000D02*
D03*
Y77000D02*
D03*
Y62000D02*
D03*
X275000Y212000D02*
D03*
Y197000D02*
D03*
Y182000D02*
D03*
Y167000D02*
D03*
Y152000D02*
D03*
Y137000D02*
D03*
Y122000D02*
D03*
Y77000D02*
D03*
Y62000D02*
D03*
Y47000D02*
D03*
Y32000D02*
D03*
X260000Y212000D02*
D03*
Y197000D02*
D03*
Y182000D02*
D03*
Y137000D02*
D03*
Y77000D02*
D03*
X245000Y197000D02*
D03*
Y182000D02*
D03*
Y137000D02*
D03*
Y62000D02*
D03*
X230000D02*
D03*
Y32000D02*
D03*
X200000Y77000D02*
D03*
Y47000D02*
D03*
Y32000D02*
D03*
X185000Y107000D02*
D03*
Y92000D02*
D03*
Y77000D02*
D03*
X170000Y107000D02*
D03*
Y92000D02*
D03*
Y77000D02*
D03*
Y62000D02*
D03*
Y32000D02*
D03*
X155000Y197000D02*
D03*
Y152000D02*
D03*
Y122000D02*
D03*
Y107000D02*
D03*
Y92000D02*
D03*
Y77000D02*
D03*
X140000Y212000D02*
D03*
Y197000D02*
D03*
Y152000D02*
D03*
Y137000D02*
D03*
Y107000D02*
D03*
Y92000D02*
D03*
Y77000D02*
D03*
Y62000D02*
D03*
X125000Y212000D02*
D03*
Y197000D02*
D03*
Y152000D02*
D03*
Y137000D02*
D03*
Y122000D02*
D03*
Y92000D02*
D03*
Y77000D02*
D03*
Y62000D02*
D03*
Y47000D02*
D03*
Y32000D02*
D03*
X110000Y212000D02*
D03*
Y197000D02*
D03*
Y152000D02*
D03*
Y137000D02*
D03*
Y122000D02*
D03*
Y77000D02*
D03*
Y62000D02*
D03*
X95000Y212000D02*
D03*
Y197000D02*
D03*
Y152000D02*
D03*
Y137000D02*
D03*
Y122000D02*
D03*
Y77000D02*
D03*
Y62000D02*
D03*
Y47000D02*
D03*
Y32000D02*
D03*
X80000Y212000D02*
D03*
Y197000D02*
D03*
Y182000D02*
D03*
Y152000D02*
D03*
Y137000D02*
D03*
Y122000D02*
D03*
Y107000D02*
D03*
Y92000D02*
D03*
Y77000D02*
D03*
Y62000D02*
D03*
Y47000D02*
D03*
Y32000D02*
D03*
X65000Y212000D02*
D03*
Y197000D02*
D03*
Y182000D02*
D03*
Y167000D02*
D03*
Y152000D02*
D03*
Y137000D02*
D03*
Y122000D02*
D03*
Y77000D02*
D03*
Y62000D02*
D03*
Y47000D02*
D03*
Y32000D02*
D03*
X50000Y212000D02*
D03*
Y197000D02*
D03*
Y182000D02*
D03*
Y167000D02*
D03*
Y152000D02*
D03*
Y137000D02*
D03*
Y122000D02*
D03*
Y107000D02*
D03*
Y92000D02*
D03*
Y77000D02*
D03*
Y62000D02*
D03*
Y47000D02*
D03*
Y32000D02*
D03*
X35000Y212000D02*
D03*
Y197000D02*
D03*
Y182000D02*
D03*
Y167000D02*
D03*
Y152000D02*
D03*
Y137000D02*
D03*
Y122000D02*
D03*
Y107000D02*
D03*
Y92000D02*
D03*
Y77000D02*
D03*
Y62000D02*
D03*
Y47000D02*
D03*
X20000Y212000D02*
D03*
Y197000D02*
D03*
Y182000D02*
D03*
Y167000D02*
D03*
Y152000D02*
D03*
Y137000D02*
D03*
Y122000D02*
D03*
Y107000D02*
D03*
Y92000D02*
D03*
Y77000D02*
D03*
Y62000D02*
D03*
Y47000D02*
D03*
X267500Y67500D02*
D03*
X388750Y90000D02*
D03*
X275473Y94930D02*
D03*
X385000Y111250D02*
D03*
X7518Y211998D02*
D03*
Y196998D02*
D03*
Y181998D02*
D03*
Y166998D02*
D03*
Y151998D02*
D03*
Y136998D02*
D03*
Y121998D02*
D03*
X7500Y92000D02*
D03*
X7518Y76998D02*
D03*
Y61998D02*
D03*
Y46998D02*
D03*
X7500Y107000D02*
D03*
X200000Y20500D02*
D03*
X215000D02*
D03*
X185000D02*
D03*
X170000Y18000D02*
D03*
X155000D02*
D03*
X140000D02*
D03*
X275000D02*
D03*
X260000D02*
D03*
X245000D02*
D03*
X230000D02*
D03*
X197500Y112500D02*
D03*
X201250Y105000D02*
D03*
X191500Y120000D02*
D03*
X155264Y180967D02*
D03*
X150000Y190000D02*
D03*
X221250Y60250D02*
D03*
X192250Y140871D02*
D03*
X238250Y188250D02*
D03*
Y200500D02*
D03*
Y212500D02*
D03*
X232000Y206500D02*
D03*
Y194500D02*
D03*
X168000Y206500D02*
D03*
Y194500D02*
D03*
X161750Y200500D02*
D03*
Y212500D02*
D03*
X204250Y148000D02*
D03*
X161000Y126500D02*
D03*
X232000Y120250D02*
D03*
X100000Y190000D02*
D03*
X360750Y110250D02*
D03*
X392500Y109500D02*
D03*
Y47000D02*
D03*
Y77000D02*
D03*
Y122000D02*
D03*
Y137000D02*
D03*
Y152000D02*
D03*
Y167000D02*
D03*
Y182000D02*
D03*
Y197000D02*
D03*
Y212000D02*
D03*
X189250Y183500D02*
D03*
X210500D02*
D03*
X204250Y167000D02*
D03*
X195750Y175500D02*
D03*
X198000Y183500D02*
D03*
X50000Y7750D02*
D03*
X65000D02*
D03*
X80000D02*
D03*
X95000D02*
D03*
X110000D02*
D03*
X125000D02*
D03*
X140000D02*
D03*
X155000D02*
D03*
X170000D02*
D03*
X230000D02*
D03*
X245000D02*
D03*
X260000D02*
D03*
X275000D02*
D03*
X290000D02*
D03*
X305500D02*
D03*
X320000D02*
D03*
X335000D02*
D03*
X350000D02*
D03*
Y18000D02*
D03*
X335000D02*
D03*
X320000D02*
D03*
X305000D02*
D03*
X290000D02*
D03*
X125000D02*
D03*
X110000D02*
D03*
X95250D02*
D03*
X79500D02*
D03*
X64750D02*
D03*
X50000D02*
D03*
X359000Y90000D02*
D03*
D44*
X375000Y25000D02*
D03*
X25000D02*
D03*
M02*
