G04*
G04 #@! TF.GenerationSoftware,Altium Limited,Altium Designer,21.6.4 (81)*
G04*
G04 Layer_Color=32768*
%FSLAX44Y44*%
%MOMM*%
G71*
G04*
G04 #@! TF.SameCoordinates,74441D79-BE30-4494-89CB-7DD98D1B6E6E*
G04*
G04*
G04 #@! TF.FilePolarity,Positive*
G04*
G01*
G75*
%ADD45C,0.0500*%
%ADD46C,0.0508*%
D45*
X176668Y113335D02*
X177501Y112502D01*
X179167D01*
X180000Y113335D01*
Y116667D01*
X179167Y117500D01*
X177501D01*
X176668Y116667D01*
X175002Y113335D02*
X174169Y112502D01*
X172502D01*
X171669Y113335D01*
Y114168D01*
X172502Y115001D01*
X173335D01*
X172502D01*
X171669Y115834D01*
Y116667D01*
X172502Y117500D01*
X174169D01*
X175002Y116667D01*
X251582Y112665D02*
X250749Y113498D01*
X249083D01*
X248250Y112665D01*
Y109333D01*
X249083Y108500D01*
X250749D01*
X251582Y109333D01*
X256581Y108500D02*
X253248D01*
X256581Y111832D01*
Y112665D01*
X255748Y113498D01*
X254081D01*
X253248Y112665D01*
X136000Y170750D02*
Y165752D01*
X133501D01*
X132668Y166585D01*
Y168251D01*
X133501Y169084D01*
X136000D01*
X134334D02*
X132668Y170750D01*
X131002Y166585D02*
X130169Y165752D01*
X128502D01*
X127669Y166585D01*
Y167418D01*
X128502Y168251D01*
X129335D01*
X128502D01*
X127669Y169084D01*
Y169917D01*
X128502Y170750D01*
X130169D01*
X131002Y169917D01*
X306997Y100996D02*
X304498Y103495D01*
X299499D01*
X297000Y100996D01*
Y98497D01*
X299499Y95998D01*
X304498D01*
X306997Y93498D01*
Y90999D01*
X304498Y88500D01*
X299499D01*
X297000Y90999D01*
X311995Y103495D02*
Y88500D01*
X316994Y93498D01*
X321992Y88500D01*
Y103495D01*
X336987Y88500D02*
X326990D01*
X336987Y98497D01*
Y100996D01*
X334488Y103495D01*
X329490D01*
X326990Y100996D01*
X253997Y150500D02*
X246000Y145168D01*
X253997D02*
X246000Y150500D01*
Y142503D02*
Y139837D01*
Y141170D01*
X253997D01*
X252665Y142503D01*
X359760Y21190D02*
Y31187D01*
X363092Y27854D01*
X366424Y31187D01*
Y21190D01*
X369757Y31187D02*
Y21190D01*
Y26188D01*
X376421D01*
Y31187D01*
Y21190D01*
X386418D02*
X379754D01*
X386418Y27854D01*
Y29521D01*
X384752Y31187D01*
X381420D01*
X379754Y29521D01*
X117500Y170003D02*
Y178000D01*
X113501D01*
X112168Y176667D01*
Y171336D01*
X113501Y170003D01*
X117500D01*
X109503Y171336D02*
X108170Y170003D01*
X105504D01*
X104171Y171336D01*
Y172668D01*
X105504Y174001D01*
X106837D01*
X105504D01*
X104171Y175334D01*
Y176667D01*
X105504Y178000D01*
X108170D01*
X109503Y176667D01*
X9760Y21190D02*
Y31187D01*
X13092Y27854D01*
X16424Y31187D01*
Y21190D01*
X19757Y31187D02*
Y21190D01*
Y26188D01*
X26421D01*
Y31187D01*
Y21190D01*
X29754D02*
X33086D01*
X31420D01*
Y31187D01*
X29754Y29521D01*
X93003Y90004D02*
X95502Y87505D01*
X100501D01*
X103000Y90004D01*
Y92503D01*
X100501Y95002D01*
X95502D01*
X93003Y97502D01*
Y100001D01*
X95502Y102500D01*
X100501D01*
X103000Y100001D01*
X88005Y87505D02*
Y102500D01*
X83006Y97502D01*
X78008Y102500D01*
Y87505D01*
X73010Y102500D02*
X68011D01*
X70511D01*
Y87505D01*
X73010Y90004D01*
X136000Y181750D02*
Y176752D01*
X133501D01*
X132668Y177585D01*
Y179251D01*
X133501Y180084D01*
X136000D01*
X134334D02*
X132668Y181750D01*
X127669D02*
X131002D01*
X127669Y178418D01*
Y177585D01*
X128502Y176752D01*
X130169D01*
X131002Y177585D01*
X79000Y166250D02*
Y171248D01*
X81499D01*
X82332Y170415D01*
Y168749D01*
X81499Y167916D01*
X79000D01*
X80666D02*
X82332Y166250D01*
X83998D02*
X85665D01*
X84831D01*
Y171248D01*
X83998Y170415D01*
X251582Y164915D02*
X250749Y165748D01*
X249083D01*
X248250Y164915D01*
Y161583D01*
X249083Y160750D01*
X250749D01*
X251582Y161583D01*
X253248Y160750D02*
X254914D01*
X254081D01*
Y165748D01*
X253248Y164915D01*
D46*
X284751Y92750D02*
X289250D01*
Y94999D01*
X288500Y95749D01*
X285501D01*
X284751Y94999D01*
Y92750D01*
X289250Y100248D02*
Y97248D01*
X286251Y100248D01*
X285501D01*
X284751Y99498D01*
Y97998D01*
X285501Y97248D01*
X108001Y92750D02*
X112500D01*
Y94999D01*
X111750Y95749D01*
X108751D01*
X108001Y94999D01*
Y92750D01*
X112500Y97248D02*
Y98748D01*
Y97998D01*
X108001D01*
X108751Y97248D01*
M02*
