G04*
G04 #@! TF.GenerationSoftware,Altium Limited,Altium Designer,21.6.4 (81)*
G04*
G04 Layer_Color=2752767*
%FSLAX44Y44*%
%MOMM*%
G71*
G04*
G04 #@! TF.SameCoordinates,74441D79-BE30-4494-89CB-7DD98D1B6E6E*
G04*
G04*
G04 #@! TF.FilePolarity,Positive*
G04*
G01*
G75*
%ADD46C,0.0508*%
%ADD49C,0.0677*%
D46*
X372868Y113318D02*
Y117382D01*
X376932D01*
Y113318D01*
X372868D01*
X383028Y62518D02*
Y66582D01*
X387092D01*
Y62518D01*
X383028D01*
X362708D02*
Y66582D01*
X366772D01*
Y62518D01*
X362708D01*
X111100Y39668D02*
X109068Y43732D01*
X113132D01*
X111100Y39668D01*
X136500D02*
X134468Y43732D01*
X138532D01*
X136500Y39668D01*
X238100D02*
X236068Y43732D01*
X240132D01*
X238100Y39668D01*
X288900D02*
X286868Y43732D01*
X290932D01*
X288900Y39668D01*
X263500D02*
X261468Y43732D01*
X265532D01*
X263500Y39668D01*
X212700D02*
X210668Y43732D01*
X214732D01*
X212700Y39668D01*
X187300D02*
X185268Y43732D01*
X189332D01*
X187300Y39668D01*
X161900D02*
X159868Y43732D01*
X163932D01*
X161900Y39668D01*
X185000Y112968D02*
X186016Y113984D01*
X187032D01*
X186016Y115000D01*
X187032Y116016D01*
X186016D01*
X185000Y117032D01*
X183984Y116016D01*
X182968D01*
X183984Y115000D01*
X182968Y113984D01*
X183984D01*
X185000Y112968D01*
X215000Y100218D02*
X216016Y101234D01*
X217032D01*
X216016Y102250D01*
X217032Y103266D01*
X216016D01*
X215000Y104282D01*
X213984Y103266D01*
X212968D01*
X213984Y102250D01*
X212968Y101234D01*
X213984D01*
X215000Y100218D01*
X134500Y184218D02*
X135516Y185234D01*
X136532D01*
X135516Y186250D01*
X136532Y187266D01*
X135516D01*
X134500Y188282D01*
X133484Y187266D01*
X132468D01*
X133484Y186250D01*
X132468Y185234D01*
X133484D01*
X134500Y184218D01*
Y156218D02*
X135516Y157234D01*
X136532D01*
X135516Y158250D01*
X136532Y159266D01*
X135516D01*
X134500Y160282D01*
X133484Y159266D01*
X132468D01*
X133484Y158250D01*
X132468Y157234D01*
X133484D01*
X134500Y156218D01*
X156450Y161248D02*
X157466Y162264D01*
X158482D01*
X157466Y163280D01*
X158482Y164296D01*
X157466D01*
X156450Y165312D01*
X155434Y164296D01*
X154418D01*
X155434Y163280D01*
X154418Y162264D01*
X155434D01*
X156450Y161248D01*
X73750Y166468D02*
X74766Y167484D01*
X75782D01*
X74766Y168500D01*
X75782Y169516D01*
X74766D01*
X73750Y170532D01*
X72734Y169516D01*
X71718D01*
X72734Y168500D01*
X71718Y167484D01*
X72734D01*
X73750Y166468D01*
X145000Y172968D02*
X146016Y173984D01*
X147032D01*
X146016Y175000D01*
X147032Y176016D01*
X146016D01*
X145000Y177032D01*
X143984Y176016D01*
X142968D01*
X143984Y175000D01*
X142968Y173984D01*
X143984D01*
X145000Y172968D01*
X245000Y74968D02*
X246016Y75984D01*
X247032D01*
X246016Y77000D01*
X247032Y78016D01*
X246016D01*
X245000Y79032D01*
X243984Y78016D01*
X242968D01*
X243984Y77000D01*
X242968Y75984D01*
X243984D01*
X245000Y74968D01*
X230000D02*
X231016Y75984D01*
X232032D01*
X231016Y77000D01*
X232032Y78016D01*
X231016D01*
X230000Y79032D01*
X228984Y78016D01*
X227968D01*
X228984Y77000D01*
X227968Y75984D01*
X228984D01*
X230000Y74968D01*
X380000Y209968D02*
X381016Y210984D01*
X382032D01*
X381016Y212000D01*
X382032Y213016D01*
X381016D01*
X380000Y214032D01*
X378984Y213016D01*
X377968D01*
X378984Y212000D01*
X377968Y210984D01*
X378984D01*
X380000Y209968D01*
Y194968D02*
X381016Y195984D01*
X382032D01*
X381016Y197000D01*
X382032Y198016D01*
X381016D01*
X380000Y199032D01*
X378984Y198016D01*
X377968D01*
X378984Y197000D01*
X377968Y195984D01*
X378984D01*
X380000Y194968D01*
Y179968D02*
X381016Y180984D01*
X382032D01*
X381016Y182000D01*
X382032Y183016D01*
X381016D01*
X380000Y184032D01*
X378984Y183016D01*
X377968D01*
X378984Y182000D01*
X377968Y180984D01*
X378984D01*
X380000Y179968D01*
Y164968D02*
X381016Y165984D01*
X382032D01*
X381016Y167000D01*
X382032Y168016D01*
X381016D01*
X380000Y169032D01*
X378984Y168016D01*
X377968D01*
X378984Y167000D01*
X377968Y165984D01*
X378984D01*
X380000Y164968D01*
Y149968D02*
X381016Y150984D01*
X382032D01*
X381016Y152000D01*
X382032Y153016D01*
X381016D01*
X380000Y154032D01*
X378984Y153016D01*
X377968D01*
X378984Y152000D01*
X377968Y150984D01*
X378984D01*
X380000Y149968D01*
Y134968D02*
X381016Y135984D01*
X382032D01*
X381016Y137000D01*
X382032Y138016D01*
X381016D01*
X380000Y139032D01*
X378984Y138016D01*
X377968D01*
X378984Y137000D01*
X377968Y135984D01*
X378984D01*
X380000Y134968D01*
Y44968D02*
X381016Y45984D01*
X382032D01*
X381016Y47000D01*
X382032Y48016D01*
X381016D01*
X380000Y49032D01*
X378984Y48016D01*
X377968D01*
X378984Y47000D01*
X377968Y45984D01*
X378984D01*
X380000Y44968D01*
X365000Y209968D02*
X366016Y210984D01*
X367032D01*
X366016Y212000D01*
X367032Y213016D01*
X366016D01*
X365000Y214032D01*
X363984Y213016D01*
X362968D01*
X363984Y212000D01*
X362968Y210984D01*
X363984D01*
X365000Y209968D01*
Y194968D02*
X366016Y195984D01*
X367032D01*
X366016Y197000D01*
X367032Y198016D01*
X366016D01*
X365000Y199032D01*
X363984Y198016D01*
X362968D01*
X363984Y197000D01*
X362968Y195984D01*
X363984D01*
X365000Y194968D01*
Y179968D02*
X366016Y180984D01*
X367032D01*
X366016Y182000D01*
X367032Y183016D01*
X366016D01*
X365000Y184032D01*
X363984Y183016D01*
X362968D01*
X363984Y182000D01*
X362968Y180984D01*
X363984D01*
X365000Y179968D01*
Y164968D02*
X366016Y165984D01*
X367032D01*
X366016Y167000D01*
X367032Y168016D01*
X366016D01*
X365000Y169032D01*
X363984Y168016D01*
X362968D01*
X363984Y167000D01*
X362968Y165984D01*
X363984D01*
X365000Y164968D01*
Y149968D02*
X366016Y150984D01*
X367032D01*
X366016Y152000D01*
X367032Y153016D01*
X366016D01*
X365000Y154032D01*
X363984Y153016D01*
X362968D01*
X363984Y152000D01*
X362968Y150984D01*
X363984D01*
X365000Y149968D01*
Y134968D02*
X366016Y135984D01*
X367032D01*
X366016Y137000D01*
X367032Y138016D01*
X366016D01*
X365000Y139032D01*
X363984Y138016D01*
X362968D01*
X363984Y137000D01*
X362968Y135984D01*
X363984D01*
X365000Y134968D01*
Y119968D02*
X366016Y120984D01*
X367032D01*
X366016Y122000D01*
X367032Y123016D01*
X366016D01*
X365000Y124032D01*
X363984Y123016D01*
X362968D01*
X363984Y122000D01*
X362968Y120984D01*
X363984D01*
X365000Y119968D01*
Y44968D02*
X366016Y45984D01*
X367032D01*
X366016Y47000D01*
X367032Y48016D01*
X366016D01*
X365000Y49032D01*
X363984Y48016D01*
X362968D01*
X363984Y47000D01*
X362968Y45984D01*
X363984D01*
X365000Y44968D01*
X350000Y209968D02*
X351016Y210984D01*
X352032D01*
X351016Y212000D01*
X352032Y213016D01*
X351016D01*
X350000Y214032D01*
X348984Y213016D01*
X347968D01*
X348984Y212000D01*
X347968Y210984D01*
X348984D01*
X350000Y209968D01*
Y194968D02*
X351016Y195984D01*
X352032D01*
X351016Y197000D01*
X352032Y198016D01*
X351016D01*
X350000Y199032D01*
X348984Y198016D01*
X347968D01*
X348984Y197000D01*
X347968Y195984D01*
X348984D01*
X350000Y194968D01*
Y179968D02*
X351016Y180984D01*
X352032D01*
X351016Y182000D01*
X352032Y183016D01*
X351016D01*
X350000Y184032D01*
X348984Y183016D01*
X347968D01*
X348984Y182000D01*
X347968Y180984D01*
X348984D01*
X350000Y179968D01*
Y164968D02*
X351016Y165984D01*
X352032D01*
X351016Y167000D01*
X352032Y168016D01*
X351016D01*
X350000Y169032D01*
X348984Y168016D01*
X347968D01*
X348984Y167000D01*
X347968Y165984D01*
X348984D01*
X350000Y164968D01*
Y149968D02*
X351016Y150984D01*
X352032D01*
X351016Y152000D01*
X352032Y153016D01*
X351016D01*
X350000Y154032D01*
X348984Y153016D01*
X347968D01*
X348984Y152000D01*
X347968Y150984D01*
X348984D01*
X350000Y149968D01*
Y134968D02*
X351016Y135984D01*
X352032D01*
X351016Y137000D01*
X352032Y138016D01*
X351016D01*
X350000Y139032D01*
X348984Y138016D01*
X347968D01*
X348984Y137000D01*
X347968Y135984D01*
X348984D01*
X350000Y134968D01*
Y119968D02*
X351016Y120984D01*
X352032D01*
X351016Y122000D01*
X352032Y123016D01*
X351016D01*
X350000Y124032D01*
X348984Y123016D01*
X347968D01*
X348984Y122000D01*
X347968Y120984D01*
X348984D01*
X350000Y119968D01*
Y74968D02*
X351016Y75984D01*
X352032D01*
X351016Y77000D01*
X352032Y78016D01*
X351016D01*
X350000Y79032D01*
X348984Y78016D01*
X347968D01*
X348984Y77000D01*
X347968Y75984D01*
X348984D01*
X350000Y74968D01*
Y59968D02*
X351016Y60984D01*
X352032D01*
X351016Y62000D01*
X352032Y63016D01*
X351016D01*
X350000Y64032D01*
X348984Y63016D01*
X347968D01*
X348984Y62000D01*
X347968Y60984D01*
X348984D01*
X350000Y59968D01*
Y44968D02*
X351016Y45984D01*
X352032D01*
X351016Y47000D01*
X352032Y48016D01*
X351016D01*
X350000Y49032D01*
X348984Y48016D01*
X347968D01*
X348984Y47000D01*
X347968Y45984D01*
X348984D01*
X350000Y44968D01*
Y29968D02*
X351016Y30984D01*
X352032D01*
X351016Y32000D01*
X352032Y33016D01*
X351016D01*
X350000Y34032D01*
X348984Y33016D01*
X347968D01*
X348984Y32000D01*
X347968Y30984D01*
X348984D01*
X350000Y29968D01*
X335000Y209968D02*
X336016Y210984D01*
X337032D01*
X336016Y212000D01*
X337032Y213016D01*
X336016D01*
X335000Y214032D01*
X333984Y213016D01*
X332968D01*
X333984Y212000D01*
X332968Y210984D01*
X333984D01*
X335000Y209968D01*
Y194968D02*
X336016Y195984D01*
X337032D01*
X336016Y197000D01*
X337032Y198016D01*
X336016D01*
X335000Y199032D01*
X333984Y198016D01*
X332968D01*
X333984Y197000D01*
X332968Y195984D01*
X333984D01*
X335000Y194968D01*
Y179968D02*
X336016Y180984D01*
X337032D01*
X336016Y182000D01*
X337032Y183016D01*
X336016D01*
X335000Y184032D01*
X333984Y183016D01*
X332968D01*
X333984Y182000D01*
X332968Y180984D01*
X333984D01*
X335000Y179968D01*
Y164968D02*
X336016Y165984D01*
X337032D01*
X336016Y167000D01*
X337032Y168016D01*
X336016D01*
X335000Y169032D01*
X333984Y168016D01*
X332968D01*
X333984Y167000D01*
X332968Y165984D01*
X333984D01*
X335000Y164968D01*
Y149968D02*
X336016Y150984D01*
X337032D01*
X336016Y152000D01*
X337032Y153016D01*
X336016D01*
X335000Y154032D01*
X333984Y153016D01*
X332968D01*
X333984Y152000D01*
X332968Y150984D01*
X333984D01*
X335000Y149968D01*
Y134968D02*
X336016Y135984D01*
X337032D01*
X336016Y137000D01*
X337032Y138016D01*
X336016D01*
X335000Y139032D01*
X333984Y138016D01*
X332968D01*
X333984Y137000D01*
X332968Y135984D01*
X333984D01*
X335000Y134968D01*
Y119968D02*
X336016Y120984D01*
X337032D01*
X336016Y122000D01*
X337032Y123016D01*
X336016D01*
X335000Y124032D01*
X333984Y123016D01*
X332968D01*
X333984Y122000D01*
X332968Y120984D01*
X333984D01*
X335000Y119968D01*
Y74968D02*
X336016Y75984D01*
X337032D01*
X336016Y77000D01*
X337032Y78016D01*
X336016D01*
X335000Y79032D01*
X333984Y78016D01*
X332968D01*
X333984Y77000D01*
X332968Y75984D01*
X333984D01*
X335000Y74968D01*
Y59968D02*
X336016Y60984D01*
X337032D01*
X336016Y62000D01*
X337032Y63016D01*
X336016D01*
X335000Y64032D01*
X333984Y63016D01*
X332968D01*
X333984Y62000D01*
X332968Y60984D01*
X333984D01*
X335000Y59968D01*
Y44968D02*
X336016Y45984D01*
X337032D01*
X336016Y47000D01*
X337032Y48016D01*
X336016D01*
X335000Y49032D01*
X333984Y48016D01*
X332968D01*
X333984Y47000D01*
X332968Y45984D01*
X333984D01*
X335000Y44968D01*
Y29968D02*
X336016Y30984D01*
X337032D01*
X336016Y32000D01*
X337032Y33016D01*
X336016D01*
X335000Y34032D01*
X333984Y33016D01*
X332968D01*
X333984Y32000D01*
X332968Y30984D01*
X333984D01*
X335000Y29968D01*
X320000Y209968D02*
X321016Y210984D01*
X322032D01*
X321016Y212000D01*
X322032Y213016D01*
X321016D01*
X320000Y214032D01*
X318984Y213016D01*
X317968D01*
X318984Y212000D01*
X317968Y210984D01*
X318984D01*
X320000Y209968D01*
Y194968D02*
X321016Y195984D01*
X322032D01*
X321016Y197000D01*
X322032Y198016D01*
X321016D01*
X320000Y199032D01*
X318984Y198016D01*
X317968D01*
X318984Y197000D01*
X317968Y195984D01*
X318984D01*
X320000Y194968D01*
Y179968D02*
X321016Y180984D01*
X322032D01*
X321016Y182000D01*
X322032Y183016D01*
X321016D01*
X320000Y184032D01*
X318984Y183016D01*
X317968D01*
X318984Y182000D01*
X317968Y180984D01*
X318984D01*
X320000Y179968D01*
Y164968D02*
X321016Y165984D01*
X322032D01*
X321016Y167000D01*
X322032Y168016D01*
X321016D01*
X320000Y169032D01*
X318984Y168016D01*
X317968D01*
X318984Y167000D01*
X317968Y165984D01*
X318984D01*
X320000Y164968D01*
Y149968D02*
X321016Y150984D01*
X322032D01*
X321016Y152000D01*
X322032Y153016D01*
X321016D01*
X320000Y154032D01*
X318984Y153016D01*
X317968D01*
X318984Y152000D01*
X317968Y150984D01*
X318984D01*
X320000Y149968D01*
Y134968D02*
X321016Y135984D01*
X322032D01*
X321016Y137000D01*
X322032Y138016D01*
X321016D01*
X320000Y139032D01*
X318984Y138016D01*
X317968D01*
X318984Y137000D01*
X317968Y135984D01*
X318984D01*
X320000Y134968D01*
Y119968D02*
X321016Y120984D01*
X322032D01*
X321016Y122000D01*
X322032Y123016D01*
X321016D01*
X320000Y124032D01*
X318984Y123016D01*
X317968D01*
X318984Y122000D01*
X317968Y120984D01*
X318984D01*
X320000Y119968D01*
Y74968D02*
X321016Y75984D01*
X322032D01*
X321016Y77000D01*
X322032Y78016D01*
X321016D01*
X320000Y79032D01*
X318984Y78016D01*
X317968D01*
X318984Y77000D01*
X317968Y75984D01*
X318984D01*
X320000Y74968D01*
Y59968D02*
X321016Y60984D01*
X322032D01*
X321016Y62000D01*
X322032Y63016D01*
X321016D01*
X320000Y64032D01*
X318984Y63016D01*
X317968D01*
X318984Y62000D01*
X317968Y60984D01*
X318984D01*
X320000Y59968D01*
Y44968D02*
X321016Y45984D01*
X322032D01*
X321016Y47000D01*
X322032Y48016D01*
X321016D01*
X320000Y49032D01*
X318984Y48016D01*
X317968D01*
X318984Y47000D01*
X317968Y45984D01*
X318984D01*
X320000Y44968D01*
Y29968D02*
X321016Y30984D01*
X322032D01*
X321016Y32000D01*
X322032Y33016D01*
X321016D01*
X320000Y34032D01*
X318984Y33016D01*
X317968D01*
X318984Y32000D01*
X317968Y30984D01*
X318984D01*
X320000Y29968D01*
X305000Y209968D02*
X306016Y210984D01*
X307032D01*
X306016Y212000D01*
X307032Y213016D01*
X306016D01*
X305000Y214032D01*
X303984Y213016D01*
X302968D01*
X303984Y212000D01*
X302968Y210984D01*
X303984D01*
X305000Y209968D01*
Y194968D02*
X306016Y195984D01*
X307032D01*
X306016Y197000D01*
X307032Y198016D01*
X306016D01*
X305000Y199032D01*
X303984Y198016D01*
X302968D01*
X303984Y197000D01*
X302968Y195984D01*
X303984D01*
X305000Y194968D01*
Y179968D02*
X306016Y180984D01*
X307032D01*
X306016Y182000D01*
X307032Y183016D01*
X306016D01*
X305000Y184032D01*
X303984Y183016D01*
X302968D01*
X303984Y182000D01*
X302968Y180984D01*
X303984D01*
X305000Y179968D01*
Y164968D02*
X306016Y165984D01*
X307032D01*
X306016Y167000D01*
X307032Y168016D01*
X306016D01*
X305000Y169032D01*
X303984Y168016D01*
X302968D01*
X303984Y167000D01*
X302968Y165984D01*
X303984D01*
X305000Y164968D01*
Y149968D02*
X306016Y150984D01*
X307032D01*
X306016Y152000D01*
X307032Y153016D01*
X306016D01*
X305000Y154032D01*
X303984Y153016D01*
X302968D01*
X303984Y152000D01*
X302968Y150984D01*
X303984D01*
X305000Y149968D01*
Y134968D02*
X306016Y135984D01*
X307032D01*
X306016Y137000D01*
X307032Y138016D01*
X306016D01*
X305000Y139032D01*
X303984Y138016D01*
X302968D01*
X303984Y137000D01*
X302968Y135984D01*
X303984D01*
X305000Y134968D01*
Y119968D02*
X306016Y120984D01*
X307032D01*
X306016Y122000D01*
X307032Y123016D01*
X306016D01*
X305000Y124032D01*
X303984Y123016D01*
X302968D01*
X303984Y122000D01*
X302968Y120984D01*
X303984D01*
X305000Y119968D01*
Y74968D02*
X306016Y75984D01*
X307032D01*
X306016Y77000D01*
X307032Y78016D01*
X306016D01*
X305000Y79032D01*
X303984Y78016D01*
X302968D01*
X303984Y77000D01*
X302968Y75984D01*
X303984D01*
X305000Y74968D01*
Y59968D02*
X306016Y60984D01*
X307032D01*
X306016Y62000D01*
X307032Y63016D01*
X306016D01*
X305000Y64032D01*
X303984Y63016D01*
X302968D01*
X303984Y62000D01*
X302968Y60984D01*
X303984D01*
X305000Y59968D01*
Y44968D02*
X306016Y45984D01*
X307032D01*
X306016Y47000D01*
X307032Y48016D01*
X306016D01*
X305000Y49032D01*
X303984Y48016D01*
X302968D01*
X303984Y47000D01*
X302968Y45984D01*
X303984D01*
X305000Y44968D01*
Y29968D02*
X306016Y30984D01*
X307032D01*
X306016Y32000D01*
X307032Y33016D01*
X306016D01*
X305000Y34032D01*
X303984Y33016D01*
X302968D01*
X303984Y32000D01*
X302968Y30984D01*
X303984D01*
X305000Y29968D01*
X290000Y209968D02*
X291016Y210984D01*
X292032D01*
X291016Y212000D01*
X292032Y213016D01*
X291016D01*
X290000Y214032D01*
X288984Y213016D01*
X287968D01*
X288984Y212000D01*
X287968Y210984D01*
X288984D01*
X290000Y209968D01*
Y194968D02*
X291016Y195984D01*
X292032D01*
X291016Y197000D01*
X292032Y198016D01*
X291016D01*
X290000Y199032D01*
X288984Y198016D01*
X287968D01*
X288984Y197000D01*
X287968Y195984D01*
X288984D01*
X290000Y194968D01*
Y179968D02*
X291016Y180984D01*
X292032D01*
X291016Y182000D01*
X292032Y183016D01*
X291016D01*
X290000Y184032D01*
X288984Y183016D01*
X287968D01*
X288984Y182000D01*
X287968Y180984D01*
X288984D01*
X290000Y179968D01*
Y164968D02*
X291016Y165984D01*
X292032D01*
X291016Y167000D01*
X292032Y168016D01*
X291016D01*
X290000Y169032D01*
X288984Y168016D01*
X287968D01*
X288984Y167000D01*
X287968Y165984D01*
X288984D01*
X290000Y164968D01*
Y149968D02*
X291016Y150984D01*
X292032D01*
X291016Y152000D01*
X292032Y153016D01*
X291016D01*
X290000Y154032D01*
X288984Y153016D01*
X287968D01*
X288984Y152000D01*
X287968Y150984D01*
X288984D01*
X290000Y149968D01*
Y134968D02*
X291016Y135984D01*
X292032D01*
X291016Y137000D01*
X292032Y138016D01*
X291016D01*
X290000Y139032D01*
X288984Y138016D01*
X287968D01*
X288984Y137000D01*
X287968Y135984D01*
X288984D01*
X290000Y134968D01*
Y119968D02*
X291016Y120984D01*
X292032D01*
X291016Y122000D01*
X292032Y123016D01*
X291016D01*
X290000Y124032D01*
X288984Y123016D01*
X287968D01*
X288984Y122000D01*
X287968Y120984D01*
X288984D01*
X290000Y119968D01*
Y74968D02*
X291016Y75984D01*
X292032D01*
X291016Y77000D01*
X292032Y78016D01*
X291016D01*
X290000Y79032D01*
X288984Y78016D01*
X287968D01*
X288984Y77000D01*
X287968Y75984D01*
X288984D01*
X290000Y74968D01*
Y59968D02*
X291016Y60984D01*
X292032D01*
X291016Y62000D01*
X292032Y63016D01*
X291016D01*
X290000Y64032D01*
X288984Y63016D01*
X287968D01*
X288984Y62000D01*
X287968Y60984D01*
X288984D01*
X290000Y59968D01*
X275000Y209968D02*
X276016Y210984D01*
X277032D01*
X276016Y212000D01*
X277032Y213016D01*
X276016D01*
X275000Y214032D01*
X273984Y213016D01*
X272968D01*
X273984Y212000D01*
X272968Y210984D01*
X273984D01*
X275000Y209968D01*
Y194968D02*
X276016Y195984D01*
X277032D01*
X276016Y197000D01*
X277032Y198016D01*
X276016D01*
X275000Y199032D01*
X273984Y198016D01*
X272968D01*
X273984Y197000D01*
X272968Y195984D01*
X273984D01*
X275000Y194968D01*
Y179968D02*
X276016Y180984D01*
X277032D01*
X276016Y182000D01*
X277032Y183016D01*
X276016D01*
X275000Y184032D01*
X273984Y183016D01*
X272968D01*
X273984Y182000D01*
X272968Y180984D01*
X273984D01*
X275000Y179968D01*
Y164968D02*
X276016Y165984D01*
X277032D01*
X276016Y167000D01*
X277032Y168016D01*
X276016D01*
X275000Y169032D01*
X273984Y168016D01*
X272968D01*
X273984Y167000D01*
X272968Y165984D01*
X273984D01*
X275000Y164968D01*
Y149968D02*
X276016Y150984D01*
X277032D01*
X276016Y152000D01*
X277032Y153016D01*
X276016D01*
X275000Y154032D01*
X273984Y153016D01*
X272968D01*
X273984Y152000D01*
X272968Y150984D01*
X273984D01*
X275000Y149968D01*
Y134968D02*
X276016Y135984D01*
X277032D01*
X276016Y137000D01*
X277032Y138016D01*
X276016D01*
X275000Y139032D01*
X273984Y138016D01*
X272968D01*
X273984Y137000D01*
X272968Y135984D01*
X273984D01*
X275000Y134968D01*
Y119968D02*
X276016Y120984D01*
X277032D01*
X276016Y122000D01*
X277032Y123016D01*
X276016D01*
X275000Y124032D01*
X273984Y123016D01*
X272968D01*
X273984Y122000D01*
X272968Y120984D01*
X273984D01*
X275000Y119968D01*
Y74968D02*
X276016Y75984D01*
X277032D01*
X276016Y77000D01*
X277032Y78016D01*
X276016D01*
X275000Y79032D01*
X273984Y78016D01*
X272968D01*
X273984Y77000D01*
X272968Y75984D01*
X273984D01*
X275000Y74968D01*
Y59968D02*
X276016Y60984D01*
X277032D01*
X276016Y62000D01*
X277032Y63016D01*
X276016D01*
X275000Y64032D01*
X273984Y63016D01*
X272968D01*
X273984Y62000D01*
X272968Y60984D01*
X273984D01*
X275000Y59968D01*
Y44968D02*
X276016Y45984D01*
X277032D01*
X276016Y47000D01*
X277032Y48016D01*
X276016D01*
X275000Y49032D01*
X273984Y48016D01*
X272968D01*
X273984Y47000D01*
X272968Y45984D01*
X273984D01*
X275000Y44968D01*
Y29968D02*
X276016Y30984D01*
X277032D01*
X276016Y32000D01*
X277032Y33016D01*
X276016D01*
X275000Y34032D01*
X273984Y33016D01*
X272968D01*
X273984Y32000D01*
X272968Y30984D01*
X273984D01*
X275000Y29968D01*
X260000Y209968D02*
X261016Y210984D01*
X262032D01*
X261016Y212000D01*
X262032Y213016D01*
X261016D01*
X260000Y214032D01*
X258984Y213016D01*
X257968D01*
X258984Y212000D01*
X257968Y210984D01*
X258984D01*
X260000Y209968D01*
Y194968D02*
X261016Y195984D01*
X262032D01*
X261016Y197000D01*
X262032Y198016D01*
X261016D01*
X260000Y199032D01*
X258984Y198016D01*
X257968D01*
X258984Y197000D01*
X257968Y195984D01*
X258984D01*
X260000Y194968D01*
Y179968D02*
X261016Y180984D01*
X262032D01*
X261016Y182000D01*
X262032Y183016D01*
X261016D01*
X260000Y184032D01*
X258984Y183016D01*
X257968D01*
X258984Y182000D01*
X257968Y180984D01*
X258984D01*
X260000Y179968D01*
Y134968D02*
X261016Y135984D01*
X262032D01*
X261016Y137000D01*
X262032Y138016D01*
X261016D01*
X260000Y139032D01*
X258984Y138016D01*
X257968D01*
X258984Y137000D01*
X257968Y135984D01*
X258984D01*
X260000Y134968D01*
Y74968D02*
X261016Y75984D01*
X262032D01*
X261016Y77000D01*
X262032Y78016D01*
X261016D01*
X260000Y79032D01*
X258984Y78016D01*
X257968D01*
X258984Y77000D01*
X257968Y75984D01*
X258984D01*
X260000Y74968D01*
X245000Y194968D02*
X246016Y195984D01*
X247032D01*
X246016Y197000D01*
X247032Y198016D01*
X246016D01*
X245000Y199032D01*
X243984Y198016D01*
X242968D01*
X243984Y197000D01*
X242968Y195984D01*
X243984D01*
X245000Y194968D01*
Y179968D02*
X246016Y180984D01*
X247032D01*
X246016Y182000D01*
X247032Y183016D01*
X246016D01*
X245000Y184032D01*
X243984Y183016D01*
X242968D01*
X243984Y182000D01*
X242968Y180984D01*
X243984D01*
X245000Y179968D01*
Y134968D02*
X246016Y135984D01*
X247032D01*
X246016Y137000D01*
X247032Y138016D01*
X246016D01*
X245000Y139032D01*
X243984Y138016D01*
X242968D01*
X243984Y137000D01*
X242968Y135984D01*
X243984D01*
X245000Y134968D01*
Y59968D02*
X246016Y60984D01*
X247032D01*
X246016Y62000D01*
X247032Y63016D01*
X246016D01*
X245000Y64032D01*
X243984Y63016D01*
X242968D01*
X243984Y62000D01*
X242968Y60984D01*
X243984D01*
X245000Y59968D01*
X230000D02*
X231016Y60984D01*
X232032D01*
X231016Y62000D01*
X232032Y63016D01*
X231016D01*
X230000Y64032D01*
X228984Y63016D01*
X227968D01*
X228984Y62000D01*
X227968Y60984D01*
X228984D01*
X230000Y59968D01*
Y29968D02*
X231016Y30984D01*
X232032D01*
X231016Y32000D01*
X232032Y33016D01*
X231016D01*
X230000Y34032D01*
X228984Y33016D01*
X227968D01*
X228984Y32000D01*
X227968Y30984D01*
X228984D01*
X230000Y29968D01*
X200000Y74968D02*
X201016Y75984D01*
X202032D01*
X201016Y77000D01*
X202032Y78016D01*
X201016D01*
X200000Y79032D01*
X198984Y78016D01*
X197968D01*
X198984Y77000D01*
X197968Y75984D01*
X198984D01*
X200000Y74968D01*
Y44968D02*
X201016Y45984D01*
X202032D01*
X201016Y47000D01*
X202032Y48016D01*
X201016D01*
X200000Y49032D01*
X198984Y48016D01*
X197968D01*
X198984Y47000D01*
X197968Y45984D01*
X198984D01*
X200000Y44968D01*
Y29968D02*
X201016Y30984D01*
X202032D01*
X201016Y32000D01*
X202032Y33016D01*
X201016D01*
X200000Y34032D01*
X198984Y33016D01*
X197968D01*
X198984Y32000D01*
X197968Y30984D01*
X198984D01*
X200000Y29968D01*
X185000Y104968D02*
X186016Y105984D01*
X187032D01*
X186016Y107000D01*
X187032Y108016D01*
X186016D01*
X185000Y109032D01*
X183984Y108016D01*
X182968D01*
X183984Y107000D01*
X182968Y105984D01*
X183984D01*
X185000Y104968D01*
Y89968D02*
X186016Y90984D01*
X187032D01*
X186016Y92000D01*
X187032Y93016D01*
X186016D01*
X185000Y94032D01*
X183984Y93016D01*
X182968D01*
X183984Y92000D01*
X182968Y90984D01*
X183984D01*
X185000Y89968D01*
Y74968D02*
X186016Y75984D01*
X187032D01*
X186016Y77000D01*
X187032Y78016D01*
X186016D01*
X185000Y79032D01*
X183984Y78016D01*
X182968D01*
X183984Y77000D01*
X182968Y75984D01*
X183984D01*
X185000Y74968D01*
X170000Y104968D02*
X171016Y105984D01*
X172032D01*
X171016Y107000D01*
X172032Y108016D01*
X171016D01*
X170000Y109032D01*
X168984Y108016D01*
X167968D01*
X168984Y107000D01*
X167968Y105984D01*
X168984D01*
X170000Y104968D01*
Y89968D02*
X171016Y90984D01*
X172032D01*
X171016Y92000D01*
X172032Y93016D01*
X171016D01*
X170000Y94032D01*
X168984Y93016D01*
X167968D01*
X168984Y92000D01*
X167968Y90984D01*
X168984D01*
X170000Y89968D01*
Y74968D02*
X171016Y75984D01*
X172032D01*
X171016Y77000D01*
X172032Y78016D01*
X171016D01*
X170000Y79032D01*
X168984Y78016D01*
X167968D01*
X168984Y77000D01*
X167968Y75984D01*
X168984D01*
X170000Y74968D01*
Y59968D02*
X171016Y60984D01*
X172032D01*
X171016Y62000D01*
X172032Y63016D01*
X171016D01*
X170000Y64032D01*
X168984Y63016D01*
X167968D01*
X168984Y62000D01*
X167968Y60984D01*
X168984D01*
X170000Y59968D01*
Y29968D02*
X171016Y30984D01*
X172032D01*
X171016Y32000D01*
X172032Y33016D01*
X171016D01*
X170000Y34032D01*
X168984Y33016D01*
X167968D01*
X168984Y32000D01*
X167968Y30984D01*
X168984D01*
X170000Y29968D01*
X155000Y194968D02*
X156016Y195984D01*
X157032D01*
X156016Y197000D01*
X157032Y198016D01*
X156016D01*
X155000Y199032D01*
X153984Y198016D01*
X152968D01*
X153984Y197000D01*
X152968Y195984D01*
X153984D01*
X155000Y194968D01*
Y149968D02*
X156016Y150984D01*
X157032D01*
X156016Y152000D01*
X157032Y153016D01*
X156016D01*
X155000Y154032D01*
X153984Y153016D01*
X152968D01*
X153984Y152000D01*
X152968Y150984D01*
X153984D01*
X155000Y149968D01*
Y119968D02*
X156016Y120984D01*
X157032D01*
X156016Y122000D01*
X157032Y123016D01*
X156016D01*
X155000Y124032D01*
X153984Y123016D01*
X152968D01*
X153984Y122000D01*
X152968Y120984D01*
X153984D01*
X155000Y119968D01*
Y104968D02*
X156016Y105984D01*
X157032D01*
X156016Y107000D01*
X157032Y108016D01*
X156016D01*
X155000Y109032D01*
X153984Y108016D01*
X152968D01*
X153984Y107000D01*
X152968Y105984D01*
X153984D01*
X155000Y104968D01*
Y89968D02*
X156016Y90984D01*
X157032D01*
X156016Y92000D01*
X157032Y93016D01*
X156016D01*
X155000Y94032D01*
X153984Y93016D01*
X152968D01*
X153984Y92000D01*
X152968Y90984D01*
X153984D01*
X155000Y89968D01*
Y74968D02*
X156016Y75984D01*
X157032D01*
X156016Y77000D01*
X157032Y78016D01*
X156016D01*
X155000Y79032D01*
X153984Y78016D01*
X152968D01*
X153984Y77000D01*
X152968Y75984D01*
X153984D01*
X155000Y74968D01*
X140000Y209968D02*
X141016Y210984D01*
X142032D01*
X141016Y212000D01*
X142032Y213016D01*
X141016D01*
X140000Y214032D01*
X138984Y213016D01*
X137968D01*
X138984Y212000D01*
X137968Y210984D01*
X138984D01*
X140000Y209968D01*
Y194968D02*
X141016Y195984D01*
X142032D01*
X141016Y197000D01*
X142032Y198016D01*
X141016D01*
X140000Y199032D01*
X138984Y198016D01*
X137968D01*
X138984Y197000D01*
X137968Y195984D01*
X138984D01*
X140000Y194968D01*
Y149968D02*
X141016Y150984D01*
X142032D01*
X141016Y152000D01*
X142032Y153016D01*
X141016D01*
X140000Y154032D01*
X138984Y153016D01*
X137968D01*
X138984Y152000D01*
X137968Y150984D01*
X138984D01*
X140000Y149968D01*
Y134968D02*
X141016Y135984D01*
X142032D01*
X141016Y137000D01*
X142032Y138016D01*
X141016D01*
X140000Y139032D01*
X138984Y138016D01*
X137968D01*
X138984Y137000D01*
X137968Y135984D01*
X138984D01*
X140000Y134968D01*
Y104968D02*
X141016Y105984D01*
X142032D01*
X141016Y107000D01*
X142032Y108016D01*
X141016D01*
X140000Y109032D01*
X138984Y108016D01*
X137968D01*
X138984Y107000D01*
X137968Y105984D01*
X138984D01*
X140000Y104968D01*
Y89968D02*
X141016Y90984D01*
X142032D01*
X141016Y92000D01*
X142032Y93016D01*
X141016D01*
X140000Y94032D01*
X138984Y93016D01*
X137968D01*
X138984Y92000D01*
X137968Y90984D01*
X138984D01*
X140000Y89968D01*
Y74968D02*
X141016Y75984D01*
X142032D01*
X141016Y77000D01*
X142032Y78016D01*
X141016D01*
X140000Y79032D01*
X138984Y78016D01*
X137968D01*
X138984Y77000D01*
X137968Y75984D01*
X138984D01*
X140000Y74968D01*
Y59968D02*
X141016Y60984D01*
X142032D01*
X141016Y62000D01*
X142032Y63016D01*
X141016D01*
X140000Y64032D01*
X138984Y63016D01*
X137968D01*
X138984Y62000D01*
X137968Y60984D01*
X138984D01*
X140000Y59968D01*
X125000Y209968D02*
X126016Y210984D01*
X127032D01*
X126016Y212000D01*
X127032Y213016D01*
X126016D01*
X125000Y214032D01*
X123984Y213016D01*
X122968D01*
X123984Y212000D01*
X122968Y210984D01*
X123984D01*
X125000Y209968D01*
Y194968D02*
X126016Y195984D01*
X127032D01*
X126016Y197000D01*
X127032Y198016D01*
X126016D01*
X125000Y199032D01*
X123984Y198016D01*
X122968D01*
X123984Y197000D01*
X122968Y195984D01*
X123984D01*
X125000Y194968D01*
Y149968D02*
X126016Y150984D01*
X127032D01*
X126016Y152000D01*
X127032Y153016D01*
X126016D01*
X125000Y154032D01*
X123984Y153016D01*
X122968D01*
X123984Y152000D01*
X122968Y150984D01*
X123984D01*
X125000Y149968D01*
Y134968D02*
X126016Y135984D01*
X127032D01*
X126016Y137000D01*
X127032Y138016D01*
X126016D01*
X125000Y139032D01*
X123984Y138016D01*
X122968D01*
X123984Y137000D01*
X122968Y135984D01*
X123984D01*
X125000Y134968D01*
Y119968D02*
X126016Y120984D01*
X127032D01*
X126016Y122000D01*
X127032Y123016D01*
X126016D01*
X125000Y124032D01*
X123984Y123016D01*
X122968D01*
X123984Y122000D01*
X122968Y120984D01*
X123984D01*
X125000Y119968D01*
Y89968D02*
X126016Y90984D01*
X127032D01*
X126016Y92000D01*
X127032Y93016D01*
X126016D01*
X125000Y94032D01*
X123984Y93016D01*
X122968D01*
X123984Y92000D01*
X122968Y90984D01*
X123984D01*
X125000Y89968D01*
Y74968D02*
X126016Y75984D01*
X127032D01*
X126016Y77000D01*
X127032Y78016D01*
X126016D01*
X125000Y79032D01*
X123984Y78016D01*
X122968D01*
X123984Y77000D01*
X122968Y75984D01*
X123984D01*
X125000Y74968D01*
Y59968D02*
X126016Y60984D01*
X127032D01*
X126016Y62000D01*
X127032Y63016D01*
X126016D01*
X125000Y64032D01*
X123984Y63016D01*
X122968D01*
X123984Y62000D01*
X122968Y60984D01*
X123984D01*
X125000Y59968D01*
Y44968D02*
X126016Y45984D01*
X127032D01*
X126016Y47000D01*
X127032Y48016D01*
X126016D01*
X125000Y49032D01*
X123984Y48016D01*
X122968D01*
X123984Y47000D01*
X122968Y45984D01*
X123984D01*
X125000Y44968D01*
Y29968D02*
X126016Y30984D01*
X127032D01*
X126016Y32000D01*
X127032Y33016D01*
X126016D01*
X125000Y34032D01*
X123984Y33016D01*
X122968D01*
X123984Y32000D01*
X122968Y30984D01*
X123984D01*
X125000Y29968D01*
X110000Y209968D02*
X111016Y210984D01*
X112032D01*
X111016Y212000D01*
X112032Y213016D01*
X111016D01*
X110000Y214032D01*
X108984Y213016D01*
X107968D01*
X108984Y212000D01*
X107968Y210984D01*
X108984D01*
X110000Y209968D01*
Y194968D02*
X111016Y195984D01*
X112032D01*
X111016Y197000D01*
X112032Y198016D01*
X111016D01*
X110000Y199032D01*
X108984Y198016D01*
X107968D01*
X108984Y197000D01*
X107968Y195984D01*
X108984D01*
X110000Y194968D01*
Y149968D02*
X111016Y150984D01*
X112032D01*
X111016Y152000D01*
X112032Y153016D01*
X111016D01*
X110000Y154032D01*
X108984Y153016D01*
X107968D01*
X108984Y152000D01*
X107968Y150984D01*
X108984D01*
X110000Y149968D01*
Y134968D02*
X111016Y135984D01*
X112032D01*
X111016Y137000D01*
X112032Y138016D01*
X111016D01*
X110000Y139032D01*
X108984Y138016D01*
X107968D01*
X108984Y137000D01*
X107968Y135984D01*
X108984D01*
X110000Y134968D01*
Y119968D02*
X111016Y120984D01*
X112032D01*
X111016Y122000D01*
X112032Y123016D01*
X111016D01*
X110000Y124032D01*
X108984Y123016D01*
X107968D01*
X108984Y122000D01*
X107968Y120984D01*
X108984D01*
X110000Y119968D01*
Y74968D02*
X111016Y75984D01*
X112032D01*
X111016Y77000D01*
X112032Y78016D01*
X111016D01*
X110000Y79032D01*
X108984Y78016D01*
X107968D01*
X108984Y77000D01*
X107968Y75984D01*
X108984D01*
X110000Y74968D01*
Y59968D02*
X111016Y60984D01*
X112032D01*
X111016Y62000D01*
X112032Y63016D01*
X111016D01*
X110000Y64032D01*
X108984Y63016D01*
X107968D01*
X108984Y62000D01*
X107968Y60984D01*
X108984D01*
X110000Y59968D01*
X95000Y209968D02*
X96016Y210984D01*
X97032D01*
X96016Y212000D01*
X97032Y213016D01*
X96016D01*
X95000Y214032D01*
X93984Y213016D01*
X92968D01*
X93984Y212000D01*
X92968Y210984D01*
X93984D01*
X95000Y209968D01*
Y194968D02*
X96016Y195984D01*
X97032D01*
X96016Y197000D01*
X97032Y198016D01*
X96016D01*
X95000Y199032D01*
X93984Y198016D01*
X92968D01*
X93984Y197000D01*
X92968Y195984D01*
X93984D01*
X95000Y194968D01*
Y149968D02*
X96016Y150984D01*
X97032D01*
X96016Y152000D01*
X97032Y153016D01*
X96016D01*
X95000Y154032D01*
X93984Y153016D01*
X92968D01*
X93984Y152000D01*
X92968Y150984D01*
X93984D01*
X95000Y149968D01*
Y134968D02*
X96016Y135984D01*
X97032D01*
X96016Y137000D01*
X97032Y138016D01*
X96016D01*
X95000Y139032D01*
X93984Y138016D01*
X92968D01*
X93984Y137000D01*
X92968Y135984D01*
X93984D01*
X95000Y134968D01*
Y119968D02*
X96016Y120984D01*
X97032D01*
X96016Y122000D01*
X97032Y123016D01*
X96016D01*
X95000Y124032D01*
X93984Y123016D01*
X92968D01*
X93984Y122000D01*
X92968Y120984D01*
X93984D01*
X95000Y119968D01*
Y74968D02*
X96016Y75984D01*
X97032D01*
X96016Y77000D01*
X97032Y78016D01*
X96016D01*
X95000Y79032D01*
X93984Y78016D01*
X92968D01*
X93984Y77000D01*
X92968Y75984D01*
X93984D01*
X95000Y74968D01*
Y59968D02*
X96016Y60984D01*
X97032D01*
X96016Y62000D01*
X97032Y63016D01*
X96016D01*
X95000Y64032D01*
X93984Y63016D01*
X92968D01*
X93984Y62000D01*
X92968Y60984D01*
X93984D01*
X95000Y59968D01*
Y44968D02*
X96016Y45984D01*
X97032D01*
X96016Y47000D01*
X97032Y48016D01*
X96016D01*
X95000Y49032D01*
X93984Y48016D01*
X92968D01*
X93984Y47000D01*
X92968Y45984D01*
X93984D01*
X95000Y44968D01*
Y29968D02*
X96016Y30984D01*
X97032D01*
X96016Y32000D01*
X97032Y33016D01*
X96016D01*
X95000Y34032D01*
X93984Y33016D01*
X92968D01*
X93984Y32000D01*
X92968Y30984D01*
X93984D01*
X95000Y29968D01*
X80000Y209968D02*
X81016Y210984D01*
X82032D01*
X81016Y212000D01*
X82032Y213016D01*
X81016D01*
X80000Y214032D01*
X78984Y213016D01*
X77968D01*
X78984Y212000D01*
X77968Y210984D01*
X78984D01*
X80000Y209968D01*
Y194968D02*
X81016Y195984D01*
X82032D01*
X81016Y197000D01*
X82032Y198016D01*
X81016D01*
X80000Y199032D01*
X78984Y198016D01*
X77968D01*
X78984Y197000D01*
X77968Y195984D01*
X78984D01*
X80000Y194968D01*
Y179968D02*
X81016Y180984D01*
X82032D01*
X81016Y182000D01*
X82032Y183016D01*
X81016D01*
X80000Y184032D01*
X78984Y183016D01*
X77968D01*
X78984Y182000D01*
X77968Y180984D01*
X78984D01*
X80000Y179968D01*
Y149968D02*
X81016Y150984D01*
X82032D01*
X81016Y152000D01*
X82032Y153016D01*
X81016D01*
X80000Y154032D01*
X78984Y153016D01*
X77968D01*
X78984Y152000D01*
X77968Y150984D01*
X78984D01*
X80000Y149968D01*
Y134968D02*
X81016Y135984D01*
X82032D01*
X81016Y137000D01*
X82032Y138016D01*
X81016D01*
X80000Y139032D01*
X78984Y138016D01*
X77968D01*
X78984Y137000D01*
X77968Y135984D01*
X78984D01*
X80000Y134968D01*
Y119968D02*
X81016Y120984D01*
X82032D01*
X81016Y122000D01*
X82032Y123016D01*
X81016D01*
X80000Y124032D01*
X78984Y123016D01*
X77968D01*
X78984Y122000D01*
X77968Y120984D01*
X78984D01*
X80000Y119968D01*
Y104968D02*
X81016Y105984D01*
X82032D01*
X81016Y107000D01*
X82032Y108016D01*
X81016D01*
X80000Y109032D01*
X78984Y108016D01*
X77968D01*
X78984Y107000D01*
X77968Y105984D01*
X78984D01*
X80000Y104968D01*
Y89968D02*
X81016Y90984D01*
X82032D01*
X81016Y92000D01*
X82032Y93016D01*
X81016D01*
X80000Y94032D01*
X78984Y93016D01*
X77968D01*
X78984Y92000D01*
X77968Y90984D01*
X78984D01*
X80000Y89968D01*
Y74968D02*
X81016Y75984D01*
X82032D01*
X81016Y77000D01*
X82032Y78016D01*
X81016D01*
X80000Y79032D01*
X78984Y78016D01*
X77968D01*
X78984Y77000D01*
X77968Y75984D01*
X78984D01*
X80000Y74968D01*
Y59968D02*
X81016Y60984D01*
X82032D01*
X81016Y62000D01*
X82032Y63016D01*
X81016D01*
X80000Y64032D01*
X78984Y63016D01*
X77968D01*
X78984Y62000D01*
X77968Y60984D01*
X78984D01*
X80000Y59968D01*
Y44968D02*
X81016Y45984D01*
X82032D01*
X81016Y47000D01*
X82032Y48016D01*
X81016D01*
X80000Y49032D01*
X78984Y48016D01*
X77968D01*
X78984Y47000D01*
X77968Y45984D01*
X78984D01*
X80000Y44968D01*
Y29968D02*
X81016Y30984D01*
X82032D01*
X81016Y32000D01*
X82032Y33016D01*
X81016D01*
X80000Y34032D01*
X78984Y33016D01*
X77968D01*
X78984Y32000D01*
X77968Y30984D01*
X78984D01*
X80000Y29968D01*
X65000Y209968D02*
X66016Y210984D01*
X67032D01*
X66016Y212000D01*
X67032Y213016D01*
X66016D01*
X65000Y214032D01*
X63984Y213016D01*
X62968D01*
X63984Y212000D01*
X62968Y210984D01*
X63984D01*
X65000Y209968D01*
Y194968D02*
X66016Y195984D01*
X67032D01*
X66016Y197000D01*
X67032Y198016D01*
X66016D01*
X65000Y199032D01*
X63984Y198016D01*
X62968D01*
X63984Y197000D01*
X62968Y195984D01*
X63984D01*
X65000Y194968D01*
Y179968D02*
X66016Y180984D01*
X67032D01*
X66016Y182000D01*
X67032Y183016D01*
X66016D01*
X65000Y184032D01*
X63984Y183016D01*
X62968D01*
X63984Y182000D01*
X62968Y180984D01*
X63984D01*
X65000Y179968D01*
Y164968D02*
X66016Y165984D01*
X67032D01*
X66016Y167000D01*
X67032Y168016D01*
X66016D01*
X65000Y169032D01*
X63984Y168016D01*
X62968D01*
X63984Y167000D01*
X62968Y165984D01*
X63984D01*
X65000Y164968D01*
Y149968D02*
X66016Y150984D01*
X67032D01*
X66016Y152000D01*
X67032Y153016D01*
X66016D01*
X65000Y154032D01*
X63984Y153016D01*
X62968D01*
X63984Y152000D01*
X62968Y150984D01*
X63984D01*
X65000Y149968D01*
Y134968D02*
X66016Y135984D01*
X67032D01*
X66016Y137000D01*
X67032Y138016D01*
X66016D01*
X65000Y139032D01*
X63984Y138016D01*
X62968D01*
X63984Y137000D01*
X62968Y135984D01*
X63984D01*
X65000Y134968D01*
Y119968D02*
X66016Y120984D01*
X67032D01*
X66016Y122000D01*
X67032Y123016D01*
X66016D01*
X65000Y124032D01*
X63984Y123016D01*
X62968D01*
X63984Y122000D01*
X62968Y120984D01*
X63984D01*
X65000Y119968D01*
Y74968D02*
X66016Y75984D01*
X67032D01*
X66016Y77000D01*
X67032Y78016D01*
X66016D01*
X65000Y79032D01*
X63984Y78016D01*
X62968D01*
X63984Y77000D01*
X62968Y75984D01*
X63984D01*
X65000Y74968D01*
Y59968D02*
X66016Y60984D01*
X67032D01*
X66016Y62000D01*
X67032Y63016D01*
X66016D01*
X65000Y64032D01*
X63984Y63016D01*
X62968D01*
X63984Y62000D01*
X62968Y60984D01*
X63984D01*
X65000Y59968D01*
Y44968D02*
X66016Y45984D01*
X67032D01*
X66016Y47000D01*
X67032Y48016D01*
X66016D01*
X65000Y49032D01*
X63984Y48016D01*
X62968D01*
X63984Y47000D01*
X62968Y45984D01*
X63984D01*
X65000Y44968D01*
Y29968D02*
X66016Y30984D01*
X67032D01*
X66016Y32000D01*
X67032Y33016D01*
X66016D01*
X65000Y34032D01*
X63984Y33016D01*
X62968D01*
X63984Y32000D01*
X62968Y30984D01*
X63984D01*
X65000Y29968D01*
X50000Y209968D02*
X51016Y210984D01*
X52032D01*
X51016Y212000D01*
X52032Y213016D01*
X51016D01*
X50000Y214032D01*
X48984Y213016D01*
X47968D01*
X48984Y212000D01*
X47968Y210984D01*
X48984D01*
X50000Y209968D01*
Y194968D02*
X51016Y195984D01*
X52032D01*
X51016Y197000D01*
X52032Y198016D01*
X51016D01*
X50000Y199032D01*
X48984Y198016D01*
X47968D01*
X48984Y197000D01*
X47968Y195984D01*
X48984D01*
X50000Y194968D01*
Y179968D02*
X51016Y180984D01*
X52032D01*
X51016Y182000D01*
X52032Y183016D01*
X51016D01*
X50000Y184032D01*
X48984Y183016D01*
X47968D01*
X48984Y182000D01*
X47968Y180984D01*
X48984D01*
X50000Y179968D01*
Y164968D02*
X51016Y165984D01*
X52032D01*
X51016Y167000D01*
X52032Y168016D01*
X51016D01*
X50000Y169032D01*
X48984Y168016D01*
X47968D01*
X48984Y167000D01*
X47968Y165984D01*
X48984D01*
X50000Y164968D01*
Y149968D02*
X51016Y150984D01*
X52032D01*
X51016Y152000D01*
X52032Y153016D01*
X51016D01*
X50000Y154032D01*
X48984Y153016D01*
X47968D01*
X48984Y152000D01*
X47968Y150984D01*
X48984D01*
X50000Y149968D01*
Y134968D02*
X51016Y135984D01*
X52032D01*
X51016Y137000D01*
X52032Y138016D01*
X51016D01*
X50000Y139032D01*
X48984Y138016D01*
X47968D01*
X48984Y137000D01*
X47968Y135984D01*
X48984D01*
X50000Y134968D01*
Y119968D02*
X51016Y120984D01*
X52032D01*
X51016Y122000D01*
X52032Y123016D01*
X51016D01*
X50000Y124032D01*
X48984Y123016D01*
X47968D01*
X48984Y122000D01*
X47968Y120984D01*
X48984D01*
X50000Y119968D01*
Y104968D02*
X51016Y105984D01*
X52032D01*
X51016Y107000D01*
X52032Y108016D01*
X51016D01*
X50000Y109032D01*
X48984Y108016D01*
X47968D01*
X48984Y107000D01*
X47968Y105984D01*
X48984D01*
X50000Y104968D01*
Y89968D02*
X51016Y90984D01*
X52032D01*
X51016Y92000D01*
X52032Y93016D01*
X51016D01*
X50000Y94032D01*
X48984Y93016D01*
X47968D01*
X48984Y92000D01*
X47968Y90984D01*
X48984D01*
X50000Y89968D01*
Y74968D02*
X51016Y75984D01*
X52032D01*
X51016Y77000D01*
X52032Y78016D01*
X51016D01*
X50000Y79032D01*
X48984Y78016D01*
X47968D01*
X48984Y77000D01*
X47968Y75984D01*
X48984D01*
X50000Y74968D01*
Y59968D02*
X51016Y60984D01*
X52032D01*
X51016Y62000D01*
X52032Y63016D01*
X51016D01*
X50000Y64032D01*
X48984Y63016D01*
X47968D01*
X48984Y62000D01*
X47968Y60984D01*
X48984D01*
X50000Y59968D01*
Y44968D02*
X51016Y45984D01*
X52032D01*
X51016Y47000D01*
X52032Y48016D01*
X51016D01*
X50000Y49032D01*
X48984Y48016D01*
X47968D01*
X48984Y47000D01*
X47968Y45984D01*
X48984D01*
X50000Y44968D01*
Y29968D02*
X51016Y30984D01*
X52032D01*
X51016Y32000D01*
X52032Y33016D01*
X51016D01*
X50000Y34032D01*
X48984Y33016D01*
X47968D01*
X48984Y32000D01*
X47968Y30984D01*
X48984D01*
X50000Y29968D01*
X35000Y209968D02*
X36016Y210984D01*
X37032D01*
X36016Y212000D01*
X37032Y213016D01*
X36016D01*
X35000Y214032D01*
X33984Y213016D01*
X32968D01*
X33984Y212000D01*
X32968Y210984D01*
X33984D01*
X35000Y209968D01*
Y194968D02*
X36016Y195984D01*
X37032D01*
X36016Y197000D01*
X37032Y198016D01*
X36016D01*
X35000Y199032D01*
X33984Y198016D01*
X32968D01*
X33984Y197000D01*
X32968Y195984D01*
X33984D01*
X35000Y194968D01*
Y179968D02*
X36016Y180984D01*
X37032D01*
X36016Y182000D01*
X37032Y183016D01*
X36016D01*
X35000Y184032D01*
X33984Y183016D01*
X32968D01*
X33984Y182000D01*
X32968Y180984D01*
X33984D01*
X35000Y179968D01*
Y164968D02*
X36016Y165984D01*
X37032D01*
X36016Y167000D01*
X37032Y168016D01*
X36016D01*
X35000Y169032D01*
X33984Y168016D01*
X32968D01*
X33984Y167000D01*
X32968Y165984D01*
X33984D01*
X35000Y164968D01*
Y149968D02*
X36016Y150984D01*
X37032D01*
X36016Y152000D01*
X37032Y153016D01*
X36016D01*
X35000Y154032D01*
X33984Y153016D01*
X32968D01*
X33984Y152000D01*
X32968Y150984D01*
X33984D01*
X35000Y149968D01*
Y134968D02*
X36016Y135984D01*
X37032D01*
X36016Y137000D01*
X37032Y138016D01*
X36016D01*
X35000Y139032D01*
X33984Y138016D01*
X32968D01*
X33984Y137000D01*
X32968Y135984D01*
X33984D01*
X35000Y134968D01*
Y119968D02*
X36016Y120984D01*
X37032D01*
X36016Y122000D01*
X37032Y123016D01*
X36016D01*
X35000Y124032D01*
X33984Y123016D01*
X32968D01*
X33984Y122000D01*
X32968Y120984D01*
X33984D01*
X35000Y119968D01*
Y104968D02*
X36016Y105984D01*
X37032D01*
X36016Y107000D01*
X37032Y108016D01*
X36016D01*
X35000Y109032D01*
X33984Y108016D01*
X32968D01*
X33984Y107000D01*
X32968Y105984D01*
X33984D01*
X35000Y104968D01*
Y89968D02*
X36016Y90984D01*
X37032D01*
X36016Y92000D01*
X37032Y93016D01*
X36016D01*
X35000Y94032D01*
X33984Y93016D01*
X32968D01*
X33984Y92000D01*
X32968Y90984D01*
X33984D01*
X35000Y89968D01*
Y74968D02*
X36016Y75984D01*
X37032D01*
X36016Y77000D01*
X37032Y78016D01*
X36016D01*
X35000Y79032D01*
X33984Y78016D01*
X32968D01*
X33984Y77000D01*
X32968Y75984D01*
X33984D01*
X35000Y74968D01*
Y59968D02*
X36016Y60984D01*
X37032D01*
X36016Y62000D01*
X37032Y63016D01*
X36016D01*
X35000Y64032D01*
X33984Y63016D01*
X32968D01*
X33984Y62000D01*
X32968Y60984D01*
X33984D01*
X35000Y59968D01*
Y44968D02*
X36016Y45984D01*
X37032D01*
X36016Y47000D01*
X37032Y48016D01*
X36016D01*
X35000Y49032D01*
X33984Y48016D01*
X32968D01*
X33984Y47000D01*
X32968Y45984D01*
X33984D01*
X35000Y44968D01*
X20000Y209968D02*
X21016Y210984D01*
X22032D01*
X21016Y212000D01*
X22032Y213016D01*
X21016D01*
X20000Y214032D01*
X18984Y213016D01*
X17968D01*
X18984Y212000D01*
X17968Y210984D01*
X18984D01*
X20000Y209968D01*
Y194968D02*
X21016Y195984D01*
X22032D01*
X21016Y197000D01*
X22032Y198016D01*
X21016D01*
X20000Y199032D01*
X18984Y198016D01*
X17968D01*
X18984Y197000D01*
X17968Y195984D01*
X18984D01*
X20000Y194968D01*
Y179968D02*
X21016Y180984D01*
X22032D01*
X21016Y182000D01*
X22032Y183016D01*
X21016D01*
X20000Y184032D01*
X18984Y183016D01*
X17968D01*
X18984Y182000D01*
X17968Y180984D01*
X18984D01*
X20000Y179968D01*
Y164968D02*
X21016Y165984D01*
X22032D01*
X21016Y167000D01*
X22032Y168016D01*
X21016D01*
X20000Y169032D01*
X18984Y168016D01*
X17968D01*
X18984Y167000D01*
X17968Y165984D01*
X18984D01*
X20000Y164968D01*
Y149968D02*
X21016Y150984D01*
X22032D01*
X21016Y152000D01*
X22032Y153016D01*
X21016D01*
X20000Y154032D01*
X18984Y153016D01*
X17968D01*
X18984Y152000D01*
X17968Y150984D01*
X18984D01*
X20000Y149968D01*
Y134968D02*
X21016Y135984D01*
X22032D01*
X21016Y137000D01*
X22032Y138016D01*
X21016D01*
X20000Y139032D01*
X18984Y138016D01*
X17968D01*
X18984Y137000D01*
X17968Y135984D01*
X18984D01*
X20000Y134968D01*
Y119968D02*
X21016Y120984D01*
X22032D01*
X21016Y122000D01*
X22032Y123016D01*
X21016D01*
X20000Y124032D01*
X18984Y123016D01*
X17968D01*
X18984Y122000D01*
X17968Y120984D01*
X18984D01*
X20000Y119968D01*
Y104968D02*
X21016Y105984D01*
X22032D01*
X21016Y107000D01*
X22032Y108016D01*
X21016D01*
X20000Y109032D01*
X18984Y108016D01*
X17968D01*
X18984Y107000D01*
X17968Y105984D01*
X18984D01*
X20000Y104968D01*
Y89968D02*
X21016Y90984D01*
X22032D01*
X21016Y92000D01*
X22032Y93016D01*
X21016D01*
X20000Y94032D01*
X18984Y93016D01*
X17968D01*
X18984Y92000D01*
X17968Y90984D01*
X18984D01*
X20000Y89968D01*
Y74968D02*
X21016Y75984D01*
X22032D01*
X21016Y77000D01*
X22032Y78016D01*
X21016D01*
X20000Y79032D01*
X18984Y78016D01*
X17968D01*
X18984Y77000D01*
X17968Y75984D01*
X18984D01*
X20000Y74968D01*
Y59968D02*
X21016Y60984D01*
X22032D01*
X21016Y62000D01*
X22032Y63016D01*
X21016D01*
X20000Y64032D01*
X18984Y63016D01*
X17968D01*
X18984Y62000D01*
X17968Y60984D01*
X18984D01*
X20000Y59968D01*
Y44968D02*
X21016Y45984D01*
X22032D01*
X21016Y47000D01*
X22032Y48016D01*
X21016D01*
X20000Y49032D01*
X18984Y48016D01*
X17968D01*
X18984Y47000D01*
X17968Y45984D01*
X18984D01*
X20000Y44968D01*
X267500Y65468D02*
X268516Y66484D01*
X269532D01*
X268516Y67500D01*
X269532Y68516D01*
X268516D01*
X267500Y69532D01*
X266484Y68516D01*
X265468D01*
X266484Y67500D01*
X265468Y66484D01*
X266484D01*
X267500Y65468D01*
X388750Y87968D02*
X389766Y88984D01*
X390782D01*
X389766Y90000D01*
X390782Y91016D01*
X389766D01*
X388750Y92032D01*
X387734Y91016D01*
X386718D01*
X387734Y90000D01*
X386718Y88984D01*
X387734D01*
X388750Y87968D01*
X275473Y92898D02*
X276489Y93914D01*
X277505D01*
X276489Y94930D01*
X277505Y95946D01*
X276489D01*
X275473Y96962D01*
X274457Y95946D01*
X273441D01*
X274457Y94930D01*
X273441Y93914D01*
X274457D01*
X275473Y92898D01*
X385000Y109218D02*
X386016Y110234D01*
X387032D01*
X386016Y111250D01*
X387032Y112266D01*
X386016D01*
X385000Y113282D01*
X383984Y112266D01*
X382968D01*
X383984Y111250D01*
X382968Y110234D01*
X383984D01*
X385000Y109218D01*
X7518Y209966D02*
X8534Y210982D01*
X9550D01*
X8534Y211998D01*
X9550Y213014D01*
X8534D01*
X7518Y214030D01*
X6502Y213014D01*
X5486D01*
X6502Y211998D01*
X5486Y210982D01*
X6502D01*
X7518Y209966D01*
Y194966D02*
X8534Y195982D01*
X9550D01*
X8534Y196998D01*
X9550Y198014D01*
X8534D01*
X7518Y199030D01*
X6502Y198014D01*
X5486D01*
X6502Y196998D01*
X5486Y195982D01*
X6502D01*
X7518Y194966D01*
Y179966D02*
X8534Y180982D01*
X9550D01*
X8534Y181998D01*
X9550Y183014D01*
X8534D01*
X7518Y184030D01*
X6502Y183014D01*
X5486D01*
X6502Y181998D01*
X5486Y180982D01*
X6502D01*
X7518Y179966D01*
Y164966D02*
X8534Y165982D01*
X9550D01*
X8534Y166998D01*
X9550Y168014D01*
X8534D01*
X7518Y169030D01*
X6502Y168014D01*
X5486D01*
X6502Y166998D01*
X5486Y165982D01*
X6502D01*
X7518Y164966D01*
Y149966D02*
X8534Y150982D01*
X9550D01*
X8534Y151998D01*
X9550Y153014D01*
X8534D01*
X7518Y154030D01*
X6502Y153014D01*
X5486D01*
X6502Y151998D01*
X5486Y150982D01*
X6502D01*
X7518Y149966D01*
Y134966D02*
X8534Y135982D01*
X9550D01*
X8534Y136998D01*
X9550Y138014D01*
X8534D01*
X7518Y139030D01*
X6502Y138014D01*
X5486D01*
X6502Y136998D01*
X5486Y135982D01*
X6502D01*
X7518Y134966D01*
Y119966D02*
X8534Y120982D01*
X9550D01*
X8534Y121998D01*
X9550Y123014D01*
X8534D01*
X7518Y124030D01*
X6502Y123014D01*
X5486D01*
X6502Y121998D01*
X5486Y120982D01*
X6502D01*
X7518Y119966D01*
X7500Y89968D02*
X8516Y90984D01*
X9532D01*
X8516Y92000D01*
X9532Y93016D01*
X8516D01*
X7500Y94032D01*
X6484Y93016D01*
X5468D01*
X6484Y92000D01*
X5468Y90984D01*
X6484D01*
X7500Y89968D01*
X7518Y74966D02*
X8534Y75982D01*
X9550D01*
X8534Y76998D01*
X9550Y78014D01*
X8534D01*
X7518Y79030D01*
X6502Y78014D01*
X5486D01*
X6502Y76998D01*
X5486Y75982D01*
X6502D01*
X7518Y74966D01*
Y59966D02*
X8534Y60982D01*
X9550D01*
X8534Y61998D01*
X9550Y63014D01*
X8534D01*
X7518Y64030D01*
X6502Y63014D01*
X5486D01*
X6502Y61998D01*
X5486Y60982D01*
X6502D01*
X7518Y59966D01*
Y44966D02*
X8534Y45982D01*
X9550D01*
X8534Y46998D01*
X9550Y48014D01*
X8534D01*
X7518Y49030D01*
X6502Y48014D01*
X5486D01*
X6502Y46998D01*
X5486Y45982D01*
X6502D01*
X7518Y44966D01*
X7500Y104968D02*
X8516Y105984D01*
X9532D01*
X8516Y107000D01*
X9532Y108016D01*
X8516D01*
X7500Y109032D01*
X6484Y108016D01*
X5468D01*
X6484Y107000D01*
X5468Y105984D01*
X6484D01*
X7500Y104968D01*
X200000Y18468D02*
X201016Y19484D01*
X202032D01*
X201016Y20500D01*
X202032Y21516D01*
X201016D01*
X200000Y22532D01*
X198984Y21516D01*
X197968D01*
X198984Y20500D01*
X197968Y19484D01*
X198984D01*
X200000Y18468D01*
X215000D02*
X216016Y19484D01*
X217032D01*
X216016Y20500D01*
X217032Y21516D01*
X216016D01*
X215000Y22532D01*
X213984Y21516D01*
X212968D01*
X213984Y20500D01*
X212968Y19484D01*
X213984D01*
X215000Y18468D01*
X185000D02*
X186016Y19484D01*
X187032D01*
X186016Y20500D01*
X187032Y21516D01*
X186016D01*
X185000Y22532D01*
X183984Y21516D01*
X182968D01*
X183984Y20500D01*
X182968Y19484D01*
X183984D01*
X185000Y18468D01*
X170000Y15968D02*
X171016Y16984D01*
X172032D01*
X171016Y18000D01*
X172032Y19016D01*
X171016D01*
X170000Y20032D01*
X168984Y19016D01*
X167968D01*
X168984Y18000D01*
X167968Y16984D01*
X168984D01*
X170000Y15968D01*
X155000D02*
X156016Y16984D01*
X157032D01*
X156016Y18000D01*
X157032Y19016D01*
X156016D01*
X155000Y20032D01*
X153984Y19016D01*
X152968D01*
X153984Y18000D01*
X152968Y16984D01*
X153984D01*
X155000Y15968D01*
X140000D02*
X141016Y16984D01*
X142032D01*
X141016Y18000D01*
X142032Y19016D01*
X141016D01*
X140000Y20032D01*
X138984Y19016D01*
X137968D01*
X138984Y18000D01*
X137968Y16984D01*
X138984D01*
X140000Y15968D01*
X275000D02*
X276016Y16984D01*
X277032D01*
X276016Y18000D01*
X277032Y19016D01*
X276016D01*
X275000Y20032D01*
X273984Y19016D01*
X272968D01*
X273984Y18000D01*
X272968Y16984D01*
X273984D01*
X275000Y15968D01*
X260000D02*
X261016Y16984D01*
X262032D01*
X261016Y18000D01*
X262032Y19016D01*
X261016D01*
X260000Y20032D01*
X258984Y19016D01*
X257968D01*
X258984Y18000D01*
X257968Y16984D01*
X258984D01*
X260000Y15968D01*
X245000D02*
X246016Y16984D01*
X247032D01*
X246016Y18000D01*
X247032Y19016D01*
X246016D01*
X245000Y20032D01*
X243984Y19016D01*
X242968D01*
X243984Y18000D01*
X242968Y16984D01*
X243984D01*
X245000Y15968D01*
X230000D02*
X231016Y16984D01*
X232032D01*
X231016Y18000D01*
X232032Y19016D01*
X231016D01*
X230000Y20032D01*
X228984Y19016D01*
X227968D01*
X228984Y18000D01*
X227968Y16984D01*
X228984D01*
X230000Y15968D01*
X197500Y110468D02*
X198516Y111484D01*
X199532D01*
X198516Y112500D01*
X199532Y113516D01*
X198516D01*
X197500Y114532D01*
X196484Y113516D01*
X195468D01*
X196484Y112500D01*
X195468Y111484D01*
X196484D01*
X197500Y110468D01*
X201250Y102968D02*
X202266Y103984D01*
X203282D01*
X202266Y105000D01*
X203282Y106016D01*
X202266D01*
X201250Y107032D01*
X200234Y106016D01*
X199218D01*
X200234Y105000D01*
X199218Y103984D01*
X200234D01*
X201250Y102968D01*
X191500Y117968D02*
X192516Y118984D01*
X193532D01*
X192516Y120000D01*
X193532Y121016D01*
X192516D01*
X191500Y122032D01*
X190484Y121016D01*
X189468D01*
X190484Y120000D01*
X189468Y118984D01*
X190484D01*
X191500Y117968D01*
X155264Y178935D02*
X156280Y179951D01*
X157296D01*
X156280Y180967D01*
X157296Y181983D01*
X156280D01*
X155264Y182999D01*
X154248Y181983D01*
X153232D01*
X154248Y180967D01*
X153232Y179951D01*
X154248D01*
X155264Y178935D01*
X150000Y187968D02*
X151016Y188984D01*
X152032D01*
X151016Y190000D01*
X152032Y191016D01*
X151016D01*
X150000Y192032D01*
X148984Y191016D01*
X147968D01*
X148984Y190000D01*
X147968Y188984D01*
X148984D01*
X150000Y187968D01*
X221250Y58218D02*
X222266Y59234D01*
X223282D01*
X222266Y60250D01*
X223282Y61266D01*
X222266D01*
X221250Y62282D01*
X220234Y61266D01*
X219218D01*
X220234Y60250D01*
X219218Y59234D01*
X220234D01*
X221250Y58218D01*
X192250Y138839D02*
X193266Y139855D01*
X194282D01*
X193266Y140871D01*
X194282Y141887D01*
X193266D01*
X192250Y142903D01*
X191234Y141887D01*
X190218D01*
X191234Y140871D01*
X190218Y139855D01*
X191234D01*
X192250Y138839D01*
X238250Y186218D02*
X239266Y187234D01*
X240282D01*
X239266Y188250D01*
X240282Y189266D01*
X239266D01*
X238250Y190282D01*
X237234Y189266D01*
X236218D01*
X237234Y188250D01*
X236218Y187234D01*
X237234D01*
X238250Y186218D01*
Y198468D02*
X239266Y199484D01*
X240282D01*
X239266Y200500D01*
X240282Y201516D01*
X239266D01*
X238250Y202532D01*
X237234Y201516D01*
X236218D01*
X237234Y200500D01*
X236218Y199484D01*
X237234D01*
X238250Y198468D01*
Y210468D02*
X239266Y211484D01*
X240282D01*
X239266Y212500D01*
X240282Y213516D01*
X239266D01*
X238250Y214532D01*
X237234Y213516D01*
X236218D01*
X237234Y212500D01*
X236218Y211484D01*
X237234D01*
X238250Y210468D01*
X232000Y204468D02*
X233016Y205484D01*
X234032D01*
X233016Y206500D01*
X234032Y207516D01*
X233016D01*
X232000Y208532D01*
X230984Y207516D01*
X229968D01*
X230984Y206500D01*
X229968Y205484D01*
X230984D01*
X232000Y204468D01*
Y192468D02*
X233016Y193484D01*
X234032D01*
X233016Y194500D01*
X234032Y195516D01*
X233016D01*
X232000Y196532D01*
X230984Y195516D01*
X229968D01*
X230984Y194500D01*
X229968Y193484D01*
X230984D01*
X232000Y192468D01*
X168000Y204468D02*
X169016Y205484D01*
X170032D01*
X169016Y206500D01*
X170032Y207516D01*
X169016D01*
X168000Y208532D01*
X166984Y207516D01*
X165968D01*
X166984Y206500D01*
X165968Y205484D01*
X166984D01*
X168000Y204468D01*
Y192468D02*
X169016Y193484D01*
X170032D01*
X169016Y194500D01*
X170032Y195516D01*
X169016D01*
X168000Y196532D01*
X166984Y195516D01*
X165968D01*
X166984Y194500D01*
X165968Y193484D01*
X166984D01*
X168000Y192468D01*
X161750Y198468D02*
X162766Y199484D01*
X163782D01*
X162766Y200500D01*
X163782Y201516D01*
X162766D01*
X161750Y202532D01*
X160734Y201516D01*
X159718D01*
X160734Y200500D01*
X159718Y199484D01*
X160734D01*
X161750Y198468D01*
Y210468D02*
X162766Y211484D01*
X163782D01*
X162766Y212500D01*
X163782Y213516D01*
X162766D01*
X161750Y214532D01*
X160734Y213516D01*
X159718D01*
X160734Y212500D01*
X159718Y211484D01*
X160734D01*
X161750Y210468D01*
X204250Y145968D02*
X205266Y146984D01*
X206282D01*
X205266Y148000D01*
X206282Y149016D01*
X205266D01*
X204250Y150032D01*
X203234Y149016D01*
X202218D01*
X203234Y148000D01*
X202218Y146984D01*
X203234D01*
X204250Y145968D01*
X161000Y124468D02*
X162016Y125484D01*
X163032D01*
X162016Y126500D01*
X163032Y127516D01*
X162016D01*
X161000Y128532D01*
X159984Y127516D01*
X158968D01*
X159984Y126500D01*
X158968Y125484D01*
X159984D01*
X161000Y124468D01*
X232000Y118218D02*
X233016Y119234D01*
X234032D01*
X233016Y120250D01*
X234032Y121266D01*
X233016D01*
X232000Y122282D01*
X230984Y121266D01*
X229968D01*
X230984Y120250D01*
X229968Y119234D01*
X230984D01*
X232000Y118218D01*
X100000Y187968D02*
X101016Y188984D01*
X102032D01*
X101016Y190000D01*
X102032Y191016D01*
X101016D01*
X100000Y192032D01*
X98984Y191016D01*
X97968D01*
X98984Y190000D01*
X97968Y188984D01*
X98984D01*
X100000Y187968D01*
X360750Y108218D02*
X361766Y109234D01*
X362782D01*
X361766Y110250D01*
X362782Y111266D01*
X361766D01*
X360750Y112282D01*
X359734Y111266D01*
X358718D01*
X359734Y110250D01*
X358718Y109234D01*
X359734D01*
X360750Y108218D01*
X392500Y107468D02*
X393516Y108484D01*
X394532D01*
X393516Y109500D01*
X394532Y110516D01*
X393516D01*
X392500Y111532D01*
X391484Y110516D01*
X390468D01*
X391484Y109500D01*
X390468Y108484D01*
X391484D01*
X392500Y107468D01*
Y44968D02*
X393516Y45984D01*
X394532D01*
X393516Y47000D01*
X394532Y48016D01*
X393516D01*
X392500Y49032D01*
X391484Y48016D01*
X390468D01*
X391484Y47000D01*
X390468Y45984D01*
X391484D01*
X392500Y44968D01*
Y74968D02*
X393516Y75984D01*
X394532D01*
X393516Y77000D01*
X394532Y78016D01*
X393516D01*
X392500Y79032D01*
X391484Y78016D01*
X390468D01*
X391484Y77000D01*
X390468Y75984D01*
X391484D01*
X392500Y74968D01*
Y119968D02*
X393516Y120984D01*
X394532D01*
X393516Y122000D01*
X394532Y123016D01*
X393516D01*
X392500Y124032D01*
X391484Y123016D01*
X390468D01*
X391484Y122000D01*
X390468Y120984D01*
X391484D01*
X392500Y119968D01*
Y134968D02*
X393516Y135984D01*
X394532D01*
X393516Y137000D01*
X394532Y138016D01*
X393516D01*
X392500Y139032D01*
X391484Y138016D01*
X390468D01*
X391484Y137000D01*
X390468Y135984D01*
X391484D01*
X392500Y134968D01*
Y149968D02*
X393516Y150984D01*
X394532D01*
X393516Y152000D01*
X394532Y153016D01*
X393516D01*
X392500Y154032D01*
X391484Y153016D01*
X390468D01*
X391484Y152000D01*
X390468Y150984D01*
X391484D01*
X392500Y149968D01*
Y164968D02*
X393516Y165984D01*
X394532D01*
X393516Y167000D01*
X394532Y168016D01*
X393516D01*
X392500Y169032D01*
X391484Y168016D01*
X390468D01*
X391484Y167000D01*
X390468Y165984D01*
X391484D01*
X392500Y164968D01*
Y179968D02*
X393516Y180984D01*
X394532D01*
X393516Y182000D01*
X394532Y183016D01*
X393516D01*
X392500Y184032D01*
X391484Y183016D01*
X390468D01*
X391484Y182000D01*
X390468Y180984D01*
X391484D01*
X392500Y179968D01*
Y194968D02*
X393516Y195984D01*
X394532D01*
X393516Y197000D01*
X394532Y198016D01*
X393516D01*
X392500Y199032D01*
X391484Y198016D01*
X390468D01*
X391484Y197000D01*
X390468Y195984D01*
X391484D01*
X392500Y194968D01*
Y209968D02*
X393516Y210984D01*
X394532D01*
X393516Y212000D01*
X394532Y213016D01*
X393516D01*
X392500Y214032D01*
X391484Y213016D01*
X390468D01*
X391484Y212000D01*
X390468Y210984D01*
X391484D01*
X392500Y209968D01*
X189250Y181468D02*
X190266Y182484D01*
X191282D01*
X190266Y183500D01*
X191282Y184516D01*
X190266D01*
X189250Y185532D01*
X188234Y184516D01*
X187218D01*
X188234Y183500D01*
X187218Y182484D01*
X188234D01*
X189250Y181468D01*
X210500D02*
X211516Y182484D01*
X212532D01*
X211516Y183500D01*
X212532Y184516D01*
X211516D01*
X210500Y185532D01*
X209484Y184516D01*
X208468D01*
X209484Y183500D01*
X208468Y182484D01*
X209484D01*
X210500Y181468D01*
X204250Y164968D02*
X205266Y165984D01*
X206282D01*
X205266Y167000D01*
X206282Y168016D01*
X205266D01*
X204250Y169032D01*
X203234Y168016D01*
X202218D01*
X203234Y167000D01*
X202218Y165984D01*
X203234D01*
X204250Y164968D01*
X195750Y173468D02*
X196766Y174484D01*
X197782D01*
X196766Y175500D01*
X197782Y176516D01*
X196766D01*
X195750Y177532D01*
X194734Y176516D01*
X193718D01*
X194734Y175500D01*
X193718Y174484D01*
X194734D01*
X195750Y173468D01*
X198000Y181468D02*
X199016Y182484D01*
X200032D01*
X199016Y183500D01*
X200032Y184516D01*
X199016D01*
X198000Y185532D01*
X196984Y184516D01*
X195968D01*
X196984Y183500D01*
X195968Y182484D01*
X196984D01*
X198000Y181468D01*
X50000Y5718D02*
X51016Y6734D01*
X52032D01*
X51016Y7750D01*
X52032Y8766D01*
X51016D01*
X50000Y9782D01*
X48984Y8766D01*
X47968D01*
X48984Y7750D01*
X47968Y6734D01*
X48984D01*
X50000Y5718D01*
X65000D02*
X66016Y6734D01*
X67032D01*
X66016Y7750D01*
X67032Y8766D01*
X66016D01*
X65000Y9782D01*
X63984Y8766D01*
X62968D01*
X63984Y7750D01*
X62968Y6734D01*
X63984D01*
X65000Y5718D01*
X80000D02*
X81016Y6734D01*
X82032D01*
X81016Y7750D01*
X82032Y8766D01*
X81016D01*
X80000Y9782D01*
X78984Y8766D01*
X77968D01*
X78984Y7750D01*
X77968Y6734D01*
X78984D01*
X80000Y5718D01*
X95000D02*
X96016Y6734D01*
X97032D01*
X96016Y7750D01*
X97032Y8766D01*
X96016D01*
X95000Y9782D01*
X93984Y8766D01*
X92968D01*
X93984Y7750D01*
X92968Y6734D01*
X93984D01*
X95000Y5718D01*
X110000D02*
X111016Y6734D01*
X112032D01*
X111016Y7750D01*
X112032Y8766D01*
X111016D01*
X110000Y9782D01*
X108984Y8766D01*
X107968D01*
X108984Y7750D01*
X107968Y6734D01*
X108984D01*
X110000Y5718D01*
X125000D02*
X126016Y6734D01*
X127032D01*
X126016Y7750D01*
X127032Y8766D01*
X126016D01*
X125000Y9782D01*
X123984Y8766D01*
X122968D01*
X123984Y7750D01*
X122968Y6734D01*
X123984D01*
X125000Y5718D01*
X140000D02*
X141016Y6734D01*
X142032D01*
X141016Y7750D01*
X142032Y8766D01*
X141016D01*
X140000Y9782D01*
X138984Y8766D01*
X137968D01*
X138984Y7750D01*
X137968Y6734D01*
X138984D01*
X140000Y5718D01*
X155000D02*
X156016Y6734D01*
X157032D01*
X156016Y7750D01*
X157032Y8766D01*
X156016D01*
X155000Y9782D01*
X153984Y8766D01*
X152968D01*
X153984Y7750D01*
X152968Y6734D01*
X153984D01*
X155000Y5718D01*
X170000D02*
X171016Y6734D01*
X172032D01*
X171016Y7750D01*
X172032Y8766D01*
X171016D01*
X170000Y9782D01*
X168984Y8766D01*
X167968D01*
X168984Y7750D01*
X167968Y6734D01*
X168984D01*
X170000Y5718D01*
X230000D02*
X231016Y6734D01*
X232032D01*
X231016Y7750D01*
X232032Y8766D01*
X231016D01*
X230000Y9782D01*
X228984Y8766D01*
X227968D01*
X228984Y7750D01*
X227968Y6734D01*
X228984D01*
X230000Y5718D01*
X245000D02*
X246016Y6734D01*
X247032D01*
X246016Y7750D01*
X247032Y8766D01*
X246016D01*
X245000Y9782D01*
X243984Y8766D01*
X242968D01*
X243984Y7750D01*
X242968Y6734D01*
X243984D01*
X245000Y5718D01*
X260000D02*
X261016Y6734D01*
X262032D01*
X261016Y7750D01*
X262032Y8766D01*
X261016D01*
X260000Y9782D01*
X258984Y8766D01*
X257968D01*
X258984Y7750D01*
X257968Y6734D01*
X258984D01*
X260000Y5718D01*
X275000D02*
X276016Y6734D01*
X277032D01*
X276016Y7750D01*
X277032Y8766D01*
X276016D01*
X275000Y9782D01*
X273984Y8766D01*
X272968D01*
X273984Y7750D01*
X272968Y6734D01*
X273984D01*
X275000Y5718D01*
X290000D02*
X291016Y6734D01*
X292032D01*
X291016Y7750D01*
X292032Y8766D01*
X291016D01*
X290000Y9782D01*
X288984Y8766D01*
X287968D01*
X288984Y7750D01*
X287968Y6734D01*
X288984D01*
X290000Y5718D01*
X305500D02*
X306516Y6734D01*
X307532D01*
X306516Y7750D01*
X307532Y8766D01*
X306516D01*
X305500Y9782D01*
X304484Y8766D01*
X303468D01*
X304484Y7750D01*
X303468Y6734D01*
X304484D01*
X305500Y5718D01*
X320000D02*
X321016Y6734D01*
X322032D01*
X321016Y7750D01*
X322032Y8766D01*
X321016D01*
X320000Y9782D01*
X318984Y8766D01*
X317968D01*
X318984Y7750D01*
X317968Y6734D01*
X318984D01*
X320000Y5718D01*
X335000D02*
X336016Y6734D01*
X337032D01*
X336016Y7750D01*
X337032Y8766D01*
X336016D01*
X335000Y9782D01*
X333984Y8766D01*
X332968D01*
X333984Y7750D01*
X332968Y6734D01*
X333984D01*
X335000Y5718D01*
X350000D02*
X351016Y6734D01*
X352032D01*
X351016Y7750D01*
X352032Y8766D01*
X351016D01*
X350000Y9782D01*
X348984Y8766D01*
X347968D01*
X348984Y7750D01*
X347968Y6734D01*
X348984D01*
X350000Y5718D01*
Y15968D02*
X351016Y16984D01*
X352032D01*
X351016Y18000D01*
X352032Y19016D01*
X351016D01*
X350000Y20032D01*
X348984Y19016D01*
X347968D01*
X348984Y18000D01*
X347968Y16984D01*
X348984D01*
X350000Y15968D01*
X335000D02*
X336016Y16984D01*
X337032D01*
X336016Y18000D01*
X337032Y19016D01*
X336016D01*
X335000Y20032D01*
X333984Y19016D01*
X332968D01*
X333984Y18000D01*
X332968Y16984D01*
X333984D01*
X335000Y15968D01*
X320000D02*
X321016Y16984D01*
X322032D01*
X321016Y18000D01*
X322032Y19016D01*
X321016D01*
X320000Y20032D01*
X318984Y19016D01*
X317968D01*
X318984Y18000D01*
X317968Y16984D01*
X318984D01*
X320000Y15968D01*
X305000D02*
X306016Y16984D01*
X307032D01*
X306016Y18000D01*
X307032Y19016D01*
X306016D01*
X305000Y20032D01*
X303984Y19016D01*
X302968D01*
X303984Y18000D01*
X302968Y16984D01*
X303984D01*
X305000Y15968D01*
X290000D02*
X291016Y16984D01*
X292032D01*
X291016Y18000D01*
X292032Y19016D01*
X291016D01*
X290000Y20032D01*
X288984Y19016D01*
X287968D01*
X288984Y18000D01*
X287968Y16984D01*
X288984D01*
X290000Y15968D01*
X125000D02*
X126016Y16984D01*
X127032D01*
X126016Y18000D01*
X127032Y19016D01*
X126016D01*
X125000Y20032D01*
X123984Y19016D01*
X122968D01*
X123984Y18000D01*
X122968Y16984D01*
X123984D01*
X125000Y15968D01*
X110000D02*
X111016Y16984D01*
X112032D01*
X111016Y18000D01*
X112032Y19016D01*
X111016D01*
X110000Y20032D01*
X108984Y19016D01*
X107968D01*
X108984Y18000D01*
X107968Y16984D01*
X108984D01*
X110000Y15968D01*
X95250D02*
X96266Y16984D01*
X97282D01*
X96266Y18000D01*
X97282Y19016D01*
X96266D01*
X95250Y20032D01*
X94234Y19016D01*
X93218D01*
X94234Y18000D01*
X93218Y16984D01*
X94234D01*
X95250Y15968D01*
X79500D02*
X80516Y16984D01*
X81532D01*
X80516Y18000D01*
X81532Y19016D01*
X80516D01*
X79500Y20032D01*
X78484Y19016D01*
X77468D01*
X78484Y18000D01*
X77468Y16984D01*
X78484D01*
X79500Y15968D01*
X64750D02*
X65766Y16984D01*
X66782D01*
X65766Y18000D01*
X66782Y19016D01*
X65766D01*
X64750Y20032D01*
X63734Y19016D01*
X62718D01*
X63734Y18000D01*
X62718Y16984D01*
X63734D01*
X64750Y15968D01*
X50000D02*
X51016Y16984D01*
X52032D01*
X51016Y18000D01*
X52032Y19016D01*
X51016D01*
X50000Y20032D01*
X48984Y19016D01*
X47968D01*
X48984Y18000D01*
X47968Y16984D01*
X48984D01*
X50000Y15968D01*
X359000Y87968D02*
X360016Y88984D01*
X361032D01*
X360016Y90000D01*
X361032Y91016D01*
X360016D01*
X359000Y92032D01*
X357984Y91016D01*
X356968D01*
X357984Y90000D01*
X356968Y88984D01*
X357984D01*
X359000Y87968D01*
D49*
X377032Y25000D02*
G03*
X377032Y25000I-2032J0D01*
G01*
X27032D02*
G03*
X27032Y25000I-2032J0D01*
G01*
M02*
