G04*
G04 #@! TF.GenerationSoftware,Altium Limited,Altium Designer,21.6.4 (81)*
G04*
G04 Layer_Physical_Order=4*
G04 Layer_Color=16711680*
%FSLAX44Y44*%
%MOMM*%
G71*
G04*
G04 #@! TF.SameCoordinates,74441D79-BE30-4494-89CB-7DD98D1B6E6E*
G04*
G04*
G04 #@! TF.FilePolarity,Positive*
G04*
G01*
G75*
%ADD38C,0.1520*%
%ADD39C,0.9000*%
%ADD40C,3.4000*%
%ADD41C,1.6500*%
%ADD42R,1.6500X1.6500*%
%ADD43C,0.6000*%
G36*
X395922Y4078D02*
X216250Y4078D01*
Y16250D01*
X183750D01*
Y4078D01*
X4078Y4078D01*
X4078Y215500D01*
X176400D01*
Y186500D01*
X227900D01*
Y215500D01*
X395922D01*
X395922Y4078D01*
D02*
G37*
G36*
X188435Y14390D02*
X188629Y14373D01*
X188817Y14349D01*
X188999Y14320D01*
X189169Y14285D01*
X189333Y14238D01*
X189486Y14197D01*
X189626Y14150D01*
X189750Y14103D01*
X189867Y14062D01*
X189967Y14021D01*
X190049Y13980D01*
X190119Y13950D01*
X190166Y13927D01*
X190196Y13909D01*
X190207Y13903D01*
X190372Y13804D01*
X190524Y13698D01*
X190665Y13586D01*
X190800Y13469D01*
X190923Y13352D01*
X191035Y13234D01*
X191140Y13111D01*
X191228Y13000D01*
X191310Y12894D01*
X191387Y12789D01*
X191445Y12701D01*
X191498Y12624D01*
X191533Y12554D01*
X191563Y12507D01*
X191580Y12478D01*
X191586Y12466D01*
X191668Y12284D01*
X191745Y12102D01*
X191809Y11914D01*
X191862Y11727D01*
X191909Y11539D01*
X191950Y11351D01*
X191979Y11175D01*
X192009Y11011D01*
X192026Y10852D01*
X192044Y10706D01*
X192050Y10577D01*
X192061Y10465D01*
Y10377D01*
X192067Y10342D01*
Y10312D01*
Y10289D01*
Y10272D01*
Y10260D01*
Y10254D01*
X192061Y10037D01*
X192050Y9826D01*
X192026Y9620D01*
X192003Y9427D01*
X191968Y9233D01*
X191932Y9057D01*
X191891Y8887D01*
X191850Y8728D01*
X191815Y8587D01*
X191774Y8458D01*
X191739Y8347D01*
X191703Y8253D01*
X191680Y8177D01*
X191657Y8124D01*
X191645Y8089D01*
X191639Y8083D01*
Y8077D01*
X191557Y7895D01*
X191463Y7719D01*
X191363Y7561D01*
X191263Y7408D01*
X191158Y7273D01*
X191052Y7144D01*
X190952Y7033D01*
X190853Y6927D01*
X190759Y6833D01*
X190671Y6757D01*
X190595Y6686D01*
X190524Y6634D01*
X190466Y6593D01*
X190424Y6557D01*
X190401Y6540D01*
X190389Y6534D01*
X190231Y6440D01*
X190061Y6358D01*
X189885Y6288D01*
X189709Y6223D01*
X189533Y6176D01*
X189351Y6129D01*
X189181Y6094D01*
X189010Y6065D01*
X188858Y6047D01*
X188711Y6029D01*
X188582Y6018D01*
X188471Y6006D01*
X188383D01*
X188342Y6000D01*
X188253D01*
X188019Y6006D01*
X187796Y6029D01*
X187585Y6065D01*
X187379Y6106D01*
X187192Y6158D01*
X187015Y6217D01*
X186851Y6282D01*
X186705Y6346D01*
X186569Y6411D01*
X186452Y6475D01*
X186347Y6534D01*
X186264Y6587D01*
X186194Y6628D01*
X186147Y6663D01*
X186118Y6686D01*
X186106Y6692D01*
X185948Y6833D01*
X185801Y6980D01*
X185666Y7138D01*
X185543Y7303D01*
X185431Y7473D01*
X185331Y7637D01*
X185243Y7801D01*
X185167Y7966D01*
X185097Y8118D01*
X185038Y8259D01*
X184991Y8382D01*
X184950Y8494D01*
X184921Y8582D01*
X184909Y8623D01*
X184903Y8652D01*
X184897Y8676D01*
X184891Y8693D01*
X184886Y8705D01*
Y8711D01*
X185959Y8981D01*
X186006Y8793D01*
X186059Y8623D01*
X186118Y8458D01*
X186188Y8312D01*
X186253Y8171D01*
X186329Y8042D01*
X186399Y7930D01*
X186470Y7825D01*
X186534Y7737D01*
X186599Y7655D01*
X186658Y7590D01*
X186710Y7537D01*
X186751Y7490D01*
X186781Y7461D01*
X186804Y7443D01*
X186810Y7437D01*
X186933Y7350D01*
X187057Y7267D01*
X187186Y7197D01*
X187315Y7138D01*
X187444Y7091D01*
X187573Y7050D01*
X187696Y7015D01*
X187813Y6986D01*
X187919Y6962D01*
X188025Y6951D01*
X188113Y6939D01*
X188189Y6927D01*
X188253D01*
X188300Y6921D01*
X188342D01*
X188476Y6927D01*
X188611Y6939D01*
X188741Y6956D01*
X188869Y6980D01*
X188987Y7009D01*
X189104Y7044D01*
X189210Y7074D01*
X189310Y7115D01*
X189398Y7150D01*
X189480Y7179D01*
X189550Y7214D01*
X189609Y7244D01*
X189656Y7267D01*
X189691Y7285D01*
X189715Y7297D01*
X189720Y7303D01*
X189838Y7379D01*
X189943Y7461D01*
X190043Y7549D01*
X190137Y7643D01*
X190219Y7737D01*
X190295Y7836D01*
X190366Y7930D01*
X190430Y8018D01*
X190483Y8106D01*
X190530Y8188D01*
X190571Y8265D01*
X190600Y8329D01*
X190630Y8382D01*
X190647Y8417D01*
X190653Y8447D01*
X190659Y8453D01*
X190712Y8599D01*
X190759Y8752D01*
X190800Y8904D01*
X190829Y9063D01*
X190888Y9362D01*
X190905Y9509D01*
X190923Y9650D01*
X190935Y9773D01*
X190941Y9890D01*
X190947Y9996D01*
X190952Y10084D01*
X190958Y10160D01*
Y10213D01*
Y10248D01*
Y10260D01*
X190952Y10412D01*
X190947Y10559D01*
X190917Y10841D01*
X190900Y10976D01*
X190876Y11105D01*
X190853Y11228D01*
X190829Y11339D01*
X190806Y11445D01*
X190788Y11539D01*
X190765Y11621D01*
X190747Y11691D01*
X190730Y11744D01*
X190718Y11785D01*
X190706Y11815D01*
Y11820D01*
X190653Y11961D01*
X190595Y12090D01*
X190530Y12214D01*
X190460Y12325D01*
X190389Y12436D01*
X190319Y12536D01*
X190243Y12624D01*
X190172Y12706D01*
X190102Y12777D01*
X190037Y12841D01*
X189979Y12894D01*
X189926Y12941D01*
X189885Y12976D01*
X189855Y13006D01*
X189832Y13017D01*
X189826Y13023D01*
X189703Y13105D01*
X189574Y13170D01*
X189445Y13234D01*
X189315Y13287D01*
X189181Y13328D01*
X189051Y13364D01*
X188928Y13393D01*
X188805Y13416D01*
X188694Y13440D01*
X188588Y13452D01*
X188494Y13463D01*
X188412Y13469D01*
X188347Y13475D01*
X188259D01*
X188107Y13469D01*
X187966Y13457D01*
X187831Y13440D01*
X187702Y13411D01*
X187585Y13381D01*
X187473Y13346D01*
X187373Y13311D01*
X187279Y13276D01*
X187197Y13234D01*
X187121Y13199D01*
X187057Y13164D01*
X187004Y13135D01*
X186963Y13105D01*
X186933Y13088D01*
X186916Y13076D01*
X186910Y13070D01*
X186810Y12988D01*
X186716Y12900D01*
X186634Y12800D01*
X186552Y12701D01*
X186476Y12589D01*
X186411Y12484D01*
X186347Y12378D01*
X186294Y12272D01*
X186247Y12172D01*
X186200Y12079D01*
X186165Y11997D01*
X186135Y11926D01*
X186112Y11861D01*
X186094Y11820D01*
X186088Y11791D01*
X186082Y11779D01*
X185026Y12026D01*
X185091Y12231D01*
X185173Y12425D01*
X185255Y12607D01*
X185349Y12777D01*
X185443Y12929D01*
X185537Y13076D01*
X185637Y13205D01*
X185730Y13322D01*
X185824Y13428D01*
X185907Y13516D01*
X185983Y13598D01*
X186053Y13657D01*
X186106Y13710D01*
X186153Y13745D01*
X186176Y13768D01*
X186188Y13774D01*
X186347Y13886D01*
X186511Y13980D01*
X186687Y14062D01*
X186857Y14132D01*
X187027Y14197D01*
X187197Y14244D01*
X187362Y14285D01*
X187520Y14320D01*
X187673Y14343D01*
X187808Y14361D01*
X187925Y14379D01*
X188030Y14384D01*
X188118Y14390D01*
X188154Y14396D01*
X188236D01*
X188435Y14390D01*
D02*
G37*
G36*
X215114Y6135D02*
X211882D01*
X211741Y6141D01*
X211612Y6147D01*
X211488Y6158D01*
X211377Y6164D01*
X211265Y6176D01*
X211166Y6188D01*
X211078Y6205D01*
X210996Y6217D01*
X210925Y6229D01*
X210861Y6241D01*
X210808Y6246D01*
X210767Y6258D01*
X210737Y6264D01*
X210720Y6270D01*
X210714D01*
X210520Y6329D01*
X210350Y6387D01*
X210198Y6458D01*
X210133Y6487D01*
X210068Y6522D01*
X210016Y6551D01*
X209969Y6581D01*
X209928Y6604D01*
X209892Y6628D01*
X209863Y6645D01*
X209846Y6657D01*
X209834Y6669D01*
X209828D01*
X209699Y6775D01*
X209587Y6898D01*
X209488Y7021D01*
X209400Y7144D01*
X209329Y7250D01*
X209300Y7297D01*
X209276Y7338D01*
X209259Y7373D01*
X209247Y7396D01*
X209235Y7414D01*
Y7420D01*
X209153Y7608D01*
X209095Y7795D01*
X209048Y7977D01*
X209018Y8142D01*
X209007Y8212D01*
X209001Y8282D01*
X208995Y8341D01*
Y8388D01*
X208989Y8429D01*
Y8464D01*
Y8482D01*
Y8488D01*
X208995Y8617D01*
X209007Y8740D01*
X209024Y8863D01*
X209053Y8975D01*
X209083Y9086D01*
X209112Y9186D01*
X209153Y9280D01*
X209188Y9368D01*
X209224Y9444D01*
X209259Y9515D01*
X209294Y9573D01*
X209323Y9620D01*
X209353Y9661D01*
X209370Y9691D01*
X209382Y9708D01*
X209388Y9714D01*
X209464Y9808D01*
X209546Y9896D01*
X209640Y9978D01*
X209728Y10049D01*
X209822Y10119D01*
X209916Y10178D01*
X210010Y10230D01*
X210104Y10277D01*
X210186Y10324D01*
X210268Y10359D01*
X210338Y10389D01*
X210397Y10412D01*
X210450Y10430D01*
X210485Y10442D01*
X210514Y10453D01*
X210520D01*
X210415Y10506D01*
X210321Y10565D01*
X210233Y10624D01*
X210145Y10688D01*
X210068Y10753D01*
X209998Y10811D01*
X209939Y10870D01*
X209881Y10929D01*
X209834Y10981D01*
X209787Y11034D01*
X209752Y11075D01*
X209722Y11116D01*
X209699Y11152D01*
X209681Y11175D01*
X209675Y11187D01*
X209669Y11193D01*
X209617Y11281D01*
X209576Y11369D01*
X209534Y11451D01*
X209505Y11539D01*
X209452Y11703D01*
X209417Y11856D01*
X209405Y11920D01*
X209400Y11985D01*
X209388Y12038D01*
Y12084D01*
X209382Y12120D01*
Y12149D01*
Y12167D01*
Y12172D01*
X209388Y12278D01*
X209394Y12378D01*
X209435Y12577D01*
X209482Y12759D01*
X209511Y12841D01*
X209540Y12924D01*
X209576Y12994D01*
X209605Y13053D01*
X209628Y13111D01*
X209652Y13158D01*
X209675Y13193D01*
X209693Y13223D01*
X209699Y13240D01*
X209705Y13246D01*
X209769Y13340D01*
X209834Y13428D01*
X209904Y13504D01*
X209975Y13581D01*
X210051Y13651D01*
X210121Y13710D01*
X210192Y13768D01*
X210262Y13815D01*
X210327Y13862D01*
X210391Y13898D01*
X210444Y13933D01*
X210491Y13956D01*
X210532Y13980D01*
X210561Y13991D01*
X210579Y14003D01*
X210585D01*
X210690Y14050D01*
X210808Y14085D01*
X211054Y14150D01*
X211301Y14197D01*
X211424Y14209D01*
X211541Y14226D01*
X211647Y14232D01*
X211752Y14244D01*
X211840Y14250D01*
X211923D01*
X211987Y14255D01*
X215114D01*
Y6135D01*
D02*
G37*
G36*
X207493D02*
X206419D01*
Y9743D01*
X205028D01*
X204905Y9737D01*
X204799Y9732D01*
X204717Y9726D01*
X204659Y9714D01*
X204612Y9708D01*
X204582Y9702D01*
X204577D01*
X204483Y9673D01*
X204395Y9644D01*
X204312Y9603D01*
X204242Y9567D01*
X204178Y9538D01*
X204131Y9509D01*
X204101Y9491D01*
X204090Y9485D01*
X203996Y9421D01*
X203902Y9338D01*
X203814Y9245D01*
X203726Y9157D01*
X203655Y9075D01*
X203597Y9004D01*
X203573Y8975D01*
X203556Y8957D01*
X203550Y8945D01*
X203544Y8940D01*
X203485Y8863D01*
X203421Y8781D01*
X203292Y8605D01*
X203162Y8417D01*
X203039Y8235D01*
X202987Y8153D01*
X202934Y8077D01*
X202887Y8007D01*
X202846Y7942D01*
X202816Y7895D01*
X202793Y7854D01*
X202775Y7831D01*
X202769Y7825D01*
X201696Y6135D01*
X200352D01*
X201754Y8341D01*
X201913Y8576D01*
X201995Y8681D01*
X202071Y8787D01*
X202148Y8881D01*
X202224Y8969D01*
X202294Y9051D01*
X202359Y9127D01*
X202417Y9198D01*
X202476Y9256D01*
X202523Y9303D01*
X202564Y9350D01*
X202599Y9380D01*
X202623Y9409D01*
X202640Y9421D01*
X202646Y9427D01*
X202740Y9503D01*
X202840Y9573D01*
X202945Y9644D01*
X203051Y9702D01*
X203145Y9755D01*
X203186Y9779D01*
X203221Y9796D01*
X203251Y9814D01*
X203274Y9820D01*
X203286Y9831D01*
X203292D01*
X203080Y9867D01*
X202881Y9908D01*
X202699Y9961D01*
X202529Y10013D01*
X202376Y10078D01*
X202230Y10136D01*
X202106Y10201D01*
X201989Y10266D01*
X201889Y10330D01*
X201807Y10389D01*
X201731Y10442D01*
X201672Y10489D01*
X201625Y10530D01*
X201590Y10559D01*
X201572Y10577D01*
X201567Y10582D01*
X201467Y10694D01*
X201379Y10817D01*
X201303Y10934D01*
X201238Y11058D01*
X201185Y11181D01*
X201138Y11304D01*
X201103Y11422D01*
X201074Y11533D01*
X201050Y11639D01*
X201033Y11732D01*
X201021Y11820D01*
X201009Y11891D01*
Y11955D01*
X201003Y12002D01*
Y12026D01*
Y12038D01*
X201009Y12161D01*
X201015Y12284D01*
X201033Y12401D01*
X201056Y12513D01*
X201080Y12618D01*
X201109Y12718D01*
X201144Y12812D01*
X201173Y12900D01*
X201203Y12976D01*
X201238Y13047D01*
X201267Y13111D01*
X201291Y13164D01*
X201314Y13205D01*
X201326Y13234D01*
X201338Y13252D01*
X201344Y13258D01*
X201408Y13358D01*
X201479Y13452D01*
X201555Y13534D01*
X201625Y13616D01*
X201702Y13686D01*
X201778Y13751D01*
X201854Y13804D01*
X201924Y13856D01*
X201989Y13898D01*
X202054Y13933D01*
X202106Y13968D01*
X202153Y13991D01*
X202194Y14009D01*
X202224Y14021D01*
X202241Y14032D01*
X202247D01*
X202359Y14073D01*
X202482Y14109D01*
X202611Y14138D01*
X202740Y14161D01*
X203016Y14203D01*
X203151Y14214D01*
X203280Y14226D01*
X203409Y14238D01*
X203520Y14244D01*
X203626Y14250D01*
X203720D01*
X203790Y14255D01*
X207493D01*
Y6135D01*
D02*
G37*
G36*
X199296D02*
X193241D01*
Y7091D01*
X198222D01*
Y9855D01*
X193734D01*
Y10811D01*
X198222D01*
Y13299D01*
X193428D01*
Y14255D01*
X199296D01*
Y6135D01*
D02*
G37*
%LPC*%
G36*
X100000Y194354D02*
X98334Y194022D01*
X96922Y193078D01*
X95978Y191666D01*
X95646Y190000D01*
X95978Y188334D01*
X96922Y186922D01*
X98334Y185978D01*
X100000Y185646D01*
X101666Y185978D01*
X103078Y186922D01*
X104022Y188334D01*
X104354Y190000D01*
X104022Y191666D01*
X103078Y193078D01*
X101666Y194022D01*
X100000Y194354D01*
D02*
G37*
G36*
X134500Y190604D02*
X132834Y190272D01*
X131421Y189328D01*
X130478Y187916D01*
X130146Y186250D01*
X130478Y184584D01*
X131421Y183172D01*
X132834Y182228D01*
X134500Y181896D01*
X136166Y182228D01*
X137578Y183172D01*
X138522Y184584D01*
X138854Y186250D01*
X138522Y187916D01*
X137578Y189328D01*
X136166Y190272D01*
X134500Y190604D01*
D02*
G37*
G36*
X145000Y179354D02*
X143334Y179022D01*
X141922Y178078D01*
X141248Y177070D01*
X80250D01*
X79458Y176912D01*
X78787Y176464D01*
X74940Y172617D01*
X73750Y172854D01*
X72084Y172522D01*
X70672Y171579D01*
X69728Y170166D01*
X69396Y168500D01*
X69728Y166834D01*
X70672Y165422D01*
X72084Y164478D01*
X73750Y164146D01*
X75416Y164478D01*
X76828Y165422D01*
X77772Y166834D01*
X78104Y168500D01*
X77867Y169690D01*
X81107Y172930D01*
X141248D01*
X141922Y171922D01*
X143334Y170978D01*
X145000Y170646D01*
X146666Y170978D01*
X148078Y171922D01*
X149022Y173334D01*
X149354Y175000D01*
X149022Y176666D01*
X148078Y178078D01*
X146666Y179022D01*
X145000Y179354D01*
D02*
G37*
G36*
X134500Y162604D02*
X132834Y162272D01*
X131421Y161329D01*
X130478Y159916D01*
X130146Y158250D01*
X130478Y156584D01*
X131421Y155171D01*
X132834Y154228D01*
X134500Y153896D01*
X136166Y154228D01*
X137578Y155171D01*
X138522Y156584D01*
X138854Y158250D01*
X138522Y159916D01*
X137578Y161329D01*
X136166Y162272D01*
X134500Y162604D01*
D02*
G37*
G36*
X150000Y194354D02*
X148334Y194022D01*
X146922Y193078D01*
X145978Y191666D01*
X145646Y190000D01*
X145978Y188334D01*
X146922Y186922D01*
X148334Y185978D01*
X150000Y185646D01*
X151666Y185978D01*
X153078Y186922D01*
X153209Y187117D01*
X154543Y187234D01*
X155319Y186404D01*
X154866Y185241D01*
X153598Y184989D01*
X152185Y184045D01*
X151241Y182633D01*
X150910Y180967D01*
X151241Y179301D01*
X152185Y177888D01*
X153598Y176945D01*
X155264Y176613D01*
X156206Y176800D01*
X173977Y159030D01*
X174648Y158581D01*
X175440Y158423D01*
X179149D01*
X191252Y146321D01*
X190834Y144943D01*
X190584Y144893D01*
X189172Y143949D01*
X188228Y142537D01*
X188025Y141516D01*
X186657Y141088D01*
X163531Y164214D01*
X162860Y164662D01*
X162068Y164820D01*
X160497D01*
X160472Y164946D01*
X159528Y166359D01*
X158116Y167302D01*
X156450Y167634D01*
X154784Y167302D01*
X153371Y166359D01*
X152427Y164946D01*
X152096Y163280D01*
X152427Y161614D01*
X153371Y160201D01*
X154784Y159258D01*
X156450Y158926D01*
X158116Y159258D01*
X159528Y160201D01*
X159848Y160680D01*
X161210D01*
X186646Y135244D01*
X186646Y135244D01*
X233604Y88287D01*
X234276Y87838D01*
X235068Y87680D01*
X355415D01*
X355922Y86922D01*
X357334Y85978D01*
X359000Y85646D01*
X360666Y85978D01*
X362079Y86922D01*
X363022Y88334D01*
X363354Y90000D01*
X363022Y91666D01*
X362079Y93078D01*
X360666Y94022D01*
X359000Y94354D01*
X357334Y94022D01*
X355922Y93078D01*
X355080Y91820D01*
X280058D01*
X279379Y93090D01*
X279495Y93264D01*
X279827Y94930D01*
X279495Y96596D01*
X279379Y96770D01*
X279977Y97890D01*
X377933D01*
X384633Y91190D01*
X384396Y90000D01*
X384728Y88334D01*
X385672Y86922D01*
X387084Y85978D01*
X388750Y85646D01*
X390416Y85978D01*
X391828Y86922D01*
X392772Y88334D01*
X393104Y90000D01*
X392772Y91666D01*
X391828Y93078D01*
X390416Y94022D01*
X388750Y94354D01*
X387560Y94117D01*
X380253Y101424D01*
X380040Y101566D01*
X379756Y102868D01*
X379801Y103124D01*
X383810Y107133D01*
X385000Y106896D01*
X386666Y107228D01*
X388078Y108172D01*
X389022Y109584D01*
X389354Y111250D01*
X389022Y112916D01*
X388078Y114328D01*
X386666Y115272D01*
X385000Y115604D01*
X383334Y115272D01*
X382426Y114666D01*
X381267Y115350D01*
X380783Y117787D01*
X379402Y119852D01*
X377337Y121233D01*
X374900Y121717D01*
X372463Y121233D01*
X370398Y119852D01*
X369017Y117787D01*
X368533Y115350D01*
X369017Y112913D01*
X370398Y110848D01*
X372463Y109467D01*
X374900Y108983D01*
X377337Y109467D01*
X378641Y110339D01*
X380126Y109818D01*
X380246Y109423D01*
X375643Y104820D01*
X361847D01*
X361722Y106090D01*
X362416Y106228D01*
X363829Y107171D01*
X364772Y108584D01*
X365104Y110250D01*
X364772Y111916D01*
X363829Y113329D01*
X362416Y114272D01*
X360750Y114604D01*
X359084Y114272D01*
X357672Y113329D01*
X356728Y111916D01*
X356396Y110250D01*
X356728Y108584D01*
X357672Y107171D01*
X359084Y106228D01*
X359778Y106090D01*
X359652Y104820D01*
X243107D01*
X156464Y191464D01*
X155792Y191912D01*
X155000Y192070D01*
X153752D01*
X153078Y193078D01*
X151666Y194022D01*
X150000Y194354D01*
D02*
G37*
G36*
X191500Y124354D02*
X189834Y124022D01*
X188421Y123078D01*
X187478Y121666D01*
X187170Y120118D01*
X187099Y119964D01*
X186020Y119151D01*
X185000Y119354D01*
X183334Y119022D01*
X181922Y118078D01*
X180978Y116666D01*
X180646Y115000D01*
X180978Y113334D01*
X181922Y111922D01*
X183334Y110978D01*
X185000Y110646D01*
X186666Y110978D01*
X188078Y111922D01*
X189022Y113334D01*
X189330Y114882D01*
X189401Y115036D01*
X190480Y115849D01*
X191500Y115646D01*
X193160Y115977D01*
X193181Y115962D01*
X194072Y115056D01*
X193478Y114166D01*
X193146Y112500D01*
X193478Y110834D01*
X194422Y109422D01*
X195834Y108478D01*
X196784Y108289D01*
X197405Y106931D01*
X197228Y106666D01*
X196896Y105000D01*
X197228Y103334D01*
X198172Y101922D01*
X199584Y100978D01*
X201250Y100646D01*
X202916Y100978D01*
X204328Y101922D01*
X205272Y103334D01*
X205604Y105000D01*
X205272Y106666D01*
X204328Y108078D01*
X202916Y109022D01*
X201966Y109211D01*
X201345Y110569D01*
X201522Y110834D01*
X201854Y112500D01*
X201522Y114166D01*
X200578Y115578D01*
X199166Y116522D01*
X197500Y116854D01*
X195840Y116523D01*
X195819Y116538D01*
X194928Y117444D01*
X195522Y118334D01*
X195854Y120000D01*
X195522Y121666D01*
X194578Y123078D01*
X193166Y124022D01*
X191500Y124354D01*
D02*
G37*
G36*
X267500Y71854D02*
X265834Y71522D01*
X264422Y70578D01*
X263748Y69570D01*
X162300D01*
X161508Y69412D01*
X160837Y68963D01*
X141634Y49761D01*
X141301Y50016D01*
X138985Y50975D01*
X136500Y51302D01*
X134015Y50975D01*
X131699Y50016D01*
X129710Y48490D01*
X128184Y46501D01*
X127225Y44185D01*
X126898Y41700D01*
X127225Y39215D01*
X128184Y36899D01*
X129710Y34910D01*
X131699Y33384D01*
X134015Y32425D01*
X136500Y32098D01*
X138985Y32425D01*
X141301Y33384D01*
X143290Y34910D01*
X144816Y36899D01*
X145775Y39215D01*
X146102Y41700D01*
X145775Y44185D01*
X144816Y46501D01*
X144561Y46834D01*
X163157Y65430D01*
X219205D01*
X219403Y64825D01*
X219416Y64160D01*
X218172Y63328D01*
X217500Y62323D01*
X180453D01*
X179661Y62165D01*
X178989Y61716D01*
X167034Y49761D01*
X166701Y50016D01*
X164385Y50975D01*
X161900Y51302D01*
X159415Y50975D01*
X157099Y50016D01*
X155110Y48490D01*
X153584Y46501D01*
X152625Y44185D01*
X152298Y41700D01*
X152625Y39215D01*
X153584Y36899D01*
X155110Y34910D01*
X157099Y33384D01*
X159415Y32425D01*
X161900Y32098D01*
X164385Y32425D01*
X166701Y33384D01*
X168690Y34910D01*
X170216Y36899D01*
X171175Y39215D01*
X171502Y41700D01*
X171175Y44185D01*
X170216Y46501D01*
X169961Y46834D01*
X181310Y58183D01*
X217496D01*
X218172Y57172D01*
X219584Y56228D01*
X221250Y55896D01*
X222916Y56228D01*
X224328Y57172D01*
X225272Y58584D01*
X225604Y60250D01*
X225272Y61916D01*
X224328Y63328D01*
X223084Y64160D01*
X223097Y64825D01*
X223295Y65430D01*
X263748D01*
X264422Y64422D01*
X265834Y63478D01*
X267500Y63146D01*
X269166Y63478D01*
X270578Y64422D01*
X271522Y65834D01*
X271854Y67500D01*
X271522Y69166D01*
X270578Y70578D01*
X269166Y71522D01*
X267500Y71854D01*
D02*
G37*
G36*
X385060Y70917D02*
X382623Y70433D01*
X380558Y69052D01*
X379177Y66987D01*
X378693Y64550D01*
X379177Y62113D01*
X380558Y60048D01*
X382623Y58667D01*
X385060Y58183D01*
X387497Y58667D01*
X389562Y60048D01*
X390943Y62113D01*
X391427Y64550D01*
X390943Y66987D01*
X389562Y69052D01*
X387497Y70433D01*
X385060Y70917D01*
D02*
G37*
G36*
X364740D02*
X362303Y70433D01*
X360238Y69052D01*
X358857Y66987D01*
X358373Y64550D01*
X358857Y62113D01*
X360238Y60048D01*
X362303Y58667D01*
X364740Y58183D01*
X367177Y58667D01*
X369242Y60048D01*
X370623Y62113D01*
X371107Y64550D01*
X370623Y66987D01*
X369242Y69052D01*
X367177Y70433D01*
X364740Y70917D01*
D02*
G37*
G36*
X111862Y51202D02*
Y42462D01*
X120602D01*
X120375Y44185D01*
X119416Y46501D01*
X117890Y48490D01*
X115901Y50016D01*
X113585Y50975D01*
X111862Y51202D01*
D02*
G37*
G36*
X110338D02*
X108615Y50975D01*
X106299Y50016D01*
X104310Y48490D01*
X102784Y46501D01*
X101825Y44185D01*
X101598Y42462D01*
X110338D01*
Y51202D01*
D02*
G37*
G36*
X120602Y40938D02*
X111862D01*
Y32198D01*
X113585Y32425D01*
X115901Y33384D01*
X117890Y34910D01*
X119416Y36899D01*
X120375Y39215D01*
X120602Y40938D01*
D02*
G37*
G36*
X110338D02*
X101598D01*
X101825Y39215D01*
X102784Y36899D01*
X104310Y34910D01*
X106299Y33384D01*
X108615Y32425D01*
X110338Y32198D01*
Y40938D01*
D02*
G37*
G36*
X298420Y51220D02*
X279380D01*
Y32180D01*
X298420D01*
Y51220D01*
D02*
G37*
G36*
X263500Y51302D02*
X261015Y50975D01*
X258699Y50016D01*
X256710Y48490D01*
X255184Y46501D01*
X254225Y44185D01*
X253898Y41700D01*
X254225Y39215D01*
X255184Y36899D01*
X256710Y34910D01*
X258699Y33384D01*
X261015Y32425D01*
X263500Y32098D01*
X265985Y32425D01*
X268301Y33384D01*
X270290Y34910D01*
X271816Y36899D01*
X272775Y39215D01*
X273102Y41700D01*
X272775Y44185D01*
X271816Y46501D01*
X270290Y48490D01*
X268301Y50016D01*
X265985Y50975D01*
X263500Y51302D01*
D02*
G37*
G36*
X238100D02*
X235615Y50975D01*
X233299Y50016D01*
X231310Y48490D01*
X229784Y46501D01*
X228825Y44185D01*
X228498Y41700D01*
X228825Y39215D01*
X229784Y36899D01*
X231310Y34910D01*
X233299Y33384D01*
X235615Y32425D01*
X238100Y32098D01*
X240585Y32425D01*
X242901Y33384D01*
X244890Y34910D01*
X246416Y36899D01*
X247375Y39215D01*
X247702Y41700D01*
X247375Y44185D01*
X246416Y46501D01*
X244890Y48490D01*
X242901Y50016D01*
X240585Y50975D01*
X238100Y51302D01*
D02*
G37*
G36*
X212700D02*
X210215Y50975D01*
X207899Y50016D01*
X205910Y48490D01*
X204384Y46501D01*
X203425Y44185D01*
X203098Y41700D01*
X203425Y39215D01*
X204384Y36899D01*
X205910Y34910D01*
X207899Y33384D01*
X210215Y32425D01*
X212700Y32098D01*
X215185Y32425D01*
X217501Y33384D01*
X219490Y34910D01*
X221016Y36899D01*
X221975Y39215D01*
X222302Y41700D01*
X221975Y44185D01*
X221016Y46501D01*
X219490Y48490D01*
X217501Y50016D01*
X215185Y50975D01*
X212700Y51302D01*
D02*
G37*
G36*
X187300D02*
X184815Y50975D01*
X182499Y50016D01*
X180510Y48490D01*
X178984Y46501D01*
X178025Y44185D01*
X177698Y41700D01*
X178025Y39215D01*
X178984Y36899D01*
X180510Y34910D01*
X182499Y33384D01*
X184815Y32425D01*
X187300Y32098D01*
X189785Y32425D01*
X192101Y33384D01*
X194090Y34910D01*
X195616Y36899D01*
X196575Y39215D01*
X196902Y41700D01*
X196575Y44185D01*
X195616Y46501D01*
X194090Y48490D01*
X192101Y50016D01*
X189785Y50975D01*
X187300Y51302D01*
D02*
G37*
G36*
X375762Y43283D02*
Y25762D01*
X393283D01*
X393006Y28582D01*
X391961Y32025D01*
X390264Y35199D01*
X387981Y37981D01*
X385199Y40264D01*
X382025Y41961D01*
X378582Y43006D01*
X375762Y43283D01*
D02*
G37*
G36*
X374238D02*
X371418Y43006D01*
X367975Y41961D01*
X364801Y40264D01*
X362019Y37981D01*
X359736Y35199D01*
X358039Y32025D01*
X356994Y28582D01*
X356717Y25762D01*
X374238D01*
Y43283D01*
D02*
G37*
G36*
X25762D02*
Y25762D01*
X43283D01*
X43006Y28582D01*
X41961Y32025D01*
X40264Y35199D01*
X37981Y37981D01*
X35199Y40264D01*
X32025Y41961D01*
X28582Y43006D01*
X25762Y43283D01*
D02*
G37*
G36*
X24238D02*
X21418Y43006D01*
X17975Y41961D01*
X14801Y40264D01*
X12019Y37981D01*
X9736Y35199D01*
X8039Y32025D01*
X6994Y28582D01*
X6717Y25762D01*
X24238D01*
Y43283D01*
D02*
G37*
G36*
X393283Y24238D02*
X375762D01*
Y6717D01*
X378582Y6994D01*
X382025Y8039D01*
X385199Y9736D01*
X387981Y12019D01*
X390264Y14801D01*
X391961Y17975D01*
X393006Y21418D01*
X393283Y24238D01*
D02*
G37*
G36*
X374238D02*
X356717D01*
X356994Y21418D01*
X358039Y17975D01*
X359736Y14801D01*
X362019Y12019D01*
X364801Y9736D01*
X367975Y8039D01*
X371418Y6994D01*
X374238Y6717D01*
Y24238D01*
D02*
G37*
G36*
X43283D02*
X25762D01*
Y6717D01*
X28582Y6994D01*
X32025Y8039D01*
X35199Y9736D01*
X37981Y12019D01*
X40264Y14801D01*
X41961Y17975D01*
X43006Y21418D01*
X43283Y24238D01*
D02*
G37*
G36*
X24238D02*
X6717D01*
X6994Y21418D01*
X8039Y17975D01*
X9736Y14801D01*
X12019Y12019D01*
X14801Y9736D01*
X17975Y8039D01*
X21418Y6994D01*
X24238Y6717D01*
Y24238D01*
D02*
G37*
G36*
X214041Y13299D02*
X212263D01*
X212116Y13293D01*
X211981Y13287D01*
X211858Y13281D01*
X211747Y13270D01*
X211647Y13264D01*
X211559Y13252D01*
X211477Y13240D01*
X211406Y13229D01*
X211348Y13217D01*
X211301Y13211D01*
X211259Y13199D01*
X211230Y13193D01*
X211207Y13188D01*
X211195Y13182D01*
X211189D01*
X211060Y13129D01*
X210954Y13070D01*
X210855Y13000D01*
X210778Y12929D01*
X210720Y12865D01*
X210673Y12812D01*
X210649Y12771D01*
X210638Y12765D01*
Y12759D01*
X210573Y12642D01*
X210520Y12519D01*
X210485Y12401D01*
X210462Y12290D01*
X210450Y12196D01*
X210444Y12155D01*
X210438Y12120D01*
Y12090D01*
Y12067D01*
Y12055D01*
Y12049D01*
X210450Y11897D01*
X210473Y11756D01*
X210503Y11633D01*
X210544Y11533D01*
X210585Y11445D01*
X210602Y11416D01*
X210614Y11386D01*
X210632Y11363D01*
X210638Y11345D01*
X210649Y11339D01*
Y11334D01*
X210737Y11234D01*
X210831Y11152D01*
X210937Y11081D01*
X211037Y11028D01*
X211125Y10987D01*
X211166Y10970D01*
X211195Y10958D01*
X211224Y10946D01*
X211248Y10940D01*
X211259Y10934D01*
X211265D01*
X211330Y10917D01*
X211400Y10905D01*
X211477Y10893D01*
X211559Y10882D01*
X211729Y10864D01*
X211893Y10852D01*
X211975Y10847D01*
X212116D01*
X212175Y10841D01*
X214041D01*
Y13299D01*
D02*
G37*
G36*
Y9884D02*
X212028D01*
X211893Y9878D01*
X211770Y9872D01*
X211658Y9861D01*
X211553Y9849D01*
X211453Y9837D01*
X211365Y9826D01*
X211283Y9814D01*
X211213Y9802D01*
X211154Y9790D01*
X211101Y9779D01*
X211060Y9767D01*
X211025Y9755D01*
X211001Y9749D01*
X210990Y9743D01*
X210984D01*
X210837Y9685D01*
X210708Y9614D01*
X210597Y9538D01*
X210503Y9456D01*
X210426Y9385D01*
X210374Y9327D01*
X210356Y9303D01*
X210344Y9292D01*
X210333Y9280D01*
Y9274D01*
X210256Y9145D01*
X210198Y9010D01*
X210156Y8881D01*
X210127Y8758D01*
X210110Y8646D01*
X210104Y8605D01*
Y8564D01*
X210098Y8535D01*
Y8505D01*
Y8494D01*
Y8488D01*
X210104Y8347D01*
X210121Y8212D01*
X210151Y8095D01*
X210180Y7995D01*
X210209Y7913D01*
X210239Y7848D01*
X210245Y7825D01*
X210256Y7807D01*
X210262Y7801D01*
Y7795D01*
X210327Y7690D01*
X210391Y7602D01*
X210462Y7526D01*
X210526Y7461D01*
X210585Y7408D01*
X210632Y7373D01*
X210661Y7350D01*
X210667Y7344D01*
X210673D01*
X210773Y7291D01*
X210872Y7244D01*
X210978Y7209D01*
X211072Y7179D01*
X211160Y7156D01*
X211224Y7138D01*
X211254Y7132D01*
X211271D01*
X211283Y7127D01*
X211289D01*
X211330Y7121D01*
X211383Y7115D01*
X211494Y7109D01*
X211612Y7097D01*
X211735D01*
X211846Y7091D01*
X214041D01*
Y9884D01*
D02*
G37*
G36*
X206419Y13358D02*
X203855D01*
X203691Y13352D01*
X203538Y13340D01*
X203397Y13322D01*
X203268Y13299D01*
X203151Y13270D01*
X203039Y13240D01*
X202940Y13205D01*
X202857Y13170D01*
X202781Y13135D01*
X202717Y13099D01*
X202658Y13070D01*
X202611Y13041D01*
X202582Y13017D01*
X202552Y13000D01*
X202541Y12988D01*
X202535Y12982D01*
X202458Y12912D01*
X202394Y12836D01*
X202341Y12759D01*
X202288Y12677D01*
X202247Y12601D01*
X202218Y12519D01*
X202188Y12442D01*
X202165Y12372D01*
X202148Y12302D01*
X202136Y12237D01*
X202124Y12184D01*
X202118Y12131D01*
X202112Y12090D01*
Y12061D01*
Y12043D01*
Y12038D01*
X202124Y11891D01*
X202148Y11756D01*
X202183Y11633D01*
X202218Y11527D01*
X202259Y11439D01*
X202277Y11398D01*
X202294Y11369D01*
X202312Y11345D01*
X202318Y11328D01*
X202329Y11316D01*
Y11310D01*
X202417Y11193D01*
X202517Y11093D01*
X202623Y11011D01*
X202728Y10940D01*
X202822Y10888D01*
X202857Y10870D01*
X202893Y10852D01*
X202922Y10841D01*
X202945Y10829D01*
X202957Y10823D01*
X202963D01*
X203045Y10799D01*
X203127Y10776D01*
X203315Y10741D01*
X203509Y10711D01*
X203691Y10694D01*
X203779Y10688D01*
X203855Y10682D01*
X203931D01*
X203990Y10676D01*
X206419D01*
Y13358D01*
D02*
G37*
%LPD*%
D38*
X156450Y163280D02*
X156980Y162750D01*
X162068D01*
X80250Y175000D02*
X145000D01*
X73750Y168500D02*
X80250Y175000D01*
X162300Y67500D02*
X267500D01*
X376500Y102750D02*
X385000Y111250D01*
X242250Y102750D02*
X376500D01*
X378790Y99960D02*
X388750Y90000D01*
X240844Y100210D02*
X241094Y99960D01*
X378790D01*
X240290Y100210D02*
X240844D01*
X155000Y190000D02*
X242250Y102750D01*
X237750Y95500D02*
X274903D01*
X275473Y94930D01*
X188110Y136708D02*
X235068Y89750D01*
X358750D01*
X359000Y90000D01*
X180007Y160493D02*
X240290Y100210D01*
X188110Y136708D02*
Y136708D01*
X162068Y162750D02*
X188110Y136708D01*
X136500Y41700D02*
X162300Y67500D01*
X175440Y160493D02*
X180007D01*
X150000Y190000D02*
X155000D01*
X155264Y180670D02*
X175440Y160493D01*
X155264Y180670D02*
Y180967D01*
X180453Y60253D02*
X221247D01*
X161900Y41700D02*
X180453Y60253D01*
X221247D02*
X221250Y60250D01*
X192250Y140871D02*
X192379D01*
X237750Y95500D01*
D39*
X374900Y115350D02*
D03*
X385060Y64550D02*
D03*
X364740D02*
D03*
D40*
X375000Y25000D02*
D03*
X25000D02*
D03*
D41*
X111100Y41700D02*
D03*
X136500D02*
D03*
X238100D02*
D03*
X263500D02*
D03*
X212700D02*
D03*
X187300D02*
D03*
X161900D02*
D03*
D42*
X288900D02*
D03*
D43*
X185000Y115000D02*
D03*
X215000Y102250D02*
D03*
X134500Y186250D02*
D03*
Y158250D02*
D03*
X156450Y163280D02*
D03*
X73750Y168500D02*
D03*
X145000Y175000D02*
D03*
X245000Y77000D02*
D03*
X230000D02*
D03*
X380000Y212000D02*
D03*
Y197000D02*
D03*
Y182000D02*
D03*
Y167000D02*
D03*
Y152000D02*
D03*
Y137000D02*
D03*
Y47000D02*
D03*
X365000Y212000D02*
D03*
Y197000D02*
D03*
Y182000D02*
D03*
Y167000D02*
D03*
Y152000D02*
D03*
Y137000D02*
D03*
Y122000D02*
D03*
Y47000D02*
D03*
X350000Y212000D02*
D03*
Y197000D02*
D03*
Y182000D02*
D03*
Y167000D02*
D03*
Y152000D02*
D03*
Y137000D02*
D03*
Y122000D02*
D03*
Y77000D02*
D03*
Y62000D02*
D03*
Y47000D02*
D03*
Y32000D02*
D03*
X335000Y212000D02*
D03*
Y197000D02*
D03*
Y182000D02*
D03*
Y167000D02*
D03*
Y152000D02*
D03*
Y137000D02*
D03*
Y122000D02*
D03*
Y77000D02*
D03*
Y62000D02*
D03*
Y47000D02*
D03*
Y32000D02*
D03*
X320000Y212000D02*
D03*
Y197000D02*
D03*
Y182000D02*
D03*
Y167000D02*
D03*
Y152000D02*
D03*
Y137000D02*
D03*
Y122000D02*
D03*
Y77000D02*
D03*
Y62000D02*
D03*
Y47000D02*
D03*
Y32000D02*
D03*
X305000Y212000D02*
D03*
Y197000D02*
D03*
Y182000D02*
D03*
Y167000D02*
D03*
Y152000D02*
D03*
Y137000D02*
D03*
Y122000D02*
D03*
Y77000D02*
D03*
Y62000D02*
D03*
Y47000D02*
D03*
Y32000D02*
D03*
X290000Y212000D02*
D03*
Y197000D02*
D03*
Y182000D02*
D03*
Y167000D02*
D03*
Y152000D02*
D03*
Y137000D02*
D03*
Y122000D02*
D03*
Y77000D02*
D03*
Y62000D02*
D03*
X275000Y212000D02*
D03*
Y197000D02*
D03*
Y182000D02*
D03*
Y167000D02*
D03*
Y152000D02*
D03*
Y137000D02*
D03*
Y122000D02*
D03*
Y77000D02*
D03*
Y62000D02*
D03*
Y47000D02*
D03*
Y32000D02*
D03*
X260000Y212000D02*
D03*
Y197000D02*
D03*
Y182000D02*
D03*
Y137000D02*
D03*
Y77000D02*
D03*
X245000Y197000D02*
D03*
Y182000D02*
D03*
Y137000D02*
D03*
Y62000D02*
D03*
X230000D02*
D03*
Y32000D02*
D03*
X200000Y77000D02*
D03*
Y47000D02*
D03*
Y32000D02*
D03*
X185000Y107000D02*
D03*
Y92000D02*
D03*
Y77000D02*
D03*
X170000Y107000D02*
D03*
Y92000D02*
D03*
Y77000D02*
D03*
Y62000D02*
D03*
Y32000D02*
D03*
X155000Y197000D02*
D03*
Y152000D02*
D03*
Y122000D02*
D03*
Y107000D02*
D03*
Y92000D02*
D03*
Y77000D02*
D03*
X140000Y212000D02*
D03*
Y197000D02*
D03*
Y152000D02*
D03*
Y137000D02*
D03*
Y107000D02*
D03*
Y92000D02*
D03*
Y77000D02*
D03*
Y62000D02*
D03*
X125000Y212000D02*
D03*
Y197000D02*
D03*
Y152000D02*
D03*
Y137000D02*
D03*
Y122000D02*
D03*
Y92000D02*
D03*
Y77000D02*
D03*
Y62000D02*
D03*
Y47000D02*
D03*
Y32000D02*
D03*
X110000Y212000D02*
D03*
Y197000D02*
D03*
Y152000D02*
D03*
Y137000D02*
D03*
Y122000D02*
D03*
Y77000D02*
D03*
Y62000D02*
D03*
X95000Y212000D02*
D03*
Y197000D02*
D03*
Y152000D02*
D03*
Y137000D02*
D03*
Y122000D02*
D03*
Y77000D02*
D03*
Y62000D02*
D03*
Y47000D02*
D03*
Y32000D02*
D03*
X80000Y212000D02*
D03*
Y197000D02*
D03*
Y182000D02*
D03*
Y152000D02*
D03*
Y137000D02*
D03*
Y122000D02*
D03*
Y107000D02*
D03*
Y92000D02*
D03*
Y77000D02*
D03*
Y62000D02*
D03*
Y47000D02*
D03*
Y32000D02*
D03*
X65000Y212000D02*
D03*
Y197000D02*
D03*
Y182000D02*
D03*
Y167000D02*
D03*
Y152000D02*
D03*
Y137000D02*
D03*
Y122000D02*
D03*
Y77000D02*
D03*
Y62000D02*
D03*
Y47000D02*
D03*
Y32000D02*
D03*
X50000Y212000D02*
D03*
Y197000D02*
D03*
Y182000D02*
D03*
Y167000D02*
D03*
Y152000D02*
D03*
Y137000D02*
D03*
Y122000D02*
D03*
Y107000D02*
D03*
Y92000D02*
D03*
Y77000D02*
D03*
Y62000D02*
D03*
Y47000D02*
D03*
Y32000D02*
D03*
X35000Y212000D02*
D03*
Y197000D02*
D03*
Y182000D02*
D03*
Y167000D02*
D03*
Y152000D02*
D03*
Y137000D02*
D03*
Y122000D02*
D03*
Y107000D02*
D03*
Y92000D02*
D03*
Y77000D02*
D03*
Y62000D02*
D03*
Y47000D02*
D03*
X20000Y212000D02*
D03*
Y197000D02*
D03*
Y182000D02*
D03*
Y167000D02*
D03*
Y152000D02*
D03*
Y137000D02*
D03*
Y122000D02*
D03*
Y107000D02*
D03*
Y92000D02*
D03*
Y77000D02*
D03*
Y62000D02*
D03*
Y47000D02*
D03*
X267500Y67500D02*
D03*
X388750Y90000D02*
D03*
X275473Y94930D02*
D03*
X385000Y111250D02*
D03*
X7518Y211998D02*
D03*
Y196998D02*
D03*
Y181998D02*
D03*
Y166998D02*
D03*
Y151998D02*
D03*
Y136998D02*
D03*
Y121998D02*
D03*
X7500Y92000D02*
D03*
X7518Y76998D02*
D03*
Y61998D02*
D03*
Y46998D02*
D03*
X7500Y107000D02*
D03*
X200000Y20500D02*
D03*
X215000D02*
D03*
X185000D02*
D03*
X170000Y18000D02*
D03*
X155000D02*
D03*
X140000D02*
D03*
X275000D02*
D03*
X260000D02*
D03*
X245000D02*
D03*
X230000D02*
D03*
X197500Y112500D02*
D03*
X201250Y105000D02*
D03*
X191500Y120000D02*
D03*
X155264Y180967D02*
D03*
X150000Y190000D02*
D03*
X221250Y60250D02*
D03*
X192250Y140871D02*
D03*
X238250Y188250D02*
D03*
Y200500D02*
D03*
Y212500D02*
D03*
X232000Y206500D02*
D03*
Y194500D02*
D03*
X168000Y206500D02*
D03*
Y194500D02*
D03*
X161750Y200500D02*
D03*
Y212500D02*
D03*
X204250Y148000D02*
D03*
X161000Y126500D02*
D03*
X232000Y120250D02*
D03*
X100000Y190000D02*
D03*
X360750Y110250D02*
D03*
X392500Y109500D02*
D03*
Y47000D02*
D03*
Y77000D02*
D03*
Y122000D02*
D03*
Y137000D02*
D03*
Y152000D02*
D03*
Y167000D02*
D03*
Y182000D02*
D03*
Y197000D02*
D03*
Y212000D02*
D03*
X189250Y183500D02*
D03*
X210500D02*
D03*
X204250Y167000D02*
D03*
X195750Y175500D02*
D03*
X198000Y183500D02*
D03*
X50000Y7750D02*
D03*
X65000D02*
D03*
X80000D02*
D03*
X95000D02*
D03*
X110000D02*
D03*
X125000D02*
D03*
X140000D02*
D03*
X155000D02*
D03*
X170000D02*
D03*
X230000D02*
D03*
X245000D02*
D03*
X260000D02*
D03*
X275000D02*
D03*
X290000D02*
D03*
X305500D02*
D03*
X320000D02*
D03*
X335000D02*
D03*
X350000D02*
D03*
Y18000D02*
D03*
X335000D02*
D03*
X320000D02*
D03*
X305000D02*
D03*
X290000D02*
D03*
X125000D02*
D03*
X110000D02*
D03*
X95250D02*
D03*
X79500D02*
D03*
X64750D02*
D03*
X50000D02*
D03*
X359000Y90000D02*
D03*
M02*
