G04*
G04 #@! TF.GenerationSoftware,Altium Limited,Altium Designer,21.6.4 (81)*
G04*
G04 Layer_Physical_Order=2*
G04 Layer_Color=36540*
%FSLAX44Y44*%
%MOMM*%
G71*
G04*
G04 #@! TF.SameCoordinates,74441D79-BE30-4494-89CB-7DD98D1B6E6E*
G04*
G04*
G04 #@! TF.FilePolarity,Positive*
G04*
G01*
G75*
%ADD39C,0.9000*%
%ADD41C,1.6500*%
%ADD42R,1.6500X1.6500*%
%ADD43C,0.6000*%
%ADD44C,2.1590*%
G36*
X395922Y4078D02*
X4078Y4078D01*
X4078Y215500D01*
X176400D01*
Y186500D01*
X227900D01*
Y215500D01*
X395922D01*
X395922Y4078D01*
D02*
G37*
%LPC*%
G36*
X150000Y194354D02*
X148334Y194022D01*
X146922Y193078D01*
X145978Y191666D01*
X145646Y190000D01*
X145978Y188334D01*
X146922Y186922D01*
X148334Y185978D01*
X150000Y185646D01*
X151666Y185978D01*
X153078Y186922D01*
X154022Y188334D01*
X154354Y190000D01*
X154022Y191666D01*
X153078Y193078D01*
X151666Y194022D01*
X150000Y194354D01*
D02*
G37*
G36*
X100000D02*
X98334Y194022D01*
X96922Y193078D01*
X95978Y191666D01*
X95646Y190000D01*
X95978Y188334D01*
X96922Y186922D01*
X98334Y185978D01*
X100000Y185646D01*
X101666Y185978D01*
X103078Y186922D01*
X104022Y188334D01*
X104354Y190000D01*
X104022Y191666D01*
X103078Y193078D01*
X101666Y194022D01*
X100000Y194354D01*
D02*
G37*
G36*
X134500Y190604D02*
X132834Y190272D01*
X131421Y189328D01*
X130478Y187916D01*
X130146Y186250D01*
X130478Y184584D01*
X131421Y183172D01*
X132834Y182228D01*
X134500Y181896D01*
X136166Y182228D01*
X137578Y183172D01*
X138522Y184584D01*
X138854Y186250D01*
X138522Y187916D01*
X137578Y189328D01*
X136166Y190272D01*
X134500Y190604D01*
D02*
G37*
G36*
X155264Y185320D02*
X153598Y184989D01*
X152185Y184045D01*
X151241Y182633D01*
X150910Y180967D01*
X151241Y179301D01*
X152185Y177888D01*
X153598Y176945D01*
X155264Y176613D01*
X156930Y176945D01*
X158342Y177888D01*
X159286Y179301D01*
X159617Y180967D01*
X159286Y182633D01*
X158342Y184045D01*
X156930Y184989D01*
X155264Y185320D01*
D02*
G37*
G36*
X145000Y179354D02*
X143334Y179022D01*
X141922Y178078D01*
X140978Y176666D01*
X140646Y175000D01*
X140978Y173334D01*
X141922Y171922D01*
X143334Y170978D01*
X145000Y170646D01*
X146666Y170978D01*
X148078Y171922D01*
X149022Y173334D01*
X149354Y175000D01*
X149022Y176666D01*
X148078Y178078D01*
X146666Y179022D01*
X145000Y179354D01*
D02*
G37*
G36*
X73750Y172854D02*
X72084Y172522D01*
X70672Y171579D01*
X69728Y170166D01*
X69396Y168500D01*
X69728Y166834D01*
X70672Y165422D01*
X72084Y164478D01*
X73750Y164146D01*
X75416Y164478D01*
X76828Y165422D01*
X77772Y166834D01*
X78104Y168500D01*
X77772Y170166D01*
X76828Y171579D01*
X75416Y172522D01*
X73750Y172854D01*
D02*
G37*
G36*
X156450Y167634D02*
X154784Y167302D01*
X153371Y166359D01*
X152427Y164946D01*
X152096Y163280D01*
X152427Y161614D01*
X153371Y160201D01*
X154784Y159258D01*
X156450Y158926D01*
X158116Y159258D01*
X159528Y160201D01*
X160472Y161614D01*
X160803Y163280D01*
X160472Y164946D01*
X159528Y166359D01*
X158116Y167302D01*
X156450Y167634D01*
D02*
G37*
G36*
X134500Y162604D02*
X132834Y162272D01*
X131421Y161329D01*
X130478Y159916D01*
X130146Y158250D01*
X130478Y156584D01*
X131421Y155171D01*
X132834Y154228D01*
X134500Y153896D01*
X136166Y154228D01*
X137578Y155171D01*
X138522Y156584D01*
X138854Y158250D01*
X138522Y159916D01*
X137578Y161329D01*
X136166Y162272D01*
X134500Y162604D01*
D02*
G37*
G36*
X192250Y145225D02*
X190584Y144893D01*
X189172Y143949D01*
X188228Y142537D01*
X187896Y140871D01*
X188228Y139205D01*
X189172Y137793D01*
X190584Y136849D01*
X192250Y136517D01*
X193916Y136849D01*
X195329Y137793D01*
X196272Y139205D01*
X196604Y140871D01*
X196272Y142537D01*
X195329Y143949D01*
X193916Y144893D01*
X192250Y145225D01*
D02*
G37*
G36*
X191500Y124354D02*
X189834Y124022D01*
X188421Y123078D01*
X187478Y121666D01*
X187170Y120118D01*
X187099Y119964D01*
X186020Y119151D01*
X185000Y119354D01*
X183334Y119022D01*
X181922Y118078D01*
X180978Y116666D01*
X180646Y115000D01*
X180978Y113334D01*
X181922Y111922D01*
X183334Y110978D01*
X185000Y110646D01*
X186666Y110978D01*
X188078Y111922D01*
X189022Y113334D01*
X189330Y114882D01*
X189401Y115036D01*
X190480Y115849D01*
X191500Y115646D01*
X193160Y115977D01*
X193181Y115962D01*
X194072Y115056D01*
X193478Y114166D01*
X193146Y112500D01*
X193478Y110834D01*
X194422Y109422D01*
X195834Y108478D01*
X196784Y108289D01*
X197405Y106931D01*
X197228Y106666D01*
X196896Y105000D01*
X197228Y103334D01*
X198172Y101922D01*
X199584Y100978D01*
X201250Y100646D01*
X202916Y100978D01*
X204328Y101922D01*
X205272Y103334D01*
X205604Y105000D01*
X205272Y106666D01*
X204328Y108078D01*
X202916Y109022D01*
X201966Y109211D01*
X201345Y110569D01*
X201522Y110834D01*
X201854Y112500D01*
X201522Y114166D01*
X200578Y115578D01*
X199166Y116522D01*
X197500Y116854D01*
X195840Y116523D01*
X195819Y116538D01*
X194928Y117444D01*
X195522Y118334D01*
X195854Y120000D01*
X195522Y121666D01*
X194578Y123078D01*
X193166Y124022D01*
X191500Y124354D01*
D02*
G37*
G36*
X374900Y121717D02*
X372463Y121233D01*
X370398Y119852D01*
X369017Y117787D01*
X368533Y115350D01*
X369017Y112913D01*
X370398Y110848D01*
X372463Y109467D01*
X374900Y108983D01*
X377337Y109467D01*
X379402Y110848D01*
X379425Y110881D01*
X380773Y110613D01*
X380978Y109584D01*
X381922Y108172D01*
X383334Y107228D01*
X385000Y106896D01*
X386666Y107228D01*
X388078Y108172D01*
X389022Y109584D01*
X389354Y111250D01*
X389022Y112916D01*
X388078Y114328D01*
X386666Y115272D01*
X385000Y115604D01*
X383334Y115272D01*
X382426Y114666D01*
X381267Y115350D01*
X380783Y117787D01*
X379402Y119852D01*
X377337Y121233D01*
X374900Y121717D01*
D02*
G37*
G36*
X360750Y114604D02*
X359084Y114272D01*
X357672Y113329D01*
X356728Y111916D01*
X356396Y110250D01*
X356728Y108584D01*
X357672Y107171D01*
X359084Y106228D01*
X360750Y105896D01*
X362416Y106228D01*
X363829Y107171D01*
X364772Y108584D01*
X365104Y110250D01*
X364772Y111916D01*
X363829Y113329D01*
X362416Y114272D01*
X360750Y114604D01*
D02*
G37*
G36*
X275473Y99284D02*
X273807Y98952D01*
X272394Y98008D01*
X271451Y96596D01*
X271119Y94930D01*
X271451Y93264D01*
X272394Y91852D01*
X273807Y90908D01*
X275473Y90576D01*
X277139Y90908D01*
X278551Y91852D01*
X279495Y93264D01*
X279827Y94930D01*
X279495Y96596D01*
X278551Y98008D01*
X277139Y98952D01*
X275473Y99284D01*
D02*
G37*
G36*
X388750Y94354D02*
X387084Y94022D01*
X385672Y93078D01*
X384728Y91666D01*
X384396Y90000D01*
X384728Y88334D01*
X385672Y86922D01*
X387084Y85978D01*
X388750Y85646D01*
X390416Y85978D01*
X391828Y86922D01*
X392772Y88334D01*
X393104Y90000D01*
X392772Y91666D01*
X391828Y93078D01*
X390416Y94022D01*
X388750Y94354D01*
D02*
G37*
G36*
X359000D02*
X357334Y94022D01*
X355922Y93078D01*
X354978Y91666D01*
X354646Y90000D01*
X354978Y88334D01*
X355922Y86922D01*
X357334Y85978D01*
X359000Y85646D01*
X360666Y85978D01*
X362079Y86922D01*
X363022Y88334D01*
X363354Y90000D01*
X363022Y91666D01*
X362079Y93078D01*
X360666Y94022D01*
X359000Y94354D01*
D02*
G37*
G36*
X267500Y71854D02*
X265834Y71522D01*
X264422Y70578D01*
X263478Y69166D01*
X263146Y67500D01*
X263478Y65834D01*
X264422Y64422D01*
X265834Y63478D01*
X267500Y63146D01*
X269166Y63478D01*
X270578Y64422D01*
X271522Y65834D01*
X271854Y67500D01*
X271522Y69166D01*
X270578Y70578D01*
X269166Y71522D01*
X267500Y71854D01*
D02*
G37*
G36*
X385060Y70917D02*
X382623Y70433D01*
X380558Y69052D01*
X379177Y66987D01*
X378693Y64550D01*
X379177Y62113D01*
X380558Y60048D01*
X382623Y58667D01*
X385060Y58183D01*
X387497Y58667D01*
X389562Y60048D01*
X390943Y62113D01*
X391427Y64550D01*
X390943Y66987D01*
X389562Y69052D01*
X387497Y70433D01*
X385060Y70917D01*
D02*
G37*
G36*
X364740D02*
X362303Y70433D01*
X360238Y69052D01*
X358857Y66987D01*
X358373Y64550D01*
X358857Y62113D01*
X360238Y60048D01*
X362303Y58667D01*
X364740Y58183D01*
X367177Y58667D01*
X369242Y60048D01*
X370623Y62113D01*
X371107Y64550D01*
X370623Y66987D01*
X369242Y69052D01*
X367177Y70433D01*
X364740Y70917D01*
D02*
G37*
G36*
X221250Y64604D02*
X219584Y64272D01*
X218172Y63328D01*
X217228Y61916D01*
X216896Y60250D01*
X217228Y58584D01*
X218172Y57172D01*
X219584Y56228D01*
X221250Y55896D01*
X222916Y56228D01*
X224328Y57172D01*
X225272Y58584D01*
X225604Y60250D01*
X225272Y61916D01*
X224328Y63328D01*
X222916Y64272D01*
X221250Y64604D01*
D02*
G37*
G36*
X111862Y51202D02*
Y42462D01*
X120602D01*
X120375Y44185D01*
X119416Y46501D01*
X117890Y48490D01*
X115901Y50016D01*
X113585Y50975D01*
X111862Y51202D01*
D02*
G37*
G36*
X110338D02*
X108615Y50975D01*
X106299Y50016D01*
X104310Y48490D01*
X102784Y46501D01*
X101825Y44185D01*
X101598Y42462D01*
X110338D01*
Y51202D01*
D02*
G37*
G36*
X120602Y40938D02*
X111862D01*
Y32198D01*
X113585Y32425D01*
X115901Y33384D01*
X117890Y34910D01*
X119416Y36899D01*
X120375Y39215D01*
X120602Y40938D01*
D02*
G37*
G36*
X110338D02*
X101598D01*
X101825Y39215D01*
X102784Y36899D01*
X104310Y34910D01*
X106299Y33384D01*
X108615Y32425D01*
X110338Y32198D01*
Y40938D01*
D02*
G37*
G36*
X298420Y51220D02*
X279380D01*
Y32180D01*
X298420D01*
Y51220D01*
D02*
G37*
G36*
X263500Y51302D02*
X261015Y50975D01*
X258699Y50016D01*
X256710Y48490D01*
X255184Y46501D01*
X254225Y44185D01*
X253898Y41700D01*
X254225Y39215D01*
X255184Y36899D01*
X256710Y34910D01*
X258699Y33384D01*
X261015Y32425D01*
X263500Y32098D01*
X265985Y32425D01*
X268301Y33384D01*
X270290Y34910D01*
X271816Y36899D01*
X272775Y39215D01*
X273102Y41700D01*
X272775Y44185D01*
X271816Y46501D01*
X270290Y48490D01*
X268301Y50016D01*
X265985Y50975D01*
X263500Y51302D01*
D02*
G37*
G36*
X238100D02*
X235615Y50975D01*
X233299Y50016D01*
X231310Y48490D01*
X229784Y46501D01*
X228825Y44185D01*
X228498Y41700D01*
X228825Y39215D01*
X229784Y36899D01*
X231310Y34910D01*
X233299Y33384D01*
X235615Y32425D01*
X238100Y32098D01*
X240585Y32425D01*
X242901Y33384D01*
X244890Y34910D01*
X246416Y36899D01*
X247375Y39215D01*
X247702Y41700D01*
X247375Y44185D01*
X246416Y46501D01*
X244890Y48490D01*
X242901Y50016D01*
X240585Y50975D01*
X238100Y51302D01*
D02*
G37*
G36*
X212700D02*
X210215Y50975D01*
X207899Y50016D01*
X205910Y48490D01*
X204384Y46501D01*
X203425Y44185D01*
X203098Y41700D01*
X203425Y39215D01*
X204384Y36899D01*
X205910Y34910D01*
X207899Y33384D01*
X210215Y32425D01*
X212700Y32098D01*
X215185Y32425D01*
X217501Y33384D01*
X219490Y34910D01*
X221016Y36899D01*
X221975Y39215D01*
X222302Y41700D01*
X221975Y44185D01*
X221016Y46501D01*
X219490Y48490D01*
X217501Y50016D01*
X215185Y50975D01*
X212700Y51302D01*
D02*
G37*
G36*
X187300D02*
X184815Y50975D01*
X182499Y50016D01*
X180510Y48490D01*
X178984Y46501D01*
X178025Y44185D01*
X177698Y41700D01*
X178025Y39215D01*
X178984Y36899D01*
X180510Y34910D01*
X182499Y33384D01*
X184815Y32425D01*
X187300Y32098D01*
X189785Y32425D01*
X192101Y33384D01*
X194090Y34910D01*
X195616Y36899D01*
X196575Y39215D01*
X196902Y41700D01*
X196575Y44185D01*
X195616Y46501D01*
X194090Y48490D01*
X192101Y50016D01*
X189785Y50975D01*
X187300Y51302D01*
D02*
G37*
G36*
X161900D02*
X159415Y50975D01*
X157099Y50016D01*
X155110Y48490D01*
X153584Y46501D01*
X152625Y44185D01*
X152298Y41700D01*
X152625Y39215D01*
X153584Y36899D01*
X155110Y34910D01*
X157099Y33384D01*
X159415Y32425D01*
X161900Y32098D01*
X164385Y32425D01*
X166701Y33384D01*
X168690Y34910D01*
X170216Y36899D01*
X171175Y39215D01*
X171502Y41700D01*
X171175Y44185D01*
X170216Y46501D01*
X168690Y48490D01*
X166701Y50016D01*
X164385Y50975D01*
X161900Y51302D01*
D02*
G37*
G36*
X136500D02*
X134015Y50975D01*
X131699Y50016D01*
X129710Y48490D01*
X128184Y46501D01*
X127225Y44185D01*
X126898Y41700D01*
X127225Y39215D01*
X128184Y36899D01*
X129710Y34910D01*
X131699Y33384D01*
X134015Y32425D01*
X136500Y32098D01*
X138985Y32425D01*
X141301Y33384D01*
X143290Y34910D01*
X144816Y36899D01*
X145775Y39215D01*
X146102Y41700D01*
X145775Y44185D01*
X144816Y46501D01*
X143290Y48490D01*
X141301Y50016D01*
X138985Y50975D01*
X136500Y51302D01*
D02*
G37*
G36*
X375762Y37069D02*
Y25762D01*
X387069D01*
X386754Y28150D01*
X385539Y31085D01*
X383605Y33605D01*
X381085Y35539D01*
X378150Y36755D01*
X375762Y37069D01*
D02*
G37*
G36*
X374238D02*
X371850Y36755D01*
X368915Y35539D01*
X366395Y33605D01*
X364461Y31085D01*
X363246Y28150D01*
X362931Y25762D01*
X374238D01*
Y37069D01*
D02*
G37*
G36*
X25762D02*
Y25762D01*
X37069D01*
X36755Y28150D01*
X35539Y31085D01*
X33605Y33605D01*
X31084Y35539D01*
X28150Y36755D01*
X25762Y37069D01*
D02*
G37*
G36*
X24238D02*
X21850Y36755D01*
X18915Y35539D01*
X16395Y33605D01*
X14461Y31085D01*
X13246Y28150D01*
X12931Y25762D01*
X24238D01*
Y37069D01*
D02*
G37*
G36*
X387069Y24238D02*
X375762D01*
Y12931D01*
X378150Y13246D01*
X381085Y14461D01*
X383605Y16395D01*
X385539Y18915D01*
X386754Y21850D01*
X387069Y24238D01*
D02*
G37*
G36*
X374238D02*
X362931D01*
X363246Y21850D01*
X364461Y18915D01*
X366395Y16395D01*
X368915Y14461D01*
X371850Y13246D01*
X374238Y12931D01*
Y24238D01*
D02*
G37*
G36*
X37069D02*
X25762D01*
Y12931D01*
X28150Y13246D01*
X31084Y14461D01*
X33605Y16395D01*
X35539Y18915D01*
X36755Y21850D01*
X37069Y24238D01*
D02*
G37*
G36*
X24238D02*
X12931D01*
X13246Y21850D01*
X14461Y18915D01*
X16395Y16395D01*
X18915Y14461D01*
X21850Y13246D01*
X24238Y12931D01*
Y24238D01*
D02*
G37*
%LPD*%
D39*
X374900Y115350D02*
D03*
X385060Y64550D02*
D03*
X364740D02*
D03*
D41*
X111100Y41700D02*
D03*
X136500D02*
D03*
X238100D02*
D03*
X263500D02*
D03*
X212700D02*
D03*
X187300D02*
D03*
X161900D02*
D03*
D42*
X288900D02*
D03*
D43*
X185000Y115000D02*
D03*
X215000Y102250D02*
D03*
X134500Y186250D02*
D03*
Y158250D02*
D03*
X156450Y163280D02*
D03*
X73750Y168500D02*
D03*
X145000Y175000D02*
D03*
X245000Y77000D02*
D03*
X230000D02*
D03*
X380000Y212000D02*
D03*
Y197000D02*
D03*
Y182000D02*
D03*
Y167000D02*
D03*
Y152000D02*
D03*
Y137000D02*
D03*
Y47000D02*
D03*
X365000Y212000D02*
D03*
Y197000D02*
D03*
Y182000D02*
D03*
Y167000D02*
D03*
Y152000D02*
D03*
Y137000D02*
D03*
Y122000D02*
D03*
Y47000D02*
D03*
X350000Y212000D02*
D03*
Y197000D02*
D03*
Y182000D02*
D03*
Y167000D02*
D03*
Y152000D02*
D03*
Y137000D02*
D03*
Y122000D02*
D03*
Y77000D02*
D03*
Y62000D02*
D03*
Y47000D02*
D03*
Y32000D02*
D03*
X335000Y212000D02*
D03*
Y197000D02*
D03*
Y182000D02*
D03*
Y167000D02*
D03*
Y152000D02*
D03*
Y137000D02*
D03*
Y122000D02*
D03*
Y77000D02*
D03*
Y62000D02*
D03*
Y47000D02*
D03*
Y32000D02*
D03*
X320000Y212000D02*
D03*
Y197000D02*
D03*
Y182000D02*
D03*
Y167000D02*
D03*
Y152000D02*
D03*
Y137000D02*
D03*
Y122000D02*
D03*
Y77000D02*
D03*
Y62000D02*
D03*
Y47000D02*
D03*
Y32000D02*
D03*
X305000Y212000D02*
D03*
Y197000D02*
D03*
Y182000D02*
D03*
Y167000D02*
D03*
Y152000D02*
D03*
Y137000D02*
D03*
Y122000D02*
D03*
Y77000D02*
D03*
Y62000D02*
D03*
Y47000D02*
D03*
Y32000D02*
D03*
X290000Y212000D02*
D03*
Y197000D02*
D03*
Y182000D02*
D03*
Y167000D02*
D03*
Y152000D02*
D03*
Y137000D02*
D03*
Y122000D02*
D03*
Y77000D02*
D03*
Y62000D02*
D03*
X275000Y212000D02*
D03*
Y197000D02*
D03*
Y182000D02*
D03*
Y167000D02*
D03*
Y152000D02*
D03*
Y137000D02*
D03*
Y122000D02*
D03*
Y77000D02*
D03*
Y62000D02*
D03*
Y47000D02*
D03*
Y32000D02*
D03*
X260000Y212000D02*
D03*
Y197000D02*
D03*
Y182000D02*
D03*
Y137000D02*
D03*
Y77000D02*
D03*
X245000Y197000D02*
D03*
Y182000D02*
D03*
Y137000D02*
D03*
Y62000D02*
D03*
X230000D02*
D03*
Y32000D02*
D03*
X200000Y77000D02*
D03*
Y47000D02*
D03*
Y32000D02*
D03*
X185000Y107000D02*
D03*
Y92000D02*
D03*
Y77000D02*
D03*
X170000Y107000D02*
D03*
Y92000D02*
D03*
Y77000D02*
D03*
Y62000D02*
D03*
Y32000D02*
D03*
X155000Y197000D02*
D03*
Y152000D02*
D03*
Y122000D02*
D03*
Y107000D02*
D03*
Y92000D02*
D03*
Y77000D02*
D03*
X140000Y212000D02*
D03*
Y197000D02*
D03*
Y152000D02*
D03*
Y137000D02*
D03*
Y107000D02*
D03*
Y92000D02*
D03*
Y77000D02*
D03*
Y62000D02*
D03*
X125000Y212000D02*
D03*
Y197000D02*
D03*
Y152000D02*
D03*
Y137000D02*
D03*
Y122000D02*
D03*
Y92000D02*
D03*
Y77000D02*
D03*
Y62000D02*
D03*
Y47000D02*
D03*
Y32000D02*
D03*
X110000Y212000D02*
D03*
Y197000D02*
D03*
Y152000D02*
D03*
Y137000D02*
D03*
Y122000D02*
D03*
Y77000D02*
D03*
Y62000D02*
D03*
X95000Y212000D02*
D03*
Y197000D02*
D03*
Y152000D02*
D03*
Y137000D02*
D03*
Y122000D02*
D03*
Y77000D02*
D03*
Y62000D02*
D03*
Y47000D02*
D03*
Y32000D02*
D03*
X80000Y212000D02*
D03*
Y197000D02*
D03*
Y182000D02*
D03*
Y152000D02*
D03*
Y137000D02*
D03*
Y122000D02*
D03*
Y107000D02*
D03*
Y92000D02*
D03*
Y77000D02*
D03*
Y62000D02*
D03*
Y47000D02*
D03*
Y32000D02*
D03*
X65000Y212000D02*
D03*
Y197000D02*
D03*
Y182000D02*
D03*
Y167000D02*
D03*
Y152000D02*
D03*
Y137000D02*
D03*
Y122000D02*
D03*
Y77000D02*
D03*
Y62000D02*
D03*
Y47000D02*
D03*
Y32000D02*
D03*
X50000Y212000D02*
D03*
Y197000D02*
D03*
Y182000D02*
D03*
Y167000D02*
D03*
Y152000D02*
D03*
Y137000D02*
D03*
Y122000D02*
D03*
Y107000D02*
D03*
Y92000D02*
D03*
Y77000D02*
D03*
Y62000D02*
D03*
Y47000D02*
D03*
Y32000D02*
D03*
X35000Y212000D02*
D03*
Y197000D02*
D03*
Y182000D02*
D03*
Y167000D02*
D03*
Y152000D02*
D03*
Y137000D02*
D03*
Y122000D02*
D03*
Y107000D02*
D03*
Y92000D02*
D03*
Y77000D02*
D03*
Y62000D02*
D03*
Y47000D02*
D03*
X20000Y212000D02*
D03*
Y197000D02*
D03*
Y182000D02*
D03*
Y167000D02*
D03*
Y152000D02*
D03*
Y137000D02*
D03*
Y122000D02*
D03*
Y107000D02*
D03*
Y92000D02*
D03*
Y77000D02*
D03*
Y62000D02*
D03*
Y47000D02*
D03*
X267500Y67500D02*
D03*
X388750Y90000D02*
D03*
X275473Y94930D02*
D03*
X385000Y111250D02*
D03*
X7518Y211998D02*
D03*
Y196998D02*
D03*
Y181998D02*
D03*
Y166998D02*
D03*
Y151998D02*
D03*
Y136998D02*
D03*
Y121998D02*
D03*
X7500Y92000D02*
D03*
X7518Y76998D02*
D03*
Y61998D02*
D03*
Y46998D02*
D03*
X7500Y107000D02*
D03*
X200000Y20500D02*
D03*
X215000D02*
D03*
X185000D02*
D03*
X170000Y18000D02*
D03*
X155000D02*
D03*
X140000D02*
D03*
X275000D02*
D03*
X260000D02*
D03*
X245000D02*
D03*
X230000D02*
D03*
X197500Y112500D02*
D03*
X201250Y105000D02*
D03*
X191500Y120000D02*
D03*
X155264Y180967D02*
D03*
X150000Y190000D02*
D03*
X221250Y60250D02*
D03*
X192250Y140871D02*
D03*
X238250Y188250D02*
D03*
Y200500D02*
D03*
Y212500D02*
D03*
X232000Y206500D02*
D03*
Y194500D02*
D03*
X168000Y206500D02*
D03*
Y194500D02*
D03*
X161750Y200500D02*
D03*
Y212500D02*
D03*
X204250Y148000D02*
D03*
X161000Y126500D02*
D03*
X232000Y120250D02*
D03*
X100000Y190000D02*
D03*
X360750Y110250D02*
D03*
X392500Y109500D02*
D03*
Y47000D02*
D03*
Y77000D02*
D03*
Y122000D02*
D03*
Y137000D02*
D03*
Y152000D02*
D03*
Y167000D02*
D03*
Y182000D02*
D03*
Y197000D02*
D03*
Y212000D02*
D03*
X189250Y183500D02*
D03*
X210500D02*
D03*
X204250Y167000D02*
D03*
X195750Y175500D02*
D03*
X198000Y183500D02*
D03*
X50000Y7750D02*
D03*
X65000D02*
D03*
X80000D02*
D03*
X95000D02*
D03*
X110000D02*
D03*
X125000D02*
D03*
X140000D02*
D03*
X155000D02*
D03*
X170000D02*
D03*
X230000D02*
D03*
X245000D02*
D03*
X260000D02*
D03*
X275000D02*
D03*
X290000D02*
D03*
X305500D02*
D03*
X320000D02*
D03*
X335000D02*
D03*
X350000D02*
D03*
Y18000D02*
D03*
X335000D02*
D03*
X320000D02*
D03*
X305000D02*
D03*
X290000D02*
D03*
X125000D02*
D03*
X110000D02*
D03*
X95250D02*
D03*
X79500D02*
D03*
X64750D02*
D03*
X50000D02*
D03*
X359000Y90000D02*
D03*
D44*
X375000Y25000D02*
D03*
X25000D02*
D03*
M02*
