M48
;Layer_Color=9474304
;FILE_FORMAT=4:4
METRIC,LZ
;TYPE=PLATED
T1F00S00C0.3000
T2F00S00C1.1000
T3F00S00C1.8000
;TYPE=NON_PLATED
T4F00S00C0.9950
%
T01
X00008Y00047
Y00062
Y00077
Y00092
Y00107
Y00122
X00018796Y00146558
X00008Y00167
Y00182
Y00197
Y00212
X00023
X00038
X00053
X00068
X00083
X00098
X00113
X00128
X00143
Y00197
Y00182
X00143Y0017
X00128
X00128Y00182
Y00197
X00113
Y00182
X00113Y00169
X00098
X00098Y00182
Y00197
X00083
Y00182
X00083Y00169
X00068Y00167
Y00182
Y00197
X00053
Y00182
Y00167
Y00152
X00048Y00136
X000477Y001236
X00068Y00122
X00083
X00098
X00113
X0011176Y00112268
X00128Y00107
Y00122
Y00137
X00143
X00113
X00098
X00083
Y00092
X00098
Y00077
X00113
Y00062
X00128
Y00092
X00171Y00088
X00183Y00114
Y00138
Y00163
X00192Y00165
X00207
X00217Y00164
X00218Y00137
X00216Y00115
X00229Y00088
X00254Y00097
Y00107
X00271Y00109
X00274Y00127
X00288
X00292911Y00144
X0031Y00147
X00308Y00167
X00323
X00338
Y00182
X00353
X00368
X00383
X00392Y00182
Y00167
Y00152
X00383Y00152
Y00137
X00392Y00137
Y00122
X00383Y00122
Y00107
X00392Y00107
Y00092
X00383Y00092
Y00077
X00392Y00077
Y00062
X00383Y00062
Y00047
X00392Y00047
X00368Y00047
Y00062
Y00077
Y00092
Y00107
Y00122
X00353
Y00107
Y00092
Y00077
Y00062
Y00047
Y00032
X00353Y0002
Y00008
X00338Y00032
Y00047
Y00062
Y00077
Y00092
Y00107
Y00122
X00323
X00308
Y00092
X00323
Y00062
Y00047
Y00032
X00308
X00308Y0002
Y00008
X00293
Y0002
X00278
Y00008
X00263
X00248
X00233
X00218
X00203
X00188
X00173
X00158
X00143
X00128
X00113
X00098
Y0002
X00083
Y00008
X00068
Y0002
Y00032
X00083
X00098Y00047
Y00062
X00068
Y00077
X00053
Y00092
X00068Y00107
Y00047
X00053
Y00062
X00038
Y00077
X00023
Y00062
Y00047
X00038
X00053Y00032
Y0002
Y00008
X00128Y00032
X00248
X00278Y00062
X00293
X00308
Y00047
X00293Y00077
Y00092
X00278
X0027Y00087
X00278Y00077
X00254Y00127
X00263652Y00153924
X00278Y00167
X00293
Y00182
X00308
X00323
Y00197
X00338
X00353
X00368
X00383
X00392
Y00212
X00383
X00368
X00353
X00338
X00323
X00308
Y00197
X00293
Y00212
X00278
Y00197
Y00182
X00263Y00197
Y00212
X00248Y00197
X00376Y00165
X00038Y00167
Y00182
Y00197
X00023
Y00182
Y00167
T02
X001111Y000417
X001365
X001619
X001873
X002127
X002381
X002635
X002889
T03
X00025Y00025
X00375
T04
X0002084Y000982
X0004116
X00031Y00149
M30
