G04*
G04 #@! TF.GenerationSoftware,Altium Limited,Altium Designer,21.6.4 (81)*
G04*
G04 Layer_Color=128*
%FSLAX44Y44*%
%MOMM*%
G71*
G04*
G04 #@! TF.SameCoordinates,1B3A0675-FE53-4D0F-B245-581B64E9A93D*
G04*
G04*
G04 #@! TF.FilePolarity,Positive*
G04*
G01*
G75*
%ADD53C,0.0508*%
D53*
X15865Y98200D02*
X25815D01*
X20840Y93225D02*
Y103175D01*
X36185Y98200D02*
X46135D01*
X41160Y93225D02*
Y103175D01*
X26025Y149000D02*
X35975D01*
X31000Y144025D02*
Y153975D01*
X105600Y41700D02*
X116600D01*
X111100Y36200D02*
Y47200D01*
X131000Y41700D02*
X142000D01*
X136500Y36200D02*
Y47200D01*
X232600Y41700D02*
X243600D01*
X238100Y36200D02*
Y47200D01*
X283400Y41700D02*
X294400D01*
X288900Y36200D02*
Y47200D01*
X258000Y41700D02*
X269000D01*
X263500Y36200D02*
Y47200D01*
X207200Y41700D02*
X218200D01*
X212700Y36200D02*
Y47200D01*
X181800Y41700D02*
X192800D01*
X187300Y36200D02*
Y47200D01*
X156400Y41700D02*
X167400D01*
X161900Y36200D02*
Y47200D01*
X16000Y25000D02*
X34000D01*
X25000Y16000D02*
Y34000D01*
X366000Y25000D02*
X384000D01*
X375000Y16000D02*
Y34000D01*
X251500Y212000D02*
X254500D01*
X253000Y210500D02*
Y213500D01*
X310500Y92000D02*
X313500D01*
X312000Y90500D02*
Y93500D01*
X289500Y73000D02*
X292500D01*
X291000Y71500D02*
Y74500D01*
X285500Y92000D02*
X288500D01*
X287000Y90500D02*
Y93500D01*
X285500Y107000D02*
X288500D01*
X287000Y105500D02*
Y108500D01*
X285500Y122000D02*
X288500D01*
X287000Y120500D02*
Y123500D01*
X264500Y102000D02*
X267500D01*
X266000Y100500D02*
Y103500D01*
X169500Y88000D02*
X172500D01*
X171000Y86500D02*
Y89500D01*
X227500Y88000D02*
X230500D01*
X229000Y86500D02*
Y89500D01*
X215500Y115000D02*
X218500D01*
X217000Y113500D02*
Y116500D01*
X181500Y115000D02*
X184500D01*
X183000Y113500D02*
Y116500D01*
X181500Y137000D02*
X184500D01*
X183000Y135500D02*
Y138500D01*
X208500Y166000D02*
X211500D01*
X210000Y164500D02*
Y167500D01*
X188500Y166000D02*
X191500D01*
X190000Y164500D02*
Y167500D01*
X154500Y199000D02*
X157500D01*
X156000Y197500D02*
Y200500D01*
X141500Y169000D02*
X144500D01*
X143000Y167500D02*
Y170500D01*
X126500Y169000D02*
X129500D01*
X128000Y167500D02*
Y170500D01*
X111500Y169000D02*
X114500D01*
X113000Y167500D02*
Y170500D01*
X96500Y169000D02*
X99500D01*
X98000Y167500D02*
Y170500D01*
X81500Y169000D02*
X84500D01*
X83000Y167500D02*
Y170500D01*
X351500Y20000D02*
X354500D01*
X353000Y18500D02*
Y21500D01*
X351500Y8000D02*
X354500D01*
X353000Y6500D02*
Y9500D01*
X306124Y20222D02*
X309123D01*
X307624Y18722D02*
Y21722D01*
X291124Y20222D02*
X294123D01*
X292624Y18722D02*
Y21722D01*
X276124Y20222D02*
X279123D01*
X277624Y18722D02*
Y21722D01*
X96124Y20222D02*
X99123D01*
X97624Y18722D02*
Y21722D01*
X81124Y20222D02*
X84123D01*
X82624Y18722D02*
Y21722D01*
X66123Y20222D02*
X69124D01*
X67624Y18722D02*
Y21722D01*
X51123Y20222D02*
X54124D01*
X52624Y18722D02*
Y21722D01*
X306500Y8000D02*
X309500D01*
X308000Y6500D02*
Y9500D01*
X291500Y8000D02*
X294500D01*
X293000Y6500D02*
Y9500D01*
X276500Y8000D02*
X279500D01*
X278000Y6500D02*
Y9500D01*
X261500Y8000D02*
X264500D01*
X263000Y6500D02*
Y9500D01*
X246500Y8000D02*
X249500D01*
X248000Y6500D02*
Y9500D01*
X231500Y8000D02*
X234500D01*
X233000Y6500D02*
Y9500D01*
X216500Y8000D02*
X219500D01*
X218000Y6500D02*
Y9500D01*
X201500Y8000D02*
X204500D01*
X203000Y6500D02*
Y9500D01*
X186500Y8000D02*
X189500D01*
X188000Y6500D02*
Y9500D01*
X171500Y8000D02*
X174500D01*
X173000Y6500D02*
Y9500D01*
X156500Y8000D02*
X159500D01*
X158000Y6500D02*
Y9500D01*
X141500Y8000D02*
X144500D01*
X143000Y6500D02*
Y9500D01*
X126500Y8000D02*
X129500D01*
X128000Y6500D02*
Y9500D01*
X111500Y8000D02*
X114500D01*
X113000Y6500D02*
Y9500D01*
X96500Y8000D02*
X99500D01*
X98000Y6500D02*
Y9500D01*
X81500Y8000D02*
X84500D01*
X83000Y6500D02*
Y9500D01*
X66500Y8000D02*
X69500D01*
X68000Y6500D02*
Y9500D01*
X51500Y8000D02*
X54500D01*
X53000Y6500D02*
Y9500D01*
X381500Y212000D02*
X384500D01*
X383000Y210500D02*
Y213500D01*
X381500Y197000D02*
X384500D01*
X383000Y195500D02*
Y198500D01*
X381500Y182000D02*
X384500D01*
X383000Y180500D02*
Y183500D01*
X381500Y167000D02*
X384500D01*
X383000Y165500D02*
Y168500D01*
X381500Y152000D02*
X384500D01*
X383000Y150500D02*
Y153500D01*
X381500Y137000D02*
X384500D01*
X383000Y135500D02*
Y138500D01*
X381500Y122000D02*
X384500D01*
X383000Y120500D02*
Y123500D01*
X381500Y107000D02*
X384500D01*
X383000Y105500D02*
Y108500D01*
X381500Y92000D02*
X384500D01*
X383000Y90500D02*
Y93500D01*
X381500Y77000D02*
X384500D01*
X383000Y75500D02*
Y78500D01*
X381500Y62000D02*
X384500D01*
X383000Y60500D02*
Y63500D01*
X381500Y47000D02*
X384500D01*
X383000Y45500D02*
Y48500D01*
X366500Y212000D02*
X369500D01*
X368000Y210500D02*
Y213500D01*
X366500Y197000D02*
X369500D01*
X368000Y195500D02*
Y198500D01*
X366500Y182000D02*
X369500D01*
X368000Y180500D02*
Y183500D01*
X366500Y122000D02*
X369500D01*
X368000Y120500D02*
Y123500D01*
X366500Y92000D02*
X369500D01*
X368000Y90500D02*
Y93500D01*
X366500Y62000D02*
X369500D01*
X368000Y60500D02*
Y63500D01*
X366500Y47000D02*
X369500D01*
X368000Y45500D02*
Y48500D01*
X351500Y212000D02*
X354500D01*
X353000Y210500D02*
Y213500D01*
X351500Y197000D02*
X354500D01*
X353000Y195500D02*
Y198500D01*
X351500Y182000D02*
X354500D01*
X353000Y180500D02*
Y183500D01*
X351500Y122000D02*
X354500D01*
X353000Y120500D02*
Y123500D01*
X351500Y92000D02*
X354500D01*
X353000Y90500D02*
Y93500D01*
X351500Y62000D02*
X354500D01*
X353000Y60500D02*
Y63500D01*
X351500Y47000D02*
X354500D01*
X353000Y45500D02*
Y48500D01*
X351500Y32000D02*
X354500D01*
X353000Y30500D02*
Y33500D01*
X336500Y212000D02*
X339500D01*
X338000Y210500D02*
Y213500D01*
X336500Y197000D02*
X339500D01*
X338000Y195500D02*
Y198500D01*
X336500Y182000D02*
X339500D01*
X338000Y180500D02*
Y183500D01*
X336500Y122000D02*
X339500D01*
X338000Y120500D02*
Y123500D01*
X336500Y92000D02*
X339500D01*
X338000Y90500D02*
Y93500D01*
X336500Y77000D02*
X339500D01*
X338000Y75500D02*
Y78500D01*
X336500Y62000D02*
X339500D01*
X338000Y60500D02*
Y63500D01*
X336500Y47000D02*
X339500D01*
X338000Y45500D02*
Y48500D01*
X336500Y32000D02*
X339500D01*
X338000Y30500D02*
Y33500D01*
X321500Y212000D02*
X324500D01*
X323000Y210500D02*
Y213500D01*
X321500Y197000D02*
X324500D01*
X323000Y195500D02*
Y198500D01*
X321500Y182000D02*
X324500D01*
X323000Y180500D02*
Y183500D01*
X321500Y122000D02*
X324500D01*
X323000Y120500D02*
Y123500D01*
X321500Y92000D02*
X324500D01*
X323000Y90500D02*
Y93500D01*
X321500Y77000D02*
X324500D01*
X323000Y75500D02*
Y78500D01*
X321500Y62000D02*
X324500D01*
X323000Y60500D02*
Y63500D01*
X321500Y47000D02*
X324500D01*
X323000Y45500D02*
Y48500D01*
X321500Y32000D02*
X324500D01*
X323000Y30500D02*
Y33500D01*
X306500Y212000D02*
X309500D01*
X308000Y210500D02*
Y213500D01*
X306500Y197000D02*
X309500D01*
X308000Y195500D02*
Y198500D01*
X306500Y182000D02*
X309500D01*
X308000Y180500D02*
Y183500D01*
X306500Y167000D02*
X309500D01*
X308000Y165500D02*
Y168500D01*
X306500Y47000D02*
X309500D01*
X308000Y45500D02*
Y48500D01*
X306500Y32000D02*
X309500D01*
X308000Y30500D02*
Y33500D01*
X291500Y212000D02*
X294500D01*
X293000Y210500D02*
Y213500D01*
X291500Y197000D02*
X294500D01*
X293000Y195500D02*
Y198500D01*
X291500Y182000D02*
X294500D01*
X293000Y180500D02*
Y183500D01*
X291500Y167000D02*
X294500D01*
X293000Y165500D02*
Y168500D01*
X276500Y212000D02*
X279500D01*
X278000Y210500D02*
Y213500D01*
X276500Y197000D02*
X279500D01*
X278000Y195500D02*
Y198500D01*
X276500Y182000D02*
X279500D01*
X278000Y180500D02*
Y183500D01*
X276500Y167000D02*
X279500D01*
X278000Y165500D02*
Y168500D01*
X261500Y212000D02*
X264500D01*
X263000Y210500D02*
Y213500D01*
X261500Y197000D02*
X264500D01*
X263000Y195500D02*
Y198500D01*
X246500Y197000D02*
X249500D01*
X248000Y195500D02*
Y198500D01*
X246500Y32000D02*
X249500D01*
X248000Y30500D02*
Y33500D01*
X216500Y137000D02*
X219500D01*
X218000Y135500D02*
Y138500D01*
X141500Y212000D02*
X144500D01*
X143000Y210500D02*
Y213500D01*
X141500Y197000D02*
X144500D01*
X143000Y195500D02*
Y198500D01*
X141500Y182000D02*
X144500D01*
X143000Y180500D02*
Y183500D01*
X141500Y137000D02*
X144500D01*
X143000Y135500D02*
Y138500D01*
X126500Y212000D02*
X129500D01*
X128000Y210500D02*
Y213500D01*
X126500Y197000D02*
X129500D01*
X128000Y195500D02*
Y198500D01*
X126500Y182000D02*
X129500D01*
X128000Y180500D02*
Y183500D01*
X126500Y137000D02*
X129500D01*
X128000Y135500D02*
Y138500D01*
X126500Y122000D02*
X129500D01*
X128000Y120500D02*
Y123500D01*
X126500Y107000D02*
X129500D01*
X128000Y105500D02*
Y108500D01*
X126500Y77000D02*
X129500D01*
X128000Y75500D02*
Y78500D01*
X126500Y62000D02*
X129500D01*
X128000Y60500D02*
Y63500D01*
X126500Y32000D02*
X129500D01*
X128000Y30500D02*
Y33500D01*
X111500Y212000D02*
X114500D01*
X113000Y210500D02*
Y213500D01*
X111500Y197000D02*
X114500D01*
X113000Y195500D02*
Y198500D01*
X111500Y182000D02*
X114500D01*
X113000Y180500D02*
Y183500D01*
X111500Y137000D02*
X114500D01*
X113000Y135500D02*
Y138500D01*
X111500Y122000D02*
X114500D01*
X113000Y120500D02*
Y123500D01*
X111500Y92000D02*
X114500D01*
X113000Y90500D02*
Y93500D01*
X111500Y77000D02*
X114500D01*
X113000Y75500D02*
Y78500D01*
X111500Y62000D02*
X114500D01*
X113000Y60500D02*
Y63500D01*
X96500Y212000D02*
X99500D01*
X98000Y210500D02*
Y213500D01*
X96500Y197000D02*
X99500D01*
X98000Y195500D02*
Y198500D01*
X96500Y182000D02*
X99500D01*
X98000Y180500D02*
Y183500D01*
X96500Y137000D02*
X99500D01*
X98000Y135500D02*
Y138500D01*
X96500Y122000D02*
X99500D01*
X98000Y120500D02*
Y123500D01*
X96500Y92000D02*
X99500D01*
X98000Y90500D02*
Y93500D01*
X96500Y77000D02*
X99500D01*
X98000Y75500D02*
Y78500D01*
X96500Y62000D02*
X99500D01*
X98000Y60500D02*
Y63500D01*
X96500Y47000D02*
X99500D01*
X98000Y45500D02*
Y48500D01*
X81500Y212000D02*
X84500D01*
X83000Y210500D02*
Y213500D01*
X81500Y197000D02*
X84500D01*
X83000Y195500D02*
Y198500D01*
X81500Y182000D02*
X84500D01*
X83000Y180500D02*
Y183500D01*
X81500Y137000D02*
X84500D01*
X83000Y135500D02*
Y138500D01*
X81500Y122000D02*
X84500D01*
X83000Y120500D02*
Y123500D01*
X81500Y92000D02*
X84500D01*
X83000Y90500D02*
Y93500D01*
X81500Y32000D02*
X84500D01*
X83000Y30500D02*
Y33500D01*
X66500Y212000D02*
X69500D01*
X68000Y210500D02*
Y213500D01*
X66500Y197000D02*
X69500D01*
X68000Y195500D02*
Y198500D01*
X66500Y182000D02*
X69500D01*
X68000Y180500D02*
Y183500D01*
X66500Y167000D02*
X69500D01*
X68000Y165500D02*
Y168500D01*
X66500Y122000D02*
X69500D01*
X68000Y120500D02*
Y123500D01*
X66500Y107000D02*
X69500D01*
X68000Y105500D02*
Y108500D01*
X66500Y77000D02*
X69500D01*
X68000Y75500D02*
Y78500D01*
X66500Y62000D02*
X69500D01*
X68000Y60500D02*
Y63500D01*
X66500Y47000D02*
X69500D01*
X68000Y45500D02*
Y48500D01*
X66500Y32000D02*
X69500D01*
X68000Y30500D02*
Y33500D01*
X51500Y212000D02*
X54500D01*
X53000Y210500D02*
Y213500D01*
X51500Y197000D02*
X54500D01*
X53000Y195500D02*
Y198500D01*
X51500Y182000D02*
X54500D01*
X53000Y180500D02*
Y183500D01*
X51500Y167000D02*
X54500D01*
X53000Y165500D02*
Y168500D01*
X51500Y152000D02*
X54500D01*
X53000Y150500D02*
Y153500D01*
X51500Y92000D02*
X54500D01*
X53000Y90500D02*
Y93500D01*
X51500Y77000D02*
X54500D01*
X53000Y75500D02*
Y78500D01*
X51500Y62000D02*
X54500D01*
X53000Y60500D02*
Y63500D01*
X51500Y47000D02*
X54500D01*
X53000Y45500D02*
Y48500D01*
X51500Y32000D02*
X54500D01*
X53000Y30500D02*
Y33500D01*
X36500Y212000D02*
X39500D01*
X38000Y210500D02*
Y213500D01*
X36500Y197000D02*
X39500D01*
X38000Y195500D02*
Y198500D01*
X36500Y182000D02*
X39500D01*
X38000Y180500D02*
Y183500D01*
X36500Y167000D02*
X39500D01*
X38000Y165500D02*
Y168500D01*
X36500Y77000D02*
X39500D01*
X38000Y75500D02*
Y78500D01*
X36500Y62000D02*
X39500D01*
X38000Y60500D02*
Y63500D01*
X36500Y47000D02*
X39500D01*
X38000Y45500D02*
Y48500D01*
X21500Y212000D02*
X24500D01*
X23000Y210500D02*
Y213500D01*
X21500Y197000D02*
X24500D01*
X23000Y195500D02*
Y198500D01*
X21500Y182000D02*
X24500D01*
X23000Y180500D02*
Y183500D01*
X21500Y167000D02*
X24500D01*
X23000Y165500D02*
Y168500D01*
X21500Y77000D02*
X24500D01*
X23000Y75500D02*
Y78500D01*
X21500Y62000D02*
X24500D01*
X23000Y60500D02*
Y63500D01*
X21500Y47000D02*
X24500D01*
X23000Y45500D02*
Y48500D01*
X6500Y212000D02*
X9500D01*
X8000Y210500D02*
Y213500D01*
X6500Y197000D02*
X9500D01*
X8000Y195500D02*
Y198500D01*
X6500Y182000D02*
X9500D01*
X8000Y180500D02*
Y183500D01*
X6500Y167000D02*
X9500D01*
X8000Y165500D02*
Y168500D01*
X6500Y122000D02*
X9500D01*
X8000Y120500D02*
Y123500D01*
X6500Y107000D02*
X9500D01*
X8000Y105500D02*
Y108500D01*
X6500Y92000D02*
X9500D01*
X8000Y90500D02*
Y93500D01*
X6500Y77000D02*
X9500D01*
X8000Y75500D02*
Y78500D01*
X6500Y62000D02*
X9500D01*
X8000Y60500D02*
Y63500D01*
X6500Y47000D02*
X9500D01*
X8000Y45500D02*
Y48500D01*
X308500Y150000D02*
X311500D01*
X310000Y148500D02*
Y151500D01*
X252443Y127057D02*
X255443D01*
X253943Y125557D02*
Y128557D01*
X296500Y154000D02*
X299500D01*
X298000Y152500D02*
Y155500D01*
X147500Y80000D02*
X150500D01*
X149000Y78500D02*
Y81500D01*
X319500Y159000D02*
X322500D01*
X321000Y157500D02*
Y160500D01*
X304500Y66000D02*
X307500D01*
X306000Y64500D02*
Y67500D01*
X154500Y67000D02*
X157500D01*
X156000Y65500D02*
Y68500D01*
X215500Y164000D02*
X218500D01*
X217000Y162500D02*
Y165500D01*
X181500Y163000D02*
X184500D01*
X183000Y161500D02*
Y164500D01*
X46500Y136000D02*
X49500D01*
X48000Y134500D02*
Y137500D01*
X110260Y112268D02*
X113260D01*
X111760Y110768D02*
Y113768D01*
X17296Y146558D02*
X20296D01*
X18796Y145058D02*
Y148058D01*
X46200Y123600D02*
X49200D01*
X47700Y122100D02*
Y125100D01*
M02*
