G04*
G04 #@! TF.GenerationSoftware,Altium Limited,Altium Designer,21.6.4 (81)*
G04*
G04 Layer_Color=16711935*
%FSLAX44Y44*%
%MOMM*%
G71*
G04*
G04 #@! TF.SameCoordinates,1B3A0675-FE53-4D0F-B245-581B64E9A93D*
G04*
G04*
G04 #@! TF.FilePolarity,Positive*
G04*
G01*
G75*
%ADD52C,0.0500*%
%ADD54C,0.1000*%
D52*
X33890Y25000D02*
G03*
X33890Y25000I-8890J0D01*
G01*
X383890D02*
G03*
X383890Y25000I-8890J0D01*
G01*
X375499Y102498D02*
X375500Y85500D01*
X375499Y102498D02*
X375500Y102500D01*
Y114000D01*
Y74000D02*
Y85500D01*
X350500Y114000D02*
X375500D01*
X350500Y74000D02*
X375500D01*
X350500D02*
Y114000D01*
X316500Y147000D02*
X327500D01*
X316500Y153000D02*
X327500D01*
Y147000D02*
Y153000D01*
X316500Y147000D02*
Y153000D01*
X339000Y102999D02*
Y110999D01*
X345000Y102999D02*
Y110999D01*
X339000Y102999D02*
X345000D01*
X339000Y110999D02*
X345000D01*
X278000Y85500D02*
Y118500D01*
X262000Y85500D02*
Y118500D01*
X278000D01*
X262000Y85500D02*
X278000D01*
X357500Y144500D02*
Y165500D01*
X336500D02*
X357500D01*
X336500Y144500D02*
Y165500D01*
Y144500D02*
X357500D01*
X101000Y111999D02*
X107000D01*
X101000Y103999D02*
X107000D01*
Y111999D01*
X101000Y103999D02*
Y111999D01*
X377500Y148000D02*
Y154000D01*
X366500Y148000D02*
Y154000D01*
Y148000D02*
X377500D01*
X366500Y154000D02*
X377500D01*
X377500Y158000D02*
Y164000D01*
X366500Y158000D02*
Y164000D01*
Y158000D02*
X377500D01*
X366500Y164000D02*
X377500D01*
X70500Y75000D02*
Y115000D01*
Y75000D02*
X95500D01*
X70500Y115000D02*
X95500D01*
Y75000D02*
Y86500D01*
Y103500D02*
Y115000D01*
X95499Y103498D02*
X95500Y103500D01*
X95499Y103498D02*
X95500Y86500D01*
D54*
X250000Y69000D02*
Y219000D01*
X150000D02*
X250000D01*
X150000Y69000D02*
Y219000D01*
Y69000D02*
X250000D01*
X98400Y1300D02*
Y26700D01*
Y1300D02*
X301600D01*
Y26700D01*
X98400D02*
X301600D01*
X269666Y174186D02*
Y180186D01*
X258666Y174186D02*
Y180186D01*
Y174186D02*
X269666D01*
X258666Y180186D02*
X269666D01*
X269750Y127250D02*
X280250D01*
X269750Y132750D02*
X280250D01*
Y127250D02*
Y132750D01*
X269750Y127250D02*
Y132750D01*
Y71250D02*
Y76750D01*
X280250Y71250D02*
Y76750D01*
X269750D02*
X280250D01*
X269750Y71250D02*
X280250D01*
X258766Y162186D02*
X269766D01*
X258766Y168186D02*
X269766D01*
Y162186D02*
Y168186D01*
X258766Y162186D02*
Y168186D01*
M02*
