G04*
G04 #@! TF.GenerationSoftware,Altium Limited,Altium Designer,21.6.4 (81)*
G04*
G04 Layer_Color=32768*
%FSLAX44Y44*%
%MOMM*%
G71*
G04*
G04 #@! TF.SameCoordinates,1B3A0675-FE53-4D0F-B245-581B64E9A93D*
G04*
G04*
G04 #@! TF.FilePolarity,Positive*
G04*
G01*
G75*
%ADD52C,0.0500*%
%ADD54C,0.1000*%
D52*
X200000Y139000D02*
Y149000D01*
X148000Y221000D02*
X252000D01*
Y67000D02*
Y221000D01*
X195000Y144000D02*
X205000D01*
X148000Y67000D02*
X252000D01*
X148000D02*
Y221000D01*
X94900Y-60700D02*
Y51950D01*
Y-60700D02*
X305100D01*
Y51950D01*
X94900D02*
X305100D01*
X200000Y9000D02*
Y19000D01*
X195000Y14000D02*
X205000D01*
X363000Y89000D02*
Y99000D01*
X358000Y94000D02*
X368000D01*
X377000Y71000D02*
Y117000D01*
X349250Y71000D02*
X377000D01*
X349250D02*
Y117000D01*
X377000D01*
X322000Y147000D02*
Y153000D01*
X319000Y150000D02*
X325000D01*
X314000Y146000D02*
X330000D01*
X314000Y154000D02*
X330000D01*
Y146000D02*
Y154000D01*
X314000Y146000D02*
Y154000D01*
X338750Y107000D02*
X344750D01*
X342000Y103750D02*
Y110000D01*
X338000Y100000D02*
Y114500D01*
X346000Y100000D02*
Y114500D01*
X338000Y100000D02*
X346000D01*
X338000Y114500D02*
X346000D01*
X275166Y171186D02*
Y183186D01*
X253166Y171186D02*
Y183186D01*
Y171186D02*
X275166D01*
X253166Y183186D02*
X275166D01*
X264000Y124000D02*
X286000D01*
X264000Y136000D02*
X286000D01*
Y124000D02*
Y136000D01*
X264000Y124000D02*
Y136000D01*
X265000Y102000D02*
X275000D01*
X270000Y97000D02*
Y107000D01*
X279250Y82000D02*
Y122000D01*
X260500Y82000D02*
Y122000D01*
X279250D01*
X260500Y82000D02*
X279250D01*
X362000Y143000D02*
Y167000D01*
X332000D02*
X362000D01*
X332000Y143000D02*
Y167000D01*
Y143000D02*
X362000D01*
X347000Y150000D02*
Y160000D01*
X342000Y155000D02*
X352000D01*
X264000Y68000D02*
Y80000D01*
X286000Y68000D02*
Y80000D01*
X264000D02*
X286000D01*
X264000Y68000D02*
X286000D01*
X253266Y159186D02*
X275266D01*
X253266Y171186D02*
X275266D01*
Y159186D02*
Y171186D01*
X253266Y159186D02*
Y171186D01*
X100000Y115500D02*
X108000D01*
X100000Y101000D02*
X108000D01*
Y115500D01*
X100000Y101000D02*
Y115500D01*
X104000Y104750D02*
Y111000D01*
X100750Y108000D02*
X106750D01*
X380000Y147000D02*
Y155000D01*
X364000Y147000D02*
Y155000D01*
Y147000D02*
X380000D01*
X364000Y155000D02*
X380000D01*
X369000Y151000D02*
X375000D01*
X372000Y148000D02*
Y154000D01*
X380000Y157000D02*
Y165000D01*
X364000Y157000D02*
Y165000D01*
Y157000D02*
X380000D01*
X364000Y165000D02*
X380000D01*
X369000Y161000D02*
X375000D01*
X372000Y158000D02*
Y164000D01*
X69250Y118000D02*
X97000D01*
X69250Y72000D02*
Y118000D01*
Y72000D02*
X97000D01*
Y118000D01*
X78000Y95000D02*
X88000D01*
X83000Y90000D02*
Y100000D01*
D54*
X261166Y177186D02*
X267166D01*
X264166Y174186D02*
Y180186D01*
X275000Y127250D02*
Y132750D01*
X272250Y130000D02*
X277750D01*
X272250Y74000D02*
X277750D01*
X275000Y71250D02*
Y76750D01*
X264266Y162186D02*
Y168186D01*
X261266Y165186D02*
X267266D01*
X189003Y145000D02*
X197334D01*
X199000Y146666D01*
Y149998D01*
X197334Y151664D01*
X189003D01*
X199000Y154997D02*
Y158329D01*
Y156663D01*
X189003D01*
X190669Y154997D01*
M02*
