G04*
G04 #@! TF.GenerationSoftware,Altium Limited,Altium Designer,21.6.4 (81)*
G04*
G04 Layer_Color=32768*
%FSLAX44Y44*%
%MOMM*%
G71*
G04*
G04 #@! TF.SameCoordinates,1B3A0675-FE53-4D0F-B245-581B64E9A93D*
G04*
G04*
G04 #@! TF.FilePolarity,Positive*
G04*
G01*
G75*
%ADD52C,0.0500*%
%ADD53C,0.0508*%
D52*
X9760Y21190D02*
Y31187D01*
X13092Y27854D01*
X16424Y31187D01*
Y21190D01*
X19757Y31187D02*
Y21190D01*
Y26188D01*
X26421D01*
Y31187D01*
Y21190D01*
X29754D02*
X33086D01*
X31420D01*
Y31187D01*
X29754Y29521D01*
X368496Y107003D02*
X370995Y109502D01*
Y114501D01*
X368496Y117000D01*
X365997D01*
X363498Y114501D01*
Y109502D01*
X360998Y107003D01*
X358499D01*
X356000Y109502D01*
Y114501D01*
X358499Y117000D01*
X370995Y102005D02*
X356000D01*
X360998Y97006D01*
X356000Y92008D01*
X370995D01*
X356000Y87010D02*
Y82011D01*
Y84510D01*
X370995D01*
X368496Y87010D01*
X316500Y147750D02*
Y152748D01*
X318999D01*
X319832Y151915D01*
Y150249D01*
X318999Y149416D01*
X316500D01*
X318166D02*
X319832Y147750D01*
X321498D02*
X323164D01*
X322331D01*
Y152748D01*
X321498Y151915D01*
X265503Y88750D02*
X273500Y94082D01*
X265503D02*
X273500Y88750D01*
Y96747D02*
Y99413D01*
Y98080D01*
X265503D01*
X266835Y96747D01*
X357000Y151003D02*
Y159000D01*
X353001D01*
X351668Y157667D01*
Y152336D01*
X353001Y151003D01*
X357000D01*
X349003Y152336D02*
X347670Y151003D01*
X345004D01*
X343671Y152336D01*
Y153668D01*
X345004Y155001D01*
X346337D01*
X345004D01*
X343671Y156334D01*
Y157667D01*
X345004Y159000D01*
X347670D01*
X349003Y157667D01*
X359760Y21190D02*
Y31187D01*
X363092Y27854D01*
X366424Y31187D01*
Y21190D01*
X369757Y31187D02*
Y21190D01*
Y26188D01*
X376421D01*
Y31187D01*
Y21190D01*
X386418D02*
X379754D01*
X386418Y27854D01*
Y29521D01*
X384752Y31187D01*
X381420D01*
X379754Y29521D01*
X377500Y153250D02*
Y148252D01*
X375001D01*
X374168Y149085D01*
Y150751D01*
X375001Y151584D01*
X377500D01*
X375834D02*
X374168Y153250D01*
X369169D02*
X372502D01*
X369169Y149918D01*
Y149085D01*
X370003Y148252D01*
X371669D01*
X372502Y149085D01*
X377500Y163250D02*
Y158252D01*
X375001D01*
X374168Y159085D01*
Y160751D01*
X375001Y161584D01*
X377500D01*
X375834D02*
X374168Y163250D01*
X372502Y159085D02*
X371669Y158252D01*
X370002D01*
X369169Y159085D01*
Y159918D01*
X370002Y160751D01*
X370835D01*
X370002D01*
X369169Y161584D01*
Y162417D01*
X370002Y163250D01*
X371669D01*
X372502Y162417D01*
X88496Y108003D02*
X90995Y110502D01*
Y115501D01*
X88496Y118000D01*
X85997D01*
X83498Y115501D01*
Y110502D01*
X80998Y108003D01*
X78499D01*
X76000Y110502D01*
Y115501D01*
X78499Y118000D01*
X90995Y103005D02*
X76000D01*
X80998Y98006D01*
X76000Y93008D01*
X90995D01*
X76000Y78013D02*
Y88010D01*
X85997Y78013D01*
X88496D01*
X90995Y80512D01*
Y85511D01*
X88496Y88010D01*
D53*
X344498Y114000D02*
X340000D01*
Y111751D01*
X340750Y111001D01*
X343749D01*
X344498Y111751D01*
Y114000D01*
X340000Y109501D02*
Y108002D01*
Y108752D01*
X344498D01*
X343749Y109501D01*
X106498Y115000D02*
X102000D01*
Y112751D01*
X102750Y112001D01*
X105749D01*
X106498Y112751D01*
Y115000D01*
X102000Y107502D02*
Y110501D01*
X104999Y107502D01*
X105749D01*
X106498Y108252D01*
Y109752D01*
X105749Y110501D01*
M02*
