G04*
G04 #@! TF.GenerationSoftware,Altium Limited,Altium Designer,21.6.4 (81)*
G04*
G04 Layer_Physical_Order=2*
G04 Layer_Color=36540*
%FSLAX44Y44*%
%MOMM*%
G71*
G04*
G04 #@! TF.SameCoordinates,1B3A0675-FE53-4D0F-B245-581B64E9A93D*
G04*
G04*
G04 #@! TF.FilePolarity,Positive*
G04*
G01*
G75*
%ADD46C,0.9000*%
%ADD47C,1.6500*%
%ADD48R,1.6500X1.6500*%
%ADD50C,0.6000*%
%ADD51C,2.1590*%
G36*
X395922Y4078D02*
X4078Y4078D01*
Y215922D01*
X160000D01*
Y188000D01*
X240000D01*
Y215922D01*
X395922D01*
Y4078D01*
D02*
G37*
%LPC*%
G36*
X217000Y168354D02*
X215334Y168022D01*
X213922Y167078D01*
X212978Y165666D01*
X212646Y164000D01*
X212978Y162334D01*
X213922Y160921D01*
X215334Y159978D01*
X217000Y159646D01*
X218666Y159978D01*
X220079Y160921D01*
X221022Y162334D01*
X221354Y164000D01*
X221022Y165666D01*
X220079Y167078D01*
X218666Y168022D01*
X217000Y168354D01*
D02*
G37*
G36*
X183000Y167354D02*
X181334Y167022D01*
X179921Y166078D01*
X178978Y164666D01*
X178646Y163000D01*
X178978Y161334D01*
X179921Y159922D01*
X181334Y158978D01*
X183000Y158646D01*
X184666Y158978D01*
X186078Y159922D01*
X187022Y161334D01*
X187354Y163000D01*
X187022Y164666D01*
X186078Y166078D01*
X184666Y167022D01*
X183000Y167354D01*
D02*
G37*
G36*
X321000Y163354D02*
X319334Y163022D01*
X317922Y162078D01*
X316978Y160666D01*
X316646Y159000D01*
X316978Y157334D01*
X317922Y155921D01*
X319334Y154978D01*
X321000Y154646D01*
X322666Y154978D01*
X324078Y155921D01*
X325022Y157334D01*
X325354Y159000D01*
X325022Y160666D01*
X324078Y162078D01*
X322666Y163022D01*
X321000Y163354D01*
D02*
G37*
G36*
X298000Y158354D02*
X296334Y158022D01*
X294921Y157079D01*
X293978Y155666D01*
X293646Y154000D01*
X293978Y152334D01*
X294921Y150921D01*
X296334Y149978D01*
X298000Y149646D01*
X299666Y149978D01*
X301078Y150921D01*
X302022Y152334D01*
X302354Y154000D01*
X302022Y155666D01*
X301078Y157079D01*
X299666Y158022D01*
X298000Y158354D01*
D02*
G37*
G36*
X310000Y154354D02*
X308334Y154022D01*
X306922Y153078D01*
X305978Y151666D01*
X305646Y150000D01*
X305978Y148334D01*
X306922Y146922D01*
X308334Y145978D01*
X310000Y145646D01*
X311666Y145978D01*
X313078Y146922D01*
X314022Y148334D01*
X314354Y150000D01*
X314022Y151666D01*
X313078Y153078D01*
X311666Y154022D01*
X310000Y154354D01*
D02*
G37*
G36*
X31000Y155367D02*
X28563Y154883D01*
X26498Y153502D01*
X25117Y151437D01*
X24633Y149000D01*
X25117Y146563D01*
X26498Y144498D01*
X28563Y143117D01*
X31000Y142633D01*
X33437Y143117D01*
X35502Y144498D01*
X36883Y146563D01*
X37367Y149000D01*
X36883Y151437D01*
X35502Y153502D01*
X33437Y154883D01*
X31000Y155367D01*
D02*
G37*
G36*
X18796Y150912D02*
X17130Y150580D01*
X15718Y149636D01*
X14774Y148224D01*
X14442Y146558D01*
X14774Y144892D01*
X15718Y143479D01*
X17130Y142536D01*
X18796Y142204D01*
X20462Y142536D01*
X21874Y143479D01*
X22818Y144892D01*
X23150Y146558D01*
X22818Y148224D01*
X21874Y149636D01*
X20462Y150580D01*
X18796Y150912D01*
D02*
G37*
G36*
X48000Y140354D02*
X46334Y140022D01*
X44921Y139079D01*
X43978Y137666D01*
X43646Y136000D01*
X43978Y134334D01*
X44921Y132921D01*
X46334Y131978D01*
X48000Y131646D01*
X49666Y131978D01*
X51079Y132921D01*
X52022Y134334D01*
X52354Y136000D01*
X52022Y137666D01*
X51079Y139079D01*
X49666Y140022D01*
X48000Y140354D01*
D02*
G37*
G36*
X253943Y131410D02*
X252277Y131079D01*
X250865Y130135D01*
X249921Y128723D01*
X249590Y127057D01*
X249921Y125391D01*
X250865Y123978D01*
X252277Y123034D01*
X253943Y122703D01*
X255609Y123034D01*
X257022Y123978D01*
X257966Y125391D01*
X258297Y127057D01*
X257966Y128723D01*
X257022Y130135D01*
X255609Y131079D01*
X253943Y131410D01*
D02*
G37*
G36*
X47700Y127954D02*
X46034Y127622D01*
X44622Y126678D01*
X43678Y125266D01*
X43346Y123600D01*
X43678Y121934D01*
X44622Y120521D01*
X46034Y119578D01*
X47700Y119246D01*
X49366Y119578D01*
X50778Y120521D01*
X51722Y121934D01*
X52054Y123600D01*
X51722Y125266D01*
X50778Y126678D01*
X49366Y127622D01*
X47700Y127954D01*
D02*
G37*
G36*
X111760Y116622D02*
X110094Y116290D01*
X108681Y115346D01*
X107738Y113934D01*
X107406Y112268D01*
X107738Y110602D01*
X108681Y109190D01*
X110094Y108246D01*
X111760Y107914D01*
X113426Y108246D01*
X114838Y109190D01*
X115782Y110602D01*
X116114Y112268D01*
X115782Y113934D01*
X114838Y115346D01*
X113426Y116290D01*
X111760Y116622D01*
D02*
G37*
G36*
X41160Y104567D02*
X38723Y104083D01*
X36658Y102702D01*
X35277Y100637D01*
X34793Y98200D01*
X35277Y95763D01*
X36658Y93698D01*
X38723Y92317D01*
X41160Y91833D01*
X43597Y92317D01*
X45662Y93698D01*
X47043Y95763D01*
X47527Y98200D01*
X47043Y100637D01*
X45662Y102702D01*
X43597Y104083D01*
X41160Y104567D01*
D02*
G37*
G36*
X20840D02*
X18403Y104083D01*
X16338Y102702D01*
X14957Y100637D01*
X14473Y98200D01*
X14957Y95763D01*
X16338Y93698D01*
X18403Y92317D01*
X20840Y91833D01*
X23277Y92317D01*
X25342Y93698D01*
X26723Y95763D01*
X27207Y98200D01*
X26723Y100637D01*
X25342Y102702D01*
X23277Y104083D01*
X20840Y104567D01*
D02*
G37*
G36*
X149000Y84354D02*
X147334Y84022D01*
X145921Y83078D01*
X144978Y81666D01*
X144646Y80000D01*
X144978Y78334D01*
X145921Y76922D01*
X147334Y75978D01*
X149000Y75646D01*
X150666Y75978D01*
X152079Y76922D01*
X153022Y78334D01*
X153354Y80000D01*
X153022Y81666D01*
X152079Y83078D01*
X150666Y84022D01*
X149000Y84354D01*
D02*
G37*
G36*
X156000Y71354D02*
X154334Y71022D01*
X152921Y70079D01*
X151978Y68666D01*
X151646Y67000D01*
X151978Y65334D01*
X152921Y63921D01*
X154334Y62978D01*
X156000Y62646D01*
X157666Y62978D01*
X159079Y63921D01*
X160022Y65334D01*
X160354Y67000D01*
X160022Y68666D01*
X159079Y70079D01*
X157666Y71022D01*
X156000Y71354D01*
D02*
G37*
G36*
X306000Y70354D02*
X304334Y70022D01*
X302922Y69078D01*
X301978Y67666D01*
X301646Y66000D01*
X301978Y64334D01*
X302922Y62922D01*
X304334Y61978D01*
X306000Y61646D01*
X307666Y61978D01*
X309079Y62922D01*
X310022Y64334D01*
X310354Y66000D01*
X310022Y67666D01*
X309079Y69078D01*
X307666Y70022D01*
X306000Y70354D01*
D02*
G37*
G36*
X111862Y51202D02*
Y42462D01*
X120602D01*
X120375Y44185D01*
X119416Y46501D01*
X117890Y48490D01*
X115901Y50016D01*
X113585Y50975D01*
X111862Y51202D01*
D02*
G37*
G36*
X110338D02*
X108615Y50975D01*
X106299Y50016D01*
X104310Y48490D01*
X102784Y46501D01*
X101825Y44185D01*
X101598Y42462D01*
X110338D01*
Y51202D01*
D02*
G37*
G36*
X120602Y40938D02*
X111862D01*
Y32198D01*
X113585Y32425D01*
X115901Y33384D01*
X117890Y34910D01*
X119416Y36899D01*
X120375Y39215D01*
X120602Y40938D01*
D02*
G37*
G36*
X110338D02*
X101598D01*
X101825Y39215D01*
X102784Y36899D01*
X104310Y34910D01*
X106299Y33384D01*
X108615Y32425D01*
X110338Y32198D01*
Y40938D01*
D02*
G37*
G36*
X298420Y51220D02*
X279380D01*
Y32180D01*
X298420D01*
Y51220D01*
D02*
G37*
G36*
X263500Y51302D02*
X261015Y50975D01*
X258699Y50016D01*
X256710Y48490D01*
X255184Y46501D01*
X254225Y44185D01*
X253898Y41700D01*
X254225Y39215D01*
X255184Y36899D01*
X256710Y34910D01*
X258699Y33384D01*
X261015Y32425D01*
X263500Y32098D01*
X265985Y32425D01*
X268301Y33384D01*
X270290Y34910D01*
X271816Y36899D01*
X272775Y39215D01*
X273102Y41700D01*
X272775Y44185D01*
X271816Y46501D01*
X270290Y48490D01*
X268301Y50016D01*
X265985Y50975D01*
X263500Y51302D01*
D02*
G37*
G36*
X238100D02*
X235615Y50975D01*
X233299Y50016D01*
X231310Y48490D01*
X229784Y46501D01*
X228825Y44185D01*
X228498Y41700D01*
X228825Y39215D01*
X229784Y36899D01*
X231310Y34910D01*
X233299Y33384D01*
X235615Y32425D01*
X238100Y32098D01*
X240585Y32425D01*
X242901Y33384D01*
X244890Y34910D01*
X246416Y36899D01*
X247375Y39215D01*
X247702Y41700D01*
X247375Y44185D01*
X246416Y46501D01*
X244890Y48490D01*
X242901Y50016D01*
X240585Y50975D01*
X238100Y51302D01*
D02*
G37*
G36*
X212700D02*
X210215Y50975D01*
X207899Y50016D01*
X205910Y48490D01*
X204384Y46501D01*
X203425Y44185D01*
X203098Y41700D01*
X203425Y39215D01*
X204384Y36899D01*
X205910Y34910D01*
X207899Y33384D01*
X210215Y32425D01*
X212700Y32098D01*
X215185Y32425D01*
X217501Y33384D01*
X219490Y34910D01*
X221016Y36899D01*
X221975Y39215D01*
X222302Y41700D01*
X221975Y44185D01*
X221016Y46501D01*
X219490Y48490D01*
X217501Y50016D01*
X215185Y50975D01*
X212700Y51302D01*
D02*
G37*
G36*
X187300D02*
X184815Y50975D01*
X182499Y50016D01*
X180510Y48490D01*
X178984Y46501D01*
X178025Y44185D01*
X177698Y41700D01*
X178025Y39215D01*
X178984Y36899D01*
X180510Y34910D01*
X182499Y33384D01*
X184815Y32425D01*
X187300Y32098D01*
X189785Y32425D01*
X192101Y33384D01*
X194090Y34910D01*
X195616Y36899D01*
X196575Y39215D01*
X196902Y41700D01*
X196575Y44185D01*
X195616Y46501D01*
X194090Y48490D01*
X192101Y50016D01*
X189785Y50975D01*
X187300Y51302D01*
D02*
G37*
G36*
X161900D02*
X159415Y50975D01*
X157099Y50016D01*
X155110Y48490D01*
X153584Y46501D01*
X152625Y44185D01*
X152298Y41700D01*
X152625Y39215D01*
X153584Y36899D01*
X155110Y34910D01*
X157099Y33384D01*
X159415Y32425D01*
X161900Y32098D01*
X164385Y32425D01*
X166701Y33384D01*
X168690Y34910D01*
X170216Y36899D01*
X171175Y39215D01*
X171502Y41700D01*
X171175Y44185D01*
X170216Y46501D01*
X168690Y48490D01*
X166701Y50016D01*
X164385Y50975D01*
X161900Y51302D01*
D02*
G37*
G36*
X136500D02*
X134015Y50975D01*
X131699Y50016D01*
X129710Y48490D01*
X128184Y46501D01*
X127225Y44185D01*
X126898Y41700D01*
X127225Y39215D01*
X128184Y36899D01*
X129710Y34910D01*
X131699Y33384D01*
X134015Y32425D01*
X136500Y32098D01*
X138985Y32425D01*
X141301Y33384D01*
X143290Y34910D01*
X144816Y36899D01*
X145775Y39215D01*
X146102Y41700D01*
X145775Y44185D01*
X144816Y46501D01*
X143290Y48490D01*
X141301Y50016D01*
X138985Y50975D01*
X136500Y51302D01*
D02*
G37*
G36*
X375762Y37069D02*
Y25762D01*
X387069D01*
X386754Y28150D01*
X385539Y31085D01*
X383605Y33605D01*
X381085Y35539D01*
X378150Y36755D01*
X375762Y37069D01*
D02*
G37*
G36*
X374238D02*
X371850Y36755D01*
X368915Y35539D01*
X366395Y33605D01*
X364461Y31085D01*
X363246Y28150D01*
X362931Y25762D01*
X374238D01*
Y37069D01*
D02*
G37*
G36*
X25762D02*
Y25762D01*
X37069D01*
X36755Y28150D01*
X35539Y31085D01*
X33605Y33605D01*
X31084Y35539D01*
X28150Y36755D01*
X25762Y37069D01*
D02*
G37*
G36*
X24238D02*
X21850Y36755D01*
X18915Y35539D01*
X16395Y33605D01*
X14461Y31085D01*
X13246Y28150D01*
X12931Y25762D01*
X24238D01*
Y37069D01*
D02*
G37*
G36*
X387069Y24238D02*
X375762D01*
Y12931D01*
X378150Y13246D01*
X381085Y14461D01*
X383605Y16395D01*
X385539Y18915D01*
X386754Y21850D01*
X387069Y24238D01*
D02*
G37*
G36*
X374238D02*
X362931D01*
X363246Y21850D01*
X364461Y18915D01*
X366395Y16395D01*
X368915Y14461D01*
X371850Y13246D01*
X374238Y12931D01*
Y24238D01*
D02*
G37*
G36*
X37069D02*
X25762D01*
Y12931D01*
X28150Y13246D01*
X31084Y14461D01*
X33605Y16395D01*
X35539Y18915D01*
X36755Y21850D01*
X37069Y24238D01*
D02*
G37*
G36*
X24238D02*
X12931D01*
X13246Y21850D01*
X14461Y18915D01*
X16395Y16395D01*
X18915Y14461D01*
X21850Y13246D01*
X24238Y12931D01*
Y24238D01*
D02*
G37*
%LPD*%
D46*
X20840Y98200D02*
D03*
X41160D02*
D03*
X31000Y149000D02*
D03*
D47*
X111100Y41700D02*
D03*
X136500D02*
D03*
X238100D02*
D03*
X263500D02*
D03*
X212700D02*
D03*
X187300D02*
D03*
X161900D02*
D03*
D48*
X288900D02*
D03*
D50*
X253000Y212000D02*
D03*
X312000Y92000D02*
D03*
X291000Y73000D02*
D03*
X287000Y92000D02*
D03*
Y107000D02*
D03*
Y122000D02*
D03*
X266000Y102000D02*
D03*
X171000Y88000D02*
D03*
X229000D02*
D03*
X217000Y115000D02*
D03*
X183000D02*
D03*
Y137000D02*
D03*
X210000Y166000D02*
D03*
X190000D02*
D03*
X156000Y199000D02*
D03*
X143000Y169000D02*
D03*
X128000D02*
D03*
X113000D02*
D03*
X98000D02*
D03*
X83000D02*
D03*
X353000Y20000D02*
D03*
Y8000D02*
D03*
X307624Y20222D02*
D03*
X292624D02*
D03*
X277624D02*
D03*
X97624D02*
D03*
X82624D02*
D03*
X67624D02*
D03*
X52624D02*
D03*
X308000Y8000D02*
D03*
X293000D02*
D03*
X278000D02*
D03*
X263000D02*
D03*
X248000D02*
D03*
X233000D02*
D03*
X218000D02*
D03*
X203000D02*
D03*
X188000D02*
D03*
X173000D02*
D03*
X158000D02*
D03*
X143000D02*
D03*
X128000D02*
D03*
X113000D02*
D03*
X98000D02*
D03*
X83000D02*
D03*
X68000D02*
D03*
X53000D02*
D03*
X383000Y212000D02*
D03*
Y197000D02*
D03*
Y182000D02*
D03*
Y167000D02*
D03*
Y152000D02*
D03*
Y137000D02*
D03*
Y122000D02*
D03*
Y107000D02*
D03*
Y92000D02*
D03*
Y77000D02*
D03*
Y62000D02*
D03*
Y47000D02*
D03*
X368000Y212000D02*
D03*
Y197000D02*
D03*
Y182000D02*
D03*
Y122000D02*
D03*
Y92000D02*
D03*
Y62000D02*
D03*
Y47000D02*
D03*
X353000Y212000D02*
D03*
Y197000D02*
D03*
Y182000D02*
D03*
Y122000D02*
D03*
Y92000D02*
D03*
Y62000D02*
D03*
Y47000D02*
D03*
Y32000D02*
D03*
X338000Y212000D02*
D03*
Y197000D02*
D03*
Y182000D02*
D03*
Y122000D02*
D03*
Y92000D02*
D03*
Y77000D02*
D03*
Y62000D02*
D03*
Y47000D02*
D03*
Y32000D02*
D03*
X323000Y212000D02*
D03*
Y197000D02*
D03*
Y182000D02*
D03*
Y122000D02*
D03*
Y92000D02*
D03*
Y77000D02*
D03*
Y62000D02*
D03*
Y47000D02*
D03*
Y32000D02*
D03*
X308000Y212000D02*
D03*
Y197000D02*
D03*
Y182000D02*
D03*
Y167000D02*
D03*
Y47000D02*
D03*
Y32000D02*
D03*
X293000Y212000D02*
D03*
Y197000D02*
D03*
Y182000D02*
D03*
Y167000D02*
D03*
X278000Y212000D02*
D03*
Y197000D02*
D03*
Y182000D02*
D03*
Y167000D02*
D03*
X263000Y212000D02*
D03*
Y197000D02*
D03*
X248000D02*
D03*
Y32000D02*
D03*
X218000Y137000D02*
D03*
X143000Y212000D02*
D03*
Y197000D02*
D03*
Y182000D02*
D03*
Y137000D02*
D03*
X128000Y212000D02*
D03*
Y197000D02*
D03*
Y182000D02*
D03*
Y137000D02*
D03*
Y122000D02*
D03*
Y107000D02*
D03*
Y77000D02*
D03*
Y62000D02*
D03*
Y32000D02*
D03*
X113000Y212000D02*
D03*
Y197000D02*
D03*
Y182000D02*
D03*
Y137000D02*
D03*
Y122000D02*
D03*
Y92000D02*
D03*
Y77000D02*
D03*
Y62000D02*
D03*
X98000Y212000D02*
D03*
Y197000D02*
D03*
Y182000D02*
D03*
Y137000D02*
D03*
Y122000D02*
D03*
Y92000D02*
D03*
Y77000D02*
D03*
Y62000D02*
D03*
Y47000D02*
D03*
X83000Y212000D02*
D03*
Y197000D02*
D03*
Y182000D02*
D03*
Y137000D02*
D03*
Y122000D02*
D03*
Y92000D02*
D03*
Y32000D02*
D03*
X68000Y212000D02*
D03*
Y197000D02*
D03*
Y182000D02*
D03*
Y167000D02*
D03*
Y122000D02*
D03*
Y107000D02*
D03*
Y77000D02*
D03*
Y62000D02*
D03*
Y47000D02*
D03*
Y32000D02*
D03*
X53000Y212000D02*
D03*
Y197000D02*
D03*
Y182000D02*
D03*
Y167000D02*
D03*
Y152000D02*
D03*
Y92000D02*
D03*
Y77000D02*
D03*
Y62000D02*
D03*
Y47000D02*
D03*
Y32000D02*
D03*
X38000Y212000D02*
D03*
Y197000D02*
D03*
Y182000D02*
D03*
Y167000D02*
D03*
Y77000D02*
D03*
Y62000D02*
D03*
Y47000D02*
D03*
X23000Y212000D02*
D03*
Y197000D02*
D03*
Y182000D02*
D03*
Y167000D02*
D03*
Y77000D02*
D03*
Y62000D02*
D03*
Y47000D02*
D03*
X8000Y212000D02*
D03*
Y197000D02*
D03*
Y182000D02*
D03*
Y167000D02*
D03*
Y122000D02*
D03*
Y107000D02*
D03*
Y92000D02*
D03*
Y77000D02*
D03*
Y62000D02*
D03*
Y47000D02*
D03*
X310000Y150000D02*
D03*
X253943Y127057D02*
D03*
X298000Y154000D02*
D03*
X149000Y80000D02*
D03*
X321000Y159000D02*
D03*
X306000Y66000D02*
D03*
X156000Y67000D02*
D03*
X217000Y164000D02*
D03*
X183000Y163000D02*
D03*
X48000Y136000D02*
D03*
X111760Y112268D02*
D03*
X18796Y146558D02*
D03*
X47700Y123600D02*
D03*
D51*
X25000Y25000D02*
D03*
X375000D02*
D03*
M02*
