G04*
G04 #@! TF.GenerationSoftware,Altium Limited,Altium Designer,21.6.4 (81)*
G04*
G04 Layer_Color=2752767*
%FSLAX44Y44*%
%MOMM*%
G71*
G04*
G04 #@! TF.SameCoordinates,1B3A0675-FE53-4D0F-B245-581B64E9A93D*
G04*
G04*
G04 #@! TF.FilePolarity,Positive*
G04*
G01*
G75*
%ADD53C,0.0508*%
%ADD56C,0.0677*%
D53*
X18808Y96168D02*
Y100232D01*
X22872D01*
Y96168D01*
X18808D01*
X39128D02*
Y100232D01*
X43192D01*
Y96168D01*
X39128D01*
X28968Y146968D02*
Y151032D01*
X33032D01*
Y146968D01*
X28968D01*
X25000Y22968D02*
X22968Y27032D01*
X27032D01*
X25000Y22968D01*
X375000D02*
X372968Y27032D01*
X377032D01*
X375000Y22968D01*
X253000Y209968D02*
X254016Y210984D01*
X255032D01*
X254016Y212000D01*
X255032Y213016D01*
X254016D01*
X253000Y214032D01*
X251984Y213016D01*
X250968D01*
X251984Y212000D01*
X250968Y210984D01*
X251984D01*
X253000Y209968D01*
X312000Y89968D02*
X313016Y90984D01*
X314032D01*
X313016Y92000D01*
X314032Y93016D01*
X313016D01*
X312000Y94032D01*
X310984Y93016D01*
X309968D01*
X310984Y92000D01*
X309968Y90984D01*
X310984D01*
X312000Y89968D01*
X291000Y70968D02*
X292016Y71984D01*
X293032D01*
X292016Y73000D01*
X293032Y74016D01*
X292016D01*
X291000Y75032D01*
X289984Y74016D01*
X288968D01*
X289984Y73000D01*
X288968Y71984D01*
X289984D01*
X291000Y70968D01*
X287000Y89968D02*
X288016Y90984D01*
X289032D01*
X288016Y92000D01*
X289032Y93016D01*
X288016D01*
X287000Y94032D01*
X285984Y93016D01*
X284968D01*
X285984Y92000D01*
X284968Y90984D01*
X285984D01*
X287000Y89968D01*
Y104968D02*
X288016Y105984D01*
X289032D01*
X288016Y107000D01*
X289032Y108016D01*
X288016D01*
X287000Y109032D01*
X285984Y108016D01*
X284968D01*
X285984Y107000D01*
X284968Y105984D01*
X285984D01*
X287000Y104968D01*
Y119968D02*
X288016Y120984D01*
X289032D01*
X288016Y122000D01*
X289032Y123016D01*
X288016D01*
X287000Y124032D01*
X285984Y123016D01*
X284968D01*
X285984Y122000D01*
X284968Y120984D01*
X285984D01*
X287000Y119968D01*
X266000Y99968D02*
X267016Y100984D01*
X268032D01*
X267016Y102000D01*
X268032Y103016D01*
X267016D01*
X266000Y104032D01*
X264984Y103016D01*
X263968D01*
X264984Y102000D01*
X263968Y100984D01*
X264984D01*
X266000Y99968D01*
X171000Y85968D02*
X172016Y86984D01*
X173032D01*
X172016Y88000D01*
X173032Y89016D01*
X172016D01*
X171000Y90032D01*
X169984Y89016D01*
X168968D01*
X169984Y88000D01*
X168968Y86984D01*
X169984D01*
X171000Y85968D01*
X229000D02*
X230016Y86984D01*
X231032D01*
X230016Y88000D01*
X231032Y89016D01*
X230016D01*
X229000Y90032D01*
X227984Y89016D01*
X226968D01*
X227984Y88000D01*
X226968Y86984D01*
X227984D01*
X229000Y85968D01*
X217000Y112968D02*
X218016Y113984D01*
X219032D01*
X218016Y115000D01*
X219032Y116016D01*
X218016D01*
X217000Y117032D01*
X215984Y116016D01*
X214968D01*
X215984Y115000D01*
X214968Y113984D01*
X215984D01*
X217000Y112968D01*
X183000D02*
X184016Y113984D01*
X185032D01*
X184016Y115000D01*
X185032Y116016D01*
X184016D01*
X183000Y117032D01*
X181984Y116016D01*
X180968D01*
X181984Y115000D01*
X180968Y113984D01*
X181984D01*
X183000Y112968D01*
Y134968D02*
X184016Y135984D01*
X185032D01*
X184016Y137000D01*
X185032Y138016D01*
X184016D01*
X183000Y139032D01*
X181984Y138016D01*
X180968D01*
X181984Y137000D01*
X180968Y135984D01*
X181984D01*
X183000Y134968D01*
X210000Y163968D02*
X211016Y164984D01*
X212032D01*
X211016Y166000D01*
X212032Y167016D01*
X211016D01*
X210000Y168032D01*
X208984Y167016D01*
X207968D01*
X208984Y166000D01*
X207968Y164984D01*
X208984D01*
X210000Y163968D01*
X190000D02*
X191016Y164984D01*
X192032D01*
X191016Y166000D01*
X192032Y167016D01*
X191016D01*
X190000Y168032D01*
X188984Y167016D01*
X187968D01*
X188984Y166000D01*
X187968Y164984D01*
X188984D01*
X190000Y163968D01*
X156000Y196968D02*
X157016Y197984D01*
X158032D01*
X157016Y199000D01*
X158032Y200016D01*
X157016D01*
X156000Y201032D01*
X154984Y200016D01*
X153968D01*
X154984Y199000D01*
X153968Y197984D01*
X154984D01*
X156000Y196968D01*
X143000Y166968D02*
X144016Y167984D01*
X145032D01*
X144016Y169000D01*
X145032Y170016D01*
X144016D01*
X143000Y171032D01*
X141984Y170016D01*
X140968D01*
X141984Y169000D01*
X140968Y167984D01*
X141984D01*
X143000Y166968D01*
X128000D02*
X129016Y167984D01*
X130032D01*
X129016Y169000D01*
X130032Y170016D01*
X129016D01*
X128000Y171032D01*
X126984Y170016D01*
X125968D01*
X126984Y169000D01*
X125968Y167984D01*
X126984D01*
X128000Y166968D01*
X113000D02*
X114016Y167984D01*
X115032D01*
X114016Y169000D01*
X115032Y170016D01*
X114016D01*
X113000Y171032D01*
X111984Y170016D01*
X110968D01*
X111984Y169000D01*
X110968Y167984D01*
X111984D01*
X113000Y166968D01*
X98000D02*
X99016Y167984D01*
X100032D01*
X99016Y169000D01*
X100032Y170016D01*
X99016D01*
X98000Y171032D01*
X96984Y170016D01*
X95968D01*
X96984Y169000D01*
X95968Y167984D01*
X96984D01*
X98000Y166968D01*
X83000D02*
X84016Y167984D01*
X85032D01*
X84016Y169000D01*
X85032Y170016D01*
X84016D01*
X83000Y171032D01*
X81984Y170016D01*
X80968D01*
X81984Y169000D01*
X80968Y167984D01*
X81984D01*
X83000Y166968D01*
X353000Y17968D02*
X354016Y18984D01*
X355032D01*
X354016Y20000D01*
X355032Y21016D01*
X354016D01*
X353000Y22032D01*
X351984Y21016D01*
X350968D01*
X351984Y20000D01*
X350968Y18984D01*
X351984D01*
X353000Y17968D01*
Y5968D02*
X354016Y6984D01*
X355032D01*
X354016Y8000D01*
X355032Y9016D01*
X354016D01*
X353000Y10032D01*
X351984Y9016D01*
X350968D01*
X351984Y8000D01*
X350968Y6984D01*
X351984D01*
X353000Y5968D01*
X307624Y18190D02*
X308640Y19206D01*
X309655D01*
X308640Y20222D01*
X309655Y21238D01*
X308640D01*
X307624Y22254D01*
X306607Y21238D01*
X305592D01*
X306607Y20222D01*
X305592Y19206D01*
X306607D01*
X307624Y18190D01*
X292624D02*
X293640Y19206D01*
X294655D01*
X293640Y20222D01*
X294655Y21238D01*
X293640D01*
X292624Y22254D01*
X291607Y21238D01*
X290592D01*
X291607Y20222D01*
X290592Y19206D01*
X291607D01*
X292624Y18190D01*
X277624D02*
X278640Y19206D01*
X279655D01*
X278640Y20222D01*
X279655Y21238D01*
X278640D01*
X277624Y22254D01*
X276607Y21238D01*
X275592D01*
X276607Y20222D01*
X275592Y19206D01*
X276607D01*
X277624Y18190D01*
X97624D02*
X98639Y19206D01*
X99656D01*
X98639Y20222D01*
X99656Y21238D01*
X98639D01*
X97624Y22254D01*
X96608Y21238D01*
X95591D01*
X96608Y20222D01*
X95591Y19206D01*
X96608D01*
X97624Y18190D01*
X82624D02*
X83639Y19206D01*
X84656D01*
X83639Y20222D01*
X84656Y21238D01*
X83639D01*
X82624Y22254D01*
X81608Y21238D01*
X80591D01*
X81608Y20222D01*
X80591Y19206D01*
X81608D01*
X82624Y18190D01*
X67624D02*
X68639Y19206D01*
X69655D01*
X68639Y20222D01*
X69655Y21238D01*
X68639D01*
X67624Y22254D01*
X66607Y21238D01*
X65592D01*
X66607Y20222D01*
X65592Y19206D01*
X66607D01*
X67624Y18190D01*
X52624D02*
X53639Y19206D01*
X54655D01*
X53639Y20222D01*
X54655Y21238D01*
X53639D01*
X52624Y22254D01*
X51607Y21238D01*
X50592D01*
X51607Y20222D01*
X50592Y19206D01*
X51607D01*
X52624Y18190D01*
X308000Y5968D02*
X309016Y6984D01*
X310032D01*
X309016Y8000D01*
X310032Y9016D01*
X309016D01*
X308000Y10032D01*
X306984Y9016D01*
X305968D01*
X306984Y8000D01*
X305968Y6984D01*
X306984D01*
X308000Y5968D01*
X293000D02*
X294016Y6984D01*
X295032D01*
X294016Y8000D01*
X295032Y9016D01*
X294016D01*
X293000Y10032D01*
X291984Y9016D01*
X290968D01*
X291984Y8000D01*
X290968Y6984D01*
X291984D01*
X293000Y5968D01*
X278000D02*
X279016Y6984D01*
X280032D01*
X279016Y8000D01*
X280032Y9016D01*
X279016D01*
X278000Y10032D01*
X276984Y9016D01*
X275968D01*
X276984Y8000D01*
X275968Y6984D01*
X276984D01*
X278000Y5968D01*
X263000D02*
X264016Y6984D01*
X265032D01*
X264016Y8000D01*
X265032Y9016D01*
X264016D01*
X263000Y10032D01*
X261984Y9016D01*
X260968D01*
X261984Y8000D01*
X260968Y6984D01*
X261984D01*
X263000Y5968D01*
X248000D02*
X249016Y6984D01*
X250032D01*
X249016Y8000D01*
X250032Y9016D01*
X249016D01*
X248000Y10032D01*
X246984Y9016D01*
X245968D01*
X246984Y8000D01*
X245968Y6984D01*
X246984D01*
X248000Y5968D01*
X233000D02*
X234016Y6984D01*
X235032D01*
X234016Y8000D01*
X235032Y9016D01*
X234016D01*
X233000Y10032D01*
X231984Y9016D01*
X230968D01*
X231984Y8000D01*
X230968Y6984D01*
X231984D01*
X233000Y5968D01*
X218000D02*
X219016Y6984D01*
X220032D01*
X219016Y8000D01*
X220032Y9016D01*
X219016D01*
X218000Y10032D01*
X216984Y9016D01*
X215968D01*
X216984Y8000D01*
X215968Y6984D01*
X216984D01*
X218000Y5968D01*
X203000D02*
X204016Y6984D01*
X205032D01*
X204016Y8000D01*
X205032Y9016D01*
X204016D01*
X203000Y10032D01*
X201984Y9016D01*
X200968D01*
X201984Y8000D01*
X200968Y6984D01*
X201984D01*
X203000Y5968D01*
X188000D02*
X189016Y6984D01*
X190032D01*
X189016Y8000D01*
X190032Y9016D01*
X189016D01*
X188000Y10032D01*
X186984Y9016D01*
X185968D01*
X186984Y8000D01*
X185968Y6984D01*
X186984D01*
X188000Y5968D01*
X173000D02*
X174016Y6984D01*
X175032D01*
X174016Y8000D01*
X175032Y9016D01*
X174016D01*
X173000Y10032D01*
X171984Y9016D01*
X170968D01*
X171984Y8000D01*
X170968Y6984D01*
X171984D01*
X173000Y5968D01*
X158000D02*
X159016Y6984D01*
X160032D01*
X159016Y8000D01*
X160032Y9016D01*
X159016D01*
X158000Y10032D01*
X156984Y9016D01*
X155968D01*
X156984Y8000D01*
X155968Y6984D01*
X156984D01*
X158000Y5968D01*
X143000D02*
X144016Y6984D01*
X145032D01*
X144016Y8000D01*
X145032Y9016D01*
X144016D01*
X143000Y10032D01*
X141984Y9016D01*
X140968D01*
X141984Y8000D01*
X140968Y6984D01*
X141984D01*
X143000Y5968D01*
X128000D02*
X129016Y6984D01*
X130032D01*
X129016Y8000D01*
X130032Y9016D01*
X129016D01*
X128000Y10032D01*
X126984Y9016D01*
X125968D01*
X126984Y8000D01*
X125968Y6984D01*
X126984D01*
X128000Y5968D01*
X113000D02*
X114016Y6984D01*
X115032D01*
X114016Y8000D01*
X115032Y9016D01*
X114016D01*
X113000Y10032D01*
X111984Y9016D01*
X110968D01*
X111984Y8000D01*
X110968Y6984D01*
X111984D01*
X113000Y5968D01*
X98000D02*
X99016Y6984D01*
X100032D01*
X99016Y8000D01*
X100032Y9016D01*
X99016D01*
X98000Y10032D01*
X96984Y9016D01*
X95968D01*
X96984Y8000D01*
X95968Y6984D01*
X96984D01*
X98000Y5968D01*
X83000D02*
X84016Y6984D01*
X85032D01*
X84016Y8000D01*
X85032Y9016D01*
X84016D01*
X83000Y10032D01*
X81984Y9016D01*
X80968D01*
X81984Y8000D01*
X80968Y6984D01*
X81984D01*
X83000Y5968D01*
X68000D02*
X69016Y6984D01*
X70032D01*
X69016Y8000D01*
X70032Y9016D01*
X69016D01*
X68000Y10032D01*
X66984Y9016D01*
X65968D01*
X66984Y8000D01*
X65968Y6984D01*
X66984D01*
X68000Y5968D01*
X53000D02*
X54016Y6984D01*
X55032D01*
X54016Y8000D01*
X55032Y9016D01*
X54016D01*
X53000Y10032D01*
X51984Y9016D01*
X50968D01*
X51984Y8000D01*
X50968Y6984D01*
X51984D01*
X53000Y5968D01*
X383000Y209968D02*
X384016Y210984D01*
X385032D01*
X384016Y212000D01*
X385032Y213016D01*
X384016D01*
X383000Y214032D01*
X381984Y213016D01*
X380968D01*
X381984Y212000D01*
X380968Y210984D01*
X381984D01*
X383000Y209968D01*
Y194968D02*
X384016Y195984D01*
X385032D01*
X384016Y197000D01*
X385032Y198016D01*
X384016D01*
X383000Y199032D01*
X381984Y198016D01*
X380968D01*
X381984Y197000D01*
X380968Y195984D01*
X381984D01*
X383000Y194968D01*
Y179968D02*
X384016Y180984D01*
X385032D01*
X384016Y182000D01*
X385032Y183016D01*
X384016D01*
X383000Y184032D01*
X381984Y183016D01*
X380968D01*
X381984Y182000D01*
X380968Y180984D01*
X381984D01*
X383000Y179968D01*
Y164968D02*
X384016Y165984D01*
X385032D01*
X384016Y167000D01*
X385032Y168016D01*
X384016D01*
X383000Y169032D01*
X381984Y168016D01*
X380968D01*
X381984Y167000D01*
X380968Y165984D01*
X381984D01*
X383000Y164968D01*
Y149968D02*
X384016Y150984D01*
X385032D01*
X384016Y152000D01*
X385032Y153016D01*
X384016D01*
X383000Y154032D01*
X381984Y153016D01*
X380968D01*
X381984Y152000D01*
X380968Y150984D01*
X381984D01*
X383000Y149968D01*
Y134968D02*
X384016Y135984D01*
X385032D01*
X384016Y137000D01*
X385032Y138016D01*
X384016D01*
X383000Y139032D01*
X381984Y138016D01*
X380968D01*
X381984Y137000D01*
X380968Y135984D01*
X381984D01*
X383000Y134968D01*
Y119968D02*
X384016Y120984D01*
X385032D01*
X384016Y122000D01*
X385032Y123016D01*
X384016D01*
X383000Y124032D01*
X381984Y123016D01*
X380968D01*
X381984Y122000D01*
X380968Y120984D01*
X381984D01*
X383000Y119968D01*
Y104968D02*
X384016Y105984D01*
X385032D01*
X384016Y107000D01*
X385032Y108016D01*
X384016D01*
X383000Y109032D01*
X381984Y108016D01*
X380968D01*
X381984Y107000D01*
X380968Y105984D01*
X381984D01*
X383000Y104968D01*
Y89968D02*
X384016Y90984D01*
X385032D01*
X384016Y92000D01*
X385032Y93016D01*
X384016D01*
X383000Y94032D01*
X381984Y93016D01*
X380968D01*
X381984Y92000D01*
X380968Y90984D01*
X381984D01*
X383000Y89968D01*
Y74968D02*
X384016Y75984D01*
X385032D01*
X384016Y77000D01*
X385032Y78016D01*
X384016D01*
X383000Y79032D01*
X381984Y78016D01*
X380968D01*
X381984Y77000D01*
X380968Y75984D01*
X381984D01*
X383000Y74968D01*
Y59968D02*
X384016Y60984D01*
X385032D01*
X384016Y62000D01*
X385032Y63016D01*
X384016D01*
X383000Y64032D01*
X381984Y63016D01*
X380968D01*
X381984Y62000D01*
X380968Y60984D01*
X381984D01*
X383000Y59968D01*
Y44968D02*
X384016Y45984D01*
X385032D01*
X384016Y47000D01*
X385032Y48016D01*
X384016D01*
X383000Y49032D01*
X381984Y48016D01*
X380968D01*
X381984Y47000D01*
X380968Y45984D01*
X381984D01*
X383000Y44968D01*
X368000Y209968D02*
X369016Y210984D01*
X370032D01*
X369016Y212000D01*
X370032Y213016D01*
X369016D01*
X368000Y214032D01*
X366984Y213016D01*
X365968D01*
X366984Y212000D01*
X365968Y210984D01*
X366984D01*
X368000Y209968D01*
Y194968D02*
X369016Y195984D01*
X370032D01*
X369016Y197000D01*
X370032Y198016D01*
X369016D01*
X368000Y199032D01*
X366984Y198016D01*
X365968D01*
X366984Y197000D01*
X365968Y195984D01*
X366984D01*
X368000Y194968D01*
Y179968D02*
X369016Y180984D01*
X370032D01*
X369016Y182000D01*
X370032Y183016D01*
X369016D01*
X368000Y184032D01*
X366984Y183016D01*
X365968D01*
X366984Y182000D01*
X365968Y180984D01*
X366984D01*
X368000Y179968D01*
Y119968D02*
X369016Y120984D01*
X370032D01*
X369016Y122000D01*
X370032Y123016D01*
X369016D01*
X368000Y124032D01*
X366984Y123016D01*
X365968D01*
X366984Y122000D01*
X365968Y120984D01*
X366984D01*
X368000Y119968D01*
Y89968D02*
X369016Y90984D01*
X370032D01*
X369016Y92000D01*
X370032Y93016D01*
X369016D01*
X368000Y94032D01*
X366984Y93016D01*
X365968D01*
X366984Y92000D01*
X365968Y90984D01*
X366984D01*
X368000Y89968D01*
Y59968D02*
X369016Y60984D01*
X370032D01*
X369016Y62000D01*
X370032Y63016D01*
X369016D01*
X368000Y64032D01*
X366984Y63016D01*
X365968D01*
X366984Y62000D01*
X365968Y60984D01*
X366984D01*
X368000Y59968D01*
Y44968D02*
X369016Y45984D01*
X370032D01*
X369016Y47000D01*
X370032Y48016D01*
X369016D01*
X368000Y49032D01*
X366984Y48016D01*
X365968D01*
X366984Y47000D01*
X365968Y45984D01*
X366984D01*
X368000Y44968D01*
X353000Y209968D02*
X354016Y210984D01*
X355032D01*
X354016Y212000D01*
X355032Y213016D01*
X354016D01*
X353000Y214032D01*
X351984Y213016D01*
X350968D01*
X351984Y212000D01*
X350968Y210984D01*
X351984D01*
X353000Y209968D01*
Y194968D02*
X354016Y195984D01*
X355032D01*
X354016Y197000D01*
X355032Y198016D01*
X354016D01*
X353000Y199032D01*
X351984Y198016D01*
X350968D01*
X351984Y197000D01*
X350968Y195984D01*
X351984D01*
X353000Y194968D01*
Y179968D02*
X354016Y180984D01*
X355032D01*
X354016Y182000D01*
X355032Y183016D01*
X354016D01*
X353000Y184032D01*
X351984Y183016D01*
X350968D01*
X351984Y182000D01*
X350968Y180984D01*
X351984D01*
X353000Y179968D01*
Y119968D02*
X354016Y120984D01*
X355032D01*
X354016Y122000D01*
X355032Y123016D01*
X354016D01*
X353000Y124032D01*
X351984Y123016D01*
X350968D01*
X351984Y122000D01*
X350968Y120984D01*
X351984D01*
X353000Y119968D01*
Y89968D02*
X354016Y90984D01*
X355032D01*
X354016Y92000D01*
X355032Y93016D01*
X354016D01*
X353000Y94032D01*
X351984Y93016D01*
X350968D01*
X351984Y92000D01*
X350968Y90984D01*
X351984D01*
X353000Y89968D01*
Y59968D02*
X354016Y60984D01*
X355032D01*
X354016Y62000D01*
X355032Y63016D01*
X354016D01*
X353000Y64032D01*
X351984Y63016D01*
X350968D01*
X351984Y62000D01*
X350968Y60984D01*
X351984D01*
X353000Y59968D01*
Y44968D02*
X354016Y45984D01*
X355032D01*
X354016Y47000D01*
X355032Y48016D01*
X354016D01*
X353000Y49032D01*
X351984Y48016D01*
X350968D01*
X351984Y47000D01*
X350968Y45984D01*
X351984D01*
X353000Y44968D01*
Y29968D02*
X354016Y30984D01*
X355032D01*
X354016Y32000D01*
X355032Y33016D01*
X354016D01*
X353000Y34032D01*
X351984Y33016D01*
X350968D01*
X351984Y32000D01*
X350968Y30984D01*
X351984D01*
X353000Y29968D01*
X338000Y209968D02*
X339016Y210984D01*
X340032D01*
X339016Y212000D01*
X340032Y213016D01*
X339016D01*
X338000Y214032D01*
X336984Y213016D01*
X335968D01*
X336984Y212000D01*
X335968Y210984D01*
X336984D01*
X338000Y209968D01*
Y194968D02*
X339016Y195984D01*
X340032D01*
X339016Y197000D01*
X340032Y198016D01*
X339016D01*
X338000Y199032D01*
X336984Y198016D01*
X335968D01*
X336984Y197000D01*
X335968Y195984D01*
X336984D01*
X338000Y194968D01*
Y179968D02*
X339016Y180984D01*
X340032D01*
X339016Y182000D01*
X340032Y183016D01*
X339016D01*
X338000Y184032D01*
X336984Y183016D01*
X335968D01*
X336984Y182000D01*
X335968Y180984D01*
X336984D01*
X338000Y179968D01*
Y119968D02*
X339016Y120984D01*
X340032D01*
X339016Y122000D01*
X340032Y123016D01*
X339016D01*
X338000Y124032D01*
X336984Y123016D01*
X335968D01*
X336984Y122000D01*
X335968Y120984D01*
X336984D01*
X338000Y119968D01*
Y89968D02*
X339016Y90984D01*
X340032D01*
X339016Y92000D01*
X340032Y93016D01*
X339016D01*
X338000Y94032D01*
X336984Y93016D01*
X335968D01*
X336984Y92000D01*
X335968Y90984D01*
X336984D01*
X338000Y89968D01*
Y74968D02*
X339016Y75984D01*
X340032D01*
X339016Y77000D01*
X340032Y78016D01*
X339016D01*
X338000Y79032D01*
X336984Y78016D01*
X335968D01*
X336984Y77000D01*
X335968Y75984D01*
X336984D01*
X338000Y74968D01*
Y59968D02*
X339016Y60984D01*
X340032D01*
X339016Y62000D01*
X340032Y63016D01*
X339016D01*
X338000Y64032D01*
X336984Y63016D01*
X335968D01*
X336984Y62000D01*
X335968Y60984D01*
X336984D01*
X338000Y59968D01*
Y44968D02*
X339016Y45984D01*
X340032D01*
X339016Y47000D01*
X340032Y48016D01*
X339016D01*
X338000Y49032D01*
X336984Y48016D01*
X335968D01*
X336984Y47000D01*
X335968Y45984D01*
X336984D01*
X338000Y44968D01*
Y29968D02*
X339016Y30984D01*
X340032D01*
X339016Y32000D01*
X340032Y33016D01*
X339016D01*
X338000Y34032D01*
X336984Y33016D01*
X335968D01*
X336984Y32000D01*
X335968Y30984D01*
X336984D01*
X338000Y29968D01*
X323000Y209968D02*
X324016Y210984D01*
X325032D01*
X324016Y212000D01*
X325032Y213016D01*
X324016D01*
X323000Y214032D01*
X321984Y213016D01*
X320968D01*
X321984Y212000D01*
X320968Y210984D01*
X321984D01*
X323000Y209968D01*
Y194968D02*
X324016Y195984D01*
X325032D01*
X324016Y197000D01*
X325032Y198016D01*
X324016D01*
X323000Y199032D01*
X321984Y198016D01*
X320968D01*
X321984Y197000D01*
X320968Y195984D01*
X321984D01*
X323000Y194968D01*
Y179968D02*
X324016Y180984D01*
X325032D01*
X324016Y182000D01*
X325032Y183016D01*
X324016D01*
X323000Y184032D01*
X321984Y183016D01*
X320968D01*
X321984Y182000D01*
X320968Y180984D01*
X321984D01*
X323000Y179968D01*
Y119968D02*
X324016Y120984D01*
X325032D01*
X324016Y122000D01*
X325032Y123016D01*
X324016D01*
X323000Y124032D01*
X321984Y123016D01*
X320968D01*
X321984Y122000D01*
X320968Y120984D01*
X321984D01*
X323000Y119968D01*
Y89968D02*
X324016Y90984D01*
X325032D01*
X324016Y92000D01*
X325032Y93016D01*
X324016D01*
X323000Y94032D01*
X321984Y93016D01*
X320968D01*
X321984Y92000D01*
X320968Y90984D01*
X321984D01*
X323000Y89968D01*
Y74968D02*
X324016Y75984D01*
X325032D01*
X324016Y77000D01*
X325032Y78016D01*
X324016D01*
X323000Y79032D01*
X321984Y78016D01*
X320968D01*
X321984Y77000D01*
X320968Y75984D01*
X321984D01*
X323000Y74968D01*
Y59968D02*
X324016Y60984D01*
X325032D01*
X324016Y62000D01*
X325032Y63016D01*
X324016D01*
X323000Y64032D01*
X321984Y63016D01*
X320968D01*
X321984Y62000D01*
X320968Y60984D01*
X321984D01*
X323000Y59968D01*
Y44968D02*
X324016Y45984D01*
X325032D01*
X324016Y47000D01*
X325032Y48016D01*
X324016D01*
X323000Y49032D01*
X321984Y48016D01*
X320968D01*
X321984Y47000D01*
X320968Y45984D01*
X321984D01*
X323000Y44968D01*
Y29968D02*
X324016Y30984D01*
X325032D01*
X324016Y32000D01*
X325032Y33016D01*
X324016D01*
X323000Y34032D01*
X321984Y33016D01*
X320968D01*
X321984Y32000D01*
X320968Y30984D01*
X321984D01*
X323000Y29968D01*
X308000Y209968D02*
X309016Y210984D01*
X310032D01*
X309016Y212000D01*
X310032Y213016D01*
X309016D01*
X308000Y214032D01*
X306984Y213016D01*
X305968D01*
X306984Y212000D01*
X305968Y210984D01*
X306984D01*
X308000Y209968D01*
Y194968D02*
X309016Y195984D01*
X310032D01*
X309016Y197000D01*
X310032Y198016D01*
X309016D01*
X308000Y199032D01*
X306984Y198016D01*
X305968D01*
X306984Y197000D01*
X305968Y195984D01*
X306984D01*
X308000Y194968D01*
Y179968D02*
X309016Y180984D01*
X310032D01*
X309016Y182000D01*
X310032Y183016D01*
X309016D01*
X308000Y184032D01*
X306984Y183016D01*
X305968D01*
X306984Y182000D01*
X305968Y180984D01*
X306984D01*
X308000Y179968D01*
Y164968D02*
X309016Y165984D01*
X310032D01*
X309016Y167000D01*
X310032Y168016D01*
X309016D01*
X308000Y169032D01*
X306984Y168016D01*
X305968D01*
X306984Y167000D01*
X305968Y165984D01*
X306984D01*
X308000Y164968D01*
Y44968D02*
X309016Y45984D01*
X310032D01*
X309016Y47000D01*
X310032Y48016D01*
X309016D01*
X308000Y49032D01*
X306984Y48016D01*
X305968D01*
X306984Y47000D01*
X305968Y45984D01*
X306984D01*
X308000Y44968D01*
Y29968D02*
X309016Y30984D01*
X310032D01*
X309016Y32000D01*
X310032Y33016D01*
X309016D01*
X308000Y34032D01*
X306984Y33016D01*
X305968D01*
X306984Y32000D01*
X305968Y30984D01*
X306984D01*
X308000Y29968D01*
X293000Y209968D02*
X294016Y210984D01*
X295032D01*
X294016Y212000D01*
X295032Y213016D01*
X294016D01*
X293000Y214032D01*
X291984Y213016D01*
X290968D01*
X291984Y212000D01*
X290968Y210984D01*
X291984D01*
X293000Y209968D01*
Y194968D02*
X294016Y195984D01*
X295032D01*
X294016Y197000D01*
X295032Y198016D01*
X294016D01*
X293000Y199032D01*
X291984Y198016D01*
X290968D01*
X291984Y197000D01*
X290968Y195984D01*
X291984D01*
X293000Y194968D01*
Y179968D02*
X294016Y180984D01*
X295032D01*
X294016Y182000D01*
X295032Y183016D01*
X294016D01*
X293000Y184032D01*
X291984Y183016D01*
X290968D01*
X291984Y182000D01*
X290968Y180984D01*
X291984D01*
X293000Y179968D01*
Y164968D02*
X294016Y165984D01*
X295032D01*
X294016Y167000D01*
X295032Y168016D01*
X294016D01*
X293000Y169032D01*
X291984Y168016D01*
X290968D01*
X291984Y167000D01*
X290968Y165984D01*
X291984D01*
X293000Y164968D01*
X278000Y209968D02*
X279016Y210984D01*
X280032D01*
X279016Y212000D01*
X280032Y213016D01*
X279016D01*
X278000Y214032D01*
X276984Y213016D01*
X275968D01*
X276984Y212000D01*
X275968Y210984D01*
X276984D01*
X278000Y209968D01*
Y194968D02*
X279016Y195984D01*
X280032D01*
X279016Y197000D01*
X280032Y198016D01*
X279016D01*
X278000Y199032D01*
X276984Y198016D01*
X275968D01*
X276984Y197000D01*
X275968Y195984D01*
X276984D01*
X278000Y194968D01*
Y179968D02*
X279016Y180984D01*
X280032D01*
X279016Y182000D01*
X280032Y183016D01*
X279016D01*
X278000Y184032D01*
X276984Y183016D01*
X275968D01*
X276984Y182000D01*
X275968Y180984D01*
X276984D01*
X278000Y179968D01*
Y164968D02*
X279016Y165984D01*
X280032D01*
X279016Y167000D01*
X280032Y168016D01*
X279016D01*
X278000Y169032D01*
X276984Y168016D01*
X275968D01*
X276984Y167000D01*
X275968Y165984D01*
X276984D01*
X278000Y164968D01*
X263000Y209968D02*
X264016Y210984D01*
X265032D01*
X264016Y212000D01*
X265032Y213016D01*
X264016D01*
X263000Y214032D01*
X261984Y213016D01*
X260968D01*
X261984Y212000D01*
X260968Y210984D01*
X261984D01*
X263000Y209968D01*
Y194968D02*
X264016Y195984D01*
X265032D01*
X264016Y197000D01*
X265032Y198016D01*
X264016D01*
X263000Y199032D01*
X261984Y198016D01*
X260968D01*
X261984Y197000D01*
X260968Y195984D01*
X261984D01*
X263000Y194968D01*
X248000D02*
X249016Y195984D01*
X250032D01*
X249016Y197000D01*
X250032Y198016D01*
X249016D01*
X248000Y199032D01*
X246984Y198016D01*
X245968D01*
X246984Y197000D01*
X245968Y195984D01*
X246984D01*
X248000Y194968D01*
Y29968D02*
X249016Y30984D01*
X250032D01*
X249016Y32000D01*
X250032Y33016D01*
X249016D01*
X248000Y34032D01*
X246984Y33016D01*
X245968D01*
X246984Y32000D01*
X245968Y30984D01*
X246984D01*
X248000Y29968D01*
X218000Y134968D02*
X219016Y135984D01*
X220032D01*
X219016Y137000D01*
X220032Y138016D01*
X219016D01*
X218000Y139032D01*
X216984Y138016D01*
X215968D01*
X216984Y137000D01*
X215968Y135984D01*
X216984D01*
X218000Y134968D01*
X143000Y209968D02*
X144016Y210984D01*
X145032D01*
X144016Y212000D01*
X145032Y213016D01*
X144016D01*
X143000Y214032D01*
X141984Y213016D01*
X140968D01*
X141984Y212000D01*
X140968Y210984D01*
X141984D01*
X143000Y209968D01*
Y194968D02*
X144016Y195984D01*
X145032D01*
X144016Y197000D01*
X145032Y198016D01*
X144016D01*
X143000Y199032D01*
X141984Y198016D01*
X140968D01*
X141984Y197000D01*
X140968Y195984D01*
X141984D01*
X143000Y194968D01*
Y179968D02*
X144016Y180984D01*
X145032D01*
X144016Y182000D01*
X145032Y183016D01*
X144016D01*
X143000Y184032D01*
X141984Y183016D01*
X140968D01*
X141984Y182000D01*
X140968Y180984D01*
X141984D01*
X143000Y179968D01*
Y134968D02*
X144016Y135984D01*
X145032D01*
X144016Y137000D01*
X145032Y138016D01*
X144016D01*
X143000Y139032D01*
X141984Y138016D01*
X140968D01*
X141984Y137000D01*
X140968Y135984D01*
X141984D01*
X143000Y134968D01*
X128000Y209968D02*
X129016Y210984D01*
X130032D01*
X129016Y212000D01*
X130032Y213016D01*
X129016D01*
X128000Y214032D01*
X126984Y213016D01*
X125968D01*
X126984Y212000D01*
X125968Y210984D01*
X126984D01*
X128000Y209968D01*
Y194968D02*
X129016Y195984D01*
X130032D01*
X129016Y197000D01*
X130032Y198016D01*
X129016D01*
X128000Y199032D01*
X126984Y198016D01*
X125968D01*
X126984Y197000D01*
X125968Y195984D01*
X126984D01*
X128000Y194968D01*
Y179968D02*
X129016Y180984D01*
X130032D01*
X129016Y182000D01*
X130032Y183016D01*
X129016D01*
X128000Y184032D01*
X126984Y183016D01*
X125968D01*
X126984Y182000D01*
X125968Y180984D01*
X126984D01*
X128000Y179968D01*
Y134968D02*
X129016Y135984D01*
X130032D01*
X129016Y137000D01*
X130032Y138016D01*
X129016D01*
X128000Y139032D01*
X126984Y138016D01*
X125968D01*
X126984Y137000D01*
X125968Y135984D01*
X126984D01*
X128000Y134968D01*
Y119968D02*
X129016Y120984D01*
X130032D01*
X129016Y122000D01*
X130032Y123016D01*
X129016D01*
X128000Y124032D01*
X126984Y123016D01*
X125968D01*
X126984Y122000D01*
X125968Y120984D01*
X126984D01*
X128000Y119968D01*
Y104968D02*
X129016Y105984D01*
X130032D01*
X129016Y107000D01*
X130032Y108016D01*
X129016D01*
X128000Y109032D01*
X126984Y108016D01*
X125968D01*
X126984Y107000D01*
X125968Y105984D01*
X126984D01*
X128000Y104968D01*
Y74968D02*
X129016Y75984D01*
X130032D01*
X129016Y77000D01*
X130032Y78016D01*
X129016D01*
X128000Y79032D01*
X126984Y78016D01*
X125968D01*
X126984Y77000D01*
X125968Y75984D01*
X126984D01*
X128000Y74968D01*
Y59968D02*
X129016Y60984D01*
X130032D01*
X129016Y62000D01*
X130032Y63016D01*
X129016D01*
X128000Y64032D01*
X126984Y63016D01*
X125968D01*
X126984Y62000D01*
X125968Y60984D01*
X126984D01*
X128000Y59968D01*
Y29968D02*
X129016Y30984D01*
X130032D01*
X129016Y32000D01*
X130032Y33016D01*
X129016D01*
X128000Y34032D01*
X126984Y33016D01*
X125968D01*
X126984Y32000D01*
X125968Y30984D01*
X126984D01*
X128000Y29968D01*
X113000Y209968D02*
X114016Y210984D01*
X115032D01*
X114016Y212000D01*
X115032Y213016D01*
X114016D01*
X113000Y214032D01*
X111984Y213016D01*
X110968D01*
X111984Y212000D01*
X110968Y210984D01*
X111984D01*
X113000Y209968D01*
Y194968D02*
X114016Y195984D01*
X115032D01*
X114016Y197000D01*
X115032Y198016D01*
X114016D01*
X113000Y199032D01*
X111984Y198016D01*
X110968D01*
X111984Y197000D01*
X110968Y195984D01*
X111984D01*
X113000Y194968D01*
Y179968D02*
X114016Y180984D01*
X115032D01*
X114016Y182000D01*
X115032Y183016D01*
X114016D01*
X113000Y184032D01*
X111984Y183016D01*
X110968D01*
X111984Y182000D01*
X110968Y180984D01*
X111984D01*
X113000Y179968D01*
Y134968D02*
X114016Y135984D01*
X115032D01*
X114016Y137000D01*
X115032Y138016D01*
X114016D01*
X113000Y139032D01*
X111984Y138016D01*
X110968D01*
X111984Y137000D01*
X110968Y135984D01*
X111984D01*
X113000Y134968D01*
Y119968D02*
X114016Y120984D01*
X115032D01*
X114016Y122000D01*
X115032Y123016D01*
X114016D01*
X113000Y124032D01*
X111984Y123016D01*
X110968D01*
X111984Y122000D01*
X110968Y120984D01*
X111984D01*
X113000Y119968D01*
Y89968D02*
X114016Y90984D01*
X115032D01*
X114016Y92000D01*
X115032Y93016D01*
X114016D01*
X113000Y94032D01*
X111984Y93016D01*
X110968D01*
X111984Y92000D01*
X110968Y90984D01*
X111984D01*
X113000Y89968D01*
Y74968D02*
X114016Y75984D01*
X115032D01*
X114016Y77000D01*
X115032Y78016D01*
X114016D01*
X113000Y79032D01*
X111984Y78016D01*
X110968D01*
X111984Y77000D01*
X110968Y75984D01*
X111984D01*
X113000Y74968D01*
Y59968D02*
X114016Y60984D01*
X115032D01*
X114016Y62000D01*
X115032Y63016D01*
X114016D01*
X113000Y64032D01*
X111984Y63016D01*
X110968D01*
X111984Y62000D01*
X110968Y60984D01*
X111984D01*
X113000Y59968D01*
X98000Y209968D02*
X99016Y210984D01*
X100032D01*
X99016Y212000D01*
X100032Y213016D01*
X99016D01*
X98000Y214032D01*
X96984Y213016D01*
X95968D01*
X96984Y212000D01*
X95968Y210984D01*
X96984D01*
X98000Y209968D01*
Y194968D02*
X99016Y195984D01*
X100032D01*
X99016Y197000D01*
X100032Y198016D01*
X99016D01*
X98000Y199032D01*
X96984Y198016D01*
X95968D01*
X96984Y197000D01*
X95968Y195984D01*
X96984D01*
X98000Y194968D01*
Y179968D02*
X99016Y180984D01*
X100032D01*
X99016Y182000D01*
X100032Y183016D01*
X99016D01*
X98000Y184032D01*
X96984Y183016D01*
X95968D01*
X96984Y182000D01*
X95968Y180984D01*
X96984D01*
X98000Y179968D01*
Y134968D02*
X99016Y135984D01*
X100032D01*
X99016Y137000D01*
X100032Y138016D01*
X99016D01*
X98000Y139032D01*
X96984Y138016D01*
X95968D01*
X96984Y137000D01*
X95968Y135984D01*
X96984D01*
X98000Y134968D01*
Y119968D02*
X99016Y120984D01*
X100032D01*
X99016Y122000D01*
X100032Y123016D01*
X99016D01*
X98000Y124032D01*
X96984Y123016D01*
X95968D01*
X96984Y122000D01*
X95968Y120984D01*
X96984D01*
X98000Y119968D01*
Y89968D02*
X99016Y90984D01*
X100032D01*
X99016Y92000D01*
X100032Y93016D01*
X99016D01*
X98000Y94032D01*
X96984Y93016D01*
X95968D01*
X96984Y92000D01*
X95968Y90984D01*
X96984D01*
X98000Y89968D01*
Y74968D02*
X99016Y75984D01*
X100032D01*
X99016Y77000D01*
X100032Y78016D01*
X99016D01*
X98000Y79032D01*
X96984Y78016D01*
X95968D01*
X96984Y77000D01*
X95968Y75984D01*
X96984D01*
X98000Y74968D01*
Y59968D02*
X99016Y60984D01*
X100032D01*
X99016Y62000D01*
X100032Y63016D01*
X99016D01*
X98000Y64032D01*
X96984Y63016D01*
X95968D01*
X96984Y62000D01*
X95968Y60984D01*
X96984D01*
X98000Y59968D01*
Y44968D02*
X99016Y45984D01*
X100032D01*
X99016Y47000D01*
X100032Y48016D01*
X99016D01*
X98000Y49032D01*
X96984Y48016D01*
X95968D01*
X96984Y47000D01*
X95968Y45984D01*
X96984D01*
X98000Y44968D01*
X83000Y209968D02*
X84016Y210984D01*
X85032D01*
X84016Y212000D01*
X85032Y213016D01*
X84016D01*
X83000Y214032D01*
X81984Y213016D01*
X80968D01*
X81984Y212000D01*
X80968Y210984D01*
X81984D01*
X83000Y209968D01*
Y194968D02*
X84016Y195984D01*
X85032D01*
X84016Y197000D01*
X85032Y198016D01*
X84016D01*
X83000Y199032D01*
X81984Y198016D01*
X80968D01*
X81984Y197000D01*
X80968Y195984D01*
X81984D01*
X83000Y194968D01*
Y179968D02*
X84016Y180984D01*
X85032D01*
X84016Y182000D01*
X85032Y183016D01*
X84016D01*
X83000Y184032D01*
X81984Y183016D01*
X80968D01*
X81984Y182000D01*
X80968Y180984D01*
X81984D01*
X83000Y179968D01*
Y134968D02*
X84016Y135984D01*
X85032D01*
X84016Y137000D01*
X85032Y138016D01*
X84016D01*
X83000Y139032D01*
X81984Y138016D01*
X80968D01*
X81984Y137000D01*
X80968Y135984D01*
X81984D01*
X83000Y134968D01*
Y119968D02*
X84016Y120984D01*
X85032D01*
X84016Y122000D01*
X85032Y123016D01*
X84016D01*
X83000Y124032D01*
X81984Y123016D01*
X80968D01*
X81984Y122000D01*
X80968Y120984D01*
X81984D01*
X83000Y119968D01*
Y89968D02*
X84016Y90984D01*
X85032D01*
X84016Y92000D01*
X85032Y93016D01*
X84016D01*
X83000Y94032D01*
X81984Y93016D01*
X80968D01*
X81984Y92000D01*
X80968Y90984D01*
X81984D01*
X83000Y89968D01*
Y29968D02*
X84016Y30984D01*
X85032D01*
X84016Y32000D01*
X85032Y33016D01*
X84016D01*
X83000Y34032D01*
X81984Y33016D01*
X80968D01*
X81984Y32000D01*
X80968Y30984D01*
X81984D01*
X83000Y29968D01*
X68000Y209968D02*
X69016Y210984D01*
X70032D01*
X69016Y212000D01*
X70032Y213016D01*
X69016D01*
X68000Y214032D01*
X66984Y213016D01*
X65968D01*
X66984Y212000D01*
X65968Y210984D01*
X66984D01*
X68000Y209968D01*
Y194968D02*
X69016Y195984D01*
X70032D01*
X69016Y197000D01*
X70032Y198016D01*
X69016D01*
X68000Y199032D01*
X66984Y198016D01*
X65968D01*
X66984Y197000D01*
X65968Y195984D01*
X66984D01*
X68000Y194968D01*
Y179968D02*
X69016Y180984D01*
X70032D01*
X69016Y182000D01*
X70032Y183016D01*
X69016D01*
X68000Y184032D01*
X66984Y183016D01*
X65968D01*
X66984Y182000D01*
X65968Y180984D01*
X66984D01*
X68000Y179968D01*
Y164968D02*
X69016Y165984D01*
X70032D01*
X69016Y167000D01*
X70032Y168016D01*
X69016D01*
X68000Y169032D01*
X66984Y168016D01*
X65968D01*
X66984Y167000D01*
X65968Y165984D01*
X66984D01*
X68000Y164968D01*
Y119968D02*
X69016Y120984D01*
X70032D01*
X69016Y122000D01*
X70032Y123016D01*
X69016D01*
X68000Y124032D01*
X66984Y123016D01*
X65968D01*
X66984Y122000D01*
X65968Y120984D01*
X66984D01*
X68000Y119968D01*
Y104968D02*
X69016Y105984D01*
X70032D01*
X69016Y107000D01*
X70032Y108016D01*
X69016D01*
X68000Y109032D01*
X66984Y108016D01*
X65968D01*
X66984Y107000D01*
X65968Y105984D01*
X66984D01*
X68000Y104968D01*
Y74968D02*
X69016Y75984D01*
X70032D01*
X69016Y77000D01*
X70032Y78016D01*
X69016D01*
X68000Y79032D01*
X66984Y78016D01*
X65968D01*
X66984Y77000D01*
X65968Y75984D01*
X66984D01*
X68000Y74968D01*
Y59968D02*
X69016Y60984D01*
X70032D01*
X69016Y62000D01*
X70032Y63016D01*
X69016D01*
X68000Y64032D01*
X66984Y63016D01*
X65968D01*
X66984Y62000D01*
X65968Y60984D01*
X66984D01*
X68000Y59968D01*
Y44968D02*
X69016Y45984D01*
X70032D01*
X69016Y47000D01*
X70032Y48016D01*
X69016D01*
X68000Y49032D01*
X66984Y48016D01*
X65968D01*
X66984Y47000D01*
X65968Y45984D01*
X66984D01*
X68000Y44968D01*
Y29968D02*
X69016Y30984D01*
X70032D01*
X69016Y32000D01*
X70032Y33016D01*
X69016D01*
X68000Y34032D01*
X66984Y33016D01*
X65968D01*
X66984Y32000D01*
X65968Y30984D01*
X66984D01*
X68000Y29968D01*
X53000Y209968D02*
X54016Y210984D01*
X55032D01*
X54016Y212000D01*
X55032Y213016D01*
X54016D01*
X53000Y214032D01*
X51984Y213016D01*
X50968D01*
X51984Y212000D01*
X50968Y210984D01*
X51984D01*
X53000Y209968D01*
Y194968D02*
X54016Y195984D01*
X55032D01*
X54016Y197000D01*
X55032Y198016D01*
X54016D01*
X53000Y199032D01*
X51984Y198016D01*
X50968D01*
X51984Y197000D01*
X50968Y195984D01*
X51984D01*
X53000Y194968D01*
Y179968D02*
X54016Y180984D01*
X55032D01*
X54016Y182000D01*
X55032Y183016D01*
X54016D01*
X53000Y184032D01*
X51984Y183016D01*
X50968D01*
X51984Y182000D01*
X50968Y180984D01*
X51984D01*
X53000Y179968D01*
Y164968D02*
X54016Y165984D01*
X55032D01*
X54016Y167000D01*
X55032Y168016D01*
X54016D01*
X53000Y169032D01*
X51984Y168016D01*
X50968D01*
X51984Y167000D01*
X50968Y165984D01*
X51984D01*
X53000Y164968D01*
Y149968D02*
X54016Y150984D01*
X55032D01*
X54016Y152000D01*
X55032Y153016D01*
X54016D01*
X53000Y154032D01*
X51984Y153016D01*
X50968D01*
X51984Y152000D01*
X50968Y150984D01*
X51984D01*
X53000Y149968D01*
Y89968D02*
X54016Y90984D01*
X55032D01*
X54016Y92000D01*
X55032Y93016D01*
X54016D01*
X53000Y94032D01*
X51984Y93016D01*
X50968D01*
X51984Y92000D01*
X50968Y90984D01*
X51984D01*
X53000Y89968D01*
Y74968D02*
X54016Y75984D01*
X55032D01*
X54016Y77000D01*
X55032Y78016D01*
X54016D01*
X53000Y79032D01*
X51984Y78016D01*
X50968D01*
X51984Y77000D01*
X50968Y75984D01*
X51984D01*
X53000Y74968D01*
Y59968D02*
X54016Y60984D01*
X55032D01*
X54016Y62000D01*
X55032Y63016D01*
X54016D01*
X53000Y64032D01*
X51984Y63016D01*
X50968D01*
X51984Y62000D01*
X50968Y60984D01*
X51984D01*
X53000Y59968D01*
Y44968D02*
X54016Y45984D01*
X55032D01*
X54016Y47000D01*
X55032Y48016D01*
X54016D01*
X53000Y49032D01*
X51984Y48016D01*
X50968D01*
X51984Y47000D01*
X50968Y45984D01*
X51984D01*
X53000Y44968D01*
Y29968D02*
X54016Y30984D01*
X55032D01*
X54016Y32000D01*
X55032Y33016D01*
X54016D01*
X53000Y34032D01*
X51984Y33016D01*
X50968D01*
X51984Y32000D01*
X50968Y30984D01*
X51984D01*
X53000Y29968D01*
X38000Y209968D02*
X39016Y210984D01*
X40032D01*
X39016Y212000D01*
X40032Y213016D01*
X39016D01*
X38000Y214032D01*
X36984Y213016D01*
X35968D01*
X36984Y212000D01*
X35968Y210984D01*
X36984D01*
X38000Y209968D01*
Y194968D02*
X39016Y195984D01*
X40032D01*
X39016Y197000D01*
X40032Y198016D01*
X39016D01*
X38000Y199032D01*
X36984Y198016D01*
X35968D01*
X36984Y197000D01*
X35968Y195984D01*
X36984D01*
X38000Y194968D01*
Y179968D02*
X39016Y180984D01*
X40032D01*
X39016Y182000D01*
X40032Y183016D01*
X39016D01*
X38000Y184032D01*
X36984Y183016D01*
X35968D01*
X36984Y182000D01*
X35968Y180984D01*
X36984D01*
X38000Y179968D01*
Y164968D02*
X39016Y165984D01*
X40032D01*
X39016Y167000D01*
X40032Y168016D01*
X39016D01*
X38000Y169032D01*
X36984Y168016D01*
X35968D01*
X36984Y167000D01*
X35968Y165984D01*
X36984D01*
X38000Y164968D01*
Y74968D02*
X39016Y75984D01*
X40032D01*
X39016Y77000D01*
X40032Y78016D01*
X39016D01*
X38000Y79032D01*
X36984Y78016D01*
X35968D01*
X36984Y77000D01*
X35968Y75984D01*
X36984D01*
X38000Y74968D01*
Y59968D02*
X39016Y60984D01*
X40032D01*
X39016Y62000D01*
X40032Y63016D01*
X39016D01*
X38000Y64032D01*
X36984Y63016D01*
X35968D01*
X36984Y62000D01*
X35968Y60984D01*
X36984D01*
X38000Y59968D01*
Y44968D02*
X39016Y45984D01*
X40032D01*
X39016Y47000D01*
X40032Y48016D01*
X39016D01*
X38000Y49032D01*
X36984Y48016D01*
X35968D01*
X36984Y47000D01*
X35968Y45984D01*
X36984D01*
X38000Y44968D01*
X23000Y209968D02*
X24016Y210984D01*
X25032D01*
X24016Y212000D01*
X25032Y213016D01*
X24016D01*
X23000Y214032D01*
X21984Y213016D01*
X20968D01*
X21984Y212000D01*
X20968Y210984D01*
X21984D01*
X23000Y209968D01*
Y194968D02*
X24016Y195984D01*
X25032D01*
X24016Y197000D01*
X25032Y198016D01*
X24016D01*
X23000Y199032D01*
X21984Y198016D01*
X20968D01*
X21984Y197000D01*
X20968Y195984D01*
X21984D01*
X23000Y194968D01*
Y179968D02*
X24016Y180984D01*
X25032D01*
X24016Y182000D01*
X25032Y183016D01*
X24016D01*
X23000Y184032D01*
X21984Y183016D01*
X20968D01*
X21984Y182000D01*
X20968Y180984D01*
X21984D01*
X23000Y179968D01*
Y164968D02*
X24016Y165984D01*
X25032D01*
X24016Y167000D01*
X25032Y168016D01*
X24016D01*
X23000Y169032D01*
X21984Y168016D01*
X20968D01*
X21984Y167000D01*
X20968Y165984D01*
X21984D01*
X23000Y164968D01*
Y74968D02*
X24016Y75984D01*
X25032D01*
X24016Y77000D01*
X25032Y78016D01*
X24016D01*
X23000Y79032D01*
X21984Y78016D01*
X20968D01*
X21984Y77000D01*
X20968Y75984D01*
X21984D01*
X23000Y74968D01*
Y59968D02*
X24016Y60984D01*
X25032D01*
X24016Y62000D01*
X25032Y63016D01*
X24016D01*
X23000Y64032D01*
X21984Y63016D01*
X20968D01*
X21984Y62000D01*
X20968Y60984D01*
X21984D01*
X23000Y59968D01*
Y44968D02*
X24016Y45984D01*
X25032D01*
X24016Y47000D01*
X25032Y48016D01*
X24016D01*
X23000Y49032D01*
X21984Y48016D01*
X20968D01*
X21984Y47000D01*
X20968Y45984D01*
X21984D01*
X23000Y44968D01*
X8000Y209968D02*
X9016Y210984D01*
X10032D01*
X9016Y212000D01*
X10032Y213016D01*
X9016D01*
X8000Y214032D01*
X6984Y213016D01*
X5968D01*
X6984Y212000D01*
X5968Y210984D01*
X6984D01*
X8000Y209968D01*
Y194968D02*
X9016Y195984D01*
X10032D01*
X9016Y197000D01*
X10032Y198016D01*
X9016D01*
X8000Y199032D01*
X6984Y198016D01*
X5968D01*
X6984Y197000D01*
X5968Y195984D01*
X6984D01*
X8000Y194968D01*
Y179968D02*
X9016Y180984D01*
X10032D01*
X9016Y182000D01*
X10032Y183016D01*
X9016D01*
X8000Y184032D01*
X6984Y183016D01*
X5968D01*
X6984Y182000D01*
X5968Y180984D01*
X6984D01*
X8000Y179968D01*
Y164968D02*
X9016Y165984D01*
X10032D01*
X9016Y167000D01*
X10032Y168016D01*
X9016D01*
X8000Y169032D01*
X6984Y168016D01*
X5968D01*
X6984Y167000D01*
X5968Y165984D01*
X6984D01*
X8000Y164968D01*
Y119968D02*
X9016Y120984D01*
X10032D01*
X9016Y122000D01*
X10032Y123016D01*
X9016D01*
X8000Y124032D01*
X6984Y123016D01*
X5968D01*
X6984Y122000D01*
X5968Y120984D01*
X6984D01*
X8000Y119968D01*
Y104968D02*
X9016Y105984D01*
X10032D01*
X9016Y107000D01*
X10032Y108016D01*
X9016D01*
X8000Y109032D01*
X6984Y108016D01*
X5968D01*
X6984Y107000D01*
X5968Y105984D01*
X6984D01*
X8000Y104968D01*
Y89968D02*
X9016Y90984D01*
X10032D01*
X9016Y92000D01*
X10032Y93016D01*
X9016D01*
X8000Y94032D01*
X6984Y93016D01*
X5968D01*
X6984Y92000D01*
X5968Y90984D01*
X6984D01*
X8000Y89968D01*
Y74968D02*
X9016Y75984D01*
X10032D01*
X9016Y77000D01*
X10032Y78016D01*
X9016D01*
X8000Y79032D01*
X6984Y78016D01*
X5968D01*
X6984Y77000D01*
X5968Y75984D01*
X6984D01*
X8000Y74968D01*
Y59968D02*
X9016Y60984D01*
X10032D01*
X9016Y62000D01*
X10032Y63016D01*
X9016D01*
X8000Y64032D01*
X6984Y63016D01*
X5968D01*
X6984Y62000D01*
X5968Y60984D01*
X6984D01*
X8000Y59968D01*
Y44968D02*
X9016Y45984D01*
X10032D01*
X9016Y47000D01*
X10032Y48016D01*
X9016D01*
X8000Y49032D01*
X6984Y48016D01*
X5968D01*
X6984Y47000D01*
X5968Y45984D01*
X6984D01*
X8000Y44968D01*
X310000Y147968D02*
X311016Y148984D01*
X312032D01*
X311016Y150000D01*
X312032Y151016D01*
X311016D01*
X310000Y152032D01*
X308984Y151016D01*
X307968D01*
X308984Y150000D01*
X307968Y148984D01*
X308984D01*
X310000Y147968D01*
X253943Y125025D02*
X254959Y126041D01*
X255975D01*
X254959Y127057D01*
X255975Y128073D01*
X254959D01*
X253943Y129089D01*
X252927Y128073D01*
X251911D01*
X252927Y127057D01*
X251911Y126041D01*
X252927D01*
X253943Y125025D01*
X298000Y151968D02*
X299016Y152984D01*
X300032D01*
X299016Y154000D01*
X300032Y155016D01*
X299016D01*
X298000Y156032D01*
X296984Y155016D01*
X295968D01*
X296984Y154000D01*
X295968Y152984D01*
X296984D01*
X298000Y151968D01*
X149000Y77968D02*
X150016Y78984D01*
X151032D01*
X150016Y80000D01*
X151032Y81016D01*
X150016D01*
X149000Y82032D01*
X147984Y81016D01*
X146968D01*
X147984Y80000D01*
X146968Y78984D01*
X147984D01*
X149000Y77968D01*
X321000Y156968D02*
X322016Y157984D01*
X323032D01*
X322016Y159000D01*
X323032Y160016D01*
X322016D01*
X321000Y161032D01*
X319984Y160016D01*
X318968D01*
X319984Y159000D01*
X318968Y157984D01*
X319984D01*
X321000Y156968D01*
X306000Y63968D02*
X307016Y64984D01*
X308032D01*
X307016Y66000D01*
X308032Y67016D01*
X307016D01*
X306000Y68032D01*
X304984Y67016D01*
X303968D01*
X304984Y66000D01*
X303968Y64984D01*
X304984D01*
X306000Y63968D01*
X156000Y64968D02*
X157016Y65984D01*
X158032D01*
X157016Y67000D01*
X158032Y68016D01*
X157016D01*
X156000Y69032D01*
X154984Y68016D01*
X153968D01*
X154984Y67000D01*
X153968Y65984D01*
X154984D01*
X156000Y64968D01*
X217000Y161968D02*
X218016Y162984D01*
X219032D01*
X218016Y164000D01*
X219032Y165016D01*
X218016D01*
X217000Y166032D01*
X215984Y165016D01*
X214968D01*
X215984Y164000D01*
X214968Y162984D01*
X215984D01*
X217000Y161968D01*
X183000Y160968D02*
X184016Y161984D01*
X185032D01*
X184016Y163000D01*
X185032Y164016D01*
X184016D01*
X183000Y165032D01*
X181984Y164016D01*
X180968D01*
X181984Y163000D01*
X180968Y161984D01*
X181984D01*
X183000Y160968D01*
X48000Y133968D02*
X49016Y134984D01*
X50032D01*
X49016Y136000D01*
X50032Y137016D01*
X49016D01*
X48000Y138032D01*
X46984Y137016D01*
X45968D01*
X46984Y136000D01*
X45968Y134984D01*
X46984D01*
X48000Y133968D01*
X111760Y110236D02*
X112776Y111252D01*
X113792D01*
X112776Y112268D01*
X113792Y113284D01*
X112776D01*
X111760Y114300D01*
X110744Y113284D01*
X109728D01*
X110744Y112268D01*
X109728Y111252D01*
X110744D01*
X111760Y110236D01*
X18796Y144526D02*
X19812Y145542D01*
X20828D01*
X19812Y146558D01*
X20828Y147574D01*
X19812D01*
X18796Y148590D01*
X17780Y147574D01*
X16764D01*
X17780Y146558D01*
X16764Y145542D01*
X17780D01*
X18796Y144526D01*
X47700Y121568D02*
X48716Y122584D01*
X49732D01*
X48716Y123600D01*
X49732Y124616D01*
X48716D01*
X47700Y125632D01*
X46684Y124616D01*
X45668D01*
X46684Y123600D01*
X45668Y122584D01*
X46684D01*
X47700Y121568D01*
D56*
X113132Y41700D02*
G03*
X113132Y41700I-2032J0D01*
G01*
X138532D02*
G03*
X138532Y41700I-2032J0D01*
G01*
X240132D02*
G03*
X240132Y41700I-2032J0D01*
G01*
X290932D02*
G03*
X290932Y41700I-2032J0D01*
G01*
X265532D02*
G03*
X265532Y41700I-2032J0D01*
G01*
X214732D02*
G03*
X214732Y41700I-2032J0D01*
G01*
X189332D02*
G03*
X189332Y41700I-2032J0D01*
G01*
X163932D02*
G03*
X163932Y41700I-2032J0D01*
G01*
M02*
