G04*
G04 #@! TF.GenerationSoftware,Altium Limited,Altium Designer,21.6.4 (81)*
G04*
G04 Layer_Physical_Order=4*
G04 Layer_Color=16711680*
%FSLAX44Y44*%
%MOMM*%
G71*
G04*
G04 #@! TF.SameCoordinates,1B3A0675-FE53-4D0F-B245-581B64E9A93D*
G04*
G04*
G04 #@! TF.FilePolarity,Positive*
G04*
G01*
G75*
%ADD44C,0.1520*%
%ADD45C,0.3500*%
%ADD46C,0.9000*%
%ADD47C,1.6500*%
%ADD48R,1.6500X1.6500*%
%ADD49C,3.4000*%
%ADD50C,0.6000*%
G36*
X395922Y4078D02*
X4078Y4078D01*
Y215922D01*
X160000D01*
Y188000D01*
X240000D01*
Y215922D01*
X395922D01*
Y4078D01*
D02*
G37*
%LPC*%
G36*
X217000Y168354D02*
X215334Y168022D01*
X213922Y167078D01*
X212978Y165666D01*
X212646Y164000D01*
X212883Y162810D01*
X209143Y159070D01*
X186916D01*
X186358Y160340D01*
X187022Y161334D01*
X187354Y163000D01*
X187022Y164666D01*
X186078Y166078D01*
X184666Y167022D01*
X183000Y167354D01*
X181334Y167022D01*
X179921Y166078D01*
X179247Y165070D01*
X82000D01*
X81208Y164912D01*
X80536Y164464D01*
X54143Y138070D01*
X51753D01*
X51079Y139079D01*
X49666Y140022D01*
X48000Y140354D01*
X46334Y140022D01*
X44921Y139079D01*
X43978Y137666D01*
X43646Y136000D01*
X43978Y134334D01*
X44921Y132921D01*
X46334Y131978D01*
X48000Y131646D01*
X49666Y131978D01*
X51079Y132921D01*
X51753Y133930D01*
X53307D01*
X53833Y132660D01*
X48890Y127717D01*
X47700Y127954D01*
X46034Y127622D01*
X44622Y126678D01*
X43678Y125266D01*
X43346Y123600D01*
X43602Y122315D01*
X42432Y121689D01*
X21875Y142246D01*
Y143481D01*
X22818Y144892D01*
X23150Y146558D01*
X22818Y148224D01*
X21874Y149636D01*
X20462Y150580D01*
X18796Y150912D01*
X17130Y150580D01*
X15718Y149636D01*
X14774Y148224D01*
X14442Y146558D01*
X14774Y144892D01*
X15717Y143481D01*
Y140970D01*
X15951Y139792D01*
X16619Y138793D01*
X81757Y73655D01*
Y46164D01*
X81991Y44986D01*
X82659Y43987D01*
X107233Y19413D01*
X108232Y18745D01*
X109410Y18511D01*
X268790D01*
X269968Y18745D01*
X270967Y19413D01*
X283735Y32180D01*
X298420D01*
Y46865D01*
X300177Y48623D01*
X300845Y49622D01*
X301079Y50800D01*
Y63393D01*
X302349Y63778D01*
X302922Y62922D01*
X304334Y61978D01*
X306000Y61646D01*
X307666Y61978D01*
X309079Y62922D01*
X310022Y64334D01*
X310354Y66000D01*
X310022Y67666D01*
X309079Y69078D01*
X308070Y69752D01*
Y144967D01*
X309053Y145835D01*
X310000Y145646D01*
X311666Y145978D01*
X313078Y146922D01*
X314022Y148334D01*
X314354Y150000D01*
X314022Y151666D01*
X313078Y153078D01*
X311666Y154022D01*
X310000Y154354D01*
X308334Y154022D01*
X306922Y153078D01*
X305978Y151666D01*
X305646Y150000D01*
X305883Y148810D01*
X304536Y147464D01*
X304088Y146792D01*
X303930Y146000D01*
Y69752D01*
X302922Y69078D01*
X302349Y68222D01*
X301079Y68607D01*
Y150922D01*
X302022Y152334D01*
X302353Y153999D01*
X304275Y155921D01*
X317922D01*
X319334Y154978D01*
X321000Y154646D01*
X322666Y154978D01*
X324078Y155921D01*
X325022Y157334D01*
X325354Y159000D01*
X325022Y160666D01*
X324078Y162078D01*
X322666Y163022D01*
X321000Y163354D01*
X319334Y163022D01*
X317922Y162079D01*
X303000D01*
X301822Y161845D01*
X300823Y161177D01*
X300823Y161177D01*
X297999Y158353D01*
X296334Y158022D01*
X294921Y157079D01*
X293978Y155666D01*
X293646Y154000D01*
X293978Y152334D01*
X294921Y150922D01*
Y52075D01*
X294065Y51220D01*
X279380D01*
Y36535D01*
X267515Y24669D01*
X110686D01*
X87915Y47439D01*
Y74930D01*
X87681Y76108D01*
X87013Y77107D01*
X45789Y118332D01*
X46415Y119502D01*
X47700Y119246D01*
X49366Y119578D01*
X50778Y120521D01*
X51722Y121934D01*
X52054Y123600D01*
X51817Y124790D01*
X81957Y154930D01*
X210000D01*
X210792Y155088D01*
X211464Y155536D01*
X215810Y159883D01*
X217000Y159646D01*
X218666Y159978D01*
X220079Y160921D01*
X221022Y162334D01*
X221354Y164000D01*
X221022Y165666D01*
X220079Y167078D01*
X218666Y168022D01*
X217000Y168354D01*
D02*
G37*
G36*
X31000Y155367D02*
X28563Y154883D01*
X26498Y153502D01*
X25117Y151437D01*
X24633Y149000D01*
X25117Y146563D01*
X26498Y144498D01*
X28563Y143117D01*
X31000Y142633D01*
X33437Y143117D01*
X35502Y144498D01*
X36883Y146563D01*
X37367Y149000D01*
X36883Y151437D01*
X35502Y153502D01*
X33437Y154883D01*
X31000Y155367D01*
D02*
G37*
G36*
X253943Y131410D02*
X252277Y131079D01*
X250865Y130135D01*
X249921Y128723D01*
X249590Y127057D01*
X249845Y125772D01*
X244408Y120336D01*
X243960Y119664D01*
X243802Y118872D01*
Y69937D01*
X240935Y67070D01*
X172857D01*
X166464Y73464D01*
X166464Y73464D01*
X151464Y88464D01*
X150792Y88912D01*
X150000Y89070D01*
X128233D01*
X113830Y103473D01*
Y108516D01*
X114838Y109190D01*
X115782Y110602D01*
X116114Y112268D01*
X115782Y113934D01*
X114838Y115346D01*
X113426Y116290D01*
X111760Y116622D01*
X110094Y116290D01*
X108681Y115346D01*
X107738Y113934D01*
X107406Y112268D01*
X107738Y110602D01*
X108681Y109190D01*
X109690Y108516D01*
Y102616D01*
X109848Y101824D01*
X110296Y101152D01*
X125912Y85536D01*
X126584Y85088D01*
X127376Y84930D01*
X146407D01*
X146792Y83660D01*
X145921Y83078D01*
X144978Y81666D01*
X144646Y80000D01*
X144978Y78334D01*
X145921Y76922D01*
X146930Y76248D01*
Y55057D01*
X141634Y49761D01*
X141301Y50016D01*
X138985Y50975D01*
X136500Y51302D01*
X134015Y50975D01*
X131699Y50016D01*
X129710Y48490D01*
X128184Y46501D01*
X127225Y44185D01*
X126898Y41700D01*
X127225Y39215D01*
X128184Y36899D01*
X129710Y34910D01*
X131699Y33384D01*
X134015Y32425D01*
X136500Y32098D01*
X138985Y32425D01*
X141301Y33384D01*
X143290Y34910D01*
X144816Y36899D01*
X145775Y39215D01*
X146102Y41700D01*
X145775Y44185D01*
X144816Y46501D01*
X144561Y46834D01*
X150464Y52736D01*
X150912Y53408D01*
X151070Y54200D01*
Y64407D01*
X152340Y64792D01*
X152921Y63921D01*
X153930Y63247D01*
Y51194D01*
X154088Y50402D01*
X154536Y49731D01*
X155151Y49116D01*
X155110Y48490D01*
X153584Y46501D01*
X152625Y44185D01*
X152298Y41700D01*
X152625Y39215D01*
X153584Y36899D01*
X155110Y34910D01*
X157099Y33384D01*
X159415Y32425D01*
X161900Y32098D01*
X164385Y32425D01*
X166701Y33384D01*
X168690Y34910D01*
X170216Y36899D01*
X171175Y39215D01*
X171502Y41700D01*
X171175Y44185D01*
X170216Y46501D01*
X168690Y48490D01*
X166701Y50016D01*
X164385Y50975D01*
X161900Y51302D01*
X159415Y50975D01*
X159225Y50896D01*
X158070Y52051D01*
Y63247D01*
X159079Y63921D01*
X160022Y65334D01*
X160354Y67000D01*
X160022Y68666D01*
X159079Y70079D01*
X157666Y71022D01*
X156000Y71354D01*
X154334Y71022D01*
X152921Y70079D01*
X152340Y69208D01*
X151070Y69593D01*
Y76248D01*
X152079Y76922D01*
X153022Y78334D01*
X153175Y79102D01*
X154553Y79520D01*
X163536Y70536D01*
X163536Y70536D01*
X170536Y63536D01*
X171208Y63088D01*
X172000Y62930D01*
X241792D01*
X242584Y63088D01*
X243256Y63536D01*
X247335Y67617D01*
X247784Y68288D01*
X247942Y69080D01*
Y118015D01*
X252848Y122921D01*
X253943Y122703D01*
X255609Y123034D01*
X257022Y123978D01*
X257966Y125391D01*
X258297Y127057D01*
X257966Y128723D01*
X257022Y130135D01*
X255609Y131079D01*
X253943Y131410D01*
D02*
G37*
G36*
X41160Y104567D02*
X38723Y104083D01*
X36658Y102702D01*
X35277Y100637D01*
X34793Y98200D01*
X35277Y95763D01*
X36658Y93698D01*
X38723Y92317D01*
X41160Y91833D01*
X43597Y92317D01*
X45662Y93698D01*
X47043Y95763D01*
X47527Y98200D01*
X47043Y100637D01*
X45662Y102702D01*
X43597Y104083D01*
X41160Y104567D01*
D02*
G37*
G36*
X20840D02*
X18403Y104083D01*
X16338Y102702D01*
X14957Y100637D01*
X14473Y98200D01*
X14957Y95763D01*
X16338Y93698D01*
X18403Y92317D01*
X20840Y91833D01*
X23277Y92317D01*
X25342Y93698D01*
X26723Y95763D01*
X27207Y98200D01*
X26723Y100637D01*
X25342Y102702D01*
X23277Y104083D01*
X20840Y104567D01*
D02*
G37*
G36*
X111862Y51202D02*
Y42462D01*
X120602D01*
X120375Y44185D01*
X119416Y46501D01*
X117890Y48490D01*
X115901Y50016D01*
X113585Y50975D01*
X111862Y51202D01*
D02*
G37*
G36*
X110338D02*
X108615Y50975D01*
X106299Y50016D01*
X104310Y48490D01*
X102784Y46501D01*
X101825Y44185D01*
X101598Y42462D01*
X110338D01*
Y51202D01*
D02*
G37*
G36*
X120602Y40938D02*
X111862D01*
Y32198D01*
X113585Y32425D01*
X115901Y33384D01*
X117890Y34910D01*
X119416Y36899D01*
X120375Y39215D01*
X120602Y40938D01*
D02*
G37*
G36*
X110338D02*
X101598D01*
X101825Y39215D01*
X102784Y36899D01*
X104310Y34910D01*
X106299Y33384D01*
X108615Y32425D01*
X110338Y32198D01*
Y40938D01*
D02*
G37*
G36*
X263500Y51302D02*
X261015Y50975D01*
X258699Y50016D01*
X256710Y48490D01*
X255184Y46501D01*
X254225Y44185D01*
X253898Y41700D01*
X254225Y39215D01*
X255184Y36899D01*
X256710Y34910D01*
X258699Y33384D01*
X261015Y32425D01*
X263500Y32098D01*
X265985Y32425D01*
X268301Y33384D01*
X270290Y34910D01*
X271816Y36899D01*
X272775Y39215D01*
X273102Y41700D01*
X272775Y44185D01*
X271816Y46501D01*
X270290Y48490D01*
X268301Y50016D01*
X265985Y50975D01*
X263500Y51302D01*
D02*
G37*
G36*
X238100D02*
X235615Y50975D01*
X233299Y50016D01*
X231310Y48490D01*
X229784Y46501D01*
X228825Y44185D01*
X228498Y41700D01*
X228825Y39215D01*
X229784Y36899D01*
X231310Y34910D01*
X233299Y33384D01*
X235615Y32425D01*
X238100Y32098D01*
X240585Y32425D01*
X242901Y33384D01*
X244890Y34910D01*
X246416Y36899D01*
X247375Y39215D01*
X247702Y41700D01*
X247375Y44185D01*
X246416Y46501D01*
X244890Y48490D01*
X242901Y50016D01*
X240585Y50975D01*
X238100Y51302D01*
D02*
G37*
G36*
X212700D02*
X210215Y50975D01*
X207899Y50016D01*
X205910Y48490D01*
X204384Y46501D01*
X203425Y44185D01*
X203098Y41700D01*
X203425Y39215D01*
X204384Y36899D01*
X205910Y34910D01*
X207899Y33384D01*
X210215Y32425D01*
X212700Y32098D01*
X215185Y32425D01*
X217501Y33384D01*
X219490Y34910D01*
X221016Y36899D01*
X221975Y39215D01*
X222302Y41700D01*
X221975Y44185D01*
X221016Y46501D01*
X219490Y48490D01*
X217501Y50016D01*
X215185Y50975D01*
X212700Y51302D01*
D02*
G37*
G36*
X187300D02*
X184815Y50975D01*
X182499Y50016D01*
X180510Y48490D01*
X178984Y46501D01*
X178025Y44185D01*
X177698Y41700D01*
X178025Y39215D01*
X178984Y36899D01*
X180510Y34910D01*
X182499Y33384D01*
X184815Y32425D01*
X187300Y32098D01*
X189785Y32425D01*
X192101Y33384D01*
X194090Y34910D01*
X195616Y36899D01*
X196575Y39215D01*
X196902Y41700D01*
X196575Y44185D01*
X195616Y46501D01*
X194090Y48490D01*
X192101Y50016D01*
X189785Y50975D01*
X187300Y51302D01*
D02*
G37*
G36*
X375762Y43283D02*
Y25762D01*
X393283D01*
X393006Y28582D01*
X391961Y32025D01*
X390264Y35199D01*
X387981Y37981D01*
X385199Y40264D01*
X382025Y41961D01*
X378582Y43006D01*
X375762Y43283D01*
D02*
G37*
G36*
X374238D02*
X371418Y43006D01*
X367975Y41961D01*
X364801Y40264D01*
X362019Y37981D01*
X359736Y35199D01*
X358039Y32025D01*
X356994Y28582D01*
X356717Y25762D01*
X374238D01*
Y43283D01*
D02*
G37*
G36*
X25762D02*
Y25762D01*
X43283D01*
X43006Y28582D01*
X41961Y32025D01*
X40264Y35199D01*
X37981Y37981D01*
X35199Y40264D01*
X32025Y41961D01*
X28582Y43006D01*
X25762Y43283D01*
D02*
G37*
G36*
X24238D02*
X21418Y43006D01*
X17975Y41961D01*
X14801Y40264D01*
X12019Y37981D01*
X9736Y35199D01*
X8039Y32025D01*
X6994Y28582D01*
X6717Y25762D01*
X24238D01*
Y43283D01*
D02*
G37*
G36*
X343000Y22000D02*
X315000D01*
Y9000D01*
X343000D01*
Y22000D01*
D02*
G37*
G36*
X393283Y24238D02*
X375762D01*
Y6717D01*
X378582Y6994D01*
X382025Y8039D01*
X385199Y9736D01*
X387981Y12019D01*
X390264Y14801D01*
X391961Y17975D01*
X393006Y21418D01*
X393283Y24238D01*
D02*
G37*
G36*
X374238D02*
X356717D01*
X356994Y21418D01*
X358039Y17975D01*
X359736Y14801D01*
X362019Y12019D01*
X364801Y9736D01*
X367975Y8039D01*
X371418Y6994D01*
X374238Y6717D01*
Y24238D01*
D02*
G37*
G36*
X43283D02*
X25762D01*
Y6717D01*
X28582Y6994D01*
X32025Y8039D01*
X35199Y9736D01*
X37981Y12019D01*
X40264Y14801D01*
X41961Y17975D01*
X43006Y21418D01*
X43283Y24238D01*
D02*
G37*
G36*
X24238D02*
X6717D01*
X6994Y21418D01*
X8039Y17975D01*
X9736Y14801D01*
X12019Y12019D01*
X14801Y9736D01*
X17975Y8039D01*
X21418Y6994D01*
X24238Y6717D01*
Y24238D01*
D02*
G37*
%LPD*%
G36*
X334272Y11135D02*
X333198D01*
Y13951D01*
X331872Y15230D01*
X328979Y11135D01*
X327560D01*
X331121Y15958D01*
X327706Y19255D01*
X329167D01*
X333198Y15224D01*
Y19255D01*
X334272D01*
Y11135D01*
D02*
G37*
G36*
X340579D02*
X335510D01*
Y12091D01*
X339506D01*
Y19255D01*
X340579D01*
Y11135D01*
D02*
G37*
G36*
X326486D02*
X325412D01*
Y19255D01*
X326486D01*
Y11135D01*
D02*
G37*
G36*
X320871Y19390D02*
X321017Y19384D01*
X321158Y19373D01*
X321299Y19355D01*
X321428Y19332D01*
X321551Y19308D01*
X321663Y19285D01*
X321768Y19255D01*
X321868Y19232D01*
X321956Y19203D01*
X322027Y19179D01*
X322091Y19162D01*
X322144Y19138D01*
X322179Y19126D01*
X322203Y19121D01*
X322209Y19115D01*
X322332Y19062D01*
X322443Y19003D01*
X322549Y18939D01*
X322649Y18874D01*
X322742Y18804D01*
X322825Y18739D01*
X322901Y18669D01*
X322965Y18604D01*
X323024Y18546D01*
X323077Y18487D01*
X323124Y18440D01*
X323159Y18393D01*
X323188Y18358D01*
X323206Y18328D01*
X323218Y18311D01*
X323223Y18305D01*
X323282Y18205D01*
X323335Y18100D01*
X323382Y18000D01*
X323423Y17900D01*
X323458Y17800D01*
X323488Y17706D01*
X323505Y17618D01*
X323529Y17530D01*
X323540Y17448D01*
X323552Y17378D01*
X323558Y17313D01*
X323564Y17261D01*
X323570Y17214D01*
Y17184D01*
Y17161D01*
Y17155D01*
X323564Y17049D01*
X323558Y16949D01*
X323523Y16762D01*
X323482Y16592D01*
X323452Y16515D01*
X323429Y16439D01*
X323400Y16374D01*
X323376Y16316D01*
X323353Y16269D01*
X323329Y16228D01*
X323312Y16193D01*
X323300Y16169D01*
X323294Y16152D01*
X323288Y16146D01*
X323229Y16064D01*
X323171Y15981D01*
X323030Y15835D01*
X322889Y15706D01*
X322748Y15600D01*
X322678Y15553D01*
X322619Y15512D01*
X322561Y15471D01*
X322514Y15442D01*
X322472Y15418D01*
X322443Y15401D01*
X322426Y15395D01*
X322420Y15389D01*
X322326Y15342D01*
X322226Y15301D01*
X322109Y15254D01*
X321986Y15207D01*
X321727Y15119D01*
X321469Y15043D01*
X321352Y15007D01*
X321235Y14978D01*
X321129Y14949D01*
X321041Y14925D01*
X320965Y14908D01*
X320906Y14890D01*
X320888Y14884D01*
X320871D01*
X320865Y14878D01*
X320859D01*
X320659Y14831D01*
X320478Y14784D01*
X320307Y14743D01*
X320161Y14702D01*
X320026Y14667D01*
X319909Y14638D01*
X319809Y14609D01*
X319715Y14579D01*
X319639Y14556D01*
X319574Y14538D01*
X319527Y14520D01*
X319486Y14509D01*
X319451Y14497D01*
X319433Y14491D01*
X319422Y14485D01*
X319416D01*
X319322Y14444D01*
X319240Y14409D01*
X319157Y14368D01*
X319087Y14327D01*
X319017Y14286D01*
X318958Y14245D01*
X318905Y14204D01*
X318858Y14168D01*
X318817Y14133D01*
X318782Y14098D01*
X318723Y14045D01*
X318694Y14010D01*
X318682Y14004D01*
Y13998D01*
X318606Y13887D01*
X318547Y13775D01*
X318506Y13664D01*
X318483Y13564D01*
X318465Y13470D01*
X318459Y13435D01*
Y13400D01*
X318453Y13370D01*
Y13353D01*
Y13341D01*
Y13335D01*
X318465Y13200D01*
X318489Y13065D01*
X318530Y12948D01*
X318571Y12848D01*
X318612Y12760D01*
X318635Y12725D01*
X318653Y12696D01*
X318665Y12672D01*
X318676Y12655D01*
X318688Y12643D01*
Y12637D01*
X318782Y12526D01*
X318893Y12426D01*
X319011Y12338D01*
X319122Y12267D01*
X319228Y12215D01*
X319269Y12191D01*
X319310Y12174D01*
X319339Y12156D01*
X319363Y12144D01*
X319380Y12138D01*
X319386D01*
X319568Y12080D01*
X319750Y12033D01*
X319932Y12003D01*
X320102Y11980D01*
X320178Y11974D01*
X320249Y11968D01*
X320307Y11962D01*
X320360D01*
X320407Y11956D01*
X320466D01*
X320718Y11968D01*
X320953Y11992D01*
X321064Y12015D01*
X321164Y12033D01*
X321264Y12056D01*
X321352Y12080D01*
X321428Y12097D01*
X321504Y12121D01*
X321563Y12144D01*
X321616Y12162D01*
X321657Y12174D01*
X321692Y12185D01*
X321710Y12197D01*
X321716D01*
X321815Y12244D01*
X321909Y12291D01*
X321997Y12344D01*
X322074Y12396D01*
X322150Y12449D01*
X322214Y12502D01*
X322279Y12555D01*
X322332Y12602D01*
X322379Y12649D01*
X322420Y12690D01*
X322455Y12725D01*
X322478Y12760D01*
X322502Y12790D01*
X322519Y12807D01*
X322525Y12819D01*
X322531Y12825D01*
X322619Y12983D01*
X322690Y13147D01*
X322748Y13318D01*
X322789Y13476D01*
X322807Y13552D01*
X322825Y13617D01*
X322836Y13681D01*
X322842Y13734D01*
X322854Y13775D01*
Y13805D01*
X322860Y13828D01*
Y13834D01*
X323875Y13746D01*
X323869Y13593D01*
X323851Y13447D01*
X323828Y13306D01*
X323798Y13171D01*
X323763Y13048D01*
X323728Y12924D01*
X323687Y12813D01*
X323646Y12707D01*
X323611Y12614D01*
X323570Y12531D01*
X323535Y12461D01*
X323499Y12396D01*
X323476Y12349D01*
X323452Y12314D01*
X323441Y12291D01*
X323435Y12285D01*
X323353Y12168D01*
X323265Y12056D01*
X323171Y11956D01*
X323071Y11862D01*
X322977Y11774D01*
X322877Y11692D01*
X322784Y11622D01*
X322690Y11557D01*
X322607Y11505D01*
X322525Y11452D01*
X322455Y11411D01*
X322390Y11375D01*
X322338Y11352D01*
X322302Y11334D01*
X322273Y11323D01*
X322267Y11317D01*
X322126Y11264D01*
X321974Y11211D01*
X321821Y11170D01*
X321663Y11135D01*
X321352Y11076D01*
X321205Y11059D01*
X321064Y11041D01*
X320929Y11029D01*
X320806Y11018D01*
X320695Y11012D01*
X320601Y11006D01*
X320524Y11000D01*
X320419D01*
X320261Y11006D01*
X320102Y11012D01*
X319949Y11029D01*
X319809Y11047D01*
X319674Y11076D01*
X319545Y11100D01*
X319422Y11129D01*
X319310Y11158D01*
X319210Y11188D01*
X319122Y11217D01*
X319046Y11246D01*
X318981Y11270D01*
X318929Y11287D01*
X318888Y11305D01*
X318864Y11311D01*
X318858Y11317D01*
X318729Y11381D01*
X318612Y11446D01*
X318500Y11516D01*
X318400Y11587D01*
X318307Y11663D01*
X318219Y11739D01*
X318137Y11810D01*
X318066Y11880D01*
X318001Y11945D01*
X317949Y12003D01*
X317902Y12062D01*
X317867Y12109D01*
X317837Y12150D01*
X317814Y12179D01*
X317802Y12197D01*
X317796Y12203D01*
X317732Y12314D01*
X317673Y12420D01*
X317620Y12531D01*
X317579Y12637D01*
X317544Y12743D01*
X317515Y12842D01*
X317485Y12942D01*
X317468Y13030D01*
X317450Y13118D01*
X317438Y13194D01*
X317432Y13259D01*
X317426Y13318D01*
X317421Y13365D01*
Y13400D01*
Y13423D01*
Y13429D01*
X317426Y13552D01*
X317432Y13664D01*
X317450Y13775D01*
X317474Y13881D01*
X317497Y13987D01*
X317526Y14080D01*
X317561Y14168D01*
X317591Y14251D01*
X317620Y14321D01*
X317655Y14385D01*
X317685Y14444D01*
X317708Y14491D01*
X317732Y14526D01*
X317743Y14556D01*
X317755Y14573D01*
X317761Y14579D01*
X317831Y14673D01*
X317902Y14761D01*
X318066Y14925D01*
X318242Y15066D01*
X318330Y15131D01*
X318412Y15184D01*
X318494Y15236D01*
X318571Y15283D01*
X318635Y15318D01*
X318694Y15354D01*
X318741Y15377D01*
X318782Y15395D01*
X318805Y15406D01*
X318811Y15412D01*
X318911Y15453D01*
X319028Y15494D01*
X319157Y15541D01*
X319298Y15582D01*
X319445Y15629D01*
X319592Y15670D01*
X319891Y15747D01*
X320032Y15788D01*
X320167Y15817D01*
X320290Y15847D01*
X320395Y15876D01*
X320484Y15893D01*
X320519Y15905D01*
X320548Y15911D01*
X320572Y15917D01*
X320589D01*
X320601Y15923D01*
X320607D01*
X320841Y15981D01*
X321053Y16034D01*
X321240Y16087D01*
X321410Y16140D01*
X321557Y16193D01*
X321692Y16240D01*
X321804Y16286D01*
X321903Y16328D01*
X321986Y16369D01*
X322050Y16404D01*
X322109Y16433D01*
X322150Y16463D01*
X322185Y16480D01*
X322203Y16498D01*
X322214Y16504D01*
X322220Y16509D01*
X322273Y16562D01*
X322320Y16621D01*
X322367Y16680D01*
X322402Y16744D01*
X322455Y16861D01*
X322490Y16979D01*
X322514Y17079D01*
X322519Y17120D01*
X322525Y17161D01*
X322531Y17190D01*
Y17214D01*
Y17225D01*
Y17231D01*
X322525Y17325D01*
X322514Y17413D01*
X322490Y17501D01*
X322461Y17577D01*
X322390Y17724D01*
X322349Y17795D01*
X322308Y17853D01*
X322267Y17906D01*
X322232Y17953D01*
X322191Y17994D01*
X322161Y18029D01*
X322132Y18059D01*
X322109Y18076D01*
X322097Y18088D01*
X322091Y18094D01*
X322003Y18158D01*
X321903Y18211D01*
X321792Y18258D01*
X321680Y18299D01*
X321563Y18334D01*
X321446Y18364D01*
X321211Y18405D01*
X321105Y18422D01*
X321000Y18434D01*
X320912Y18440D01*
X320830Y18446D01*
X320765Y18452D01*
X320671D01*
X320501Y18446D01*
X320343Y18434D01*
X320196Y18416D01*
X320055Y18393D01*
X319932Y18358D01*
X319815Y18328D01*
X319709Y18293D01*
X319615Y18258D01*
X319533Y18217D01*
X319463Y18182D01*
X319404Y18152D01*
X319351Y18123D01*
X319310Y18094D01*
X319286Y18076D01*
X319269Y18064D01*
X319263Y18059D01*
X319181Y17982D01*
X319105Y17894D01*
X319034Y17806D01*
X318976Y17712D01*
X318923Y17613D01*
X318876Y17519D01*
X318835Y17425D01*
X318805Y17331D01*
X318776Y17243D01*
X318753Y17161D01*
X318735Y17084D01*
X318723Y17026D01*
X318711Y16973D01*
X318706Y16932D01*
X318700Y16909D01*
Y16897D01*
X317667Y16973D01*
X317679Y17102D01*
X317691Y17231D01*
X317714Y17354D01*
X317743Y17472D01*
X317773Y17583D01*
X317808Y17689D01*
X317843Y17789D01*
X317878Y17877D01*
X317919Y17959D01*
X317949Y18029D01*
X317984Y18094D01*
X318013Y18147D01*
X318037Y18188D01*
X318054Y18223D01*
X318066Y18240D01*
X318072Y18246D01*
X318142Y18352D01*
X318225Y18446D01*
X318307Y18540D01*
X318395Y18622D01*
X318483Y18698D01*
X318571Y18768D01*
X318653Y18833D01*
X318741Y18886D01*
X318817Y18939D01*
X318893Y18980D01*
X318958Y19021D01*
X319017Y19050D01*
X319063Y19073D01*
X319099Y19091D01*
X319122Y19097D01*
X319128Y19103D01*
X319257Y19156D01*
X319392Y19203D01*
X319527Y19238D01*
X319668Y19273D01*
X319932Y19326D01*
X320061Y19343D01*
X320178Y19361D01*
X320296Y19373D01*
X320395Y19379D01*
X320489Y19390D01*
X320566D01*
X320630Y19396D01*
X320718D01*
X320871Y19390D01*
D02*
G37*
D44*
X306000Y146000D02*
X310000Y150000D01*
X306000Y66000D02*
Y146000D01*
X245872Y118872D02*
X253943Y126943D01*
Y127057D01*
X47700Y123600D02*
X81100Y157000D01*
X210000D02*
X217000Y164000D01*
X81100Y157000D02*
X210000D01*
X136500Y41700D02*
X149000Y54200D01*
Y80000D01*
X172000Y65000D02*
X241792D01*
X165000Y72000D02*
Y72000D01*
Y72000D02*
X172000Y65000D01*
X150000Y87000D02*
X165000Y72000D01*
X127376Y87000D02*
X150000D01*
X48000Y136000D02*
X55000D01*
X82000Y163000D02*
X183000D01*
X55000Y136000D02*
X82000Y163000D01*
X241792Y65000D02*
X245872Y69080D01*
X161900Y41700D02*
Y45294D01*
X156000Y51194D02*
X161900Y45294D01*
X156000Y51194D02*
Y67000D01*
X111760Y102616D02*
X127376Y87000D01*
X111760Y102616D02*
Y112268D01*
X245872Y69080D02*
Y118872D01*
D45*
X288900Y41700D02*
X298000Y50800D01*
X268790Y21590D02*
X288900Y41700D01*
X298000Y50800D02*
Y154000D01*
X303000Y159000D02*
X321000D01*
X298000Y154000D02*
X303000Y159000D01*
X18796Y140970D02*
Y146558D01*
Y140970D02*
X84836Y74930D01*
Y46164D02*
X109410Y21590D01*
X84836Y46164D02*
Y74930D01*
X109410Y21590D02*
X268790D01*
D46*
X20840Y98200D02*
D03*
X41160D02*
D03*
X31000Y149000D02*
D03*
D47*
X111100Y41700D02*
D03*
X136500D02*
D03*
X238100D02*
D03*
X263500D02*
D03*
X212700D02*
D03*
X187300D02*
D03*
X161900D02*
D03*
D48*
X288900D02*
D03*
D49*
X25000Y25000D02*
D03*
X375000D02*
D03*
D50*
X253000Y212000D02*
D03*
X312000Y92000D02*
D03*
X291000Y73000D02*
D03*
X287000Y92000D02*
D03*
Y107000D02*
D03*
Y122000D02*
D03*
X266000Y102000D02*
D03*
X171000Y88000D02*
D03*
X229000D02*
D03*
X217000Y115000D02*
D03*
X183000D02*
D03*
Y137000D02*
D03*
X210000Y166000D02*
D03*
X190000D02*
D03*
X156000Y199000D02*
D03*
X143000Y169000D02*
D03*
X128000D02*
D03*
X113000D02*
D03*
X98000D02*
D03*
X83000D02*
D03*
X353000Y20000D02*
D03*
Y8000D02*
D03*
X307624Y20222D02*
D03*
X292624D02*
D03*
X277624D02*
D03*
X97624D02*
D03*
X82624D02*
D03*
X67624D02*
D03*
X52624D02*
D03*
X308000Y8000D02*
D03*
X293000D02*
D03*
X278000D02*
D03*
X263000D02*
D03*
X248000D02*
D03*
X233000D02*
D03*
X218000D02*
D03*
X203000D02*
D03*
X188000D02*
D03*
X173000D02*
D03*
X158000D02*
D03*
X143000D02*
D03*
X128000D02*
D03*
X113000D02*
D03*
X98000D02*
D03*
X83000D02*
D03*
X68000D02*
D03*
X53000D02*
D03*
X383000Y212000D02*
D03*
Y197000D02*
D03*
Y182000D02*
D03*
Y167000D02*
D03*
Y152000D02*
D03*
Y137000D02*
D03*
Y122000D02*
D03*
Y107000D02*
D03*
Y92000D02*
D03*
Y77000D02*
D03*
Y62000D02*
D03*
Y47000D02*
D03*
X368000Y212000D02*
D03*
Y197000D02*
D03*
Y182000D02*
D03*
Y122000D02*
D03*
Y92000D02*
D03*
Y62000D02*
D03*
Y47000D02*
D03*
X353000Y212000D02*
D03*
Y197000D02*
D03*
Y182000D02*
D03*
Y122000D02*
D03*
Y92000D02*
D03*
Y62000D02*
D03*
Y47000D02*
D03*
Y32000D02*
D03*
X338000Y212000D02*
D03*
Y197000D02*
D03*
Y182000D02*
D03*
Y122000D02*
D03*
Y92000D02*
D03*
Y77000D02*
D03*
Y62000D02*
D03*
Y47000D02*
D03*
Y32000D02*
D03*
X323000Y212000D02*
D03*
Y197000D02*
D03*
Y182000D02*
D03*
Y122000D02*
D03*
Y92000D02*
D03*
Y77000D02*
D03*
Y62000D02*
D03*
Y47000D02*
D03*
Y32000D02*
D03*
X308000Y212000D02*
D03*
Y197000D02*
D03*
Y182000D02*
D03*
Y167000D02*
D03*
Y47000D02*
D03*
Y32000D02*
D03*
X293000Y212000D02*
D03*
Y197000D02*
D03*
Y182000D02*
D03*
Y167000D02*
D03*
X278000Y212000D02*
D03*
Y197000D02*
D03*
Y182000D02*
D03*
Y167000D02*
D03*
X263000Y212000D02*
D03*
Y197000D02*
D03*
X248000D02*
D03*
Y32000D02*
D03*
X218000Y137000D02*
D03*
X143000Y212000D02*
D03*
Y197000D02*
D03*
Y182000D02*
D03*
Y137000D02*
D03*
X128000Y212000D02*
D03*
Y197000D02*
D03*
Y182000D02*
D03*
Y137000D02*
D03*
Y122000D02*
D03*
Y107000D02*
D03*
Y77000D02*
D03*
Y62000D02*
D03*
Y32000D02*
D03*
X113000Y212000D02*
D03*
Y197000D02*
D03*
Y182000D02*
D03*
Y137000D02*
D03*
Y122000D02*
D03*
Y92000D02*
D03*
Y77000D02*
D03*
Y62000D02*
D03*
X98000Y212000D02*
D03*
Y197000D02*
D03*
Y182000D02*
D03*
Y137000D02*
D03*
Y122000D02*
D03*
Y92000D02*
D03*
Y77000D02*
D03*
Y62000D02*
D03*
Y47000D02*
D03*
X83000Y212000D02*
D03*
Y197000D02*
D03*
Y182000D02*
D03*
Y137000D02*
D03*
Y122000D02*
D03*
Y92000D02*
D03*
Y32000D02*
D03*
X68000Y212000D02*
D03*
Y197000D02*
D03*
Y182000D02*
D03*
Y167000D02*
D03*
Y122000D02*
D03*
Y107000D02*
D03*
Y77000D02*
D03*
Y62000D02*
D03*
Y47000D02*
D03*
Y32000D02*
D03*
X53000Y212000D02*
D03*
Y197000D02*
D03*
Y182000D02*
D03*
Y167000D02*
D03*
Y152000D02*
D03*
Y92000D02*
D03*
Y77000D02*
D03*
Y62000D02*
D03*
Y47000D02*
D03*
Y32000D02*
D03*
X38000Y212000D02*
D03*
Y197000D02*
D03*
Y182000D02*
D03*
Y167000D02*
D03*
Y77000D02*
D03*
Y62000D02*
D03*
Y47000D02*
D03*
X23000Y212000D02*
D03*
Y197000D02*
D03*
Y182000D02*
D03*
Y167000D02*
D03*
Y77000D02*
D03*
Y62000D02*
D03*
Y47000D02*
D03*
X8000Y212000D02*
D03*
Y197000D02*
D03*
Y182000D02*
D03*
Y167000D02*
D03*
Y122000D02*
D03*
Y107000D02*
D03*
Y92000D02*
D03*
Y77000D02*
D03*
Y62000D02*
D03*
Y47000D02*
D03*
X310000Y150000D02*
D03*
X253943Y127057D02*
D03*
X298000Y154000D02*
D03*
X149000Y80000D02*
D03*
X321000Y159000D02*
D03*
X306000Y66000D02*
D03*
X156000Y67000D02*
D03*
X217000Y164000D02*
D03*
X183000Y163000D02*
D03*
X48000Y136000D02*
D03*
X111760Y112268D02*
D03*
X18796Y146558D02*
D03*
X47700Y123600D02*
D03*
M02*
