M48
;Layer_Color=9474304
;FILE_FORMAT=4:4
METRIC,LZ
;TYPE=PLATED
T1F00S00C0.3000
T2F00S00C1.1000
T3F00S00C1.8000
;TYPE=NON_PLATED
T4F00S00C0.9950
%
T01
X0006Y000875
X0009725Y0007375
X0011Y0008375
Y0011375
X0009725
X00077Y0013125
Y001825
X00064Y0018875
X0004725Y0018475
X000395Y0018425
X0003075Y001775
X00024Y0017125
X00016Y0019
X0001375Y00215
X000075Y002275
X0002
Y002425
X000075
Y002575
X0002
X00020182Y00272318
X000075Y002725
Y002875
X0002Y002875
Y003025
X000075Y003025
Y003175
X0002Y003175
X00035
Y003325
Y003475
X0005
Y003625
X00065
X00072Y00369
X00078Y0037475
X0008375Y00381
X00078Y0038725
X0008325Y0039275
X00065Y003925
Y003775
X0005
Y003925
X00035
Y003775
Y003625
X0002
X000075Y003625
Y003775
X0002Y003775
Y003925
X000075Y003925
Y003475
X0002Y003475
Y003325
X000075Y003325
X00035Y003025
X00035182Y00287318
X00035Y002725
Y002575
Y002425
X0008
X00095
Y002575
Y002725
X0008875Y0028675
X000785Y003005
X0008Y002575
Y002275
X00095
X000835Y002145
X00077
X000705
X0013675
X00143
X0014925
X00156Y0021875
X00155Y002275
X0017
Y002135
Y002035
X00185
Y002135
Y002275
X002
X002125
Y002135
Y002035
X002
Y002135
Y002425
X002125
Y002575
X002
Y002725
X002125Y002725
Y002875
X002Y002875
Y003025
X002125Y003025
Y003175
X002Y003175
Y003325
X002125Y003325
Y003475
X002Y003475
Y003625
X002125Y003625
Y003775
X002Y003775
Y003925
X002125Y003925
X00185Y003925
Y003775
Y003625
Y003475
Y003325
Y003175
Y003025
Y002875
Y002725
Y002575
Y002425
X0017
Y002575
Y002725
X00155
Y002575
Y002425
X0014
Y002575
Y002725
X00142332Y00300674
X0012675Y002905
X0011425Y003305
X0010575Y0033872
X0011425Y003475
X0010575Y00356
X00108Y0036375
X0009925
X001205
X00148Y0036875
Y00381
X00155Y003775
X0017
Y003925
X00148Y0039275
X00142Y0038725
Y00375
X00155Y003625
X0017
X0015Y0034375
X00155Y003175
X0017
X0010125Y0032275
X0014Y002275
X00126Y0018875
X00118Y0018375
X0011Y0017225
X00102778Y0016875
X00102Y001775
X0009725Y0016375
X0012675Y0015
X00143Y001
T02
X000211Y000422
X000465
X000719
X000973
X001227
X001481
X001735
X001989
T03
X00035Y001
X00185
T04
X000846Y001001
X001354Y0011026
Y0008994
M30
