G04*
G04 #@! TF.GenerationSoftware,Altium Limited,Altium Designer,21.6.4 (81)*
G04*
G04 Layer_Color=32896*
%FSLAX44Y44*%
%MOMM*%
G71*
G04*
G04 #@! TF.SameCoordinates,6D38FECB-4D46-452B-8F31-296BD34E144B*
G04*
G04*
G04 #@! TF.FilePolarity,Positive*
G04*
G01*
G75*
G36*
X117717Y279314D02*
X117963D01*
X118210Y279297D01*
X118457Y279279D01*
X118545D01*
X118651Y279262D01*
X118774D01*
X118880Y279244D01*
X118986D01*
X119074Y279226D01*
X119109Y279209D01*
Y279191D01*
X119127Y279156D01*
Y279103D01*
X119144Y278997D01*
Y278839D01*
X119162Y278733D01*
Y278627D01*
Y278486D01*
Y278327D01*
Y278310D01*
Y278292D01*
Y278239D01*
Y278169D01*
Y278081D01*
X119179Y277975D01*
Y277851D01*
Y277710D01*
Y277375D01*
X119197Y276970D01*
Y276494D01*
Y275965D01*
Y275948D01*
Y275895D01*
Y275824D01*
Y275701D01*
Y275560D01*
Y275401D01*
Y275207D01*
Y274978D01*
Y274731D01*
Y274485D01*
X119215Y274185D01*
Y273885D01*
Y273233D01*
X119232Y272528D01*
Y272510D01*
Y272440D01*
Y272334D01*
Y272193D01*
Y271999D01*
Y271787D01*
Y271541D01*
Y271259D01*
Y270959D01*
Y270642D01*
Y270289D01*
Y269937D01*
Y269161D01*
Y268350D01*
Y257580D01*
X115213D01*
Y258531D01*
Y258549D01*
Y258602D01*
Y258673D01*
Y258778D01*
Y259007D01*
X115196Y259219D01*
Y259237D01*
Y259272D01*
X115178Y259360D01*
X115161Y259466D01*
Y259483D01*
X115143Y259501D01*
X115108Y259483D01*
X115037Y259413D01*
X114984Y259360D01*
X114914Y259289D01*
X114896D01*
X114878Y259254D01*
X114755Y259166D01*
X114596Y259007D01*
X114403Y258831D01*
X114385Y258814D01*
X114350Y258796D01*
X114297Y258743D01*
X114226Y258673D01*
X114138Y258602D01*
X114032Y258514D01*
X113750Y258302D01*
X113415Y258091D01*
X113027Y257862D01*
X112587Y257650D01*
X112111Y257474D01*
X112093D01*
X112058Y257456D01*
X111970Y257439D01*
X111882Y257421D01*
X111758Y257386D01*
X111617Y257368D01*
X111441Y257333D01*
X111247Y257315D01*
X111053Y257280D01*
X110824Y257262D01*
X110330Y257245D01*
X109802Y257262D01*
X109220Y257315D01*
X109202D01*
X109132Y257333D01*
X109044Y257351D01*
X108903Y257368D01*
X108762Y257403D01*
X108568Y257439D01*
X108356Y257474D01*
X108145Y257544D01*
X107651Y257685D01*
X107140Y257879D01*
X106629Y258108D01*
X106153Y258408D01*
X106135Y258426D01*
X106100Y258443D01*
X106029Y258496D01*
X105941Y258567D01*
X105835Y258655D01*
X105712Y258778D01*
X105589Y258902D01*
X105430Y259060D01*
X105271Y259219D01*
X105113Y259413D01*
X104954Y259607D01*
X104778Y259836D01*
X104601Y260083D01*
X104443Y260347D01*
X104284Y260612D01*
X104126Y260911D01*
Y260929D01*
X104108Y260947D01*
X104090Y260999D01*
X104055Y261070D01*
X103985Y261264D01*
X103879Y261511D01*
X103773Y261810D01*
X103685Y262145D01*
X103579Y262498D01*
X103509Y262885D01*
Y262903D01*
X103491Y262938D01*
Y262991D01*
X103473Y263079D01*
X103456Y263168D01*
X103438Y263291D01*
X103420Y263432D01*
X103403Y263591D01*
X103368Y263943D01*
X103350Y264366D01*
X103315Y264842D01*
Y265353D01*
Y265371D01*
Y265441D01*
Y265547D01*
Y265706D01*
X103332Y265882D01*
Y266076D01*
X103350Y266305D01*
X103385Y266570D01*
X103403Y266834D01*
X103438Y267134D01*
X103526Y267733D01*
X103650Y268333D01*
X103826Y268932D01*
Y268949D01*
X103843Y269002D01*
X103879Y269090D01*
X103914Y269196D01*
X103967Y269320D01*
X104037Y269478D01*
X104108Y269655D01*
X104196Y269831D01*
X104408Y270254D01*
X104672Y270677D01*
X104972Y271118D01*
X105324Y271523D01*
X105342Y271541D01*
X105377Y271576D01*
X105430Y271611D01*
X105500Y271682D01*
X105589Y271770D01*
X105712Y271858D01*
X105976Y272087D01*
X106329Y272316D01*
X106699Y272563D01*
X107140Y272775D01*
X107598Y272969D01*
X107616D01*
X107651Y272986D01*
X107722Y273004D01*
X107827Y273039D01*
X107933Y273074D01*
X108092Y273109D01*
X108250Y273145D01*
X108444Y273180D01*
X108656Y273215D01*
X108885Y273251D01*
X109132Y273286D01*
X109396Y273303D01*
X109960Y273339D01*
X110718D01*
X110806Y273321D01*
X110912D01*
X111036Y273303D01*
X111318Y273268D01*
X111635Y273215D01*
X111970Y273145D01*
X112322Y273057D01*
X112640Y272951D01*
X112675Y272933D01*
X112781Y272898D01*
X112939Y272810D01*
X113133Y272704D01*
X113380Y272546D01*
X113645Y272369D01*
X113944Y272158D01*
X114244Y271893D01*
X114914Y271259D01*
Y279332D01*
X117487D01*
X117717Y279314D01*
D02*
G37*
G36*
X76397Y273057D02*
X76909D01*
X77032Y273039D01*
X77173D01*
X77296Y273021D01*
X77367D01*
X77402Y273004D01*
X77385Y272986D01*
X77367Y272933D01*
X77296Y272845D01*
X77208Y272704D01*
X77138Y272616D01*
X77067Y272493D01*
X76979Y272369D01*
X76873Y272211D01*
X76750Y272034D01*
X76609Y271840D01*
X76591Y271823D01*
X76574Y271787D01*
X76521Y271735D01*
X76468Y271646D01*
X76380Y271541D01*
X76292Y271400D01*
X76186Y271259D01*
X76062Y271100D01*
X75921Y270906D01*
X75780Y270695D01*
X75463Y270254D01*
X75093Y269743D01*
X74688Y269179D01*
X74670Y269161D01*
X74635Y269108D01*
X74582Y269020D01*
X74494Y268914D01*
X74388Y268773D01*
X74282Y268615D01*
X74141Y268438D01*
X74000Y268262D01*
X73700Y267839D01*
X73383Y267381D01*
X73048Y266922D01*
X72748Y266481D01*
X72731Y266464D01*
X72713Y266429D01*
X72678Y266376D01*
X72625Y266305D01*
X72502Y266129D01*
X72361Y265917D01*
X72220Y265706D01*
X72096Y265512D01*
X72043Y265424D01*
X72008Y265371D01*
X71973Y265318D01*
Y265301D01*
X71990Y265283D01*
X72026Y265230D01*
X72096Y265142D01*
X72202Y265001D01*
X72273Y264895D01*
X72361Y264789D01*
X72466Y264648D01*
X72572Y264507D01*
X72696Y264313D01*
X72854Y264119D01*
X72872Y264102D01*
X72889Y264067D01*
X72942Y263996D01*
X72995Y263908D01*
X73083Y263802D01*
X73172Y263679D01*
X73295Y263520D01*
X73418Y263344D01*
X73542Y263150D01*
X73700Y262938D01*
X74035Y262480D01*
X74405Y261951D01*
X74829Y261369D01*
X77702Y257580D01*
X75322Y257615D01*
X72942Y257650D01*
X71268Y259959D01*
Y259977D01*
X71233Y259995D01*
X71197Y260047D01*
X71144Y260118D01*
X71021Y260294D01*
X70845Y260523D01*
X70668Y260770D01*
X70457Y261052D01*
X70245Y261334D01*
X70051Y261599D01*
X70034Y261634D01*
X69963Y261705D01*
X69875Y261828D01*
X69787Y261951D01*
X69681Y262075D01*
X69576Y262198D01*
X69505Y262269D01*
X69470Y262304D01*
X69452D01*
X69434Y262286D01*
X69382Y262233D01*
X69329Y262163D01*
X69223Y262039D01*
X69099Y261881D01*
X68923Y261652D01*
X68906Y261616D01*
X68835Y261528D01*
X68712Y261387D01*
X68571Y261193D01*
X68394Y260947D01*
X68183Y260664D01*
X67936Y260347D01*
X67689Y259995D01*
X65944Y257650D01*
X63459Y257615D01*
X63282D01*
X63088Y257597D01*
X61431D01*
X61290Y257615D01*
X61167D01*
X61044Y257633D01*
X60956D01*
X60920Y257650D01*
X60938Y257668D01*
X60956Y257703D01*
X61026Y257791D01*
X61132Y257932D01*
X61202Y258020D01*
X61273Y258126D01*
X61379Y258267D01*
X61484Y258426D01*
X61625Y258602D01*
X61766Y258796D01*
X61784Y258813D01*
X61802Y258849D01*
X61855Y258919D01*
X61908Y259007D01*
X61996Y259113D01*
X62084Y259254D01*
X62207Y259395D01*
X62330Y259571D01*
X62472Y259765D01*
X62630Y259977D01*
X62965Y260453D01*
X63371Y260964D01*
X63794Y261546D01*
X63811Y261563D01*
X63847Y261616D01*
X63917Y261705D01*
X64005Y261828D01*
X64111Y261969D01*
X64234Y262145D01*
X64358Y262339D01*
X64516Y262533D01*
X64834Y262974D01*
X65169Y263450D01*
X65504Y263908D01*
X65803Y264349D01*
Y264366D01*
X65838Y264401D01*
X65874Y264454D01*
X65909Y264525D01*
X66032Y264701D01*
X66173Y264913D01*
X66297Y265124D01*
X66420Y265318D01*
X66455Y265389D01*
X66491Y265459D01*
X66508Y265512D01*
Y265530D01*
X66491Y265547D01*
X66455Y265583D01*
X66403Y265635D01*
X66332Y265723D01*
X66244Y265847D01*
X66121Y266006D01*
X65962Y266235D01*
X65944Y266270D01*
X65874Y266358D01*
X65785Y266499D01*
X65644Y266675D01*
X65486Y266905D01*
X65310Y267169D01*
X65098Y267451D01*
X64869Y267768D01*
Y267786D01*
X64834Y267804D01*
X64816Y267857D01*
X64763Y267909D01*
X64640Y268086D01*
X64464Y268332D01*
X64270Y268597D01*
X64040Y268932D01*
X63776Y269284D01*
X63494Y269672D01*
X63476Y269690D01*
X63459Y269725D01*
X63423Y269778D01*
X63371Y269848D01*
X63229Y270042D01*
X63036Y270289D01*
X62842Y270553D01*
X62630Y270853D01*
X62419Y271135D01*
X62225Y271400D01*
X62207Y271435D01*
X62137Y271505D01*
X62049Y271629D01*
X61943Y271770D01*
X61819Y271946D01*
X61678Y272122D01*
X61414Y272493D01*
X61396Y272510D01*
X61361Y272563D01*
X61308Y272651D01*
X61238Y272739D01*
X61185Y272827D01*
X61132Y272916D01*
X61097Y272969D01*
X61079Y273004D01*
X61097D01*
X61114Y273021D01*
X61167D01*
X61238Y273039D01*
X61361D01*
X61520Y273057D01*
X63036D01*
X63388Y273039D01*
X65680Y273004D01*
X67319Y270730D01*
Y270712D01*
X67354Y270695D01*
X67390Y270642D01*
X67425Y270571D01*
X67566Y270395D01*
X67725Y270166D01*
X67901Y269919D01*
X68112Y269637D01*
X68306Y269373D01*
X68518Y269108D01*
X68535Y269073D01*
X68606Y269002D01*
X68677Y268897D01*
X68782Y268773D01*
X68870Y268650D01*
X68959Y268544D01*
X69029Y268473D01*
X69064Y268438D01*
X69082D01*
X69099Y268456D01*
X69152Y268491D01*
X69223Y268579D01*
X69311Y268685D01*
X69452Y268844D01*
X69628Y269073D01*
X69646Y269108D01*
X69717Y269196D01*
X69822Y269355D01*
X69963Y269549D01*
X70140Y269795D01*
X70333Y270078D01*
X70563Y270377D01*
X70809Y270730D01*
X72484Y273074D01*
X76098D01*
X76397Y273057D01*
D02*
G37*
G36*
X100529Y268438D02*
Y257580D01*
X96369D01*
Y279332D01*
X100529D01*
Y268438D01*
D02*
G37*
G36*
X86939Y273286D02*
X87379Y273251D01*
X87802Y273215D01*
X87996Y273180D01*
X88173Y273145D01*
X88190D01*
X88261Y273127D01*
X88366Y273092D01*
X88507Y273057D01*
X88684Y272986D01*
X88895Y272916D01*
X89124Y272827D01*
X89371Y272739D01*
X89918Y272475D01*
X90217Y272334D01*
X90499Y272158D01*
X90799Y271964D01*
X91099Y271752D01*
X91381Y271523D01*
X91663Y271276D01*
X91680Y271259D01*
X91733Y271206D01*
X91804Y271135D01*
X91892Y271029D01*
X92015Y270889D01*
X92139Y270730D01*
X92280Y270536D01*
X92438Y270324D01*
X92597Y270095D01*
X92756Y269831D01*
X92914Y269549D01*
X93073Y269249D01*
X93214Y268932D01*
X93355Y268597D01*
X93461Y268244D01*
X93567Y267874D01*
Y267857D01*
Y267839D01*
X93584Y267786D01*
X93602Y267698D01*
X93619Y267610D01*
Y267486D01*
X93637Y267363D01*
X93655Y267204D01*
X93672Y267028D01*
X93690Y266834D01*
X93708Y266623D01*
X93725Y266411D01*
X93743Y265900D01*
X93760Y265318D01*
Y265301D01*
Y265248D01*
Y265159D01*
Y265054D01*
Y264913D01*
X93743Y264754D01*
Y264401D01*
X93708Y263996D01*
X93672Y263573D01*
X93637Y263150D01*
X93567Y262780D01*
Y262762D01*
X93549Y262692D01*
X93514Y262586D01*
X93478Y262445D01*
X93408Y262269D01*
X93337Y262057D01*
X93249Y261828D01*
X93161Y261581D01*
X92897Y261052D01*
X92756Y260770D01*
X92579Y260488D01*
X92403Y260189D01*
X92192Y259907D01*
X91962Y259642D01*
X91716Y259378D01*
X91698Y259360D01*
X91645Y259325D01*
X91575Y259254D01*
X91469Y259166D01*
X91328Y259043D01*
X91169Y258919D01*
X90975Y258778D01*
X90764Y258637D01*
X90517Y258479D01*
X90253Y258320D01*
X89971Y258161D01*
X89671Y258003D01*
X89336Y257862D01*
X88983Y257721D01*
X88613Y257597D01*
X88225Y257491D01*
X88208D01*
X88190Y257474D01*
X88120D01*
X88049Y257456D01*
X87961Y257439D01*
X87855Y257421D01*
X87714Y257386D01*
X87556Y257368D01*
X87397Y257351D01*
X87203Y257315D01*
X86780Y257280D01*
X86286Y257262D01*
X85722Y257245D01*
X85335D01*
X85176Y257262D01*
X84823Y257280D01*
X84418Y257298D01*
X84012Y257350D01*
X83607Y257403D01*
X83237Y257491D01*
X83219D01*
X83149Y257509D01*
X83043Y257544D01*
X82902Y257580D01*
X82726Y257650D01*
X82532Y257703D01*
X82320Y257791D01*
X82073Y257879D01*
X81562Y258126D01*
X81016Y258408D01*
X80469Y258761D01*
X80223Y258955D01*
X79976Y259166D01*
X79958Y259184D01*
X79923Y259219D01*
X79852Y259289D01*
X79764Y259378D01*
X79658Y259501D01*
X79535Y259642D01*
X79412Y259818D01*
X79253Y260012D01*
X79094Y260224D01*
X78936Y260453D01*
X78777Y260717D01*
X78618Y260999D01*
X78460Y261299D01*
X78319Y261616D01*
X78160Y261951D01*
X78037Y262304D01*
X78019Y262321D01*
X78001Y262374D01*
X77966Y262480D01*
X77931Y262603D01*
X77896Y262745D01*
X77860Y262921D01*
X77825Y263097D01*
X77808Y263309D01*
Y263344D01*
Y263414D01*
X77790Y263573D01*
Y263767D01*
Y264049D01*
X77772Y264384D01*
Y264578D01*
Y264789D01*
Y265018D01*
Y265265D01*
Y265283D01*
Y265336D01*
Y265406D01*
Y265494D01*
Y265618D01*
Y265741D01*
Y266041D01*
X77790Y266376D01*
Y266693D01*
X77808Y267010D01*
Y267134D01*
X77825Y267257D01*
Y267292D01*
X77843Y267363D01*
Y267469D01*
X77878Y267627D01*
X77913Y267804D01*
X77949Y268015D01*
X78072Y268473D01*
Y268491D01*
X78090Y268544D01*
X78125Y268632D01*
X78178Y268755D01*
X78231Y268897D01*
X78301Y269073D01*
X78372Y269249D01*
X78477Y269461D01*
X78707Y269901D01*
X79006Y270377D01*
X79359Y270836D01*
X79782Y271294D01*
X79799Y271311D01*
X79835Y271347D01*
X79905Y271400D01*
X79993Y271488D01*
X80117Y271576D01*
X80258Y271682D01*
X80416Y271805D01*
X80610Y271946D01*
X80822Y272087D01*
X81051Y272228D01*
X81298Y272369D01*
X81562Y272510D01*
X81862Y272651D01*
X82162Y272792D01*
X82831Y273039D01*
X82867Y273057D01*
X82902D01*
X82972Y273074D01*
X83043Y273092D01*
X83149Y273109D01*
X83272Y273127D01*
X83413Y273162D01*
X83572Y273180D01*
X83766Y273198D01*
X83977Y273233D01*
X84206Y273251D01*
X84471Y273268D01*
X84753Y273286D01*
X85070Y273303D01*
X86480D01*
X86939Y273286D01*
D02*
G37*
G36*
X142201Y288516D02*
X142219D01*
X142307Y288498D01*
X142413Y288481D01*
X142571Y288463D01*
X142765Y288428D01*
X142994Y288393D01*
X143259Y288340D01*
X143541Y288287D01*
X143858Y288216D01*
X144176Y288146D01*
X144881Y287987D01*
X145603Y287776D01*
X146344Y287547D01*
X146361D01*
X146432Y287511D01*
X146538Y287476D01*
X146679Y287423D01*
X146855Y287353D01*
X147049Y287282D01*
X147278Y287194D01*
X147542Y287088D01*
X147807Y286965D01*
X148106Y286841D01*
X148723Y286542D01*
X149393Y286207D01*
X150045Y285837D01*
X150063Y285819D01*
X150116Y285784D01*
X150222Y285731D01*
X150345Y285660D01*
X150486Y285555D01*
X150662Y285431D01*
X150874Y285290D01*
X151086Y285149D01*
X151579Y284779D01*
X152108Y284374D01*
X152672Y283898D01*
X153218Y283386D01*
X153236Y283369D01*
X153289Y283316D01*
X153359Y283245D01*
X153465Y283140D01*
X153606Y282999D01*
X153747Y282840D01*
X153924Y282664D01*
X154100Y282452D01*
X154311Y282223D01*
X154523Y281976D01*
X154981Y281447D01*
X155440Y280848D01*
X155898Y280214D01*
X155915Y280196D01*
X155951Y280125D01*
X156021Y280020D01*
X156109Y279879D01*
X156215Y279685D01*
X156339Y279473D01*
X156480Y279226D01*
X156638Y278944D01*
X156797Y278645D01*
X156973Y278310D01*
X157149Y277957D01*
X157326Y277605D01*
X157661Y276811D01*
X157978Y275983D01*
Y275965D01*
X158013Y275877D01*
X158048Y275754D01*
X158101Y275595D01*
X158154Y275383D01*
X158225Y275137D01*
X158295Y274855D01*
X158366Y274555D01*
X158454Y274202D01*
X158524Y273850D01*
X158595Y273462D01*
X158683Y273057D01*
X158806Y272211D01*
X158895Y271329D01*
Y271294D01*
Y271223D01*
X158912Y271100D01*
Y270924D01*
Y270712D01*
Y270448D01*
X158930Y270166D01*
X158912Y269848D01*
Y269496D01*
X158895Y269126D01*
X158877Y268738D01*
X158842Y268333D01*
X158753Y267486D01*
X158612Y266605D01*
Y266570D01*
X158595Y266499D01*
X158560Y266376D01*
X158524Y266199D01*
X158489Y265988D01*
X158419Y265741D01*
X158348Y265459D01*
X158278Y265142D01*
X158172Y264807D01*
X158066Y264454D01*
X157819Y263696D01*
X157502Y262885D01*
X157149Y262075D01*
X157132Y262057D01*
X157097Y261987D01*
X157044Y261881D01*
X156973Y261722D01*
X156885Y261546D01*
X156779Y261334D01*
X156638Y261105D01*
X156497Y260841D01*
X156339Y260559D01*
X156162Y260259D01*
X155757Y259624D01*
X155299Y258972D01*
X154805Y258320D01*
X154787Y258302D01*
X154734Y258249D01*
X154664Y258161D01*
X154558Y258038D01*
X154435Y257879D01*
X154276Y257703D01*
X154100Y257509D01*
X153906Y257298D01*
X153677Y257068D01*
X153448Y256822D01*
X152919Y256310D01*
X152337Y255782D01*
X151720Y255270D01*
X151702Y255253D01*
X151650Y255217D01*
X151544Y255147D01*
X151420Y255041D01*
X151262Y254935D01*
X151068Y254795D01*
X150856Y254653D01*
X150610Y254495D01*
X150345Y254319D01*
X150063Y254142D01*
X149746Y253948D01*
X149429Y253772D01*
X148741Y253402D01*
X148001Y253049D01*
X147983Y253032D01*
X147913Y253014D01*
X147807Y252961D01*
X147648Y252908D01*
X147472Y252820D01*
X147260Y252732D01*
X146996Y252644D01*
X146732Y252538D01*
X146414Y252432D01*
X146097Y252309D01*
X145744Y252203D01*
X145374Y252080D01*
X144599Y251868D01*
X143770Y251674D01*
X143752D01*
X143717Y251657D01*
X143629D01*
X143541Y251639D01*
X143400Y251621D01*
X143241Y251586D01*
X143065Y251569D01*
X142853Y251551D01*
X142624Y251516D01*
X142360Y251498D01*
X142060Y251481D01*
X141761Y251445D01*
X141408Y251428D01*
X141055D01*
X140668Y251410D01*
X139698D01*
X139487Y251428D01*
X139240D01*
X138993Y251445D01*
X138429Y251481D01*
X137865Y251516D01*
X137318Y251586D01*
X137054Y251621D01*
X136825Y251674D01*
X136790D01*
X136701Y251710D01*
X136560Y251745D01*
X136367Y251780D01*
X136120Y251851D01*
X135838Y251921D01*
X135520Y252027D01*
X135168Y252133D01*
X134798Y252239D01*
X134392Y252379D01*
X133969Y252521D01*
X133528Y252679D01*
X132647Y253049D01*
X131748Y253472D01*
X131713Y253490D01*
X131642Y253525D01*
X131519Y253596D01*
X131343Y253684D01*
X131149Y253807D01*
X130902Y253948D01*
X130620Y254107D01*
X130320Y254301D01*
X130003Y254495D01*
X129668Y254724D01*
X129315Y254971D01*
X128945Y255235D01*
X128205Y255817D01*
X127482Y256451D01*
X126372Y257580D01*
X128223D01*
Y258320D01*
Y258338D01*
Y258373D01*
Y258443D01*
Y258514D01*
Y258690D01*
X128240Y258866D01*
Y258884D01*
Y258902D01*
X128258Y258990D01*
X128275Y259060D01*
Y259078D01*
X128293Y259096D01*
X128311D01*
X128346Y259078D01*
X128434Y259025D01*
X128557Y258919D01*
X128593Y258884D01*
X128681Y258814D01*
X128804Y258690D01*
X128963Y258531D01*
X128981D01*
X128998Y258496D01*
X129051Y258461D01*
X129122Y258408D01*
X129298Y258267D01*
X129545Y258108D01*
X129844Y257915D01*
X130179Y257738D01*
X130549Y257562D01*
X130937Y257421D01*
X130955D01*
X130990Y257403D01*
X131043Y257386D01*
X131131Y257368D01*
X131237Y257351D01*
X131360Y257315D01*
X131501Y257298D01*
X131660Y257262D01*
X132030Y257227D01*
X132453Y257192D01*
X132947D01*
X133476Y257209D01*
X133564D01*
X133669Y257227D01*
X133793Y257245D01*
X133969Y257262D01*
X134145Y257298D01*
X134375Y257333D01*
X134604Y257386D01*
X135115Y257509D01*
X135661Y257685D01*
X136208Y257932D01*
X136472Y258091D01*
X136719Y258249D01*
X136737Y258267D01*
X136772Y258302D01*
X136842Y258355D01*
X136931Y258426D01*
X137036Y258514D01*
X137160Y258637D01*
X137301Y258778D01*
X137442Y258919D01*
X137600Y259096D01*
X137759Y259289D01*
X137900Y259501D01*
X138059Y259730D01*
X138341Y260241D01*
X138464Y260506D01*
X138570Y260805D01*
Y260823D01*
X138588Y260894D01*
X138623Y260999D01*
X138640Y261176D01*
X138676Y261387D01*
X138711Y261669D01*
X138746Y262004D01*
X138764Y262392D01*
Y262410D01*
Y262445D01*
Y262533D01*
Y262639D01*
X138781Y262780D01*
Y262956D01*
Y263185D01*
X138799Y263450D01*
Y263749D01*
X138817Y264102D01*
Y264507D01*
X138834Y264966D01*
Y265459D01*
X138852Y266023D01*
Y266640D01*
X138870Y267310D01*
X138905Y273074D01*
X134586Y273004D01*
Y268438D01*
Y268421D01*
Y268403D01*
Y268350D01*
Y268280D01*
Y268103D01*
Y267874D01*
Y267592D01*
Y267257D01*
Y266905D01*
X134568Y266534D01*
Y265741D01*
X134551Y265336D01*
Y264966D01*
X134533Y264595D01*
Y264261D01*
X134516Y263961D01*
X134498Y263696D01*
Y263679D01*
Y263643D01*
X134480Y263573D01*
Y263503D01*
X134445Y263291D01*
X134410Y263027D01*
X134339Y262762D01*
X134269Y262480D01*
X134163Y262233D01*
X134110Y262127D01*
X134057Y262039D01*
X134040Y262022D01*
X133987Y261951D01*
X133899Y261845D01*
X133811Y261740D01*
X133687Y261599D01*
X133546Y261475D01*
X133405Y261370D01*
X133246Y261281D01*
X133229D01*
X133176Y261246D01*
X133070Y261229D01*
X132929Y261193D01*
X132753Y261140D01*
X132524Y261105D01*
X132259Y261070D01*
X131942Y261035D01*
X131607D01*
X131484Y261052D01*
X131202Y261070D01*
X130867Y261105D01*
X130514Y261176D01*
X130179Y261264D01*
X129880Y261387D01*
X129862D01*
X129844Y261405D01*
X129756Y261458D01*
X129615Y261563D01*
X129439Y261705D01*
X129245Y261898D01*
X129051Y262145D01*
X128857Y262427D01*
X128681Y262780D01*
Y262797D01*
X128663Y262850D01*
X128628Y262938D01*
X128593Y263079D01*
X128557Y263256D01*
X128522Y263467D01*
X128487Y263732D01*
X128469Y264031D01*
Y264049D01*
Y264084D01*
Y264137D01*
X128452Y264225D01*
Y264349D01*
Y264490D01*
Y264666D01*
X128434Y264895D01*
Y265142D01*
X128416Y265441D01*
Y265794D01*
Y266182D01*
X128399Y266605D01*
Y267081D01*
X128381Y267627D01*
Y268209D01*
X128346Y273074D01*
X124062D01*
Y266940D01*
Y260841D01*
X123586Y261775D01*
Y261793D01*
X123569Y261828D01*
X123534Y261881D01*
X123498Y261951D01*
X123445Y262039D01*
X123392Y262163D01*
X123340Y262286D01*
X123269Y262445D01*
X123111Y262797D01*
X122952Y263203D01*
X122776Y263679D01*
X122599Y264190D01*
Y264208D01*
X122582Y264261D01*
X122546Y264331D01*
X122529Y264437D01*
X122476Y264560D01*
X122441Y264719D01*
X122388Y264877D01*
X122335Y265071D01*
X122229Y265477D01*
X122123Y265917D01*
X122018Y266376D01*
X121947Y266834D01*
Y266852D01*
X121929Y266887D01*
Y266957D01*
X121912Y267063D01*
X121894Y267187D01*
X121877Y267328D01*
X121859Y267504D01*
X121824Y267698D01*
X121806Y267909D01*
X121788Y268156D01*
X121771Y268403D01*
X121753Y268685D01*
X121735Y268985D01*
Y269284D01*
X121718Y269954D01*
Y269972D01*
Y270042D01*
Y270131D01*
Y270271D01*
Y270430D01*
X121735Y270606D01*
Y270818D01*
X121753Y271047D01*
X121771Y271541D01*
X121806Y272052D01*
X121877Y272581D01*
X121947Y273074D01*
Y273109D01*
X121965Y273198D01*
X122000Y273356D01*
X122035Y273568D01*
X122088Y273815D01*
X122159Y274114D01*
X122247Y274449D01*
X122335Y274819D01*
X122458Y275225D01*
X122582Y275648D01*
X122723Y276089D01*
X122881Y276547D01*
X123058Y277023D01*
X123251Y277481D01*
X123463Y277957D01*
X123692Y278433D01*
X123710Y278468D01*
X123745Y278539D01*
X123833Y278680D01*
X123921Y278856D01*
X124045Y279068D01*
X124203Y279332D01*
X124380Y279614D01*
X124591Y279931D01*
X124803Y280266D01*
X125049Y280619D01*
X125332Y280989D01*
X125614Y281377D01*
X125913Y281765D01*
X126231Y282153D01*
X126936Y282910D01*
X126953Y282928D01*
X127024Y282999D01*
X127130Y283104D01*
X127271Y283245D01*
X127465Y283422D01*
X127676Y283616D01*
X127923Y283845D01*
X128205Y284074D01*
X128522Y284338D01*
X128857Y284603D01*
X129227Y284885D01*
X129598Y285167D01*
X130021Y285449D01*
X130444Y285731D01*
X131343Y286277D01*
X131378Y286295D01*
X131448Y286330D01*
X131589Y286401D01*
X131783Y286507D01*
X132012Y286612D01*
X132295Y286753D01*
X132612Y286894D01*
X132964Y287035D01*
X133352Y287194D01*
X133775Y287370D01*
X134216Y287529D01*
X134692Y287688D01*
X135185Y287846D01*
X135679Y287987D01*
X136208Y288128D01*
X136737Y288252D01*
X136772D01*
X136825Y288269D01*
X136895D01*
X136983Y288287D01*
X137107Y288305D01*
X137230Y288322D01*
X137389Y288340D01*
X137583Y288357D01*
X137777Y288375D01*
X138006Y288393D01*
X138253Y288410D01*
X138535Y288428D01*
X138834Y288445D01*
X139169Y288463D01*
X139522Y288481D01*
X139610D01*
X139698Y288498D01*
X139998D01*
X140174Y288516D01*
X140368D01*
X140579Y288534D01*
X142043D01*
X142201Y288516D01*
D02*
G37*
G36*
X90877Y336797D02*
X90947Y336677D01*
X91109Y336445D01*
X91285Y336227D01*
X91376Y336121D01*
X91461Y336023D01*
X91545Y335938D01*
X91622Y335854D01*
X91693Y335783D01*
X91756Y335720D01*
X91805Y335671D01*
X91841Y335636D01*
X91869Y335615D01*
X91876Y335607D01*
X92164Y335368D01*
X92467Y335150D01*
X92762Y334953D01*
X92903Y334869D01*
X93037Y334784D01*
X93156Y334714D01*
X93269Y334651D01*
X93374Y334594D01*
X93459Y334552D01*
X93529Y334517D01*
X93586Y334489D01*
X93614Y334475D01*
X93628Y334468D01*
Y333314D01*
X93417Y333398D01*
X93198Y333497D01*
X92987Y333595D01*
X92790Y333694D01*
X92706Y333743D01*
X92622Y333785D01*
X92551Y333828D01*
X92495Y333863D01*
X92446Y333884D01*
X92403Y333905D01*
X92382Y333919D01*
X92375Y333926D01*
X92122Y334081D01*
X92009Y334158D01*
X91897Y334229D01*
X91798Y334306D01*
X91707Y334369D01*
X91622Y334440D01*
X91538Y334496D01*
X91475Y334552D01*
X91411Y334601D01*
X91355Y334651D01*
X91313Y334686D01*
X91278Y334714D01*
X91257Y334735D01*
X91243Y334749D01*
X91236Y334756D01*
Y327144D01*
X90039D01*
Y336916D01*
X90813D01*
X90877Y336797D01*
D02*
G37*
G36*
X76256Y336902D02*
X76524Y336867D01*
X76770Y336811D01*
X77009Y336740D01*
X77227Y336656D01*
X77424Y336564D01*
X77607Y336459D01*
X77776Y336360D01*
X77924Y336255D01*
X78057Y336149D01*
X78163Y336058D01*
X78254Y335973D01*
X78332Y335903D01*
X78381Y335847D01*
X78409Y335812D01*
X78423Y335798D01*
X78515Y335671D01*
X78606Y335537D01*
X78691Y335404D01*
X78768Y335256D01*
X78909Y334946D01*
X79028Y334616D01*
X79127Y334278D01*
X79211Y333940D01*
X79282Y333595D01*
X79331Y333265D01*
X79380Y332948D01*
X79408Y332659D01*
X79422Y332519D01*
X79429Y332392D01*
X79443Y332266D01*
X79451Y332160D01*
Y332054D01*
X79458Y331963D01*
Y331886D01*
X79465Y331822D01*
Y331766D01*
Y331731D01*
Y331703D01*
Y331696D01*
Y331463D01*
X79451Y331238D01*
X79443Y331027D01*
X79422Y330816D01*
X79401Y330619D01*
X79380Y330429D01*
X79352Y330246D01*
X79317Y330070D01*
X79282Y329902D01*
X79247Y329740D01*
X79204Y329592D01*
X79169Y329444D01*
X79127Y329310D01*
X79078Y329177D01*
X79036Y329057D01*
X78993Y328945D01*
X78951Y328839D01*
X78902Y328733D01*
X78860Y328642D01*
X78817Y328558D01*
X78782Y328480D01*
X78740Y328410D01*
X78670Y328290D01*
X78606Y328199D01*
X78564Y328129D01*
X78529Y328093D01*
X78522Y328079D01*
X78339Y327889D01*
X78149Y327720D01*
X77945Y327573D01*
X77741Y327446D01*
X77537Y327340D01*
X77340Y327249D01*
X77143Y327179D01*
X76953Y327122D01*
X76770Y327073D01*
X76608Y327038D01*
X76460Y327017D01*
X76334Y326996D01*
X76228Y326989D01*
X76186D01*
X76151Y326982D01*
X76087D01*
X75926Y326989D01*
X75764Y327003D01*
X75616Y327017D01*
X75468Y327045D01*
X75335Y327080D01*
X75201Y327115D01*
X75081Y327150D01*
X74976Y327193D01*
X74870Y327228D01*
X74786Y327263D01*
X74708Y327298D01*
X74638Y327333D01*
X74589Y327361D01*
X74547Y327376D01*
X74525Y327390D01*
X74518Y327397D01*
X74392Y327481D01*
X74272Y327566D01*
X74160Y327664D01*
X74061Y327763D01*
X73963Y327861D01*
X73871Y327960D01*
X73794Y328058D01*
X73716Y328157D01*
X73653Y328248D01*
X73597Y328326D01*
X73548Y328403D01*
X73505Y328473D01*
X73477Y328522D01*
X73456Y328565D01*
X73442Y328593D01*
X73435Y328600D01*
X73365Y328748D01*
X73301Y328902D01*
X73252Y329050D01*
X73203Y329198D01*
X73161Y329346D01*
X73132Y329486D01*
X73104Y329620D01*
X73083Y329747D01*
X73069Y329866D01*
X73055Y329972D01*
X73048Y330063D01*
X73041Y330148D01*
X73034Y330211D01*
Y330260D01*
Y330295D01*
Y330303D01*
X73041Y330556D01*
X73069Y330802D01*
X73111Y331027D01*
X73168Y331245D01*
X73231Y331449D01*
X73301Y331632D01*
X73379Y331808D01*
X73456Y331963D01*
X73534Y332104D01*
X73611Y332223D01*
X73681Y332329D01*
X73745Y332413D01*
X73801Y332484D01*
X73843Y332533D01*
X73871Y332568D01*
X73878Y332575D01*
X74040Y332730D01*
X74209Y332871D01*
X74378Y332983D01*
X74547Y333089D01*
X74722Y333173D01*
X74891Y333243D01*
X75053Y333307D01*
X75208Y333349D01*
X75356Y333384D01*
X75489Y333412D01*
X75609Y333433D01*
X75715Y333447D01*
X75792Y333455D01*
X75855Y333462D01*
X76038D01*
X76165Y333447D01*
X76411Y333412D01*
X76629Y333356D01*
X76735Y333328D01*
X76826Y333300D01*
X76918Y333272D01*
X76995Y333243D01*
X77058Y333215D01*
X77122Y333187D01*
X77164Y333166D01*
X77199Y333152D01*
X77220Y333145D01*
X77227Y333138D01*
X77340Y333075D01*
X77452Y333004D01*
X77649Y332850D01*
X77832Y332688D01*
X77910Y332610D01*
X77980Y332533D01*
X78050Y332455D01*
X78107Y332385D01*
X78156Y332322D01*
X78198Y332266D01*
X78233Y332223D01*
X78254Y332188D01*
X78269Y332167D01*
X78276Y332160D01*
X78269Y332427D01*
X78261Y332681D01*
X78240Y332913D01*
X78219Y333131D01*
X78198Y333328D01*
X78170Y333518D01*
X78135Y333687D01*
X78107Y333834D01*
X78079Y333968D01*
X78050Y334088D01*
X78022Y334186D01*
X77994Y334264D01*
X77973Y334327D01*
X77959Y334376D01*
X77945Y334404D01*
Y334411D01*
X77882Y334552D01*
X77811Y334686D01*
X77741Y334813D01*
X77663Y334932D01*
X77593Y335038D01*
X77516Y335136D01*
X77445Y335228D01*
X77375Y335305D01*
X77305Y335375D01*
X77248Y335439D01*
X77192Y335488D01*
X77143Y335530D01*
X77108Y335565D01*
X77073Y335586D01*
X77058Y335601D01*
X77051Y335607D01*
X76967Y335664D01*
X76883Y335713D01*
X76714Y335798D01*
X76545Y335854D01*
X76390Y335889D01*
X76313Y335903D01*
X76249Y335917D01*
X76193Y335924D01*
X76144D01*
X76101Y335931D01*
X76045D01*
X75919Y335924D01*
X75792Y335910D01*
X75672Y335882D01*
X75560Y335854D01*
X75454Y335812D01*
X75363Y335769D01*
X75271Y335720D01*
X75187Y335678D01*
X75110Y335629D01*
X75046Y335579D01*
X74990Y335537D01*
X74941Y335495D01*
X74905Y335467D01*
X74877Y335439D01*
X74863Y335425D01*
X74856Y335418D01*
X74800Y335354D01*
X74751Y335284D01*
X74659Y335122D01*
X74582Y334953D01*
X74518Y334791D01*
X74462Y334637D01*
X74448Y334573D01*
X74427Y334510D01*
X74413Y334468D01*
X74406Y334426D01*
X74399Y334404D01*
Y334397D01*
X73210Y334489D01*
X73245Y334693D01*
X73287Y334890D01*
X73344Y335073D01*
X73414Y335242D01*
X73477Y335404D01*
X73555Y335551D01*
X73632Y335685D01*
X73709Y335804D01*
X73787Y335910D01*
X73857Y336002D01*
X73920Y336086D01*
X73977Y336149D01*
X74026Y336199D01*
X74061Y336241D01*
X74089Y336262D01*
X74096Y336269D01*
X74237Y336381D01*
X74385Y336480D01*
X74540Y336571D01*
X74701Y336642D01*
X74856Y336705D01*
X75011Y336761D01*
X75166Y336804D01*
X75307Y336839D01*
X75447Y336860D01*
X75574Y336881D01*
X75686Y336895D01*
X75785Y336909D01*
X75862D01*
X75926Y336916D01*
X75975D01*
X76256Y336902D01*
D02*
G37*
G36*
X108283Y330063D02*
X104597D01*
Y331266D01*
X108283D01*
Y330063D01*
D02*
G37*
G36*
X146966Y327144D02*
X145728D01*
Y334784D01*
X140627Y327144D01*
X139297D01*
Y336881D01*
X140535D01*
Y329233D01*
X145643Y336881D01*
X146966D01*
Y327144D01*
D02*
G37*
G36*
X126527D02*
X125240D01*
Y331470D01*
X123572D01*
X123424Y331463D01*
X123298Y331456D01*
X123199Y331449D01*
X123129Y331435D01*
X123073Y331428D01*
X123037Y331421D01*
X123030D01*
X122918Y331386D01*
X122812Y331351D01*
X122714Y331302D01*
X122629Y331259D01*
X122552Y331224D01*
X122496Y331189D01*
X122460Y331168D01*
X122446Y331161D01*
X122334Y331083D01*
X122221Y330985D01*
X122116Y330872D01*
X122010Y330767D01*
X121926Y330668D01*
X121855Y330584D01*
X121827Y330549D01*
X121806Y330528D01*
X121799Y330514D01*
X121792Y330507D01*
X121722Y330415D01*
X121644Y330317D01*
X121489Y330106D01*
X121335Y329880D01*
X121187Y329662D01*
X121124Y329564D01*
X121060Y329472D01*
X121004Y329388D01*
X120955Y329310D01*
X120920Y329254D01*
X120891Y329205D01*
X120870Y329177D01*
X120863Y329170D01*
X119576Y327144D01*
X117964D01*
X119646Y329789D01*
X119836Y330070D01*
X119935Y330197D01*
X120026Y330324D01*
X120118Y330436D01*
X120209Y330542D01*
X120293Y330640D01*
X120371Y330732D01*
X120441Y330816D01*
X120512Y330886D01*
X120568Y330943D01*
X120617Y330999D01*
X120659Y331034D01*
X120687Y331069D01*
X120709Y331083D01*
X120716Y331091D01*
X120828Y331182D01*
X120948Y331266D01*
X121074Y331351D01*
X121201Y331421D01*
X121314Y331485D01*
X121363Y331513D01*
X121405Y331534D01*
X121440Y331555D01*
X121468Y331562D01*
X121482Y331576D01*
X121489D01*
X121236Y331618D01*
X120997Y331668D01*
X120779Y331731D01*
X120575Y331794D01*
X120392Y331871D01*
X120216Y331942D01*
X120068Y332019D01*
X119928Y332097D01*
X119808Y332174D01*
X119709Y332244D01*
X119618Y332308D01*
X119548Y332364D01*
X119491Y332413D01*
X119449Y332449D01*
X119428Y332470D01*
X119421Y332477D01*
X119301Y332610D01*
X119196Y332758D01*
X119104Y332899D01*
X119027Y333046D01*
X118964Y333194D01*
X118907Y333342D01*
X118865Y333483D01*
X118830Y333616D01*
X118802Y333743D01*
X118781Y333856D01*
X118767Y333961D01*
X118752Y334046D01*
Y334123D01*
X118745Y334179D01*
Y334207D01*
Y334221D01*
X118752Y334369D01*
X118760Y334517D01*
X118781Y334658D01*
X118809Y334791D01*
X118837Y334918D01*
X118872Y335038D01*
X118914Y335150D01*
X118949Y335256D01*
X118985Y335347D01*
X119027Y335432D01*
X119062Y335509D01*
X119090Y335572D01*
X119118Y335622D01*
X119132Y335657D01*
X119146Y335678D01*
X119154Y335685D01*
X119231Y335804D01*
X119315Y335917D01*
X119407Y336016D01*
X119491Y336114D01*
X119583Y336199D01*
X119674Y336276D01*
X119766Y336339D01*
X119850Y336403D01*
X119928Y336452D01*
X120005Y336494D01*
X120068Y336536D01*
X120125Y336564D01*
X120174Y336586D01*
X120209Y336600D01*
X120230Y336614D01*
X120237D01*
X120371Y336663D01*
X120519Y336705D01*
X120673Y336740D01*
X120828Y336768D01*
X121159Y336818D01*
X121321Y336832D01*
X121475Y336846D01*
X121630Y336860D01*
X121764Y336867D01*
X121890Y336874D01*
X122003D01*
X122087Y336881D01*
X126527D01*
Y327144D01*
D02*
G37*
G36*
X117782D02*
X116424D01*
X115361Y330092D01*
X111273D01*
X110148Y327144D01*
X108684D01*
X112667Y336881D01*
X114046D01*
X117782Y327144D01*
D02*
G37*
G36*
X103175D02*
X99299D01*
X99130Y327150D01*
X98975Y327158D01*
X98827Y327172D01*
X98694Y327179D01*
X98560Y327193D01*
X98440Y327207D01*
X98335Y327228D01*
X98236Y327242D01*
X98152Y327256D01*
X98074Y327270D01*
X98011Y327277D01*
X97962Y327291D01*
X97927Y327298D01*
X97906Y327305D01*
X97898D01*
X97666Y327376D01*
X97462Y327446D01*
X97279Y327530D01*
X97202Y327566D01*
X97125Y327608D01*
X97061Y327643D01*
X97005Y327678D01*
X96956Y327706D01*
X96913Y327734D01*
X96878Y327756D01*
X96857Y327770D01*
X96843Y327784D01*
X96836D01*
X96681Y327910D01*
X96548Y328058D01*
X96428Y328206D01*
X96322Y328354D01*
X96238Y328480D01*
X96203Y328537D01*
X96175Y328586D01*
X96154Y328628D01*
X96139Y328656D01*
X96125Y328677D01*
Y328684D01*
X96027Y328909D01*
X95957Y329135D01*
X95900Y329353D01*
X95865Y329550D01*
X95851Y329634D01*
X95844Y329719D01*
X95837Y329789D01*
Y329845D01*
X95830Y329894D01*
Y329937D01*
Y329958D01*
Y329965D01*
X95837Y330120D01*
X95851Y330267D01*
X95872Y330415D01*
X95907Y330549D01*
X95942Y330682D01*
X95978Y330802D01*
X96027Y330915D01*
X96069Y331020D01*
X96111Y331112D01*
X96154Y331196D01*
X96196Y331266D01*
X96231Y331323D01*
X96266Y331372D01*
X96287Y331407D01*
X96301Y331428D01*
X96308Y331435D01*
X96400Y331548D01*
X96498Y331653D01*
X96611Y331752D01*
X96716Y331836D01*
X96829Y331921D01*
X96942Y331991D01*
X97054Y332054D01*
X97167Y332111D01*
X97265Y332167D01*
X97364Y332209D01*
X97448Y332244D01*
X97519Y332273D01*
X97582Y332294D01*
X97624Y332308D01*
X97659Y332322D01*
X97666D01*
X97540Y332385D01*
X97427Y332455D01*
X97322Y332526D01*
X97216Y332603D01*
X97125Y332681D01*
X97040Y332751D01*
X96970Y332821D01*
X96899Y332892D01*
X96843Y332955D01*
X96787Y333018D01*
X96745Y333068D01*
X96709Y333117D01*
X96681Y333159D01*
X96660Y333187D01*
X96653Y333201D01*
X96646Y333208D01*
X96583Y333314D01*
X96533Y333419D01*
X96484Y333518D01*
X96449Y333623D01*
X96386Y333820D01*
X96343Y334003D01*
X96329Y334081D01*
X96322Y334158D01*
X96308Y334221D01*
Y334278D01*
X96301Y334320D01*
Y334355D01*
Y334376D01*
Y334383D01*
X96308Y334510D01*
X96315Y334630D01*
X96365Y334869D01*
X96421Y335087D01*
X96456Y335185D01*
X96491Y335284D01*
X96533Y335368D01*
X96569Y335439D01*
X96597Y335509D01*
X96625Y335565D01*
X96653Y335607D01*
X96674Y335643D01*
X96681Y335664D01*
X96688Y335671D01*
X96766Y335783D01*
X96843Y335889D01*
X96927Y335980D01*
X97012Y336072D01*
X97103Y336156D01*
X97188Y336227D01*
X97272Y336297D01*
X97357Y336353D01*
X97434Y336410D01*
X97512Y336452D01*
X97575Y336494D01*
X97631Y336522D01*
X97680Y336550D01*
X97716Y336564D01*
X97737Y336578D01*
X97744D01*
X97870Y336635D01*
X98011Y336677D01*
X98307Y336754D01*
X98602Y336811D01*
X98750Y336825D01*
X98890Y336846D01*
X99017Y336853D01*
X99144Y336867D01*
X99249Y336874D01*
X99348D01*
X99425Y336881D01*
X103175D01*
Y327144D01*
D02*
G37*
G36*
X133056Y337043D02*
X133239Y337036D01*
X133422Y337015D01*
X133598Y336994D01*
X133936Y336923D01*
X134259Y336839D01*
X134555Y336733D01*
X134829Y336614D01*
X135083Y336494D01*
X135315Y336367D01*
X135519Y336234D01*
X135702Y336114D01*
X135857Y335994D01*
X135983Y335896D01*
X136089Y335804D01*
X136131Y335769D01*
X136159Y335734D01*
X136187Y335713D01*
X136208Y335692D01*
X136215Y335685D01*
X136222Y335678D01*
X136342Y335544D01*
X136455Y335410D01*
X136553Y335270D01*
X136652Y335122D01*
X136827Y334819D01*
X136975Y334510D01*
X137102Y334193D01*
X137207Y333877D01*
X137292Y333567D01*
X137362Y333265D01*
X137411Y332983D01*
X137454Y332723D01*
X137468Y332603D01*
X137482Y332491D01*
X137496Y332385D01*
X137503Y332287D01*
X137510Y332195D01*
X137517Y332118D01*
Y332047D01*
X137524Y331991D01*
Y331949D01*
Y331914D01*
Y331893D01*
Y331886D01*
X137517Y331646D01*
X137503Y331414D01*
X137475Y331189D01*
X137440Y330964D01*
X137397Y330753D01*
X137348Y330556D01*
X137299Y330366D01*
X137243Y330190D01*
X137193Y330028D01*
X137144Y329887D01*
X137095Y329761D01*
X137053Y329655D01*
X137017Y329564D01*
X136989Y329501D01*
X136975Y329465D01*
X136968Y329451D01*
X136856Y329240D01*
X136736Y329043D01*
X136609Y328860D01*
X136476Y328684D01*
X136342Y328522D01*
X136208Y328375D01*
X136068Y328241D01*
X135941Y328114D01*
X135814Y328009D01*
X135702Y327910D01*
X135596Y327833D01*
X135505Y327763D01*
X135434Y327713D01*
X135378Y327671D01*
X135343Y327650D01*
X135329Y327643D01*
X135125Y327523D01*
X134914Y327425D01*
X134696Y327333D01*
X134485Y327263D01*
X134281Y327200D01*
X134076Y327144D01*
X133879Y327101D01*
X133689Y327066D01*
X133521Y327038D01*
X133359Y327017D01*
X133218Y327003D01*
X133098Y326996D01*
X133000Y326989D01*
X132930Y326982D01*
X132866D01*
X132634Y326989D01*
X132402Y327010D01*
X132177Y327038D01*
X131966Y327073D01*
X131755Y327122D01*
X131565Y327172D01*
X131382Y327228D01*
X131206Y327284D01*
X131051Y327333D01*
X130917Y327390D01*
X130798Y327439D01*
X130692Y327488D01*
X130615Y327523D01*
X130552Y327551D01*
X130516Y327573D01*
X130502Y327580D01*
X130305Y327699D01*
X130115Y327826D01*
X129939Y327967D01*
X129771Y328107D01*
X129623Y328255D01*
X129482Y328403D01*
X129355Y328544D01*
X129243Y328684D01*
X129144Y328818D01*
X129053Y328945D01*
X128976Y329057D01*
X128919Y329156D01*
X128870Y329233D01*
X128835Y329296D01*
X128814Y329332D01*
X128807Y329346D01*
X128701Y329571D01*
X128610Y329796D01*
X128532Y330021D01*
X128462Y330253D01*
X128406Y330478D01*
X128356Y330696D01*
X128314Y330908D01*
X128286Y331112D01*
X128258Y331295D01*
X128237Y331470D01*
X128230Y331618D01*
X128216Y331745D01*
Y331850D01*
X128209Y331900D01*
Y331935D01*
Y331963D01*
Y331984D01*
Y331991D01*
Y331998D01*
X128216Y332266D01*
X128230Y332526D01*
X128258Y332779D01*
X128300Y333018D01*
X128342Y333251D01*
X128392Y333462D01*
X128441Y333666D01*
X128490Y333849D01*
X128546Y334017D01*
X128596Y334165D01*
X128645Y334299D01*
X128687Y334404D01*
X128722Y334496D01*
X128750Y334559D01*
X128771Y334594D01*
X128779Y334608D01*
X128891Y334819D01*
X129011Y335017D01*
X129144Y335200D01*
X129278Y335375D01*
X129412Y335537D01*
X129552Y335685D01*
X129686Y335819D01*
X129820Y335938D01*
X129946Y336044D01*
X130059Y336142D01*
X130165Y336220D01*
X130256Y336283D01*
X130326Y336339D01*
X130383Y336374D01*
X130418Y336395D01*
X130432Y336403D01*
X130636Y336515D01*
X130847Y336614D01*
X131058Y336705D01*
X131269Y336776D01*
X131473Y336839D01*
X131677Y336895D01*
X131874Y336937D01*
X132057Y336973D01*
X132226Y336994D01*
X132381Y337015D01*
X132522Y337029D01*
X132641Y337043D01*
X132733D01*
X132803Y337050D01*
X132866D01*
X133056Y337043D01*
D02*
G37*
G36*
X84003Y336909D02*
X84186Y336895D01*
X84362Y336867D01*
X84530Y336825D01*
X84685Y336782D01*
X84833Y336733D01*
X84967Y336684D01*
X85086Y336635D01*
X85199Y336578D01*
X85290Y336529D01*
X85375Y336480D01*
X85445Y336438D01*
X85501Y336403D01*
X85536Y336374D01*
X85565Y336353D01*
X85572Y336346D01*
X85698Y336234D01*
X85818Y336114D01*
X85931Y335988D01*
X86036Y335854D01*
X86128Y335720D01*
X86212Y335579D01*
X86296Y335446D01*
X86360Y335319D01*
X86423Y335200D01*
X86479Y335087D01*
X86522Y334981D01*
X86564Y334897D01*
X86592Y334819D01*
X86613Y334770D01*
X86620Y334735D01*
X86627Y334721D01*
X86690Y334517D01*
X86740Y334299D01*
X86789Y334074D01*
X86831Y333842D01*
X86894Y333377D01*
X86916Y333152D01*
X86937Y332934D01*
X86951Y332730D01*
X86958Y332540D01*
X86965Y332371D01*
X86972Y332230D01*
Y332167D01*
X86979Y332111D01*
Y332062D01*
Y332019D01*
Y331984D01*
Y331963D01*
Y331949D01*
Y331942D01*
Y331689D01*
X86965Y331442D01*
X86958Y331210D01*
X86937Y330985D01*
X86916Y330767D01*
X86887Y330556D01*
X86859Y330359D01*
X86831Y330169D01*
X86796Y329979D01*
X86754Y329810D01*
X86719Y329641D01*
X86676Y329486D01*
X86634Y329332D01*
X86592Y329191D01*
X86543Y329057D01*
X86500Y328931D01*
X86458Y328818D01*
X86409Y328705D01*
X86367Y328607D01*
X86325Y328508D01*
X86282Y328424D01*
X86247Y328347D01*
X86205Y328276D01*
X86170Y328213D01*
X86142Y328157D01*
X86114Y328114D01*
X86085Y328072D01*
X86064Y328037D01*
X86043Y328016D01*
X86029Y327995D01*
X86022Y327988D01*
Y327981D01*
X85867Y327805D01*
X85698Y327650D01*
X85522Y327516D01*
X85339Y327404D01*
X85150Y327305D01*
X84967Y327228D01*
X84791Y327158D01*
X84615Y327108D01*
X84446Y327066D01*
X84298Y327038D01*
X84157Y327010D01*
X84038Y326996D01*
X83939Y326989D01*
X83869Y326982D01*
X83806D01*
X83609Y326989D01*
X83426Y327010D01*
X83250Y327038D01*
X83081Y327073D01*
X82926Y327115D01*
X82786Y327165D01*
X82652Y327214D01*
X82525Y327270D01*
X82420Y327319D01*
X82321Y327369D01*
X82244Y327418D01*
X82173Y327460D01*
X82117Y327502D01*
X82082Y327530D01*
X82054Y327545D01*
X82047Y327551D01*
X81920Y327664D01*
X81800Y327784D01*
X81688Y327910D01*
X81582Y328044D01*
X81491Y328185D01*
X81406Y328318D01*
X81322Y328452D01*
X81252Y328579D01*
X81195Y328698D01*
X81139Y328811D01*
X81097Y328917D01*
X81055Y329001D01*
X81027Y329078D01*
X81005Y329128D01*
X80998Y329163D01*
X80991Y329177D01*
X80928Y329381D01*
X80872Y329599D01*
X80822Y329824D01*
X80780Y330056D01*
X80717Y330514D01*
X80696Y330739D01*
X80675Y330957D01*
X80661Y331161D01*
X80654Y331344D01*
X80647Y331513D01*
X80640Y331660D01*
Y331724D01*
X80633Y331780D01*
Y331829D01*
Y331865D01*
Y331900D01*
Y331921D01*
Y331935D01*
Y331942D01*
Y332209D01*
X80640Y332455D01*
X80654Y332695D01*
X80668Y332913D01*
X80682Y333117D01*
X80703Y333307D01*
X80724Y333483D01*
X80745Y333638D01*
X80766Y333778D01*
X80787Y333898D01*
X80808Y334003D01*
X80822Y334088D01*
X80837Y334158D01*
X80851Y334200D01*
X80858Y334236D01*
Y334243D01*
X80900Y334397D01*
X80949Y334552D01*
X80991Y334693D01*
X81041Y334827D01*
X81097Y334953D01*
X81146Y335073D01*
X81195Y335185D01*
X81245Y335284D01*
X81287Y335375D01*
X81329Y335453D01*
X81364Y335523D01*
X81399Y335579D01*
X81428Y335622D01*
X81449Y335657D01*
X81456Y335678D01*
X81463Y335685D01*
X81611Y335896D01*
X81772Y336079D01*
X81934Y336241D01*
X82089Y336367D01*
X82159Y336424D01*
X82230Y336466D01*
X82286Y336508D01*
X82335Y336543D01*
X82378Y336564D01*
X82406Y336586D01*
X82427Y336600D01*
X82434D01*
X82546Y336656D01*
X82659Y336705D01*
X82898Y336782D01*
X83130Y336839D01*
X83341Y336874D01*
X83440Y336888D01*
X83524Y336902D01*
X83609Y336909D01*
X83672D01*
X83728Y336916D01*
X83806D01*
X84003Y336909D01*
D02*
G37*
G36*
X135814Y325027D02*
X136046Y325006D01*
X136272Y324978D01*
X136490Y324943D01*
X136694Y324900D01*
X136891Y324844D01*
X137074Y324795D01*
X137243Y324739D01*
X137390Y324682D01*
X137531Y324633D01*
X137651Y324584D01*
X137749Y324535D01*
X137834Y324499D01*
X137890Y324471D01*
X137925Y324450D01*
X137939Y324443D01*
X138136Y324324D01*
X138319Y324197D01*
X138488Y324063D01*
X138650Y323923D01*
X138798Y323782D01*
X138931Y323641D01*
X139058Y323493D01*
X139163Y323360D01*
X139262Y323233D01*
X139353Y323106D01*
X139424Y323001D01*
X139487Y322909D01*
X139529Y322825D01*
X139564Y322769D01*
X139586Y322733D01*
X139593Y322719D01*
X139691Y322501D01*
X139782Y322283D01*
X139860Y322058D01*
X139923Y321833D01*
X139980Y321608D01*
X140029Y321382D01*
X140064Y321171D01*
X140099Y320975D01*
X140120Y320784D01*
X140141Y320609D01*
X140148Y320454D01*
X140162Y320320D01*
Y320215D01*
X140169Y320172D01*
Y320137D01*
Y320109D01*
Y320088D01*
Y320074D01*
Y320067D01*
X140162Y319806D01*
X140148Y319553D01*
X140120Y319307D01*
X140092Y319075D01*
X140050Y318843D01*
X140008Y318631D01*
X139958Y318428D01*
X139909Y318237D01*
X139867Y318069D01*
X139818Y317914D01*
X139775Y317780D01*
X139733Y317668D01*
X139705Y317576D01*
X139677Y317513D01*
X139663Y317471D01*
X139656Y317464D01*
Y317457D01*
X139557Y317239D01*
X139445Y317027D01*
X139325Y316837D01*
X139206Y316654D01*
X139079Y316493D01*
X138952Y316338D01*
X138833Y316204D01*
X138713Y316077D01*
X138601Y315965D01*
X138495Y315874D01*
X138404Y315789D01*
X138319Y315726D01*
X138249Y315676D01*
X138200Y315634D01*
X138171Y315613D01*
X138157Y315606D01*
X137967Y315494D01*
X137763Y315395D01*
X137552Y315311D01*
X137341Y315233D01*
X137130Y315177D01*
X136912Y315121D01*
X136708Y315079D01*
X136504Y315043D01*
X136321Y315022D01*
X136145Y315001D01*
X135990Y314987D01*
X135857Y314973D01*
X135751D01*
X135702Y314966D01*
X135596D01*
X135315Y314973D01*
X135048Y315001D01*
X134794Y315043D01*
X134548Y315093D01*
X134323Y315156D01*
X134112Y315226D01*
X133915Y315304D01*
X133739Y315381D01*
X133577Y315458D01*
X133436Y315536D01*
X133310Y315606D01*
X133211Y315669D01*
X133127Y315719D01*
X133070Y315761D01*
X133035Y315789D01*
X133021Y315796D01*
X132831Y315965D01*
X132655Y316141D01*
X132493Y316331D01*
X132346Y316528D01*
X132212Y316732D01*
X132092Y316929D01*
X131987Y317126D01*
X131895Y317323D01*
X131811Y317506D01*
X131741Y317675D01*
X131684Y317822D01*
X131635Y317956D01*
X131600Y318062D01*
X131586Y318111D01*
X131579Y318146D01*
X131572Y318174D01*
X131565Y318195D01*
X131558Y318209D01*
Y318216D01*
X132845Y318540D01*
X132901Y318315D01*
X132965Y318111D01*
X133035Y317914D01*
X133120Y317738D01*
X133197Y317569D01*
X133288Y317414D01*
X133373Y317281D01*
X133457Y317154D01*
X133535Y317048D01*
X133612Y316950D01*
X133682Y316873D01*
X133746Y316809D01*
X133795Y316753D01*
X133830Y316718D01*
X133858Y316697D01*
X133865Y316690D01*
X134013Y316584D01*
X134161Y316486D01*
X134316Y316401D01*
X134471Y316331D01*
X134625Y316275D01*
X134780Y316225D01*
X134928Y316183D01*
X135069Y316148D01*
X135195Y316120D01*
X135322Y316106D01*
X135427Y316092D01*
X135519Y316077D01*
X135596D01*
X135653Y316070D01*
X135702D01*
X135864Y316077D01*
X136025Y316092D01*
X136180Y316113D01*
X136335Y316141D01*
X136476Y316176D01*
X136616Y316218D01*
X136743Y316253D01*
X136863Y316303D01*
X136968Y316345D01*
X137067Y316380D01*
X137151Y316422D01*
X137221Y316458D01*
X137278Y316486D01*
X137320Y316507D01*
X137348Y316521D01*
X137355Y316528D01*
X137496Y316619D01*
X137623Y316718D01*
X137742Y316823D01*
X137855Y316936D01*
X137953Y317048D01*
X138045Y317168D01*
X138129Y317281D01*
X138207Y317386D01*
X138270Y317492D01*
X138326Y317590D01*
X138375Y317682D01*
X138411Y317759D01*
X138446Y317822D01*
X138467Y317865D01*
X138474Y317900D01*
X138481Y317907D01*
X138544Y318083D01*
X138601Y318266D01*
X138650Y318449D01*
X138685Y318639D01*
X138755Y318997D01*
X138776Y319173D01*
X138798Y319342D01*
X138812Y319490D01*
X138819Y319631D01*
X138826Y319757D01*
X138833Y319863D01*
X138840Y319954D01*
Y320018D01*
Y320060D01*
Y320074D01*
X138833Y320257D01*
X138826Y320433D01*
X138791Y320770D01*
X138769Y320932D01*
X138741Y321087D01*
X138713Y321235D01*
X138685Y321368D01*
X138657Y321495D01*
X138636Y321608D01*
X138608Y321706D01*
X138587Y321791D01*
X138565Y321854D01*
X138551Y321903D01*
X138537Y321938D01*
Y321945D01*
X138474Y322114D01*
X138404Y322269D01*
X138326Y322417D01*
X138242Y322551D01*
X138157Y322684D01*
X138073Y322804D01*
X137981Y322909D01*
X137897Y323008D01*
X137812Y323092D01*
X137735Y323170D01*
X137665Y323233D01*
X137601Y323289D01*
X137552Y323331D01*
X137517Y323367D01*
X137489Y323381D01*
X137482Y323388D01*
X137334Y323486D01*
X137179Y323564D01*
X137024Y323641D01*
X136870Y323704D01*
X136708Y323754D01*
X136553Y323796D01*
X136405Y323831D01*
X136258Y323859D01*
X136124Y323887D01*
X135997Y323901D01*
X135885Y323915D01*
X135786Y323923D01*
X135709Y323929D01*
X135603D01*
X135420Y323923D01*
X135252Y323908D01*
X135090Y323887D01*
X134935Y323852D01*
X134794Y323817D01*
X134661Y323775D01*
X134541Y323732D01*
X134428Y323690D01*
X134330Y323641D01*
X134238Y323599D01*
X134161Y323557D01*
X134098Y323521D01*
X134048Y323486D01*
X134013Y323465D01*
X133992Y323451D01*
X133985Y323444D01*
X133865Y323345D01*
X133753Y323240D01*
X133654Y323120D01*
X133556Y323001D01*
X133464Y322867D01*
X133387Y322741D01*
X133310Y322614D01*
X133246Y322487D01*
X133190Y322368D01*
X133134Y322255D01*
X133091Y322156D01*
X133056Y322072D01*
X133028Y321995D01*
X133007Y321945D01*
X133000Y321910D01*
X132993Y321896D01*
X131727Y322192D01*
X131804Y322438D01*
X131903Y322670D01*
X132001Y322888D01*
X132114Y323092D01*
X132226Y323275D01*
X132339Y323451D01*
X132458Y323606D01*
X132571Y323747D01*
X132683Y323873D01*
X132782Y323979D01*
X132873Y324077D01*
X132958Y324148D01*
X133021Y324211D01*
X133077Y324253D01*
X133106Y324281D01*
X133120Y324288D01*
X133310Y324422D01*
X133507Y324535D01*
X133718Y324633D01*
X133922Y324717D01*
X134126Y324795D01*
X134330Y324851D01*
X134527Y324900D01*
X134717Y324943D01*
X134900Y324971D01*
X135062Y324992D01*
X135202Y325013D01*
X135329Y325020D01*
X135434Y325027D01*
X135477Y325034D01*
X135575D01*
X135814Y325027D01*
D02*
G37*
G36*
X131030Y315128D02*
X129672D01*
X128610Y318076D01*
X124522D01*
X123396Y315128D01*
X121933D01*
X125915Y324865D01*
X127294D01*
X131030Y315128D01*
D02*
G37*
G36*
X120884D02*
X119597D01*
Y319455D01*
X117929D01*
X117782Y319448D01*
X117655Y319441D01*
X117556Y319434D01*
X117486Y319420D01*
X117430Y319412D01*
X117395Y319405D01*
X117388D01*
X117275Y319370D01*
X117170Y319335D01*
X117071Y319286D01*
X116987Y319244D01*
X116909Y319209D01*
X116853Y319173D01*
X116818Y319152D01*
X116804Y319145D01*
X116691Y319068D01*
X116579Y318969D01*
X116473Y318857D01*
X116367Y318751D01*
X116283Y318653D01*
X116213Y318568D01*
X116185Y318533D01*
X116163Y318512D01*
X116156Y318498D01*
X116149Y318491D01*
X116079Y318399D01*
X116002Y318301D01*
X115847Y318090D01*
X115692Y317865D01*
X115544Y317647D01*
X115481Y317548D01*
X115418Y317457D01*
X115361Y317372D01*
X115312Y317295D01*
X115277Y317239D01*
X115249Y317189D01*
X115228Y317161D01*
X115221Y317154D01*
X113933Y315128D01*
X112322D01*
X114003Y317773D01*
X114193Y318055D01*
X114292Y318181D01*
X114383Y318308D01*
X114475Y318421D01*
X114566Y318526D01*
X114651Y318624D01*
X114728Y318716D01*
X114798Y318800D01*
X114869Y318871D01*
X114925Y318927D01*
X114974Y318983D01*
X115016Y319018D01*
X115045Y319054D01*
X115066Y319068D01*
X115073Y319075D01*
X115185Y319166D01*
X115305Y319251D01*
X115432Y319335D01*
X115558Y319405D01*
X115671Y319469D01*
X115720Y319497D01*
X115762Y319518D01*
X115798Y319539D01*
X115826Y319546D01*
X115840Y319560D01*
X115847D01*
X115594Y319603D01*
X115354Y319652D01*
X115136Y319715D01*
X114932Y319778D01*
X114749Y319856D01*
X114573Y319926D01*
X114425Y320004D01*
X114285Y320081D01*
X114165Y320158D01*
X114067Y320229D01*
X113975Y320292D01*
X113905Y320348D01*
X113849Y320397D01*
X113806Y320433D01*
X113785Y320454D01*
X113778Y320461D01*
X113659Y320594D01*
X113553Y320742D01*
X113462Y320883D01*
X113384Y321031D01*
X113321Y321179D01*
X113265Y321326D01*
X113222Y321467D01*
X113187Y321601D01*
X113159Y321727D01*
X113138Y321840D01*
X113124Y321945D01*
X113110Y322030D01*
Y322107D01*
X113103Y322164D01*
Y322192D01*
Y322206D01*
X113110Y322354D01*
X113117Y322501D01*
X113138Y322642D01*
X113166Y322776D01*
X113194Y322902D01*
X113229Y323022D01*
X113272Y323134D01*
X113307Y323240D01*
X113342Y323331D01*
X113384Y323416D01*
X113419Y323493D01*
X113448Y323557D01*
X113476Y323606D01*
X113490Y323641D01*
X113504Y323662D01*
X113511Y323669D01*
X113588Y323789D01*
X113673Y323901D01*
X113764Y324000D01*
X113849Y324098D01*
X113940Y324183D01*
X114031Y324260D01*
X114123Y324324D01*
X114207Y324387D01*
X114285Y324436D01*
X114362Y324478D01*
X114425Y324520D01*
X114482Y324549D01*
X114531Y324570D01*
X114566Y324584D01*
X114587Y324598D01*
X114594D01*
X114728Y324647D01*
X114876Y324689D01*
X115031Y324725D01*
X115185Y324753D01*
X115516Y324802D01*
X115678Y324816D01*
X115833Y324830D01*
X115988Y324844D01*
X116121Y324851D01*
X116248Y324858D01*
X116360D01*
X116445Y324865D01*
X120884D01*
Y315128D01*
D02*
G37*
G36*
X111062D02*
X109775D01*
Y319455D01*
X108107D01*
X107960Y319448D01*
X107833Y319441D01*
X107734Y319434D01*
X107664Y319420D01*
X107608Y319412D01*
X107573Y319405D01*
X107566D01*
X107453Y319370D01*
X107347Y319335D01*
X107249Y319286D01*
X107165Y319244D01*
X107087Y319209D01*
X107031Y319173D01*
X106996Y319152D01*
X106982Y319145D01*
X106869Y319068D01*
X106756Y318969D01*
X106651Y318857D01*
X106545Y318751D01*
X106461Y318653D01*
X106391Y318568D01*
X106362Y318533D01*
X106341Y318512D01*
X106334Y318498D01*
X106327Y318491D01*
X106257Y318399D01*
X106180Y318301D01*
X106025Y318090D01*
X105870Y317865D01*
X105722Y317647D01*
X105659Y317548D01*
X105596Y317457D01*
X105539Y317372D01*
X105490Y317295D01*
X105455Y317239D01*
X105427Y317189D01*
X105406Y317161D01*
X105399Y317154D01*
X104111Y315128D01*
X102500D01*
X104181Y317773D01*
X104371Y318055D01*
X104470Y318181D01*
X104561Y318308D01*
X104653Y318421D01*
X104744Y318526D01*
X104829Y318624D01*
X104906Y318716D01*
X104976Y318800D01*
X105047Y318871D01*
X105103Y318927D01*
X105152Y318983D01*
X105195Y319018D01*
X105223Y319054D01*
X105244Y319068D01*
X105251Y319075D01*
X105363Y319166D01*
X105483Y319251D01*
X105610Y319335D01*
X105736Y319405D01*
X105849Y319469D01*
X105898Y319497D01*
X105940Y319518D01*
X105976Y319539D01*
X106004Y319546D01*
X106018Y319560D01*
X106025D01*
X105772Y319603D01*
X105532Y319652D01*
X105314Y319715D01*
X105110Y319778D01*
X104927Y319856D01*
X104751Y319926D01*
X104604Y320004D01*
X104463Y320081D01*
X104343Y320158D01*
X104245Y320229D01*
X104153Y320292D01*
X104083Y320348D01*
X104027Y320397D01*
X103984Y320433D01*
X103963Y320454D01*
X103956Y320461D01*
X103837Y320594D01*
X103731Y320742D01*
X103640Y320883D01*
X103562Y321031D01*
X103499Y321179D01*
X103443Y321326D01*
X103400Y321467D01*
X103365Y321601D01*
X103337Y321727D01*
X103316Y321840D01*
X103302Y321945D01*
X103288Y322030D01*
Y322107D01*
X103281Y322164D01*
Y322192D01*
Y322206D01*
X103288Y322354D01*
X103295Y322501D01*
X103316Y322642D01*
X103344Y322776D01*
X103372Y322902D01*
X103407Y323022D01*
X103450Y323134D01*
X103485Y323240D01*
X103520Y323331D01*
X103562Y323416D01*
X103597Y323493D01*
X103626Y323557D01*
X103654Y323606D01*
X103668Y323641D01*
X103682Y323662D01*
X103689Y323669D01*
X103766Y323789D01*
X103851Y323901D01*
X103942Y324000D01*
X104027Y324098D01*
X104118Y324183D01*
X104209Y324260D01*
X104301Y324324D01*
X104385Y324387D01*
X104463Y324436D01*
X104540Y324478D01*
X104604Y324520D01*
X104660Y324549D01*
X104709Y324570D01*
X104744Y324584D01*
X104765Y324598D01*
X104772D01*
X104906Y324647D01*
X105054Y324689D01*
X105209Y324725D01*
X105363Y324753D01*
X105694Y324802D01*
X105856Y324816D01*
X106011Y324830D01*
X106166Y324844D01*
X106299Y324851D01*
X106426Y324858D01*
X106538D01*
X106623Y324865D01*
X111062D01*
Y315128D01*
D02*
G37*
G36*
X101043D02*
X99756D01*
Y324865D01*
X101043D01*
Y315128D01*
D02*
G37*
G36*
X97455D02*
X90194D01*
Y316275D01*
X96168D01*
Y319588D01*
X90785D01*
Y320735D01*
X96168D01*
Y323718D01*
X90419D01*
Y324865D01*
X97455D01*
Y315128D01*
D02*
G37*
G36*
X88393D02*
X87106D01*
Y319455D01*
X85438D01*
X85290Y319448D01*
X85164Y319441D01*
X85065Y319434D01*
X84995Y319420D01*
X84938Y319412D01*
X84903Y319405D01*
X84896D01*
X84784Y319370D01*
X84678Y319335D01*
X84580Y319286D01*
X84495Y319244D01*
X84418Y319209D01*
X84362Y319173D01*
X84326Y319152D01*
X84312Y319145D01*
X84200Y319068D01*
X84087Y318969D01*
X83982Y318857D01*
X83876Y318751D01*
X83792Y318653D01*
X83721Y318568D01*
X83693Y318533D01*
X83672Y318512D01*
X83665Y318498D01*
X83658Y318491D01*
X83588Y318399D01*
X83510Y318301D01*
X83355Y318090D01*
X83201Y317865D01*
X83053Y317647D01*
X82990Y317548D01*
X82926Y317457D01*
X82870Y317372D01*
X82821Y317295D01*
X82786Y317239D01*
X82757Y317189D01*
X82736Y317161D01*
X82729Y317154D01*
X81442Y315128D01*
X79830D01*
X81512Y317773D01*
X81702Y318055D01*
X81800Y318181D01*
X81892Y318308D01*
X81983Y318421D01*
X82075Y318526D01*
X82159Y318624D01*
X82237Y318716D01*
X82307Y318800D01*
X82378Y318871D01*
X82434Y318927D01*
X82483Y318983D01*
X82525Y319018D01*
X82553Y319054D01*
X82575Y319068D01*
X82582Y319075D01*
X82694Y319166D01*
X82814Y319251D01*
X82940Y319335D01*
X83067Y319405D01*
X83180Y319469D01*
X83229Y319497D01*
X83271Y319518D01*
X83306Y319539D01*
X83334Y319546D01*
X83348Y319560D01*
X83355D01*
X83102Y319603D01*
X82863Y319652D01*
X82645Y319715D01*
X82441Y319778D01*
X82258Y319856D01*
X82082Y319926D01*
X81934Y320004D01*
X81793Y320081D01*
X81674Y320158D01*
X81575Y320229D01*
X81484Y320292D01*
X81414Y320348D01*
X81357Y320397D01*
X81315Y320433D01*
X81294Y320454D01*
X81287Y320461D01*
X81167Y320594D01*
X81062Y320742D01*
X80970Y320883D01*
X80893Y321031D01*
X80830Y321179D01*
X80773Y321326D01*
X80731Y321467D01*
X80696Y321601D01*
X80668Y321727D01*
X80647Y321840D01*
X80633Y321945D01*
X80618Y322030D01*
Y322107D01*
X80611Y322164D01*
Y322192D01*
Y322206D01*
X80618Y322354D01*
X80625Y322501D01*
X80647Y322642D01*
X80675Y322776D01*
X80703Y322902D01*
X80738Y323022D01*
X80780Y323134D01*
X80815Y323240D01*
X80851Y323331D01*
X80893Y323416D01*
X80928Y323493D01*
X80956Y323557D01*
X80984Y323606D01*
X80998Y323641D01*
X81012Y323662D01*
X81019Y323669D01*
X81097Y323789D01*
X81181Y323901D01*
X81273Y324000D01*
X81357Y324098D01*
X81449Y324183D01*
X81540Y324260D01*
X81632Y324324D01*
X81716Y324387D01*
X81793Y324436D01*
X81871Y324478D01*
X81934Y324520D01*
X81990Y324549D01*
X82040Y324570D01*
X82075Y324584D01*
X82096Y324598D01*
X82103D01*
X82237Y324647D01*
X82385Y324689D01*
X82539Y324725D01*
X82694Y324753D01*
X83025Y324802D01*
X83187Y324816D01*
X83341Y324830D01*
X83496Y324844D01*
X83630Y324851D01*
X83757Y324858D01*
X83869D01*
X83954Y324865D01*
X88393D01*
Y315128D01*
D02*
G37*
G36*
X104604Y306032D02*
X100917D01*
Y307235D01*
X104604D01*
Y306032D01*
D02*
G37*
G36*
X139543Y303112D02*
X138298D01*
Y311400D01*
X135491Y303112D01*
X134323D01*
X131487Y311259D01*
Y303112D01*
X130242D01*
Y312850D01*
X131980D01*
X134316Y306074D01*
X134379Y305884D01*
X134442Y305708D01*
X134492Y305546D01*
X134548Y305392D01*
X134590Y305251D01*
X134632Y305124D01*
X134675Y305012D01*
X134710Y304906D01*
X134738Y304815D01*
X134766Y304737D01*
X134787Y304667D01*
X134801Y304611D01*
X134815Y304568D01*
X134829Y304540D01*
X134836Y304519D01*
Y304512D01*
X134865Y304611D01*
X134900Y304709D01*
X134935Y304822D01*
X134970Y304941D01*
X135048Y305180D01*
X135125Y305413D01*
X135160Y305525D01*
X135195Y305624D01*
X135223Y305715D01*
X135252Y305800D01*
X135273Y305863D01*
X135287Y305912D01*
X135294Y305940D01*
X135301Y305954D01*
X137608Y312850D01*
X139543D01*
Y303112D01*
D02*
G37*
G36*
X129229D02*
X127871D01*
X126809Y306060D01*
X122721D01*
X121595Y303112D01*
X120132D01*
X124114Y312850D01*
X125493D01*
X129229Y303112D01*
D02*
G37*
G36*
X119154D02*
X113075D01*
Y304259D01*
X117866D01*
Y312850D01*
X119154D01*
Y303112D01*
D02*
G37*
G36*
X111590D02*
X105511D01*
Y304259D01*
X110302D01*
Y312850D01*
X111590D01*
Y303112D01*
D02*
G37*
G36*
X90159D02*
X88871D01*
Y312850D01*
X90159D01*
Y303112D01*
D02*
G37*
G36*
X86810Y311703D02*
X81378D01*
X81561Y311513D01*
X81744Y311309D01*
X81913Y311119D01*
X82068Y310936D01*
X82138Y310851D01*
X82202Y310781D01*
X82251Y310711D01*
X82300Y310654D01*
X82342Y310605D01*
X82370Y310570D01*
X82385Y310549D01*
X82392Y310542D01*
X87373Y304301D01*
Y303112D01*
X79676Y303112D01*
Y304259D01*
X85895Y304259D01*
X85311Y304941D01*
X79837Y311703D01*
Y312850D01*
X86810D01*
Y311703D01*
D02*
G37*
G36*
X78261Y303112D02*
X71001D01*
Y304259D01*
X76974D01*
Y307573D01*
X71592D01*
Y308720D01*
X76974D01*
Y311703D01*
X71226D01*
Y312850D01*
X78261D01*
Y303112D01*
D02*
G37*
G36*
X145397Y313011D02*
X145573Y313004D01*
X145742Y312990D01*
X145911Y312969D01*
X146066Y312941D01*
X146213Y312913D01*
X146347Y312885D01*
X146474Y312850D01*
X146593Y312821D01*
X146699Y312786D01*
X146783Y312758D01*
X146861Y312737D01*
X146924Y312709D01*
X146966Y312695D01*
X146994Y312688D01*
X147001Y312681D01*
X147149Y312617D01*
X147283Y312547D01*
X147409Y312470D01*
X147529Y312392D01*
X147641Y312308D01*
X147740Y312230D01*
X147831Y312146D01*
X147909Y312069D01*
X147979Y311998D01*
X148043Y311928D01*
X148099Y311871D01*
X148141Y311815D01*
X148176Y311773D01*
X148197Y311738D01*
X148211Y311717D01*
X148218Y311710D01*
X148289Y311590D01*
X148352Y311464D01*
X148408Y311344D01*
X148458Y311224D01*
X148500Y311105D01*
X148535Y310992D01*
X148556Y310886D01*
X148584Y310781D01*
X148598Y310683D01*
X148612Y310598D01*
X148619Y310521D01*
X148627Y310457D01*
X148634Y310401D01*
Y310366D01*
Y310338D01*
Y310331D01*
X148627Y310204D01*
X148619Y310084D01*
X148577Y309859D01*
X148528Y309655D01*
X148493Y309564D01*
X148465Y309472D01*
X148429Y309395D01*
X148401Y309325D01*
X148373Y309268D01*
X148345Y309219D01*
X148324Y309177D01*
X148310Y309149D01*
X148303Y309128D01*
X148296Y309121D01*
X148225Y309022D01*
X148155Y308923D01*
X147986Y308748D01*
X147817Y308593D01*
X147649Y308466D01*
X147564Y308410D01*
X147494Y308361D01*
X147423Y308311D01*
X147367Y308276D01*
X147318Y308248D01*
X147283Y308227D01*
X147262Y308220D01*
X147255Y308213D01*
X147142Y308157D01*
X147022Y308107D01*
X146882Y308051D01*
X146734Y307995D01*
X146424Y307889D01*
X146115Y307798D01*
X145974Y307756D01*
X145833Y307720D01*
X145707Y307685D01*
X145601Y307657D01*
X145510Y307636D01*
X145439Y307615D01*
X145418Y307608D01*
X145397D01*
X145390Y307601D01*
X145383D01*
X145144Y307544D01*
X144926Y307488D01*
X144722Y307439D01*
X144546Y307390D01*
X144384Y307348D01*
X144243Y307312D01*
X144124Y307277D01*
X144011Y307242D01*
X143920Y307214D01*
X143842Y307193D01*
X143786Y307172D01*
X143737Y307158D01*
X143694Y307143D01*
X143673Y307136D01*
X143659Y307129D01*
X143652D01*
X143540Y307080D01*
X143441Y307038D01*
X143343Y306989D01*
X143258Y306939D01*
X143174Y306890D01*
X143103Y306841D01*
X143040Y306792D01*
X142984Y306749D01*
X142935Y306707D01*
X142892Y306665D01*
X142822Y306602D01*
X142787Y306560D01*
X142773Y306553D01*
Y306545D01*
X142681Y306412D01*
X142611Y306278D01*
X142562Y306144D01*
X142534Y306025D01*
X142512Y305912D01*
X142505Y305870D01*
Y305828D01*
X142498Y305793D01*
Y305772D01*
Y305757D01*
Y305750D01*
X142512Y305589D01*
X142541Y305427D01*
X142590Y305286D01*
X142639Y305166D01*
X142688Y305061D01*
X142717Y305019D01*
X142738Y304984D01*
X142752Y304955D01*
X142766Y304934D01*
X142780Y304920D01*
Y304913D01*
X142892Y304779D01*
X143026Y304660D01*
X143167Y304554D01*
X143300Y304470D01*
X143427Y304407D01*
X143476Y304378D01*
X143526Y304357D01*
X143561Y304336D01*
X143589Y304322D01*
X143610Y304315D01*
X143617D01*
X143835Y304245D01*
X144053Y304188D01*
X144271Y304153D01*
X144475Y304125D01*
X144567Y304118D01*
X144651Y304111D01*
X144722Y304104D01*
X144785D01*
X144841Y304097D01*
X144912D01*
X145214Y304111D01*
X145496Y304139D01*
X145629Y304167D01*
X145749Y304188D01*
X145869Y304217D01*
X145974Y304245D01*
X146066Y304266D01*
X146157Y304294D01*
X146227Y304322D01*
X146291Y304343D01*
X146340Y304357D01*
X146382Y304371D01*
X146403Y304385D01*
X146410D01*
X146530Y304442D01*
X146643Y304498D01*
X146748Y304561D01*
X146840Y304625D01*
X146931Y304688D01*
X147008Y304751D01*
X147086Y304815D01*
X147149Y304871D01*
X147205Y304927D01*
X147255Y304977D01*
X147297Y305019D01*
X147325Y305061D01*
X147353Y305096D01*
X147374Y305117D01*
X147381Y305131D01*
X147388Y305138D01*
X147494Y305328D01*
X147578Y305525D01*
X147649Y305729D01*
X147698Y305919D01*
X147719Y306011D01*
X147740Y306088D01*
X147754Y306166D01*
X147761Y306229D01*
X147775Y306278D01*
Y306313D01*
X147782Y306341D01*
Y306348D01*
X148999Y306243D01*
X148992Y306060D01*
X148971Y305884D01*
X148943Y305715D01*
X148908Y305553D01*
X148866Y305406D01*
X148824Y305258D01*
X148774Y305124D01*
X148725Y304998D01*
X148683Y304885D01*
X148634Y304786D01*
X148591Y304702D01*
X148549Y304625D01*
X148521Y304568D01*
X148493Y304526D01*
X148479Y304498D01*
X148472Y304491D01*
X148373Y304350D01*
X148268Y304217D01*
X148155Y304097D01*
X148035Y303984D01*
X147923Y303879D01*
X147803Y303780D01*
X147691Y303696D01*
X147578Y303619D01*
X147480Y303555D01*
X147381Y303492D01*
X147297Y303443D01*
X147219Y303400D01*
X147156Y303372D01*
X147114Y303351D01*
X147079Y303337D01*
X147072Y303330D01*
X146903Y303267D01*
X146720Y303203D01*
X146537Y303154D01*
X146347Y303112D01*
X145974Y303042D01*
X145798Y303020D01*
X145629Y302999D01*
X145468Y302985D01*
X145320Y302971D01*
X145186Y302964D01*
X145073Y302957D01*
X144982Y302950D01*
X144855D01*
X144665Y302957D01*
X144475Y302964D01*
X144292Y302985D01*
X144124Y303006D01*
X143962Y303042D01*
X143807Y303070D01*
X143659Y303105D01*
X143526Y303140D01*
X143406Y303175D01*
X143300Y303211D01*
X143209Y303246D01*
X143132Y303274D01*
X143068Y303295D01*
X143019Y303316D01*
X142991Y303323D01*
X142984Y303330D01*
X142829Y303407D01*
X142688Y303485D01*
X142555Y303569D01*
X142435Y303654D01*
X142323Y303745D01*
X142217Y303837D01*
X142118Y303921D01*
X142034Y304006D01*
X141957Y304083D01*
X141893Y304153D01*
X141837Y304224D01*
X141795Y304280D01*
X141760Y304329D01*
X141732Y304364D01*
X141717Y304385D01*
X141710Y304393D01*
X141633Y304526D01*
X141563Y304653D01*
X141499Y304786D01*
X141450Y304913D01*
X141408Y305040D01*
X141373Y305159D01*
X141337Y305279D01*
X141316Y305385D01*
X141295Y305490D01*
X141281Y305581D01*
X141274Y305659D01*
X141267Y305729D01*
X141260Y305786D01*
Y305828D01*
Y305856D01*
Y305863D01*
X141267Y306011D01*
X141274Y306144D01*
X141295Y306278D01*
X141323Y306405D01*
X141351Y306531D01*
X141387Y306644D01*
X141429Y306749D01*
X141464Y306848D01*
X141499Y306932D01*
X141542Y307010D01*
X141577Y307080D01*
X141605Y307136D01*
X141633Y307179D01*
X141647Y307214D01*
X141661Y307235D01*
X141668Y307242D01*
X141753Y307355D01*
X141837Y307460D01*
X142034Y307657D01*
X142245Y307826D01*
X142351Y307903D01*
X142449Y307967D01*
X142548Y308030D01*
X142639Y308086D01*
X142717Y308129D01*
X142787Y308171D01*
X142843Y308199D01*
X142892Y308220D01*
X142921Y308234D01*
X142928Y308241D01*
X143047Y308290D01*
X143188Y308340D01*
X143343Y308396D01*
X143511Y308445D01*
X143687Y308501D01*
X143863Y308551D01*
X144222Y308642D01*
X144391Y308691D01*
X144553Y308727D01*
X144701Y308762D01*
X144827Y308797D01*
X144933Y308818D01*
X144975Y308832D01*
X145010Y308839D01*
X145038Y308846D01*
X145059D01*
X145073Y308853D01*
X145080D01*
X145362Y308923D01*
X145615Y308987D01*
X145840Y309050D01*
X146044Y309114D01*
X146220Y309177D01*
X146382Y309233D01*
X146516Y309289D01*
X146635Y309339D01*
X146734Y309388D01*
X146811Y309430D01*
X146882Y309465D01*
X146931Y309501D01*
X146973Y309522D01*
X146994Y309543D01*
X147008Y309550D01*
X147015Y309557D01*
X147079Y309620D01*
X147135Y309690D01*
X147191Y309761D01*
X147233Y309838D01*
X147297Y309979D01*
X147339Y310120D01*
X147367Y310239D01*
X147374Y310289D01*
X147381Y310338D01*
X147388Y310373D01*
Y310401D01*
Y310415D01*
Y310422D01*
X147381Y310535D01*
X147367Y310640D01*
X147339Y310746D01*
X147304Y310837D01*
X147219Y311013D01*
X147170Y311098D01*
X147121Y311168D01*
X147072Y311231D01*
X147029Y311288D01*
X146980Y311337D01*
X146945Y311379D01*
X146910Y311414D01*
X146882Y311435D01*
X146868Y311449D01*
X146861Y311456D01*
X146755Y311534D01*
X146635Y311597D01*
X146502Y311653D01*
X146368Y311703D01*
X146227Y311745D01*
X146087Y311780D01*
X145805Y311829D01*
X145679Y311850D01*
X145552Y311864D01*
X145446Y311871D01*
X145348Y311879D01*
X145271Y311886D01*
X145158D01*
X144954Y311879D01*
X144764Y311864D01*
X144588Y311843D01*
X144419Y311815D01*
X144271Y311773D01*
X144131Y311738D01*
X144004Y311696D01*
X143891Y311653D01*
X143793Y311604D01*
X143708Y311562D01*
X143638Y311527D01*
X143575Y311492D01*
X143526Y311456D01*
X143497Y311435D01*
X143476Y311421D01*
X143469Y311414D01*
X143371Y311323D01*
X143279Y311217D01*
X143195Y311112D01*
X143125Y310999D01*
X143061Y310879D01*
X143005Y310767D01*
X142956Y310654D01*
X142921Y310542D01*
X142885Y310436D01*
X142857Y310338D01*
X142836Y310246D01*
X142822Y310176D01*
X142808Y310113D01*
X142801Y310063D01*
X142794Y310035D01*
Y310021D01*
X141556Y310113D01*
X141570Y310267D01*
X141584Y310422D01*
X141612Y310570D01*
X141647Y310711D01*
X141682Y310844D01*
X141724Y310971D01*
X141767Y311091D01*
X141809Y311196D01*
X141858Y311295D01*
X141893Y311379D01*
X141936Y311456D01*
X141971Y311520D01*
X141999Y311569D01*
X142020Y311611D01*
X142034Y311632D01*
X142041Y311639D01*
X142126Y311766D01*
X142224Y311879D01*
X142323Y311991D01*
X142428Y312090D01*
X142534Y312181D01*
X142639Y312265D01*
X142738Y312343D01*
X142843Y312406D01*
X142935Y312470D01*
X143026Y312519D01*
X143103Y312568D01*
X143174Y312603D01*
X143230Y312631D01*
X143272Y312652D01*
X143300Y312659D01*
X143308Y312667D01*
X143462Y312730D01*
X143624Y312786D01*
X143786Y312828D01*
X143955Y312871D01*
X144271Y312934D01*
X144426Y312955D01*
X144567Y312976D01*
X144708Y312990D01*
X144827Y312997D01*
X144940Y313011D01*
X145031D01*
X145109Y313018D01*
X145214D01*
X145397Y313011D01*
D02*
G37*
G36*
X96273D02*
X96449Y313004D01*
X96618Y312990D01*
X96787Y312969D01*
X96942Y312941D01*
X97089Y312913D01*
X97223Y312885D01*
X97350Y312850D01*
X97469Y312821D01*
X97575Y312786D01*
X97659Y312758D01*
X97737Y312737D01*
X97800Y312709D01*
X97842Y312695D01*
X97870Y312688D01*
X97877Y312681D01*
X98025Y312617D01*
X98159Y312547D01*
X98285Y312470D01*
X98405Y312392D01*
X98518Y312308D01*
X98616Y312230D01*
X98708Y312146D01*
X98785Y312069D01*
X98855Y311998D01*
X98919Y311928D01*
X98975Y311871D01*
X99017Y311815D01*
X99052Y311773D01*
X99073Y311738D01*
X99087Y311717D01*
X99094Y311710D01*
X99165Y311590D01*
X99228Y311464D01*
X99284Y311344D01*
X99334Y311224D01*
X99376Y311105D01*
X99411Y310992D01*
X99432Y310886D01*
X99460Y310781D01*
X99474Y310683D01*
X99488Y310598D01*
X99496Y310521D01*
X99503Y310457D01*
X99510Y310401D01*
Y310366D01*
Y310338D01*
Y310331D01*
X99503Y310204D01*
X99496Y310084D01*
X99453Y309859D01*
X99404Y309655D01*
X99369Y309564D01*
X99341Y309472D01*
X99306Y309395D01*
X99277Y309325D01*
X99249Y309268D01*
X99221Y309219D01*
X99200Y309177D01*
X99186Y309149D01*
X99179Y309128D01*
X99172Y309121D01*
X99102Y309022D01*
X99031Y308923D01*
X98862Y308748D01*
X98694Y308593D01*
X98525Y308466D01*
X98440Y308410D01*
X98370Y308361D01*
X98300Y308311D01*
X98243Y308276D01*
X98194Y308248D01*
X98159Y308227D01*
X98138Y308220D01*
X98131Y308213D01*
X98018Y308157D01*
X97898Y308107D01*
X97758Y308051D01*
X97610Y307995D01*
X97300Y307889D01*
X96991Y307798D01*
X96850Y307756D01*
X96709Y307720D01*
X96583Y307685D01*
X96477Y307657D01*
X96386Y307636D01*
X96315Y307615D01*
X96294Y307608D01*
X96273D01*
X96266Y307601D01*
X96259D01*
X96020Y307544D01*
X95802Y307488D01*
X95598Y307439D01*
X95422Y307390D01*
X95260Y307348D01*
X95119Y307312D01*
X95000Y307277D01*
X94887Y307242D01*
X94796Y307214D01*
X94718Y307193D01*
X94662Y307172D01*
X94613Y307158D01*
X94571Y307143D01*
X94549Y307136D01*
X94535Y307129D01*
X94528D01*
X94416Y307080D01*
X94317Y307038D01*
X94219Y306989D01*
X94134Y306939D01*
X94050Y306890D01*
X93980Y306841D01*
X93916Y306792D01*
X93860Y306749D01*
X93811Y306707D01*
X93768Y306665D01*
X93698Y306602D01*
X93663Y306560D01*
X93649Y306553D01*
Y306545D01*
X93557Y306412D01*
X93487Y306278D01*
X93438Y306144D01*
X93410Y306025D01*
X93389Y305912D01*
X93381Y305870D01*
Y305828D01*
X93374Y305793D01*
Y305772D01*
Y305757D01*
Y305750D01*
X93389Y305589D01*
X93417Y305427D01*
X93466Y305286D01*
X93515Y305166D01*
X93564Y305061D01*
X93593Y305019D01*
X93614Y304984D01*
X93628Y304955D01*
X93642Y304934D01*
X93656Y304920D01*
Y304913D01*
X93768Y304779D01*
X93902Y304660D01*
X94043Y304554D01*
X94177Y304470D01*
X94303Y304407D01*
X94352Y304378D01*
X94402Y304357D01*
X94437Y304336D01*
X94465Y304322D01*
X94486Y304315D01*
X94493D01*
X94711Y304245D01*
X94929Y304188D01*
X95147Y304153D01*
X95351Y304125D01*
X95443Y304118D01*
X95527Y304111D01*
X95598Y304104D01*
X95661D01*
X95717Y304097D01*
X95788D01*
X96090Y304111D01*
X96372Y304139D01*
X96505Y304167D01*
X96625Y304188D01*
X96745Y304217D01*
X96850Y304245D01*
X96942Y304266D01*
X97033Y304294D01*
X97103Y304322D01*
X97167Y304343D01*
X97216Y304357D01*
X97258Y304371D01*
X97279Y304385D01*
X97286D01*
X97406Y304442D01*
X97519Y304498D01*
X97624Y304561D01*
X97716Y304625D01*
X97807Y304688D01*
X97884Y304751D01*
X97962Y304815D01*
X98025Y304871D01*
X98081Y304927D01*
X98131Y304977D01*
X98173Y305019D01*
X98201Y305061D01*
X98229Y305096D01*
X98250Y305117D01*
X98257Y305131D01*
X98264Y305138D01*
X98370Y305328D01*
X98454Y305525D01*
X98525Y305729D01*
X98574Y305919D01*
X98595Y306011D01*
X98616Y306088D01*
X98630Y306166D01*
X98637Y306229D01*
X98651Y306278D01*
Y306313D01*
X98658Y306341D01*
Y306348D01*
X99875Y306243D01*
X99868Y306060D01*
X99847Y305884D01*
X99819Y305715D01*
X99784Y305553D01*
X99742Y305406D01*
X99700Y305258D01*
X99650Y305124D01*
X99601Y304998D01*
X99559Y304885D01*
X99510Y304786D01*
X99467Y304702D01*
X99425Y304625D01*
X99397Y304568D01*
X99369Y304526D01*
X99355Y304498D01*
X99348Y304491D01*
X99249Y304350D01*
X99144Y304217D01*
X99031Y304097D01*
X98912Y303984D01*
X98799Y303879D01*
X98679Y303780D01*
X98567Y303696D01*
X98454Y303619D01*
X98356Y303555D01*
X98257Y303492D01*
X98173Y303443D01*
X98095Y303400D01*
X98032Y303372D01*
X97990Y303351D01*
X97955Y303337D01*
X97948Y303330D01*
X97779Y303267D01*
X97596Y303203D01*
X97413Y303154D01*
X97223Y303112D01*
X96850Y303042D01*
X96674Y303020D01*
X96505Y302999D01*
X96343Y302985D01*
X96196Y302971D01*
X96062Y302964D01*
X95949Y302957D01*
X95858Y302950D01*
X95731D01*
X95541Y302957D01*
X95351Y302964D01*
X95169Y302985D01*
X95000Y303006D01*
X94838Y303042D01*
X94683Y303070D01*
X94535Y303105D01*
X94402Y303140D01*
X94282Y303175D01*
X94177Y303211D01*
X94085Y303246D01*
X94008Y303274D01*
X93944Y303295D01*
X93895Y303316D01*
X93867Y303323D01*
X93860Y303330D01*
X93705Y303407D01*
X93564Y303485D01*
X93431Y303569D01*
X93311Y303654D01*
X93198Y303745D01*
X93093Y303837D01*
X92994Y303921D01*
X92910Y304006D01*
X92833Y304083D01*
X92769Y304153D01*
X92713Y304224D01*
X92671Y304280D01*
X92636Y304329D01*
X92607Y304364D01*
X92593Y304385D01*
X92586Y304393D01*
X92509Y304526D01*
X92439Y304653D01*
X92375Y304786D01*
X92326Y304913D01*
X92284Y305040D01*
X92249Y305159D01*
X92213Y305279D01*
X92192Y305385D01*
X92171Y305490D01*
X92157Y305581D01*
X92150Y305659D01*
X92143Y305729D01*
X92136Y305786D01*
Y305828D01*
Y305856D01*
Y305863D01*
X92143Y306011D01*
X92150Y306144D01*
X92171Y306278D01*
X92199Y306405D01*
X92228Y306531D01*
X92263Y306644D01*
X92305Y306749D01*
X92340Y306848D01*
X92375Y306932D01*
X92417Y307010D01*
X92453Y307080D01*
X92481Y307136D01*
X92509Y307179D01*
X92523Y307214D01*
X92537Y307235D01*
X92544Y307242D01*
X92629Y307355D01*
X92713Y307460D01*
X92910Y307657D01*
X93121Y307826D01*
X93227Y307903D01*
X93325Y307967D01*
X93424Y308030D01*
X93515Y308086D01*
X93593Y308129D01*
X93663Y308171D01*
X93719Y308199D01*
X93768Y308220D01*
X93797Y308234D01*
X93804Y308241D01*
X93923Y308290D01*
X94064Y308340D01*
X94219Y308396D01*
X94388Y308445D01*
X94564Y308501D01*
X94739Y308551D01*
X95098Y308642D01*
X95267Y308691D01*
X95429Y308727D01*
X95577Y308762D01*
X95703Y308797D01*
X95809Y308818D01*
X95851Y308832D01*
X95886Y308839D01*
X95914Y308846D01*
X95935D01*
X95949Y308853D01*
X95957D01*
X96238Y308923D01*
X96491Y308987D01*
X96716Y309050D01*
X96920Y309114D01*
X97096Y309177D01*
X97258Y309233D01*
X97392Y309289D01*
X97512Y309339D01*
X97610Y309388D01*
X97687Y309430D01*
X97758Y309465D01*
X97807Y309501D01*
X97849Y309522D01*
X97870Y309543D01*
X97884Y309550D01*
X97891Y309557D01*
X97955Y309620D01*
X98011Y309690D01*
X98067Y309761D01*
X98110Y309838D01*
X98173Y309979D01*
X98215Y310120D01*
X98243Y310239D01*
X98250Y310289D01*
X98257Y310338D01*
X98264Y310373D01*
Y310401D01*
Y310415D01*
Y310422D01*
X98257Y310535D01*
X98243Y310640D01*
X98215Y310746D01*
X98180Y310837D01*
X98095Y311013D01*
X98046Y311098D01*
X97997Y311168D01*
X97948Y311231D01*
X97906Y311288D01*
X97856Y311337D01*
X97821Y311379D01*
X97786Y311414D01*
X97758Y311435D01*
X97744Y311449D01*
X97737Y311456D01*
X97631Y311534D01*
X97512Y311597D01*
X97378Y311653D01*
X97244Y311703D01*
X97103Y311745D01*
X96963Y311780D01*
X96681Y311829D01*
X96555Y311850D01*
X96428Y311864D01*
X96322Y311871D01*
X96224Y311879D01*
X96146Y311886D01*
X96034D01*
X95830Y311879D01*
X95640Y311864D01*
X95464Y311843D01*
X95295Y311815D01*
X95147Y311773D01*
X95007Y311738D01*
X94880Y311696D01*
X94768Y311653D01*
X94669Y311604D01*
X94585Y311562D01*
X94514Y311527D01*
X94451Y311492D01*
X94402Y311456D01*
X94374Y311435D01*
X94352Y311421D01*
X94345Y311414D01*
X94247Y311323D01*
X94155Y311217D01*
X94071Y311112D01*
X94001Y310999D01*
X93937Y310879D01*
X93881Y310767D01*
X93832Y310654D01*
X93797Y310542D01*
X93761Y310436D01*
X93733Y310338D01*
X93712Y310246D01*
X93698Y310176D01*
X93684Y310113D01*
X93677Y310063D01*
X93670Y310035D01*
Y310021D01*
X92432Y310113D01*
X92446Y310267D01*
X92460Y310422D01*
X92488Y310570D01*
X92523Y310711D01*
X92558Y310844D01*
X92600Y310971D01*
X92643Y311091D01*
X92685Y311196D01*
X92734Y311295D01*
X92769Y311379D01*
X92811Y311456D01*
X92847Y311520D01*
X92875Y311569D01*
X92896Y311611D01*
X92910Y311632D01*
X92917Y311639D01*
X93001Y311766D01*
X93100Y311879D01*
X93198Y311991D01*
X93304Y312090D01*
X93410Y312181D01*
X93515Y312265D01*
X93614Y312343D01*
X93719Y312406D01*
X93811Y312470D01*
X93902Y312519D01*
X93980Y312568D01*
X94050Y312603D01*
X94106Y312631D01*
X94148Y312652D01*
X94177Y312659D01*
X94184Y312667D01*
X94338Y312730D01*
X94500Y312786D01*
X94662Y312828D01*
X94831Y312871D01*
X95147Y312934D01*
X95302Y312955D01*
X95443Y312976D01*
X95584Y312990D01*
X95703Y312997D01*
X95816Y313011D01*
X95907D01*
X95985Y313018D01*
X96090D01*
X96273Y313011D01*
D02*
G37*
G36*
X114752Y223072D02*
X113076D01*
Y224644D01*
X112845Y224332D01*
X112591Y224055D01*
X112325Y223812D01*
X112036Y223604D01*
X111747Y223431D01*
X111458Y223280D01*
X111158Y223165D01*
X110880Y223072D01*
X110603Y222991D01*
X110360Y222934D01*
X110129Y222899D01*
X109933Y222864D01*
X109771Y222853D01*
X109644Y222841D01*
X109540D01*
X109158Y222853D01*
X108788Y222899D01*
X108453Y222968D01*
X108130Y223049D01*
X107841Y223153D01*
X107563Y223269D01*
X107321Y223396D01*
X107101Y223523D01*
X106905Y223639D01*
X106720Y223766D01*
X106581Y223881D01*
X106454Y223985D01*
X106362Y224066D01*
X106292Y224135D01*
X106246Y224182D01*
X106234Y224193D01*
X106026Y224459D01*
X105841Y224748D01*
X105680Y225049D01*
X105541Y225361D01*
X105425Y225684D01*
X105321Y225996D01*
X105240Y226308D01*
X105183Y226609D01*
X105136Y226898D01*
X105090Y227164D01*
X105067Y227395D01*
X105056Y227603D01*
X105044Y227776D01*
X105032Y227845D01*
Y227903D01*
Y227949D01*
Y227984D01*
Y227996D01*
Y228007D01*
X105044Y228458D01*
X105079Y228874D01*
X105148Y229267D01*
X105217Y229637D01*
X105310Y229983D01*
X105414Y230295D01*
X105518Y230573D01*
X105633Y230839D01*
X105749Y231058D01*
X105853Y231266D01*
X105957Y231428D01*
X106049Y231567D01*
X106119Y231682D01*
X106177Y231763D01*
X106223Y231809D01*
X106234Y231821D01*
X106466Y232064D01*
X106720Y232272D01*
X106986Y232457D01*
X107263Y232607D01*
X107529Y232745D01*
X107806Y232850D01*
X108072Y232942D01*
X108338Y233011D01*
X108580Y233069D01*
X108812Y233115D01*
X109020Y233138D01*
X109193Y233162D01*
X109332Y233173D01*
X109447Y233185D01*
X109540D01*
X109956Y233162D01*
X110360Y233115D01*
X110718Y233023D01*
X111065Y232907D01*
X111377Y232780D01*
X111666Y232630D01*
X111920Y232468D01*
X112151Y232306D01*
X112360Y232145D01*
X112533Y231983D01*
X112683Y231833D01*
X112810Y231705D01*
X112903Y231590D01*
X112972Y231509D01*
X113018Y231451D01*
X113030Y231428D01*
Y237103D01*
X114752D01*
Y223072D01*
D02*
G37*
G36*
X43364Y233173D02*
X43734Y233127D01*
X44058Y233057D01*
X44208Y233023D01*
X44347Y232988D01*
X44462Y232942D01*
X44566Y232907D01*
X44670Y232873D01*
X44739Y232850D01*
X44809Y232815D01*
X44855Y232803D01*
X44878Y232780D01*
X44890D01*
X45179Y232618D01*
X45444Y232433D01*
X45664Y232248D01*
X45861Y232064D01*
X46022Y231902D01*
X46138Y231775D01*
X46173Y231728D01*
X46207Y231694D01*
X46219Y231671D01*
X46230Y231659D01*
Y232953D01*
X47906D01*
Y223072D01*
X46184D01*
Y228897D01*
X46173Y229140D01*
X46150Y229371D01*
X46115Y229579D01*
X46069Y229775D01*
X46011Y229949D01*
X45942Y230122D01*
X45884Y230272D01*
X45803Y230399D01*
X45733Y230515D01*
X45676Y230619D01*
X45606Y230711D01*
X45549Y230781D01*
X45502Y230839D01*
X45468Y230873D01*
X45444Y230896D01*
X45433Y230908D01*
X45283Y231024D01*
X45121Y231139D01*
X44959Y231220D01*
X44797Y231301D01*
X44624Y231370D01*
X44451Y231428D01*
X44127Y231509D01*
X43977Y231532D01*
X43838Y231555D01*
X43711Y231567D01*
X43607Y231578D01*
X43526Y231590D01*
X43399D01*
X43156Y231578D01*
X42937Y231555D01*
X42729Y231520D01*
X42544Y231486D01*
X42370Y231428D01*
X42209Y231370D01*
X42070Y231301D01*
X41943Y231243D01*
X41827Y231174D01*
X41735Y231104D01*
X41654Y231047D01*
X41585Y231000D01*
X41538Y230954D01*
X41492Y230919D01*
X41480Y230896D01*
X41469Y230885D01*
X41365Y230746D01*
X41261Y230584D01*
X41180Y230422D01*
X41111Y230249D01*
X41007Y229879D01*
X40937Y229533D01*
X40903Y229359D01*
X40891Y229209D01*
X40880Y229070D01*
X40868Y228943D01*
X40856Y228839D01*
Y228770D01*
Y228712D01*
Y228701D01*
Y223072D01*
X39134D01*
Y228897D01*
X39123Y229140D01*
X39100Y229371D01*
X39065Y229579D01*
X39019Y229775D01*
X38961Y229949D01*
X38892Y230122D01*
X38822Y230272D01*
X38753Y230399D01*
X38684Y230515D01*
X38614Y230619D01*
X38545Y230711D01*
X38487Y230781D01*
X38441Y230839D01*
X38406Y230873D01*
X38383Y230896D01*
X38372Y230908D01*
X38221Y231024D01*
X38060Y231139D01*
X37898Y231220D01*
X37724Y231301D01*
X37563Y231370D01*
X37389Y231428D01*
X37066Y231509D01*
X36927Y231532D01*
X36788Y231555D01*
X36661Y231567D01*
X36557Y231578D01*
X36465Y231590D01*
X36349D01*
X36107Y231578D01*
X35887Y231555D01*
X35679Y231520D01*
X35482Y231486D01*
X35309Y231428D01*
X35147Y231370D01*
X35008Y231301D01*
X34881Y231243D01*
X34766Y231174D01*
X34673Y231104D01*
X34592Y231047D01*
X34523Y231000D01*
X34477Y230954D01*
X34431Y230919D01*
X34419Y230896D01*
X34408Y230885D01*
X34304Y230746D01*
X34200Y230584D01*
X34119Y230422D01*
X34049Y230249D01*
X33945Y229879D01*
X33876Y229533D01*
X33841Y229359D01*
X33830Y229209D01*
X33818Y229070D01*
X33807Y228943D01*
X33795Y228839D01*
Y228770D01*
Y228712D01*
Y228701D01*
Y223072D01*
X32073D01*
Y228978D01*
X32085Y229348D01*
X32119Y229694D01*
X32166Y230018D01*
X32223Y230319D01*
X32304Y230607D01*
X32385Y230862D01*
X32478Y231093D01*
X32570Y231301D01*
X32662Y231486D01*
X32755Y231648D01*
X32836Y231786D01*
X32917Y231902D01*
X32975Y231983D01*
X33021Y232052D01*
X33055Y232087D01*
X33067Y232098D01*
X33263Y232295D01*
X33472Y232457D01*
X33691Y232607D01*
X33934Y232722D01*
X34165Y232826D01*
X34408Y232919D01*
X34639Y232988D01*
X34870Y233046D01*
X35089Y233092D01*
X35286Y233127D01*
X35471Y233150D01*
X35621Y233173D01*
X35748D01*
X35852Y233185D01*
X35933D01*
X36395Y233162D01*
X36811Y233104D01*
X37204Y233011D01*
X37574Y232884D01*
X37898Y232734D01*
X38198Y232572D01*
X38464Y232399D01*
X38707Y232214D01*
X38915Y232029D01*
X39088Y231856D01*
X39238Y231694D01*
X39365Y231544D01*
X39458Y231428D01*
X39516Y231324D01*
X39562Y231266D01*
X39574Y231243D01*
X39759Y231590D01*
X39978Y231879D01*
X40221Y232145D01*
X40487Y232364D01*
X40764Y232549D01*
X41041Y232711D01*
X41330Y232838D01*
X41608Y232942D01*
X41885Y233023D01*
X42139Y233081D01*
X42359Y233127D01*
X42567Y233150D01*
X42740Y233173D01*
X42798D01*
X42867Y233185D01*
X42971D01*
X43364Y233173D01*
D02*
G37*
G36*
X83432Y228042D02*
X87142Y223072D01*
X85154D01*
X82381Y226863D01*
X79572Y223072D01*
X77527D01*
X81236Y228030D01*
X77596Y232953D01*
X79572D01*
X82265Y229209D01*
X84993Y232953D01*
X87061D01*
X83432Y228042D01*
D02*
G37*
G36*
X123293Y227707D02*
X116948D01*
Y229429D01*
X123293D01*
Y227707D01*
D02*
G37*
G36*
X184672Y223072D02*
X182834D01*
X180361Y230977D01*
X177899Y223072D01*
X176062D01*
X172722Y232953D01*
X174374D01*
X176986Y224864D01*
X179436Y232953D01*
X181239D01*
X183689Y224921D01*
X186255Y232953D01*
X187988D01*
X184672Y223072D01*
D02*
G37*
G36*
X169000D02*
X167163D01*
X164690Y230977D01*
X162228Y223072D01*
X160390D01*
X157051Y232953D01*
X158703D01*
X161315Y224864D01*
X163765Y232953D01*
X165568D01*
X168018Y224921D01*
X170584Y232953D01*
X172317D01*
X169000Y223072D01*
D02*
G37*
G36*
X153329D02*
X151491D01*
X149018Y230977D01*
X146557Y223072D01*
X144719D01*
X141379Y232953D01*
X143032D01*
X145644Y224864D01*
X148094Y232953D01*
X149897D01*
X152347Y224921D01*
X154912Y232953D01*
X156646D01*
X153329Y223072D01*
D02*
G37*
G36*
X134364Y226805D02*
X134353Y226551D01*
X134341Y226297D01*
X134318Y226066D01*
X134283Y225858D01*
X134249Y225650D01*
X134202Y225465D01*
X134156Y225291D01*
X134110Y225129D01*
X134064Y224991D01*
X134017Y224875D01*
X133971Y224760D01*
X133937Y224679D01*
X133902Y224609D01*
X133879Y224563D01*
X133856Y224529D01*
Y224517D01*
X133647Y224205D01*
X133416Y223951D01*
X133174Y223731D01*
X132954Y223546D01*
X132746Y223407D01*
X132654Y223350D01*
X132584Y223315D01*
X132515Y223280D01*
X132469Y223257D01*
X132446Y223234D01*
X132434D01*
X132087Y223107D01*
X131729Y223003D01*
X131382Y222934D01*
X131059Y222887D01*
X130908Y222876D01*
X130770Y222864D01*
X130654Y222853D01*
X130550D01*
X130469Y222841D01*
X130354D01*
X129972Y222853D01*
X129626Y222899D01*
X129314Y222957D01*
X129175Y222991D01*
X129036Y223038D01*
X128921Y223072D01*
X128817Y223107D01*
X128736Y223130D01*
X128655Y223165D01*
X128597Y223188D01*
X128551Y223211D01*
X128528Y223223D01*
X128516D01*
X128227Y223384D01*
X127973Y223569D01*
X127742Y223754D01*
X127557Y223939D01*
X127395Y224112D01*
X127280Y224240D01*
X127245Y224297D01*
X127210Y224332D01*
X127199Y224355D01*
X127187Y224367D01*
Y223072D01*
X125488D01*
Y232953D01*
X127210D01*
Y227418D01*
X127222Y227129D01*
X127245Y226863D01*
X127280Y226620D01*
X127326Y226389D01*
X127395Y226181D01*
X127453Y225996D01*
X127522Y225834D01*
X127592Y225684D01*
X127673Y225546D01*
X127742Y225441D01*
X127800Y225338D01*
X127858Y225268D01*
X127915Y225210D01*
X127950Y225164D01*
X127973Y225141D01*
X127985Y225129D01*
X128135Y225002D01*
X128285Y224898D01*
X128458Y224806D01*
X128620Y224725D01*
X128794Y224656D01*
X128967Y224598D01*
X129291Y224517D01*
X129441Y224482D01*
X129579Y224459D01*
X129695Y224448D01*
X129811Y224436D01*
X129892Y224424D01*
X130019D01*
X130250Y224436D01*
X130458Y224448D01*
X130666Y224482D01*
X130851Y224517D01*
X131024Y224575D01*
X131186Y224621D01*
X131336Y224679D01*
X131463Y224736D01*
X131579Y224794D01*
X131683Y224852D01*
X131764Y224910D01*
X131833Y224956D01*
X131891Y224991D01*
X131925Y225025D01*
X131949Y225037D01*
X131960Y225049D01*
X132076Y225176D01*
X132180Y225314D01*
X132272Y225465D01*
X132353Y225626D01*
X132423Y225788D01*
X132480Y225961D01*
X132561Y226285D01*
X132584Y226447D01*
X132607Y226586D01*
X132619Y226724D01*
X132631Y226828D01*
X132642Y226932D01*
Y227002D01*
Y227048D01*
Y227059D01*
Y232953D01*
X134364D01*
Y226805D01*
D02*
G37*
G36*
X66536Y233173D02*
X66790Y233162D01*
X67033Y233127D01*
X67264Y233092D01*
X67484Y233046D01*
X67692Y233000D01*
X67877Y232953D01*
X68062Y232896D01*
X68223Y232838D01*
X68362Y232792D01*
X68478Y232745D01*
X68582Y232699D01*
X68663Y232665D01*
X68732Y232630D01*
X68766Y232618D01*
X68778Y232607D01*
X68975Y232491D01*
X69159Y232376D01*
X69333Y232237D01*
X69506Y232098D01*
X69656Y231960D01*
X69795Y231809D01*
X69922Y231671D01*
X70038Y231532D01*
X70142Y231405D01*
X70223Y231278D01*
X70304Y231174D01*
X70361Y231070D01*
X70408Y231000D01*
X70454Y230931D01*
X70465Y230896D01*
X70477Y230885D01*
X70581Y230665D01*
X70673Y230434D01*
X70766Y230191D01*
X70835Y229949D01*
X70939Y229475D01*
X70985Y229244D01*
X71009Y229013D01*
X71043Y228804D01*
X71055Y228620D01*
X71066Y228446D01*
X71078Y228296D01*
X71090Y228181D01*
Y228088D01*
Y228030D01*
Y228007D01*
X71078Y227695D01*
X71066Y227383D01*
X71032Y227094D01*
X70997Y226828D01*
X70951Y226574D01*
X70893Y226331D01*
X70835Y226112D01*
X70778Y225915D01*
X70731Y225730D01*
X70673Y225580D01*
X70616Y225441D01*
X70569Y225326D01*
X70535Y225233D01*
X70500Y225176D01*
X70489Y225129D01*
X70477Y225118D01*
X70361Y224910D01*
X70223Y224713D01*
X70096Y224540D01*
X69957Y224367D01*
X69807Y224216D01*
X69668Y224078D01*
X69529Y223951D01*
X69402Y223835D01*
X69275Y223731D01*
X69159Y223650D01*
X69044Y223569D01*
X68951Y223511D01*
X68882Y223465D01*
X68824Y223431D01*
X68790Y223419D01*
X68778Y223407D01*
X68570Y223303D01*
X68362Y223223D01*
X68142Y223142D01*
X67923Y223084D01*
X67507Y222980D01*
X67299Y222945D01*
X67114Y222910D01*
X66929Y222887D01*
X66767Y222876D01*
X66628Y222864D01*
X66501Y222853D01*
X66397Y222841D01*
X66259D01*
X65900Y222853D01*
X65554Y222887D01*
X65230Y222934D01*
X64941Y222991D01*
X64664Y223061D01*
X64409Y223142D01*
X64178Y223234D01*
X63970Y223326D01*
X63786Y223407D01*
X63624Y223500D01*
X63485Y223581D01*
X63369Y223650D01*
X63288Y223708D01*
X63219Y223754D01*
X63184Y223789D01*
X63173Y223800D01*
X62976Y223985D01*
X62803Y224193D01*
X62653Y224401D01*
X62514Y224621D01*
X62399Y224829D01*
X62295Y225049D01*
X62202Y225257D01*
X62133Y225465D01*
X62075Y225661D01*
X62017Y225834D01*
X61983Y225996D01*
X61960Y226135D01*
X61936Y226239D01*
X61925Y226331D01*
X61913Y226378D01*
Y226401D01*
X63635D01*
X63670Y226216D01*
X63716Y226054D01*
X63832Y225753D01*
X63994Y225488D01*
X64167Y225257D01*
X64375Y225072D01*
X64594Y224910D01*
X64826Y224771D01*
X65057Y224667D01*
X65288Y224586D01*
X65507Y224529D01*
X65715Y224482D01*
X65889Y224459D01*
X66039Y224436D01*
X66155Y224424D01*
X66259D01*
X66513Y224436D01*
X66756Y224459D01*
X66987Y224505D01*
X67206Y224563D01*
X67403Y224621D01*
X67588Y224690D01*
X67761Y224771D01*
X67911Y224852D01*
X68050Y224933D01*
X68166Y225014D01*
X68270Y225083D01*
X68362Y225141D01*
X68420Y225199D01*
X68478Y225245D01*
X68501Y225268D01*
X68512Y225280D01*
X68663Y225453D01*
X68790Y225650D01*
X68894Y225858D01*
X68998Y226077D01*
X69079Y226297D01*
X69136Y226528D01*
X69194Y226747D01*
X69240Y226967D01*
X69275Y227175D01*
X69298Y227372D01*
X69321Y227545D01*
X69333Y227707D01*
Y227834D01*
X69344Y227926D01*
Y227984D01*
Y228007D01*
X69333Y228342D01*
X69310Y228654D01*
X69264Y228955D01*
X69217Y229221D01*
X69148Y229463D01*
X69079Y229683D01*
X69009Y229879D01*
X68928Y230064D01*
X68847Y230215D01*
X68778Y230353D01*
X68709Y230469D01*
X68639Y230561D01*
X68593Y230631D01*
X68547Y230688D01*
X68524Y230711D01*
X68512Y230723D01*
X68351Y230873D01*
X68177Y231012D01*
X67992Y231127D01*
X67807Y231220D01*
X67622Y231312D01*
X67438Y231382D01*
X67253Y231439D01*
X67079Y231486D01*
X66917Y231520D01*
X66767Y231544D01*
X66628Y231567D01*
X66513Y231578D01*
X66420Y231590D01*
X66074D01*
X65866Y231567D01*
X65496Y231509D01*
X65172Y231405D01*
X64883Y231278D01*
X64641Y231127D01*
X64421Y230966D01*
X64248Y230781D01*
X64097Y230607D01*
X63970Y230422D01*
X63878Y230238D01*
X63797Y230076D01*
X63739Y229926D01*
X63705Y229798D01*
X63670Y229694D01*
X63658Y229637D01*
Y229625D01*
Y229613D01*
X61936D01*
X61971Y229914D01*
X62029Y230191D01*
X62098Y230457D01*
X62191Y230711D01*
X62283Y230943D01*
X62387Y231151D01*
X62503Y231347D01*
X62607Y231520D01*
X62722Y231682D01*
X62826Y231821D01*
X62919Y231936D01*
X63011Y232041D01*
X63081Y232110D01*
X63138Y232168D01*
X63173Y232202D01*
X63184Y232214D01*
X63404Y232387D01*
X63635Y232537D01*
X63878Y232665D01*
X64132Y232780D01*
X64386Y232873D01*
X64652Y232953D01*
X64895Y233011D01*
X65149Y233069D01*
X65380Y233104D01*
X65588Y233138D01*
X65785Y233150D01*
X65947Y233173D01*
X66085D01*
X66189Y233185D01*
X66282D01*
X66536Y233173D01*
D02*
G37*
G36*
X139680Y223072D02*
X137461D01*
Y225418D01*
X139680D01*
Y223072D01*
D02*
G37*
G36*
X102444Y223072D02*
X100722D01*
Y237103D01*
X102444D01*
Y223072D01*
D02*
G37*
G36*
X75631D02*
X73412D01*
Y225418D01*
X75631D01*
Y223072D01*
D02*
G37*
G36*
X93695Y233173D02*
X94088Y233127D01*
X94446Y233069D01*
X94793Y232977D01*
X95105Y232884D01*
X95405Y232769D01*
X95671Y232653D01*
X95914Y232537D01*
X96133Y232410D01*
X96330Y232295D01*
X96492Y232179D01*
X96630Y232087D01*
X96735Y231994D01*
X96815Y231936D01*
X96862Y231890D01*
X96873Y231879D01*
X97104Y231625D01*
X97312Y231336D01*
X97497Y231035D01*
X97647Y230723D01*
X97775Y230399D01*
X97890Y230076D01*
X97971Y229764D01*
X98040Y229452D01*
X98098Y229163D01*
X98144Y228885D01*
X98167Y228643D01*
X98191Y228423D01*
X98202Y228250D01*
X98214Y228181D01*
Y228123D01*
Y228076D01*
Y228042D01*
Y228019D01*
Y228007D01*
X98202Y227545D01*
X98156Y227106D01*
X98087Y226701D01*
X98006Y226320D01*
X97902Y225973D01*
X97786Y225650D01*
X97671Y225372D01*
X97543Y225106D01*
X97416Y224887D01*
X97301Y224679D01*
X97185Y224517D01*
X97081Y224378D01*
X97000Y224274D01*
X96931Y224193D01*
X96885Y224147D01*
X96873Y224135D01*
X96607Y223904D01*
X96330Y223708D01*
X96041Y223535D01*
X95741Y223384D01*
X95440Y223257D01*
X95140Y223153D01*
X94851Y223072D01*
X94573Y223003D01*
X94307Y222945D01*
X94065Y222910D01*
X93845Y222876D01*
X93660Y222864D01*
X93510Y222853D01*
X93383Y222841D01*
X93291D01*
X92886Y222853D01*
X92493Y222899D01*
X92135Y222957D01*
X91788Y223049D01*
X91476Y223142D01*
X91176Y223246D01*
X90910Y223373D01*
X90667Y223488D01*
X90448Y223604D01*
X90263Y223731D01*
X90101Y223835D01*
X89962Y223939D01*
X89858Y224020D01*
X89777Y224078D01*
X89731Y224124D01*
X89719Y224135D01*
X89477Y224390D01*
X89269Y224679D01*
X89095Y224979D01*
X88933Y225291D01*
X88806Y225615D01*
X88702Y225938D01*
X88610Y226250D01*
X88541Y226562D01*
X88483Y226851D01*
X88437Y227129D01*
X88413Y227372D01*
X88390Y227591D01*
X88379Y227764D01*
X88367Y227834D01*
Y227892D01*
Y227938D01*
Y227984D01*
Y227996D01*
Y228007D01*
X88379Y228469D01*
X88425Y228909D01*
X88494Y229313D01*
X88575Y229694D01*
X88679Y230041D01*
X88795Y230365D01*
X88922Y230642D01*
X89038Y230908D01*
X89165Y231127D01*
X89292Y231336D01*
X89407Y231497D01*
X89511Y231636D01*
X89592Y231740D01*
X89662Y231821D01*
X89708Y231867D01*
X89719Y231879D01*
X89985Y232110D01*
X90263Y232306D01*
X90552Y232480D01*
X90840Y232630D01*
X91141Y232757D01*
X91441Y232861D01*
X91730Y232953D01*
X92008Y233023D01*
X92274Y233081D01*
X92516Y233115D01*
X92736Y233150D01*
X92921Y233162D01*
X93071Y233173D01*
X93187Y233185D01*
X93291D01*
X93695Y233173D01*
D02*
G37*
G36*
X55742D02*
X56135Y233127D01*
X56493Y233069D01*
X56840Y232977D01*
X57152Y232884D01*
X57452Y232769D01*
X57718Y232653D01*
X57961Y232537D01*
X58180Y232410D01*
X58377Y232295D01*
X58539Y232179D01*
X58677Y232087D01*
X58781Y231994D01*
X58862Y231936D01*
X58908Y231890D01*
X58920Y231879D01*
X59151Y231625D01*
X59359Y231336D01*
X59544Y231035D01*
X59694Y230723D01*
X59821Y230399D01*
X59937Y230076D01*
X60018Y229764D01*
X60087Y229452D01*
X60145Y229163D01*
X60191Y228885D01*
X60214Y228643D01*
X60237Y228423D01*
X60249Y228250D01*
X60261Y228181D01*
Y228123D01*
Y228076D01*
Y228042D01*
Y228019D01*
Y228007D01*
X60249Y227545D01*
X60203Y227106D01*
X60134Y226701D01*
X60053Y226320D01*
X59949Y225973D01*
X59833Y225650D01*
X59717Y225372D01*
X59590Y225106D01*
X59463Y224887D01*
X59348Y224679D01*
X59232Y224517D01*
X59128Y224378D01*
X59047Y224274D01*
X58978Y224193D01*
X58931Y224147D01*
X58920Y224135D01*
X58654Y223904D01*
X58377Y223708D01*
X58088Y223535D01*
X57787Y223384D01*
X57487Y223257D01*
X57186Y223153D01*
X56898Y223072D01*
X56620Y223003D01*
X56354Y222945D01*
X56112Y222910D01*
X55892Y222876D01*
X55707Y222864D01*
X55557Y222853D01*
X55430Y222841D01*
X55337D01*
X54933Y222853D01*
X54540Y222899D01*
X54182Y222957D01*
X53835Y223049D01*
X53523Y223142D01*
X53222Y223246D01*
X52957Y223373D01*
X52714Y223488D01*
X52494Y223604D01*
X52309Y223731D01*
X52148Y223835D01*
X52009Y223939D01*
X51905Y224020D01*
X51824Y224078D01*
X51778Y224124D01*
X51766Y224135D01*
X51523Y224390D01*
X51315Y224679D01*
X51142Y224979D01*
X50980Y225291D01*
X50853Y225615D01*
X50749Y225938D01*
X50657Y226250D01*
X50587Y226562D01*
X50530Y226851D01*
X50483Y227129D01*
X50460Y227372D01*
X50437Y227591D01*
X50426Y227764D01*
X50414Y227834D01*
Y227892D01*
Y227938D01*
Y227984D01*
Y227996D01*
Y228007D01*
X50426Y228469D01*
X50472Y228909D01*
X50541Y229313D01*
X50622Y229694D01*
X50726Y230041D01*
X50842Y230365D01*
X50969Y230642D01*
X51084Y230908D01*
X51212Y231127D01*
X51339Y231336D01*
X51454Y231497D01*
X51558Y231636D01*
X51639Y231740D01*
X51708Y231821D01*
X51755Y231867D01*
X51766Y231879D01*
X52032Y232110D01*
X52309Y232306D01*
X52598Y232480D01*
X52887Y232630D01*
X53188Y232757D01*
X53488Y232861D01*
X53777Y232953D01*
X54054Y233023D01*
X54320Y233081D01*
X54563Y233115D01*
X54783Y233150D01*
X54967Y233162D01*
X55118Y233173D01*
X55233Y233185D01*
X55337D01*
X55742Y233173D01*
D02*
G37*
%LPC*%
G36*
X111688Y269672D02*
X111476D01*
X111229Y269655D01*
X110965Y269637D01*
X110930D01*
X110842Y269619D01*
X110701Y269602D01*
X110524Y269566D01*
X110313Y269513D01*
X110101Y269461D01*
X109643Y269320D01*
X109608Y269302D01*
X109537Y269267D01*
X109414Y269196D01*
X109255Y269108D01*
X109097Y268985D01*
X108903Y268844D01*
X108709Y268667D01*
X108515Y268456D01*
X108497Y268438D01*
X108427Y268350D01*
X108339Y268244D01*
X108233Y268086D01*
X108109Y267892D01*
X108004Y267680D01*
X107898Y267451D01*
X107810Y267204D01*
X107792Y267169D01*
X107774Y267081D01*
X107739Y266922D01*
X107704Y266711D01*
X107669Y266446D01*
X107633Y266111D01*
X107598Y265741D01*
Y265301D01*
Y265283D01*
Y265248D01*
Y265177D01*
Y265107D01*
Y265001D01*
X107616Y264877D01*
Y264613D01*
X107651Y264296D01*
X107686Y263978D01*
X107739Y263661D01*
X107810Y263379D01*
Y263361D01*
X107827Y263309D01*
X107863Y263221D01*
X107915Y263115D01*
X107968Y262991D01*
X108056Y262833D01*
X108145Y262674D01*
X108268Y262498D01*
X108409Y262321D01*
X108568Y262127D01*
X108744Y261951D01*
X108955Y261757D01*
X109167Y261599D01*
X109431Y261422D01*
X109713Y261281D01*
X110013Y261158D01*
X110031D01*
X110084Y261140D01*
X110190Y261105D01*
X110313Y261070D01*
X110454Y261035D01*
X110630Y261017D01*
X110842Y260982D01*
X111071Y260964D01*
X111318Y260947D01*
X111564D01*
X111847Y260964D01*
X112128Y260999D01*
X112410Y261070D01*
X112710Y261140D01*
X113010Y261264D01*
X113310Y261405D01*
X113327D01*
X113345Y261422D01*
X113398Y261458D01*
X113468Y261493D01*
X113627Y261616D01*
X113838Y261775D01*
X114050Y261987D01*
X114279Y262233D01*
X114491Y262533D01*
X114684Y262868D01*
Y262885D01*
X114702Y262921D01*
X114720Y262974D01*
X114755Y263044D01*
X114790Y263132D01*
X114825Y263256D01*
X114861Y263379D01*
X114896Y263538D01*
X114949Y263714D01*
X114984Y263890D01*
X115055Y264313D01*
X115108Y264807D01*
X115143Y265353D01*
Y265371D01*
Y265424D01*
Y265530D01*
X115125Y265653D01*
Y265794D01*
X115108Y265970D01*
X115072Y266164D01*
X115055Y266376D01*
X114966Y266834D01*
X114825Y267310D01*
X114649Y267786D01*
X114403Y268227D01*
X114385Y268244D01*
X114367Y268280D01*
X114314Y268333D01*
X114261Y268403D01*
X114085Y268597D01*
X113856Y268808D01*
X113556Y269055D01*
X113186Y269284D01*
X112763Y269478D01*
X112516Y269549D01*
X112269Y269619D01*
X112234D01*
X112164Y269637D01*
X112040Y269655D01*
X111882D01*
X111688Y269672D01*
D02*
G37*
G36*
X86269Y269672D02*
X85599D01*
X85317Y269655D01*
X85282D01*
X85194Y269637D01*
X85052Y269619D01*
X84859Y269602D01*
X84665Y269566D01*
X84453Y269513D01*
X84242Y269461D01*
X84048Y269390D01*
X84012Y269373D01*
X83924Y269320D01*
X83766Y269214D01*
X83572Y269090D01*
X83554D01*
X83519Y269055D01*
X83466Y269020D01*
X83396Y268967D01*
X83219Y268844D01*
X83043Y268685D01*
X83025Y268667D01*
X82990Y268632D01*
X82920Y268562D01*
X82849Y268456D01*
X82743Y268315D01*
X82638Y268156D01*
X82532Y267962D01*
X82408Y267751D01*
X82303Y267504D01*
X82197Y267222D01*
X82091Y266922D01*
X82021Y266587D01*
X81950Y266217D01*
X81897Y265829D01*
X81880Y265406D01*
X81897Y264948D01*
Y264913D01*
Y264842D01*
X81915Y264719D01*
X81950Y264543D01*
X81968Y264349D01*
X82021Y264119D01*
X82073Y263873D01*
X82144Y263608D01*
X82232Y263326D01*
X82355Y263044D01*
X82479Y262762D01*
X82638Y262480D01*
X82814Y262233D01*
X83008Y261987D01*
X83237Y261775D01*
X83501Y261581D01*
X83519D01*
X83537Y261563D01*
X83589Y261528D01*
X83678Y261493D01*
X83766Y261440D01*
X83871Y261387D01*
X84136Y261264D01*
X84453Y261140D01*
X84806Y261035D01*
X85211Y260964D01*
X85634Y260911D01*
X85828D01*
X85934Y260929D01*
X86057D01*
X86339Y260964D01*
X86674Y261035D01*
X87044Y261140D01*
X87415Y261281D01*
X87802Y261475D01*
X87820Y261493D01*
X87891Y261528D01*
X87979Y261581D01*
X88084Y261652D01*
X88314Y261845D01*
X88419Y261934D01*
X88525Y262039D01*
X88543Y262057D01*
X88560Y262092D01*
X88613Y262163D01*
X88666Y262251D01*
X88737Y262357D01*
X88825Y262515D01*
X88931Y262674D01*
X89036Y262885D01*
X89054Y262921D01*
X89089Y262991D01*
X89142Y263115D01*
X89213Y263256D01*
X89354Y263591D01*
X89406Y263749D01*
X89442Y263890D01*
Y263908D01*
X89459Y263961D01*
Y264049D01*
X89477Y264190D01*
X89495Y264384D01*
Y264631D01*
X89512Y264930D01*
Y265301D01*
Y265318D01*
Y265336D01*
Y265389D01*
Y265459D01*
Y265635D01*
Y265829D01*
X89495Y266059D01*
Y266288D01*
X89477Y266482D01*
X89459Y266658D01*
Y266675D01*
X89442Y266728D01*
X89424Y266817D01*
X89406Y266922D01*
X89354Y267046D01*
X89301Y267204D01*
X89230Y267363D01*
X89142Y267539D01*
Y267557D01*
X89124Y267575D01*
X89072Y267680D01*
X88983Y267857D01*
X88860Y268050D01*
X88719Y268280D01*
X88560Y268509D01*
X88366Y268738D01*
X88155Y268932D01*
X88120Y268949D01*
X88049Y269020D01*
X87926Y269108D01*
X87750Y269214D01*
X87520Y269320D01*
X87274Y269443D01*
X86974Y269531D01*
X86657Y269619D01*
X86639D01*
X86551Y269637D01*
X86445Y269655D01*
X86269Y269672D01*
D02*
G37*
G36*
X144246Y280055D02*
X143929D01*
X143717Y280037D01*
X143470Y280002D01*
X143206Y279949D01*
X142924Y279861D01*
X142624Y279737D01*
X142607D01*
X142589Y279720D01*
X142501Y279667D01*
X142342Y279561D01*
X142166Y279438D01*
X141972Y279279D01*
X141761Y279068D01*
X141567Y278839D01*
X141390Y278574D01*
X141373Y278539D01*
X141320Y278451D01*
X141249Y278292D01*
X141161Y278081D01*
X141091Y277834D01*
X141020Y277534D01*
X140967Y277217D01*
X140950Y276864D01*
Y276847D01*
Y276794D01*
X140967Y276688D01*
Y276565D01*
X141003Y276423D01*
X141038Y276247D01*
X141091Y276071D01*
X141144Y275859D01*
X141232Y275648D01*
X141337Y275436D01*
X141479Y275207D01*
X141637Y274996D01*
X141813Y274784D01*
X142043Y274573D01*
X142289Y274379D01*
X142571Y274202D01*
X142589Y274185D01*
X142642Y274167D01*
X142730Y274132D01*
X142853Y274079D01*
X142994Y274026D01*
X143153Y273991D01*
X143347Y273938D01*
X143576Y273903D01*
X143805Y273867D01*
X144052Y273850D01*
X144317Y273867D01*
X144581Y273903D01*
X144863Y273956D01*
X145163Y274044D01*
X145445Y274185D01*
X145744Y274343D01*
X145762Y274361D01*
X145797Y274379D01*
X145868Y274432D01*
X145956Y274502D01*
X146062Y274590D01*
X146185Y274696D01*
X146308Y274837D01*
X146432Y274978D01*
X146555Y275154D01*
X146696Y275331D01*
X146802Y275542D01*
X146908Y275771D01*
X146996Y276018D01*
X147066Y276283D01*
X147119Y276582D01*
X147137Y276882D01*
Y276900D01*
Y276952D01*
Y277041D01*
X147119Y277164D01*
X147102Y277305D01*
X147066Y277464D01*
X147031Y277640D01*
X146978Y277834D01*
X146908Y278045D01*
X146820Y278257D01*
X146714Y278468D01*
X146590Y278697D01*
X146432Y278909D01*
X146256Y279103D01*
X146044Y279297D01*
X145815Y279473D01*
X145780Y279491D01*
X145691Y279561D01*
X145533Y279649D01*
X145339Y279737D01*
X145110Y279843D01*
X144845Y279949D01*
X144546Y280020D01*
X144246Y280055D01*
D02*
G37*
G36*
X76193Y332406D02*
X76158D01*
X76010Y332399D01*
X75862Y332378D01*
X75729Y332350D01*
X75602Y332315D01*
X75482Y332272D01*
X75370Y332223D01*
X75271Y332167D01*
X75173Y332118D01*
X75095Y332062D01*
X75018Y332005D01*
X74955Y331956D01*
X74905Y331914D01*
X74863Y331879D01*
X74828Y331850D01*
X74814Y331829D01*
X74807Y331822D01*
X74708Y331710D01*
X74631Y331583D01*
X74554Y331456D01*
X74490Y331330D01*
X74441Y331196D01*
X74399Y331062D01*
X74364Y330936D01*
X74335Y330809D01*
X74307Y330690D01*
X74293Y330584D01*
X74279Y330485D01*
X74272Y330401D01*
X74265Y330331D01*
Y330274D01*
Y330246D01*
Y330232D01*
X74272Y330042D01*
X74286Y329859D01*
X74314Y329690D01*
X74350Y329529D01*
X74392Y329381D01*
X74441Y329247D01*
X74490Y329120D01*
X74540Y329008D01*
X74589Y328909D01*
X74638Y328818D01*
X74687Y328748D01*
X74729Y328684D01*
X74765Y328635D01*
X74793Y328600D01*
X74807Y328579D01*
X74814Y328572D01*
X74920Y328466D01*
X75025Y328375D01*
X75138Y328290D01*
X75243Y328220D01*
X75356Y328164D01*
X75461Y328114D01*
X75567Y328072D01*
X75665Y328044D01*
X75764Y328016D01*
X75848Y328002D01*
X75926Y327988D01*
X75989Y327974D01*
X76038D01*
X76080Y327967D01*
X76116D01*
X76306Y327981D01*
X76488Y328009D01*
X76657Y328058D01*
X76805Y328114D01*
X76876Y328135D01*
X76932Y328164D01*
X76981Y328192D01*
X77023Y328213D01*
X77058Y328227D01*
X77087Y328241D01*
X77101Y328255D01*
X77108D01*
X77270Y328375D01*
X77417Y328515D01*
X77544Y328656D01*
X77642Y328797D01*
X77727Y328923D01*
X77755Y328973D01*
X77783Y329022D01*
X77804Y329057D01*
X77818Y329092D01*
X77832Y329106D01*
Y329114D01*
X77917Y329332D01*
X77980Y329543D01*
X78029Y329740D01*
X78057Y329923D01*
X78071Y330000D01*
X78079Y330077D01*
X78086Y330141D01*
Y330197D01*
X78093Y330239D01*
Y330274D01*
Y330295D01*
Y330303D01*
X78086Y330471D01*
X78071Y330633D01*
X78043Y330788D01*
X78001Y330936D01*
X77959Y331069D01*
X77917Y331196D01*
X77860Y331309D01*
X77811Y331414D01*
X77762Y331506D01*
X77706Y331590D01*
X77663Y331660D01*
X77614Y331717D01*
X77579Y331759D01*
X77551Y331794D01*
X77537Y331815D01*
X77530Y331822D01*
X77424Y331928D01*
X77312Y332012D01*
X77192Y332097D01*
X77080Y332160D01*
X76960Y332216D01*
X76847Y332266D01*
X76735Y332301D01*
X76629Y332336D01*
X76531Y332357D01*
X76446Y332378D01*
X76362Y332385D01*
X76291Y332399D01*
X76235D01*
X76193Y332406D01*
D02*
G37*
G36*
X125240Y335804D02*
X122165D01*
X121968Y335798D01*
X121785Y335783D01*
X121616Y335762D01*
X121461Y335734D01*
X121321Y335699D01*
X121187Y335664D01*
X121067Y335622D01*
X120969Y335579D01*
X120877Y335537D01*
X120800Y335495D01*
X120730Y335460D01*
X120673Y335425D01*
X120638Y335396D01*
X120603Y335375D01*
X120589Y335361D01*
X120582Y335354D01*
X120490Y335270D01*
X120413Y335178D01*
X120350Y335087D01*
X120286Y334988D01*
X120237Y334897D01*
X120202Y334798D01*
X120167Y334707D01*
X120139Y334622D01*
X120118Y334538D01*
X120103Y334461D01*
X120089Y334397D01*
X120082Y334334D01*
X120075Y334285D01*
Y334250D01*
Y334229D01*
Y334221D01*
X120089Y334046D01*
X120118Y333884D01*
X120160Y333736D01*
X120202Y333609D01*
X120251Y333504D01*
X120272Y333455D01*
X120293Y333419D01*
X120315Y333391D01*
X120322Y333370D01*
X120336Y333356D01*
Y333349D01*
X120441Y333208D01*
X120561Y333089D01*
X120687Y332990D01*
X120814Y332906D01*
X120927Y332842D01*
X120969Y332821D01*
X121011Y332800D01*
X121046Y332786D01*
X121074Y332772D01*
X121088Y332765D01*
X121096D01*
X121194Y332737D01*
X121292Y332709D01*
X121518Y332667D01*
X121750Y332631D01*
X121968Y332610D01*
X122073Y332603D01*
X122165Y332596D01*
X122256D01*
X122327Y332589D01*
X125240D01*
Y335804D01*
D02*
G37*
G36*
X113391Y335861D02*
X113349Y335706D01*
X113300Y335544D01*
X113187Y335206D01*
X113075Y334869D01*
X113018Y334707D01*
X112962Y334552D01*
X112906Y334404D01*
X112864Y334264D01*
X112814Y334144D01*
X112779Y334039D01*
X112744Y333954D01*
X112723Y333891D01*
X112709Y333849D01*
X112702Y333842D01*
Y333834D01*
X111682Y331140D01*
X114988D01*
X113919Y333996D01*
X113799Y334341D01*
X113694Y334679D01*
X113645Y334841D01*
X113602Y334988D01*
X113567Y335136D01*
X113525Y335277D01*
X113497Y335404D01*
X113469Y335516D01*
X113448Y335615D01*
X113426Y335699D01*
X113412Y335769D01*
X113398Y335819D01*
X113391Y335847D01*
Y335861D01*
D02*
G37*
G36*
X101888Y335734D02*
X99756D01*
X99580Y335727D01*
X99418Y335720D01*
X99270Y335713D01*
X99137Y335699D01*
X99017Y335692D01*
X98912Y335678D01*
X98813Y335664D01*
X98729Y335650D01*
X98658Y335636D01*
X98602Y335629D01*
X98553Y335615D01*
X98518Y335607D01*
X98489Y335601D01*
X98475Y335593D01*
X98468D01*
X98314Y335530D01*
X98187Y335460D01*
X98067Y335375D01*
X97976Y335291D01*
X97906Y335214D01*
X97849Y335150D01*
X97821Y335101D01*
X97807Y335094D01*
Y335087D01*
X97730Y334946D01*
X97666Y334798D01*
X97624Y334658D01*
X97596Y334524D01*
X97582Y334411D01*
X97575Y334362D01*
X97568Y334320D01*
Y334285D01*
Y334257D01*
Y334243D01*
Y334236D01*
X97582Y334053D01*
X97610Y333884D01*
X97645Y333736D01*
X97694Y333616D01*
X97744Y333511D01*
X97765Y333476D01*
X97779Y333441D01*
X97800Y333412D01*
X97807Y333391D01*
X97821Y333384D01*
Y333377D01*
X97927Y333258D01*
X98039Y333159D01*
X98166Y333075D01*
X98285Y333011D01*
X98391Y332962D01*
X98440Y332941D01*
X98475Y332927D01*
X98511Y332913D01*
X98539Y332906D01*
X98553Y332899D01*
X98560D01*
X98637Y332878D01*
X98722Y332864D01*
X98813Y332850D01*
X98912Y332835D01*
X99116Y332814D01*
X99313Y332800D01*
X99411Y332793D01*
X99580D01*
X99650Y332786D01*
X101888D01*
Y335734D01*
D02*
G37*
G36*
Y331639D02*
X99474D01*
X99313Y331632D01*
X99165Y331625D01*
X99031Y331611D01*
X98905Y331597D01*
X98785Y331583D01*
X98679Y331569D01*
X98581Y331555D01*
X98497Y331541D01*
X98426Y331527D01*
X98363Y331513D01*
X98314Y331499D01*
X98271Y331485D01*
X98243Y331478D01*
X98229Y331470D01*
X98222D01*
X98046Y331400D01*
X97891Y331316D01*
X97758Y331224D01*
X97645Y331126D01*
X97554Y331041D01*
X97490Y330971D01*
X97469Y330943D01*
X97455Y330929D01*
X97441Y330915D01*
Y330908D01*
X97350Y330753D01*
X97279Y330591D01*
X97230Y330436D01*
X97195Y330289D01*
X97174Y330155D01*
X97167Y330106D01*
Y330056D01*
X97160Y330021D01*
Y329986D01*
Y329972D01*
Y329965D01*
X97167Y329796D01*
X97188Y329634D01*
X97223Y329493D01*
X97258Y329374D01*
X97293Y329275D01*
X97329Y329198D01*
X97336Y329170D01*
X97350Y329149D01*
X97357Y329142D01*
Y329135D01*
X97434Y329008D01*
X97512Y328902D01*
X97596Y328811D01*
X97673Y328734D01*
X97744Y328670D01*
X97800Y328628D01*
X97835Y328600D01*
X97842Y328593D01*
X97849D01*
X97969Y328530D01*
X98088Y328473D01*
X98215Y328431D01*
X98328Y328396D01*
X98433Y328368D01*
X98511Y328347D01*
X98546Y328340D01*
X98567D01*
X98581Y328332D01*
X98588D01*
X98637Y328326D01*
X98701Y328318D01*
X98834Y328311D01*
X98975Y328297D01*
X99123D01*
X99256Y328290D01*
X101888D01*
Y331639D01*
D02*
G37*
G36*
X132923Y335938D02*
X132859D01*
X132683Y335931D01*
X132507Y335917D01*
X132339Y335896D01*
X132184Y335861D01*
X132029Y335826D01*
X131888Y335783D01*
X131755Y335741D01*
X131628Y335692D01*
X131516Y335650D01*
X131417Y335601D01*
X131333Y335558D01*
X131255Y335523D01*
X131199Y335488D01*
X131157Y335467D01*
X131129Y335453D01*
X131122Y335446D01*
X130981Y335347D01*
X130847Y335249D01*
X130728Y335136D01*
X130608Y335024D01*
X130502Y334911D01*
X130411Y334798D01*
X130319Y334686D01*
X130242Y334580D01*
X130172Y334475D01*
X130115Y334383D01*
X130066Y334292D01*
X130024Y334221D01*
X129989Y334158D01*
X129968Y334116D01*
X129953Y334081D01*
X129946Y334074D01*
X129876Y333905D01*
X129813Y333729D01*
X129756Y333553D01*
X129707Y333377D01*
X129672Y333201D01*
X129637Y333032D01*
X129609Y332864D01*
X129588Y332709D01*
X129574Y332561D01*
X129559Y332427D01*
X129552Y332308D01*
X129545Y332202D01*
X129538Y332118D01*
Y332054D01*
Y332019D01*
Y332005D01*
X129545Y331660D01*
X129581Y331344D01*
X129623Y331041D01*
X129686Y330760D01*
X129756Y330499D01*
X129834Y330260D01*
X129918Y330049D01*
X130010Y329852D01*
X130094Y329676D01*
X130186Y329529D01*
X130263Y329402D01*
X130333Y329296D01*
X130397Y329212D01*
X130439Y329156D01*
X130467Y329120D01*
X130481Y329106D01*
X130664Y328931D01*
X130854Y328769D01*
X131051Y328635D01*
X131255Y328515D01*
X131452Y328417D01*
X131649Y328332D01*
X131846Y328269D01*
X132029Y328213D01*
X132205Y328171D01*
X132367Y328143D01*
X132507Y328114D01*
X132634Y328100D01*
X132733Y328093D01*
X132775D01*
X132810Y328086D01*
X132873D01*
X133134Y328100D01*
X133387Y328129D01*
X133626Y328178D01*
X133844Y328241D01*
X134055Y328318D01*
X134252Y328403D01*
X134435Y328494D01*
X134597Y328593D01*
X134745Y328684D01*
X134879Y328776D01*
X134984Y328860D01*
X135083Y328938D01*
X135153Y329001D01*
X135209Y329050D01*
X135237Y329078D01*
X135252Y329092D01*
X135420Y329289D01*
X135561Y329501D01*
X135688Y329726D01*
X135793Y329951D01*
X135885Y330183D01*
X135962Y330415D01*
X136025Y330640D01*
X136075Y330858D01*
X136117Y331062D01*
X136145Y331252D01*
X136166Y331428D01*
X136180Y331576D01*
X136187Y331639D01*
Y331696D01*
Y331745D01*
X136194Y331787D01*
Y331822D01*
Y331843D01*
Y331857D01*
Y331865D01*
Y332068D01*
X136180Y332258D01*
X136173Y332449D01*
X136152Y332631D01*
X136131Y332800D01*
X136103Y332969D01*
X136039Y333279D01*
X135962Y333560D01*
X135885Y333820D01*
X135793Y334053D01*
X135702Y334257D01*
X135610Y334433D01*
X135519Y334580D01*
X135434Y334714D01*
X135364Y334813D01*
X135301Y334897D01*
X135252Y334953D01*
X135223Y334981D01*
X135209Y334995D01*
X135019Y335164D01*
X134822Y335305D01*
X134625Y335432D01*
X134428Y335544D01*
X134224Y335629D01*
X134034Y335706D01*
X133844Y335769D01*
X133661Y335819D01*
X133500Y335861D01*
X133345Y335889D01*
X133204Y335910D01*
X133084Y335924D01*
X132993Y335931D01*
X132923Y335938D01*
D02*
G37*
G36*
X83855Y335924D02*
X83820D01*
X83665Y335917D01*
X83517Y335889D01*
X83384Y335854D01*
X83250Y335798D01*
X83123Y335741D01*
X83011Y335671D01*
X82905Y335601D01*
X82807Y335530D01*
X82722Y335453D01*
X82645Y335382D01*
X82582Y335312D01*
X82525Y335256D01*
X82483Y335200D01*
X82455Y335164D01*
X82434Y335136D01*
X82427Y335129D01*
X82378Y335052D01*
X82328Y334960D01*
X82286Y334869D01*
X82244Y334763D01*
X82166Y334545D01*
X82103Y334299D01*
X82047Y334039D01*
X81997Y333771D01*
X81962Y333504D01*
X81934Y333243D01*
X81913Y332983D01*
X81892Y332744D01*
X81878Y332526D01*
Y332420D01*
X81871Y332329D01*
Y332244D01*
X81864Y332167D01*
Y332104D01*
Y332047D01*
Y332005D01*
Y331970D01*
Y331949D01*
Y331942D01*
Y331724D01*
X81871Y331513D01*
X81878Y331309D01*
X81885Y331119D01*
X81899Y330936D01*
X81913Y330760D01*
X81934Y330591D01*
X81948Y330436D01*
X81969Y330281D01*
X81997Y330141D01*
X82019Y330007D01*
X82040Y329880D01*
X82068Y329761D01*
X82096Y329655D01*
X82117Y329550D01*
X82145Y329451D01*
X82194Y329275D01*
X82251Y329135D01*
X82293Y329015D01*
X82335Y328917D01*
X82378Y328846D01*
X82406Y328797D01*
X82420Y328762D01*
X82427Y328755D01*
X82532Y328614D01*
X82645Y328494D01*
X82764Y328389D01*
X82877Y328297D01*
X82997Y328220D01*
X83109Y328157D01*
X83222Y328107D01*
X83327Y328065D01*
X83426Y328030D01*
X83517Y328009D01*
X83602Y327988D01*
X83672Y327981D01*
X83728Y327974D01*
X83771Y327967D01*
X83806D01*
X83954Y327974D01*
X84101Y328002D01*
X84242Y328037D01*
X84369Y328093D01*
X84495Y328150D01*
X84608Y328213D01*
X84713Y328290D01*
X84805Y328361D01*
X84896Y328431D01*
X84967Y328508D01*
X85037Y328572D01*
X85093Y328635D01*
X85135Y328684D01*
X85164Y328719D01*
X85185Y328748D01*
X85192Y328755D01*
X85241Y328832D01*
X85290Y328923D01*
X85332Y329015D01*
X85375Y329120D01*
X85452Y329339D01*
X85515Y329585D01*
X85565Y329845D01*
X85614Y330113D01*
X85649Y330380D01*
X85677Y330647D01*
X85698Y330901D01*
X85719Y331140D01*
X85733Y331365D01*
Y331463D01*
X85741Y331555D01*
Y331639D01*
Y331717D01*
X85748Y331780D01*
Y331836D01*
Y331886D01*
Y331914D01*
Y331935D01*
Y331942D01*
Y332160D01*
X85741Y332371D01*
X85733Y332575D01*
X85719Y332772D01*
X85705Y332955D01*
X85691Y333131D01*
X85670Y333300D01*
X85649Y333462D01*
X85628Y333616D01*
X85607Y333764D01*
X85579Y333905D01*
X85551Y334031D01*
X85529Y334158D01*
X85501Y334271D01*
X85473Y334383D01*
X85438Y334482D01*
X85382Y334665D01*
X85325Y334819D01*
X85276Y334946D01*
X85234Y335052D01*
X85192Y335129D01*
X85164Y335185D01*
X85142Y335221D01*
X85135Y335228D01*
X85037Y335347D01*
X84938Y335460D01*
X84833Y335551D01*
X84720Y335629D01*
X84615Y335699D01*
X84502Y335755D01*
X84397Y335798D01*
X84291Y335840D01*
X84193Y335868D01*
X84108Y335889D01*
X84024Y335903D01*
X83954Y335910D01*
X83897Y335917D01*
X83855Y335924D01*
D02*
G37*
G36*
X126640Y323845D02*
X126597Y323690D01*
X126548Y323529D01*
X126436Y323191D01*
X126323Y322853D01*
X126267Y322691D01*
X126210Y322536D01*
X126154Y322389D01*
X126112Y322248D01*
X126063Y322128D01*
X126028Y322023D01*
X125992Y321938D01*
X125971Y321875D01*
X125957Y321833D01*
X125950Y321826D01*
Y321819D01*
X124930Y319124D01*
X128237D01*
X127167Y321981D01*
X127048Y322325D01*
X126942Y322663D01*
X126893Y322825D01*
X126851Y322973D01*
X126816Y323120D01*
X126773Y323261D01*
X126745Y323388D01*
X126717Y323500D01*
X126696Y323599D01*
X126675Y323683D01*
X126661Y323754D01*
X126647Y323803D01*
X126640Y323831D01*
Y323845D01*
D02*
G37*
G36*
X119597Y323789D02*
X116522D01*
X116325Y323782D01*
X116142Y323768D01*
X115973Y323747D01*
X115819Y323718D01*
X115678Y323683D01*
X115544Y323648D01*
X115425Y323606D01*
X115326Y323564D01*
X115235Y323521D01*
X115157Y323479D01*
X115087Y323444D01*
X115031Y323409D01*
X114995Y323381D01*
X114960Y323360D01*
X114946Y323345D01*
X114939Y323339D01*
X114848Y323254D01*
X114770Y323163D01*
X114707Y323071D01*
X114644Y322973D01*
X114594Y322881D01*
X114559Y322783D01*
X114524Y322691D01*
X114496Y322607D01*
X114475Y322522D01*
X114461Y322445D01*
X114447Y322382D01*
X114440Y322318D01*
X114433Y322269D01*
Y322234D01*
Y322213D01*
Y322206D01*
X114447Y322030D01*
X114475Y321868D01*
X114517Y321720D01*
X114559Y321594D01*
X114608Y321488D01*
X114630Y321439D01*
X114651Y321404D01*
X114672Y321376D01*
X114679Y321354D01*
X114693Y321340D01*
Y321333D01*
X114798Y321193D01*
X114918Y321073D01*
X115045Y320975D01*
X115171Y320890D01*
X115284Y320827D01*
X115326Y320806D01*
X115368Y320784D01*
X115403Y320770D01*
X115432Y320756D01*
X115446Y320749D01*
X115453D01*
X115551Y320721D01*
X115650Y320693D01*
X115875Y320651D01*
X116107Y320616D01*
X116325Y320594D01*
X116431Y320588D01*
X116522Y320580D01*
X116614D01*
X116684Y320573D01*
X119597D01*
Y323789D01*
D02*
G37*
G36*
X109775D02*
X106700D01*
X106503Y323782D01*
X106320Y323768D01*
X106151Y323747D01*
X105997Y323718D01*
X105856Y323683D01*
X105722Y323648D01*
X105603Y323606D01*
X105504Y323564D01*
X105413Y323521D01*
X105335Y323479D01*
X105265Y323444D01*
X105209Y323409D01*
X105173Y323381D01*
X105138Y323360D01*
X105124Y323345D01*
X105117Y323339D01*
X105026Y323254D01*
X104948Y323163D01*
X104885Y323071D01*
X104822Y322973D01*
X104772Y322881D01*
X104737Y322783D01*
X104702Y322691D01*
X104674Y322607D01*
X104653Y322522D01*
X104639Y322445D01*
X104625Y322382D01*
X104618Y322318D01*
X104611Y322269D01*
Y322234D01*
Y322213D01*
Y322206D01*
X104625Y322030D01*
X104653Y321868D01*
X104695Y321720D01*
X104737Y321594D01*
X104787Y321488D01*
X104808Y321439D01*
X104829Y321404D01*
X104850Y321376D01*
X104857Y321354D01*
X104871Y321340D01*
Y321333D01*
X104976Y321193D01*
X105096Y321073D01*
X105223Y320975D01*
X105349Y320890D01*
X105462Y320827D01*
X105504Y320806D01*
X105546Y320784D01*
X105582Y320770D01*
X105610Y320756D01*
X105624Y320749D01*
X105631D01*
X105729Y320721D01*
X105828Y320693D01*
X106053Y320651D01*
X106285Y320616D01*
X106503Y320594D01*
X106609Y320588D01*
X106700Y320580D01*
X106792D01*
X106862Y320573D01*
X109775D01*
Y323789D01*
D02*
G37*
G36*
X87106D02*
X84031D01*
X83834Y323782D01*
X83651Y323768D01*
X83482Y323747D01*
X83327Y323718D01*
X83187Y323683D01*
X83053Y323648D01*
X82933Y323606D01*
X82835Y323564D01*
X82743Y323521D01*
X82666Y323479D01*
X82596Y323444D01*
X82539Y323409D01*
X82504Y323381D01*
X82469Y323360D01*
X82455Y323345D01*
X82448Y323339D01*
X82356Y323254D01*
X82279Y323163D01*
X82216Y323071D01*
X82152Y322973D01*
X82103Y322881D01*
X82068Y322783D01*
X82033Y322691D01*
X82005Y322607D01*
X81983Y322522D01*
X81969Y322445D01*
X81955Y322382D01*
X81948Y322318D01*
X81941Y322269D01*
Y322234D01*
Y322213D01*
Y322206D01*
X81955Y322030D01*
X81983Y321868D01*
X82026Y321720D01*
X82068Y321594D01*
X82117Y321488D01*
X82138Y321439D01*
X82159Y321404D01*
X82181Y321376D01*
X82188Y321354D01*
X82202Y321340D01*
Y321333D01*
X82307Y321193D01*
X82427Y321073D01*
X82553Y320975D01*
X82680Y320890D01*
X82793Y320827D01*
X82835Y320806D01*
X82877Y320784D01*
X82912Y320770D01*
X82940Y320756D01*
X82954Y320749D01*
X82961D01*
X83060Y320721D01*
X83158Y320693D01*
X83384Y320651D01*
X83616Y320616D01*
X83834Y320594D01*
X83939Y320588D01*
X84031Y320580D01*
X84122D01*
X84193Y320573D01*
X87106D01*
Y323789D01*
D02*
G37*
G36*
X124838Y311829D02*
X124796Y311674D01*
X124747Y311513D01*
X124635Y311175D01*
X124522Y310837D01*
X124466Y310676D01*
X124409Y310521D01*
X124353Y310373D01*
X124311Y310232D01*
X124262Y310113D01*
X124226Y310007D01*
X124191Y309923D01*
X124170Y309859D01*
X124156Y309817D01*
X124149Y309810D01*
Y309803D01*
X123129Y307108D01*
X126436D01*
X125366Y309965D01*
X125247Y310310D01*
X125141Y310647D01*
X125092Y310809D01*
X125050Y310957D01*
X125014Y311105D01*
X124972Y311245D01*
X124944Y311372D01*
X124916Y311485D01*
X124895Y311583D01*
X124874Y311667D01*
X124860Y311738D01*
X124846Y311787D01*
X124838Y311815D01*
Y311829D01*
D02*
G37*
G36*
X110083Y231590D02*
X109933D01*
X109655Y231578D01*
X109389Y231555D01*
X109147Y231509D01*
X108927Y231451D01*
X108708Y231382D01*
X108523Y231312D01*
X108349Y231231D01*
X108188Y231151D01*
X108049Y231058D01*
X107922Y230977D01*
X107818Y230908D01*
X107737Y230839D01*
X107667Y230781D01*
X107621Y230735D01*
X107598Y230711D01*
X107586Y230700D01*
X107436Y230527D01*
X107321Y230330D01*
X107205Y230122D01*
X107113Y229902D01*
X107032Y229683D01*
X106962Y229452D01*
X106916Y229232D01*
X106870Y229024D01*
X106835Y228816D01*
X106812Y228620D01*
X106789Y228458D01*
X106777Y228308D01*
X106766Y228181D01*
Y228088D01*
Y228030D01*
Y228007D01*
X106777Y227684D01*
X106801Y227372D01*
X106847Y227094D01*
X106893Y226828D01*
X106951Y226586D01*
X107020Y226366D01*
X107101Y226158D01*
X107170Y225985D01*
X107251Y225823D01*
X107332Y225696D01*
X107402Y225580D01*
X107459Y225488D01*
X107506Y225407D01*
X107552Y225361D01*
X107575Y225326D01*
X107586Y225314D01*
X107748Y225152D01*
X107922Y225025D01*
X108107Y224898D01*
X108303Y224806D01*
X108499Y224713D01*
X108684Y224644D01*
X108881Y224586D01*
X109066Y224540D01*
X109239Y224494D01*
X109401Y224471D01*
X109551Y224448D01*
X109678Y224436D01*
X109782D01*
X109863Y224424D01*
X109933D01*
X110210Y224436D01*
X110476Y224459D01*
X110718Y224505D01*
X110938Y224563D01*
X111158Y224632D01*
X111342Y224702D01*
X111516Y224783D01*
X111678Y224875D01*
X111816Y224956D01*
X111944Y225037D01*
X112036Y225106D01*
X112128Y225176D01*
X112198Y225233D01*
X112244Y225280D01*
X112267Y225303D01*
X112279Y225314D01*
X112417Y225488D01*
X112544Y225684D01*
X112660Y225892D01*
X112753Y226112D01*
X112833Y226331D01*
X112903Y226562D01*
X112949Y226782D01*
X112995Y226990D01*
X113030Y227198D01*
X113053Y227395D01*
X113076Y227556D01*
X113088Y227707D01*
X113099Y227834D01*
Y227926D01*
Y227984D01*
Y228007D01*
X113088Y228331D01*
X113064Y228643D01*
X113018Y228920D01*
X112972Y229186D01*
X112914Y229429D01*
X112845Y229648D01*
X112764Y229856D01*
X112683Y230030D01*
X112614Y230191D01*
X112533Y230319D01*
X112464Y230434D01*
X112406Y230538D01*
X112360Y230607D01*
X112313Y230654D01*
X112290Y230688D01*
X112279Y230700D01*
X112117Y230862D01*
X111944Y230989D01*
X111759Y231116D01*
X111562Y231220D01*
X111366Y231301D01*
X111181Y231370D01*
X110984Y231428D01*
X110799Y231474D01*
X110626Y231520D01*
X110453Y231544D01*
X110314Y231567D01*
X110187Y231578D01*
X110083Y231590D01*
D02*
G37*
G36*
X93441D02*
X93291D01*
X93013Y231578D01*
X92747Y231555D01*
X92505Y231509D01*
X92285Y231451D01*
X92065Y231382D01*
X91881Y231312D01*
X91707Y231231D01*
X91545Y231151D01*
X91407Y231058D01*
X91280Y230977D01*
X91176Y230908D01*
X91095Y230839D01*
X91025Y230781D01*
X90979Y230735D01*
X90956Y230711D01*
X90944Y230700D01*
X90794Y230527D01*
X90667Y230330D01*
X90563Y230122D01*
X90459Y229902D01*
X90378Y229683D01*
X90320Y229452D01*
X90263Y229232D01*
X90216Y229024D01*
X90182Y228816D01*
X90159Y228620D01*
X90135Y228458D01*
X90124Y228308D01*
X90112Y228181D01*
Y228088D01*
Y228030D01*
Y228007D01*
X90124Y227684D01*
X90147Y227372D01*
X90193Y227094D01*
X90239Y226828D01*
X90309Y226586D01*
X90378Y226366D01*
X90448Y226158D01*
X90528Y225985D01*
X90609Y225823D01*
X90679Y225696D01*
X90748Y225580D01*
X90817Y225488D01*
X90864Y225407D01*
X90910Y225361D01*
X90933Y225326D01*
X90944Y225314D01*
X91106Y225152D01*
X91280Y225025D01*
X91465Y224898D01*
X91661Y224806D01*
X91857Y224713D01*
X92042Y224644D01*
X92239Y224586D01*
X92424Y224540D01*
X92597Y224494D01*
X92759Y224471D01*
X92909Y224448D01*
X93036Y224436D01*
X93140D01*
X93221Y224424D01*
X93291D01*
X93568Y224436D01*
X93834Y224459D01*
X94076Y224505D01*
X94307Y224563D01*
X94515Y224632D01*
X94712Y224702D01*
X94885Y224783D01*
X95036Y224875D01*
X95186Y224956D01*
X95301Y225037D01*
X95405Y225106D01*
X95498Y225176D01*
X95556Y225233D01*
X95613Y225280D01*
X95637Y225303D01*
X95648Y225314D01*
X95787Y225488D01*
X95914Y225684D01*
X96030Y225892D01*
X96122Y226112D01*
X96203Y226331D01*
X96272Y226562D01*
X96318Y226782D01*
X96365Y226990D01*
X96399Y227198D01*
X96422Y227395D01*
X96446Y227556D01*
X96457Y227707D01*
X96469Y227834D01*
Y227926D01*
Y227984D01*
Y228007D01*
X96457Y228331D01*
X96434Y228643D01*
X96388Y228920D01*
X96341Y229186D01*
X96284Y229429D01*
X96214Y229648D01*
X96133Y229856D01*
X96053Y230030D01*
X95983Y230191D01*
X95902Y230319D01*
X95833Y230434D01*
X95775Y230538D01*
X95729Y230607D01*
X95683Y230654D01*
X95660Y230688D01*
X95648Y230700D01*
X95486Y230862D01*
X95313Y230989D01*
X95117Y231116D01*
X94932Y231220D01*
X94735Y231301D01*
X94539Y231370D01*
X94342Y231428D01*
X94157Y231474D01*
X93984Y231520D01*
X93822Y231544D01*
X93672Y231567D01*
X93545Y231578D01*
X93441Y231590D01*
D02*
G37*
G36*
X55487D02*
X55337D01*
X55060Y231578D01*
X54794Y231555D01*
X54551Y231509D01*
X54332Y231451D01*
X54112Y231382D01*
X53927Y231312D01*
X53754Y231231D01*
X53592Y231151D01*
X53453Y231058D01*
X53326Y230977D01*
X53222Y230908D01*
X53141Y230839D01*
X53072Y230781D01*
X53026Y230735D01*
X53003Y230711D01*
X52991Y230700D01*
X52841Y230527D01*
X52714Y230330D01*
X52610Y230122D01*
X52506Y229902D01*
X52425Y229683D01*
X52367Y229452D01*
X52309Y229232D01*
X52263Y229024D01*
X52228Y228816D01*
X52205Y228620D01*
X52182Y228458D01*
X52171Y228308D01*
X52159Y228181D01*
Y228088D01*
Y228030D01*
Y228007D01*
X52171Y227684D01*
X52194Y227372D01*
X52240Y227094D01*
X52286Y226828D01*
X52356Y226586D01*
X52425Y226366D01*
X52494Y226158D01*
X52575Y225985D01*
X52656Y225823D01*
X52725Y225696D01*
X52795Y225580D01*
X52864Y225488D01*
X52910Y225407D01*
X52957Y225361D01*
X52980Y225326D01*
X52991Y225314D01*
X53153Y225152D01*
X53326Y225025D01*
X53511Y224898D01*
X53708Y224806D01*
X53904Y224713D01*
X54089Y224644D01*
X54286Y224586D01*
X54471Y224540D01*
X54644Y224494D01*
X54806Y224471D01*
X54956Y224448D01*
X55083Y224436D01*
X55187D01*
X55268Y224424D01*
X55337D01*
X55615Y224436D01*
X55880Y224459D01*
X56123Y224505D01*
X56354Y224563D01*
X56562Y224632D01*
X56759Y224702D01*
X56932Y224783D01*
X57082Y224875D01*
X57233Y224956D01*
X57348Y225037D01*
X57452Y225106D01*
X57545Y225176D01*
X57603Y225233D01*
X57660Y225280D01*
X57683Y225303D01*
X57695Y225314D01*
X57834Y225488D01*
X57961Y225684D01*
X58076Y225892D01*
X58169Y226112D01*
X58250Y226331D01*
X58319Y226562D01*
X58365Y226782D01*
X58411Y226990D01*
X58446Y227198D01*
X58469Y227395D01*
X58492Y227556D01*
X58504Y227707D01*
X58516Y227834D01*
Y227926D01*
Y227984D01*
Y228007D01*
X58504Y228331D01*
X58481Y228643D01*
X58435Y228920D01*
X58388Y229186D01*
X58331Y229429D01*
X58261Y229648D01*
X58180Y229856D01*
X58099Y230030D01*
X58030Y230191D01*
X57949Y230319D01*
X57880Y230434D01*
X57822Y230538D01*
X57776Y230607D01*
X57730Y230654D01*
X57706Y230688D01*
X57695Y230700D01*
X57533Y230862D01*
X57360Y230989D01*
X57163Y231116D01*
X56978Y231220D01*
X56782Y231301D01*
X56585Y231370D01*
X56389Y231428D01*
X56204Y231474D01*
X56031Y231520D01*
X55869Y231544D01*
X55719Y231567D01*
X55592Y231578D01*
X55487Y231590D01*
D02*
G37*
%LPD*%
M02*
