G04*
G04 #@! TF.GenerationSoftware,Altium Limited,Altium Designer,21.6.4 (81)*
G04*
G04 Layer_Color=16711935*
%FSLAX44Y44*%
%MOMM*%
G71*
G04*
G04 #@! TF.SameCoordinates,6D38FECB-4D46-452B-8F31-296BD34E144B*
G04*
G04*
G04 #@! TF.FilePolarity,Positive*
G04*
G01*
G75*
%ADD49C,0.0500*%
%ADD50C,0.1000*%
D49*
X173000Y182500D02*
G03*
X173000Y182500I-6000J0D01*
G01*
X136000D02*
G03*
X136000Y182500I-6000J0D01*
G01*
X188999Y167000D02*
Y173000D01*
X180999Y167000D02*
Y173000D01*
Y167000D02*
X188999D01*
X180999Y173000D02*
X188999D01*
X101000Y194500D02*
Y205500D01*
X95000Y194500D02*
Y205500D01*
X101000D01*
X95000Y194500D02*
X101000D01*
X165000Y162500D02*
X205000D01*
X165000Y137500D02*
Y162500D01*
X205000Y137500D02*
Y162500D01*
X165000Y137500D02*
X176500D01*
X193500D02*
X205000D01*
X193498Y137501D02*
X193500Y137500D01*
X176500D02*
X193498Y137501D01*
X37500Y300250D02*
X53500D01*
X37500Y267250D02*
X53500D01*
Y300250D01*
X37500Y267250D02*
Y300250D01*
X180000Y194500D02*
X186000D01*
X180000Y205500D02*
X186000D01*
X180000Y194500D02*
Y205500D01*
X186000Y194500D02*
Y205500D01*
X87000Y241750D02*
X98000D01*
X87000D02*
Y247750D01*
X98000D01*
Y241750D02*
Y247750D01*
X155000Y254500D02*
X162000Y262000D01*
Y254500D02*
Y397500D01*
X58000D02*
X162000D01*
X58000Y254500D02*
Y397500D01*
Y254500D02*
X162000D01*
X120500Y134000D02*
Y155000D01*
X99500D02*
X120500D01*
X99500Y134000D02*
Y155000D01*
Y134000D02*
X120500D01*
X87000Y194500D02*
X93000D01*
X87000Y205500D02*
X93000D01*
X87000Y194500D02*
Y205500D01*
X93000Y194500D02*
Y205500D01*
X109000Y194500D02*
Y205500D01*
X103000Y194500D02*
Y205500D01*
X109000D01*
X103000Y194500D02*
X109000D01*
X178000D02*
Y205500D01*
X172000Y194500D02*
Y205500D01*
X178000D01*
X172000Y194500D02*
X178000D01*
X141000D02*
Y205500D01*
X135000Y194500D02*
Y205500D01*
X141000D01*
X135000Y194500D02*
X141000D01*
X194000D02*
Y205500D01*
X188000Y194500D02*
Y205500D01*
X194000D01*
X188000Y194500D02*
X194000D01*
X48000D02*
Y205500D01*
X42000Y194500D02*
Y205500D01*
X48000D01*
X42000Y194500D02*
X48000D01*
X56000D02*
Y205500D01*
X50000Y194500D02*
Y205500D01*
X56000D01*
X50000Y194500D02*
X56000D01*
X125000D02*
Y205500D01*
X119000Y194500D02*
Y205500D01*
X125000D01*
X119000Y194500D02*
X125000D01*
X117000D02*
Y205500D01*
X111000Y194500D02*
Y205500D01*
X117000D01*
X111000Y194500D02*
X117000D01*
X202000D02*
Y205500D01*
X196000Y194500D02*
Y205500D01*
X202000D01*
X196000Y194500D02*
X202000D01*
X210000D02*
Y205500D01*
X204000Y194500D02*
Y205500D01*
X210000D01*
X204000Y194500D02*
X210000D01*
X133000D02*
Y205500D01*
X127000Y194500D02*
Y205500D01*
X133000D01*
X127000Y194500D02*
X133000D01*
X170000D02*
Y205500D01*
X164000Y194500D02*
Y205500D01*
X170000D01*
X164000Y194500D02*
X170000D01*
X26502Y162499D02*
X43500Y162500D01*
X26500D02*
X26502Y162499D01*
X15000Y162500D02*
X26500D01*
X43500D02*
X55000D01*
X15000Y137500D02*
Y162500D01*
X55000Y137500D02*
Y162500D01*
X15000Y137500D02*
X55000D01*
X85000Y194500D02*
Y205500D01*
X79000Y194500D02*
Y205500D01*
X85000D01*
X79000Y194500D02*
X85000D01*
X31001Y167000D02*
X39001D01*
X31001Y173000D02*
X39001D01*
Y167000D02*
Y173000D01*
X31001Y167000D02*
Y173000D01*
D50*
X8400Y1800D02*
Y27200D01*
Y1800D02*
X211600D01*
Y27200D01*
X8400D02*
X211600D01*
X147000Y190750D02*
Y208750D01*
X158000Y190750D02*
Y208750D01*
X147000Y190750D02*
X158000D01*
X147000Y208750D02*
X158000D01*
X62000D02*
X73000D01*
X62000Y190750D02*
X73000D01*
Y208750D01*
X62000Y190750D02*
Y208750D01*
M02*
