G04*
G04 #@! TF.GenerationSoftware,Altium Limited,Altium Designer,21.6.4 (81)*
G04*
G04 Layer_Color=8388736*
%FSLAX44Y44*%
%MOMM*%
G71*
G04*
G04 #@! TF.SameCoordinates,6D38FECB-4D46-452B-8F31-296BD34E144B*
G04*
G04*
G04 #@! TF.FilePolarity,Negative*
G04*
G01*
G75*
%ADD25R,0.4600X0.4500*%
%ADD26R,0.6500X0.6200*%
%ADD27R,0.9000X1.8000*%
%ADD28C,1.1000*%
%ADD29R,1.6500X1.1000*%
%ADD30C,0.8900*%
%ADD31R,1.1200X0.7400*%
%ADD32R,0.7200X0.7200*%
%ADD33R,0.7000X0.7000*%
%ADD34R,1.1000X0.9000*%
%ADD35C,1.7500*%
%ADD36R,1.7500X1.7500*%
%ADD37C,1.0000*%
%ADD38C,4.4000*%
D25*
X189200Y170000D02*
D03*
X180800D02*
D03*
X39200Y170000D02*
D03*
X30800D02*
D03*
D26*
X98000Y204000D02*
D03*
Y196000D02*
D03*
X183000D02*
D03*
Y204000D02*
D03*
X90000Y196000D02*
D03*
Y204000D02*
D03*
X106000D02*
D03*
Y196000D02*
D03*
X175000Y204000D02*
D03*
Y196000D02*
D03*
X138000Y204000D02*
D03*
Y196000D02*
D03*
X191000Y204000D02*
D03*
Y196000D02*
D03*
X45000Y204000D02*
D03*
Y196000D02*
D03*
X53000Y204000D02*
D03*
Y196000D02*
D03*
X122000Y204000D02*
D03*
Y196000D02*
D03*
X114000Y204000D02*
D03*
Y196000D02*
D03*
X199000Y204000D02*
D03*
Y196000D02*
D03*
X207000Y204000D02*
D03*
Y196000D02*
D03*
X130000Y204000D02*
D03*
Y196000D02*
D03*
X167000Y204000D02*
D03*
Y196000D02*
D03*
X82000Y204000D02*
D03*
Y196000D02*
D03*
D27*
X168000Y150000D02*
D03*
X202000D02*
D03*
X18000D02*
D03*
X52000D02*
D03*
D28*
X167000Y182500D02*
D03*
X130000D02*
D03*
D29*
X45500Y270750D02*
D03*
Y296750D02*
D03*
D30*
X97300Y93750D02*
D03*
Y106450D02*
D03*
X110000Y93750D02*
D03*
Y106450D02*
D03*
X122700Y93750D02*
D03*
Y106450D02*
D03*
D31*
X152500Y192900D02*
D03*
Y206600D02*
D03*
X67500D02*
D03*
Y192900D02*
D03*
D32*
X88000Y244750D02*
D03*
X97000D02*
D03*
D33*
X104500Y350000D02*
D03*
X66000Y391000D02*
D03*
Y376000D02*
D03*
X66000Y361000D02*
D03*
Y350000D02*
D03*
Y339000D02*
D03*
Y328000D02*
D03*
Y317000D02*
D03*
Y306000D02*
D03*
Y295000D02*
D03*
Y284000D02*
D03*
Y273000D02*
D03*
Y262000D02*
D03*
X77000Y391000D02*
D03*
X77000Y361000D02*
D03*
Y350000D02*
D03*
Y339000D02*
D03*
Y328000D02*
D03*
Y317000D02*
D03*
Y306000D02*
D03*
Y295000D02*
D03*
Y284000D02*
D03*
Y273000D02*
D03*
Y262000D02*
D03*
X88000Y361000D02*
D03*
Y350000D02*
D03*
Y339000D02*
D03*
Y328000D02*
D03*
Y317000D02*
D03*
Y306000D02*
D03*
Y295000D02*
D03*
Y273000D02*
D03*
Y262000D02*
D03*
X99000Y284000D02*
D03*
Y273000D02*
D03*
Y262000D02*
D03*
X110000Y361000D02*
D03*
X104500Y328000D02*
D03*
Y306000D02*
D03*
X110000Y284000D02*
D03*
Y273000D02*
D03*
Y262000D02*
D03*
X121000Y284000D02*
D03*
Y273000D02*
D03*
Y262000D02*
D03*
X132000Y361000D02*
D03*
Y350000D02*
D03*
Y339000D02*
D03*
Y328000D02*
D03*
Y317000D02*
D03*
Y306000D02*
D03*
Y295000D02*
D03*
Y273000D02*
D03*
Y262000D02*
D03*
X143000Y391000D02*
D03*
X143000Y361000D02*
D03*
Y350000D02*
D03*
Y339000D02*
D03*
Y328000D02*
D03*
Y317000D02*
D03*
Y306000D02*
D03*
Y295000D02*
D03*
Y284000D02*
D03*
Y273000D02*
D03*
Y262000D02*
D03*
X154000Y391000D02*
D03*
Y376000D02*
D03*
Y361000D02*
D03*
Y350000D02*
D03*
Y339000D02*
D03*
Y328000D02*
D03*
Y317000D02*
D03*
Y306000D02*
D03*
Y295000D02*
D03*
Y284000D02*
D03*
Y273000D02*
D03*
Y262000D02*
D03*
X104500Y317000D02*
D03*
X115500Y350000D02*
D03*
Y328000D02*
D03*
Y306000D02*
D03*
Y317000D02*
D03*
D34*
X102500Y150000D02*
D03*
X117500D02*
D03*
Y139000D02*
D03*
X102500D02*
D03*
D35*
X21100Y42200D02*
D03*
X46500D02*
D03*
X148100D02*
D03*
X173500D02*
D03*
X122700D02*
D03*
X97300D02*
D03*
X71900D02*
D03*
D36*
X198900D02*
D03*
D37*
X84600Y100100D02*
D03*
X135400Y110260D02*
D03*
Y89940D02*
D03*
D38*
X35000Y100000D02*
D03*
X185000D02*
D03*
M02*
