G04*
G04 #@! TF.GenerationSoftware,Altium Limited,Altium Designer,21.6.4 (81)*
G04*
G04 Layer_Color=32768*
%FSLAX44Y44*%
%MOMM*%
G71*
G04*
G04 #@! TF.SameCoordinates,6D38FECB-4D46-452B-8F31-296BD34E144B*
G04*
G04*
G04 #@! TF.FilePolarity,Positive*
G04*
G01*
G75*
%ADD49C,0.0500*%
%ADD50C,0.1000*%
D49*
X192500Y166000D02*
Y174000D01*
X178000Y166000D02*
Y174000D01*
Y166000D02*
X192500D01*
X178000Y174000D02*
X192500D01*
X181750Y170000D02*
X188000D01*
X185000Y167250D02*
Y173250D01*
X95000Y200000D02*
X101000D01*
X98000Y197000D02*
Y203000D01*
X102000Y192000D02*
Y208000D01*
X94000Y192000D02*
Y208000D01*
X102000D01*
X94000Y192000D02*
X102000D01*
X208000Y136000D02*
Y163750D01*
X162000D02*
X208000D01*
X162000Y136000D02*
Y163750D01*
Y136000D02*
X208000D01*
X185000Y145000D02*
Y155000D01*
X180000Y150000D02*
X190000D01*
X36250Y303750D02*
X55000D01*
X36250Y263750D02*
X55000D01*
Y303750D01*
X36250Y263750D02*
Y303750D01*
X45500Y278750D02*
Y288750D01*
X40500Y283750D02*
X50500D01*
X4900Y-60200D02*
Y52450D01*
Y-60200D02*
X215100D01*
Y52450D01*
X4900D02*
X215100D01*
X110000Y9500D02*
Y19500D01*
X105000Y14500D02*
X115000D01*
X179000Y192000D02*
X187000D01*
X179000Y208000D02*
X187000D01*
X179000Y192000D02*
Y208000D01*
X187000Y192000D02*
Y208000D01*
X183000Y197000D02*
Y203000D01*
X180000Y200000D02*
X186000D01*
X146000Y188750D02*
Y210750D01*
X159000Y188750D02*
Y210750D01*
X146000Y188750D02*
X159000D01*
X146000Y210750D02*
X159000D01*
X83000Y239750D02*
Y249750D01*
X102000Y239750D02*
Y249750D01*
X83000D02*
X102000D01*
X83000Y239750D02*
X102000D01*
X89500Y244750D02*
X95500D01*
X92500Y241750D02*
Y247750D01*
X56000Y252500D02*
Y399500D01*
X164000D01*
X106000Y331000D02*
X116000D01*
X111000Y326000D02*
Y336000D01*
X56000Y252500D02*
X164000D01*
Y399500D01*
X125000Y132500D02*
Y156500D01*
X95000D02*
X125000D01*
X95000Y132500D02*
Y156500D01*
Y132500D02*
X125000D01*
X110000Y139500D02*
Y149500D01*
X105000Y144500D02*
X115000D01*
X86000Y192000D02*
X94000D01*
X86000Y208000D02*
X94000D01*
X86000Y192000D02*
Y208000D01*
X94000Y192000D02*
Y208000D01*
X90000Y197000D02*
Y203000D01*
X87000Y200000D02*
X93000D01*
X103000D02*
X109000D01*
X106000Y197000D02*
Y203000D01*
X110000Y192000D02*
Y208000D01*
X102000Y192000D02*
Y208000D01*
X110000D01*
X102000Y192000D02*
X110000D01*
X172000Y200000D02*
X178000D01*
X175000Y197000D02*
Y203000D01*
X179000Y192000D02*
Y208000D01*
X171000Y192000D02*
Y208000D01*
X179000D01*
X171000Y192000D02*
X179000D01*
X135000Y200000D02*
X141000D01*
X138000Y197000D02*
Y203000D01*
X142000Y192000D02*
Y208000D01*
X134000Y192000D02*
Y208000D01*
X142000D01*
X134000Y192000D02*
X142000D01*
X188000Y200000D02*
X194000D01*
X191000Y197000D02*
Y203000D01*
X195000Y192000D02*
Y208000D01*
X187000Y192000D02*
Y208000D01*
X195000D01*
X187000Y192000D02*
X195000D01*
X42000Y200000D02*
X48000D01*
X45000Y197000D02*
Y203000D01*
X49000Y192000D02*
Y208000D01*
X41000Y192000D02*
Y208000D01*
X49000D01*
X41000Y192000D02*
X49000D01*
X50000Y200000D02*
X56000D01*
X53000Y197000D02*
Y203000D01*
X57000Y192000D02*
Y208000D01*
X49000Y192000D02*
Y208000D01*
X57000D01*
X49000Y192000D02*
X57000D01*
X119000Y200000D02*
X125000D01*
X122000Y197000D02*
Y203000D01*
X126000Y192000D02*
Y208000D01*
X118000Y192000D02*
Y208000D01*
X126000D01*
X118000Y192000D02*
X126000D01*
X111000Y200000D02*
X117000D01*
X114000Y197000D02*
Y203000D01*
X118000Y192000D02*
Y208000D01*
X110000Y192000D02*
Y208000D01*
X118000D01*
X110000Y192000D02*
X118000D01*
X196000Y200000D02*
X202000D01*
X199000Y197000D02*
Y203000D01*
X203000Y192000D02*
Y208000D01*
X195000Y192000D02*
Y208000D01*
X203000D01*
X195000Y192000D02*
X203000D01*
X204000Y200000D02*
X210000D01*
X207000Y197000D02*
Y203000D01*
X211000Y192000D02*
Y208000D01*
X203000Y192000D02*
Y208000D01*
X211000D01*
X203000Y192000D02*
X211000D01*
X127000Y200000D02*
X133000D01*
X130000Y197000D02*
Y203000D01*
X134000Y192000D02*
Y208000D01*
X126000Y192000D02*
Y208000D01*
X134000D01*
X126000Y192000D02*
X134000D01*
X164000Y200000D02*
X170000D01*
X167000Y197000D02*
Y203000D01*
X171000Y192000D02*
Y208000D01*
X163000Y192000D02*
Y208000D01*
X171000D01*
X163000Y192000D02*
X171000D01*
X30000Y150000D02*
X40000D01*
X35000Y145000D02*
Y155000D01*
X12000Y164000D02*
X58000D01*
Y136250D02*
Y164000D01*
X12000Y136250D02*
X58000D01*
X12000D02*
Y164000D01*
X79000Y200000D02*
X85000D01*
X82000Y197000D02*
Y203000D01*
X86000Y192000D02*
Y208000D01*
X78000Y192000D02*
Y208000D01*
X86000D01*
X78000Y192000D02*
X86000D01*
X61000Y210750D02*
X74000D01*
X61000Y188750D02*
X74000D01*
Y210750D01*
X61000Y188750D02*
Y210750D01*
X35000Y166750D02*
Y172750D01*
X32000Y170000D02*
X38250D01*
X27500Y166000D02*
X42000D01*
X27500Y174000D02*
X42000D01*
Y166000D02*
Y174000D01*
X27500Y166000D02*
Y174000D01*
D50*
X147500Y199750D02*
X157500D01*
X152500Y194750D02*
Y204750D01*
X67500Y194750D02*
Y204750D01*
X62500Y199750D02*
X72500D01*
M02*
