G04*
G04 #@! TF.GenerationSoftware,Altium Limited,Altium Designer,21.6.4 (81)*
G04*
G04 Layer_Physical_Order=1*
G04 Layer_Color=255*
%FSLAX44Y44*%
%MOMM*%
G71*
G04*
G04 #@! TF.SameCoordinates,6D38FECB-4D46-452B-8F31-296BD34E144B*
G04*
G04*
G04 #@! TF.FilePolarity,Positive*
G04*
G01*
G75*
%ADD10C,0.1270*%
%ADD11C,0.2540*%
%ADD15C,0.1520*%
%ADD16R,0.3600X0.3500*%
%ADD17R,0.5500X0.5200*%
%ADD18R,0.8000X1.7000*%
%ADD19R,1.5500X1.0000*%
%ADD21R,1.0200X0.6400*%
%ADD22R,0.6200X0.6200*%
%ADD23R,0.6000X0.6000*%
%ADD24R,1.0000X0.8000*%
%ADD39C,1.0000*%
%ADD40C,0.7900*%
%ADD41C,0.1524*%
%ADD42C,1.6500*%
%ADD43R,1.6500X1.6500*%
%ADD44C,0.9000*%
%ADD45C,4.3000*%
%ADD46C,0.6000*%
G36*
X61730Y394652D02*
Y391762D01*
X66000D01*
Y391000D01*
X66762D01*
Y386730D01*
X68102D01*
X69000Y385832D01*
X69000Y380270D01*
X66762D01*
Y376000D01*
X66000D01*
D01*
X66762D01*
Y371730D01*
X68102D01*
X69000Y370832D01*
X69000Y365270D01*
X61730D01*
Y356730D01*
X70270D01*
Y364000D01*
X72730D01*
Y361762D01*
X77000D01*
X81270D01*
Y364000D01*
X83730D01*
Y361762D01*
X88000D01*
Y361000D01*
D01*
Y361762D01*
X92270D01*
Y364000D01*
X101800D01*
X105730D01*
Y361762D01*
X110000D01*
X114270D01*
Y364000D01*
X127730Y364000D01*
Y361762D01*
X132000D01*
X136270D01*
Y364000D01*
X138730D01*
Y361762D01*
X143000D01*
Y360238D01*
X138730D01*
Y357110D01*
X138377Y356873D01*
X136722Y355218D01*
X136300Y354588D01*
X136237Y354270D01*
X127730D01*
Y345730D01*
X136270D01*
Y348058D01*
X136500D01*
X137243Y348206D01*
X137460Y348350D01*
X138730Y347797D01*
Y345730D01*
X144523D01*
X145810Y344443D01*
X145324Y343270D01*
X138730D01*
Y334730D01*
X144523D01*
X145810Y333443D01*
X145324Y332270D01*
X138730D01*
Y325856D01*
X137557Y325370D01*
X136270Y326657D01*
Y332270D01*
X127730D01*
Y323730D01*
X133343D01*
X134533Y322540D01*
X134007Y321270D01*
X127730D01*
Y315657D01*
X125036Y312964D01*
X124588Y312292D01*
X124430Y311500D01*
Y288270D01*
X116730D01*
Y279730D01*
X124430D01*
Y277270D01*
X116730D01*
Y268730D01*
X124430D01*
Y266270D01*
X116730D01*
Y257730D01*
X124430D01*
Y233357D01*
X112536Y221464D01*
X112088Y220792D01*
X111930Y220000D01*
Y207870D01*
X107942D01*
Y219195D01*
X111373Y222626D01*
X111373Y222627D01*
X111794Y223257D01*
X111942Y224000D01*
Y257730D01*
X114270D01*
Y266270D01*
X106570D01*
Y268730D01*
X114270D01*
Y277270D01*
X106570D01*
Y279730D01*
X114270D01*
Y288270D01*
X106570D01*
Y289250D01*
X106412Y290042D01*
X105963Y290714D01*
X103963Y292714D01*
X103292Y293162D01*
X102500Y293320D01*
X98607D01*
X95100Y296827D01*
Y310610D01*
X94942Y311402D01*
X94494Y312073D01*
X93603Y312964D01*
X92932Y313412D01*
X92270Y313544D01*
Y321270D01*
X84570D01*
Y323730D01*
X92270D01*
Y332270D01*
X85993D01*
X85467Y333540D01*
X86657Y334730D01*
X92270D01*
Y343270D01*
X83730D01*
Y337657D01*
X82443Y336370D01*
X81270Y336856D01*
Y343270D01*
X74856D01*
X74370Y344443D01*
X75657Y345730D01*
X81270D01*
Y354270D01*
X72730D01*
Y348657D01*
X71540Y347467D01*
X70270Y347993D01*
Y354270D01*
X61730D01*
Y348671D01*
X60460Y347992D01*
X59666Y348522D01*
X58000Y348854D01*
X56334Y348522D01*
X54921Y347579D01*
X53978Y346166D01*
X53646Y344500D01*
X53978Y342834D01*
X54921Y341422D01*
X56334Y340478D01*
X58000Y340146D01*
X59666Y340478D01*
X60460Y341008D01*
X61730Y340329D01*
Y337671D01*
X60460Y336992D01*
X59666Y337522D01*
X58000Y337854D01*
X56334Y337522D01*
X54921Y336578D01*
X53978Y335166D01*
X53646Y333500D01*
X53978Y331834D01*
X54921Y330421D01*
X56334Y329478D01*
X58000Y329146D01*
X59666Y329478D01*
X60460Y330008D01*
X61730Y329329D01*
Y323730D01*
X70270D01*
Y331221D01*
X71540Y331399D01*
X72730Y330469D01*
Y323730D01*
X80430D01*
Y321270D01*
X72730D01*
Y312730D01*
X80430D01*
Y312391D01*
X80588Y311598D01*
X80627Y311540D01*
X79948Y310270D01*
X72730D01*
Y302570D01*
X70270D01*
Y310270D01*
X61730D01*
Y307493D01*
X60460Y306967D01*
X58464Y308964D01*
X57792Y309412D01*
X57000Y309570D01*
X37500D01*
X36708Y309412D01*
X36037Y308964D01*
X33537Y306464D01*
X33088Y305792D01*
X32930Y305000D01*
Y218750D01*
X33088Y217958D01*
X33537Y217286D01*
X41683Y209140D01*
X41157Y207870D01*
X40980D01*
Y200130D01*
X39764Y200000D01*
X4078D01*
X4078Y395922D01*
X60730Y395922D01*
X61730Y394652D01*
D02*
G37*
G36*
X173058Y315695D02*
Y281029D01*
X171884Y280543D01*
X166964Y285464D01*
X166292Y285912D01*
X165500Y286070D01*
X158270D01*
Y288270D01*
X150570D01*
Y290730D01*
X158270D01*
Y299270D01*
X150570D01*
Y301730D01*
X158270D01*
Y310270D01*
X150570D01*
Y310610D01*
X150412Y311402D01*
X150373Y311460D01*
X151052Y312730D01*
X158270D01*
Y320558D01*
X168195D01*
X173058Y315695D01*
D02*
G37*
G36*
X61037Y288036D02*
X61708Y287588D01*
X61730Y287583D01*
Y280419D01*
X61707Y280414D01*
X61035Y279965D01*
X55693Y274623D01*
X54520Y275109D01*
Y277020D01*
X37070D01*
Y290480D01*
X54520D01*
Y292894D01*
X55693Y293380D01*
X61037Y288036D01*
D02*
G37*
G36*
X83730Y268730D02*
X85410D01*
Y266270D01*
X83730D01*
Y264590D01*
X81270D01*
Y266270D01*
X72730D01*
Y257730D01*
X81270D01*
Y259410D01*
X83730D01*
Y257730D01*
X85410D01*
Y249120D01*
X83630D01*
Y247340D01*
X80189D01*
X79862Y247829D01*
X78450Y248772D01*
X76784Y249104D01*
X75118Y248772D01*
X73705Y247829D01*
X72761Y246416D01*
X72430Y244750D01*
X72761Y243084D01*
X73705Y241672D01*
X75118Y240728D01*
X76784Y240396D01*
X78450Y240728D01*
X79862Y241672D01*
X80189Y242160D01*
X83630D01*
Y240380D01*
X91360D01*
X92370Y240380D01*
X93640Y240380D01*
X96238D01*
Y244750D01*
Y249120D01*
X93640D01*
X92630Y249120D01*
X91488Y249120D01*
X90590Y250018D01*
Y257730D01*
X92270D01*
Y266270D01*
X90590D01*
Y268730D01*
X92270D01*
Y275004D01*
X93540Y275530D01*
X94730Y274340D01*
Y268730D01*
X102430D01*
Y266270D01*
X94730D01*
Y257730D01*
X102430D01*
Y249626D01*
X101370Y249120D01*
X101160Y249120D01*
X97762D01*
Y244750D01*
Y240380D01*
X101160D01*
X101370Y240380D01*
X102430Y239874D01*
Y235357D01*
X88536Y221464D01*
X88088Y220792D01*
X87930Y220000D01*
Y207870D01*
X86404D01*
X85726Y209140D01*
X86022Y209584D01*
X86354Y211250D01*
X86022Y212916D01*
X85078Y214328D01*
X83666Y215272D01*
X82000Y215604D01*
X80334Y215272D01*
X79549Y214748D01*
X78148Y215283D01*
X78022Y215916D01*
X77078Y217328D01*
X75666Y218272D01*
X74000Y218604D01*
X72334Y218272D01*
X70922Y217328D01*
X70578D01*
X69166Y218272D01*
X67500Y218604D01*
X65834Y218272D01*
X65240Y217876D01*
X64250Y217409D01*
X63260Y217876D01*
X62666Y218272D01*
X61000Y218604D01*
X59334Y218272D01*
X57922Y217328D01*
X56978Y215916D01*
X56646Y214250D01*
X56652Y214223D01*
X55509Y213459D01*
X54666Y214022D01*
X53000Y214354D01*
X51334Y214022D01*
X49921Y213078D01*
X48978Y211666D01*
X48646Y210000D01*
X48715Y209657D01*
X47759Y208612D01*
X47405Y208683D01*
X47044Y208880D01*
X46912Y209542D01*
X46464Y210214D01*
X37070Y219607D01*
Y264480D01*
X54520D01*
Y267436D01*
X54750Y268678D01*
X55543Y268836D01*
X56215Y269285D01*
X60557Y273627D01*
X61730Y273141D01*
Y268730D01*
X70270D01*
Y276428D01*
X72730D01*
Y273762D01*
X77000D01*
X81270D01*
Y276428D01*
X83730D01*
Y268730D01*
D02*
G37*
G36*
X148598Y276838D02*
X149390Y276680D01*
X149730D01*
Y268730D01*
X158270D01*
Y276680D01*
X165893D01*
X167180Y275393D01*
Y252107D01*
X136537Y221464D01*
X136088Y220792D01*
X135930Y220000D01*
Y207870D01*
X132070D01*
Y219143D01*
X144464Y231536D01*
X144912Y232208D01*
X145070Y233000D01*
Y257730D01*
X147270D01*
Y266270D01*
X139570D01*
Y268730D01*
X142238D01*
Y273000D01*
X143000D01*
Y273762D01*
X147270D01*
Y276198D01*
X148540Y276877D01*
X148598Y276838D01*
D02*
G37*
G36*
X135430Y236357D02*
X120536Y221464D01*
X120088Y220792D01*
X119930Y220000D01*
Y207870D01*
X116070D01*
Y219143D01*
X127963Y231036D01*
X128412Y231708D01*
X128570Y232500D01*
Y257730D01*
X135430D01*
Y236357D01*
D02*
G37*
G36*
X108058Y224804D02*
X104627Y221373D01*
X104206Y220743D01*
X104058Y220000D01*
Y207870D01*
X102404D01*
X101726Y209140D01*
X102022Y209584D01*
X102354Y211250D01*
X102022Y212916D01*
X101079Y214328D01*
X99666Y215272D01*
X98000Y215604D01*
X96334Y215272D01*
X94922Y214328D01*
X93978Y212916D01*
X93646Y211250D01*
X93978Y209584D01*
X94274Y209140D01*
X93596Y207870D01*
X92070D01*
Y219143D01*
X105963Y233036D01*
X106412Y233708D01*
X106570Y234500D01*
Y257730D01*
X108058D01*
Y224804D01*
D02*
G37*
G36*
X215922Y200000D02*
X212236D01*
X211020Y200130D01*
Y207870D01*
X209765D01*
X208942Y208750D01*
X208794Y209493D01*
X208373Y210123D01*
X187942Y230555D01*
Y321500D01*
X187794Y322243D01*
X187373Y322873D01*
X161942Y348304D01*
Y353250D01*
X161794Y353993D01*
X161373Y354623D01*
X159123Y356873D01*
X158493Y357295D01*
X158270Y357339D01*
Y365270D01*
X151899D01*
X151001Y366168D01*
X151001Y371730D01*
X153238D01*
Y376000D01*
Y380270D01*
X151899D01*
X151001Y381168D01*
X151001Y386730D01*
X153238D01*
Y391000D01*
X154000D01*
Y391762D01*
X158270D01*
Y395270D01*
X159270Y395922D01*
X215922Y395922D01*
X215922Y200000D01*
D02*
G37*
G36*
X170180Y247594D02*
Y214857D01*
X165536Y210214D01*
X165088Y209542D01*
X164930Y208750D01*
Y207870D01*
X162980D01*
Y200130D01*
X161764Y200000D01*
X143236D01*
X142020Y200130D01*
Y207870D01*
X140070D01*
Y219143D01*
X169007Y248080D01*
X170180Y247594D01*
D02*
G37*
%LPC*%
G36*
X65238Y390238D02*
X61730D01*
Y386730D01*
X65238D01*
Y390238D01*
D02*
G37*
G36*
Y380270D02*
X61730D01*
Y376762D01*
X65238D01*
Y380270D01*
D02*
G37*
G36*
Y375238D02*
X61730D01*
Y371730D01*
X65238D01*
Y375238D01*
D02*
G37*
G36*
X136270Y360238D02*
X132762D01*
Y356730D01*
X136270D01*
Y360238D01*
D02*
G37*
G36*
X131238D02*
X127730D01*
Y356730D01*
X131238D01*
Y360238D01*
D02*
G37*
G36*
X114270D02*
X110762D01*
Y356730D01*
X114270D01*
Y360238D01*
D02*
G37*
G36*
X109238D02*
X105730D01*
Y356730D01*
X109238D01*
Y360238D01*
D02*
G37*
G36*
X92270D02*
X88762D01*
Y356730D01*
X92270D01*
Y360238D01*
D02*
G37*
G36*
X87238D02*
X83730D01*
Y356730D01*
X87238D01*
Y360238D01*
D02*
G37*
G36*
X81270D02*
X77762D01*
Y356730D01*
X81270D01*
Y360238D01*
D02*
G37*
G36*
X76238D02*
X72730D01*
Y356730D01*
X76238D01*
Y360238D01*
D02*
G37*
G36*
X92270Y354270D02*
X83730D01*
Y345730D01*
X92270D01*
Y354270D01*
D02*
G37*
G36*
X119770Y354270D02*
X111230D01*
Y345730D01*
X119770D01*
Y354270D01*
D02*
G37*
G36*
X108770D02*
X100230D01*
Y345730D01*
X108770D01*
Y354270D01*
D02*
G37*
G36*
X136270Y343270D02*
X127730D01*
Y334730D01*
X136270D01*
Y343270D01*
D02*
G37*
G36*
X119770Y332270D02*
X111230D01*
Y323730D01*
X119770D01*
Y332270D01*
D02*
G37*
G36*
X108770D02*
X100230D01*
Y323730D01*
X108770D01*
Y332270D01*
D02*
G37*
G36*
X119770Y321270D02*
X116262D01*
Y317762D01*
X119770D01*
Y321270D01*
D02*
G37*
G36*
X108770D02*
X105262D01*
Y317762D01*
X108770D01*
Y321270D01*
D02*
G37*
G36*
X103738D02*
X100230D01*
Y317762D01*
X103738D01*
Y321270D01*
D02*
G37*
G36*
X114738D02*
X111230D01*
Y317762D01*
X114738D01*
Y321270D01*
D02*
G37*
G36*
X70270Y321270D02*
X61730D01*
Y312730D01*
X70270D01*
Y321270D01*
D02*
G37*
G36*
X119770Y316238D02*
X116262D01*
Y312730D01*
X119770D01*
Y316238D01*
D02*
G37*
G36*
X114738D02*
X111230D01*
Y312730D01*
X114738D01*
Y316238D01*
D02*
G37*
G36*
X108770D02*
X105262D01*
Y312730D01*
X108770D01*
Y316238D01*
D02*
G37*
G36*
X103738D02*
X100230D01*
Y312730D01*
X103738D01*
Y316238D01*
D02*
G37*
G36*
X119770Y310270D02*
X116262D01*
Y306762D01*
X119770D01*
Y310270D01*
D02*
G37*
G36*
X108770D02*
X105262D01*
Y306762D01*
X108770D01*
Y310270D01*
D02*
G37*
G36*
X103738D02*
X100230D01*
Y306762D01*
X103738D01*
Y310270D01*
D02*
G37*
G36*
X114738D02*
X111230D01*
Y306762D01*
X114738D01*
Y310270D01*
D02*
G37*
G36*
X119770Y305238D02*
X116262D01*
Y301730D01*
X119770D01*
Y305238D01*
D02*
G37*
G36*
X114738D02*
X111230D01*
Y301730D01*
X114738D01*
Y305238D01*
D02*
G37*
G36*
X108770D02*
X105262D01*
Y301730D01*
X108770D01*
Y305238D01*
D02*
G37*
G36*
X103738D02*
X100230D01*
Y301730D01*
X103738D01*
Y305238D01*
D02*
G37*
G36*
X81270Y272238D02*
X77762D01*
Y268730D01*
X81270D01*
Y272238D01*
D02*
G37*
G36*
X76238D02*
X72730D01*
Y268730D01*
X76238D01*
Y272238D01*
D02*
G37*
G36*
X70270Y266270D02*
X66762D01*
Y262762D01*
X70270D01*
Y266270D01*
D02*
G37*
G36*
X65238D02*
X61730D01*
Y262762D01*
X65238D01*
Y266270D01*
D02*
G37*
G36*
X70270Y261238D02*
X66762D01*
Y257730D01*
X70270D01*
Y261238D01*
D02*
G37*
G36*
X65238D02*
X61730D01*
Y257730D01*
X65238D01*
Y261238D01*
D02*
G37*
G36*
X147270Y272238D02*
X143762D01*
Y268730D01*
X147270D01*
Y272238D01*
D02*
G37*
G36*
X158270Y266270D02*
X154762D01*
Y262762D01*
X158270D01*
Y266270D01*
D02*
G37*
G36*
X153238D02*
X149730D01*
Y262762D01*
X153238D01*
Y266270D01*
D02*
G37*
G36*
X158270Y261238D02*
X154762D01*
Y257730D01*
X158270D01*
Y261238D01*
D02*
G37*
G36*
X153238D02*
X149730D01*
Y257730D01*
X153238D01*
Y261238D01*
D02*
G37*
G36*
X158270Y390238D02*
X154762D01*
Y386730D01*
X158270D01*
Y390238D01*
D02*
G37*
G36*
Y380270D02*
X154762D01*
Y376762D01*
X158270D01*
Y380270D01*
D02*
G37*
G36*
Y375238D02*
X154762D01*
Y371730D01*
X158270D01*
Y375238D01*
D02*
G37*
G36*
X158870Y211070D02*
X153262D01*
Y207362D01*
X158870D01*
Y211070D01*
D02*
G37*
G36*
X151738D02*
X146130D01*
Y207362D01*
X151738D01*
Y211070D01*
D02*
G37*
G36*
X158870Y205838D02*
X153262D01*
Y202130D01*
X158870D01*
Y205838D01*
D02*
G37*
G36*
X151738D02*
X146130D01*
Y202130D01*
X151738D01*
Y205838D01*
D02*
G37*
%LPD*%
D10*
X132000Y361000D02*
X143000D01*
X139750Y355500D02*
X157750D01*
X138095Y353845D02*
X139750Y355500D01*
X136500Y350000D02*
X138095Y351595D01*
X132000Y350000D02*
X136500D01*
X138095Y351595D02*
Y353845D01*
X157750Y355500D02*
X160000Y353250D01*
X148500Y322500D02*
X169000D01*
X143000Y328000D02*
X148500Y322500D01*
X169000D02*
X175000Y316500D01*
X160000Y347500D02*
Y353250D01*
X154000Y339000D02*
X154000Y339000D01*
X160500D02*
X180500Y319000D01*
X154000Y339000D02*
X160500D01*
X143000Y339000D02*
X148500Y333500D01*
X162000D02*
X177750Y317750D01*
X148500Y333500D02*
X162000D01*
X143000Y350000D02*
X148500Y344500D01*
X159000D02*
X183250Y320250D01*
X148500Y344500D02*
X159000D01*
X177750Y214000D02*
Y317750D01*
Y214000D02*
X183000Y208750D01*
X180500Y219250D02*
Y319000D01*
Y219250D02*
X191000Y208750D01*
X183000Y204000D02*
Y208750D01*
X191000Y204000D02*
Y208750D01*
X183250Y224500D02*
Y320250D01*
Y224500D02*
X199000Y208750D01*
Y204000D02*
Y208750D01*
X186000Y229750D02*
Y321500D01*
Y229750D02*
X207000Y208750D01*
Y204000D02*
Y208750D01*
Y204000D02*
X207000Y204000D01*
X160000Y347500D02*
X186000Y321500D01*
X175000Y204000D02*
Y316500D01*
X106000Y204000D02*
Y220000D01*
X110000Y224000D01*
Y263750D01*
D11*
X88000Y244750D02*
X88000D01*
X76784D02*
X88000D01*
Y263750D02*
Y273000D01*
Y262000D02*
Y263750D01*
Y244750D02*
Y262000D01*
X152500Y150000D02*
X168000D01*
X152500Y132500D02*
Y150000D01*
Y192900D01*
Y132500D02*
X185000Y100000D01*
X102500Y150000D02*
X102500Y150000D01*
X92500Y150000D02*
X102500D01*
X128950Y100000D02*
X140000D01*
X154000Y254500D02*
Y262000D01*
X66000Y391000D02*
X77000D01*
X97300Y82050D02*
Y93750D01*
X97250Y82000D02*
X97300Y82050D01*
X122700Y93750D02*
X128950Y100000D01*
X67500Y186250D02*
Y192900D01*
X168000Y150000D02*
X170730Y152730D01*
Y159930D01*
X180270Y169470D01*
Y169520D01*
X180750Y170000D01*
X180800D01*
X49270Y152730D02*
X52000Y150000D01*
X49270Y152730D02*
Y159930D01*
X39730Y169470D02*
X49270Y159930D01*
X39730Y169470D02*
Y169520D01*
X39250Y170000D02*
X39730Y169520D01*
X39200Y170000D02*
X39250D01*
X35000Y100000D02*
X52000Y117000D01*
Y150000D01*
X143000Y391000D02*
X154000D01*
Y262000D02*
X161500D01*
X77000D02*
X88000D01*
X65600Y206600D02*
X67500D01*
X63670Y208530D02*
X65600Y206600D01*
X63670Y208530D02*
Y211032D01*
X61000Y213702D02*
X63670Y211032D01*
X61000Y213702D02*
Y214250D01*
X67500Y206600D02*
X69400D01*
X71330Y208530D01*
Y210430D01*
X73338Y212438D01*
Y213588D01*
X74000Y214250D01*
X67500Y206600D02*
Y214250D01*
D15*
X211250Y68750D02*
Y191750D01*
X205000Y62500D02*
X211250Y68750D01*
X208990Y194010D02*
X211250Y191750D01*
X208990Y194010D02*
Y194160D01*
X207150Y196000D02*
X208990Y194160D01*
X207000Y196000D02*
X207150D01*
X110000Y139920D02*
X110890Y139030D01*
X117470D01*
X110000Y139920D02*
Y165250D01*
X117470Y139030D02*
X117500Y139000D01*
X90000Y185250D02*
X110000Y165250D01*
X113260Y153240D02*
Y166070D01*
X98000Y181330D02*
X113260Y166070D01*
X98000Y181330D02*
Y196000D01*
X90000Y185250D02*
Y196000D01*
X116500Y150000D02*
X117500D01*
X113260Y153240D02*
X116500Y150000D01*
X82000Y147000D02*
X90000Y139000D01*
X82000Y147000D02*
Y196000D01*
X90000Y139000D02*
X102500D01*
X116500Y171250D02*
X122000Y176750D01*
X110000Y107000D02*
X116750Y113750D01*
X114000Y179750D02*
Y196000D01*
X146297Y68797D02*
Y179203D01*
X106000Y188750D02*
Y196000D01*
X122000Y176750D02*
Y196000D01*
X126500Y232500D02*
Y311500D01*
X114000Y204000D02*
Y220000D01*
X126500Y232500D01*
X82500Y312391D02*
Y333500D01*
X88000Y339000D01*
X154000Y284000D02*
X165500D01*
X154000Y284000D02*
X154000Y284000D01*
X165500D02*
X172250Y277250D01*
X166750Y278750D02*
X169250Y276250D01*
X149390Y278750D02*
X166750D01*
X148500Y279640D02*
Y310610D01*
Y279640D02*
X149390Y278750D01*
X137500Y312390D02*
X138390Y311500D01*
X137500Y312390D02*
Y322500D01*
X138390Y311500D02*
X147610D01*
X137500Y235500D02*
Y300500D01*
X132000Y306000D02*
X137500Y300500D01*
X126500Y311500D02*
X129760Y314760D01*
Y314760D01*
X132000Y317000D01*
X147610Y311500D02*
X148500Y310610D01*
X132000Y328000D02*
X134240Y325760D01*
Y325760D02*
Y325760D01*
Y325760D02*
X137500Y322500D01*
X83391Y311500D02*
X92140D01*
X82500Y312391D02*
X83391Y311500D01*
X93030Y295970D02*
Y310610D01*
X92140Y311500D02*
X93030Y310610D01*
X55250Y296750D02*
X62500Y289500D01*
X45500Y296750D02*
X55250D01*
X93500Y289500D02*
X99000Y284000D01*
X62500Y289500D02*
X93500D01*
X77000Y284000D02*
X87470D01*
X82500Y300500D02*
X88000Y295000D01*
X61750Y300500D02*
X82500D01*
X59750Y302500D02*
Y304750D01*
Y302500D02*
X61750Y300500D01*
X57000Y307500D02*
X59750Y304750D01*
X58000Y333500D02*
X71500D01*
X98000Y204000D02*
Y211250D01*
X97300Y106450D02*
Y114800D01*
X102500Y120000D01*
X110000Y93750D02*
X141250Y62500D01*
X205000D01*
X110000Y106450D02*
Y107000D01*
X199000Y186250D02*
Y196000D01*
X183000Y186250D02*
Y196000D01*
X175000Y189250D02*
Y196000D01*
X138000Y187500D02*
Y196000D01*
Y187500D02*
X146297Y179203D01*
X53000Y184250D02*
X60000Y177250D01*
X53000Y184250D02*
Y196000D01*
X60000Y60000D02*
Y177250D01*
X30800Y170000D02*
X30850D01*
X31840Y170990D01*
Y171040D01*
X45000Y184200D01*
Y196000D01*
X18000Y150000D02*
X20690Y152690D01*
Y159890D01*
X29760Y168960D01*
Y169010D01*
X30750Y170000D01*
X30800D01*
X191000Y182500D02*
Y196000D01*
X189200Y170000D02*
Y180700D01*
X191000Y182500D01*
X199310Y152690D02*
X202000Y150000D01*
X199310Y152690D02*
Y159890D01*
X190240Y168960D02*
X199310Y159890D01*
X190240Y168960D02*
Y169010D01*
X189250Y170000D02*
X190240Y169010D01*
X189200Y170000D02*
X189250D01*
X167000Y182500D02*
Y196000D01*
X130000Y182500D02*
Y196000D01*
X90000Y204000D02*
Y220000D01*
X104500Y234500D02*
Y289250D01*
X90000Y220000D02*
X104500Y234500D01*
X82000Y204000D02*
Y211250D01*
X58000Y344500D02*
X71500D01*
X77000Y350000D01*
X71500Y333500D02*
X77000Y339000D01*
X35000Y218750D02*
Y305000D01*
X45000Y204000D02*
Y208750D01*
X35000Y218750D02*
X45000Y208750D01*
X35000Y305000D02*
X37500Y307500D01*
X53000Y204000D02*
X53000Y204000D01*
X53000Y204000D02*
Y210000D01*
X37500Y307500D02*
X57000D01*
X172250Y214000D02*
Y277250D01*
X167000Y208750D02*
X172250Y214000D01*
X167000Y204000D02*
Y208750D01*
X138000Y220000D02*
X169250Y251250D01*
Y276250D01*
X93030Y295970D02*
X97750Y291250D01*
X102500D02*
X104500Y289250D01*
X97750Y291250D02*
X102500D01*
X130000Y204000D02*
Y220000D01*
X143000Y233000D02*
Y262000D01*
X130000Y220000D02*
X143000Y233000D01*
X122000Y204000D02*
Y220000D01*
X137500Y235500D01*
X138000Y204000D02*
Y220000D01*
D16*
X189200Y170000D02*
D03*
X180800D02*
D03*
X39200Y170000D02*
D03*
X30800D02*
D03*
D17*
X98000Y204000D02*
D03*
Y196000D02*
D03*
X183000D02*
D03*
Y204000D02*
D03*
X90000Y196000D02*
D03*
Y204000D02*
D03*
X106000D02*
D03*
Y196000D02*
D03*
X175000Y204000D02*
D03*
Y196000D02*
D03*
X138000Y204000D02*
D03*
Y196000D02*
D03*
X191000Y204000D02*
D03*
Y196000D02*
D03*
X45000Y204000D02*
D03*
Y196000D02*
D03*
X53000Y204000D02*
D03*
Y196000D02*
D03*
X122000Y204000D02*
D03*
Y196000D02*
D03*
X114000Y204000D02*
D03*
Y196000D02*
D03*
X199000Y204000D02*
D03*
Y196000D02*
D03*
X207000Y204000D02*
D03*
Y196000D02*
D03*
X130000Y204000D02*
D03*
Y196000D02*
D03*
X167000Y204000D02*
D03*
Y196000D02*
D03*
X82000Y204000D02*
D03*
Y196000D02*
D03*
D18*
X168000Y150000D02*
D03*
X202000D02*
D03*
X18000D02*
D03*
X52000D02*
D03*
D19*
X45500Y270750D02*
D03*
Y296750D02*
D03*
D21*
X152500Y192900D02*
D03*
Y206600D02*
D03*
X67500D02*
D03*
Y192900D02*
D03*
D22*
X88000Y244750D02*
D03*
X97000D02*
D03*
D23*
X104500Y350000D02*
D03*
X66000Y391000D02*
D03*
Y376000D02*
D03*
X66000Y361000D02*
D03*
Y350000D02*
D03*
Y339000D02*
D03*
Y328000D02*
D03*
Y317000D02*
D03*
Y306000D02*
D03*
Y295000D02*
D03*
Y284000D02*
D03*
Y273000D02*
D03*
Y262000D02*
D03*
X77000Y391000D02*
D03*
X77000Y361000D02*
D03*
Y350000D02*
D03*
Y339000D02*
D03*
Y328000D02*
D03*
Y317000D02*
D03*
Y306000D02*
D03*
Y295000D02*
D03*
Y284000D02*
D03*
Y273000D02*
D03*
Y262000D02*
D03*
X88000Y361000D02*
D03*
Y350000D02*
D03*
Y339000D02*
D03*
Y328000D02*
D03*
Y317000D02*
D03*
Y306000D02*
D03*
Y295000D02*
D03*
Y273000D02*
D03*
Y262000D02*
D03*
X99000Y284000D02*
D03*
Y273000D02*
D03*
Y262000D02*
D03*
X110000Y361000D02*
D03*
X104500Y328000D02*
D03*
Y306000D02*
D03*
X110000Y284000D02*
D03*
Y273000D02*
D03*
Y262000D02*
D03*
X121000Y284000D02*
D03*
Y273000D02*
D03*
Y262000D02*
D03*
X132000Y361000D02*
D03*
Y350000D02*
D03*
Y339000D02*
D03*
Y328000D02*
D03*
Y317000D02*
D03*
Y306000D02*
D03*
Y295000D02*
D03*
Y273000D02*
D03*
Y262000D02*
D03*
X143000Y391000D02*
D03*
X143000Y361000D02*
D03*
Y350000D02*
D03*
Y339000D02*
D03*
Y328000D02*
D03*
Y317000D02*
D03*
Y306000D02*
D03*
Y295000D02*
D03*
Y284000D02*
D03*
Y273000D02*
D03*
Y262000D02*
D03*
X154000Y391000D02*
D03*
Y376000D02*
D03*
Y361000D02*
D03*
Y350000D02*
D03*
Y339000D02*
D03*
Y328000D02*
D03*
Y317000D02*
D03*
Y306000D02*
D03*
Y295000D02*
D03*
Y284000D02*
D03*
Y273000D02*
D03*
Y262000D02*
D03*
X104500Y317000D02*
D03*
X115500Y350000D02*
D03*
Y328000D02*
D03*
Y306000D02*
D03*
Y317000D02*
D03*
D24*
X102500Y150000D02*
D03*
X117500D02*
D03*
Y139000D02*
D03*
X102500D02*
D03*
D39*
X167000Y182500D02*
D03*
X130000D02*
D03*
D40*
X97300Y93750D02*
D03*
Y106450D02*
D03*
X110000Y93750D02*
D03*
Y106450D02*
D03*
X122700Y93750D02*
D03*
Y106450D02*
D03*
D41*
X54750Y270750D02*
X62500Y278500D01*
X45500Y270750D02*
X54750D01*
X62500Y278500D02*
X93500D01*
X99000Y273000D01*
D42*
X21100Y42200D02*
D03*
X46500D02*
D03*
X148100D02*
D03*
X173500D02*
D03*
X122700D02*
D03*
X97300D02*
D03*
X71900D02*
D03*
D43*
X198900D02*
D03*
D44*
X84600Y100100D02*
D03*
X135400Y110260D02*
D03*
Y89940D02*
D03*
D45*
X35000Y100000D02*
D03*
X185000D02*
D03*
D46*
X74750Y182250D02*
D03*
X92500Y150000D02*
D03*
X116500Y171250D02*
D03*
X114000Y179750D02*
D03*
X116750Y113750D02*
D03*
X140000Y100000D02*
D03*
X146297Y68797D02*
D03*
X106000Y188750D02*
D03*
X154000Y254500D02*
D03*
X57500Y283750D02*
D03*
X41500D02*
D03*
X123750Y317000D02*
D03*
X115500Y298250D02*
D03*
X207500Y392500D02*
D03*
Y377500D02*
D03*
Y362500D02*
D03*
Y347500D02*
D03*
Y332500D02*
D03*
Y317500D02*
D03*
Y302500D02*
D03*
Y287500D02*
D03*
Y272500D02*
D03*
Y257500D02*
D03*
Y242500D02*
D03*
Y227500D02*
D03*
X192500Y392500D02*
D03*
Y377500D02*
D03*
Y362500D02*
D03*
Y347500D02*
D03*
Y332500D02*
D03*
Y317500D02*
D03*
Y302500D02*
D03*
Y287500D02*
D03*
Y272500D02*
D03*
Y257500D02*
D03*
Y242500D02*
D03*
X177500Y392500D02*
D03*
Y377500D02*
D03*
Y362500D02*
D03*
Y347500D02*
D03*
X162500Y392500D02*
D03*
Y377500D02*
D03*
Y362500D02*
D03*
Y317500D02*
D03*
Y302500D02*
D03*
Y272500D02*
D03*
Y227500D02*
D03*
X117500Y242500D02*
D03*
X87500Y227500D02*
D03*
X72500D02*
D03*
X57500Y392500D02*
D03*
Y377500D02*
D03*
Y362500D02*
D03*
Y317500D02*
D03*
Y242500D02*
D03*
Y227500D02*
D03*
X42500Y392500D02*
D03*
Y377500D02*
D03*
Y362500D02*
D03*
Y347500D02*
D03*
Y332500D02*
D03*
Y317500D02*
D03*
Y257500D02*
D03*
Y242500D02*
D03*
Y227500D02*
D03*
X27500Y392500D02*
D03*
Y377500D02*
D03*
Y362500D02*
D03*
Y347500D02*
D03*
Y332500D02*
D03*
Y317500D02*
D03*
Y302500D02*
D03*
Y287500D02*
D03*
Y272500D02*
D03*
Y257500D02*
D03*
Y242500D02*
D03*
Y227500D02*
D03*
X12500Y392500D02*
D03*
Y377500D02*
D03*
Y362500D02*
D03*
Y347500D02*
D03*
Y332500D02*
D03*
Y317500D02*
D03*
Y302500D02*
D03*
Y287500D02*
D03*
Y272500D02*
D03*
Y257500D02*
D03*
Y242500D02*
D03*
Y227500D02*
D03*
X87470Y284000D02*
D03*
X58000Y333500D02*
D03*
X97250Y82000D02*
D03*
X211250Y212500D02*
D03*
X169500Y287750D02*
D03*
X169750Y310000D02*
D03*
X162500Y291250D02*
D03*
X166250Y238750D02*
D03*
X148750Y240000D02*
D03*
X132000Y242500D02*
D03*
Y252500D02*
D03*
X118750D02*
D03*
X116250Y231250D02*
D03*
X104500Y226250D02*
D03*
X66000Y256250D02*
D03*
X58250Y263750D02*
D03*
X76784Y244750D02*
D03*
X92970Y236500D02*
D03*
X12500Y203250D02*
D03*
X27500D02*
D03*
Y212500D02*
D03*
X12500D02*
D03*
X98000Y211250D02*
D03*
X102500Y120000D02*
D03*
X199000Y186250D02*
D03*
X183000D02*
D03*
X175000Y189250D02*
D03*
X67500Y186250D02*
D03*
X60000Y60000D02*
D03*
X104500Y298250D02*
D03*
X96250Y317000D02*
D03*
Y328000D02*
D03*
X123750D02*
D03*
Y339250D02*
D03*
X115500D02*
D03*
X104500D02*
D03*
X96250D02*
D03*
X123750Y350000D02*
D03*
X96250D02*
D03*
X117500Y360750D02*
D03*
X124500D02*
D03*
X102500D02*
D03*
X95500D02*
D03*
X82000Y211250D02*
D03*
X58000Y344500D02*
D03*
X53000Y210000D02*
D03*
X161500Y262000D02*
D03*
X146250Y214250D02*
D03*
X158750D02*
D03*
X152500D02*
D03*
X61000D02*
D03*
X74000D02*
D03*
X67500D02*
D03*
M02*
