G04*
G04 #@! TF.GenerationSoftware,Altium Limited,Altium Designer,21.6.4 (81)*
G04*
G04 Layer_Physical_Order=2*
G04 Layer_Color=36540*
%FSLAX44Y44*%
%MOMM*%
G71*
G04*
G04 #@! TF.SameCoordinates,6D38FECB-4D46-452B-8F31-296BD34E144B*
G04*
G04*
G04 #@! TF.FilePolarity,Positive*
G04*
G01*
G75*
%ADD11C,0.2540*%
%ADD42C,1.6500*%
%ADD43R,1.6500X1.6500*%
%ADD44C,0.9000*%
%ADD46C,0.6000*%
%ADD47C,2.6670*%
G36*
X215922Y200000D02*
X4078D01*
X4078Y395922D01*
X80000Y395922D01*
X80000Y395644D01*
X80000Y388000D01*
X72667Y388000D01*
X69001D01*
Y388000D01*
X69000D01*
X69000Y365270D01*
X69000Y364000D01*
X69001Y364000D01*
X70270Y364000D01*
X101800D01*
X151000Y364000D01*
Y364000D01*
X151001D01*
X151001Y386730D01*
X151001Y388000D01*
X151000Y388000D01*
X149731Y388000D01*
X140015D01*
X139989Y395022D01*
X140885Y395922D01*
X215922Y395922D01*
X215922Y200000D01*
D02*
G37*
%LPC*%
G36*
X58000Y348854D02*
X56334Y348522D01*
X54921Y347579D01*
X53978Y346166D01*
X53646Y344500D01*
X53978Y342834D01*
X54921Y341422D01*
X56334Y340478D01*
X58000Y340146D01*
X59666Y340478D01*
X61079Y341422D01*
X62022Y342834D01*
X62354Y344500D01*
X62022Y346166D01*
X61079Y347579D01*
X59666Y348522D01*
X58000Y348854D01*
D02*
G37*
G36*
Y337854D02*
X56334Y337522D01*
X54921Y336578D01*
X53978Y335166D01*
X53646Y333500D01*
X53978Y331834D01*
X54921Y330421D01*
X56334Y329478D01*
X58000Y329146D01*
X59666Y329478D01*
X61079Y330421D01*
X62022Y331834D01*
X62354Y333500D01*
X62022Y335166D01*
X61079Y336578D01*
X59666Y337522D01*
X58000Y337854D01*
D02*
G37*
G36*
X87470Y288354D02*
X85804Y288022D01*
X84391Y287078D01*
X83448Y285666D01*
X83116Y284000D01*
X83448Y282334D01*
X84391Y280921D01*
X85804Y279978D01*
X87470Y279646D01*
X89136Y279978D01*
X90548Y280921D01*
X91492Y282334D01*
X91824Y284000D01*
X91492Y285666D01*
X90548Y287078D01*
X89136Y288022D01*
X87470Y288354D01*
D02*
G37*
G36*
X76784Y249104D02*
X75118Y248772D01*
X73705Y247829D01*
X72761Y246416D01*
X72430Y244750D01*
X72761Y243084D01*
X73705Y241672D01*
X75118Y240728D01*
X76784Y240396D01*
X78450Y240728D01*
X79862Y241672D01*
X80806Y243084D01*
X81137Y244750D01*
X80806Y246416D01*
X79862Y247829D01*
X78450Y248772D01*
X76784Y249104D01*
D02*
G37*
G36*
X74000Y218604D02*
X72334Y218272D01*
X70922Y217328D01*
X70578D01*
X69166Y218272D01*
X67500Y218604D01*
X65834Y218272D01*
X65240Y217876D01*
X64250Y217409D01*
X63260Y217876D01*
X62666Y218272D01*
X61000Y218604D01*
X59334Y218272D01*
X57922Y217328D01*
X56978Y215916D01*
X56646Y214250D01*
X56652Y214223D01*
X55509Y213459D01*
X54666Y214022D01*
X53000Y214354D01*
X51334Y214022D01*
X49921Y213078D01*
X48978Y211666D01*
X48646Y210000D01*
X48978Y208334D01*
X49921Y206922D01*
X51334Y205978D01*
X53000Y205646D01*
X54666Y205978D01*
X56079Y206922D01*
X57022Y208334D01*
X57354Y210000D01*
X57348Y210027D01*
X58491Y210791D01*
X59334Y210228D01*
X61000Y209896D01*
X62666Y210228D01*
X63260Y210624D01*
X64250Y211091D01*
X65240Y210624D01*
X65834Y210228D01*
X67500Y209896D01*
X69166Y210228D01*
X70578Y211171D01*
X70922D01*
X72334Y210228D01*
X74000Y209896D01*
X75666Y210228D01*
X76451Y210752D01*
X77852Y210217D01*
X77978Y209584D01*
X78921Y208172D01*
X80334Y207228D01*
X82000Y206896D01*
X83666Y207228D01*
X85078Y208172D01*
X86022Y209584D01*
X86354Y211250D01*
X86022Y212916D01*
X85078Y214328D01*
X83666Y215272D01*
X82000Y215604D01*
X80334Y215272D01*
X79549Y214748D01*
X78148Y215283D01*
X78022Y215916D01*
X77078Y217328D01*
X75666Y218272D01*
X74000Y218604D01*
D02*
G37*
G36*
X98000Y215604D02*
X96334Y215272D01*
X94922Y214328D01*
X93978Y212916D01*
X93646Y211250D01*
X93978Y209584D01*
X94922Y208172D01*
X96334Y207228D01*
X98000Y206896D01*
X99666Y207228D01*
X101079Y208172D01*
X102022Y209584D01*
X102354Y211250D01*
X102022Y212916D01*
X101079Y214328D01*
X99666Y215272D01*
X98000Y215604D01*
D02*
G37*
%LPD*%
D11*
X67500Y150000D02*
X92500D01*
X67500D02*
Y186250D01*
Y95250D02*
Y150000D01*
X80750Y82000D02*
X97250D01*
X159100D01*
X67500Y95250D02*
X80750Y82000D01*
X159100D02*
X198900Y42200D01*
D42*
X21100D02*
D03*
X46500D02*
D03*
X148100D02*
D03*
X173500D02*
D03*
X122700D02*
D03*
X97300D02*
D03*
X71900D02*
D03*
D43*
X198900D02*
D03*
D44*
X84600Y100100D02*
D03*
X135400Y110260D02*
D03*
Y89940D02*
D03*
D46*
X74750Y182250D02*
D03*
X92500Y150000D02*
D03*
X116500Y171250D02*
D03*
X114000Y179750D02*
D03*
X116750Y113750D02*
D03*
X140000Y100000D02*
D03*
X146297Y68797D02*
D03*
X106000Y188750D02*
D03*
X154000Y254500D02*
D03*
X57500Y283750D02*
D03*
X41500D02*
D03*
X123750Y317000D02*
D03*
X115500Y298250D02*
D03*
X207500Y392500D02*
D03*
Y377500D02*
D03*
Y362500D02*
D03*
Y347500D02*
D03*
Y332500D02*
D03*
Y317500D02*
D03*
Y302500D02*
D03*
Y287500D02*
D03*
Y272500D02*
D03*
Y257500D02*
D03*
Y242500D02*
D03*
Y227500D02*
D03*
X192500Y392500D02*
D03*
Y377500D02*
D03*
Y362500D02*
D03*
Y347500D02*
D03*
Y332500D02*
D03*
Y317500D02*
D03*
Y302500D02*
D03*
Y287500D02*
D03*
Y272500D02*
D03*
Y257500D02*
D03*
Y242500D02*
D03*
X177500Y392500D02*
D03*
Y377500D02*
D03*
Y362500D02*
D03*
Y347500D02*
D03*
X162500Y392500D02*
D03*
Y377500D02*
D03*
Y362500D02*
D03*
Y317500D02*
D03*
Y302500D02*
D03*
Y272500D02*
D03*
Y227500D02*
D03*
X117500Y242500D02*
D03*
X87500Y227500D02*
D03*
X72500D02*
D03*
X57500Y392500D02*
D03*
Y377500D02*
D03*
Y362500D02*
D03*
Y317500D02*
D03*
Y242500D02*
D03*
Y227500D02*
D03*
X42500Y392500D02*
D03*
Y377500D02*
D03*
Y362500D02*
D03*
Y347500D02*
D03*
Y332500D02*
D03*
Y317500D02*
D03*
Y257500D02*
D03*
Y242500D02*
D03*
Y227500D02*
D03*
X27500Y392500D02*
D03*
Y377500D02*
D03*
Y362500D02*
D03*
Y347500D02*
D03*
Y332500D02*
D03*
Y317500D02*
D03*
Y302500D02*
D03*
Y287500D02*
D03*
Y272500D02*
D03*
Y257500D02*
D03*
Y242500D02*
D03*
Y227500D02*
D03*
X12500Y392500D02*
D03*
Y377500D02*
D03*
Y362500D02*
D03*
Y347500D02*
D03*
Y332500D02*
D03*
Y317500D02*
D03*
Y302500D02*
D03*
Y287500D02*
D03*
Y272500D02*
D03*
Y257500D02*
D03*
Y242500D02*
D03*
Y227500D02*
D03*
X87470Y284000D02*
D03*
X58000Y333500D02*
D03*
X97250Y82000D02*
D03*
X211250Y212500D02*
D03*
X169500Y287750D02*
D03*
X169750Y310000D02*
D03*
X162500Y291250D02*
D03*
X166250Y238750D02*
D03*
X148750Y240000D02*
D03*
X132000Y242500D02*
D03*
Y252500D02*
D03*
X118750D02*
D03*
X116250Y231250D02*
D03*
X104500Y226250D02*
D03*
X66000Y256250D02*
D03*
X58250Y263750D02*
D03*
X76784Y244750D02*
D03*
X92970Y236500D02*
D03*
X12500Y203250D02*
D03*
X27500D02*
D03*
Y212500D02*
D03*
X12500D02*
D03*
X98000Y211250D02*
D03*
X102500Y120000D02*
D03*
X199000Y186250D02*
D03*
X183000D02*
D03*
X175000Y189250D02*
D03*
X67500Y186250D02*
D03*
X60000Y60000D02*
D03*
X104500Y298250D02*
D03*
X96250Y317000D02*
D03*
Y328000D02*
D03*
X123750D02*
D03*
Y339250D02*
D03*
X115500D02*
D03*
X104500D02*
D03*
X96250D02*
D03*
X123750Y350000D02*
D03*
X96250D02*
D03*
X117500Y360750D02*
D03*
X124500D02*
D03*
X102500D02*
D03*
X95500D02*
D03*
X82000Y211250D02*
D03*
X58000Y344500D02*
D03*
X53000Y210000D02*
D03*
X161500Y262000D02*
D03*
X146250Y214250D02*
D03*
X158750D02*
D03*
X152500D02*
D03*
X61000D02*
D03*
X74000D02*
D03*
X67500D02*
D03*
D47*
X35000Y100000D02*
D03*
X185000D02*
D03*
M02*
