G04*
G04 #@! TF.GenerationSoftware,Altium Limited,Altium Designer,21.6.4 (81)*
G04*
G04 Layer_Color=8388736*
%FSLAX44Y44*%
%MOMM*%
G71*
G04*
G04 #@! TF.SameCoordinates,6D38FECB-4D46-452B-8F31-296BD34E144B*
G04*
G04*
G04 #@! TF.FilePolarity,Positive*
G04*
G01*
G75*
%ADD49C,0.0500*%
D49*
X113250Y347750D02*
Y352250D01*
X117750Y347750D02*
Y352250D01*
X113250D02*
X117750D01*
X113250Y347750D02*
X117750D01*
X102250D02*
Y352250D01*
X106750Y347750D02*
Y352250D01*
X102250D02*
X106750D01*
X102250Y347750D02*
X106750D01*
X102250Y325750D02*
Y330250D01*
X106750Y325750D02*
Y330250D01*
X102250D02*
X106750D01*
X102250Y325750D02*
X106750D01*
X102250Y314750D02*
Y319250D01*
X106750Y314750D02*
Y319250D01*
X102250D02*
X106750D01*
X102250Y314750D02*
X106750D01*
X113250D02*
Y319250D01*
X117750Y314750D02*
Y319250D01*
X113250D02*
X117750D01*
X113250Y314750D02*
X117750D01*
X113250Y303750D02*
Y308250D01*
X117750Y303750D02*
Y308250D01*
X113250D02*
X117750D01*
X113250Y303750D02*
X117750D01*
X129750Y270750D02*
Y275250D01*
X134250Y270750D02*
Y275250D01*
X129750Y270750D02*
X134250D01*
X129750Y275250D02*
X134250D01*
X140750Y286250D02*
X145250D01*
X140750Y281750D02*
X145250D01*
X140750D02*
Y286250D01*
X145250Y281750D02*
Y286250D01*
X74750Y281750D02*
Y286250D01*
X79250Y281750D02*
Y286250D01*
X74750Y281750D02*
X79250D01*
X74750Y286250D02*
X79250D01*
X85750Y292750D02*
Y297250D01*
X90250Y292750D02*
Y297250D01*
X85750Y292750D02*
X90250D01*
X85750Y297250D02*
X90250D01*
X96750Y281750D02*
Y286250D01*
X101250Y281750D02*
Y286250D01*
X96750Y281750D02*
X101250D01*
X96750Y286250D02*
X101250D01*
X96750Y270750D02*
Y275250D01*
X101250Y270750D02*
Y275250D01*
X96750Y270750D02*
X101250D01*
X96750Y275250D02*
X101250D01*
X118750Y270750D02*
Y275250D01*
X123250Y270750D02*
Y275250D01*
X118750Y270750D02*
X123250D01*
X118750Y275250D02*
X123250D01*
X118750Y259750D02*
Y264250D01*
X123250Y259750D02*
Y264250D01*
X118750Y259750D02*
X123250D01*
X118750Y264250D02*
X123250D01*
X74750Y303750D02*
Y308250D01*
X79250Y303750D02*
Y308250D01*
X74750Y303750D02*
X79250D01*
X74750Y308250D02*
X79250D01*
X151750Y347750D02*
Y352250D01*
X156250Y347750D02*
Y352250D01*
X151750Y347750D02*
X156250D01*
X151750Y352250D02*
X156250D01*
X151750Y292750D02*
Y297250D01*
X156250Y292750D02*
Y297250D01*
X151750Y292750D02*
X156250D01*
X151750Y297250D02*
X156250D01*
X140750Y292750D02*
Y297250D01*
X145250Y292750D02*
Y297250D01*
X140750Y292750D02*
X145250D01*
X140750Y297250D02*
X145250D01*
X140750Y303750D02*
Y308250D01*
X145250Y303750D02*
Y308250D01*
X140750Y303750D02*
X145250D01*
X140750Y308250D02*
X145250D01*
X151750Y303750D02*
Y308250D01*
X156250Y303750D02*
Y308250D01*
X151750Y303750D02*
X156250D01*
X151750Y308250D02*
X156250D01*
X151750Y314750D02*
Y319250D01*
X156250Y314750D02*
Y319250D01*
X151750Y314750D02*
X156250D01*
X151750Y319250D02*
X156250D01*
X140750Y314750D02*
Y319250D01*
X145250Y314750D02*
Y319250D01*
X140750Y314750D02*
X145250D01*
X140750Y319250D02*
X145250D01*
X129750Y314750D02*
Y319250D01*
X134250Y314750D02*
Y319250D01*
X129750Y314750D02*
X134250D01*
X129750Y319250D02*
X134250D01*
X107750Y281750D02*
Y286250D01*
X112250Y281750D02*
Y286250D01*
X107750Y281750D02*
X112250D01*
X107750Y286250D02*
X112250D01*
X113250Y325750D02*
Y330250D01*
X117750Y325750D02*
Y330250D01*
X113250Y325750D02*
X117750D01*
X113250Y330250D02*
X117750D01*
X151750Y336750D02*
Y341250D01*
X156250Y336750D02*
Y341250D01*
X151750Y336750D02*
X156250D01*
X151750Y341250D02*
X156250D01*
X85750Y347750D02*
Y352250D01*
X90250Y347750D02*
Y352250D01*
X85750Y347750D02*
X90250D01*
X85750Y352250D02*
X90250D01*
X63750Y292750D02*
Y297250D01*
X68250Y292750D02*
Y297250D01*
X63750Y292750D02*
X68250D01*
X63750Y297250D02*
X68250D01*
X63750Y281750D02*
Y286250D01*
X68250Y281750D02*
Y286250D01*
X63750Y281750D02*
X68250D01*
X63750Y286250D02*
X68250D01*
X85750Y270750D02*
Y275250D01*
X90250Y270750D02*
Y275250D01*
X85750Y270750D02*
X90250D01*
X85750Y275250D02*
X90250D01*
X74750Y259750D02*
Y264250D01*
X79250Y259750D02*
Y264250D01*
X74750Y259750D02*
X79250D01*
X74750Y264250D02*
X79250D01*
X63750Y270750D02*
Y275250D01*
X68250Y270750D02*
Y275250D01*
X63750Y270750D02*
X68250D01*
X63750Y275250D02*
X68250D01*
X85750Y259750D02*
Y264250D01*
X90250Y259750D02*
Y264250D01*
X85750Y259750D02*
X90250D01*
X85750Y264250D02*
X90250D01*
X63750Y314750D02*
Y319250D01*
X68250Y314750D02*
Y319250D01*
X63750Y314750D02*
X68250D01*
X63750Y319250D02*
X68250D01*
X129750Y358750D02*
Y363250D01*
X134250Y358750D02*
Y363250D01*
X129750Y358750D02*
X134250D01*
X129750Y363250D02*
X134250D01*
X140750Y336750D02*
Y341250D01*
X145250Y336750D02*
Y341250D01*
X140750Y336750D02*
X145250D01*
X140750Y341250D02*
X145250D01*
X140750Y347750D02*
Y352250D01*
X145250Y347750D02*
Y352250D01*
X140750Y347750D02*
X145250D01*
X140750Y352250D02*
X145250D01*
X85750Y325750D02*
Y330250D01*
X90250Y325750D02*
Y330250D01*
X85750Y325750D02*
X90250D01*
X85750Y330250D02*
X90250D01*
X140750Y325750D02*
Y330250D01*
X145250Y325750D02*
Y330250D01*
X140750Y325750D02*
X145250D01*
X140750Y330250D02*
X145250D01*
X85750Y314750D02*
Y319250D01*
X90250Y314750D02*
Y319250D01*
X85750Y314750D02*
X90250D01*
X85750Y319250D02*
X90250D01*
X129750Y325750D02*
Y330250D01*
X134250Y325750D02*
Y330250D01*
X129750Y325750D02*
X134250D01*
X129750Y330250D02*
X134250D01*
X107750Y259750D02*
Y264250D01*
X112250Y259750D02*
Y264250D01*
X107750Y259750D02*
X112250D01*
X107750Y264250D02*
X112250D01*
X74750Y347750D02*
Y352250D01*
X79250Y347750D02*
Y352250D01*
X74750Y347750D02*
X79250D01*
X74750Y352250D02*
X79250D01*
X85750Y303750D02*
Y308250D01*
X90250Y303750D02*
Y308250D01*
X85750Y303750D02*
X90250D01*
X85750Y308250D02*
X90250D01*
X107750Y270750D02*
X112250D01*
X107750Y275250D02*
X112250D01*
Y270750D02*
Y275250D01*
X107750Y270750D02*
Y275250D01*
X118750Y281750D02*
Y286250D01*
X123250Y281750D02*
Y286250D01*
X118750Y281750D02*
X123250D01*
X118750Y286250D02*
X123250D01*
X74750Y292750D02*
X79250D01*
X74750Y297250D02*
X79250D01*
Y292750D02*
Y297250D01*
X74750Y292750D02*
Y297250D01*
X63750Y303750D02*
X68250D01*
X63750Y308250D02*
X68250D01*
Y303750D02*
Y308250D01*
X63750Y303750D02*
Y308250D01*
X151750Y270750D02*
X156250D01*
X151750Y275250D02*
X156250D01*
Y270750D02*
Y275250D01*
X151750Y270750D02*
Y275250D01*
Y281750D02*
X156250D01*
X151750Y286250D02*
X156250D01*
Y281750D02*
Y286250D01*
X151750Y281750D02*
Y286250D01*
X129750Y292750D02*
X134250D01*
X129750Y297250D02*
X134250D01*
Y292750D02*
Y297250D01*
X129750Y292750D02*
Y297250D01*
Y303750D02*
X134250D01*
X129750Y308250D02*
X134250D01*
Y303750D02*
Y308250D01*
X129750Y303750D02*
Y308250D01*
X85750Y336750D02*
X90250D01*
X85750Y341250D02*
X90250D01*
Y336750D02*
Y341250D01*
X85750Y336750D02*
Y341250D01*
X129750Y336750D02*
X134250D01*
X129750Y341250D02*
X134250D01*
Y336750D02*
Y341250D01*
X129750Y336750D02*
Y341250D01*
X74750Y336750D02*
X79250D01*
X74750Y341250D02*
X79250D01*
Y336750D02*
Y341250D01*
X74750Y336750D02*
Y341250D01*
X74750Y314750D02*
X79250D01*
X74750Y319250D02*
X79250D01*
Y314750D02*
Y319250D01*
X74750Y314750D02*
Y319250D01*
X63750Y325750D02*
X68250D01*
X63750Y330250D02*
X68250D01*
Y325750D02*
Y330250D01*
X63750Y325750D02*
Y330250D01*
X74750Y325750D02*
X79250D01*
X74750Y330250D02*
X79250D01*
Y325750D02*
Y330250D01*
X74750Y325750D02*
Y330250D01*
X63750Y358750D02*
X68250D01*
X63750Y363250D02*
X68250D01*
Y358750D02*
Y363250D01*
X63750Y358750D02*
Y363250D01*
Y388750D02*
X68250D01*
X63750Y393250D02*
X68250D01*
Y388750D02*
Y393250D01*
X63750Y388750D02*
Y393250D01*
X85750Y358750D02*
X90250D01*
X85750Y363250D02*
X90250D01*
Y358750D02*
Y363250D01*
X85750Y358750D02*
Y363250D01*
X74750Y270750D02*
X79250D01*
X74750Y275250D02*
X79250D01*
Y270750D02*
Y275250D01*
X74750Y270750D02*
Y275250D01*
X63750Y259750D02*
X68250D01*
X63750Y264250D02*
X68250D01*
Y259750D02*
Y264250D01*
X63750Y259750D02*
Y264250D01*
X151750Y259750D02*
X156250D01*
X151750Y264250D02*
X156250D01*
Y259750D02*
Y264250D01*
X151750Y259750D02*
Y264250D01*
Y325750D02*
Y330250D01*
X156250Y325750D02*
Y330250D01*
X151750D02*
X156250D01*
X151750Y325750D02*
X156250D01*
X140750Y259750D02*
Y264250D01*
X145250Y259750D02*
Y264250D01*
X140750D02*
X145250D01*
X140750Y259750D02*
X145250D01*
X129750D02*
Y264250D01*
X134250Y259750D02*
Y264250D01*
X129750D02*
X134250D01*
X129750Y259750D02*
X134250D01*
X129750Y347750D02*
Y352250D01*
X134250Y347750D02*
Y352250D01*
X129750D02*
X134250D01*
X129750Y347750D02*
X134250D01*
X107750Y358750D02*
Y363250D01*
X112250Y358750D02*
Y363250D01*
X107750D02*
X112250D01*
X107750Y358750D02*
X112250D01*
X63740Y347750D02*
Y352250D01*
X68240Y347750D02*
Y352250D01*
X63740D02*
X68240D01*
X63740Y347750D02*
X68240D01*
X63750Y336750D02*
Y341250D01*
X68250Y336750D02*
Y341250D01*
X63750D02*
X68250D01*
X63750Y336750D02*
X68250D01*
X151750Y388750D02*
Y393250D01*
X156250Y388750D02*
Y393250D01*
X151750D02*
X156250D01*
X151750Y388750D02*
X156250D01*
X102250Y303750D02*
Y308250D01*
X106750Y303750D02*
Y308250D01*
X102250D02*
X106750D01*
X102250Y303750D02*
X106750D01*
X96750Y259750D02*
Y264250D01*
X101250Y259750D02*
Y264250D01*
X96750D02*
X101250D01*
X96750Y259750D02*
X101250D01*
X151750Y358750D02*
Y363250D01*
X156250Y358750D02*
Y363250D01*
X151750D02*
X156250D01*
X151750Y358750D02*
X156250D01*
X140750Y270750D02*
Y275250D01*
X145250Y270750D02*
Y275250D01*
X140750D02*
X145250D01*
X140750Y270750D02*
X145250D01*
X151750Y373750D02*
Y378250D01*
X156250Y373750D02*
Y378250D01*
X151750D02*
X156250D01*
X151750Y373750D02*
X156250D01*
X63750D02*
Y378250D01*
X68250Y373750D02*
Y378250D01*
X63750D02*
X68250D01*
X63750Y373750D02*
X68250D01*
X140750Y358750D02*
Y363250D01*
X145250Y358750D02*
Y363250D01*
X140750D02*
X145250D01*
X140750Y358750D02*
X145250D01*
X74750D02*
Y363250D01*
X79250Y358750D02*
Y363250D01*
X74750D02*
X79250D01*
X74750Y358750D02*
X79250D01*
X140750Y388750D02*
Y393250D01*
X145250Y388750D02*
Y393250D01*
X140750D02*
X145250D01*
X140750Y388750D02*
X145250D01*
X74750D02*
Y393250D01*
X79250Y388750D02*
Y393250D01*
X74750D02*
X79250D01*
X74750Y388750D02*
X79250D01*
M02*
