G04*
G04 #@! TF.GenerationSoftware,Altium Limited,Altium Designer,21.6.4 (81)*
G04*
G04 Layer_Color=32768*
%FSLAX44Y44*%
%MOMM*%
G71*
G04*
G04 #@! TF.SameCoordinates,6D38FECB-4D46-452B-8F31-296BD34E144B*
G04*
G04*
G04 #@! TF.FilePolarity,Positive*
G04*
G01*
G75*
%ADD48C,0.0508*%
%ADD49C,0.0500*%
D48*
X192000Y167501D02*
Y172000D01*
X189751D01*
X189001Y171250D01*
Y168251D01*
X189751Y167501D01*
X192000D01*
X184503Y172000D02*
X187502D01*
X184503Y169001D01*
Y168251D01*
X185252Y167501D01*
X186752D01*
X187502Y168251D01*
X28000Y172498D02*
Y168000D01*
X30249D01*
X30999Y168750D01*
Y171749D01*
X30249Y172498D01*
X28000D01*
X32499Y168000D02*
X33998D01*
X33248D01*
Y172498D01*
X32499Y171749D01*
D49*
X100250Y194500D02*
X95252D01*
Y196999D01*
X96085Y197832D01*
X97751D01*
X98584Y196999D01*
Y194500D01*
Y196166D02*
X100250Y197832D01*
Y199498D02*
Y201164D01*
Y200331D01*
X95252D01*
X96085Y199498D01*
X95252Y206996D02*
X96085Y205330D01*
X97751Y203664D01*
X99417D01*
X100250Y204497D01*
Y206163D01*
X99417Y206996D01*
X98584D01*
X97751Y206163D01*
Y203664D01*
X198003Y144504D02*
X200502Y142005D01*
X205501D01*
X208000Y144504D01*
Y147003D01*
X205501Y149502D01*
X200502D01*
X198003Y152002D01*
Y154501D01*
X200502Y157000D01*
X205501D01*
X208000Y154501D01*
X193005Y142005D02*
Y157000D01*
X188006Y152002D01*
X183008Y157000D01*
Y142005D01*
X168013Y157000D02*
X178010D01*
X168013Y147003D01*
Y144504D01*
X170512Y142005D01*
X175511D01*
X178010Y144504D01*
X169540Y176150D02*
X164542D01*
Y178649D01*
X165375Y179482D01*
X167041D01*
X167874Y178649D01*
Y176150D01*
Y177816D02*
X169540Y179482D01*
X164542Y181148D02*
Y184481D01*
Y182815D01*
X169540D01*
X165375Y189479D02*
X164542Y188646D01*
Y186980D01*
X165375Y186147D01*
X166208D01*
X167041Y186980D01*
Y188646D01*
X167874Y189479D01*
X168707D01*
X169540Y188646D01*
Y186980D01*
X168707Y186147D01*
X170373Y191145D02*
Y194477D01*
X169540Y196143D02*
X164542D01*
X169540Y199476D01*
X164542D01*
Y204474D02*
Y201142D01*
X169540D01*
Y204474D01*
X167041Y201142D02*
Y202808D01*
X164542Y206140D02*
Y209472D01*
Y207806D01*
X169540D01*
Y211138D02*
Y212805D01*
Y211972D01*
X164542D01*
X165375Y211138D01*
X49997Y297000D02*
X42000Y291668D01*
X49997D02*
X42000Y297000D01*
Y289003D02*
Y286337D01*
Y287670D01*
X49997D01*
X48664Y289003D01*
X185250Y194500D02*
X180252D01*
Y196999D01*
X181085Y197832D01*
X182751D01*
X183584Y196999D01*
Y194500D01*
Y196166D02*
X185250Y197832D01*
X180252Y202831D02*
Y199498D01*
X182751D01*
X181918Y201164D01*
Y201998D01*
X182751Y202831D01*
X184417D01*
X185250Y201998D01*
Y200331D01*
X184417Y199498D01*
X90082Y246415D02*
X89249Y247248D01*
X87583D01*
X86750Y246415D01*
Y243083D01*
X87583Y242250D01*
X89249D01*
X90082Y243083D01*
X91748Y242250D02*
X93414D01*
X92581D01*
Y247248D01*
X91748Y246415D01*
X102755Y306250D02*
X115251D01*
X117750Y308749D01*
Y313748D01*
X115251Y316247D01*
X102755D01*
X117750Y321245D02*
Y326244D01*
Y323744D01*
X102755D01*
X105254Y321245D01*
X120000Y140503D02*
Y148500D01*
X116001D01*
X114668Y147167D01*
Y141835D01*
X116001Y140503D01*
X120000D01*
X112003Y141835D02*
X110670Y140503D01*
X108004D01*
X106671Y141835D01*
Y143168D01*
X108004Y144501D01*
X109337D01*
X108004D01*
X106671Y145834D01*
Y147167D01*
X108004Y148500D01*
X110670D01*
X112003Y147167D01*
X92250Y194500D02*
X87252D01*
Y196999D01*
X88085Y197832D01*
X89751D01*
X90584Y196999D01*
Y194500D01*
Y196166D02*
X92250Y197832D01*
Y199498D02*
Y201164D01*
Y200331D01*
X87252D01*
X88085Y199498D01*
X87252Y206996D02*
Y203664D01*
X89751D01*
X88918Y205330D01*
Y206163D01*
X89751Y206996D01*
X91417D01*
X92250Y206163D01*
Y204497D01*
X91417Y203664D01*
X108250Y194500D02*
X103252D01*
Y196999D01*
X104085Y197832D01*
X105751D01*
X106584Y196999D01*
Y194500D01*
Y196166D02*
X108250Y197832D01*
X103252Y199498D02*
Y202831D01*
X104085D01*
X107417Y199498D01*
X108250D01*
X177250Y194500D02*
X172252D01*
Y196999D01*
X173085Y197832D01*
X174751D01*
X175584Y196999D01*
Y194500D01*
Y196166D02*
X177250Y197832D01*
Y199498D02*
Y201164D01*
Y200331D01*
X172252D01*
X173085Y199498D01*
Y203664D02*
X172252Y204497D01*
Y206163D01*
X173085Y206996D01*
X173918D01*
X174751Y206163D01*
Y205330D01*
Y206163D01*
X175584Y206996D01*
X176417D01*
X177250Y206163D01*
Y204497D01*
X176417Y203664D01*
X140250Y194500D02*
X135252D01*
Y196999D01*
X136085Y197832D01*
X137751D01*
X138584Y196999D01*
Y194500D01*
Y196166D02*
X140250Y197832D01*
Y199498D02*
Y201164D01*
Y200331D01*
X135252D01*
X136085Y199498D01*
X140250Y206996D02*
Y203664D01*
X136918Y206996D01*
X136085D01*
X135252Y206163D01*
Y204497D01*
X136085Y203664D01*
X193250Y194500D02*
X188252D01*
Y196999D01*
X189085Y197832D01*
X190751D01*
X191584Y196999D01*
Y194500D01*
Y196166D02*
X193250Y197832D01*
Y199498D02*
Y201164D01*
Y200331D01*
X188252D01*
X189085Y199498D01*
X193250Y203664D02*
Y205330D01*
Y204497D01*
X188252D01*
X189085Y203664D01*
X47250Y194500D02*
X42252D01*
Y196999D01*
X43085Y197832D01*
X44751D01*
X45584Y196999D01*
Y194500D01*
Y196166D02*
X47250Y197832D01*
Y199498D02*
Y201164D01*
Y200331D01*
X42252D01*
X43085Y199498D01*
Y203664D02*
X42252Y204497D01*
Y206163D01*
X43085Y206996D01*
X46417D01*
X47250Y206163D01*
Y204497D01*
X46417Y203664D01*
X43085D01*
X55250Y194500D02*
X50252D01*
Y196999D01*
X51085Y197832D01*
X52751D01*
X53584Y196999D01*
Y194500D01*
Y196166D02*
X55250Y197832D01*
X54417Y199498D02*
X55250Y200331D01*
Y201998D01*
X54417Y202831D01*
X51085D01*
X50252Y201998D01*
Y200331D01*
X51085Y199498D01*
X51918D01*
X52751Y200331D01*
Y202831D01*
X124250Y194500D02*
X119252D01*
Y196999D01*
X120085Y197832D01*
X121751D01*
X122584Y196999D01*
Y194500D01*
Y196166D02*
X124250Y197832D01*
X120085Y199498D02*
X119252Y200331D01*
Y201998D01*
X120085Y202831D01*
X120918D01*
X121751Y201998D01*
X122584Y202831D01*
X123417D01*
X124250Y201998D01*
Y200331D01*
X123417Y199498D01*
X122584D01*
X121751Y200331D01*
X120918Y199498D01*
X120085D01*
X121751Y200331D02*
Y201998D01*
X116250Y194500D02*
X111252D01*
Y196999D01*
X112085Y197832D01*
X113751D01*
X114584Y196999D01*
Y194500D01*
Y196166D02*
X116250Y197832D01*
X111252Y202831D02*
X112085Y201164D01*
X113751Y199498D01*
X115417D01*
X116250Y200331D01*
Y201998D01*
X115417Y202831D01*
X114584D01*
X113751Y201998D01*
Y199498D01*
X201250Y194500D02*
X196252D01*
Y196999D01*
X197085Y197832D01*
X198751D01*
X199584Y196999D01*
Y194500D01*
Y196166D02*
X201250Y197832D01*
Y201998D02*
X196252D01*
X198751Y199498D01*
Y202831D01*
X209250Y194500D02*
X204252D01*
Y196999D01*
X205085Y197832D01*
X206751D01*
X207584Y196999D01*
Y194500D01*
Y196166D02*
X209250Y197832D01*
X205085Y199498D02*
X204252Y200331D01*
Y201998D01*
X205085Y202831D01*
X205918D01*
X206751Y201998D01*
Y201164D01*
Y201998D01*
X207584Y202831D01*
X208417D01*
X209250Y201998D01*
Y200331D01*
X208417Y199498D01*
X132250Y194500D02*
X127252D01*
Y196999D01*
X128085Y197832D01*
X129751D01*
X130584Y196999D01*
Y194500D01*
Y196166D02*
X132250Y197832D01*
Y202831D02*
Y199498D01*
X128918Y202831D01*
X128085D01*
X127252Y201998D01*
Y200331D01*
X128085Y199498D01*
X169250Y194500D02*
X164252D01*
Y196999D01*
X165085Y197832D01*
X166751D01*
X167584Y196999D01*
Y194500D01*
Y196166D02*
X169250Y197832D01*
Y199498D02*
Y201164D01*
Y200331D01*
X164252D01*
X165085Y199498D01*
X21997Y155496D02*
X19498Y157995D01*
X14499D01*
X12000Y155496D01*
Y152997D01*
X14499Y150498D01*
X19498D01*
X21997Y147998D01*
Y145499D01*
X19498Y143000D01*
X14499D01*
X12000Y145499D01*
X26995Y157995D02*
Y143000D01*
X31994Y147998D01*
X36992Y143000D01*
Y157995D01*
X41990Y143000D02*
X46989D01*
X44489D01*
Y157995D01*
X41990Y155496D01*
X84250Y194500D02*
X79252D01*
Y196999D01*
X80085Y197832D01*
X81751D01*
X82584Y196999D01*
Y194500D01*
Y196166D02*
X84250Y197832D01*
Y199498D02*
Y201164D01*
Y200331D01*
X79252D01*
X80085Y199498D01*
X84250Y206163D02*
X79252D01*
X81751Y203664D01*
Y206996D01*
X128375Y179482D02*
X127542Y178649D01*
Y176983D01*
X128375Y176150D01*
X131707D01*
X132540Y176983D01*
Y178649D01*
X131707Y179482D01*
X127542Y181148D02*
Y184481D01*
Y182815D01*
X132540D01*
X128375Y189479D02*
X127542Y188646D01*
Y186980D01*
X128375Y186147D01*
X129208D01*
X130041Y186980D01*
Y188646D01*
X130874Y189479D01*
X131707D01*
X132540Y188646D01*
Y186980D01*
X131707Y186147D01*
X133373Y191145D02*
Y194477D01*
X132540Y196143D02*
X127542D01*
X132540Y199476D01*
X127542D01*
Y204474D02*
Y201142D01*
X132540D01*
Y204474D01*
X130041Y201142D02*
Y202808D01*
X127542Y206140D02*
Y209472D01*
Y207806D01*
X132540D01*
Y211138D02*
Y212805D01*
Y211972D01*
X127542D01*
X128375Y211138D01*
M02*
