G04*
G04 #@! TF.GenerationSoftware,Altium Limited,Altium Designer,21.6.4 (81)*
G04*
G04 Layer_Color=2752767*
%FSLAX44Y44*%
%MOMM*%
G71*
G04*
G04 #@! TF.SameCoordinates,B4D087F0-9EC3-4593-89C5-D5A80E32FEAA*
G04*
G04*
G04 #@! TF.FilePolarity,Positive*
G04*
G01*
G75*
%ADD49C,0.0508*%
%ADD52C,0.0677*%
D49*
X133368Y87808D02*
Y91872D01*
X137432D01*
Y87808D01*
X133368D01*
Y108128D02*
Y112192D01*
X137432D01*
Y108128D01*
X133368D01*
X82568Y97968D02*
Y102032D01*
X86632D01*
Y97968D01*
X82568D01*
X185000D02*
X182968Y102032D01*
X187032D01*
X185000Y97968D01*
X35000D02*
X32968Y102032D01*
X37032D01*
X35000Y97968D01*
X8000Y212968D02*
X9016Y213984D01*
X10032D01*
X9016Y215000D01*
X10032Y216016D01*
X9016D01*
X8000Y217032D01*
X6984Y216016D01*
X5968D01*
X6984Y215000D01*
X5968Y213984D01*
X6984D01*
X8000Y212968D01*
X67000Y276968D02*
X68016Y277984D01*
X69032D01*
X68016Y279000D01*
X69032Y280016D01*
X68016D01*
X67000Y281032D01*
X65984Y280016D01*
X64968D01*
X65984Y279000D01*
X64968Y277984D01*
X65984D01*
X67000Y276968D01*
X52000D02*
X53016Y277984D01*
X54032D01*
X53016Y279000D01*
X54032Y280016D01*
X53016D01*
X52000Y281032D01*
X50984Y280016D01*
X49968D01*
X50984Y279000D01*
X49968Y277984D01*
X50984D01*
X52000Y276968D01*
X36000D02*
X37016Y277984D01*
X38032D01*
X37016Y279000D01*
X38032Y280016D01*
X37016D01*
X36000Y281032D01*
X34984Y280016D01*
X33968D01*
X34984Y279000D01*
X33968Y277984D01*
X34984D01*
X36000Y276968D01*
X78000Y303968D02*
X79016Y304984D01*
X80032D01*
X79016Y306000D01*
X80032Y307016D01*
X79016D01*
X78000Y308032D01*
X76984Y307016D01*
X75968D01*
X76984Y306000D01*
X75968Y304984D01*
X76984D01*
X78000Y303968D01*
Y326968D02*
X79016Y327984D01*
X80032D01*
X79016Y329000D01*
X80032Y330016D01*
X79016D01*
X78000Y331032D01*
X76984Y330016D01*
X75968D01*
X76984Y329000D01*
X75968Y327984D01*
X76984D01*
X78000Y326968D01*
X69000Y335968D02*
X70016Y336984D01*
X71032D01*
X70016Y338000D01*
X71032Y339016D01*
X70016D01*
X69000Y340032D01*
X67984Y339016D01*
X66968D01*
X67984Y338000D01*
X66968Y336984D01*
X67984D01*
X69000Y335968D01*
X58000D02*
X59016Y336984D01*
X60032D01*
X59016Y338000D01*
X60032Y339016D01*
X59016D01*
X58000Y340032D01*
X56984Y339016D01*
X55968D01*
X56984Y338000D01*
X55968Y336984D01*
X56984D01*
X58000Y335968D01*
X47000D02*
X48016Y336984D01*
X49032D01*
X48016Y338000D01*
X49032Y339016D01*
X48016D01*
X47000Y340032D01*
X45984Y339016D01*
X44968D01*
X45984Y338000D01*
X44968Y336984D01*
X45984D01*
X47000Y335968D01*
X35000D02*
X36016Y336984D01*
X37032D01*
X36016Y338000D01*
X37032Y339016D01*
X36016D01*
X35000Y340032D01*
X33984Y339016D01*
X32968D01*
X33984Y338000D01*
X32968Y336984D01*
X33984D01*
X35000Y335968D01*
X67000Y294968D02*
X68016Y295984D01*
X69032D01*
X68016Y297000D01*
X69032Y298016D01*
X68016D01*
X67000Y299032D01*
X65984Y298016D01*
X64968D01*
X65984Y297000D01*
X64968Y295984D01*
X65984D01*
X67000Y294968D01*
X37000D02*
X38016Y295984D01*
X39032D01*
X38016Y297000D01*
X39032Y298016D01*
X38016D01*
X37000Y299032D01*
X35984Y298016D01*
X34968D01*
X35984Y297000D01*
X34968Y295984D01*
X35984D01*
X37000Y294968D01*
X8000Y201968D02*
X9016Y202984D01*
X10032D01*
X9016Y204000D01*
X10032Y205016D01*
X9016D01*
X8000Y206032D01*
X6984Y205016D01*
X5968D01*
X6984Y204000D01*
X5968Y202984D01*
X6984D01*
X8000Y201968D01*
X89000Y209968D02*
X90016Y210984D01*
X91032D01*
X90016Y212000D01*
X91032Y213016D01*
X90016D01*
X89000Y214032D01*
X87984Y213016D01*
X86968D01*
X87984Y212000D01*
X86968Y210984D01*
X87984D01*
X89000Y209968D01*
X88000Y224968D02*
X89016Y225984D01*
X90032D01*
X89016Y227000D01*
X90032Y228016D01*
X89016D01*
X88000Y229032D01*
X86984Y228016D01*
X85968D01*
X86984Y227000D01*
X85968Y225984D01*
X86984D01*
X88000Y224968D01*
X98000Y204968D02*
X99016Y205984D01*
X100032D01*
X99016Y207000D01*
X100032Y208016D01*
X99016D01*
X98000Y209032D01*
X96984Y208016D01*
X95968D01*
X96984Y207000D01*
X95968Y205984D01*
X96984D01*
X98000Y204968D01*
X113000D02*
X114016Y205984D01*
X115032D01*
X114016Y207000D01*
X115032Y208016D01*
X114016D01*
X113000Y209032D01*
X111984Y208016D01*
X110968D01*
X111984Y207000D01*
X110968Y205984D01*
X111984D01*
X113000Y204968D01*
X128000D02*
X129016Y205984D01*
X130032D01*
X129016Y207000D01*
X130032Y208016D01*
X129016D01*
X128000Y209032D01*
X126984Y208016D01*
X125968D01*
X126984Y207000D01*
X125968Y205984D01*
X126984D01*
X128000Y204968D01*
X212000Y201968D02*
X213016Y202984D01*
X214032D01*
X213016Y204000D01*
X214032Y205016D01*
X213016D01*
X212000Y206032D01*
X210984Y205016D01*
X209968D01*
X210984Y204000D01*
X209968Y202984D01*
X210984D01*
X212000Y201968D01*
Y213968D02*
X213016Y214984D01*
X214032D01*
X213016Y216000D01*
X214032Y217016D01*
X213016D01*
X212000Y218032D01*
X210984Y217016D01*
X209968D01*
X210984Y216000D01*
X209968Y214984D01*
X210984D01*
X212000Y213968D01*
Y225968D02*
X213016Y226984D01*
X214032D01*
X213016Y228000D01*
X214032Y229016D01*
X213016D01*
X212000Y230032D01*
X210984Y229016D01*
X209968D01*
X210984Y228000D01*
X209968Y226984D01*
X210984D01*
X212000Y225968D01*
Y240968D02*
X213016Y241984D01*
X214032D01*
X213016Y243000D01*
X214032Y244016D01*
X213016D01*
X212000Y245032D01*
X210984Y244016D01*
X209968D01*
X210984Y243000D01*
X209968Y241984D01*
X210984D01*
X212000Y240968D01*
Y254968D02*
X213016Y255984D01*
X214032D01*
X213016Y257000D01*
X214032Y258016D01*
X213016D01*
X212000Y259032D01*
X210984Y258016D01*
X209968D01*
X210984Y257000D01*
X209968Y255984D01*
X210984D01*
X212000Y254968D01*
Y269968D02*
X213016Y270984D01*
X214032D01*
X213016Y272000D01*
X214032Y273016D01*
X213016D01*
X212000Y274032D01*
X210984Y273016D01*
X209968D01*
X210984Y272000D01*
X209968Y270984D01*
X210984D01*
X212000Y269968D01*
Y284968D02*
X213016Y285984D01*
X214032D01*
X213016Y287000D01*
X214032Y288016D01*
X213016D01*
X212000Y289032D01*
X210984Y288016D01*
X209968D01*
X210984Y287000D01*
X209968Y285984D01*
X210984D01*
X212000Y284968D01*
Y299968D02*
X213016Y300984D01*
X214032D01*
X213016Y302000D01*
X214032Y303016D01*
X213016D01*
X212000Y304032D01*
X210984Y303016D01*
X209968D01*
X210984Y302000D01*
X209968Y300984D01*
X210984D01*
X212000Y299968D01*
Y314968D02*
X213016Y315984D01*
X214032D01*
X213016Y317000D01*
X214032Y318016D01*
X213016D01*
X212000Y319032D01*
X210984Y318016D01*
X209968D01*
X210984Y317000D01*
X209968Y315984D01*
X210984D01*
X212000Y314968D01*
Y329968D02*
X213016Y330984D01*
X214032D01*
X213016Y332000D01*
X214032Y333016D01*
X213016D01*
X212000Y334032D01*
X210984Y333016D01*
X209968D01*
X210984Y332000D01*
X209968Y330984D01*
X210984D01*
X212000Y329968D01*
Y344968D02*
X213016Y345984D01*
X214032D01*
X213016Y347000D01*
X214032Y348016D01*
X213016D01*
X212000Y349032D01*
X210984Y348016D01*
X209968D01*
X210984Y347000D01*
X209968Y345984D01*
X210984D01*
X212000Y344968D01*
Y359968D02*
X213016Y360984D01*
X214032D01*
X213016Y362000D01*
X214032Y363016D01*
X213016D01*
X212000Y364032D01*
X210984Y363016D01*
X209968D01*
X210984Y362000D01*
X209968Y360984D01*
X210984D01*
X212000Y359968D01*
Y374968D02*
X213016Y375984D01*
X214032D01*
X213016Y377000D01*
X214032Y378016D01*
X213016D01*
X212000Y379032D01*
X210984Y378016D01*
X209968D01*
X210984Y377000D01*
X209968Y375984D01*
X210984D01*
X212000Y374968D01*
Y389968D02*
X213016Y390984D01*
X214032D01*
X213016Y392000D01*
X214032Y393016D01*
X213016D01*
X212000Y394032D01*
X210984Y393016D01*
X209968D01*
X210984Y392000D01*
X209968Y390984D01*
X210984D01*
X212000Y389968D01*
X203000D02*
X204016Y390984D01*
X205032D01*
X204016Y392000D01*
X205032Y393016D01*
X204016D01*
X203000Y394032D01*
X201984Y393016D01*
X200968D01*
X201984Y392000D01*
X200968Y390984D01*
X201984D01*
X203000Y389968D01*
Y374968D02*
X204016Y375984D01*
X205032D01*
X204016Y377000D01*
X205032Y378016D01*
X204016D01*
X203000Y379032D01*
X201984Y378016D01*
X200968D01*
X201984Y377000D01*
X200968Y375984D01*
X201984D01*
X203000Y374968D01*
Y359968D02*
X204016Y360984D01*
X205032D01*
X204016Y362000D01*
X205032Y363016D01*
X204016D01*
X203000Y364032D01*
X201984Y363016D01*
X200968D01*
X201984Y362000D01*
X200968Y360984D01*
X201984D01*
X203000Y359968D01*
Y344968D02*
X204016Y345984D01*
X205032D01*
X204016Y347000D01*
X205032Y348016D01*
X204016D01*
X203000Y349032D01*
X201984Y348016D01*
X200968D01*
X201984Y347000D01*
X200968Y345984D01*
X201984D01*
X203000Y344968D01*
Y329968D02*
X204016Y330984D01*
X205032D01*
X204016Y332000D01*
X205032Y333016D01*
X204016D01*
X203000Y334032D01*
X201984Y333016D01*
X200968D01*
X201984Y332000D01*
X200968Y330984D01*
X201984D01*
X203000Y329968D01*
Y314968D02*
X204016Y315984D01*
X205032D01*
X204016Y317000D01*
X205032Y318016D01*
X204016D01*
X203000Y319032D01*
X201984Y318016D01*
X200968D01*
X201984Y317000D01*
X200968Y315984D01*
X201984D01*
X203000Y314968D01*
Y299968D02*
X204016Y300984D01*
X205032D01*
X204016Y302000D01*
X205032Y303016D01*
X204016D01*
X203000Y304032D01*
X201984Y303016D01*
X200968D01*
X201984Y302000D01*
X200968Y300984D01*
X201984D01*
X203000Y299968D01*
Y284968D02*
X204016Y285984D01*
X205032D01*
X204016Y287000D01*
X205032Y288016D01*
X204016D01*
X203000Y289032D01*
X201984Y288016D01*
X200968D01*
X201984Y287000D01*
X200968Y285984D01*
X201984D01*
X203000Y284968D01*
Y269968D02*
X204016Y270984D01*
X205032D01*
X204016Y272000D01*
X205032Y273016D01*
X204016D01*
X203000Y274032D01*
X201984Y273016D01*
X200968D01*
X201984Y272000D01*
X200968Y270984D01*
X201984D01*
X203000Y269968D01*
Y254968D02*
X204016Y255984D01*
X205032D01*
X204016Y257000D01*
X205032Y258016D01*
X204016D01*
X203000Y259032D01*
X201984Y258016D01*
X200968D01*
X201984Y257000D01*
X200968Y255984D01*
X201984D01*
X203000Y254968D01*
X188000Y389968D02*
X189016Y390984D01*
X190032D01*
X189016Y392000D01*
X190032Y393016D01*
X189016D01*
X188000Y394032D01*
X186984Y393016D01*
X185968D01*
X186984Y392000D01*
X185968Y390984D01*
X186984D01*
X188000Y389968D01*
Y374968D02*
X189016Y375984D01*
X190032D01*
X189016Y377000D01*
X190032Y378016D01*
X189016D01*
X188000Y379032D01*
X186984Y378016D01*
X185968D01*
X186984Y377000D01*
X185968Y375984D01*
X186984D01*
X188000Y374968D01*
Y359968D02*
X189016Y360984D01*
X190032D01*
X189016Y362000D01*
X190032Y363016D01*
X189016D01*
X188000Y364032D01*
X186984Y363016D01*
X185968D01*
X186984Y362000D01*
X185968Y360984D01*
X186984D01*
X188000Y359968D01*
Y344968D02*
X189016Y345984D01*
X190032D01*
X189016Y347000D01*
X190032Y348016D01*
X189016D01*
X188000Y349032D01*
X186984Y348016D01*
X185968D01*
X186984Y347000D01*
X185968Y345984D01*
X186984D01*
X188000Y344968D01*
Y329968D02*
X189016Y330984D01*
X190032D01*
X189016Y332000D01*
X190032Y333016D01*
X189016D01*
X188000Y334032D01*
X186984Y333016D01*
X185968D01*
X186984Y332000D01*
X185968Y330984D01*
X186984D01*
X188000Y329968D01*
Y314968D02*
X189016Y315984D01*
X190032D01*
X189016Y317000D01*
X190032Y318016D01*
X189016D01*
X188000Y319032D01*
X186984Y318016D01*
X185968D01*
X186984Y317000D01*
X185968Y315984D01*
X186984D01*
X188000Y314968D01*
Y299968D02*
X189016Y300984D01*
X190032D01*
X189016Y302000D01*
X190032Y303016D01*
X189016D01*
X188000Y304032D01*
X186984Y303016D01*
X185968D01*
X186984Y302000D01*
X185968Y300984D01*
X186984D01*
X188000Y299968D01*
Y284968D02*
X189016Y285984D01*
X190032D01*
X189016Y287000D01*
X190032Y288016D01*
X189016D01*
X188000Y289032D01*
X186984Y288016D01*
X185968D01*
X186984Y287000D01*
X185968Y285984D01*
X186984D01*
X188000Y284968D01*
Y269968D02*
X189016Y270984D01*
X190032D01*
X189016Y272000D01*
X190032Y273016D01*
X189016D01*
X188000Y274032D01*
X186984Y273016D01*
X185968D01*
X186984Y272000D01*
X185968Y270984D01*
X186984D01*
X188000Y269968D01*
X173000Y389968D02*
X174016Y390984D01*
X175032D01*
X174016Y392000D01*
X175032Y393016D01*
X174016D01*
X173000Y394032D01*
X171984Y393016D01*
X170968D01*
X171984Y392000D01*
X170968Y390984D01*
X171984D01*
X173000Y389968D01*
Y374968D02*
X174016Y375984D01*
X175032D01*
X174016Y377000D01*
X175032Y378016D01*
X174016D01*
X173000Y379032D01*
X171984Y378016D01*
X170968D01*
X171984Y377000D01*
X170968Y375984D01*
X171984D01*
X173000Y374968D01*
Y359968D02*
X174016Y360984D01*
X175032D01*
X174016Y362000D01*
X175032Y363016D01*
X174016D01*
X173000Y364032D01*
X171984Y363016D01*
X170968D01*
X171984Y362000D01*
X170968Y360984D01*
X171984D01*
X173000Y359968D01*
Y344968D02*
X174016Y345984D01*
X175032D01*
X174016Y347000D01*
X175032Y348016D01*
X174016D01*
X173000Y349032D01*
X171984Y348016D01*
X170968D01*
X171984Y347000D01*
X170968Y345984D01*
X171984D01*
X173000Y344968D01*
Y329968D02*
X174016Y330984D01*
X175032D01*
X174016Y332000D01*
X175032Y333016D01*
X174016D01*
X173000Y334032D01*
X171984Y333016D01*
X170968D01*
X171984Y332000D01*
X170968Y330984D01*
X171984D01*
X173000Y329968D01*
Y314968D02*
X174016Y315984D01*
X175032D01*
X174016Y317000D01*
X175032Y318016D01*
X174016D01*
X173000Y319032D01*
X171984Y318016D01*
X170968D01*
X171984Y317000D01*
X170968Y315984D01*
X171984D01*
X173000Y314968D01*
Y299968D02*
X174016Y300984D01*
X175032D01*
X174016Y302000D01*
X175032Y303016D01*
X174016D01*
X173000Y304032D01*
X171984Y303016D01*
X170968D01*
X171984Y302000D01*
X170968Y300984D01*
X171984D01*
X173000Y299968D01*
Y284968D02*
X174016Y285984D01*
X175032D01*
X174016Y287000D01*
X175032Y288016D01*
X174016D01*
X173000Y289032D01*
X171984Y288016D01*
X170968D01*
X171984Y287000D01*
X170968Y285984D01*
X171984D01*
X173000Y284968D01*
Y239968D02*
X174016Y240984D01*
X175032D01*
X174016Y242000D01*
X175032Y243016D01*
X174016D01*
X173000Y244032D01*
X171984Y243016D01*
X170968D01*
X171984Y242000D01*
X170968Y240984D01*
X171984D01*
X173000Y239968D01*
X158000Y389968D02*
X159016Y390984D01*
X160032D01*
X159016Y392000D01*
X160032Y393016D01*
X159016D01*
X158000Y394032D01*
X156984Y393016D01*
X155968D01*
X156984Y392000D01*
X155968Y390984D01*
X156984D01*
X158000Y389968D01*
Y374968D02*
X159016Y375984D01*
X160032D01*
X159016Y377000D01*
X160032Y378016D01*
X159016D01*
X158000Y379032D01*
X156984Y378016D01*
X155968D01*
X156984Y377000D01*
X155968Y375984D01*
X156984D01*
X158000Y374968D01*
Y359968D02*
X159016Y360984D01*
X160032D01*
X159016Y362000D01*
X160032Y363016D01*
X159016D01*
X158000Y364032D01*
X156984Y363016D01*
X155968D01*
X156984Y362000D01*
X155968Y360984D01*
X156984D01*
X158000Y359968D01*
Y344968D02*
X159016Y345984D01*
X160032D01*
X159016Y347000D01*
X160032Y348016D01*
X159016D01*
X158000Y349032D01*
X156984Y348016D01*
X155968D01*
X156984Y347000D01*
X155968Y345984D01*
X156984D01*
X158000Y344968D01*
Y329968D02*
X159016Y330984D01*
X160032D01*
X159016Y332000D01*
X160032Y333016D01*
X159016D01*
X158000Y334032D01*
X156984Y333016D01*
X155968D01*
X156984Y332000D01*
X155968Y330984D01*
X156984D01*
X158000Y329968D01*
Y314968D02*
X159016Y315984D01*
X160032D01*
X159016Y317000D01*
X160032Y318016D01*
X159016D01*
X158000Y319032D01*
X156984Y318016D01*
X155968D01*
X156984Y317000D01*
X155968Y315984D01*
X156984D01*
X158000Y314968D01*
Y299968D02*
X159016Y300984D01*
X160032D01*
X159016Y302000D01*
X160032Y303016D01*
X159016D01*
X158000Y304032D01*
X156984Y303016D01*
X155968D01*
X156984Y302000D01*
X155968Y300984D01*
X156984D01*
X158000Y299968D01*
Y254968D02*
X159016Y255984D01*
X160032D01*
X159016Y257000D01*
X160032Y258016D01*
X159016D01*
X158000Y259032D01*
X156984Y258016D01*
X155968D01*
X156984Y257000D01*
X155968Y255984D01*
X156984D01*
X158000Y254968D01*
X143000Y389968D02*
X144016Y390984D01*
X145032D01*
X144016Y392000D01*
X145032Y393016D01*
X144016D01*
X143000Y394032D01*
X141984Y393016D01*
X140968D01*
X141984Y392000D01*
X140968Y390984D01*
X141984D01*
X143000Y389968D01*
Y374968D02*
X144016Y375984D01*
X145032D01*
X144016Y377000D01*
X145032Y378016D01*
X144016D01*
X143000Y379032D01*
X141984Y378016D01*
X140968D01*
X141984Y377000D01*
X140968Y375984D01*
X141984D01*
X143000Y374968D01*
Y359968D02*
X144016Y360984D01*
X145032D01*
X144016Y362000D01*
X145032Y363016D01*
X144016D01*
X143000Y364032D01*
X141984Y363016D01*
X140968D01*
X141984Y362000D01*
X140968Y360984D01*
X141984D01*
X143000Y359968D01*
Y344968D02*
X144016Y345984D01*
X145032D01*
X144016Y347000D01*
X145032Y348016D01*
X144016D01*
X143000Y349032D01*
X141984Y348016D01*
X140968D01*
X141984Y347000D01*
X140968Y345984D01*
X141984D01*
X143000Y344968D01*
Y329968D02*
X144016Y330984D01*
X145032D01*
X144016Y332000D01*
X145032Y333016D01*
X144016D01*
X143000Y334032D01*
X141984Y333016D01*
X140968D01*
X141984Y332000D01*
X140968Y330984D01*
X141984D01*
X143000Y329968D01*
Y314968D02*
X144016Y315984D01*
X145032D01*
X144016Y317000D01*
X145032Y318016D01*
X144016D01*
X143000Y319032D01*
X141984Y318016D01*
X140968D01*
X141984Y317000D01*
X140968Y315984D01*
X141984D01*
X143000Y314968D01*
Y269968D02*
X144016Y270984D01*
X145032D01*
X144016Y272000D01*
X145032Y273016D01*
X144016D01*
X143000Y274032D01*
X141984Y273016D01*
X140968D01*
X141984Y272000D01*
X140968Y270984D01*
X141984D01*
X143000Y269968D01*
X128000Y389968D02*
X129016Y390984D01*
X130032D01*
X129016Y392000D01*
X130032Y393016D01*
X129016D01*
X128000Y394032D01*
X126984Y393016D01*
X125968D01*
X126984Y392000D01*
X125968Y390984D01*
X126984D01*
X128000Y389968D01*
Y374968D02*
X129016Y375984D01*
X130032D01*
X129016Y377000D01*
X130032Y378016D01*
X129016D01*
X128000Y379032D01*
X126984Y378016D01*
X125968D01*
X126984Y377000D01*
X125968Y375984D01*
X126984D01*
X128000Y374968D01*
Y329968D02*
X129016Y330984D01*
X130032D01*
X129016Y332000D01*
X130032Y333016D01*
X129016D01*
X128000Y334032D01*
X126984Y333016D01*
X125968D01*
X126984Y332000D01*
X125968Y330984D01*
X126984D01*
X128000Y329968D01*
Y284968D02*
X129016Y285984D01*
X130032D01*
X129016Y287000D01*
X130032Y288016D01*
X129016D01*
X128000Y289032D01*
X126984Y288016D01*
X125968D01*
X126984Y287000D01*
X125968Y285984D01*
X126984D01*
X128000Y284968D01*
Y224968D02*
X129016Y225984D01*
X130032D01*
X129016Y227000D01*
X130032Y228016D01*
X129016D01*
X128000Y229032D01*
X126984Y228016D01*
X125968D01*
X126984Y227000D01*
X125968Y225984D01*
X126984D01*
X128000Y224968D01*
X113000Y389968D02*
X114016Y390984D01*
X115032D01*
X114016Y392000D01*
X115032Y393016D01*
X114016D01*
X113000Y394032D01*
X111984Y393016D01*
X110968D01*
X111984Y392000D01*
X110968Y390984D01*
X111984D01*
X113000Y389968D01*
Y374968D02*
X114016Y375984D01*
X115032D01*
X114016Y377000D01*
X115032Y378016D01*
X114016D01*
X113000Y379032D01*
X111984Y378016D01*
X110968D01*
X111984Y377000D01*
X110968Y375984D01*
X111984D01*
X113000Y374968D01*
Y299968D02*
X114016Y300984D01*
X115032D01*
X114016Y302000D01*
X115032Y303016D01*
X114016D01*
X113000Y304032D01*
X111984Y303016D01*
X110968D01*
X111984Y302000D01*
X110968Y300984D01*
X111984D01*
X113000Y299968D01*
Y269968D02*
X114016Y270984D01*
X115032D01*
X114016Y272000D01*
X115032Y273016D01*
X114016D01*
X113000Y274032D01*
X111984Y273016D01*
X110968D01*
X111984Y272000D01*
X110968Y270984D01*
X111984D01*
X113000Y269968D01*
Y239968D02*
X114016Y240984D01*
X115032D01*
X114016Y242000D01*
X115032Y243016D01*
X114016D01*
X113000Y244032D01*
X111984Y243016D01*
X110968D01*
X111984Y242000D01*
X110968Y240984D01*
X111984D01*
X113000Y239968D01*
Y224968D02*
X114016Y225984D01*
X115032D01*
X114016Y227000D01*
X115032Y228016D01*
X114016D01*
X113000Y229032D01*
X111984Y228016D01*
X110968D01*
X111984Y227000D01*
X110968Y225984D01*
X111984D01*
X113000Y224968D01*
X98000Y389968D02*
X99016Y390984D01*
X100032D01*
X99016Y392000D01*
X100032Y393016D01*
X99016D01*
X98000Y394032D01*
X96984Y393016D01*
X95968D01*
X96984Y392000D01*
X95968Y390984D01*
X96984D01*
X98000Y389968D01*
Y374968D02*
X99016Y375984D01*
X100032D01*
X99016Y377000D01*
X100032Y378016D01*
X99016D01*
X98000Y379032D01*
X96984Y378016D01*
X95968D01*
X96984Y377000D01*
X95968Y375984D01*
X96984D01*
X98000Y374968D01*
Y254968D02*
X99016Y255984D01*
X100032D01*
X99016Y257000D01*
X100032Y258016D01*
X99016D01*
X98000Y259032D01*
X96984Y258016D01*
X95968D01*
X96984Y257000D01*
X95968Y255984D01*
X96984D01*
X98000Y254968D01*
Y239968D02*
X99016Y240984D01*
X100032D01*
X99016Y242000D01*
X100032Y243016D01*
X99016D01*
X98000Y244032D01*
X96984Y243016D01*
X95968D01*
X96984Y242000D01*
X95968Y240984D01*
X96984D01*
X98000Y239968D01*
X83000Y389968D02*
X84016Y390984D01*
X85032D01*
X84016Y392000D01*
X85032Y393016D01*
X84016D01*
X83000Y394032D01*
X81984Y393016D01*
X80968D01*
X81984Y392000D01*
X80968Y390984D01*
X81984D01*
X83000Y389968D01*
Y374968D02*
X84016Y375984D01*
X85032D01*
X84016Y377000D01*
X85032Y378016D01*
X84016D01*
X83000Y379032D01*
X81984Y378016D01*
X80968D01*
X81984Y377000D01*
X80968Y375984D01*
X81984D01*
X83000Y374968D01*
Y359968D02*
X84016Y360984D01*
X85032D01*
X84016Y362000D01*
X85032Y363016D01*
X84016D01*
X83000Y364032D01*
X81984Y363016D01*
X80968D01*
X81984Y362000D01*
X80968Y360984D01*
X81984D01*
X83000Y359968D01*
X68000Y389968D02*
X69016Y390984D01*
X70032D01*
X69016Y392000D01*
X70032Y393016D01*
X69016D01*
X68000Y394032D01*
X66984Y393016D01*
X65968D01*
X66984Y392000D01*
X65968Y390984D01*
X66984D01*
X68000Y389968D01*
Y374968D02*
X69016Y375984D01*
X70032D01*
X69016Y377000D01*
X70032Y378016D01*
X69016D01*
X68000Y379032D01*
X66984Y378016D01*
X65968D01*
X66984Y377000D01*
X65968Y375984D01*
X66984D01*
X68000Y374968D01*
Y314968D02*
X69016Y315984D01*
X70032D01*
X69016Y317000D01*
X70032Y318016D01*
X69016D01*
X68000Y319032D01*
X66984Y318016D01*
X65968D01*
X66984Y317000D01*
X65968Y315984D01*
X66984D01*
X68000Y314968D01*
Y254968D02*
X69016Y255984D01*
X70032D01*
X69016Y257000D01*
X70032Y258016D01*
X69016D01*
X68000Y259032D01*
X66984Y258016D01*
X65968D01*
X66984Y257000D01*
X65968Y255984D01*
X66984D01*
X68000Y254968D01*
Y239968D02*
X69016Y240984D01*
X70032D01*
X69016Y242000D01*
X70032Y243016D01*
X69016D01*
X68000Y244032D01*
X66984Y243016D01*
X65968D01*
X66984Y242000D01*
X65968Y240984D01*
X66984D01*
X68000Y239968D01*
Y224968D02*
X69016Y225984D01*
X70032D01*
X69016Y227000D01*
X70032Y228016D01*
X69016D01*
X68000Y229032D01*
X66984Y228016D01*
X65968D01*
X66984Y227000D01*
X65968Y225984D01*
X66984D01*
X68000Y224968D01*
X53000Y389968D02*
X54016Y390984D01*
X55032D01*
X54016Y392000D01*
X55032Y393016D01*
X54016D01*
X53000Y394032D01*
X51984Y393016D01*
X50968D01*
X51984Y392000D01*
X50968Y390984D01*
X51984D01*
X53000Y389968D01*
Y374968D02*
X54016Y375984D01*
X55032D01*
X54016Y377000D01*
X55032Y378016D01*
X54016D01*
X53000Y379032D01*
X51984Y378016D01*
X50968D01*
X51984Y377000D01*
X50968Y375984D01*
X51984D01*
X53000Y374968D01*
Y254968D02*
X54016Y255984D01*
X55032D01*
X54016Y257000D01*
X55032Y258016D01*
X54016D01*
X53000Y259032D01*
X51984Y258016D01*
X50968D01*
X51984Y257000D01*
X50968Y255984D01*
X51984D01*
X53000Y254968D01*
Y239968D02*
X54016Y240984D01*
X55032D01*
X54016Y242000D01*
X55032Y243016D01*
X54016D01*
X53000Y244032D01*
X51984Y243016D01*
X50968D01*
X51984Y242000D01*
X50968Y240984D01*
X51984D01*
X53000Y239968D01*
Y224968D02*
X54016Y225984D01*
X55032D01*
X54016Y227000D01*
X55032Y228016D01*
X54016D01*
X53000Y229032D01*
X51984Y228016D01*
X50968D01*
X51984Y227000D01*
X50968Y225984D01*
X51984D01*
X53000Y224968D01*
X38000Y389968D02*
X39016Y390984D01*
X40032D01*
X39016Y392000D01*
X40032Y393016D01*
X39016D01*
X38000Y394032D01*
X36984Y393016D01*
X35968D01*
X36984Y392000D01*
X35968Y390984D01*
X36984D01*
X38000Y389968D01*
Y374968D02*
X39016Y375984D01*
X40032D01*
X39016Y377000D01*
X40032Y378016D01*
X39016D01*
X38000Y379032D01*
X36984Y378016D01*
X35968D01*
X36984Y377000D01*
X35968Y375984D01*
X36984D01*
X38000Y374968D01*
Y314968D02*
X39016Y315984D01*
X40032D01*
X39016Y317000D01*
X40032Y318016D01*
X39016D01*
X38000Y319032D01*
X36984Y318016D01*
X35968D01*
X36984Y317000D01*
X35968Y315984D01*
X36984D01*
X38000Y314968D01*
Y254968D02*
X39016Y255984D01*
X40032D01*
X39016Y257000D01*
X40032Y258016D01*
X39016D01*
X38000Y259032D01*
X36984Y258016D01*
X35968D01*
X36984Y257000D01*
X35968Y255984D01*
X36984D01*
X38000Y254968D01*
Y239968D02*
X39016Y240984D01*
X40032D01*
X39016Y242000D01*
X40032Y243016D01*
X39016D01*
X38000Y244032D01*
X36984Y243016D01*
X35968D01*
X36984Y242000D01*
X35968Y240984D01*
X36984D01*
X38000Y239968D01*
Y224968D02*
X39016Y225984D01*
X40032D01*
X39016Y227000D01*
X40032Y228016D01*
X39016D01*
X38000Y229032D01*
X36984Y228016D01*
X35968D01*
X36984Y227000D01*
X35968Y225984D01*
X36984D01*
X38000Y224968D01*
X23000Y389968D02*
X24016Y390984D01*
X25032D01*
X24016Y392000D01*
X25032Y393016D01*
X24016D01*
X23000Y394032D01*
X21984Y393016D01*
X20968D01*
X21984Y392000D01*
X20968Y390984D01*
X21984D01*
X23000Y389968D01*
Y374968D02*
X24016Y375984D01*
X25032D01*
X24016Y377000D01*
X25032Y378016D01*
X24016D01*
X23000Y379032D01*
X21984Y378016D01*
X20968D01*
X21984Y377000D01*
X20968Y375984D01*
X21984D01*
X23000Y374968D01*
Y359968D02*
X24016Y360984D01*
X25032D01*
X24016Y362000D01*
X25032Y363016D01*
X24016D01*
X23000Y364032D01*
X21984Y363016D01*
X20968D01*
X21984Y362000D01*
X20968Y360984D01*
X21984D01*
X23000Y359968D01*
Y344968D02*
X24016Y345984D01*
X25032D01*
X24016Y347000D01*
X25032Y348016D01*
X24016D01*
X23000Y349032D01*
X21984Y348016D01*
X20968D01*
X21984Y347000D01*
X20968Y345984D01*
X21984D01*
X23000Y344968D01*
X8000Y389968D02*
X9016Y390984D01*
X10032D01*
X9016Y392000D01*
X10032Y393016D01*
X9016D01*
X8000Y394032D01*
X6984Y393016D01*
X5968D01*
X6984Y392000D01*
X5968Y390984D01*
X6984D01*
X8000Y389968D01*
Y374968D02*
X9016Y375984D01*
X10032D01*
X9016Y377000D01*
X10032Y378016D01*
X9016D01*
X8000Y379032D01*
X6984Y378016D01*
X5968D01*
X6984Y377000D01*
X5968Y375984D01*
X6984D01*
X8000Y374968D01*
Y254968D02*
X9016Y255984D01*
X10032D01*
X9016Y257000D01*
X10032Y258016D01*
X9016D01*
X8000Y259032D01*
X6984Y258016D01*
X5968D01*
X6984Y257000D01*
X5968Y255984D01*
X6984D01*
X8000Y254968D01*
Y239968D02*
X9016Y240984D01*
X10032D01*
X9016Y242000D01*
X10032Y243016D01*
X9016D01*
X8000Y244032D01*
X6984Y243016D01*
X5968D01*
X6984Y242000D01*
X5968Y240984D01*
X6984D01*
X8000Y239968D01*
Y224968D02*
X9016Y225984D01*
X10032D01*
X9016Y227000D01*
X10032Y228016D01*
X9016D01*
X8000Y229032D01*
X6984Y228016D01*
X5968D01*
X6984Y227000D01*
X5968Y225984D01*
X6984D01*
X8000Y224968D01*
X20970Y304800D02*
X21986Y305816D01*
X23002D01*
X21986Y306832D01*
X23002Y307848D01*
X21986D01*
X20970Y308864D01*
X19954Y307848D01*
X18938D01*
X19954Y306832D01*
X18938Y305816D01*
X19954D01*
X20970Y304800D01*
Y314718D02*
X21986Y315734D01*
X23002D01*
X21986Y316750D01*
X23002Y317766D01*
X21986D01*
X20970Y318782D01*
X19954Y317766D01*
X18938D01*
X19954Y316750D01*
X18938Y315734D01*
X19954D01*
X20970Y314718D01*
X103000Y150968D02*
X104016Y151984D01*
X105032D01*
X104016Y153000D01*
X105032Y154016D01*
X104016D01*
X103000Y155032D01*
X101984Y154016D01*
X100968D01*
X101984Y153000D01*
X100968Y151984D01*
X101984D01*
X103000Y150968D01*
X87000Y148064D02*
X88016Y149080D01*
X89032D01*
X88016Y150096D01*
X89032Y151112D01*
X88016D01*
X87000Y152128D01*
X85984Y151112D01*
X84968D01*
X85984Y150096D01*
X84968Y149080D01*
X85984D01*
X87000Y148064D01*
X127000Y120968D02*
X128016Y121984D01*
X129032D01*
X128016Y123000D01*
X129032Y124016D01*
X128016D01*
X127000Y125032D01*
X125984Y124016D01*
X124968D01*
X125984Y123000D01*
X124968Y121984D01*
X125984D01*
X127000Y120968D01*
X177433Y174865D02*
X178449Y175881D01*
X179466D01*
X178449Y176896D01*
X179466Y177913D01*
X178449D01*
X177433Y178929D01*
X176418Y177913D01*
X175401D01*
X176418Y176896D01*
X175401Y175881D01*
X176418D01*
X177433Y174865D01*
X154940Y199644D02*
X155956Y200660D01*
X156972D01*
X155956Y201676D01*
X156972Y202692D01*
X155956D01*
X154940Y203708D01*
X153924Y202692D01*
X152908D01*
X153924Y201676D01*
X152908Y200660D01*
X153924D01*
X154940Y199644D01*
X105188Y284718D02*
X106204Y285734D01*
X107220D01*
X106204Y286750D01*
X107220Y287766D01*
X106204D01*
X105188Y288782D01*
X104172Y287766D01*
X103156D01*
X104172Y286750D01*
X103156Y285734D01*
X104172D01*
X105188Y284718D01*
X39878Y199644D02*
X40894Y200660D01*
X41910D01*
X40894Y201676D01*
X41910Y202692D01*
X40894D01*
X39878Y203708D01*
X38862Y202692D01*
X37846D01*
X38862Y201676D01*
X37846Y200660D01*
X38862D01*
X39878Y199644D01*
X50038D02*
X51054Y200660D01*
X52070D01*
X51054Y201676D01*
X52070Y202692D01*
X51054D01*
X50038Y203708D01*
X49022Y202692D01*
X48006D01*
X49022Y201676D01*
X48006Y200660D01*
X49022D01*
X50038Y199644D01*
X60198Y199898D02*
X61214Y200914D01*
X62230D01*
X61214Y201930D01*
X62230Y202946D01*
X61214D01*
X60198Y203962D01*
X59182Y202946D01*
X58166D01*
X59182Y201930D01*
X58166Y200914D01*
X59182D01*
X60198Y199898D01*
Y215900D02*
X61214Y216916D01*
X62230D01*
X61214Y217932D01*
X62230Y218948D01*
X61214D01*
X60198Y219964D01*
X59182Y218948D01*
X58166D01*
X59182Y217932D01*
X58166Y216916D01*
X59182D01*
X60198Y215900D01*
X23622Y161798D02*
X24638Y162814D01*
X25654D01*
X24638Y163830D01*
X25654Y164846D01*
X24638D01*
X23622Y165862D01*
X22606Y164846D01*
X21590D01*
X22606Y163830D01*
X21590Y162814D01*
X22606D01*
X23622Y161798D01*
X97282Y83566D02*
X98298Y84582D01*
X99314D01*
X98298Y85598D01*
X99314Y86614D01*
X98298D01*
X97282Y87630D01*
X96266Y86614D01*
X95250D01*
X96266Y85598D01*
X95250Y84582D01*
X96266D01*
X97282Y83566D01*
X29812Y178054D02*
X30828Y179070D01*
X31844D01*
X30828Y180086D01*
X31844Y181102D01*
X30828D01*
X29812Y182118D01*
X28796Y181102D01*
X27780D01*
X28796Y180086D01*
X27780Y179070D01*
X28796D01*
X29812Y178054D01*
X19812D02*
X20828Y179070D01*
X21844D01*
X20828Y180086D01*
X21844Y181102D01*
X20828D01*
X19812Y182118D01*
X18796Y181102D01*
X17780D01*
X18796Y180086D01*
X17780Y179070D01*
X18796D01*
X19812Y178054D01*
X37338Y164338D02*
X38354Y165354D01*
X39370D01*
X38354Y166370D01*
X39370Y167386D01*
X38354D01*
X37338Y168402D01*
X36322Y167386D01*
X35306D01*
X36322Y166370D01*
X35306Y165354D01*
X36322D01*
X37338Y164338D01*
X110236Y83058D02*
X111252Y84074D01*
X112268D01*
X111252Y85090D01*
X112268Y86106D01*
X111252D01*
X110236Y87122D01*
X109220Y86106D01*
X108204D01*
X109220Y85090D01*
X108204Y84074D01*
X109220D01*
X110236Y83058D01*
X83058Y109728D02*
X84074Y110744D01*
X85090D01*
X84074Y111760D01*
X85090Y112776D01*
X84074D01*
X83058Y113792D01*
X82042Y112776D01*
X81026D01*
X82042Y111760D01*
X81026Y110744D01*
X82042D01*
X83058Y109728D01*
X123635Y172323D02*
X124651Y173339D01*
X125667D01*
X124651Y174355D01*
X125667Y175371D01*
X124651D01*
X123635Y176387D01*
X122619Y175371D01*
X121603D01*
X122619Y174355D01*
X121603Y173339D01*
X122619D01*
X123635Y172323D01*
X189000Y171968D02*
X190016Y172984D01*
X191032D01*
X190016Y174000D01*
X191032Y175016D01*
X190016D01*
X189000Y176032D01*
X187984Y175016D01*
X186968D01*
X187984Y174000D01*
X186968Y172984D01*
X187984D01*
X189000Y171968D01*
X155000Y178872D02*
X156016Y179888D01*
X157032D01*
X156016Y180904D01*
X157032Y181920D01*
X156016D01*
X155000Y182936D01*
X153984Y181920D01*
X152968D01*
X153984Y180904D01*
X152968Y179888D01*
X153984D01*
X155000Y178872D01*
X194000D02*
X195016Y179888D01*
X196032D01*
X195016Y180904D01*
X196032Y181920D01*
X195016D01*
X194000Y182936D01*
X192984Y181920D01*
X191968D01*
X192984Y180904D01*
X191968Y179888D01*
X192984D01*
X194000Y178872D01*
D52*
X73932Y42200D02*
G03*
X73932Y42200I-2032J0D01*
G01*
X99332D02*
G03*
X99332Y42200I-2032J0D01*
G01*
X124732D02*
G03*
X124732Y42200I-2032J0D01*
G01*
X175532D02*
G03*
X175532Y42200I-2032J0D01*
G01*
X200932D02*
G03*
X200932Y42200I-2032J0D01*
G01*
X150132D02*
G03*
X150132Y42200I-2032J0D01*
G01*
X48532D02*
G03*
X48532Y42200I-2032J0D01*
G01*
X23132D02*
G03*
X23132Y42200I-2032J0D01*
G01*
M02*
