G04*
G04 #@! TF.GenerationSoftware,Altium Limited,Altium Designer,21.6.4 (81)*
G04*
G04 Layer_Color=128*
%FSLAX44Y44*%
%MOMM*%
G71*
G04*
G04 #@! TF.SameCoordinates,B4D087F0-9EC3-4593-89C5-D5A80E32FEAA*
G04*
G04*
G04 #@! TF.FilePolarity,Positive*
G04*
G01*
G75*
%ADD49C,0.0508*%
D49*
X130425Y89840D02*
X140375D01*
X135400Y84865D02*
Y94815D01*
X130425Y110160D02*
X140375D01*
X135400Y105185D02*
Y115135D01*
X79625Y100000D02*
X89575D01*
X84600Y95025D02*
Y104975D01*
X66400Y42200D02*
X77400D01*
X71900Y36700D02*
Y47700D01*
X91800Y42200D02*
X102800D01*
X97300Y36700D02*
Y47700D01*
X117200Y42200D02*
X128200D01*
X122700Y36700D02*
Y47700D01*
X168000Y42200D02*
X179000D01*
X173500Y36700D02*
Y47700D01*
X193400Y42200D02*
X204400D01*
X198900Y36700D02*
Y47700D01*
X142600Y42200D02*
X153600D01*
X148100Y36700D02*
Y47700D01*
X41000Y42200D02*
X52000D01*
X46500Y36700D02*
Y47700D01*
X15600Y42200D02*
X26600D01*
X21100Y36700D02*
Y47700D01*
X176000Y100000D02*
X194000D01*
X185000Y91000D02*
Y109000D01*
X26000Y100000D02*
X44000D01*
X35000Y91000D02*
Y109000D01*
X6500Y215000D02*
X9500D01*
X8000Y213500D02*
Y216500D01*
X65500Y279000D02*
X68500D01*
X67000Y277500D02*
Y280500D01*
X50500Y279000D02*
X53500D01*
X52000Y277500D02*
Y280500D01*
X34500Y279000D02*
X37500D01*
X36000Y277500D02*
Y280500D01*
X76500Y306000D02*
X79500D01*
X78000Y304500D02*
Y307500D01*
X76500Y329000D02*
X79500D01*
X78000Y327500D02*
Y330500D01*
X67500Y338000D02*
X70500D01*
X69000Y336500D02*
Y339500D01*
X56500Y338000D02*
X59500D01*
X58000Y336500D02*
Y339500D01*
X45500Y338000D02*
X48500D01*
X47000Y336500D02*
Y339500D01*
X33500Y338000D02*
X36500D01*
X35000Y336500D02*
Y339500D01*
X65500Y297000D02*
X68500D01*
X67000Y295500D02*
Y298500D01*
X35500Y297000D02*
X38500D01*
X37000Y295500D02*
Y298500D01*
X6500Y204000D02*
X9500D01*
X8000Y202500D02*
Y205500D01*
X87500Y212000D02*
X90500D01*
X89000Y210500D02*
Y213500D01*
X86500Y227000D02*
X89500D01*
X88000Y225500D02*
Y228500D01*
X96500Y207000D02*
X99500D01*
X98000Y205500D02*
Y208500D01*
X111500Y207000D02*
X114500D01*
X113000Y205500D02*
Y208500D01*
X126500Y207000D02*
X129500D01*
X128000Y205500D02*
Y208500D01*
X210500Y204000D02*
X213500D01*
X212000Y202500D02*
Y205500D01*
X210500Y216000D02*
X213500D01*
X212000Y214500D02*
Y217500D01*
X210500Y228000D02*
X213500D01*
X212000Y226500D02*
Y229500D01*
X210500Y243000D02*
X213500D01*
X212000Y241500D02*
Y244500D01*
X210500Y257000D02*
X213500D01*
X212000Y255500D02*
Y258500D01*
X210500Y272000D02*
X213500D01*
X212000Y270500D02*
Y273500D01*
X210500Y287000D02*
X213500D01*
X212000Y285500D02*
Y288500D01*
X210500Y302000D02*
X213500D01*
X212000Y300500D02*
Y303500D01*
X210500Y317000D02*
X213500D01*
X212000Y315500D02*
Y318500D01*
X210500Y332000D02*
X213500D01*
X212000Y330500D02*
Y333500D01*
X210500Y347000D02*
X213500D01*
X212000Y345500D02*
Y348500D01*
X210500Y362000D02*
X213500D01*
X212000Y360500D02*
Y363500D01*
X210500Y377000D02*
X213500D01*
X212000Y375500D02*
Y378500D01*
X210500Y392000D02*
X213500D01*
X212000Y390500D02*
Y393500D01*
X201500Y392000D02*
X204500D01*
X203000Y390500D02*
Y393500D01*
X201500Y377000D02*
X204500D01*
X203000Y375500D02*
Y378500D01*
X201500Y362000D02*
X204500D01*
X203000Y360500D02*
Y363500D01*
X201500Y347000D02*
X204500D01*
X203000Y345500D02*
Y348500D01*
X201500Y332000D02*
X204500D01*
X203000Y330500D02*
Y333500D01*
X201500Y317000D02*
X204500D01*
X203000Y315500D02*
Y318500D01*
X201500Y302000D02*
X204500D01*
X203000Y300500D02*
Y303500D01*
X201500Y287000D02*
X204500D01*
X203000Y285500D02*
Y288500D01*
X201500Y272000D02*
X204500D01*
X203000Y270500D02*
Y273500D01*
X201500Y257000D02*
X204500D01*
X203000Y255500D02*
Y258500D01*
X186500Y392000D02*
X189500D01*
X188000Y390500D02*
Y393500D01*
X186500Y377000D02*
X189500D01*
X188000Y375500D02*
Y378500D01*
X186500Y362000D02*
X189500D01*
X188000Y360500D02*
Y363500D01*
X186500Y347000D02*
X189500D01*
X188000Y345500D02*
Y348500D01*
X186500Y332000D02*
X189500D01*
X188000Y330500D02*
Y333500D01*
X186500Y317000D02*
X189500D01*
X188000Y315500D02*
Y318500D01*
X186500Y302000D02*
X189500D01*
X188000Y300500D02*
Y303500D01*
X186500Y287000D02*
X189500D01*
X188000Y285500D02*
Y288500D01*
X186500Y272000D02*
X189500D01*
X188000Y270500D02*
Y273500D01*
X171500Y392000D02*
X174500D01*
X173000Y390500D02*
Y393500D01*
X171500Y377000D02*
X174500D01*
X173000Y375500D02*
Y378500D01*
X171500Y362000D02*
X174500D01*
X173000Y360500D02*
Y363500D01*
X171500Y347000D02*
X174500D01*
X173000Y345500D02*
Y348500D01*
X171500Y332000D02*
X174500D01*
X173000Y330500D02*
Y333500D01*
X171500Y317000D02*
X174500D01*
X173000Y315500D02*
Y318500D01*
X171500Y302000D02*
X174500D01*
X173000Y300500D02*
Y303500D01*
X171500Y287000D02*
X174500D01*
X173000Y285500D02*
Y288500D01*
X171500Y242000D02*
X174500D01*
X173000Y240500D02*
Y243500D01*
X156500Y392000D02*
X159500D01*
X158000Y390500D02*
Y393500D01*
X156500Y377000D02*
X159500D01*
X158000Y375500D02*
Y378500D01*
X156500Y362000D02*
X159500D01*
X158000Y360500D02*
Y363500D01*
X156500Y347000D02*
X159500D01*
X158000Y345500D02*
Y348500D01*
X156500Y332000D02*
X159500D01*
X158000Y330500D02*
Y333500D01*
X156500Y317000D02*
X159500D01*
X158000Y315500D02*
Y318500D01*
X156500Y302000D02*
X159500D01*
X158000Y300500D02*
Y303500D01*
X156500Y257000D02*
X159500D01*
X158000Y255500D02*
Y258500D01*
X141500Y392000D02*
X144500D01*
X143000Y390500D02*
Y393500D01*
X141500Y377000D02*
X144500D01*
X143000Y375500D02*
Y378500D01*
X141500Y362000D02*
X144500D01*
X143000Y360500D02*
Y363500D01*
X141500Y347000D02*
X144500D01*
X143000Y345500D02*
Y348500D01*
X141500Y332000D02*
X144500D01*
X143000Y330500D02*
Y333500D01*
X141500Y317000D02*
X144500D01*
X143000Y315500D02*
Y318500D01*
X141500Y272000D02*
X144500D01*
X143000Y270500D02*
Y273500D01*
X126500Y392000D02*
X129500D01*
X128000Y390500D02*
Y393500D01*
X126500Y377000D02*
X129500D01*
X128000Y375500D02*
Y378500D01*
X126500Y332000D02*
X129500D01*
X128000Y330500D02*
Y333500D01*
X126500Y287000D02*
X129500D01*
X128000Y285500D02*
Y288500D01*
X126500Y227000D02*
X129500D01*
X128000Y225500D02*
Y228500D01*
X111500Y392000D02*
X114500D01*
X113000Y390500D02*
Y393500D01*
X111500Y377000D02*
X114500D01*
X113000Y375500D02*
Y378500D01*
X111500Y302000D02*
X114500D01*
X113000Y300500D02*
Y303500D01*
X111500Y272000D02*
X114500D01*
X113000Y270500D02*
Y273500D01*
X111500Y242000D02*
X114500D01*
X113000Y240500D02*
Y243500D01*
X111500Y227000D02*
X114500D01*
X113000Y225500D02*
Y228500D01*
X96500Y392000D02*
X99500D01*
X98000Y390500D02*
Y393500D01*
X96500Y377000D02*
X99500D01*
X98000Y375500D02*
Y378500D01*
X96500Y257000D02*
X99500D01*
X98000Y255500D02*
Y258500D01*
X96500Y242000D02*
X99500D01*
X98000Y240500D02*
Y243500D01*
X81500Y392000D02*
X84500D01*
X83000Y390500D02*
Y393500D01*
X81500Y377000D02*
X84500D01*
X83000Y375500D02*
Y378500D01*
X81500Y362000D02*
X84500D01*
X83000Y360500D02*
Y363500D01*
X66500Y392000D02*
X69500D01*
X68000Y390500D02*
Y393500D01*
X66500Y377000D02*
X69500D01*
X68000Y375500D02*
Y378500D01*
X66500Y317000D02*
X69500D01*
X68000Y315500D02*
Y318500D01*
X66500Y257000D02*
X69500D01*
X68000Y255500D02*
Y258500D01*
X66500Y242000D02*
X69500D01*
X68000Y240500D02*
Y243500D01*
X66500Y227000D02*
X69500D01*
X68000Y225500D02*
Y228500D01*
X51500Y392000D02*
X54500D01*
X53000Y390500D02*
Y393500D01*
X51500Y377000D02*
X54500D01*
X53000Y375500D02*
Y378500D01*
X51500Y257000D02*
X54500D01*
X53000Y255500D02*
Y258500D01*
X51500Y242000D02*
X54500D01*
X53000Y240500D02*
Y243500D01*
X51500Y227000D02*
X54500D01*
X53000Y225500D02*
Y228500D01*
X36500Y392000D02*
X39500D01*
X38000Y390500D02*
Y393500D01*
X36500Y377000D02*
X39500D01*
X38000Y375500D02*
Y378500D01*
X36500Y317000D02*
X39500D01*
X38000Y315500D02*
Y318500D01*
X36500Y257000D02*
X39500D01*
X38000Y255500D02*
Y258500D01*
X36500Y242000D02*
X39500D01*
X38000Y240500D02*
Y243500D01*
X36500Y227000D02*
X39500D01*
X38000Y225500D02*
Y228500D01*
X21500Y392000D02*
X24500D01*
X23000Y390500D02*
Y393500D01*
X21500Y377000D02*
X24500D01*
X23000Y375500D02*
Y378500D01*
X21500Y362000D02*
X24500D01*
X23000Y360500D02*
Y363500D01*
X21500Y347000D02*
X24500D01*
X23000Y345500D02*
Y348500D01*
X6500Y392000D02*
X9500D01*
X8000Y390500D02*
Y393500D01*
X6500Y377000D02*
X9500D01*
X8000Y375500D02*
Y378500D01*
X6500Y257000D02*
X9500D01*
X8000Y255500D02*
Y258500D01*
X6500Y242000D02*
X9500D01*
X8000Y240500D02*
Y243500D01*
X6500Y227000D02*
X9500D01*
X8000Y225500D02*
Y228500D01*
X19470Y306832D02*
X22470D01*
X20970Y305332D02*
Y308332D01*
X19470Y316750D02*
X22470D01*
X20970Y315250D02*
Y318250D01*
X101500Y153000D02*
X104500D01*
X103000Y151500D02*
Y154500D01*
X85500Y150096D02*
X88500D01*
X87000Y148596D02*
Y151596D01*
X125500Y123000D02*
X128500D01*
X127000Y121500D02*
Y124500D01*
X175933Y176896D02*
X178934D01*
X177433Y175396D02*
Y178396D01*
X153440Y201676D02*
X156440D01*
X154940Y200176D02*
Y203176D01*
X103688Y286750D02*
X106688D01*
X105188Y285250D02*
Y288250D01*
X38378Y201676D02*
X41378D01*
X39878Y200176D02*
Y203176D01*
X48538Y201676D02*
X51538D01*
X50038Y200176D02*
Y203176D01*
X58698Y201930D02*
X61698D01*
X60198Y200430D02*
Y203430D01*
X58698Y217932D02*
X61698D01*
X60198Y216432D02*
Y219432D01*
X22122Y163830D02*
X25122D01*
X23622Y162330D02*
Y165330D01*
X95782Y85598D02*
X98782D01*
X97282Y84098D02*
Y87098D01*
X28312Y180086D02*
X31312D01*
X29812Y178586D02*
Y181586D01*
X18312Y180086D02*
X21312D01*
X19812Y178586D02*
Y181586D01*
X35838Y166370D02*
X38838D01*
X37338Y164870D02*
Y167870D01*
X108736Y85090D02*
X111736D01*
X110236Y83590D02*
Y86590D01*
X81558Y111760D02*
X84558D01*
X83058Y110260D02*
Y113260D01*
X122135Y174355D02*
X125135D01*
X123635Y172855D02*
Y175855D01*
X187500Y174000D02*
X190500D01*
X189000Y172500D02*
Y175500D01*
X153500Y180904D02*
X156500D01*
X155000Y179404D02*
Y182404D01*
X192500Y180904D02*
X195500D01*
X194000Y179404D02*
Y182404D01*
M02*
