G04*
G04 #@! TF.GenerationSoftware,Altium Limited,Altium Designer,21.6.4 (81)*
G04*
G04 Layer_Physical_Order=2*
G04 Layer_Color=36540*
%FSLAX44Y44*%
%MOMM*%
G71*
G04*
G04 #@! TF.SameCoordinates,B4D087F0-9EC3-4593-89C5-D5A80E32FEAA*
G04*
G04*
G04 #@! TF.FilePolarity,Positive*
G04*
G01*
G75*
%ADD42C,0.9000*%
%ADD43C,1.6500*%
%ADD44R,1.6500X1.6500*%
%ADD46C,0.6000*%
%ADD47C,2.1590*%
G36*
X215922Y200000D02*
X160255D01*
X159213Y201270D01*
X159294Y201676D01*
X158962Y203342D01*
X158019Y204755D01*
X156606Y205698D01*
X154940Y206030D01*
X153274Y205698D01*
X151861Y204755D01*
X150918Y203342D01*
X150586Y201676D01*
X150667Y201270D01*
X149625Y200000D01*
X65455D01*
X64420Y201270D01*
X64552Y201930D01*
X64220Y203596D01*
X63277Y205009D01*
X61864Y205952D01*
X60198Y206284D01*
X58532Y205952D01*
X57119Y205009D01*
X56176Y203596D01*
X55844Y201930D01*
X55067Y201301D01*
X54392Y201676D01*
X54060Y203342D01*
X53116Y204755D01*
X51704Y205698D01*
X50038Y206030D01*
X48372Y205698D01*
X46960Y204755D01*
X46016Y203342D01*
X45684Y201676D01*
X44958Y201295D01*
X44232Y201676D01*
X43900Y203342D01*
X42957Y204755D01*
X41544Y205698D01*
X39878Y206030D01*
X38212Y205698D01*
X36799Y204755D01*
X35856Y203342D01*
X35524Y201676D01*
X35605Y201270D01*
X34563Y200000D01*
X4078D01*
X4078Y395922D01*
X215922D01*
Y200000D01*
D02*
G37*
%LPC*%
G36*
X20970Y321104D02*
X19304Y320772D01*
X17891Y319828D01*
X16948Y318416D01*
X16616Y316750D01*
X16948Y315084D01*
X17891Y313671D01*
X19304Y312728D01*
X20970Y312396D01*
X22636Y312728D01*
X24049Y313671D01*
X24992Y315084D01*
X25324Y316750D01*
X24992Y318416D01*
X24049Y319828D01*
X22636Y320772D01*
X20970Y321104D01*
D02*
G37*
G36*
Y311186D02*
X19304Y310854D01*
X17891Y309911D01*
X16948Y308498D01*
X16616Y306832D01*
X16948Y305166D01*
X17891Y303754D01*
X19304Y302810D01*
X20970Y302478D01*
X22636Y302810D01*
X24049Y303754D01*
X24992Y305166D01*
X25324Y306832D01*
X24992Y308498D01*
X24049Y309911D01*
X22636Y310854D01*
X20970Y311186D01*
D02*
G37*
G36*
X105188Y291104D02*
X103522Y290772D01*
X102109Y289828D01*
X101165Y288416D01*
X100834Y286750D01*
X101165Y285084D01*
X102109Y283671D01*
X103522Y282728D01*
X105188Y282396D01*
X106854Y282728D01*
X108266Y283671D01*
X109210Y285084D01*
X109541Y286750D01*
X109210Y288416D01*
X108266Y289828D01*
X106854Y290772D01*
X105188Y291104D01*
D02*
G37*
G36*
X60198Y222286D02*
X58532Y221954D01*
X57119Y221010D01*
X56176Y219598D01*
X55844Y217932D01*
X56176Y216266D01*
X57119Y214853D01*
X58532Y213910D01*
X60198Y213578D01*
X61864Y213910D01*
X63277Y214853D01*
X64220Y216266D01*
X64552Y217932D01*
X64220Y219598D01*
X63277Y221010D01*
X61864Y221954D01*
X60198Y222286D01*
D02*
G37*
%LPD*%
D42*
X135400Y89840D02*
D03*
Y110160D02*
D03*
X84600Y100000D02*
D03*
D43*
X71900Y42200D02*
D03*
X97300D02*
D03*
X122700D02*
D03*
X173500D02*
D03*
X148100D02*
D03*
X46500D02*
D03*
X21100D02*
D03*
D44*
X198900D02*
D03*
D46*
X8000Y215000D02*
D03*
X67000Y279000D02*
D03*
X52000D02*
D03*
X36000D02*
D03*
X78000Y306000D02*
D03*
Y329000D02*
D03*
X69000Y338000D02*
D03*
X58000D02*
D03*
X47000D02*
D03*
X35000D02*
D03*
X67000Y297000D02*
D03*
X37000D02*
D03*
X8000Y204000D02*
D03*
X89000Y212000D02*
D03*
X88000Y227000D02*
D03*
X98000Y207000D02*
D03*
X113000D02*
D03*
X128000D02*
D03*
X212000Y204000D02*
D03*
Y216000D02*
D03*
Y228000D02*
D03*
Y243000D02*
D03*
Y257000D02*
D03*
Y272000D02*
D03*
Y287000D02*
D03*
Y302000D02*
D03*
Y317000D02*
D03*
Y332000D02*
D03*
Y347000D02*
D03*
Y362000D02*
D03*
Y377000D02*
D03*
Y392000D02*
D03*
X203000D02*
D03*
Y377000D02*
D03*
Y362000D02*
D03*
Y347000D02*
D03*
Y332000D02*
D03*
Y317000D02*
D03*
Y302000D02*
D03*
Y287000D02*
D03*
Y272000D02*
D03*
Y257000D02*
D03*
X188000Y392000D02*
D03*
Y377000D02*
D03*
Y362000D02*
D03*
Y347000D02*
D03*
Y332000D02*
D03*
Y317000D02*
D03*
Y302000D02*
D03*
Y287000D02*
D03*
Y272000D02*
D03*
X173000Y392000D02*
D03*
Y377000D02*
D03*
Y362000D02*
D03*
Y347000D02*
D03*
Y332000D02*
D03*
Y317000D02*
D03*
Y302000D02*
D03*
Y287000D02*
D03*
Y242000D02*
D03*
X158000Y392000D02*
D03*
Y377000D02*
D03*
Y362000D02*
D03*
Y347000D02*
D03*
Y332000D02*
D03*
Y317000D02*
D03*
Y302000D02*
D03*
Y257000D02*
D03*
X143000Y392000D02*
D03*
Y377000D02*
D03*
Y362000D02*
D03*
Y347000D02*
D03*
Y332000D02*
D03*
Y317000D02*
D03*
Y272000D02*
D03*
X128000Y392000D02*
D03*
Y377000D02*
D03*
Y332000D02*
D03*
Y287000D02*
D03*
Y227000D02*
D03*
X113000Y392000D02*
D03*
Y377000D02*
D03*
Y302000D02*
D03*
Y272000D02*
D03*
Y242000D02*
D03*
Y227000D02*
D03*
X98000Y392000D02*
D03*
Y377000D02*
D03*
Y257000D02*
D03*
Y242000D02*
D03*
X83000Y392000D02*
D03*
Y377000D02*
D03*
Y362000D02*
D03*
X68000Y392000D02*
D03*
Y377000D02*
D03*
Y317000D02*
D03*
Y257000D02*
D03*
Y242000D02*
D03*
Y227000D02*
D03*
X53000Y392000D02*
D03*
Y377000D02*
D03*
Y257000D02*
D03*
Y242000D02*
D03*
Y227000D02*
D03*
X38000Y392000D02*
D03*
Y377000D02*
D03*
Y317000D02*
D03*
Y257000D02*
D03*
Y242000D02*
D03*
Y227000D02*
D03*
X23000Y392000D02*
D03*
Y377000D02*
D03*
Y362000D02*
D03*
Y347000D02*
D03*
X8000Y392000D02*
D03*
Y377000D02*
D03*
Y257000D02*
D03*
Y242000D02*
D03*
Y227000D02*
D03*
X20970Y306832D02*
D03*
Y316750D02*
D03*
X103000Y153000D02*
D03*
X87000Y150096D02*
D03*
X127000Y123000D02*
D03*
X177433Y176896D02*
D03*
X154940Y201676D02*
D03*
X105188Y286750D02*
D03*
X39878Y201676D02*
D03*
X50038D02*
D03*
X60198Y201930D02*
D03*
Y217932D02*
D03*
X23622Y163830D02*
D03*
X97282Y85598D02*
D03*
X29812Y180086D02*
D03*
X19812D02*
D03*
X37338Y166370D02*
D03*
X110236Y85090D02*
D03*
X83058Y111760D02*
D03*
X123635Y174355D02*
D03*
X189000Y174000D02*
D03*
X155000Y180904D02*
D03*
X194000D02*
D03*
D47*
X185000Y100000D02*
D03*
X35000D02*
D03*
M02*
