G04*
G04 #@! TF.GenerationSoftware,Altium Limited,Altium Designer,21.6.4 (81)*
G04*
G04 Layer_Color=32768*
%FSLAX44Y44*%
%MOMM*%
G71*
G04*
G04 #@! TF.SameCoordinates,B4D087F0-9EC3-4593-89C5-D5A80E32FEAA*
G04*
G04*
G04 #@! TF.FilePolarity,Positive*
G04*
G01*
G75*
%ADD48C,0.0500*%
%ADD49C,0.0508*%
D48*
X92250Y185500D02*
X87252D01*
Y187999D01*
X88085Y188832D01*
X89751D01*
X90584Y187999D01*
Y185500D01*
Y187166D02*
X92250Y188832D01*
Y190498D02*
Y192164D01*
Y191331D01*
X87252D01*
X88085Y190498D01*
X87252Y194664D02*
Y197996D01*
X88085D01*
X91417Y194664D01*
X92250D01*
X139250Y185500D02*
X134252D01*
Y187999D01*
X135085Y188832D01*
X136751D01*
X137584Y187999D01*
Y185500D01*
Y187166D02*
X139250Y188832D01*
Y190498D02*
Y192164D01*
Y191331D01*
X134252D01*
X135085Y190498D01*
X134252Y197996D02*
X135085Y196330D01*
X136751Y194664D01*
X138417D01*
X139250Y195497D01*
Y197163D01*
X138417Y197996D01*
X137584D01*
X136751Y197163D01*
Y194664D01*
X82250Y185500D02*
X77252D01*
Y187999D01*
X78085Y188832D01*
X79751D01*
X80584Y187999D01*
Y185500D01*
Y187166D02*
X82250Y188832D01*
Y190498D02*
Y192164D01*
Y191331D01*
X77252D01*
X78085Y190498D01*
X77252Y197996D02*
Y194664D01*
X79751D01*
X78918Y196330D01*
Y197163D01*
X79751Y197996D01*
X81417D01*
X82250Y197163D01*
Y195497D01*
X81417Y194664D01*
X152750Y196500D02*
X157748D01*
Y194001D01*
X156915Y193168D01*
X155249D01*
X154416Y194001D01*
Y196500D01*
Y194834D02*
X152750Y193168D01*
Y191502D02*
Y189835D01*
Y190669D01*
X157748D01*
X156915Y191502D01*
X152750Y187336D02*
Y185670D01*
Y186503D01*
X157748D01*
X156915Y187336D01*
X67816Y196500D02*
X72814D01*
Y194001D01*
X71981Y193168D01*
X70315D01*
X69482Y194001D01*
Y196500D01*
Y194834D02*
X67816Y193168D01*
Y191502D02*
Y189835D01*
Y190669D01*
X72814D01*
X71981Y191502D01*
Y187336D02*
X72814Y186503D01*
Y184837D01*
X71981Y184004D01*
X68649D01*
X67816Y184837D01*
Y186503D01*
X68649Y187336D01*
X71981D01*
X172750Y196500D02*
X177748D01*
Y194001D01*
X176915Y193168D01*
X175249D01*
X174416Y194001D01*
Y196500D01*
Y194834D02*
X172750Y193168D01*
X173583Y191502D02*
X172750Y190669D01*
Y189002D01*
X173583Y188169D01*
X176915D01*
X177748Y189002D01*
Y190669D01*
X176915Y191502D01*
X176082D01*
X175249Y190669D01*
Y188169D01*
X27618Y196500D02*
X32616D01*
Y194001D01*
X31783Y193168D01*
X30117D01*
X29284Y194001D01*
Y196500D01*
Y194834D02*
X27618Y193168D01*
X31783Y191502D02*
X32616Y190669D01*
Y189002D01*
X31783Y188169D01*
X30950D01*
X30117Y189002D01*
X29284Y188169D01*
X28451D01*
X27618Y189002D01*
Y190669D01*
X28451Y191502D01*
X29284D01*
X30117Y190669D01*
X30950Y191502D01*
X31783D01*
X30117Y190669D02*
Y189002D01*
X37628Y196508D02*
X42626D01*
Y194009D01*
X41793Y193176D01*
X40127D01*
X39294Y194009D01*
Y196508D01*
Y194842D02*
X37628Y193176D01*
X42626Y191510D02*
Y188177D01*
X41793D01*
X38461Y191510D01*
X37628D01*
X17618Y196500D02*
X22616D01*
Y194001D01*
X21783Y193168D01*
X20117D01*
X19284Y194001D01*
Y196500D01*
Y194834D02*
X17618Y193168D01*
X22616Y188169D02*
X21783Y189835D01*
X20117Y191502D01*
X18451D01*
X17618Y190669D01*
Y189002D01*
X18451Y188169D01*
X19284D01*
X20117Y189002D01*
Y191502D01*
X47816Y196500D02*
X52814D01*
Y194001D01*
X51981Y193168D01*
X50315D01*
X49482Y194001D01*
Y196500D01*
Y194834D02*
X47816Y193168D01*
X52814Y188169D02*
Y191502D01*
X50315D01*
X51148Y189835D01*
Y189002D01*
X50315Y188169D01*
X48649D01*
X47816Y189002D01*
Y190669D01*
X48649Y191502D01*
X57816Y196500D02*
X62814D01*
Y194001D01*
X61981Y193168D01*
X60315D01*
X59482Y194001D01*
Y196500D01*
Y194834D02*
X57816Y193168D01*
Y189002D02*
X62814D01*
X60315Y191502D01*
Y188169D01*
X169760Y96190D02*
Y106187D01*
X173092Y102854D01*
X176425Y106187D01*
Y96190D01*
X179757Y106187D02*
Y96190D01*
Y101188D01*
X186421D01*
Y106187D01*
Y96190D01*
X196418D02*
X189754D01*
X196418Y102854D01*
Y104521D01*
X194752Y106187D01*
X191420D01*
X189754Y104521D01*
X19760Y96190D02*
Y106187D01*
X23092Y102854D01*
X26425Y106187D01*
Y96190D01*
X29757Y106187D02*
Y96190D01*
Y101188D01*
X36421D01*
Y106187D01*
Y96190D01*
X39754D02*
X43086D01*
X41420D01*
Y106187D01*
X39754Y104521D01*
X191750Y196500D02*
X196748D01*
Y194001D01*
X195915Y193168D01*
X194249D01*
X193416Y194001D01*
Y196500D01*
Y194834D02*
X191750Y193168D01*
X195915Y191502D02*
X196748Y190669D01*
Y189002D01*
X195915Y188169D01*
X195082D01*
X194249Y189002D01*
Y189835D01*
Y189002D01*
X193416Y188169D01*
X192583D01*
X191750Y189002D01*
Y190669D01*
X192583Y191502D01*
X171997Y155496D02*
X169498Y157995D01*
X164499D01*
X162000Y155496D01*
Y152997D01*
X164499Y150498D01*
X169498D01*
X171997Y147998D01*
Y145499D01*
X169498Y143000D01*
X164499D01*
X162000Y145499D01*
X176995Y157995D02*
Y143000D01*
X181994Y147998D01*
X186992Y143000D01*
Y157995D01*
X201987Y143000D02*
X191990D01*
X201987Y152997D01*
Y155496D01*
X199488Y157995D01*
X194489D01*
X191990Y155496D01*
X109000Y143997D02*
Y136000D01*
X112999D01*
X114332Y137333D01*
Y142664D01*
X112999Y143997D01*
X109000D01*
X116997Y142664D02*
X118330Y143997D01*
X120996D01*
X122329Y142664D01*
Y141332D01*
X120996Y139999D01*
X119663D01*
X120996D01*
X122329Y138666D01*
Y137333D01*
X120996Y136000D01*
X118330D01*
X116997Y137333D01*
X48003Y144504D02*
X50502Y142005D01*
X55501D01*
X58000Y144504D01*
Y147003D01*
X55501Y149502D01*
X50502D01*
X48003Y152002D01*
Y154501D01*
X50502Y157000D01*
X55501D01*
X58000Y154501D01*
X43005Y142005D02*
Y157000D01*
X38006Y152002D01*
X33008Y157000D01*
Y142005D01*
X28010Y157000D02*
X23011D01*
X25510D01*
Y142005D01*
X28010Y144504D01*
X182750Y196500D02*
X187748D01*
Y194001D01*
X186915Y193168D01*
X185249D01*
X184416Y194001D01*
Y196500D01*
Y194834D02*
X182750Y193168D01*
Y188169D02*
Y191502D01*
X186082Y188169D01*
X186915D01*
X187748Y189002D01*
Y190669D01*
X186915Y191502D01*
X162750Y196500D02*
X167748D01*
Y194001D01*
X166915Y193168D01*
X165249D01*
X164416Y194001D01*
Y196500D01*
Y194834D02*
X162750Y193168D01*
Y191502D02*
Y189835D01*
Y190669D01*
X167748D01*
X166915Y191502D01*
D49*
X163000Y172498D02*
Y168000D01*
X165249D01*
X165999Y168750D01*
Y171749D01*
X165249Y172498D01*
X163000D01*
X170498Y168000D02*
X167498D01*
X170498Y170999D01*
Y171749D01*
X169748Y172498D01*
X168248D01*
X167498Y171749D01*
X32264Y167427D02*
Y171926D01*
X30015D01*
X29265Y171176D01*
Y168177D01*
X30015Y167427D01*
X32264D01*
X27766Y171926D02*
X26266D01*
X27016D01*
Y167427D01*
X27766Y168177D01*
M02*
