G04*
G04 #@! TF.GenerationSoftware,Altium Limited,Altium Designer,21.6.4 (81)*
G04*
G04 Layer_Color=16711935*
%FSLAX44Y44*%
%MOMM*%
G71*
G04*
G04 #@! TF.SameCoordinates,73C44879-B0ED-4A5D-A374-7D9F3B14191D*
G04*
G04*
G04 #@! TF.FilePolarity,Positive*
G04*
G01*
G75*
%ADD45C,0.0500*%
%ADD47C,0.1000*%
D45*
X193890Y100000D02*
G03*
X193890Y100000I-8890J0D01*
G01*
X43890D02*
G03*
X43890Y100000I-8890J0D01*
G01*
X99500Y134500D02*
X120500D01*
X99500D02*
Y155500D01*
X120500D01*
Y134500D02*
Y155500D01*
X67000Y246500D02*
Y252500D01*
Y246500D02*
X78000D01*
Y252500D01*
X67000D02*
X78000D01*
X95000Y194500D02*
X101000D01*
X95000Y205500D02*
X101000D01*
X95000Y194500D02*
Y205500D01*
X101000Y194500D02*
Y205500D01*
X208000Y194500D02*
Y205500D01*
X214000Y194500D02*
Y205500D01*
X208000Y194500D02*
X214000D01*
X208000Y205500D02*
X214000D01*
X200000Y194500D02*
Y205500D01*
X206000Y194500D02*
Y205500D01*
X200000Y194500D02*
X206000D01*
X200000Y205500D02*
X206000D01*
X192000Y194500D02*
Y205500D01*
X198000Y194500D02*
Y205500D01*
X192000Y194500D02*
X198000D01*
X192000Y205500D02*
X198000D01*
X37000Y298500D02*
X53000D01*
X37000Y265500D02*
X53000D01*
Y298500D01*
X37000Y265500D02*
Y298500D01*
X61000Y399250D02*
X159000D01*
X61000Y259250D02*
X159000D01*
Y399250D01*
X61000Y259250D02*
Y399250D01*
X176500Y137500D02*
X193498Y137501D01*
X193500Y137500D01*
X205000D01*
X165000D02*
X176500D01*
X205000D02*
Y162500D01*
X165000Y137500D02*
Y162500D01*
X205000D01*
X26502Y162499D02*
X43500Y162500D01*
X26500D02*
X26502Y162499D01*
X15000Y162500D02*
X26500D01*
X43500D02*
X55000D01*
X15000Y137500D02*
Y162500D01*
X55000Y137500D02*
Y162500D01*
X15000Y137500D02*
X55000D01*
X125000Y194500D02*
Y205500D01*
X119000Y194500D02*
Y205500D01*
X125000D01*
X119000Y194500D02*
X125000D01*
X109000D02*
Y205500D01*
X103000Y194500D02*
Y205500D01*
X109000D01*
X103000Y194500D02*
X109000D01*
X93000D02*
Y205500D01*
X87000Y194500D02*
Y205500D01*
X93000D01*
X87000Y194500D02*
X93000D01*
X133000D02*
Y205500D01*
X127000Y194500D02*
Y205500D01*
X133000D01*
X127000Y194500D02*
X133000D01*
X117000D02*
Y205500D01*
X111000Y194500D02*
Y205500D01*
X117000D01*
X111000Y194500D02*
X117000D01*
X152000Y194500D02*
Y205500D01*
X158000Y194500D02*
Y205500D01*
X152000Y194500D02*
X158000D01*
X152000Y205500D02*
X158000D01*
X160000Y194500D02*
Y205500D01*
X166000Y194500D02*
Y205500D01*
X160000Y194500D02*
X166000D01*
X160000Y205500D02*
X166000D01*
X168000Y194500D02*
Y205500D01*
X174000Y194500D02*
Y205500D01*
X168000Y194500D02*
X174000D01*
X168000Y205500D02*
X174000D01*
X176000Y194500D02*
Y205500D01*
X182000Y194500D02*
Y205500D01*
X176000Y194500D02*
X182000D01*
X176000Y205500D02*
X182000D01*
X184000Y194500D02*
Y205500D01*
X190000Y194500D02*
Y205500D01*
X184000Y194500D02*
X190000D01*
X184000Y205500D02*
X190000D01*
X180999Y173000D02*
X188999D01*
X180999Y167000D02*
X188999D01*
X180999D02*
Y173000D01*
X188999Y167000D02*
Y173000D01*
X31001Y167000D02*
X39001D01*
X31001Y173000D02*
X39001D01*
Y167000D02*
Y173000D01*
X31001Y167000D02*
Y173000D01*
X35000Y316750D02*
Y322750D01*
Y316750D02*
X46000D01*
Y322750D01*
X35000D02*
X46000D01*
X35000Y326750D02*
Y332750D01*
Y326750D02*
X46000D01*
Y332750D01*
X35000D02*
X46000D01*
X35000Y253250D02*
Y259250D01*
Y253250D02*
X46000D01*
Y259250D01*
X35000D02*
X46000D01*
X35000Y304500D02*
Y310500D01*
Y304500D02*
X46000D01*
Y310500D01*
X35000D02*
X46000D01*
D47*
X8400Y27200D02*
X211600D01*
Y1800D02*
Y27200D01*
X8400Y1800D02*
X211600D01*
X8400D02*
Y27200D01*
X71500Y191000D02*
X82500D01*
X71500Y209000D02*
X82500D01*
X71500Y191000D02*
Y209000D01*
X82500Y191000D02*
Y209000D01*
X137500Y191000D02*
X148500D01*
X137500Y209000D02*
X148500D01*
X137500Y191000D02*
Y209000D01*
X148500Y191000D02*
Y209000D01*
M02*
