G04*
G04 #@! TF.GenerationSoftware,Altium Limited,Altium Designer,21.6.4 (81)*
G04*
G04 Layer_Color=128*
%FSLAX44Y44*%
%MOMM*%
G71*
G04*
G04 #@! TF.SameCoordinates,73C44879-B0ED-4A5D-A374-7D9F3B14191D*
G04*
G04*
G04 #@! TF.FilePolarity,Positive*
G04*
G01*
G75*
%ADD46C,0.0508*%
D46*
X176000Y100000D02*
X194000D01*
X185000Y91000D02*
Y109000D01*
X26000Y100000D02*
X44000D01*
X35000Y91000D02*
Y109000D01*
X66400Y42200D02*
X77400D01*
X71900Y36700D02*
Y47700D01*
X91800Y42200D02*
X102800D01*
X97300Y36700D02*
Y47700D01*
X117200Y42200D02*
X128200D01*
X122700Y36700D02*
Y47700D01*
X168000Y42200D02*
X179000D01*
X173500Y36700D02*
Y47700D01*
X193400Y42200D02*
X204400D01*
X198900Y36700D02*
Y47700D01*
X142600Y42200D02*
X153600D01*
X148100Y36700D02*
Y47700D01*
X41000Y42200D02*
X52000D01*
X46500Y36700D02*
Y47700D01*
X15600Y42200D02*
X26600D01*
X21100Y36700D02*
Y47700D01*
X130425Y89940D02*
X140375D01*
X135400Y84965D02*
Y94915D01*
X130425Y110260D02*
X140375D01*
X135400Y105285D02*
Y115235D01*
X79625Y100100D02*
X89575D01*
X84600Y95125D02*
Y105075D01*
X127250Y150500D02*
X130250D01*
X128750Y149000D02*
Y152000D01*
X28250Y195000D02*
X31250D01*
X29750Y193500D02*
Y196500D01*
X199750Y170000D02*
X202750D01*
X201250Y168500D02*
Y171500D01*
X153500Y187500D02*
X156500D01*
X155000Y186000D02*
Y189000D01*
X209500Y187500D02*
X212500D01*
X211000Y186000D02*
Y189000D01*
X201500Y187500D02*
X204500D01*
X203000Y186000D02*
Y189000D01*
X193500Y187500D02*
X196500D01*
X195000Y186000D02*
Y189000D01*
X161500Y187500D02*
X164500D01*
X163000Y186000D02*
Y189000D01*
X169500Y187500D02*
X172500D01*
X171000Y186000D02*
Y189000D01*
X66500Y241750D02*
X69500D01*
X68000Y240250D02*
Y243250D01*
X58500Y249500D02*
X61500D01*
X60000Y248000D02*
Y251000D01*
X75500Y240250D02*
X78500D01*
X77000Y238750D02*
Y241750D01*
X64500Y257500D02*
X67500D01*
X66000Y256000D02*
Y259000D01*
X48500Y337500D02*
X51500D01*
X50000Y336000D02*
Y339000D01*
X33500Y337500D02*
X36500D01*
X35000Y336000D02*
Y339000D01*
X81000Y280500D02*
X84000D01*
X82500Y279000D02*
Y282000D01*
X211000Y217000D02*
X214000D01*
X212500Y215500D02*
Y218500D01*
X211000Y232000D02*
X214000D01*
X212500Y230500D02*
Y233500D01*
X211000Y247000D02*
X214000D01*
X212500Y245500D02*
Y248500D01*
X211000Y262000D02*
X214000D01*
X212500Y260500D02*
Y263500D01*
X211000Y277000D02*
X214000D01*
X212500Y275500D02*
Y278500D01*
X211000Y292000D02*
X214000D01*
X212500Y290500D02*
Y293500D01*
X211000Y307000D02*
X214000D01*
X212500Y305500D02*
Y308500D01*
X211000Y322000D02*
X214000D01*
X212500Y320500D02*
Y323500D01*
X211000Y337000D02*
X214000D01*
X212500Y335500D02*
Y338500D01*
X211000Y352000D02*
X214000D01*
X212500Y350500D02*
Y353500D01*
X54500Y306750D02*
X57500D01*
X56000Y305250D02*
Y308250D01*
X43500Y282250D02*
X46500D01*
X45000Y280750D02*
Y283750D01*
X48500Y217000D02*
X51500D01*
X50000Y215500D02*
Y218500D01*
X33500Y217000D02*
X36500D01*
X35000Y215500D02*
Y218500D01*
X18500Y217000D02*
X21500D01*
X20000Y215500D02*
Y218500D01*
X63500Y203250D02*
X66500D01*
X65000Y201750D02*
Y204750D01*
X48500Y203250D02*
X51500D01*
X50000Y201750D02*
Y204750D01*
X33500Y203250D02*
X36500D01*
X35000Y201750D02*
Y204750D01*
X18500Y203250D02*
X21500D01*
X20000Y201750D02*
Y204750D01*
X6000Y203250D02*
X9000D01*
X7500Y201750D02*
Y204750D01*
X6000Y217000D02*
X9000D01*
X7500Y215500D02*
Y218500D01*
X6000Y232000D02*
X9000D01*
X7500Y230500D02*
Y233500D01*
X6000Y247000D02*
X9000D01*
X7500Y245500D02*
Y248500D01*
X6000Y262000D02*
X9000D01*
X7500Y260500D02*
Y263500D01*
X6000Y277000D02*
X9000D01*
X7500Y275500D02*
Y278500D01*
X6000Y292000D02*
X9000D01*
X7500Y290500D02*
Y293500D01*
X6000Y322000D02*
X9000D01*
X7500Y320500D02*
Y323500D01*
X6000Y307000D02*
X9000D01*
X7500Y305500D02*
Y308500D01*
X6000Y337000D02*
X9000D01*
X7500Y335500D02*
Y338500D01*
X6000Y352000D02*
X9000D01*
X7500Y350500D02*
Y353500D01*
X198500Y352000D02*
X201500D01*
X200000Y350500D02*
Y353500D01*
X198500Y337000D02*
X201500D01*
X200000Y335500D02*
Y338500D01*
X198500Y322000D02*
X201500D01*
X200000Y320500D02*
Y323500D01*
X198500Y307000D02*
X201500D01*
X200000Y305500D02*
Y308500D01*
X198500Y292000D02*
X201500D01*
X200000Y290500D02*
Y293500D01*
X198500Y277000D02*
X201500D01*
X200000Y275500D02*
Y278500D01*
X198500Y262000D02*
X201500D01*
X200000Y260500D02*
Y263500D01*
X198500Y247000D02*
X201500D01*
X200000Y245500D02*
Y248500D01*
X198500Y232000D02*
X201500D01*
X200000Y230500D02*
Y233500D01*
X183500Y352000D02*
X186500D01*
X185000Y350500D02*
Y353500D01*
X183500Y337000D02*
X186500D01*
X185000Y335500D02*
Y338500D01*
X183500Y322000D02*
X186500D01*
X185000Y320500D02*
Y323500D01*
X183500Y307000D02*
X186500D01*
X185000Y305500D02*
Y308500D01*
X183500Y292000D02*
X186500D01*
X185000Y290500D02*
Y293500D01*
X168500Y352000D02*
X171500D01*
X170000Y350500D02*
Y353500D01*
X168500Y337000D02*
X171500D01*
X170000Y335500D02*
Y338500D01*
X168500Y322000D02*
X171500D01*
X170000Y320500D02*
Y323500D01*
X153500Y247000D02*
X156500D01*
X155000Y245500D02*
Y248500D01*
X153500Y232000D02*
X156500D01*
X155000Y230500D02*
Y233500D01*
X138500Y247000D02*
X141500D01*
X140000Y245500D02*
Y248500D01*
X138500Y232000D02*
X141500D01*
X140000Y230500D02*
Y233500D01*
X123500Y337000D02*
X126500D01*
X125000Y335500D02*
Y338500D01*
X123500Y322000D02*
X126500D01*
X125000Y320500D02*
Y323500D01*
X123500Y307000D02*
X126500D01*
X125000Y305500D02*
Y308500D01*
X123500Y292000D02*
X126500D01*
X125000Y290500D02*
Y293500D01*
X123500Y247000D02*
X126500D01*
X125000Y245500D02*
Y248500D01*
X123500Y232000D02*
X126500D01*
X125000Y230500D02*
Y233500D01*
X108500Y352000D02*
X111500D01*
X110000Y350500D02*
Y353500D01*
X108500Y337000D02*
X111500D01*
X110000Y335500D02*
Y338500D01*
X108500Y322000D02*
X111500D01*
X110000Y320500D02*
Y323500D01*
X108500Y307000D02*
X111500D01*
X110000Y305500D02*
Y308500D01*
X108500Y292000D02*
X111500D01*
X110000Y290500D02*
Y293500D01*
X93500Y337000D02*
X96500D01*
X95000Y335500D02*
Y338500D01*
X93500Y322000D02*
X96500D01*
X95000Y320500D02*
Y323500D01*
X93500Y307000D02*
X96500D01*
X95000Y305500D02*
Y308500D01*
X93500Y292000D02*
X96500D01*
X95000Y290500D02*
Y293500D01*
X93500Y232000D02*
X96500D01*
X95000Y230500D02*
Y233500D01*
X78500Y232000D02*
X81500D01*
X80000Y230500D02*
Y233500D01*
X63500Y232000D02*
X66500D01*
X65000Y230500D02*
Y233500D01*
X48500Y352000D02*
X51500D01*
X50000Y350500D02*
Y353500D01*
X48500Y247000D02*
X51500D01*
X50000Y245500D02*
Y248500D01*
X48500Y232000D02*
X51500D01*
X50000Y230500D02*
Y233500D01*
X33500Y352000D02*
X36500D01*
X35000Y350500D02*
Y353500D01*
X33500Y247000D02*
X36500D01*
X35000Y245500D02*
Y248500D01*
X33500Y232000D02*
X36500D01*
X35000Y230500D02*
Y233500D01*
X18500Y352000D02*
X21500D01*
X20000Y350500D02*
Y353500D01*
X18500Y337000D02*
X21500D01*
X20000Y335500D02*
Y338500D01*
X18500Y322000D02*
X21500D01*
X20000Y320500D02*
Y323500D01*
X18500Y307000D02*
X21500D01*
X20000Y305500D02*
Y308500D01*
X18500Y292000D02*
X21500D01*
X20000Y290500D02*
Y293500D01*
X18500Y277000D02*
X21500D01*
X20000Y275500D02*
Y278500D01*
X18500Y262000D02*
X21500D01*
X20000Y260500D02*
Y263500D01*
X18500Y247000D02*
X21500D01*
X20000Y245500D02*
Y248500D01*
X18500Y232000D02*
X21500D01*
X20000Y230500D02*
Y233500D01*
X82000Y214500D02*
X85000D01*
X83500Y213000D02*
Y216000D01*
X69000Y214500D02*
X72000D01*
X70500Y213000D02*
Y216000D01*
X75500Y214500D02*
X78500D01*
X77000Y213000D02*
Y216000D01*
X128500Y185000D02*
X131500D01*
X130000Y183500D02*
Y186500D01*
X112500Y185000D02*
X115500D01*
X114000Y183500D02*
Y186500D01*
X96000Y85540D02*
X99000D01*
X97500Y84040D02*
Y87040D01*
X108500Y85540D02*
X111500D01*
X110000Y84040D02*
Y87040D01*
X141500Y185000D02*
X144500D01*
X143000Y183500D02*
Y186500D01*
X151000Y141250D02*
X154000D01*
X152500Y139750D02*
Y142750D01*
X157311Y149939D02*
X160311D01*
X158811Y148439D02*
Y151439D01*
X120500Y185000D02*
X123500D01*
X122000Y183500D02*
Y186500D01*
X104500Y185000D02*
X107500D01*
X106000Y183500D02*
Y186500D01*
X88500Y185000D02*
X91500D01*
X90000Y183500D02*
Y186500D01*
X96500Y185000D02*
X99500D01*
X98000Y183500D02*
Y186500D01*
X148000Y214500D02*
X151000D01*
X149500Y213000D02*
Y216000D01*
X135000Y214500D02*
X138000D01*
X136500Y213000D02*
Y216000D01*
X141500Y214500D02*
X144500D01*
X143000Y213000D02*
Y216000D01*
X159500Y264750D02*
X162500D01*
X161000Y263250D02*
Y266250D01*
X152750Y257750D02*
X155750D01*
X154250Y256250D02*
Y259250D01*
X141500Y257750D02*
X144500D01*
X143000Y256250D02*
Y259250D01*
X57250Y264750D02*
X60250D01*
X58750Y263250D02*
Y266250D01*
X144250Y273250D02*
X147250D01*
X145750Y271750D02*
Y274750D01*
X72750Y273000D02*
X75750D01*
X74250Y271500D02*
Y274500D01*
X57750Y330750D02*
X60750D01*
X59250Y329250D02*
Y332250D01*
X131750Y352000D02*
X134750D01*
X133250Y350500D02*
Y353500D01*
X118250Y352000D02*
X121250D01*
X119750Y350500D02*
Y353500D01*
X98750Y352000D02*
X101750D01*
X100250Y350500D02*
Y353500D01*
X85250Y352000D02*
X88250D01*
X86750Y350500D02*
Y353500D01*
X159250Y352000D02*
X162250D01*
X160750Y350500D02*
Y353500D01*
X80250Y336250D02*
X83250D01*
X81750Y334750D02*
Y337750D01*
X80250Y347250D02*
X83250D01*
X81750Y345750D02*
Y348750D01*
X57500Y341500D02*
X60500D01*
X59000Y340000D02*
Y343000D01*
X57500Y352000D02*
X60500D01*
X59000Y350500D02*
Y353500D01*
M02*
