G04*
G04 #@! TF.GenerationSoftware,Altium Limited,Altium Designer,21.6.4 (81)*
G04*
G04 Layer_Color=8421504*
%FSLAX44Y44*%
%MOMM*%
G71*
G04*
G04 #@! TF.SameCoordinates,73C44879-B0ED-4A5D-A374-7D9F3B14191D*
G04*
G04*
G04 #@! TF.FilePolarity,Positive*
G04*
G01*
G75*
%ADD14R,1.0000X0.8000*%
%ADD15R,0.6200X0.6200*%
%ADD16R,0.5500X0.5200*%
%ADD17R,1.0200X0.6400*%
%ADD18R,1.5500X1.0000*%
%ADD19R,0.4900X0.4900*%
%ADD20R,0.8000X1.7000*%
%ADD21C,0.0100*%
%ADD22R,0.3600X0.3500*%
D14*
X102500Y139500D02*
D03*
X117500D02*
D03*
Y150500D02*
D03*
X102500D02*
D03*
D15*
X68000Y249500D02*
D03*
X77000D02*
D03*
X36000Y319750D02*
D03*
X45000D02*
D03*
X36000Y329750D02*
D03*
X45000D02*
D03*
X36000Y256250D02*
D03*
X45000D02*
D03*
X36000Y307500D02*
D03*
X45000D02*
D03*
D16*
X98000Y196000D02*
D03*
Y204000D02*
D03*
X211000Y196000D02*
D03*
Y204000D02*
D03*
X203000Y196000D02*
D03*
Y204000D02*
D03*
X195000Y196000D02*
D03*
Y204000D02*
D03*
X122000D02*
D03*
Y196000D02*
D03*
X106000Y204000D02*
D03*
Y196000D02*
D03*
X90000Y204000D02*
D03*
Y196000D02*
D03*
X130000Y204000D02*
D03*
Y196000D02*
D03*
X114000Y204000D02*
D03*
Y196000D02*
D03*
X155000D02*
D03*
Y204000D02*
D03*
X163000Y196000D02*
D03*
Y204000D02*
D03*
X171000Y196000D02*
D03*
Y204000D02*
D03*
X179000Y196000D02*
D03*
Y204000D02*
D03*
X187000Y196000D02*
D03*
Y204000D02*
D03*
D17*
X77000Y193150D02*
D03*
Y206850D02*
D03*
X143000Y193150D02*
D03*
Y206850D02*
D03*
D18*
X45000Y269000D02*
D03*
Y295000D02*
D03*
D19*
X145000Y347250D02*
D03*
Y336250D02*
D03*
Y325250D02*
D03*
Y314250D02*
D03*
Y303250D02*
D03*
Y292250D02*
D03*
Y281250D02*
D03*
X154000Y352750D02*
D03*
Y341750D02*
D03*
Y330750D02*
D03*
Y319750D02*
D03*
Y308750D02*
D03*
Y297750D02*
D03*
Y286750D02*
D03*
Y275750D02*
D03*
X137500Y273750D02*
D03*
X126500D02*
D03*
X115500D02*
D03*
X104500D02*
D03*
X93500D02*
D03*
X82500D02*
D03*
X154000Y264750D02*
D03*
X143000D02*
D03*
X132000D02*
D03*
X121000D02*
D03*
X110000D02*
D03*
X99000D02*
D03*
X88000D02*
D03*
X77000D02*
D03*
X66000D02*
D03*
Y352750D02*
D03*
X75000Y347250D02*
D03*
X66000Y341750D02*
D03*
Y330750D02*
D03*
Y319750D02*
D03*
Y308750D02*
D03*
Y297750D02*
D03*
Y286750D02*
D03*
Y275750D02*
D03*
X75000Y336250D02*
D03*
Y325250D02*
D03*
Y314250D02*
D03*
Y303250D02*
D03*
Y292250D02*
D03*
Y281250D02*
D03*
X126500Y352750D02*
D03*
X93500D02*
D03*
D20*
X202000Y150000D02*
D03*
X168000D02*
D03*
X18000D02*
D03*
X52000D02*
D03*
D21*
X122700Y106450D02*
D03*
Y93750D02*
D03*
X110000Y106450D02*
D03*
Y93750D02*
D03*
X97300Y106450D02*
D03*
Y93750D02*
D03*
D22*
X180800Y170000D02*
D03*
X189200D02*
D03*
X39200Y170000D02*
D03*
X30800D02*
D03*
M02*
