G04*
G04 #@! TF.GenerationSoftware,Altium Limited,Altium Designer,21.6.4 (81)*
G04*
G04 Layer_Physical_Order=2*
G04 Layer_Color=36540*
%FSLAX44Y44*%
%MOMM*%
G71*
G04*
G04 #@! TF.SameCoordinates,73C44879-B0ED-4A5D-A374-7D9F3B14191D*
G04*
G04*
G04 #@! TF.FilePolarity,Positive*
G04*
G01*
G75*
%ADD11C,0.2540*%
%ADD40C,1.6500*%
%ADD41R,1.6500X1.6500*%
%ADD42C,0.9000*%
%ADD43C,0.6000*%
%ADD44C,2.1590*%
G36*
X215922Y200000D02*
X4078D01*
X4078Y355250D01*
X215922D01*
X215922Y200000D01*
D02*
G37*
%LPC*%
G36*
X77000Y244604D02*
X75334Y244272D01*
X73921Y243328D01*
X72978Y241916D01*
X72646Y240250D01*
X72978Y238584D01*
X73921Y237171D01*
X75334Y236228D01*
X77000Y235896D01*
X78666Y236228D01*
X80078Y237171D01*
X81022Y238584D01*
X81354Y240250D01*
X81022Y241916D01*
X80078Y243328D01*
X78666Y244272D01*
X77000Y244604D01*
D02*
G37*
G36*
X83500Y218854D02*
X81834Y218522D01*
X80422Y217579D01*
X80078D01*
X78666Y218522D01*
X77000Y218854D01*
X75334Y218522D01*
X74740Y218126D01*
X73750Y217659D01*
X72760Y218126D01*
X72166Y218522D01*
X70500Y218854D01*
X68834Y218522D01*
X67421Y217579D01*
X66478Y216166D01*
X66146Y214500D01*
X66478Y212834D01*
X67421Y211422D01*
X68834Y210478D01*
X70500Y210146D01*
X72166Y210478D01*
X72760Y210874D01*
X73750Y211341D01*
X74740Y210874D01*
X75334Y210478D01*
X77000Y210146D01*
X78666Y210478D01*
X80078Y211422D01*
X80422D01*
X81834Y210478D01*
X83500Y210146D01*
X85166Y210478D01*
X86579Y211422D01*
X87522Y212834D01*
X87854Y214500D01*
X87522Y216166D01*
X86579Y217579D01*
X85166Y218522D01*
X83500Y218854D01*
D02*
G37*
%LPD*%
D11*
X35000Y100000D02*
X102750Y167750D01*
X125750D01*
X143000Y185000D01*
X35000Y100000D02*
X55000Y80000D01*
X165000D02*
X185000Y100000D01*
X55000Y80000D02*
X165000D01*
D40*
X71900Y42200D02*
D03*
X97300D02*
D03*
X122700D02*
D03*
X173500D02*
D03*
X148100D02*
D03*
X46500D02*
D03*
X21100D02*
D03*
D41*
X198900D02*
D03*
D42*
X135400Y89940D02*
D03*
Y110260D02*
D03*
X84600Y100100D02*
D03*
D43*
X128750Y150500D02*
D03*
X29750Y195000D02*
D03*
X201250Y170000D02*
D03*
X155000Y187500D02*
D03*
X211000D02*
D03*
X203000D02*
D03*
X195000D02*
D03*
X163000D02*
D03*
X171000D02*
D03*
X68000Y241750D02*
D03*
X60000Y249500D02*
D03*
X77000Y240250D02*
D03*
X66000Y257500D02*
D03*
X50000Y337500D02*
D03*
X35000D02*
D03*
X82500Y280500D02*
D03*
X212500Y217000D02*
D03*
Y232000D02*
D03*
Y247000D02*
D03*
Y262000D02*
D03*
Y277000D02*
D03*
Y292000D02*
D03*
Y307000D02*
D03*
Y322000D02*
D03*
Y337000D02*
D03*
Y352000D02*
D03*
X56000Y306750D02*
D03*
X45000Y282250D02*
D03*
X50000Y217000D02*
D03*
X35000D02*
D03*
X20000D02*
D03*
X65000Y203250D02*
D03*
X50000D02*
D03*
X35000D02*
D03*
X20000D02*
D03*
X7500D02*
D03*
Y217000D02*
D03*
Y232000D02*
D03*
Y247000D02*
D03*
Y262000D02*
D03*
Y277000D02*
D03*
Y292000D02*
D03*
Y322000D02*
D03*
Y307000D02*
D03*
Y337000D02*
D03*
Y352000D02*
D03*
X200000D02*
D03*
Y337000D02*
D03*
Y322000D02*
D03*
Y307000D02*
D03*
Y292000D02*
D03*
Y277000D02*
D03*
Y262000D02*
D03*
Y247000D02*
D03*
Y232000D02*
D03*
X185000Y352000D02*
D03*
Y337000D02*
D03*
Y322000D02*
D03*
Y307000D02*
D03*
Y292000D02*
D03*
X170000Y352000D02*
D03*
Y337000D02*
D03*
Y322000D02*
D03*
X155000Y247000D02*
D03*
Y232000D02*
D03*
X140000Y247000D02*
D03*
Y232000D02*
D03*
X125000Y337000D02*
D03*
Y322000D02*
D03*
Y307000D02*
D03*
Y292000D02*
D03*
Y247000D02*
D03*
Y232000D02*
D03*
X110000Y352000D02*
D03*
Y337000D02*
D03*
Y322000D02*
D03*
Y307000D02*
D03*
Y292000D02*
D03*
X95000Y337000D02*
D03*
Y322000D02*
D03*
Y307000D02*
D03*
Y292000D02*
D03*
Y232000D02*
D03*
X80000D02*
D03*
X65000D02*
D03*
X50000Y352000D02*
D03*
Y247000D02*
D03*
Y232000D02*
D03*
X35000Y352000D02*
D03*
Y247000D02*
D03*
Y232000D02*
D03*
X20000Y352000D02*
D03*
Y337000D02*
D03*
Y322000D02*
D03*
Y307000D02*
D03*
Y292000D02*
D03*
Y277000D02*
D03*
Y262000D02*
D03*
Y247000D02*
D03*
Y232000D02*
D03*
X83500Y214500D02*
D03*
X70500D02*
D03*
X77000D02*
D03*
X130000Y185000D02*
D03*
X114000D02*
D03*
X97500Y85540D02*
D03*
X110000D02*
D03*
X143000Y185000D02*
D03*
X152500Y141250D02*
D03*
X158811Y149939D02*
D03*
X122000Y185000D02*
D03*
X106000D02*
D03*
X90000D02*
D03*
X98000D02*
D03*
X149500Y214500D02*
D03*
X136500D02*
D03*
X143000D02*
D03*
X161000Y264750D02*
D03*
X154250Y257750D02*
D03*
X143000D02*
D03*
X58750Y264750D02*
D03*
X145750Y273250D02*
D03*
X74250Y273000D02*
D03*
X59250Y330750D02*
D03*
X133250Y352000D02*
D03*
X119750D02*
D03*
X100250D02*
D03*
X86750D02*
D03*
X160750D02*
D03*
X81750Y336250D02*
D03*
Y347250D02*
D03*
X59000Y341500D02*
D03*
Y352000D02*
D03*
D44*
X185000Y100000D02*
D03*
X35000D02*
D03*
M02*
