G04*
G04 #@! TF.GenerationSoftware,Altium Limited,Altium Designer,21.6.4 (81)*
G04*
G04 Layer_Color=32768*
%FSLAX44Y44*%
%MOMM*%
G71*
G04*
G04 #@! TF.SameCoordinates,73C44879-B0ED-4A5D-A374-7D9F3B14191D*
G04*
G04*
G04 #@! TF.FilePolarity,Positive*
G04*
G01*
G75*
%ADD45C,0.0500*%
%ADD46C,0.0508*%
D45*
X120000Y141003D02*
Y149000D01*
X116001D01*
X114668Y147667D01*
Y142336D01*
X116001Y141003D01*
X120000D01*
X112003Y149000D02*
X109337D01*
X110670D01*
Y141003D01*
X112003Y142336D01*
X169760Y96190D02*
Y106187D01*
X173092Y102854D01*
X176425Y106187D01*
Y96190D01*
X179757Y106187D02*
Y96190D01*
Y101188D01*
X186421D01*
Y106187D01*
Y96190D01*
X196418D02*
X189754D01*
X196418Y102854D01*
Y104521D01*
X194752Y106187D01*
X191420D01*
X189754Y104521D01*
X19760Y96190D02*
Y106187D01*
X23092Y102854D01*
X26425Y106187D01*
Y96190D01*
X29757Y106187D02*
Y96190D01*
Y101188D01*
X36421D01*
Y106187D01*
Y96190D01*
X39754D02*
X43086D01*
X41420D01*
Y106187D01*
X39754Y104521D01*
X74918Y247835D02*
X75751Y247002D01*
X77417D01*
X78250Y247835D01*
Y251167D01*
X77417Y252000D01*
X75751D01*
X74918Y251167D01*
X69919Y247002D02*
X73252D01*
Y249501D01*
X71585Y248668D01*
X70753D01*
X69919Y249501D01*
Y251167D01*
X70753Y252000D01*
X72419D01*
X73252Y251167D01*
X100250Y194500D02*
X95252D01*
Y196999D01*
X96085Y197832D01*
X97751D01*
X98584Y196999D01*
Y194500D01*
Y196166D02*
X100250Y197832D01*
Y199498D02*
Y201164D01*
Y200331D01*
X95252D01*
X96085Y199498D01*
X100250Y206996D02*
Y203664D01*
X96918Y206996D01*
X96085D01*
X95252Y206163D01*
Y204497D01*
X96085Y203664D01*
X208750Y205500D02*
X213748D01*
Y203001D01*
X212915Y202168D01*
X211249D01*
X210416Y203001D01*
Y205500D01*
Y203834D02*
X208750Y202168D01*
Y200502D02*
Y198836D01*
Y199669D01*
X213748D01*
X212915Y200502D01*
X200750Y205500D02*
X205748D01*
Y203001D01*
X204915Y202168D01*
X203249D01*
X202416Y203001D01*
Y205500D01*
Y203834D02*
X200750Y202168D01*
Y197169D02*
Y200502D01*
X204082Y197169D01*
X204915D01*
X205748Y198002D01*
Y199669D01*
X204915Y200502D01*
X192750Y205500D02*
X197748D01*
Y203001D01*
X196915Y202168D01*
X195249D01*
X194416Y203001D01*
Y205500D01*
Y203834D02*
X192750Y202168D01*
X197748Y197169D02*
Y200502D01*
X195249D01*
X196082Y198836D01*
Y198002D01*
X195249Y197169D01*
X193583D01*
X192750Y198002D01*
Y199669D01*
X193583Y200502D01*
X49497Y295250D02*
X41500Y289918D01*
X49497D02*
X41500Y295250D01*
Y287253D02*
Y284587D01*
Y285920D01*
X49497D01*
X48165Y287253D01*
X198003Y144504D02*
X200502Y142005D01*
X205501D01*
X208000Y144504D01*
Y147003D01*
X205501Y149502D01*
X200502D01*
X198003Y152002D01*
Y154501D01*
X200502Y157000D01*
X205501D01*
X208000Y154501D01*
X193005Y142005D02*
Y157000D01*
X188006Y152002D01*
X183008Y157000D01*
Y142005D01*
X168013Y157000D02*
X178010D01*
X168013Y147003D01*
Y144504D01*
X170512Y142005D01*
X175511D01*
X178010Y144504D01*
X21997Y155496D02*
X19498Y157995D01*
X14499D01*
X12000Y155496D01*
Y152997D01*
X14499Y150498D01*
X19498D01*
X21997Y147998D01*
Y145499D01*
X19498Y143000D01*
X14499D01*
X12000Y145499D01*
X26995Y157995D02*
Y143000D01*
X31994Y147998D01*
X36992Y143000D01*
Y157995D01*
X41990Y143000D02*
X46989D01*
X44489D01*
Y157995D01*
X41990Y155496D01*
X124250Y194500D02*
X119252D01*
Y196999D01*
X120085Y197832D01*
X121751D01*
X122584Y196999D01*
Y194500D01*
Y196166D02*
X124250Y197832D01*
Y199498D02*
Y201164D01*
Y200331D01*
X119252D01*
X120085Y199498D01*
X119252Y203664D02*
Y206996D01*
X120085D01*
X123417Y203664D01*
X124250D01*
X108250Y194500D02*
X103252D01*
Y196999D01*
X104085Y197832D01*
X105751D01*
X106584Y196999D01*
Y194500D01*
Y196166D02*
X108250Y197832D01*
Y199498D02*
Y201164D01*
Y200331D01*
X103252D01*
X104085Y199498D01*
X103252Y206996D02*
X104085Y205330D01*
X105751Y203664D01*
X107417D01*
X108250Y204497D01*
Y206163D01*
X107417Y206996D01*
X106584D01*
X105751Y206163D01*
Y203664D01*
X92250Y194500D02*
X87252D01*
Y196999D01*
X88085Y197832D01*
X89751D01*
X90584Y196999D01*
Y194500D01*
Y196166D02*
X92250Y197832D01*
Y199498D02*
Y201164D01*
Y200331D01*
X87252D01*
X88085Y199498D01*
X87252Y206996D02*
Y203664D01*
X89751D01*
X88918Y205330D01*
Y206163D01*
X89751Y206996D01*
X91417D01*
X92250Y206163D01*
Y204497D01*
X91417Y203664D01*
X132250Y194500D02*
X127252D01*
Y196999D01*
X128085Y197832D01*
X129751D01*
X130584Y196999D01*
Y194500D01*
Y196166D02*
X132250Y197832D01*
Y199498D02*
Y201164D01*
Y200331D01*
X127252D01*
X128085Y199498D01*
X132250Y206163D02*
X127252D01*
X129751Y203664D01*
Y206996D01*
X116250Y194500D02*
X111252D01*
Y196999D01*
X112085Y197832D01*
X113751D01*
X114584Y196999D01*
Y194500D01*
Y196166D02*
X116250Y197832D01*
Y199498D02*
Y201164D01*
Y200331D01*
X111252D01*
X112085Y199498D01*
Y203664D02*
X111252Y204497D01*
Y206163D01*
X112085Y206996D01*
X112918D01*
X113751Y206163D01*
Y205330D01*
Y206163D01*
X114584Y206996D01*
X115417D01*
X116250Y206163D01*
Y204497D01*
X115417Y203664D01*
X152750Y205500D02*
X157748D01*
Y203001D01*
X156915Y202168D01*
X155249D01*
X154416Y203001D01*
Y205500D01*
Y203834D02*
X152750Y202168D01*
Y200502D02*
Y198836D01*
Y199669D01*
X157748D01*
X156915Y200502D01*
X152750Y196336D02*
Y194670D01*
Y195503D01*
X157748D01*
X156915Y196336D01*
X160750Y205500D02*
X165748D01*
Y203001D01*
X164915Y202168D01*
X163249D01*
X162416Y203001D01*
Y205500D01*
Y203834D02*
X160750Y202168D01*
Y200502D02*
Y198836D01*
Y199669D01*
X165748D01*
X164915Y200502D01*
Y196336D02*
X165748Y195503D01*
Y193837D01*
X164915Y193004D01*
X161583D01*
X160750Y193837D01*
Y195503D01*
X161583Y196336D01*
X164915D01*
X168750Y205500D02*
X173748D01*
Y203001D01*
X172915Y202168D01*
X171249D01*
X170416Y203001D01*
Y205500D01*
Y203834D02*
X168750Y202168D01*
X169583Y200502D02*
X168750Y199669D01*
Y198002D01*
X169583Y197169D01*
X172915D01*
X173748Y198002D01*
Y199669D01*
X172915Y200502D01*
X172082D01*
X171249Y199669D01*
Y197169D01*
X176750Y205500D02*
X181748D01*
Y203001D01*
X180915Y202168D01*
X179249D01*
X178416Y203001D01*
Y205500D01*
Y203834D02*
X176750Y202168D01*
X180915Y200502D02*
X181748Y199669D01*
Y198002D01*
X180915Y197169D01*
X180082D01*
X179249Y198002D01*
X178416Y197169D01*
X177583D01*
X176750Y198002D01*
Y199669D01*
X177583Y200502D01*
X178416D01*
X179249Y199669D01*
X180082Y200502D01*
X180915D01*
X179249Y199669D02*
Y198002D01*
X184750Y205500D02*
X189748D01*
Y203001D01*
X188915Y202168D01*
X187249D01*
X186416Y203001D01*
Y205500D01*
Y203834D02*
X184750Y202168D01*
X189748Y197169D02*
X188915Y198836D01*
X187249Y200502D01*
X185583D01*
X184750Y199669D01*
Y198002D01*
X185583Y197169D01*
X186416D01*
X187249Y198002D01*
Y200502D01*
X42918Y318085D02*
X43751Y317252D01*
X45417D01*
X46250Y318085D01*
Y321417D01*
X45417Y322250D01*
X43751D01*
X42918Y321417D01*
X37919Y322250D02*
X41252D01*
X37919Y318918D01*
Y318085D01*
X38752Y317252D01*
X40419D01*
X41252Y318085D01*
X42918Y328085D02*
X43751Y327252D01*
X45417D01*
X46250Y328085D01*
Y331417D01*
X45417Y332250D01*
X43751D01*
X42918Y331417D01*
X41252Y332250D02*
X39585D01*
X40419D01*
Y327252D01*
X41252Y328085D01*
X42918Y254585D02*
X43751Y253752D01*
X45417D01*
X46250Y254585D01*
Y257917D01*
X45417Y258750D01*
X43751D01*
X42918Y257917D01*
X38752Y258750D02*
Y253752D01*
X41252Y256251D01*
X37919D01*
X42918Y305835D02*
X43751Y305002D01*
X45417D01*
X46250Y305835D01*
Y309167D01*
X45417Y310000D01*
X43751D01*
X42918Y309167D01*
X41252Y305835D02*
X40419Y305002D01*
X38752D01*
X37919Y305835D01*
Y306668D01*
X38752Y307501D01*
X39585D01*
X38752D01*
X37919Y308334D01*
Y309167D01*
X38752Y310000D01*
X40419D01*
X41252Y309167D01*
D46*
X192000Y167501D02*
Y172000D01*
X189751D01*
X189001Y171250D01*
Y168251D01*
X189751Y167501D01*
X192000D01*
X187502Y168251D02*
X186752Y167501D01*
X185252D01*
X184503Y168251D01*
Y169001D01*
X185252Y169751D01*
X186002D01*
X185252D01*
X184503Y170501D01*
Y171250D01*
X185252Y172000D01*
X186752D01*
X187502Y171250D01*
X28000Y172498D02*
Y168000D01*
X30249D01*
X30999Y168750D01*
Y171749D01*
X30249Y172498D01*
X28000D01*
X35498Y168000D02*
X32499D01*
X35498Y170999D01*
Y171749D01*
X34748Y172498D01*
X33248D01*
X32499Y171749D01*
M02*
