G04*
G04 #@! TF.GenerationSoftware,Altium Limited,Altium Designer,21.6.4 (81)*
G04*
G04 Layer_Color=32768*
%FSLAX44Y44*%
%MOMM*%
G71*
G04*
G04 #@! TF.SameCoordinates,73C44879-B0ED-4A5D-A374-7D9F3B14191D*
G04*
G04*
G04 #@! TF.FilePolarity,Positive*
G04*
G01*
G75*
%ADD45C,0.0500*%
%ADD47C,0.1000*%
D45*
X105000Y145000D02*
X115000D01*
X110000Y140000D02*
Y150000D01*
X95000Y133000D02*
X125000D01*
X95000D02*
Y157000D01*
X125000D01*
Y133000D02*
Y157000D01*
X72500Y246500D02*
Y252500D01*
X69500Y249500D02*
X75500D01*
X63000Y254500D02*
X82000D01*
X63000Y244500D02*
X82000D01*
X63000D02*
Y254500D01*
X82000Y244500D02*
Y254500D01*
X105000Y14500D02*
X115000D01*
X110000Y9500D02*
Y19500D01*
X4900Y52450D02*
X215100D01*
Y-60200D02*
Y52450D01*
X4900Y-60200D02*
X215100D01*
X4900D02*
Y52450D01*
X94000Y192000D02*
X102000D01*
X94000Y208000D02*
X102000D01*
X94000Y192000D02*
Y208000D01*
X102000Y192000D02*
Y208000D01*
X98000Y197000D02*
Y203000D01*
X95000Y200000D02*
X101000D01*
X70500Y189000D02*
X83500D01*
X70500Y211000D02*
X83500D01*
X70500Y189000D02*
Y211000D01*
X83500Y189000D02*
Y211000D01*
X208000Y200000D02*
X214000D01*
X211000Y197000D02*
Y203000D01*
X207000Y192000D02*
Y208000D01*
X215000Y192000D02*
Y208000D01*
X207000Y192000D02*
X215000D01*
X207000Y208000D02*
X215000D01*
X200000Y200000D02*
X206000D01*
X203000Y197000D02*
Y203000D01*
X199000Y192000D02*
Y208000D01*
X207000Y192000D02*
Y208000D01*
X199000Y192000D02*
X207000D01*
X199000Y208000D02*
X207000D01*
X192000Y200000D02*
X198000D01*
X195000Y197000D02*
Y203000D01*
X191000Y192000D02*
Y208000D01*
X199000Y192000D02*
Y208000D01*
X191000Y192000D02*
X199000D01*
X191000Y208000D02*
X199000D01*
X35750Y302000D02*
X54500D01*
X35750Y262000D02*
X54500D01*
Y302000D01*
X35750Y262000D02*
Y302000D01*
X45000Y277000D02*
Y287000D01*
X40000Y282000D02*
X50000D01*
X58000Y402250D02*
X162000D01*
X58000Y256250D02*
X162000D01*
Y402250D01*
X58000Y256250D02*
Y402250D01*
X110000Y324250D02*
Y334250D01*
X105000Y329250D02*
X115000D01*
X180000Y150000D02*
X190000D01*
X185000Y145000D02*
Y155000D01*
X162000Y136000D02*
X208000D01*
X162000D02*
Y163750D01*
X208000D01*
Y136000D02*
Y163750D01*
X30000Y150000D02*
X40000D01*
X35000Y145000D02*
Y155000D01*
X12000Y164000D02*
X58000D01*
Y136250D02*
Y164000D01*
X12000Y136250D02*
X58000D01*
X12000D02*
Y164000D01*
X119000Y200000D02*
X125000D01*
X122000Y197000D02*
Y203000D01*
X126000Y192000D02*
Y208000D01*
X118000Y192000D02*
Y208000D01*
X126000D01*
X118000Y192000D02*
X126000D01*
X103000Y200000D02*
X109000D01*
X106000Y197000D02*
Y203000D01*
X110000Y192000D02*
Y208000D01*
X102000Y192000D02*
Y208000D01*
X110000D01*
X102000Y192000D02*
X110000D01*
X87000Y200000D02*
X93000D01*
X90000Y197000D02*
Y203000D01*
X94000Y192000D02*
Y208000D01*
X86000Y192000D02*
Y208000D01*
X94000D01*
X86000Y192000D02*
X94000D01*
X127000Y200000D02*
X133000D01*
X130000Y197000D02*
Y203000D01*
X134000Y192000D02*
Y208000D01*
X126000Y192000D02*
Y208000D01*
X134000D01*
X126000Y192000D02*
X134000D01*
X111000Y200000D02*
X117000D01*
X114000Y197000D02*
Y203000D01*
X118000Y192000D02*
Y208000D01*
X110000Y192000D02*
Y208000D01*
X118000D01*
X110000Y192000D02*
X118000D01*
X152000Y200000D02*
X158000D01*
X155000Y197000D02*
Y203000D01*
X151000Y192000D02*
Y208000D01*
X159000Y192000D02*
Y208000D01*
X151000Y192000D02*
X159000D01*
X151000Y208000D02*
X159000D01*
X160000Y200000D02*
X166000D01*
X163000Y197000D02*
Y203000D01*
X159000Y192000D02*
Y208000D01*
X167000Y192000D02*
Y208000D01*
X159000Y192000D02*
X167000D01*
X159000Y208000D02*
X167000D01*
X168000Y200000D02*
X174000D01*
X171000Y197000D02*
Y203000D01*
X167000Y192000D02*
Y208000D01*
X175000Y192000D02*
Y208000D01*
X167000Y192000D02*
X175000D01*
X167000Y208000D02*
X175000D01*
X176000Y200000D02*
X182000D01*
X179000Y197000D02*
Y203000D01*
X175000Y192000D02*
Y208000D01*
X183000Y192000D02*
Y208000D01*
X175000Y192000D02*
X183000D01*
X175000Y208000D02*
X183000D01*
X184000Y200000D02*
X190000D01*
X187000Y197000D02*
Y203000D01*
X183000Y192000D02*
Y208000D01*
X191000Y192000D02*
Y208000D01*
X183000Y192000D02*
X191000D01*
X183000Y208000D02*
X191000D01*
X136500Y189000D02*
X149500D01*
X136500Y211000D02*
X149500D01*
X136500Y189000D02*
Y211000D01*
X149500Y189000D02*
Y211000D01*
X185000Y167250D02*
Y173250D01*
X181750Y170000D02*
X188000D01*
X178000Y174000D02*
X192500D01*
X178000Y166000D02*
X192500D01*
X178000D02*
Y174000D01*
X192500Y166000D02*
Y174000D01*
X35000Y166750D02*
Y172750D01*
X32000Y170000D02*
X38250D01*
X27500Y166000D02*
X42000D01*
X27500Y174000D02*
X42000D01*
Y166000D02*
Y174000D01*
X27500Y166000D02*
Y174000D01*
X40500Y316750D02*
Y322750D01*
X37500Y319750D02*
X43500D01*
X31000Y324750D02*
X50000D01*
X31000Y314750D02*
X50000D01*
X31000D02*
Y324750D01*
X50000Y314750D02*
Y324750D01*
X40500Y326750D02*
Y332750D01*
X37500Y329750D02*
X43500D01*
X31000Y334750D02*
X50000D01*
X31000Y324750D02*
X50000D01*
X31000D02*
Y334750D01*
X50000Y324750D02*
Y334750D01*
X40500Y253250D02*
Y259250D01*
X37500Y256250D02*
X43500D01*
X31000Y261250D02*
X50000D01*
X31000Y251250D02*
X50000D01*
X31000D02*
Y261250D01*
X50000Y251250D02*
Y261250D01*
X40500Y304500D02*
Y310500D01*
X37500Y307500D02*
X43500D01*
X31000Y312500D02*
X50000D01*
X31000Y302500D02*
X50000D01*
X31000D02*
Y312500D01*
X50000Y302500D02*
Y312500D01*
D47*
X77000Y195000D02*
Y205000D01*
X72000Y200000D02*
X82000D01*
X143000Y195000D02*
Y205000D01*
X138000Y200000D02*
X148000D01*
X111000Y340247D02*
Y331916D01*
X112666Y330250D01*
X115998D01*
X117664Y331916D01*
Y340247D01*
X120997Y330250D02*
X124329D01*
X122663D01*
Y340247D01*
X120997Y338581D01*
M02*
