G04*
G04 #@! TF.GenerationSoftware,Altium Limited,Altium Designer,21.6.4 (81)*
G04*
G04 Layer_Physical_Order=1*
G04 Layer_Color=255*
%FSLAX44Y44*%
%MOMM*%
G71*
G04*
G04 #@! TF.SameCoordinates,73C44879-B0ED-4A5D-A374-7D9F3B14191D*
G04*
G04*
G04 #@! TF.FilePolarity,Positive*
G04*
G01*
G75*
%ADD11C,0.2540*%
%ADD14R,1.0000X0.8000*%
%ADD15R,0.6200X0.6200*%
%ADD16R,0.5500X0.5200*%
%ADD17R,1.0200X0.6400*%
%ADD18R,1.5500X1.0000*%
%ADD19R,0.4900X0.4900*%
%ADD20R,0.8000X1.7000*%
%ADD22R,0.3600X0.3500*%
%ADD36C,0.7900*%
%ADD37C,0.1520*%
%ADD38C,0.1524*%
%ADD39C,3.4000*%
%ADD40C,1.6500*%
%ADD41R,1.6500X1.6500*%
%ADD42C,0.9000*%
%ADD43C,0.6000*%
G36*
X215922Y208759D02*
X215020Y207870D01*
X213070D01*
Y208110D01*
X212912Y208902D01*
X212464Y209573D01*
X189560Y232477D01*
Y276760D01*
X189402Y277552D01*
X188954Y278223D01*
X175820Y291357D01*
Y308598D01*
X175662Y309391D01*
X175214Y310062D01*
X163860Y321416D01*
Y338460D01*
X163702Y339252D01*
X163254Y339924D01*
X160800Y342377D01*
Y345520D01*
X160642Y346312D01*
X160194Y346984D01*
X158464Y348714D01*
X157792Y349162D01*
X157720Y349177D01*
Y351988D01*
X154000D01*
X150280D01*
Y349320D01*
X148720D01*
Y350970D01*
X141280D01*
Y343530D01*
X148720D01*
Y345180D01*
X150280D01*
Y338030D01*
X154793D01*
X156680Y336143D01*
Y334470D01*
X150280D01*
Y327030D01*
X156680D01*
Y323470D01*
X150280D01*
Y316030D01*
X154793D01*
X157083Y313740D01*
X156557Y312470D01*
X150280D01*
Y305320D01*
X148720D01*
Y306970D01*
X141280D01*
Y299530D01*
X148720D01*
Y301180D01*
X150280D01*
Y294030D01*
X154793D01*
X156680Y292143D01*
Y290470D01*
X150280D01*
Y283320D01*
X148720D01*
Y284970D01*
X141280D01*
Y278744D01*
X141280Y278714D01*
X141223Y277527D01*
X140035Y277470D01*
X140006Y277470D01*
X133780D01*
Y270030D01*
X141220D01*
Y276256D01*
X141220Y276285D01*
X141277Y277473D01*
X142464Y277530D01*
X142494Y277530D01*
X148720D01*
Y279180D01*
X150280D01*
Y272030D01*
X157720D01*
Y272030D01*
X158655Y272418D01*
X165810Y265263D01*
Y229879D01*
X153536Y217605D01*
X153088Y216933D01*
X152930Y216141D01*
Y207870D01*
X150980D01*
Y200130D01*
X149764Y200000D01*
X135236D01*
X134020Y200130D01*
X134020Y201270D01*
Y207870D01*
X132072D01*
Y208000D01*
X131914Y208793D01*
X131465Y209465D01*
X131465Y209465D01*
X127921Y213009D01*
X127249Y213458D01*
X126456Y213616D01*
X126456Y213616D01*
X119515D01*
X116616Y216516D01*
Y259642D01*
X116965Y259991D01*
X116965Y259991D01*
X117414Y260663D01*
X117487Y261030D01*
X124720D01*
Y268470D01*
X117572D01*
Y270030D01*
X119220D01*
Y277470D01*
X111780D01*
Y270030D01*
X113428D01*
Y268470D01*
X106572D01*
Y270030D01*
X108220D01*
Y277470D01*
X100780D01*
Y270030D01*
X102428D01*
Y268470D01*
X95572D01*
Y270030D01*
X97220D01*
Y277470D01*
X89780D01*
Y270030D01*
X91428D01*
Y268470D01*
X84280D01*
Y261030D01*
X84704D01*
X85928Y260750D01*
X86086Y259957D01*
X86535Y259285D01*
X98340Y247480D01*
Y215770D01*
X93892Y211322D01*
X90893D01*
X90893Y211322D01*
X90100Y211164D01*
X89428Y210715D01*
X89428Y210715D01*
X88535Y209822D01*
X88086Y209150D01*
X87928Y208357D01*
X86842Y207870D01*
X85980D01*
X85980Y200130D01*
X84764Y200000D01*
X4078D01*
X4078Y355250D01*
X62280D01*
Y353512D01*
X66000D01*
X69720D01*
Y355250D01*
X89780D01*
Y353512D01*
X93500D01*
X97220D01*
Y355250D01*
X122780D01*
Y353512D01*
X126500D01*
X130220D01*
Y355250D01*
X150280D01*
Y353512D01*
X154000D01*
X157720D01*
Y355250D01*
X215922D01*
X215922Y208759D01*
D02*
G37*
%LPC*%
G36*
X130220Y351988D02*
X127262D01*
Y349030D01*
X130220D01*
Y351988D01*
D02*
G37*
G36*
X125738D02*
X122780D01*
Y349030D01*
X125738D01*
Y351988D01*
D02*
G37*
G36*
X97220Y351988D02*
X94262D01*
Y349030D01*
X97220D01*
Y351988D01*
D02*
G37*
G36*
X92738D02*
X89780D01*
Y349030D01*
X92738D01*
Y351988D01*
D02*
G37*
G36*
X69720Y351988D02*
X66762D01*
Y349030D01*
X69720D01*
Y351988D01*
D02*
G37*
G36*
X65238D02*
X62280D01*
Y349030D01*
X65238D01*
Y351988D01*
D02*
G37*
G36*
X78720Y350970D02*
X75762D01*
Y348012D01*
X78720D01*
Y350970D01*
D02*
G37*
G36*
X74238D02*
X71280D01*
Y348012D01*
X74238D01*
Y350970D01*
D02*
G37*
G36*
X78720Y346488D02*
X75762D01*
Y343530D01*
X78720D01*
Y346488D01*
D02*
G37*
G36*
X74238D02*
X71280D01*
Y343530D01*
X74238D01*
Y346488D01*
D02*
G37*
G36*
X69720Y345470D02*
X66762D01*
Y342512D01*
X69720D01*
Y345470D01*
D02*
G37*
G36*
X65238D02*
X62280D01*
Y342512D01*
X65238D01*
Y345470D01*
D02*
G37*
G36*
X69720Y340988D02*
X66762D01*
Y338030D01*
X69720D01*
Y340988D01*
D02*
G37*
G36*
X65238D02*
X62280D01*
Y338030D01*
X65238D01*
Y340988D01*
D02*
G37*
G36*
X78720Y339970D02*
X75762D01*
Y337012D01*
X78720D01*
Y339970D01*
D02*
G37*
G36*
X74238D02*
X71280D01*
Y337012D01*
X74238D01*
Y339970D01*
D02*
G37*
G36*
X148720D02*
X141280D01*
Y332530D01*
X148720D01*
Y339970D01*
D02*
G37*
G36*
X78720Y335488D02*
X75762D01*
Y332530D01*
X78720D01*
Y335488D01*
D02*
G37*
G36*
X74238D02*
X71280D01*
Y332530D01*
X74238D01*
Y335488D01*
D02*
G37*
G36*
X69720Y334470D02*
X66762D01*
Y331512D01*
X69720D01*
Y334470D01*
D02*
G37*
G36*
X65238D02*
X62280D01*
Y331512D01*
X65238D01*
Y334470D01*
D02*
G37*
G36*
X35238Y334120D02*
X31630D01*
Y330512D01*
X35238D01*
Y334120D01*
D02*
G37*
G36*
X148720Y328970D02*
X141280D01*
Y321530D01*
X148720D01*
Y328970D01*
D02*
G37*
G36*
X40630Y334120D02*
X39360Y334120D01*
X36762D01*
Y329750D01*
X36000D01*
Y328988D01*
X31630D01*
Y325390D01*
X31630Y325380D01*
Y324120D01*
X31630Y324110D01*
Y320512D01*
X36000D01*
Y319750D01*
X36762D01*
Y315380D01*
X39360D01*
X40370Y315380D01*
X41640Y315380D01*
X49370D01*
Y317680D01*
X62280D01*
Y316030D01*
X69720D01*
Y323180D01*
X71280D01*
Y321530D01*
X78720D01*
Y328970D01*
X71280D01*
Y327320D01*
X69720D01*
Y329988D01*
X66000D01*
X62280D01*
Y327320D01*
X54857D01*
X50964Y331213D01*
X50292Y331662D01*
X49500Y331820D01*
X49370D01*
Y334120D01*
X41640D01*
X40630Y334120D01*
D02*
G37*
G36*
X35238Y318988D02*
X31630D01*
Y315380D01*
X35238D01*
Y318988D01*
D02*
G37*
G36*
X148720Y317970D02*
X141280D01*
Y310530D01*
X148720D01*
Y317970D01*
D02*
G37*
G36*
X78720D02*
X71280D01*
Y310530D01*
X78720D01*
Y317970D01*
D02*
G37*
G36*
X35238Y311870D02*
X31630D01*
Y308262D01*
X35238D01*
Y311870D01*
D02*
G37*
G36*
X69720Y312470D02*
X62280D01*
Y305030D01*
X69720D01*
Y312470D01*
D02*
G37*
G36*
X35238Y306738D02*
X31630D01*
Y303130D01*
X35238D01*
Y306738D01*
D02*
G37*
G36*
X78720Y306970D02*
X71280D01*
Y299530D01*
X78720D01*
Y306970D01*
D02*
G37*
G36*
X69720Y301470D02*
X62280D01*
Y294030D01*
X69720D01*
Y301470D01*
D02*
G37*
G36*
X78720Y295970D02*
X71280D01*
Y288530D01*
X78720D01*
Y295970D01*
D02*
G37*
G36*
X148720Y295970D02*
X141280D01*
Y288530D01*
X148720D01*
Y295970D01*
D02*
G37*
G36*
X83262Y277470D02*
Y274512D01*
X86220D01*
Y277470D01*
X83262D01*
D02*
G37*
G36*
X40630Y311870D02*
X39360Y311870D01*
X36762D01*
Y307500D01*
Y303130D01*
X39360D01*
X40370Y303130D01*
X41640Y303130D01*
X42928D01*
Y301270D01*
X35980D01*
Y288730D01*
X51090D01*
X54535Y285285D01*
X54535Y285285D01*
X55207Y284836D01*
X56000Y284678D01*
X56000Y284678D01*
X62280D01*
Y283320D01*
X60000D01*
X59208Y283162D01*
X58537Y282714D01*
X51093Y275270D01*
X35980D01*
Y262730D01*
X42790D01*
X42872Y261460D01*
X42032Y260620D01*
X40630Y260620D01*
X39360Y260620D01*
X36762D01*
Y256250D01*
Y251880D01*
X39360D01*
X40370Y251880D01*
X41640Y251880D01*
X49370D01*
Y260620D01*
X47070D01*
Y262730D01*
X54020D01*
Y272343D01*
X60857Y279180D01*
X62280D01*
Y272030D01*
X69720D01*
Y279180D01*
X71280D01*
Y277530D01*
X77506D01*
X77536Y277530D01*
X78723Y277473D01*
X78780Y276285D01*
X78780Y276256D01*
Y274512D01*
X81738D01*
Y277470D01*
X79994D01*
X79964Y277470D01*
X78777Y277527D01*
X78720Y278714D01*
X78720Y278744D01*
Y284970D01*
X71280D01*
Y283320D01*
X69720D01*
Y290470D01*
X62280D01*
Y288822D01*
X56858D01*
X54020Y291660D01*
Y301270D01*
X47072D01*
Y303130D01*
X49370D01*
Y311870D01*
X40630Y311870D01*
D02*
G37*
G36*
X130220Y277470D02*
X122780D01*
Y270030D01*
X130220D01*
Y277470D01*
D02*
G37*
G36*
X86220Y272988D02*
X83262D01*
Y270030D01*
X86220D01*
Y272988D01*
D02*
G37*
G36*
X81738D02*
X78780D01*
Y270030D01*
X81738D01*
Y272988D01*
D02*
G37*
G36*
X157720Y268470D02*
X154762D01*
Y265512D01*
X157720D01*
Y268470D01*
D02*
G37*
G36*
X153238D02*
X150280D01*
Y265512D01*
X153238D01*
Y268470D01*
D02*
G37*
G36*
X146720D02*
X143762D01*
Y265512D01*
X146720D01*
Y268470D01*
D02*
G37*
G36*
X69720D02*
X66762D01*
Y265512D01*
X69720D01*
Y268470D01*
D02*
G37*
G36*
X142238D02*
X139280D01*
Y265512D01*
X142238D01*
Y268470D01*
D02*
G37*
G36*
X65238D02*
X62280D01*
Y265512D01*
X65238D01*
Y268470D01*
D02*
G37*
G36*
X157720Y263988D02*
X154762D01*
Y261030D01*
X157720D01*
Y263988D01*
D02*
G37*
G36*
X153238D02*
X150280D01*
Y261030D01*
X153238D01*
Y263988D01*
D02*
G37*
G36*
X146720Y263988D02*
X143762D01*
Y261030D01*
X146720D01*
Y263988D01*
D02*
G37*
G36*
X142238D02*
X139280D01*
Y261030D01*
X142238D01*
Y263988D01*
D02*
G37*
G36*
X135720Y268470D02*
X128280D01*
Y261030D01*
X135720D01*
Y268470D01*
D02*
G37*
G36*
X69720Y263988D02*
X66762D01*
Y261030D01*
X69720D01*
Y263988D01*
D02*
G37*
G36*
X65238D02*
X62280D01*
Y261030D01*
X65238D01*
Y263988D01*
D02*
G37*
G36*
X35238Y260620D02*
X31630D01*
Y257012D01*
X35238D01*
Y260620D01*
D02*
G37*
G36*
X80720Y268470D02*
X73280D01*
Y261030D01*
X74410D01*
Y254768D01*
X73512Y253870D01*
X72630D01*
X71360Y253870D01*
X68762D01*
Y249500D01*
Y245130D01*
X71360D01*
X72370Y245130D01*
X73512Y245130D01*
X73894Y244749D01*
X73921Y243328D01*
X72978Y241916D01*
X72646Y240250D01*
X72978Y238584D01*
X73921Y237171D01*
X75334Y236228D01*
X77000Y235896D01*
X78666Y236228D01*
X80078Y237171D01*
X81022Y238584D01*
X81354Y240250D01*
X81022Y241916D01*
X80078Y243328D01*
X79590Y243655D01*
Y245130D01*
X81370D01*
Y253870D01*
X79590D01*
Y261030D01*
X80720D01*
Y268470D01*
D02*
G37*
G36*
X35238Y255488D02*
X31630D01*
Y251880D01*
X35238D01*
Y255488D01*
D02*
G37*
G36*
X67238Y253870D02*
X63630D01*
Y250262D01*
X67238D01*
Y253870D01*
D02*
G37*
G36*
Y248738D02*
X63630D01*
Y245130D01*
X67238D01*
Y248738D01*
D02*
G37*
G36*
X83500Y218854D02*
X81834Y218522D01*
X80422Y217579D01*
X80078D01*
X78666Y218522D01*
X77000Y218854D01*
X75334Y218522D01*
X74740Y218126D01*
X73750Y217659D01*
X72760Y218126D01*
X72166Y218522D01*
X70500Y218854D01*
X68834Y218522D01*
X67421Y217579D01*
X66478Y216166D01*
X66146Y214500D01*
X66478Y212834D01*
X67421Y211422D01*
X68603Y210632D01*
X68769Y209797D01*
X69331Y208957D01*
X70630Y207658D01*
Y202380D01*
X83370D01*
Y207658D01*
X84669Y208957D01*
X85231Y209797D01*
X85397Y210632D01*
X86579Y211422D01*
X87522Y212834D01*
X87854Y214500D01*
X87522Y216166D01*
X86579Y217579D01*
X85166Y218522D01*
X83500Y218854D01*
D02*
G37*
G36*
X149370Y211320D02*
X143762D01*
Y207612D01*
X149370D01*
Y211320D01*
D02*
G37*
G36*
X142238D02*
X136630D01*
Y207612D01*
X142238D01*
Y211320D01*
D02*
G37*
G36*
X149370Y206088D02*
X143762D01*
Y202380D01*
X149370D01*
Y206088D01*
D02*
G37*
G36*
X142238D02*
X136630D01*
Y202380D01*
X142238D01*
Y206088D01*
D02*
G37*
%LPD*%
D11*
X75000Y148500D02*
X77000Y150500D01*
X75000Y96750D02*
Y148500D01*
Y96750D02*
X79500Y92250D01*
X102500Y150500D02*
X102500Y150500D01*
X77000Y150500D02*
X102500D01*
X77000D02*
Y193150D01*
X77000Y251500D02*
Y264750D01*
Y240250D02*
Y262750D01*
Y240250D02*
X77000Y240250D01*
X75100Y206850D02*
X77000D01*
X71162Y210788D02*
X75100Y206850D01*
X71162Y210788D02*
Y213838D01*
X70500Y214500D02*
X71162Y213838D01*
X77000Y206850D02*
Y214500D01*
Y206850D02*
X78900D01*
X82838Y210788D01*
Y213838D01*
X83500Y214500D01*
X122700Y93750D02*
X128950Y100000D01*
X185000D01*
X97400Y85640D02*
X97500Y85540D01*
X97400Y85640D02*
Y93650D01*
X97300Y93750D02*
X97400Y93650D01*
X52000Y150000D02*
Y154500D01*
X45665Y160835D02*
X52000Y154500D01*
X42805Y160835D02*
X45665D01*
X39200Y164440D02*
X42805Y160835D01*
X39200Y164440D02*
Y170000D01*
X35000Y100000D02*
Y128500D01*
X52000Y145500D01*
Y150000D01*
X185000Y100000D02*
Y128500D01*
X168000Y145500D02*
X185000Y128500D01*
X168000Y145500D02*
Y150000D01*
Y154500D01*
X174335Y160835D01*
X177195D01*
X180800Y164440D01*
Y170000D01*
X180852Y170052D01*
X143000Y185000D02*
Y193150D01*
X89750Y92250D02*
X91250Y93750D01*
X79500Y92250D02*
X89750D01*
X91250Y93750D02*
X97300D01*
D14*
X102500Y139500D02*
D03*
X117500D02*
D03*
Y150500D02*
D03*
X102500D02*
D03*
D15*
X68000Y249500D02*
D03*
X77000D02*
D03*
X36000Y319750D02*
D03*
X45000D02*
D03*
X36000Y329750D02*
D03*
X45000D02*
D03*
X36000Y256250D02*
D03*
X45000D02*
D03*
X36000Y307500D02*
D03*
X45000D02*
D03*
D16*
X98000Y196000D02*
D03*
Y204000D02*
D03*
X211000Y196000D02*
D03*
Y204000D02*
D03*
X203000Y196000D02*
D03*
Y204000D02*
D03*
X195000Y196000D02*
D03*
Y204000D02*
D03*
X122000D02*
D03*
Y196000D02*
D03*
X106000Y204000D02*
D03*
Y196000D02*
D03*
X90000Y204000D02*
D03*
Y196000D02*
D03*
X130000Y204000D02*
D03*
Y196000D02*
D03*
X114000Y204000D02*
D03*
Y196000D02*
D03*
X155000D02*
D03*
Y204000D02*
D03*
X163000Y196000D02*
D03*
Y204000D02*
D03*
X171000Y196000D02*
D03*
Y204000D02*
D03*
X179000Y196000D02*
D03*
Y204000D02*
D03*
X187000Y196000D02*
D03*
Y204000D02*
D03*
D17*
X77000Y193150D02*
D03*
Y206850D02*
D03*
X143000Y193150D02*
D03*
Y206850D02*
D03*
D18*
X45000Y269000D02*
D03*
Y295000D02*
D03*
D19*
X145000Y347250D02*
D03*
Y336250D02*
D03*
Y325250D02*
D03*
Y314250D02*
D03*
Y303250D02*
D03*
Y292250D02*
D03*
Y281250D02*
D03*
X154000Y352750D02*
D03*
Y341750D02*
D03*
Y330750D02*
D03*
Y319750D02*
D03*
Y308750D02*
D03*
Y297750D02*
D03*
Y286750D02*
D03*
Y275750D02*
D03*
X137500Y273750D02*
D03*
X126500D02*
D03*
X115500D02*
D03*
X104500D02*
D03*
X93500D02*
D03*
X82500D02*
D03*
X154000Y264750D02*
D03*
X143000D02*
D03*
X132000D02*
D03*
X121000D02*
D03*
X110000D02*
D03*
X99000D02*
D03*
X88000D02*
D03*
X77000D02*
D03*
X66000D02*
D03*
Y352750D02*
D03*
X75000Y347250D02*
D03*
X66000Y341750D02*
D03*
Y330750D02*
D03*
Y319750D02*
D03*
Y308750D02*
D03*
Y297750D02*
D03*
Y286750D02*
D03*
Y275750D02*
D03*
X75000Y336250D02*
D03*
Y325250D02*
D03*
Y314250D02*
D03*
Y303250D02*
D03*
Y292250D02*
D03*
Y281250D02*
D03*
X126500Y352750D02*
D03*
X93500D02*
D03*
D20*
X202000Y150000D02*
D03*
X168000D02*
D03*
X18000D02*
D03*
X52000D02*
D03*
D22*
X180800Y170000D02*
D03*
X189200D02*
D03*
X39200Y170000D02*
D03*
X30800D02*
D03*
D36*
X122700Y106450D02*
D03*
Y93750D02*
D03*
X110000Y106450D02*
D03*
Y93750D02*
D03*
X97300Y106450D02*
D03*
Y93750D02*
D03*
D37*
X117500Y150500D02*
X128750D01*
X128750Y150500D01*
X130750Y139500D02*
X179000Y187750D01*
X117500Y139500D02*
X130750D01*
X102500D02*
X103500D01*
X106740Y136260D01*
Y135260D02*
Y136260D01*
Y135260D02*
X108530Y133470D01*
X128666D01*
X113350Y122500D02*
X133750D01*
X97300Y106450D02*
X113350Y122500D01*
X110000Y106450D02*
X123010Y119460D01*
X144509D01*
X29750Y171050D02*
Y195000D01*
X201250Y170000D02*
X201250Y170000D01*
X189250Y170000D02*
X201250D01*
X155000Y187500D02*
Y196000D01*
X211000Y187500D02*
Y195967D01*
X211017Y195983D01*
X211000Y196000D02*
X211017Y195983D01*
X203000Y187500D02*
Y196000D01*
X195000Y187500D02*
Y196000D01*
X163000Y187500D02*
Y196000D01*
X171000Y187500D02*
Y195941D01*
X110000Y85540D02*
Y93750D01*
X179000Y187750D02*
Y196000D01*
X128666Y133470D02*
X186897Y191701D01*
Y195897D01*
X187000Y196000D01*
X170970Y195970D02*
X171000Y196000D01*
X170970Y195970D02*
X171000Y195941D01*
X189200Y170000D02*
X189250D01*
X144509Y119460D02*
X158811Y133762D01*
Y149939D01*
X133750Y122500D02*
X152500Y141250D01*
X130000Y185000D02*
Y196000D01*
X122000Y185000D02*
Y196000D01*
Y185000D02*
X122000Y185000D01*
X106000D02*
Y196000D01*
X171000Y204000D02*
Y224250D01*
X173500Y226750D01*
Y269098D01*
X167880Y229021D02*
Y266120D01*
X163000Y204000D02*
Y220196D01*
X170710Y227906D02*
Y267589D01*
X155000Y216141D02*
X167880Y229021D01*
X163000Y220196D02*
X170710Y227906D01*
X155000Y204000D02*
Y216141D01*
X176330Y226670D02*
Y270568D01*
X179000Y204000D02*
Y224000D01*
X176330Y226670D02*
X179000Y224000D01*
X203000Y204000D02*
Y212000D01*
X184700Y230300D02*
Y275251D01*
X179120Y227880D02*
Y272077D01*
X184700Y230300D02*
X203000Y212000D01*
X179120Y227880D02*
X187000Y220000D01*
X195000Y204000D02*
Y216000D01*
X187000Y204000D02*
Y220000D01*
X181910Y229090D02*
Y273586D01*
Y229090D02*
X195000Y216000D01*
X187490Y231619D02*
X211000Y208110D01*
Y204000D02*
Y208110D01*
X187490Y231619D02*
Y276760D01*
X158750Y283848D02*
X173500Y269098D01*
X157049Y281250D02*
X170710Y267589D01*
X158250Y275750D02*
X167880Y266120D01*
X161790Y320558D02*
X173750Y308598D01*
Y290500D02*
X187490Y276760D01*
X173750Y290500D02*
Y308598D01*
X158750Y319299D02*
X170750Y307299D01*
Y289201D02*
Y307299D01*
Y289201D02*
X184700Y275251D01*
X167750Y287746D02*
Y306000D01*
X154000Y319750D02*
X167750Y306000D01*
Y287746D02*
X181910Y273586D01*
X160250Y308750D02*
X164750Y304250D01*
Y286447D02*
Y304250D01*
Y286447D02*
X179120Y272077D01*
X161750Y285148D02*
Y299750D01*
X158250Y303250D02*
X161750Y299750D01*
Y285148D02*
X176330Y270568D01*
X158750Y283848D02*
Y293000D01*
X154000Y297750D02*
X158750Y293000D01*
X45000Y329750D02*
X49500D01*
X54000Y325250D02*
X75000D01*
X49500Y329750D02*
X54000Y325250D01*
X158730Y341520D02*
Y345520D01*
X161790Y320558D02*
Y338460D01*
X158730Y341520D02*
X161790Y338460D01*
X154000Y341750D02*
X158750Y337000D01*
Y319299D02*
Y337000D01*
X145000Y347250D02*
X157000D01*
X158730Y345520D01*
X29750Y171050D02*
X30800Y170000D01*
X189150Y170000D02*
X189200D01*
X198760Y153240D02*
X202000Y150000D01*
X190240Y166260D02*
Y169010D01*
Y166260D02*
X198760Y157740D01*
Y153240D02*
Y157740D01*
X145000Y281250D02*
X157049D01*
X154000Y275750D02*
X158250D01*
X154000Y308750D02*
X160250D01*
X145000Y303250D02*
X158250D01*
X45000Y319750D02*
X66000D01*
X45000Y319750D02*
X45000Y319750D01*
X47750Y269000D02*
X60000Y281250D01*
X75000D02*
X75000Y281250D01*
X60000Y281250D02*
X75000D01*
X189250Y170000D02*
X190240Y169010D01*
X18000Y150000D02*
Y154500D01*
X29760Y166260D01*
Y169010D01*
X30750Y170000D01*
X30800D01*
X45000Y256250D02*
Y269000D01*
X45000Y256250D02*
X45000Y256250D01*
Y269000D02*
X47750D01*
D38*
X114000Y185000D02*
Y196000D01*
Y185000D02*
X114000Y185000D01*
X90000D02*
Y196000D01*
X98000Y185000D02*
Y196000D01*
X98000Y196000D02*
X98000Y196000D01*
X90893Y209250D02*
X94750D01*
X90000Y204000D02*
Y208357D01*
X90893Y209250D01*
X94750D02*
X100412Y214912D01*
Y248338D01*
X103206Y213500D02*
Y251294D01*
X98000Y208250D02*
X98750Y209000D01*
Y209044D02*
X103206Y213500D01*
X98750Y209000D02*
Y209044D01*
X93500Y261000D02*
X103206Y251294D01*
X98000Y204000D02*
Y208250D01*
X93500Y263750D02*
Y273750D01*
Y263750D02*
X93500Y263750D01*
Y261000D02*
Y263750D01*
X88000Y260750D02*
X100412Y248338D01*
X88000Y260750D02*
Y264750D01*
X99000Y260750D02*
X106000Y253750D01*
X104500Y261250D02*
X108794Y256956D01*
X106000Y204000D02*
Y253750D01*
X108794Y213456D02*
Y256956D01*
X99000Y260750D02*
Y264750D01*
X104500Y261250D02*
Y273750D01*
X114544Y260500D02*
X115500Y261456D01*
X110000Y260750D02*
X111750Y259000D01*
Y214500D02*
X117500Y208750D01*
X111750Y214500D02*
Y259000D01*
X114544Y215657D02*
X118657Y211544D01*
X108794Y213456D02*
X114000Y208250D01*
X114544Y215657D02*
Y260500D01*
X110000Y260750D02*
Y264750D01*
X110000Y264750D02*
X110000Y264750D01*
X130000Y204000D02*
Y208000D01*
X126456Y211544D02*
X130000Y208000D01*
X118657Y211544D02*
X126456D01*
X122000Y204000D02*
Y207857D01*
X117500Y208750D02*
X121107D01*
X122000Y207857D01*
X114000Y204000D02*
Y208250D01*
X115500Y261456D02*
Y273750D01*
X47750Y295000D02*
X56000Y286750D01*
X66000D01*
X45000Y295000D02*
Y307500D01*
X45000Y307500D02*
X45000Y307500D01*
Y295000D02*
X47750D01*
D39*
X185000Y100000D02*
D03*
X35000D02*
D03*
D40*
X71900Y42200D02*
D03*
X97300D02*
D03*
X122700D02*
D03*
X173500D02*
D03*
X148100D02*
D03*
X46500D02*
D03*
X21100D02*
D03*
D41*
X198900D02*
D03*
D42*
X135400Y89940D02*
D03*
Y110260D02*
D03*
X84600Y100100D02*
D03*
D43*
X128750Y150500D02*
D03*
X29750Y195000D02*
D03*
X201250Y170000D02*
D03*
X155000Y187500D02*
D03*
X211000D02*
D03*
X203000D02*
D03*
X195000D02*
D03*
X163000D02*
D03*
X171000D02*
D03*
X68000Y241750D02*
D03*
X60000Y249500D02*
D03*
X77000Y240250D02*
D03*
X66000Y257500D02*
D03*
X50000Y337500D02*
D03*
X35000D02*
D03*
X82500Y280500D02*
D03*
X212500Y217000D02*
D03*
Y232000D02*
D03*
Y247000D02*
D03*
Y262000D02*
D03*
Y277000D02*
D03*
Y292000D02*
D03*
Y307000D02*
D03*
Y322000D02*
D03*
Y337000D02*
D03*
Y352000D02*
D03*
X56000Y306750D02*
D03*
X45000Y282250D02*
D03*
X50000Y217000D02*
D03*
X35000D02*
D03*
X20000D02*
D03*
X65000Y203250D02*
D03*
X50000D02*
D03*
X35000D02*
D03*
X20000D02*
D03*
X7500D02*
D03*
Y217000D02*
D03*
Y232000D02*
D03*
Y247000D02*
D03*
Y262000D02*
D03*
Y277000D02*
D03*
Y292000D02*
D03*
Y322000D02*
D03*
Y307000D02*
D03*
Y337000D02*
D03*
Y352000D02*
D03*
X200000D02*
D03*
Y337000D02*
D03*
Y322000D02*
D03*
Y307000D02*
D03*
Y292000D02*
D03*
Y277000D02*
D03*
Y262000D02*
D03*
Y247000D02*
D03*
Y232000D02*
D03*
X185000Y352000D02*
D03*
Y337000D02*
D03*
Y322000D02*
D03*
Y307000D02*
D03*
Y292000D02*
D03*
X170000Y352000D02*
D03*
Y337000D02*
D03*
Y322000D02*
D03*
X155000Y247000D02*
D03*
Y232000D02*
D03*
X140000Y247000D02*
D03*
Y232000D02*
D03*
X125000Y337000D02*
D03*
Y322000D02*
D03*
Y307000D02*
D03*
Y292000D02*
D03*
Y247000D02*
D03*
Y232000D02*
D03*
X110000Y352000D02*
D03*
Y337000D02*
D03*
Y322000D02*
D03*
Y307000D02*
D03*
Y292000D02*
D03*
X95000Y337000D02*
D03*
Y322000D02*
D03*
Y307000D02*
D03*
Y292000D02*
D03*
Y232000D02*
D03*
X80000D02*
D03*
X65000D02*
D03*
X50000Y352000D02*
D03*
Y247000D02*
D03*
Y232000D02*
D03*
X35000Y352000D02*
D03*
Y247000D02*
D03*
Y232000D02*
D03*
X20000Y352000D02*
D03*
Y337000D02*
D03*
Y322000D02*
D03*
Y307000D02*
D03*
Y292000D02*
D03*
Y277000D02*
D03*
Y262000D02*
D03*
Y247000D02*
D03*
Y232000D02*
D03*
X83500Y214500D02*
D03*
X70500D02*
D03*
X77000D02*
D03*
X130000Y185000D02*
D03*
X114000D02*
D03*
X97500Y85540D02*
D03*
X110000D02*
D03*
X143000Y185000D02*
D03*
X152500Y141250D02*
D03*
X158811Y149939D02*
D03*
X122000Y185000D02*
D03*
X106000D02*
D03*
X90000D02*
D03*
X98000D02*
D03*
X149500Y214500D02*
D03*
X136500D02*
D03*
X143000D02*
D03*
X161000Y264750D02*
D03*
X154250Y257750D02*
D03*
X143000D02*
D03*
X58750Y264750D02*
D03*
X145750Y273250D02*
D03*
X74250Y273000D02*
D03*
X59250Y330750D02*
D03*
X133250Y352000D02*
D03*
X119750D02*
D03*
X100250D02*
D03*
X86750D02*
D03*
X160750D02*
D03*
X81750Y336250D02*
D03*
Y347250D02*
D03*
X59000Y341500D02*
D03*
Y352000D02*
D03*
M02*
