G04*
G04 #@! TF.GenerationSoftware,Altium Limited,Altium Designer,21.6.4 (81)*
G04*
G04 Layer_Color=8388736*
%FSLAX44Y44*%
%MOMM*%
G71*
G04*
G04 #@! TF.SameCoordinates,75E8EA60-7A1B-4F35-BD82-ACC1B6EDD98F*
G04*
G04*
G04 #@! TF.FilePolarity,Negative*
G04*
G01*
G75*
%ADD24R,0.4500X0.4600*%
%ADD25R,0.6200X0.6500*%
%ADD26R,0.9000X1.8000*%
%ADD27R,1.6500X1.1000*%
%ADD28C,0.8900*%
%ADD29R,0.7000X0.7000*%
%ADD30C,1.1000*%
%ADD31R,1.1000X0.9000*%
%ADD32R,0.7200X0.7200*%
%ADD33C,1.0000*%
%ADD34C,3.5000*%
%ADD35C,1.7500*%
%ADD36R,1.7500X1.7500*%
D24*
X287250Y95550D02*
D03*
Y103950D02*
D03*
X110500D02*
D03*
Y95550D02*
D03*
D25*
X126500Y168000D02*
D03*
X134500D02*
D03*
Y157000D02*
D03*
X126500D02*
D03*
X80500D02*
D03*
X88500D02*
D03*
D26*
X337000Y95500D02*
D03*
X303000D02*
D03*
X97000D02*
D03*
X63000D02*
D03*
D27*
X135000Y117000D02*
D03*
Y91000D02*
D03*
D28*
X368550Y102650D02*
D03*
X381250D02*
D03*
X368550Y89950D02*
D03*
X381250D02*
D03*
X368550Y77250D02*
D03*
X381250D02*
D03*
D29*
X194500Y170000D02*
D03*
X156000Y211000D02*
D03*
Y196000D02*
D03*
X156000Y181000D02*
D03*
Y170000D02*
D03*
Y159000D02*
D03*
Y148000D02*
D03*
Y137000D02*
D03*
Y126000D02*
D03*
Y115000D02*
D03*
Y104000D02*
D03*
Y93000D02*
D03*
Y82000D02*
D03*
X167000Y211000D02*
D03*
X167000Y181000D02*
D03*
Y170000D02*
D03*
Y159000D02*
D03*
Y148000D02*
D03*
Y137000D02*
D03*
Y126000D02*
D03*
Y115000D02*
D03*
Y104000D02*
D03*
Y93000D02*
D03*
Y82000D02*
D03*
X178000Y181000D02*
D03*
Y170000D02*
D03*
Y159000D02*
D03*
Y148000D02*
D03*
Y137000D02*
D03*
Y126000D02*
D03*
Y115000D02*
D03*
Y93000D02*
D03*
Y82000D02*
D03*
X189000Y104000D02*
D03*
Y93000D02*
D03*
Y82000D02*
D03*
X200000Y181000D02*
D03*
X194500Y148000D02*
D03*
Y126000D02*
D03*
X200000Y104000D02*
D03*
Y93000D02*
D03*
Y82000D02*
D03*
X211000Y104000D02*
D03*
Y93000D02*
D03*
Y82000D02*
D03*
X222000Y181000D02*
D03*
Y170000D02*
D03*
Y159000D02*
D03*
Y148000D02*
D03*
Y137000D02*
D03*
Y126000D02*
D03*
Y115000D02*
D03*
Y93000D02*
D03*
Y82000D02*
D03*
X233000Y211000D02*
D03*
X233000Y181000D02*
D03*
Y170000D02*
D03*
Y159000D02*
D03*
Y148000D02*
D03*
Y137000D02*
D03*
Y126000D02*
D03*
Y115000D02*
D03*
Y104000D02*
D03*
Y93000D02*
D03*
Y82000D02*
D03*
X244000Y211000D02*
D03*
Y196000D02*
D03*
Y181000D02*
D03*
Y170000D02*
D03*
Y159000D02*
D03*
Y148000D02*
D03*
Y137000D02*
D03*
Y126000D02*
D03*
Y115000D02*
D03*
Y104000D02*
D03*
Y93000D02*
D03*
Y82000D02*
D03*
X194500Y137000D02*
D03*
X205500Y170000D02*
D03*
Y148000D02*
D03*
Y126000D02*
D03*
Y137000D02*
D03*
D30*
X262500Y104000D02*
D03*
X262500Y87500D02*
D03*
D31*
X100000Y168000D02*
D03*
X115000D02*
D03*
Y157000D02*
D03*
X100000D02*
D03*
D32*
X178000Y67000D02*
D03*
X187000D02*
D03*
D33*
X374900Y115350D02*
D03*
X385060Y64550D02*
D03*
X364740D02*
D03*
D34*
X375000Y25000D02*
D03*
X25000D02*
D03*
D35*
X111100Y41700D02*
D03*
X136500D02*
D03*
X238100D02*
D03*
X263500D02*
D03*
X212700D02*
D03*
X187300D02*
D03*
X161900D02*
D03*
D36*
X288900D02*
D03*
M02*
