G04*
G04 #@! TF.GenerationSoftware,Altium Limited,Altium Designer,21.6.4 (81)*
G04*
G04 Layer_Color=32768*
%FSLAX44Y44*%
%MOMM*%
G71*
G04*
G04 #@! TF.SameCoordinates,75E8EA60-7A1B-4F35-BD82-ACC1B6EDD98F*
G04*
G04*
G04 #@! TF.FilePolarity,Positive*
G04*
G01*
G75*
%ADD46C,0.0508*%
%ADD47C,0.0500*%
D46*
X284751Y92750D02*
X289250D01*
Y94999D01*
X288500Y95749D01*
X285501D01*
X284751Y94999D01*
Y92750D01*
X289250Y100248D02*
Y97248D01*
X286251Y100248D01*
X285501D01*
X284751Y99498D01*
Y97998D01*
X285501Y97248D01*
X108001Y92750D02*
X112500D01*
Y94999D01*
X111750Y95749D01*
X108751D01*
X108001Y94999D01*
Y92750D01*
X112500Y97248D02*
Y98748D01*
Y97998D01*
X108001D01*
X108751Y97248D01*
D47*
X125000Y165750D02*
Y170748D01*
X127499D01*
X128332Y169915D01*
Y168249D01*
X127499Y167416D01*
X125000D01*
X126666D02*
X128332Y165750D01*
X129998Y169915D02*
X130831Y170748D01*
X132498D01*
X133331Y169915D01*
Y169082D01*
X132498Y168249D01*
X131664D01*
X132498D01*
X133331Y167416D01*
Y166583D01*
X132498Y165750D01*
X130831D01*
X129998Y166583D01*
X306997Y100996D02*
X304498Y103495D01*
X299499D01*
X297000Y100996D01*
Y98497D01*
X299499Y95998D01*
X304498D01*
X306997Y93498D01*
Y90999D01*
X304498Y88500D01*
X299499D01*
X297000Y90999D01*
X311995Y103495D02*
Y88500D01*
X316994Y93498D01*
X321992Y88500D01*
Y103495D01*
X336987Y88500D02*
X326990D01*
X336987Y98497D01*
Y100996D01*
X334488Y103495D01*
X329490D01*
X326990Y100996D01*
X139497Y117250D02*
X131500Y111918D01*
X139497D02*
X131500Y117250D01*
Y109253D02*
Y106587D01*
Y107920D01*
X139497D01*
X138165Y109253D01*
X359760Y21190D02*
Y31187D01*
X363092Y27854D01*
X366424Y31187D01*
Y21190D01*
X369757Y31187D02*
Y21190D01*
Y26188D01*
X376421D01*
Y31187D01*
Y21190D01*
X386418D02*
X379754D01*
X386418Y27854D01*
Y29521D01*
X384752Y31187D01*
X381420D01*
X379754Y29521D01*
X192755Y126250D02*
X205251D01*
X207750Y128749D01*
Y133748D01*
X205251Y136247D01*
X192755D01*
X207750Y141245D02*
Y146243D01*
Y143744D01*
X192755D01*
X195254Y141245D01*
X265040Y97650D02*
X260042D01*
Y100149D01*
X260875Y100982D01*
X262541D01*
X263374Y100149D01*
Y97650D01*
Y99316D02*
X265040Y100982D01*
X260042Y102648D02*
Y105981D01*
Y104314D01*
X265040D01*
X260875Y110979D02*
X260042Y110146D01*
Y108480D01*
X260875Y107647D01*
X261708D01*
X262541Y108480D01*
Y110146D01*
X263374Y110979D01*
X264207D01*
X265040Y110146D01*
Y108480D01*
X264207Y107647D01*
X265873Y112645D02*
Y115977D01*
X265040Y117643D02*
X260042D01*
X265040Y120976D01*
X260042D01*
Y125974D02*
Y122642D01*
X265040D01*
Y125974D01*
X262541Y122642D02*
Y124308D01*
X260042Y127640D02*
Y130972D01*
Y129306D01*
X265040D01*
Y132639D02*
Y134305D01*
Y133472D01*
X260042D01*
X260875Y132639D01*
X117500Y158503D02*
Y166500D01*
X113501D01*
X112168Y165167D01*
Y159836D01*
X113501Y158503D01*
X117500D01*
X109503Y159836D02*
X108170Y158503D01*
X105504D01*
X104171Y159836D01*
Y161168D01*
X105504Y162501D01*
X106837D01*
X105504D01*
X104171Y163834D01*
Y165167D01*
X105504Y166500D01*
X108170D01*
X109503Y165167D01*
X180082Y68665D02*
X179249Y69498D01*
X177583D01*
X176750Y68665D01*
Y65333D01*
X177583Y64500D01*
X179249D01*
X180082Y65333D01*
X181748Y64500D02*
X183414D01*
X182581D01*
Y69498D01*
X181748Y68665D01*
X9760Y21190D02*
Y31187D01*
X13092Y27854D01*
X16424Y31187D01*
Y21190D01*
X19757Y31187D02*
Y21190D01*
Y26188D01*
X26421D01*
Y31187D01*
Y21190D01*
X29754D02*
X33086D01*
X31420D01*
Y31187D01*
X29754Y29521D01*
X93003Y90004D02*
X95502Y87505D01*
X100501D01*
X103000Y90004D01*
Y92503D01*
X100501Y95002D01*
X95502D01*
X93003Y97502D01*
Y100001D01*
X95502Y102500D01*
X100501D01*
X103000Y100001D01*
X88005Y87505D02*
Y102500D01*
X83006Y97502D01*
X78008Y102500D01*
Y87505D01*
X73010Y102500D02*
X68011D01*
X70511D01*
Y87505D01*
X73010Y90004D01*
X125000Y154750D02*
Y159748D01*
X127499D01*
X128332Y158915D01*
Y157249D01*
X127499Y156416D01*
X125000D01*
X126666D02*
X128332Y154750D01*
X133331D02*
X129998D01*
X133331Y158082D01*
Y158915D01*
X132498Y159748D01*
X130831D01*
X129998Y158915D01*
X90000Y159250D02*
Y154252D01*
X87501D01*
X86668Y155085D01*
Y156751D01*
X87501Y157584D01*
X90000D01*
X88334D02*
X86668Y159250D01*
X85002D02*
X83336D01*
X84169D01*
Y154252D01*
X85002Y155085D01*
X260875Y84482D02*
X260042Y83649D01*
Y81983D01*
X260875Y81150D01*
X264207D01*
X265040Y81983D01*
Y83649D01*
X264207Y84482D01*
X260042Y86148D02*
Y89481D01*
Y87815D01*
X265040D01*
X260875Y94479D02*
X260042Y93646D01*
Y91980D01*
X260875Y91147D01*
X261708D01*
X262541Y91980D01*
Y93646D01*
X263374Y94479D01*
X264207D01*
X265040Y93646D01*
Y91980D01*
X264207Y91147D01*
X265873Y96145D02*
Y99477D01*
X265040Y101144D02*
X260042D01*
X265040Y104476D01*
X260042D01*
Y109474D02*
Y106142D01*
X265040D01*
Y109474D01*
X262541Y106142D02*
Y107808D01*
X260042Y111140D02*
Y114472D01*
Y112806D01*
X265040D01*
Y116139D02*
Y117805D01*
Y116972D01*
X260042D01*
X260875Y116139D01*
M02*
