G04*
G04 #@! TF.GenerationSoftware,Altium Limited,Altium Designer,21.6.4 (81)*
G04*
G04 Layer_Physical_Order=3*
G04 Layer_Color=16440176*
%FSLAX44Y44*%
%MOMM*%
G71*
G04*
G04 #@! TF.SameCoordinates,75E8EA60-7A1B-4F35-BD82-ACC1B6EDD98F*
G04*
G04*
G04 #@! TF.FilePolarity,Positive*
G04*
G01*
G75*
%ADD10C,0.1270*%
%ADD15C,0.1520*%
%ADD40C,0.9000*%
%ADD42C,1.6500*%
%ADD43R,1.6500X1.6500*%
%ADD44C,0.6000*%
%ADD45C,2.1590*%
G36*
X388802Y214652D02*
X388478Y214166D01*
X388146Y212500D01*
X388478Y210834D01*
X389422Y209422D01*
X390834Y208478D01*
X392500Y208146D01*
X394166Y208478D01*
X394652Y208802D01*
X395922Y208123D01*
Y201877D01*
X394652Y201198D01*
X394166Y201522D01*
X392500Y201854D01*
X390834Y201522D01*
X389422Y200578D01*
X388478Y199166D01*
X388146Y197500D01*
X388478Y195834D01*
X389422Y194422D01*
X390834Y193478D01*
X392500Y193146D01*
X394166Y193478D01*
X394652Y193802D01*
X395922Y193123D01*
Y186877D01*
X394652Y186198D01*
X394166Y186522D01*
X392500Y186854D01*
X390834Y186522D01*
X389422Y185578D01*
X388478Y184166D01*
X388146Y182500D01*
X388478Y180834D01*
X389422Y179422D01*
X390834Y178478D01*
X392500Y178146D01*
X394166Y178478D01*
X394652Y178802D01*
X395922Y178123D01*
Y171877D01*
X394652Y171198D01*
X394166Y171522D01*
X392500Y171854D01*
X390834Y171522D01*
X389422Y170578D01*
X388478Y169166D01*
X388146Y167500D01*
X388478Y165834D01*
X389422Y164422D01*
X390834Y163478D01*
X392500Y163146D01*
X394166Y163478D01*
X394652Y163802D01*
X395922Y163123D01*
Y156897D01*
X394652Y156218D01*
X394196Y156522D01*
X392530Y156854D01*
X390864Y156522D01*
X389451Y155578D01*
X388508Y154166D01*
X388176Y152500D01*
X388508Y150834D01*
X389451Y149422D01*
X390864Y148478D01*
X392530Y148146D01*
X394196Y148478D01*
X394652Y148782D01*
X395922Y148103D01*
Y141897D01*
X394652Y141218D01*
X394196Y141522D01*
X392530Y141854D01*
X390864Y141522D01*
X389451Y140578D01*
X388508Y139166D01*
X388176Y137500D01*
X388508Y135834D01*
X389451Y134422D01*
X390864Y133478D01*
X392530Y133146D01*
X394196Y133478D01*
X394652Y133782D01*
X395922Y133103D01*
Y126897D01*
X394652Y126218D01*
X394196Y126522D01*
X392530Y126854D01*
X390864Y126522D01*
X389451Y125578D01*
X388508Y124166D01*
X388176Y122500D01*
X388508Y120834D01*
X389451Y119422D01*
X390864Y118478D01*
X392530Y118146D01*
X394196Y118478D01*
X394652Y118782D01*
X395922Y118103D01*
Y111897D01*
X394652Y111218D01*
X394196Y111522D01*
X392530Y111854D01*
X390864Y111522D01*
X389451Y110578D01*
X388508Y109166D01*
X388176Y107500D01*
X388508Y105834D01*
X389451Y104422D01*
X390864Y103478D01*
X392530Y103146D01*
X394196Y103478D01*
X394652Y103782D01*
X395922Y103103D01*
Y96876D01*
X394652Y96198D01*
X394166Y96522D01*
X392500Y96854D01*
X390834Y96522D01*
X389422Y95578D01*
X388478Y94166D01*
X388146Y92500D01*
X388478Y90834D01*
X389422Y89422D01*
X390834Y88478D01*
X392500Y88146D01*
X394166Y88478D01*
X394652Y88802D01*
X395922Y88124D01*
Y81876D01*
X394652Y81198D01*
X394166Y81522D01*
X392500Y81854D01*
X390834Y81522D01*
X389422Y80578D01*
X388478Y79166D01*
X388146Y77500D01*
X388478Y75834D01*
X389422Y74422D01*
X390834Y73478D01*
X392500Y73146D01*
X394166Y73478D01*
X394652Y73802D01*
X395922Y73123D01*
Y51877D01*
X394652Y51198D01*
X394166Y51522D01*
X392500Y51854D01*
X390834Y51522D01*
X389422Y50578D01*
X388478Y49166D01*
X388146Y47500D01*
X388478Y45834D01*
X389422Y44422D01*
X390834Y43478D01*
X392500Y43146D01*
X394166Y43478D01*
X394652Y43802D01*
X395922Y43123D01*
Y4078D01*
X354377Y4078D01*
X353698Y5348D01*
X354022Y5834D01*
X354354Y7500D01*
X354022Y9166D01*
X353078Y10579D01*
X351666Y11522D01*
X350000Y11854D01*
X348334Y11522D01*
X346922Y10579D01*
X345978Y9166D01*
X345646Y7500D01*
X345978Y5834D01*
X346302Y5348D01*
X345624Y4078D01*
X339377D01*
X338698Y5348D01*
X339022Y5834D01*
X339354Y7500D01*
X339022Y9166D01*
X338078Y10579D01*
X336666Y11522D01*
X335000Y11854D01*
X333334Y11522D01*
X331922Y10579D01*
X330978Y9166D01*
X330646Y7500D01*
X330978Y5834D01*
X331302Y5348D01*
X330624Y4078D01*
X324377D01*
X323698Y5348D01*
X324022Y5834D01*
X324354Y7500D01*
X324022Y9166D01*
X323078Y10579D01*
X321666Y11522D01*
X320000Y11854D01*
X318334Y11522D01*
X316922Y10579D01*
X315978Y9166D01*
X315646Y7500D01*
X315978Y5834D01*
X316302Y5348D01*
X315623Y4078D01*
X309377Y4078D01*
X308698Y5348D01*
X309022Y5834D01*
X309354Y7500D01*
X309022Y9166D01*
X308078Y10579D01*
X306666Y11522D01*
X305000Y11854D01*
X303334Y11522D01*
X301922Y10579D01*
X300978Y9166D01*
X300646Y7500D01*
X300978Y5834D01*
X301302Y5348D01*
X300623Y4078D01*
X294377D01*
X293698Y5348D01*
X294022Y5834D01*
X294354Y7500D01*
X294022Y9166D01*
X293078Y10579D01*
X291666Y11522D01*
X290000Y11854D01*
X288334Y11522D01*
X286922Y10579D01*
X285978Y9166D01*
X285646Y7500D01*
X285978Y5834D01*
X286302Y5348D01*
X285623Y4078D01*
X279377D01*
X278698Y5348D01*
X279022Y5834D01*
X279354Y7500D01*
X279022Y9166D01*
X278078Y10579D01*
X276666Y11522D01*
X275000Y11854D01*
X273334Y11522D01*
X271922Y10579D01*
X270978Y9166D01*
X270646Y7500D01*
X270978Y5834D01*
X271302Y5348D01*
X270623Y4078D01*
X264377D01*
X263698Y5348D01*
X264022Y5834D01*
X264354Y7500D01*
X264022Y9166D01*
X263078Y10579D01*
X261666Y11522D01*
X260000Y11854D01*
X258334Y11522D01*
X256922Y10579D01*
X255978Y9166D01*
X255646Y7500D01*
X255978Y5834D01*
X256302Y5348D01*
X255623Y4078D01*
X249377D01*
X248698Y5348D01*
X249022Y5834D01*
X249354Y7500D01*
X249022Y9166D01*
X248078Y10579D01*
X246666Y11522D01*
X245000Y11854D01*
X243334Y11522D01*
X241922Y10579D01*
X240978Y9166D01*
X240646Y7500D01*
X240978Y5834D01*
X241302Y5348D01*
X240623Y4078D01*
X234377D01*
X233698Y5348D01*
X234022Y5834D01*
X234354Y7500D01*
X234022Y9166D01*
X233078Y10579D01*
X231666Y11522D01*
X230000Y11854D01*
X228334Y11522D01*
X226922Y10579D01*
X225978Y9166D01*
X225646Y7500D01*
X225978Y5834D01*
X226302Y5348D01*
X225623Y4078D01*
X174377Y4078D01*
X173698Y5348D01*
X174022Y5834D01*
X174354Y7500D01*
X174022Y9166D01*
X173078Y10579D01*
X171666Y11522D01*
X170000Y11854D01*
X168334Y11522D01*
X166922Y10579D01*
X165978Y9166D01*
X165646Y7500D01*
X165978Y5834D01*
X166302Y5348D01*
X165623Y4078D01*
X159376D01*
X158698Y5348D01*
X159022Y5834D01*
X159354Y7500D01*
X159022Y9166D01*
X158078Y10579D01*
X156666Y11522D01*
X155000Y11854D01*
X153334Y11522D01*
X151922Y10579D01*
X150978Y9166D01*
X150646Y7500D01*
X150978Y5834D01*
X151302Y5348D01*
X150624Y4078D01*
X144376D01*
X143698Y5348D01*
X144022Y5834D01*
X144354Y7500D01*
X144022Y9166D01*
X143078Y10579D01*
X141666Y11522D01*
X140000Y11854D01*
X138334Y11522D01*
X136922Y10579D01*
X135978Y9166D01*
X135646Y7500D01*
X135978Y5834D01*
X136302Y5348D01*
X135624Y4078D01*
X129376D01*
X128698Y5348D01*
X129022Y5834D01*
X129354Y7500D01*
X129022Y9166D01*
X128078Y10579D01*
X126666Y11522D01*
X125000Y11854D01*
X123334Y11522D01*
X121922Y10579D01*
X120978Y9166D01*
X120646Y7500D01*
X120978Y5834D01*
X121302Y5348D01*
X120624Y4078D01*
X114376D01*
X113698Y5348D01*
X114022Y5834D01*
X114354Y7500D01*
X114022Y9166D01*
X113078Y10579D01*
X111666Y11522D01*
X110000Y11854D01*
X108334Y11522D01*
X106922Y10579D01*
X105978Y9166D01*
X105646Y7500D01*
X105978Y5834D01*
X106302Y5348D01*
X105624Y4078D01*
X99376D01*
X98698Y5348D01*
X99022Y5834D01*
X99354Y7500D01*
X99022Y9166D01*
X98078Y10579D01*
X96666Y11522D01*
X95000Y11854D01*
X93334Y11522D01*
X91922Y10579D01*
X90978Y9166D01*
X90646Y7500D01*
X90978Y5834D01*
X91302Y5348D01*
X90624Y4078D01*
X84376Y4078D01*
X83698Y5348D01*
X84022Y5834D01*
X84354Y7500D01*
X84022Y9166D01*
X83078Y10579D01*
X81666Y11522D01*
X80000Y11854D01*
X78334Y11522D01*
X76922Y10579D01*
X75978Y9166D01*
X75646Y7500D01*
X75978Y5834D01*
X76302Y5348D01*
X75623Y4078D01*
X69377D01*
X68698Y5348D01*
X69022Y5834D01*
X69354Y7500D01*
X69022Y9166D01*
X68078Y10579D01*
X66666Y11522D01*
X65000Y11854D01*
X63334Y11522D01*
X61922Y10579D01*
X60978Y9166D01*
X60646Y7500D01*
X60978Y5834D01*
X61302Y5348D01*
X60623Y4078D01*
X54377D01*
X53698Y5348D01*
X54022Y5834D01*
X54354Y7500D01*
X54022Y9166D01*
X53078Y10579D01*
X51666Y11522D01*
X50000Y11854D01*
X48334Y11522D01*
X46922Y10579D01*
X45978Y9166D01*
X45646Y7500D01*
X45978Y5834D01*
X46302Y5348D01*
X45623Y4078D01*
X11876Y4078D01*
X11198Y5348D01*
X11522Y5834D01*
X11854Y7500D01*
X11522Y9166D01*
X10579Y10579D01*
X9166Y11522D01*
X7500Y11854D01*
X5834Y11522D01*
X5348Y11198D01*
X4078Y11876D01*
Y43123D01*
X5348Y43802D01*
X5834Y43478D01*
X7500Y43146D01*
X9166Y43478D01*
X10579Y44422D01*
X11522Y45834D01*
X11854Y47500D01*
X11522Y49166D01*
X10579Y50578D01*
X9166Y51522D01*
X7500Y51854D01*
X5834Y51522D01*
X5348Y51198D01*
X4078Y51877D01*
Y58123D01*
X5348Y58802D01*
X5834Y58478D01*
X7500Y58146D01*
X9166Y58478D01*
X10579Y59422D01*
X11522Y60834D01*
X11854Y62500D01*
X11522Y64166D01*
X10579Y65578D01*
X9166Y66522D01*
X7500Y66854D01*
X5834Y66522D01*
X5348Y66198D01*
X4078Y66877D01*
Y73123D01*
X5348Y73802D01*
X5834Y73478D01*
X7500Y73146D01*
X9166Y73478D01*
X10579Y74422D01*
X11522Y75834D01*
X11854Y77500D01*
X11522Y79166D01*
X10579Y80578D01*
X9166Y81522D01*
X7500Y81854D01*
X5834Y81522D01*
X5348Y81198D01*
X4078Y81876D01*
Y88124D01*
X5348Y88802D01*
X5834Y88478D01*
X7500Y88146D01*
X9166Y88478D01*
X10579Y89422D01*
X11522Y90834D01*
X11854Y92500D01*
X11522Y94166D01*
X10579Y95578D01*
X9166Y96522D01*
X7500Y96854D01*
X5834Y96522D01*
X5348Y96198D01*
X4078Y96876D01*
Y103124D01*
X5348Y103802D01*
X5834Y103478D01*
X7500Y103146D01*
X9166Y103478D01*
X10579Y104422D01*
X11522Y105834D01*
X11854Y107500D01*
X11522Y109166D01*
X10579Y110578D01*
X9166Y111522D01*
X7500Y111854D01*
X5834Y111522D01*
X5348Y111198D01*
X4078Y111876D01*
Y118124D01*
X5348Y118802D01*
X5834Y118478D01*
X7500Y118146D01*
X9166Y118478D01*
X10579Y119422D01*
X11522Y120834D01*
X11854Y122500D01*
X11522Y124166D01*
X10579Y125578D01*
X9166Y126522D01*
X7500Y126854D01*
X5834Y126522D01*
X5348Y126198D01*
X4078Y126876D01*
Y133124D01*
X5348Y133802D01*
X5834Y133478D01*
X7500Y133146D01*
X9166Y133478D01*
X10579Y134422D01*
X11522Y135834D01*
X11854Y137500D01*
X11522Y139166D01*
X10579Y140578D01*
X9166Y141522D01*
X7500Y141854D01*
X5834Y141522D01*
X5348Y141198D01*
X4078Y141876D01*
Y148124D01*
X5348Y148802D01*
X5834Y148478D01*
X7500Y148146D01*
X9166Y148478D01*
X10579Y149422D01*
X11522Y150834D01*
X11854Y152500D01*
X11522Y154166D01*
X10579Y155578D01*
X9166Y156522D01*
X7500Y156854D01*
X5834Y156522D01*
X5348Y156198D01*
X4078Y156876D01*
Y163123D01*
X5348Y163802D01*
X5834Y163478D01*
X7500Y163146D01*
X9166Y163478D01*
X10579Y164422D01*
X11522Y165834D01*
X11854Y167500D01*
X11522Y169166D01*
X10579Y170578D01*
X9166Y171522D01*
X7500Y171854D01*
X5834Y171522D01*
X5348Y171198D01*
X4078Y171877D01*
Y178123D01*
X5348Y178802D01*
X5834Y178478D01*
X7500Y178146D01*
X9166Y178478D01*
X10579Y179422D01*
X11522Y180834D01*
X11854Y182500D01*
X11522Y184166D01*
X10579Y185578D01*
X9166Y186522D01*
X7500Y186854D01*
X5834Y186522D01*
X5348Y186198D01*
X4078Y186877D01*
Y193123D01*
X5348Y193802D01*
X5834Y193478D01*
X7500Y193146D01*
X9166Y193478D01*
X10579Y194422D01*
X11522Y195834D01*
X11854Y197500D01*
X11522Y199166D01*
X10579Y200578D01*
X9166Y201522D01*
X7500Y201854D01*
X5834Y201522D01*
X5348Y201198D01*
X4078Y201877D01*
Y208123D01*
X5348Y208802D01*
X5834Y208478D01*
X7500Y208146D01*
X9166Y208478D01*
X10579Y209422D01*
X11522Y210834D01*
X11854Y212500D01*
X11522Y214166D01*
X11198Y214652D01*
X11877Y215922D01*
X15624D01*
X16302Y214652D01*
X15978Y214166D01*
X15646Y212500D01*
X15978Y210834D01*
X16921Y209422D01*
X18334Y208478D01*
X20000Y208146D01*
X21666Y208478D01*
X23078Y209422D01*
X24022Y210834D01*
X24354Y212500D01*
X24022Y214166D01*
X23698Y214652D01*
X24376Y215922D01*
X30624D01*
X31302Y214652D01*
X30978Y214166D01*
X30646Y212500D01*
X30978Y210834D01*
X31922Y209422D01*
X33334Y208478D01*
X35000Y208146D01*
X36666Y208478D01*
X38078Y209422D01*
X39022Y210834D01*
X39354Y212500D01*
X39022Y214166D01*
X38698Y214652D01*
X39376Y215922D01*
X45623D01*
X46302Y214652D01*
X45978Y214166D01*
X45646Y212500D01*
X45978Y210834D01*
X46922Y209422D01*
X48334Y208478D01*
X50000Y208146D01*
X51666Y208478D01*
X53078Y209422D01*
X54022Y210834D01*
X54354Y212500D01*
X54022Y214166D01*
X53698Y214652D01*
X54377Y215922D01*
X60623D01*
X61302Y214652D01*
X60978Y214166D01*
X60646Y212500D01*
X60978Y210834D01*
X61922Y209422D01*
X63334Y208478D01*
X65000Y208146D01*
X66666Y208478D01*
X68078Y209422D01*
X69022Y210834D01*
X69354Y212500D01*
X69022Y214166D01*
X68698Y214652D01*
X69377Y215922D01*
X75623D01*
X76302Y214652D01*
X75978Y214166D01*
X75646Y212500D01*
X75978Y210834D01*
X76922Y209422D01*
X78334Y208478D01*
X80000Y208146D01*
X81666Y208478D01*
X83078Y209422D01*
X84022Y210834D01*
X84354Y212500D01*
X84022Y214166D01*
X83698Y214652D01*
X84376Y215922D01*
X90624D01*
X91302Y214652D01*
X90978Y214166D01*
X90646Y212500D01*
X90978Y210834D01*
X91922Y209422D01*
X93334Y208478D01*
X95000Y208146D01*
X96666Y208478D01*
X98078Y209422D01*
X99022Y210834D01*
X99354Y212500D01*
X99022Y214166D01*
X98698Y214652D01*
X99376Y215922D01*
X105624D01*
X106302Y214652D01*
X105978Y214166D01*
X105646Y212500D01*
X105978Y210834D01*
X106922Y209422D01*
X108334Y208478D01*
X110000Y208146D01*
X111666Y208478D01*
X113078Y209422D01*
X114022Y210834D01*
X114354Y212500D01*
X114022Y214166D01*
X113698Y214652D01*
X114376Y215922D01*
X120624D01*
X121302Y214652D01*
X120978Y214166D01*
X120646Y212500D01*
X120978Y210834D01*
X121922Y209422D01*
X123334Y208478D01*
X125000Y208146D01*
X126666Y208478D01*
X128078Y209422D01*
X129022Y210834D01*
X129354Y212500D01*
X129022Y214166D01*
X128698Y214652D01*
X129376Y215922D01*
X135624D01*
X136302Y214652D01*
X135978Y214166D01*
X135646Y212500D01*
X135978Y210834D01*
X136922Y209422D01*
X138334Y208478D01*
X140000Y208146D01*
X141666Y208478D01*
X143078Y209422D01*
X144022Y210834D01*
X144354Y212500D01*
X144022Y214166D01*
X143698Y214652D01*
X144376Y215922D01*
X170000Y215922D01*
X170000Y208000D01*
X159000Y208000D01*
X159000Y184000D01*
X181009Y184000D01*
X181688Y182730D01*
X181478Y182416D01*
X181146Y180750D01*
X181478Y179084D01*
X182421Y177672D01*
X183834Y176728D01*
X185500Y176396D01*
X187166Y176728D01*
X188578Y177672D01*
X189422D01*
X190834Y176728D01*
X192500Y176396D01*
X194166Y176728D01*
X195578Y177672D01*
X196522Y179084D01*
X196854Y180750D01*
X196522Y182416D01*
X196312Y182730D01*
X196991Y184000D01*
X203009Y184000D01*
X203688Y182730D01*
X203478Y182416D01*
X203146Y180750D01*
X203478Y179084D01*
X204422Y177672D01*
X205834Y176728D01*
X207500Y176396D01*
X209166Y176728D01*
X210578Y177672D01*
X211422D01*
X212834Y176728D01*
X214500Y176396D01*
X216166Y176728D01*
X217579Y177672D01*
X218522Y179084D01*
X218854Y180750D01*
X218522Y182416D01*
X218312Y182730D01*
X218991Y184000D01*
X241000Y184000D01*
X241000Y208000D01*
X230014D01*
X229988Y215022D01*
X230884Y215922D01*
X255623Y215922D01*
X256302Y214652D01*
X255978Y214166D01*
X255646Y212500D01*
X255978Y210834D01*
X256922Y209422D01*
X258334Y208478D01*
X260000Y208146D01*
X261666Y208478D01*
X263078Y209422D01*
X264022Y210834D01*
X264354Y212500D01*
X264022Y214166D01*
X263698Y214652D01*
X264376Y215922D01*
X270623D01*
X271302Y214652D01*
X270978Y214166D01*
X270646Y212500D01*
X270978Y210834D01*
X271922Y209422D01*
X273334Y208478D01*
X275000Y208146D01*
X276666Y208478D01*
X278078Y209422D01*
X279022Y210834D01*
X279354Y212500D01*
X279022Y214166D01*
X278698Y214652D01*
X279376Y215922D01*
X285623D01*
X286302Y214652D01*
X285978Y214166D01*
X285646Y212500D01*
X285978Y210834D01*
X286921Y209422D01*
X288334Y208478D01*
X290000Y208146D01*
X291666Y208478D01*
X293078Y209422D01*
X294022Y210834D01*
X294354Y212500D01*
X294022Y214166D01*
X293698Y214652D01*
X294376Y215922D01*
X300623D01*
X301302Y214652D01*
X300978Y214166D01*
X300646Y212500D01*
X300978Y210834D01*
X301921Y209422D01*
X303334Y208478D01*
X305000Y208146D01*
X306666Y208478D01*
X308078Y209422D01*
X309022Y210834D01*
X309354Y212500D01*
X309022Y214166D01*
X308698Y214652D01*
X309376Y215922D01*
X315623D01*
X316302Y214652D01*
X315978Y214166D01*
X315646Y212500D01*
X315978Y210834D01*
X316921Y209422D01*
X318334Y208478D01*
X320000Y208146D01*
X321666Y208478D01*
X323078Y209422D01*
X324022Y210834D01*
X324354Y212500D01*
X324022Y214166D01*
X323698Y214652D01*
X324376Y215922D01*
X330623D01*
X331302Y214652D01*
X330978Y214166D01*
X330646Y212500D01*
X330978Y210834D01*
X331921Y209422D01*
X333334Y208478D01*
X335000Y208146D01*
X336666Y208478D01*
X338078Y209422D01*
X339022Y210834D01*
X339354Y212500D01*
X339022Y214166D01*
X338698Y214652D01*
X339376Y215922D01*
X345623D01*
X346302Y214652D01*
X345978Y214166D01*
X345646Y212500D01*
X345978Y210834D01*
X346921Y209422D01*
X348334Y208478D01*
X350000Y208146D01*
X351666Y208478D01*
X353078Y209422D01*
X354022Y210834D01*
X354353Y212500D01*
X354022Y214166D01*
X353698Y214652D01*
X354376Y215922D01*
X360623D01*
X361302Y214652D01*
X360978Y214166D01*
X360646Y212500D01*
X360978Y210834D01*
X361921Y209422D01*
X363334Y208478D01*
X365000Y208146D01*
X366666Y208478D01*
X368078Y209422D01*
X369022Y210834D01*
X369353Y212500D01*
X369022Y214166D01*
X368698Y214652D01*
X369376Y215922D01*
X375623D01*
X376302Y214652D01*
X375978Y214166D01*
X375646Y212500D01*
X375978Y210834D01*
X376921Y209422D01*
X378334Y208478D01*
X380000Y208146D01*
X381666Y208478D01*
X383078Y209422D01*
X384022Y210834D01*
X384353Y212500D01*
X384022Y214166D01*
X383698Y214652D01*
X384376Y215922D01*
X388124D01*
X388802Y214652D01*
D02*
G37*
%LPC*%
G36*
X380000Y201854D02*
X378334Y201522D01*
X376921Y200578D01*
X375978Y199166D01*
X375646Y197500D01*
X375978Y195834D01*
X376921Y194422D01*
X378334Y193478D01*
X380000Y193146D01*
X381666Y193478D01*
X383078Y194422D01*
X384022Y195834D01*
X384353Y197500D01*
X384022Y199166D01*
X383078Y200578D01*
X381666Y201522D01*
X380000Y201854D01*
D02*
G37*
G36*
X365000D02*
X363334Y201522D01*
X361921Y200578D01*
X360978Y199166D01*
X360646Y197500D01*
X360978Y195834D01*
X361921Y194422D01*
X363334Y193478D01*
X365000Y193146D01*
X366666Y193478D01*
X368078Y194422D01*
X369022Y195834D01*
X369353Y197500D01*
X369022Y199166D01*
X368078Y200578D01*
X366666Y201522D01*
X365000Y201854D01*
D02*
G37*
G36*
X350000D02*
X348334Y201522D01*
X346921Y200578D01*
X345978Y199166D01*
X345646Y197500D01*
X345978Y195834D01*
X346921Y194422D01*
X348334Y193478D01*
X350000Y193146D01*
X351666Y193478D01*
X353078Y194422D01*
X354022Y195834D01*
X354353Y197500D01*
X354022Y199166D01*
X353078Y200578D01*
X351666Y201522D01*
X350000Y201854D01*
D02*
G37*
G36*
X335000D02*
X333334Y201522D01*
X331921Y200578D01*
X330978Y199166D01*
X330646Y197500D01*
X330978Y195834D01*
X331921Y194422D01*
X333334Y193478D01*
X335000Y193146D01*
X336666Y193478D01*
X338078Y194422D01*
X339022Y195834D01*
X339354Y197500D01*
X339022Y199166D01*
X338078Y200578D01*
X336666Y201522D01*
X335000Y201854D01*
D02*
G37*
G36*
X320000D02*
X318334Y201522D01*
X316921Y200578D01*
X315978Y199166D01*
X315646Y197500D01*
X315978Y195834D01*
X316921Y194422D01*
X318334Y193478D01*
X320000Y193146D01*
X321666Y193478D01*
X323078Y194422D01*
X324022Y195834D01*
X324354Y197500D01*
X324022Y199166D01*
X323078Y200578D01*
X321666Y201522D01*
X320000Y201854D01*
D02*
G37*
G36*
X305000D02*
X303334Y201522D01*
X301921Y200578D01*
X300978Y199166D01*
X300646Y197500D01*
X300978Y195834D01*
X301921Y194422D01*
X303334Y193478D01*
X305000Y193146D01*
X306666Y193478D01*
X308078Y194422D01*
X309022Y195834D01*
X309354Y197500D01*
X309022Y199166D01*
X308078Y200578D01*
X306666Y201522D01*
X305000Y201854D01*
D02*
G37*
G36*
X290000D02*
X288334Y201522D01*
X286921Y200578D01*
X285978Y199166D01*
X285646Y197500D01*
X285978Y195834D01*
X286921Y194422D01*
X288334Y193478D01*
X290000Y193146D01*
X291666Y193478D01*
X293078Y194422D01*
X294022Y195834D01*
X294354Y197500D01*
X294022Y199166D01*
X293078Y200578D01*
X291666Y201522D01*
X290000Y201854D01*
D02*
G37*
G36*
X275000D02*
X273334Y201522D01*
X271922Y200578D01*
X270978Y199166D01*
X270646Y197500D01*
X270978Y195834D01*
X271922Y194422D01*
X273334Y193478D01*
X275000Y193146D01*
X276666Y193478D01*
X278078Y194422D01*
X279022Y195834D01*
X279354Y197500D01*
X279022Y199166D01*
X278078Y200578D01*
X276666Y201522D01*
X275000Y201854D01*
D02*
G37*
G36*
X260000D02*
X258334Y201522D01*
X256922Y200578D01*
X255978Y199166D01*
X255646Y197500D01*
X255978Y195834D01*
X256922Y194422D01*
X258334Y193478D01*
X260000Y193146D01*
X261666Y193478D01*
X263078Y194422D01*
X264022Y195834D01*
X264354Y197500D01*
X264022Y199166D01*
X263078Y200578D01*
X261666Y201522D01*
X260000Y201854D01*
D02*
G37*
G36*
X140000D02*
X138334Y201522D01*
X136922Y200578D01*
X135978Y199166D01*
X135646Y197500D01*
X135978Y195834D01*
X136922Y194422D01*
X138334Y193478D01*
X140000Y193146D01*
X141666Y193478D01*
X143078Y194422D01*
X144022Y195834D01*
X144354Y197500D01*
X144022Y199166D01*
X143078Y200578D01*
X141666Y201522D01*
X140000Y201854D01*
D02*
G37*
G36*
X125000D02*
X123334Y201522D01*
X121922Y200578D01*
X120978Y199166D01*
X120646Y197500D01*
X120978Y195834D01*
X121922Y194422D01*
X123334Y193478D01*
X125000Y193146D01*
X126666Y193478D01*
X128078Y194422D01*
X129022Y195834D01*
X129354Y197500D01*
X129022Y199166D01*
X128078Y200578D01*
X126666Y201522D01*
X125000Y201854D01*
D02*
G37*
G36*
X110000D02*
X108334Y201522D01*
X106922Y200578D01*
X105978Y199166D01*
X105646Y197500D01*
X105978Y195834D01*
X106922Y194422D01*
X108334Y193478D01*
X110000Y193146D01*
X111666Y193478D01*
X113078Y194422D01*
X114022Y195834D01*
X114354Y197500D01*
X114022Y199166D01*
X113078Y200578D01*
X111666Y201522D01*
X110000Y201854D01*
D02*
G37*
G36*
X95000D02*
X93334Y201522D01*
X91922Y200578D01*
X90978Y199166D01*
X90646Y197500D01*
X90978Y195834D01*
X91922Y194422D01*
X93334Y193478D01*
X95000Y193146D01*
X96666Y193478D01*
X98078Y194422D01*
X99022Y195834D01*
X99354Y197500D01*
X99022Y199166D01*
X98078Y200578D01*
X96666Y201522D01*
X95000Y201854D01*
D02*
G37*
G36*
X80000D02*
X78334Y201522D01*
X76922Y200578D01*
X75978Y199166D01*
X75646Y197500D01*
X75978Y195834D01*
X76922Y194422D01*
X78334Y193478D01*
X80000Y193146D01*
X81666Y193478D01*
X83078Y194422D01*
X84022Y195834D01*
X84354Y197500D01*
X84022Y199166D01*
X83078Y200578D01*
X81666Y201522D01*
X80000Y201854D01*
D02*
G37*
G36*
X65000D02*
X63334Y201522D01*
X61922Y200578D01*
X60978Y199166D01*
X60646Y197500D01*
X60978Y195834D01*
X61922Y194422D01*
X63334Y193478D01*
X65000Y193146D01*
X66666Y193478D01*
X68078Y194422D01*
X69022Y195834D01*
X69354Y197500D01*
X69022Y199166D01*
X68078Y200578D01*
X66666Y201522D01*
X65000Y201854D01*
D02*
G37*
G36*
X50000D02*
X48334Y201522D01*
X46922Y200578D01*
X45978Y199166D01*
X45646Y197500D01*
X45978Y195834D01*
X46922Y194422D01*
X48334Y193478D01*
X50000Y193146D01*
X51666Y193478D01*
X53078Y194422D01*
X54022Y195834D01*
X54354Y197500D01*
X54022Y199166D01*
X53078Y200578D01*
X51666Y201522D01*
X50000Y201854D01*
D02*
G37*
G36*
X35000D02*
X33334Y201522D01*
X31922Y200578D01*
X30978Y199166D01*
X30646Y197500D01*
X30978Y195834D01*
X31922Y194422D01*
X33334Y193478D01*
X35000Y193146D01*
X36666Y193478D01*
X38078Y194422D01*
X39022Y195834D01*
X39354Y197500D01*
X39022Y199166D01*
X38078Y200578D01*
X36666Y201522D01*
X35000Y201854D01*
D02*
G37*
G36*
X20000D02*
X18334Y201522D01*
X16921Y200578D01*
X15978Y199166D01*
X15646Y197500D01*
X15978Y195834D01*
X16921Y194422D01*
X18334Y193478D01*
X20000Y193146D01*
X21666Y193478D01*
X23078Y194422D01*
X24022Y195834D01*
X24354Y197500D01*
X24022Y199166D01*
X23078Y200578D01*
X21666Y201522D01*
X20000Y201854D01*
D02*
G37*
G36*
X380000Y186854D02*
X378334Y186522D01*
X376921Y185578D01*
X375978Y184166D01*
X375646Y182500D01*
X375978Y180834D01*
X376921Y179422D01*
X378334Y178478D01*
X380000Y178146D01*
X381666Y178478D01*
X383078Y179422D01*
X384022Y180834D01*
X384353Y182500D01*
X384022Y184166D01*
X383078Y185578D01*
X381666Y186522D01*
X380000Y186854D01*
D02*
G37*
G36*
X365000D02*
X363334Y186522D01*
X361921Y185578D01*
X360978Y184166D01*
X360646Y182500D01*
X360978Y180834D01*
X361921Y179422D01*
X363334Y178478D01*
X365000Y178146D01*
X366666Y178478D01*
X368078Y179422D01*
X369022Y180834D01*
X369353Y182500D01*
X369022Y184166D01*
X368078Y185578D01*
X366666Y186522D01*
X365000Y186854D01*
D02*
G37*
G36*
X335000D02*
X333334Y186522D01*
X331921Y185578D01*
X330978Y184166D01*
X330646Y182500D01*
X330978Y180834D01*
X331921Y179422D01*
X333334Y178478D01*
X335000Y178146D01*
X336666Y178478D01*
X338078Y179422D01*
X339022Y180834D01*
X339354Y182500D01*
X339022Y184166D01*
X338078Y185578D01*
X336666Y186522D01*
X335000Y186854D01*
D02*
G37*
G36*
X320000D02*
X318334Y186522D01*
X316921Y185578D01*
X315978Y184166D01*
X315646Y182500D01*
X315978Y180834D01*
X316921Y179422D01*
X318334Y178478D01*
X320000Y178146D01*
X321666Y178478D01*
X323078Y179422D01*
X324022Y180834D01*
X324354Y182500D01*
X324022Y184166D01*
X323078Y185578D01*
X321666Y186522D01*
X320000Y186854D01*
D02*
G37*
G36*
X305000D02*
X303334Y186522D01*
X301921Y185578D01*
X300978Y184166D01*
X300646Y182500D01*
X300978Y180834D01*
X301921Y179422D01*
X303334Y178478D01*
X305000Y178146D01*
X306666Y178478D01*
X308078Y179422D01*
X309022Y180834D01*
X309354Y182500D01*
X309022Y184166D01*
X308078Y185578D01*
X306666Y186522D01*
X305000Y186854D01*
D02*
G37*
G36*
X290000D02*
X288334Y186522D01*
X286921Y185578D01*
X285978Y184166D01*
X285646Y182500D01*
X285978Y180834D01*
X286921Y179422D01*
X288334Y178478D01*
X290000Y178146D01*
X291666Y178478D01*
X293078Y179422D01*
X294022Y180834D01*
X294354Y182500D01*
X294022Y184166D01*
X293078Y185578D01*
X291666Y186522D01*
X290000Y186854D01*
D02*
G37*
G36*
X275000D02*
X273334Y186522D01*
X271922Y185578D01*
X270978Y184166D01*
X270646Y182500D01*
X270978Y180834D01*
X271922Y179422D01*
X273334Y178478D01*
X275000Y178146D01*
X276666Y178478D01*
X278078Y179422D01*
X279022Y180834D01*
X279354Y182500D01*
X279022Y184166D01*
X278078Y185578D01*
X276666Y186522D01*
X275000Y186854D01*
D02*
G37*
G36*
X260000D02*
X258334Y186522D01*
X256922Y185578D01*
X255978Y184166D01*
X255646Y182500D01*
X255978Y180834D01*
X256922Y179422D01*
X258334Y178478D01*
X260000Y178146D01*
X261666Y178478D01*
X263078Y179422D01*
X264022Y180834D01*
X264354Y182500D01*
X264022Y184166D01*
X263078Y185578D01*
X261666Y186522D01*
X260000Y186854D01*
D02*
G37*
G36*
X140000D02*
X138334Y186522D01*
X136922Y185578D01*
X135978Y184166D01*
X135646Y182500D01*
X135978Y180834D01*
X136922Y179422D01*
X138334Y178478D01*
X140000Y178146D01*
X141666Y178478D01*
X143078Y179422D01*
X144022Y180834D01*
X144354Y182500D01*
X144022Y184166D01*
X143078Y185578D01*
X141666Y186522D01*
X140000Y186854D01*
D02*
G37*
G36*
X125000D02*
X123334Y186522D01*
X121922Y185578D01*
X120978Y184166D01*
X120646Y182500D01*
X120978Y180834D01*
X121922Y179422D01*
X123334Y178478D01*
X125000Y178146D01*
X126666Y178478D01*
X128078Y179422D01*
X129022Y180834D01*
X129354Y182500D01*
X129022Y184166D01*
X128078Y185578D01*
X126666Y186522D01*
X125000Y186854D01*
D02*
G37*
G36*
X110000D02*
X108334Y186522D01*
X106922Y185578D01*
X105978Y184166D01*
X105646Y182500D01*
X105978Y180834D01*
X106922Y179422D01*
X108334Y178478D01*
X110000Y178146D01*
X111666Y178478D01*
X113078Y179422D01*
X114022Y180834D01*
X114354Y182500D01*
X114022Y184166D01*
X113078Y185578D01*
X111666Y186522D01*
X110000Y186854D01*
D02*
G37*
G36*
X95000D02*
X93334Y186522D01*
X91922Y185578D01*
X90978Y184166D01*
X90646Y182500D01*
X90978Y180834D01*
X91922Y179422D01*
X93334Y178478D01*
X95000Y178146D01*
X96666Y178478D01*
X98078Y179422D01*
X99022Y180834D01*
X99354Y182500D01*
X99022Y184166D01*
X98078Y185578D01*
X96666Y186522D01*
X95000Y186854D01*
D02*
G37*
G36*
X80000D02*
X78334Y186522D01*
X76922Y185578D01*
X75978Y184166D01*
X75646Y182500D01*
X75978Y180834D01*
X76922Y179422D01*
X78334Y178478D01*
X80000Y178146D01*
X81666Y178478D01*
X83078Y179422D01*
X84022Y180834D01*
X84354Y182500D01*
X84022Y184166D01*
X83078Y185578D01*
X81666Y186522D01*
X80000Y186854D01*
D02*
G37*
G36*
X65000D02*
X63334Y186522D01*
X61922Y185578D01*
X60978Y184166D01*
X60646Y182500D01*
X60978Y180834D01*
X61922Y179422D01*
X63334Y178478D01*
X65000Y178146D01*
X66666Y178478D01*
X68078Y179422D01*
X69022Y180834D01*
X69354Y182500D01*
X69022Y184166D01*
X68078Y185578D01*
X66666Y186522D01*
X65000Y186854D01*
D02*
G37*
G36*
X50000D02*
X48334Y186522D01*
X46922Y185578D01*
X45978Y184166D01*
X45646Y182500D01*
X45978Y180834D01*
X46922Y179422D01*
X48334Y178478D01*
X50000Y178146D01*
X51666Y178478D01*
X53078Y179422D01*
X54022Y180834D01*
X54354Y182500D01*
X54022Y184166D01*
X53078Y185578D01*
X51666Y186522D01*
X50000Y186854D01*
D02*
G37*
G36*
X35000D02*
X33334Y186522D01*
X31922Y185578D01*
X30978Y184166D01*
X30646Y182500D01*
X30978Y180834D01*
X31922Y179422D01*
X33334Y178478D01*
X35000Y178146D01*
X36666Y178478D01*
X38078Y179422D01*
X39022Y180834D01*
X39354Y182500D01*
X39022Y184166D01*
X38078Y185578D01*
X36666Y186522D01*
X35000Y186854D01*
D02*
G37*
G36*
X20000D02*
X18334Y186522D01*
X16921Y185578D01*
X15978Y184166D01*
X15646Y182500D01*
X15978Y180834D01*
X16921Y179422D01*
X18334Y178478D01*
X20000Y178146D01*
X21666Y178478D01*
X23078Y179422D01*
X24022Y180834D01*
X24354Y182500D01*
X24022Y184166D01*
X23078Y185578D01*
X21666Y186522D01*
X20000Y186854D01*
D02*
G37*
G36*
X350000D02*
X348334Y186522D01*
X346921Y185578D01*
X345978Y184166D01*
X345646Y182500D01*
X345978Y180834D01*
X346921Y179422D01*
X348334Y178478D01*
X350000Y178146D01*
X350121Y178171D01*
X350635Y177568D01*
X350953Y177041D01*
X350646Y175500D01*
X350978Y173834D01*
X351656Y172819D01*
X350939Y171667D01*
X350000Y171854D01*
X348334Y171522D01*
X346921Y170578D01*
X345978Y169166D01*
X345646Y167500D01*
X345978Y165834D01*
X346921Y164422D01*
X348334Y163478D01*
X350000Y163146D01*
X351666Y163478D01*
X351938Y163659D01*
X353058Y163061D01*
Y156939D01*
X351938Y156341D01*
X351666Y156522D01*
X350000Y156854D01*
X348334Y156522D01*
X346921Y155578D01*
X345978Y154166D01*
X345646Y152500D01*
X345978Y150834D01*
X346921Y149422D01*
X348334Y148478D01*
X350000Y148146D01*
X351666Y148478D01*
X351938Y148659D01*
X353058Y148061D01*
Y141939D01*
X351938Y141341D01*
X351666Y141522D01*
X350000Y141854D01*
X348334Y141522D01*
X346921Y140578D01*
X345978Y139166D01*
X345646Y137500D01*
X345978Y135834D01*
X346921Y134422D01*
X348334Y133478D01*
X350000Y133146D01*
X351666Y133478D01*
X351938Y133659D01*
X353058Y133061D01*
Y126939D01*
X351938Y126341D01*
X351666Y126522D01*
X350000Y126854D01*
X348334Y126522D01*
X346921Y125578D01*
X345978Y124166D01*
X345646Y122500D01*
X345978Y120834D01*
X346921Y119422D01*
X348334Y118478D01*
X350000Y118146D01*
X351666Y118478D01*
X351938Y118659D01*
X353058Y118061D01*
Y111939D01*
X351938Y111341D01*
X351666Y111522D01*
X350000Y111854D01*
X348334Y111522D01*
X346921Y110578D01*
X345978Y109166D01*
X345646Y107500D01*
X345978Y105834D01*
X346921Y104422D01*
X348334Y103478D01*
X350000Y103146D01*
X351666Y103478D01*
X351938Y103659D01*
X353058Y103061D01*
Y96338D01*
X351922Y95578D01*
X350978Y94166D01*
X350646Y92500D01*
X350978Y90834D01*
X351922Y89422D01*
X353334Y88478D01*
X355000Y88146D01*
X356666Y88478D01*
X358078Y89422D01*
X359022Y90834D01*
X359354Y92500D01*
X359022Y94166D01*
X358078Y95578D01*
X356942Y96338D01*
Y171662D01*
X358078Y172421D01*
X359022Y173834D01*
X359354Y175500D01*
X359022Y177166D01*
X358078Y178578D01*
X356666Y179522D01*
X355000Y179854D01*
X354878Y179830D01*
X354365Y180432D01*
X354047Y180959D01*
X354353Y182500D01*
X354022Y184166D01*
X353078Y185578D01*
X351666Y186522D01*
X350000Y186854D01*
D02*
G37*
G36*
X290000Y174074D02*
X288334Y173742D01*
X286922Y172799D01*
X285978Y171386D01*
X285646Y169720D01*
X285978Y168054D01*
X286922Y166642D01*
X288334Y165698D01*
X290000Y165366D01*
X291666Y165698D01*
X293078Y166642D01*
X294022Y168054D01*
X294354Y169720D01*
X294022Y171386D01*
X293078Y172799D01*
X291666Y173742D01*
X290000Y174074D01*
D02*
G37*
G36*
X275000D02*
X273334Y173742D01*
X271922Y172799D01*
X270978Y171386D01*
X270646Y169720D01*
X270978Y168054D01*
X271922Y166642D01*
X273334Y165698D01*
X275000Y165366D01*
X276666Y165698D01*
X278078Y166642D01*
X279022Y168054D01*
X279354Y169720D01*
X279022Y171386D01*
X278078Y172799D01*
X276666Y173742D01*
X275000Y174074D01*
D02*
G37*
G36*
X260000D02*
X258334Y173742D01*
X256922Y172799D01*
X255978Y171386D01*
X255646Y169720D01*
X255978Y168054D01*
X256922Y166642D01*
X258334Y165698D01*
X260000Y165366D01*
X261666Y165698D01*
X263078Y166642D01*
X264022Y168054D01*
X264354Y169720D01*
X264022Y171386D01*
X263078Y172799D01*
X261666Y173742D01*
X260000Y174074D01*
D02*
G37*
G36*
X380000Y171854D02*
X378334Y171522D01*
X376921Y170578D01*
X375978Y169166D01*
X375646Y167500D01*
X375978Y165834D01*
X376921Y164422D01*
X378334Y163478D01*
X380000Y163146D01*
X381666Y163478D01*
X383078Y164422D01*
X384022Y165834D01*
X384353Y167500D01*
X384022Y169166D01*
X383078Y170578D01*
X381666Y171522D01*
X380000Y171854D01*
D02*
G37*
G36*
X365000D02*
X363334Y171522D01*
X361921Y170578D01*
X360978Y169166D01*
X360646Y167500D01*
X360978Y165834D01*
X361921Y164422D01*
X363334Y163478D01*
X365000Y163146D01*
X366666Y163478D01*
X368078Y164422D01*
X369022Y165834D01*
X369353Y167500D01*
X369022Y169166D01*
X368078Y170578D01*
X366666Y171522D01*
X365000Y171854D01*
D02*
G37*
G36*
X335000D02*
X333334Y171522D01*
X331921Y170578D01*
X330978Y169166D01*
X330646Y167500D01*
X330978Y165834D01*
X331921Y164422D01*
X333334Y163478D01*
X335000Y163146D01*
X336666Y163478D01*
X338078Y164422D01*
X339022Y165834D01*
X339354Y167500D01*
X339022Y169166D01*
X338078Y170578D01*
X336666Y171522D01*
X335000Y171854D01*
D02*
G37*
G36*
X320000D02*
X318334Y171522D01*
X316921Y170578D01*
X315978Y169166D01*
X315646Y167500D01*
X315978Y165834D01*
X316921Y164422D01*
X318334Y163478D01*
X320000Y163146D01*
X321666Y163478D01*
X323078Y164422D01*
X324022Y165834D01*
X324354Y167500D01*
X324022Y169166D01*
X323078Y170578D01*
X321666Y171522D01*
X320000Y171854D01*
D02*
G37*
G36*
X305000D02*
X303334Y171522D01*
X301921Y170578D01*
X300978Y169166D01*
X300646Y167500D01*
X300978Y165834D01*
X301921Y164422D01*
X303334Y163478D01*
X305000Y163146D01*
X306666Y163478D01*
X308078Y164422D01*
X309022Y165834D01*
X309354Y167500D01*
X309022Y169166D01*
X308078Y170578D01*
X306666Y171522D01*
X305000Y171854D01*
D02*
G37*
G36*
X65000D02*
X63334Y171522D01*
X61922Y170578D01*
X60978Y169166D01*
X60646Y167500D01*
X60978Y165834D01*
X61922Y164422D01*
X63334Y163478D01*
X65000Y163146D01*
X66666Y163478D01*
X68078Y164422D01*
X69022Y165834D01*
X69354Y167500D01*
X69022Y169166D01*
X68078Y170578D01*
X66666Y171522D01*
X65000Y171854D01*
D02*
G37*
G36*
X50000D02*
X48334Y171522D01*
X46922Y170578D01*
X45978Y169166D01*
X45646Y167500D01*
X45978Y165834D01*
X46922Y164422D01*
X48334Y163478D01*
X50000Y163146D01*
X51666Y163478D01*
X53078Y164422D01*
X54022Y165834D01*
X54354Y167500D01*
X54022Y169166D01*
X53078Y170578D01*
X51666Y171522D01*
X50000Y171854D01*
D02*
G37*
G36*
X35000D02*
X33334Y171522D01*
X31922Y170578D01*
X30978Y169166D01*
X30646Y167500D01*
X30978Y165834D01*
X31922Y164422D01*
X33334Y163478D01*
X35000Y163146D01*
X36666Y163478D01*
X38078Y164422D01*
X39022Y165834D01*
X39354Y167500D01*
X39022Y169166D01*
X38078Y170578D01*
X36666Y171522D01*
X35000Y171854D01*
D02*
G37*
G36*
X20000D02*
X18334Y171522D01*
X16921Y170578D01*
X15978Y169166D01*
X15646Y167500D01*
X15978Y165834D01*
X16921Y164422D01*
X18334Y163478D01*
X20000Y163146D01*
X21666Y163478D01*
X23078Y164422D01*
X24022Y165834D01*
X24354Y167500D01*
X24022Y169166D01*
X23078Y170578D01*
X21666Y171522D01*
X20000Y171854D01*
D02*
G37*
G36*
X213750Y163354D02*
X212084Y163022D01*
X210672Y162078D01*
X209728Y160666D01*
X209396Y159000D01*
X209728Y157334D01*
X210672Y155921D01*
X212084Y154978D01*
X213750Y154646D01*
X215416Y154978D01*
X216828Y155921D01*
X217772Y157334D01*
X218104Y159000D01*
X217772Y160666D01*
X216828Y162078D01*
X215416Y163022D01*
X213750Y163354D01*
D02*
G37*
G36*
X200000D02*
X198334Y163022D01*
X196922Y162078D01*
X195978Y160666D01*
X195646Y159000D01*
X195978Y157334D01*
X196922Y155921D01*
X198334Y154978D01*
X200000Y154646D01*
X201666Y154978D01*
X203078Y155921D01*
X204022Y157334D01*
X204354Y159000D01*
X204022Y160666D01*
X203078Y162078D01*
X201666Y163022D01*
X200000Y163354D01*
D02*
G37*
G36*
X186250D02*
X184584Y163022D01*
X183172Y162078D01*
X182228Y160666D01*
X181896Y159000D01*
X182228Y157334D01*
X183172Y155921D01*
X184584Y154978D01*
X186250Y154646D01*
X187916Y154978D01*
X189328Y155921D01*
X190272Y157334D01*
X190604Y159000D01*
X190272Y160666D01*
X189328Y162078D01*
X187916Y163022D01*
X186250Y163354D01*
D02*
G37*
G36*
X365000Y156854D02*
X363334Y156522D01*
X361921Y155578D01*
X360978Y154166D01*
X360646Y152500D01*
X360978Y150834D01*
X361921Y149422D01*
X363334Y148478D01*
X365000Y148146D01*
X366666Y148478D01*
X368078Y149422D01*
X369022Y150834D01*
X369353Y152500D01*
X369022Y154166D01*
X368078Y155578D01*
X366666Y156522D01*
X365000Y156854D01*
D02*
G37*
G36*
X335000D02*
X333334Y156522D01*
X331921Y155578D01*
X330978Y154166D01*
X330646Y152500D01*
X330978Y150834D01*
X331921Y149422D01*
X333334Y148478D01*
X335000Y148146D01*
X336666Y148478D01*
X338078Y149422D01*
X339022Y150834D01*
X339354Y152500D01*
X339022Y154166D01*
X338078Y155578D01*
X336666Y156522D01*
X335000Y156854D01*
D02*
G37*
G36*
X320000D02*
X318334Y156522D01*
X316921Y155578D01*
X315978Y154166D01*
X315646Y152500D01*
X315978Y150834D01*
X316921Y149422D01*
X318334Y148478D01*
X320000Y148146D01*
X321666Y148478D01*
X323078Y149422D01*
X324022Y150834D01*
X324354Y152500D01*
X324022Y154166D01*
X323078Y155578D01*
X321666Y156522D01*
X320000Y156854D01*
D02*
G37*
G36*
X305000D02*
X303334Y156522D01*
X301921Y155578D01*
X300978Y154166D01*
X300646Y152500D01*
X300978Y150834D01*
X301921Y149422D01*
X303334Y148478D01*
X305000Y148146D01*
X306666Y148478D01*
X308078Y149422D01*
X309022Y150834D01*
X309354Y152500D01*
X309022Y154166D01*
X308078Y155578D01*
X306666Y156522D01*
X305000Y156854D01*
D02*
G37*
G36*
X65000D02*
X63334Y156522D01*
X61922Y155578D01*
X60978Y154166D01*
X60646Y152500D01*
X60978Y150834D01*
X61922Y149422D01*
X63334Y148478D01*
X65000Y148146D01*
X66666Y148478D01*
X68078Y149422D01*
X69022Y150834D01*
X69354Y152500D01*
X69022Y154166D01*
X68078Y155578D01*
X66666Y156522D01*
X65000Y156854D01*
D02*
G37*
G36*
X50000D02*
X48334Y156522D01*
X46922Y155578D01*
X45978Y154166D01*
X45646Y152500D01*
X45978Y150834D01*
X46922Y149422D01*
X48334Y148478D01*
X50000Y148146D01*
X51666Y148478D01*
X53078Y149422D01*
X54022Y150834D01*
X54354Y152500D01*
X54022Y154166D01*
X53078Y155578D01*
X51666Y156522D01*
X50000Y156854D01*
D02*
G37*
G36*
X35000D02*
X33334Y156522D01*
X31922Y155578D01*
X30978Y154166D01*
X30646Y152500D01*
X30978Y150834D01*
X31922Y149422D01*
X33334Y148478D01*
X35000Y148146D01*
X36666Y148478D01*
X38078Y149422D01*
X39022Y150834D01*
X39354Y152500D01*
X39022Y154166D01*
X38078Y155578D01*
X36666Y156522D01*
X35000Y156854D01*
D02*
G37*
G36*
X20000D02*
X18334Y156522D01*
X16921Y155578D01*
X15978Y154166D01*
X15646Y152500D01*
X15978Y150834D01*
X16921Y149422D01*
X18334Y148478D01*
X20000Y148146D01*
X21666Y148478D01*
X23078Y149422D01*
X24022Y150834D01*
X24354Y152500D01*
X24022Y154166D01*
X23078Y155578D01*
X21666Y156522D01*
X20000Y156854D01*
D02*
G37*
G36*
X275000Y152854D02*
X273334Y152522D01*
X271922Y151579D01*
X270978Y150166D01*
X270646Y148500D01*
X270978Y146834D01*
X271922Y145421D01*
X273334Y144478D01*
X275000Y144146D01*
X276666Y144478D01*
X278078Y145421D01*
X279022Y146834D01*
X279354Y148500D01*
X279022Y150166D01*
X278078Y151579D01*
X276666Y152522D01*
X275000Y152854D01*
D02*
G37*
G36*
X260000D02*
X258334Y152522D01*
X256922Y151579D01*
X255978Y150166D01*
X255646Y148500D01*
X255978Y146834D01*
X256922Y145421D01*
X258334Y144478D01*
X260000Y144146D01*
X261666Y144478D01*
X263078Y145421D01*
X264022Y146834D01*
X264354Y148500D01*
X264022Y150166D01*
X263078Y151579D01*
X261666Y152522D01*
X260000Y152854D01*
D02*
G37*
G36*
X214000Y152354D02*
X212334Y152022D01*
X210921Y151079D01*
X209978Y149666D01*
X209646Y148000D01*
X209978Y146334D01*
X210836Y145049D01*
X210976Y144606D01*
Y143894D01*
X210836Y143451D01*
X209978Y142166D01*
X209646Y140500D01*
X209978Y138834D01*
X210921Y137422D01*
X212334Y136478D01*
X214000Y136146D01*
X215666Y136478D01*
X217078Y137422D01*
X218022Y138834D01*
X218354Y140500D01*
X218022Y142166D01*
X217164Y143451D01*
X217024Y143894D01*
Y144606D01*
X217164Y145049D01*
X218022Y146334D01*
X218354Y148000D01*
X218022Y149666D01*
X217078Y151079D01*
X215666Y152022D01*
X214000Y152354D01*
D02*
G37*
G36*
X260000Y141854D02*
X258334Y141522D01*
X256922Y140578D01*
X255978Y139166D01*
X255646Y137500D01*
X255787Y136793D01*
X254707Y135713D01*
X254000Y135854D01*
X252334Y135522D01*
X250921Y134579D01*
X249978Y133166D01*
X249646Y131500D01*
X249978Y129834D01*
X250921Y128421D01*
X252334Y127478D01*
X254000Y127146D01*
X255666Y127478D01*
X257078Y128421D01*
X258022Y129834D01*
X258354Y131500D01*
X258213Y132207D01*
X259293Y133287D01*
X260000Y133146D01*
X261666Y133478D01*
X263078Y134422D01*
X264022Y135834D01*
X264354Y137500D01*
X264022Y139166D01*
X263078Y140578D01*
X261666Y141522D01*
X260000Y141854D01*
D02*
G37*
G36*
X365000D02*
X363334Y141522D01*
X361921Y140578D01*
X360978Y139166D01*
X360646Y137500D01*
X360978Y135834D01*
X361921Y134422D01*
X363334Y133478D01*
X365000Y133146D01*
X366666Y133478D01*
X368078Y134422D01*
X369022Y135834D01*
X369353Y137500D01*
X369022Y139166D01*
X368078Y140578D01*
X366666Y141522D01*
X365000Y141854D01*
D02*
G37*
G36*
X335000D02*
X333334Y141522D01*
X331921Y140578D01*
X330978Y139166D01*
X330646Y137500D01*
X330978Y135834D01*
X331921Y134422D01*
X333334Y133478D01*
X335000Y133146D01*
X336666Y133478D01*
X338078Y134422D01*
X339022Y135834D01*
X339354Y137500D01*
X339022Y139166D01*
X338078Y140578D01*
X336666Y141522D01*
X335000Y141854D01*
D02*
G37*
G36*
X320000D02*
X318334Y141522D01*
X316921Y140578D01*
X315978Y139166D01*
X315646Y137500D01*
X315978Y135834D01*
X316921Y134422D01*
X318334Y133478D01*
X320000Y133146D01*
X321666Y133478D01*
X323078Y134422D01*
X324022Y135834D01*
X324354Y137500D01*
X324022Y139166D01*
X323078Y140578D01*
X321666Y141522D01*
X320000Y141854D01*
D02*
G37*
G36*
X305000D02*
X303334Y141522D01*
X301921Y140578D01*
X300978Y139166D01*
X300646Y137500D01*
X300978Y135834D01*
X301921Y134422D01*
X303334Y133478D01*
X305000Y133146D01*
X306666Y133478D01*
X308078Y134422D01*
X309022Y135834D01*
X309354Y137500D01*
X309022Y139166D01*
X308078Y140578D01*
X306666Y141522D01*
X305000Y141854D01*
D02*
G37*
G36*
X275000D02*
X273334Y141522D01*
X271922Y140578D01*
X270978Y139166D01*
X270646Y137500D01*
X270978Y135834D01*
X271922Y134422D01*
X273334Y133478D01*
X275000Y133146D01*
X276666Y133478D01*
X278078Y134422D01*
X279022Y135834D01*
X279354Y137500D01*
X279022Y139166D01*
X278078Y140578D01*
X276666Y141522D01*
X275000Y141854D01*
D02*
G37*
G36*
X140000D02*
X138334Y141522D01*
X136922Y140578D01*
X135978Y139166D01*
X135646Y137500D01*
X135978Y135834D01*
X136922Y134422D01*
X138334Y133478D01*
X140000Y133146D01*
X141666Y133478D01*
X143078Y134422D01*
X144022Y135834D01*
X144354Y137500D01*
X144022Y139166D01*
X143078Y140578D01*
X141666Y141522D01*
X140000Y141854D01*
D02*
G37*
G36*
X125000D02*
X123334Y141522D01*
X121922Y140578D01*
X120978Y139166D01*
X120646Y137500D01*
X120978Y135834D01*
X121922Y134422D01*
X123334Y133478D01*
X125000Y133146D01*
X126666Y133478D01*
X128078Y134422D01*
X129022Y135834D01*
X129354Y137500D01*
X129022Y139166D01*
X128078Y140578D01*
X126666Y141522D01*
X125000Y141854D01*
D02*
G37*
G36*
X110000D02*
X108334Y141522D01*
X106922Y140578D01*
X105978Y139166D01*
X105646Y137500D01*
X105978Y135834D01*
X106922Y134422D01*
X108334Y133478D01*
X110000Y133146D01*
X111666Y133478D01*
X113078Y134422D01*
X114022Y135834D01*
X114354Y137500D01*
X114022Y139166D01*
X113078Y140578D01*
X111666Y141522D01*
X110000Y141854D01*
D02*
G37*
G36*
X95000D02*
X93334Y141522D01*
X91922Y140578D01*
X90978Y139166D01*
X90646Y137500D01*
X90978Y135834D01*
X91922Y134422D01*
X93334Y133478D01*
X95000Y133146D01*
X96666Y133478D01*
X98078Y134422D01*
X99022Y135834D01*
X99354Y137500D01*
X99022Y139166D01*
X98078Y140578D01*
X96666Y141522D01*
X95000Y141854D01*
D02*
G37*
G36*
X80000D02*
X78334Y141522D01*
X76922Y140578D01*
X75978Y139166D01*
X75646Y137500D01*
X75978Y135834D01*
X76922Y134422D01*
X78334Y133478D01*
X80000Y133146D01*
X81666Y133478D01*
X83078Y134422D01*
X84022Y135834D01*
X84354Y137500D01*
X84022Y139166D01*
X83078Y140578D01*
X81666Y141522D01*
X80000Y141854D01*
D02*
G37*
G36*
X65000D02*
X63334Y141522D01*
X61922Y140578D01*
X60978Y139166D01*
X60646Y137500D01*
X60978Y135834D01*
X61922Y134422D01*
X63334Y133478D01*
X65000Y133146D01*
X66666Y133478D01*
X68078Y134422D01*
X69022Y135834D01*
X69354Y137500D01*
X69022Y139166D01*
X68078Y140578D01*
X66666Y141522D01*
X65000Y141854D01*
D02*
G37*
G36*
X50000D02*
X48334Y141522D01*
X46922Y140578D01*
X45978Y139166D01*
X45646Y137500D01*
X45978Y135834D01*
X46922Y134422D01*
X48334Y133478D01*
X50000Y133146D01*
X51666Y133478D01*
X53078Y134422D01*
X54022Y135834D01*
X54354Y137500D01*
X54022Y139166D01*
X53078Y140578D01*
X51666Y141522D01*
X50000Y141854D01*
D02*
G37*
G36*
X35000D02*
X33334Y141522D01*
X31922Y140578D01*
X30978Y139166D01*
X30646Y137500D01*
X30978Y135834D01*
X31922Y134422D01*
X33334Y133478D01*
X35000Y133146D01*
X36666Y133478D01*
X38078Y134422D01*
X39022Y135834D01*
X39354Y137500D01*
X39022Y139166D01*
X38078Y140578D01*
X36666Y141522D01*
X35000Y141854D01*
D02*
G37*
G36*
X20000D02*
X18334Y141522D01*
X16921Y140578D01*
X15978Y139166D01*
X15646Y137500D01*
X15978Y135834D01*
X16921Y134422D01*
X18334Y133478D01*
X20000Y133146D01*
X21666Y133478D01*
X23078Y134422D01*
X24022Y135834D01*
X24354Y137500D01*
X24022Y139166D01*
X23078Y140578D01*
X21666Y141522D01*
X20000Y141854D01*
D02*
G37*
G36*
X213750Y130354D02*
X212084Y130022D01*
X210672Y129079D01*
X209728Y127666D01*
X209396Y126000D01*
X209728Y124334D01*
X210672Y122921D01*
X212084Y121978D01*
X213750Y121646D01*
X215416Y121978D01*
X216828Y122921D01*
X217772Y124334D01*
X218104Y126000D01*
X217772Y127666D01*
X216828Y129079D01*
X215416Y130022D01*
X213750Y130354D01*
D02*
G37*
G36*
X186250D02*
X184584Y130022D01*
X183172Y129079D01*
X182228Y127666D01*
X181896Y126000D01*
X182228Y124334D01*
X183172Y122921D01*
X184584Y121978D01*
X186250Y121646D01*
X187916Y121978D01*
X189328Y122921D01*
X190272Y124334D01*
X190604Y126000D01*
X190272Y127666D01*
X189328Y129079D01*
X187916Y130022D01*
X186250Y130354D01*
D02*
G37*
G36*
X365000Y126854D02*
X363334Y126522D01*
X361921Y125578D01*
X360978Y124166D01*
X360646Y122500D01*
X360978Y120834D01*
X361921Y119422D01*
X363334Y118478D01*
X365000Y118146D01*
X366666Y118478D01*
X368078Y119422D01*
X369022Y120834D01*
X369353Y122500D01*
X369022Y124166D01*
X368078Y125578D01*
X366666Y126522D01*
X365000Y126854D01*
D02*
G37*
G36*
X335000D02*
X333334Y126522D01*
X331921Y125578D01*
X330978Y124166D01*
X330646Y122500D01*
X330978Y120834D01*
X331921Y119422D01*
X333334Y118478D01*
X335000Y118146D01*
X336666Y118478D01*
X338078Y119422D01*
X339022Y120834D01*
X339354Y122500D01*
X339022Y124166D01*
X338078Y125578D01*
X336666Y126522D01*
X335000Y126854D01*
D02*
G37*
G36*
X320000D02*
X318334Y126522D01*
X316921Y125578D01*
X315978Y124166D01*
X315646Y122500D01*
X315978Y120834D01*
X316921Y119422D01*
X318334Y118478D01*
X320000Y118146D01*
X321666Y118478D01*
X323078Y119422D01*
X324022Y120834D01*
X324354Y122500D01*
X324022Y124166D01*
X323078Y125578D01*
X321666Y126522D01*
X320000Y126854D01*
D02*
G37*
G36*
X305000D02*
X303334Y126522D01*
X301921Y125578D01*
X300978Y124166D01*
X300646Y122500D01*
X300978Y120834D01*
X301921Y119422D01*
X303334Y118478D01*
X305000Y118146D01*
X306666Y118478D01*
X308078Y119422D01*
X309022Y120834D01*
X309354Y122500D01*
X309022Y124166D01*
X308078Y125578D01*
X306666Y126522D01*
X305000Y126854D01*
D02*
G37*
G36*
X275000D02*
X273334Y126522D01*
X271922Y125578D01*
X270978Y124166D01*
X270646Y122500D01*
X270978Y120834D01*
X271922Y119422D01*
X273334Y118478D01*
X275000Y118146D01*
X276666Y118478D01*
X278078Y119422D01*
X279022Y120834D01*
X279354Y122500D01*
X279022Y124166D01*
X278078Y125578D01*
X276666Y126522D01*
X275000Y126854D01*
D02*
G37*
G36*
X110000D02*
X108334Y126522D01*
X106922Y125578D01*
X105978Y124166D01*
X105646Y122500D01*
X105978Y120834D01*
X106922Y119422D01*
X108334Y118478D01*
X110000Y118146D01*
X111666Y118478D01*
X113078Y119422D01*
X114022Y120834D01*
X114354Y122500D01*
X114022Y124166D01*
X113078Y125578D01*
X111666Y126522D01*
X110000Y126854D01*
D02*
G37*
G36*
X95000D02*
X93334Y126522D01*
X91922Y125578D01*
X90978Y124166D01*
X90646Y122500D01*
X90978Y120834D01*
X91922Y119422D01*
X93334Y118478D01*
X95000Y118146D01*
X96666Y118478D01*
X98078Y119422D01*
X99022Y120834D01*
X99354Y122500D01*
X99022Y124166D01*
X98078Y125578D01*
X96666Y126522D01*
X95000Y126854D01*
D02*
G37*
G36*
X80000D02*
X78334Y126522D01*
X76922Y125578D01*
X75978Y124166D01*
X75646Y122500D01*
X75978Y120834D01*
X76922Y119422D01*
X78334Y118478D01*
X80000Y118146D01*
X81666Y118478D01*
X83078Y119422D01*
X84022Y120834D01*
X84354Y122500D01*
X84022Y124166D01*
X83078Y125578D01*
X81666Y126522D01*
X80000Y126854D01*
D02*
G37*
G36*
X65000D02*
X63334Y126522D01*
X61922Y125578D01*
X60978Y124166D01*
X60646Y122500D01*
X60978Y120834D01*
X61922Y119422D01*
X63334Y118478D01*
X65000Y118146D01*
X66666Y118478D01*
X68078Y119422D01*
X69022Y120834D01*
X69354Y122500D01*
X69022Y124166D01*
X68078Y125578D01*
X66666Y126522D01*
X65000Y126854D01*
D02*
G37*
G36*
X50000D02*
X48334Y126522D01*
X46922Y125578D01*
X45978Y124166D01*
X45646Y122500D01*
X45978Y120834D01*
X46922Y119422D01*
X48334Y118478D01*
X50000Y118146D01*
X51666Y118478D01*
X53078Y119422D01*
X54022Y120834D01*
X54354Y122500D01*
X54022Y124166D01*
X53078Y125578D01*
X51666Y126522D01*
X50000Y126854D01*
D02*
G37*
G36*
X35000D02*
X33334Y126522D01*
X31922Y125578D01*
X30978Y124166D01*
X30646Y122500D01*
X30978Y120834D01*
X31922Y119422D01*
X33334Y118478D01*
X35000Y118146D01*
X36666Y118478D01*
X38078Y119422D01*
X39022Y120834D01*
X39354Y122500D01*
X39022Y124166D01*
X38078Y125578D01*
X36666Y126522D01*
X35000Y126854D01*
D02*
G37*
G36*
X20000D02*
X18334Y126522D01*
X16921Y125578D01*
X15978Y124166D01*
X15646Y122500D01*
X15978Y120834D01*
X16921Y119422D01*
X18334Y118478D01*
X20000Y118146D01*
X21666Y118478D01*
X23078Y119422D01*
X24022Y120834D01*
X24354Y122500D01*
X24022Y124166D01*
X23078Y125578D01*
X21666Y126522D01*
X20000Y126854D01*
D02*
G37*
G36*
X254000Y124854D02*
X252334Y124522D01*
X250921Y123579D01*
X249978Y122166D01*
X249646Y120500D01*
X249978Y118834D01*
X250921Y117422D01*
X252334Y116478D01*
X254000Y116146D01*
X255666Y116478D01*
X257078Y117422D01*
X258022Y118834D01*
X258354Y120500D01*
X258022Y122166D01*
X257078Y123579D01*
X255666Y124522D01*
X254000Y124854D01*
D02*
G37*
G36*
X205500Y122104D02*
X203834Y121772D01*
X202421Y120829D01*
X201478Y119416D01*
X201146Y117750D01*
X201478Y116084D01*
X202421Y114671D01*
X203834Y113728D01*
X205500Y113396D01*
X207166Y113728D01*
X208578Y114671D01*
X209522Y116084D01*
X209854Y117750D01*
X209522Y119416D01*
X208578Y120829D01*
X207166Y121772D01*
X205500Y122104D01*
D02*
G37*
G36*
X194500D02*
X192834Y121772D01*
X191422Y120829D01*
X190478Y119416D01*
X190146Y117750D01*
X190478Y116084D01*
X191422Y114671D01*
X192834Y113728D01*
X194500Y113396D01*
X196166Y113728D01*
X197579Y114671D01*
X198522Y116084D01*
X198854Y117750D01*
X198522Y119416D01*
X197579Y120829D01*
X196166Y121772D01*
X194500Y122104D01*
D02*
G37*
G36*
X374900Y121717D02*
X372463Y121233D01*
X370398Y119852D01*
X369017Y117787D01*
X368533Y115350D01*
X369017Y112913D01*
X370398Y110848D01*
X372463Y109467D01*
X374900Y108983D01*
X377337Y109467D01*
X379402Y110848D01*
X380783Y112913D01*
X381267Y115350D01*
X380783Y117787D01*
X379402Y119852D01*
X377337Y121233D01*
X374900Y121717D01*
D02*
G37*
G36*
X320000Y111854D02*
X318334Y111522D01*
X316921Y110578D01*
X315978Y109166D01*
X315646Y107500D01*
X315978Y105834D01*
X316921Y104422D01*
X318334Y103478D01*
X320000Y103146D01*
X321666Y103478D01*
X323078Y104422D01*
X324022Y105834D01*
X324354Y107500D01*
X324022Y109166D01*
X323078Y110578D01*
X321666Y111522D01*
X320000Y111854D01*
D02*
G37*
G36*
X275000D02*
X273334Y111522D01*
X271922Y110578D01*
X270978Y109166D01*
X270646Y107500D01*
X270978Y105834D01*
X271922Y104422D01*
X273334Y103478D01*
X275000Y103146D01*
X276666Y103478D01*
X278078Y104422D01*
X279022Y105834D01*
X279354Y107500D01*
X279022Y109166D01*
X278078Y110578D01*
X276666Y111522D01*
X275000Y111854D01*
D02*
G37*
G36*
X80000D02*
X78334Y111522D01*
X76922Y110578D01*
X75978Y109166D01*
X75646Y107500D01*
X75978Y105834D01*
X76922Y104422D01*
X78334Y103478D01*
X80000Y103146D01*
X81666Y103478D01*
X83078Y104422D01*
X84022Y105834D01*
X84354Y107500D01*
X84022Y109166D01*
X83078Y110578D01*
X81666Y111522D01*
X80000Y111854D01*
D02*
G37*
G36*
X50000D02*
X48334Y111522D01*
X46922Y110578D01*
X45978Y109166D01*
X45646Y107500D01*
X45978Y105834D01*
X46922Y104422D01*
X48334Y103478D01*
X50000Y103146D01*
X51666Y103478D01*
X53078Y104422D01*
X54022Y105834D01*
X54354Y107500D01*
X54022Y109166D01*
X53078Y110578D01*
X51666Y111522D01*
X50000Y111854D01*
D02*
G37*
G36*
X35000D02*
X33334Y111522D01*
X31922Y110578D01*
X30978Y109166D01*
X30646Y107500D01*
X30978Y105834D01*
X31922Y104422D01*
X33334Y103478D01*
X35000Y103146D01*
X36666Y103478D01*
X38078Y104422D01*
X39022Y105834D01*
X39354Y107500D01*
X39022Y109166D01*
X38078Y110578D01*
X36666Y111522D01*
X35000Y111854D01*
D02*
G37*
G36*
X20000D02*
X18334Y111522D01*
X16921Y110578D01*
X15978Y109166D01*
X15646Y107500D01*
X15978Y105834D01*
X16921Y104422D01*
X18334Y103478D01*
X20000Y103146D01*
X21666Y103478D01*
X23078Y104422D01*
X24022Y105834D01*
X24354Y107500D01*
X24022Y109166D01*
X23078Y110578D01*
X21666Y111522D01*
X20000Y111854D01*
D02*
G37*
G36*
X135000Y108354D02*
X133334Y108022D01*
X131922Y107079D01*
X130978Y105666D01*
X130646Y104000D01*
X130978Y102334D01*
X131922Y100921D01*
X133334Y99978D01*
X135000Y99646D01*
X136666Y99978D01*
X138078Y100921D01*
X139022Y102334D01*
X139354Y104000D01*
X139022Y105666D01*
X138078Y107079D01*
X136666Y108022D01*
X135000Y108354D01*
D02*
G37*
G36*
X120000Y97354D02*
X118334Y97022D01*
X116922Y96079D01*
X115978Y94666D01*
X115646Y93000D01*
X115978Y91334D01*
X116922Y89922D01*
X118334Y88978D01*
X120000Y88646D01*
X121666Y88978D01*
X123078Y89922D01*
X124022Y91334D01*
X124354Y93000D01*
X124022Y94666D01*
X123078Y96079D01*
X121666Y97022D01*
X120000Y97354D01*
D02*
G37*
G36*
X320000Y96854D02*
X318334Y96522D01*
X316921Y95578D01*
X315978Y94166D01*
X315646Y92500D01*
X315978Y90834D01*
X316921Y89422D01*
X318334Y88478D01*
X320000Y88146D01*
X321666Y88478D01*
X323078Y89422D01*
X324022Y90834D01*
X324354Y92500D01*
X324022Y94166D01*
X323078Y95578D01*
X321666Y96522D01*
X320000Y96854D01*
D02*
G37*
G36*
X275000D02*
X273334Y96522D01*
X271922Y95578D01*
X270978Y94166D01*
X270646Y92500D01*
X270978Y90834D01*
X271922Y89422D01*
X273334Y88478D01*
X275000Y88146D01*
X276666Y88478D01*
X278078Y89422D01*
X279022Y90834D01*
X279354Y92500D01*
X279022Y94166D01*
X278078Y95578D01*
X276666Y96522D01*
X275000Y96854D01*
D02*
G37*
G36*
X80000D02*
X78334Y96522D01*
X76922Y95578D01*
X75978Y94166D01*
X75646Y92500D01*
X75978Y90834D01*
X76922Y89422D01*
X78334Y88478D01*
X80000Y88146D01*
X81666Y88478D01*
X83078Y89422D01*
X84022Y90834D01*
X84354Y92500D01*
X84022Y94166D01*
X83078Y95578D01*
X81666Y96522D01*
X80000Y96854D01*
D02*
G37*
G36*
X50000D02*
X48334Y96522D01*
X46922Y95578D01*
X45978Y94166D01*
X45646Y92500D01*
X45978Y90834D01*
X46922Y89422D01*
X48334Y88478D01*
X50000Y88146D01*
X51666Y88478D01*
X53078Y89422D01*
X54022Y90834D01*
X54354Y92500D01*
X54022Y94166D01*
X53078Y95578D01*
X51666Y96522D01*
X50000Y96854D01*
D02*
G37*
G36*
X35000D02*
X33334Y96522D01*
X31922Y95578D01*
X30978Y94166D01*
X30646Y92500D01*
X30978Y90834D01*
X31922Y89422D01*
X33334Y88478D01*
X35000Y88146D01*
X36666Y88478D01*
X38078Y89422D01*
X39022Y90834D01*
X39354Y92500D01*
X39022Y94166D01*
X38078Y95578D01*
X36666Y96522D01*
X35000Y96854D01*
D02*
G37*
G36*
X20000D02*
X18334Y96522D01*
X16921Y95578D01*
X15978Y94166D01*
X15646Y92500D01*
X15978Y90834D01*
X16921Y89422D01*
X18334Y88478D01*
X20000Y88146D01*
X21666Y88478D01*
X23078Y89422D01*
X24022Y90834D01*
X24354Y92500D01*
X24022Y94166D01*
X23078Y95578D01*
X21666Y96522D01*
X20000Y96854D01*
D02*
G37*
G36*
X287250Y163354D02*
X285584Y163022D01*
X284172Y162078D01*
X283228Y160666D01*
X282896Y159000D01*
X283228Y157334D01*
X284172Y155921D01*
X285180Y155247D01*
Y93752D01*
X284172Y93078D01*
X283228Y91666D01*
X282896Y90000D01*
X283228Y88334D01*
X284172Y86922D01*
X285584Y85978D01*
X287250Y85646D01*
X288916Y85978D01*
X290329Y86922D01*
X291272Y88334D01*
X291604Y90000D01*
X291272Y91666D01*
X290329Y93078D01*
X289320Y93752D01*
Y155247D01*
X290329Y155921D01*
X291272Y157334D01*
X291604Y159000D01*
X291272Y160666D01*
X290329Y162078D01*
X288916Y163022D01*
X287250Y163354D01*
D02*
G37*
G36*
X147750Y86354D02*
X146084Y86022D01*
X144671Y85078D01*
X143728Y83666D01*
X143396Y82000D01*
X143728Y80334D01*
X144671Y78921D01*
X146084Y77978D01*
X147750Y77646D01*
X149416Y77978D01*
X150829Y78921D01*
X151772Y80334D01*
X152104Y82000D01*
X151772Y83666D01*
X150829Y85078D01*
X149416Y86022D01*
X147750Y86354D01*
D02*
G37*
G36*
X350000Y81854D02*
X348334Y81522D01*
X346921Y80578D01*
X345978Y79166D01*
X345646Y77500D01*
X345978Y75834D01*
X346921Y74422D01*
X348334Y73478D01*
X350000Y73146D01*
X351666Y73478D01*
X353078Y74422D01*
X354022Y75834D01*
X354353Y77500D01*
X354022Y79166D01*
X353078Y80578D01*
X351666Y81522D01*
X350000Y81854D01*
D02*
G37*
G36*
X335000D02*
X333334Y81522D01*
X331921Y80578D01*
X330978Y79166D01*
X330646Y77500D01*
X330978Y75834D01*
X331921Y74422D01*
X333334Y73478D01*
X335000Y73146D01*
X336666Y73478D01*
X338078Y74422D01*
X339022Y75834D01*
X339354Y77500D01*
X339022Y79166D01*
X338078Y80578D01*
X336666Y81522D01*
X335000Y81854D01*
D02*
G37*
G36*
X320000D02*
X318334Y81522D01*
X316921Y80578D01*
X315978Y79166D01*
X315646Y77500D01*
X315978Y75834D01*
X316921Y74422D01*
X318334Y73478D01*
X320000Y73146D01*
X321666Y73478D01*
X323078Y74422D01*
X324022Y75834D01*
X324354Y77500D01*
X324022Y79166D01*
X323078Y80578D01*
X321666Y81522D01*
X320000Y81854D01*
D02*
G37*
G36*
X305000D02*
X303334Y81522D01*
X301921Y80578D01*
X300978Y79166D01*
X300646Y77500D01*
X300978Y75834D01*
X301921Y74422D01*
X303334Y73478D01*
X305000Y73146D01*
X306666Y73478D01*
X308078Y74422D01*
X309022Y75834D01*
X309354Y77500D01*
X309022Y79166D01*
X308078Y80578D01*
X306666Y81522D01*
X305000Y81854D01*
D02*
G37*
G36*
X290000D02*
X288334Y81522D01*
X286921Y80578D01*
X285978Y79166D01*
X285646Y77500D01*
X285978Y75834D01*
X286921Y74422D01*
X288334Y73478D01*
X290000Y73146D01*
X291666Y73478D01*
X293078Y74422D01*
X294022Y75834D01*
X294354Y77500D01*
X294022Y79166D01*
X293078Y80578D01*
X291666Y81522D01*
X290000Y81854D01*
D02*
G37*
G36*
X275000D02*
X273334Y81522D01*
X271922Y80578D01*
X270978Y79166D01*
X270646Y77500D01*
X270978Y75834D01*
X271922Y74422D01*
X273334Y73478D01*
X275000Y73146D01*
X276666Y73478D01*
X278078Y74422D01*
X279022Y75834D01*
X279354Y77500D01*
X279022Y79166D01*
X278078Y80578D01*
X276666Y81522D01*
X275000Y81854D01*
D02*
G37*
G36*
X251750Y86354D02*
X250084Y86022D01*
X248671Y85078D01*
X247728Y83666D01*
X247396Y82000D01*
X247728Y80334D01*
X248671Y78921D01*
X250084Y77978D01*
X251750Y77646D01*
X253416Y77978D01*
X254604Y78772D01*
X255451Y78408D01*
X255774Y78142D01*
X255646Y77500D01*
X255978Y75834D01*
X256922Y74422D01*
X258334Y73478D01*
X260000Y73146D01*
X261666Y73478D01*
X263078Y74422D01*
X264022Y75834D01*
X264354Y77500D01*
X264022Y79166D01*
X263078Y80578D01*
X261666Y81522D01*
X260000Y81854D01*
X258334Y81522D01*
X257146Y80728D01*
X256299Y81092D01*
X255976Y81358D01*
X256104Y82000D01*
X255772Y83666D01*
X254828Y85078D01*
X253416Y86022D01*
X251750Y86354D01*
D02*
G37*
G36*
X125000Y81854D02*
X123334Y81522D01*
X121922Y80578D01*
X120978Y79166D01*
X120646Y77500D01*
X120978Y75834D01*
X121922Y74422D01*
X123334Y73478D01*
X125000Y73146D01*
X126666Y73478D01*
X128078Y74422D01*
X129022Y75834D01*
X129354Y77500D01*
X129022Y79166D01*
X128078Y80578D01*
X126666Y81522D01*
X125000Y81854D01*
D02*
G37*
G36*
X110000D02*
X108334Y81522D01*
X106922Y80578D01*
X105978Y79166D01*
X105646Y77500D01*
X105978Y75834D01*
X106922Y74422D01*
X108334Y73478D01*
X110000Y73146D01*
X111666Y73478D01*
X113078Y74422D01*
X114022Y75834D01*
X114354Y77500D01*
X114022Y79166D01*
X113078Y80578D01*
X111666Y81522D01*
X110000Y81854D01*
D02*
G37*
G36*
X95000D02*
X93334Y81522D01*
X91922Y80578D01*
X90978Y79166D01*
X90646Y77500D01*
X90978Y75834D01*
X91922Y74422D01*
X93334Y73478D01*
X95000Y73146D01*
X96666Y73478D01*
X98078Y74422D01*
X99022Y75834D01*
X99354Y77500D01*
X99022Y79166D01*
X98078Y80578D01*
X96666Y81522D01*
X95000Y81854D01*
D02*
G37*
G36*
X80000D02*
X78334Y81522D01*
X76922Y80578D01*
X75978Y79166D01*
X75646Y77500D01*
X75978Y75834D01*
X76922Y74422D01*
X78334Y73478D01*
X80000Y73146D01*
X81666Y73478D01*
X83078Y74422D01*
X84022Y75834D01*
X84354Y77500D01*
X84022Y79166D01*
X83078Y80578D01*
X81666Y81522D01*
X80000Y81854D01*
D02*
G37*
G36*
X65000D02*
X63334Y81522D01*
X61922Y80578D01*
X60978Y79166D01*
X60646Y77500D01*
X60978Y75834D01*
X61922Y74422D01*
X63334Y73478D01*
X65000Y73146D01*
X66666Y73478D01*
X68078Y74422D01*
X69022Y75834D01*
X69354Y77500D01*
X69022Y79166D01*
X68078Y80578D01*
X66666Y81522D01*
X65000Y81854D01*
D02*
G37*
G36*
X50000D02*
X48334Y81522D01*
X46922Y80578D01*
X45978Y79166D01*
X45646Y77500D01*
X45978Y75834D01*
X46922Y74422D01*
X48334Y73478D01*
X50000Y73146D01*
X51666Y73478D01*
X53078Y74422D01*
X54022Y75834D01*
X54354Y77500D01*
X54022Y79166D01*
X53078Y80578D01*
X51666Y81522D01*
X50000Y81854D01*
D02*
G37*
G36*
X35000D02*
X33334Y81522D01*
X31922Y80578D01*
X30978Y79166D01*
X30646Y77500D01*
X30978Y75834D01*
X31922Y74422D01*
X33334Y73478D01*
X35000Y73146D01*
X36666Y73478D01*
X38078Y74422D01*
X39022Y75834D01*
X39354Y77500D01*
X39022Y79166D01*
X38078Y80578D01*
X36666Y81522D01*
X35000Y81854D01*
D02*
G37*
G36*
X20000D02*
X18334Y81522D01*
X16921Y80578D01*
X15978Y79166D01*
X15646Y77500D01*
X15978Y75834D01*
X16921Y74422D01*
X18334Y73478D01*
X20000Y73146D01*
X21666Y73478D01*
X23078Y74422D01*
X24022Y75834D01*
X24354Y77500D01*
X24022Y79166D01*
X23078Y80578D01*
X21666Y81522D01*
X20000Y81854D01*
D02*
G37*
G36*
X244000Y78604D02*
X242334Y78272D01*
X240921Y77329D01*
X239978Y75916D01*
X239646Y74250D01*
X239978Y72584D01*
X240921Y71171D01*
X242334Y70228D01*
X244000Y69896D01*
X245666Y70228D01*
X247078Y71171D01*
X248022Y72584D01*
X248354Y74250D01*
X248022Y75916D01*
X247078Y77329D01*
X245666Y78272D01*
X244000Y78604D01*
D02*
G37*
G36*
X156000Y78354D02*
X154334Y78022D01*
X152921Y77078D01*
X151978Y75666D01*
X151646Y74000D01*
X151978Y72334D01*
X152921Y70922D01*
X154334Y69978D01*
X156000Y69646D01*
X157666Y69978D01*
X159079Y70922D01*
X160022Y72334D01*
X160354Y74000D01*
X160022Y75666D01*
X159079Y77078D01*
X157666Y78022D01*
X156000Y78354D01*
D02*
G37*
G36*
X385060Y70917D02*
X382623Y70433D01*
X380558Y69052D01*
X379177Y66987D01*
X378693Y64550D01*
X379177Y62113D01*
X380558Y60048D01*
X382623Y58667D01*
X385060Y58183D01*
X387497Y58667D01*
X389562Y60048D01*
X390943Y62113D01*
X391427Y64550D01*
X390943Y66987D01*
X389562Y69052D01*
X387497Y70433D01*
X385060Y70917D01*
D02*
G37*
G36*
X364740D02*
X362303Y70433D01*
X360238Y69052D01*
X358857Y66987D01*
X358373Y64550D01*
X358857Y62113D01*
X360238Y60048D01*
X362303Y58667D01*
X364740Y58183D01*
X367177Y58667D01*
X369242Y60048D01*
X370623Y62113D01*
X371107Y64550D01*
X370623Y66987D01*
X369242Y69052D01*
X367177Y70433D01*
X364740Y70917D01*
D02*
G37*
G36*
X350000Y66854D02*
X348334Y66522D01*
X346921Y65578D01*
X345978Y64166D01*
X345646Y62500D01*
X345978Y60834D01*
X346921Y59422D01*
X348334Y58478D01*
X350000Y58146D01*
X351666Y58478D01*
X353078Y59422D01*
X354022Y60834D01*
X354353Y62500D01*
X354022Y64166D01*
X353078Y65578D01*
X351666Y66522D01*
X350000Y66854D01*
D02*
G37*
G36*
X335000D02*
X333334Y66522D01*
X331921Y65578D01*
X330978Y64166D01*
X330646Y62500D01*
X330978Y60834D01*
X331921Y59422D01*
X333334Y58478D01*
X335000Y58146D01*
X336666Y58478D01*
X338078Y59422D01*
X339022Y60834D01*
X339354Y62500D01*
X339022Y64166D01*
X338078Y65578D01*
X336666Y66522D01*
X335000Y66854D01*
D02*
G37*
G36*
X320000D02*
X318334Y66522D01*
X316921Y65578D01*
X315978Y64166D01*
X315646Y62500D01*
X315978Y60834D01*
X316921Y59422D01*
X318334Y58478D01*
X320000Y58146D01*
X321666Y58478D01*
X323078Y59422D01*
X324022Y60834D01*
X324354Y62500D01*
X324022Y64166D01*
X323078Y65578D01*
X321666Y66522D01*
X320000Y66854D01*
D02*
G37*
G36*
X305000D02*
X303334Y66522D01*
X301921Y65578D01*
X300978Y64166D01*
X300646Y62500D01*
X300978Y60834D01*
X301921Y59422D01*
X303334Y58478D01*
X305000Y58146D01*
X306666Y58478D01*
X308078Y59422D01*
X309022Y60834D01*
X309354Y62500D01*
X309022Y64166D01*
X308078Y65578D01*
X306666Y66522D01*
X305000Y66854D01*
D02*
G37*
G36*
X290000D02*
X288334Y66522D01*
X286921Y65578D01*
X285978Y64166D01*
X285646Y62500D01*
X285978Y60834D01*
X286921Y59422D01*
X288334Y58478D01*
X290000Y58146D01*
X291666Y58478D01*
X293078Y59422D01*
X294022Y60834D01*
X294354Y62500D01*
X294022Y64166D01*
X293078Y65578D01*
X291666Y66522D01*
X290000Y66854D01*
D02*
G37*
G36*
X275000D02*
X273334Y66522D01*
X271922Y65578D01*
X270978Y64166D01*
X270646Y62500D01*
X270978Y60834D01*
X271922Y59422D01*
X273334Y58478D01*
X275000Y58146D01*
X276666Y58478D01*
X278078Y59422D01*
X279022Y60834D01*
X279354Y62500D01*
X279022Y64166D01*
X278078Y65578D01*
X276666Y66522D01*
X275000Y66854D01*
D02*
G37*
G36*
X260000D02*
X258334Y66522D01*
X256922Y65578D01*
X255978Y64166D01*
X255646Y62500D01*
X255978Y60834D01*
X256922Y59422D01*
X258334Y58478D01*
X260000Y58146D01*
X261666Y58478D01*
X263078Y59422D01*
X264022Y60834D01*
X264354Y62500D01*
X264022Y64166D01*
X263078Y65578D01*
X261666Y66522D01*
X260000Y66854D01*
D02*
G37*
G36*
X200000D02*
X198334Y66522D01*
X196922Y65578D01*
X195978Y64166D01*
X195646Y62500D01*
X195978Y60834D01*
X196922Y59422D01*
X198334Y58478D01*
X200000Y58146D01*
X201666Y58478D01*
X203078Y59422D01*
X204022Y60834D01*
X204354Y62500D01*
X204022Y64166D01*
X203078Y65578D01*
X201666Y66522D01*
X200000Y66854D01*
D02*
G37*
G36*
X155000D02*
X153334Y66522D01*
X151922Y65578D01*
X150978Y64166D01*
X150646Y62500D01*
X150978Y60834D01*
X151922Y59422D01*
X153334Y58478D01*
X155000Y58146D01*
X156666Y58478D01*
X158078Y59422D01*
X159022Y60834D01*
X159354Y62500D01*
X159022Y64166D01*
X158078Y65578D01*
X156666Y66522D01*
X155000Y66854D01*
D02*
G37*
G36*
X125000D02*
X123334Y66522D01*
X121922Y65578D01*
X120978Y64166D01*
X120646Y62500D01*
X120978Y60834D01*
X121922Y59422D01*
X123334Y58478D01*
X125000Y58146D01*
X126666Y58478D01*
X128078Y59422D01*
X129022Y60834D01*
X129354Y62500D01*
X129022Y64166D01*
X128078Y65578D01*
X126666Y66522D01*
X125000Y66854D01*
D02*
G37*
G36*
X110000D02*
X108334Y66522D01*
X106922Y65578D01*
X105978Y64166D01*
X105646Y62500D01*
X105978Y60834D01*
X106922Y59422D01*
X108334Y58478D01*
X110000Y58146D01*
X111666Y58478D01*
X113078Y59422D01*
X114022Y60834D01*
X114354Y62500D01*
X114022Y64166D01*
X113078Y65578D01*
X111666Y66522D01*
X110000Y66854D01*
D02*
G37*
G36*
X95000D02*
X93334Y66522D01*
X91922Y65578D01*
X90978Y64166D01*
X90646Y62500D01*
X90978Y60834D01*
X91922Y59422D01*
X93334Y58478D01*
X95000Y58146D01*
X96666Y58478D01*
X98078Y59422D01*
X99022Y60834D01*
X99354Y62500D01*
X99022Y64166D01*
X98078Y65578D01*
X96666Y66522D01*
X95000Y66854D01*
D02*
G37*
G36*
X80000D02*
X78334Y66522D01*
X76922Y65578D01*
X75978Y64166D01*
X75646Y62500D01*
X75978Y60834D01*
X76922Y59422D01*
X78334Y58478D01*
X80000Y58146D01*
X81666Y58478D01*
X83078Y59422D01*
X84022Y60834D01*
X84354Y62500D01*
X84022Y64166D01*
X83078Y65578D01*
X81666Y66522D01*
X80000Y66854D01*
D02*
G37*
G36*
X65000D02*
X63334Y66522D01*
X61922Y65578D01*
X60978Y64166D01*
X60646Y62500D01*
X60978Y60834D01*
X61922Y59422D01*
X63334Y58478D01*
X65000Y58146D01*
X66666Y58478D01*
X68078Y59422D01*
X69022Y60834D01*
X69354Y62500D01*
X69022Y64166D01*
X68078Y65578D01*
X66666Y66522D01*
X65000Y66854D01*
D02*
G37*
G36*
X50000D02*
X48334Y66522D01*
X46922Y65578D01*
X45978Y64166D01*
X45646Y62500D01*
X45978Y60834D01*
X46922Y59422D01*
X48334Y58478D01*
X50000Y58146D01*
X51666Y58478D01*
X53078Y59422D01*
X54022Y60834D01*
X54354Y62500D01*
X54022Y64166D01*
X53078Y65578D01*
X51666Y66522D01*
X50000Y66854D01*
D02*
G37*
G36*
X35000D02*
X33334Y66522D01*
X31922Y65578D01*
X30978Y64166D01*
X30646Y62500D01*
X30978Y60834D01*
X31922Y59422D01*
X33334Y58478D01*
X35000Y58146D01*
X36666Y58478D01*
X38078Y59422D01*
X39022Y60834D01*
X39354Y62500D01*
X39022Y64166D01*
X38078Y65578D01*
X36666Y66522D01*
X35000Y66854D01*
D02*
G37*
G36*
X20000D02*
X18334Y66522D01*
X16921Y65578D01*
X15978Y64166D01*
X15646Y62500D01*
X15978Y60834D01*
X16921Y59422D01*
X18334Y58478D01*
X20000Y58146D01*
X21666Y58478D01*
X23078Y59422D01*
X24022Y60834D01*
X24354Y62500D01*
X24022Y64166D01*
X23078Y65578D01*
X21666Y66522D01*
X20000Y66854D01*
D02*
G37*
G36*
X225000Y66854D02*
X223334Y66522D01*
X221922Y65578D01*
X220978Y64166D01*
X220646Y62500D01*
X220978Y60834D01*
X221922Y59422D01*
X223334Y58478D01*
X225000Y58146D01*
X226666Y58478D01*
X228078Y59422D01*
X229022Y60834D01*
X229354Y62500D01*
X229022Y64166D01*
X228078Y65578D01*
X226666Y66522D01*
X225000Y66854D01*
D02*
G37*
G36*
X243500Y57854D02*
X241834Y57522D01*
X240422Y56578D01*
X239478Y55166D01*
X239146Y53500D01*
X239362Y52417D01*
X238453Y51256D01*
X238100Y51302D01*
X235615Y50975D01*
X233299Y50016D01*
X231310Y48490D01*
X229784Y46501D01*
X228825Y44185D01*
X228498Y41700D01*
X228825Y39215D01*
X229784Y36899D01*
X231310Y34910D01*
X233299Y33384D01*
X235615Y32425D01*
X238100Y32098D01*
X240585Y32425D01*
X242901Y33384D01*
X244890Y34910D01*
X246416Y36899D01*
X247375Y39215D01*
X247702Y41700D01*
X247375Y44185D01*
X246416Y46501D01*
X245131Y48176D01*
X245144Y48651D01*
X245275Y49305D01*
X245445Y49664D01*
X246579Y50422D01*
X247522Y51834D01*
X247854Y53500D01*
X247522Y55166D01*
X246579Y56578D01*
X245166Y57522D01*
X243500Y57854D01*
D02*
G37*
G36*
X275000Y51854D02*
X273334Y51522D01*
X271922Y50578D01*
X271126Y49388D01*
X270123Y49049D01*
X269646Y48983D01*
X268301Y50016D01*
X265985Y50975D01*
X263500Y51302D01*
X261015Y50975D01*
X258699Y50016D01*
X256710Y48490D01*
X255184Y46501D01*
X254225Y44185D01*
X253898Y41700D01*
X254225Y39215D01*
X255184Y36899D01*
X256710Y34910D01*
X258699Y33384D01*
X261015Y32425D01*
X263500Y32098D01*
X265985Y32425D01*
X268301Y33384D01*
X269826Y34554D01*
X270900Y33778D01*
X270646Y32500D01*
X270978Y30834D01*
X271922Y29422D01*
X273334Y28478D01*
X275000Y28146D01*
X276666Y28478D01*
X278078Y29422D01*
X279022Y30834D01*
X279063Y31041D01*
X279380Y32180D01*
X280585Y32180D01*
X288138D01*
Y41700D01*
Y51220D01*
X279380D01*
Y50917D01*
X278110Y50531D01*
X278078Y50578D01*
X276666Y51522D01*
X275000Y51854D01*
D02*
G37*
G36*
X200000D02*
X198334Y51522D01*
X196922Y50578D01*
X195978Y49166D01*
X195812Y48332D01*
X194454Y48015D01*
X194090Y48490D01*
X192101Y50016D01*
X189785Y50975D01*
X187300Y51302D01*
X184815Y50975D01*
X182499Y50016D01*
X180510Y48490D01*
X178984Y46501D01*
X178025Y44185D01*
X177698Y41700D01*
X178025Y39215D01*
X178984Y36899D01*
X180510Y34910D01*
X182499Y33384D01*
X184815Y32425D01*
X187300Y32098D01*
X189785Y32425D01*
X192101Y33384D01*
X194090Y34910D01*
X195616Y36899D01*
X196575Y39215D01*
X196902Y41700D01*
X196728Y43024D01*
X197912Y43760D01*
X198334Y43478D01*
X200000Y43146D01*
X201666Y43478D01*
X202088Y43760D01*
X203272Y43024D01*
X203098Y41700D01*
X203425Y39215D01*
X204384Y36899D01*
X205910Y34910D01*
X207899Y33384D01*
X210215Y32425D01*
X212700Y32098D01*
X215185Y32425D01*
X217501Y33384D01*
X219490Y34910D01*
X221016Y36899D01*
X221975Y39215D01*
X222302Y41700D01*
X221975Y44185D01*
X221016Y46501D01*
X219490Y48490D01*
X217501Y50016D01*
X215185Y50975D01*
X212700Y51302D01*
X210215Y50975D01*
X207899Y50016D01*
X205910Y48490D01*
X205546Y48015D01*
X204188Y48332D01*
X204022Y49166D01*
X203078Y50578D01*
X201666Y51522D01*
X200000Y51854D01*
D02*
G37*
G36*
X125000D02*
X123334Y51522D01*
X121922Y50578D01*
X120978Y49166D01*
X120646Y47500D01*
X120821Y46624D01*
X120896Y46247D01*
X119674Y45877D01*
X119416Y46501D01*
X117890Y48490D01*
X115901Y50016D01*
X113585Y50975D01*
X111100Y51302D01*
X108615Y50975D01*
X106299Y50016D01*
X104310Y48490D01*
X102784Y46501D01*
X101825Y44185D01*
X101498Y41700D01*
X101825Y39215D01*
X102784Y36899D01*
X104310Y34910D01*
X106299Y33384D01*
X108615Y32425D01*
X111100Y32098D01*
X113585Y32425D01*
X115901Y33384D01*
X117890Y34910D01*
X119416Y36899D01*
X120375Y39215D01*
X120702Y41700D01*
X120375Y44185D01*
X120086Y44882D01*
X121212Y45484D01*
X121425Y45164D01*
X121922Y44422D01*
X123334Y43478D01*
X125000Y43146D01*
X125829Y43311D01*
X126973Y42272D01*
X126898Y41700D01*
X127225Y39215D01*
X128106Y37087D01*
X127777Y36619D01*
X127159Y36193D01*
X126666Y36522D01*
X125000Y36854D01*
X123334Y36522D01*
X121922Y35578D01*
X120978Y34166D01*
X120646Y32500D01*
X120978Y30834D01*
X121922Y29422D01*
X123334Y28478D01*
X125000Y28146D01*
X126666Y28478D01*
X128078Y29422D01*
X129022Y30834D01*
X129354Y32500D01*
X129099Y33778D01*
X130174Y34555D01*
X131699Y33384D01*
X134015Y32425D01*
X136500Y32098D01*
X138985Y32425D01*
X141301Y33384D01*
X143290Y34910D01*
X144816Y36899D01*
X145775Y39215D01*
X146102Y41700D01*
X145775Y44185D01*
X144816Y46501D01*
X143290Y48490D01*
X141301Y50016D01*
X138985Y50975D01*
X136500Y51302D01*
X134015Y50975D01*
X131699Y50016D01*
X130353Y48983D01*
X129876Y49049D01*
X128874Y49388D01*
X128078Y50578D01*
X126666Y51522D01*
X125000Y51854D01*
D02*
G37*
G36*
X380000D02*
X378334Y51522D01*
X376921Y50578D01*
X375978Y49166D01*
X375646Y47500D01*
X375978Y45834D01*
X376921Y44422D01*
X378334Y43478D01*
X380000Y43146D01*
X381666Y43478D01*
X383078Y44422D01*
X384022Y45834D01*
X384353Y47500D01*
X384022Y49166D01*
X383078Y50578D01*
X381666Y51522D01*
X380000Y51854D01*
D02*
G37*
G36*
X365000D02*
X363334Y51522D01*
X361921Y50578D01*
X360978Y49166D01*
X360646Y47500D01*
X360978Y45834D01*
X361921Y44422D01*
X363334Y43478D01*
X365000Y43146D01*
X366666Y43478D01*
X368078Y44422D01*
X369022Y45834D01*
X369353Y47500D01*
X369022Y49166D01*
X368078Y50578D01*
X366666Y51522D01*
X365000Y51854D01*
D02*
G37*
G36*
X350000D02*
X348334Y51522D01*
X346921Y50578D01*
X345978Y49166D01*
X345646Y47500D01*
X345978Y45834D01*
X346921Y44422D01*
X348334Y43478D01*
X350000Y43146D01*
X351666Y43478D01*
X353078Y44422D01*
X354022Y45834D01*
X354353Y47500D01*
X354022Y49166D01*
X353078Y50578D01*
X351666Y51522D01*
X350000Y51854D01*
D02*
G37*
G36*
X335000D02*
X333334Y51522D01*
X331921Y50578D01*
X330978Y49166D01*
X330646Y47500D01*
X330978Y45834D01*
X331921Y44422D01*
X333334Y43478D01*
X335000Y43146D01*
X336666Y43478D01*
X338078Y44422D01*
X339022Y45834D01*
X339354Y47500D01*
X339022Y49166D01*
X338078Y50578D01*
X336666Y51522D01*
X335000Y51854D01*
D02*
G37*
G36*
X320000D02*
X318334Y51522D01*
X316921Y50578D01*
X315978Y49166D01*
X315646Y47500D01*
X315978Y45834D01*
X316921Y44422D01*
X318334Y43478D01*
X320000Y43146D01*
X321666Y43478D01*
X323078Y44422D01*
X324022Y45834D01*
X324354Y47500D01*
X324022Y49166D01*
X323078Y50578D01*
X321666Y51522D01*
X320000Y51854D01*
D02*
G37*
G36*
X305000D02*
X303334Y51522D01*
X301921Y50578D01*
X300978Y49166D01*
X300646Y47500D01*
X300978Y45834D01*
X301921Y44422D01*
X303334Y43478D01*
X305000Y43146D01*
X306666Y43478D01*
X308078Y44422D01*
X309022Y45834D01*
X309354Y47500D01*
X309022Y49166D01*
X308078Y50578D01*
X306666Y51522D01*
X305000Y51854D01*
D02*
G37*
G36*
X95000D02*
X93334Y51522D01*
X91922Y50578D01*
X90978Y49166D01*
X90646Y47500D01*
X90978Y45834D01*
X91922Y44422D01*
X93334Y43478D01*
X95000Y43146D01*
X96666Y43478D01*
X98078Y44422D01*
X99022Y45834D01*
X99354Y47500D01*
X99022Y49166D01*
X98078Y50578D01*
X96666Y51522D01*
X95000Y51854D01*
D02*
G37*
G36*
X80000D02*
X78334Y51522D01*
X76922Y50578D01*
X75978Y49166D01*
X75646Y47500D01*
X75978Y45834D01*
X76922Y44422D01*
X78334Y43478D01*
X80000Y43146D01*
X81666Y43478D01*
X83078Y44422D01*
X84022Y45834D01*
X84354Y47500D01*
X84022Y49166D01*
X83078Y50578D01*
X81666Y51522D01*
X80000Y51854D01*
D02*
G37*
G36*
X65000D02*
X63334Y51522D01*
X61922Y50578D01*
X60978Y49166D01*
X60646Y47500D01*
X60978Y45834D01*
X61922Y44422D01*
X63334Y43478D01*
X65000Y43146D01*
X66666Y43478D01*
X68078Y44422D01*
X69022Y45834D01*
X69354Y47500D01*
X69022Y49166D01*
X68078Y50578D01*
X66666Y51522D01*
X65000Y51854D01*
D02*
G37*
G36*
X50000D02*
X48334Y51522D01*
X46922Y50578D01*
X45978Y49166D01*
X45646Y47500D01*
X45978Y45834D01*
X46922Y44422D01*
X48334Y43478D01*
X50000Y43146D01*
X51666Y43478D01*
X53078Y44422D01*
X54022Y45834D01*
X54354Y47500D01*
X54022Y49166D01*
X53078Y50578D01*
X51666Y51522D01*
X50000Y51854D01*
D02*
G37*
G36*
X35000D02*
X33334Y51522D01*
X31922Y50578D01*
X30978Y49166D01*
X30646Y47500D01*
X30978Y45834D01*
X31922Y44422D01*
X33334Y43478D01*
X35000Y43146D01*
X36666Y43478D01*
X38078Y44422D01*
X39022Y45834D01*
X39354Y47500D01*
X39022Y49166D01*
X38078Y50578D01*
X36666Y51522D01*
X35000Y51854D01*
D02*
G37*
G36*
X20000D02*
X18334Y51522D01*
X16921Y50578D01*
X15978Y49166D01*
X15646Y47500D01*
X15978Y45834D01*
X16921Y44422D01*
X18334Y43478D01*
X20000Y43146D01*
X21666Y43478D01*
X23078Y44422D01*
X24022Y45834D01*
X24354Y47500D01*
X24022Y49166D01*
X23078Y50578D01*
X21666Y51522D01*
X20000Y51854D01*
D02*
G37*
G36*
X298420Y51220D02*
X289662D01*
Y42462D01*
X298420D01*
Y51220D01*
D02*
G37*
G36*
Y40938D02*
X289662D01*
Y32180D01*
X298420D01*
Y40938D01*
D02*
G37*
G36*
X161900Y51302D02*
X159415Y50975D01*
X157099Y50016D01*
X155110Y48490D01*
X153584Y46501D01*
X152625Y44185D01*
X152298Y41700D01*
X152625Y39215D01*
X153584Y36899D01*
X155110Y34910D01*
X157099Y33384D01*
X159415Y32425D01*
X161900Y32098D01*
X164385Y32425D01*
X166701Y33384D01*
X168690Y34910D01*
X170216Y36899D01*
X171175Y39215D01*
X171502Y41700D01*
X171175Y44185D01*
X170216Y46501D01*
X168690Y48490D01*
X166701Y50016D01*
X164385Y50975D01*
X161900Y51302D01*
D02*
G37*
G36*
X350000Y36854D02*
X348334Y36522D01*
X346921Y35578D01*
X345978Y34166D01*
X345646Y32500D01*
X345978Y30834D01*
X346921Y29422D01*
X348334Y28478D01*
X350000Y28146D01*
X351666Y28478D01*
X353078Y29422D01*
X354022Y30834D01*
X354353Y32500D01*
X354022Y34166D01*
X353078Y35578D01*
X351666Y36522D01*
X350000Y36854D01*
D02*
G37*
G36*
X335000D02*
X333334Y36522D01*
X331921Y35578D01*
X330978Y34166D01*
X330646Y32500D01*
X330978Y30834D01*
X331921Y29422D01*
X333334Y28478D01*
X335000Y28146D01*
X336666Y28478D01*
X338078Y29422D01*
X339022Y30834D01*
X339354Y32500D01*
X339022Y34166D01*
X338078Y35578D01*
X336666Y36522D01*
X335000Y36854D01*
D02*
G37*
G36*
X320000D02*
X318334Y36522D01*
X316921Y35578D01*
X315978Y34166D01*
X315646Y32500D01*
X315978Y30834D01*
X316921Y29422D01*
X318334Y28478D01*
X320000Y28146D01*
X321666Y28478D01*
X323078Y29422D01*
X324022Y30834D01*
X324354Y32500D01*
X324022Y34166D01*
X323078Y35578D01*
X321666Y36522D01*
X320000Y36854D01*
D02*
G37*
G36*
X305000D02*
X303334Y36522D01*
X301921Y35578D01*
X300978Y34166D01*
X300646Y32500D01*
X300978Y30834D01*
X301921Y29422D01*
X303334Y28478D01*
X305000Y28146D01*
X306666Y28478D01*
X308078Y29422D01*
X309022Y30834D01*
X309354Y32500D01*
X309022Y34166D01*
X308078Y35578D01*
X306666Y36522D01*
X305000Y36854D01*
D02*
G37*
G36*
X200000D02*
X198334Y36522D01*
X196922Y35578D01*
X195978Y34166D01*
X195646Y32500D01*
X195978Y30834D01*
X196922Y29422D01*
X198334Y28478D01*
X200000Y28146D01*
X201666Y28478D01*
X203078Y29422D01*
X204022Y30834D01*
X204354Y32500D01*
X204022Y34166D01*
X203078Y35578D01*
X201666Y36522D01*
X200000Y36854D01*
D02*
G37*
G36*
X95000D02*
X93334Y36522D01*
X91922Y35578D01*
X90978Y34166D01*
X90646Y32500D01*
X90978Y30834D01*
X91922Y29422D01*
X93334Y28478D01*
X95000Y28146D01*
X96666Y28478D01*
X98078Y29422D01*
X99022Y30834D01*
X99354Y32500D01*
X99022Y34166D01*
X98078Y35578D01*
X96666Y36522D01*
X95000Y36854D01*
D02*
G37*
G36*
X80000D02*
X78334Y36522D01*
X76922Y35578D01*
X75978Y34166D01*
X75646Y32500D01*
X75978Y30834D01*
X76922Y29422D01*
X78334Y28478D01*
X80000Y28146D01*
X81666Y28478D01*
X83078Y29422D01*
X84022Y30834D01*
X84354Y32500D01*
X84022Y34166D01*
X83078Y35578D01*
X81666Y36522D01*
X80000Y36854D01*
D02*
G37*
G36*
X65000D02*
X63334Y36522D01*
X61922Y35578D01*
X60978Y34166D01*
X60646Y32500D01*
X60978Y30834D01*
X61922Y29422D01*
X63334Y28478D01*
X65000Y28146D01*
X66666Y28478D01*
X68078Y29422D01*
X69022Y30834D01*
X69354Y32500D01*
X69022Y34166D01*
X68078Y35578D01*
X66666Y36522D01*
X65000Y36854D01*
D02*
G37*
G36*
X50000D02*
X48334Y36522D01*
X46922Y35578D01*
X45978Y34166D01*
X45646Y32500D01*
X45978Y30834D01*
X46922Y29422D01*
X48334Y28478D01*
X50000Y28146D01*
X51666Y28478D01*
X53078Y29422D01*
X54022Y30834D01*
X54354Y32500D01*
X54022Y34166D01*
X53078Y35578D01*
X51666Y36522D01*
X50000Y36854D01*
D02*
G37*
G36*
X251000Y36854D02*
X249334Y36522D01*
X247922Y35578D01*
X246978Y34166D01*
X246646Y32500D01*
X246978Y30834D01*
X247922Y29422D01*
X249334Y28478D01*
X251000Y28146D01*
X252666Y28478D01*
X254079Y29422D01*
X255022Y30834D01*
X255354Y32500D01*
X255022Y34166D01*
X254079Y35578D01*
X252666Y36522D01*
X251000Y36854D01*
D02*
G37*
G36*
X225250D02*
X223584Y36522D01*
X222171Y35578D01*
X221228Y34166D01*
X220896Y32500D01*
X221228Y30834D01*
X222171Y29422D01*
X223584Y28478D01*
X225250Y28146D01*
X226916Y28478D01*
X228328Y29422D01*
X229272Y30834D01*
X229604Y32500D01*
X229272Y34166D01*
X228328Y35578D01*
X226916Y36522D01*
X225250Y36854D01*
D02*
G37*
G36*
X174500D02*
X172834Y36522D01*
X171422Y35578D01*
X170478Y34166D01*
X170146Y32500D01*
X170478Y30834D01*
X171422Y29422D01*
X172834Y28478D01*
X174500Y28146D01*
X176166Y28478D01*
X177579Y29422D01*
X178522Y30834D01*
X178854Y32500D01*
X178522Y34166D01*
X177579Y35578D01*
X176166Y36522D01*
X174500Y36854D01*
D02*
G37*
G36*
X149250D02*
X147584Y36522D01*
X146172Y35578D01*
X145228Y34166D01*
X144896Y32500D01*
X145228Y30834D01*
X146172Y29422D01*
X147584Y28478D01*
X149250Y28146D01*
X150916Y28478D01*
X152329Y29422D01*
X153272Y30834D01*
X153604Y32500D01*
X153272Y34166D01*
X152329Y35578D01*
X150916Y36522D01*
X149250Y36854D01*
D02*
G37*
G36*
X215000Y24354D02*
X213334Y24022D01*
X211922Y23078D01*
X210978Y21666D01*
X210646Y20000D01*
X210978Y18334D01*
X211922Y16921D01*
X213334Y15978D01*
X215000Y15646D01*
X216666Y15978D01*
X218078Y16921D01*
X219022Y18334D01*
X219354Y20000D01*
X219022Y21666D01*
X218078Y23078D01*
X216666Y24022D01*
X215000Y24354D01*
D02*
G37*
G36*
X200000D02*
X198334Y24022D01*
X196922Y23078D01*
X195978Y21666D01*
X195646Y20000D01*
X195978Y18334D01*
X196922Y16921D01*
X198334Y15978D01*
X200000Y15646D01*
X201666Y15978D01*
X203078Y16921D01*
X204022Y18334D01*
X204354Y20000D01*
X204022Y21666D01*
X203078Y23078D01*
X201666Y24022D01*
X200000Y24354D01*
D02*
G37*
G36*
X185000D02*
X183334Y24022D01*
X181922Y23078D01*
X180978Y21666D01*
X180646Y20000D01*
X180978Y18334D01*
X181922Y16921D01*
X183334Y15978D01*
X185000Y15646D01*
X186666Y15978D01*
X188078Y16921D01*
X189022Y18334D01*
X189354Y20000D01*
X189022Y21666D01*
X188078Y23078D01*
X186666Y24022D01*
X185000Y24354D01*
D02*
G37*
G36*
X350000Y21854D02*
X348334Y21522D01*
X346922Y20578D01*
X345978Y19166D01*
X345646Y17500D01*
X345978Y15834D01*
X346922Y14421D01*
X348334Y13478D01*
X350000Y13146D01*
X351666Y13478D01*
X353078Y14421D01*
X354022Y15834D01*
X354354Y17500D01*
X354022Y19166D01*
X353078Y20578D01*
X351666Y21522D01*
X350000Y21854D01*
D02*
G37*
G36*
X335000D02*
X333334Y21522D01*
X331922Y20578D01*
X330978Y19166D01*
X330646Y17500D01*
X330978Y15834D01*
X331922Y14421D01*
X333334Y13478D01*
X335000Y13146D01*
X336666Y13478D01*
X338078Y14421D01*
X339022Y15834D01*
X339354Y17500D01*
X339022Y19166D01*
X338078Y20578D01*
X336666Y21522D01*
X335000Y21854D01*
D02*
G37*
G36*
X320000D02*
X318334Y21522D01*
X316922Y20578D01*
X315978Y19166D01*
X315646Y17500D01*
X315978Y15834D01*
X316922Y14421D01*
X318334Y13478D01*
X320000Y13146D01*
X321666Y13478D01*
X323078Y14421D01*
X324022Y15834D01*
X324354Y17500D01*
X324022Y19166D01*
X323078Y20578D01*
X321666Y21522D01*
X320000Y21854D01*
D02*
G37*
G36*
X305000D02*
X303334Y21522D01*
X301922Y20578D01*
X300978Y19166D01*
X300646Y17500D01*
X300978Y15834D01*
X301922Y14421D01*
X303334Y13478D01*
X305000Y13146D01*
X306666Y13478D01*
X308078Y14421D01*
X309022Y15834D01*
X309354Y17500D01*
X309022Y19166D01*
X308078Y20578D01*
X306666Y21522D01*
X305000Y21854D01*
D02*
G37*
G36*
X290000D02*
X288334Y21522D01*
X286922Y20578D01*
X285978Y19166D01*
X285646Y17500D01*
X285978Y15834D01*
X286922Y14421D01*
X288334Y13478D01*
X290000Y13146D01*
X291666Y13478D01*
X293078Y14421D01*
X294022Y15834D01*
X294354Y17500D01*
X294022Y19166D01*
X293078Y20578D01*
X291666Y21522D01*
X290000Y21854D01*
D02*
G37*
G36*
X275000D02*
X273334Y21522D01*
X271922Y20578D01*
X270978Y19166D01*
X270646Y17500D01*
X270978Y15834D01*
X271922Y14421D01*
X273334Y13478D01*
X275000Y13146D01*
X276666Y13478D01*
X278078Y14421D01*
X279022Y15834D01*
X279354Y17500D01*
X279022Y19166D01*
X278078Y20578D01*
X276666Y21522D01*
X275000Y21854D01*
D02*
G37*
G36*
X260000D02*
X258334Y21522D01*
X256922Y20578D01*
X255978Y19166D01*
X255646Y17500D01*
X255978Y15834D01*
X256922Y14421D01*
X258334Y13478D01*
X260000Y13146D01*
X261666Y13478D01*
X263078Y14421D01*
X264022Y15834D01*
X264354Y17500D01*
X264022Y19166D01*
X263078Y20578D01*
X261666Y21522D01*
X260000Y21854D01*
D02*
G37*
G36*
X245000D02*
X243334Y21522D01*
X241922Y20578D01*
X240978Y19166D01*
X240646Y17500D01*
X240978Y15834D01*
X241922Y14421D01*
X243334Y13478D01*
X245000Y13146D01*
X246666Y13478D01*
X248078Y14421D01*
X249022Y15834D01*
X249354Y17500D01*
X249022Y19166D01*
X248078Y20578D01*
X246666Y21522D01*
X245000Y21854D01*
D02*
G37*
G36*
X230000D02*
X228334Y21522D01*
X226922Y20578D01*
X225978Y19166D01*
X225646Y17500D01*
X225978Y15834D01*
X226922Y14421D01*
X228334Y13478D01*
X230000Y13146D01*
X231666Y13478D01*
X233078Y14421D01*
X234022Y15834D01*
X234354Y17500D01*
X234022Y19166D01*
X233078Y20578D01*
X231666Y21522D01*
X230000Y21854D01*
D02*
G37*
G36*
X170000D02*
X168334Y21522D01*
X166922Y20578D01*
X165978Y19166D01*
X165646Y17500D01*
X165978Y15834D01*
X166922Y14421D01*
X168334Y13478D01*
X170000Y13146D01*
X171666Y13478D01*
X173078Y14421D01*
X174022Y15834D01*
X174354Y17500D01*
X174022Y19166D01*
X173078Y20578D01*
X171666Y21522D01*
X170000Y21854D01*
D02*
G37*
G36*
X155000D02*
X153334Y21522D01*
X151922Y20578D01*
X150978Y19166D01*
X150646Y17500D01*
X150978Y15834D01*
X151922Y14421D01*
X153334Y13478D01*
X155000Y13146D01*
X156666Y13478D01*
X158078Y14421D01*
X159022Y15834D01*
X159354Y17500D01*
X159022Y19166D01*
X158078Y20578D01*
X156666Y21522D01*
X155000Y21854D01*
D02*
G37*
G36*
X140000D02*
X138334Y21522D01*
X136922Y20578D01*
X135978Y19166D01*
X135646Y17500D01*
X135978Y15834D01*
X136922Y14421D01*
X138334Y13478D01*
X140000Y13146D01*
X141666Y13478D01*
X143078Y14421D01*
X144022Y15834D01*
X144354Y17500D01*
X144022Y19166D01*
X143078Y20578D01*
X141666Y21522D01*
X140000Y21854D01*
D02*
G37*
G36*
X125000D02*
X123334Y21522D01*
X121922Y20578D01*
X120978Y19166D01*
X120646Y17500D01*
X120978Y15834D01*
X121922Y14421D01*
X123334Y13478D01*
X125000Y13146D01*
X126666Y13478D01*
X128078Y14421D01*
X129022Y15834D01*
X129354Y17500D01*
X129022Y19166D01*
X128078Y20578D01*
X126666Y21522D01*
X125000Y21854D01*
D02*
G37*
G36*
X110000D02*
X108334Y21522D01*
X106922Y20578D01*
X105978Y19166D01*
X105646Y17500D01*
X105978Y15834D01*
X106922Y14421D01*
X108334Y13478D01*
X110000Y13146D01*
X111666Y13478D01*
X113078Y14421D01*
X114022Y15834D01*
X114354Y17500D01*
X114022Y19166D01*
X113078Y20578D01*
X111666Y21522D01*
X110000Y21854D01*
D02*
G37*
G36*
X95000D02*
X93334Y21522D01*
X91922Y20578D01*
X90978Y19166D01*
X90646Y17500D01*
X90978Y15834D01*
X91922Y14421D01*
X93334Y13478D01*
X95000Y13146D01*
X96666Y13478D01*
X98078Y14421D01*
X99022Y15834D01*
X99354Y17500D01*
X99022Y19166D01*
X98078Y20578D01*
X96666Y21522D01*
X95000Y21854D01*
D02*
G37*
G36*
X80000D02*
X78334Y21522D01*
X76922Y20578D01*
X75978Y19166D01*
X75646Y17500D01*
X75978Y15834D01*
X76922Y14421D01*
X78334Y13478D01*
X80000Y13146D01*
X81666Y13478D01*
X83078Y14421D01*
X84022Y15834D01*
X84354Y17500D01*
X84022Y19166D01*
X83078Y20578D01*
X81666Y21522D01*
X80000Y21854D01*
D02*
G37*
G36*
X65000D02*
X63334Y21522D01*
X61922Y20578D01*
X60978Y19166D01*
X60646Y17500D01*
X60978Y15834D01*
X61922Y14421D01*
X63334Y13478D01*
X65000Y13146D01*
X66666Y13478D01*
X68078Y14421D01*
X69022Y15834D01*
X69354Y17500D01*
X69022Y19166D01*
X68078Y20578D01*
X66666Y21522D01*
X65000Y21854D01*
D02*
G37*
G36*
X50000D02*
X48334Y21522D01*
X46922Y20578D01*
X45978Y19166D01*
X45646Y17500D01*
X45978Y15834D01*
X46922Y14421D01*
X48334Y13478D01*
X50000Y13146D01*
X51666Y13478D01*
X53078Y14421D01*
X54022Y15834D01*
X54354Y17500D01*
X54022Y19166D01*
X53078Y20578D01*
X51666Y21522D01*
X50000Y21854D01*
D02*
G37*
G36*
X375000Y37169D02*
X371850Y36755D01*
X368915Y35539D01*
X366395Y33605D01*
X364461Y31085D01*
X363246Y28150D01*
X362831Y25000D01*
X363246Y21850D01*
X364461Y18915D01*
X366395Y16395D01*
X368915Y14461D01*
X371850Y13246D01*
X375000Y12831D01*
X378150Y13246D01*
X381085Y14461D01*
X383605Y16395D01*
X385539Y18915D01*
X386754Y21850D01*
X387169Y25000D01*
X386754Y28150D01*
X385539Y31085D01*
X383605Y33605D01*
X381085Y35539D01*
X378150Y36755D01*
X375000Y37169D01*
D02*
G37*
G36*
X25000D02*
X21850Y36755D01*
X18915Y35539D01*
X16395Y33605D01*
X14461Y31085D01*
X13246Y28150D01*
X12831Y25000D01*
X13246Y21850D01*
X14461Y18915D01*
X16395Y16395D01*
X18915Y14461D01*
X21850Y13246D01*
X25000Y12831D01*
X28150Y13246D01*
X31084Y14461D01*
X33605Y16395D01*
X35539Y18915D01*
X36755Y21850D01*
X37169Y25000D01*
X36755Y28150D01*
X35539Y31085D01*
X33605Y33605D01*
X31084Y35539D01*
X28150Y36755D01*
X25000Y37169D01*
D02*
G37*
%LPD*%
D10*
X355000Y92500D02*
Y175500D01*
D15*
X287250Y90000D02*
Y159000D01*
D40*
X374900Y115350D02*
D03*
X385060Y64550D02*
D03*
X364740D02*
D03*
D42*
X111100Y41700D02*
D03*
X136500D02*
D03*
X238100D02*
D03*
X263500D02*
D03*
X212700D02*
D03*
X187300D02*
D03*
X161900D02*
D03*
D43*
X288900D02*
D03*
D44*
X168750Y66750D02*
D03*
X380000Y212500D02*
D03*
Y197500D02*
D03*
Y182500D02*
D03*
Y167500D02*
D03*
Y47500D02*
D03*
X365000Y212500D02*
D03*
Y197500D02*
D03*
Y182500D02*
D03*
Y167500D02*
D03*
Y152500D02*
D03*
Y137500D02*
D03*
Y122500D02*
D03*
Y47500D02*
D03*
X350000Y212500D02*
D03*
Y197500D02*
D03*
Y182500D02*
D03*
Y167500D02*
D03*
Y152500D02*
D03*
Y137500D02*
D03*
Y122500D02*
D03*
Y107500D02*
D03*
Y77500D02*
D03*
Y62500D02*
D03*
Y47500D02*
D03*
Y32500D02*
D03*
X335000Y212500D02*
D03*
Y197500D02*
D03*
Y182500D02*
D03*
Y167500D02*
D03*
Y152500D02*
D03*
Y137500D02*
D03*
Y122500D02*
D03*
Y77500D02*
D03*
Y62500D02*
D03*
Y47500D02*
D03*
Y32500D02*
D03*
X320000Y212500D02*
D03*
Y197500D02*
D03*
Y182500D02*
D03*
Y167500D02*
D03*
Y152500D02*
D03*
Y137500D02*
D03*
Y122500D02*
D03*
Y107500D02*
D03*
Y92500D02*
D03*
Y77500D02*
D03*
Y62500D02*
D03*
Y47500D02*
D03*
Y32500D02*
D03*
X305000Y212500D02*
D03*
Y197500D02*
D03*
Y182500D02*
D03*
Y167500D02*
D03*
Y152500D02*
D03*
Y137500D02*
D03*
Y122500D02*
D03*
Y77500D02*
D03*
Y62500D02*
D03*
Y47500D02*
D03*
Y32500D02*
D03*
X290000Y212500D02*
D03*
Y197500D02*
D03*
Y182500D02*
D03*
Y77500D02*
D03*
Y62500D02*
D03*
X275000Y212500D02*
D03*
Y197500D02*
D03*
Y182500D02*
D03*
Y137500D02*
D03*
Y122500D02*
D03*
Y107500D02*
D03*
Y92500D02*
D03*
Y77500D02*
D03*
Y62500D02*
D03*
Y47500D02*
D03*
Y32500D02*
D03*
X260000Y212500D02*
D03*
Y197500D02*
D03*
Y182500D02*
D03*
Y137500D02*
D03*
Y77500D02*
D03*
Y62500D02*
D03*
X200000D02*
D03*
Y47500D02*
D03*
Y32500D02*
D03*
X155000Y62500D02*
D03*
X140000Y212500D02*
D03*
Y197500D02*
D03*
Y182500D02*
D03*
Y137500D02*
D03*
X125000Y212500D02*
D03*
Y197500D02*
D03*
Y182500D02*
D03*
Y137500D02*
D03*
Y77500D02*
D03*
Y62500D02*
D03*
Y47500D02*
D03*
Y32500D02*
D03*
X110000Y212500D02*
D03*
Y197500D02*
D03*
Y182500D02*
D03*
Y137500D02*
D03*
Y122500D02*
D03*
Y77500D02*
D03*
Y62500D02*
D03*
X95000Y212500D02*
D03*
Y197500D02*
D03*
Y182500D02*
D03*
Y137500D02*
D03*
Y122500D02*
D03*
Y77500D02*
D03*
Y62500D02*
D03*
Y47500D02*
D03*
Y32500D02*
D03*
X80000Y212500D02*
D03*
Y197500D02*
D03*
Y182500D02*
D03*
Y137500D02*
D03*
Y122500D02*
D03*
Y107500D02*
D03*
Y92500D02*
D03*
Y77500D02*
D03*
Y62500D02*
D03*
Y47500D02*
D03*
Y32500D02*
D03*
X65000Y212500D02*
D03*
Y197500D02*
D03*
Y182500D02*
D03*
Y167500D02*
D03*
Y152500D02*
D03*
Y137500D02*
D03*
Y122500D02*
D03*
Y77500D02*
D03*
Y62500D02*
D03*
Y47500D02*
D03*
Y32500D02*
D03*
X50000Y212500D02*
D03*
Y197500D02*
D03*
Y182500D02*
D03*
Y167500D02*
D03*
Y152500D02*
D03*
Y137500D02*
D03*
Y122500D02*
D03*
Y107500D02*
D03*
Y92500D02*
D03*
Y77500D02*
D03*
Y62500D02*
D03*
Y47500D02*
D03*
Y32500D02*
D03*
X35000Y212500D02*
D03*
Y197500D02*
D03*
Y182500D02*
D03*
Y167500D02*
D03*
Y152500D02*
D03*
Y137500D02*
D03*
Y122500D02*
D03*
Y107500D02*
D03*
Y92500D02*
D03*
Y77500D02*
D03*
Y62500D02*
D03*
Y47500D02*
D03*
X20000Y212500D02*
D03*
Y197500D02*
D03*
Y182500D02*
D03*
Y167500D02*
D03*
Y152500D02*
D03*
Y137500D02*
D03*
Y122500D02*
D03*
Y107500D02*
D03*
Y92500D02*
D03*
Y77500D02*
D03*
Y62500D02*
D03*
Y47500D02*
D03*
X90000Y168000D02*
D03*
X260000Y169720D02*
D03*
X275000D02*
D03*
X290000D02*
D03*
X174500Y32500D02*
D03*
X149250D02*
D03*
X243500Y53500D02*
D03*
X225000Y62500D02*
D03*
X225250Y32500D02*
D03*
X251000D02*
D03*
X120000Y93000D02*
D03*
X135000Y104000D02*
D03*
X170000Y17500D02*
D03*
X155000D02*
D03*
X140000D02*
D03*
X125000D02*
D03*
X110000D02*
D03*
X95000D02*
D03*
X80000D02*
D03*
X65000D02*
D03*
X50000D02*
D03*
X170000Y7500D02*
D03*
X155000D02*
D03*
X140000D02*
D03*
X125000D02*
D03*
X110000D02*
D03*
X95000D02*
D03*
X80000D02*
D03*
X65000D02*
D03*
X50000D02*
D03*
X392530Y137500D02*
D03*
Y122500D02*
D03*
Y107500D02*
D03*
Y152500D02*
D03*
X230000Y7500D02*
D03*
X245000D02*
D03*
X260000D02*
D03*
X275000D02*
D03*
X290000D02*
D03*
X305000D02*
D03*
X320000D02*
D03*
X335000D02*
D03*
X350000D02*
D03*
X185000Y20000D02*
D03*
X200000D02*
D03*
X215000D02*
D03*
X230000Y17500D02*
D03*
X245000D02*
D03*
X260000D02*
D03*
X275000D02*
D03*
X290000D02*
D03*
X305000D02*
D03*
X320000D02*
D03*
X335000D02*
D03*
X350000D02*
D03*
X392500Y212500D02*
D03*
Y197500D02*
D03*
Y182500D02*
D03*
Y167500D02*
D03*
Y92500D02*
D03*
Y77500D02*
D03*
Y47500D02*
D03*
X7500Y7500D02*
D03*
Y47500D02*
D03*
Y62500D02*
D03*
Y77500D02*
D03*
Y92500D02*
D03*
Y107500D02*
D03*
Y122500D02*
D03*
Y137500D02*
D03*
Y152500D02*
D03*
Y167500D02*
D03*
Y182500D02*
D03*
Y197500D02*
D03*
Y212500D02*
D03*
X275000Y148500D02*
D03*
X260000D02*
D03*
X156000Y74000D02*
D03*
X147750Y82000D02*
D03*
X244000Y74250D02*
D03*
X251750Y82000D02*
D03*
X205500Y117750D02*
D03*
X194500D02*
D03*
X186250Y126000D02*
D03*
X213750D02*
D03*
Y159000D02*
D03*
X200000D02*
D03*
X186250D02*
D03*
X214500Y180750D02*
D03*
X207500D02*
D03*
X192500D02*
D03*
X185500D02*
D03*
X287250Y159000D02*
D03*
X254000Y120500D02*
D03*
Y131500D02*
D03*
X214000Y140500D02*
D03*
Y148000D02*
D03*
X287250Y90000D02*
D03*
X355000Y92500D02*
D03*
Y175500D02*
D03*
X365000Y111250D02*
D03*
D45*
X375000Y25000D02*
D03*
X25000D02*
D03*
M02*
