G04*
G04 #@! TF.GenerationSoftware,Altium Limited,Altium Designer,21.6.4 (81)*
G04*
G04 Layer_Color=8388736*
%FSLAX44Y44*%
%MOMM*%
G71*
G04*
G04 #@! TF.SameCoordinates,75E8EA60-7A1B-4F35-BD82-ACC1B6EDD98F*
G04*
G04*
G04 #@! TF.FilePolarity,Positive*
G04*
G01*
G75*
%ADD47C,0.0500*%
D47*
X203250Y167750D02*
Y172250D01*
X207750Y167750D02*
Y172250D01*
X203250D02*
X207750D01*
X203250Y167750D02*
X207750D01*
X192250D02*
Y172250D01*
X196750Y167750D02*
Y172250D01*
X192250D02*
X196750D01*
X192250Y167750D02*
X196750D01*
X192250Y145750D02*
Y150250D01*
X196750Y145750D02*
Y150250D01*
X192250D02*
X196750D01*
X192250Y145750D02*
X196750D01*
X192250Y134750D02*
Y139250D01*
X196750Y134750D02*
Y139250D01*
X192250D02*
X196750D01*
X192250Y134750D02*
X196750D01*
X203250D02*
Y139250D01*
X207750Y134750D02*
Y139250D01*
X203250D02*
X207750D01*
X203250Y134750D02*
X207750D01*
X203250Y123750D02*
Y128250D01*
X207750Y123750D02*
Y128250D01*
X203250D02*
X207750D01*
X203250Y123750D02*
X207750D01*
X219750Y90750D02*
Y95250D01*
X224250Y90750D02*
Y95250D01*
X219750Y90750D02*
X224250D01*
X219750Y95250D02*
X224250D01*
X230750Y106250D02*
X235250D01*
X230750Y101750D02*
X235250D01*
X230750D02*
Y106250D01*
X235250Y101750D02*
Y106250D01*
X164750Y101750D02*
Y106250D01*
X169250Y101750D02*
Y106250D01*
X164750Y101750D02*
X169250D01*
X164750Y106250D02*
X169250D01*
X175750Y112750D02*
Y117250D01*
X180250Y112750D02*
Y117250D01*
X175750Y112750D02*
X180250D01*
X175750Y117250D02*
X180250D01*
X186750Y101750D02*
Y106250D01*
X191250Y101750D02*
Y106250D01*
X186750Y101750D02*
X191250D01*
X186750Y106250D02*
X191250D01*
X186750Y90750D02*
Y95250D01*
X191250Y90750D02*
Y95250D01*
X186750Y90750D02*
X191250D01*
X186750Y95250D02*
X191250D01*
X208750Y90750D02*
Y95250D01*
X213250Y90750D02*
Y95250D01*
X208750Y90750D02*
X213250D01*
X208750Y95250D02*
X213250D01*
X208750Y79750D02*
Y84250D01*
X213250Y79750D02*
Y84250D01*
X208750Y79750D02*
X213250D01*
X208750Y84250D02*
X213250D01*
X164750Y123750D02*
Y128250D01*
X169250Y123750D02*
Y128250D01*
X164750Y123750D02*
X169250D01*
X164750Y128250D02*
X169250D01*
X241750Y167750D02*
Y172250D01*
X246250Y167750D02*
Y172250D01*
X241750Y167750D02*
X246250D01*
X241750Y172250D02*
X246250D01*
X241750Y112750D02*
Y117250D01*
X246250Y112750D02*
Y117250D01*
X241750Y112750D02*
X246250D01*
X241750Y117250D02*
X246250D01*
X230750Y112750D02*
Y117250D01*
X235250Y112750D02*
Y117250D01*
X230750Y112750D02*
X235250D01*
X230750Y117250D02*
X235250D01*
X230750Y123750D02*
Y128250D01*
X235250Y123750D02*
Y128250D01*
X230750Y123750D02*
X235250D01*
X230750Y128250D02*
X235250D01*
X241750Y123750D02*
Y128250D01*
X246250Y123750D02*
Y128250D01*
X241750Y123750D02*
X246250D01*
X241750Y128250D02*
X246250D01*
X241750Y134750D02*
Y139250D01*
X246250Y134750D02*
Y139250D01*
X241750Y134750D02*
X246250D01*
X241750Y139250D02*
X246250D01*
X230750Y134750D02*
Y139250D01*
X235250Y134750D02*
Y139250D01*
X230750Y134750D02*
X235250D01*
X230750Y139250D02*
X235250D01*
X219750Y134750D02*
Y139250D01*
X224250Y134750D02*
Y139250D01*
X219750Y134750D02*
X224250D01*
X219750Y139250D02*
X224250D01*
X197750Y101750D02*
Y106250D01*
X202250Y101750D02*
Y106250D01*
X197750Y101750D02*
X202250D01*
X197750Y106250D02*
X202250D01*
X203250Y145750D02*
Y150250D01*
X207750Y145750D02*
Y150250D01*
X203250Y145750D02*
X207750D01*
X203250Y150250D02*
X207750D01*
X241750Y156750D02*
Y161250D01*
X246250Y156750D02*
Y161250D01*
X241750Y156750D02*
X246250D01*
X241750Y161250D02*
X246250D01*
X175750Y167750D02*
Y172250D01*
X180250Y167750D02*
Y172250D01*
X175750Y167750D02*
X180250D01*
X175750Y172250D02*
X180250D01*
X153750Y112750D02*
Y117250D01*
X158250Y112750D02*
Y117250D01*
X153750Y112750D02*
X158250D01*
X153750Y117250D02*
X158250D01*
X153750Y101750D02*
Y106250D01*
X158250Y101750D02*
Y106250D01*
X153750Y101750D02*
X158250D01*
X153750Y106250D02*
X158250D01*
X175750Y90750D02*
Y95250D01*
X180250Y90750D02*
Y95250D01*
X175750Y90750D02*
X180250D01*
X175750Y95250D02*
X180250D01*
X164750Y79750D02*
Y84250D01*
X169250Y79750D02*
Y84250D01*
X164750Y79750D02*
X169250D01*
X164750Y84250D02*
X169250D01*
X153750Y90750D02*
Y95250D01*
X158250Y90750D02*
Y95250D01*
X153750Y90750D02*
X158250D01*
X153750Y95250D02*
X158250D01*
X175750Y79750D02*
Y84250D01*
X180250Y79750D02*
Y84250D01*
X175750Y79750D02*
X180250D01*
X175750Y84250D02*
X180250D01*
X153750Y134750D02*
Y139250D01*
X158250Y134750D02*
Y139250D01*
X153750Y134750D02*
X158250D01*
X153750Y139250D02*
X158250D01*
X219750Y178750D02*
Y183250D01*
X224250Y178750D02*
Y183250D01*
X219750Y178750D02*
X224250D01*
X219750Y183250D02*
X224250D01*
X230750Y156750D02*
Y161250D01*
X235250Y156750D02*
Y161250D01*
X230750Y156750D02*
X235250D01*
X230750Y161250D02*
X235250D01*
X230750Y167750D02*
Y172250D01*
X235250Y167750D02*
Y172250D01*
X230750Y167750D02*
X235250D01*
X230750Y172250D02*
X235250D01*
X175750Y145750D02*
Y150250D01*
X180250Y145750D02*
Y150250D01*
X175750Y145750D02*
X180250D01*
X175750Y150250D02*
X180250D01*
X230749Y145750D02*
Y150250D01*
X235250Y145750D02*
Y150250D01*
X230749Y145750D02*
X235250D01*
X230749Y150250D02*
X235250D01*
X175750Y134750D02*
Y139250D01*
X180250Y134750D02*
Y139250D01*
X175750Y134750D02*
X180250D01*
X175750Y139250D02*
X180250D01*
X219750Y145750D02*
Y150250D01*
X224250Y145750D02*
Y150250D01*
X219750Y145750D02*
X224250D01*
X219750Y150250D02*
X224250D01*
X197750Y79750D02*
Y84250D01*
X202250Y79750D02*
Y84250D01*
X197750Y79750D02*
X202250D01*
X197750Y84250D02*
X202250D01*
X164750Y167750D02*
Y172250D01*
X169250Y167750D02*
Y172250D01*
X164750Y167750D02*
X169250D01*
X164750Y172250D02*
X169250D01*
X175750Y123750D02*
Y128250D01*
X180250Y123750D02*
Y128250D01*
X175750Y123750D02*
X180250D01*
X175750Y128250D02*
X180250D01*
X197750Y90750D02*
X202250D01*
X197750Y95250D02*
X202250D01*
Y90750D02*
Y95250D01*
X197750Y90750D02*
Y95250D01*
X208750Y101750D02*
Y106250D01*
X213250Y101750D02*
Y106250D01*
X208750Y101750D02*
X213250D01*
X208750Y106250D02*
X213250D01*
X164750Y112750D02*
X169250D01*
X164750Y117250D02*
X169250D01*
Y112750D02*
Y117250D01*
X164750Y112750D02*
Y117250D01*
X153750Y123750D02*
X158250D01*
X153750Y128250D02*
X158250D01*
Y123750D02*
Y128250D01*
X153750Y123750D02*
Y128250D01*
X241750Y90750D02*
X246250D01*
X241750Y95250D02*
X246250D01*
Y90750D02*
Y95250D01*
X241750Y90750D02*
Y95250D01*
Y101750D02*
X246250D01*
X241750Y106250D02*
X246250D01*
Y101750D02*
Y106250D01*
X241750Y101750D02*
Y106250D01*
X219750Y112750D02*
X224250D01*
X219750Y117250D02*
X224250D01*
Y112750D02*
Y117250D01*
X219750Y112750D02*
Y117250D01*
Y123750D02*
X224250D01*
X219750Y128250D02*
X224250D01*
Y123750D02*
Y128250D01*
X219750Y123750D02*
Y128250D01*
X175750Y156750D02*
X180250D01*
X175750Y161250D02*
X180250D01*
Y156750D02*
Y161250D01*
X175750Y156750D02*
Y161250D01*
X219750Y156750D02*
X224250D01*
X219750Y161250D02*
X224250D01*
Y156750D02*
Y161250D01*
X219750Y156750D02*
Y161250D01*
X164750Y156750D02*
X169250D01*
X164750Y161250D02*
X169250D01*
Y156750D02*
Y161250D01*
X164750Y156750D02*
Y161250D01*
X164750Y134750D02*
X169250D01*
X164750Y139250D02*
X169250D01*
Y134750D02*
Y139250D01*
X164750Y134750D02*
Y139250D01*
X153750Y145750D02*
X158250D01*
X153750Y150250D02*
X158250D01*
Y145750D02*
Y150250D01*
X153750Y145750D02*
Y150250D01*
X164750Y145750D02*
X169250D01*
X164750Y150250D02*
X169250D01*
Y145750D02*
Y150250D01*
X164750Y145750D02*
Y150250D01*
X153750Y178750D02*
X158250D01*
X153750Y183250D02*
X158250D01*
Y178750D02*
Y183250D01*
X153750Y178750D02*
Y183250D01*
Y208750D02*
X158250D01*
X153750Y213250D02*
X158250D01*
Y208750D02*
Y213250D01*
X153750Y208750D02*
Y213250D01*
X175750Y178750D02*
X180250D01*
X175750Y183250D02*
X180250D01*
Y178750D02*
Y183250D01*
X175750Y178750D02*
Y183250D01*
X164750Y90750D02*
X169250D01*
X164750Y95250D02*
X169250D01*
Y90750D02*
Y95250D01*
X164750Y90750D02*
Y95250D01*
X153750Y79750D02*
X158250D01*
X153750Y84250D02*
X158250D01*
Y79750D02*
Y84250D01*
X153750Y79750D02*
Y84250D01*
X241750Y79750D02*
X246250D01*
X241750Y84250D02*
X246250D01*
Y79750D02*
Y84250D01*
X241750Y79750D02*
Y84250D01*
Y145750D02*
Y150250D01*
X246250Y145750D02*
Y150250D01*
X241750D02*
X246250D01*
X241750Y145750D02*
X246250D01*
X230750Y79750D02*
Y84250D01*
X235250Y79750D02*
Y84250D01*
X230750D02*
X235250D01*
X230750Y79750D02*
X235250D01*
X219750D02*
Y84250D01*
X224250Y79750D02*
Y84250D01*
X219750D02*
X224250D01*
X219750Y79750D02*
X224250D01*
X219750Y167750D02*
Y172250D01*
X224250Y167750D02*
Y172250D01*
X219750D02*
X224250D01*
X219750Y167750D02*
X224250D01*
X197750Y178750D02*
Y183250D01*
X202250Y178750D02*
Y183250D01*
X197750D02*
X202250D01*
X197750Y178750D02*
X202250D01*
X153740Y167750D02*
Y172250D01*
X158240Y167750D02*
Y172250D01*
X153740D02*
X158240D01*
X153740Y167750D02*
X158240D01*
X153750Y156750D02*
Y161250D01*
X158250Y156750D02*
Y161250D01*
X153750D02*
X158250D01*
X153750Y156750D02*
X158250D01*
X241750Y208750D02*
Y213250D01*
X246250Y208750D02*
Y213250D01*
X241750D02*
X246250D01*
X241750Y208750D02*
X246250D01*
X192250Y123750D02*
Y128250D01*
X196750Y123750D02*
Y128250D01*
X192250D02*
X196750D01*
X192250Y123750D02*
X196750D01*
X186750Y79750D02*
Y84250D01*
X191250Y79750D02*
Y84250D01*
X186750D02*
X191250D01*
X186750Y79750D02*
X191250D01*
X241750Y178750D02*
Y183250D01*
X246250Y178750D02*
Y183250D01*
X241750D02*
X246250D01*
X241750Y178750D02*
X246250D01*
X230750Y90750D02*
Y95250D01*
X235250Y90750D02*
Y95250D01*
X230750D02*
X235250D01*
X230750Y90750D02*
X235250D01*
X241750Y193750D02*
Y198250D01*
X246250Y193750D02*
Y198250D01*
X241750D02*
X246250D01*
X241750Y193750D02*
X246250D01*
X153750D02*
Y198250D01*
X158250Y193750D02*
Y198250D01*
X153750D02*
X158250D01*
X153750Y193750D02*
X158250D01*
X230750Y178750D02*
Y183250D01*
X235250Y178750D02*
Y183250D01*
X230750D02*
X235250D01*
X230750Y178750D02*
X235250D01*
X164750D02*
Y183250D01*
X169250Y178750D02*
Y183250D01*
X164750D02*
X169250D01*
X164750Y178750D02*
X169250D01*
X230750Y208750D02*
Y213250D01*
X235250Y208750D02*
Y213250D01*
X230750D02*
X235250D01*
X230750Y208750D02*
X235250D01*
X164750D02*
Y213250D01*
X169250Y208750D02*
Y213250D01*
X164750D02*
X169250D01*
X164750Y208750D02*
X169250D01*
M02*
