G04*
G04 #@! TF.GenerationSoftware,Altium Limited,Altium Designer,21.6.4 (81)*
G04*
G04 Layer_Color=0*
%FSLAX44Y44*%
%MOMM*%
G71*
G04*
G04 #@! TF.SameCoordinates,75E8EA60-7A1B-4F35-BD82-ACC1B6EDD98F*
G04*
G04*
G04 #@! TF.FilePolarity,Positive*
G04*
G01*
G75*
%ADD47C,0.0500*%
D47*
X205500Y167000D02*
Y173000D01*
X202500Y170000D02*
X208500D01*
X203250Y172250D02*
X207750D01*
Y167750D02*
Y172250D01*
X203250Y167750D02*
Y172250D01*
Y167750D02*
X207750D01*
X194500Y167000D02*
Y173000D01*
X191500Y170000D02*
X197500D01*
X192250Y172250D02*
X196751D01*
Y167750D02*
Y172250D01*
X192250Y167750D02*
Y172250D01*
Y167750D02*
X196751D01*
X205500Y134000D02*
Y140000D01*
X202500Y137000D02*
X208500D01*
X203250Y139250D02*
X207750D01*
Y134750D02*
Y139250D01*
X203250Y134750D02*
Y139250D01*
Y134750D02*
X207750D01*
X194500Y134000D02*
Y140000D01*
X191500Y137000D02*
X197500D01*
X192250Y139250D02*
X196751D01*
Y134750D02*
Y139250D01*
X192250Y134750D02*
Y139250D01*
Y134750D02*
X196751D01*
X205500Y145000D02*
Y151000D01*
X202500Y148000D02*
X208500D01*
X203250Y150250D02*
X207750D01*
Y145750D02*
Y150250D01*
X203250Y145750D02*
Y150250D01*
Y145750D02*
X207750D01*
Y123750D02*
Y128250D01*
X203250Y123750D02*
X207750D01*
X203250Y128250D02*
X207750D01*
X203250Y123750D02*
Y128250D01*
X205500Y123000D02*
Y129000D01*
X202500Y126000D02*
X208500D01*
X194500Y145000D02*
Y151000D01*
X191500Y148000D02*
X197500D01*
X192250Y150250D02*
X196751D01*
Y145750D02*
Y150250D01*
X192250Y145750D02*
Y150250D01*
Y145750D02*
X196751D01*
Y123750D02*
Y128250D01*
X192250Y123750D02*
X196751D01*
X192250Y128250D02*
X196751D01*
X192250Y123750D02*
Y128250D01*
X194500Y123000D02*
Y129000D01*
X191500Y126000D02*
X197500D01*
X222000Y90000D02*
Y96000D01*
X219000Y93000D02*
X225000D01*
X219750Y95250D02*
X224250D01*
Y90750D02*
Y95250D01*
X219750Y90750D02*
Y95250D01*
Y90750D02*
X224250D01*
X230000Y104000D02*
X236000D01*
X233000Y101000D02*
Y107000D01*
X235250Y101750D02*
Y106250D01*
X230750Y101750D02*
X235250D01*
X230750Y106250D02*
X235250D01*
X230750Y101750D02*
Y106250D01*
X167000Y101000D02*
Y107000D01*
X164000Y104000D02*
X170000D01*
X164750Y106250D02*
X169250D01*
Y101750D02*
Y106250D01*
X164750Y101750D02*
Y106250D01*
Y101750D02*
X169250D01*
X178000Y112000D02*
Y118000D01*
X175000Y115000D02*
X181000D01*
X175750Y117250D02*
X180250D01*
Y112750D02*
Y117250D01*
X175750Y112750D02*
Y117250D01*
Y112750D02*
X180250D01*
X189000Y101000D02*
Y107000D01*
X186000Y104000D02*
X192000D01*
X186750Y106250D02*
X191250D01*
Y101750D02*
Y106250D01*
X186750Y101750D02*
Y106250D01*
Y101750D02*
X191250D01*
X189000Y90000D02*
Y96000D01*
X186000Y93000D02*
X192000D01*
X186750Y95250D02*
X191250D01*
Y90750D02*
Y95250D01*
X186750Y90750D02*
Y95250D01*
Y90750D02*
X191250D01*
X211000Y90000D02*
Y96000D01*
X208000Y93000D02*
X214000D01*
X208750Y95250D02*
X213250D01*
Y90750D02*
Y95250D01*
X208750Y90750D02*
Y95250D01*
Y90750D02*
X213250D01*
X211000Y79000D02*
Y85000D01*
X208000Y82000D02*
X214000D01*
X208750Y84250D02*
X213250D01*
Y79750D02*
Y84250D01*
X208750Y79750D02*
Y84250D01*
Y79750D02*
X213250D01*
X167000Y123000D02*
Y129000D01*
X164000Y126000D02*
X170000D01*
X164750Y128250D02*
X169250D01*
Y123750D02*
Y128250D01*
X164750Y123750D02*
Y128250D01*
Y123750D02*
X169250D01*
X244000Y167000D02*
Y173000D01*
X241000Y170000D02*
X247000D01*
X241750Y172250D02*
X246250D01*
Y167750D02*
Y172250D01*
X241750Y167750D02*
Y172250D01*
Y167750D02*
X246250D01*
X244000Y112000D02*
Y118000D01*
X241000Y115000D02*
X247000D01*
X241750Y117250D02*
X246250D01*
Y112750D02*
Y117250D01*
X241750Y112750D02*
Y117250D01*
Y112750D02*
X246250D01*
X233000Y112000D02*
Y118000D01*
X230000Y115000D02*
X236000D01*
X230750Y117250D02*
X235250D01*
Y112750D02*
Y117250D01*
X230750Y112750D02*
Y117250D01*
Y112750D02*
X235250D01*
X233000Y123000D02*
Y129000D01*
X230000Y126000D02*
X236000D01*
X230750Y128250D02*
X235250D01*
Y123750D02*
Y128250D01*
X230750Y123750D02*
Y128250D01*
Y123750D02*
X235250D01*
X244000Y123000D02*
Y129000D01*
X241000Y126000D02*
X247000D01*
X241750Y128250D02*
X246250D01*
Y123750D02*
Y128250D01*
X241750Y123750D02*
Y128250D01*
Y123750D02*
X246250D01*
X244000Y134000D02*
Y140000D01*
X241000Y137000D02*
X247000D01*
X241750Y139250D02*
X246250D01*
Y134750D02*
Y139250D01*
X241750Y134750D02*
Y139250D01*
Y134750D02*
X246250D01*
X233000Y134000D02*
Y140000D01*
X230000Y137000D02*
X236000D01*
X230750Y139250D02*
X235250D01*
Y134750D02*
Y139250D01*
X230750Y134750D02*
Y139250D01*
Y134750D02*
X235250D01*
X222000Y134000D02*
Y140000D01*
X219000Y137000D02*
X225000D01*
X219750Y139250D02*
X224250D01*
Y134750D02*
Y139250D01*
X219750Y134750D02*
Y139250D01*
Y134750D02*
X224250D01*
X200000Y101000D02*
Y107000D01*
X197000Y104000D02*
X203000D01*
X197750Y106250D02*
X202250D01*
Y101750D02*
Y106250D01*
X197750Y101750D02*
Y106250D01*
Y101750D02*
X202250D01*
X244000Y156000D02*
Y162000D01*
X241000Y159000D02*
X247000D01*
X241750Y161250D02*
X246250D01*
Y156750D02*
Y161250D01*
X241750Y156750D02*
Y161250D01*
Y156750D02*
X246250D01*
X178000Y167000D02*
Y173000D01*
X175000Y170000D02*
X181000D01*
X175750Y172250D02*
X180250D01*
Y167750D02*
Y172250D01*
X175750Y167750D02*
Y172250D01*
Y167750D02*
X180250D01*
X156000Y112000D02*
Y118000D01*
X153000Y115000D02*
X159000D01*
X153750Y117250D02*
X158250D01*
Y112750D02*
Y117250D01*
X153750Y112750D02*
Y117250D01*
Y112750D02*
X158250D01*
X156000Y101000D02*
Y107000D01*
X153000Y104000D02*
X159000D01*
X153750Y106250D02*
X158250D01*
Y101750D02*
Y106250D01*
X153750Y101750D02*
Y106250D01*
Y101750D02*
X158250D01*
X178000Y90000D02*
Y96000D01*
X175000Y93000D02*
X181000D01*
X175750Y95250D02*
X180250D01*
Y90750D02*
Y95250D01*
X175750Y90750D02*
Y95250D01*
Y90750D02*
X180250D01*
X167000Y79000D02*
Y85000D01*
X164000Y82000D02*
X170000D01*
X164750Y84250D02*
X169250D01*
Y79750D02*
Y84250D01*
X164750Y79750D02*
Y84250D01*
Y79750D02*
X169250D01*
X156000Y90000D02*
Y96000D01*
X153000Y93000D02*
X159000D01*
X153750Y95250D02*
X158250D01*
Y90750D02*
Y95250D01*
X153750Y90750D02*
Y95250D01*
Y90750D02*
X158250D01*
X178000Y79000D02*
Y85000D01*
X175000Y82000D02*
X181000D01*
X175750Y84250D02*
X180250D01*
Y79750D02*
Y84250D01*
X175750Y79750D02*
Y84250D01*
Y79750D02*
X180250D01*
X156000Y134000D02*
Y140000D01*
X153000Y137000D02*
X159000D01*
X153750Y139250D02*
X158250D01*
Y134750D02*
Y139250D01*
X153750Y134750D02*
Y139250D01*
Y134750D02*
X158250D01*
X222000Y178000D02*
Y184000D01*
X219000Y181000D02*
X225000D01*
X219750Y183250D02*
X224250D01*
Y178750D02*
Y183250D01*
X219750Y178750D02*
Y183250D01*
Y178750D02*
X224250D01*
X233000Y156000D02*
Y162000D01*
X230000Y159000D02*
X236000D01*
X230750Y161250D02*
X235250D01*
Y156750D02*
Y161250D01*
X230750Y156750D02*
Y161250D01*
Y156750D02*
X235250D01*
X233000Y167000D02*
Y173000D01*
X230000Y170000D02*
X236000D01*
X230750Y172250D02*
X235250D01*
Y167750D02*
Y172250D01*
X230750Y167750D02*
Y172250D01*
Y167750D02*
X235250D01*
X178000Y145000D02*
Y151000D01*
X175000Y148000D02*
X181000D01*
X175750Y150250D02*
X180250D01*
Y145750D02*
Y150250D01*
X175750Y145750D02*
Y150250D01*
Y145750D02*
X180250D01*
X233000Y145000D02*
Y151000D01*
X230000Y148000D02*
X236000D01*
X230749Y150250D02*
X235250D01*
Y145750D02*
Y150250D01*
X230749Y145750D02*
Y150250D01*
Y145750D02*
X235250D01*
X178000Y134000D02*
Y140000D01*
X175000Y137000D02*
X181000D01*
X175750Y139250D02*
X180250D01*
Y134750D02*
Y139250D01*
X175750Y134750D02*
Y139250D01*
Y134750D02*
X180250D01*
X222000Y145000D02*
Y151000D01*
X219000Y148000D02*
X225000D01*
X219750Y150250D02*
X224250D01*
Y145750D02*
Y150250D01*
X219750Y145750D02*
Y150250D01*
Y145750D02*
X224250D01*
X200000Y79000D02*
Y85000D01*
X197000Y82000D02*
X203000D01*
X197750Y84250D02*
X202250D01*
Y79750D02*
Y84250D01*
X197750Y79750D02*
Y84250D01*
Y79750D02*
X202250D01*
X167000Y167000D02*
Y173000D01*
X164000Y170000D02*
X170000D01*
X164750Y172250D02*
X169250D01*
Y167750D02*
Y172250D01*
X164750Y167750D02*
Y172250D01*
Y167750D02*
X169250D01*
X178000Y123000D02*
Y129000D01*
X175000Y126000D02*
X181000D01*
X175750Y128250D02*
X180250D01*
Y123750D02*
Y128250D01*
X175750Y123750D02*
Y128250D01*
Y123750D02*
X180250D01*
X197000Y93000D02*
X203000D01*
X200000Y90000D02*
Y96000D01*
X197750Y90750D02*
Y95250D01*
X202250D01*
X197750Y90750D02*
X202250D01*
Y95250D01*
X211000Y101000D02*
Y107000D01*
X208000Y104000D02*
X214000D01*
X208750Y106250D02*
X213250D01*
Y101750D02*
Y106250D01*
X208750Y101750D02*
Y106250D01*
Y101750D02*
X213250D01*
X164000Y115000D02*
X170000D01*
X167000Y112000D02*
Y118000D01*
X164750Y112750D02*
Y117250D01*
X169250D01*
X164750Y112750D02*
X169250D01*
Y117250D01*
X153000Y126000D02*
X159000D01*
X156000Y123000D02*
Y129000D01*
X153750Y123750D02*
Y128250D01*
X158250D01*
X153750Y123750D02*
X158250D01*
Y128250D01*
X241000Y93000D02*
X247000D01*
X244000Y90000D02*
Y96000D01*
X241750Y90750D02*
Y95250D01*
X246250D01*
X241750Y90750D02*
X246250D01*
Y95250D01*
X241000Y104000D02*
X247000D01*
X244000Y101000D02*
Y107000D01*
X241750Y101750D02*
Y106250D01*
X246250D01*
X241750Y101750D02*
X246250D01*
Y106250D01*
X219000Y115000D02*
X225000D01*
X222000Y112000D02*
Y118000D01*
X219750Y112750D02*
Y117250D01*
X224250D01*
X219750Y112750D02*
X224250D01*
Y117250D01*
X219000Y126000D02*
X225000D01*
X222000Y123000D02*
Y129000D01*
X219750Y123750D02*
Y128250D01*
X224250D01*
X219750Y123750D02*
X224250D01*
Y128250D01*
X175000Y159000D02*
X181000D01*
X178000Y156000D02*
Y162000D01*
X175750Y156750D02*
Y161250D01*
X180250D01*
X175750Y156750D02*
X180250D01*
Y161250D01*
X219000Y159000D02*
X225000D01*
X222000Y156000D02*
Y162000D01*
X219750Y156750D02*
Y161250D01*
X224250D01*
X219750Y156750D02*
X224250D01*
Y161250D01*
X164000Y159000D02*
X170000D01*
X167000Y156000D02*
Y162000D01*
X164750Y156750D02*
Y161250D01*
X169250D01*
X164750Y156750D02*
X169250D01*
Y161250D01*
X164000Y137000D02*
X170000D01*
X167000Y134000D02*
Y140000D01*
X164750Y134750D02*
Y139250D01*
X169250D01*
X164750Y134750D02*
X169250D01*
Y139250D01*
X153000Y148000D02*
X159000D01*
X156000Y145000D02*
Y151000D01*
X153750Y145750D02*
Y150250D01*
X158250D01*
X153750Y145750D02*
X158250D01*
Y150250D01*
X164000Y148000D02*
X170000D01*
X167000Y145000D02*
Y151000D01*
X164750Y145750D02*
Y150250D01*
X169250D01*
X164750Y145750D02*
X169250D01*
Y150250D01*
X153000Y181000D02*
X159000D01*
X156000Y178000D02*
Y184000D01*
X153750Y178750D02*
Y183250D01*
X158250D01*
X153750Y178750D02*
X158250D01*
Y183250D01*
X153000Y211000D02*
X159000D01*
X156000Y208000D02*
Y214000D01*
X153750Y208750D02*
Y213250D01*
X158250D01*
X153750Y208750D02*
X158250D01*
Y213250D01*
X175000Y181000D02*
X181000D01*
X178000Y178000D02*
Y184000D01*
X175750Y178750D02*
Y183250D01*
X180250D01*
X175750Y178750D02*
X180250D01*
Y183250D01*
X164000Y93000D02*
X170000D01*
X167000Y90000D02*
Y96000D01*
X164750Y90750D02*
Y95250D01*
X169250D01*
X164750Y90750D02*
X169250D01*
Y95250D01*
X153000Y82000D02*
X159000D01*
X156000Y79000D02*
Y85000D01*
X153750Y79750D02*
Y84250D01*
X158250D01*
X153750Y79750D02*
X158250D01*
Y84250D01*
X241000Y82000D02*
X247000D01*
X244000Y79000D02*
Y85000D01*
X241750Y79750D02*
Y84250D01*
X246250D01*
X241750Y79750D02*
X246250D01*
Y84250D01*
Y145750D02*
Y150250D01*
X241750Y145750D02*
X246250D01*
X241750Y150250D02*
X246250D01*
X241750Y145750D02*
Y150250D01*
X244000Y145000D02*
Y151000D01*
X241000Y148000D02*
X247000D01*
X235250Y79750D02*
Y84250D01*
X230750Y79750D02*
X235250D01*
X230750Y84250D02*
X235250D01*
X230750Y79750D02*
Y84250D01*
X233000Y79000D02*
Y85000D01*
X230000Y82000D02*
X236000D01*
X224250Y79750D02*
Y84250D01*
X219750Y79750D02*
X224250D01*
X219750Y84250D02*
X224250D01*
X219750Y79750D02*
Y84250D01*
X222000Y79000D02*
Y85000D01*
X219000Y82000D02*
X225000D01*
X224250Y167750D02*
Y172250D01*
X219750Y167750D02*
X224250D01*
X219750Y172250D02*
X224250D01*
X219750Y167750D02*
Y172250D01*
X222000Y167000D02*
Y173000D01*
X219000Y170000D02*
X225000D01*
X202250Y178750D02*
Y183250D01*
X197750Y178750D02*
X202250D01*
X197750Y183250D02*
X202250D01*
X197750Y178750D02*
Y183250D01*
X200000Y178000D02*
Y184000D01*
X197000Y181000D02*
X203000D01*
X158240Y167750D02*
Y172250D01*
X153740Y167750D02*
X158240D01*
X153740Y172250D02*
X158240D01*
X153740Y167750D02*
Y172250D01*
X155990Y167000D02*
Y173000D01*
X152990Y170000D02*
X158990D01*
X158250Y156750D02*
Y161250D01*
X153750Y156750D02*
X158250D01*
X153750Y161250D02*
X158250D01*
X153750Y156750D02*
Y161250D01*
X156000Y156000D02*
Y162000D01*
X153000Y159000D02*
X159000D01*
X246250Y208750D02*
Y213250D01*
X241750Y208750D02*
X246250D01*
X241750Y213250D02*
X246250D01*
X241750Y208750D02*
Y213250D01*
X244000Y208000D02*
Y214000D01*
X241000Y211000D02*
X247000D01*
X191250Y79750D02*
Y84250D01*
X186750Y79750D02*
X191250D01*
X186750Y84250D02*
X191250D01*
X186750Y79750D02*
Y84250D01*
X189000Y79000D02*
Y85000D01*
X186000Y82000D02*
X192000D01*
X246250Y178750D02*
Y183250D01*
X241750Y178750D02*
X246250D01*
X241750Y183250D02*
X246250D01*
X241750Y178750D02*
Y183250D01*
X244000Y178000D02*
Y184000D01*
X241000Y181000D02*
X247000D01*
X235250Y90750D02*
Y95250D01*
X230750Y90750D02*
X235250D01*
X230750Y95250D02*
X235250D01*
X230750Y90750D02*
Y95250D01*
X233000Y90000D02*
Y96000D01*
X230000Y93000D02*
X236000D01*
X246250Y193750D02*
Y198250D01*
X241750Y193750D02*
X246250D01*
X241750Y198250D02*
X246250D01*
X241750Y193750D02*
Y198250D01*
X244000Y193000D02*
Y199000D01*
X241000Y196000D02*
X247000D01*
X158250Y193750D02*
Y198250D01*
X153750Y193750D02*
X158250D01*
X153750Y198250D02*
X158250D01*
X153750Y193750D02*
Y198250D01*
X156000Y193000D02*
Y199000D01*
X153000Y196000D02*
X159000D01*
X235250Y178750D02*
Y183250D01*
X230750Y178750D02*
X235250D01*
X230750Y183250D02*
X235250D01*
X230750Y178750D02*
Y183250D01*
X233000Y178000D02*
Y184000D01*
X230000Y181000D02*
X236000D01*
X169250Y178750D02*
Y183250D01*
X164750Y178750D02*
X169250D01*
X164750Y183250D02*
X169250D01*
X164750Y178750D02*
Y183250D01*
X167000Y178000D02*
Y184000D01*
X164000Y181000D02*
X170000D01*
X235250Y208750D02*
Y213250D01*
X230750Y208750D02*
X235250D01*
X230750Y213250D02*
X235250D01*
X230750Y208750D02*
Y213250D01*
X233000Y208000D02*
Y214000D01*
X230000Y211000D02*
X236000D01*
X169250Y208750D02*
Y213250D01*
X164750Y208750D02*
X169250D01*
X164750Y213250D02*
X169250D01*
X164750Y208750D02*
Y213250D01*
X167000Y208000D02*
Y214000D01*
X164000Y211000D02*
X170000D01*
M02*
