G04*
G04 #@! TF.GenerationSoftware,Altium Limited,Altium Designer,21.6.4 (81)*
G04*
G04 Layer_Color=2752767*
%FSLAX44Y44*%
%MOMM*%
G71*
G04*
G04 #@! TF.SameCoordinates,75E8EA60-7A1B-4F35-BD82-ACC1B6EDD98F*
G04*
G04*
G04 #@! TF.FilePolarity,Positive*
G04*
G01*
G75*
%ADD46C,0.0508*%
%ADD50C,0.0677*%
D46*
X372868Y113318D02*
Y117382D01*
X376932D01*
Y113318D01*
X372868D01*
X383028Y62518D02*
Y66582D01*
X387092D01*
Y62518D01*
X383028D01*
X362708D02*
Y66582D01*
X366772D01*
Y62518D01*
X362708D01*
X111100Y39668D02*
X109068Y43732D01*
X113132D01*
X111100Y39668D01*
X136500D02*
X134468Y43732D01*
X138532D01*
X136500Y39668D01*
X238100D02*
X236068Y43732D01*
X240132D01*
X238100Y39668D01*
X288900D02*
X286868Y43732D01*
X290932D01*
X288900Y39668D01*
X263500D02*
X261468Y43732D01*
X265532D01*
X263500Y39668D01*
X212700D02*
X210668Y43732D01*
X214732D01*
X212700Y39668D01*
X187300D02*
X185268Y43732D01*
X189332D01*
X187300Y39668D01*
X161900D02*
X159868Y43732D01*
X163932D01*
X161900Y39668D01*
X168750Y64718D02*
X169766Y65734D01*
X170782D01*
X169766Y66750D01*
X170782Y67766D01*
X169766D01*
X168750Y68782D01*
X167734Y67766D01*
X166718D01*
X167734Y66750D01*
X166718Y65734D01*
X167734D01*
X168750Y64718D01*
X380000Y210468D02*
X381016Y211484D01*
X382032D01*
X381016Y212500D01*
X382032Y213516D01*
X381016D01*
X380000Y214532D01*
X378984Y213516D01*
X377968D01*
X378984Y212500D01*
X377968Y211484D01*
X378984D01*
X380000Y210468D01*
Y195468D02*
X381016Y196484D01*
X382032D01*
X381016Y197500D01*
X382032Y198516D01*
X381016D01*
X380000Y199532D01*
X378984Y198516D01*
X377968D01*
X378984Y197500D01*
X377968Y196484D01*
X378984D01*
X380000Y195468D01*
Y180468D02*
X381016Y181484D01*
X382032D01*
X381016Y182500D01*
X382032Y183516D01*
X381016D01*
X380000Y184532D01*
X378984Y183516D01*
X377968D01*
X378984Y182500D01*
X377968Y181484D01*
X378984D01*
X380000Y180468D01*
Y165468D02*
X381016Y166484D01*
X382032D01*
X381016Y167500D01*
X382032Y168516D01*
X381016D01*
X380000Y169532D01*
X378984Y168516D01*
X377968D01*
X378984Y167500D01*
X377968Y166484D01*
X378984D01*
X380000Y165468D01*
Y45468D02*
X381016Y46484D01*
X382032D01*
X381016Y47500D01*
X382032Y48516D01*
X381016D01*
X380000Y49532D01*
X378984Y48516D01*
X377968D01*
X378984Y47500D01*
X377968Y46484D01*
X378984D01*
X380000Y45468D01*
X365000Y210468D02*
X366016Y211484D01*
X367032D01*
X366016Y212500D01*
X367032Y213516D01*
X366016D01*
X365000Y214532D01*
X363984Y213516D01*
X362968D01*
X363984Y212500D01*
X362968Y211484D01*
X363984D01*
X365000Y210468D01*
Y195468D02*
X366016Y196484D01*
X367032D01*
X366016Y197500D01*
X367032Y198516D01*
X366016D01*
X365000Y199532D01*
X363984Y198516D01*
X362968D01*
X363984Y197500D01*
X362968Y196484D01*
X363984D01*
X365000Y195468D01*
Y180468D02*
X366016Y181484D01*
X367032D01*
X366016Y182500D01*
X367032Y183516D01*
X366016D01*
X365000Y184532D01*
X363984Y183516D01*
X362968D01*
X363984Y182500D01*
X362968Y181484D01*
X363984D01*
X365000Y180468D01*
Y165468D02*
X366016Y166484D01*
X367032D01*
X366016Y167500D01*
X367032Y168516D01*
X366016D01*
X365000Y169532D01*
X363984Y168516D01*
X362968D01*
X363984Y167500D01*
X362968Y166484D01*
X363984D01*
X365000Y165468D01*
Y150468D02*
X366016Y151484D01*
X367032D01*
X366016Y152500D01*
X367032Y153516D01*
X366016D01*
X365000Y154532D01*
X363984Y153516D01*
X362968D01*
X363984Y152500D01*
X362968Y151484D01*
X363984D01*
X365000Y150468D01*
Y135468D02*
X366016Y136484D01*
X367032D01*
X366016Y137500D01*
X367032Y138516D01*
X366016D01*
X365000Y139532D01*
X363984Y138516D01*
X362968D01*
X363984Y137500D01*
X362968Y136484D01*
X363984D01*
X365000Y135468D01*
Y120468D02*
X366016Y121484D01*
X367032D01*
X366016Y122500D01*
X367032Y123516D01*
X366016D01*
X365000Y124532D01*
X363984Y123516D01*
X362968D01*
X363984Y122500D01*
X362968Y121484D01*
X363984D01*
X365000Y120468D01*
Y45468D02*
X366016Y46484D01*
X367032D01*
X366016Y47500D01*
X367032Y48516D01*
X366016D01*
X365000Y49532D01*
X363984Y48516D01*
X362968D01*
X363984Y47500D01*
X362968Y46484D01*
X363984D01*
X365000Y45468D01*
X350000Y210468D02*
X351016Y211484D01*
X352032D01*
X351016Y212500D01*
X352032Y213516D01*
X351016D01*
X350000Y214532D01*
X348984Y213516D01*
X347968D01*
X348984Y212500D01*
X347968Y211484D01*
X348984D01*
X350000Y210468D01*
Y195468D02*
X351016Y196484D01*
X352032D01*
X351016Y197500D01*
X352032Y198516D01*
X351016D01*
X350000Y199532D01*
X348984Y198516D01*
X347968D01*
X348984Y197500D01*
X347968Y196484D01*
X348984D01*
X350000Y195468D01*
Y180468D02*
X351016Y181484D01*
X352032D01*
X351016Y182500D01*
X352032Y183516D01*
X351016D01*
X350000Y184532D01*
X348984Y183516D01*
X347968D01*
X348984Y182500D01*
X347968Y181484D01*
X348984D01*
X350000Y180468D01*
Y165468D02*
X351016Y166484D01*
X352032D01*
X351016Y167500D01*
X352032Y168516D01*
X351016D01*
X350000Y169532D01*
X348984Y168516D01*
X347968D01*
X348984Y167500D01*
X347968Y166484D01*
X348984D01*
X350000Y165468D01*
Y150468D02*
X351016Y151484D01*
X352032D01*
X351016Y152500D01*
X352032Y153516D01*
X351016D01*
X350000Y154532D01*
X348984Y153516D01*
X347968D01*
X348984Y152500D01*
X347968Y151484D01*
X348984D01*
X350000Y150468D01*
Y135468D02*
X351016Y136484D01*
X352032D01*
X351016Y137500D01*
X352032Y138516D01*
X351016D01*
X350000Y139532D01*
X348984Y138516D01*
X347968D01*
X348984Y137500D01*
X347968Y136484D01*
X348984D01*
X350000Y135468D01*
Y120468D02*
X351016Y121484D01*
X352032D01*
X351016Y122500D01*
X352032Y123516D01*
X351016D01*
X350000Y124532D01*
X348984Y123516D01*
X347968D01*
X348984Y122500D01*
X347968Y121484D01*
X348984D01*
X350000Y120468D01*
Y105468D02*
X351016Y106484D01*
X352032D01*
X351016Y107500D01*
X352032Y108516D01*
X351016D01*
X350000Y109532D01*
X348984Y108516D01*
X347968D01*
X348984Y107500D01*
X347968Y106484D01*
X348984D01*
X350000Y105468D01*
Y75468D02*
X351016Y76484D01*
X352032D01*
X351016Y77500D01*
X352032Y78516D01*
X351016D01*
X350000Y79532D01*
X348984Y78516D01*
X347968D01*
X348984Y77500D01*
X347968Y76484D01*
X348984D01*
X350000Y75468D01*
Y60468D02*
X351016Y61484D01*
X352032D01*
X351016Y62500D01*
X352032Y63516D01*
X351016D01*
X350000Y64532D01*
X348984Y63516D01*
X347968D01*
X348984Y62500D01*
X347968Y61484D01*
X348984D01*
X350000Y60468D01*
Y45468D02*
X351016Y46484D01*
X352032D01*
X351016Y47500D01*
X352032Y48516D01*
X351016D01*
X350000Y49532D01*
X348984Y48516D01*
X347968D01*
X348984Y47500D01*
X347968Y46484D01*
X348984D01*
X350000Y45468D01*
Y30468D02*
X351016Y31484D01*
X352032D01*
X351016Y32500D01*
X352032Y33516D01*
X351016D01*
X350000Y34532D01*
X348984Y33516D01*
X347968D01*
X348984Y32500D01*
X347968Y31484D01*
X348984D01*
X350000Y30468D01*
X335000Y210468D02*
X336016Y211484D01*
X337032D01*
X336016Y212500D01*
X337032Y213516D01*
X336016D01*
X335000Y214532D01*
X333984Y213516D01*
X332968D01*
X333984Y212500D01*
X332968Y211484D01*
X333984D01*
X335000Y210468D01*
Y195468D02*
X336016Y196484D01*
X337032D01*
X336016Y197500D01*
X337032Y198516D01*
X336016D01*
X335000Y199532D01*
X333984Y198516D01*
X332968D01*
X333984Y197500D01*
X332968Y196484D01*
X333984D01*
X335000Y195468D01*
Y180468D02*
X336016Y181484D01*
X337032D01*
X336016Y182500D01*
X337032Y183516D01*
X336016D01*
X335000Y184532D01*
X333984Y183516D01*
X332968D01*
X333984Y182500D01*
X332968Y181484D01*
X333984D01*
X335000Y180468D01*
Y165468D02*
X336016Y166484D01*
X337032D01*
X336016Y167500D01*
X337032Y168516D01*
X336016D01*
X335000Y169532D01*
X333984Y168516D01*
X332968D01*
X333984Y167500D01*
X332968Y166484D01*
X333984D01*
X335000Y165468D01*
Y150468D02*
X336016Y151484D01*
X337032D01*
X336016Y152500D01*
X337032Y153516D01*
X336016D01*
X335000Y154532D01*
X333984Y153516D01*
X332968D01*
X333984Y152500D01*
X332968Y151484D01*
X333984D01*
X335000Y150468D01*
Y135468D02*
X336016Y136484D01*
X337032D01*
X336016Y137500D01*
X337032Y138516D01*
X336016D01*
X335000Y139532D01*
X333984Y138516D01*
X332968D01*
X333984Y137500D01*
X332968Y136484D01*
X333984D01*
X335000Y135468D01*
Y120468D02*
X336016Y121484D01*
X337032D01*
X336016Y122500D01*
X337032Y123516D01*
X336016D01*
X335000Y124532D01*
X333984Y123516D01*
X332968D01*
X333984Y122500D01*
X332968Y121484D01*
X333984D01*
X335000Y120468D01*
Y75468D02*
X336016Y76484D01*
X337032D01*
X336016Y77500D01*
X337032Y78516D01*
X336016D01*
X335000Y79532D01*
X333984Y78516D01*
X332968D01*
X333984Y77500D01*
X332968Y76484D01*
X333984D01*
X335000Y75468D01*
Y60468D02*
X336016Y61484D01*
X337032D01*
X336016Y62500D01*
X337032Y63516D01*
X336016D01*
X335000Y64532D01*
X333984Y63516D01*
X332968D01*
X333984Y62500D01*
X332968Y61484D01*
X333984D01*
X335000Y60468D01*
Y45468D02*
X336016Y46484D01*
X337032D01*
X336016Y47500D01*
X337032Y48516D01*
X336016D01*
X335000Y49532D01*
X333984Y48516D01*
X332968D01*
X333984Y47500D01*
X332968Y46484D01*
X333984D01*
X335000Y45468D01*
Y30468D02*
X336016Y31484D01*
X337032D01*
X336016Y32500D01*
X337032Y33516D01*
X336016D01*
X335000Y34532D01*
X333984Y33516D01*
X332968D01*
X333984Y32500D01*
X332968Y31484D01*
X333984D01*
X335000Y30468D01*
X320000Y210468D02*
X321016Y211484D01*
X322032D01*
X321016Y212500D01*
X322032Y213516D01*
X321016D01*
X320000Y214532D01*
X318984Y213516D01*
X317968D01*
X318984Y212500D01*
X317968Y211484D01*
X318984D01*
X320000Y210468D01*
Y195468D02*
X321016Y196484D01*
X322032D01*
X321016Y197500D01*
X322032Y198516D01*
X321016D01*
X320000Y199532D01*
X318984Y198516D01*
X317968D01*
X318984Y197500D01*
X317968Y196484D01*
X318984D01*
X320000Y195468D01*
Y180468D02*
X321016Y181484D01*
X322032D01*
X321016Y182500D01*
X322032Y183516D01*
X321016D01*
X320000Y184532D01*
X318984Y183516D01*
X317968D01*
X318984Y182500D01*
X317968Y181484D01*
X318984D01*
X320000Y180468D01*
Y165468D02*
X321016Y166484D01*
X322032D01*
X321016Y167500D01*
X322032Y168516D01*
X321016D01*
X320000Y169532D01*
X318984Y168516D01*
X317968D01*
X318984Y167500D01*
X317968Y166484D01*
X318984D01*
X320000Y165468D01*
Y150468D02*
X321016Y151484D01*
X322032D01*
X321016Y152500D01*
X322032Y153516D01*
X321016D01*
X320000Y154532D01*
X318984Y153516D01*
X317968D01*
X318984Y152500D01*
X317968Y151484D01*
X318984D01*
X320000Y150468D01*
Y135468D02*
X321016Y136484D01*
X322032D01*
X321016Y137500D01*
X322032Y138516D01*
X321016D01*
X320000Y139532D01*
X318984Y138516D01*
X317968D01*
X318984Y137500D01*
X317968Y136484D01*
X318984D01*
X320000Y135468D01*
Y120468D02*
X321016Y121484D01*
X322032D01*
X321016Y122500D01*
X322032Y123516D01*
X321016D01*
X320000Y124532D01*
X318984Y123516D01*
X317968D01*
X318984Y122500D01*
X317968Y121484D01*
X318984D01*
X320000Y120468D01*
Y105468D02*
X321016Y106484D01*
X322032D01*
X321016Y107500D01*
X322032Y108516D01*
X321016D01*
X320000Y109532D01*
X318984Y108516D01*
X317968D01*
X318984Y107500D01*
X317968Y106484D01*
X318984D01*
X320000Y105468D01*
Y90468D02*
X321016Y91484D01*
X322032D01*
X321016Y92500D01*
X322032Y93516D01*
X321016D01*
X320000Y94532D01*
X318984Y93516D01*
X317968D01*
X318984Y92500D01*
X317968Y91484D01*
X318984D01*
X320000Y90468D01*
Y75468D02*
X321016Y76484D01*
X322032D01*
X321016Y77500D01*
X322032Y78516D01*
X321016D01*
X320000Y79532D01*
X318984Y78516D01*
X317968D01*
X318984Y77500D01*
X317968Y76484D01*
X318984D01*
X320000Y75468D01*
Y60468D02*
X321016Y61484D01*
X322032D01*
X321016Y62500D01*
X322032Y63516D01*
X321016D01*
X320000Y64532D01*
X318984Y63516D01*
X317968D01*
X318984Y62500D01*
X317968Y61484D01*
X318984D01*
X320000Y60468D01*
Y45468D02*
X321016Y46484D01*
X322032D01*
X321016Y47500D01*
X322032Y48516D01*
X321016D01*
X320000Y49532D01*
X318984Y48516D01*
X317968D01*
X318984Y47500D01*
X317968Y46484D01*
X318984D01*
X320000Y45468D01*
Y30468D02*
X321016Y31484D01*
X322032D01*
X321016Y32500D01*
X322032Y33516D01*
X321016D01*
X320000Y34532D01*
X318984Y33516D01*
X317968D01*
X318984Y32500D01*
X317968Y31484D01*
X318984D01*
X320000Y30468D01*
X305000Y210468D02*
X306016Y211484D01*
X307032D01*
X306016Y212500D01*
X307032Y213516D01*
X306016D01*
X305000Y214532D01*
X303984Y213516D01*
X302968D01*
X303984Y212500D01*
X302968Y211484D01*
X303984D01*
X305000Y210468D01*
Y195468D02*
X306016Y196484D01*
X307032D01*
X306016Y197500D01*
X307032Y198516D01*
X306016D01*
X305000Y199532D01*
X303984Y198516D01*
X302968D01*
X303984Y197500D01*
X302968Y196484D01*
X303984D01*
X305000Y195468D01*
Y180468D02*
X306016Y181484D01*
X307032D01*
X306016Y182500D01*
X307032Y183516D01*
X306016D01*
X305000Y184532D01*
X303984Y183516D01*
X302968D01*
X303984Y182500D01*
X302968Y181484D01*
X303984D01*
X305000Y180468D01*
Y165468D02*
X306016Y166484D01*
X307032D01*
X306016Y167500D01*
X307032Y168516D01*
X306016D01*
X305000Y169532D01*
X303984Y168516D01*
X302968D01*
X303984Y167500D01*
X302968Y166484D01*
X303984D01*
X305000Y165468D01*
Y150468D02*
X306016Y151484D01*
X307032D01*
X306016Y152500D01*
X307032Y153516D01*
X306016D01*
X305000Y154532D01*
X303984Y153516D01*
X302968D01*
X303984Y152500D01*
X302968Y151484D01*
X303984D01*
X305000Y150468D01*
Y135468D02*
X306016Y136484D01*
X307032D01*
X306016Y137500D01*
X307032Y138516D01*
X306016D01*
X305000Y139532D01*
X303984Y138516D01*
X302968D01*
X303984Y137500D01*
X302968Y136484D01*
X303984D01*
X305000Y135468D01*
Y120468D02*
X306016Y121484D01*
X307032D01*
X306016Y122500D01*
X307032Y123516D01*
X306016D01*
X305000Y124532D01*
X303984Y123516D01*
X302968D01*
X303984Y122500D01*
X302968Y121484D01*
X303984D01*
X305000Y120468D01*
Y75468D02*
X306016Y76484D01*
X307032D01*
X306016Y77500D01*
X307032Y78516D01*
X306016D01*
X305000Y79532D01*
X303984Y78516D01*
X302968D01*
X303984Y77500D01*
X302968Y76484D01*
X303984D01*
X305000Y75468D01*
Y60468D02*
X306016Y61484D01*
X307032D01*
X306016Y62500D01*
X307032Y63516D01*
X306016D01*
X305000Y64532D01*
X303984Y63516D01*
X302968D01*
X303984Y62500D01*
X302968Y61484D01*
X303984D01*
X305000Y60468D01*
Y45468D02*
X306016Y46484D01*
X307032D01*
X306016Y47500D01*
X307032Y48516D01*
X306016D01*
X305000Y49532D01*
X303984Y48516D01*
X302968D01*
X303984Y47500D01*
X302968Y46484D01*
X303984D01*
X305000Y45468D01*
Y30468D02*
X306016Y31484D01*
X307032D01*
X306016Y32500D01*
X307032Y33516D01*
X306016D01*
X305000Y34532D01*
X303984Y33516D01*
X302968D01*
X303984Y32500D01*
X302968Y31484D01*
X303984D01*
X305000Y30468D01*
X290000Y210468D02*
X291016Y211484D01*
X292032D01*
X291016Y212500D01*
X292032Y213516D01*
X291016D01*
X290000Y214532D01*
X288984Y213516D01*
X287968D01*
X288984Y212500D01*
X287968Y211484D01*
X288984D01*
X290000Y210468D01*
Y195468D02*
X291016Y196484D01*
X292032D01*
X291016Y197500D01*
X292032Y198516D01*
X291016D01*
X290000Y199532D01*
X288984Y198516D01*
X287968D01*
X288984Y197500D01*
X287968Y196484D01*
X288984D01*
X290000Y195468D01*
Y180468D02*
X291016Y181484D01*
X292032D01*
X291016Y182500D01*
X292032Y183516D01*
X291016D01*
X290000Y184532D01*
X288984Y183516D01*
X287968D01*
X288984Y182500D01*
X287968Y181484D01*
X288984D01*
X290000Y180468D01*
Y75468D02*
X291016Y76484D01*
X292032D01*
X291016Y77500D01*
X292032Y78516D01*
X291016D01*
X290000Y79532D01*
X288984Y78516D01*
X287968D01*
X288984Y77500D01*
X287968Y76484D01*
X288984D01*
X290000Y75468D01*
Y60468D02*
X291016Y61484D01*
X292032D01*
X291016Y62500D01*
X292032Y63516D01*
X291016D01*
X290000Y64532D01*
X288984Y63516D01*
X287968D01*
X288984Y62500D01*
X287968Y61484D01*
X288984D01*
X290000Y60468D01*
X275000Y210468D02*
X276016Y211484D01*
X277032D01*
X276016Y212500D01*
X277032Y213516D01*
X276016D01*
X275000Y214532D01*
X273984Y213516D01*
X272968D01*
X273984Y212500D01*
X272968Y211484D01*
X273984D01*
X275000Y210468D01*
Y195468D02*
X276016Y196484D01*
X277032D01*
X276016Y197500D01*
X277032Y198516D01*
X276016D01*
X275000Y199532D01*
X273984Y198516D01*
X272968D01*
X273984Y197500D01*
X272968Y196484D01*
X273984D01*
X275000Y195468D01*
Y180468D02*
X276016Y181484D01*
X277032D01*
X276016Y182500D01*
X277032Y183516D01*
X276016D01*
X275000Y184532D01*
X273984Y183516D01*
X272968D01*
X273984Y182500D01*
X272968Y181484D01*
X273984D01*
X275000Y180468D01*
Y135468D02*
X276016Y136484D01*
X277032D01*
X276016Y137500D01*
X277032Y138516D01*
X276016D01*
X275000Y139532D01*
X273984Y138516D01*
X272968D01*
X273984Y137500D01*
X272968Y136484D01*
X273984D01*
X275000Y135468D01*
Y120468D02*
X276016Y121484D01*
X277032D01*
X276016Y122500D01*
X277032Y123516D01*
X276016D01*
X275000Y124532D01*
X273984Y123516D01*
X272968D01*
X273984Y122500D01*
X272968Y121484D01*
X273984D01*
X275000Y120468D01*
Y105468D02*
X276016Y106484D01*
X277032D01*
X276016Y107500D01*
X277032Y108516D01*
X276016D01*
X275000Y109532D01*
X273984Y108516D01*
X272968D01*
X273984Y107500D01*
X272968Y106484D01*
X273984D01*
X275000Y105468D01*
Y90468D02*
X276016Y91484D01*
X277032D01*
X276016Y92500D01*
X277032Y93516D01*
X276016D01*
X275000Y94532D01*
X273984Y93516D01*
X272968D01*
X273984Y92500D01*
X272968Y91484D01*
X273984D01*
X275000Y90468D01*
Y75468D02*
X276016Y76484D01*
X277032D01*
X276016Y77500D01*
X277032Y78516D01*
X276016D01*
X275000Y79532D01*
X273984Y78516D01*
X272968D01*
X273984Y77500D01*
X272968Y76484D01*
X273984D01*
X275000Y75468D01*
Y60468D02*
X276016Y61484D01*
X277032D01*
X276016Y62500D01*
X277032Y63516D01*
X276016D01*
X275000Y64532D01*
X273984Y63516D01*
X272968D01*
X273984Y62500D01*
X272968Y61484D01*
X273984D01*
X275000Y60468D01*
Y45468D02*
X276016Y46484D01*
X277032D01*
X276016Y47500D01*
X277032Y48516D01*
X276016D01*
X275000Y49532D01*
X273984Y48516D01*
X272968D01*
X273984Y47500D01*
X272968Y46484D01*
X273984D01*
X275000Y45468D01*
Y30468D02*
X276016Y31484D01*
X277032D01*
X276016Y32500D01*
X277032Y33516D01*
X276016D01*
X275000Y34532D01*
X273984Y33516D01*
X272968D01*
X273984Y32500D01*
X272968Y31484D01*
X273984D01*
X275000Y30468D01*
X260000Y210468D02*
X261016Y211484D01*
X262032D01*
X261016Y212500D01*
X262032Y213516D01*
X261016D01*
X260000Y214532D01*
X258984Y213516D01*
X257968D01*
X258984Y212500D01*
X257968Y211484D01*
X258984D01*
X260000Y210468D01*
Y195468D02*
X261016Y196484D01*
X262032D01*
X261016Y197500D01*
X262032Y198516D01*
X261016D01*
X260000Y199532D01*
X258984Y198516D01*
X257968D01*
X258984Y197500D01*
X257968Y196484D01*
X258984D01*
X260000Y195468D01*
Y180468D02*
X261016Y181484D01*
X262032D01*
X261016Y182500D01*
X262032Y183516D01*
X261016D01*
X260000Y184532D01*
X258984Y183516D01*
X257968D01*
X258984Y182500D01*
X257968Y181484D01*
X258984D01*
X260000Y180468D01*
Y135468D02*
X261016Y136484D01*
X262032D01*
X261016Y137500D01*
X262032Y138516D01*
X261016D01*
X260000Y139532D01*
X258984Y138516D01*
X257968D01*
X258984Y137500D01*
X257968Y136484D01*
X258984D01*
X260000Y135468D01*
Y75468D02*
X261016Y76484D01*
X262032D01*
X261016Y77500D01*
X262032Y78516D01*
X261016D01*
X260000Y79532D01*
X258984Y78516D01*
X257968D01*
X258984Y77500D01*
X257968Y76484D01*
X258984D01*
X260000Y75468D01*
Y60468D02*
X261016Y61484D01*
X262032D01*
X261016Y62500D01*
X262032Y63516D01*
X261016D01*
X260000Y64532D01*
X258984Y63516D01*
X257968D01*
X258984Y62500D01*
X257968Y61484D01*
X258984D01*
X260000Y60468D01*
X200000D02*
X201016Y61484D01*
X202032D01*
X201016Y62500D01*
X202032Y63516D01*
X201016D01*
X200000Y64532D01*
X198984Y63516D01*
X197968D01*
X198984Y62500D01*
X197968Y61484D01*
X198984D01*
X200000Y60468D01*
Y45468D02*
X201016Y46484D01*
X202032D01*
X201016Y47500D01*
X202032Y48516D01*
X201016D01*
X200000Y49532D01*
X198984Y48516D01*
X197968D01*
X198984Y47500D01*
X197968Y46484D01*
X198984D01*
X200000Y45468D01*
Y30468D02*
X201016Y31484D01*
X202032D01*
X201016Y32500D01*
X202032Y33516D01*
X201016D01*
X200000Y34532D01*
X198984Y33516D01*
X197968D01*
X198984Y32500D01*
X197968Y31484D01*
X198984D01*
X200000Y30468D01*
X155000Y60468D02*
X156016Y61484D01*
X157032D01*
X156016Y62500D01*
X157032Y63516D01*
X156016D01*
X155000Y64532D01*
X153984Y63516D01*
X152968D01*
X153984Y62500D01*
X152968Y61484D01*
X153984D01*
X155000Y60468D01*
X140000Y210468D02*
X141016Y211484D01*
X142032D01*
X141016Y212500D01*
X142032Y213516D01*
X141016D01*
X140000Y214532D01*
X138984Y213516D01*
X137968D01*
X138984Y212500D01*
X137968Y211484D01*
X138984D01*
X140000Y210468D01*
Y195468D02*
X141016Y196484D01*
X142032D01*
X141016Y197500D01*
X142032Y198516D01*
X141016D01*
X140000Y199532D01*
X138984Y198516D01*
X137968D01*
X138984Y197500D01*
X137968Y196484D01*
X138984D01*
X140000Y195468D01*
Y180468D02*
X141016Y181484D01*
X142032D01*
X141016Y182500D01*
X142032Y183516D01*
X141016D01*
X140000Y184532D01*
X138984Y183516D01*
X137968D01*
X138984Y182500D01*
X137968Y181484D01*
X138984D01*
X140000Y180468D01*
Y135468D02*
X141016Y136484D01*
X142032D01*
X141016Y137500D01*
X142032Y138516D01*
X141016D01*
X140000Y139532D01*
X138984Y138516D01*
X137968D01*
X138984Y137500D01*
X137968Y136484D01*
X138984D01*
X140000Y135468D01*
X125000Y210468D02*
X126016Y211484D01*
X127032D01*
X126016Y212500D01*
X127032Y213516D01*
X126016D01*
X125000Y214532D01*
X123984Y213516D01*
X122968D01*
X123984Y212500D01*
X122968Y211484D01*
X123984D01*
X125000Y210468D01*
Y195468D02*
X126016Y196484D01*
X127032D01*
X126016Y197500D01*
X127032Y198516D01*
X126016D01*
X125000Y199532D01*
X123984Y198516D01*
X122968D01*
X123984Y197500D01*
X122968Y196484D01*
X123984D01*
X125000Y195468D01*
Y180468D02*
X126016Y181484D01*
X127032D01*
X126016Y182500D01*
X127032Y183516D01*
X126016D01*
X125000Y184532D01*
X123984Y183516D01*
X122968D01*
X123984Y182500D01*
X122968Y181484D01*
X123984D01*
X125000Y180468D01*
Y135468D02*
X126016Y136484D01*
X127032D01*
X126016Y137500D01*
X127032Y138516D01*
X126016D01*
X125000Y139532D01*
X123984Y138516D01*
X122968D01*
X123984Y137500D01*
X122968Y136484D01*
X123984D01*
X125000Y135468D01*
Y75468D02*
X126016Y76484D01*
X127032D01*
X126016Y77500D01*
X127032Y78516D01*
X126016D01*
X125000Y79532D01*
X123984Y78516D01*
X122968D01*
X123984Y77500D01*
X122968Y76484D01*
X123984D01*
X125000Y75468D01*
Y60468D02*
X126016Y61484D01*
X127032D01*
X126016Y62500D01*
X127032Y63516D01*
X126016D01*
X125000Y64532D01*
X123984Y63516D01*
X122968D01*
X123984Y62500D01*
X122968Y61484D01*
X123984D01*
X125000Y60468D01*
Y45468D02*
X126016Y46484D01*
X127032D01*
X126016Y47500D01*
X127032Y48516D01*
X126016D01*
X125000Y49532D01*
X123984Y48516D01*
X122968D01*
X123984Y47500D01*
X122968Y46484D01*
X123984D01*
X125000Y45468D01*
Y30468D02*
X126016Y31484D01*
X127032D01*
X126016Y32500D01*
X127032Y33516D01*
X126016D01*
X125000Y34532D01*
X123984Y33516D01*
X122968D01*
X123984Y32500D01*
X122968Y31484D01*
X123984D01*
X125000Y30468D01*
X110000Y210468D02*
X111016Y211484D01*
X112032D01*
X111016Y212500D01*
X112032Y213516D01*
X111016D01*
X110000Y214532D01*
X108984Y213516D01*
X107968D01*
X108984Y212500D01*
X107968Y211484D01*
X108984D01*
X110000Y210468D01*
Y195468D02*
X111016Y196484D01*
X112032D01*
X111016Y197500D01*
X112032Y198516D01*
X111016D01*
X110000Y199532D01*
X108984Y198516D01*
X107968D01*
X108984Y197500D01*
X107968Y196484D01*
X108984D01*
X110000Y195468D01*
Y180468D02*
X111016Y181484D01*
X112032D01*
X111016Y182500D01*
X112032Y183516D01*
X111016D01*
X110000Y184532D01*
X108984Y183516D01*
X107968D01*
X108984Y182500D01*
X107968Y181484D01*
X108984D01*
X110000Y180468D01*
Y135468D02*
X111016Y136484D01*
X112032D01*
X111016Y137500D01*
X112032Y138516D01*
X111016D01*
X110000Y139532D01*
X108984Y138516D01*
X107968D01*
X108984Y137500D01*
X107968Y136484D01*
X108984D01*
X110000Y135468D01*
Y120468D02*
X111016Y121484D01*
X112032D01*
X111016Y122500D01*
X112032Y123516D01*
X111016D01*
X110000Y124532D01*
X108984Y123516D01*
X107968D01*
X108984Y122500D01*
X107968Y121484D01*
X108984D01*
X110000Y120468D01*
Y75468D02*
X111016Y76484D01*
X112032D01*
X111016Y77500D01*
X112032Y78516D01*
X111016D01*
X110000Y79532D01*
X108984Y78516D01*
X107968D01*
X108984Y77500D01*
X107968Y76484D01*
X108984D01*
X110000Y75468D01*
Y60468D02*
X111016Y61484D01*
X112032D01*
X111016Y62500D01*
X112032Y63516D01*
X111016D01*
X110000Y64532D01*
X108984Y63516D01*
X107968D01*
X108984Y62500D01*
X107968Y61484D01*
X108984D01*
X110000Y60468D01*
X95000Y210468D02*
X96016Y211484D01*
X97032D01*
X96016Y212500D01*
X97032Y213516D01*
X96016D01*
X95000Y214532D01*
X93984Y213516D01*
X92968D01*
X93984Y212500D01*
X92968Y211484D01*
X93984D01*
X95000Y210468D01*
Y195468D02*
X96016Y196484D01*
X97032D01*
X96016Y197500D01*
X97032Y198516D01*
X96016D01*
X95000Y199532D01*
X93984Y198516D01*
X92968D01*
X93984Y197500D01*
X92968Y196484D01*
X93984D01*
X95000Y195468D01*
Y180468D02*
X96016Y181484D01*
X97032D01*
X96016Y182500D01*
X97032Y183516D01*
X96016D01*
X95000Y184532D01*
X93984Y183516D01*
X92968D01*
X93984Y182500D01*
X92968Y181484D01*
X93984D01*
X95000Y180468D01*
Y135468D02*
X96016Y136484D01*
X97032D01*
X96016Y137500D01*
X97032Y138516D01*
X96016D01*
X95000Y139532D01*
X93984Y138516D01*
X92968D01*
X93984Y137500D01*
X92968Y136484D01*
X93984D01*
X95000Y135468D01*
Y120468D02*
X96016Y121484D01*
X97032D01*
X96016Y122500D01*
X97032Y123516D01*
X96016D01*
X95000Y124532D01*
X93984Y123516D01*
X92968D01*
X93984Y122500D01*
X92968Y121484D01*
X93984D01*
X95000Y120468D01*
Y75468D02*
X96016Y76484D01*
X97032D01*
X96016Y77500D01*
X97032Y78516D01*
X96016D01*
X95000Y79532D01*
X93984Y78516D01*
X92968D01*
X93984Y77500D01*
X92968Y76484D01*
X93984D01*
X95000Y75468D01*
Y60468D02*
X96016Y61484D01*
X97032D01*
X96016Y62500D01*
X97032Y63516D01*
X96016D01*
X95000Y64532D01*
X93984Y63516D01*
X92968D01*
X93984Y62500D01*
X92968Y61484D01*
X93984D01*
X95000Y60468D01*
Y45468D02*
X96016Y46484D01*
X97032D01*
X96016Y47500D01*
X97032Y48516D01*
X96016D01*
X95000Y49532D01*
X93984Y48516D01*
X92968D01*
X93984Y47500D01*
X92968Y46484D01*
X93984D01*
X95000Y45468D01*
Y30468D02*
X96016Y31484D01*
X97032D01*
X96016Y32500D01*
X97032Y33516D01*
X96016D01*
X95000Y34532D01*
X93984Y33516D01*
X92968D01*
X93984Y32500D01*
X92968Y31484D01*
X93984D01*
X95000Y30468D01*
X80000Y210468D02*
X81016Y211484D01*
X82032D01*
X81016Y212500D01*
X82032Y213516D01*
X81016D01*
X80000Y214532D01*
X78984Y213516D01*
X77968D01*
X78984Y212500D01*
X77968Y211484D01*
X78984D01*
X80000Y210468D01*
Y195468D02*
X81016Y196484D01*
X82032D01*
X81016Y197500D01*
X82032Y198516D01*
X81016D01*
X80000Y199532D01*
X78984Y198516D01*
X77968D01*
X78984Y197500D01*
X77968Y196484D01*
X78984D01*
X80000Y195468D01*
Y180468D02*
X81016Y181484D01*
X82032D01*
X81016Y182500D01*
X82032Y183516D01*
X81016D01*
X80000Y184532D01*
X78984Y183516D01*
X77968D01*
X78984Y182500D01*
X77968Y181484D01*
X78984D01*
X80000Y180468D01*
Y135468D02*
X81016Y136484D01*
X82032D01*
X81016Y137500D01*
X82032Y138516D01*
X81016D01*
X80000Y139532D01*
X78984Y138516D01*
X77968D01*
X78984Y137500D01*
X77968Y136484D01*
X78984D01*
X80000Y135468D01*
Y120468D02*
X81016Y121484D01*
X82032D01*
X81016Y122500D01*
X82032Y123516D01*
X81016D01*
X80000Y124532D01*
X78984Y123516D01*
X77968D01*
X78984Y122500D01*
X77968Y121484D01*
X78984D01*
X80000Y120468D01*
Y105468D02*
X81016Y106484D01*
X82032D01*
X81016Y107500D01*
X82032Y108516D01*
X81016D01*
X80000Y109532D01*
X78984Y108516D01*
X77968D01*
X78984Y107500D01*
X77968Y106484D01*
X78984D01*
X80000Y105468D01*
Y90468D02*
X81016Y91484D01*
X82032D01*
X81016Y92500D01*
X82032Y93516D01*
X81016D01*
X80000Y94532D01*
X78984Y93516D01*
X77968D01*
X78984Y92500D01*
X77968Y91484D01*
X78984D01*
X80000Y90468D01*
Y75468D02*
X81016Y76484D01*
X82032D01*
X81016Y77500D01*
X82032Y78516D01*
X81016D01*
X80000Y79532D01*
X78984Y78516D01*
X77968D01*
X78984Y77500D01*
X77968Y76484D01*
X78984D01*
X80000Y75468D01*
Y60468D02*
X81016Y61484D01*
X82032D01*
X81016Y62500D01*
X82032Y63516D01*
X81016D01*
X80000Y64532D01*
X78984Y63516D01*
X77968D01*
X78984Y62500D01*
X77968Y61484D01*
X78984D01*
X80000Y60468D01*
Y45468D02*
X81016Y46484D01*
X82032D01*
X81016Y47500D01*
X82032Y48516D01*
X81016D01*
X80000Y49532D01*
X78984Y48516D01*
X77968D01*
X78984Y47500D01*
X77968Y46484D01*
X78984D01*
X80000Y45468D01*
Y30468D02*
X81016Y31484D01*
X82032D01*
X81016Y32500D01*
X82032Y33516D01*
X81016D01*
X80000Y34532D01*
X78984Y33516D01*
X77968D01*
X78984Y32500D01*
X77968Y31484D01*
X78984D01*
X80000Y30468D01*
X65000Y210468D02*
X66016Y211484D01*
X67032D01*
X66016Y212500D01*
X67032Y213516D01*
X66016D01*
X65000Y214532D01*
X63984Y213516D01*
X62968D01*
X63984Y212500D01*
X62968Y211484D01*
X63984D01*
X65000Y210468D01*
Y195468D02*
X66016Y196484D01*
X67032D01*
X66016Y197500D01*
X67032Y198516D01*
X66016D01*
X65000Y199532D01*
X63984Y198516D01*
X62968D01*
X63984Y197500D01*
X62968Y196484D01*
X63984D01*
X65000Y195468D01*
Y180468D02*
X66016Y181484D01*
X67032D01*
X66016Y182500D01*
X67032Y183516D01*
X66016D01*
X65000Y184532D01*
X63984Y183516D01*
X62968D01*
X63984Y182500D01*
X62968Y181484D01*
X63984D01*
X65000Y180468D01*
Y165468D02*
X66016Y166484D01*
X67032D01*
X66016Y167500D01*
X67032Y168516D01*
X66016D01*
X65000Y169532D01*
X63984Y168516D01*
X62968D01*
X63984Y167500D01*
X62968Y166484D01*
X63984D01*
X65000Y165468D01*
Y150468D02*
X66016Y151484D01*
X67032D01*
X66016Y152500D01*
X67032Y153516D01*
X66016D01*
X65000Y154532D01*
X63984Y153516D01*
X62968D01*
X63984Y152500D01*
X62968Y151484D01*
X63984D01*
X65000Y150468D01*
Y135468D02*
X66016Y136484D01*
X67032D01*
X66016Y137500D01*
X67032Y138516D01*
X66016D01*
X65000Y139532D01*
X63984Y138516D01*
X62968D01*
X63984Y137500D01*
X62968Y136484D01*
X63984D01*
X65000Y135468D01*
Y120468D02*
X66016Y121484D01*
X67032D01*
X66016Y122500D01*
X67032Y123516D01*
X66016D01*
X65000Y124532D01*
X63984Y123516D01*
X62968D01*
X63984Y122500D01*
X62968Y121484D01*
X63984D01*
X65000Y120468D01*
Y75468D02*
X66016Y76484D01*
X67032D01*
X66016Y77500D01*
X67032Y78516D01*
X66016D01*
X65000Y79532D01*
X63984Y78516D01*
X62968D01*
X63984Y77500D01*
X62968Y76484D01*
X63984D01*
X65000Y75468D01*
Y60468D02*
X66016Y61484D01*
X67032D01*
X66016Y62500D01*
X67032Y63516D01*
X66016D01*
X65000Y64532D01*
X63984Y63516D01*
X62968D01*
X63984Y62500D01*
X62968Y61484D01*
X63984D01*
X65000Y60468D01*
Y45468D02*
X66016Y46484D01*
X67032D01*
X66016Y47500D01*
X67032Y48516D01*
X66016D01*
X65000Y49532D01*
X63984Y48516D01*
X62968D01*
X63984Y47500D01*
X62968Y46484D01*
X63984D01*
X65000Y45468D01*
Y30468D02*
X66016Y31484D01*
X67032D01*
X66016Y32500D01*
X67032Y33516D01*
X66016D01*
X65000Y34532D01*
X63984Y33516D01*
X62968D01*
X63984Y32500D01*
X62968Y31484D01*
X63984D01*
X65000Y30468D01*
X50000Y210468D02*
X51016Y211484D01*
X52032D01*
X51016Y212500D01*
X52032Y213516D01*
X51016D01*
X50000Y214532D01*
X48984Y213516D01*
X47968D01*
X48984Y212500D01*
X47968Y211484D01*
X48984D01*
X50000Y210468D01*
Y195468D02*
X51016Y196484D01*
X52032D01*
X51016Y197500D01*
X52032Y198516D01*
X51016D01*
X50000Y199532D01*
X48984Y198516D01*
X47968D01*
X48984Y197500D01*
X47968Y196484D01*
X48984D01*
X50000Y195468D01*
Y180468D02*
X51016Y181484D01*
X52032D01*
X51016Y182500D01*
X52032Y183516D01*
X51016D01*
X50000Y184532D01*
X48984Y183516D01*
X47968D01*
X48984Y182500D01*
X47968Y181484D01*
X48984D01*
X50000Y180468D01*
Y165468D02*
X51016Y166484D01*
X52032D01*
X51016Y167500D01*
X52032Y168516D01*
X51016D01*
X50000Y169532D01*
X48984Y168516D01*
X47968D01*
X48984Y167500D01*
X47968Y166484D01*
X48984D01*
X50000Y165468D01*
Y150468D02*
X51016Y151484D01*
X52032D01*
X51016Y152500D01*
X52032Y153516D01*
X51016D01*
X50000Y154532D01*
X48984Y153516D01*
X47968D01*
X48984Y152500D01*
X47968Y151484D01*
X48984D01*
X50000Y150468D01*
Y135468D02*
X51016Y136484D01*
X52032D01*
X51016Y137500D01*
X52032Y138516D01*
X51016D01*
X50000Y139532D01*
X48984Y138516D01*
X47968D01*
X48984Y137500D01*
X47968Y136484D01*
X48984D01*
X50000Y135468D01*
Y120468D02*
X51016Y121484D01*
X52032D01*
X51016Y122500D01*
X52032Y123516D01*
X51016D01*
X50000Y124532D01*
X48984Y123516D01*
X47968D01*
X48984Y122500D01*
X47968Y121484D01*
X48984D01*
X50000Y120468D01*
Y105468D02*
X51016Y106484D01*
X52032D01*
X51016Y107500D01*
X52032Y108516D01*
X51016D01*
X50000Y109532D01*
X48984Y108516D01*
X47968D01*
X48984Y107500D01*
X47968Y106484D01*
X48984D01*
X50000Y105468D01*
Y90468D02*
X51016Y91484D01*
X52032D01*
X51016Y92500D01*
X52032Y93516D01*
X51016D01*
X50000Y94532D01*
X48984Y93516D01*
X47968D01*
X48984Y92500D01*
X47968Y91484D01*
X48984D01*
X50000Y90468D01*
Y75468D02*
X51016Y76484D01*
X52032D01*
X51016Y77500D01*
X52032Y78516D01*
X51016D01*
X50000Y79532D01*
X48984Y78516D01*
X47968D01*
X48984Y77500D01*
X47968Y76484D01*
X48984D01*
X50000Y75468D01*
Y60468D02*
X51016Y61484D01*
X52032D01*
X51016Y62500D01*
X52032Y63516D01*
X51016D01*
X50000Y64532D01*
X48984Y63516D01*
X47968D01*
X48984Y62500D01*
X47968Y61484D01*
X48984D01*
X50000Y60468D01*
Y45468D02*
X51016Y46484D01*
X52032D01*
X51016Y47500D01*
X52032Y48516D01*
X51016D01*
X50000Y49532D01*
X48984Y48516D01*
X47968D01*
X48984Y47500D01*
X47968Y46484D01*
X48984D01*
X50000Y45468D01*
Y30468D02*
X51016Y31484D01*
X52032D01*
X51016Y32500D01*
X52032Y33516D01*
X51016D01*
X50000Y34532D01*
X48984Y33516D01*
X47968D01*
X48984Y32500D01*
X47968Y31484D01*
X48984D01*
X50000Y30468D01*
X35000Y210468D02*
X36016Y211484D01*
X37032D01*
X36016Y212500D01*
X37032Y213516D01*
X36016D01*
X35000Y214532D01*
X33984Y213516D01*
X32968D01*
X33984Y212500D01*
X32968Y211484D01*
X33984D01*
X35000Y210468D01*
Y195468D02*
X36016Y196484D01*
X37032D01*
X36016Y197500D01*
X37032Y198516D01*
X36016D01*
X35000Y199532D01*
X33984Y198516D01*
X32968D01*
X33984Y197500D01*
X32968Y196484D01*
X33984D01*
X35000Y195468D01*
Y180468D02*
X36016Y181484D01*
X37032D01*
X36016Y182500D01*
X37032Y183516D01*
X36016D01*
X35000Y184532D01*
X33984Y183516D01*
X32968D01*
X33984Y182500D01*
X32968Y181484D01*
X33984D01*
X35000Y180468D01*
Y165468D02*
X36016Y166484D01*
X37032D01*
X36016Y167500D01*
X37032Y168516D01*
X36016D01*
X35000Y169532D01*
X33984Y168516D01*
X32968D01*
X33984Y167500D01*
X32968Y166484D01*
X33984D01*
X35000Y165468D01*
Y150468D02*
X36016Y151484D01*
X37032D01*
X36016Y152500D01*
X37032Y153516D01*
X36016D01*
X35000Y154532D01*
X33984Y153516D01*
X32968D01*
X33984Y152500D01*
X32968Y151484D01*
X33984D01*
X35000Y150468D01*
Y135468D02*
X36016Y136484D01*
X37032D01*
X36016Y137500D01*
X37032Y138516D01*
X36016D01*
X35000Y139532D01*
X33984Y138516D01*
X32968D01*
X33984Y137500D01*
X32968Y136484D01*
X33984D01*
X35000Y135468D01*
Y120468D02*
X36016Y121484D01*
X37032D01*
X36016Y122500D01*
X37032Y123516D01*
X36016D01*
X35000Y124532D01*
X33984Y123516D01*
X32968D01*
X33984Y122500D01*
X32968Y121484D01*
X33984D01*
X35000Y120468D01*
Y105468D02*
X36016Y106484D01*
X37032D01*
X36016Y107500D01*
X37032Y108516D01*
X36016D01*
X35000Y109532D01*
X33984Y108516D01*
X32968D01*
X33984Y107500D01*
X32968Y106484D01*
X33984D01*
X35000Y105468D01*
Y90468D02*
X36016Y91484D01*
X37032D01*
X36016Y92500D01*
X37032Y93516D01*
X36016D01*
X35000Y94532D01*
X33984Y93516D01*
X32968D01*
X33984Y92500D01*
X32968Y91484D01*
X33984D01*
X35000Y90468D01*
Y75468D02*
X36016Y76484D01*
X37032D01*
X36016Y77500D01*
X37032Y78516D01*
X36016D01*
X35000Y79532D01*
X33984Y78516D01*
X32968D01*
X33984Y77500D01*
X32968Y76484D01*
X33984D01*
X35000Y75468D01*
Y60468D02*
X36016Y61484D01*
X37032D01*
X36016Y62500D01*
X37032Y63516D01*
X36016D01*
X35000Y64532D01*
X33984Y63516D01*
X32968D01*
X33984Y62500D01*
X32968Y61484D01*
X33984D01*
X35000Y60468D01*
Y45468D02*
X36016Y46484D01*
X37032D01*
X36016Y47500D01*
X37032Y48516D01*
X36016D01*
X35000Y49532D01*
X33984Y48516D01*
X32968D01*
X33984Y47500D01*
X32968Y46484D01*
X33984D01*
X35000Y45468D01*
X20000Y210468D02*
X21016Y211484D01*
X22032D01*
X21016Y212500D01*
X22032Y213516D01*
X21016D01*
X20000Y214532D01*
X18984Y213516D01*
X17968D01*
X18984Y212500D01*
X17968Y211484D01*
X18984D01*
X20000Y210468D01*
Y195468D02*
X21016Y196484D01*
X22032D01*
X21016Y197500D01*
X22032Y198516D01*
X21016D01*
X20000Y199532D01*
X18984Y198516D01*
X17968D01*
X18984Y197500D01*
X17968Y196484D01*
X18984D01*
X20000Y195468D01*
Y180468D02*
X21016Y181484D01*
X22032D01*
X21016Y182500D01*
X22032Y183516D01*
X21016D01*
X20000Y184532D01*
X18984Y183516D01*
X17968D01*
X18984Y182500D01*
X17968Y181484D01*
X18984D01*
X20000Y180468D01*
Y165468D02*
X21016Y166484D01*
X22032D01*
X21016Y167500D01*
X22032Y168516D01*
X21016D01*
X20000Y169532D01*
X18984Y168516D01*
X17968D01*
X18984Y167500D01*
X17968Y166484D01*
X18984D01*
X20000Y165468D01*
Y150468D02*
X21016Y151484D01*
X22032D01*
X21016Y152500D01*
X22032Y153516D01*
X21016D01*
X20000Y154532D01*
X18984Y153516D01*
X17968D01*
X18984Y152500D01*
X17968Y151484D01*
X18984D01*
X20000Y150468D01*
Y135468D02*
X21016Y136484D01*
X22032D01*
X21016Y137500D01*
X22032Y138516D01*
X21016D01*
X20000Y139532D01*
X18984Y138516D01*
X17968D01*
X18984Y137500D01*
X17968Y136484D01*
X18984D01*
X20000Y135468D01*
Y120468D02*
X21016Y121484D01*
X22032D01*
X21016Y122500D01*
X22032Y123516D01*
X21016D01*
X20000Y124532D01*
X18984Y123516D01*
X17968D01*
X18984Y122500D01*
X17968Y121484D01*
X18984D01*
X20000Y120468D01*
Y105468D02*
X21016Y106484D01*
X22032D01*
X21016Y107500D01*
X22032Y108516D01*
X21016D01*
X20000Y109532D01*
X18984Y108516D01*
X17968D01*
X18984Y107500D01*
X17968Y106484D01*
X18984D01*
X20000Y105468D01*
Y90468D02*
X21016Y91484D01*
X22032D01*
X21016Y92500D01*
X22032Y93516D01*
X21016D01*
X20000Y94532D01*
X18984Y93516D01*
X17968D01*
X18984Y92500D01*
X17968Y91484D01*
X18984D01*
X20000Y90468D01*
Y75468D02*
X21016Y76484D01*
X22032D01*
X21016Y77500D01*
X22032Y78516D01*
X21016D01*
X20000Y79532D01*
X18984Y78516D01*
X17968D01*
X18984Y77500D01*
X17968Y76484D01*
X18984D01*
X20000Y75468D01*
Y60468D02*
X21016Y61484D01*
X22032D01*
X21016Y62500D01*
X22032Y63516D01*
X21016D01*
X20000Y64532D01*
X18984Y63516D01*
X17968D01*
X18984Y62500D01*
X17968Y61484D01*
X18984D01*
X20000Y60468D01*
Y45468D02*
X21016Y46484D01*
X22032D01*
X21016Y47500D01*
X22032Y48516D01*
X21016D01*
X20000Y49532D01*
X18984Y48516D01*
X17968D01*
X18984Y47500D01*
X17968Y46484D01*
X18984D01*
X20000Y45468D01*
X90000Y165968D02*
X91016Y166984D01*
X92032D01*
X91016Y168000D01*
X92032Y169016D01*
X91016D01*
X90000Y170032D01*
X88984Y169016D01*
X87968D01*
X88984Y168000D01*
X87968Y166984D01*
X88984D01*
X90000Y165968D01*
X260000Y167688D02*
X261016Y168704D01*
X262032D01*
X261016Y169720D01*
X262032Y170736D01*
X261016D01*
X260000Y171752D01*
X258984Y170736D01*
X257968D01*
X258984Y169720D01*
X257968Y168704D01*
X258984D01*
X260000Y167688D01*
X275000D02*
X276016Y168704D01*
X277032D01*
X276016Y169720D01*
X277032Y170736D01*
X276016D01*
X275000Y171752D01*
X273984Y170736D01*
X272968D01*
X273984Y169720D01*
X272968Y168704D01*
X273984D01*
X275000Y167688D01*
X290000D02*
X291016Y168704D01*
X292032D01*
X291016Y169720D01*
X292032Y170736D01*
X291016D01*
X290000Y171752D01*
X288984Y170736D01*
X287968D01*
X288984Y169720D01*
X287968Y168704D01*
X288984D01*
X290000Y167688D01*
X174500Y30468D02*
X175516Y31484D01*
X176532D01*
X175516Y32500D01*
X176532Y33516D01*
X175516D01*
X174500Y34532D01*
X173484Y33516D01*
X172468D01*
X173484Y32500D01*
X172468Y31484D01*
X173484D01*
X174500Y30468D01*
X149250D02*
X150266Y31484D01*
X151282D01*
X150266Y32500D01*
X151282Y33516D01*
X150266D01*
X149250Y34532D01*
X148234Y33516D01*
X147218D01*
X148234Y32500D01*
X147218Y31484D01*
X148234D01*
X149250Y30468D01*
X243500Y51468D02*
X244516Y52484D01*
X245532D01*
X244516Y53500D01*
X245532Y54516D01*
X244516D01*
X243500Y55532D01*
X242484Y54516D01*
X241468D01*
X242484Y53500D01*
X241468Y52484D01*
X242484D01*
X243500Y51468D01*
X225000Y60468D02*
X226016Y61484D01*
X227032D01*
X226016Y62500D01*
X227032Y63516D01*
X226016D01*
X225000Y64532D01*
X223984Y63516D01*
X222968D01*
X223984Y62500D01*
X222968Y61484D01*
X223984D01*
X225000Y60468D01*
X225250Y30468D02*
X226266Y31484D01*
X227282D01*
X226266Y32500D01*
X227282Y33516D01*
X226266D01*
X225250Y34532D01*
X224234Y33516D01*
X223218D01*
X224234Y32500D01*
X223218Y31484D01*
X224234D01*
X225250Y30468D01*
X251000D02*
X252016Y31484D01*
X253032D01*
X252016Y32500D01*
X253032Y33516D01*
X252016D01*
X251000Y34532D01*
X249984Y33516D01*
X248968D01*
X249984Y32500D01*
X248968Y31484D01*
X249984D01*
X251000Y30468D01*
X120000Y90968D02*
X121016Y91984D01*
X122032D01*
X121016Y93000D01*
X122032Y94016D01*
X121016D01*
X120000Y95032D01*
X118984Y94016D01*
X117968D01*
X118984Y93000D01*
X117968Y91984D01*
X118984D01*
X120000Y90968D01*
X135000Y101968D02*
X136016Y102984D01*
X137032D01*
X136016Y104000D01*
X137032Y105016D01*
X136016D01*
X135000Y106032D01*
X133984Y105016D01*
X132968D01*
X133984Y104000D01*
X132968Y102984D01*
X133984D01*
X135000Y101968D01*
X170000Y15468D02*
X171016Y16484D01*
X172032D01*
X171016Y17500D01*
X172032Y18516D01*
X171016D01*
X170000Y19532D01*
X168984Y18516D01*
X167968D01*
X168984Y17500D01*
X167968Y16484D01*
X168984D01*
X170000Y15468D01*
X155000D02*
X156016Y16484D01*
X157032D01*
X156016Y17500D01*
X157032Y18516D01*
X156016D01*
X155000Y19532D01*
X153984Y18516D01*
X152968D01*
X153984Y17500D01*
X152968Y16484D01*
X153984D01*
X155000Y15468D01*
X140000D02*
X141016Y16484D01*
X142032D01*
X141016Y17500D01*
X142032Y18516D01*
X141016D01*
X140000Y19532D01*
X138984Y18516D01*
X137968D01*
X138984Y17500D01*
X137968Y16484D01*
X138984D01*
X140000Y15468D01*
X125000D02*
X126016Y16484D01*
X127032D01*
X126016Y17500D01*
X127032Y18516D01*
X126016D01*
X125000Y19532D01*
X123984Y18516D01*
X122968D01*
X123984Y17500D01*
X122968Y16484D01*
X123984D01*
X125000Y15468D01*
X110000D02*
X111016Y16484D01*
X112032D01*
X111016Y17500D01*
X112032Y18516D01*
X111016D01*
X110000Y19532D01*
X108984Y18516D01*
X107968D01*
X108984Y17500D01*
X107968Y16484D01*
X108984D01*
X110000Y15468D01*
X95000D02*
X96016Y16484D01*
X97032D01*
X96016Y17500D01*
X97032Y18516D01*
X96016D01*
X95000Y19532D01*
X93984Y18516D01*
X92968D01*
X93984Y17500D01*
X92968Y16484D01*
X93984D01*
X95000Y15468D01*
X80000D02*
X81016Y16484D01*
X82032D01*
X81016Y17500D01*
X82032Y18516D01*
X81016D01*
X80000Y19532D01*
X78984Y18516D01*
X77968D01*
X78984Y17500D01*
X77968Y16484D01*
X78984D01*
X80000Y15468D01*
X65000D02*
X66016Y16484D01*
X67032D01*
X66016Y17500D01*
X67032Y18516D01*
X66016D01*
X65000Y19532D01*
X63984Y18516D01*
X62968D01*
X63984Y17500D01*
X62968Y16484D01*
X63984D01*
X65000Y15468D01*
X50000D02*
X51016Y16484D01*
X52032D01*
X51016Y17500D01*
X52032Y18516D01*
X51016D01*
X50000Y19532D01*
X48984Y18516D01*
X47968D01*
X48984Y17500D01*
X47968Y16484D01*
X48984D01*
X50000Y15468D01*
X170000Y5468D02*
X171016Y6484D01*
X172032D01*
X171016Y7500D01*
X172032Y8516D01*
X171016D01*
X170000Y9532D01*
X168984Y8516D01*
X167968D01*
X168984Y7500D01*
X167968Y6484D01*
X168984D01*
X170000Y5468D01*
X155000D02*
X156016Y6484D01*
X157032D01*
X156016Y7500D01*
X157032Y8516D01*
X156016D01*
X155000Y9532D01*
X153984Y8516D01*
X152968D01*
X153984Y7500D01*
X152968Y6484D01*
X153984D01*
X155000Y5468D01*
X140000D02*
X141016Y6484D01*
X142032D01*
X141016Y7500D01*
X142032Y8516D01*
X141016D01*
X140000Y9532D01*
X138984Y8516D01*
X137968D01*
X138984Y7500D01*
X137968Y6484D01*
X138984D01*
X140000Y5468D01*
X125000D02*
X126016Y6484D01*
X127032D01*
X126016Y7500D01*
X127032Y8516D01*
X126016D01*
X125000Y9532D01*
X123984Y8516D01*
X122968D01*
X123984Y7500D01*
X122968Y6484D01*
X123984D01*
X125000Y5468D01*
X110000D02*
X111016Y6484D01*
X112032D01*
X111016Y7500D01*
X112032Y8516D01*
X111016D01*
X110000Y9532D01*
X108984Y8516D01*
X107968D01*
X108984Y7500D01*
X107968Y6484D01*
X108984D01*
X110000Y5468D01*
X95000D02*
X96016Y6484D01*
X97032D01*
X96016Y7500D01*
X97032Y8516D01*
X96016D01*
X95000Y9532D01*
X93984Y8516D01*
X92968D01*
X93984Y7500D01*
X92968Y6484D01*
X93984D01*
X95000Y5468D01*
X80000D02*
X81016Y6484D01*
X82032D01*
X81016Y7500D01*
X82032Y8516D01*
X81016D01*
X80000Y9532D01*
X78984Y8516D01*
X77968D01*
X78984Y7500D01*
X77968Y6484D01*
X78984D01*
X80000Y5468D01*
X65000D02*
X66016Y6484D01*
X67032D01*
X66016Y7500D01*
X67032Y8516D01*
X66016D01*
X65000Y9532D01*
X63984Y8516D01*
X62968D01*
X63984Y7500D01*
X62968Y6484D01*
X63984D01*
X65000Y5468D01*
X50000D02*
X51016Y6484D01*
X52032D01*
X51016Y7500D01*
X52032Y8516D01*
X51016D01*
X50000Y9532D01*
X48984Y8516D01*
X47968D01*
X48984Y7500D01*
X47968Y6484D01*
X48984D01*
X50000Y5468D01*
X392530Y135468D02*
X393546Y136484D01*
X394562D01*
X393546Y137500D01*
X394562Y138516D01*
X393546D01*
X392530Y139532D01*
X391514Y138516D01*
X390498D01*
X391514Y137500D01*
X390498Y136484D01*
X391514D01*
X392530Y135468D01*
Y120468D02*
X393546Y121484D01*
X394562D01*
X393546Y122500D01*
X394562Y123516D01*
X393546D01*
X392530Y124532D01*
X391514Y123516D01*
X390498D01*
X391514Y122500D01*
X390498Y121484D01*
X391514D01*
X392530Y120468D01*
Y105468D02*
X393546Y106484D01*
X394562D01*
X393546Y107500D01*
X394562Y108516D01*
X393546D01*
X392530Y109532D01*
X391514Y108516D01*
X390498D01*
X391514Y107500D01*
X390498Y106484D01*
X391514D01*
X392530Y105468D01*
Y150468D02*
X393546Y151484D01*
X394562D01*
X393546Y152500D01*
X394562Y153516D01*
X393546D01*
X392530Y154532D01*
X391514Y153516D01*
X390498D01*
X391514Y152500D01*
X390498Y151484D01*
X391514D01*
X392530Y150468D01*
X230000Y5468D02*
X231016Y6484D01*
X232032D01*
X231016Y7500D01*
X232032Y8516D01*
X231016D01*
X230000Y9532D01*
X228984Y8516D01*
X227968D01*
X228984Y7500D01*
X227968Y6484D01*
X228984D01*
X230000Y5468D01*
X245000D02*
X246016Y6484D01*
X247032D01*
X246016Y7500D01*
X247032Y8516D01*
X246016D01*
X245000Y9532D01*
X243984Y8516D01*
X242968D01*
X243984Y7500D01*
X242968Y6484D01*
X243984D01*
X245000Y5468D01*
X260000D02*
X261016Y6484D01*
X262032D01*
X261016Y7500D01*
X262032Y8516D01*
X261016D01*
X260000Y9532D01*
X258984Y8516D01*
X257968D01*
X258984Y7500D01*
X257968Y6484D01*
X258984D01*
X260000Y5468D01*
X275000D02*
X276016Y6484D01*
X277032D01*
X276016Y7500D01*
X277032Y8516D01*
X276016D01*
X275000Y9532D01*
X273984Y8516D01*
X272968D01*
X273984Y7500D01*
X272968Y6484D01*
X273984D01*
X275000Y5468D01*
X290000D02*
X291016Y6484D01*
X292032D01*
X291016Y7500D01*
X292032Y8516D01*
X291016D01*
X290000Y9532D01*
X288984Y8516D01*
X287968D01*
X288984Y7500D01*
X287968Y6484D01*
X288984D01*
X290000Y5468D01*
X305000D02*
X306016Y6484D01*
X307032D01*
X306016Y7500D01*
X307032Y8516D01*
X306016D01*
X305000Y9532D01*
X303984Y8516D01*
X302968D01*
X303984Y7500D01*
X302968Y6484D01*
X303984D01*
X305000Y5468D01*
X320000D02*
X321016Y6484D01*
X322032D01*
X321016Y7500D01*
X322032Y8516D01*
X321016D01*
X320000Y9532D01*
X318984Y8516D01*
X317968D01*
X318984Y7500D01*
X317968Y6484D01*
X318984D01*
X320000Y5468D01*
X335000D02*
X336016Y6484D01*
X337032D01*
X336016Y7500D01*
X337032Y8516D01*
X336016D01*
X335000Y9532D01*
X333984Y8516D01*
X332968D01*
X333984Y7500D01*
X332968Y6484D01*
X333984D01*
X335000Y5468D01*
X350000D02*
X351016Y6484D01*
X352032D01*
X351016Y7500D01*
X352032Y8516D01*
X351016D01*
X350000Y9532D01*
X348984Y8516D01*
X347968D01*
X348984Y7500D01*
X347968Y6484D01*
X348984D01*
X350000Y5468D01*
X185000Y17968D02*
X186016Y18984D01*
X187032D01*
X186016Y20000D01*
X187032Y21016D01*
X186016D01*
X185000Y22032D01*
X183984Y21016D01*
X182968D01*
X183984Y20000D01*
X182968Y18984D01*
X183984D01*
X185000Y17968D01*
X200000D02*
X201016Y18984D01*
X202032D01*
X201016Y20000D01*
X202032Y21016D01*
X201016D01*
X200000Y22032D01*
X198984Y21016D01*
X197968D01*
X198984Y20000D01*
X197968Y18984D01*
X198984D01*
X200000Y17968D01*
X215000D02*
X216016Y18984D01*
X217032D01*
X216016Y20000D01*
X217032Y21016D01*
X216016D01*
X215000Y22032D01*
X213984Y21016D01*
X212968D01*
X213984Y20000D01*
X212968Y18984D01*
X213984D01*
X215000Y17968D01*
X230000Y15468D02*
X231016Y16484D01*
X232032D01*
X231016Y17500D01*
X232032Y18516D01*
X231016D01*
X230000Y19532D01*
X228984Y18516D01*
X227968D01*
X228984Y17500D01*
X227968Y16484D01*
X228984D01*
X230000Y15468D01*
X245000D02*
X246016Y16484D01*
X247032D01*
X246016Y17500D01*
X247032Y18516D01*
X246016D01*
X245000Y19532D01*
X243984Y18516D01*
X242968D01*
X243984Y17500D01*
X242968Y16484D01*
X243984D01*
X245000Y15468D01*
X260000D02*
X261016Y16484D01*
X262032D01*
X261016Y17500D01*
X262032Y18516D01*
X261016D01*
X260000Y19532D01*
X258984Y18516D01*
X257968D01*
X258984Y17500D01*
X257968Y16484D01*
X258984D01*
X260000Y15468D01*
X275000D02*
X276016Y16484D01*
X277032D01*
X276016Y17500D01*
X277032Y18516D01*
X276016D01*
X275000Y19532D01*
X273984Y18516D01*
X272968D01*
X273984Y17500D01*
X272968Y16484D01*
X273984D01*
X275000Y15468D01*
X290000D02*
X291016Y16484D01*
X292032D01*
X291016Y17500D01*
X292032Y18516D01*
X291016D01*
X290000Y19532D01*
X288984Y18516D01*
X287968D01*
X288984Y17500D01*
X287968Y16484D01*
X288984D01*
X290000Y15468D01*
X305000D02*
X306016Y16484D01*
X307032D01*
X306016Y17500D01*
X307032Y18516D01*
X306016D01*
X305000Y19532D01*
X303984Y18516D01*
X302968D01*
X303984Y17500D01*
X302968Y16484D01*
X303984D01*
X305000Y15468D01*
X320000D02*
X321016Y16484D01*
X322032D01*
X321016Y17500D01*
X322032Y18516D01*
X321016D01*
X320000Y19532D01*
X318984Y18516D01*
X317968D01*
X318984Y17500D01*
X317968Y16484D01*
X318984D01*
X320000Y15468D01*
X335000D02*
X336016Y16484D01*
X337032D01*
X336016Y17500D01*
X337032Y18516D01*
X336016D01*
X335000Y19532D01*
X333984Y18516D01*
X332968D01*
X333984Y17500D01*
X332968Y16484D01*
X333984D01*
X335000Y15468D01*
X350000D02*
X351016Y16484D01*
X352032D01*
X351016Y17500D01*
X352032Y18516D01*
X351016D01*
X350000Y19532D01*
X348984Y18516D01*
X347968D01*
X348984Y17500D01*
X347968Y16484D01*
X348984D01*
X350000Y15468D01*
X392500Y210468D02*
X393516Y211484D01*
X394532D01*
X393516Y212500D01*
X394532Y213516D01*
X393516D01*
X392500Y214532D01*
X391484Y213516D01*
X390468D01*
X391484Y212500D01*
X390468Y211484D01*
X391484D01*
X392500Y210468D01*
Y195468D02*
X393516Y196484D01*
X394532D01*
X393516Y197500D01*
X394532Y198516D01*
X393516D01*
X392500Y199532D01*
X391484Y198516D01*
X390468D01*
X391484Y197500D01*
X390468Y196484D01*
X391484D01*
X392500Y195468D01*
Y180468D02*
X393516Y181484D01*
X394532D01*
X393516Y182500D01*
X394532Y183516D01*
X393516D01*
X392500Y184532D01*
X391484Y183516D01*
X390468D01*
X391484Y182500D01*
X390468Y181484D01*
X391484D01*
X392500Y180468D01*
Y165468D02*
X393516Y166484D01*
X394532D01*
X393516Y167500D01*
X394532Y168516D01*
X393516D01*
X392500Y169532D01*
X391484Y168516D01*
X390468D01*
X391484Y167500D01*
X390468Y166484D01*
X391484D01*
X392500Y165468D01*
Y90468D02*
X393516Y91484D01*
X394532D01*
X393516Y92500D01*
X394532Y93516D01*
X393516D01*
X392500Y94532D01*
X391484Y93516D01*
X390468D01*
X391484Y92500D01*
X390468Y91484D01*
X391484D01*
X392500Y90468D01*
Y75468D02*
X393516Y76484D01*
X394532D01*
X393516Y77500D01*
X394532Y78516D01*
X393516D01*
X392500Y79532D01*
X391484Y78516D01*
X390468D01*
X391484Y77500D01*
X390468Y76484D01*
X391484D01*
X392500Y75468D01*
Y45468D02*
X393516Y46484D01*
X394532D01*
X393516Y47500D01*
X394532Y48516D01*
X393516D01*
X392500Y49532D01*
X391484Y48516D01*
X390468D01*
X391484Y47500D01*
X390468Y46484D01*
X391484D01*
X392500Y45468D01*
X7500Y5468D02*
X8516Y6484D01*
X9532D01*
X8516Y7500D01*
X9532Y8516D01*
X8516D01*
X7500Y9532D01*
X6484Y8516D01*
X5468D01*
X6484Y7500D01*
X5468Y6484D01*
X6484D01*
X7500Y5468D01*
Y45468D02*
X8516Y46484D01*
X9532D01*
X8516Y47500D01*
X9532Y48516D01*
X8516D01*
X7500Y49532D01*
X6484Y48516D01*
X5468D01*
X6484Y47500D01*
X5468Y46484D01*
X6484D01*
X7500Y45468D01*
Y60468D02*
X8516Y61484D01*
X9532D01*
X8516Y62500D01*
X9532Y63516D01*
X8516D01*
X7500Y64532D01*
X6484Y63516D01*
X5468D01*
X6484Y62500D01*
X5468Y61484D01*
X6484D01*
X7500Y60468D01*
Y75468D02*
X8516Y76484D01*
X9532D01*
X8516Y77500D01*
X9532Y78516D01*
X8516D01*
X7500Y79532D01*
X6484Y78516D01*
X5468D01*
X6484Y77500D01*
X5468Y76484D01*
X6484D01*
X7500Y75468D01*
Y90468D02*
X8516Y91484D01*
X9532D01*
X8516Y92500D01*
X9532Y93516D01*
X8516D01*
X7500Y94532D01*
X6484Y93516D01*
X5468D01*
X6484Y92500D01*
X5468Y91484D01*
X6484D01*
X7500Y90468D01*
Y105468D02*
X8516Y106484D01*
X9532D01*
X8516Y107500D01*
X9532Y108516D01*
X8516D01*
X7500Y109532D01*
X6484Y108516D01*
X5468D01*
X6484Y107500D01*
X5468Y106484D01*
X6484D01*
X7500Y105468D01*
Y120468D02*
X8516Y121484D01*
X9532D01*
X8516Y122500D01*
X9532Y123516D01*
X8516D01*
X7500Y124532D01*
X6484Y123516D01*
X5468D01*
X6484Y122500D01*
X5468Y121484D01*
X6484D01*
X7500Y120468D01*
Y135468D02*
X8516Y136484D01*
X9532D01*
X8516Y137500D01*
X9532Y138516D01*
X8516D01*
X7500Y139532D01*
X6484Y138516D01*
X5468D01*
X6484Y137500D01*
X5468Y136484D01*
X6484D01*
X7500Y135468D01*
Y150468D02*
X8516Y151484D01*
X9532D01*
X8516Y152500D01*
X9532Y153516D01*
X8516D01*
X7500Y154532D01*
X6484Y153516D01*
X5468D01*
X6484Y152500D01*
X5468Y151484D01*
X6484D01*
X7500Y150468D01*
Y165468D02*
X8516Y166484D01*
X9532D01*
X8516Y167500D01*
X9532Y168516D01*
X8516D01*
X7500Y169532D01*
X6484Y168516D01*
X5468D01*
X6484Y167500D01*
X5468Y166484D01*
X6484D01*
X7500Y165468D01*
Y180468D02*
X8516Y181484D01*
X9532D01*
X8516Y182500D01*
X9532Y183516D01*
X8516D01*
X7500Y184532D01*
X6484Y183516D01*
X5468D01*
X6484Y182500D01*
X5468Y181484D01*
X6484D01*
X7500Y180468D01*
Y195468D02*
X8516Y196484D01*
X9532D01*
X8516Y197500D01*
X9532Y198516D01*
X8516D01*
X7500Y199532D01*
X6484Y198516D01*
X5468D01*
X6484Y197500D01*
X5468Y196484D01*
X6484D01*
X7500Y195468D01*
Y210468D02*
X8516Y211484D01*
X9532D01*
X8516Y212500D01*
X9532Y213516D01*
X8516D01*
X7500Y214532D01*
X6484Y213516D01*
X5468D01*
X6484Y212500D01*
X5468Y211484D01*
X6484D01*
X7500Y210468D01*
X275000Y146468D02*
X276016Y147484D01*
X277032D01*
X276016Y148500D01*
X277032Y149516D01*
X276016D01*
X275000Y150532D01*
X273984Y149516D01*
X272968D01*
X273984Y148500D01*
X272968Y147484D01*
X273984D01*
X275000Y146468D01*
X260000D02*
X261016Y147484D01*
X262032D01*
X261016Y148500D01*
X262032Y149516D01*
X261016D01*
X260000Y150532D01*
X258984Y149516D01*
X257968D01*
X258984Y148500D01*
X257968Y147484D01*
X258984D01*
X260000Y146468D01*
X156000Y71968D02*
X157016Y72984D01*
X158032D01*
X157016Y74000D01*
X158032Y75016D01*
X157016D01*
X156000Y76032D01*
X154984Y75016D01*
X153968D01*
X154984Y74000D01*
X153968Y72984D01*
X154984D01*
X156000Y71968D01*
X147750Y79968D02*
X148766Y80984D01*
X149782D01*
X148766Y82000D01*
X149782Y83016D01*
X148766D01*
X147750Y84032D01*
X146734Y83016D01*
X145718D01*
X146734Y82000D01*
X145718Y80984D01*
X146734D01*
X147750Y79968D01*
X244000Y72218D02*
X245016Y73234D01*
X246032D01*
X245016Y74250D01*
X246032Y75266D01*
X245016D01*
X244000Y76282D01*
X242984Y75266D01*
X241968D01*
X242984Y74250D01*
X241968Y73234D01*
X242984D01*
X244000Y72218D01*
X251750Y79968D02*
X252766Y80984D01*
X253782D01*
X252766Y82000D01*
X253782Y83016D01*
X252766D01*
X251750Y84032D01*
X250734Y83016D01*
X249718D01*
X250734Y82000D01*
X249718Y80984D01*
X250734D01*
X251750Y79968D01*
X205500Y115718D02*
X206516Y116734D01*
X207532D01*
X206516Y117750D01*
X207532Y118766D01*
X206516D01*
X205500Y119782D01*
X204484Y118766D01*
X203468D01*
X204484Y117750D01*
X203468Y116734D01*
X204484D01*
X205500Y115718D01*
X194500D02*
X195516Y116734D01*
X196532D01*
X195516Y117750D01*
X196532Y118766D01*
X195516D01*
X194500Y119782D01*
X193484Y118766D01*
X192468D01*
X193484Y117750D01*
X192468Y116734D01*
X193484D01*
X194500Y115718D01*
X186250Y123968D02*
X187266Y124984D01*
X188282D01*
X187266Y126000D01*
X188282Y127016D01*
X187266D01*
X186250Y128032D01*
X185234Y127016D01*
X184218D01*
X185234Y126000D01*
X184218Y124984D01*
X185234D01*
X186250Y123968D01*
X213750D02*
X214766Y124984D01*
X215782D01*
X214766Y126000D01*
X215782Y127016D01*
X214766D01*
X213750Y128032D01*
X212734Y127016D01*
X211718D01*
X212734Y126000D01*
X211718Y124984D01*
X212734D01*
X213750Y123968D01*
Y156968D02*
X214766Y157984D01*
X215782D01*
X214766Y159000D01*
X215782Y160016D01*
X214766D01*
X213750Y161032D01*
X212734Y160016D01*
X211718D01*
X212734Y159000D01*
X211718Y157984D01*
X212734D01*
X213750Y156968D01*
X200000D02*
X201016Y157984D01*
X202032D01*
X201016Y159000D01*
X202032Y160016D01*
X201016D01*
X200000Y161032D01*
X198984Y160016D01*
X197968D01*
X198984Y159000D01*
X197968Y157984D01*
X198984D01*
X200000Y156968D01*
X186250D02*
X187266Y157984D01*
X188282D01*
X187266Y159000D01*
X188282Y160016D01*
X187266D01*
X186250Y161032D01*
X185234Y160016D01*
X184218D01*
X185234Y159000D01*
X184218Y157984D01*
X185234D01*
X186250Y156968D01*
X214500Y178718D02*
X215516Y179734D01*
X216532D01*
X215516Y180750D01*
X216532Y181766D01*
X215516D01*
X214500Y182782D01*
X213484Y181766D01*
X212468D01*
X213484Y180750D01*
X212468Y179734D01*
X213484D01*
X214500Y178718D01*
X207500D02*
X208516Y179734D01*
X209532D01*
X208516Y180750D01*
X209532Y181766D01*
X208516D01*
X207500Y182782D01*
X206484Y181766D01*
X205468D01*
X206484Y180750D01*
X205468Y179734D01*
X206484D01*
X207500Y178718D01*
X192500D02*
X193516Y179734D01*
X194532D01*
X193516Y180750D01*
X194532Y181766D01*
X193516D01*
X192500Y182782D01*
X191484Y181766D01*
X190468D01*
X191484Y180750D01*
X190468Y179734D01*
X191484D01*
X192500Y178718D01*
X185500D02*
X186516Y179734D01*
X187532D01*
X186516Y180750D01*
X187532Y181766D01*
X186516D01*
X185500Y182782D01*
X184484Y181766D01*
X183468D01*
X184484Y180750D01*
X183468Y179734D01*
X184484D01*
X185500Y178718D01*
X287250Y156968D02*
X288266Y157984D01*
X289282D01*
X288266Y159000D01*
X289282Y160016D01*
X288266D01*
X287250Y161032D01*
X286234Y160016D01*
X285218D01*
X286234Y159000D01*
X285218Y157984D01*
X286234D01*
X287250Y156968D01*
X254000Y118468D02*
X255016Y119484D01*
X256032D01*
X255016Y120500D01*
X256032Y121516D01*
X255016D01*
X254000Y122532D01*
X252984Y121516D01*
X251968D01*
X252984Y120500D01*
X251968Y119484D01*
X252984D01*
X254000Y118468D01*
Y129468D02*
X255016Y130484D01*
X256032D01*
X255016Y131500D01*
X256032Y132516D01*
X255016D01*
X254000Y133532D01*
X252984Y132516D01*
X251968D01*
X252984Y131500D01*
X251968Y130484D01*
X252984D01*
X254000Y129468D01*
X214000Y138468D02*
X215016Y139484D01*
X216032D01*
X215016Y140500D01*
X216032Y141516D01*
X215016D01*
X214000Y142532D01*
X212984Y141516D01*
X211968D01*
X212984Y140500D01*
X211968Y139484D01*
X212984D01*
X214000Y138468D01*
Y145968D02*
X215016Y146984D01*
X216032D01*
X215016Y148000D01*
X216032Y149016D01*
X215016D01*
X214000Y150032D01*
X212984Y149016D01*
X211968D01*
X212984Y148000D01*
X211968Y146984D01*
X212984D01*
X214000Y145968D01*
X287250Y87968D02*
X288266Y88984D01*
X289282D01*
X288266Y90000D01*
X289282Y91016D01*
X288266D01*
X287250Y92032D01*
X286234Y91016D01*
X285218D01*
X286234Y90000D01*
X285218Y88984D01*
X286234D01*
X287250Y87968D01*
X355000Y90468D02*
X356016Y91484D01*
X357032D01*
X356016Y92500D01*
X357032Y93516D01*
X356016D01*
X355000Y94532D01*
X353984Y93516D01*
X352968D01*
X353984Y92500D01*
X352968Y91484D01*
X353984D01*
X355000Y90468D01*
Y173468D02*
X356016Y174484D01*
X357032D01*
X356016Y175500D01*
X357032Y176516D01*
X356016D01*
X355000Y177532D01*
X353984Y176516D01*
X352968D01*
X353984Y175500D01*
X352968Y174484D01*
X353984D01*
X355000Y173468D01*
X365000Y109218D02*
X366016Y110234D01*
X367032D01*
X366016Y111250D01*
X367032Y112266D01*
X366016D01*
X365000Y113282D01*
X363984Y112266D01*
X362968D01*
X363984Y111250D01*
X362968Y110234D01*
X363984D01*
X365000Y109218D01*
D50*
X377032Y25000D02*
G03*
X377032Y25000I-2032J0D01*
G01*
X27032D02*
G03*
X27032Y25000I-2032J0D01*
G01*
M02*
