M48
;Layer_Color=9474304
;FILE_FORMAT=4:4
METRIC,LZ
;TYPE=PLATED
T1F00S00C0.3000
T2F00S00C1.1000
T3F00S00C1.8000
;TYPE=NON_PLATED
T4F00S00C0.9950
%
T01
X00008Y00043
Y00058
Y00073
Y00088
Y00103
Y00118
Y00133
Y00148
Y00163
Y00178
Y00193
Y00208
X00023
X00038
X00053
X00068
X00083
X00098
X00113
X00128
X00143
X00158
X00173
X00188
X001865Y0019775
X001795
X00194Y00199
X002025Y0019825
X002095Y0019775
X00211Y00208
X00203
X002085Y0018575
X0020825Y0017925
X002012Y001799
X0020225Y001735
X001957Y00175
X001846Y001731
X001849Y001635
X00193Y001637
X002025Y001635
X00200914Y00147828
X0019304Y00153416
X00186773Y0014762
X00178308Y00147066
X00178Y0018
X00161544Y00176784
X00160782Y0018415
X00143Y00163
X00128
Y00148
X00113
Y00163
Y00133
Y00118
X00128
X00143
Y00103
X00128
Y00088
Y00073
X00143
Y00058
X00128
X00113
Y00073
Y00088
Y00103
X00083Y00088
Y00073
Y00058
Y00043
Y00028
X00068
Y00043
Y00058
Y00073
Y00088
X00053
Y00103
Y00118
Y00133
X00068
X00083
X00084Y00121
X00083Y00148
Y00163
X00068
Y00148
X00053
Y00163
Y00178
Y00193
X00068
X00083Y00187
X00098Y00193
X00038
X00023
Y00178
Y00163
X00038
Y00148
Y00133
X00023
Y00148
Y00118
Y00103
Y00088
X00038
Y00073
X00053
Y00058
Y00043
Y00028
X000525Y000075
X000675
X000825
X000975
X001125
X001275
X001425
X001575
X001725
X001875
X002025
X002175
X002325
X002475
X002625
X002775
X002925
X003075
X003225
X003375
X003525
X00353Y00028
Y00043
Y00058
X00368
X00383
X003925Y000575
Y000725
X00383Y00073
Y00103
X003925Y001175
Y001325
Y001475
Y001625
X00383Y00163
Y00178
X003925Y001775
Y001925
X00383Y00193
Y00208
X003925Y002075
X00368Y00208
Y00193
Y00178
Y00163
X00353
Y00178
Y00193
Y00208
X00338
Y00193
Y00178
Y00163
Y00148
X00353
X00352044Y00131826
X00351Y0012
X00338Y00133
X00323
Y00148
Y00163
Y00178
Y00193
Y00208
X00308
Y00193
Y00178
Y00163
Y00148
Y00133
X00293
Y00148
Y00163
Y00178
Y00193
Y00208
X00271
Y00201
Y00194
Y00187
Y0018
Y00173
Y00166
X00265Y00162
X00258
X00251
X00244
X00237
X0023
X00223
X002275Y00145
X00248Y00148
X00263
X00278
Y00163
Y00178
Y00133
X00263
X00248
Y00103
X00233
Y00073
X00248
Y00058
Y00028
X00263
X00278
X00308
X00323
X00338
Y00043
Y00058
Y00073
Y00103
X00323Y00088
X00308
Y00103
X00293
Y00088
Y00073
X00308
X00323Y00058
Y00043
X00308
X00278Y00088
Y00103
X002625Y001075
X0018425Y0010725
X00173Y00088
Y00073
Y00058
X00203
Y00028
X00218
X00233
X00188
X00173
X00158
X00143
X00128
X00113
X00038Y00043
Y00058
X00023
Y00073
X0019948Y00126328
X00368Y00088
T02
X001111Y000417
X001365
X001619
X001873
X002127
X002381
X002635
X002889
T03
X00025Y00025
X00375
T04
X0035849Y0009455
X0037881
X0036865Y0014535
M30
