M48
;Layer_Color=9474304
;FILE_FORMAT=4:4
METRIC,LZ
;TYPE=PLATED
T1F00S00C0.3000
T2F00S00C1.1000
T3F00S00C1.8000
;TYPE=NON_PLATED
T4F00S00C0.9950
%
T01
X00019812Y00180086
X00008Y00204
Y00215
X00039878Y00201676
X00050038
X00060198Y0020193
X00089Y00212
X00098Y00207
X00113
X00128
X0015494Y00201676
X00155Y00180904
X00177433Y00176896
X00189Y00174
X00194Y00180904
X00212Y00204
Y00216
X00123635Y00174355
X00103Y00153
X00087Y00150096
X00083058Y0011176
X00097282Y00085598
X00110236Y0008509
X00127Y00123
X00037338Y0016637
X00023622Y0016383
X00029812Y00180086
X00038Y00227
X00053
X00068
Y00242
Y00257
X00053
Y00242
X00038
Y00257
X00036Y00279
X00052
X00067
Y00297
X00078Y00306
X00068Y00317
X00078Y00329
X00069Y00338
X00058
X00047
X00035
X00023Y00347
Y00362
Y00377
X00038
X00053
X00068
X00083
X00098
X00113
X00128
X00143
X00158
X00173
X00188
X00203
X00212
Y00392
X00203
X00188
X00173
X00158
X00143
X00128
X00113
X00098
X00083
X00068
X00053
X00038
X00023
X00083Y00362
X00143
X00158
X00173
X00188
X00203
X00212Y00362
Y00347
X00203Y00347
Y00332
X00212Y00332
Y00317
X00203Y00317
Y00302
X00212Y00302
Y00287
X00203Y00287
Y00272
X00212Y00272
Y00257
X00203Y00257
X00212Y00243
Y00228
X00173Y00242
X00158Y00257
X00143Y00272
X00128Y00287
X00105188Y0028675
X00113Y00272
Y00302
X00158
X00173
X00188
Y00317
Y00332
Y00347
X00173
Y00332
Y00317
X00158
Y00332
Y00347
X00143
Y00332
Y00317
X00128Y00332
X00173Y00287
X00188
Y00272
X00128Y00227
X00113
Y00242
X00098
Y00257
X00088Y00227
X00060198Y00217932
X00037Y00297
X00038Y00317
X0002097Y0031675
Y00306832
X00008Y00257
Y00242
Y00227
Y00377
Y00392
T02
X000211Y000422
X000465
X000719
X000973
X001227
X001481
X001735
X001989
T03
X00035Y001
X00185
T04
X000846Y001
X001354Y0008984
Y0011016
M30
