M48
;Layer_Color=9474304
;FILE_FORMAT=4:4
METRIC,LZ
;TYPE=PLATED
T1F00S00C0.3000
T2F00S00C1.1000
T3F00S00C1.8000
;TYPE=NON_PLATED
T4F00S00C0.9950
%
T01
X000975Y0008554
X0011
X0012875Y001505
X00158811Y00149939
X001525Y0014125
X00155Y001875
X00163
X00171
X00195
X00203
X00211
X0020125Y0017
X002125Y00217
Y00232
X002Y00232
Y00247
X002125Y00247
Y00262
X002Y00262
Y00277
X002125Y00277
Y00292
X002Y00292
Y00307
X002125Y00307
Y00322
X002Y00322
Y00337
X002125
Y00352
X002
X00185
Y00337
Y00322
Y00307
Y00292
X0017Y00322
Y00337
Y00352
X0016075
X0013325
X0011975
X0011
X0010025
X0008675
X0008175Y0034725
Y0033625
X00095Y00337
X0011
X00125
Y00322
Y00307
Y00292
X0011
Y00307
Y00322
X00095
Y00307
Y00292
X000825Y002805
X0007425Y00273
X00066Y002575
X0006Y002495
X0005Y00247
Y00232
X00065
X00068Y0024175
X00077Y0024025
X0008Y00232
X00095
X000835Y002145
X00077
X000705
X00065Y0020325
X0005
Y00217
X00035
Y0020325
X0002975Y00195
X0002Y0020325
X000075
Y00217
X0002
X0002Y00232
X000075Y00232
Y00247
X0002Y00247
X00035
Y00232
X0002Y00262
X000075Y00262
Y00277
X0002Y00277
Y00292
X000075Y00292
Y00307
X0002Y00307
Y00322
X000075Y00322
Y00337
X0002
Y00352
X000075
X00035
X00035Y003375
X0005
X00059Y003415
Y00352
X0005
X0005925Y0033075
X00056Y0030675
X00045Y0028225
X0005875Y0026475
X00125Y00247
X0014
X00143Y0025775
X0015425
X00155Y00247
Y00232
X0014
X00125
X001365Y002145
X00143
X001495
X00143Y00185
X0013
X00122
X00114
X00106
X00098
X0009
X0014575Y0027325
X00161Y0026475
T02
X000211Y000422
X000465
X000719
X000973
X001227
X001481
X001735
X001989
T03
X00035Y001
X00185
T04
X000846Y001001
X001354Y0008994
Y0011026
M30
