G04*
G04 #@! TF.GenerationSoftware,Altium Limited,Altium Designer,21.6.4 (81)*
G04*
G04 Layer_Color=32896*
%FSLAX44Y44*%
%MOMM*%
G71*
G04*
G04 #@! TF.SameCoordinates,7B4930C9-1E03-45B5-BB94-95F13246AEDE*
G04*
G04*
G04 #@! TF.FilePolarity,Positive*
G04*
G01*
G75*
G36*
X100737Y336983D02*
X100941Y336962D01*
X101138Y336927D01*
X101321Y336884D01*
X101490Y336835D01*
X101645Y336779D01*
X101793Y336723D01*
X101926Y336659D01*
X102046Y336596D01*
X102152Y336540D01*
X102243Y336483D01*
X102320Y336434D01*
X102384Y336392D01*
X102426Y336357D01*
X102454Y336336D01*
X102461Y336329D01*
X102602Y336202D01*
X102729Y336061D01*
X102841Y335914D01*
X102940Y335759D01*
X103031Y335604D01*
X103116Y335449D01*
X103186Y335294D01*
X103249Y335147D01*
X103298Y335006D01*
X103341Y334879D01*
X103376Y334767D01*
X103404Y334661D01*
X103425Y334577D01*
X103439Y334520D01*
X103453Y334478D01*
Y334471D01*
Y334464D01*
X102257Y334253D01*
X102229Y334415D01*
X102194Y334563D01*
X102159Y334696D01*
X102109Y334823D01*
X102067Y334943D01*
X102011Y335048D01*
X101962Y335147D01*
X101912Y335238D01*
X101863Y335308D01*
X101821Y335379D01*
X101779Y335435D01*
X101743Y335477D01*
X101708Y335513D01*
X101687Y335541D01*
X101673Y335555D01*
X101666Y335562D01*
X101575Y335639D01*
X101483Y335709D01*
X101385Y335766D01*
X101286Y335815D01*
X101188Y335864D01*
X101096Y335900D01*
X100913Y335949D01*
X100829Y335970D01*
X100751Y335984D01*
X100681Y335991D01*
X100618Y335998D01*
X100576Y336005D01*
X100505D01*
X100379Y335998D01*
X100252Y335984D01*
X100139Y335963D01*
X100027Y335935D01*
X99928Y335906D01*
X99830Y335864D01*
X99745Y335829D01*
X99668Y335787D01*
X99598Y335745D01*
X99534Y335709D01*
X99485Y335667D01*
X99436Y335639D01*
X99401Y335611D01*
X99380Y335590D01*
X99365Y335576D01*
X99358Y335569D01*
X99281Y335484D01*
X99211Y335400D01*
X99147Y335308D01*
X99098Y335217D01*
X99056Y335126D01*
X99021Y335034D01*
X98964Y334865D01*
X98943Y334788D01*
X98929Y334717D01*
X98922Y334647D01*
X98915Y334598D01*
X98908Y334549D01*
Y334514D01*
Y334492D01*
Y334485D01*
X98915Y334338D01*
X98936Y334197D01*
X98964Y334063D01*
X99007Y333944D01*
X99049Y333831D01*
X99098Y333732D01*
X99154Y333641D01*
X99211Y333557D01*
X99274Y333486D01*
X99323Y333423D01*
X99380Y333374D01*
X99422Y333331D01*
X99464Y333296D01*
X99492Y333275D01*
X99513Y333261D01*
X99520Y333254D01*
X99633Y333184D01*
X99752Y333127D01*
X99872Y333071D01*
X99992Y333029D01*
X100224Y332958D01*
X100329Y332930D01*
X100435Y332909D01*
X100533Y332895D01*
X100618Y332881D01*
X100695Y332874D01*
X100765Y332867D01*
X100815Y332860D01*
X100948D01*
X101012Y332867D01*
X101040D01*
X101061Y332874D01*
X101082D01*
X101216Y331826D01*
X101033Y331868D01*
X100871Y331896D01*
X100730Y331924D01*
X100604Y331938D01*
X100505Y331945D01*
X100435Y331952D01*
X100372D01*
X100217Y331945D01*
X100076Y331931D01*
X99935Y331903D01*
X99809Y331868D01*
X99689Y331826D01*
X99577Y331784D01*
X99471Y331734D01*
X99380Y331685D01*
X99295Y331636D01*
X99218Y331587D01*
X99154Y331544D01*
X99105Y331502D01*
X99063Y331467D01*
X99028Y331439D01*
X99014Y331425D01*
X99007Y331418D01*
X98908Y331312D01*
X98831Y331207D01*
X98753Y331094D01*
X98690Y330981D01*
X98641Y330869D01*
X98598Y330756D01*
X98563Y330644D01*
X98535Y330538D01*
X98507Y330440D01*
X98493Y330348D01*
X98479Y330264D01*
X98472Y330201D01*
X98465Y330137D01*
Y330095D01*
Y330067D01*
Y330060D01*
X98472Y329905D01*
X98493Y329750D01*
X98521Y329609D01*
X98556Y329476D01*
X98598Y329342D01*
X98648Y329230D01*
X98704Y329117D01*
X98753Y329019D01*
X98810Y328927D01*
X98866Y328850D01*
X98915Y328779D01*
X98957Y328723D01*
X98993Y328674D01*
X99021Y328646D01*
X99042Y328624D01*
X99049Y328618D01*
X99161Y328512D01*
X99274Y328428D01*
X99394Y328350D01*
X99513Y328280D01*
X99633Y328223D01*
X99752Y328174D01*
X99872Y328139D01*
X99978Y328104D01*
X100083Y328083D01*
X100175Y328062D01*
X100259Y328055D01*
X100336Y328041D01*
X100393D01*
X100442Y328033D01*
X100477D01*
X100611Y328041D01*
X100730Y328055D01*
X100850Y328076D01*
X100962Y328104D01*
X101068Y328139D01*
X101166Y328174D01*
X101258Y328216D01*
X101342Y328259D01*
X101420Y328294D01*
X101483Y328336D01*
X101546Y328371D01*
X101589Y328406D01*
X101631Y328434D01*
X101659Y328456D01*
X101673Y328470D01*
X101680Y328477D01*
X101772Y328568D01*
X101849Y328667D01*
X101926Y328779D01*
X101997Y328899D01*
X102116Y329138D01*
X102215Y329384D01*
X102250Y329497D01*
X102285Y329603D01*
X102313Y329694D01*
X102334Y329778D01*
X102356Y329849D01*
X102370Y329905D01*
X102377Y329933D01*
Y329947D01*
X103573Y329785D01*
X103545Y329560D01*
X103502Y329349D01*
X103439Y329152D01*
X103376Y328962D01*
X103298Y328786D01*
X103221Y328624D01*
X103137Y328470D01*
X103052Y328336D01*
X102968Y328216D01*
X102890Y328111D01*
X102813Y328019D01*
X102750Y327942D01*
X102693Y327879D01*
X102651Y327836D01*
X102623Y327808D01*
X102616Y327801D01*
X102454Y327668D01*
X102278Y327548D01*
X102102Y327449D01*
X101926Y327365D01*
X101743Y327288D01*
X101568Y327224D01*
X101392Y327175D01*
X101230Y327140D01*
X101075Y327105D01*
X100934Y327084D01*
X100808Y327062D01*
X100695Y327056D01*
X100611Y327048D01*
X100540Y327041D01*
X100484D01*
X100224Y327048D01*
X99978Y327077D01*
X99738Y327126D01*
X99520Y327182D01*
X99309Y327245D01*
X99119Y327323D01*
X98936Y327400D01*
X98774Y327485D01*
X98634Y327569D01*
X98500Y327646D01*
X98394Y327724D01*
X98303Y327787D01*
X98226Y327844D01*
X98176Y327893D01*
X98148Y327921D01*
X98134Y327928D01*
X97972Y328097D01*
X97824Y328273D01*
X97698Y328456D01*
X97592Y328639D01*
X97501Y328821D01*
X97423Y329004D01*
X97367Y329173D01*
X97318Y329342D01*
X97276Y329497D01*
X97248Y329638D01*
X97226Y329764D01*
X97212Y329877D01*
X97205Y329961D01*
X97198Y330032D01*
Y330074D01*
Y330088D01*
X97205Y330264D01*
X97219Y330426D01*
X97241Y330580D01*
X97276Y330728D01*
X97311Y330869D01*
X97346Y330996D01*
X97395Y331115D01*
X97438Y331228D01*
X97480Y331326D01*
X97522Y331411D01*
X97564Y331481D01*
X97599Y331544D01*
X97635Y331594D01*
X97656Y331629D01*
X97670Y331650D01*
X97677Y331657D01*
X97768Y331769D01*
X97874Y331875D01*
X97979Y331967D01*
X98085Y332051D01*
X98197Y332128D01*
X98310Y332192D01*
X98423Y332255D01*
X98528Y332304D01*
X98627Y332354D01*
X98718Y332389D01*
X98802Y332424D01*
X98880Y332445D01*
X98936Y332466D01*
X98986Y332480D01*
X99014Y332487D01*
X99021D01*
X98901Y332543D01*
X98788Y332607D01*
X98683Y332677D01*
X98584Y332740D01*
X98493Y332811D01*
X98416Y332881D01*
X98338Y332944D01*
X98275Y333008D01*
X98211Y333071D01*
X98162Y333127D01*
X98120Y333177D01*
X98085Y333219D01*
X98057Y333254D01*
X98036Y333282D01*
X98029Y333296D01*
X98021Y333303D01*
X97958Y333402D01*
X97909Y333500D01*
X97860Y333606D01*
X97824Y333704D01*
X97761Y333894D01*
X97719Y334077D01*
X97705Y334155D01*
X97698Y334232D01*
X97684Y334295D01*
Y334352D01*
X97677Y334394D01*
Y334429D01*
Y334450D01*
Y334457D01*
X97684Y334584D01*
X97691Y334703D01*
X97733Y334936D01*
X97789Y335147D01*
X97824Y335238D01*
X97853Y335330D01*
X97888Y335414D01*
X97923Y335484D01*
X97951Y335555D01*
X97979Y335604D01*
X98000Y335653D01*
X98021Y335681D01*
X98029Y335703D01*
X98036Y335709D01*
X98106Y335815D01*
X98183Y335921D01*
X98345Y336104D01*
X98514Y336265D01*
X98683Y336399D01*
X98760Y336455D01*
X98831Y336505D01*
X98894Y336547D01*
X98950Y336582D01*
X99000Y336610D01*
X99035Y336631D01*
X99056Y336638D01*
X99063Y336645D01*
X99190Y336709D01*
X99316Y336758D01*
X99443Y336807D01*
X99577Y336842D01*
X99823Y336906D01*
X99935Y336927D01*
X100048Y336948D01*
X100146Y336962D01*
X100238Y336969D01*
X100322Y336983D01*
X100393D01*
X100449Y336990D01*
X100526D01*
X100737Y336983D01*
D02*
G37*
G36*
X95805Y331826D02*
X94679Y331678D01*
X94574Y331826D01*
X94454Y331959D01*
X94335Y332072D01*
X94222Y332170D01*
X94117Y332248D01*
X94032Y332304D01*
X93997Y332325D01*
X93976Y332339D01*
X93962Y332354D01*
X93955D01*
X93779Y332445D01*
X93596Y332508D01*
X93420Y332557D01*
X93258Y332586D01*
X93181Y332600D01*
X93118Y332607D01*
X93054Y332614D01*
X93005D01*
X92963Y332621D01*
X92907D01*
X92738Y332614D01*
X92576Y332593D01*
X92421Y332565D01*
X92273Y332529D01*
X92140Y332487D01*
X92020Y332431D01*
X91907Y332382D01*
X91802Y332325D01*
X91710Y332269D01*
X91633Y332220D01*
X91563Y332170D01*
X91506Y332121D01*
X91457Y332086D01*
X91429Y332058D01*
X91408Y332037D01*
X91401Y332030D01*
X91302Y331917D01*
X91211Y331791D01*
X91133Y331664D01*
X91070Y331530D01*
X91014Y331390D01*
X90965Y331256D01*
X90929Y331129D01*
X90894Y331003D01*
X90873Y330876D01*
X90852Y330770D01*
X90838Y330665D01*
X90831Y330580D01*
Y330510D01*
X90824Y330454D01*
Y330426D01*
Y330412D01*
X90831Y330215D01*
X90852Y330032D01*
X90880Y329856D01*
X90915Y329687D01*
X90965Y329532D01*
X91014Y329391D01*
X91070Y329265D01*
X91119Y329145D01*
X91176Y329040D01*
X91232Y328948D01*
X91281Y328871D01*
X91330Y328807D01*
X91366Y328758D01*
X91394Y328716D01*
X91415Y328695D01*
X91422Y328688D01*
X91535Y328575D01*
X91654Y328477D01*
X91781Y328385D01*
X91900Y328315D01*
X92027Y328252D01*
X92147Y328195D01*
X92266Y328153D01*
X92379Y328125D01*
X92484Y328097D01*
X92583Y328076D01*
X92674Y328062D01*
X92745Y328048D01*
X92808D01*
X92850Y328041D01*
X92892D01*
X93026Y328048D01*
X93153Y328062D01*
X93272Y328083D01*
X93385Y328111D01*
X93497Y328146D01*
X93596Y328188D01*
X93694Y328223D01*
X93779Y328273D01*
X93856Y328315D01*
X93920Y328350D01*
X93983Y328392D01*
X94032Y328428D01*
X94074Y328456D01*
X94103Y328477D01*
X94117Y328491D01*
X94124Y328498D01*
X94215Y328589D01*
X94300Y328688D01*
X94370Y328793D01*
X94440Y328906D01*
X94497Y329019D01*
X94546Y329138D01*
X94630Y329356D01*
X94665Y329462D01*
X94694Y329560D01*
X94715Y329652D01*
X94736Y329729D01*
X94750Y329792D01*
X94757Y329835D01*
X94764Y329870D01*
Y329877D01*
X96016Y329771D01*
X95988Y329546D01*
X95939Y329335D01*
X95883Y329131D01*
X95819Y328941D01*
X95742Y328765D01*
X95658Y328603D01*
X95580Y328456D01*
X95496Y328322D01*
X95411Y328202D01*
X95334Y328097D01*
X95257Y328005D01*
X95193Y327928D01*
X95137Y327872D01*
X95095Y327829D01*
X95066Y327801D01*
X95059Y327794D01*
X94898Y327668D01*
X94729Y327548D01*
X94546Y327449D01*
X94370Y327365D01*
X94187Y327295D01*
X94004Y327238D01*
X93828Y327189D01*
X93659Y327147D01*
X93505Y327119D01*
X93357Y327098D01*
X93223Y327077D01*
X93111Y327070D01*
X93019Y327062D01*
X92949Y327056D01*
X92892D01*
X92597Y327070D01*
X92316Y327105D01*
X92055Y327168D01*
X91809Y327238D01*
X91577Y327330D01*
X91366Y327428D01*
X91176Y327534D01*
X91000Y327646D01*
X90845Y327759D01*
X90711Y327865D01*
X90599Y327963D01*
X90500Y328055D01*
X90430Y328132D01*
X90374Y328188D01*
X90345Y328223D01*
X90331Y328237D01*
X90198Y328420D01*
X90078Y328610D01*
X89973Y328800D01*
X89881Y328997D01*
X89811Y329187D01*
X89747Y329377D01*
X89698Y329560D01*
X89656Y329736D01*
X89621Y329898D01*
X89600Y330046D01*
X89579Y330179D01*
X89572Y330299D01*
X89565Y330391D01*
X89558Y330461D01*
Y330482D01*
Y330503D01*
Y330510D01*
Y330517D01*
X89565Y330770D01*
X89593Y331010D01*
X89642Y331242D01*
X89691Y331460D01*
X89761Y331657D01*
X89839Y331847D01*
X89916Y332016D01*
X89994Y332170D01*
X90078Y332311D01*
X90155Y332438D01*
X90233Y332543D01*
X90296Y332628D01*
X90352Y332698D01*
X90402Y332747D01*
X90430Y332783D01*
X90437Y332790D01*
X90606Y332944D01*
X90782Y333085D01*
X90965Y333198D01*
X91148Y333303D01*
X91330Y333388D01*
X91506Y333458D01*
X91682Y333521D01*
X91844Y333564D01*
X91999Y333599D01*
X92147Y333627D01*
X92273Y333648D01*
X92386Y333662D01*
X92470Y333669D01*
X92541Y333676D01*
X92597D01*
X92773Y333669D01*
X92956Y333648D01*
X93125Y333620D01*
X93294Y333578D01*
X93448Y333535D01*
X93603Y333486D01*
X93744Y333430D01*
X93877Y333374D01*
X93997Y333310D01*
X94110Y333261D01*
X94201Y333205D01*
X94278Y333163D01*
X94349Y333120D01*
X94391Y333092D01*
X94426Y333071D01*
X94433Y333064D01*
X93913Y335688D01*
X90015D01*
Y336828D01*
X94862D01*
X95805Y331826D01*
D02*
G37*
G36*
X108252Y330137D02*
X104565D01*
Y331340D01*
X108252D01*
Y330137D01*
D02*
G37*
G36*
X128817Y327217D02*
X127572D01*
Y335505D01*
X124765Y327217D01*
X123597D01*
X120761Y335365D01*
Y327217D01*
X119516D01*
Y336955D01*
X121254D01*
X123590Y330179D01*
X123653Y329989D01*
X123716Y329813D01*
X123765Y329652D01*
X123822Y329497D01*
X123864Y329356D01*
X123906Y329230D01*
X123948Y329117D01*
X123984Y329011D01*
X124012Y328920D01*
X124040Y328843D01*
X124061Y328772D01*
X124075Y328716D01*
X124089Y328674D01*
X124103Y328646D01*
X124110Y328624D01*
Y328618D01*
X124138Y328716D01*
X124174Y328815D01*
X124209Y328927D01*
X124244Y329047D01*
X124321Y329286D01*
X124399Y329518D01*
X124434Y329631D01*
X124469Y329729D01*
X124497Y329821D01*
X124525Y329905D01*
X124546Y329968D01*
X124561Y330018D01*
X124568Y330046D01*
X124575Y330060D01*
X126882Y336955D01*
X128817D01*
Y327217D01*
D02*
G37*
G36*
X137893D02*
X134017D01*
X133848Y327224D01*
X133693Y327231D01*
X133545Y327245D01*
X133412Y327253D01*
X133278Y327267D01*
X133158Y327281D01*
X133053Y327302D01*
X132954Y327316D01*
X132870Y327330D01*
X132793Y327344D01*
X132729Y327351D01*
X132680Y327365D01*
X132645Y327372D01*
X132624Y327379D01*
X132617D01*
X132384Y327449D01*
X132180Y327520D01*
X131997Y327604D01*
X131920Y327640D01*
X131843Y327682D01*
X131779Y327717D01*
X131723Y327752D01*
X131674Y327780D01*
X131632Y327808D01*
X131596Y327829D01*
X131575Y327844D01*
X131561Y327858D01*
X131554D01*
X131399Y327984D01*
X131266Y328132D01*
X131146Y328280D01*
X131041Y328428D01*
X130956Y328554D01*
X130921Y328610D01*
X130893Y328660D01*
X130872Y328702D01*
X130858Y328730D01*
X130844Y328751D01*
Y328758D01*
X130745Y328983D01*
X130675Y329208D01*
X130618Y329427D01*
X130583Y329624D01*
X130569Y329708D01*
X130562Y329792D01*
X130555Y329863D01*
Y329919D01*
X130548Y329968D01*
Y330010D01*
Y330032D01*
Y330039D01*
X130555Y330193D01*
X130569Y330341D01*
X130590Y330489D01*
X130625Y330623D01*
X130661Y330756D01*
X130696Y330876D01*
X130745Y330989D01*
X130787Y331094D01*
X130829Y331185D01*
X130872Y331270D01*
X130914Y331340D01*
X130949Y331397D01*
X130984Y331446D01*
X131005Y331481D01*
X131019Y331502D01*
X131026Y331509D01*
X131118Y331622D01*
X131216Y331727D01*
X131329Y331826D01*
X131435Y331910D01*
X131547Y331995D01*
X131660Y332065D01*
X131772Y332128D01*
X131885Y332185D01*
X131983Y332241D01*
X132082Y332283D01*
X132166Y332318D01*
X132237Y332346D01*
X132300Y332368D01*
X132342Y332382D01*
X132377Y332396D01*
X132384D01*
X132258Y332459D01*
X132145Y332529D01*
X132040Y332600D01*
X131934Y332677D01*
X131843Y332755D01*
X131758Y332825D01*
X131688Y332895D01*
X131617Y332966D01*
X131561Y333029D01*
X131505Y333092D01*
X131463Y333142D01*
X131427Y333191D01*
X131399Y333233D01*
X131378Y333261D01*
X131371Y333275D01*
X131364Y333282D01*
X131301Y333388D01*
X131252Y333493D01*
X131202Y333592D01*
X131167Y333697D01*
X131104Y333894D01*
X131062Y334077D01*
X131048Y334155D01*
X131041Y334232D01*
X131026Y334295D01*
Y334352D01*
X131019Y334394D01*
Y334429D01*
Y334450D01*
Y334457D01*
X131026Y334584D01*
X131033Y334703D01*
X131083Y334943D01*
X131139Y335161D01*
X131174Y335259D01*
X131209Y335358D01*
X131252Y335442D01*
X131287Y335513D01*
X131315Y335583D01*
X131343Y335639D01*
X131371Y335681D01*
X131392Y335717D01*
X131399Y335738D01*
X131406Y335745D01*
X131484Y335857D01*
X131561Y335963D01*
X131646Y336054D01*
X131730Y336146D01*
X131821Y336230D01*
X131906Y336301D01*
X131990Y336371D01*
X132075Y336427D01*
X132152Y336483D01*
X132230Y336526D01*
X132293Y336568D01*
X132349Y336596D01*
X132399Y336624D01*
X132434Y336638D01*
X132455Y336652D01*
X132462D01*
X132588Y336709D01*
X132729Y336751D01*
X133025Y336828D01*
X133320Y336884D01*
X133468Y336899D01*
X133609Y336920D01*
X133735Y336927D01*
X133862Y336941D01*
X133967Y336948D01*
X134066D01*
X134143Y336955D01*
X137893D01*
Y327217D01*
D02*
G37*
G36*
X117447D02*
X113937D01*
X113620Y327224D01*
X113465Y327231D01*
X113324Y327245D01*
X113184Y327253D01*
X113057Y327267D01*
X112937Y327281D01*
X112825Y327302D01*
X112726Y327316D01*
X112635Y327330D01*
X112557Y327344D01*
X112494Y327351D01*
X112445Y327365D01*
X112403Y327372D01*
X112382Y327379D01*
X112375D01*
X112128Y327449D01*
X111903Y327527D01*
X111805Y327569D01*
X111706Y327604D01*
X111622Y327646D01*
X111537Y327689D01*
X111467Y327724D01*
X111404Y327759D01*
X111347Y327787D01*
X111298Y327815D01*
X111263Y327836D01*
X111235Y327851D01*
X111221Y327865D01*
X111214D01*
X111038Y327998D01*
X110869Y328139D01*
X110721Y328287D01*
X110588Y328428D01*
X110482Y328554D01*
X110433Y328610D01*
X110398Y328660D01*
X110369Y328695D01*
X110348Y328730D01*
X110334Y328744D01*
X110327Y328751D01*
X110179Y328976D01*
X110053Y329208D01*
X109933Y329448D01*
X109842Y329673D01*
X109799Y329771D01*
X109764Y329870D01*
X109729Y329954D01*
X109708Y330025D01*
X109687Y330081D01*
X109673Y330130D01*
X109659Y330158D01*
Y330165D01*
X109574Y330496D01*
X109511Y330834D01*
X109462Y331164D01*
X109448Y331326D01*
X109434Y331474D01*
X109419Y331615D01*
X109412Y331741D01*
X109405Y331854D01*
Y331945D01*
X109398Y332030D01*
Y332086D01*
Y332121D01*
Y332135D01*
X109405Y332375D01*
X109412Y332607D01*
X109434Y332832D01*
X109462Y333043D01*
X109490Y333247D01*
X109518Y333437D01*
X109553Y333620D01*
X109588Y333782D01*
X109631Y333929D01*
X109666Y334063D01*
X109694Y334176D01*
X109722Y334274D01*
X109750Y334352D01*
X109771Y334401D01*
X109778Y334436D01*
X109785Y334450D01*
X109863Y334633D01*
X109947Y334816D01*
X110032Y334978D01*
X110123Y335140D01*
X110222Y335287D01*
X110320Y335421D01*
X110412Y335548D01*
X110503Y335667D01*
X110595Y335766D01*
X110672Y335857D01*
X110749Y335935D01*
X110813Y335998D01*
X110862Y336047D01*
X110904Y336090D01*
X110932Y336111D01*
X110939Y336118D01*
X111052Y336209D01*
X111172Y336293D01*
X111411Y336434D01*
X111650Y336561D01*
X111868Y336652D01*
X111973Y336695D01*
X112065Y336723D01*
X112149Y336751D01*
X112220Y336779D01*
X112283Y336793D01*
X112325Y336807D01*
X112353Y336814D01*
X112360D01*
X112480Y336842D01*
X112607Y336863D01*
X112740Y336878D01*
X112881Y336899D01*
X113170Y336920D01*
X113451Y336941D01*
X113585D01*
X113704Y336948D01*
X113817D01*
X113908Y336955D01*
X117447D01*
Y327217D01*
D02*
G37*
G36*
X85477Y336983D02*
X85660Y336969D01*
X85836Y336941D01*
X86004Y336899D01*
X86159Y336856D01*
X86307Y336807D01*
X86441Y336758D01*
X86560Y336709D01*
X86673Y336652D01*
X86764Y336603D01*
X86849Y336554D01*
X86919Y336512D01*
X86975Y336476D01*
X87010Y336448D01*
X87039Y336427D01*
X87046Y336420D01*
X87172Y336308D01*
X87292Y336188D01*
X87404Y336061D01*
X87510Y335928D01*
X87601Y335794D01*
X87686Y335653D01*
X87770Y335520D01*
X87834Y335393D01*
X87897Y335273D01*
X87953Y335161D01*
X87996Y335055D01*
X88038Y334971D01*
X88066Y334893D01*
X88087Y334844D01*
X88094Y334809D01*
X88101Y334795D01*
X88164Y334591D01*
X88214Y334373D01*
X88263Y334148D01*
X88305Y333915D01*
X88368Y333451D01*
X88390Y333226D01*
X88411Y333008D01*
X88425Y332804D01*
X88432Y332614D01*
X88439Y332445D01*
X88446Y332304D01*
Y332241D01*
X88453Y332185D01*
Y332135D01*
Y332093D01*
Y332058D01*
Y332037D01*
Y332023D01*
Y332016D01*
Y331763D01*
X88439Y331516D01*
X88432Y331284D01*
X88411Y331059D01*
X88390Y330841D01*
X88361Y330630D01*
X88333Y330433D01*
X88305Y330243D01*
X88270Y330053D01*
X88228Y329884D01*
X88193Y329715D01*
X88150Y329560D01*
X88108Y329406D01*
X88066Y329265D01*
X88017Y329131D01*
X87974Y329004D01*
X87932Y328892D01*
X87883Y328779D01*
X87841Y328681D01*
X87799Y328582D01*
X87756Y328498D01*
X87721Y328420D01*
X87679Y328350D01*
X87644Y328287D01*
X87616Y328231D01*
X87587Y328188D01*
X87559Y328146D01*
X87538Y328111D01*
X87517Y328090D01*
X87503Y328069D01*
X87496Y328062D01*
Y328055D01*
X87341Y327879D01*
X87172Y327724D01*
X86996Y327590D01*
X86813Y327478D01*
X86624Y327379D01*
X86441Y327302D01*
X86265Y327231D01*
X86089Y327182D01*
X85920Y327140D01*
X85772Y327112D01*
X85632Y327084D01*
X85512Y327070D01*
X85413Y327062D01*
X85343Y327056D01*
X85280D01*
X85083Y327062D01*
X84900Y327084D01*
X84724Y327112D01*
X84555Y327147D01*
X84400Y327189D01*
X84260Y327238D01*
X84126Y327288D01*
X83999Y327344D01*
X83894Y327393D01*
X83795Y327442D01*
X83718Y327492D01*
X83647Y327534D01*
X83591Y327576D01*
X83556Y327604D01*
X83528Y327618D01*
X83521Y327625D01*
X83394Y327738D01*
X83274Y327858D01*
X83162Y327984D01*
X83056Y328118D01*
X82965Y328259D01*
X82880Y328392D01*
X82796Y328526D01*
X82726Y328653D01*
X82669Y328772D01*
X82613Y328885D01*
X82571Y328990D01*
X82529Y329075D01*
X82501Y329152D01*
X82479Y329201D01*
X82472Y329237D01*
X82465Y329251D01*
X82402Y329455D01*
X82346Y329673D01*
X82296Y329898D01*
X82254Y330130D01*
X82191Y330588D01*
X82170Y330813D01*
X82149Y331031D01*
X82135Y331235D01*
X82128Y331418D01*
X82121Y331586D01*
X82114Y331734D01*
Y331798D01*
X82107Y331854D01*
Y331903D01*
Y331938D01*
Y331973D01*
Y331995D01*
Y332009D01*
Y332016D01*
Y332283D01*
X82114Y332529D01*
X82128Y332769D01*
X82142Y332987D01*
X82156Y333191D01*
X82177Y333381D01*
X82198Y333557D01*
X82219Y333711D01*
X82240Y333852D01*
X82261Y333972D01*
X82282Y334077D01*
X82296Y334162D01*
X82311Y334232D01*
X82325Y334274D01*
X82332Y334309D01*
Y334316D01*
X82374Y334471D01*
X82423Y334626D01*
X82465Y334767D01*
X82515Y334900D01*
X82571Y335027D01*
X82620Y335147D01*
X82669Y335259D01*
X82719Y335358D01*
X82761Y335449D01*
X82803Y335527D01*
X82838Y335597D01*
X82873Y335653D01*
X82902Y335695D01*
X82923Y335731D01*
X82930Y335752D01*
X82937Y335759D01*
X83084Y335970D01*
X83246Y336153D01*
X83408Y336315D01*
X83563Y336441D01*
X83633Y336497D01*
X83704Y336540D01*
X83760Y336582D01*
X83809Y336617D01*
X83851Y336638D01*
X83880Y336659D01*
X83901Y336673D01*
X83908D01*
X84020Y336730D01*
X84133Y336779D01*
X84372Y336856D01*
X84604Y336913D01*
X84815Y336948D01*
X84914Y336962D01*
X84998Y336976D01*
X85083Y336983D01*
X85146D01*
X85202Y336990D01*
X85280D01*
X85477Y336983D01*
D02*
G37*
G36*
X135814Y325087D02*
X136046Y325066D01*
X136272Y325038D01*
X136490Y325002D01*
X136694Y324960D01*
X136891Y324904D01*
X137074Y324855D01*
X137243Y324798D01*
X137390Y324742D01*
X137531Y324693D01*
X137651Y324644D01*
X137749Y324594D01*
X137834Y324559D01*
X137890Y324531D01*
X137925Y324510D01*
X137939Y324503D01*
X138136Y324383D01*
X138319Y324257D01*
X138488Y324123D01*
X138650Y323982D01*
X138798Y323842D01*
X138931Y323701D01*
X139058Y323553D01*
X139163Y323419D01*
X139262Y323293D01*
X139353Y323166D01*
X139424Y323061D01*
X139487Y322969D01*
X139529Y322885D01*
X139564Y322828D01*
X139586Y322793D01*
X139593Y322779D01*
X139691Y322561D01*
X139782Y322343D01*
X139860Y322118D01*
X139923Y321893D01*
X139980Y321668D01*
X140029Y321442D01*
X140064Y321231D01*
X140099Y321034D01*
X140120Y320844D01*
X140141Y320668D01*
X140148Y320514D01*
X140162Y320380D01*
Y320274D01*
X140169Y320232D01*
Y320197D01*
Y320169D01*
Y320148D01*
Y320134D01*
Y320127D01*
X140162Y319866D01*
X140148Y319613D01*
X140120Y319367D01*
X140092Y319135D01*
X140050Y318902D01*
X140008Y318691D01*
X139958Y318487D01*
X139909Y318297D01*
X139867Y318129D01*
X139818Y317974D01*
X139775Y317840D01*
X139733Y317727D01*
X139705Y317636D01*
X139677Y317573D01*
X139663Y317530D01*
X139656Y317523D01*
Y317516D01*
X139557Y317298D01*
X139445Y317087D01*
X139325Y316897D01*
X139206Y316714D01*
X139079Y316553D01*
X138952Y316398D01*
X138833Y316264D01*
X138713Y316137D01*
X138601Y316025D01*
X138495Y315933D01*
X138404Y315849D01*
X138319Y315786D01*
X138249Y315736D01*
X138200Y315694D01*
X138171Y315673D01*
X138157Y315666D01*
X137967Y315553D01*
X137763Y315455D01*
X137552Y315370D01*
X137341Y315293D01*
X137130Y315237D01*
X136912Y315180D01*
X136708Y315138D01*
X136504Y315103D01*
X136321Y315082D01*
X136145Y315061D01*
X135990Y315047D01*
X135857Y315033D01*
X135751D01*
X135702Y315026D01*
X135596D01*
X135315Y315033D01*
X135048Y315061D01*
X134794Y315103D01*
X134548Y315152D01*
X134323Y315216D01*
X134112Y315286D01*
X133915Y315363D01*
X133739Y315441D01*
X133577Y315518D01*
X133436Y315596D01*
X133310Y315666D01*
X133211Y315729D01*
X133127Y315779D01*
X133070Y315821D01*
X133035Y315849D01*
X133021Y315856D01*
X132831Y316025D01*
X132655Y316201D01*
X132493Y316391D01*
X132346Y316588D01*
X132212Y316792D01*
X132092Y316989D01*
X131987Y317186D01*
X131895Y317383D01*
X131811Y317566D01*
X131741Y317735D01*
X131684Y317882D01*
X131635Y318016D01*
X131600Y318121D01*
X131586Y318171D01*
X131579Y318206D01*
X131572Y318234D01*
X131565Y318255D01*
X131558Y318269D01*
Y318276D01*
X132845Y318600D01*
X132901Y318375D01*
X132965Y318171D01*
X133035Y317974D01*
X133120Y317798D01*
X133197Y317629D01*
X133288Y317474D01*
X133373Y317341D01*
X133457Y317214D01*
X133535Y317108D01*
X133612Y317010D01*
X133682Y316932D01*
X133746Y316869D01*
X133795Y316813D01*
X133830Y316778D01*
X133858Y316756D01*
X133865Y316749D01*
X134013Y316644D01*
X134161Y316545D01*
X134316Y316461D01*
X134471Y316391D01*
X134625Y316334D01*
X134780Y316285D01*
X134928Y316243D01*
X135069Y316208D01*
X135195Y316180D01*
X135322Y316166D01*
X135427Y316151D01*
X135519Y316137D01*
X135596D01*
X135653Y316130D01*
X135702D01*
X135864Y316137D01*
X136025Y316151D01*
X136180Y316173D01*
X136335Y316201D01*
X136476Y316236D01*
X136616Y316278D01*
X136743Y316313D01*
X136863Y316362D01*
X136968Y316405D01*
X137067Y316440D01*
X137151Y316482D01*
X137221Y316517D01*
X137278Y316545D01*
X137320Y316567D01*
X137348Y316581D01*
X137355Y316588D01*
X137496Y316679D01*
X137623Y316778D01*
X137742Y316883D01*
X137855Y316996D01*
X137953Y317108D01*
X138045Y317228D01*
X138129Y317341D01*
X138207Y317446D01*
X138270Y317551D01*
X138326Y317650D01*
X138375Y317742D01*
X138411Y317819D01*
X138446Y317882D01*
X138467Y317924D01*
X138474Y317960D01*
X138481Y317967D01*
X138544Y318143D01*
X138601Y318326D01*
X138650Y318508D01*
X138685Y318698D01*
X138755Y319057D01*
X138776Y319233D01*
X138798Y319402D01*
X138812Y319550D01*
X138819Y319690D01*
X138826Y319817D01*
X138833Y319923D01*
X138840Y320014D01*
Y320077D01*
Y320120D01*
Y320134D01*
X138833Y320317D01*
X138826Y320493D01*
X138791Y320830D01*
X138769Y320992D01*
X138741Y321147D01*
X138713Y321295D01*
X138685Y321428D01*
X138657Y321555D01*
X138636Y321668D01*
X138608Y321766D01*
X138587Y321850D01*
X138565Y321914D01*
X138551Y321963D01*
X138537Y321998D01*
Y322005D01*
X138474Y322174D01*
X138404Y322329D01*
X138326Y322477D01*
X138242Y322610D01*
X138157Y322744D01*
X138073Y322864D01*
X137981Y322969D01*
X137897Y323068D01*
X137812Y323152D01*
X137735Y323229D01*
X137665Y323293D01*
X137601Y323349D01*
X137552Y323391D01*
X137517Y323426D01*
X137489Y323441D01*
X137482Y323447D01*
X137334Y323546D01*
X137179Y323623D01*
X137024Y323701D01*
X136870Y323764D01*
X136708Y323813D01*
X136553Y323856D01*
X136405Y323891D01*
X136258Y323919D01*
X136124Y323947D01*
X135997Y323961D01*
X135885Y323975D01*
X135786Y323982D01*
X135709Y323989D01*
X135603D01*
X135420Y323982D01*
X135252Y323968D01*
X135090Y323947D01*
X134935Y323912D01*
X134794Y323877D01*
X134661Y323834D01*
X134541Y323792D01*
X134428Y323750D01*
X134330Y323701D01*
X134238Y323659D01*
X134161Y323616D01*
X134098Y323581D01*
X134048Y323546D01*
X134013Y323525D01*
X133992Y323511D01*
X133985Y323504D01*
X133865Y323405D01*
X133753Y323300D01*
X133654Y323180D01*
X133556Y323061D01*
X133464Y322927D01*
X133387Y322800D01*
X133310Y322674D01*
X133246Y322547D01*
X133190Y322427D01*
X133134Y322315D01*
X133091Y322216D01*
X133056Y322132D01*
X133028Y322054D01*
X133007Y322005D01*
X133000Y321970D01*
X132993Y321956D01*
X131727Y322252D01*
X131804Y322498D01*
X131903Y322730D01*
X132001Y322948D01*
X132114Y323152D01*
X132226Y323335D01*
X132339Y323511D01*
X132458Y323666D01*
X132571Y323806D01*
X132683Y323933D01*
X132782Y324039D01*
X132873Y324137D01*
X132958Y324207D01*
X133021Y324271D01*
X133077Y324313D01*
X133106Y324341D01*
X133120Y324348D01*
X133310Y324482D01*
X133507Y324594D01*
X133718Y324693D01*
X133922Y324777D01*
X134126Y324855D01*
X134330Y324911D01*
X134527Y324960D01*
X134717Y325002D01*
X134900Y325031D01*
X135062Y325052D01*
X135202Y325073D01*
X135329Y325080D01*
X135434Y325087D01*
X135477Y325094D01*
X135575D01*
X135814Y325087D01*
D02*
G37*
G36*
X131030Y315187D02*
X129672D01*
X128610Y318136D01*
X124522D01*
X123396Y315187D01*
X121933D01*
X125915Y324925D01*
X127294D01*
X131030Y315187D01*
D02*
G37*
G36*
X120884D02*
X119597D01*
Y319515D01*
X117929D01*
X117782Y319508D01*
X117655Y319501D01*
X117556Y319493D01*
X117486Y319479D01*
X117430Y319472D01*
X117395Y319465D01*
X117388D01*
X117275Y319430D01*
X117170Y319395D01*
X117071Y319346D01*
X116987Y319303D01*
X116909Y319268D01*
X116853Y319233D01*
X116818Y319212D01*
X116804Y319205D01*
X116691Y319128D01*
X116579Y319029D01*
X116473Y318916D01*
X116367Y318811D01*
X116283Y318712D01*
X116213Y318628D01*
X116185Y318593D01*
X116163Y318572D01*
X116156Y318558D01*
X116149Y318551D01*
X116079Y318459D01*
X116002Y318361D01*
X115847Y318150D01*
X115692Y317924D01*
X115544Y317706D01*
X115481Y317608D01*
X115418Y317516D01*
X115361Y317432D01*
X115312Y317355D01*
X115277Y317298D01*
X115249Y317249D01*
X115228Y317221D01*
X115221Y317214D01*
X113933Y315187D01*
X112322D01*
X114003Y317833D01*
X114193Y318114D01*
X114292Y318241D01*
X114383Y318368D01*
X114475Y318480D01*
X114566Y318586D01*
X114651Y318684D01*
X114728Y318776D01*
X114798Y318860D01*
X114869Y318931D01*
X114925Y318987D01*
X114974Y319043D01*
X115016Y319078D01*
X115045Y319114D01*
X115066Y319128D01*
X115073Y319135D01*
X115185Y319226D01*
X115305Y319310D01*
X115432Y319395D01*
X115558Y319465D01*
X115671Y319529D01*
X115720Y319557D01*
X115762Y319578D01*
X115798Y319599D01*
X115826Y319606D01*
X115840Y319620D01*
X115847D01*
X115594Y319662D01*
X115354Y319711D01*
X115136Y319775D01*
X114932Y319838D01*
X114749Y319916D01*
X114573Y319986D01*
X114425Y320063D01*
X114285Y320141D01*
X114165Y320218D01*
X114067Y320289D01*
X113975Y320352D01*
X113905Y320408D01*
X113849Y320457D01*
X113806Y320493D01*
X113785Y320514D01*
X113778Y320521D01*
X113659Y320654D01*
X113553Y320802D01*
X113462Y320943D01*
X113384Y321091D01*
X113321Y321238D01*
X113265Y321386D01*
X113222Y321527D01*
X113187Y321660D01*
X113159Y321787D01*
X113138Y321900D01*
X113124Y322005D01*
X113110Y322090D01*
Y322167D01*
X113103Y322223D01*
Y322252D01*
Y322266D01*
X113110Y322413D01*
X113117Y322561D01*
X113138Y322702D01*
X113166Y322835D01*
X113194Y322962D01*
X113229Y323082D01*
X113272Y323194D01*
X113307Y323300D01*
X113342Y323391D01*
X113384Y323476D01*
X113419Y323553D01*
X113448Y323616D01*
X113476Y323666D01*
X113490Y323701D01*
X113504Y323722D01*
X113511Y323729D01*
X113588Y323849D01*
X113673Y323961D01*
X113764Y324060D01*
X113849Y324158D01*
X113940Y324243D01*
X114031Y324320D01*
X114123Y324383D01*
X114207Y324447D01*
X114285Y324496D01*
X114362Y324538D01*
X114425Y324580D01*
X114482Y324608D01*
X114531Y324630D01*
X114566Y324644D01*
X114587Y324658D01*
X114594D01*
X114728Y324707D01*
X114876Y324749D01*
X115031Y324784D01*
X115185Y324813D01*
X115516Y324862D01*
X115678Y324876D01*
X115833Y324890D01*
X115988Y324904D01*
X116121Y324911D01*
X116248Y324918D01*
X116360D01*
X116445Y324925D01*
X120884D01*
Y315187D01*
D02*
G37*
G36*
X111062D02*
X109775D01*
Y319515D01*
X108107D01*
X107960Y319508D01*
X107833Y319501D01*
X107734Y319493D01*
X107664Y319479D01*
X107608Y319472D01*
X107573Y319465D01*
X107566D01*
X107453Y319430D01*
X107347Y319395D01*
X107249Y319346D01*
X107165Y319303D01*
X107087Y319268D01*
X107031Y319233D01*
X106996Y319212D01*
X106982Y319205D01*
X106869Y319128D01*
X106756Y319029D01*
X106651Y318916D01*
X106545Y318811D01*
X106461Y318712D01*
X106391Y318628D01*
X106362Y318593D01*
X106341Y318572D01*
X106334Y318558D01*
X106327Y318551D01*
X106257Y318459D01*
X106180Y318361D01*
X106025Y318150D01*
X105870Y317924D01*
X105722Y317706D01*
X105659Y317608D01*
X105596Y317516D01*
X105539Y317432D01*
X105490Y317355D01*
X105455Y317298D01*
X105427Y317249D01*
X105406Y317221D01*
X105399Y317214D01*
X104111Y315187D01*
X102500D01*
X104181Y317833D01*
X104371Y318114D01*
X104470Y318241D01*
X104561Y318368D01*
X104653Y318480D01*
X104744Y318586D01*
X104829Y318684D01*
X104906Y318776D01*
X104976Y318860D01*
X105047Y318931D01*
X105103Y318987D01*
X105152Y319043D01*
X105195Y319078D01*
X105223Y319114D01*
X105244Y319128D01*
X105251Y319135D01*
X105363Y319226D01*
X105483Y319310D01*
X105610Y319395D01*
X105736Y319465D01*
X105849Y319529D01*
X105898Y319557D01*
X105940Y319578D01*
X105976Y319599D01*
X106004Y319606D01*
X106018Y319620D01*
X106025D01*
X105772Y319662D01*
X105532Y319711D01*
X105314Y319775D01*
X105110Y319838D01*
X104927Y319916D01*
X104751Y319986D01*
X104604Y320063D01*
X104463Y320141D01*
X104343Y320218D01*
X104245Y320289D01*
X104153Y320352D01*
X104083Y320408D01*
X104027Y320457D01*
X103984Y320493D01*
X103963Y320514D01*
X103956Y320521D01*
X103837Y320654D01*
X103731Y320802D01*
X103640Y320943D01*
X103562Y321091D01*
X103499Y321238D01*
X103443Y321386D01*
X103400Y321527D01*
X103365Y321660D01*
X103337Y321787D01*
X103316Y321900D01*
X103302Y322005D01*
X103288Y322090D01*
Y322167D01*
X103281Y322223D01*
Y322252D01*
Y322266D01*
X103288Y322413D01*
X103295Y322561D01*
X103316Y322702D01*
X103344Y322835D01*
X103372Y322962D01*
X103407Y323082D01*
X103450Y323194D01*
X103485Y323300D01*
X103520Y323391D01*
X103562Y323476D01*
X103597Y323553D01*
X103626Y323616D01*
X103654Y323666D01*
X103668Y323701D01*
X103682Y323722D01*
X103689Y323729D01*
X103766Y323849D01*
X103851Y323961D01*
X103942Y324060D01*
X104027Y324158D01*
X104118Y324243D01*
X104209Y324320D01*
X104301Y324383D01*
X104385Y324447D01*
X104463Y324496D01*
X104540Y324538D01*
X104604Y324580D01*
X104660Y324608D01*
X104709Y324630D01*
X104744Y324644D01*
X104765Y324658D01*
X104772D01*
X104906Y324707D01*
X105054Y324749D01*
X105209Y324784D01*
X105363Y324813D01*
X105694Y324862D01*
X105856Y324876D01*
X106011Y324890D01*
X106166Y324904D01*
X106299Y324911D01*
X106426Y324918D01*
X106538D01*
X106623Y324925D01*
X111062D01*
Y315187D01*
D02*
G37*
G36*
X101043D02*
X99756D01*
Y324925D01*
X101043D01*
Y315187D01*
D02*
G37*
G36*
X97455D02*
X90194D01*
Y316334D01*
X96168D01*
Y319648D01*
X90785D01*
Y320795D01*
X96168D01*
Y323778D01*
X90419D01*
Y324925D01*
X97455D01*
Y315187D01*
D02*
G37*
G36*
X88393D02*
X87106D01*
Y319515D01*
X85438Y319515D01*
X85290Y319508D01*
X85164Y319500D01*
X85065Y319493D01*
X84995Y319479D01*
X84938Y319472D01*
X84903Y319465D01*
X84896D01*
X84784Y319430D01*
X84678Y319395D01*
X84580Y319346D01*
X84495Y319303D01*
X84418Y319268D01*
X84362Y319233D01*
X84326Y319212D01*
X84312Y319205D01*
X84200Y319128D01*
X84087Y319029D01*
X83982Y318916D01*
X83876Y318811D01*
X83792Y318712D01*
X83721Y318628D01*
X83693Y318593D01*
X83672Y318572D01*
X83665Y318558D01*
X83658Y318551D01*
X83588Y318459D01*
X83510Y318361D01*
X83355Y318150D01*
X83201Y317924D01*
X83053Y317706D01*
X82990Y317608D01*
X82926Y317516D01*
X82870Y317432D01*
X82821Y317355D01*
X82786Y317298D01*
X82757Y317249D01*
X82736Y317221D01*
X82729Y317214D01*
X81442Y315187D01*
X79830D01*
X81512Y317833D01*
X81702Y318114D01*
X81800Y318241D01*
X81892Y318368D01*
X81983Y318480D01*
X82075Y318586D01*
X82159Y318684D01*
X82237Y318776D01*
X82307Y318860D01*
X82378Y318930D01*
X82434Y318987D01*
X82483Y319043D01*
X82525Y319078D01*
X82553Y319114D01*
X82575Y319128D01*
X82582Y319135D01*
X82694Y319226D01*
X82814Y319310D01*
X82940Y319395D01*
X83067Y319465D01*
X83180Y319529D01*
X83229Y319557D01*
X83271Y319578D01*
X83306Y319599D01*
X83334Y319606D01*
X83348Y319620D01*
X83355D01*
X83102Y319662D01*
X82863Y319711D01*
X82645Y319775D01*
X82441Y319838D01*
X82258Y319916D01*
X82082Y319986D01*
X81934Y320063D01*
X81793Y320141D01*
X81674Y320218D01*
X81575Y320288D01*
X81484Y320352D01*
X81414Y320408D01*
X81357Y320457D01*
X81315Y320493D01*
X81294Y320514D01*
X81287Y320521D01*
X81167Y320654D01*
X81062Y320802D01*
X80970Y320943D01*
X80893Y321091D01*
X80830Y321238D01*
X80773Y321386D01*
X80731Y321527D01*
X80696Y321660D01*
X80668Y321787D01*
X80647Y321900D01*
X80633Y322005D01*
X80618Y322090D01*
Y322167D01*
X80611Y322223D01*
Y322251D01*
Y322266D01*
X80618Y322413D01*
X80625Y322561D01*
X80647Y322702D01*
X80675Y322835D01*
X80703Y322962D01*
X80738Y323082D01*
X80780Y323194D01*
X80815Y323300D01*
X80851Y323391D01*
X80893Y323476D01*
X80928Y323553D01*
X80956Y323616D01*
X80984Y323666D01*
X80998Y323701D01*
X81012Y323722D01*
X81019Y323729D01*
X81097Y323849D01*
X81181Y323961D01*
X81273Y324060D01*
X81357Y324158D01*
X81449Y324243D01*
X81540Y324320D01*
X81632Y324383D01*
X81716Y324447D01*
X81793Y324496D01*
X81871Y324538D01*
X81934Y324580D01*
X81990Y324608D01*
X82040Y324630D01*
X82075Y324644D01*
X82096Y324658D01*
X82103D01*
X82237Y324707D01*
X82385Y324749D01*
X82539Y324784D01*
X82694Y324813D01*
X83025Y324862D01*
X83187Y324876D01*
X83341Y324890D01*
X83496Y324904D01*
X83630Y324911D01*
X83757Y324918D01*
X83869D01*
X83954Y324925D01*
X88393Y324925D01*
Y315187D01*
D02*
G37*
G36*
X104604Y306092D02*
X100917D01*
Y307295D01*
X104604D01*
Y306092D01*
D02*
G37*
G36*
X139543Y303172D02*
X138298D01*
Y311460D01*
X135491Y303172D01*
X134323D01*
X131487Y311319D01*
Y303172D01*
X130242D01*
Y312909D01*
X131980D01*
X134316Y306134D01*
X134379Y305944D01*
X134442Y305768D01*
X134492Y305606D01*
X134548Y305451D01*
X134590Y305311D01*
X134632Y305184D01*
X134675Y305071D01*
X134710Y304966D01*
X134738Y304874D01*
X134766Y304797D01*
X134787Y304727D01*
X134801Y304670D01*
X134815Y304628D01*
X134829Y304600D01*
X134836Y304579D01*
Y304572D01*
X134865Y304670D01*
X134900Y304769D01*
X134935Y304881D01*
X134970Y305001D01*
X135048Y305240D01*
X135125Y305473D01*
X135160Y305585D01*
X135195Y305683D01*
X135223Y305775D01*
X135252Y305859D01*
X135273Y305923D01*
X135287Y305972D01*
X135294Y306000D01*
X135301Y306014D01*
X137608Y312909D01*
X139543D01*
Y303172D01*
D02*
G37*
G36*
X129229D02*
X127871D01*
X126809Y306120D01*
X122721D01*
X121595Y303172D01*
X120132D01*
X124114Y312909D01*
X125493D01*
X129229Y303172D01*
D02*
G37*
G36*
X119154D02*
X113075D01*
Y304319D01*
X117866D01*
Y312909D01*
X119154D01*
Y303172D01*
D02*
G37*
G36*
X111590D02*
X105511D01*
Y304319D01*
X110302D01*
Y312909D01*
X111590D01*
Y303172D01*
D02*
G37*
G36*
X90159D02*
X88871D01*
Y312909D01*
X90159D01*
Y303172D01*
D02*
G37*
G36*
X86810Y311763D02*
X81378Y311762D01*
X81561Y311572D01*
X81744Y311368D01*
X81913Y311178D01*
X82068Y310996D01*
X82138Y310911D01*
X82202Y310841D01*
X82251Y310770D01*
X82300Y310714D01*
X82342Y310665D01*
X82370Y310630D01*
X82385Y310609D01*
X82392Y310602D01*
X87373Y304361D01*
Y303172D01*
X79676Y303172D01*
Y304319D01*
X85895Y304319D01*
X85311Y305001D01*
X79837Y311762D01*
Y312909D01*
X86810Y312909D01*
Y311763D01*
D02*
G37*
G36*
X78261Y303172D02*
X71001D01*
Y304319D01*
X76974D01*
Y307632D01*
X71592D01*
Y308779D01*
X76974D01*
Y311762D01*
X71226D01*
Y312909D01*
X78261D01*
Y303172D01*
D02*
G37*
G36*
X145397Y313071D02*
X145573Y313064D01*
X145742Y313050D01*
X145911Y313029D01*
X146066Y313001D01*
X146213Y312973D01*
X146347Y312945D01*
X146474Y312909D01*
X146593Y312881D01*
X146699Y312846D01*
X146783Y312818D01*
X146861Y312797D01*
X146924Y312769D01*
X146966Y312754D01*
X146994Y312747D01*
X147001Y312740D01*
X147149Y312677D01*
X147283Y312607D01*
X147409Y312529D01*
X147529Y312452D01*
X147641Y312367D01*
X147740Y312290D01*
X147831Y312206D01*
X147909Y312128D01*
X147979Y312058D01*
X148043Y311988D01*
X148099Y311931D01*
X148141Y311875D01*
X148176Y311833D01*
X148197Y311798D01*
X148211Y311777D01*
X148218Y311770D01*
X148289Y311650D01*
X148352Y311523D01*
X148408Y311404D01*
X148458Y311284D01*
X148500Y311164D01*
X148535Y311052D01*
X148556Y310946D01*
X148584Y310841D01*
X148598Y310742D01*
X148612Y310658D01*
X148619Y310581D01*
X148627Y310517D01*
X148634Y310461D01*
Y310426D01*
Y310397D01*
Y310390D01*
X148627Y310264D01*
X148619Y310144D01*
X148577Y309919D01*
X148528Y309715D01*
X148493Y309624D01*
X148465Y309532D01*
X148429Y309455D01*
X148401Y309384D01*
X148373Y309328D01*
X148345Y309279D01*
X148324Y309237D01*
X148310Y309209D01*
X148303Y309187D01*
X148296Y309180D01*
X148225Y309082D01*
X148155Y308983D01*
X147986Y308807D01*
X147817Y308653D01*
X147649Y308526D01*
X147564Y308470D01*
X147494Y308421D01*
X147423Y308371D01*
X147367Y308336D01*
X147318Y308308D01*
X147283Y308287D01*
X147262Y308280D01*
X147255Y308273D01*
X147142Y308216D01*
X147022Y308167D01*
X146882Y308111D01*
X146734Y308055D01*
X146424Y307949D01*
X146115Y307858D01*
X145974Y307815D01*
X145833Y307780D01*
X145707Y307745D01*
X145601Y307717D01*
X145510Y307696D01*
X145439Y307675D01*
X145418Y307668D01*
X145397D01*
X145390Y307661D01*
X145383D01*
X145144Y307604D01*
X144926Y307548D01*
X144722Y307499D01*
X144546Y307449D01*
X144384Y307407D01*
X144243Y307372D01*
X144124Y307337D01*
X144011Y307302D01*
X143920Y307274D01*
X143842Y307253D01*
X143786Y307231D01*
X143737Y307217D01*
X143694Y307203D01*
X143673Y307196D01*
X143659Y307189D01*
X143652D01*
X143540Y307140D01*
X143441Y307098D01*
X143343Y307048D01*
X143258Y306999D01*
X143174Y306950D01*
X143103Y306901D01*
X143040Y306852D01*
X142984Y306809D01*
X142935Y306767D01*
X142892Y306725D01*
X142822Y306661D01*
X142787Y306619D01*
X142773Y306612D01*
Y306605D01*
X142681Y306472D01*
X142611Y306338D01*
X142562Y306204D01*
X142534Y306085D01*
X142512Y305972D01*
X142505Y305930D01*
Y305888D01*
X142498Y305852D01*
Y305831D01*
Y305817D01*
Y305810D01*
X142512Y305648D01*
X142541Y305487D01*
X142590Y305346D01*
X142639Y305226D01*
X142688Y305121D01*
X142717Y305079D01*
X142738Y305043D01*
X142752Y305015D01*
X142766Y304994D01*
X142780Y304980D01*
Y304973D01*
X142892Y304839D01*
X143026Y304720D01*
X143167Y304614D01*
X143300Y304530D01*
X143427Y304466D01*
X143476Y304438D01*
X143526Y304417D01*
X143561Y304396D01*
X143589Y304382D01*
X143610Y304375D01*
X143617D01*
X143835Y304305D01*
X144053Y304248D01*
X144271Y304213D01*
X144475Y304185D01*
X144567Y304178D01*
X144651Y304171D01*
X144722Y304164D01*
X144785D01*
X144841Y304157D01*
X144912D01*
X145214Y304171D01*
X145496Y304199D01*
X145629Y304227D01*
X145749Y304248D01*
X145869Y304276D01*
X145974Y304305D01*
X146066Y304326D01*
X146157Y304354D01*
X146227Y304382D01*
X146291Y304403D01*
X146340Y304417D01*
X146382Y304431D01*
X146403Y304445D01*
X146410D01*
X146530Y304501D01*
X146643Y304558D01*
X146748Y304621D01*
X146840Y304685D01*
X146931Y304748D01*
X147008Y304811D01*
X147086Y304874D01*
X147149Y304931D01*
X147205Y304987D01*
X147255Y305036D01*
X147297Y305079D01*
X147325Y305121D01*
X147353Y305156D01*
X147374Y305177D01*
X147381Y305191D01*
X147388Y305198D01*
X147494Y305388D01*
X147578Y305585D01*
X147649Y305789D01*
X147698Y305979D01*
X147719Y306070D01*
X147740Y306148D01*
X147754Y306225D01*
X147761Y306289D01*
X147775Y306338D01*
Y306373D01*
X147782Y306401D01*
Y306408D01*
X148999Y306303D01*
X148992Y306120D01*
X148971Y305944D01*
X148943Y305775D01*
X148908Y305613D01*
X148866Y305465D01*
X148824Y305318D01*
X148774Y305184D01*
X148725Y305057D01*
X148683Y304945D01*
X148634Y304846D01*
X148591Y304762D01*
X148549Y304685D01*
X148521Y304628D01*
X148493Y304586D01*
X148479Y304558D01*
X148472Y304551D01*
X148373Y304410D01*
X148268Y304276D01*
X148155Y304157D01*
X148035Y304044D01*
X147923Y303939D01*
X147803Y303840D01*
X147691Y303756D01*
X147578Y303678D01*
X147480Y303615D01*
X147381Y303552D01*
X147297Y303502D01*
X147219Y303460D01*
X147156Y303432D01*
X147114Y303411D01*
X147079Y303397D01*
X147072Y303390D01*
X146903Y303326D01*
X146720Y303263D01*
X146537Y303214D01*
X146347Y303172D01*
X145974Y303101D01*
X145798Y303080D01*
X145629Y303059D01*
X145468Y303045D01*
X145320Y303031D01*
X145186Y303024D01*
X145073Y303017D01*
X144982Y303010D01*
X144855D01*
X144665Y303017D01*
X144475Y303024D01*
X144292Y303045D01*
X144124Y303066D01*
X143962Y303101D01*
X143807Y303130D01*
X143659Y303165D01*
X143526Y303200D01*
X143406Y303235D01*
X143300Y303270D01*
X143209Y303305D01*
X143132Y303334D01*
X143068Y303355D01*
X143019Y303376D01*
X142991Y303383D01*
X142984Y303390D01*
X142829Y303467D01*
X142688Y303545D01*
X142555Y303629D01*
X142435Y303713D01*
X142323Y303805D01*
X142217Y303896D01*
X142118Y303981D01*
X142034Y304065D01*
X141957Y304143D01*
X141893Y304213D01*
X141837Y304283D01*
X141795Y304340D01*
X141760Y304389D01*
X141732Y304424D01*
X141717Y304445D01*
X141710Y304452D01*
X141633Y304586D01*
X141563Y304713D01*
X141499Y304846D01*
X141450Y304973D01*
X141408Y305100D01*
X141373Y305219D01*
X141337Y305339D01*
X141316Y305444D01*
X141295Y305550D01*
X141281Y305641D01*
X141274Y305719D01*
X141267Y305789D01*
X141260Y305845D01*
Y305888D01*
Y305916D01*
Y305923D01*
X141267Y306070D01*
X141274Y306204D01*
X141295Y306338D01*
X141323Y306465D01*
X141351Y306591D01*
X141387Y306704D01*
X141429Y306809D01*
X141464Y306908D01*
X141499Y306992D01*
X141542Y307070D01*
X141577Y307140D01*
X141605Y307196D01*
X141633Y307239D01*
X141647Y307274D01*
X141661Y307295D01*
X141668Y307302D01*
X141753Y307414D01*
X141837Y307520D01*
X142034Y307717D01*
X142245Y307886D01*
X142351Y307963D01*
X142449Y308027D01*
X142548Y308090D01*
X142639Y308146D01*
X142717Y308188D01*
X142787Y308230D01*
X142843Y308259D01*
X142892Y308280D01*
X142921Y308294D01*
X142928Y308301D01*
X143047Y308350D01*
X143188Y308399D01*
X143343Y308456D01*
X143511Y308505D01*
X143687Y308561D01*
X143863Y308610D01*
X144222Y308702D01*
X144391Y308751D01*
X144553Y308786D01*
X144701Y308822D01*
X144827Y308857D01*
X144933Y308878D01*
X144975Y308892D01*
X145010Y308899D01*
X145038Y308906D01*
X145059D01*
X145073Y308913D01*
X145080D01*
X145362Y308983D01*
X145615Y309047D01*
X145840Y309110D01*
X146044Y309173D01*
X146220Y309237D01*
X146382Y309293D01*
X146516Y309349D01*
X146635Y309398D01*
X146734Y309448D01*
X146811Y309490D01*
X146882Y309525D01*
X146931Y309560D01*
X146973Y309581D01*
X146994Y309603D01*
X147008Y309610D01*
X147015Y309617D01*
X147079Y309680D01*
X147135Y309750D01*
X147191Y309821D01*
X147233Y309898D01*
X147297Y310039D01*
X147339Y310179D01*
X147367Y310299D01*
X147374Y310348D01*
X147381Y310397D01*
X147388Y310433D01*
Y310461D01*
Y310475D01*
Y310482D01*
X147381Y310595D01*
X147367Y310700D01*
X147339Y310806D01*
X147304Y310897D01*
X147219Y311073D01*
X147170Y311157D01*
X147121Y311228D01*
X147072Y311291D01*
X147029Y311347D01*
X146980Y311397D01*
X146945Y311439D01*
X146910Y311474D01*
X146882Y311495D01*
X146868Y311509D01*
X146861Y311516D01*
X146755Y311594D01*
X146635Y311657D01*
X146502Y311713D01*
X146368Y311763D01*
X146227Y311805D01*
X146087Y311840D01*
X145805Y311889D01*
X145679Y311910D01*
X145552Y311924D01*
X145446Y311931D01*
X145348Y311938D01*
X145271Y311945D01*
X145158D01*
X144954Y311938D01*
X144764Y311924D01*
X144588Y311903D01*
X144419Y311875D01*
X144271Y311833D01*
X144131Y311798D01*
X144004Y311755D01*
X143891Y311713D01*
X143793Y311664D01*
X143708Y311622D01*
X143638Y311587D01*
X143575Y311551D01*
X143526Y311516D01*
X143497Y311495D01*
X143476Y311481D01*
X143469Y311474D01*
X143371Y311383D01*
X143279Y311277D01*
X143195Y311171D01*
X143125Y311059D01*
X143061Y310939D01*
X143005Y310827D01*
X142956Y310714D01*
X142921Y310602D01*
X142885Y310496D01*
X142857Y310397D01*
X142836Y310306D01*
X142822Y310236D01*
X142808Y310172D01*
X142801Y310123D01*
X142794Y310095D01*
Y310081D01*
X141556Y310172D01*
X141570Y310327D01*
X141584Y310482D01*
X141612Y310630D01*
X141647Y310770D01*
X141682Y310904D01*
X141724Y311031D01*
X141767Y311150D01*
X141809Y311256D01*
X141858Y311354D01*
X141893Y311439D01*
X141936Y311516D01*
X141971Y311579D01*
X141999Y311629D01*
X142020Y311671D01*
X142034Y311692D01*
X142041Y311699D01*
X142126Y311826D01*
X142224Y311938D01*
X142323Y312051D01*
X142428Y312149D01*
X142534Y312241D01*
X142639Y312325D01*
X142738Y312403D01*
X142843Y312466D01*
X142935Y312529D01*
X143026Y312579D01*
X143103Y312628D01*
X143174Y312663D01*
X143230Y312691D01*
X143272Y312712D01*
X143300Y312719D01*
X143308Y312726D01*
X143462Y312790D01*
X143624Y312846D01*
X143786Y312888D01*
X143955Y312930D01*
X144271Y312994D01*
X144426Y313015D01*
X144567Y313036D01*
X144708Y313050D01*
X144827Y313057D01*
X144940Y313071D01*
X145031D01*
X145109Y313078D01*
X145214D01*
X145397Y313071D01*
D02*
G37*
G36*
X96273D02*
X96449Y313064D01*
X96618Y313050D01*
X96787Y313029D01*
X96942Y313001D01*
X97089Y312973D01*
X97223Y312945D01*
X97350Y312909D01*
X97469Y312881D01*
X97575Y312846D01*
X97659Y312818D01*
X97737Y312797D01*
X97800Y312769D01*
X97842Y312754D01*
X97870Y312747D01*
X97877Y312740D01*
X98025Y312677D01*
X98159Y312607D01*
X98285Y312529D01*
X98405Y312452D01*
X98518Y312367D01*
X98616Y312290D01*
X98708Y312206D01*
X98785Y312128D01*
X98855Y312058D01*
X98919Y311988D01*
X98975Y311931D01*
X99017Y311875D01*
X99052Y311833D01*
X99073Y311798D01*
X99087Y311777D01*
X99094Y311770D01*
X99165Y311650D01*
X99228Y311523D01*
X99284Y311404D01*
X99334Y311284D01*
X99376Y311164D01*
X99411Y311052D01*
X99432Y310946D01*
X99460Y310841D01*
X99474Y310742D01*
X99488Y310658D01*
X99496Y310581D01*
X99503Y310517D01*
X99510Y310461D01*
Y310426D01*
Y310397D01*
Y310390D01*
X99503Y310264D01*
X99496Y310144D01*
X99453Y309919D01*
X99404Y309715D01*
X99369Y309624D01*
X99341Y309532D01*
X99306Y309455D01*
X99277Y309384D01*
X99249Y309328D01*
X99221Y309279D01*
X99200Y309237D01*
X99186Y309209D01*
X99179Y309187D01*
X99172Y309180D01*
X99102Y309082D01*
X99031Y308983D01*
X98862Y308807D01*
X98694Y308653D01*
X98525Y308526D01*
X98440Y308470D01*
X98370Y308421D01*
X98300Y308371D01*
X98243Y308336D01*
X98194Y308308D01*
X98159Y308287D01*
X98138Y308280D01*
X98131Y308273D01*
X98018Y308216D01*
X97898Y308167D01*
X97758Y308111D01*
X97610Y308055D01*
X97300Y307949D01*
X96991Y307858D01*
X96850Y307815D01*
X96709Y307780D01*
X96583Y307745D01*
X96477Y307717D01*
X96386Y307696D01*
X96315Y307675D01*
X96294Y307668D01*
X96273D01*
X96266Y307661D01*
X96259D01*
X96020Y307604D01*
X95802Y307548D01*
X95598Y307499D01*
X95422Y307449D01*
X95260Y307407D01*
X95119Y307372D01*
X95000Y307337D01*
X94887Y307302D01*
X94796Y307274D01*
X94718Y307253D01*
X94662Y307231D01*
X94613Y307217D01*
X94571Y307203D01*
X94549Y307196D01*
X94535Y307189D01*
X94528D01*
X94416Y307140D01*
X94317Y307098D01*
X94219Y307048D01*
X94134Y306999D01*
X94050Y306950D01*
X93980Y306901D01*
X93916Y306852D01*
X93860Y306809D01*
X93811Y306767D01*
X93768Y306725D01*
X93698Y306661D01*
X93663Y306619D01*
X93649Y306612D01*
Y306605D01*
X93557Y306472D01*
X93487Y306338D01*
X93438Y306204D01*
X93410Y306085D01*
X93389Y305972D01*
X93381Y305930D01*
Y305888D01*
X93374Y305852D01*
Y305831D01*
Y305817D01*
Y305810D01*
X93389Y305648D01*
X93417Y305487D01*
X93466Y305346D01*
X93515Y305226D01*
X93564Y305121D01*
X93593Y305079D01*
X93614Y305043D01*
X93628Y305015D01*
X93642Y304994D01*
X93656Y304980D01*
Y304973D01*
X93768Y304839D01*
X93902Y304720D01*
X94043Y304614D01*
X94177Y304530D01*
X94303Y304466D01*
X94352Y304438D01*
X94402Y304417D01*
X94437Y304396D01*
X94465Y304382D01*
X94486Y304375D01*
X94493D01*
X94711Y304305D01*
X94929Y304248D01*
X95147Y304213D01*
X95351Y304185D01*
X95443Y304178D01*
X95527Y304171D01*
X95598Y304164D01*
X95661D01*
X95717Y304157D01*
X95788D01*
X96090Y304171D01*
X96372Y304199D01*
X96505Y304227D01*
X96625Y304248D01*
X96745Y304276D01*
X96850Y304305D01*
X96942Y304326D01*
X97033Y304354D01*
X97103Y304382D01*
X97167Y304403D01*
X97216Y304417D01*
X97258Y304431D01*
X97279Y304445D01*
X97286D01*
X97406Y304501D01*
X97519Y304558D01*
X97624Y304621D01*
X97716Y304685D01*
X97807Y304748D01*
X97884Y304811D01*
X97962Y304874D01*
X98025Y304931D01*
X98081Y304987D01*
X98131Y305036D01*
X98173Y305079D01*
X98201Y305121D01*
X98229Y305156D01*
X98250Y305177D01*
X98257Y305191D01*
X98264Y305198D01*
X98370Y305388D01*
X98454Y305585D01*
X98525Y305789D01*
X98574Y305979D01*
X98595Y306070D01*
X98616Y306148D01*
X98630Y306225D01*
X98637Y306289D01*
X98651Y306338D01*
Y306373D01*
X98658Y306401D01*
Y306408D01*
X99875Y306303D01*
X99868Y306120D01*
X99847Y305944D01*
X99819Y305775D01*
X99784Y305613D01*
X99742Y305465D01*
X99700Y305318D01*
X99650Y305184D01*
X99601Y305057D01*
X99559Y304945D01*
X99510Y304846D01*
X99467Y304762D01*
X99425Y304685D01*
X99397Y304628D01*
X99369Y304586D01*
X99355Y304558D01*
X99348Y304551D01*
X99249Y304410D01*
X99144Y304276D01*
X99031Y304157D01*
X98912Y304044D01*
X98799Y303939D01*
X98679Y303840D01*
X98567Y303756D01*
X98454Y303678D01*
X98356Y303615D01*
X98257Y303552D01*
X98173Y303502D01*
X98095Y303460D01*
X98032Y303432D01*
X97990Y303411D01*
X97955Y303397D01*
X97948Y303390D01*
X97779Y303326D01*
X97596Y303263D01*
X97413Y303214D01*
X97223Y303172D01*
X96850Y303101D01*
X96674Y303080D01*
X96505Y303059D01*
X96343Y303045D01*
X96196Y303031D01*
X96062Y303024D01*
X95949Y303017D01*
X95858Y303010D01*
X95731D01*
X95541Y303017D01*
X95351Y303024D01*
X95169Y303045D01*
X95000Y303066D01*
X94838Y303101D01*
X94683Y303130D01*
X94535Y303165D01*
X94402Y303200D01*
X94282Y303235D01*
X94177Y303270D01*
X94085Y303305D01*
X94008Y303334D01*
X93944Y303355D01*
X93895Y303376D01*
X93867Y303383D01*
X93860Y303390D01*
X93705Y303467D01*
X93564Y303545D01*
X93431Y303629D01*
X93311Y303713D01*
X93198Y303805D01*
X93093Y303896D01*
X92994Y303981D01*
X92910Y304065D01*
X92833Y304143D01*
X92769Y304213D01*
X92713Y304283D01*
X92671Y304340D01*
X92636Y304389D01*
X92607Y304424D01*
X92593Y304445D01*
X92586Y304452D01*
X92509Y304586D01*
X92439Y304713D01*
X92375Y304846D01*
X92326Y304973D01*
X92284Y305100D01*
X92249Y305219D01*
X92213Y305339D01*
X92192Y305444D01*
X92171Y305550D01*
X92157Y305641D01*
X92150Y305719D01*
X92143Y305789D01*
X92136Y305845D01*
Y305888D01*
Y305916D01*
Y305923D01*
X92143Y306070D01*
X92150Y306204D01*
X92171Y306338D01*
X92199Y306465D01*
X92228Y306591D01*
X92263Y306704D01*
X92305Y306809D01*
X92340Y306908D01*
X92375Y306992D01*
X92417Y307070D01*
X92453Y307140D01*
X92481Y307196D01*
X92509Y307239D01*
X92523Y307274D01*
X92537Y307295D01*
X92544Y307302D01*
X92629Y307414D01*
X92713Y307520D01*
X92910Y307717D01*
X93121Y307886D01*
X93227Y307963D01*
X93325Y308027D01*
X93424Y308090D01*
X93515Y308146D01*
X93593Y308188D01*
X93663Y308230D01*
X93719Y308259D01*
X93768Y308280D01*
X93797Y308294D01*
X93804Y308301D01*
X93923Y308350D01*
X94064Y308399D01*
X94219Y308456D01*
X94388Y308505D01*
X94564Y308561D01*
X94739Y308610D01*
X95098Y308702D01*
X95267Y308751D01*
X95429Y308786D01*
X95577Y308822D01*
X95703Y308857D01*
X95809Y308878D01*
X95851Y308892D01*
X95886Y308899D01*
X95914Y308906D01*
X95935D01*
X95949Y308913D01*
X95957D01*
X96238Y308983D01*
X96491Y309047D01*
X96716Y309110D01*
X96920Y309173D01*
X97096Y309237D01*
X97258Y309293D01*
X97392Y309349D01*
X97512Y309398D01*
X97610Y309448D01*
X97687Y309490D01*
X97758Y309525D01*
X97807Y309560D01*
X97849Y309581D01*
X97870Y309603D01*
X97884Y309610D01*
X97891Y309617D01*
X97955Y309680D01*
X98011Y309750D01*
X98067Y309821D01*
X98110Y309898D01*
X98173Y310039D01*
X98215Y310179D01*
X98243Y310299D01*
X98250Y310348D01*
X98257Y310397D01*
X98264Y310433D01*
Y310461D01*
Y310475D01*
Y310482D01*
X98257Y310595D01*
X98243Y310700D01*
X98215Y310806D01*
X98180Y310897D01*
X98095Y311073D01*
X98046Y311157D01*
X97997Y311228D01*
X97948Y311291D01*
X97906Y311347D01*
X97856Y311397D01*
X97821Y311439D01*
X97786Y311474D01*
X97758Y311495D01*
X97744Y311509D01*
X97737Y311516D01*
X97631Y311594D01*
X97512Y311657D01*
X97378Y311713D01*
X97244Y311763D01*
X97103Y311805D01*
X96963Y311840D01*
X96681Y311889D01*
X96555Y311910D01*
X96428Y311924D01*
X96322Y311931D01*
X96224Y311938D01*
X96146Y311945D01*
X96034D01*
X95830Y311938D01*
X95640Y311924D01*
X95464Y311903D01*
X95295Y311875D01*
X95147Y311833D01*
X95007Y311798D01*
X94880Y311755D01*
X94768Y311713D01*
X94669Y311664D01*
X94585Y311622D01*
X94514Y311587D01*
X94451Y311551D01*
X94402Y311516D01*
X94374Y311495D01*
X94352Y311481D01*
X94345Y311474D01*
X94247Y311383D01*
X94155Y311277D01*
X94071Y311171D01*
X94001Y311059D01*
X93937Y310939D01*
X93881Y310827D01*
X93832Y310714D01*
X93797Y310602D01*
X93761Y310496D01*
X93733Y310397D01*
X93712Y310306D01*
X93698Y310236D01*
X93684Y310172D01*
X93677Y310123D01*
X93670Y310095D01*
Y310081D01*
X92432Y310172D01*
X92446Y310327D01*
X92460Y310482D01*
X92488Y310630D01*
X92523Y310770D01*
X92558Y310904D01*
X92600Y311031D01*
X92643Y311150D01*
X92685Y311256D01*
X92734Y311354D01*
X92769Y311439D01*
X92811Y311516D01*
X92847Y311579D01*
X92875Y311629D01*
X92896Y311671D01*
X92910Y311692D01*
X92917Y311699D01*
X93001Y311826D01*
X93100Y311938D01*
X93198Y312051D01*
X93304Y312149D01*
X93410Y312241D01*
X93515Y312325D01*
X93614Y312403D01*
X93719Y312466D01*
X93811Y312529D01*
X93902Y312579D01*
X93980Y312628D01*
X94050Y312663D01*
X94106Y312691D01*
X94148Y312712D01*
X94177Y312719D01*
X94184Y312726D01*
X94338Y312790D01*
X94500Y312846D01*
X94662Y312888D01*
X94831Y312930D01*
X95147Y312994D01*
X95302Y313015D01*
X95443Y313036D01*
X95584Y313050D01*
X95703Y313057D01*
X95816Y313071D01*
X95907D01*
X95985Y313078D01*
X96090D01*
X96273Y313071D01*
D02*
G37*
G36*
X118686Y279343D02*
X118932D01*
X119179Y279325D01*
X119426Y279307D01*
X119514D01*
X119620Y279290D01*
X119743D01*
X119849Y279272D01*
X119955D01*
X120043Y279254D01*
X120078Y279237D01*
Y279219D01*
X120096Y279184D01*
Y279131D01*
X120113Y279025D01*
Y278867D01*
X120131Y278761D01*
Y278655D01*
Y278514D01*
Y278356D01*
Y278338D01*
Y278320D01*
Y278267D01*
Y278197D01*
Y278109D01*
X120149Y278003D01*
Y277880D01*
Y277738D01*
Y277404D01*
X120166Y276998D01*
Y276522D01*
Y275993D01*
Y275976D01*
Y275923D01*
Y275852D01*
Y275729D01*
Y275588D01*
Y275429D01*
Y275235D01*
Y275006D01*
Y274759D01*
Y274513D01*
X120184Y274213D01*
Y273913D01*
Y273261D01*
X120202Y272556D01*
Y272538D01*
Y272468D01*
Y272362D01*
Y272221D01*
Y272027D01*
Y271816D01*
Y271569D01*
Y271287D01*
Y270987D01*
Y270670D01*
Y270317D01*
Y269965D01*
Y269189D01*
Y268378D01*
Y257608D01*
X116182D01*
Y258560D01*
Y258577D01*
Y258630D01*
Y258701D01*
Y258806D01*
Y259036D01*
X116165Y259247D01*
Y259265D01*
Y259300D01*
X116147Y259388D01*
X116130Y259494D01*
Y259512D01*
X116112Y259529D01*
X116077Y259512D01*
X116006Y259441D01*
X115953Y259388D01*
X115883Y259318D01*
X115865D01*
X115848Y259282D01*
X115724Y259194D01*
X115566Y259036D01*
X115372Y258859D01*
X115354Y258842D01*
X115319Y258824D01*
X115266Y258771D01*
X115195Y258701D01*
X115107Y258630D01*
X115001Y258542D01*
X114719Y258330D01*
X114384Y258119D01*
X113997Y257890D01*
X113556Y257678D01*
X113080Y257502D01*
X113062D01*
X113027Y257484D01*
X112939Y257467D01*
X112851Y257449D01*
X112727Y257414D01*
X112586Y257396D01*
X112410Y257361D01*
X112216Y257343D01*
X112022Y257308D01*
X111793Y257290D01*
X111300Y257273D01*
X110771Y257290D01*
X110189Y257343D01*
X110171D01*
X110101Y257361D01*
X110013Y257379D01*
X109872Y257396D01*
X109731Y257432D01*
X109537Y257467D01*
X109325Y257502D01*
X109114Y257572D01*
X108620Y257714D01*
X108109Y257908D01*
X107598Y258137D01*
X107122Y258436D01*
X107104Y258454D01*
X107069Y258472D01*
X106999Y258524D01*
X106910Y258595D01*
X106805Y258683D01*
X106681Y258806D01*
X106558Y258930D01*
X106399Y259088D01*
X106241Y259247D01*
X106082Y259441D01*
X105923Y259635D01*
X105747Y259864D01*
X105571Y260111D01*
X105412Y260375D01*
X105253Y260640D01*
X105095Y260939D01*
Y260957D01*
X105077Y260975D01*
X105059Y261028D01*
X105024Y261098D01*
X104954Y261292D01*
X104848Y261539D01*
X104742Y261838D01*
X104654Y262173D01*
X104548Y262526D01*
X104478Y262914D01*
Y262931D01*
X104460Y262967D01*
Y263020D01*
X104443Y263108D01*
X104425Y263196D01*
X104407Y263319D01*
X104390Y263460D01*
X104372Y263619D01*
X104337Y263971D01*
X104319Y264394D01*
X104284Y264870D01*
Y265382D01*
Y265399D01*
Y265470D01*
Y265576D01*
Y265734D01*
X104302Y265910D01*
Y266104D01*
X104319Y266334D01*
X104354Y266598D01*
X104372Y266862D01*
X104407Y267162D01*
X104495Y267761D01*
X104619Y268361D01*
X104795Y268960D01*
Y268978D01*
X104813Y269030D01*
X104848Y269119D01*
X104883Y269224D01*
X104936Y269348D01*
X105007Y269506D01*
X105077Y269683D01*
X105165Y269859D01*
X105377Y270282D01*
X105641Y270705D01*
X105941Y271146D01*
X106293Y271551D01*
X106311Y271569D01*
X106346Y271604D01*
X106399Y271639D01*
X106470Y271710D01*
X106558Y271798D01*
X106681Y271886D01*
X106946Y272115D01*
X107298Y272344D01*
X107668Y272591D01*
X108109Y272803D01*
X108567Y272997D01*
X108585D01*
X108620Y273014D01*
X108691Y273032D01*
X108797Y273067D01*
X108902Y273102D01*
X109061Y273138D01*
X109220Y273173D01*
X109413Y273208D01*
X109625Y273244D01*
X109854Y273279D01*
X110101Y273314D01*
X110365Y273332D01*
X110929Y273367D01*
X111687D01*
X111776Y273349D01*
X111881D01*
X112005Y273332D01*
X112287Y273296D01*
X112604Y273244D01*
X112939Y273173D01*
X113292Y273085D01*
X113609Y272979D01*
X113644Y272961D01*
X113750Y272926D01*
X113909Y272838D01*
X114102Y272732D01*
X114349Y272574D01*
X114614Y272397D01*
X114913Y272186D01*
X115213Y271921D01*
X115883Y271287D01*
Y279360D01*
X118456D01*
X118686Y279343D01*
D02*
G37*
G36*
X77366Y273085D02*
X77878D01*
X78001Y273067D01*
X78142D01*
X78266Y273050D01*
X78336D01*
X78371Y273032D01*
X78354Y273014D01*
X78336Y272961D01*
X78266Y272873D01*
X78177Y272732D01*
X78107Y272644D01*
X78036Y272521D01*
X77948Y272397D01*
X77842Y272239D01*
X77719Y272062D01*
X77578Y271868D01*
X77560Y271851D01*
X77543Y271816D01*
X77490Y271763D01*
X77437Y271675D01*
X77349Y271569D01*
X77261Y271428D01*
X77155Y271287D01*
X77032Y271128D01*
X76891Y270934D01*
X76750Y270723D01*
X76432Y270282D01*
X76062Y269771D01*
X75657Y269207D01*
X75639Y269189D01*
X75604Y269136D01*
X75551Y269048D01*
X75463Y268942D01*
X75357Y268801D01*
X75251Y268643D01*
X75110Y268466D01*
X74969Y268290D01*
X74669Y267867D01*
X74352Y267409D01*
X74017Y266950D01*
X73718Y266510D01*
X73700Y266492D01*
X73682Y266457D01*
X73647Y266404D01*
X73594Y266333D01*
X73471Y266157D01*
X73330Y265946D01*
X73189Y265734D01*
X73065Y265540D01*
X73012Y265452D01*
X72977Y265399D01*
X72942Y265346D01*
Y265329D01*
X72960Y265311D01*
X72995Y265258D01*
X73065Y265170D01*
X73171Y265029D01*
X73242Y264923D01*
X73330Y264818D01*
X73436Y264676D01*
X73541Y264535D01*
X73665Y264342D01*
X73823Y264148D01*
X73841Y264130D01*
X73859Y264095D01*
X73911Y264024D01*
X73964Y263936D01*
X74053Y263830D01*
X74141Y263707D01*
X74264Y263548D01*
X74387Y263372D01*
X74511Y263178D01*
X74669Y262967D01*
X75004Y262508D01*
X75375Y261979D01*
X75798Y261398D01*
X78671Y257608D01*
X76291Y257643D01*
X73911Y257678D01*
X72237Y259988D01*
Y260005D01*
X72202Y260023D01*
X72166Y260076D01*
X72113Y260146D01*
X71990Y260322D01*
X71814Y260552D01*
X71638Y260798D01*
X71426Y261080D01*
X71214Y261362D01*
X71021Y261627D01*
X71003Y261662D01*
X70932Y261733D01*
X70844Y261856D01*
X70756Y261979D01*
X70650Y262103D01*
X70545Y262226D01*
X70474Y262297D01*
X70439Y262332D01*
X70421D01*
X70404Y262314D01*
X70351Y262262D01*
X70298Y262191D01*
X70192Y262068D01*
X70069Y261909D01*
X69892Y261680D01*
X69875Y261644D01*
X69804Y261556D01*
X69681Y261415D01*
X69540Y261221D01*
X69364Y260975D01*
X69152Y260693D01*
X68905Y260375D01*
X68658Y260023D01*
X66913Y257678D01*
X64428Y257643D01*
X64252D01*
X64058Y257625D01*
X62401D01*
X62260Y257643D01*
X62136D01*
X62013Y257661D01*
X61925D01*
X61890Y257678D01*
X61907Y257696D01*
X61925Y257731D01*
X61995Y257819D01*
X62101Y257960D01*
X62172Y258048D01*
X62242Y258154D01*
X62348Y258295D01*
X62454Y258454D01*
X62595Y258630D01*
X62736Y258824D01*
X62753Y258842D01*
X62771Y258877D01*
X62824Y258948D01*
X62877Y259036D01*
X62965Y259141D01*
X63053Y259282D01*
X63176Y259423D01*
X63300Y259600D01*
X63441Y259794D01*
X63599Y260005D01*
X63934Y260481D01*
X64340Y260992D01*
X64763Y261574D01*
X64780Y261592D01*
X64816Y261644D01*
X64886Y261733D01*
X64974Y261856D01*
X65080Y261997D01*
X65203Y262173D01*
X65327Y262367D01*
X65486Y262561D01*
X65803Y263002D01*
X66138Y263478D01*
X66473Y263936D01*
X66772Y264377D01*
Y264394D01*
X66808Y264430D01*
X66843Y264482D01*
X66878Y264553D01*
X67002Y264729D01*
X67143Y264941D01*
X67266Y265152D01*
X67389Y265346D01*
X67425Y265417D01*
X67460Y265487D01*
X67477Y265540D01*
Y265558D01*
X67460Y265575D01*
X67425Y265611D01*
X67372Y265664D01*
X67301Y265752D01*
X67213Y265875D01*
X67090Y266034D01*
X66931Y266263D01*
X66913Y266298D01*
X66843Y266386D01*
X66755Y266527D01*
X66614Y266704D01*
X66455Y266933D01*
X66279Y267197D01*
X66067Y267479D01*
X65838Y267796D01*
Y267814D01*
X65803Y267832D01*
X65785Y267885D01*
X65732Y267938D01*
X65609Y268114D01*
X65433Y268361D01*
X65239Y268625D01*
X65010Y268960D01*
X64745Y269312D01*
X64463Y269700D01*
X64446Y269718D01*
X64428Y269753D01*
X64393Y269806D01*
X64340Y269877D01*
X64199Y270070D01*
X64005Y270317D01*
X63811Y270582D01*
X63599Y270881D01*
X63388Y271163D01*
X63194Y271428D01*
X63176Y271463D01*
X63106Y271534D01*
X63018Y271657D01*
X62912Y271798D01*
X62789Y271974D01*
X62648Y272150D01*
X62383Y272521D01*
X62365Y272538D01*
X62330Y272591D01*
X62277Y272679D01*
X62207Y272768D01*
X62154Y272856D01*
X62101Y272944D01*
X62066Y272997D01*
X62048Y273032D01*
X62066D01*
X62083Y273050D01*
X62136D01*
X62207Y273067D01*
X62330D01*
X62489Y273085D01*
X64005D01*
X64357Y273067D01*
X66649Y273032D01*
X68288Y270758D01*
Y270740D01*
X68324Y270723D01*
X68359Y270670D01*
X68394Y270599D01*
X68535Y270423D01*
X68694Y270194D01*
X68870Y269947D01*
X69082Y269665D01*
X69275Y269401D01*
X69487Y269136D01*
X69505Y269101D01*
X69575Y269030D01*
X69646Y268925D01*
X69751Y268801D01*
X69840Y268678D01*
X69928Y268572D01*
X69998Y268502D01*
X70033Y268466D01*
X70051D01*
X70069Y268484D01*
X70122Y268519D01*
X70192Y268607D01*
X70280Y268713D01*
X70421Y268872D01*
X70598Y269101D01*
X70615Y269136D01*
X70686Y269224D01*
X70792Y269383D01*
X70932Y269577D01*
X71109Y269824D01*
X71303Y270106D01*
X71532Y270405D01*
X71779Y270758D01*
X73453Y273102D01*
X77067D01*
X77366Y273085D01*
D02*
G37*
G36*
X101499Y268466D02*
Y257608D01*
X97339D01*
Y279360D01*
X101499D01*
Y268466D01*
D02*
G37*
G36*
X87908Y273314D02*
X88349Y273279D01*
X88772Y273244D01*
X88966Y273208D01*
X89142Y273173D01*
X89159D01*
X89230Y273155D01*
X89336Y273120D01*
X89477Y273085D01*
X89653Y273014D01*
X89865Y272944D01*
X90094Y272856D01*
X90340Y272768D01*
X90887Y272503D01*
X91187Y272362D01*
X91469Y272186D01*
X91768Y271992D01*
X92068Y271780D01*
X92350Y271551D01*
X92632Y271304D01*
X92650Y271287D01*
X92703Y271234D01*
X92773Y271163D01*
X92861Y271058D01*
X92985Y270917D01*
X93108Y270758D01*
X93249Y270564D01*
X93408Y270352D01*
X93566Y270123D01*
X93725Y269859D01*
X93884Y269577D01*
X94042Y269277D01*
X94183Y268960D01*
X94324Y268625D01*
X94430Y268272D01*
X94536Y267902D01*
Y267885D01*
Y267867D01*
X94553Y267814D01*
X94571Y267726D01*
X94589Y267638D01*
Y267514D01*
X94606Y267391D01*
X94624Y267232D01*
X94642Y267056D01*
X94659Y266862D01*
X94677Y266651D01*
X94694Y266439D01*
X94712Y265928D01*
X94730Y265346D01*
Y265329D01*
Y265276D01*
Y265188D01*
Y265082D01*
Y264941D01*
X94712Y264782D01*
Y264430D01*
X94677Y264024D01*
X94642Y263601D01*
X94606Y263178D01*
X94536Y262808D01*
Y262790D01*
X94518Y262720D01*
X94483Y262614D01*
X94448Y262473D01*
X94377Y262297D01*
X94307Y262085D01*
X94219Y261856D01*
X94130Y261609D01*
X93866Y261080D01*
X93725Y260798D01*
X93549Y260516D01*
X93372Y260217D01*
X93161Y259935D01*
X92932Y259670D01*
X92685Y259406D01*
X92667Y259388D01*
X92614Y259353D01*
X92544Y259282D01*
X92438Y259194D01*
X92297Y259071D01*
X92139Y258948D01*
X91945Y258806D01*
X91733Y258665D01*
X91486Y258507D01*
X91222Y258348D01*
X90940Y258190D01*
X90640Y258031D01*
X90305Y257890D01*
X89953Y257749D01*
X89583Y257625D01*
X89195Y257520D01*
X89177D01*
X89159Y257502D01*
X89089D01*
X89018Y257484D01*
X88930Y257467D01*
X88825Y257449D01*
X88684Y257414D01*
X88525Y257396D01*
X88366Y257379D01*
X88172Y257343D01*
X87749Y257308D01*
X87256Y257290D01*
X86692Y257273D01*
X86304D01*
X86145Y257290D01*
X85793Y257308D01*
X85387Y257326D01*
X84982Y257379D01*
X84576Y257432D01*
X84206Y257520D01*
X84188D01*
X84118Y257537D01*
X84012Y257572D01*
X83871Y257608D01*
X83695Y257678D01*
X83501Y257731D01*
X83289Y257819D01*
X83043Y257907D01*
X82531Y258154D01*
X81985Y258436D01*
X81439Y258789D01*
X81192Y258983D01*
X80945Y259194D01*
X80927Y259212D01*
X80892Y259247D01*
X80822Y259318D01*
X80733Y259406D01*
X80628Y259529D01*
X80504Y259670D01*
X80381Y259846D01*
X80222Y260040D01*
X80064Y260252D01*
X79905Y260481D01*
X79746Y260746D01*
X79588Y261028D01*
X79429Y261327D01*
X79288Y261644D01*
X79129Y261979D01*
X79006Y262332D01*
X78988Y262350D01*
X78971Y262402D01*
X78935Y262508D01*
X78900Y262632D01*
X78865Y262773D01*
X78830Y262949D01*
X78794Y263125D01*
X78777Y263337D01*
Y263372D01*
Y263442D01*
X78759Y263601D01*
Y263795D01*
Y264077D01*
X78741Y264412D01*
Y264606D01*
Y264818D01*
Y265047D01*
Y265293D01*
Y265311D01*
Y265364D01*
Y265434D01*
Y265523D01*
Y265646D01*
Y265769D01*
Y266069D01*
X78759Y266404D01*
Y266721D01*
X78777Y267038D01*
Y267162D01*
X78794Y267285D01*
Y267321D01*
X78812Y267391D01*
Y267497D01*
X78847Y267656D01*
X78882Y267832D01*
X78918Y268043D01*
X79041Y268502D01*
Y268519D01*
X79059Y268572D01*
X79094Y268660D01*
X79147Y268784D01*
X79200Y268925D01*
X79270Y269101D01*
X79341Y269277D01*
X79447Y269489D01*
X79676Y269930D01*
X79975Y270405D01*
X80328Y270864D01*
X80751Y271322D01*
X80769Y271340D01*
X80804Y271375D01*
X80874Y271428D01*
X80963Y271516D01*
X81086Y271604D01*
X81227Y271710D01*
X81386Y271833D01*
X81580Y271974D01*
X81791Y272115D01*
X82020Y272256D01*
X82267Y272397D01*
X82531Y272538D01*
X82831Y272679D01*
X83131Y272820D01*
X83801Y273067D01*
X83836Y273085D01*
X83871D01*
X83942Y273102D01*
X84012Y273120D01*
X84118Y273138D01*
X84241Y273155D01*
X84382Y273191D01*
X84541Y273208D01*
X84735Y273226D01*
X84946Y273261D01*
X85176Y273279D01*
X85440Y273296D01*
X85722Y273314D01*
X86039Y273332D01*
X87450D01*
X87908Y273314D01*
D02*
G37*
G36*
X143170Y288544D02*
X143188D01*
X143276Y288527D01*
X143382Y288509D01*
X143541Y288491D01*
X143735Y288456D01*
X143964Y288421D01*
X144228Y288368D01*
X144510Y288315D01*
X144827Y288245D01*
X145145Y288174D01*
X145850Y288015D01*
X146573Y287804D01*
X147313Y287575D01*
X147331D01*
X147401Y287540D01*
X147507Y287504D01*
X147648Y287451D01*
X147824Y287381D01*
X148018Y287310D01*
X148247Y287222D01*
X148511Y287116D01*
X148776Y286993D01*
X149076Y286870D01*
X149693Y286570D01*
X150362Y286235D01*
X151015Y285865D01*
X151032Y285847D01*
X151085Y285812D01*
X151191Y285759D01*
X151314Y285689D01*
X151455Y285583D01*
X151632Y285459D01*
X151843Y285318D01*
X152055Y285177D01*
X152548Y284807D01*
X153077Y284402D01*
X153641Y283926D01*
X154188Y283415D01*
X154205Y283397D01*
X154258Y283344D01*
X154329Y283274D01*
X154434Y283168D01*
X154575Y283027D01*
X154717Y282868D01*
X154893Y282692D01*
X155069Y282480D01*
X155281Y282251D01*
X155492Y282004D01*
X155950Y281476D01*
X156409Y280876D01*
X156867Y280242D01*
X156885Y280224D01*
X156920Y280154D01*
X156990Y280048D01*
X157079Y279907D01*
X157184Y279713D01*
X157308Y279501D01*
X157449Y279254D01*
X157607Y278972D01*
X157766Y278673D01*
X157942Y278338D01*
X158119Y277985D01*
X158295Y277633D01*
X158630Y276840D01*
X158947Y276011D01*
Y275993D01*
X158982Y275905D01*
X159018Y275782D01*
X159071Y275623D01*
X159123Y275412D01*
X159194Y275165D01*
X159264Y274883D01*
X159335Y274583D01*
X159423Y274231D01*
X159494Y273878D01*
X159564Y273490D01*
X159652Y273085D01*
X159776Y272239D01*
X159864Y271357D01*
Y271322D01*
Y271252D01*
X159881Y271128D01*
Y270952D01*
Y270740D01*
Y270476D01*
X159899Y270194D01*
X159881Y269877D01*
Y269524D01*
X159864Y269154D01*
X159846Y268766D01*
X159811Y268361D01*
X159723Y267514D01*
X159582Y266633D01*
Y266598D01*
X159564Y266527D01*
X159529Y266404D01*
X159494Y266228D01*
X159458Y266016D01*
X159388Y265769D01*
X159317Y265487D01*
X159247Y265170D01*
X159141Y264835D01*
X159035Y264483D01*
X158788Y263725D01*
X158471Y262914D01*
X158119Y262103D01*
X158101Y262085D01*
X158066Y262015D01*
X158013Y261909D01*
X157942Y261750D01*
X157854Y261574D01*
X157748Y261362D01*
X157607Y261133D01*
X157466Y260869D01*
X157308Y260587D01*
X157131Y260287D01*
X156726Y259653D01*
X156268Y259000D01*
X155774Y258348D01*
X155757Y258330D01*
X155704Y258278D01*
X155633Y258190D01*
X155527Y258066D01*
X155404Y257908D01*
X155245Y257731D01*
X155069Y257537D01*
X154875Y257326D01*
X154646Y257097D01*
X154417Y256850D01*
X153888Y256339D01*
X153306Y255810D01*
X152689Y255299D01*
X152672Y255281D01*
X152619Y255246D01*
X152513Y255175D01*
X152390Y255069D01*
X152231Y254964D01*
X152037Y254823D01*
X151826Y254682D01*
X151579Y254523D01*
X151314Y254347D01*
X151032Y254170D01*
X150715Y253976D01*
X150398Y253800D01*
X149710Y253430D01*
X148970Y253078D01*
X148952Y253060D01*
X148882Y253042D01*
X148776Y252989D01*
X148617Y252936D01*
X148441Y252848D01*
X148230Y252760D01*
X147965Y252672D01*
X147701Y252566D01*
X147383Y252460D01*
X147066Y252337D01*
X146713Y252231D01*
X146343Y252108D01*
X145568Y251896D01*
X144739Y251702D01*
X144722D01*
X144686Y251685D01*
X144598D01*
X144510Y251667D01*
X144369Y251650D01*
X144210Y251614D01*
X144034Y251597D01*
X143823Y251579D01*
X143593Y251544D01*
X143329Y251526D01*
X143029Y251509D01*
X142730Y251473D01*
X142377Y251456D01*
X142025D01*
X141637Y251438D01*
X140667D01*
X140456Y251456D01*
X140209D01*
X139962Y251473D01*
X139398Y251509D01*
X138834Y251544D01*
X138287Y251614D01*
X138023Y251650D01*
X137794Y251702D01*
X137759D01*
X137671Y251738D01*
X137529Y251773D01*
X137336Y251808D01*
X137089Y251879D01*
X136807Y251949D01*
X136489Y252055D01*
X136137Y252161D01*
X135767Y252267D01*
X135361Y252408D01*
X134938Y252549D01*
X134498Y252707D01*
X133616Y253078D01*
X132717Y253501D01*
X132682Y253518D01*
X132611Y253553D01*
X132488Y253624D01*
X132312Y253712D01*
X132118Y253836D01*
X131871Y253976D01*
X131589Y254135D01*
X131289Y254329D01*
X130972Y254523D01*
X130637Y254752D01*
X130285Y254999D01*
X129914Y255263D01*
X129174Y255845D01*
X128451Y256480D01*
X127341Y257608D01*
X129192D01*
Y258348D01*
Y258366D01*
Y258401D01*
Y258472D01*
Y258542D01*
Y258718D01*
X129209Y258895D01*
Y258912D01*
Y258930D01*
X129227Y259018D01*
X129245Y259088D01*
Y259106D01*
X129262Y259124D01*
X129280D01*
X129315Y259106D01*
X129403Y259053D01*
X129527Y258948D01*
X129562Y258912D01*
X129650Y258842D01*
X129773Y258718D01*
X129932Y258560D01*
X129950D01*
X129967Y258524D01*
X130020Y258489D01*
X130091Y258436D01*
X130267Y258295D01*
X130514Y258137D01*
X130813Y257943D01*
X131148Y257766D01*
X131518Y257590D01*
X131906Y257449D01*
X131924D01*
X131959Y257432D01*
X132012Y257414D01*
X132100Y257396D01*
X132206Y257379D01*
X132329Y257343D01*
X132470Y257326D01*
X132629Y257290D01*
X132999Y257255D01*
X133422Y257220D01*
X133916D01*
X134445Y257238D01*
X134533D01*
X134639Y257255D01*
X134762Y257273D01*
X134938Y257290D01*
X135115Y257326D01*
X135344Y257361D01*
X135573Y257414D01*
X136084Y257537D01*
X136630Y257714D01*
X137177Y257960D01*
X137441Y258119D01*
X137688Y258278D01*
X137706Y258295D01*
X137741Y258330D01*
X137812Y258383D01*
X137900Y258454D01*
X138006Y258542D01*
X138129Y258665D01*
X138270Y258806D01*
X138411Y258948D01*
X138570Y259124D01*
X138728Y259318D01*
X138869Y259529D01*
X139028Y259758D01*
X139310Y260270D01*
X139433Y260534D01*
X139539Y260834D01*
Y260851D01*
X139557Y260922D01*
X139592Y261028D01*
X139610Y261204D01*
X139645Y261415D01*
X139680Y261697D01*
X139715Y262032D01*
X139733Y262420D01*
Y262438D01*
Y262473D01*
Y262561D01*
Y262667D01*
X139751Y262808D01*
Y262984D01*
Y263213D01*
X139768Y263478D01*
Y263778D01*
X139786Y264130D01*
Y264535D01*
X139803Y264994D01*
Y265487D01*
X139821Y266051D01*
Y266668D01*
X139839Y267338D01*
X139874Y273102D01*
X135555Y273032D01*
Y268466D01*
Y268449D01*
Y268431D01*
Y268378D01*
Y268308D01*
Y268132D01*
Y267902D01*
Y267620D01*
Y267285D01*
Y266933D01*
X135538Y266563D01*
Y265769D01*
X135520Y265364D01*
Y264994D01*
X135502Y264624D01*
Y264289D01*
X135485Y263989D01*
X135467Y263725D01*
Y263707D01*
Y263672D01*
X135449Y263601D01*
Y263531D01*
X135414Y263319D01*
X135379Y263055D01*
X135309Y262790D01*
X135238Y262508D01*
X135132Y262262D01*
X135079Y262156D01*
X135026Y262068D01*
X135009Y262050D01*
X134956Y261979D01*
X134868Y261874D01*
X134780Y261768D01*
X134656Y261627D01*
X134515Y261504D01*
X134374Y261398D01*
X134216Y261310D01*
X134198D01*
X134145Y261274D01*
X134039Y261257D01*
X133898Y261221D01*
X133722Y261169D01*
X133493Y261133D01*
X133228Y261098D01*
X132911Y261063D01*
X132576D01*
X132453Y261080D01*
X132171Y261098D01*
X131836Y261133D01*
X131483Y261204D01*
X131148Y261292D01*
X130849Y261415D01*
X130831D01*
X130813Y261433D01*
X130725Y261486D01*
X130584Y261592D01*
X130408Y261733D01*
X130214Y261927D01*
X130020Y262173D01*
X129826Y262455D01*
X129650Y262808D01*
Y262826D01*
X129632Y262878D01*
X129597Y262967D01*
X129562Y263108D01*
X129527Y263284D01*
X129491Y263495D01*
X129456Y263760D01*
X129438Y264060D01*
Y264077D01*
Y264112D01*
Y264165D01*
X129421Y264253D01*
Y264377D01*
Y264518D01*
Y264694D01*
X129403Y264923D01*
Y265170D01*
X129386Y265470D01*
Y265822D01*
Y266210D01*
X129368Y266633D01*
Y267109D01*
X129350Y267656D01*
Y268237D01*
X129315Y273102D01*
X125032D01*
Y266968D01*
Y260869D01*
X124556Y261803D01*
Y261821D01*
X124538Y261856D01*
X124503Y261909D01*
X124467Y261979D01*
X124415Y262068D01*
X124362Y262191D01*
X124309Y262314D01*
X124238Y262473D01*
X124080Y262826D01*
X123921Y263231D01*
X123745Y263707D01*
X123568Y264218D01*
Y264236D01*
X123551Y264289D01*
X123516Y264359D01*
X123498Y264465D01*
X123445Y264588D01*
X123410Y264747D01*
X123357Y264906D01*
X123304Y265100D01*
X123198Y265505D01*
X123092Y265946D01*
X122987Y266404D01*
X122916Y266862D01*
Y266880D01*
X122899Y266915D01*
Y266986D01*
X122881Y267091D01*
X122863Y267215D01*
X122846Y267356D01*
X122828Y267532D01*
X122793Y267726D01*
X122775Y267938D01*
X122758Y268184D01*
X122740Y268431D01*
X122722Y268713D01*
X122705Y269013D01*
Y269312D01*
X122687Y269982D01*
Y270000D01*
Y270070D01*
Y270159D01*
Y270300D01*
Y270458D01*
X122705Y270635D01*
Y270846D01*
X122722Y271075D01*
X122740Y271569D01*
X122775Y272080D01*
X122846Y272609D01*
X122916Y273102D01*
Y273138D01*
X122934Y273226D01*
X122969Y273384D01*
X123004Y273596D01*
X123057Y273843D01*
X123128Y274142D01*
X123216Y274477D01*
X123304Y274848D01*
X123427Y275253D01*
X123551Y275676D01*
X123692Y276117D01*
X123850Y276575D01*
X124027Y277051D01*
X124221Y277509D01*
X124432Y277985D01*
X124661Y278461D01*
X124679Y278496D01*
X124714Y278567D01*
X124802Y278708D01*
X124891Y278884D01*
X125014Y279096D01*
X125173Y279360D01*
X125349Y279642D01*
X125560Y279960D01*
X125772Y280294D01*
X126019Y280647D01*
X126301Y281017D01*
X126583Y281405D01*
X126882Y281793D01*
X127200Y282181D01*
X127905Y282939D01*
X127922Y282956D01*
X127993Y283027D01*
X128099Y283133D01*
X128240Y283274D01*
X128434Y283450D01*
X128645Y283644D01*
X128892Y283873D01*
X129174Y284102D01*
X129491Y284366D01*
X129826Y284631D01*
X130197Y284913D01*
X130567Y285195D01*
X130990Y285477D01*
X131413Y285759D01*
X132312Y286306D01*
X132347Y286323D01*
X132417Y286358D01*
X132559Y286429D01*
X132753Y286535D01*
X132982Y286640D01*
X133264Y286782D01*
X133581Y286922D01*
X133933Y287064D01*
X134321Y287222D01*
X134744Y287398D01*
X135185Y287557D01*
X135661Y287716D01*
X136155Y287874D01*
X136648Y288015D01*
X137177Y288156D01*
X137706Y288280D01*
X137741D01*
X137794Y288297D01*
X137865D01*
X137953Y288315D01*
X138076Y288333D01*
X138199Y288350D01*
X138358Y288368D01*
X138552Y288386D01*
X138746Y288403D01*
X138975Y288421D01*
X139222Y288438D01*
X139504Y288456D01*
X139803Y288474D01*
X140138Y288491D01*
X140491Y288509D01*
X140579D01*
X140667Y288527D01*
X140967D01*
X141143Y288544D01*
X141337D01*
X141549Y288562D01*
X143012D01*
X143170Y288544D01*
D02*
G37*
G36*
X115721Y223100D02*
X114045D01*
Y224672D01*
X113814Y224360D01*
X113560Y224083D01*
X113294Y223840D01*
X113005Y223632D01*
X112716Y223459D01*
X112427Y223309D01*
X112127Y223193D01*
X111849Y223100D01*
X111572Y223020D01*
X111329Y222962D01*
X111098Y222927D01*
X110902Y222892D01*
X110740Y222881D01*
X110613Y222869D01*
X110509D01*
X110127Y222881D01*
X109758Y222927D01*
X109423Y222996D01*
X109099Y223077D01*
X108810Y223181D01*
X108533Y223297D01*
X108290Y223424D01*
X108070Y223551D01*
X107874Y223667D01*
X107689Y223794D01*
X107550Y223909D01*
X107423Y224013D01*
X107331Y224094D01*
X107261Y224164D01*
X107215Y224210D01*
X107204Y224221D01*
X106995Y224487D01*
X106811Y224776D01*
X106649Y225077D01*
X106510Y225389D01*
X106395Y225712D01*
X106291Y226024D01*
X106210Y226336D01*
X106152Y226637D01*
X106106Y226926D01*
X106059Y227192D01*
X106036Y227423D01*
X106025Y227631D01*
X106013Y227804D01*
X106002Y227873D01*
Y227931D01*
Y227978D01*
Y228012D01*
Y228024D01*
Y228035D01*
X106013Y228486D01*
X106048Y228902D01*
X106117Y229295D01*
X106187Y229665D01*
X106279Y230012D01*
X106383Y230324D01*
X106487Y230601D01*
X106603Y230867D01*
X106718Y231086D01*
X106822Y231294D01*
X106926Y231456D01*
X107019Y231595D01*
X107088Y231710D01*
X107146Y231791D01*
X107192Y231838D01*
X107204Y231849D01*
X107435Y232092D01*
X107689Y232300D01*
X107955Y232485D01*
X108232Y232635D01*
X108498Y232774D01*
X108775Y232878D01*
X109041Y232970D01*
X109307Y233039D01*
X109550Y233097D01*
X109781Y233144D01*
X109989Y233167D01*
X110162Y233190D01*
X110301Y233201D01*
X110416Y233213D01*
X110509D01*
X110925Y233190D01*
X111329Y233144D01*
X111688Y233051D01*
X112034Y232935D01*
X112346Y232808D01*
X112635Y232658D01*
X112890Y232496D01*
X113121Y232334D01*
X113329Y232173D01*
X113502Y232011D01*
X113652Y231861D01*
X113779Y231733D01*
X113872Y231618D01*
X113941Y231537D01*
X113988Y231479D01*
X113999Y231456D01*
Y237131D01*
X115721D01*
Y223100D01*
D02*
G37*
G36*
X44333Y233201D02*
X44703Y233155D01*
X45027Y233086D01*
X45177Y233051D01*
X45316Y233016D01*
X45431Y232970D01*
X45535Y232935D01*
X45639Y232901D01*
X45709Y232878D01*
X45778Y232843D01*
X45824Y232831D01*
X45847Y232808D01*
X45859D01*
X46148Y232647D01*
X46414Y232462D01*
X46633Y232277D01*
X46830Y232092D01*
X46992Y231930D01*
X47107Y231803D01*
X47142Y231757D01*
X47176Y231722D01*
X47188Y231699D01*
X47200Y231687D01*
Y232982D01*
X48875D01*
Y223100D01*
X47153D01*
Y228925D01*
X47142Y229168D01*
X47119Y229399D01*
X47084Y229607D01*
X47038Y229804D01*
X46980Y229977D01*
X46911Y230150D01*
X46853Y230301D01*
X46772Y230428D01*
X46703Y230543D01*
X46645Y230647D01*
X46575Y230740D01*
X46518Y230809D01*
X46472Y230867D01*
X46437Y230901D01*
X46414Y230924D01*
X46402Y230936D01*
X46252Y231052D01*
X46090Y231167D01*
X45928Y231248D01*
X45767Y231329D01*
X45593Y231398D01*
X45420Y231456D01*
X45096Y231537D01*
X44946Y231560D01*
X44807Y231583D01*
X44680Y231595D01*
X44576Y231606D01*
X44495Y231618D01*
X44368D01*
X44125Y231606D01*
X43906Y231583D01*
X43698Y231549D01*
X43513Y231514D01*
X43340Y231456D01*
X43178Y231398D01*
X43039Y231329D01*
X42912Y231271D01*
X42796Y231202D01*
X42704Y231133D01*
X42623Y231075D01*
X42554Y231028D01*
X42507Y230982D01*
X42461Y230948D01*
X42450Y230924D01*
X42438Y230913D01*
X42334Y230774D01*
X42230Y230613D01*
X42149Y230451D01*
X42080Y230277D01*
X41976Y229907D01*
X41906Y229561D01*
X41872Y229387D01*
X41860Y229237D01*
X41849Y229098D01*
X41837Y228971D01*
X41826Y228867D01*
Y228798D01*
Y228740D01*
Y228729D01*
Y223100D01*
X40104D01*
Y228925D01*
X40092Y229168D01*
X40069Y229399D01*
X40034Y229607D01*
X39988Y229804D01*
X39930Y229977D01*
X39861Y230150D01*
X39792Y230301D01*
X39722Y230428D01*
X39653Y230543D01*
X39583Y230647D01*
X39514Y230740D01*
X39456Y230809D01*
X39410Y230867D01*
X39376Y230901D01*
X39352Y230924D01*
X39341Y230936D01*
X39191Y231052D01*
X39029Y231167D01*
X38867Y231248D01*
X38694Y231329D01*
X38532Y231398D01*
X38359Y231456D01*
X38035Y231537D01*
X37896Y231560D01*
X37757Y231583D01*
X37630Y231595D01*
X37526Y231606D01*
X37434Y231618D01*
X37318D01*
X37076Y231606D01*
X36856Y231583D01*
X36648Y231549D01*
X36452Y231514D01*
X36278Y231456D01*
X36116Y231398D01*
X35978Y231329D01*
X35851Y231271D01*
X35735Y231202D01*
X35643Y231133D01*
X35562Y231075D01*
X35492Y231028D01*
X35446Y230982D01*
X35400Y230948D01*
X35388Y230924D01*
X35377Y230913D01*
X35273Y230774D01*
X35169Y230613D01*
X35088Y230451D01*
X35018Y230277D01*
X34915Y229907D01*
X34845Y229561D01*
X34811Y229387D01*
X34799Y229237D01*
X34787Y229098D01*
X34776Y228971D01*
X34764Y228867D01*
Y228798D01*
Y228740D01*
Y228729D01*
Y223100D01*
X33042D01*
Y229006D01*
X33054Y229376D01*
X33089Y229723D01*
X33135Y230046D01*
X33193Y230347D01*
X33273Y230636D01*
X33354Y230890D01*
X33447Y231121D01*
X33539Y231329D01*
X33632Y231514D01*
X33724Y231676D01*
X33805Y231814D01*
X33886Y231930D01*
X33944Y232011D01*
X33990Y232080D01*
X34025Y232115D01*
X34036Y232127D01*
X34233Y232323D01*
X34441Y232485D01*
X34660Y232635D01*
X34903Y232750D01*
X35134Y232855D01*
X35377Y232947D01*
X35608Y233016D01*
X35839Y233074D01*
X36059Y233120D01*
X36255Y233155D01*
X36440Y233178D01*
X36590Y233201D01*
X36717D01*
X36821Y233213D01*
X36902D01*
X37365Y233190D01*
X37781Y233132D01*
X38174Y233039D01*
X38543Y232912D01*
X38867Y232762D01*
X39167Y232600D01*
X39433Y232427D01*
X39676Y232242D01*
X39884Y232057D01*
X40057Y231884D01*
X40208Y231722D01*
X40335Y231572D01*
X40427Y231456D01*
X40485Y231352D01*
X40531Y231294D01*
X40543Y231271D01*
X40728Y231618D01*
X40947Y231907D01*
X41190Y232173D01*
X41456Y232392D01*
X41733Y232577D01*
X42010Y232739D01*
X42299Y232866D01*
X42577Y232970D01*
X42854Y233051D01*
X43108Y233109D01*
X43328Y233155D01*
X43536Y233178D01*
X43709Y233201D01*
X43767D01*
X43836Y233213D01*
X43941D01*
X44333Y233201D01*
D02*
G37*
G36*
X84402Y228070D02*
X88111Y223100D01*
X86124D01*
X83350Y226891D01*
X80541Y223100D01*
X78496D01*
X82206Y228058D01*
X78565Y232982D01*
X80541D01*
X83234Y229237D01*
X85962Y232982D01*
X88031D01*
X84402Y228070D01*
D02*
G37*
G36*
X124262Y227735D02*
X117917D01*
Y229457D01*
X124262D01*
Y227735D01*
D02*
G37*
G36*
X185641Y223100D02*
X183803D01*
X181330Y231005D01*
X178869Y223100D01*
X177031D01*
X173691Y232982D01*
X175344D01*
X177955Y224892D01*
X180406Y232982D01*
X182208D01*
X184659Y224950D01*
X187224Y232982D01*
X188958D01*
X185641Y223100D01*
D02*
G37*
G36*
X169970D02*
X168132D01*
X165659Y231005D01*
X163197Y223100D01*
X161360D01*
X158020Y232982D01*
X159672D01*
X162284Y224892D01*
X164734Y232982D01*
X166537D01*
X168987Y224950D01*
X171553Y232982D01*
X173286D01*
X169970Y223100D01*
D02*
G37*
G36*
X154298D02*
X152461D01*
X149987Y231005D01*
X147526Y223100D01*
X145688D01*
X142348Y232982D01*
X144001D01*
X146613Y224892D01*
X149063Y232982D01*
X150866D01*
X153316Y224950D01*
X155882Y232982D01*
X157615D01*
X154298Y223100D01*
D02*
G37*
G36*
X135333Y226833D02*
X135322Y226579D01*
X135310Y226325D01*
X135287Y226094D01*
X135252Y225886D01*
X135218Y225678D01*
X135171Y225493D01*
X135125Y225319D01*
X135079Y225158D01*
X135033Y225019D01*
X134986Y224903D01*
X134940Y224788D01*
X134906Y224707D01*
X134871Y224638D01*
X134848Y224591D01*
X134825Y224557D01*
Y224545D01*
X134617Y224233D01*
X134386Y223979D01*
X134143Y223759D01*
X133923Y223574D01*
X133715Y223436D01*
X133623Y223378D01*
X133553Y223343D01*
X133484Y223309D01*
X133438Y223285D01*
X133415Y223262D01*
X133403D01*
X133056Y223135D01*
X132698Y223031D01*
X132352Y222962D01*
X132028Y222916D01*
X131878Y222904D01*
X131739Y222892D01*
X131623Y222881D01*
X131519D01*
X131439Y222869D01*
X131323D01*
X130942Y222881D01*
X130595Y222927D01*
X130283Y222985D01*
X130144Y223020D01*
X130006Y223066D01*
X129890Y223100D01*
X129786Y223135D01*
X129705Y223158D01*
X129624Y223193D01*
X129566Y223216D01*
X129520Y223239D01*
X129497Y223251D01*
X129485D01*
X129197Y223412D01*
X128942Y223597D01*
X128711Y223782D01*
X128526Y223967D01*
X128364Y224141D01*
X128249Y224268D01*
X128214Y224326D01*
X128180Y224360D01*
X128168Y224383D01*
X128156Y224395D01*
Y223100D01*
X126458D01*
Y232982D01*
X128180D01*
Y227446D01*
X128191Y227157D01*
X128214Y226891D01*
X128249Y226649D01*
X128295Y226417D01*
X128364Y226209D01*
X128422Y226024D01*
X128491Y225863D01*
X128561Y225712D01*
X128642Y225574D01*
X128711Y225470D01*
X128769Y225366D01*
X128827Y225296D01*
X128884Y225238D01*
X128919Y225192D01*
X128942Y225169D01*
X128954Y225158D01*
X129104Y225030D01*
X129254Y224926D01*
X129428Y224834D01*
X129589Y224753D01*
X129763Y224684D01*
X129936Y224626D01*
X130260Y224545D01*
X130410Y224510D01*
X130549Y224487D01*
X130664Y224476D01*
X130780Y224464D01*
X130861Y224453D01*
X130988D01*
X131219Y224464D01*
X131427Y224476D01*
X131635Y224510D01*
X131820Y224545D01*
X131993Y224603D01*
X132155Y224649D01*
X132305Y224707D01*
X132432Y224765D01*
X132548Y224823D01*
X132652Y224880D01*
X132733Y224938D01*
X132802Y224984D01*
X132860Y225019D01*
X132895Y225054D01*
X132918Y225065D01*
X132929Y225077D01*
X133045Y225204D01*
X133149Y225343D01*
X133241Y225493D01*
X133322Y225655D01*
X133392Y225816D01*
X133449Y225990D01*
X133530Y226313D01*
X133553Y226475D01*
X133577Y226614D01*
X133588Y226752D01*
X133600Y226856D01*
X133611Y226961D01*
Y227030D01*
Y227076D01*
Y227088D01*
Y232982D01*
X135333D01*
Y226833D01*
D02*
G37*
G36*
X67505Y233201D02*
X67759Y233190D01*
X68002Y233155D01*
X68233Y233120D01*
X68453Y233074D01*
X68661Y233028D01*
X68846Y232982D01*
X69031Y232924D01*
X69193Y232866D01*
X69331Y232820D01*
X69447Y232774D01*
X69551Y232727D01*
X69632Y232693D01*
X69701Y232658D01*
X69736Y232647D01*
X69747Y232635D01*
X69944Y232519D01*
X70129Y232404D01*
X70302Y232265D01*
X70475Y232127D01*
X70626Y231988D01*
X70764Y231838D01*
X70891Y231699D01*
X71007Y231560D01*
X71111Y231433D01*
X71192Y231306D01*
X71273Y231202D01*
X71331Y231098D01*
X71377Y231028D01*
X71423Y230959D01*
X71435Y230924D01*
X71446Y230913D01*
X71550Y230693D01*
X71643Y230462D01*
X71735Y230220D01*
X71804Y229977D01*
X71908Y229503D01*
X71955Y229272D01*
X71978Y229041D01*
X72013Y228833D01*
X72024Y228648D01*
X72036Y228474D01*
X72047Y228324D01*
X72059Y228209D01*
Y228116D01*
Y228058D01*
Y228035D01*
X72047Y227723D01*
X72036Y227411D01*
X72001Y227122D01*
X71966Y226856D01*
X71920Y226602D01*
X71862Y226360D01*
X71804Y226140D01*
X71747Y225944D01*
X71700Y225759D01*
X71643Y225608D01*
X71585Y225470D01*
X71539Y225354D01*
X71504Y225262D01*
X71469Y225204D01*
X71458Y225158D01*
X71446Y225146D01*
X71331Y224938D01*
X71192Y224741D01*
X71065Y224568D01*
X70926Y224395D01*
X70776Y224245D01*
X70637Y224106D01*
X70498Y223979D01*
X70371Y223863D01*
X70244Y223759D01*
X70129Y223678D01*
X70013Y223597D01*
X69921Y223540D01*
X69851Y223493D01*
X69794Y223459D01*
X69759Y223447D01*
X69747Y223436D01*
X69539Y223332D01*
X69331Y223251D01*
X69112Y223170D01*
X68892Y223112D01*
X68476Y223008D01*
X68268Y222973D01*
X68083Y222939D01*
X67898Y222915D01*
X67736Y222904D01*
X67598Y222892D01*
X67471Y222881D01*
X67366Y222869D01*
X67228D01*
X66870Y222881D01*
X66523Y222915D01*
X66199Y222962D01*
X65910Y223020D01*
X65633Y223089D01*
X65379Y223170D01*
X65148Y223262D01*
X64940Y223355D01*
X64755Y223436D01*
X64593Y223528D01*
X64454Y223609D01*
X64339Y223678D01*
X64258Y223736D01*
X64188Y223782D01*
X64154Y223817D01*
X64142Y223829D01*
X63946Y224013D01*
X63772Y224221D01*
X63622Y224429D01*
X63483Y224649D01*
X63368Y224857D01*
X63264Y225077D01*
X63171Y225285D01*
X63102Y225493D01*
X63044Y225689D01*
X62986Y225863D01*
X62952Y226024D01*
X62929Y226163D01*
X62906Y226267D01*
X62894Y226360D01*
X62882Y226406D01*
Y226429D01*
X64604D01*
X64639Y226244D01*
X64685Y226082D01*
X64801Y225782D01*
X64963Y225516D01*
X65136Y225285D01*
X65344Y225100D01*
X65564Y224938D01*
X65795Y224799D01*
X66026Y224695D01*
X66257Y224614D01*
X66477Y224557D01*
X66685Y224510D01*
X66858Y224487D01*
X67008Y224464D01*
X67124Y224453D01*
X67228D01*
X67482Y224464D01*
X67725Y224487D01*
X67956Y224534D01*
X68176Y224591D01*
X68372Y224649D01*
X68557Y224718D01*
X68730Y224799D01*
X68881Y224880D01*
X69019Y224961D01*
X69135Y225042D01*
X69239Y225111D01*
X69331Y225169D01*
X69389Y225227D01*
X69447Y225273D01*
X69470Y225296D01*
X69482Y225308D01*
X69632Y225481D01*
X69759Y225678D01*
X69863Y225886D01*
X69967Y226105D01*
X70048Y226325D01*
X70106Y226556D01*
X70163Y226776D01*
X70210Y226995D01*
X70244Y227203D01*
X70267Y227400D01*
X70290Y227573D01*
X70302Y227735D01*
Y227862D01*
X70314Y227954D01*
Y228012D01*
Y228035D01*
X70302Y228370D01*
X70279Y228682D01*
X70233Y228983D01*
X70186Y229249D01*
X70117Y229492D01*
X70048Y229711D01*
X69978Y229907D01*
X69897Y230092D01*
X69817Y230243D01*
X69747Y230381D01*
X69678Y230497D01*
X69609Y230589D01*
X69562Y230659D01*
X69516Y230716D01*
X69493Y230740D01*
X69482Y230751D01*
X69320Y230901D01*
X69146Y231040D01*
X68961Y231156D01*
X68776Y231248D01*
X68592Y231341D01*
X68407Y231410D01*
X68222Y231468D01*
X68048Y231514D01*
X67887Y231549D01*
X67736Y231572D01*
X67598Y231595D01*
X67482Y231606D01*
X67390Y231618D01*
X67043D01*
X66835Y231595D01*
X66465Y231537D01*
X66142Y231433D01*
X65853Y231306D01*
X65610Y231156D01*
X65390Y230994D01*
X65217Y230809D01*
X65067Y230636D01*
X64940Y230451D01*
X64847Y230266D01*
X64766Y230104D01*
X64708Y229954D01*
X64674Y229827D01*
X64639Y229723D01*
X64627Y229665D01*
Y229653D01*
Y229642D01*
X62906D01*
X62940Y229942D01*
X62998Y230220D01*
X63067Y230485D01*
X63160Y230740D01*
X63252Y230971D01*
X63356Y231179D01*
X63472Y231375D01*
X63576Y231549D01*
X63691Y231710D01*
X63795Y231849D01*
X63888Y231965D01*
X63980Y232069D01*
X64050Y232138D01*
X64107Y232196D01*
X64142Y232230D01*
X64154Y232242D01*
X64373Y232415D01*
X64604Y232566D01*
X64847Y232693D01*
X65101Y232808D01*
X65356Y232901D01*
X65621Y232982D01*
X65864Y233039D01*
X66118Y233097D01*
X66350Y233132D01*
X66558Y233167D01*
X66754Y233178D01*
X66916Y233201D01*
X67055D01*
X67158Y233213D01*
X67251D01*
X67505Y233201D01*
D02*
G37*
G36*
X140649Y223100D02*
X138431D01*
Y225446D01*
X140649D01*
Y223100D01*
D02*
G37*
G36*
X103413Y223100D02*
X101691D01*
Y237131D01*
X103413D01*
Y223100D01*
D02*
G37*
G36*
X76601D02*
X74382D01*
Y225446D01*
X76601D01*
Y223100D01*
D02*
G37*
G36*
X94664Y233201D02*
X95057Y233155D01*
X95415Y233097D01*
X95762Y233005D01*
X96074Y232912D01*
X96375Y232797D01*
X96640Y232681D01*
X96883Y232566D01*
X97103Y232439D01*
X97299Y232323D01*
X97461Y232207D01*
X97600Y232115D01*
X97704Y232022D01*
X97785Y231965D01*
X97831Y231918D01*
X97842Y231907D01*
X98074Y231653D01*
X98281Y231364D01*
X98466Y231063D01*
X98617Y230751D01*
X98744Y230428D01*
X98859Y230104D01*
X98940Y229792D01*
X99010Y229480D01*
X99067Y229191D01*
X99114Y228914D01*
X99137Y228671D01*
X99160Y228451D01*
X99171Y228278D01*
X99183Y228209D01*
Y228151D01*
Y228105D01*
Y228070D01*
Y228047D01*
Y228035D01*
X99171Y227573D01*
X99125Y227134D01*
X99056Y226729D01*
X98975Y226348D01*
X98871Y226001D01*
X98755Y225678D01*
X98640Y225400D01*
X98513Y225135D01*
X98385Y224915D01*
X98270Y224707D01*
X98154Y224545D01*
X98050Y224406D01*
X97970Y224302D01*
X97900Y224221D01*
X97854Y224175D01*
X97842Y224164D01*
X97577Y223932D01*
X97299Y223736D01*
X97010Y223563D01*
X96710Y223412D01*
X96409Y223285D01*
X96109Y223181D01*
X95820Y223100D01*
X95542Y223031D01*
X95277Y222973D01*
X95034Y222939D01*
X94814Y222904D01*
X94629Y222892D01*
X94479Y222881D01*
X94352Y222869D01*
X94260D01*
X93855Y222881D01*
X93462Y222927D01*
X93104Y222985D01*
X92757Y223077D01*
X92445Y223170D01*
X92145Y223274D01*
X91879Y223401D01*
X91636Y223517D01*
X91417Y223632D01*
X91232Y223759D01*
X91070Y223863D01*
X90931Y223967D01*
X90827Y224048D01*
X90746Y224106D01*
X90700Y224152D01*
X90689Y224164D01*
X90446Y224418D01*
X90238Y224707D01*
X90064Y225007D01*
X89903Y225319D01*
X89776Y225643D01*
X89672Y225967D01*
X89579Y226279D01*
X89510Y226591D01*
X89452Y226880D01*
X89406Y227157D01*
X89383Y227400D01*
X89360Y227619D01*
X89348Y227793D01*
X89336Y227862D01*
Y227920D01*
Y227966D01*
Y228012D01*
Y228024D01*
Y228035D01*
X89348Y228498D01*
X89394Y228937D01*
X89464Y229341D01*
X89544Y229723D01*
X89648Y230069D01*
X89764Y230393D01*
X89891Y230670D01*
X90007Y230936D01*
X90134Y231156D01*
X90261Y231364D01*
X90377Y231525D01*
X90480Y231664D01*
X90561Y231768D01*
X90631Y231849D01*
X90677Y231895D01*
X90689Y231907D01*
X90954Y232138D01*
X91232Y232334D01*
X91521Y232508D01*
X91810Y232658D01*
X92110Y232785D01*
X92411Y232889D01*
X92699Y232982D01*
X92977Y233051D01*
X93243Y233109D01*
X93485Y233144D01*
X93705Y233178D01*
X93890Y233190D01*
X94040Y233201D01*
X94156Y233213D01*
X94260D01*
X94664Y233201D01*
D02*
G37*
G36*
X56711D02*
X57104Y233155D01*
X57462Y233097D01*
X57809Y233005D01*
X58121Y232912D01*
X58421Y232797D01*
X58687Y232681D01*
X58930Y232566D01*
X59149Y232439D01*
X59346Y232323D01*
X59508Y232207D01*
X59647Y232115D01*
X59750Y232022D01*
X59831Y231965D01*
X59878Y231918D01*
X59889Y231907D01*
X60120Y231653D01*
X60328Y231364D01*
X60513Y231063D01*
X60663Y230751D01*
X60791Y230428D01*
X60906Y230104D01*
X60987Y229792D01*
X61056Y229480D01*
X61114Y229191D01*
X61160Y228914D01*
X61184Y228671D01*
X61207Y228451D01*
X61218Y228278D01*
X61230Y228209D01*
Y228151D01*
Y228105D01*
Y228070D01*
Y228047D01*
Y228035D01*
X61218Y227573D01*
X61172Y227134D01*
X61103Y226729D01*
X61022Y226348D01*
X60918Y226001D01*
X60802Y225678D01*
X60687Y225400D01*
X60560Y225135D01*
X60432Y224915D01*
X60317Y224707D01*
X60201Y224545D01*
X60097Y224406D01*
X60016Y224302D01*
X59947Y224221D01*
X59901Y224175D01*
X59889Y224164D01*
X59623Y223932D01*
X59346Y223736D01*
X59057Y223563D01*
X58757Y223412D01*
X58456Y223285D01*
X58156Y223181D01*
X57867Y223100D01*
X57589Y223031D01*
X57323Y222973D01*
X57081Y222939D01*
X56861Y222904D01*
X56676Y222892D01*
X56526Y222881D01*
X56399Y222869D01*
X56307D01*
X55902Y222881D01*
X55509Y222927D01*
X55151Y222985D01*
X54804Y223077D01*
X54492Y223170D01*
X54192Y223274D01*
X53926Y223401D01*
X53683Y223517D01*
X53464Y223632D01*
X53279Y223759D01*
X53117Y223863D01*
X52978Y223967D01*
X52874Y224048D01*
X52793Y224106D01*
X52747Y224152D01*
X52735Y224164D01*
X52493Y224418D01*
X52285Y224707D01*
X52111Y225007D01*
X51950Y225319D01*
X51822Y225643D01*
X51718Y225967D01*
X51626Y226279D01*
X51557Y226591D01*
X51499Y226880D01*
X51453Y227157D01*
X51429Y227400D01*
X51406Y227619D01*
X51395Y227793D01*
X51383Y227862D01*
Y227920D01*
Y227966D01*
Y228012D01*
Y228024D01*
Y228035D01*
X51395Y228498D01*
X51441Y228937D01*
X51510Y229341D01*
X51591Y229723D01*
X51695Y230069D01*
X51811Y230393D01*
X51938Y230670D01*
X52053Y230936D01*
X52181Y231156D01*
X52308Y231364D01*
X52423Y231525D01*
X52527Y231664D01*
X52608Y231768D01*
X52678Y231849D01*
X52724Y231895D01*
X52735Y231907D01*
X53001Y232138D01*
X53279Y232334D01*
X53568Y232508D01*
X53856Y232658D01*
X54157Y232785D01*
X54457Y232889D01*
X54746Y232982D01*
X55024Y233051D01*
X55290Y233109D01*
X55532Y233144D01*
X55752Y233178D01*
X55937Y233190D01*
X56087Y233201D01*
X56203Y233213D01*
X56307D01*
X56711Y233201D01*
D02*
G37*
%LPC*%
G36*
X136606Y335808D02*
X134474D01*
X134298Y335801D01*
X134136Y335794D01*
X133989Y335787D01*
X133855Y335773D01*
X133735Y335766D01*
X133630Y335752D01*
X133531Y335738D01*
X133447Y335724D01*
X133376Y335709D01*
X133320Y335703D01*
X133271Y335688D01*
X133236Y335681D01*
X133208Y335674D01*
X133194Y335667D01*
X133187D01*
X133032Y335604D01*
X132905Y335534D01*
X132785Y335449D01*
X132694Y335365D01*
X132624Y335287D01*
X132567Y335224D01*
X132539Y335175D01*
X132525Y335168D01*
Y335161D01*
X132448Y335020D01*
X132384Y334872D01*
X132342Y334732D01*
X132314Y334598D01*
X132300Y334485D01*
X132293Y334436D01*
X132286Y334394D01*
Y334359D01*
Y334330D01*
Y334316D01*
Y334309D01*
X132300Y334127D01*
X132328Y333958D01*
X132363Y333810D01*
X132413Y333690D01*
X132462Y333585D01*
X132483Y333549D01*
X132497Y333514D01*
X132518Y333486D01*
X132525Y333465D01*
X132539Y333458D01*
Y333451D01*
X132645Y333331D01*
X132757Y333233D01*
X132884Y333148D01*
X133004Y333085D01*
X133109Y333036D01*
X133158Y333015D01*
X133194Y333001D01*
X133229Y332987D01*
X133257Y332980D01*
X133271Y332973D01*
X133278D01*
X133355Y332952D01*
X133440Y332937D01*
X133531Y332923D01*
X133630Y332909D01*
X133834Y332888D01*
X134031Y332874D01*
X134129Y332867D01*
X134298D01*
X134368Y332860D01*
X136606D01*
Y335808D01*
D02*
G37*
G36*
Y331713D02*
X134193D01*
X134031Y331706D01*
X133883Y331699D01*
X133749Y331685D01*
X133623Y331671D01*
X133503Y331657D01*
X133398Y331643D01*
X133299Y331629D01*
X133215Y331615D01*
X133144Y331601D01*
X133081Y331587D01*
X133032Y331572D01*
X132990Y331558D01*
X132961Y331551D01*
X132947Y331544D01*
X132940D01*
X132764Y331474D01*
X132610Y331390D01*
X132476Y331298D01*
X132363Y331200D01*
X132272Y331115D01*
X132208Y331045D01*
X132187Y331017D01*
X132173Y331003D01*
X132159Y330989D01*
Y330981D01*
X132068Y330827D01*
X131997Y330665D01*
X131948Y330510D01*
X131913Y330362D01*
X131892Y330229D01*
X131885Y330179D01*
Y330130D01*
X131878Y330095D01*
Y330060D01*
Y330046D01*
Y330039D01*
X131885Y329870D01*
X131906Y329708D01*
X131941Y329567D01*
X131976Y329448D01*
X132011Y329349D01*
X132047Y329272D01*
X132054Y329244D01*
X132068Y329222D01*
X132075Y329216D01*
Y329208D01*
X132152Y329082D01*
X132230Y328976D01*
X132314Y328885D01*
X132391Y328807D01*
X132462Y328744D01*
X132518Y328702D01*
X132553Y328674D01*
X132560Y328667D01*
X132567D01*
X132687Y328603D01*
X132807Y328547D01*
X132933Y328505D01*
X133046Y328470D01*
X133151Y328442D01*
X133229Y328420D01*
X133264Y328413D01*
X133285D01*
X133299Y328406D01*
X133306D01*
X133355Y328399D01*
X133419Y328392D01*
X133552Y328385D01*
X133693Y328371D01*
X133841D01*
X133975Y328364D01*
X136606D01*
Y331713D01*
D02*
G37*
G36*
X116160Y335808D02*
X113908D01*
X113718Y335801D01*
X113542Y335787D01*
X113374Y335780D01*
X113226Y335759D01*
X113085Y335745D01*
X112966Y335724D01*
X112853Y335709D01*
X112761Y335688D01*
X112677Y335667D01*
X112607Y335653D01*
X112550Y335639D01*
X112508Y335625D01*
X112473Y335611D01*
X112459Y335604D01*
X112452D01*
X112318Y335548D01*
X112192Y335477D01*
X112072Y335400D01*
X111959Y335316D01*
X111854Y335224D01*
X111748Y335133D01*
X111657Y335041D01*
X111573Y334950D01*
X111495Y334858D01*
X111432Y334774D01*
X111376Y334696D01*
X111326Y334633D01*
X111284Y334577D01*
X111256Y334535D01*
X111242Y334506D01*
X111235Y334499D01*
X111143Y334338D01*
X111066Y334162D01*
X111003Y333979D01*
X110939Y333789D01*
X110890Y333592D01*
X110855Y333402D01*
X110820Y333205D01*
X110792Y333022D01*
X110770Y332846D01*
X110756Y332684D01*
X110742Y332536D01*
X110735Y332410D01*
X110728Y332304D01*
Y332262D01*
Y332227D01*
Y332192D01*
Y332170D01*
Y332164D01*
Y332156D01*
Y331952D01*
X110742Y331755D01*
X110749Y331572D01*
X110770Y331397D01*
X110792Y331235D01*
X110813Y331080D01*
X110834Y330932D01*
X110855Y330806D01*
X110883Y330686D01*
X110904Y330580D01*
X110925Y330489D01*
X110946Y330419D01*
X110967Y330355D01*
X110975Y330313D01*
X110989Y330285D01*
Y330278D01*
X111038Y330137D01*
X111094Y330004D01*
X111150Y329877D01*
X111207Y329757D01*
X111263Y329652D01*
X111326Y329546D01*
X111383Y329455D01*
X111439Y329370D01*
X111495Y329300D01*
X111544Y329230D01*
X111587Y329173D01*
X111622Y329131D01*
X111657Y329096D01*
X111678Y329068D01*
X111692Y329054D01*
X111699Y329047D01*
X111833Y328934D01*
X111973Y328829D01*
X112121Y328744D01*
X112262Y328674D01*
X112389Y328618D01*
X112438Y328589D01*
X112487Y328575D01*
X112522Y328561D01*
X112557Y328547D01*
X112572Y328540D01*
X112579D01*
X112684Y328512D01*
X112797Y328484D01*
X113043Y328442D01*
X113296Y328406D01*
X113535Y328385D01*
X113648Y328378D01*
X113754Y328371D01*
X113845D01*
X113923Y328364D01*
X116160D01*
Y335808D01*
D02*
G37*
G36*
X85329Y335998D02*
X85294D01*
X85139Y335991D01*
X84991Y335963D01*
X84858Y335928D01*
X84724Y335871D01*
X84597Y335815D01*
X84485Y335745D01*
X84379Y335674D01*
X84281Y335604D01*
X84196Y335527D01*
X84119Y335456D01*
X84056Y335386D01*
X83999Y335330D01*
X83957Y335273D01*
X83929Y335238D01*
X83908Y335210D01*
X83901Y335203D01*
X83851Y335126D01*
X83802Y335034D01*
X83760Y334943D01*
X83718Y334837D01*
X83640Y334619D01*
X83577Y334373D01*
X83521Y334112D01*
X83471Y333845D01*
X83436Y333578D01*
X83408Y333317D01*
X83387Y333057D01*
X83366Y332818D01*
X83352Y332600D01*
Y332494D01*
X83345Y332403D01*
Y332318D01*
X83338Y332241D01*
Y332178D01*
Y332121D01*
Y332079D01*
Y332044D01*
Y332023D01*
Y332016D01*
Y331798D01*
X83345Y331586D01*
X83352Y331382D01*
X83359Y331193D01*
X83373Y331010D01*
X83387Y330834D01*
X83408Y330665D01*
X83422Y330510D01*
X83443Y330355D01*
X83471Y330215D01*
X83493Y330081D01*
X83514Y329954D01*
X83542Y329835D01*
X83570Y329729D01*
X83591Y329623D01*
X83619Y329525D01*
X83668Y329349D01*
X83725Y329208D01*
X83767Y329089D01*
X83809Y328990D01*
X83851Y328920D01*
X83880Y328871D01*
X83894Y328835D01*
X83901Y328829D01*
X84006Y328688D01*
X84119Y328568D01*
X84238Y328463D01*
X84351Y328371D01*
X84471Y328294D01*
X84583Y328231D01*
X84696Y328181D01*
X84801Y328139D01*
X84900Y328104D01*
X84991Y328083D01*
X85076Y328062D01*
X85146Y328055D01*
X85202Y328047D01*
X85245Y328041D01*
X85280D01*
X85428Y328047D01*
X85575Y328076D01*
X85716Y328111D01*
X85843Y328167D01*
X85969Y328223D01*
X86082Y328287D01*
X86187Y328364D01*
X86279Y328434D01*
X86370Y328505D01*
X86441Y328582D01*
X86511Y328646D01*
X86567Y328709D01*
X86609Y328758D01*
X86638Y328793D01*
X86659Y328821D01*
X86666Y328829D01*
X86715Y328906D01*
X86764Y328997D01*
X86806Y329089D01*
X86849Y329194D01*
X86926Y329412D01*
X86989Y329659D01*
X87039Y329919D01*
X87088Y330186D01*
X87123Y330454D01*
X87151Y330721D01*
X87172Y330974D01*
X87193Y331214D01*
X87207Y331439D01*
Y331537D01*
X87215Y331629D01*
Y331713D01*
Y331791D01*
X87222Y331854D01*
Y331910D01*
Y331959D01*
Y331988D01*
Y332009D01*
Y332016D01*
Y332234D01*
X87215Y332445D01*
X87207Y332649D01*
X87193Y332846D01*
X87179Y333029D01*
X87165Y333205D01*
X87144Y333374D01*
X87123Y333535D01*
X87102Y333690D01*
X87081Y333838D01*
X87053Y333979D01*
X87025Y334105D01*
X87003Y334232D01*
X86975Y334345D01*
X86947Y334457D01*
X86912Y334556D01*
X86856Y334739D01*
X86799Y334893D01*
X86750Y335020D01*
X86708Y335126D01*
X86666Y335203D01*
X86638Y335259D01*
X86616Y335294D01*
X86609Y335302D01*
X86511Y335421D01*
X86412Y335534D01*
X86307Y335625D01*
X86194Y335703D01*
X86089Y335773D01*
X85976Y335829D01*
X85871Y335871D01*
X85765Y335914D01*
X85667Y335942D01*
X85582Y335963D01*
X85498Y335977D01*
X85428Y335984D01*
X85371Y335991D01*
X85329Y335998D01*
D02*
G37*
G36*
X126640Y323905D02*
X126597Y323750D01*
X126548Y323588D01*
X126436Y323251D01*
X126323Y322913D01*
X126267Y322751D01*
X126210Y322596D01*
X126154Y322449D01*
X126112Y322308D01*
X126063Y322188D01*
X126028Y322083D01*
X125992Y321998D01*
X125971Y321935D01*
X125957Y321893D01*
X125950Y321886D01*
Y321879D01*
X124930Y319184D01*
X128237D01*
X127167Y322040D01*
X127048Y322385D01*
X126942Y322723D01*
X126893Y322885D01*
X126851Y323032D01*
X126816Y323180D01*
X126773Y323321D01*
X126745Y323447D01*
X126717Y323560D01*
X126696Y323659D01*
X126675Y323743D01*
X126661Y323813D01*
X126647Y323863D01*
X126640Y323891D01*
Y323905D01*
D02*
G37*
G36*
X119597Y323849D02*
X116522D01*
X116325Y323842D01*
X116142Y323828D01*
X115973Y323806D01*
X115819Y323778D01*
X115678Y323743D01*
X115544Y323708D01*
X115425Y323666D01*
X115326Y323623D01*
X115235Y323581D01*
X115157Y323539D01*
X115087Y323504D01*
X115031Y323469D01*
X114995Y323441D01*
X114960Y323419D01*
X114946Y323405D01*
X114939Y323398D01*
X114848Y323314D01*
X114770Y323222D01*
X114707Y323131D01*
X114644Y323032D01*
X114594Y322941D01*
X114559Y322842D01*
X114524Y322751D01*
X114496Y322667D01*
X114475Y322582D01*
X114461Y322505D01*
X114447Y322441D01*
X114440Y322378D01*
X114433Y322329D01*
Y322294D01*
Y322273D01*
Y322266D01*
X114447Y322090D01*
X114475Y321928D01*
X114517Y321780D01*
X114559Y321653D01*
X114608Y321548D01*
X114630Y321499D01*
X114651Y321463D01*
X114672Y321435D01*
X114679Y321414D01*
X114693Y321400D01*
Y321393D01*
X114798Y321252D01*
X114918Y321133D01*
X115045Y321034D01*
X115171Y320950D01*
X115284Y320886D01*
X115326Y320865D01*
X115368Y320844D01*
X115403Y320830D01*
X115432Y320816D01*
X115446Y320809D01*
X115453D01*
X115551Y320781D01*
X115650Y320753D01*
X115875Y320711D01*
X116107Y320675D01*
X116325Y320654D01*
X116431Y320647D01*
X116522Y320640D01*
X116614D01*
X116684Y320633D01*
X119597D01*
Y323849D01*
D02*
G37*
G36*
X109775D02*
X106700D01*
X106503Y323842D01*
X106320Y323828D01*
X106151Y323806D01*
X105997Y323778D01*
X105856Y323743D01*
X105722Y323708D01*
X105603Y323666D01*
X105504Y323623D01*
X105413Y323581D01*
X105335Y323539D01*
X105265Y323504D01*
X105209Y323469D01*
X105173Y323441D01*
X105138Y323419D01*
X105124Y323405D01*
X105117Y323398D01*
X105026Y323314D01*
X104948Y323222D01*
X104885Y323131D01*
X104822Y323032D01*
X104772Y322941D01*
X104737Y322842D01*
X104702Y322751D01*
X104674Y322667D01*
X104653Y322582D01*
X104639Y322505D01*
X104625Y322441D01*
X104618Y322378D01*
X104611Y322329D01*
Y322294D01*
Y322273D01*
Y322266D01*
X104625Y322090D01*
X104653Y321928D01*
X104695Y321780D01*
X104737Y321653D01*
X104787Y321548D01*
X104808Y321499D01*
X104829Y321463D01*
X104850Y321435D01*
X104857Y321414D01*
X104871Y321400D01*
Y321393D01*
X104976Y321252D01*
X105096Y321133D01*
X105223Y321034D01*
X105349Y320950D01*
X105462Y320886D01*
X105504Y320865D01*
X105546Y320844D01*
X105582Y320830D01*
X105610Y320816D01*
X105624Y320809D01*
X105631D01*
X105729Y320781D01*
X105828Y320753D01*
X106053Y320711D01*
X106285Y320675D01*
X106503Y320654D01*
X106609Y320647D01*
X106700Y320640D01*
X106792D01*
X106862Y320633D01*
X109775D01*
Y323849D01*
D02*
G37*
G36*
X87106D02*
X84031Y323849D01*
X83834Y323842D01*
X83651Y323827D01*
X83482Y323806D01*
X83327Y323778D01*
X83187Y323743D01*
X83053Y323708D01*
X82933Y323666D01*
X82835Y323623D01*
X82743Y323581D01*
X82666Y323539D01*
X82596Y323504D01*
X82539Y323469D01*
X82504Y323441D01*
X82469Y323419D01*
X82455Y323405D01*
X82448Y323398D01*
X82356Y323314D01*
X82279Y323222D01*
X82216Y323131D01*
X82152Y323032D01*
X82103Y322941D01*
X82068Y322842D01*
X82033Y322751D01*
X82005Y322667D01*
X81983Y322582D01*
X81969Y322505D01*
X81955Y322441D01*
X81948Y322378D01*
X81941Y322329D01*
Y322294D01*
Y322272D01*
Y322266D01*
X81955Y322090D01*
X81983Y321928D01*
X82026Y321780D01*
X82068Y321653D01*
X82117Y321548D01*
X82138Y321499D01*
X82159Y321463D01*
X82181Y321435D01*
X82188Y321414D01*
X82202Y321400D01*
Y321393D01*
X82307Y321252D01*
X82427Y321133D01*
X82553Y321034D01*
X82680Y320950D01*
X82793Y320886D01*
X82835Y320865D01*
X82877Y320844D01*
X82912Y320830D01*
X82940Y320816D01*
X82954Y320809D01*
X82961D01*
X83060Y320781D01*
X83158Y320753D01*
X83384Y320711D01*
X83616Y320675D01*
X83834Y320654D01*
X83939Y320647D01*
X84031Y320640D01*
X84122D01*
X84193Y320633D01*
X87106Y320633D01*
Y323849D01*
D02*
G37*
G36*
X124838Y311889D02*
X124796Y311734D01*
X124747Y311572D01*
X124635Y311235D01*
X124522Y310897D01*
X124466Y310735D01*
X124409Y310581D01*
X124353Y310433D01*
X124311Y310292D01*
X124262Y310172D01*
X124226Y310067D01*
X124191Y309982D01*
X124170Y309919D01*
X124156Y309877D01*
X124149Y309870D01*
Y309863D01*
X123129Y307168D01*
X126436D01*
X125366Y310025D01*
X125247Y310369D01*
X125141Y310707D01*
X125092Y310869D01*
X125050Y311017D01*
X125014Y311164D01*
X124972Y311305D01*
X124944Y311432D01*
X124916Y311544D01*
X124895Y311643D01*
X124874Y311727D01*
X124860Y311798D01*
X124846Y311847D01*
X124838Y311875D01*
Y311889D01*
D02*
G37*
G36*
X112657Y269700D02*
X112445D01*
X112199Y269683D01*
X111934Y269665D01*
X111899D01*
X111811Y269647D01*
X111670Y269630D01*
X111494Y269595D01*
X111282Y269542D01*
X111070Y269489D01*
X110612Y269348D01*
X110577Y269330D01*
X110506Y269295D01*
X110383Y269224D01*
X110224Y269136D01*
X110066Y269013D01*
X109872Y268872D01*
X109678Y268696D01*
X109484Y268484D01*
X109466Y268466D01*
X109396Y268378D01*
X109308Y268272D01*
X109202Y268114D01*
X109079Y267920D01*
X108973Y267708D01*
X108867Y267479D01*
X108779Y267232D01*
X108761Y267197D01*
X108744Y267109D01*
X108708Y266950D01*
X108673Y266739D01*
X108638Y266474D01*
X108603Y266140D01*
X108567Y265769D01*
Y265329D01*
Y265311D01*
Y265276D01*
Y265205D01*
Y265135D01*
Y265029D01*
X108585Y264906D01*
Y264641D01*
X108620Y264324D01*
X108656Y264007D01*
X108708Y263689D01*
X108779Y263407D01*
Y263390D01*
X108797Y263337D01*
X108832Y263249D01*
X108885Y263143D01*
X108938Y263020D01*
X109026Y262861D01*
X109114Y262702D01*
X109237Y262526D01*
X109378Y262350D01*
X109537Y262156D01*
X109713Y261979D01*
X109925Y261786D01*
X110136Y261627D01*
X110401Y261451D01*
X110683Y261310D01*
X110982Y261186D01*
X111000D01*
X111053Y261169D01*
X111159Y261133D01*
X111282Y261098D01*
X111423Y261063D01*
X111599Y261045D01*
X111811Y261010D01*
X112040Y260992D01*
X112287Y260975D01*
X112534D01*
X112816Y260992D01*
X113098Y261028D01*
X113380Y261098D01*
X113679Y261169D01*
X113979Y261292D01*
X114279Y261433D01*
X114296D01*
X114314Y261451D01*
X114367Y261486D01*
X114437Y261521D01*
X114596Y261644D01*
X114808Y261803D01*
X115019Y262015D01*
X115248Y262262D01*
X115460Y262561D01*
X115654Y262896D01*
Y262914D01*
X115671Y262949D01*
X115689Y263002D01*
X115724Y263072D01*
X115759Y263160D01*
X115795Y263284D01*
X115830Y263407D01*
X115865Y263566D01*
X115918Y263742D01*
X115953Y263918D01*
X116024Y264342D01*
X116077Y264835D01*
X116112Y265382D01*
Y265399D01*
Y265452D01*
Y265558D01*
X116094Y265681D01*
Y265822D01*
X116077Y265998D01*
X116041Y266192D01*
X116024Y266404D01*
X115936Y266862D01*
X115795Y267338D01*
X115618Y267814D01*
X115372Y268255D01*
X115354Y268272D01*
X115336Y268308D01*
X115283Y268361D01*
X115231Y268431D01*
X115054Y268625D01*
X114825Y268837D01*
X114525Y269083D01*
X114155Y269312D01*
X113732Y269506D01*
X113485Y269577D01*
X113239Y269647D01*
X113203D01*
X113133Y269665D01*
X113010Y269683D01*
X112851D01*
X112657Y269700D01*
D02*
G37*
G36*
X87238Y269700D02*
X86568D01*
X86286Y269683D01*
X86251D01*
X86163Y269665D01*
X86022Y269647D01*
X85828Y269630D01*
X85634Y269594D01*
X85422Y269542D01*
X85211Y269489D01*
X85017Y269418D01*
X84982Y269401D01*
X84894Y269348D01*
X84735Y269242D01*
X84541Y269119D01*
X84523D01*
X84488Y269083D01*
X84435Y269048D01*
X84365Y268995D01*
X84188Y268872D01*
X84012Y268713D01*
X83995Y268696D01*
X83959Y268660D01*
X83889Y268590D01*
X83818Y268484D01*
X83713Y268343D01*
X83607Y268184D01*
X83501Y267990D01*
X83378Y267779D01*
X83272Y267532D01*
X83166Y267250D01*
X83060Y266950D01*
X82990Y266616D01*
X82919Y266245D01*
X82866Y265858D01*
X82849Y265434D01*
X82866Y264976D01*
Y264941D01*
Y264870D01*
X82884Y264747D01*
X82919Y264571D01*
X82937Y264377D01*
X82990Y264148D01*
X83043Y263901D01*
X83113Y263636D01*
X83201Y263354D01*
X83325Y263072D01*
X83448Y262790D01*
X83607Y262508D01*
X83783Y262262D01*
X83977Y262015D01*
X84206Y261803D01*
X84471Y261609D01*
X84488D01*
X84506Y261592D01*
X84559Y261556D01*
X84647Y261521D01*
X84735Y261468D01*
X84841Y261415D01*
X85105Y261292D01*
X85422Y261168D01*
X85775Y261063D01*
X86180Y260992D01*
X86603Y260939D01*
X86797D01*
X86903Y260957D01*
X87027D01*
X87309Y260992D01*
X87643Y261063D01*
X88014Y261169D01*
X88384Y261310D01*
X88772Y261504D01*
X88789Y261521D01*
X88860Y261556D01*
X88948Y261609D01*
X89054Y261680D01*
X89283Y261874D01*
X89389Y261962D01*
X89494Y262068D01*
X89512Y262085D01*
X89530Y262120D01*
X89583Y262191D01*
X89635Y262279D01*
X89706Y262385D01*
X89794Y262544D01*
X89900Y262702D01*
X90006Y262914D01*
X90023Y262949D01*
X90058Y263020D01*
X90111Y263143D01*
X90182Y263284D01*
X90323Y263619D01*
X90376Y263778D01*
X90411Y263918D01*
Y263936D01*
X90429Y263989D01*
Y264077D01*
X90446Y264218D01*
X90464Y264412D01*
Y264659D01*
X90482Y264958D01*
Y265329D01*
Y265346D01*
Y265364D01*
Y265417D01*
Y265487D01*
Y265664D01*
Y265858D01*
X90464Y266087D01*
Y266316D01*
X90446Y266510D01*
X90429Y266686D01*
Y266704D01*
X90411Y266756D01*
X90393Y266845D01*
X90376Y266950D01*
X90323Y267074D01*
X90270Y267232D01*
X90199Y267391D01*
X90111Y267567D01*
Y267585D01*
X90094Y267603D01*
X90041Y267708D01*
X89953Y267885D01*
X89829Y268079D01*
X89688Y268308D01*
X89530Y268537D01*
X89336Y268766D01*
X89124Y268960D01*
X89089Y268978D01*
X89018Y269048D01*
X88895Y269136D01*
X88719Y269242D01*
X88490Y269348D01*
X88243Y269471D01*
X87943Y269559D01*
X87626Y269647D01*
X87608D01*
X87520Y269665D01*
X87414Y269683D01*
X87238Y269700D01*
D02*
G37*
G36*
X145215Y280083D02*
X144898D01*
X144686Y280065D01*
X144440Y280030D01*
X144175Y279977D01*
X143893Y279889D01*
X143593Y279766D01*
X143576D01*
X143558Y279748D01*
X143470Y279695D01*
X143311Y279589D01*
X143135Y279466D01*
X142941Y279307D01*
X142730Y279096D01*
X142536Y278867D01*
X142360Y278602D01*
X142342Y278567D01*
X142289Y278479D01*
X142219Y278320D01*
X142130Y278109D01*
X142060Y277862D01*
X141989Y277562D01*
X141936Y277245D01*
X141919Y276892D01*
Y276875D01*
Y276822D01*
X141936Y276716D01*
Y276593D01*
X141972Y276452D01*
X142007Y276275D01*
X142060Y276099D01*
X142113Y275888D01*
X142201Y275676D01*
X142307Y275464D01*
X142448Y275235D01*
X142606Y275024D01*
X142783Y274812D01*
X143012Y274601D01*
X143258Y274407D01*
X143541Y274231D01*
X143558Y274213D01*
X143611Y274195D01*
X143699Y274160D01*
X143823Y274107D01*
X143964Y274054D01*
X144122Y274019D01*
X144316Y273966D01*
X144545Y273931D01*
X144775Y273896D01*
X145021Y273878D01*
X145286Y273896D01*
X145550Y273931D01*
X145832Y273984D01*
X146132Y274072D01*
X146414Y274213D01*
X146713Y274372D01*
X146731Y274389D01*
X146766Y274407D01*
X146837Y274460D01*
X146925Y274530D01*
X147031Y274618D01*
X147154Y274724D01*
X147278Y274865D01*
X147401Y275006D01*
X147524Y275182D01*
X147665Y275359D01*
X147771Y275570D01*
X147877Y275800D01*
X147965Y276046D01*
X148036Y276311D01*
X148089Y276610D01*
X148106Y276910D01*
Y276928D01*
Y276980D01*
Y277069D01*
X148089Y277192D01*
X148071Y277333D01*
X148036Y277492D01*
X148000Y277668D01*
X147948Y277862D01*
X147877Y278073D01*
X147789Y278285D01*
X147683Y278496D01*
X147560Y278726D01*
X147401Y278937D01*
X147225Y279131D01*
X147013Y279325D01*
X146784Y279501D01*
X146749Y279519D01*
X146661Y279589D01*
X146502Y279678D01*
X146308Y279766D01*
X146079Y279871D01*
X145815Y279977D01*
X145515Y280048D01*
X145215Y280083D01*
D02*
G37*
G36*
X111052Y231618D02*
X110902D01*
X110624Y231606D01*
X110359Y231583D01*
X110116Y231537D01*
X109896Y231479D01*
X109677Y231410D01*
X109492Y231341D01*
X109319Y231260D01*
X109157Y231179D01*
X109018Y231086D01*
X108891Y231005D01*
X108787Y230936D01*
X108706Y230867D01*
X108637Y230809D01*
X108590Y230763D01*
X108567Y230740D01*
X108556Y230728D01*
X108405Y230555D01*
X108290Y230358D01*
X108174Y230150D01*
X108082Y229931D01*
X108001Y229711D01*
X107932Y229480D01*
X107885Y229260D01*
X107839Y229052D01*
X107804Y228844D01*
X107781Y228648D01*
X107758Y228486D01*
X107747Y228336D01*
X107735Y228209D01*
Y228116D01*
Y228058D01*
Y228035D01*
X107747Y227712D01*
X107770Y227400D01*
X107816Y227122D01*
X107862Y226856D01*
X107920Y226614D01*
X107989Y226394D01*
X108070Y226186D01*
X108140Y226013D01*
X108221Y225851D01*
X108301Y225724D01*
X108371Y225608D01*
X108429Y225516D01*
X108475Y225435D01*
X108521Y225389D01*
X108544Y225354D01*
X108556Y225343D01*
X108717Y225181D01*
X108891Y225054D01*
X109076Y224926D01*
X109272Y224834D01*
X109469Y224741D01*
X109654Y224672D01*
X109850Y224614D01*
X110035Y224568D01*
X110208Y224522D01*
X110370Y224499D01*
X110520Y224476D01*
X110647Y224464D01*
X110751D01*
X110832Y224453D01*
X110902D01*
X111179Y224464D01*
X111445Y224487D01*
X111688Y224534D01*
X111907Y224591D01*
X112127Y224661D01*
X112312Y224730D01*
X112485Y224811D01*
X112647Y224903D01*
X112786Y224984D01*
X112913Y225065D01*
X113005Y225135D01*
X113098Y225204D01*
X113167Y225262D01*
X113213Y225308D01*
X113236Y225331D01*
X113248Y225343D01*
X113386Y225516D01*
X113514Y225712D01*
X113629Y225920D01*
X113722Y226140D01*
X113803Y226360D01*
X113872Y226591D01*
X113918Y226810D01*
X113964Y227018D01*
X113999Y227226D01*
X114022Y227423D01*
X114045Y227585D01*
X114057Y227735D01*
X114068Y227862D01*
Y227954D01*
Y228012D01*
Y228035D01*
X114057Y228359D01*
X114034Y228671D01*
X113988Y228948D01*
X113941Y229214D01*
X113883Y229457D01*
X113814Y229676D01*
X113733Y229884D01*
X113652Y230058D01*
X113583Y230220D01*
X113502Y230347D01*
X113433Y230462D01*
X113375Y230566D01*
X113329Y230636D01*
X113282Y230682D01*
X113259Y230716D01*
X113248Y230728D01*
X113086Y230890D01*
X112913Y231017D01*
X112728Y231144D01*
X112531Y231248D01*
X112335Y231329D01*
X112150Y231398D01*
X111953Y231456D01*
X111769Y231502D01*
X111595Y231549D01*
X111422Y231572D01*
X111283Y231595D01*
X111156Y231606D01*
X111052Y231618D01*
D02*
G37*
G36*
X94410D02*
X94260D01*
X93982Y231606D01*
X93716Y231583D01*
X93474Y231537D01*
X93254Y231479D01*
X93035Y231410D01*
X92850Y231341D01*
X92676Y231260D01*
X92515Y231179D01*
X92376Y231086D01*
X92249Y231005D01*
X92145Y230936D01*
X92064Y230867D01*
X91994Y230809D01*
X91948Y230763D01*
X91925Y230740D01*
X91914Y230728D01*
X91763Y230555D01*
X91636Y230358D01*
X91532Y230150D01*
X91428Y229931D01*
X91347Y229711D01*
X91290Y229480D01*
X91232Y229260D01*
X91186Y229052D01*
X91151Y228844D01*
X91128Y228648D01*
X91105Y228486D01*
X91093Y228336D01*
X91081Y228209D01*
Y228116D01*
Y228058D01*
Y228035D01*
X91093Y227712D01*
X91116Y227400D01*
X91162Y227122D01*
X91209Y226856D01*
X91278Y226614D01*
X91347Y226394D01*
X91417Y226186D01*
X91498Y226013D01*
X91579Y225851D01*
X91648Y225724D01*
X91717Y225608D01*
X91786Y225516D01*
X91833Y225435D01*
X91879Y225389D01*
X91902Y225354D01*
X91914Y225343D01*
X92075Y225181D01*
X92249Y225054D01*
X92434Y224926D01*
X92630Y224834D01*
X92827Y224741D01*
X93012Y224672D01*
X93208Y224614D01*
X93393Y224568D01*
X93566Y224522D01*
X93728Y224499D01*
X93878Y224476D01*
X94005Y224464D01*
X94109D01*
X94190Y224453D01*
X94260D01*
X94537Y224464D01*
X94803Y224487D01*
X95046Y224534D01*
X95277Y224591D01*
X95485Y224661D01*
X95681Y224730D01*
X95855Y224811D01*
X96005Y224903D01*
X96155Y224984D01*
X96271Y225065D01*
X96375Y225135D01*
X96467Y225204D01*
X96525Y225262D01*
X96583Y225308D01*
X96606Y225331D01*
X96617Y225343D01*
X96756Y225516D01*
X96883Y225712D01*
X96999Y225920D01*
X97091Y226140D01*
X97172Y226360D01*
X97241Y226591D01*
X97288Y226810D01*
X97334Y227018D01*
X97368Y227226D01*
X97392Y227423D01*
X97415Y227585D01*
X97426Y227735D01*
X97438Y227862D01*
Y227954D01*
Y228012D01*
Y228035D01*
X97426Y228359D01*
X97403Y228671D01*
X97357Y228948D01*
X97311Y229214D01*
X97253Y229457D01*
X97184Y229676D01*
X97103Y229884D01*
X97022Y230058D01*
X96952Y230220D01*
X96872Y230347D01*
X96802Y230462D01*
X96744Y230566D01*
X96698Y230636D01*
X96652Y230682D01*
X96629Y230716D01*
X96617Y230728D01*
X96455Y230890D01*
X96282Y231017D01*
X96086Y231144D01*
X95901Y231248D01*
X95704Y231329D01*
X95508Y231398D01*
X95311Y231456D01*
X95126Y231502D01*
X94953Y231549D01*
X94791Y231572D01*
X94641Y231595D01*
X94514Y231606D01*
X94410Y231618D01*
D02*
G37*
G36*
X56457D02*
X56307D01*
X56029Y231606D01*
X55763Y231583D01*
X55521Y231537D01*
X55301Y231479D01*
X55081Y231410D01*
X54896Y231341D01*
X54723Y231260D01*
X54561Y231179D01*
X54423Y231086D01*
X54296Y231005D01*
X54192Y230936D01*
X54111Y230867D01*
X54041Y230809D01*
X53995Y230763D01*
X53972Y230740D01*
X53960Y230728D01*
X53810Y230555D01*
X53683Y230358D01*
X53579Y230150D01*
X53475Y229931D01*
X53394Y229711D01*
X53336Y229480D01*
X53279Y229260D01*
X53232Y229052D01*
X53198Y228844D01*
X53175Y228648D01*
X53151Y228486D01*
X53140Y228336D01*
X53128Y228209D01*
Y228116D01*
Y228058D01*
Y228035D01*
X53140Y227712D01*
X53163Y227400D01*
X53209Y227122D01*
X53255Y226856D01*
X53325Y226614D01*
X53394Y226394D01*
X53464Y226186D01*
X53544Y226013D01*
X53625Y225851D01*
X53695Y225724D01*
X53764Y225608D01*
X53833Y225516D01*
X53879Y225435D01*
X53926Y225389D01*
X53949Y225354D01*
X53960Y225343D01*
X54122Y225181D01*
X54296Y225054D01*
X54481Y224926D01*
X54677Y224834D01*
X54873Y224741D01*
X55058Y224672D01*
X55255Y224614D01*
X55440Y224568D01*
X55613Y224522D01*
X55775Y224499D01*
X55925Y224476D01*
X56052Y224464D01*
X56156D01*
X56237Y224453D01*
X56307D01*
X56584Y224464D01*
X56850Y224487D01*
X57092Y224534D01*
X57323Y224591D01*
X57531Y224661D01*
X57728Y224730D01*
X57901Y224811D01*
X58052Y224903D01*
X58202Y224984D01*
X58317Y225065D01*
X58421Y225135D01*
X58514Y225204D01*
X58572Y225262D01*
X58629Y225308D01*
X58653Y225331D01*
X58664Y225343D01*
X58803Y225516D01*
X58930Y225712D01*
X59046Y225920D01*
X59138Y226140D01*
X59219Y226360D01*
X59288Y226591D01*
X59334Y226810D01*
X59381Y227018D01*
X59415Y227226D01*
X59438Y227423D01*
X59462Y227585D01*
X59473Y227735D01*
X59485Y227862D01*
Y227954D01*
Y228012D01*
Y228035D01*
X59473Y228359D01*
X59450Y228671D01*
X59404Y228948D01*
X59358Y229214D01*
X59300Y229457D01*
X59230Y229676D01*
X59149Y229884D01*
X59069Y230058D01*
X58999Y230220D01*
X58918Y230347D01*
X58849Y230462D01*
X58791Y230566D01*
X58745Y230636D01*
X58699Y230682D01*
X58676Y230716D01*
X58664Y230728D01*
X58502Y230890D01*
X58329Y231017D01*
X58133Y231144D01*
X57948Y231248D01*
X57751Y231329D01*
X57555Y231398D01*
X57358Y231456D01*
X57173Y231502D01*
X57000Y231549D01*
X56838Y231572D01*
X56688Y231595D01*
X56561Y231606D01*
X56457Y231618D01*
D02*
G37*
%LPD*%
M02*
