G04*
G04 #@! TF.GenerationSoftware,Altium Limited,Altium Designer,21.6.4 (81)*
G04*
G04 Layer_Color=8388736*
%FSLAX44Y44*%
%MOMM*%
G71*
G04*
G04 #@! TF.SameCoordinates,7B4930C9-1E03-45B5-BB94-95F13246AEDE*
G04*
G04*
G04 #@! TF.FilePolarity,Negative*
G04*
G01*
G75*
%ADD24R,0.4600X0.4500*%
%ADD25R,0.9000X1.8000*%
%ADD26C,0.8900*%
%ADD27R,1.1200X0.7400*%
%ADD28R,0.5000X0.5000*%
%ADD29R,0.7200X0.7200*%
%ADD30R,0.6500X0.6200*%
%ADD31R,1.1000X1.6500*%
%ADD32R,1.1000X0.9000*%
%ADD33R,0.7200X0.7200*%
%ADD34C,1.0000*%
%ADD35C,3.5000*%
%ADD36C,1.7500*%
%ADD37R,1.7500X1.7500*%
D24*
X189200Y170000D02*
D03*
X180800D02*
D03*
X39200Y170000D02*
D03*
X30800D02*
D03*
D25*
X168000Y150000D02*
D03*
X202000D02*
D03*
X18000D02*
D03*
X52000D02*
D03*
D26*
X97300Y93750D02*
D03*
Y106450D02*
D03*
X110000Y93750D02*
D03*
Y106450D02*
D03*
X122700Y93750D02*
D03*
Y106450D02*
D03*
D27*
X77000Y206850D02*
D03*
Y193150D02*
D03*
X143000D02*
D03*
Y206850D02*
D03*
D28*
X122750Y331000D02*
D03*
X97250D02*
D03*
Y365000D02*
D03*
X137750Y381500D02*
D03*
X131250Y365000D02*
D03*
Y356500D02*
D03*
Y348000D02*
D03*
X122750D02*
D03*
X110000Y331000D02*
D03*
X97250Y348000D02*
D03*
X137750Y393750D02*
D03*
Y369250D02*
D03*
Y360750D02*
D03*
Y352250D02*
D03*
Y343750D02*
D03*
X131250Y331000D02*
D03*
X137750Y316000D02*
D03*
X127000D02*
D03*
X118500D02*
D03*
X110000D02*
D03*
X101500D02*
D03*
X131250Y339500D02*
D03*
X137750Y335250D02*
D03*
Y326750D02*
D03*
X131250Y322500D02*
D03*
X122750D02*
D03*
X114250D02*
D03*
X105750D02*
D03*
X97250D02*
D03*
X93000Y316000D02*
D03*
X82250Y393750D02*
D03*
Y381500D02*
D03*
Y369250D02*
D03*
Y360750D02*
D03*
Y352250D02*
D03*
Y343750D02*
D03*
Y335250D02*
D03*
Y326750D02*
D03*
Y316000D02*
D03*
X88750Y365000D02*
D03*
Y356500D02*
D03*
Y348000D02*
D03*
Y339500D02*
D03*
Y331000D02*
D03*
Y322500D02*
D03*
X122750Y365000D02*
D03*
X110000D02*
D03*
D29*
X153500Y322250D02*
D03*
X162500D02*
D03*
D30*
X40000Y196000D02*
D03*
Y204000D02*
D03*
X32000D02*
D03*
Y196000D02*
D03*
X24000Y204000D02*
D03*
Y196000D02*
D03*
X130000D02*
D03*
Y204000D02*
D03*
X122000Y196000D02*
D03*
Y204000D02*
D03*
X156000Y196000D02*
D03*
Y204000D02*
D03*
X114000Y196000D02*
D03*
Y204000D02*
D03*
X106000Y196000D02*
D03*
Y204000D02*
D03*
X164000Y196000D02*
D03*
Y204000D02*
D03*
X64000D02*
D03*
Y196000D02*
D03*
X90000Y204000D02*
D03*
Y196000D02*
D03*
X56000D02*
D03*
Y204000D02*
D03*
X48000Y196000D02*
D03*
Y204000D02*
D03*
X98000Y196000D02*
D03*
Y204000D02*
D03*
D31*
X148750Y296750D02*
D03*
X122750D02*
D03*
D32*
X102500Y150500D02*
D03*
X117500D02*
D03*
Y139500D02*
D03*
X102500D02*
D03*
D33*
X122750Y282000D02*
D03*
Y273000D02*
D03*
X148750Y282000D02*
D03*
Y273000D02*
D03*
D34*
X84600Y100100D02*
D03*
X135400Y110260D02*
D03*
Y89940D02*
D03*
D35*
X185000Y100000D02*
D03*
X35000D02*
D03*
D36*
X21100Y42200D02*
D03*
X46500D02*
D03*
X148100D02*
D03*
X173500D02*
D03*
X122700D02*
D03*
X97300D02*
D03*
X71900D02*
D03*
D37*
X198900D02*
D03*
M02*
