G04*
G04 #@! TF.GenerationSoftware,Altium Limited,Altium Designer,21.6.4 (81)*
G04*
G04 Layer_Color=32768*
%FSLAX44Y44*%
%MOMM*%
G71*
G04*
G04 #@! TF.SameCoordinates,7B4930C9-1E03-45B5-BB94-95F13246AEDE*
G04*
G04*
G04 #@! TF.FilePolarity,Positive*
G04*
G01*
G75*
%ADD47C,0.0508*%
%ADD48C,0.0500*%
D47*
X192000Y167501D02*
Y172000D01*
X189751D01*
X189001Y171250D01*
Y168251D01*
X189751Y167501D01*
X192000D01*
X184503Y172000D02*
X187502D01*
X184503Y169001D01*
Y168251D01*
X185252Y167501D01*
X186752D01*
X187502Y168251D01*
X28000Y172498D02*
Y168000D01*
X30249D01*
X30999Y168750D01*
Y171749D01*
X30249Y172498D01*
X28000D01*
X32499Y168000D02*
X33998D01*
X33248D01*
Y172498D01*
X32499Y171749D01*
D48*
X198003Y144504D02*
X200502Y142005D01*
X205501D01*
X208000Y144504D01*
Y147003D01*
X205501Y149502D01*
X200502D01*
X198003Y152002D01*
Y154501D01*
X200502Y157000D01*
X205501D01*
X208000Y154501D01*
X193005Y142005D02*
Y157000D01*
X188006Y152002D01*
X183008Y157000D01*
Y142005D01*
X168013Y157000D02*
X178010D01*
X168013Y147003D01*
Y144504D01*
X170512Y142005D01*
X175511D01*
X178010Y144504D01*
X169760Y96190D02*
Y106187D01*
X173092Y102854D01*
X176425Y106187D01*
Y96190D01*
X179757Y106187D02*
Y96190D01*
Y101188D01*
X186421D01*
Y106187D01*
Y96190D01*
X196418D02*
X189754D01*
X196418Y102854D01*
Y104521D01*
X194752Y106187D01*
X191420D01*
X189754Y104521D01*
X155582Y323915D02*
X154749Y324748D01*
X153083D01*
X152250Y323915D01*
Y320583D01*
X153083Y319750D01*
X154749D01*
X155582Y320583D01*
X157248Y323915D02*
X158081Y324748D01*
X159747D01*
X160581Y323915D01*
Y323082D01*
X159747Y322249D01*
X158914D01*
X159747D01*
X160581Y321416D01*
Y320583D01*
X159747Y319750D01*
X158081D01*
X157248Y320583D01*
X42250Y194500D02*
X37252D01*
Y196999D01*
X38085Y197832D01*
X39751D01*
X40584Y196999D01*
Y194500D01*
Y196166D02*
X42250Y197832D01*
X38085Y199498D02*
X37252Y200331D01*
Y201998D01*
X38085Y202831D01*
X38918D01*
X39751Y201998D01*
Y201164D01*
Y201998D01*
X40584Y202831D01*
X41417D01*
X42250Y201998D01*
Y200331D01*
X41417Y199498D01*
X149000Y292253D02*
X143668Y300250D01*
Y292253D02*
X149000Y300250D01*
X141003D02*
X138337D01*
X139670D01*
Y292253D01*
X141003Y293585D01*
X120000Y141003D02*
Y149000D01*
X116001D01*
X114668Y147667D01*
Y142336D01*
X116001Y141003D01*
X120000D01*
X112003Y142336D02*
X110670Y141003D01*
X108004D01*
X106671Y142336D01*
Y143668D01*
X108004Y145001D01*
X109337D01*
X108004D01*
X106671Y146334D01*
Y147667D01*
X108004Y149000D01*
X110670D01*
X112003Y147667D01*
X124415Y279918D02*
X125248Y280751D01*
Y282417D01*
X124415Y283250D01*
X121083D01*
X120250Y282417D01*
Y280751D01*
X121083Y279918D01*
X120250Y274919D02*
Y278252D01*
X123582Y274919D01*
X124415D01*
X125248Y275753D01*
Y277419D01*
X124415Y278252D01*
X150415Y279918D02*
X151248Y280751D01*
Y282417D01*
X150415Y283250D01*
X147083D01*
X146250Y282417D01*
Y280751D01*
X147083Y279918D01*
X146250Y278252D02*
Y276586D01*
Y277419D01*
X151248D01*
X150415Y278252D01*
X34250Y194500D02*
X29252D01*
Y196999D01*
X30085Y197832D01*
X31751D01*
X32584Y196999D01*
Y194500D01*
Y196166D02*
X34250Y197832D01*
Y199498D02*
Y201164D01*
Y200331D01*
X29252D01*
X30085Y199498D01*
X26250Y194500D02*
X21252D01*
Y196999D01*
X22085Y197832D01*
X23751D01*
X24584Y196999D01*
Y194500D01*
Y196166D02*
X26250Y197832D01*
Y202831D02*
Y199498D01*
X22918Y202831D01*
X22085D01*
X21252Y201998D01*
Y200331D01*
X22085Y199498D01*
X19760Y96190D02*
Y106187D01*
X23092Y102854D01*
X26425Y106187D01*
Y96190D01*
X29757Y106187D02*
Y96190D01*
Y101188D01*
X36421D01*
Y106187D01*
Y96190D01*
X39754D02*
X43086D01*
X41420D01*
Y106187D01*
X39754Y104521D01*
X21997Y155496D02*
X19498Y157995D01*
X14499D01*
X12000Y155496D01*
Y152997D01*
X14499Y150498D01*
X19498D01*
X21997Y147998D01*
Y145499D01*
X19498Y143000D01*
X14499D01*
X12000Y145499D01*
X26995Y157995D02*
Y143000D01*
X31994Y147998D01*
X36992Y143000D01*
Y157995D01*
X41990Y143000D02*
X46989D01*
X44489D01*
Y157995D01*
X41990Y155496D01*
X127750Y205500D02*
X132748D01*
Y203001D01*
X131915Y202168D01*
X130249D01*
X129416Y203001D01*
Y205500D01*
Y203834D02*
X127750Y202168D01*
Y200502D02*
Y198836D01*
Y199669D01*
X132748D01*
X131915Y200502D01*
X127750Y193837D02*
X132748D01*
X130249Y196336D01*
Y193004D01*
X119750Y205500D02*
X124748D01*
Y203001D01*
X123915Y202168D01*
X122249D01*
X121416Y203001D01*
Y205500D01*
Y203834D02*
X119750Y202168D01*
Y200502D02*
Y198836D01*
Y199669D01*
X124748D01*
X123915Y200502D01*
Y196336D02*
X124748Y195503D01*
Y193837D01*
X123915Y193004D01*
X123082D01*
X122249Y193837D01*
Y194670D01*
Y193837D01*
X121416Y193004D01*
X120583D01*
X119750Y193837D01*
Y195503D01*
X120583Y196336D01*
X153750Y205500D02*
X158748D01*
Y203001D01*
X157915Y202168D01*
X156249D01*
X155416Y203001D01*
Y205500D01*
Y203834D02*
X153750Y202168D01*
Y200502D02*
Y198836D01*
Y199669D01*
X158748D01*
X157915Y200502D01*
X153750Y193004D02*
Y196336D01*
X157082Y193004D01*
X157915D01*
X158748Y193837D01*
Y195503D01*
X157915Y196336D01*
X111750Y205500D02*
X116748D01*
Y203001D01*
X115915Y202168D01*
X114249D01*
X113416Y203001D01*
Y205500D01*
Y203834D02*
X111750Y202168D01*
Y200502D02*
Y198836D01*
Y199669D01*
X116748D01*
X115915Y200502D01*
X111750Y196336D02*
Y194670D01*
Y195503D01*
X116748D01*
X115915Y196336D01*
X103750Y205500D02*
X108748D01*
Y203001D01*
X107915Y202168D01*
X106249D01*
X105416Y203001D01*
Y205500D01*
Y203834D02*
X103750Y202168D01*
Y200502D02*
Y198836D01*
Y199669D01*
X108748D01*
X107915Y200502D01*
Y196336D02*
X108748Y195503D01*
Y193837D01*
X107915Y193004D01*
X104583D01*
X103750Y193837D01*
Y195503D01*
X104583Y196336D01*
X107915D01*
X161750Y205500D02*
X166748D01*
Y203001D01*
X165915Y202168D01*
X164249D01*
X163416Y203001D01*
Y205500D01*
Y203834D02*
X161750Y202168D01*
X162583Y200502D02*
X161750Y199669D01*
Y198002D01*
X162583Y197169D01*
X165915D01*
X166748Y198002D01*
Y199669D01*
X165915Y200502D01*
X165082D01*
X164249Y199669D01*
Y197169D01*
X66250Y194500D02*
X61252D01*
Y196999D01*
X62085Y197832D01*
X63751D01*
X64584Y196999D01*
Y194500D01*
Y196166D02*
X66250Y197832D01*
X62085Y199498D02*
X61252Y200331D01*
Y201998D01*
X62085Y202831D01*
X62918D01*
X63751Y201998D01*
X64584Y202831D01*
X65417D01*
X66250Y201998D01*
Y200331D01*
X65417Y199498D01*
X64584D01*
X63751Y200331D01*
X62918Y199498D01*
X62085D01*
X63751Y200331D02*
Y201998D01*
X92250Y194500D02*
X87252D01*
Y196999D01*
X88085Y197832D01*
X89751D01*
X90584Y196999D01*
Y194500D01*
Y196166D02*
X92250Y197832D01*
X87252Y199498D02*
Y202831D01*
X88085D01*
X91417Y199498D01*
X92250D01*
X53750Y205500D02*
X58748D01*
Y203001D01*
X57915Y202168D01*
X56249D01*
X55416Y203001D01*
Y205500D01*
Y203834D02*
X53750Y202168D01*
X58748Y197169D02*
X57915Y198836D01*
X56249Y200502D01*
X54583D01*
X53750Y199669D01*
Y198002D01*
X54583Y197169D01*
X55416D01*
X56249Y198002D01*
Y200502D01*
X45750Y205500D02*
X50748D01*
Y203001D01*
X49915Y202168D01*
X48249D01*
X47416Y203001D01*
Y205500D01*
Y203834D02*
X45750Y202168D01*
X50748Y197169D02*
Y200502D01*
X48249D01*
X49082Y198836D01*
Y198002D01*
X48249Y197169D01*
X46583D01*
X45750Y198002D01*
Y199669D01*
X46583Y200502D01*
X95750Y205500D02*
X100748D01*
Y203001D01*
X99915Y202168D01*
X98249D01*
X97416Y203001D01*
Y205500D01*
Y203834D02*
X95750Y202168D01*
Y198002D02*
X100748D01*
X98249Y200502D01*
Y197169D01*
M02*
