G04*
G04 #@! TF.GenerationSoftware,Altium Limited,Altium Designer,21.6.4 (81)*
G04*
G04 Layer_Physical_Order=1*
G04 Layer_Color=255*
%FSLAX44Y44*%
%MOMM*%
G71*
G04*
G04 #@! TF.SameCoordinates,7B4930C9-1E03-45B5-BB94-95F13246AEDE*
G04*
G04*
G04 #@! TF.FilePolarity,Positive*
G04*
G01*
G75*
%ADD10C,0.2540*%
%ADD11C,0.1270*%
%ADD14R,0.3600X0.3500*%
%ADD15R,0.8000X1.7000*%
%ADD17R,1.0200X0.6400*%
%ADD18R,0.4000X0.4000*%
%ADD19R,0.6200X0.6200*%
%ADD20R,0.5500X0.5200*%
%ADD21R,1.0000X1.5500*%
%ADD22R,1.0000X0.8000*%
%ADD23R,0.6200X0.6200*%
%ADD38C,0.7900*%
%ADD39C,0.1520*%
%ADD40C,0.1524*%
%ADD41C,0.9000*%
%ADD42C,3.4000*%
%ADD43C,1.6500*%
%ADD44R,1.6500X1.6500*%
%ADD45C,0.6000*%
G36*
X127980Y361730D02*
X134480D01*
Y359770D01*
X127980D01*
Y353230D01*
X134480D01*
Y351270D01*
X127980D01*
Y344730D01*
X134480D01*
Y342770D01*
X127980D01*
Y338772D01*
X126802Y337998D01*
X126710Y338009D01*
X125829Y339328D01*
X124416Y340272D01*
X122750Y340604D01*
X121084Y340272D01*
X119671Y339328D01*
X118728Y337916D01*
X118396Y336250D01*
X118728Y334584D01*
X119480Y333458D01*
Y327730D01*
X126020D01*
Y333458D01*
X126772Y334584D01*
X126973Y335594D01*
X127980Y336230D01*
X128304Y336230D01*
X134480D01*
Y334270D01*
X127980D01*
Y327730D01*
X134480D01*
Y325770D01*
X127980D01*
Y319270D01*
X126020D01*
Y325770D01*
X119480D01*
Y319270D01*
X117520D01*
Y325770D01*
X110980D01*
Y319270D01*
X109020D01*
Y325770D01*
X102480D01*
Y319270D01*
X100520D01*
Y325770D01*
X93980D01*
Y319270D01*
X92020D01*
Y325770D01*
X85520D01*
Y327730D01*
X92020D01*
Y334270D01*
X85520D01*
Y336230D01*
X91696D01*
X92020Y336230D01*
X93027Y335594D01*
X93228Y334584D01*
X93980Y333458D01*
Y327730D01*
X100520D01*
Y333458D01*
X101272Y334584D01*
X101604Y336250D01*
X101272Y337916D01*
X100329Y339328D01*
X98916Y340272D01*
X97250Y340604D01*
X95584Y340272D01*
X94171Y339328D01*
X93290Y338009D01*
X93198Y337998D01*
X92020Y338772D01*
Y342770D01*
X85520D01*
Y344730D01*
X92020D01*
Y351270D01*
X85520D01*
Y353230D01*
X92020D01*
Y359770D01*
X85520D01*
Y361730D01*
X92020D01*
Y367000D01*
X93980D01*
Y365762D01*
X97250D01*
X100520D01*
Y367000D01*
X106730D01*
Y365762D01*
X110000D01*
X113270D01*
Y367000D01*
X119480D01*
Y365762D01*
X122750D01*
X126020D01*
Y367000D01*
X127980D01*
Y361730D01*
D02*
G37*
G36*
X173930Y328143D02*
Y310607D01*
X162537Y299214D01*
X162088Y298542D01*
X161930Y297750D01*
Y207870D01*
X158070D01*
Y218748D01*
X159079Y219422D01*
X160022Y220834D01*
X160354Y222500D01*
X160022Y224166D01*
X159079Y225578D01*
X157666Y226522D01*
X156000Y226854D01*
X154334Y226522D01*
X152921Y225578D01*
X151978Y224166D01*
X151646Y222500D01*
X151978Y220834D01*
X152921Y219422D01*
X153930Y218748D01*
Y217467D01*
X152660Y217082D01*
X152329Y217579D01*
X150916Y218522D01*
X149250Y218854D01*
X147584Y218522D01*
X146172Y217579D01*
X145058Y218198D01*
X144659Y218465D01*
X142993Y218797D01*
X141327Y218465D01*
X140937Y218205D01*
X139828Y217579D01*
X138416Y218522D01*
X136750Y218854D01*
X135084Y218522D01*
X133672Y217579D01*
X132728Y216166D01*
X132396Y214500D01*
X132728Y212834D01*
X133672Y211422D01*
X135084Y210478D01*
X135865Y210322D01*
X136580Y209607D01*
Y208780D01*
X136630Y208530D01*
Y202380D01*
X149370D01*
Y208530D01*
X149420Y208780D01*
Y210180D01*
X150916Y210478D01*
X152329Y211422D01*
X152660Y211918D01*
X153930Y211533D01*
Y207870D01*
X151980D01*
Y200130D01*
X150764Y200000D01*
X135236D01*
X134020Y200130D01*
Y207870D01*
X132070D01*
Y208500D01*
X131912Y209292D01*
X131463Y209964D01*
X116190Y225237D01*
Y286580D01*
X116480Y287730D01*
X120680D01*
Y286370D01*
X118380D01*
Y278640D01*
X118380Y277630D01*
X118380Y276360D01*
Y273762D01*
X127120D01*
Y276360D01*
X127120Y277370D01*
X127120Y278640D01*
Y286370D01*
X124820D01*
Y287730D01*
X129020D01*
Y305770D01*
X124820D01*
Y312730D01*
X127340D01*
X134035Y306035D01*
X134707Y305586D01*
X135500Y305428D01*
X135500Y305428D01*
X141392D01*
X142440Y304380D01*
Y300988D01*
X142440Y300988D01*
X142480Y300788D01*
Y287730D01*
X146678D01*
Y286370D01*
X144380D01*
Y278640D01*
X144380Y277630D01*
X144380Y276360D01*
Y273762D01*
X153120D01*
Y276360D01*
X153120Y277370D01*
X153120Y278640D01*
Y286370D01*
X150822D01*
Y287730D01*
X155020D01*
Y305770D01*
X146478D01*
X146426Y306031D01*
X145977Y306703D01*
X145977Y306703D01*
X143715Y308965D01*
X143043Y309414D01*
X142250Y309572D01*
X142250Y309572D01*
X136358D01*
X134463Y311467D01*
X134996Y312730D01*
X136988D01*
Y316000D01*
X137750D01*
Y316762D01*
X141020D01*
Y319270D01*
X142232Y319410D01*
X149130D01*
Y317880D01*
X150277D01*
X150651Y316610D01*
X149963Y316150D01*
X149019Y314738D01*
X148688Y313072D01*
X149019Y311406D01*
X149963Y309993D01*
X151376Y309049D01*
X153042Y308718D01*
X154708Y309049D01*
X156120Y309993D01*
X157064Y311406D01*
X157395Y313072D01*
X157064Y314738D01*
X156146Y316111D01*
Y316982D01*
X157044Y317880D01*
X157870D01*
X159140Y317880D01*
X161738D01*
Y322250D01*
Y326620D01*
X159140D01*
X158130Y326620D01*
X156860Y326620D01*
X149130D01*
Y324590D01*
X141020D01*
Y327093D01*
X148107Y334180D01*
X167893D01*
X173930Y328143D01*
D02*
G37*
G36*
X215922Y200000D02*
X169236D01*
X168020Y200130D01*
Y207870D01*
X166070D01*
Y296893D01*
X177464Y308286D01*
X177912Y308958D01*
X178070Y309750D01*
Y329000D01*
X177912Y329792D01*
X177464Y330464D01*
X170214Y337714D01*
X169542Y338162D01*
X168750Y338320D01*
X147250D01*
X146458Y338162D01*
X145786Y337714D01*
X142193Y334120D01*
X141020Y334607D01*
Y338520D01*
X134520D01*
Y340480D01*
X141020D01*
Y347020D01*
X134520D01*
Y348980D01*
X141020D01*
Y355520D01*
X134520D01*
Y357480D01*
X141020D01*
Y364020D01*
X134520D01*
Y365980D01*
X136988D01*
Y369250D01*
Y372520D01*
X134480D01*
X134250Y373695D01*
Y377055D01*
X134480Y378230D01*
X135520Y378230D01*
X136988D01*
Y381500D01*
Y384770D01*
X134480Y384770D01*
X134250Y385945D01*
Y389305D01*
X134480Y390480D01*
X136988D01*
Y393750D01*
X137750D01*
Y394512D01*
X141020D01*
Y395750D01*
X215922D01*
X215922Y200000D01*
D02*
G37*
G36*
X78980Y323480D02*
X85480D01*
Y320484D01*
X85480Y319270D01*
X84267Y319270D01*
X83012D01*
Y316000D01*
Y312730D01*
X85520D01*
Y312730D01*
X86680Y312465D01*
Y308750D01*
X86838Y307958D01*
X87287Y307286D01*
X100680Y293893D01*
Y225221D01*
X88536Y213077D01*
X88088Y212406D01*
X87930Y211614D01*
Y207870D01*
X85980D01*
Y200130D01*
X84764Y200000D01*
X69236D01*
X68020Y200130D01*
Y207870D01*
X65942D01*
Y321945D01*
X73055Y329058D01*
X78980D01*
Y323480D01*
D02*
G37*
G36*
Y394512D02*
X82250D01*
Y393750D01*
X83012D01*
Y390480D01*
X84250D01*
Y384770D01*
X83012D01*
Y381500D01*
Y378230D01*
X84250D01*
Y372520D01*
X83012D01*
Y369250D01*
X82250D01*
Y368488D01*
X78980D01*
Y367070D01*
X75304D01*
X74512Y366912D01*
X73841Y366464D01*
X48961Y341584D01*
X48513Y340913D01*
X48355Y340121D01*
Y235782D01*
X22536Y209964D01*
X22088Y209292D01*
X21930Y208500D01*
Y207870D01*
X19980D01*
Y200130D01*
X18764Y200000D01*
X4078D01*
X4078Y395750D01*
X78980D01*
Y394512D01*
D02*
G37*
%LPC*%
G36*
X126020Y364238D02*
X123512D01*
Y361730D01*
X126020D01*
Y364238D01*
D02*
G37*
G36*
X121988D02*
X119480D01*
Y361730D01*
X121988D01*
Y364238D01*
D02*
G37*
G36*
X113270Y364238D02*
X110762D01*
Y361730D01*
X113270D01*
Y364238D01*
D02*
G37*
G36*
X109238D02*
X106730D01*
Y361730D01*
X109238D01*
Y364238D01*
D02*
G37*
G36*
X100520D02*
X98012D01*
Y361730D01*
X100520D01*
Y364238D01*
D02*
G37*
G36*
X96488D02*
X93980D01*
Y361730D01*
X96488D01*
Y364238D01*
D02*
G37*
G36*
X126020Y351270D02*
X119480D01*
Y344730D01*
X126020D01*
Y351270D01*
D02*
G37*
G36*
X100520D02*
X93980D01*
Y344730D01*
X100520D01*
Y351270D01*
D02*
G37*
G36*
X113270Y334270D02*
X110762D01*
Y331762D01*
X113270D01*
Y334270D01*
D02*
G37*
G36*
X109238D02*
X106730D01*
Y331762D01*
X109238D01*
Y334270D01*
D02*
G37*
G36*
X113270Y330238D02*
X110762D01*
Y327730D01*
X113270D01*
Y330238D01*
D02*
G37*
G36*
X109238D02*
X106730D01*
Y327730D01*
X109238D01*
Y330238D01*
D02*
G37*
G36*
X163262Y326620D02*
Y323012D01*
X166870D01*
Y326620D01*
X163262D01*
D02*
G37*
G36*
X166870Y321488D02*
X163262D01*
Y317880D01*
X166870D01*
Y321488D01*
D02*
G37*
G36*
X141020Y315238D02*
X138512D01*
Y312730D01*
X141020D01*
Y315238D01*
D02*
G37*
G36*
X153120Y272238D02*
X149512D01*
Y268630D01*
X153120D01*
Y272238D01*
D02*
G37*
G36*
X147988D02*
X144380D01*
Y268630D01*
X147988D01*
Y272238D01*
D02*
G37*
G36*
X127120D02*
X123512D01*
Y268630D01*
X127120D01*
Y272238D01*
D02*
G37*
G36*
X121988D02*
X118380D01*
Y268630D01*
X121988D01*
Y272238D01*
D02*
G37*
G36*
X141020Y392988D02*
X138512D01*
Y390480D01*
X141020D01*
Y392988D01*
D02*
G37*
G36*
X138512Y384770D02*
Y382262D01*
X141020D01*
Y384770D01*
X138512D01*
D02*
G37*
G36*
X141020Y380738D02*
X138512D01*
Y378230D01*
X141020D01*
Y380738D01*
D02*
G37*
G36*
X138512Y372520D02*
Y370012D01*
X141020D01*
Y372520D01*
X138512D01*
D02*
G37*
G36*
X141020Y368488D02*
X138512D01*
Y365980D01*
X141020D01*
Y368488D01*
D02*
G37*
G36*
X81488Y319270D02*
X78980D01*
Y316762D01*
X81488D01*
Y319270D01*
D02*
G37*
G36*
Y315238D02*
X78980D01*
Y312730D01*
X81488D01*
Y315238D01*
D02*
G37*
G36*
X83370Y211320D02*
X77762D01*
Y207612D01*
X83370D01*
Y211320D01*
D02*
G37*
G36*
X76238D02*
X70630D01*
Y207612D01*
X76238D01*
Y211320D01*
D02*
G37*
G36*
X83370Y206088D02*
X77762D01*
Y202380D01*
X83370D01*
Y206088D01*
D02*
G37*
G36*
X76238D02*
X70630D01*
Y202380D01*
X76238D01*
Y206088D01*
D02*
G37*
G36*
X81488Y392988D02*
X78980D01*
Y390480D01*
X81488D01*
Y392988D01*
D02*
G37*
G36*
X81488Y384770D02*
X78980D01*
Y382262D01*
X81488D01*
Y384770D01*
D02*
G37*
G36*
Y380738D02*
X78980D01*
Y378230D01*
X81488D01*
Y380738D01*
D02*
G37*
G36*
Y372520D02*
X78980D01*
Y370012D01*
X81488D01*
Y372520D01*
D02*
G37*
%LPD*%
D10*
X102500Y150500D02*
Y164500D01*
X77000Y182500D02*
Y193150D01*
X168000Y150000D02*
X170730Y152730D01*
Y159930D01*
X180270Y169470D01*
Y169520D01*
X180750Y170000D01*
X180800D01*
X168000Y117000D02*
X185000Y100000D01*
X168000Y117000D02*
Y150000D01*
X52000Y117000D02*
Y150000D01*
X35000Y100000D02*
X52000Y117000D01*
X39200Y170000D02*
X39250D01*
X39730Y169520D01*
Y169470D02*
Y169520D01*
Y169470D02*
X49270Y159930D01*
Y152730D02*
Y159930D01*
Y152730D02*
X52000Y150000D01*
X122700Y93750D02*
X122750Y93700D01*
Y85750D02*
Y93700D01*
X97250Y78750D02*
X97300Y78800D01*
Y93750D01*
X143000Y186250D02*
Y193150D01*
X153557Y313587D02*
Y322193D01*
X153042Y313072D02*
X153557Y313587D01*
X153500Y322250D02*
X153557Y322193D01*
X141100Y206850D02*
X143000D01*
X139170Y208780D02*
X141100Y206850D01*
X139170Y208780D02*
Y210680D01*
X137412Y212438D02*
X139170Y210680D01*
X137412Y212438D02*
Y213838D01*
X136750Y214500D02*
X137412Y213838D01*
X143000Y206850D02*
X144900D01*
X146830Y208780D01*
Y211282D01*
X149250Y213702D01*
Y214500D01*
X142993Y206857D02*
X143000Y206850D01*
X142993Y206857D02*
Y214443D01*
X131250Y322500D02*
X131750Y322000D01*
X153250D01*
X153500Y322250D01*
D11*
X91750Y142000D02*
Y183384D01*
X98000Y189634D01*
X91750Y142000D02*
X94250Y139500D01*
X102500D01*
X98000Y189634D02*
Y196000D01*
X71750Y339500D02*
X88750D01*
X61460Y329210D02*
X71750Y339500D01*
X61460Y213960D02*
Y329210D01*
X64000Y204000D02*
Y322750D01*
X72250Y331000D01*
X56000Y208500D02*
X61460Y213960D01*
X56000Y204000D02*
Y208500D01*
X72250Y331000D02*
X88750D01*
D14*
X189200Y170000D02*
D03*
X180800D02*
D03*
X39200Y170000D02*
D03*
X30800D02*
D03*
D15*
X168000Y150000D02*
D03*
X202000D02*
D03*
X18000D02*
D03*
X52000D02*
D03*
D17*
X77000Y206850D02*
D03*
Y193150D02*
D03*
X143000D02*
D03*
Y206850D02*
D03*
D18*
X122750Y331000D02*
D03*
X97250D02*
D03*
Y365000D02*
D03*
X137750Y381500D02*
D03*
X131250Y365000D02*
D03*
Y356500D02*
D03*
Y348000D02*
D03*
X122750D02*
D03*
X110000Y331000D02*
D03*
X97250Y348000D02*
D03*
X137750Y393750D02*
D03*
Y369250D02*
D03*
Y360750D02*
D03*
Y352250D02*
D03*
Y343750D02*
D03*
X131250Y331000D02*
D03*
X137750Y316000D02*
D03*
X127000D02*
D03*
X118500D02*
D03*
X110000D02*
D03*
X101500D02*
D03*
X131250Y339500D02*
D03*
X137750Y335250D02*
D03*
Y326750D02*
D03*
X131250Y322500D02*
D03*
X122750D02*
D03*
X114250D02*
D03*
X105750D02*
D03*
X97250D02*
D03*
X93000Y316000D02*
D03*
X82250Y393750D02*
D03*
Y381500D02*
D03*
Y369250D02*
D03*
Y360750D02*
D03*
Y352250D02*
D03*
Y343750D02*
D03*
Y335250D02*
D03*
Y326750D02*
D03*
Y316000D02*
D03*
X88750Y365000D02*
D03*
Y356500D02*
D03*
Y348000D02*
D03*
Y339500D02*
D03*
Y331000D02*
D03*
Y322500D02*
D03*
X122750Y365000D02*
D03*
X110000D02*
D03*
D19*
X153500Y322250D02*
D03*
X162500D02*
D03*
D20*
X40000Y196000D02*
D03*
Y204000D02*
D03*
X32000D02*
D03*
Y196000D02*
D03*
X24000Y204000D02*
D03*
Y196000D02*
D03*
X130000D02*
D03*
Y204000D02*
D03*
X122000Y196000D02*
D03*
Y204000D02*
D03*
X156000Y196000D02*
D03*
Y204000D02*
D03*
X114000Y196000D02*
D03*
Y204000D02*
D03*
X106000Y196000D02*
D03*
Y204000D02*
D03*
X164000Y196000D02*
D03*
Y204000D02*
D03*
X64000D02*
D03*
Y196000D02*
D03*
X90000Y204000D02*
D03*
Y196000D02*
D03*
X56000D02*
D03*
Y204000D02*
D03*
X48000Y196000D02*
D03*
Y204000D02*
D03*
X98000Y196000D02*
D03*
Y204000D02*
D03*
D21*
X148750Y296750D02*
D03*
X122750D02*
D03*
D22*
X102500Y150500D02*
D03*
X117500D02*
D03*
Y139500D02*
D03*
X102500D02*
D03*
D23*
X122750Y282000D02*
D03*
Y273000D02*
D03*
X148750Y282000D02*
D03*
Y273000D02*
D03*
D38*
X97300Y93750D02*
D03*
Y106450D02*
D03*
X110000Y93750D02*
D03*
Y106450D02*
D03*
X122700Y93750D02*
D03*
Y106450D02*
D03*
D39*
X130000Y178718D02*
Y196000D01*
X114000Y189000D02*
Y196000D01*
X117500Y150500D02*
X128750D01*
X128750Y150500D01*
X117500Y139500D02*
X135000D01*
X56000Y181500D02*
Y196000D01*
X64000Y188750D02*
Y196000D01*
X96000Y127000D02*
Y131000D01*
X84720Y119030D02*
Y138280D01*
X78750Y126250D02*
Y140304D01*
X36554Y182500D02*
X78750Y140304D01*
X32000Y191000D02*
X84720Y138280D01*
X33500Y182500D02*
X36554D01*
X40000Y187000D02*
X96000Y131000D01*
X168750Y336250D02*
X176000Y329000D01*
X164000Y297750D02*
X176000Y309750D01*
Y329000D01*
X122750Y282000D02*
Y296750D01*
X90200Y126250D02*
X110000Y106450D01*
X90200Y126250D02*
X90250D01*
X84720Y119030D02*
X97300Y106450D01*
X96000Y127000D02*
X101750Y121250D01*
X105000D01*
X110000Y116250D01*
X156000Y204000D02*
Y222500D01*
X164000Y204000D02*
Y297750D01*
X137750Y326750D02*
X147250Y336250D01*
X168750D01*
X122000Y173500D02*
Y196000D01*
Y173500D02*
X122000Y173500D01*
X114000Y196000D02*
X114000Y196000D01*
X189200Y170000D02*
X189250D01*
X190240Y169010D01*
Y168960D02*
Y169010D01*
Y168960D02*
X199310Y159890D01*
Y152690D02*
Y159890D01*
Y152690D02*
X202000Y150000D01*
X20640Y159890D02*
X30775Y170025D01*
X18000Y150000D02*
X20640Y152640D01*
Y159890D01*
X30775Y170025D02*
Y176225D01*
X30750Y176250D02*
X30775Y176225D01*
X90000Y188750D02*
Y196000D01*
X110000Y116250D02*
X110000D01*
X24000Y192000D02*
Y196000D01*
Y192000D02*
X33500Y182500D01*
X40000Y187000D02*
Y196000D01*
X32000Y191000D02*
Y196000D01*
X110000Y84000D02*
Y85750D01*
Y84000D02*
Y93750D01*
X48000Y188750D02*
Y196000D01*
X189200Y170000D02*
X189250Y170050D01*
Y188750D01*
X122750Y296750D02*
Y322500D01*
X122750Y296750D02*
X122750Y296750D01*
Y331000D02*
Y336250D01*
X122750Y336250D02*
X122750Y336250D01*
X114120Y224380D02*
Y304924D01*
X130000Y204000D02*
Y208500D01*
X114120Y224380D02*
X130000Y208500D01*
X118500Y309304D02*
Y316000D01*
X114120Y304924D02*
X118500Y309304D01*
X111330Y219170D02*
Y306080D01*
X114250Y309000D01*
Y322500D01*
X114250Y322500D01*
X108540Y213960D02*
Y307290D01*
X110000Y308750D02*
Y316000D01*
X108540Y307290D02*
X110000Y308750D01*
X122000Y204000D02*
Y208500D01*
X111330Y219170D02*
X122000Y208500D01*
X105750Y306000D02*
X105750Y306000D01*
Y204250D02*
Y306000D01*
X105750Y306000D02*
Y322500D01*
X114000Y204000D02*
Y208500D01*
X108540Y213960D02*
X114000Y208500D01*
X90000Y211614D02*
X102750Y224363D01*
X90000Y204000D02*
Y211614D01*
X102750Y224363D02*
Y294750D01*
X88750Y308750D02*
X102750Y294750D01*
X88750Y308750D02*
Y322500D01*
X105750Y204250D02*
X106000Y204000D01*
X97250Y331000D02*
Y336250D01*
X97250Y336250D02*
X97250Y336250D01*
X98000Y204000D02*
Y212500D01*
X75304Y365000D02*
X88750D01*
X50425Y340121D02*
X75304Y365000D01*
X50425Y234925D02*
Y340121D01*
X24000Y208500D02*
X50425Y234925D01*
X24000Y204000D02*
Y208500D01*
X75000Y360750D02*
X82250D01*
X53215Y338965D02*
X75000Y360750D01*
X53215Y229715D02*
Y338965D01*
X32000Y208500D02*
X53215Y229715D01*
X32000Y204000D02*
Y208500D01*
X56005Y337755D02*
X70500Y352250D01*
X82250D01*
X56005Y224505D02*
Y337755D01*
X70250Y348000D02*
X88750D01*
X58795Y336545D02*
X70250Y348000D01*
X58795Y219295D02*
Y336545D01*
X40000Y208500D02*
X56005Y224505D01*
X40000Y204000D02*
Y208500D01*
X48000Y208500D02*
X58795Y219295D01*
X48000Y204000D02*
Y208500D01*
D40*
X156000Y170500D02*
Y196000D01*
X154688Y74188D02*
Y165237D01*
X164000Y174549D01*
X151894Y166394D02*
X156000Y170500D01*
X164000Y174549D02*
Y196000D01*
X151894Y75346D02*
Y166394D01*
X142049Y65500D02*
X151894Y75346D01*
X69800Y65500D02*
X142049D01*
X143000Y62500D02*
X154688Y74188D01*
X92200Y62500D02*
X143000D01*
X46500Y42200D02*
X69800Y65500D01*
X71900Y42200D02*
X92200Y62500D01*
X106000Y188750D02*
Y196000D01*
X148750Y282000D02*
Y296750D01*
X127000Y316000D02*
X135500Y307500D01*
X142250D01*
X144512Y300988D02*
X148750Y296750D01*
X144512Y300988D02*
Y305238D01*
X142250Y307500D02*
X144512Y305238D01*
D41*
X84600Y100100D02*
D03*
X135400Y110260D02*
D03*
Y89940D02*
D03*
D42*
X185000Y100000D02*
D03*
X35000D02*
D03*
D43*
X21100Y42200D02*
D03*
X46500D02*
D03*
X148100D02*
D03*
X173500D02*
D03*
X122700D02*
D03*
X97300D02*
D03*
X71900D02*
D03*
D44*
X198900D02*
D03*
D45*
X130000Y178718D02*
D03*
X114000Y189000D02*
D03*
X128750Y150500D02*
D03*
X135000Y139500D02*
D03*
X56000Y181500D02*
D03*
X64000Y188750D02*
D03*
X77000Y182500D02*
D03*
X102500Y164500D02*
D03*
X200000Y392500D02*
D03*
Y377500D02*
D03*
Y362500D02*
D03*
Y347500D02*
D03*
Y332500D02*
D03*
Y317500D02*
D03*
Y302500D02*
D03*
Y287500D02*
D03*
Y272500D02*
D03*
Y257500D02*
D03*
Y242500D02*
D03*
Y227500D02*
D03*
X185000Y392500D02*
D03*
Y377500D02*
D03*
Y362500D02*
D03*
Y347500D02*
D03*
Y332500D02*
D03*
Y317500D02*
D03*
Y302500D02*
D03*
Y287500D02*
D03*
Y272500D02*
D03*
Y257500D02*
D03*
Y242500D02*
D03*
Y227500D02*
D03*
X170000Y392500D02*
D03*
Y377500D02*
D03*
Y362500D02*
D03*
Y347500D02*
D03*
Y287500D02*
D03*
Y272500D02*
D03*
Y257500D02*
D03*
Y242500D02*
D03*
Y227500D02*
D03*
X155000Y392500D02*
D03*
Y377500D02*
D03*
Y362500D02*
D03*
Y347500D02*
D03*
Y257500D02*
D03*
Y242500D02*
D03*
X140000Y272500D02*
D03*
Y257500D02*
D03*
Y242500D02*
D03*
Y227500D02*
D03*
X125000Y257500D02*
D03*
Y242500D02*
D03*
Y227500D02*
D03*
X110000Y347500D02*
D03*
X95000Y287500D02*
D03*
Y272500D02*
D03*
Y257500D02*
D03*
Y242500D02*
D03*
Y227500D02*
D03*
X80000Y302500D02*
D03*
Y287500D02*
D03*
Y272500D02*
D03*
Y257500D02*
D03*
Y242500D02*
D03*
Y227500D02*
D03*
X65000Y392500D02*
D03*
Y377500D02*
D03*
Y362500D02*
D03*
X50000Y392500D02*
D03*
Y377500D02*
D03*
Y362500D02*
D03*
Y347500D02*
D03*
X35000Y392500D02*
D03*
Y377500D02*
D03*
Y362500D02*
D03*
Y347500D02*
D03*
Y332500D02*
D03*
Y317500D02*
D03*
Y302500D02*
D03*
Y287500D02*
D03*
Y272500D02*
D03*
Y257500D02*
D03*
Y242500D02*
D03*
Y227500D02*
D03*
X20000Y392500D02*
D03*
Y377500D02*
D03*
Y362500D02*
D03*
Y347500D02*
D03*
Y332500D02*
D03*
Y317500D02*
D03*
Y302500D02*
D03*
Y287500D02*
D03*
Y272500D02*
D03*
Y257500D02*
D03*
Y242500D02*
D03*
Y227500D02*
D03*
X139354Y312532D02*
D03*
X116250Y332000D02*
D03*
X131500Y272500D02*
D03*
X162500Y314500D02*
D03*
X170250Y322500D02*
D03*
X162500Y330000D02*
D03*
X150000D02*
D03*
X171250Y203250D02*
D03*
X185000D02*
D03*
X200000D02*
D03*
X212500D02*
D03*
Y212500D02*
D03*
X200000D02*
D03*
X185000D02*
D03*
X170000D02*
D03*
X20000D02*
D03*
X16750Y203250D02*
D03*
X7500D02*
D03*
Y212500D02*
D03*
Y392500D02*
D03*
Y377000D02*
D03*
Y362500D02*
D03*
Y348000D02*
D03*
Y332500D02*
D03*
Y317500D02*
D03*
Y302500D02*
D03*
Y287500D02*
D03*
Y272500D02*
D03*
Y257500D02*
D03*
Y242500D02*
D03*
Y227500D02*
D03*
X122750Y85750D02*
D03*
X97250Y78750D02*
D03*
X143000Y186250D02*
D03*
X90250Y126250D02*
D03*
X78750D02*
D03*
X153042Y313072D02*
D03*
X156000Y222500D02*
D03*
X122000Y173500D02*
D03*
X106000Y188750D02*
D03*
X30750Y176250D02*
D03*
X90000Y188750D02*
D03*
X110000Y116250D02*
D03*
Y85750D02*
D03*
X48000Y188750D02*
D03*
X189250D02*
D03*
X122750Y336250D02*
D03*
X97250D02*
D03*
X98000Y212500D02*
D03*
X70750Y214500D02*
D03*
X83250D02*
D03*
X77000D02*
D03*
X136750D02*
D03*
X149250D02*
D03*
X142993Y214443D02*
D03*
X81500Y376250D02*
D03*
Y388500D02*
D03*
X137750D02*
D03*
Y376500D02*
D03*
X116250Y365250D02*
D03*
X103750D02*
D03*
Y332000D02*
D03*
X82250Y310000D02*
D03*
X110000Y338750D02*
D03*
X122750Y359500D02*
D03*
X110000D02*
D03*
X97250D02*
D03*
X144500Y370250D02*
D03*
Y382500D02*
D03*
Y392500D02*
D03*
X75500Y370250D02*
D03*
Y382500D02*
D03*
Y392500D02*
D03*
X74750Y317000D02*
D03*
X212500Y227500D02*
D03*
Y242500D02*
D03*
Y257500D02*
D03*
Y272500D02*
D03*
Y287500D02*
D03*
Y302500D02*
D03*
Y317500D02*
D03*
Y332500D02*
D03*
Y348000D02*
D03*
Y362500D02*
D03*
Y377000D02*
D03*
Y392500D02*
D03*
M02*
