G04*
G04 #@! TF.GenerationSoftware,Altium Limited,Altium Designer,21.6.4 (81)*
G04*
G04 Layer_Physical_Order=3*
G04 Layer_Color=16440176*
%FSLAX44Y44*%
%MOMM*%
G71*
G04*
G04 #@! TF.SameCoordinates,7B4930C9-1E03-45B5-BB94-95F13246AEDE*
G04*
G04*
G04 #@! TF.FilePolarity,Positive*
G04*
G01*
G75*
%ADD39C,0.1520*%
%ADD40C,0.1524*%
%ADD41C,0.9000*%
%ADD43C,1.6500*%
%ADD44R,1.6500X1.6500*%
%ADD45C,0.6000*%
%ADD46C,2.1590*%
G36*
X208687Y394480D02*
X208478Y394166D01*
X208146Y392500D01*
X208478Y390834D01*
X209422Y389422D01*
X210834Y388478D01*
X212500Y388146D01*
X214166Y388478D01*
X214652Y388802D01*
X215922Y388124D01*
Y381376D01*
X214652Y380698D01*
X214166Y381022D01*
X212500Y381354D01*
X210834Y381022D01*
X209422Y380079D01*
X208478Y378666D01*
X208146Y377000D01*
X208478Y375334D01*
X209422Y373922D01*
X210834Y372978D01*
X212500Y372646D01*
X214166Y372978D01*
X214652Y373302D01*
X215922Y372623D01*
Y366876D01*
X214652Y366198D01*
X214166Y366522D01*
X212500Y366854D01*
X210834Y366522D01*
X209422Y365578D01*
X208478Y364166D01*
X208146Y362500D01*
X208478Y360834D01*
X209422Y359422D01*
X210834Y358478D01*
X212500Y358146D01*
X214166Y358478D01*
X214652Y358802D01*
X215922Y358124D01*
Y352377D01*
X214652Y351698D01*
X214166Y352022D01*
X212500Y352354D01*
X210834Y352022D01*
X209422Y351078D01*
X208478Y349666D01*
X208146Y348000D01*
X208478Y346334D01*
X209422Y344921D01*
X210834Y343978D01*
X212500Y343646D01*
X214166Y343978D01*
X214652Y344302D01*
X215922Y343624D01*
Y336876D01*
X214652Y336198D01*
X214166Y336522D01*
X212500Y336854D01*
X210834Y336522D01*
X209422Y335578D01*
X208478Y334166D01*
X208146Y332500D01*
X208478Y330834D01*
X209422Y329422D01*
X210834Y328478D01*
X212500Y328146D01*
X214166Y328478D01*
X214652Y328802D01*
X215922Y328124D01*
Y321876D01*
X214652Y321198D01*
X214166Y321522D01*
X212500Y321854D01*
X210834Y321522D01*
X209422Y320578D01*
X208478Y319166D01*
X208146Y317500D01*
X208478Y315834D01*
X209422Y314422D01*
X210834Y313478D01*
X212500Y313146D01*
X214166Y313478D01*
X214652Y313802D01*
X215922Y313123D01*
Y306877D01*
X214652Y306198D01*
X214166Y306522D01*
X212500Y306854D01*
X210834Y306522D01*
X209422Y305578D01*
X208478Y304166D01*
X208146Y302500D01*
X208478Y300834D01*
X209422Y299422D01*
X210834Y298478D01*
X212500Y298146D01*
X214166Y298478D01*
X214652Y298802D01*
X215922Y298123D01*
Y291877D01*
X214652Y291198D01*
X214166Y291522D01*
X212500Y291854D01*
X210834Y291522D01*
X209422Y290578D01*
X208478Y289166D01*
X208146Y287500D01*
X208478Y285834D01*
X209422Y284422D01*
X210834Y283478D01*
X212500Y283146D01*
X214166Y283478D01*
X214652Y283802D01*
X215922Y283123D01*
Y276877D01*
X214652Y276198D01*
X214166Y276522D01*
X212500Y276854D01*
X210834Y276522D01*
X209422Y275578D01*
X208478Y274166D01*
X208146Y272500D01*
X208478Y270834D01*
X209422Y269422D01*
X210834Y268478D01*
X212500Y268146D01*
X214166Y268478D01*
X214652Y268802D01*
X215922Y268123D01*
Y261877D01*
X214652Y261198D01*
X214166Y261522D01*
X212500Y261854D01*
X210834Y261522D01*
X209422Y260578D01*
X208478Y259166D01*
X208146Y257500D01*
X208478Y255834D01*
X209422Y254422D01*
X210834Y253478D01*
X212500Y253146D01*
X214166Y253478D01*
X214652Y253802D01*
X215922Y253123D01*
Y246877D01*
X214652Y246198D01*
X214166Y246522D01*
X212500Y246854D01*
X210834Y246522D01*
X209422Y245578D01*
X208478Y244166D01*
X208146Y242500D01*
X208478Y240834D01*
X209422Y239422D01*
X210834Y238478D01*
X212500Y238146D01*
X214166Y238478D01*
X214652Y238802D01*
X215922Y238123D01*
Y231877D01*
X214652Y231198D01*
X214166Y231522D01*
X212500Y231854D01*
X210834Y231522D01*
X209422Y230578D01*
X208478Y229166D01*
X208146Y227500D01*
X208478Y225834D01*
X209422Y224422D01*
X210834Y223478D01*
X212500Y223146D01*
X214166Y223478D01*
X214652Y223802D01*
X215922Y223123D01*
Y216877D01*
X214652Y216198D01*
X214166Y216522D01*
X212500Y216854D01*
X210834Y216522D01*
X209422Y215578D01*
X208478Y214166D01*
X208146Y212500D01*
X208478Y210834D01*
X209422Y209422D01*
X210731Y208547D01*
X210798Y207875D01*
X210731Y207203D01*
X209422Y206329D01*
X208478Y204916D01*
X208146Y203250D01*
X208478Y201584D01*
X208687Y201270D01*
X208009Y200000D01*
X204491D01*
X203813Y201270D01*
X204022Y201584D01*
X204354Y203250D01*
X204022Y204916D01*
X203078Y206329D01*
X201769Y207203D01*
X201702Y207875D01*
X201769Y208547D01*
X203078Y209422D01*
X204022Y210834D01*
X204354Y212500D01*
X204022Y214166D01*
X203078Y215578D01*
X201666Y216522D01*
X200000Y216854D01*
X198334Y216522D01*
X196922Y215578D01*
X195978Y214166D01*
X195646Y212500D01*
X195978Y210834D01*
X196922Y209422D01*
X198231Y208547D01*
X198298Y207875D01*
X198231Y207203D01*
X196922Y206329D01*
X195978Y204916D01*
X195646Y203250D01*
X195978Y201584D01*
X196187Y201270D01*
X195509Y200000D01*
X189491D01*
X188813Y201270D01*
X189022Y201584D01*
X189354Y203250D01*
X189022Y204916D01*
X188078Y206329D01*
X186769Y207203D01*
X186702Y207875D01*
X186769Y208547D01*
X188078Y209422D01*
X189022Y210834D01*
X189354Y212500D01*
X189022Y214166D01*
X188078Y215578D01*
X186666Y216522D01*
X185000Y216854D01*
X183334Y216522D01*
X181922Y215578D01*
X180978Y214166D01*
X180646Y212500D01*
X180978Y210834D01*
X181922Y209422D01*
X183231Y208547D01*
X183298Y207875D01*
X183231Y207203D01*
X181922Y206329D01*
X180978Y204916D01*
X180646Y203250D01*
X180978Y201584D01*
X181187Y201270D01*
X180509Y200000D01*
X175741D01*
X175063Y201270D01*
X175272Y201584D01*
X175604Y203250D01*
X175272Y204916D01*
X174328Y206329D01*
X172916Y207272D01*
X172268Y207401D01*
X172056Y208738D01*
X173078Y209422D01*
X174022Y210834D01*
X174354Y212500D01*
X174022Y214166D01*
X173078Y215578D01*
X171666Y216522D01*
X170000Y216854D01*
X168334Y216522D01*
X166922Y215578D01*
X165978Y214166D01*
X165646Y212500D01*
X165978Y210834D01*
X166922Y209422D01*
X168334Y208478D01*
X168982Y208349D01*
X169194Y207012D01*
X168172Y206329D01*
X167228Y204916D01*
X166896Y203250D01*
X167228Y201584D01*
X167437Y201270D01*
X166759Y200000D01*
X21241D01*
X20563Y201270D01*
X20772Y201584D01*
X21104Y203250D01*
X20772Y204916D01*
X19828Y206329D01*
X18812Y207008D01*
X18641Y207122D01*
X19137Y208318D01*
X19282Y208289D01*
X20000Y208146D01*
X21666Y208478D01*
X23078Y209422D01*
X24022Y210834D01*
X24354Y212500D01*
X24022Y214166D01*
X23078Y215578D01*
X21666Y216522D01*
X20000Y216854D01*
X18334Y216522D01*
X16921Y215578D01*
X15978Y214166D01*
X15646Y212500D01*
X15978Y210834D01*
X16921Y209422D01*
X17938Y208742D01*
X18109Y208628D01*
X17613Y207432D01*
X17468Y207461D01*
X16750Y207604D01*
X15084Y207272D01*
X13671Y206329D01*
X12797Y205019D01*
X12125Y204952D01*
X11453Y205019D01*
X10579Y206329D01*
X9269Y207203D01*
X9202Y207875D01*
X9269Y208547D01*
X10579Y209422D01*
X11522Y210834D01*
X11854Y212500D01*
X11522Y214166D01*
X10579Y215578D01*
X9166Y216522D01*
X7500Y216854D01*
X5834Y216522D01*
X5348Y216198D01*
X4078Y216877D01*
Y223123D01*
X5348Y223802D01*
X5834Y223478D01*
X7500Y223146D01*
X9166Y223478D01*
X10579Y224422D01*
X11522Y225834D01*
X11854Y227500D01*
X11522Y229166D01*
X10579Y230578D01*
X9166Y231522D01*
X7500Y231854D01*
X5834Y231522D01*
X5348Y231198D01*
X4078Y231877D01*
Y238123D01*
X5348Y238802D01*
X5834Y238478D01*
X7500Y238146D01*
X9166Y238478D01*
X10579Y239422D01*
X11522Y240834D01*
X11854Y242500D01*
X11522Y244166D01*
X10579Y245578D01*
X9166Y246522D01*
X7500Y246854D01*
X5834Y246522D01*
X5348Y246198D01*
X4078Y246877D01*
Y253123D01*
X5348Y253802D01*
X5834Y253478D01*
X7500Y253146D01*
X9166Y253478D01*
X10579Y254422D01*
X11522Y255834D01*
X11854Y257500D01*
X11522Y259166D01*
X10579Y260578D01*
X9166Y261522D01*
X7500Y261854D01*
X5834Y261522D01*
X5348Y261198D01*
X4078Y261877D01*
Y268123D01*
X5348Y268802D01*
X5834Y268478D01*
X7500Y268146D01*
X9166Y268478D01*
X10579Y269422D01*
X11522Y270834D01*
X11854Y272500D01*
X11522Y274166D01*
X10579Y275578D01*
X9166Y276522D01*
X7500Y276854D01*
X5834Y276522D01*
X5348Y276198D01*
X4078Y276877D01*
Y283123D01*
X5348Y283802D01*
X5834Y283478D01*
X7500Y283146D01*
X9166Y283478D01*
X10579Y284422D01*
X11522Y285834D01*
X11854Y287500D01*
X11522Y289166D01*
X10579Y290578D01*
X9166Y291522D01*
X7500Y291854D01*
X5834Y291522D01*
X5348Y291198D01*
X4078Y291877D01*
Y298123D01*
X5348Y298802D01*
X5834Y298478D01*
X7500Y298146D01*
X9166Y298478D01*
X10579Y299422D01*
X11522Y300834D01*
X11854Y302500D01*
X11522Y304166D01*
X10579Y305578D01*
X9166Y306522D01*
X7500Y306854D01*
X5834Y306522D01*
X5348Y306198D01*
X4078Y306877D01*
Y313123D01*
X5348Y313802D01*
X5834Y313478D01*
X7500Y313146D01*
X9166Y313478D01*
X10579Y314422D01*
X11522Y315834D01*
X11854Y317500D01*
X11522Y319166D01*
X10579Y320578D01*
X9166Y321522D01*
X7500Y321854D01*
X5834Y321522D01*
X5348Y321198D01*
X4078Y321876D01*
Y328124D01*
X5348Y328802D01*
X5834Y328478D01*
X7500Y328146D01*
X9166Y328478D01*
X10579Y329422D01*
X11522Y330834D01*
X11854Y332500D01*
X11522Y334166D01*
X10579Y335578D01*
X9166Y336522D01*
X7500Y336854D01*
X5834Y336522D01*
X5348Y336198D01*
X4078Y336876D01*
Y343624D01*
X5348Y344302D01*
X5834Y343978D01*
X7500Y343646D01*
X9166Y343978D01*
X10579Y344921D01*
X11522Y346334D01*
X11854Y348000D01*
X11522Y349666D01*
X10579Y351078D01*
X9166Y352022D01*
X7500Y352354D01*
X5834Y352022D01*
X5348Y351698D01*
X4078Y352377D01*
Y358124D01*
X5348Y358802D01*
X5834Y358478D01*
X7500Y358146D01*
X9166Y358478D01*
X10579Y359422D01*
X11522Y360834D01*
X11854Y362500D01*
X11522Y364166D01*
X10579Y365578D01*
X9166Y366522D01*
X7500Y366854D01*
X5834Y366522D01*
X5348Y366198D01*
X4078Y366876D01*
Y372623D01*
X5348Y373302D01*
X5834Y372978D01*
X7500Y372646D01*
X9166Y372978D01*
X10579Y373922D01*
X11522Y375334D01*
X11854Y377000D01*
X11522Y378666D01*
X10579Y380079D01*
X9166Y381022D01*
X7500Y381354D01*
X5834Y381022D01*
X5348Y380698D01*
X4078Y381376D01*
Y388124D01*
X5348Y388802D01*
X5834Y388478D01*
X7500Y388146D01*
X9166Y388478D01*
X10579Y389422D01*
X11522Y390834D01*
X11854Y392500D01*
X11522Y394166D01*
X11313Y394480D01*
X11991Y395750D01*
X15509D01*
X16188Y394480D01*
X15978Y394166D01*
X15646Y392500D01*
X15978Y390834D01*
X16922Y389422D01*
X18334Y388478D01*
X20000Y388146D01*
X21666Y388478D01*
X23078Y389422D01*
X24022Y390834D01*
X24354Y392500D01*
X24022Y394166D01*
X23812Y394480D01*
X24491Y395750D01*
X30509D01*
X31188Y394480D01*
X30978Y394166D01*
X30646Y392500D01*
X30978Y390834D01*
X31922Y389422D01*
X33334Y388478D01*
X35000Y388146D01*
X36666Y388478D01*
X38078Y389422D01*
X39022Y390834D01*
X39354Y392500D01*
X39022Y394166D01*
X38812Y394480D01*
X39491Y395750D01*
X45509D01*
X46188Y394480D01*
X45978Y394166D01*
X45646Y392500D01*
X45978Y390834D01*
X46922Y389422D01*
X48334Y388478D01*
X50000Y388146D01*
X51666Y388478D01*
X53078Y389422D01*
X54022Y390834D01*
X54354Y392500D01*
X54022Y394166D01*
X53812Y394480D01*
X54491Y395750D01*
X60509D01*
X61188Y394480D01*
X60978Y394166D01*
X60646Y392500D01*
X60978Y390834D01*
X61922Y389422D01*
X63334Y388478D01*
X65000Y388146D01*
X66666Y388478D01*
X68078Y389422D01*
X69022Y390834D01*
X69354Y392500D01*
X69022Y394166D01*
X68812Y394480D01*
X69491Y395750D01*
X71009D01*
X71687Y394480D01*
X71478Y394166D01*
X71146Y392500D01*
X71478Y390834D01*
X72421Y389422D01*
X73834Y388478D01*
X75500Y388146D01*
X75930Y388232D01*
X76031Y388043D01*
X75818Y387567D01*
X75253Y386804D01*
X73834Y386522D01*
X72421Y385578D01*
X71478Y384166D01*
X71146Y382500D01*
X71478Y380834D01*
X72421Y379422D01*
X73834Y378478D01*
X75500Y378146D01*
X76331Y378312D01*
X77339Y377217D01*
X77146Y376250D01*
X77287Y375543D01*
X76207Y374463D01*
X75500Y374604D01*
X73834Y374272D01*
X72421Y373329D01*
X71478Y371916D01*
X71146Y370250D01*
X71478Y368584D01*
X72421Y367172D01*
X73834Y366228D01*
X75500Y365896D01*
X77166Y366228D01*
X78579Y367172D01*
X79522Y368584D01*
X79854Y370250D01*
X79713Y370957D01*
X80793Y372037D01*
X81500Y371896D01*
X82980Y372191D01*
X84128Y371713D01*
X84250Y371648D01*
Y367000D01*
X98450D01*
X99492Y365730D01*
X99396Y365250D01*
X99526Y364597D01*
X99427Y364422D01*
X98426Y363620D01*
X97250Y363854D01*
X95584Y363522D01*
X94171Y362579D01*
X93228Y361166D01*
X92896Y359500D01*
X93228Y357834D01*
X94171Y356422D01*
X95584Y355478D01*
X97250Y355146D01*
X98916Y355478D01*
X100329Y356422D01*
X101272Y357834D01*
X101604Y359500D01*
X101474Y360153D01*
X101573Y360328D01*
X102574Y361130D01*
X103750Y360896D01*
X104665Y361078D01*
X105754Y360043D01*
X105646Y359500D01*
X105978Y357834D01*
X106922Y356422D01*
X108334Y355478D01*
X110000Y355146D01*
X111666Y355478D01*
X113078Y356422D01*
X114022Y357834D01*
X114354Y359500D01*
X114246Y360043D01*
X115335Y361078D01*
X116250Y360896D01*
X117426Y361130D01*
X118427Y360328D01*
X118526Y360153D01*
X118396Y359500D01*
X118728Y357834D01*
X119671Y356422D01*
X121084Y355478D01*
X122750Y355146D01*
X124416Y355478D01*
X125829Y356422D01*
X126772Y357834D01*
X127104Y359500D01*
X126772Y361166D01*
X125829Y362579D01*
X124416Y363522D01*
X122750Y363854D01*
X121574Y363620D01*
X120573Y364422D01*
X120474Y364597D01*
X120604Y365250D01*
X120508Y365730D01*
X121551Y367000D01*
X134250D01*
Y372176D01*
X135520Y372855D01*
X136084Y372478D01*
X137750Y372146D01*
X139392Y372473D01*
X139636Y372348D01*
X140419Y371620D01*
X140146Y370250D01*
X140478Y368584D01*
X141421Y367172D01*
X142834Y366228D01*
X144500Y365896D01*
X146166Y366228D01*
X147578Y367172D01*
X148522Y368584D01*
X148854Y370250D01*
X148522Y371916D01*
X147578Y373329D01*
X146166Y374272D01*
X144500Y374604D01*
X142858Y374277D01*
X142614Y374402D01*
X141831Y375130D01*
X142104Y376500D01*
X141888Y377582D01*
X142385Y378052D01*
X142997Y378445D01*
X144500Y378146D01*
X146166Y378478D01*
X147578Y379422D01*
X148522Y380834D01*
X148854Y382500D01*
X148522Y384166D01*
X147578Y385578D01*
X146166Y386522D01*
X144500Y386854D01*
X142997Y386555D01*
X142819Y386669D01*
X142702Y387168D01*
X142953Y387699D01*
X143590Y388327D01*
X144500Y388146D01*
X146166Y388478D01*
X147578Y389422D01*
X148522Y390834D01*
X148854Y392500D01*
X148522Y394166D01*
X148313Y394480D01*
X148991Y395750D01*
X150509D01*
X151188Y394480D01*
X150978Y394166D01*
X150646Y392500D01*
X150978Y390834D01*
X151922Y389422D01*
X153334Y388478D01*
X155000Y388146D01*
X156666Y388478D01*
X158078Y389422D01*
X159022Y390834D01*
X159354Y392500D01*
X159022Y394166D01*
X158812Y394480D01*
X159491Y395750D01*
X165509D01*
X166188Y394480D01*
X165978Y394166D01*
X165646Y392500D01*
X165978Y390834D01*
X166922Y389422D01*
X168334Y388478D01*
X170000Y388146D01*
X171666Y388478D01*
X173078Y389422D01*
X174022Y390834D01*
X174354Y392500D01*
X174022Y394166D01*
X173812Y394480D01*
X174491Y395750D01*
X180509D01*
X181187Y394480D01*
X180978Y394166D01*
X180646Y392500D01*
X180978Y390834D01*
X181922Y389422D01*
X183334Y388478D01*
X185000Y388146D01*
X186666Y388478D01*
X188078Y389422D01*
X189022Y390834D01*
X189354Y392500D01*
X189022Y394166D01*
X188812Y394480D01*
X189491Y395750D01*
X195509D01*
X196187Y394480D01*
X195978Y394166D01*
X195646Y392500D01*
X195978Y390834D01*
X196922Y389422D01*
X198334Y388478D01*
X200000Y388146D01*
X201666Y388478D01*
X203078Y389422D01*
X204022Y390834D01*
X204354Y392500D01*
X204022Y394166D01*
X203812Y394480D01*
X204491Y395750D01*
X208009D01*
X208687Y394480D01*
D02*
G37*
%LPC*%
G36*
X200000Y381854D02*
X198334Y381522D01*
X196922Y380578D01*
X195978Y379166D01*
X195646Y377500D01*
X195978Y375834D01*
X196922Y374422D01*
X198334Y373478D01*
X200000Y373146D01*
X201666Y373478D01*
X203078Y374422D01*
X204022Y375834D01*
X204354Y377500D01*
X204022Y379166D01*
X203078Y380578D01*
X201666Y381522D01*
X200000Y381854D01*
D02*
G37*
G36*
X185000D02*
X183334Y381522D01*
X181922Y380578D01*
X180978Y379166D01*
X180646Y377500D01*
X180978Y375834D01*
X181922Y374422D01*
X183334Y373478D01*
X185000Y373146D01*
X186666Y373478D01*
X188078Y374422D01*
X189022Y375834D01*
X189354Y377500D01*
X189022Y379166D01*
X188078Y380578D01*
X186666Y381522D01*
X185000Y381854D01*
D02*
G37*
G36*
X170000D02*
X168334Y381522D01*
X166922Y380578D01*
X165978Y379166D01*
X165646Y377500D01*
X165978Y375834D01*
X166922Y374422D01*
X168334Y373478D01*
X170000Y373146D01*
X171666Y373478D01*
X173078Y374422D01*
X174022Y375834D01*
X174354Y377500D01*
X174022Y379166D01*
X173078Y380578D01*
X171666Y381522D01*
X170000Y381854D01*
D02*
G37*
G36*
X155000D02*
X153334Y381522D01*
X151922Y380578D01*
X150978Y379166D01*
X150646Y377500D01*
X150978Y375834D01*
X151922Y374422D01*
X153334Y373478D01*
X155000Y373146D01*
X156666Y373478D01*
X158078Y374422D01*
X159022Y375834D01*
X159354Y377500D01*
X159022Y379166D01*
X158078Y380578D01*
X156666Y381522D01*
X155000Y381854D01*
D02*
G37*
G36*
X65000D02*
X63334Y381522D01*
X61922Y380578D01*
X60978Y379166D01*
X60646Y377500D01*
X60978Y375834D01*
X61922Y374422D01*
X63334Y373478D01*
X65000Y373146D01*
X66666Y373478D01*
X68078Y374422D01*
X69022Y375834D01*
X69354Y377500D01*
X69022Y379166D01*
X68078Y380578D01*
X66666Y381522D01*
X65000Y381854D01*
D02*
G37*
G36*
X50000D02*
X48334Y381522D01*
X46922Y380578D01*
X45978Y379166D01*
X45646Y377500D01*
X45978Y375834D01*
X46922Y374422D01*
X48334Y373478D01*
X50000Y373146D01*
X51666Y373478D01*
X53078Y374422D01*
X54022Y375834D01*
X54354Y377500D01*
X54022Y379166D01*
X53078Y380578D01*
X51666Y381522D01*
X50000Y381854D01*
D02*
G37*
G36*
X35000D02*
X33334Y381522D01*
X31922Y380578D01*
X30978Y379166D01*
X30646Y377500D01*
X30978Y375834D01*
X31922Y374422D01*
X33334Y373478D01*
X35000Y373146D01*
X36666Y373478D01*
X38078Y374422D01*
X39022Y375834D01*
X39354Y377500D01*
X39022Y379166D01*
X38078Y380578D01*
X36666Y381522D01*
X35000Y381854D01*
D02*
G37*
G36*
X20000D02*
X18334Y381522D01*
X16922Y380578D01*
X15978Y379166D01*
X15646Y377500D01*
X15978Y375834D01*
X16922Y374422D01*
X18334Y373478D01*
X20000Y373146D01*
X21666Y373478D01*
X23078Y374422D01*
X24022Y375834D01*
X24354Y377500D01*
X24022Y379166D01*
X23078Y380578D01*
X21666Y381522D01*
X20000Y381854D01*
D02*
G37*
G36*
X200000Y366854D02*
X198334Y366522D01*
X196922Y365578D01*
X195978Y364166D01*
X195646Y362500D01*
X195978Y360834D01*
X196922Y359422D01*
X198334Y358478D01*
X200000Y358146D01*
X201666Y358478D01*
X203078Y359422D01*
X204022Y360834D01*
X204354Y362500D01*
X204022Y364166D01*
X203078Y365578D01*
X201666Y366522D01*
X200000Y366854D01*
D02*
G37*
G36*
X185000D02*
X183334Y366522D01*
X181922Y365578D01*
X180978Y364166D01*
X180646Y362500D01*
X180978Y360834D01*
X181922Y359422D01*
X183334Y358478D01*
X185000Y358146D01*
X186666Y358478D01*
X188078Y359422D01*
X189022Y360834D01*
X189354Y362500D01*
X189022Y364166D01*
X188078Y365578D01*
X186666Y366522D01*
X185000Y366854D01*
D02*
G37*
G36*
X170000D02*
X168334Y366522D01*
X166922Y365578D01*
X165978Y364166D01*
X165646Y362500D01*
X165978Y360834D01*
X166922Y359422D01*
X168334Y358478D01*
X170000Y358146D01*
X171666Y358478D01*
X173078Y359422D01*
X174022Y360834D01*
X174354Y362500D01*
X174022Y364166D01*
X173078Y365578D01*
X171666Y366522D01*
X170000Y366854D01*
D02*
G37*
G36*
X155000D02*
X153334Y366522D01*
X151922Y365578D01*
X150978Y364166D01*
X150646Y362500D01*
X150978Y360834D01*
X151922Y359422D01*
X153334Y358478D01*
X155000Y358146D01*
X156666Y358478D01*
X158078Y359422D01*
X159022Y360834D01*
X159354Y362500D01*
X159022Y364166D01*
X158078Y365578D01*
X156666Y366522D01*
X155000Y366854D01*
D02*
G37*
G36*
X65000D02*
X63334Y366522D01*
X61922Y365578D01*
X60978Y364166D01*
X60646Y362500D01*
X60978Y360834D01*
X61922Y359422D01*
X63334Y358478D01*
X65000Y358146D01*
X66666Y358478D01*
X68078Y359422D01*
X69022Y360834D01*
X69354Y362500D01*
X69022Y364166D01*
X68078Y365578D01*
X66666Y366522D01*
X65000Y366854D01*
D02*
G37*
G36*
X50000D02*
X48334Y366522D01*
X46922Y365578D01*
X45978Y364166D01*
X45646Y362500D01*
X45978Y360834D01*
X46922Y359422D01*
X48334Y358478D01*
X50000Y358146D01*
X51666Y358478D01*
X53078Y359422D01*
X54022Y360834D01*
X54354Y362500D01*
X54022Y364166D01*
X53078Y365578D01*
X51666Y366522D01*
X50000Y366854D01*
D02*
G37*
G36*
X35000D02*
X33334Y366522D01*
X31922Y365578D01*
X30978Y364166D01*
X30646Y362500D01*
X30978Y360834D01*
X31922Y359422D01*
X33334Y358478D01*
X35000Y358146D01*
X36666Y358478D01*
X38078Y359422D01*
X39022Y360834D01*
X39354Y362500D01*
X39022Y364166D01*
X38078Y365578D01*
X36666Y366522D01*
X35000Y366854D01*
D02*
G37*
G36*
X20000D02*
X18334Y366522D01*
X16922Y365578D01*
X15978Y364166D01*
X15646Y362500D01*
X15978Y360834D01*
X16922Y359422D01*
X18334Y358478D01*
X20000Y358146D01*
X21666Y358478D01*
X23078Y359422D01*
X24022Y360834D01*
X24354Y362500D01*
X24022Y364166D01*
X23078Y365578D01*
X21666Y366522D01*
X20000Y366854D01*
D02*
G37*
G36*
X200000Y351854D02*
X198334Y351522D01*
X196922Y350578D01*
X195978Y349166D01*
X195646Y347500D01*
X195978Y345834D01*
X196922Y344422D01*
X198334Y343478D01*
X200000Y343146D01*
X201666Y343478D01*
X203078Y344422D01*
X204022Y345834D01*
X204354Y347500D01*
X204022Y349166D01*
X203078Y350578D01*
X201666Y351522D01*
X200000Y351854D01*
D02*
G37*
G36*
X185000D02*
X183334Y351522D01*
X181922Y350578D01*
X180978Y349166D01*
X180646Y347500D01*
X180978Y345834D01*
X181922Y344422D01*
X183334Y343478D01*
X185000Y343146D01*
X186666Y343478D01*
X188078Y344422D01*
X189022Y345834D01*
X189354Y347500D01*
X189022Y349166D01*
X188078Y350578D01*
X186666Y351522D01*
X185000Y351854D01*
D02*
G37*
G36*
X170000D02*
X168334Y351522D01*
X166922Y350578D01*
X165978Y349166D01*
X165646Y347500D01*
X165978Y345834D01*
X166922Y344422D01*
X168334Y343478D01*
X170000Y343146D01*
X171666Y343478D01*
X173078Y344422D01*
X174022Y345834D01*
X174354Y347500D01*
X174022Y349166D01*
X173078Y350578D01*
X171666Y351522D01*
X170000Y351854D01*
D02*
G37*
G36*
X155000D02*
X153334Y351522D01*
X151922Y350578D01*
X150978Y349166D01*
X150646Y347500D01*
X150978Y345834D01*
X151922Y344422D01*
X153334Y343478D01*
X155000Y343146D01*
X156666Y343478D01*
X158078Y344422D01*
X159022Y345834D01*
X159354Y347500D01*
X159022Y349166D01*
X158078Y350578D01*
X156666Y351522D01*
X155000Y351854D01*
D02*
G37*
G36*
X50000D02*
X48334Y351522D01*
X46922Y350578D01*
X45978Y349166D01*
X45646Y347500D01*
X45978Y345834D01*
X46922Y344422D01*
X48334Y343478D01*
X50000Y343146D01*
X51666Y343478D01*
X53078Y344422D01*
X54022Y345834D01*
X54354Y347500D01*
X54022Y349166D01*
X53078Y350578D01*
X51666Y351522D01*
X50000Y351854D01*
D02*
G37*
G36*
X35000D02*
X33334Y351522D01*
X31922Y350578D01*
X30978Y349166D01*
X30646Y347500D01*
X30978Y345834D01*
X31922Y344422D01*
X33334Y343478D01*
X35000Y343146D01*
X36666Y343478D01*
X38078Y344422D01*
X39022Y345834D01*
X39354Y347500D01*
X39022Y349166D01*
X38078Y350578D01*
X36666Y351522D01*
X35000Y351854D01*
D02*
G37*
G36*
X20000D02*
X18334Y351522D01*
X16922Y350578D01*
X15978Y349166D01*
X15646Y347500D01*
X15978Y345834D01*
X16922Y344422D01*
X18334Y343478D01*
X20000Y343146D01*
X21666Y343478D01*
X23078Y344422D01*
X24022Y345834D01*
X24354Y347500D01*
X24022Y349166D01*
X23078Y350578D01*
X21666Y351522D01*
X20000Y351854D01*
D02*
G37*
G36*
X110000D02*
X108334Y351522D01*
X106922Y350578D01*
X105978Y349166D01*
X105646Y347500D01*
X105978Y345834D01*
X106922Y344422D01*
X107768Y343856D01*
Y342394D01*
X106922Y341828D01*
X105978Y340416D01*
X105646Y338750D01*
X105973Y337108D01*
X105848Y336864D01*
X105120Y336081D01*
X103750Y336354D01*
X102816Y336168D01*
X101960Y336226D01*
X101437Y337090D01*
X101272Y337916D01*
X100329Y339328D01*
X98916Y340272D01*
X97250Y340604D01*
X95584Y340272D01*
X94171Y339328D01*
X93228Y337916D01*
X92896Y336250D01*
X93228Y334584D01*
X94171Y333172D01*
X95180Y332497D01*
Y327500D01*
X95338Y326708D01*
X95786Y326036D01*
X100680Y321143D01*
Y218107D01*
X99190Y216617D01*
X98000Y216854D01*
X96334Y216522D01*
X94922Y215578D01*
X93978Y214166D01*
X93646Y212500D01*
X93978Y210834D01*
X94922Y209422D01*
X96334Y208478D01*
X98000Y208146D01*
X99666Y208478D01*
X101079Y209422D01*
X102022Y210834D01*
X102354Y212500D01*
X102117Y213690D01*
X104214Y215786D01*
X104662Y216458D01*
X104820Y217250D01*
Y322000D01*
X104662Y322792D01*
X104214Y323464D01*
X100107Y327570D01*
X100150Y327743D01*
X101599Y328302D01*
X102084Y327978D01*
X103750Y327646D01*
X105416Y327978D01*
X106828Y328922D01*
X107772Y330334D01*
X108104Y332000D01*
X107777Y333642D01*
X107902Y333886D01*
X108630Y334669D01*
X110000Y334396D01*
X111370Y334669D01*
X112098Y333886D01*
X112223Y333642D01*
X111896Y332000D01*
X112228Y330334D01*
X113172Y328922D01*
X114584Y327978D01*
X116250Y327646D01*
X117916Y327978D01*
X119328Y328922D01*
X120272Y330334D01*
X120437Y331160D01*
X120961Y332024D01*
X121816Y332082D01*
X122750Y331896D01*
X123940Y332133D01*
X138263Y317810D01*
X137894Y316595D01*
X137688Y316554D01*
X136276Y315611D01*
X135332Y314198D01*
X135001Y312532D01*
X135332Y310866D01*
X136276Y309454D01*
X137688Y308510D01*
X139354Y308178D01*
X141021Y308510D01*
X142433Y309454D01*
X143377Y310866D01*
X143418Y311071D01*
X144633Y311440D01*
X161930Y294143D01*
Y231357D01*
X157190Y226617D01*
X156000Y226854D01*
X154334Y226522D01*
X152921Y225578D01*
X151978Y224166D01*
X151646Y222500D01*
X151978Y220834D01*
X152921Y219422D01*
X154334Y218478D01*
X156000Y218146D01*
X157666Y218478D01*
X159079Y219422D01*
X160022Y220834D01*
X160354Y222500D01*
X160117Y223690D01*
X164457Y228030D01*
X165392Y227613D01*
X165659Y227436D01*
X165978Y225834D01*
X166922Y224422D01*
X168334Y223478D01*
X170000Y223146D01*
X171666Y223478D01*
X173078Y224422D01*
X174022Y225834D01*
X174354Y227500D01*
X174022Y229166D01*
X173078Y230578D01*
X171666Y231522D01*
X170000Y231854D01*
X168334Y231522D01*
X167340Y230858D01*
X166078Y231412D01*
X166070Y231420D01*
Y238584D01*
X167340Y239142D01*
X168334Y238478D01*
X170000Y238146D01*
X171666Y238478D01*
X173078Y239422D01*
X174022Y240834D01*
X174354Y242500D01*
X174022Y244166D01*
X173078Y245578D01*
X171666Y246522D01*
X170000Y246854D01*
X168334Y246522D01*
X167340Y245858D01*
X166070Y246416D01*
Y253584D01*
X167340Y254142D01*
X168334Y253478D01*
X170000Y253146D01*
X171666Y253478D01*
X173078Y254422D01*
X174022Y255834D01*
X174354Y257500D01*
X174022Y259166D01*
X173078Y260578D01*
X171666Y261522D01*
X170000Y261854D01*
X168334Y261522D01*
X167340Y260858D01*
X166070Y261416D01*
Y268584D01*
X167340Y269142D01*
X168334Y268478D01*
X170000Y268146D01*
X171666Y268478D01*
X173078Y269422D01*
X174022Y270834D01*
X174354Y272500D01*
X174022Y274166D01*
X173078Y275578D01*
X171666Y276522D01*
X170000Y276854D01*
X168334Y276522D01*
X167340Y275858D01*
X166070Y276416D01*
Y283584D01*
X167340Y284142D01*
X168334Y283478D01*
X170000Y283146D01*
X171666Y283478D01*
X173078Y284422D01*
X174022Y285834D01*
X174354Y287500D01*
X174022Y289166D01*
X173078Y290578D01*
X171666Y291522D01*
X170000Y291854D01*
X168334Y291522D01*
X167340Y290858D01*
X166070Y291416D01*
Y295000D01*
X165912Y295792D01*
X165464Y296464D01*
X126867Y335060D01*
X127104Y336250D01*
X126772Y337916D01*
X125829Y339328D01*
X124416Y340272D01*
X122750Y340604D01*
X121084Y340272D01*
X119671Y339328D01*
X118728Y337916D01*
X118563Y337090D01*
X118040Y336226D01*
X117184Y336168D01*
X116250Y336354D01*
X114880Y336081D01*
X114152Y336864D01*
X114027Y337108D01*
X114354Y338750D01*
X114022Y340416D01*
X113078Y341828D01*
X112232Y342394D01*
Y343856D01*
X113078Y344422D01*
X114022Y345834D01*
X114354Y347500D01*
X114022Y349166D01*
X113078Y350578D01*
X111666Y351522D01*
X110000Y351854D01*
D02*
G37*
G36*
X200000Y336854D02*
X198334Y336522D01*
X196922Y335578D01*
X195978Y334166D01*
X195646Y332500D01*
X195978Y330834D01*
X196922Y329422D01*
X198334Y328478D01*
X200000Y328146D01*
X201666Y328478D01*
X203078Y329422D01*
X204022Y330834D01*
X204354Y332500D01*
X204022Y334166D01*
X203078Y335578D01*
X201666Y336522D01*
X200000Y336854D01*
D02*
G37*
G36*
X185000D02*
X183334Y336522D01*
X181922Y335578D01*
X180978Y334166D01*
X180646Y332500D01*
X180978Y330834D01*
X181922Y329422D01*
X183334Y328478D01*
X185000Y328146D01*
X186666Y328478D01*
X188078Y329422D01*
X189022Y330834D01*
X189354Y332500D01*
X189022Y334166D01*
X188078Y335578D01*
X186666Y336522D01*
X185000Y336854D01*
D02*
G37*
G36*
X35000D02*
X33334Y336522D01*
X31922Y335578D01*
X30978Y334166D01*
X30646Y332500D01*
X30978Y330834D01*
X31922Y329422D01*
X33334Y328478D01*
X35000Y328146D01*
X36666Y328478D01*
X38078Y329422D01*
X39022Y330834D01*
X39354Y332500D01*
X39022Y334166D01*
X38078Y335578D01*
X36666Y336522D01*
X35000Y336854D01*
D02*
G37*
G36*
X20000D02*
X18334Y336522D01*
X16922Y335578D01*
X15978Y334166D01*
X15646Y332500D01*
X15978Y330834D01*
X16922Y329422D01*
X18334Y328478D01*
X20000Y328146D01*
X21666Y328478D01*
X23078Y329422D01*
X24022Y330834D01*
X24354Y332500D01*
X24022Y334166D01*
X23078Y335578D01*
X21666Y336522D01*
X20000Y336854D01*
D02*
G37*
G36*
X162500Y334354D02*
X160834Y334022D01*
X159422Y333078D01*
X158478Y331666D01*
X158146Y330000D01*
X158478Y328334D01*
X159422Y326922D01*
X160834Y325978D01*
X162500Y325646D01*
X164166Y325978D01*
X165578Y326922D01*
X166522Y328334D01*
X166854Y330000D01*
X166522Y331666D01*
X165578Y333078D01*
X164166Y334022D01*
X162500Y334354D01*
D02*
G37*
G36*
X150000D02*
X148334Y334022D01*
X146922Y333078D01*
X145978Y331666D01*
X145646Y330000D01*
X145978Y328334D01*
X146922Y326922D01*
X148334Y325978D01*
X150000Y325646D01*
X151666Y325978D01*
X153078Y326922D01*
X154022Y328334D01*
X154354Y330000D01*
X154022Y331666D01*
X153078Y333078D01*
X151666Y334022D01*
X150000Y334354D01*
D02*
G37*
G36*
X170250Y326854D02*
X168584Y326522D01*
X167171Y325578D01*
X166228Y324166D01*
X165896Y322500D01*
X166228Y320834D01*
X167171Y319422D01*
X168584Y318478D01*
X170250Y318146D01*
X171916Y318478D01*
X173328Y319422D01*
X174272Y320834D01*
X174604Y322500D01*
X174272Y324166D01*
X173328Y325578D01*
X171916Y326522D01*
X170250Y326854D01*
D02*
G37*
G36*
X200000Y321854D02*
X198334Y321522D01*
X196922Y320578D01*
X195978Y319166D01*
X195646Y317500D01*
X195978Y315834D01*
X196922Y314422D01*
X198334Y313478D01*
X200000Y313146D01*
X201666Y313478D01*
X203078Y314422D01*
X204022Y315834D01*
X204354Y317500D01*
X204022Y319166D01*
X203078Y320578D01*
X201666Y321522D01*
X200000Y321854D01*
D02*
G37*
G36*
X185000D02*
X183334Y321522D01*
X181922Y320578D01*
X180978Y319166D01*
X180646Y317500D01*
X180978Y315834D01*
X181922Y314422D01*
X183334Y313478D01*
X185000Y313146D01*
X186666Y313478D01*
X188078Y314422D01*
X189022Y315834D01*
X189354Y317500D01*
X189022Y319166D01*
X188078Y320578D01*
X186666Y321522D01*
X185000Y321854D01*
D02*
G37*
G36*
X35000D02*
X33334Y321522D01*
X31922Y320578D01*
X30978Y319166D01*
X30646Y317500D01*
X30978Y315834D01*
X31922Y314422D01*
X33334Y313478D01*
X35000Y313146D01*
X36666Y313478D01*
X38078Y314422D01*
X39022Y315834D01*
X39354Y317500D01*
X39022Y319166D01*
X38078Y320578D01*
X36666Y321522D01*
X35000Y321854D01*
D02*
G37*
G36*
X20000D02*
X18334Y321522D01*
X16922Y320578D01*
X15978Y319166D01*
X15646Y317500D01*
X15978Y315834D01*
X16922Y314422D01*
X18334Y313478D01*
X20000Y313146D01*
X21666Y313478D01*
X23078Y314422D01*
X24022Y315834D01*
X24354Y317500D01*
X24022Y319166D01*
X23078Y320578D01*
X21666Y321522D01*
X20000Y321854D01*
D02*
G37*
G36*
X74750Y321354D02*
X73084Y321022D01*
X71672Y320079D01*
X70728Y318666D01*
X70396Y317000D01*
X70728Y315334D01*
X71672Y313922D01*
X73084Y312978D01*
X74750Y312646D01*
X76416Y312978D01*
X77828Y313922D01*
X78772Y315334D01*
X79104Y317000D01*
X78772Y318666D01*
X77828Y320079D01*
X76416Y321022D01*
X74750Y321354D01*
D02*
G37*
G36*
X162500Y318854D02*
X160834Y318522D01*
X159422Y317579D01*
X158478Y316166D01*
X158146Y314500D01*
X158478Y312834D01*
X159422Y311422D01*
X160834Y310478D01*
X162500Y310146D01*
X164166Y310478D01*
X165578Y311422D01*
X166522Y312834D01*
X166854Y314500D01*
X166522Y316166D01*
X165578Y317579D01*
X164166Y318522D01*
X162500Y318854D01*
D02*
G37*
G36*
X200000Y306854D02*
X198334Y306522D01*
X196922Y305578D01*
X195978Y304166D01*
X195646Y302500D01*
X195978Y300834D01*
X196922Y299422D01*
X198334Y298478D01*
X200000Y298146D01*
X201666Y298478D01*
X203078Y299422D01*
X204022Y300834D01*
X204354Y302500D01*
X204022Y304166D01*
X203078Y305578D01*
X201666Y306522D01*
X200000Y306854D01*
D02*
G37*
G36*
X185000D02*
X183334Y306522D01*
X181922Y305578D01*
X180978Y304166D01*
X180646Y302500D01*
X180978Y300834D01*
X181922Y299422D01*
X183334Y298478D01*
X185000Y298146D01*
X186666Y298478D01*
X188078Y299422D01*
X189022Y300834D01*
X189354Y302500D01*
X189022Y304166D01*
X188078Y305578D01*
X186666Y306522D01*
X185000Y306854D01*
D02*
G37*
G36*
X82250Y314354D02*
X80584Y314022D01*
X79172Y313078D01*
X78228Y311666D01*
X77896Y310000D01*
X78228Y308334D01*
X78545Y307859D01*
X78334Y306522D01*
X76922Y305578D01*
X75978Y304166D01*
X75646Y302500D01*
X75978Y300834D01*
X76922Y299422D01*
X78334Y298478D01*
X80000Y298146D01*
X81666Y298478D01*
X83078Y299422D01*
X84022Y300834D01*
X84354Y302500D01*
X84022Y304166D01*
X83705Y304641D01*
X83916Y305978D01*
X85329Y306922D01*
X86272Y308334D01*
X86604Y310000D01*
X86272Y311666D01*
X85329Y313078D01*
X83916Y314022D01*
X82250Y314354D01*
D02*
G37*
G36*
X35000Y306854D02*
X33334Y306522D01*
X31922Y305578D01*
X30978Y304166D01*
X30646Y302500D01*
X30978Y300834D01*
X31922Y299422D01*
X33334Y298478D01*
X35000Y298146D01*
X36666Y298478D01*
X38078Y299422D01*
X39022Y300834D01*
X39354Y302500D01*
X39022Y304166D01*
X38078Y305578D01*
X36666Y306522D01*
X35000Y306854D01*
D02*
G37*
G36*
X20000D02*
X18334Y306522D01*
X16922Y305578D01*
X15978Y304166D01*
X15646Y302500D01*
X15978Y300834D01*
X16922Y299422D01*
X18334Y298478D01*
X20000Y298146D01*
X21666Y298478D01*
X23078Y299422D01*
X24022Y300834D01*
X24354Y302500D01*
X24022Y304166D01*
X23078Y305578D01*
X21666Y306522D01*
X20000Y306854D01*
D02*
G37*
G36*
X200000Y291854D02*
X198334Y291522D01*
X196922Y290578D01*
X195978Y289166D01*
X195646Y287500D01*
X195978Y285834D01*
X196922Y284422D01*
X198334Y283478D01*
X200000Y283146D01*
X201666Y283478D01*
X203078Y284422D01*
X204022Y285834D01*
X204354Y287500D01*
X204022Y289166D01*
X203078Y290578D01*
X201666Y291522D01*
X200000Y291854D01*
D02*
G37*
G36*
X185000D02*
X183334Y291522D01*
X181922Y290578D01*
X180978Y289166D01*
X180646Y287500D01*
X180978Y285834D01*
X181922Y284422D01*
X183334Y283478D01*
X185000Y283146D01*
X186666Y283478D01*
X188078Y284422D01*
X189022Y285834D01*
X189354Y287500D01*
X189022Y289166D01*
X188078Y290578D01*
X186666Y291522D01*
X185000Y291854D01*
D02*
G37*
G36*
X95000D02*
X93334Y291522D01*
X91922Y290578D01*
X90978Y289166D01*
X90646Y287500D01*
X90978Y285834D01*
X91922Y284422D01*
X93334Y283478D01*
X95000Y283146D01*
X96666Y283478D01*
X98078Y284422D01*
X99022Y285834D01*
X99354Y287500D01*
X99022Y289166D01*
X98078Y290578D01*
X96666Y291522D01*
X95000Y291854D01*
D02*
G37*
G36*
X80000D02*
X78334Y291522D01*
X76922Y290578D01*
X75978Y289166D01*
X75646Y287500D01*
X75978Y285834D01*
X76922Y284422D01*
X78334Y283478D01*
X80000Y283146D01*
X81666Y283478D01*
X83078Y284422D01*
X84022Y285834D01*
X84354Y287500D01*
X84022Y289166D01*
X83078Y290578D01*
X81666Y291522D01*
X80000Y291854D01*
D02*
G37*
G36*
X35000D02*
X33334Y291522D01*
X31922Y290578D01*
X30978Y289166D01*
X30646Y287500D01*
X30978Y285834D01*
X31922Y284422D01*
X33334Y283478D01*
X35000Y283146D01*
X36666Y283478D01*
X38078Y284422D01*
X39022Y285834D01*
X39354Y287500D01*
X39022Y289166D01*
X38078Y290578D01*
X36666Y291522D01*
X35000Y291854D01*
D02*
G37*
G36*
X20000D02*
X18334Y291522D01*
X16922Y290578D01*
X15978Y289166D01*
X15646Y287500D01*
X15978Y285834D01*
X16922Y284422D01*
X18334Y283478D01*
X20000Y283146D01*
X21666Y283478D01*
X23078Y284422D01*
X24022Y285834D01*
X24354Y287500D01*
X24022Y289166D01*
X23078Y290578D01*
X21666Y291522D01*
X20000Y291854D01*
D02*
G37*
G36*
X140000Y276854D02*
X138334Y276522D01*
X136922Y275578D01*
X136514Y274968D01*
X134986D01*
X134579Y275578D01*
X133166Y276522D01*
X131500Y276854D01*
X129834Y276522D01*
X128421Y275578D01*
X127478Y274166D01*
X127146Y272500D01*
X127478Y270834D01*
X128421Y269422D01*
X129834Y268478D01*
X131500Y268146D01*
X133166Y268478D01*
X134579Y269422D01*
X134986Y270032D01*
X136514D01*
X136922Y269422D01*
X138334Y268478D01*
X140000Y268146D01*
X141666Y268478D01*
X143078Y269422D01*
X144022Y270834D01*
X144354Y272500D01*
X144022Y274166D01*
X143078Y275578D01*
X141666Y276522D01*
X140000Y276854D01*
D02*
G37*
G36*
X200000D02*
X198334Y276522D01*
X196922Y275578D01*
X195978Y274166D01*
X195646Y272500D01*
X195978Y270834D01*
X196922Y269422D01*
X198334Y268478D01*
X200000Y268146D01*
X201666Y268478D01*
X203078Y269422D01*
X204022Y270834D01*
X204354Y272500D01*
X204022Y274166D01*
X203078Y275578D01*
X201666Y276522D01*
X200000Y276854D01*
D02*
G37*
G36*
X185000D02*
X183334Y276522D01*
X181922Y275578D01*
X180978Y274166D01*
X180646Y272500D01*
X180978Y270834D01*
X181922Y269422D01*
X183334Y268478D01*
X185000Y268146D01*
X186666Y268478D01*
X188078Y269422D01*
X189022Y270834D01*
X189354Y272500D01*
X189022Y274166D01*
X188078Y275578D01*
X186666Y276522D01*
X185000Y276854D01*
D02*
G37*
G36*
X95000D02*
X93334Y276522D01*
X91922Y275578D01*
X90978Y274166D01*
X90646Y272500D01*
X90978Y270834D01*
X91922Y269422D01*
X93334Y268478D01*
X95000Y268146D01*
X96666Y268478D01*
X98078Y269422D01*
X99022Y270834D01*
X99354Y272500D01*
X99022Y274166D01*
X98078Y275578D01*
X96666Y276522D01*
X95000Y276854D01*
D02*
G37*
G36*
X80000D02*
X78334Y276522D01*
X76922Y275578D01*
X75978Y274166D01*
X75646Y272500D01*
X75978Y270834D01*
X76922Y269422D01*
X78334Y268478D01*
X80000Y268146D01*
X81666Y268478D01*
X83078Y269422D01*
X84022Y270834D01*
X84354Y272500D01*
X84022Y274166D01*
X83078Y275578D01*
X81666Y276522D01*
X80000Y276854D01*
D02*
G37*
G36*
X35000D02*
X33334Y276522D01*
X31922Y275578D01*
X30978Y274166D01*
X30646Y272500D01*
X30978Y270834D01*
X31922Y269422D01*
X33334Y268478D01*
X35000Y268146D01*
X36666Y268478D01*
X38078Y269422D01*
X39022Y270834D01*
X39354Y272500D01*
X39022Y274166D01*
X38078Y275578D01*
X36666Y276522D01*
X35000Y276854D01*
D02*
G37*
G36*
X20000D02*
X18334Y276522D01*
X16922Y275578D01*
X15978Y274166D01*
X15646Y272500D01*
X15978Y270834D01*
X16922Y269422D01*
X18334Y268478D01*
X20000Y268146D01*
X21666Y268478D01*
X23078Y269422D01*
X24022Y270834D01*
X24354Y272500D01*
X24022Y274166D01*
X23078Y275578D01*
X21666Y276522D01*
X20000Y276854D01*
D02*
G37*
G36*
X200000Y261854D02*
X198334Y261522D01*
X196922Y260578D01*
X195978Y259166D01*
X195646Y257500D01*
X195978Y255834D01*
X196922Y254422D01*
X198334Y253478D01*
X200000Y253146D01*
X201666Y253478D01*
X203078Y254422D01*
X204022Y255834D01*
X204354Y257500D01*
X204022Y259166D01*
X203078Y260578D01*
X201666Y261522D01*
X200000Y261854D01*
D02*
G37*
G36*
X185000D02*
X183334Y261522D01*
X181922Y260578D01*
X180978Y259166D01*
X180646Y257500D01*
X180978Y255834D01*
X181922Y254422D01*
X183334Y253478D01*
X185000Y253146D01*
X186666Y253478D01*
X188078Y254422D01*
X189022Y255834D01*
X189354Y257500D01*
X189022Y259166D01*
X188078Y260578D01*
X186666Y261522D01*
X185000Y261854D01*
D02*
G37*
G36*
X155000D02*
X153334Y261522D01*
X151922Y260578D01*
X150978Y259166D01*
X150646Y257500D01*
X150978Y255834D01*
X151922Y254422D01*
X153334Y253478D01*
X155000Y253146D01*
X156666Y253478D01*
X158078Y254422D01*
X159022Y255834D01*
X159354Y257500D01*
X159022Y259166D01*
X158078Y260578D01*
X156666Y261522D01*
X155000Y261854D01*
D02*
G37*
G36*
X140000D02*
X138334Y261522D01*
X136922Y260578D01*
X135978Y259166D01*
X135646Y257500D01*
X135978Y255834D01*
X136922Y254422D01*
X138334Y253478D01*
X140000Y253146D01*
X141666Y253478D01*
X143078Y254422D01*
X144022Y255834D01*
X144354Y257500D01*
X144022Y259166D01*
X143078Y260578D01*
X141666Y261522D01*
X140000Y261854D01*
D02*
G37*
G36*
X125000D02*
X123334Y261522D01*
X121922Y260578D01*
X120978Y259166D01*
X120646Y257500D01*
X120978Y255834D01*
X121922Y254422D01*
X123334Y253478D01*
X125000Y253146D01*
X126666Y253478D01*
X128078Y254422D01*
X129022Y255834D01*
X129354Y257500D01*
X129022Y259166D01*
X128078Y260578D01*
X126666Y261522D01*
X125000Y261854D01*
D02*
G37*
G36*
X95000D02*
X93334Y261522D01*
X91922Y260578D01*
X90978Y259166D01*
X90646Y257500D01*
X90978Y255834D01*
X91922Y254422D01*
X93334Y253478D01*
X95000Y253146D01*
X96666Y253478D01*
X98078Y254422D01*
X99022Y255834D01*
X99354Y257500D01*
X99022Y259166D01*
X98078Y260578D01*
X96666Y261522D01*
X95000Y261854D01*
D02*
G37*
G36*
X80000D02*
X78334Y261522D01*
X76922Y260578D01*
X75978Y259166D01*
X75646Y257500D01*
X75978Y255834D01*
X76922Y254422D01*
X78334Y253478D01*
X80000Y253146D01*
X81666Y253478D01*
X83078Y254422D01*
X84022Y255834D01*
X84354Y257500D01*
X84022Y259166D01*
X83078Y260578D01*
X81666Y261522D01*
X80000Y261854D01*
D02*
G37*
G36*
X35000D02*
X33334Y261522D01*
X31922Y260578D01*
X30978Y259166D01*
X30646Y257500D01*
X30978Y255834D01*
X31922Y254422D01*
X33334Y253478D01*
X35000Y253146D01*
X36666Y253478D01*
X38078Y254422D01*
X39022Y255834D01*
X39354Y257500D01*
X39022Y259166D01*
X38078Y260578D01*
X36666Y261522D01*
X35000Y261854D01*
D02*
G37*
G36*
X20000D02*
X18334Y261522D01*
X16922Y260578D01*
X15978Y259166D01*
X15646Y257500D01*
X15978Y255834D01*
X16922Y254422D01*
X18334Y253478D01*
X20000Y253146D01*
X21666Y253478D01*
X23078Y254422D01*
X24022Y255834D01*
X24354Y257500D01*
X24022Y259166D01*
X23078Y260578D01*
X21666Y261522D01*
X20000Y261854D01*
D02*
G37*
G36*
X200000Y246854D02*
X198334Y246522D01*
X196922Y245578D01*
X195978Y244166D01*
X195646Y242500D01*
X195978Y240834D01*
X196922Y239422D01*
X198334Y238478D01*
X200000Y238146D01*
X201666Y238478D01*
X203078Y239422D01*
X204022Y240834D01*
X204354Y242500D01*
X204022Y244166D01*
X203078Y245578D01*
X201666Y246522D01*
X200000Y246854D01*
D02*
G37*
G36*
X185000D02*
X183334Y246522D01*
X181922Y245578D01*
X180978Y244166D01*
X180646Y242500D01*
X180978Y240834D01*
X181922Y239422D01*
X183334Y238478D01*
X185000Y238146D01*
X186666Y238478D01*
X188078Y239422D01*
X189022Y240834D01*
X189354Y242500D01*
X189022Y244166D01*
X188078Y245578D01*
X186666Y246522D01*
X185000Y246854D01*
D02*
G37*
G36*
X155000D02*
X153334Y246522D01*
X151922Y245578D01*
X150978Y244166D01*
X150646Y242500D01*
X150978Y240834D01*
X151922Y239422D01*
X153334Y238478D01*
X155000Y238146D01*
X156666Y238478D01*
X158078Y239422D01*
X159022Y240834D01*
X159354Y242500D01*
X159022Y244166D01*
X158078Y245578D01*
X156666Y246522D01*
X155000Y246854D01*
D02*
G37*
G36*
X140000D02*
X138334Y246522D01*
X136922Y245578D01*
X135978Y244166D01*
X135646Y242500D01*
X135978Y240834D01*
X136922Y239422D01*
X138334Y238478D01*
X140000Y238146D01*
X141666Y238478D01*
X143078Y239422D01*
X144022Y240834D01*
X144354Y242500D01*
X144022Y244166D01*
X143078Y245578D01*
X141666Y246522D01*
X140000Y246854D01*
D02*
G37*
G36*
X125000D02*
X123334Y246522D01*
X121922Y245578D01*
X120978Y244166D01*
X120646Y242500D01*
X120978Y240834D01*
X121922Y239422D01*
X123334Y238478D01*
X125000Y238146D01*
X126666Y238478D01*
X128078Y239422D01*
X129022Y240834D01*
X129354Y242500D01*
X129022Y244166D01*
X128078Y245578D01*
X126666Y246522D01*
X125000Y246854D01*
D02*
G37*
G36*
X95000D02*
X93334Y246522D01*
X91922Y245578D01*
X90978Y244166D01*
X90646Y242500D01*
X90978Y240834D01*
X91922Y239422D01*
X93334Y238478D01*
X95000Y238146D01*
X96666Y238478D01*
X98078Y239422D01*
X99022Y240834D01*
X99354Y242500D01*
X99022Y244166D01*
X98078Y245578D01*
X96666Y246522D01*
X95000Y246854D01*
D02*
G37*
G36*
X80000D02*
X78334Y246522D01*
X76922Y245578D01*
X75978Y244166D01*
X75646Y242500D01*
X75978Y240834D01*
X76922Y239422D01*
X78334Y238478D01*
X80000Y238146D01*
X81666Y238478D01*
X83078Y239422D01*
X84022Y240834D01*
X84354Y242500D01*
X84022Y244166D01*
X83078Y245578D01*
X81666Y246522D01*
X80000Y246854D01*
D02*
G37*
G36*
X35000D02*
X33334Y246522D01*
X31922Y245578D01*
X30978Y244166D01*
X30646Y242500D01*
X30978Y240834D01*
X31922Y239422D01*
X33334Y238478D01*
X35000Y238146D01*
X36666Y238478D01*
X38078Y239422D01*
X39022Y240834D01*
X39354Y242500D01*
X39022Y244166D01*
X38078Y245578D01*
X36666Y246522D01*
X35000Y246854D01*
D02*
G37*
G36*
X20000D02*
X18334Y246522D01*
X16922Y245578D01*
X15978Y244166D01*
X15646Y242500D01*
X15978Y240834D01*
X16922Y239422D01*
X18334Y238478D01*
X20000Y238146D01*
X21666Y238478D01*
X23078Y239422D01*
X24022Y240834D01*
X24354Y242500D01*
X24022Y244166D01*
X23078Y245578D01*
X21666Y246522D01*
X20000Y246854D01*
D02*
G37*
G36*
X200000Y231854D02*
X198334Y231522D01*
X196922Y230578D01*
X195978Y229166D01*
X195646Y227500D01*
X195978Y225834D01*
X196922Y224422D01*
X198334Y223478D01*
X200000Y223146D01*
X201666Y223478D01*
X203078Y224422D01*
X204022Y225834D01*
X204354Y227500D01*
X204022Y229166D01*
X203078Y230578D01*
X201666Y231522D01*
X200000Y231854D01*
D02*
G37*
G36*
X185000D02*
X183334Y231522D01*
X181922Y230578D01*
X180978Y229166D01*
X180646Y227500D01*
X180978Y225834D01*
X181922Y224422D01*
X183334Y223478D01*
X185000Y223146D01*
X186666Y223478D01*
X188078Y224422D01*
X189022Y225834D01*
X189354Y227500D01*
X189022Y229166D01*
X188078Y230578D01*
X186666Y231522D01*
X185000Y231854D01*
D02*
G37*
G36*
X140000D02*
X138334Y231522D01*
X136922Y230578D01*
X135978Y229166D01*
X135646Y227500D01*
X135978Y225834D01*
X136922Y224422D01*
X138334Y223478D01*
X140000Y223146D01*
X141666Y223478D01*
X143078Y224422D01*
X144022Y225834D01*
X144354Y227500D01*
X144022Y229166D01*
X143078Y230578D01*
X141666Y231522D01*
X140000Y231854D01*
D02*
G37*
G36*
X125000D02*
X123334Y231522D01*
X121922Y230578D01*
X120978Y229166D01*
X120646Y227500D01*
X120978Y225834D01*
X121922Y224422D01*
X123334Y223478D01*
X125000Y223146D01*
X126666Y223478D01*
X128078Y224422D01*
X129022Y225834D01*
X129354Y227500D01*
X129022Y229166D01*
X128078Y230578D01*
X126666Y231522D01*
X125000Y231854D01*
D02*
G37*
G36*
X95000D02*
X93334Y231522D01*
X91922Y230578D01*
X90978Y229166D01*
X90646Y227500D01*
X90978Y225834D01*
X91922Y224422D01*
X93334Y223478D01*
X95000Y223146D01*
X96666Y223478D01*
X98078Y224422D01*
X99022Y225834D01*
X99354Y227500D01*
X99022Y229166D01*
X98078Y230578D01*
X96666Y231522D01*
X95000Y231854D01*
D02*
G37*
G36*
X80000D02*
X78334Y231522D01*
X76922Y230578D01*
X75978Y229166D01*
X75646Y227500D01*
X75978Y225834D01*
X76922Y224422D01*
X78334Y223478D01*
X80000Y223146D01*
X81666Y223478D01*
X83078Y224422D01*
X84022Y225834D01*
X84354Y227500D01*
X84022Y229166D01*
X83078Y230578D01*
X81666Y231522D01*
X80000Y231854D01*
D02*
G37*
G36*
X35000D02*
X33334Y231522D01*
X31922Y230578D01*
X30978Y229166D01*
X30646Y227500D01*
X30978Y225834D01*
X31922Y224422D01*
X33334Y223478D01*
X35000Y223146D01*
X36666Y223478D01*
X38078Y224422D01*
X39022Y225834D01*
X39354Y227500D01*
X39022Y229166D01*
X38078Y230578D01*
X36666Y231522D01*
X35000Y231854D01*
D02*
G37*
G36*
X20000D02*
X18334Y231522D01*
X16922Y230578D01*
X15978Y229166D01*
X15646Y227500D01*
X15978Y225834D01*
X16922Y224422D01*
X18334Y223478D01*
X20000Y223146D01*
X21666Y223478D01*
X23078Y224422D01*
X24022Y225834D01*
X24354Y227500D01*
X24022Y229166D01*
X23078Y230578D01*
X21666Y231522D01*
X20000Y231854D01*
D02*
G37*
G36*
X83250Y218854D02*
X81584Y218522D01*
X80171Y217579D01*
X80078D01*
X78666Y218522D01*
X77000Y218854D01*
X75334Y218522D01*
X73921Y217579D01*
X73829D01*
X72416Y218522D01*
X70750Y218854D01*
X69084Y218522D01*
X67671Y217579D01*
X66728Y216166D01*
X66396Y214500D01*
X66728Y212834D01*
X67671Y211422D01*
X69084Y210478D01*
X70750Y210146D01*
X72416Y210478D01*
X73829Y211422D01*
X73921D01*
X75334Y210478D01*
X77000Y210146D01*
X78666Y210478D01*
X80078Y211422D01*
X80171D01*
X81584Y210478D01*
X83250Y210146D01*
X84916Y210478D01*
X86328Y211422D01*
X87272Y212834D01*
X87604Y214500D01*
X87272Y216166D01*
X86328Y217579D01*
X84916Y218522D01*
X83250Y218854D01*
D02*
G37*
%LPD*%
D39*
X130000Y178718D02*
X130032Y178750D01*
X134551D01*
X114250Y188750D02*
X132500D01*
X114000Y189000D02*
X114250Y188750D01*
X135856Y173500D02*
X151876Y157480D01*
X122000Y173500D02*
X135856D01*
X87000Y150500D02*
X128750D01*
X135000Y139500D02*
Y155000D01*
X86000Y158750D02*
X131250D01*
X135000Y155000D01*
X56000Y188750D02*
X86000Y158750D01*
X48000Y188750D02*
X56000D01*
X56000Y181500D02*
Y181500D01*
Y181500D02*
X87000Y150500D01*
X122750Y336250D02*
X164000Y295000D01*
Y230500D02*
Y295000D01*
X156000Y222500D02*
X164000Y230500D01*
X98000Y212500D02*
X102750Y217250D01*
X97250Y327500D02*
X102750Y322000D01*
Y217250D02*
Y322000D01*
X110000Y84000D02*
Y116250D01*
X78750Y126250D02*
X90250D01*
X151876Y75322D02*
Y157480D01*
X134551Y178750D02*
X154666Y158636D01*
X132500Y188750D02*
X160250Y161000D01*
X134054Y57500D02*
X151876Y75322D01*
X154666Y74166D02*
Y158636D01*
X160250Y55450D02*
Y161000D01*
Y55450D02*
X173500Y42200D01*
X122700D02*
X154666Y74166D01*
X112600Y57500D02*
X134054D01*
X97300Y42200D02*
X112600Y57500D01*
X97250Y327500D02*
Y336250D01*
D40*
X111000Y183750D02*
X133500D01*
X106000Y188750D02*
X111000Y183750D01*
X133500D02*
X157458Y159792D01*
X148100Y42200D02*
X157458Y51558D01*
Y159792D01*
D41*
X84600Y100100D02*
D03*
X135400Y110260D02*
D03*
Y89940D02*
D03*
D43*
X21100Y42200D02*
D03*
X46500D02*
D03*
X148100D02*
D03*
X173500D02*
D03*
X122700D02*
D03*
X97300D02*
D03*
X71900D02*
D03*
D44*
X198900D02*
D03*
D45*
X130000Y178718D02*
D03*
X114000Y189000D02*
D03*
X128750Y150500D02*
D03*
X135000Y139500D02*
D03*
X56000Y181500D02*
D03*
X64000Y188750D02*
D03*
X77000Y182500D02*
D03*
X102500Y164500D02*
D03*
X200000Y392500D02*
D03*
Y377500D02*
D03*
Y362500D02*
D03*
Y347500D02*
D03*
Y332500D02*
D03*
Y317500D02*
D03*
Y302500D02*
D03*
Y287500D02*
D03*
Y272500D02*
D03*
Y257500D02*
D03*
Y242500D02*
D03*
Y227500D02*
D03*
X185000Y392500D02*
D03*
Y377500D02*
D03*
Y362500D02*
D03*
Y347500D02*
D03*
Y332500D02*
D03*
Y317500D02*
D03*
Y302500D02*
D03*
Y287500D02*
D03*
Y272500D02*
D03*
Y257500D02*
D03*
Y242500D02*
D03*
Y227500D02*
D03*
X170000Y392500D02*
D03*
Y377500D02*
D03*
Y362500D02*
D03*
Y347500D02*
D03*
Y287500D02*
D03*
Y272500D02*
D03*
Y257500D02*
D03*
Y242500D02*
D03*
Y227500D02*
D03*
X155000Y392500D02*
D03*
Y377500D02*
D03*
Y362500D02*
D03*
Y347500D02*
D03*
Y257500D02*
D03*
Y242500D02*
D03*
X140000Y272500D02*
D03*
Y257500D02*
D03*
Y242500D02*
D03*
Y227500D02*
D03*
X125000Y257500D02*
D03*
Y242500D02*
D03*
Y227500D02*
D03*
X110000Y347500D02*
D03*
X95000Y287500D02*
D03*
Y272500D02*
D03*
Y257500D02*
D03*
Y242500D02*
D03*
Y227500D02*
D03*
X80000Y302500D02*
D03*
Y287500D02*
D03*
Y272500D02*
D03*
Y257500D02*
D03*
Y242500D02*
D03*
Y227500D02*
D03*
X65000Y392500D02*
D03*
Y377500D02*
D03*
Y362500D02*
D03*
X50000Y392500D02*
D03*
Y377500D02*
D03*
Y362500D02*
D03*
Y347500D02*
D03*
X35000Y392500D02*
D03*
Y377500D02*
D03*
Y362500D02*
D03*
Y347500D02*
D03*
Y332500D02*
D03*
Y317500D02*
D03*
Y302500D02*
D03*
Y287500D02*
D03*
Y272500D02*
D03*
Y257500D02*
D03*
Y242500D02*
D03*
Y227500D02*
D03*
X20000Y392500D02*
D03*
Y377500D02*
D03*
Y362500D02*
D03*
Y347500D02*
D03*
Y332500D02*
D03*
Y317500D02*
D03*
Y302500D02*
D03*
Y287500D02*
D03*
Y272500D02*
D03*
Y257500D02*
D03*
Y242500D02*
D03*
Y227500D02*
D03*
X139354Y312532D02*
D03*
X116250Y332000D02*
D03*
X131500Y272500D02*
D03*
X162500Y314500D02*
D03*
X170250Y322500D02*
D03*
X162500Y330000D02*
D03*
X150000D02*
D03*
X171250Y203250D02*
D03*
X185000D02*
D03*
X200000D02*
D03*
X212500D02*
D03*
Y212500D02*
D03*
X200000D02*
D03*
X185000D02*
D03*
X170000D02*
D03*
X20000D02*
D03*
X16750Y203250D02*
D03*
X7500D02*
D03*
Y212500D02*
D03*
Y392500D02*
D03*
Y377000D02*
D03*
Y362500D02*
D03*
Y348000D02*
D03*
Y332500D02*
D03*
Y317500D02*
D03*
Y302500D02*
D03*
Y287500D02*
D03*
Y272500D02*
D03*
Y257500D02*
D03*
Y242500D02*
D03*
Y227500D02*
D03*
X122750Y85750D02*
D03*
X97250Y78750D02*
D03*
X143000Y186250D02*
D03*
X90250Y126250D02*
D03*
X78750D02*
D03*
X153042Y313072D02*
D03*
X156000Y222500D02*
D03*
X122000Y173500D02*
D03*
X106000Y188750D02*
D03*
X30750Y176250D02*
D03*
X90000Y188750D02*
D03*
X110000Y116250D02*
D03*
Y85750D02*
D03*
X48000Y188750D02*
D03*
X189250D02*
D03*
X122750Y336250D02*
D03*
X97250D02*
D03*
X98000Y212500D02*
D03*
X70750Y214500D02*
D03*
X83250D02*
D03*
X77000D02*
D03*
X136750D02*
D03*
X149250D02*
D03*
X142993Y214443D02*
D03*
X81500Y376250D02*
D03*
Y388500D02*
D03*
X137750D02*
D03*
Y376500D02*
D03*
X116250Y365250D02*
D03*
X103750D02*
D03*
Y332000D02*
D03*
X82250Y310000D02*
D03*
X110000Y338750D02*
D03*
X122750Y359500D02*
D03*
X110000D02*
D03*
X97250D02*
D03*
X144500Y370250D02*
D03*
Y382500D02*
D03*
Y392500D02*
D03*
X75500Y370250D02*
D03*
Y382500D02*
D03*
Y392500D02*
D03*
X74750Y317000D02*
D03*
X212500Y227500D02*
D03*
Y242500D02*
D03*
Y257500D02*
D03*
Y272500D02*
D03*
Y287500D02*
D03*
Y302500D02*
D03*
Y317500D02*
D03*
Y332500D02*
D03*
Y348000D02*
D03*
Y362500D02*
D03*
Y377000D02*
D03*
Y392500D02*
D03*
D46*
X185000Y100000D02*
D03*
X35000D02*
D03*
M02*
