G04*
G04 #@! TF.GenerationSoftware,Altium Limited,Altium Designer,21.6.4 (81)*
G04*
G04 Layer_Physical_Order=2*
G04 Layer_Color=36540*
%FSLAX44Y44*%
%MOMM*%
G71*
G04*
G04 #@! TF.SameCoordinates,7B4930C9-1E03-45B5-BB94-95F13246AEDE*
G04*
G04*
G04 #@! TF.FilePolarity,Positive*
G04*
G01*
G75*
%ADD10C,0.2540*%
%ADD41C,0.9000*%
%ADD43C,1.6500*%
%ADD44R,1.6500X1.6500*%
%ADD45C,0.6000*%
%ADD46C,2.1590*%
G36*
X215922Y200000D02*
X4078D01*
X4078Y395750D01*
X84250D01*
Y367000D01*
X134250D01*
Y395750D01*
X215922D01*
X215922Y200000D01*
D02*
G37*
%LPC*%
G36*
X122750Y340604D02*
X121084Y340272D01*
X119671Y339328D01*
X118728Y337916D01*
X118396Y336250D01*
X118728Y334584D01*
X119671Y333172D01*
X121084Y332228D01*
X122750Y331896D01*
X124416Y332228D01*
X125829Y333172D01*
X126772Y334584D01*
X127104Y336250D01*
X126772Y337916D01*
X125829Y339328D01*
X124416Y340272D01*
X122750Y340604D01*
D02*
G37*
G36*
X97250D02*
X95584Y340272D01*
X94171Y339328D01*
X93228Y337916D01*
X92896Y336250D01*
X93228Y334584D01*
X94171Y333172D01*
X95584Y332228D01*
X97250Y331896D01*
X98916Y332228D01*
X100329Y333172D01*
X101272Y334584D01*
X101604Y336250D01*
X101272Y337916D01*
X100329Y339328D01*
X98916Y340272D01*
X97250Y340604D01*
D02*
G37*
G36*
X153042Y317425D02*
X151376Y317094D01*
X149963Y316150D01*
X149019Y314738D01*
X148688Y313072D01*
X149019Y311406D01*
X149963Y309993D01*
X151376Y309049D01*
X153042Y308718D01*
X154708Y309049D01*
X156120Y309993D01*
X157064Y311406D01*
X157395Y313072D01*
X157064Y314738D01*
X156120Y316150D01*
X154708Y317094D01*
X153042Y317425D01*
D02*
G37*
G36*
X156000Y226854D02*
X154334Y226522D01*
X152921Y225578D01*
X151978Y224166D01*
X151646Y222500D01*
X151978Y220834D01*
X152921Y219422D01*
X154334Y218478D01*
X156000Y218146D01*
X157666Y218478D01*
X159079Y219422D01*
X160022Y220834D01*
X160354Y222500D01*
X160022Y224166D01*
X159079Y225578D01*
X157666Y226522D01*
X156000Y226854D01*
D02*
G37*
G36*
X149250Y218854D02*
X147584Y218522D01*
X146172Y217579D01*
X145058Y218198D01*
X144659Y218465D01*
X142993Y218797D01*
X141327Y218465D01*
X140937Y218205D01*
X139828Y217579D01*
X138416Y218522D01*
X136750Y218854D01*
X135084Y218522D01*
X133672Y217579D01*
X132728Y216166D01*
X132396Y214500D01*
X132728Y212834D01*
X133672Y211422D01*
X135084Y210478D01*
X136750Y210146D01*
X138416Y210478D01*
X138806Y210738D01*
X139915Y211364D01*
X141327Y210421D01*
X142993Y210089D01*
X144659Y210421D01*
X146071Y211364D01*
X147185Y210745D01*
X147584Y210478D01*
X149250Y210146D01*
X150916Y210478D01*
X152329Y211422D01*
X153272Y212834D01*
X153604Y214500D01*
X153272Y216166D01*
X152329Y217579D01*
X150916Y218522D01*
X149250Y218854D01*
D02*
G37*
G36*
X98000Y216854D02*
X96334Y216522D01*
X94922Y215578D01*
X93978Y214166D01*
X93646Y212500D01*
X93978Y210834D01*
X94922Y209422D01*
X96334Y208478D01*
X98000Y208146D01*
X99666Y208478D01*
X101079Y209422D01*
X102022Y210834D01*
X102354Y212500D01*
X102022Y214166D01*
X101079Y215578D01*
X99666Y216522D01*
X98000Y216854D01*
D02*
G37*
%LPD*%
D10*
X102500Y164500D02*
X143000D01*
Y78750D02*
Y164500D01*
Y186250D01*
Y69500D02*
Y78750D01*
Y69500D02*
X155500Y57000D01*
X97250Y78750D02*
X143000D01*
X155500Y57000D02*
X184100D01*
X198900Y42200D01*
D41*
X84600Y100100D02*
D03*
X135400Y110260D02*
D03*
Y89940D02*
D03*
D43*
X21100Y42200D02*
D03*
X46500D02*
D03*
X148100D02*
D03*
X173500D02*
D03*
X122700D02*
D03*
X97300D02*
D03*
X71900D02*
D03*
D44*
X198900D02*
D03*
D45*
X130000Y178718D02*
D03*
X114000Y189000D02*
D03*
X128750Y150500D02*
D03*
X135000Y139500D02*
D03*
X56000Y181500D02*
D03*
X64000Y188750D02*
D03*
X77000Y182500D02*
D03*
X102500Y164500D02*
D03*
X200000Y392500D02*
D03*
Y377500D02*
D03*
Y362500D02*
D03*
Y347500D02*
D03*
Y332500D02*
D03*
Y317500D02*
D03*
Y302500D02*
D03*
Y287500D02*
D03*
Y272500D02*
D03*
Y257500D02*
D03*
Y242500D02*
D03*
Y227500D02*
D03*
X185000Y392500D02*
D03*
Y377500D02*
D03*
Y362500D02*
D03*
Y347500D02*
D03*
Y332500D02*
D03*
Y317500D02*
D03*
Y302500D02*
D03*
Y287500D02*
D03*
Y272500D02*
D03*
Y257500D02*
D03*
Y242500D02*
D03*
Y227500D02*
D03*
X170000Y392500D02*
D03*
Y377500D02*
D03*
Y362500D02*
D03*
Y347500D02*
D03*
Y287500D02*
D03*
Y272500D02*
D03*
Y257500D02*
D03*
Y242500D02*
D03*
Y227500D02*
D03*
X155000Y392500D02*
D03*
Y377500D02*
D03*
Y362500D02*
D03*
Y347500D02*
D03*
Y257500D02*
D03*
Y242500D02*
D03*
X140000Y272500D02*
D03*
Y257500D02*
D03*
Y242500D02*
D03*
Y227500D02*
D03*
X125000Y257500D02*
D03*
Y242500D02*
D03*
Y227500D02*
D03*
X110000Y347500D02*
D03*
X95000Y287500D02*
D03*
Y272500D02*
D03*
Y257500D02*
D03*
Y242500D02*
D03*
Y227500D02*
D03*
X80000Y302500D02*
D03*
Y287500D02*
D03*
Y272500D02*
D03*
Y257500D02*
D03*
Y242500D02*
D03*
Y227500D02*
D03*
X65000Y392500D02*
D03*
Y377500D02*
D03*
Y362500D02*
D03*
X50000Y392500D02*
D03*
Y377500D02*
D03*
Y362500D02*
D03*
Y347500D02*
D03*
X35000Y392500D02*
D03*
Y377500D02*
D03*
Y362500D02*
D03*
Y347500D02*
D03*
Y332500D02*
D03*
Y317500D02*
D03*
Y302500D02*
D03*
Y287500D02*
D03*
Y272500D02*
D03*
Y257500D02*
D03*
Y242500D02*
D03*
Y227500D02*
D03*
X20000Y392500D02*
D03*
Y377500D02*
D03*
Y362500D02*
D03*
Y347500D02*
D03*
Y332500D02*
D03*
Y317500D02*
D03*
Y302500D02*
D03*
Y287500D02*
D03*
Y272500D02*
D03*
Y257500D02*
D03*
Y242500D02*
D03*
Y227500D02*
D03*
X139354Y312532D02*
D03*
X116250Y332000D02*
D03*
X131500Y272500D02*
D03*
X162500Y314500D02*
D03*
X170250Y322500D02*
D03*
X162500Y330000D02*
D03*
X150000D02*
D03*
X171250Y203250D02*
D03*
X185000D02*
D03*
X200000D02*
D03*
X212500D02*
D03*
Y212500D02*
D03*
X200000D02*
D03*
X185000D02*
D03*
X170000D02*
D03*
X20000D02*
D03*
X16750Y203250D02*
D03*
X7500D02*
D03*
Y212500D02*
D03*
Y392500D02*
D03*
Y377000D02*
D03*
Y362500D02*
D03*
Y348000D02*
D03*
Y332500D02*
D03*
Y317500D02*
D03*
Y302500D02*
D03*
Y287500D02*
D03*
Y272500D02*
D03*
Y257500D02*
D03*
Y242500D02*
D03*
Y227500D02*
D03*
X122750Y85750D02*
D03*
X97250Y78750D02*
D03*
X143000Y186250D02*
D03*
X90250Y126250D02*
D03*
X78750D02*
D03*
X153042Y313072D02*
D03*
X156000Y222500D02*
D03*
X122000Y173500D02*
D03*
X106000Y188750D02*
D03*
X30750Y176250D02*
D03*
X90000Y188750D02*
D03*
X110000Y116250D02*
D03*
Y85750D02*
D03*
X48000Y188750D02*
D03*
X189250D02*
D03*
X122750Y336250D02*
D03*
X97250D02*
D03*
X98000Y212500D02*
D03*
X70750Y214500D02*
D03*
X83250D02*
D03*
X77000D02*
D03*
X136750D02*
D03*
X149250D02*
D03*
X142993Y214443D02*
D03*
X81500Y376250D02*
D03*
Y388500D02*
D03*
X137750D02*
D03*
Y376500D02*
D03*
X116250Y365250D02*
D03*
X103750D02*
D03*
Y332000D02*
D03*
X82250Y310000D02*
D03*
X110000Y338750D02*
D03*
X122750Y359500D02*
D03*
X110000D02*
D03*
X97250D02*
D03*
X144500Y370250D02*
D03*
Y382500D02*
D03*
Y392500D02*
D03*
X75500Y370250D02*
D03*
Y382500D02*
D03*
Y392500D02*
D03*
X74750Y317000D02*
D03*
X212500Y227500D02*
D03*
Y242500D02*
D03*
Y257500D02*
D03*
Y272500D02*
D03*
Y287500D02*
D03*
Y302500D02*
D03*
Y317500D02*
D03*
Y332500D02*
D03*
Y348000D02*
D03*
Y362500D02*
D03*
Y377000D02*
D03*
Y392500D02*
D03*
D46*
X185000Y100000D02*
D03*
X35000D02*
D03*
M02*
