G04*
G04 #@! TF.GenerationSoftware,Altium Limited,Altium Designer,21.6.4 (81)*
G04*
G04 Layer_Color=2752767*
%FSLAX44Y44*%
%MOMM*%
G71*
G04*
G04 #@! TF.SameCoordinates,7B4930C9-1E03-45B5-BB94-95F13246AEDE*
G04*
G04*
G04 #@! TF.FilePolarity,Positive*
G04*
G01*
G75*
%ADD47C,0.0508*%
%ADD51C,0.0677*%
D47*
X82568Y98068D02*
Y102132D01*
X86632D01*
Y98068D01*
X82568D01*
X133368Y108228D02*
Y112292D01*
X137432D01*
Y108228D01*
X133368D01*
Y87908D02*
Y91972D01*
X137432D01*
Y87908D01*
X133368D01*
X21100Y40168D02*
X19068Y44232D01*
X23132D01*
X21100Y40168D01*
X46500D02*
X44468Y44232D01*
X48532D01*
X46500Y40168D01*
X148100D02*
X146068Y44232D01*
X150132D01*
X148100Y40168D01*
X198900D02*
X196868Y44232D01*
X200932D01*
X198900Y40168D01*
X173500D02*
X171468Y44232D01*
X175532D01*
X173500Y40168D01*
X122700D02*
X120668Y44232D01*
X124732D01*
X122700Y40168D01*
X97300D02*
X95268Y44232D01*
X99332D01*
X97300Y40168D01*
X71900D02*
X69868Y44232D01*
X73932D01*
X71900Y40168D01*
X130000Y176686D02*
X131016Y177702D01*
X132032D01*
X131016Y178718D01*
X132032Y179734D01*
X131016D01*
X130000Y180750D01*
X128984Y179734D01*
X127968D01*
X128984Y178718D01*
X127968Y177702D01*
X128984D01*
X130000Y176686D01*
X114000Y186968D02*
X115016Y187984D01*
X116032D01*
X115016Y189000D01*
X116032Y190016D01*
X115016D01*
X114000Y191032D01*
X112984Y190016D01*
X111968D01*
X112984Y189000D01*
X111968Y187984D01*
X112984D01*
X114000Y186968D01*
X128750Y148468D02*
X129766Y149484D01*
X130782D01*
X129766Y150500D01*
X130782Y151516D01*
X129766D01*
X128750Y152532D01*
X127734Y151516D01*
X126718D01*
X127734Y150500D01*
X126718Y149484D01*
X127734D01*
X128750Y148468D01*
X135000Y137468D02*
X136016Y138484D01*
X137032D01*
X136016Y139500D01*
X137032Y140516D01*
X136016D01*
X135000Y141532D01*
X133984Y140516D01*
X132968D01*
X133984Y139500D01*
X132968Y138484D01*
X133984D01*
X135000Y137468D01*
X56000Y179468D02*
X57016Y180484D01*
X58032D01*
X57016Y181500D01*
X58032Y182516D01*
X57016D01*
X56000Y183532D01*
X54984Y182516D01*
X53968D01*
X54984Y181500D01*
X53968Y180484D01*
X54984D01*
X56000Y179468D01*
X64000Y186718D02*
X65016Y187734D01*
X66032D01*
X65016Y188750D01*
X66032Y189766D01*
X65016D01*
X64000Y190782D01*
X62984Y189766D01*
X61968D01*
X62984Y188750D01*
X61968Y187734D01*
X62984D01*
X64000Y186718D01*
X77000Y180468D02*
X78016Y181484D01*
X79032D01*
X78016Y182500D01*
X79032Y183516D01*
X78016D01*
X77000Y184532D01*
X75984Y183516D01*
X74968D01*
X75984Y182500D01*
X74968Y181484D01*
X75984D01*
X77000Y180468D01*
X102500Y162468D02*
X103516Y163484D01*
X104532D01*
X103516Y164500D01*
X104532Y165516D01*
X103516D01*
X102500Y166532D01*
X101484Y165516D01*
X100468D01*
X101484Y164500D01*
X100468Y163484D01*
X101484D01*
X102500Y162468D01*
X200000Y390468D02*
X201016Y391484D01*
X202032D01*
X201016Y392500D01*
X202032Y393516D01*
X201016D01*
X200000Y394532D01*
X198984Y393516D01*
X197968D01*
X198984Y392500D01*
X197968Y391484D01*
X198984D01*
X200000Y390468D01*
Y375468D02*
X201016Y376484D01*
X202032D01*
X201016Y377500D01*
X202032Y378516D01*
X201016D01*
X200000Y379532D01*
X198984Y378516D01*
X197968D01*
X198984Y377500D01*
X197968Y376484D01*
X198984D01*
X200000Y375468D01*
Y360468D02*
X201016Y361484D01*
X202032D01*
X201016Y362500D01*
X202032Y363516D01*
X201016D01*
X200000Y364532D01*
X198984Y363516D01*
X197968D01*
X198984Y362500D01*
X197968Y361484D01*
X198984D01*
X200000Y360468D01*
Y345468D02*
X201016Y346484D01*
X202032D01*
X201016Y347500D01*
X202032Y348516D01*
X201016D01*
X200000Y349532D01*
X198984Y348516D01*
X197968D01*
X198984Y347500D01*
X197968Y346484D01*
X198984D01*
X200000Y345468D01*
Y330468D02*
X201016Y331484D01*
X202032D01*
X201016Y332500D01*
X202032Y333516D01*
X201016D01*
X200000Y334532D01*
X198984Y333516D01*
X197968D01*
X198984Y332500D01*
X197968Y331484D01*
X198984D01*
X200000Y330468D01*
Y315468D02*
X201016Y316484D01*
X202032D01*
X201016Y317500D01*
X202032Y318516D01*
X201016D01*
X200000Y319532D01*
X198984Y318516D01*
X197968D01*
X198984Y317500D01*
X197968Y316484D01*
X198984D01*
X200000Y315468D01*
Y300468D02*
X201016Y301484D01*
X202032D01*
X201016Y302500D01*
X202032Y303516D01*
X201016D01*
X200000Y304532D01*
X198984Y303516D01*
X197968D01*
X198984Y302500D01*
X197968Y301484D01*
X198984D01*
X200000Y300468D01*
Y285468D02*
X201016Y286484D01*
X202032D01*
X201016Y287500D01*
X202032Y288516D01*
X201016D01*
X200000Y289532D01*
X198984Y288516D01*
X197968D01*
X198984Y287500D01*
X197968Y286484D01*
X198984D01*
X200000Y285468D01*
Y270468D02*
X201016Y271484D01*
X202032D01*
X201016Y272500D01*
X202032Y273516D01*
X201016D01*
X200000Y274532D01*
X198984Y273516D01*
X197968D01*
X198984Y272500D01*
X197968Y271484D01*
X198984D01*
X200000Y270468D01*
Y255468D02*
X201016Y256484D01*
X202032D01*
X201016Y257500D01*
X202032Y258516D01*
X201016D01*
X200000Y259532D01*
X198984Y258516D01*
X197968D01*
X198984Y257500D01*
X197968Y256484D01*
X198984D01*
X200000Y255468D01*
Y240468D02*
X201016Y241484D01*
X202032D01*
X201016Y242500D01*
X202032Y243516D01*
X201016D01*
X200000Y244532D01*
X198984Y243516D01*
X197968D01*
X198984Y242500D01*
X197968Y241484D01*
X198984D01*
X200000Y240468D01*
Y225468D02*
X201016Y226484D01*
X202032D01*
X201016Y227500D01*
X202032Y228516D01*
X201016D01*
X200000Y229532D01*
X198984Y228516D01*
X197968D01*
X198984Y227500D01*
X197968Y226484D01*
X198984D01*
X200000Y225468D01*
X185000Y390468D02*
X186016Y391484D01*
X187032D01*
X186016Y392500D01*
X187032Y393516D01*
X186016D01*
X185000Y394532D01*
X183984Y393516D01*
X182968D01*
X183984Y392500D01*
X182968Y391484D01*
X183984D01*
X185000Y390468D01*
Y375468D02*
X186016Y376484D01*
X187032D01*
X186016Y377500D01*
X187032Y378516D01*
X186016D01*
X185000Y379532D01*
X183984Y378516D01*
X182968D01*
X183984Y377500D01*
X182968Y376484D01*
X183984D01*
X185000Y375468D01*
Y360468D02*
X186016Y361484D01*
X187032D01*
X186016Y362500D01*
X187032Y363516D01*
X186016D01*
X185000Y364532D01*
X183984Y363516D01*
X182968D01*
X183984Y362500D01*
X182968Y361484D01*
X183984D01*
X185000Y360468D01*
Y345468D02*
X186016Y346484D01*
X187032D01*
X186016Y347500D01*
X187032Y348516D01*
X186016D01*
X185000Y349532D01*
X183984Y348516D01*
X182968D01*
X183984Y347500D01*
X182968Y346484D01*
X183984D01*
X185000Y345468D01*
Y330468D02*
X186016Y331484D01*
X187032D01*
X186016Y332500D01*
X187032Y333516D01*
X186016D01*
X185000Y334532D01*
X183984Y333516D01*
X182968D01*
X183984Y332500D01*
X182968Y331484D01*
X183984D01*
X185000Y330468D01*
Y315468D02*
X186016Y316484D01*
X187032D01*
X186016Y317500D01*
X187032Y318516D01*
X186016D01*
X185000Y319532D01*
X183984Y318516D01*
X182968D01*
X183984Y317500D01*
X182968Y316484D01*
X183984D01*
X185000Y315468D01*
Y300468D02*
X186016Y301484D01*
X187032D01*
X186016Y302500D01*
X187032Y303516D01*
X186016D01*
X185000Y304532D01*
X183984Y303516D01*
X182968D01*
X183984Y302500D01*
X182968Y301484D01*
X183984D01*
X185000Y300468D01*
Y285468D02*
X186016Y286484D01*
X187032D01*
X186016Y287500D01*
X187032Y288516D01*
X186016D01*
X185000Y289532D01*
X183984Y288516D01*
X182968D01*
X183984Y287500D01*
X182968Y286484D01*
X183984D01*
X185000Y285468D01*
Y270468D02*
X186016Y271484D01*
X187032D01*
X186016Y272500D01*
X187032Y273516D01*
X186016D01*
X185000Y274532D01*
X183984Y273516D01*
X182968D01*
X183984Y272500D01*
X182968Y271484D01*
X183984D01*
X185000Y270468D01*
Y255468D02*
X186016Y256484D01*
X187032D01*
X186016Y257500D01*
X187032Y258516D01*
X186016D01*
X185000Y259532D01*
X183984Y258516D01*
X182968D01*
X183984Y257500D01*
X182968Y256484D01*
X183984D01*
X185000Y255468D01*
Y240468D02*
X186016Y241484D01*
X187032D01*
X186016Y242500D01*
X187032Y243516D01*
X186016D01*
X185000Y244532D01*
X183984Y243516D01*
X182968D01*
X183984Y242500D01*
X182968Y241484D01*
X183984D01*
X185000Y240468D01*
Y225468D02*
X186016Y226484D01*
X187032D01*
X186016Y227500D01*
X187032Y228516D01*
X186016D01*
X185000Y229532D01*
X183984Y228516D01*
X182968D01*
X183984Y227500D01*
X182968Y226484D01*
X183984D01*
X185000Y225468D01*
X170000Y390468D02*
X171016Y391484D01*
X172032D01*
X171016Y392500D01*
X172032Y393516D01*
X171016D01*
X170000Y394532D01*
X168984Y393516D01*
X167968D01*
X168984Y392500D01*
X167968Y391484D01*
X168984D01*
X170000Y390468D01*
Y375468D02*
X171016Y376484D01*
X172032D01*
X171016Y377500D01*
X172032Y378516D01*
X171016D01*
X170000Y379532D01*
X168984Y378516D01*
X167968D01*
X168984Y377500D01*
X167968Y376484D01*
X168984D01*
X170000Y375468D01*
Y360468D02*
X171016Y361484D01*
X172032D01*
X171016Y362500D01*
X172032Y363516D01*
X171016D01*
X170000Y364532D01*
X168984Y363516D01*
X167968D01*
X168984Y362500D01*
X167968Y361484D01*
X168984D01*
X170000Y360468D01*
Y345468D02*
X171016Y346484D01*
X172032D01*
X171016Y347500D01*
X172032Y348516D01*
X171016D01*
X170000Y349532D01*
X168984Y348516D01*
X167968D01*
X168984Y347500D01*
X167968Y346484D01*
X168984D01*
X170000Y345468D01*
Y285468D02*
X171016Y286484D01*
X172032D01*
X171016Y287500D01*
X172032Y288516D01*
X171016D01*
X170000Y289532D01*
X168984Y288516D01*
X167968D01*
X168984Y287500D01*
X167968Y286484D01*
X168984D01*
X170000Y285468D01*
Y270468D02*
X171016Y271484D01*
X172032D01*
X171016Y272500D01*
X172032Y273516D01*
X171016D01*
X170000Y274532D01*
X168984Y273516D01*
X167968D01*
X168984Y272500D01*
X167968Y271484D01*
X168984D01*
X170000Y270468D01*
Y255468D02*
X171016Y256484D01*
X172032D01*
X171016Y257500D01*
X172032Y258516D01*
X171016D01*
X170000Y259532D01*
X168984Y258516D01*
X167968D01*
X168984Y257500D01*
X167968Y256484D01*
X168984D01*
X170000Y255468D01*
Y240468D02*
X171016Y241484D01*
X172032D01*
X171016Y242500D01*
X172032Y243516D01*
X171016D01*
X170000Y244532D01*
X168984Y243516D01*
X167968D01*
X168984Y242500D01*
X167968Y241484D01*
X168984D01*
X170000Y240468D01*
Y225468D02*
X171016Y226484D01*
X172032D01*
X171016Y227500D01*
X172032Y228516D01*
X171016D01*
X170000Y229532D01*
X168984Y228516D01*
X167968D01*
X168984Y227500D01*
X167968Y226484D01*
X168984D01*
X170000Y225468D01*
X155000Y390468D02*
X156016Y391484D01*
X157032D01*
X156016Y392500D01*
X157032Y393516D01*
X156016D01*
X155000Y394532D01*
X153984Y393516D01*
X152968D01*
X153984Y392500D01*
X152968Y391484D01*
X153984D01*
X155000Y390468D01*
Y375468D02*
X156016Y376484D01*
X157032D01*
X156016Y377500D01*
X157032Y378516D01*
X156016D01*
X155000Y379532D01*
X153984Y378516D01*
X152968D01*
X153984Y377500D01*
X152968Y376484D01*
X153984D01*
X155000Y375468D01*
Y360468D02*
X156016Y361484D01*
X157032D01*
X156016Y362500D01*
X157032Y363516D01*
X156016D01*
X155000Y364532D01*
X153984Y363516D01*
X152968D01*
X153984Y362500D01*
X152968Y361484D01*
X153984D01*
X155000Y360468D01*
Y345468D02*
X156016Y346484D01*
X157032D01*
X156016Y347500D01*
X157032Y348516D01*
X156016D01*
X155000Y349532D01*
X153984Y348516D01*
X152968D01*
X153984Y347500D01*
X152968Y346484D01*
X153984D01*
X155000Y345468D01*
Y255468D02*
X156016Y256484D01*
X157032D01*
X156016Y257500D01*
X157032Y258516D01*
X156016D01*
X155000Y259532D01*
X153984Y258516D01*
X152968D01*
X153984Y257500D01*
X152968Y256484D01*
X153984D01*
X155000Y255468D01*
Y240468D02*
X156016Y241484D01*
X157032D01*
X156016Y242500D01*
X157032Y243516D01*
X156016D01*
X155000Y244532D01*
X153984Y243516D01*
X152968D01*
X153984Y242500D01*
X152968Y241484D01*
X153984D01*
X155000Y240468D01*
X140000Y270468D02*
X141016Y271484D01*
X142032D01*
X141016Y272500D01*
X142032Y273516D01*
X141016D01*
X140000Y274532D01*
X138984Y273516D01*
X137968D01*
X138984Y272500D01*
X137968Y271484D01*
X138984D01*
X140000Y270468D01*
Y255468D02*
X141016Y256484D01*
X142032D01*
X141016Y257500D01*
X142032Y258516D01*
X141016D01*
X140000Y259532D01*
X138984Y258516D01*
X137968D01*
X138984Y257500D01*
X137968Y256484D01*
X138984D01*
X140000Y255468D01*
Y240468D02*
X141016Y241484D01*
X142032D01*
X141016Y242500D01*
X142032Y243516D01*
X141016D01*
X140000Y244532D01*
X138984Y243516D01*
X137968D01*
X138984Y242500D01*
X137968Y241484D01*
X138984D01*
X140000Y240468D01*
Y225468D02*
X141016Y226484D01*
X142032D01*
X141016Y227500D01*
X142032Y228516D01*
X141016D01*
X140000Y229532D01*
X138984Y228516D01*
X137968D01*
X138984Y227500D01*
X137968Y226484D01*
X138984D01*
X140000Y225468D01*
X125000Y255468D02*
X126016Y256484D01*
X127032D01*
X126016Y257500D01*
X127032Y258516D01*
X126016D01*
X125000Y259532D01*
X123984Y258516D01*
X122968D01*
X123984Y257500D01*
X122968Y256484D01*
X123984D01*
X125000Y255468D01*
Y240468D02*
X126016Y241484D01*
X127032D01*
X126016Y242500D01*
X127032Y243516D01*
X126016D01*
X125000Y244532D01*
X123984Y243516D01*
X122968D01*
X123984Y242500D01*
X122968Y241484D01*
X123984D01*
X125000Y240468D01*
Y225468D02*
X126016Y226484D01*
X127032D01*
X126016Y227500D01*
X127032Y228516D01*
X126016D01*
X125000Y229532D01*
X123984Y228516D01*
X122968D01*
X123984Y227500D01*
X122968Y226484D01*
X123984D01*
X125000Y225468D01*
X110000Y345468D02*
X111016Y346484D01*
X112032D01*
X111016Y347500D01*
X112032Y348516D01*
X111016D01*
X110000Y349532D01*
X108984Y348516D01*
X107968D01*
X108984Y347500D01*
X107968Y346484D01*
X108984D01*
X110000Y345468D01*
X95000Y285468D02*
X96016Y286484D01*
X97032D01*
X96016Y287500D01*
X97032Y288516D01*
X96016D01*
X95000Y289532D01*
X93984Y288516D01*
X92968D01*
X93984Y287500D01*
X92968Y286484D01*
X93984D01*
X95000Y285468D01*
Y270468D02*
X96016Y271484D01*
X97032D01*
X96016Y272500D01*
X97032Y273516D01*
X96016D01*
X95000Y274532D01*
X93984Y273516D01*
X92968D01*
X93984Y272500D01*
X92968Y271484D01*
X93984D01*
X95000Y270468D01*
Y255468D02*
X96016Y256484D01*
X97032D01*
X96016Y257500D01*
X97032Y258516D01*
X96016D01*
X95000Y259532D01*
X93984Y258516D01*
X92968D01*
X93984Y257500D01*
X92968Y256484D01*
X93984D01*
X95000Y255468D01*
Y240468D02*
X96016Y241484D01*
X97032D01*
X96016Y242500D01*
X97032Y243516D01*
X96016D01*
X95000Y244532D01*
X93984Y243516D01*
X92968D01*
X93984Y242500D01*
X92968Y241484D01*
X93984D01*
X95000Y240468D01*
Y225468D02*
X96016Y226484D01*
X97032D01*
X96016Y227500D01*
X97032Y228516D01*
X96016D01*
X95000Y229532D01*
X93984Y228516D01*
X92968D01*
X93984Y227500D01*
X92968Y226484D01*
X93984D01*
X95000Y225468D01*
X80000Y300468D02*
X81016Y301484D01*
X82032D01*
X81016Y302500D01*
X82032Y303516D01*
X81016D01*
X80000Y304532D01*
X78984Y303516D01*
X77968D01*
X78984Y302500D01*
X77968Y301484D01*
X78984D01*
X80000Y300468D01*
Y285468D02*
X81016Y286484D01*
X82032D01*
X81016Y287500D01*
X82032Y288516D01*
X81016D01*
X80000Y289532D01*
X78984Y288516D01*
X77968D01*
X78984Y287500D01*
X77968Y286484D01*
X78984D01*
X80000Y285468D01*
Y270468D02*
X81016Y271484D01*
X82032D01*
X81016Y272500D01*
X82032Y273516D01*
X81016D01*
X80000Y274532D01*
X78984Y273516D01*
X77968D01*
X78984Y272500D01*
X77968Y271484D01*
X78984D01*
X80000Y270468D01*
Y255468D02*
X81016Y256484D01*
X82032D01*
X81016Y257500D01*
X82032Y258516D01*
X81016D01*
X80000Y259532D01*
X78984Y258516D01*
X77968D01*
X78984Y257500D01*
X77968Y256484D01*
X78984D01*
X80000Y255468D01*
Y240468D02*
X81016Y241484D01*
X82032D01*
X81016Y242500D01*
X82032Y243516D01*
X81016D01*
X80000Y244532D01*
X78984Y243516D01*
X77968D01*
X78984Y242500D01*
X77968Y241484D01*
X78984D01*
X80000Y240468D01*
Y225468D02*
X81016Y226484D01*
X82032D01*
X81016Y227500D01*
X82032Y228516D01*
X81016D01*
X80000Y229532D01*
X78984Y228516D01*
X77968D01*
X78984Y227500D01*
X77968Y226484D01*
X78984D01*
X80000Y225468D01*
X65000Y390468D02*
X66016Y391484D01*
X67032D01*
X66016Y392500D01*
X67032Y393516D01*
X66016D01*
X65000Y394532D01*
X63984Y393516D01*
X62968D01*
X63984Y392500D01*
X62968Y391484D01*
X63984D01*
X65000Y390468D01*
Y375468D02*
X66016Y376484D01*
X67032D01*
X66016Y377500D01*
X67032Y378516D01*
X66016D01*
X65000Y379532D01*
X63984Y378516D01*
X62968D01*
X63984Y377500D01*
X62968Y376484D01*
X63984D01*
X65000Y375468D01*
Y360468D02*
X66016Y361484D01*
X67032D01*
X66016Y362500D01*
X67032Y363516D01*
X66016D01*
X65000Y364532D01*
X63984Y363516D01*
X62968D01*
X63984Y362500D01*
X62968Y361484D01*
X63984D01*
X65000Y360468D01*
X50000Y390468D02*
X51016Y391484D01*
X52032D01*
X51016Y392500D01*
X52032Y393516D01*
X51016D01*
X50000Y394532D01*
X48984Y393516D01*
X47968D01*
X48984Y392500D01*
X47968Y391484D01*
X48984D01*
X50000Y390468D01*
Y375468D02*
X51016Y376484D01*
X52032D01*
X51016Y377500D01*
X52032Y378516D01*
X51016D01*
X50000Y379532D01*
X48984Y378516D01*
X47968D01*
X48984Y377500D01*
X47968Y376484D01*
X48984D01*
X50000Y375468D01*
Y360468D02*
X51016Y361484D01*
X52032D01*
X51016Y362500D01*
X52032Y363516D01*
X51016D01*
X50000Y364532D01*
X48984Y363516D01*
X47968D01*
X48984Y362500D01*
X47968Y361484D01*
X48984D01*
X50000Y360468D01*
Y345468D02*
X51016Y346484D01*
X52032D01*
X51016Y347500D01*
X52032Y348516D01*
X51016D01*
X50000Y349532D01*
X48984Y348516D01*
X47968D01*
X48984Y347500D01*
X47968Y346484D01*
X48984D01*
X50000Y345468D01*
X35000Y390468D02*
X36016Y391484D01*
X37032D01*
X36016Y392500D01*
X37032Y393516D01*
X36016D01*
X35000Y394532D01*
X33984Y393516D01*
X32968D01*
X33984Y392500D01*
X32968Y391484D01*
X33984D01*
X35000Y390468D01*
Y375468D02*
X36016Y376484D01*
X37032D01*
X36016Y377500D01*
X37032Y378516D01*
X36016D01*
X35000Y379532D01*
X33984Y378516D01*
X32968D01*
X33984Y377500D01*
X32968Y376484D01*
X33984D01*
X35000Y375468D01*
Y360468D02*
X36016Y361484D01*
X37032D01*
X36016Y362500D01*
X37032Y363516D01*
X36016D01*
X35000Y364532D01*
X33984Y363516D01*
X32968D01*
X33984Y362500D01*
X32968Y361484D01*
X33984D01*
X35000Y360468D01*
Y345468D02*
X36016Y346484D01*
X37032D01*
X36016Y347500D01*
X37032Y348516D01*
X36016D01*
X35000Y349532D01*
X33984Y348516D01*
X32968D01*
X33984Y347500D01*
X32968Y346484D01*
X33984D01*
X35000Y345468D01*
Y330468D02*
X36016Y331484D01*
X37032D01*
X36016Y332500D01*
X37032Y333516D01*
X36016D01*
X35000Y334532D01*
X33984Y333516D01*
X32968D01*
X33984Y332500D01*
X32968Y331484D01*
X33984D01*
X35000Y330468D01*
Y315468D02*
X36016Y316484D01*
X37032D01*
X36016Y317500D01*
X37032Y318516D01*
X36016D01*
X35000Y319532D01*
X33984Y318516D01*
X32968D01*
X33984Y317500D01*
X32968Y316484D01*
X33984D01*
X35000Y315468D01*
Y300468D02*
X36016Y301484D01*
X37032D01*
X36016Y302500D01*
X37032Y303516D01*
X36016D01*
X35000Y304532D01*
X33984Y303516D01*
X32968D01*
X33984Y302500D01*
X32968Y301484D01*
X33984D01*
X35000Y300468D01*
Y285468D02*
X36016Y286484D01*
X37032D01*
X36016Y287500D01*
X37032Y288516D01*
X36016D01*
X35000Y289532D01*
X33984Y288516D01*
X32968D01*
X33984Y287500D01*
X32968Y286484D01*
X33984D01*
X35000Y285468D01*
Y270468D02*
X36016Y271484D01*
X37032D01*
X36016Y272500D01*
X37032Y273516D01*
X36016D01*
X35000Y274532D01*
X33984Y273516D01*
X32968D01*
X33984Y272500D01*
X32968Y271484D01*
X33984D01*
X35000Y270468D01*
Y255468D02*
X36016Y256484D01*
X37032D01*
X36016Y257500D01*
X37032Y258516D01*
X36016D01*
X35000Y259532D01*
X33984Y258516D01*
X32968D01*
X33984Y257500D01*
X32968Y256484D01*
X33984D01*
X35000Y255468D01*
Y240468D02*
X36016Y241484D01*
X37032D01*
X36016Y242500D01*
X37032Y243516D01*
X36016D01*
X35000Y244532D01*
X33984Y243516D01*
X32968D01*
X33984Y242500D01*
X32968Y241484D01*
X33984D01*
X35000Y240468D01*
Y225468D02*
X36016Y226484D01*
X37032D01*
X36016Y227500D01*
X37032Y228516D01*
X36016D01*
X35000Y229532D01*
X33984Y228516D01*
X32968D01*
X33984Y227500D01*
X32968Y226484D01*
X33984D01*
X35000Y225468D01*
X20000Y390468D02*
X21016Y391484D01*
X22032D01*
X21016Y392500D01*
X22032Y393516D01*
X21016D01*
X20000Y394532D01*
X18984Y393516D01*
X17968D01*
X18984Y392500D01*
X17968Y391484D01*
X18984D01*
X20000Y390468D01*
Y375468D02*
X21016Y376484D01*
X22032D01*
X21016Y377500D01*
X22032Y378516D01*
X21016D01*
X20000Y379532D01*
X18984Y378516D01*
X17968D01*
X18984Y377500D01*
X17968Y376484D01*
X18984D01*
X20000Y375468D01*
Y360468D02*
X21016Y361484D01*
X22032D01*
X21016Y362500D01*
X22032Y363516D01*
X21016D01*
X20000Y364532D01*
X18984Y363516D01*
X17968D01*
X18984Y362500D01*
X17968Y361484D01*
X18984D01*
X20000Y360468D01*
Y345468D02*
X21016Y346484D01*
X22032D01*
X21016Y347500D01*
X22032Y348516D01*
X21016D01*
X20000Y349532D01*
X18984Y348516D01*
X17968D01*
X18984Y347500D01*
X17968Y346484D01*
X18984D01*
X20000Y345468D01*
Y330468D02*
X21016Y331484D01*
X22032D01*
X21016Y332500D01*
X22032Y333516D01*
X21016D01*
X20000Y334532D01*
X18984Y333516D01*
X17968D01*
X18984Y332500D01*
X17968Y331484D01*
X18984D01*
X20000Y330468D01*
Y315468D02*
X21016Y316484D01*
X22032D01*
X21016Y317500D01*
X22032Y318516D01*
X21016D01*
X20000Y319532D01*
X18984Y318516D01*
X17968D01*
X18984Y317500D01*
X17968Y316484D01*
X18984D01*
X20000Y315468D01*
Y300468D02*
X21016Y301484D01*
X22032D01*
X21016Y302500D01*
X22032Y303516D01*
X21016D01*
X20000Y304532D01*
X18984Y303516D01*
X17968D01*
X18984Y302500D01*
X17968Y301484D01*
X18984D01*
X20000Y300468D01*
Y285468D02*
X21016Y286484D01*
X22032D01*
X21016Y287500D01*
X22032Y288516D01*
X21016D01*
X20000Y289532D01*
X18984Y288516D01*
X17968D01*
X18984Y287500D01*
X17968Y286484D01*
X18984D01*
X20000Y285468D01*
Y270468D02*
X21016Y271484D01*
X22032D01*
X21016Y272500D01*
X22032Y273516D01*
X21016D01*
X20000Y274532D01*
X18984Y273516D01*
X17968D01*
X18984Y272500D01*
X17968Y271484D01*
X18984D01*
X20000Y270468D01*
Y255468D02*
X21016Y256484D01*
X22032D01*
X21016Y257500D01*
X22032Y258516D01*
X21016D01*
X20000Y259532D01*
X18984Y258516D01*
X17968D01*
X18984Y257500D01*
X17968Y256484D01*
X18984D01*
X20000Y255468D01*
Y240468D02*
X21016Y241484D01*
X22032D01*
X21016Y242500D01*
X22032Y243516D01*
X21016D01*
X20000Y244532D01*
X18984Y243516D01*
X17968D01*
X18984Y242500D01*
X17968Y241484D01*
X18984D01*
X20000Y240468D01*
Y225468D02*
X21016Y226484D01*
X22032D01*
X21016Y227500D01*
X22032Y228516D01*
X21016D01*
X20000Y229532D01*
X18984Y228516D01*
X17968D01*
X18984Y227500D01*
X17968Y226484D01*
X18984D01*
X20000Y225468D01*
X139354Y310500D02*
X140371Y311516D01*
X141386D01*
X140371Y312532D01*
X141386Y313548D01*
X140371D01*
X139354Y314564D01*
X138338Y313548D01*
X137323D01*
X138338Y312532D01*
X137323Y311516D01*
X138338D01*
X139354Y310500D01*
X116250Y329968D02*
X117266Y330984D01*
X118282D01*
X117266Y332000D01*
X118282Y333016D01*
X117266D01*
X116250Y334032D01*
X115234Y333016D01*
X114218D01*
X115234Y332000D01*
X114218Y330984D01*
X115234D01*
X116250Y329968D01*
X131500Y270468D02*
X132516Y271484D01*
X133532D01*
X132516Y272500D01*
X133532Y273516D01*
X132516D01*
X131500Y274532D01*
X130484Y273516D01*
X129468D01*
X130484Y272500D01*
X129468Y271484D01*
X130484D01*
X131500Y270468D01*
X162500Y312468D02*
X163516Y313484D01*
X164532D01*
X163516Y314500D01*
X164532Y315516D01*
X163516D01*
X162500Y316532D01*
X161484Y315516D01*
X160468D01*
X161484Y314500D01*
X160468Y313484D01*
X161484D01*
X162500Y312468D01*
X170250Y320468D02*
X171266Y321484D01*
X172282D01*
X171266Y322500D01*
X172282Y323516D01*
X171266D01*
X170250Y324532D01*
X169234Y323516D01*
X168218D01*
X169234Y322500D01*
X168218Y321484D01*
X169234D01*
X170250Y320468D01*
X162500Y327968D02*
X163516Y328984D01*
X164532D01*
X163516Y330000D01*
X164532Y331016D01*
X163516D01*
X162500Y332032D01*
X161484Y331016D01*
X160468D01*
X161484Y330000D01*
X160468Y328984D01*
X161484D01*
X162500Y327968D01*
X150000D02*
X151016Y328984D01*
X152032D01*
X151016Y330000D01*
X152032Y331016D01*
X151016D01*
X150000Y332032D01*
X148984Y331016D01*
X147968D01*
X148984Y330000D01*
X147968Y328984D01*
X148984D01*
X150000Y327968D01*
X171250Y201218D02*
X172266Y202234D01*
X173282D01*
X172266Y203250D01*
X173282Y204266D01*
X172266D01*
X171250Y205282D01*
X170234Y204266D01*
X169218D01*
X170234Y203250D01*
X169218Y202234D01*
X170234D01*
X171250Y201218D01*
X185000D02*
X186016Y202234D01*
X187032D01*
X186016Y203250D01*
X187032Y204266D01*
X186016D01*
X185000Y205282D01*
X183984Y204266D01*
X182968D01*
X183984Y203250D01*
X182968Y202234D01*
X183984D01*
X185000Y201218D01*
X200000D02*
X201016Y202234D01*
X202032D01*
X201016Y203250D01*
X202032Y204266D01*
X201016D01*
X200000Y205282D01*
X198984Y204266D01*
X197968D01*
X198984Y203250D01*
X197968Y202234D01*
X198984D01*
X200000Y201218D01*
X212500D02*
X213516Y202234D01*
X214532D01*
X213516Y203250D01*
X214532Y204266D01*
X213516D01*
X212500Y205282D01*
X211484Y204266D01*
X210468D01*
X211484Y203250D01*
X210468Y202234D01*
X211484D01*
X212500Y201218D01*
Y210468D02*
X213516Y211484D01*
X214532D01*
X213516Y212500D01*
X214532Y213516D01*
X213516D01*
X212500Y214532D01*
X211484Y213516D01*
X210468D01*
X211484Y212500D01*
X210468Y211484D01*
X211484D01*
X212500Y210468D01*
X200000D02*
X201016Y211484D01*
X202032D01*
X201016Y212500D01*
X202032Y213516D01*
X201016D01*
X200000Y214532D01*
X198984Y213516D01*
X197968D01*
X198984Y212500D01*
X197968Y211484D01*
X198984D01*
X200000Y210468D01*
X185000D02*
X186016Y211484D01*
X187032D01*
X186016Y212500D01*
X187032Y213516D01*
X186016D01*
X185000Y214532D01*
X183984Y213516D01*
X182968D01*
X183984Y212500D01*
X182968Y211484D01*
X183984D01*
X185000Y210468D01*
X170000D02*
X171016Y211484D01*
X172032D01*
X171016Y212500D01*
X172032Y213516D01*
X171016D01*
X170000Y214532D01*
X168984Y213516D01*
X167968D01*
X168984Y212500D01*
X167968Y211484D01*
X168984D01*
X170000Y210468D01*
X20000D02*
X21016Y211484D01*
X22032D01*
X21016Y212500D01*
X22032Y213516D01*
X21016D01*
X20000Y214532D01*
X18984Y213516D01*
X17968D01*
X18984Y212500D01*
X17968Y211484D01*
X18984D01*
X20000Y210468D01*
X16750Y201218D02*
X17766Y202234D01*
X18782D01*
X17766Y203250D01*
X18782Y204266D01*
X17766D01*
X16750Y205282D01*
X15734Y204266D01*
X14718D01*
X15734Y203250D01*
X14718Y202234D01*
X15734D01*
X16750Y201218D01*
X7500D02*
X8516Y202234D01*
X9532D01*
X8516Y203250D01*
X9532Y204266D01*
X8516D01*
X7500Y205282D01*
X6484Y204266D01*
X5468D01*
X6484Y203250D01*
X5468Y202234D01*
X6484D01*
X7500Y201218D01*
Y210468D02*
X8516Y211484D01*
X9532D01*
X8516Y212500D01*
X9532Y213516D01*
X8516D01*
X7500Y214532D01*
X6484Y213516D01*
X5468D01*
X6484Y212500D01*
X5468Y211484D01*
X6484D01*
X7500Y210468D01*
Y390468D02*
X8516Y391484D01*
X9532D01*
X8516Y392500D01*
X9532Y393516D01*
X8516D01*
X7500Y394532D01*
X6484Y393516D01*
X5468D01*
X6484Y392500D01*
X5468Y391484D01*
X6484D01*
X7500Y390468D01*
Y374968D02*
X8516Y375984D01*
X9532D01*
X8516Y377000D01*
X9532Y378016D01*
X8516D01*
X7500Y379032D01*
X6484Y378016D01*
X5468D01*
X6484Y377000D01*
X5468Y375984D01*
X6484D01*
X7500Y374968D01*
Y360468D02*
X8516Y361484D01*
X9532D01*
X8516Y362500D01*
X9532Y363516D01*
X8516D01*
X7500Y364532D01*
X6484Y363516D01*
X5468D01*
X6484Y362500D01*
X5468Y361484D01*
X6484D01*
X7500Y360468D01*
Y345968D02*
X8516Y346984D01*
X9532D01*
X8516Y348000D01*
X9532Y349016D01*
X8516D01*
X7500Y350032D01*
X6484Y349016D01*
X5468D01*
X6484Y348000D01*
X5468Y346984D01*
X6484D01*
X7500Y345968D01*
Y330468D02*
X8516Y331484D01*
X9532D01*
X8516Y332500D01*
X9532Y333516D01*
X8516D01*
X7500Y334532D01*
X6484Y333516D01*
X5468D01*
X6484Y332500D01*
X5468Y331484D01*
X6484D01*
X7500Y330468D01*
Y315468D02*
X8516Y316484D01*
X9532D01*
X8516Y317500D01*
X9532Y318516D01*
X8516D01*
X7500Y319532D01*
X6484Y318516D01*
X5468D01*
X6484Y317500D01*
X5468Y316484D01*
X6484D01*
X7500Y315468D01*
Y300468D02*
X8516Y301484D01*
X9532D01*
X8516Y302500D01*
X9532Y303516D01*
X8516D01*
X7500Y304532D01*
X6484Y303516D01*
X5468D01*
X6484Y302500D01*
X5468Y301484D01*
X6484D01*
X7500Y300468D01*
Y285468D02*
X8516Y286484D01*
X9532D01*
X8516Y287500D01*
X9532Y288516D01*
X8516D01*
X7500Y289532D01*
X6484Y288516D01*
X5468D01*
X6484Y287500D01*
X5468Y286484D01*
X6484D01*
X7500Y285468D01*
Y270468D02*
X8516Y271484D01*
X9532D01*
X8516Y272500D01*
X9532Y273516D01*
X8516D01*
X7500Y274532D01*
X6484Y273516D01*
X5468D01*
X6484Y272500D01*
X5468Y271484D01*
X6484D01*
X7500Y270468D01*
Y255468D02*
X8516Y256484D01*
X9532D01*
X8516Y257500D01*
X9532Y258516D01*
X8516D01*
X7500Y259532D01*
X6484Y258516D01*
X5468D01*
X6484Y257500D01*
X5468Y256484D01*
X6484D01*
X7500Y255468D01*
Y240468D02*
X8516Y241484D01*
X9532D01*
X8516Y242500D01*
X9532Y243516D01*
X8516D01*
X7500Y244532D01*
X6484Y243516D01*
X5468D01*
X6484Y242500D01*
X5468Y241484D01*
X6484D01*
X7500Y240468D01*
Y225468D02*
X8516Y226484D01*
X9532D01*
X8516Y227500D01*
X9532Y228516D01*
X8516D01*
X7500Y229532D01*
X6484Y228516D01*
X5468D01*
X6484Y227500D01*
X5468Y226484D01*
X6484D01*
X7500Y225468D01*
X122750Y83718D02*
X123766Y84734D01*
X124782D01*
X123766Y85750D01*
X124782Y86766D01*
X123766D01*
X122750Y87782D01*
X121734Y86766D01*
X120718D01*
X121734Y85750D01*
X120718Y84734D01*
X121734D01*
X122750Y83718D01*
X97250Y76718D02*
X98266Y77734D01*
X99282D01*
X98266Y78750D01*
X99282Y79766D01*
X98266D01*
X97250Y80782D01*
X96234Y79766D01*
X95218D01*
X96234Y78750D01*
X95218Y77734D01*
X96234D01*
X97250Y76718D01*
X143000Y184218D02*
X144016Y185234D01*
X145032D01*
X144016Y186250D01*
X145032Y187266D01*
X144016D01*
X143000Y188282D01*
X141984Y187266D01*
X140968D01*
X141984Y186250D01*
X140968Y185234D01*
X141984D01*
X143000Y184218D01*
X90250Y124218D02*
X91266Y125234D01*
X92282D01*
X91266Y126250D01*
X92282Y127266D01*
X91266D01*
X90250Y128282D01*
X89234Y127266D01*
X88218D01*
X89234Y126250D01*
X88218Y125234D01*
X89234D01*
X90250Y124218D01*
X78750D02*
X79766Y125234D01*
X80782D01*
X79766Y126250D01*
X80782Y127266D01*
X79766D01*
X78750Y128282D01*
X77734Y127266D01*
X76718D01*
X77734Y126250D01*
X76718Y125234D01*
X77734D01*
X78750Y124218D01*
X153042Y311040D02*
X154058Y312056D01*
X155074D01*
X154058Y313072D01*
X155074Y314088D01*
X154058D01*
X153042Y315104D01*
X152026Y314088D01*
X151010D01*
X152026Y313072D01*
X151010Y312056D01*
X152026D01*
X153042Y311040D01*
X156000Y220468D02*
X157016Y221484D01*
X158032D01*
X157016Y222500D01*
X158032Y223516D01*
X157016D01*
X156000Y224532D01*
X154984Y223516D01*
X153968D01*
X154984Y222500D01*
X153968Y221484D01*
X154984D01*
X156000Y220468D01*
X122000Y171468D02*
X123016Y172484D01*
X124032D01*
X123016Y173500D01*
X124032Y174516D01*
X123016D01*
X122000Y175532D01*
X120984Y174516D01*
X119968D01*
X120984Y173500D01*
X119968Y172484D01*
X120984D01*
X122000Y171468D01*
X106000Y186718D02*
X107016Y187734D01*
X108032D01*
X107016Y188750D01*
X108032Y189766D01*
X107016D01*
X106000Y190782D01*
X104984Y189766D01*
X103968D01*
X104984Y188750D01*
X103968Y187734D01*
X104984D01*
X106000Y186718D01*
X30750Y174218D02*
X31766Y175234D01*
X32782D01*
X31766Y176250D01*
X32782Y177266D01*
X31766D01*
X30750Y178282D01*
X29734Y177266D01*
X28718D01*
X29734Y176250D01*
X28718Y175234D01*
X29734D01*
X30750Y174218D01*
X90000Y186718D02*
X91016Y187734D01*
X92032D01*
X91016Y188750D01*
X92032Y189766D01*
X91016D01*
X90000Y190782D01*
X88984Y189766D01*
X87968D01*
X88984Y188750D01*
X87968Y187734D01*
X88984D01*
X90000Y186718D01*
X110000Y114218D02*
X111016Y115234D01*
X112032D01*
X111016Y116250D01*
X112032Y117266D01*
X111016D01*
X110000Y118282D01*
X108984Y117266D01*
X107968D01*
X108984Y116250D01*
X107968Y115234D01*
X108984D01*
X110000Y114218D01*
Y83718D02*
X111016Y84734D01*
X112032D01*
X111016Y85750D01*
X112032Y86766D01*
X111016D01*
X110000Y87782D01*
X108984Y86766D01*
X107968D01*
X108984Y85750D01*
X107968Y84734D01*
X108984D01*
X110000Y83718D01*
X48000Y186718D02*
X49016Y187734D01*
X50032D01*
X49016Y188750D01*
X50032Y189766D01*
X49016D01*
X48000Y190782D01*
X46984Y189766D01*
X45968D01*
X46984Y188750D01*
X45968Y187734D01*
X46984D01*
X48000Y186718D01*
X189250D02*
X190266Y187734D01*
X191282D01*
X190266Y188750D01*
X191282Y189766D01*
X190266D01*
X189250Y190782D01*
X188234Y189766D01*
X187218D01*
X188234Y188750D01*
X187218Y187734D01*
X188234D01*
X189250Y186718D01*
X122750Y334218D02*
X123766Y335234D01*
X124782D01*
X123766Y336250D01*
X124782Y337266D01*
X123766D01*
X122750Y338282D01*
X121734Y337266D01*
X120718D01*
X121734Y336250D01*
X120718Y335234D01*
X121734D01*
X122750Y334218D01*
X97250D02*
X98266Y335234D01*
X99282D01*
X98266Y336250D01*
X99282Y337266D01*
X98266D01*
X97250Y338282D01*
X96234Y337266D01*
X95218D01*
X96234Y336250D01*
X95218Y335234D01*
X96234D01*
X97250Y334218D01*
X98000Y210468D02*
X99016Y211484D01*
X100032D01*
X99016Y212500D01*
X100032Y213516D01*
X99016D01*
X98000Y214532D01*
X96984Y213516D01*
X95968D01*
X96984Y212500D01*
X95968Y211484D01*
X96984D01*
X98000Y210468D01*
X70750Y212468D02*
X71766Y213484D01*
X72782D01*
X71766Y214500D01*
X72782Y215516D01*
X71766D01*
X70750Y216532D01*
X69734Y215516D01*
X68718D01*
X69734Y214500D01*
X68718Y213484D01*
X69734D01*
X70750Y212468D01*
X83250D02*
X84266Y213484D01*
X85282D01*
X84266Y214500D01*
X85282Y215516D01*
X84266D01*
X83250Y216532D01*
X82234Y215516D01*
X81218D01*
X82234Y214500D01*
X81218Y213484D01*
X82234D01*
X83250Y212468D01*
X77000D02*
X78016Y213484D01*
X79032D01*
X78016Y214500D01*
X79032Y215516D01*
X78016D01*
X77000Y216532D01*
X75984Y215516D01*
X74968D01*
X75984Y214500D01*
X74968Y213484D01*
X75984D01*
X77000Y212468D01*
X136750D02*
X137766Y213484D01*
X138782D01*
X137766Y214500D01*
X138782Y215516D01*
X137766D01*
X136750Y216532D01*
X135734Y215516D01*
X134718D01*
X135734Y214500D01*
X134718Y213484D01*
X135734D01*
X136750Y212468D01*
X149250D02*
X150266Y213484D01*
X151282D01*
X150266Y214500D01*
X151282Y215516D01*
X150266D01*
X149250Y216532D01*
X148234Y215516D01*
X147218D01*
X148234Y214500D01*
X147218Y213484D01*
X148234D01*
X149250Y212468D01*
X142993Y212411D02*
X144009Y213427D01*
X145025D01*
X144009Y214443D01*
X145025Y215459D01*
X144009D01*
X142993Y216475D01*
X141977Y215459D01*
X140961D01*
X141977Y214443D01*
X140961Y213427D01*
X141977D01*
X142993Y212411D01*
X81500Y374218D02*
X82516Y375234D01*
X83532D01*
X82516Y376250D01*
X83532Y377266D01*
X82516D01*
X81500Y378282D01*
X80484Y377266D01*
X79468D01*
X80484Y376250D01*
X79468Y375234D01*
X80484D01*
X81500Y374218D01*
Y386468D02*
X82516Y387484D01*
X83532D01*
X82516Y388500D01*
X83532Y389516D01*
X82516D01*
X81500Y390532D01*
X80484Y389516D01*
X79468D01*
X80484Y388500D01*
X79468Y387484D01*
X80484D01*
X81500Y386468D01*
X137750D02*
X138766Y387484D01*
X139782D01*
X138766Y388500D01*
X139782Y389516D01*
X138766D01*
X137750Y390532D01*
X136734Y389516D01*
X135718D01*
X136734Y388500D01*
X135718Y387484D01*
X136734D01*
X137750Y386468D01*
Y374468D02*
X138766Y375484D01*
X139782D01*
X138766Y376500D01*
X139782Y377516D01*
X138766D01*
X137750Y378532D01*
X136734Y377516D01*
X135718D01*
X136734Y376500D01*
X135718Y375484D01*
X136734D01*
X137750Y374468D01*
X116250Y363218D02*
X117266Y364234D01*
X118282D01*
X117266Y365250D01*
X118282Y366266D01*
X117266D01*
X116250Y367282D01*
X115234Y366266D01*
X114218D01*
X115234Y365250D01*
X114218Y364234D01*
X115234D01*
X116250Y363218D01*
X103750D02*
X104766Y364234D01*
X105782D01*
X104766Y365250D01*
X105782Y366266D01*
X104766D01*
X103750Y367282D01*
X102734Y366266D01*
X101718D01*
X102734Y365250D01*
X101718Y364234D01*
X102734D01*
X103750Y363218D01*
Y329968D02*
X104766Y330984D01*
X105782D01*
X104766Y332000D01*
X105782Y333016D01*
X104766D01*
X103750Y334032D01*
X102734Y333016D01*
X101718D01*
X102734Y332000D01*
X101718Y330984D01*
X102734D01*
X103750Y329968D01*
X82250Y307968D02*
X83266Y308984D01*
X84282D01*
X83266Y310000D01*
X84282Y311016D01*
X83266D01*
X82250Y312032D01*
X81234Y311016D01*
X80218D01*
X81234Y310000D01*
X80218Y308984D01*
X81234D01*
X82250Y307968D01*
X110000Y336718D02*
X111016Y337734D01*
X112032D01*
X111016Y338750D01*
X112032Y339766D01*
X111016D01*
X110000Y340782D01*
X108984Y339766D01*
X107968D01*
X108984Y338750D01*
X107968Y337734D01*
X108984D01*
X110000Y336718D01*
X122750Y357468D02*
X123766Y358484D01*
X124782D01*
X123766Y359500D01*
X124782Y360516D01*
X123766D01*
X122750Y361532D01*
X121734Y360516D01*
X120718D01*
X121734Y359500D01*
X120718Y358484D01*
X121734D01*
X122750Y357468D01*
X110000D02*
X111016Y358484D01*
X112032D01*
X111016Y359500D01*
X112032Y360516D01*
X111016D01*
X110000Y361532D01*
X108984Y360516D01*
X107968D01*
X108984Y359500D01*
X107968Y358484D01*
X108984D01*
X110000Y357468D01*
X97250D02*
X98266Y358484D01*
X99282D01*
X98266Y359500D01*
X99282Y360516D01*
X98266D01*
X97250Y361532D01*
X96234Y360516D01*
X95218D01*
X96234Y359500D01*
X95218Y358484D01*
X96234D01*
X97250Y357468D01*
X144500Y368218D02*
X145516Y369234D01*
X146532D01*
X145516Y370250D01*
X146532Y371266D01*
X145516D01*
X144500Y372282D01*
X143484Y371266D01*
X142468D01*
X143484Y370250D01*
X142468Y369234D01*
X143484D01*
X144500Y368218D01*
Y380468D02*
X145516Y381484D01*
X146532D01*
X145516Y382500D01*
X146532Y383516D01*
X145516D01*
X144500Y384532D01*
X143484Y383516D01*
X142468D01*
X143484Y382500D01*
X142468Y381484D01*
X143484D01*
X144500Y380468D01*
Y390468D02*
X145516Y391484D01*
X146532D01*
X145516Y392500D01*
X146532Y393516D01*
X145516D01*
X144500Y394532D01*
X143484Y393516D01*
X142468D01*
X143484Y392500D01*
X142468Y391484D01*
X143484D01*
X144500Y390468D01*
X75500Y368218D02*
X76516Y369234D01*
X77532D01*
X76516Y370250D01*
X77532Y371266D01*
X76516D01*
X75500Y372282D01*
X74484Y371266D01*
X73468D01*
X74484Y370250D01*
X73468Y369234D01*
X74484D01*
X75500Y368218D01*
Y380468D02*
X76516Y381484D01*
X77532D01*
X76516Y382500D01*
X77532Y383516D01*
X76516D01*
X75500Y384532D01*
X74484Y383516D01*
X73468D01*
X74484Y382500D01*
X73468Y381484D01*
X74484D01*
X75500Y380468D01*
Y390468D02*
X76516Y391484D01*
X77532D01*
X76516Y392500D01*
X77532Y393516D01*
X76516D01*
X75500Y394532D01*
X74484Y393516D01*
X73468D01*
X74484Y392500D01*
X73468Y391484D01*
X74484D01*
X75500Y390468D01*
X74750Y314968D02*
X75766Y315984D01*
X76782D01*
X75766Y317000D01*
X76782Y318016D01*
X75766D01*
X74750Y319032D01*
X73734Y318016D01*
X72718D01*
X73734Y317000D01*
X72718Y315984D01*
X73734D01*
X74750Y314968D01*
X212500Y225468D02*
X213516Y226484D01*
X214532D01*
X213516Y227500D01*
X214532Y228516D01*
X213516D01*
X212500Y229532D01*
X211484Y228516D01*
X210468D01*
X211484Y227500D01*
X210468Y226484D01*
X211484D01*
X212500Y225468D01*
Y240468D02*
X213516Y241484D01*
X214532D01*
X213516Y242500D01*
X214532Y243516D01*
X213516D01*
X212500Y244532D01*
X211484Y243516D01*
X210468D01*
X211484Y242500D01*
X210468Y241484D01*
X211484D01*
X212500Y240468D01*
Y255468D02*
X213516Y256484D01*
X214532D01*
X213516Y257500D01*
X214532Y258516D01*
X213516D01*
X212500Y259532D01*
X211484Y258516D01*
X210468D01*
X211484Y257500D01*
X210468Y256484D01*
X211484D01*
X212500Y255468D01*
Y270468D02*
X213516Y271484D01*
X214532D01*
X213516Y272500D01*
X214532Y273516D01*
X213516D01*
X212500Y274532D01*
X211484Y273516D01*
X210468D01*
X211484Y272500D01*
X210468Y271484D01*
X211484D01*
X212500Y270468D01*
Y285468D02*
X213516Y286484D01*
X214532D01*
X213516Y287500D01*
X214532Y288516D01*
X213516D01*
X212500Y289532D01*
X211484Y288516D01*
X210468D01*
X211484Y287500D01*
X210468Y286484D01*
X211484D01*
X212500Y285468D01*
Y300468D02*
X213516Y301484D01*
X214532D01*
X213516Y302500D01*
X214532Y303516D01*
X213516D01*
X212500Y304532D01*
X211484Y303516D01*
X210468D01*
X211484Y302500D01*
X210468Y301484D01*
X211484D01*
X212500Y300468D01*
Y315468D02*
X213516Y316484D01*
X214532D01*
X213516Y317500D01*
X214532Y318516D01*
X213516D01*
X212500Y319532D01*
X211484Y318516D01*
X210468D01*
X211484Y317500D01*
X210468Y316484D01*
X211484D01*
X212500Y315468D01*
Y330468D02*
X213516Y331484D01*
X214532D01*
X213516Y332500D01*
X214532Y333516D01*
X213516D01*
X212500Y334532D01*
X211484Y333516D01*
X210468D01*
X211484Y332500D01*
X210468Y331484D01*
X211484D01*
X212500Y330468D01*
Y345968D02*
X213516Y346984D01*
X214532D01*
X213516Y348000D01*
X214532Y349016D01*
X213516D01*
X212500Y350032D01*
X211484Y349016D01*
X210468D01*
X211484Y348000D01*
X210468Y346984D01*
X211484D01*
X212500Y345968D01*
Y360468D02*
X213516Y361484D01*
X214532D01*
X213516Y362500D01*
X214532Y363516D01*
X213516D01*
X212500Y364532D01*
X211484Y363516D01*
X210468D01*
X211484Y362500D01*
X210468Y361484D01*
X211484D01*
X212500Y360468D01*
Y374968D02*
X213516Y375984D01*
X214532D01*
X213516Y377000D01*
X214532Y378016D01*
X213516D01*
X212500Y379032D01*
X211484Y378016D01*
X210468D01*
X211484Y377000D01*
X210468Y375984D01*
X211484D01*
X212500Y374968D01*
Y390468D02*
X213516Y391484D01*
X214532D01*
X213516Y392500D01*
X214532Y393516D01*
X213516D01*
X212500Y394532D01*
X211484Y393516D01*
X210468D01*
X211484Y392500D01*
X210468Y391484D01*
X211484D01*
X212500Y390468D01*
D51*
X187032Y100000D02*
G03*
X187032Y100000I-2032J0D01*
G01*
X37032D02*
G03*
X37032Y100000I-2032J0D01*
G01*
M02*
