G04*
G04 #@! TF.GenerationSoftware,Altium Limited,Altium Designer,21.6.4 (81)*
G04*
G04 Layer_Color=16711935*
%FSLAX44Y44*%
%MOMM*%
G71*
G04*
G04 #@! TF.SameCoordinates,9C7C5B9B-610B-4B87-8B93-73775DEEA3A0*
G04*
G04*
G04 #@! TF.FilePolarity,Positive*
G04*
G01*
G75*
%ADD43C,0.0500*%
%ADD45C,0.1000*%
D43*
X33890Y25000D02*
G03*
X33890Y25000I-8890J0D01*
G01*
X383890D02*
G03*
X383890Y25000I-8890J0D01*
G01*
X127000Y83250D02*
Y116250D01*
X143000Y83250D02*
Y116250D01*
X127000Y83250D02*
X143000D01*
X127000Y116250D02*
X143000D01*
X284250Y95701D02*
X290250D01*
X284250Y103701D02*
X290250D01*
X284250Y95701D02*
Y103701D01*
X290250Y95701D02*
Y103701D01*
X269000Y145000D02*
Y151000D01*
X280000Y145000D02*
Y151000D01*
X269000D02*
X280000D01*
X269000Y145000D02*
X280000D01*
X157000Y68000D02*
Y74000D01*
Y68000D02*
X168000D01*
Y74000D01*
X157000D02*
X168000D01*
X151000Y79000D02*
Y219000D01*
X249000Y79000D02*
Y219000D01*
X151000Y79000D02*
X249000D01*
X151000Y219000D02*
X249000D01*
X300000Y83000D02*
X340000D01*
Y108000D01*
X300000Y83000D02*
Y108000D01*
X328500D02*
X340000D01*
X300000D02*
X311500D01*
X311502Y107999D01*
X328500Y108000D01*
X287000Y132000D02*
Y153000D01*
Y132000D02*
X308000D01*
Y153000D01*
X287000D02*
X308000D01*
X125000Y122750D02*
Y128750D01*
Y122750D02*
X136000D01*
Y128750D01*
X125000D02*
X136000D01*
X125000Y70500D02*
Y76500D01*
Y70500D02*
X136000D01*
Y76500D01*
X125000D02*
X136000D01*
X113500Y95751D02*
Y103751D01*
X107500Y95751D02*
Y103751D01*
X113500D01*
X107500Y95751D02*
X113500D01*
X315000Y151000D02*
X326000D01*
X315000Y145000D02*
X326000D01*
X315000D02*
Y151000D01*
X326000Y145000D02*
Y151000D01*
X269000Y134000D02*
X280000D01*
X269000Y140000D02*
X280000D01*
Y134000D02*
Y140000D01*
X269000Y134000D02*
Y140000D01*
X71500Y83000D02*
X88498Y83001D01*
X88500Y83000D01*
X100000D01*
X60000D02*
X71500D01*
X100000D02*
Y108000D01*
X60000Y83000D02*
Y108000D01*
X100000D01*
X125000Y147000D02*
Y153000D01*
Y147000D02*
X136000D01*
Y153000D01*
X125000D02*
X136000D01*
X125000Y136500D02*
Y142500D01*
Y136500D02*
X136000D01*
Y142500D01*
X125000D02*
X136000D01*
D45*
X98400Y1300D02*
Y26700D01*
Y1300D02*
X301600D01*
Y26700D01*
X98400D02*
X301600D01*
M02*
