G04*
G04 #@! TF.GenerationSoftware,Altium Limited,Altium Designer,21.6.4 (81)*
G04*
G04 Layer_Physical_Order=1*
G04 Layer_Color=255*
%FSLAX44Y44*%
%MOMM*%
G71*
G04*
G04 #@! TF.SameCoordinates,9C7C5B9B-610B-4B87-8B93-73775DEEA3A0*
G04*
G04*
G04 #@! TF.FilePolarity,Positive*
G04*
G01*
G75*
%ADD10C,0.1270*%
%ADD11C,0.2540*%
%ADD14R,1.5500X1.0000*%
%ADD16R,0.3500X0.3600*%
%ADD17R,0.5200X0.5500*%
%ADD18R,0.6200X0.6200*%
%ADD19R,0.4900X0.4900*%
%ADD20R,0.8000X1.7000*%
%ADD21R,1.0000X0.8000*%
%ADD34C,0.7900*%
%ADD35C,0.1524*%
%ADD36C,0.1520*%
%ADD37C,0.9000*%
%ADD38C,3.4000*%
%ADD39C,1.6500*%
%ADD40R,1.6500X1.6500*%
%ADD41C,0.6000*%
G36*
X395922Y4078D02*
X4078Y4078D01*
X4078Y175000D01*
X152280D01*
Y173262D01*
X156000D01*
X159720D01*
Y175000D01*
X179780D01*
Y173262D01*
X183500D01*
X187220D01*
Y175000D01*
X212780D01*
Y173262D01*
X216500D01*
X220220D01*
Y175000D01*
X240280D01*
Y173262D01*
X244000D01*
X247720D01*
Y175000D01*
X395922D01*
X395922Y4078D01*
D02*
G37*
%LPC*%
G36*
X247720Y171738D02*
X244000D01*
X240280D01*
X240280Y169397D01*
X240212Y169304D01*
X240098Y169202D01*
X239990Y169178D01*
X238720Y170201D01*
Y170720D01*
X231280D01*
Y163280D01*
X235793D01*
X236072Y163001D01*
X236744Y162552D01*
X237536Y162394D01*
X238840D01*
X239010Y162428D01*
X240280Y161574D01*
Y157780D01*
X245490D01*
X245690Y157740D01*
X248658D01*
X249652Y156746D01*
X250323Y156298D01*
X251115Y156140D01*
X256054D01*
X256540Y154967D01*
X248990Y147417D01*
X247720Y147943D01*
Y154220D01*
X240280D01*
Y146780D01*
X246557D01*
X247083Y145510D01*
X244793Y143220D01*
X240280D01*
Y135780D01*
X247720D01*
Y140293D01*
X260357Y152930D01*
X265762D01*
X266630Y152020D01*
X266630Y151660D01*
Y146877D01*
X263627Y143873D01*
X263206Y143243D01*
X263058Y142500D01*
Y129555D01*
X259117Y125614D01*
X258541Y125699D01*
X258044Y126433D01*
X257823Y127090D01*
X258104Y128500D01*
X257772Y130166D01*
X256828Y131579D01*
X255416Y132522D01*
X253750Y132854D01*
X252084Y132522D01*
X250672Y131579D01*
X249912Y130442D01*
X247720D01*
Y132220D01*
X240280D01*
Y124942D01*
X238720D01*
Y126720D01*
X231280D01*
Y119280D01*
X238720D01*
Y121058D01*
X240280D01*
Y113780D01*
X247720D01*
Y115558D01*
X259500D01*
X260243Y115706D01*
X260873Y116127D01*
X271873Y127127D01*
X272295Y127757D01*
X272442Y128500D01*
Y132082D01*
X273340Y132980D01*
X274370Y132980D01*
X275640Y132980D01*
X282370D01*
Y135058D01*
X283730D01*
Y131730D01*
X296270D01*
Y141460D01*
X296270Y142270D01*
X296270Y143540D01*
Y152930D01*
X298730D01*
Y143540D01*
X298730Y142730D01*
X298730Y141460D01*
Y131730D01*
X311270D01*
Y132829D01*
X312540Y133508D01*
X313334Y132978D01*
X315000Y132646D01*
X316666Y132978D01*
X318078Y133921D01*
X319022Y135334D01*
X319354Y137000D01*
X319022Y138666D01*
X318078Y140078D01*
X316666Y141022D01*
X315000Y141354D01*
X313334Y141022D01*
X312540Y140492D01*
X311270Y141171D01*
X311270Y142270D01*
X311270Y143540D01*
Y146058D01*
X312630D01*
Y143980D01*
X319360D01*
X320370Y143980D01*
X321640Y143980D01*
X328370D01*
Y143980D01*
X328511Y144056D01*
X329635Y143968D01*
X331250Y143646D01*
X332916Y143978D01*
X334328Y144922D01*
X335272Y146334D01*
X335604Y148000D01*
X335272Y149666D01*
X334328Y151079D01*
X333458Y151660D01*
X333843Y152930D01*
X339643D01*
X352400Y140173D01*
Y104080D01*
X352558Y103288D01*
X353006Y102617D01*
X363634Y91989D01*
X363633Y91987D01*
X363228Y89950D01*
X363633Y87913D01*
X364787Y86187D01*
X366513Y85033D01*
X368550Y84628D01*
Y82572D01*
X366513Y82167D01*
X364787Y81013D01*
X363633Y79287D01*
X363379Y78012D01*
X368550D01*
Y77250D01*
X369312D01*
Y72079D01*
X370587Y72333D01*
X372313Y73487D01*
X373467Y75213D01*
X373872Y77250D01*
X375928D01*
X376333Y75213D01*
X377487Y73487D01*
X379213Y72333D01*
X381250Y71928D01*
X383287Y72333D01*
X385013Y73487D01*
X386167Y75213D01*
X386572Y77250D01*
X386167Y79287D01*
X385013Y81013D01*
X383287Y82167D01*
X381250Y82572D01*
Y84628D01*
X383287Y85033D01*
X385013Y86187D01*
X386166Y85674D01*
X386189Y85660D01*
X387584Y84728D01*
X389250Y84396D01*
X390916Y84728D01*
X392328Y85672D01*
X393272Y87084D01*
X393604Y88750D01*
X393272Y90416D01*
X392328Y91828D01*
X390916Y92772D01*
X389250Y93104D01*
X387584Y92772D01*
X387251Y92550D01*
X385536Y92931D01*
X385013Y93713D01*
X383287Y94867D01*
X381250Y95272D01*
Y97328D01*
X383287Y97733D01*
X385013Y98887D01*
X386167Y100613D01*
X386572Y102650D01*
X386167Y104687D01*
X386166Y104689D01*
X387963Y106486D01*
X388412Y107158D01*
X388570Y107950D01*
Y154000D01*
X388412Y154792D01*
X387963Y155463D01*
X380714Y162714D01*
X380042Y163162D01*
X379250Y163320D01*
X253232D01*
X248858Y167694D01*
X248592Y167871D01*
X248071Y168414D01*
X247720Y169242D01*
X247720Y171738D01*
D02*
G37*
G36*
X220220Y171738D02*
X217262D01*
Y168780D01*
X220220D01*
Y171738D01*
D02*
G37*
G36*
X215738D02*
X212780D01*
Y168780D01*
X215738D01*
Y171738D01*
D02*
G37*
G36*
X187220Y171738D02*
X184262D01*
Y168780D01*
X187220D01*
Y171738D01*
D02*
G37*
G36*
X182738D02*
X179780D01*
Y168780D01*
X182738D01*
Y171738D01*
D02*
G37*
G36*
X159720Y171738D02*
X156762D01*
Y168780D01*
X159720D01*
Y171738D01*
D02*
G37*
G36*
X155238D02*
X152280D01*
Y168780D01*
X155238D01*
Y171738D01*
D02*
G37*
G36*
X168720Y170720D02*
X165762D01*
Y167762D01*
X168720D01*
Y170720D01*
D02*
G37*
G36*
X164238D02*
X161280D01*
Y167762D01*
X164238D01*
Y170720D01*
D02*
G37*
G36*
X168720Y166238D02*
X165762D01*
Y163280D01*
X168720D01*
Y166238D01*
D02*
G37*
G36*
X164238D02*
X161280D01*
Y163280D01*
X164238D01*
Y166238D01*
D02*
G37*
G36*
X159720Y165220D02*
X156762D01*
Y162262D01*
X159720D01*
Y165220D01*
D02*
G37*
G36*
X155238D02*
X152280D01*
Y162262D01*
X155238D01*
Y165220D01*
D02*
G37*
G36*
X159720Y160738D02*
X156762D01*
Y157780D01*
X159720D01*
Y160738D01*
D02*
G37*
G36*
X155238D02*
X152280D01*
Y157780D01*
X155238D01*
Y160738D01*
D02*
G37*
G36*
X168720Y159720D02*
X165762D01*
Y156762D01*
X168720D01*
Y159720D01*
D02*
G37*
G36*
X164238D02*
X161280D01*
Y156762D01*
X164238D01*
Y159720D01*
D02*
G37*
G36*
X238720D02*
X231280D01*
Y152280D01*
X238720D01*
Y159720D01*
D02*
G37*
G36*
X168720Y155238D02*
X165762D01*
Y152280D01*
X168720D01*
Y155238D01*
D02*
G37*
G36*
X164238D02*
X161280D01*
Y152280D01*
X164238D01*
Y155238D01*
D02*
G37*
G36*
X159720Y154220D02*
X156762D01*
Y151262D01*
X159720D01*
Y154220D01*
D02*
G37*
G36*
X155238D02*
X152280D01*
Y151262D01*
X155238D01*
Y154220D01*
D02*
G37*
G36*
X125238Y154370D02*
X121630D01*
Y150762D01*
X125238D01*
Y154370D01*
D02*
G37*
G36*
Y149238D02*
X121630D01*
Y145630D01*
X125238D01*
Y149238D01*
D02*
G37*
G36*
X130630Y154370D02*
X129360Y154370D01*
X126762D01*
Y150000D01*
Y145630D01*
X129360D01*
X130370Y145630D01*
X131640Y145630D01*
X136207D01*
X136580Y145140D01*
X135952Y143870D01*
X130630Y143870D01*
X129360Y143870D01*
X126762D01*
Y139500D01*
Y135130D01*
X129360D01*
X130370Y135130D01*
X131640Y135130D01*
X139370D01*
Y137430D01*
X152280D01*
Y135780D01*
X159720D01*
Y142930D01*
X161280D01*
Y141280D01*
X168720D01*
Y148720D01*
X161280D01*
Y147070D01*
X159720D01*
Y149738D01*
X156000D01*
X152280D01*
Y147070D01*
X141107D01*
X139370Y148807D01*
Y154370D01*
X130630Y154370D01*
D02*
G37*
G36*
X238720Y148720D02*
X231280D01*
Y141280D01*
X238720D01*
Y148720D01*
D02*
G37*
G36*
X125238Y143870D02*
X121630D01*
Y140262D01*
X125238D01*
Y143870D01*
D02*
G37*
G36*
Y138738D02*
X121630D01*
Y135130D01*
X125238D01*
Y138738D01*
D02*
G37*
G36*
X238720Y137720D02*
X231280D01*
Y130280D01*
X238720D01*
Y137720D01*
D02*
G37*
G36*
X168720D02*
X161280D01*
Y130280D01*
X168720D01*
Y137720D01*
D02*
G37*
G36*
X125238Y130120D02*
X121630D01*
Y126512D01*
X125238D01*
Y130120D01*
D02*
G37*
G36*
X159720Y132220D02*
X152280D01*
Y124780D01*
X159720D01*
Y132220D01*
D02*
G37*
G36*
X125238Y124988D02*
X121630D01*
Y121380D01*
X125238D01*
Y124988D01*
D02*
G37*
G36*
X168720Y126720D02*
X161280D01*
Y119280D01*
X168720D01*
Y126720D01*
D02*
G37*
G36*
X159720Y121220D02*
X152280D01*
Y113780D01*
X159720D01*
Y121220D01*
D02*
G37*
G36*
X168720Y115720D02*
X161280D01*
Y108280D01*
X168720D01*
Y115720D01*
D02*
G37*
G36*
X238720Y115720D02*
X231280D01*
Y108280D01*
X238720D01*
Y115720D01*
D02*
G37*
G36*
X113520Y107020D02*
X111262D01*
Y104712D01*
X113520D01*
Y107020D01*
D02*
G37*
G36*
X109738D02*
X107480D01*
Y104712D01*
X109738D01*
Y107020D01*
D02*
G37*
G36*
X290270Y106970D02*
X288012D01*
Y104662D01*
X290270D01*
Y106970D01*
D02*
G37*
G36*
X286488D02*
X284230D01*
Y104662D01*
X286488D01*
Y106970D01*
D02*
G37*
G36*
X247720Y110220D02*
X240280D01*
Y102780D01*
X247720D01*
Y110220D01*
D02*
G37*
G36*
X113520Y103188D02*
X111262D01*
Y100880D01*
X113520D01*
Y103188D01*
D02*
G37*
G36*
X109738D02*
X107480D01*
Y100880D01*
X109738D01*
Y103188D01*
D02*
G37*
G36*
X290270Y103138D02*
X288012D01*
Y100830D01*
X290270D01*
Y103138D01*
D02*
G37*
G36*
X286488D02*
X284230D01*
Y100830D01*
X286488D01*
Y103138D01*
D02*
G37*
G36*
X121750Y105354D02*
X120084Y105022D01*
X118672Y104079D01*
X117728Y102666D01*
X117396Y101000D01*
X117633Y99810D01*
X115548Y97725D01*
X113520D01*
Y98620D01*
X107480D01*
Y97620D01*
X102270D01*
Y105270D01*
X91730D01*
Y85730D01*
X102270D01*
Y93480D01*
X107480D01*
Y92480D01*
X113520D01*
Y93585D01*
X116405D01*
X117197Y93743D01*
X117868Y94191D01*
X120560Y96883D01*
X121750Y96646D01*
X123416Y96978D01*
X124829Y97921D01*
X125772Y99334D01*
X126104Y101000D01*
X125772Y102666D01*
X124829Y104079D01*
X123416Y105022D01*
X121750Y105354D01*
D02*
G37*
G36*
X308270Y105270D02*
X297730D01*
Y97570D01*
X290270D01*
Y98570D01*
X284230D01*
Y97570D01*
X247720D01*
Y99220D01*
X240280D01*
Y91780D01*
X247720D01*
Y93430D01*
X284230D01*
Y92430D01*
X290270D01*
Y93430D01*
X297730D01*
Y85730D01*
X308270D01*
Y105270D01*
D02*
G37*
G36*
X342270D02*
X337762D01*
Y96262D01*
X342270D01*
Y105270D01*
D02*
G37*
G36*
X336238D02*
X331730D01*
Y96262D01*
X336238D01*
Y105270D01*
D02*
G37*
G36*
X68270D02*
X63762D01*
Y96262D01*
X68270D01*
Y105270D01*
D02*
G37*
G36*
X62238D02*
X57730D01*
Y96262D01*
X62238D01*
Y105270D01*
D02*
G37*
G36*
X173262Y97220D02*
Y94262D01*
X176220D01*
Y97220D01*
X173262D01*
D02*
G37*
G36*
X130630Y130120D02*
X129360Y130120D01*
X126762D01*
Y125750D01*
Y121380D01*
X129360D01*
X130370Y121380D01*
X131640Y121380D01*
X132928D01*
Y119020D01*
X125980D01*
Y106480D01*
X141090D01*
X142535Y105035D01*
X142535Y105035D01*
X143207Y104586D01*
X144000Y104428D01*
X152280D01*
Y103070D01*
X152000D01*
X151208Y102912D01*
X150536Y102464D01*
X141093Y93020D01*
X125980D01*
Y80480D01*
X132930D01*
Y78768D01*
X132032Y77870D01*
X130630Y77870D01*
X129360Y77870D01*
X126762D01*
Y73500D01*
Y69130D01*
X129360D01*
X130370Y69130D01*
X131640Y69130D01*
X139370D01*
Y77870D01*
X137070D01*
Y80480D01*
X144020D01*
Y90093D01*
X151107Y97180D01*
X152280Y96694D01*
Y91780D01*
X159720D01*
Y98930D01*
X161280D01*
Y97280D01*
X167506D01*
X167535Y97280D01*
X168723Y97223D01*
X168780Y96035D01*
X168780Y96006D01*
Y94262D01*
X171738D01*
Y97220D01*
X169994D01*
X169965Y97220D01*
X168777Y97277D01*
X168720Y98464D01*
X168720Y98494D01*
Y104720D01*
X161280D01*
Y103070D01*
X159720D01*
Y110220D01*
X152280D01*
Y108572D01*
X144858D01*
X144020Y109410D01*
Y119020D01*
X137072D01*
Y121380D01*
X139370D01*
Y130120D01*
X130630Y130120D01*
D02*
G37*
G36*
X222250Y105354D02*
X220584Y105022D01*
X219172Y104079D01*
X218228Y102666D01*
X217896Y101000D01*
X218228Y99334D01*
X218792Y98490D01*
X218113Y97220D01*
X212780D01*
Y89780D01*
X220220D01*
Y95810D01*
X221490Y96798D01*
X222250Y96646D01*
X222798Y96755D01*
X223780Y95950D01*
Y89780D01*
X231220D01*
Y96006D01*
X231220Y96035D01*
X231277Y97223D01*
X232464Y97280D01*
X232494Y97280D01*
X238720D01*
Y104720D01*
X231280D01*
Y103070D01*
X226003D01*
X225329Y104079D01*
X223916Y105022D01*
X222250Y105354D01*
D02*
G37*
G36*
X176220Y92738D02*
X173262D01*
Y89780D01*
X176220D01*
Y92738D01*
D02*
G37*
G36*
X171738D02*
X168780D01*
Y89780D01*
X171738D01*
Y92738D01*
D02*
G37*
G36*
X209220Y97220D02*
X201780D01*
Y89780D01*
X203027D01*
X203215Y89490D01*
X202525Y88220D01*
X196572D01*
Y89780D01*
X198220D01*
Y97220D01*
X190780D01*
Y89780D01*
X192428D01*
Y88220D01*
X185572D01*
Y89780D01*
X187220D01*
Y97220D01*
X179780D01*
Y89780D01*
X181428D01*
Y88220D01*
X174280D01*
Y80780D01*
X175928D01*
Y69858D01*
X172598Y66528D01*
X171370Y67096D01*
X171370Y67707D01*
Y75370D01*
X169590D01*
Y80780D01*
X170720D01*
Y88220D01*
X163280D01*
Y80780D01*
X164410D01*
Y76268D01*
X163512Y75370D01*
X162630D01*
Y75370D01*
X162370D01*
Y75370D01*
X158762D01*
Y71000D01*
Y66630D01*
X159346D01*
X160024Y65360D01*
X159728Y64916D01*
X159396Y63250D01*
X159728Y61584D01*
X160672Y60171D01*
X161176Y59834D01*
X160791Y58565D01*
X151293D01*
X150500Y58407D01*
X149828Y57958D01*
X149828Y57958D01*
X141632Y49762D01*
X141301Y50016D01*
X138985Y50975D01*
X136500Y51302D01*
X134015Y50975D01*
X131699Y50016D01*
X129710Y48490D01*
X128184Y46501D01*
X127225Y44185D01*
X126898Y41700D01*
X127225Y39215D01*
X128184Y36899D01*
X129710Y34910D01*
X131699Y33384D01*
X134015Y32425D01*
X136500Y32098D01*
X138985Y32425D01*
X141301Y33384D01*
X143290Y34910D01*
X144816Y36899D01*
X145775Y39215D01*
X146102Y41700D01*
X145775Y44185D01*
X144816Y46501D01*
X144562Y46832D01*
X152151Y54421D01*
X162828D01*
X163003Y53997D01*
X163215Y53151D01*
X162851Y52607D01*
X162694Y51814D01*
X161647Y51269D01*
X159415Y50975D01*
X157099Y50016D01*
X155110Y48490D01*
X153584Y46501D01*
X152625Y44185D01*
X152298Y41700D01*
X152625Y39215D01*
X153584Y36899D01*
X155110Y34910D01*
X157099Y33384D01*
X159415Y32425D01*
X161900Y32098D01*
X164385Y32425D01*
X166701Y33384D01*
X168690Y34910D01*
X170216Y36899D01*
X171175Y39215D01*
X171502Y41700D01*
X171175Y44185D01*
X170216Y46501D01*
X168690Y48490D01*
X167028Y49765D01*
X166971Y51090D01*
X184965Y69084D01*
X185414Y69756D01*
X185572Y70549D01*
X185572Y70549D01*
Y80780D01*
X188666D01*
X188778Y80216D01*
X189226Y79544D01*
X191805Y76966D01*
Y51281D01*
X190749Y50576D01*
X189785Y50975D01*
X187300Y51302D01*
X184815Y50975D01*
X182499Y50016D01*
X180510Y48490D01*
X178984Y46501D01*
X178025Y44185D01*
X177698Y41700D01*
X178025Y39215D01*
X178984Y36899D01*
X180510Y34910D01*
X182499Y33384D01*
X184815Y32425D01*
X187300Y32098D01*
X189785Y32425D01*
X192101Y33384D01*
X194090Y34910D01*
X195616Y36899D01*
X196575Y39215D01*
X197895Y39515D01*
X197928Y39506D01*
X198086Y38713D01*
X198535Y38040D01*
X206873Y29703D01*
X206873Y29703D01*
X207545Y29254D01*
X208337Y29096D01*
X227918D01*
X227918Y29096D01*
X228711Y29254D01*
X229383Y29703D01*
X233166Y33486D01*
X233299Y33384D01*
X235615Y32425D01*
X238100Y32098D01*
X240585Y32425D01*
X242901Y33384D01*
X244890Y34910D01*
X246416Y36899D01*
X247375Y39215D01*
X247702Y41700D01*
X247616Y42352D01*
X248819Y42945D01*
X251507Y40258D01*
X252178Y39810D01*
X252970Y39652D01*
X254167D01*
X254225Y39215D01*
X255184Y36899D01*
X256710Y34910D01*
X258699Y33384D01*
X261015Y32425D01*
X263500Y32098D01*
X265985Y32425D01*
X268301Y33384D01*
X270290Y34910D01*
X271816Y36899D01*
X272775Y39215D01*
X273102Y41700D01*
X272775Y44185D01*
X271816Y46501D01*
X270290Y48490D01*
X268301Y50016D01*
X265985Y50975D01*
X263500Y51302D01*
X261015Y50975D01*
X258699Y50016D01*
X256710Y48490D01*
X255184Y46501D01*
X254519Y44896D01*
X253052Y44567D01*
X219085Y78534D01*
X218414Y78982D01*
X217622Y79140D01*
X211877D01*
X211607Y79510D01*
X212253Y80780D01*
X214720D01*
Y88220D01*
X208340D01*
Y89780D01*
X209220D01*
Y97220D01*
D02*
G37*
G36*
X342270Y94738D02*
X337762D01*
Y85730D01*
X342270D01*
Y94738D01*
D02*
G37*
G36*
X336238D02*
X331730D01*
Y85730D01*
X336238D01*
Y94738D01*
D02*
G37*
G36*
X68270Y94738D02*
X63762D01*
Y85730D01*
X68270D01*
Y94738D01*
D02*
G37*
G36*
X62238D02*
X57730D01*
Y85730D01*
X62238D01*
Y94738D01*
D02*
G37*
G36*
X247720Y88220D02*
X244762D01*
Y85262D01*
X247720D01*
Y88220D01*
D02*
G37*
G36*
X243238D02*
X240280D01*
Y85262D01*
X243238D01*
Y88220D01*
D02*
G37*
G36*
X236720D02*
X233762D01*
Y85262D01*
X236720D01*
Y88220D01*
D02*
G37*
G36*
X159720D02*
X156762D01*
Y85262D01*
X159720D01*
Y88220D01*
D02*
G37*
G36*
X232238D02*
X229280D01*
Y85262D01*
X232238D01*
Y88220D01*
D02*
G37*
G36*
X155238D02*
X152280D01*
Y85262D01*
X155238D01*
Y88220D01*
D02*
G37*
G36*
X247720Y83738D02*
X244762D01*
Y80780D01*
X247720D01*
Y83738D01*
D02*
G37*
G36*
X243238D02*
X240280D01*
Y80780D01*
X243238D01*
Y83738D01*
D02*
G37*
G36*
X236720Y83738D02*
X233762D01*
Y80780D01*
X236720D01*
Y83738D01*
D02*
G37*
G36*
X232238D02*
X229280D01*
Y80780D01*
X232238D01*
Y83738D01*
D02*
G37*
G36*
X225720Y88220D02*
X218280D01*
Y80780D01*
X225720D01*
Y88220D01*
D02*
G37*
G36*
X159720Y83738D02*
X156762D01*
Y80780D01*
X159720D01*
Y83738D01*
D02*
G37*
G36*
X155238D02*
X152280D01*
Y80780D01*
X155238D01*
Y83738D01*
D02*
G37*
G36*
X125238Y77870D02*
X121630D01*
Y74262D01*
X125238D01*
Y77870D01*
D02*
G37*
G36*
X367788Y76488D02*
X363379D01*
X363633Y75213D01*
X364787Y73487D01*
X366513Y72333D01*
X367788Y72079D01*
Y76488D01*
D02*
G37*
G36*
X157238Y75370D02*
X153630D01*
Y71762D01*
X157238D01*
Y75370D01*
D02*
G37*
G36*
X125238Y72738D02*
X121630D01*
Y69130D01*
X125238D01*
Y72738D01*
D02*
G37*
G36*
X157238Y70238D02*
X153630D01*
Y66630D01*
X157238D01*
Y70238D01*
D02*
G37*
G36*
X385060Y70917D02*
X382623Y70433D01*
X380558Y69052D01*
X379177Y66987D01*
X378693Y64550D01*
X379177Y62113D01*
X380558Y60048D01*
X382623Y58667D01*
X385060Y58183D01*
X387497Y58667D01*
X389562Y60048D01*
X390943Y62113D01*
X391427Y64550D01*
X390943Y66987D01*
X389562Y69052D01*
X387497Y70433D01*
X385060Y70917D01*
D02*
G37*
G36*
X364740D02*
X362303Y70433D01*
X360238Y69052D01*
X358857Y66987D01*
X358373Y64550D01*
X358857Y62113D01*
X360238Y60048D01*
X362303Y58667D01*
X364740Y58183D01*
X367177Y58667D01*
X369242Y60048D01*
X370623Y62113D01*
X371107Y64550D01*
X370623Y66987D01*
X369242Y69052D01*
X367177Y70433D01*
X364740Y70917D01*
D02*
G37*
G36*
X111862Y51202D02*
Y42462D01*
X120602D01*
X120375Y44185D01*
X119416Y46501D01*
X117890Y48490D01*
X115901Y50016D01*
X113585Y50975D01*
X111862Y51202D01*
D02*
G37*
G36*
X110338D02*
X108615Y50975D01*
X106299Y50016D01*
X104310Y48490D01*
X102784Y46501D01*
X101825Y44185D01*
X101598Y42462D01*
X110338D01*
Y51202D01*
D02*
G37*
G36*
X120602Y40938D02*
X111862D01*
Y32198D01*
X113585Y32425D01*
X115901Y33384D01*
X117890Y34910D01*
X119416Y36899D01*
X120375Y39215D01*
X120602Y40938D01*
D02*
G37*
G36*
X110338D02*
X101598D01*
X101825Y39215D01*
X102784Y36899D01*
X104310Y34910D01*
X106299Y33384D01*
X108615Y32425D01*
X110338Y32198D01*
Y40938D01*
D02*
G37*
G36*
X298420Y51220D02*
X279380D01*
Y32180D01*
X298420D01*
Y51220D01*
D02*
G37*
G36*
X375762Y43283D02*
Y25762D01*
X393283D01*
X393006Y28582D01*
X391961Y32025D01*
X390264Y35199D01*
X387981Y37981D01*
X385199Y40264D01*
X382025Y41961D01*
X378582Y43006D01*
X375762Y43283D01*
D02*
G37*
G36*
X374238D02*
X371418Y43006D01*
X367975Y41961D01*
X364801Y40264D01*
X362019Y37981D01*
X359736Y35199D01*
X358039Y32025D01*
X356994Y28582D01*
X356717Y25762D01*
X374238D01*
Y43283D01*
D02*
G37*
G36*
X25762D02*
Y25762D01*
X43283D01*
X43006Y28582D01*
X41961Y32025D01*
X40264Y35199D01*
X37981Y37981D01*
X35199Y40264D01*
X32025Y41961D01*
X28582Y43006D01*
X25762Y43283D01*
D02*
G37*
G36*
X24238D02*
X21418Y43006D01*
X17975Y41961D01*
X14801Y40264D01*
X12019Y37981D01*
X9736Y35199D01*
X8039Y32025D01*
X6994Y28582D01*
X6717Y25762D01*
X24238D01*
Y43283D01*
D02*
G37*
G36*
X393283Y24238D02*
X375762D01*
Y6717D01*
X378582Y6994D01*
X382025Y8039D01*
X385199Y9736D01*
X387981Y12019D01*
X390264Y14801D01*
X391961Y17975D01*
X393006Y21418D01*
X393283Y24238D01*
D02*
G37*
G36*
X374238D02*
X356717D01*
X356994Y21418D01*
X358039Y17975D01*
X359736Y14801D01*
X362019Y12019D01*
X364801Y9736D01*
X367975Y8039D01*
X371418Y6994D01*
X374238Y6717D01*
Y24238D01*
D02*
G37*
G36*
X43283D02*
X25762D01*
Y6717D01*
X28582Y6994D01*
X32025Y8039D01*
X35199Y9736D01*
X37981Y12019D01*
X40264Y14801D01*
X41961Y17975D01*
X43006Y21418D01*
X43283Y24238D01*
D02*
G37*
G36*
X24238D02*
X6717D01*
X6994Y21418D01*
X8039Y17975D01*
X9736Y14801D01*
X12019Y12019D01*
X14801Y9736D01*
X17975Y8039D01*
X21418Y6994D01*
X24238Y6717D01*
Y24238D01*
D02*
G37*
%LPD*%
G36*
X384430Y153143D02*
Y108807D01*
X383206Y107583D01*
X381250Y107972D01*
X379213Y107567D01*
X377487Y106413D01*
X376333Y104687D01*
X375948Y102750D01*
X373852D01*
X373467Y104687D01*
X372313Y106413D01*
X370587Y107567D01*
X368550Y107972D01*
X367207Y107705D01*
X363902Y111011D01*
X363829Y112422D01*
X364772Y113834D01*
X365104Y115500D01*
X364772Y117166D01*
X363829Y118579D01*
X362416Y119522D01*
X360750Y119854D01*
X359084Y119522D01*
X357810Y118671D01*
X357192Y118829D01*
X356540Y119171D01*
Y141030D01*
X356382Y141822D01*
X355933Y142494D01*
X354517Y143910D01*
X355043Y145180D01*
X356247D01*
X356922Y144171D01*
X358334Y143228D01*
X360000Y142896D01*
X361666Y143228D01*
X363078Y144171D01*
X364022Y145584D01*
X364354Y147250D01*
X364022Y148916D01*
X363078Y150329D01*
X361666Y151272D01*
X360000Y151604D01*
X358334Y151272D01*
X356922Y150329D01*
X356247Y149320D01*
X354291D01*
X345604Y158007D01*
X346090Y159180D01*
X378393D01*
X384430Y153143D01*
D02*
G37*
%LPC*%
G36*
X374900Y121717D02*
X372463Y121233D01*
X370398Y119852D01*
X369017Y117787D01*
X368533Y115350D01*
X369017Y112913D01*
X370398Y110848D01*
X372463Y109467D01*
X374900Y108983D01*
X377337Y109467D01*
X379402Y110848D01*
X380783Y112913D01*
X381267Y115350D01*
X380783Y117787D01*
X379402Y119852D01*
X377337Y121233D01*
X374900Y121717D01*
D02*
G37*
%LPD*%
G36*
X203720Y80780D02*
X204629Y79908D01*
X204806Y79642D01*
X208842Y75606D01*
X209513Y75158D01*
X210306Y75000D01*
X216764D01*
X239345Y52419D01*
X238752Y51216D01*
X238100Y51302D01*
X235615Y50975D01*
X233299Y50016D01*
X231310Y48490D01*
X229784Y46501D01*
X228825Y44185D01*
X228498Y41700D01*
X228825Y39215D01*
X229784Y36899D01*
X230190Y36370D01*
X227060Y33240D01*
X219399D01*
X218968Y34510D01*
X219490Y34910D01*
X221016Y36899D01*
X221975Y39215D01*
X222302Y41700D01*
X221975Y44185D01*
X221016Y46501D01*
X219490Y48490D01*
X217501Y50016D01*
X215185Y50975D01*
X212700Y51302D01*
X210215Y50975D01*
X207899Y50016D01*
X207567Y49761D01*
X202070Y55257D01*
Y79882D01*
X202968Y80780D01*
X203720Y80780D01*
D02*
G37*
D10*
X305000Y148000D02*
X316500D01*
X316500Y148000D01*
X278500Y137000D02*
X290000D01*
X278500Y148000D02*
X290000D01*
X290000Y148000D01*
X324500Y148000D02*
X331250D01*
X244000Y128500D02*
X253750D01*
X253750Y128500D01*
X270500Y128500D02*
Y137000D01*
X259500Y117500D02*
X270500Y128500D01*
X244000Y117500D02*
X259500D01*
X235000Y123000D02*
X259250D01*
X265000Y128750D02*
Y142500D01*
X259250Y123000D02*
X265000Y128750D01*
X270500Y147850D02*
Y148000D01*
X268535Y145885D02*
X270500Y147850D01*
X268385Y145885D02*
X268535D01*
X265000Y142500D02*
X268385Y145885D01*
D11*
X156000Y77000D02*
Y84500D01*
Y77000D02*
X157750Y75250D01*
Y71250D02*
X158000Y71000D01*
X157750Y71250D02*
Y75250D01*
X150250Y71000D02*
X158000D01*
X167000D02*
Y84500D01*
Y66000D02*
Y71000D01*
X163750Y63250D02*
X164250D01*
X167000Y66000D01*
X305000Y137000D02*
X315000D01*
X360750Y110500D02*
Y115500D01*
Y110500D02*
X368550Y102700D01*
Y102650D02*
Y102700D01*
D14*
X135000Y112750D02*
D03*
Y86750D02*
D03*
D16*
X287250Y95500D02*
D03*
Y103900D02*
D03*
X110500Y103950D02*
D03*
Y95550D02*
D03*
D17*
X270500Y148000D02*
D03*
X278500D02*
D03*
X316500D02*
D03*
X324500D02*
D03*
X278500Y137000D02*
D03*
X270500D02*
D03*
D18*
X158000Y71000D02*
D03*
X167000D02*
D03*
X126000Y125750D02*
D03*
X135000D02*
D03*
X126000Y73500D02*
D03*
X135000D02*
D03*
X126000Y150000D02*
D03*
X135000D02*
D03*
X126000Y139500D02*
D03*
X135000D02*
D03*
D19*
X183500Y172500D02*
D03*
X216500D02*
D03*
X165000Y101000D02*
D03*
Y112000D02*
D03*
Y123000D02*
D03*
Y134000D02*
D03*
Y145000D02*
D03*
Y156000D02*
D03*
X156000Y95500D02*
D03*
Y106500D02*
D03*
Y117500D02*
D03*
Y128500D02*
D03*
Y139500D02*
D03*
Y150500D02*
D03*
Y161500D02*
D03*
X165000Y167000D02*
D03*
X156000Y172500D02*
D03*
Y84500D02*
D03*
X167000D02*
D03*
X178000D02*
D03*
X189000D02*
D03*
X200000D02*
D03*
X211000D02*
D03*
X222000D02*
D03*
X233000D02*
D03*
X244000D02*
D03*
X172500Y93500D02*
D03*
X183500D02*
D03*
X194500D02*
D03*
X205500D02*
D03*
X216500D02*
D03*
X227500D02*
D03*
X244000Y95500D02*
D03*
Y106500D02*
D03*
Y117500D02*
D03*
Y128500D02*
D03*
Y139500D02*
D03*
Y150500D02*
D03*
Y161500D02*
D03*
Y172500D02*
D03*
X235000Y101000D02*
D03*
Y112000D02*
D03*
Y123000D02*
D03*
Y134000D02*
D03*
Y145000D02*
D03*
Y156000D02*
D03*
Y167000D02*
D03*
D20*
X337000Y95500D02*
D03*
X303000D02*
D03*
X97000D02*
D03*
X63000D02*
D03*
D21*
X305000Y137000D02*
D03*
X290000D02*
D03*
Y148000D02*
D03*
X305000D02*
D03*
D34*
X381250Y77250D02*
D03*
X368550D02*
D03*
X381250Y89950D02*
D03*
X368550D02*
D03*
X381250Y102650D02*
D03*
X368550D02*
D03*
D35*
X165493Y56493D02*
X178000Y69000D01*
Y84500D01*
X164765Y44566D02*
Y51814D01*
X151293Y56493D02*
X165493D01*
X164765Y51814D02*
X183500Y70549D01*
X161900Y41700D02*
X164765Y44566D01*
X183500Y70549D02*
Y93500D01*
X196958Y48542D02*
Y79042D01*
X194500Y81500D02*
Y93500D01*
Y81500D02*
X196958Y79042D01*
X200000Y39506D02*
Y45500D01*
X196958Y48542D02*
X200000Y45500D01*
Y39506D02*
X208337Y31168D01*
X135000Y112750D02*
X135000Y112750D01*
X135000Y125750D02*
X135000Y125750D01*
Y112750D02*
Y125750D01*
X144000Y106500D02*
X156000D01*
X137750Y112750D02*
X144000Y106500D01*
X135000Y112750D02*
X137750D01*
X238100Y41350D02*
Y41700D01*
X208337Y31168D02*
X227918D01*
X238100Y41350D01*
X136500Y41700D02*
X151293Y56493D01*
D36*
X381800Y90500D02*
X383550Y88750D01*
X389250D01*
X386500Y107950D02*
Y154000D01*
X381250Y102700D02*
X386500Y107950D01*
X379250Y161250D02*
X386500Y154000D01*
X340500Y155000D02*
X354470Y141030D01*
X259500Y155000D02*
X340500D01*
X354470Y104080D02*
Y141030D01*
X342473Y158210D02*
X353433Y147250D01*
X360000D01*
X251115Y158210D02*
X342473D01*
X247394Y166230D02*
X252374Y161250D01*
X379250D01*
X244000Y161500D02*
X245690Y159810D01*
X249515D01*
X251115Y158210D01*
X240606Y166230D02*
X247394D01*
X235000Y167000D02*
X237536Y164464D01*
X238840D01*
X240606Y166230D01*
X193875Y48375D02*
Y77823D01*
X190690Y81008D02*
X193875Y77823D01*
X189000Y84500D02*
X190690Y82810D01*
Y81008D02*
Y82810D01*
X187300Y41700D02*
Y41800D01*
X193875Y48375D01*
X354470Y104080D02*
X368550Y90000D01*
X381250Y89950D02*
X381800Y90500D01*
X140250Y145000D02*
X165000D01*
X135000Y150250D02*
X140250Y145000D01*
X135000Y139500D02*
X156000D01*
X152000Y101000D02*
X165000D01*
X137750Y86750D02*
X152000Y101000D01*
X135000Y86750D02*
X137750D01*
X252970Y41722D02*
X263478D01*
X210306Y77070D02*
X217622D01*
X252970Y41722D01*
X97000Y95500D02*
X97050Y95550D01*
X110500D01*
X200000Y54400D02*
Y84500D01*
Y54400D02*
X212700Y41700D01*
X206270Y81106D02*
X210306Y77070D01*
X205500Y93500D02*
X206270Y92730D01*
Y81106D02*
Y92730D01*
X263478Y41722D02*
X263500Y41700D01*
X116405Y95655D02*
X121750Y101000D01*
X110605Y95655D02*
X116405D01*
X110500Y95550D02*
X110605Y95655D01*
X135000Y73500D02*
Y86750D01*
X135000Y86750D02*
X135000Y86750D01*
X222250Y101000D02*
X235000D01*
X244000Y95500D02*
X287250D01*
X303000D01*
X244000Y139500D02*
X259500Y155000D01*
D37*
X364740Y64550D02*
D03*
X385060D02*
D03*
X374900Y115350D02*
D03*
D38*
X25000Y25000D02*
D03*
X375000D02*
D03*
D39*
X111100Y41700D02*
D03*
X136500D02*
D03*
X238100D02*
D03*
X263500D02*
D03*
X212700D02*
D03*
X187300D02*
D03*
X161900D02*
D03*
D40*
X288900D02*
D03*
D41*
X163750Y63250D02*
D03*
X187250Y67000D02*
D03*
X331250Y148000D02*
D03*
X315000Y137000D02*
D03*
X253750Y128500D02*
D03*
X275000Y126500D02*
D03*
X290000D02*
D03*
X305000D02*
D03*
X256250Y143750D02*
D03*
X350000Y21500D02*
D03*
X50000D02*
D03*
X380000Y171500D02*
D03*
Y141500D02*
D03*
Y51500D02*
D03*
X365000Y126500D02*
D03*
Y51500D02*
D03*
X350000Y96500D02*
D03*
Y81500D02*
D03*
Y66500D02*
D03*
Y51500D02*
D03*
Y36500D02*
D03*
X335000Y126500D02*
D03*
Y111500D02*
D03*
Y81500D02*
D03*
Y66500D02*
D03*
Y51500D02*
D03*
Y36500D02*
D03*
Y21500D02*
D03*
X320000Y111500D02*
D03*
Y96500D02*
D03*
Y81500D02*
D03*
Y66500D02*
D03*
Y51500D02*
D03*
Y36500D02*
D03*
Y21500D02*
D03*
X305000Y111500D02*
D03*
Y81500D02*
D03*
Y66500D02*
D03*
Y51500D02*
D03*
Y36500D02*
D03*
Y21500D02*
D03*
X290000Y111500D02*
D03*
Y81500D02*
D03*
Y66500D02*
D03*
Y21500D02*
D03*
X275000Y111500D02*
D03*
Y81500D02*
D03*
Y66500D02*
D03*
Y51500D02*
D03*
Y21500D02*
D03*
X260000Y111500D02*
D03*
Y81500D02*
D03*
Y66500D02*
D03*
Y21500D02*
D03*
X245000Y66500D02*
D03*
Y21500D02*
D03*
X230000D02*
D03*
X215000Y156500D02*
D03*
Y141500D02*
D03*
Y126500D02*
D03*
Y66500D02*
D03*
Y21500D02*
D03*
X200000Y171500D02*
D03*
Y156500D02*
D03*
Y141500D02*
D03*
Y126500D02*
D03*
Y111500D02*
D03*
Y21500D02*
D03*
X185000Y156500D02*
D03*
Y141500D02*
D03*
Y126500D02*
D03*
Y111500D02*
D03*
Y21500D02*
D03*
X170000D02*
D03*
X155000D02*
D03*
X140000Y171500D02*
D03*
Y21500D02*
D03*
X125000Y171500D02*
D03*
Y51500D02*
D03*
Y21500D02*
D03*
X110000Y171500D02*
D03*
Y156500D02*
D03*
Y141500D02*
D03*
Y126500D02*
D03*
Y111500D02*
D03*
Y81500D02*
D03*
Y66500D02*
D03*
Y21500D02*
D03*
X95000Y171500D02*
D03*
Y156500D02*
D03*
Y141500D02*
D03*
Y126500D02*
D03*
Y111500D02*
D03*
Y81500D02*
D03*
Y66500D02*
D03*
Y51500D02*
D03*
Y36500D02*
D03*
Y21500D02*
D03*
X80000Y171500D02*
D03*
Y156500D02*
D03*
Y141500D02*
D03*
Y126500D02*
D03*
Y111500D02*
D03*
Y96500D02*
D03*
Y81500D02*
D03*
Y66500D02*
D03*
Y51500D02*
D03*
Y36500D02*
D03*
Y21500D02*
D03*
X65000Y171500D02*
D03*
Y156500D02*
D03*
Y141500D02*
D03*
Y126500D02*
D03*
Y111500D02*
D03*
Y81500D02*
D03*
Y66500D02*
D03*
Y51500D02*
D03*
Y36500D02*
D03*
Y21500D02*
D03*
X50000Y171500D02*
D03*
Y156500D02*
D03*
Y141500D02*
D03*
Y126500D02*
D03*
Y111500D02*
D03*
Y96500D02*
D03*
Y81500D02*
D03*
Y66500D02*
D03*
Y51500D02*
D03*
Y36500D02*
D03*
X35000Y171500D02*
D03*
Y156500D02*
D03*
Y141500D02*
D03*
Y126500D02*
D03*
Y111500D02*
D03*
Y96500D02*
D03*
Y81500D02*
D03*
Y66500D02*
D03*
Y51500D02*
D03*
X20000Y171500D02*
D03*
Y156500D02*
D03*
Y141500D02*
D03*
Y126500D02*
D03*
Y111500D02*
D03*
Y96500D02*
D03*
Y81500D02*
D03*
Y66500D02*
D03*
Y51500D02*
D03*
X172500Y100500D02*
D03*
X389250Y88750D02*
D03*
X392500Y96500D02*
D03*
Y81500D02*
D03*
Y111500D02*
D03*
X7500Y51500D02*
D03*
Y66500D02*
D03*
Y81500D02*
D03*
Y96500D02*
D03*
Y111500D02*
D03*
Y126500D02*
D03*
Y141500D02*
D03*
Y156500D02*
D03*
Y171500D02*
D03*
X392500Y141500D02*
D03*
Y126500D02*
D03*
X215000Y111500D02*
D03*
X133000Y161500D02*
D03*
X145000Y132500D02*
D03*
X148250Y112750D02*
D03*
X135000Y100000D02*
D03*
X137500Y61500D02*
D03*
X175000Y50000D02*
D03*
X206000Y57500D02*
D03*
X225000Y50000D02*
D03*
X252500Y51500D02*
D03*
X260000Y101500D02*
D03*
X275000D02*
D03*
X365000Y155000D02*
D03*
X348500Y118750D02*
D03*
Y134500D02*
D03*
X335000Y141500D02*
D03*
X360750Y115500D02*
D03*
X305000Y171500D02*
D03*
X365000D02*
D03*
X290000D02*
D03*
X251000D02*
D03*
X350000D02*
D03*
X320000D02*
D03*
X260000D02*
D03*
X335000D02*
D03*
X275000D02*
D03*
X148750Y171250D02*
D03*
Y150500D02*
D03*
Y161500D02*
D03*
X251250Y84500D02*
D03*
X244000Y77500D02*
D03*
X233000D02*
D03*
X235750Y92500D02*
D03*
X164250D02*
D03*
X150250Y71000D02*
D03*
X148750Y84500D02*
D03*
X50000Y7500D02*
D03*
X65000D02*
D03*
X80000D02*
D03*
X95000D02*
D03*
X110000D02*
D03*
X125000D02*
D03*
X140000D02*
D03*
X155000D02*
D03*
X170000D02*
D03*
X230000D02*
D03*
X245000D02*
D03*
X260000D02*
D03*
X275000D02*
D03*
X290000D02*
D03*
X305000D02*
D03*
X320000D02*
D03*
X335000D02*
D03*
X350000D02*
D03*
X392500Y51500D02*
D03*
Y156500D02*
D03*
Y171500D02*
D03*
X360000Y147250D02*
D03*
X121750Y101000D02*
D03*
X222250D02*
D03*
X171750Y167000D02*
D03*
X223250Y171500D02*
D03*
X209750D02*
D03*
X190250D02*
D03*
X176750D02*
D03*
X225000Y162000D02*
D03*
X171750Y156000D02*
D03*
M02*
