G04*
G04 #@! TF.GenerationSoftware,Altium Limited,Altium Designer,21.6.4 (81)*
G04*
G04 Layer_Color=2752767*
%FSLAX44Y44*%
%MOMM*%
G71*
G04*
G04 #@! TF.SameCoordinates,9C7C5B9B-610B-4B87-8B93-73775DEEA3A0*
G04*
G04*
G04 #@! TF.FilePolarity,Positive*
G04*
G01*
G75*
%ADD44C,0.0508*%
%ADD47C,0.0677*%
D44*
X362708Y62518D02*
Y66582D01*
X366772D01*
Y62518D01*
X362708D01*
X383028D02*
Y66582D01*
X387092D01*
Y62518D01*
X383028D01*
X372868Y113318D02*
Y117382D01*
X376932D01*
Y113318D01*
X372868D01*
X111100Y39668D02*
X109068Y43732D01*
X113132D01*
X111100Y39668D01*
X136500D02*
X134468Y43732D01*
X138532D01*
X136500Y39668D01*
X238100D02*
X236068Y43732D01*
X240132D01*
X238100Y39668D01*
X288900D02*
X286868Y43732D01*
X290932D01*
X288900Y39668D01*
X263500D02*
X261468Y43732D01*
X265532D01*
X263500Y39668D01*
X212700D02*
X210668Y43732D01*
X214732D01*
X212700Y39668D01*
X187300D02*
X185268Y43732D01*
X189332D01*
X187300Y39668D01*
X161900D02*
X159868Y43732D01*
X163932D01*
X161900Y39668D01*
X163750Y61218D02*
X164766Y62234D01*
X165782D01*
X164766Y63250D01*
X165782Y64266D01*
X164766D01*
X163750Y65282D01*
X162734Y64266D01*
X161718D01*
X162734Y63250D01*
X161718Y62234D01*
X162734D01*
X163750Y61218D01*
X185218Y64968D02*
X186234Y67000D01*
X185218Y69032D01*
X187250Y68016D01*
X189282Y69032D01*
X188266Y67000D01*
X189282Y64968D01*
X187250Y65984D01*
X185218Y64968D01*
X331250Y145968D02*
X332266Y146984D01*
X333282D01*
X332266Y148000D01*
X333282Y149016D01*
X332266D01*
X331250Y150032D01*
X330234Y149016D01*
X329218D01*
X330234Y148000D01*
X329218Y146984D01*
X330234D01*
X331250Y145968D01*
X315000Y134968D02*
X316016Y135984D01*
X317032D01*
X316016Y137000D01*
X317032Y138016D01*
X316016D01*
X315000Y139032D01*
X313984Y138016D01*
X312968D01*
X313984Y137000D01*
X312968Y135984D01*
X313984D01*
X315000Y134968D01*
X253750Y126468D02*
X254766Y127484D01*
X255782D01*
X254766Y128500D01*
X255782Y129516D01*
X254766D01*
X253750Y130532D01*
X252734Y129516D01*
X251718D01*
X252734Y128500D01*
X251718Y127484D01*
X252734D01*
X253750Y126468D01*
X275000Y124468D02*
X276016Y125484D01*
X277032D01*
X276016Y126500D01*
X277032Y127516D01*
X276016D01*
X275000Y128532D01*
X273984Y127516D01*
X272968D01*
X273984Y126500D01*
X272968Y125484D01*
X273984D01*
X275000Y124468D01*
X290000D02*
X291016Y125484D01*
X292032D01*
X291016Y126500D01*
X292032Y127516D01*
X291016D01*
X290000Y128532D01*
X288984Y127516D01*
X287968D01*
X288984Y126500D01*
X287968Y125484D01*
X288984D01*
X290000Y124468D01*
X305000D02*
X306016Y125484D01*
X307032D01*
X306016Y126500D01*
X307032Y127516D01*
X306016D01*
X305000Y128532D01*
X303984Y127516D01*
X302968D01*
X303984Y126500D01*
X302968Y125484D01*
X303984D01*
X305000Y124468D01*
X256250Y141718D02*
X257266Y142734D01*
X258282D01*
X257266Y143750D01*
X258282Y144766D01*
X257266D01*
X256250Y145782D01*
X255234Y144766D01*
X254218D01*
X255234Y143750D01*
X254218Y142734D01*
X255234D01*
X256250Y141718D01*
X350000Y19468D02*
X351016Y20484D01*
X352032D01*
X351016Y21500D01*
X352032Y22516D01*
X351016D01*
X350000Y23532D01*
X348984Y22516D01*
X347968D01*
X348984Y21500D01*
X347968Y20484D01*
X348984D01*
X350000Y19468D01*
X50000D02*
X51016Y20484D01*
X52032D01*
X51016Y21500D01*
X52032Y22516D01*
X51016D01*
X50000Y23532D01*
X48984Y22516D01*
X47968D01*
X48984Y21500D01*
X47968Y20484D01*
X48984D01*
X50000Y19468D01*
X380000Y169468D02*
X381016Y170484D01*
X382032D01*
X381016Y171500D01*
X382032Y172516D01*
X381016D01*
X380000Y173532D01*
X378984Y172516D01*
X377968D01*
X378984Y171500D01*
X377968Y170484D01*
X378984D01*
X380000Y169468D01*
Y139468D02*
X381016Y140484D01*
X382032D01*
X381016Y141500D01*
X382032Y142516D01*
X381016D01*
X380000Y143532D01*
X378984Y142516D01*
X377968D01*
X378984Y141500D01*
X377968Y140484D01*
X378984D01*
X380000Y139468D01*
Y49468D02*
X381016Y50484D01*
X382032D01*
X381016Y51500D01*
X382032Y52516D01*
X381016D01*
X380000Y53532D01*
X378984Y52516D01*
X377968D01*
X378984Y51500D01*
X377968Y50484D01*
X378984D01*
X380000Y49468D01*
X365000Y124468D02*
X366016Y125484D01*
X367032D01*
X366016Y126500D01*
X367032Y127516D01*
X366016D01*
X365000Y128532D01*
X363984Y127516D01*
X362968D01*
X363984Y126500D01*
X362968Y125484D01*
X363984D01*
X365000Y124468D01*
Y49468D02*
X366016Y50484D01*
X367032D01*
X366016Y51500D01*
X367032Y52516D01*
X366016D01*
X365000Y53532D01*
X363984Y52516D01*
X362968D01*
X363984Y51500D01*
X362968Y50484D01*
X363984D01*
X365000Y49468D01*
X350000Y94468D02*
X351016Y95484D01*
X352032D01*
X351016Y96500D01*
X352032Y97516D01*
X351016D01*
X350000Y98532D01*
X348984Y97516D01*
X347968D01*
X348984Y96500D01*
X347968Y95484D01*
X348984D01*
X350000Y94468D01*
Y79468D02*
X351016Y80484D01*
X352032D01*
X351016Y81500D01*
X352032Y82516D01*
X351016D01*
X350000Y83532D01*
X348984Y82516D01*
X347968D01*
X348984Y81500D01*
X347968Y80484D01*
X348984D01*
X350000Y79468D01*
Y64468D02*
X351016Y65484D01*
X352032D01*
X351016Y66500D01*
X352032Y67516D01*
X351016D01*
X350000Y68532D01*
X348984Y67516D01*
X347968D01*
X348984Y66500D01*
X347968Y65484D01*
X348984D01*
X350000Y64468D01*
Y49468D02*
X351016Y50484D01*
X352032D01*
X351016Y51500D01*
X352032Y52516D01*
X351016D01*
X350000Y53532D01*
X348984Y52516D01*
X347968D01*
X348984Y51500D01*
X347968Y50484D01*
X348984D01*
X350000Y49468D01*
Y34468D02*
X351016Y35484D01*
X352032D01*
X351016Y36500D01*
X352032Y37516D01*
X351016D01*
X350000Y38532D01*
X348984Y37516D01*
X347968D01*
X348984Y36500D01*
X347968Y35484D01*
X348984D01*
X350000Y34468D01*
X335000Y124468D02*
X336016Y125484D01*
X337032D01*
X336016Y126500D01*
X337032Y127516D01*
X336016D01*
X335000Y128532D01*
X333984Y127516D01*
X332968D01*
X333984Y126500D01*
X332968Y125484D01*
X333984D01*
X335000Y124468D01*
Y109468D02*
X336016Y110484D01*
X337032D01*
X336016Y111500D01*
X337032Y112516D01*
X336016D01*
X335000Y113532D01*
X333984Y112516D01*
X332968D01*
X333984Y111500D01*
X332968Y110484D01*
X333984D01*
X335000Y109468D01*
Y79468D02*
X336016Y80484D01*
X337032D01*
X336016Y81500D01*
X337032Y82516D01*
X336016D01*
X335000Y83532D01*
X333984Y82516D01*
X332968D01*
X333984Y81500D01*
X332968Y80484D01*
X333984D01*
X335000Y79468D01*
Y64468D02*
X336016Y65484D01*
X337032D01*
X336016Y66500D01*
X337032Y67516D01*
X336016D01*
X335000Y68532D01*
X333984Y67516D01*
X332968D01*
X333984Y66500D01*
X332968Y65484D01*
X333984D01*
X335000Y64468D01*
Y49468D02*
X336016Y50484D01*
X337032D01*
X336016Y51500D01*
X337032Y52516D01*
X336016D01*
X335000Y53532D01*
X333984Y52516D01*
X332968D01*
X333984Y51500D01*
X332968Y50484D01*
X333984D01*
X335000Y49468D01*
Y34468D02*
X336016Y35484D01*
X337032D01*
X336016Y36500D01*
X337032Y37516D01*
X336016D01*
X335000Y38532D01*
X333984Y37516D01*
X332968D01*
X333984Y36500D01*
X332968Y35484D01*
X333984D01*
X335000Y34468D01*
Y19468D02*
X336016Y20484D01*
X337032D01*
X336016Y21500D01*
X337032Y22516D01*
X336016D01*
X335000Y23532D01*
X333984Y22516D01*
X332968D01*
X333984Y21500D01*
X332968Y20484D01*
X333984D01*
X335000Y19468D01*
X320000Y109468D02*
X321016Y110484D01*
X322032D01*
X321016Y111500D01*
X322032Y112516D01*
X321016D01*
X320000Y113532D01*
X318984Y112516D01*
X317968D01*
X318984Y111500D01*
X317968Y110484D01*
X318984D01*
X320000Y109468D01*
Y94468D02*
X321016Y95484D01*
X322032D01*
X321016Y96500D01*
X322032Y97516D01*
X321016D01*
X320000Y98532D01*
X318984Y97516D01*
X317968D01*
X318984Y96500D01*
X317968Y95484D01*
X318984D01*
X320000Y94468D01*
Y79468D02*
X321016Y80484D01*
X322032D01*
X321016Y81500D01*
X322032Y82516D01*
X321016D01*
X320000Y83532D01*
X318984Y82516D01*
X317968D01*
X318984Y81500D01*
X317968Y80484D01*
X318984D01*
X320000Y79468D01*
Y64468D02*
X321016Y65484D01*
X322032D01*
X321016Y66500D01*
X322032Y67516D01*
X321016D01*
X320000Y68532D01*
X318984Y67516D01*
X317968D01*
X318984Y66500D01*
X317968Y65484D01*
X318984D01*
X320000Y64468D01*
Y49468D02*
X321016Y50484D01*
X322032D01*
X321016Y51500D01*
X322032Y52516D01*
X321016D01*
X320000Y53532D01*
X318984Y52516D01*
X317968D01*
X318984Y51500D01*
X317968Y50484D01*
X318984D01*
X320000Y49468D01*
Y34468D02*
X321016Y35484D01*
X322032D01*
X321016Y36500D01*
X322032Y37516D01*
X321016D01*
X320000Y38532D01*
X318984Y37516D01*
X317968D01*
X318984Y36500D01*
X317968Y35484D01*
X318984D01*
X320000Y34468D01*
Y19468D02*
X321016Y20484D01*
X322032D01*
X321016Y21500D01*
X322032Y22516D01*
X321016D01*
X320000Y23532D01*
X318984Y22516D01*
X317968D01*
X318984Y21500D01*
X317968Y20484D01*
X318984D01*
X320000Y19468D01*
X305000Y109468D02*
X306016Y110484D01*
X307032D01*
X306016Y111500D01*
X307032Y112516D01*
X306016D01*
X305000Y113532D01*
X303984Y112516D01*
X302968D01*
X303984Y111500D01*
X302968Y110484D01*
X303984D01*
X305000Y109468D01*
Y79468D02*
X306016Y80484D01*
X307032D01*
X306016Y81500D01*
X307032Y82516D01*
X306016D01*
X305000Y83532D01*
X303984Y82516D01*
X302968D01*
X303984Y81500D01*
X302968Y80484D01*
X303984D01*
X305000Y79468D01*
Y64468D02*
X306016Y65484D01*
X307032D01*
X306016Y66500D01*
X307032Y67516D01*
X306016D01*
X305000Y68532D01*
X303984Y67516D01*
X302968D01*
X303984Y66500D01*
X302968Y65484D01*
X303984D01*
X305000Y64468D01*
Y49468D02*
X306016Y50484D01*
X307032D01*
X306016Y51500D01*
X307032Y52516D01*
X306016D01*
X305000Y53532D01*
X303984Y52516D01*
X302968D01*
X303984Y51500D01*
X302968Y50484D01*
X303984D01*
X305000Y49468D01*
Y34468D02*
X306016Y35484D01*
X307032D01*
X306016Y36500D01*
X307032Y37516D01*
X306016D01*
X305000Y38532D01*
X303984Y37516D01*
X302968D01*
X303984Y36500D01*
X302968Y35484D01*
X303984D01*
X305000Y34468D01*
Y19468D02*
X306016Y20484D01*
X307032D01*
X306016Y21500D01*
X307032Y22516D01*
X306016D01*
X305000Y23532D01*
X303984Y22516D01*
X302968D01*
X303984Y21500D01*
X302968Y20484D01*
X303984D01*
X305000Y19468D01*
X290000Y109468D02*
X291016Y110484D01*
X292032D01*
X291016Y111500D01*
X292032Y112516D01*
X291016D01*
X290000Y113532D01*
X288984Y112516D01*
X287968D01*
X288984Y111500D01*
X287968Y110484D01*
X288984D01*
X290000Y109468D01*
Y79468D02*
X291016Y80484D01*
X292032D01*
X291016Y81500D01*
X292032Y82516D01*
X291016D01*
X290000Y83532D01*
X288984Y82516D01*
X287968D01*
X288984Y81500D01*
X287968Y80484D01*
X288984D01*
X290000Y79468D01*
Y64468D02*
X291016Y65484D01*
X292032D01*
X291016Y66500D01*
X292032Y67516D01*
X291016D01*
X290000Y68532D01*
X288984Y67516D01*
X287968D01*
X288984Y66500D01*
X287968Y65484D01*
X288984D01*
X290000Y64468D01*
Y19468D02*
X291016Y20484D01*
X292032D01*
X291016Y21500D01*
X292032Y22516D01*
X291016D01*
X290000Y23532D01*
X288984Y22516D01*
X287968D01*
X288984Y21500D01*
X287968Y20484D01*
X288984D01*
X290000Y19468D01*
X275000Y109468D02*
X276016Y110484D01*
X277032D01*
X276016Y111500D01*
X277032Y112516D01*
X276016D01*
X275000Y113532D01*
X273984Y112516D01*
X272968D01*
X273984Y111500D01*
X272968Y110484D01*
X273984D01*
X275000Y109468D01*
Y79468D02*
X276016Y80484D01*
X277032D01*
X276016Y81500D01*
X277032Y82516D01*
X276016D01*
X275000Y83532D01*
X273984Y82516D01*
X272968D01*
X273984Y81500D01*
X272968Y80484D01*
X273984D01*
X275000Y79468D01*
Y64468D02*
X276016Y65484D01*
X277032D01*
X276016Y66500D01*
X277032Y67516D01*
X276016D01*
X275000Y68532D01*
X273984Y67516D01*
X272968D01*
X273984Y66500D01*
X272968Y65484D01*
X273984D01*
X275000Y64468D01*
Y49468D02*
X276016Y50484D01*
X277032D01*
X276016Y51500D01*
X277032Y52516D01*
X276016D01*
X275000Y53532D01*
X273984Y52516D01*
X272968D01*
X273984Y51500D01*
X272968Y50484D01*
X273984D01*
X275000Y49468D01*
Y19468D02*
X276016Y20484D01*
X277032D01*
X276016Y21500D01*
X277032Y22516D01*
X276016D01*
X275000Y23532D01*
X273984Y22516D01*
X272968D01*
X273984Y21500D01*
X272968Y20484D01*
X273984D01*
X275000Y19468D01*
X260000Y109468D02*
X261016Y110484D01*
X262032D01*
X261016Y111500D01*
X262032Y112516D01*
X261016D01*
X260000Y113532D01*
X258984Y112516D01*
X257968D01*
X258984Y111500D01*
X257968Y110484D01*
X258984D01*
X260000Y109468D01*
Y79468D02*
X261016Y80484D01*
X262032D01*
X261016Y81500D01*
X262032Y82516D01*
X261016D01*
X260000Y83532D01*
X258984Y82516D01*
X257968D01*
X258984Y81500D01*
X257968Y80484D01*
X258984D01*
X260000Y79468D01*
Y64468D02*
X261016Y65484D01*
X262032D01*
X261016Y66500D01*
X262032Y67516D01*
X261016D01*
X260000Y68532D01*
X258984Y67516D01*
X257968D01*
X258984Y66500D01*
X257968Y65484D01*
X258984D01*
X260000Y64468D01*
Y19468D02*
X261016Y20484D01*
X262032D01*
X261016Y21500D01*
X262032Y22516D01*
X261016D01*
X260000Y23532D01*
X258984Y22516D01*
X257968D01*
X258984Y21500D01*
X257968Y20484D01*
X258984D01*
X260000Y19468D01*
X245000Y64468D02*
X246016Y65484D01*
X247032D01*
X246016Y66500D01*
X247032Y67516D01*
X246016D01*
X245000Y68532D01*
X243984Y67516D01*
X242968D01*
X243984Y66500D01*
X242968Y65484D01*
X243984D01*
X245000Y64468D01*
Y19468D02*
X246016Y20484D01*
X247032D01*
X246016Y21500D01*
X247032Y22516D01*
X246016D01*
X245000Y23532D01*
X243984Y22516D01*
X242968D01*
X243984Y21500D01*
X242968Y20484D01*
X243984D01*
X245000Y19468D01*
X230000D02*
X231016Y20484D01*
X232032D01*
X231016Y21500D01*
X232032Y22516D01*
X231016D01*
X230000Y23532D01*
X228984Y22516D01*
X227968D01*
X228984Y21500D01*
X227968Y20484D01*
X228984D01*
X230000Y19468D01*
X215000Y154468D02*
X216016Y155484D01*
X217032D01*
X216016Y156500D01*
X217032Y157516D01*
X216016D01*
X215000Y158532D01*
X213984Y157516D01*
X212968D01*
X213984Y156500D01*
X212968Y155484D01*
X213984D01*
X215000Y154468D01*
Y139468D02*
X216016Y140484D01*
X217032D01*
X216016Y141500D01*
X217032Y142516D01*
X216016D01*
X215000Y143532D01*
X213984Y142516D01*
X212968D01*
X213984Y141500D01*
X212968Y140484D01*
X213984D01*
X215000Y139468D01*
Y124468D02*
X216016Y125484D01*
X217032D01*
X216016Y126500D01*
X217032Y127516D01*
X216016D01*
X215000Y128532D01*
X213984Y127516D01*
X212968D01*
X213984Y126500D01*
X212968Y125484D01*
X213984D01*
X215000Y124468D01*
Y64468D02*
X216016Y65484D01*
X217032D01*
X216016Y66500D01*
X217032Y67516D01*
X216016D01*
X215000Y68532D01*
X213984Y67516D01*
X212968D01*
X213984Y66500D01*
X212968Y65484D01*
X213984D01*
X215000Y64468D01*
Y19468D02*
X216016Y20484D01*
X217032D01*
X216016Y21500D01*
X217032Y22516D01*
X216016D01*
X215000Y23532D01*
X213984Y22516D01*
X212968D01*
X213984Y21500D01*
X212968Y20484D01*
X213984D01*
X215000Y19468D01*
X200000Y169468D02*
X201016Y170484D01*
X202032D01*
X201016Y171500D01*
X202032Y172516D01*
X201016D01*
X200000Y173532D01*
X198984Y172516D01*
X197968D01*
X198984Y171500D01*
X197968Y170484D01*
X198984D01*
X200000Y169468D01*
Y154468D02*
X201016Y155484D01*
X202032D01*
X201016Y156500D01*
X202032Y157516D01*
X201016D01*
X200000Y158532D01*
X198984Y157516D01*
X197968D01*
X198984Y156500D01*
X197968Y155484D01*
X198984D01*
X200000Y154468D01*
Y139468D02*
X201016Y140484D01*
X202032D01*
X201016Y141500D01*
X202032Y142516D01*
X201016D01*
X200000Y143532D01*
X198984Y142516D01*
X197968D01*
X198984Y141500D01*
X197968Y140484D01*
X198984D01*
X200000Y139468D01*
Y124468D02*
X201016Y125484D01*
X202032D01*
X201016Y126500D01*
X202032Y127516D01*
X201016D01*
X200000Y128532D01*
X198984Y127516D01*
X197968D01*
X198984Y126500D01*
X197968Y125484D01*
X198984D01*
X200000Y124468D01*
Y109468D02*
X201016Y110484D01*
X202032D01*
X201016Y111500D01*
X202032Y112516D01*
X201016D01*
X200000Y113532D01*
X198984Y112516D01*
X197968D01*
X198984Y111500D01*
X197968Y110484D01*
X198984D01*
X200000Y109468D01*
Y19468D02*
X201016Y20484D01*
X202032D01*
X201016Y21500D01*
X202032Y22516D01*
X201016D01*
X200000Y23532D01*
X198984Y22516D01*
X197968D01*
X198984Y21500D01*
X197968Y20484D01*
X198984D01*
X200000Y19468D01*
X185000Y154468D02*
X186016Y155484D01*
X187032D01*
X186016Y156500D01*
X187032Y157516D01*
X186016D01*
X185000Y158532D01*
X183984Y157516D01*
X182968D01*
X183984Y156500D01*
X182968Y155484D01*
X183984D01*
X185000Y154468D01*
Y139468D02*
X186016Y140484D01*
X187032D01*
X186016Y141500D01*
X187032Y142516D01*
X186016D01*
X185000Y143532D01*
X183984Y142516D01*
X182968D01*
X183984Y141500D01*
X182968Y140484D01*
X183984D01*
X185000Y139468D01*
Y124468D02*
X186016Y125484D01*
X187032D01*
X186016Y126500D01*
X187032Y127516D01*
X186016D01*
X185000Y128532D01*
X183984Y127516D01*
X182968D01*
X183984Y126500D01*
X182968Y125484D01*
X183984D01*
X185000Y124468D01*
Y109468D02*
X186016Y110484D01*
X187032D01*
X186016Y111500D01*
X187032Y112516D01*
X186016D01*
X185000Y113532D01*
X183984Y112516D01*
X182968D01*
X183984Y111500D01*
X182968Y110484D01*
X183984D01*
X185000Y109468D01*
Y19468D02*
X186016Y20484D01*
X187032D01*
X186016Y21500D01*
X187032Y22516D01*
X186016D01*
X185000Y23532D01*
X183984Y22516D01*
X182968D01*
X183984Y21500D01*
X182968Y20484D01*
X183984D01*
X185000Y19468D01*
X170000D02*
X171016Y20484D01*
X172032D01*
X171016Y21500D01*
X172032Y22516D01*
X171016D01*
X170000Y23532D01*
X168984Y22516D01*
X167968D01*
X168984Y21500D01*
X167968Y20484D01*
X168984D01*
X170000Y19468D01*
X155000D02*
X156016Y20484D01*
X157032D01*
X156016Y21500D01*
X157032Y22516D01*
X156016D01*
X155000Y23532D01*
X153984Y22516D01*
X152968D01*
X153984Y21500D01*
X152968Y20484D01*
X153984D01*
X155000Y19468D01*
X140000Y169468D02*
X141016Y170484D01*
X142032D01*
X141016Y171500D01*
X142032Y172516D01*
X141016D01*
X140000Y173532D01*
X138984Y172516D01*
X137968D01*
X138984Y171500D01*
X137968Y170484D01*
X138984D01*
X140000Y169468D01*
Y19468D02*
X141016Y20484D01*
X142032D01*
X141016Y21500D01*
X142032Y22516D01*
X141016D01*
X140000Y23532D01*
X138984Y22516D01*
X137968D01*
X138984Y21500D01*
X137968Y20484D01*
X138984D01*
X140000Y19468D01*
X125000Y169468D02*
X126016Y170484D01*
X127032D01*
X126016Y171500D01*
X127032Y172516D01*
X126016D01*
X125000Y173532D01*
X123984Y172516D01*
X122968D01*
X123984Y171500D01*
X122968Y170484D01*
X123984D01*
X125000Y169468D01*
Y49468D02*
X126016Y50484D01*
X127032D01*
X126016Y51500D01*
X127032Y52516D01*
X126016D01*
X125000Y53532D01*
X123984Y52516D01*
X122968D01*
X123984Y51500D01*
X122968Y50484D01*
X123984D01*
X125000Y49468D01*
Y19468D02*
X126016Y20484D01*
X127032D01*
X126016Y21500D01*
X127032Y22516D01*
X126016D01*
X125000Y23532D01*
X123984Y22516D01*
X122968D01*
X123984Y21500D01*
X122968Y20484D01*
X123984D01*
X125000Y19468D01*
X110000Y169468D02*
X111016Y170484D01*
X112032D01*
X111016Y171500D01*
X112032Y172516D01*
X111016D01*
X110000Y173532D01*
X108984Y172516D01*
X107968D01*
X108984Y171500D01*
X107968Y170484D01*
X108984D01*
X110000Y169468D01*
Y154468D02*
X111016Y155484D01*
X112032D01*
X111016Y156500D01*
X112032Y157516D01*
X111016D01*
X110000Y158532D01*
X108984Y157516D01*
X107968D01*
X108984Y156500D01*
X107968Y155484D01*
X108984D01*
X110000Y154468D01*
Y139468D02*
X111016Y140484D01*
X112032D01*
X111016Y141500D01*
X112032Y142516D01*
X111016D01*
X110000Y143532D01*
X108984Y142516D01*
X107968D01*
X108984Y141500D01*
X107968Y140484D01*
X108984D01*
X110000Y139468D01*
Y124468D02*
X111016Y125484D01*
X112032D01*
X111016Y126500D01*
X112032Y127516D01*
X111016D01*
X110000Y128532D01*
X108984Y127516D01*
X107968D01*
X108984Y126500D01*
X107968Y125484D01*
X108984D01*
X110000Y124468D01*
Y109468D02*
X111016Y110484D01*
X112032D01*
X111016Y111500D01*
X112032Y112516D01*
X111016D01*
X110000Y113532D01*
X108984Y112516D01*
X107968D01*
X108984Y111500D01*
X107968Y110484D01*
X108984D01*
X110000Y109468D01*
Y79468D02*
X111016Y80484D01*
X112032D01*
X111016Y81500D01*
X112032Y82516D01*
X111016D01*
X110000Y83532D01*
X108984Y82516D01*
X107968D01*
X108984Y81500D01*
X107968Y80484D01*
X108984D01*
X110000Y79468D01*
Y64468D02*
X111016Y65484D01*
X112032D01*
X111016Y66500D01*
X112032Y67516D01*
X111016D01*
X110000Y68532D01*
X108984Y67516D01*
X107968D01*
X108984Y66500D01*
X107968Y65484D01*
X108984D01*
X110000Y64468D01*
Y19468D02*
X111016Y20484D01*
X112032D01*
X111016Y21500D01*
X112032Y22516D01*
X111016D01*
X110000Y23532D01*
X108984Y22516D01*
X107968D01*
X108984Y21500D01*
X107968Y20484D01*
X108984D01*
X110000Y19468D01*
X95000Y169468D02*
X96016Y170484D01*
X97032D01*
X96016Y171500D01*
X97032Y172516D01*
X96016D01*
X95000Y173532D01*
X93984Y172516D01*
X92968D01*
X93984Y171500D01*
X92968Y170484D01*
X93984D01*
X95000Y169468D01*
Y154468D02*
X96016Y155484D01*
X97032D01*
X96016Y156500D01*
X97032Y157516D01*
X96016D01*
X95000Y158532D01*
X93984Y157516D01*
X92968D01*
X93984Y156500D01*
X92968Y155484D01*
X93984D01*
X95000Y154468D01*
Y139468D02*
X96016Y140484D01*
X97032D01*
X96016Y141500D01*
X97032Y142516D01*
X96016D01*
X95000Y143532D01*
X93984Y142516D01*
X92968D01*
X93984Y141500D01*
X92968Y140484D01*
X93984D01*
X95000Y139468D01*
Y124468D02*
X96016Y125484D01*
X97032D01*
X96016Y126500D01*
X97032Y127516D01*
X96016D01*
X95000Y128532D01*
X93984Y127516D01*
X92968D01*
X93984Y126500D01*
X92968Y125484D01*
X93984D01*
X95000Y124468D01*
Y109468D02*
X96016Y110484D01*
X97032D01*
X96016Y111500D01*
X97032Y112516D01*
X96016D01*
X95000Y113532D01*
X93984Y112516D01*
X92968D01*
X93984Y111500D01*
X92968Y110484D01*
X93984D01*
X95000Y109468D01*
Y79468D02*
X96016Y80484D01*
X97032D01*
X96016Y81500D01*
X97032Y82516D01*
X96016D01*
X95000Y83532D01*
X93984Y82516D01*
X92968D01*
X93984Y81500D01*
X92968Y80484D01*
X93984D01*
X95000Y79468D01*
Y64468D02*
X96016Y65484D01*
X97032D01*
X96016Y66500D01*
X97032Y67516D01*
X96016D01*
X95000Y68532D01*
X93984Y67516D01*
X92968D01*
X93984Y66500D01*
X92968Y65484D01*
X93984D01*
X95000Y64468D01*
Y49468D02*
X96016Y50484D01*
X97032D01*
X96016Y51500D01*
X97032Y52516D01*
X96016D01*
X95000Y53532D01*
X93984Y52516D01*
X92968D01*
X93984Y51500D01*
X92968Y50484D01*
X93984D01*
X95000Y49468D01*
Y34468D02*
X96016Y35484D01*
X97032D01*
X96016Y36500D01*
X97032Y37516D01*
X96016D01*
X95000Y38532D01*
X93984Y37516D01*
X92968D01*
X93984Y36500D01*
X92968Y35484D01*
X93984D01*
X95000Y34468D01*
Y19468D02*
X96016Y20484D01*
X97032D01*
X96016Y21500D01*
X97032Y22516D01*
X96016D01*
X95000Y23532D01*
X93984Y22516D01*
X92968D01*
X93984Y21500D01*
X92968Y20484D01*
X93984D01*
X95000Y19468D01*
X80000Y169468D02*
X81016Y170484D01*
X82032D01*
X81016Y171500D01*
X82032Y172516D01*
X81016D01*
X80000Y173532D01*
X78984Y172516D01*
X77968D01*
X78984Y171500D01*
X77968Y170484D01*
X78984D01*
X80000Y169468D01*
Y154468D02*
X81016Y155484D01*
X82032D01*
X81016Y156500D01*
X82032Y157516D01*
X81016D01*
X80000Y158532D01*
X78984Y157516D01*
X77968D01*
X78984Y156500D01*
X77968Y155484D01*
X78984D01*
X80000Y154468D01*
Y139468D02*
X81016Y140484D01*
X82032D01*
X81016Y141500D01*
X82032Y142516D01*
X81016D01*
X80000Y143532D01*
X78984Y142516D01*
X77968D01*
X78984Y141500D01*
X77968Y140484D01*
X78984D01*
X80000Y139468D01*
Y124468D02*
X81016Y125484D01*
X82032D01*
X81016Y126500D01*
X82032Y127516D01*
X81016D01*
X80000Y128532D01*
X78984Y127516D01*
X77968D01*
X78984Y126500D01*
X77968Y125484D01*
X78984D01*
X80000Y124468D01*
Y109468D02*
X81016Y110484D01*
X82032D01*
X81016Y111500D01*
X82032Y112516D01*
X81016D01*
X80000Y113532D01*
X78984Y112516D01*
X77968D01*
X78984Y111500D01*
X77968Y110484D01*
X78984D01*
X80000Y109468D01*
Y94468D02*
X81016Y95484D01*
X82032D01*
X81016Y96500D01*
X82032Y97516D01*
X81016D01*
X80000Y98532D01*
X78984Y97516D01*
X77968D01*
X78984Y96500D01*
X77968Y95484D01*
X78984D01*
X80000Y94468D01*
Y79468D02*
X81016Y80484D01*
X82032D01*
X81016Y81500D01*
X82032Y82516D01*
X81016D01*
X80000Y83532D01*
X78984Y82516D01*
X77968D01*
X78984Y81500D01*
X77968Y80484D01*
X78984D01*
X80000Y79468D01*
Y64468D02*
X81016Y65484D01*
X82032D01*
X81016Y66500D01*
X82032Y67516D01*
X81016D01*
X80000Y68532D01*
X78984Y67516D01*
X77968D01*
X78984Y66500D01*
X77968Y65484D01*
X78984D01*
X80000Y64468D01*
Y49468D02*
X81016Y50484D01*
X82032D01*
X81016Y51500D01*
X82032Y52516D01*
X81016D01*
X80000Y53532D01*
X78984Y52516D01*
X77968D01*
X78984Y51500D01*
X77968Y50484D01*
X78984D01*
X80000Y49468D01*
Y34468D02*
X81016Y35484D01*
X82032D01*
X81016Y36500D01*
X82032Y37516D01*
X81016D01*
X80000Y38532D01*
X78984Y37516D01*
X77968D01*
X78984Y36500D01*
X77968Y35484D01*
X78984D01*
X80000Y34468D01*
Y19468D02*
X81016Y20484D01*
X82032D01*
X81016Y21500D01*
X82032Y22516D01*
X81016D01*
X80000Y23532D01*
X78984Y22516D01*
X77968D01*
X78984Y21500D01*
X77968Y20484D01*
X78984D01*
X80000Y19468D01*
X65000Y169468D02*
X66016Y170484D01*
X67032D01*
X66016Y171500D01*
X67032Y172516D01*
X66016D01*
X65000Y173532D01*
X63984Y172516D01*
X62968D01*
X63984Y171500D01*
X62968Y170484D01*
X63984D01*
X65000Y169468D01*
Y154468D02*
X66016Y155484D01*
X67032D01*
X66016Y156500D01*
X67032Y157516D01*
X66016D01*
X65000Y158532D01*
X63984Y157516D01*
X62968D01*
X63984Y156500D01*
X62968Y155484D01*
X63984D01*
X65000Y154468D01*
Y139468D02*
X66016Y140484D01*
X67032D01*
X66016Y141500D01*
X67032Y142516D01*
X66016D01*
X65000Y143532D01*
X63984Y142516D01*
X62968D01*
X63984Y141500D01*
X62968Y140484D01*
X63984D01*
X65000Y139468D01*
Y124468D02*
X66016Y125484D01*
X67032D01*
X66016Y126500D01*
X67032Y127516D01*
X66016D01*
X65000Y128532D01*
X63984Y127516D01*
X62968D01*
X63984Y126500D01*
X62968Y125484D01*
X63984D01*
X65000Y124468D01*
Y109468D02*
X66016Y110484D01*
X67032D01*
X66016Y111500D01*
X67032Y112516D01*
X66016D01*
X65000Y113532D01*
X63984Y112516D01*
X62968D01*
X63984Y111500D01*
X62968Y110484D01*
X63984D01*
X65000Y109468D01*
Y79468D02*
X66016Y80484D01*
X67032D01*
X66016Y81500D01*
X67032Y82516D01*
X66016D01*
X65000Y83532D01*
X63984Y82516D01*
X62968D01*
X63984Y81500D01*
X62968Y80484D01*
X63984D01*
X65000Y79468D01*
Y64468D02*
X66016Y65484D01*
X67032D01*
X66016Y66500D01*
X67032Y67516D01*
X66016D01*
X65000Y68532D01*
X63984Y67516D01*
X62968D01*
X63984Y66500D01*
X62968Y65484D01*
X63984D01*
X65000Y64468D01*
Y49468D02*
X66016Y50484D01*
X67032D01*
X66016Y51500D01*
X67032Y52516D01*
X66016D01*
X65000Y53532D01*
X63984Y52516D01*
X62968D01*
X63984Y51500D01*
X62968Y50484D01*
X63984D01*
X65000Y49468D01*
Y34468D02*
X66016Y35484D01*
X67032D01*
X66016Y36500D01*
X67032Y37516D01*
X66016D01*
X65000Y38532D01*
X63984Y37516D01*
X62968D01*
X63984Y36500D01*
X62968Y35484D01*
X63984D01*
X65000Y34468D01*
Y19468D02*
X66016Y20484D01*
X67032D01*
X66016Y21500D01*
X67032Y22516D01*
X66016D01*
X65000Y23532D01*
X63984Y22516D01*
X62968D01*
X63984Y21500D01*
X62968Y20484D01*
X63984D01*
X65000Y19468D01*
X50000Y169468D02*
X51016Y170484D01*
X52032D01*
X51016Y171500D01*
X52032Y172516D01*
X51016D01*
X50000Y173532D01*
X48984Y172516D01*
X47968D01*
X48984Y171500D01*
X47968Y170484D01*
X48984D01*
X50000Y169468D01*
Y154468D02*
X51016Y155484D01*
X52032D01*
X51016Y156500D01*
X52032Y157516D01*
X51016D01*
X50000Y158532D01*
X48984Y157516D01*
X47968D01*
X48984Y156500D01*
X47968Y155484D01*
X48984D01*
X50000Y154468D01*
Y139468D02*
X51016Y140484D01*
X52032D01*
X51016Y141500D01*
X52032Y142516D01*
X51016D01*
X50000Y143532D01*
X48984Y142516D01*
X47968D01*
X48984Y141500D01*
X47968Y140484D01*
X48984D01*
X50000Y139468D01*
Y124468D02*
X51016Y125484D01*
X52032D01*
X51016Y126500D01*
X52032Y127516D01*
X51016D01*
X50000Y128532D01*
X48984Y127516D01*
X47968D01*
X48984Y126500D01*
X47968Y125484D01*
X48984D01*
X50000Y124468D01*
Y109468D02*
X51016Y110484D01*
X52032D01*
X51016Y111500D01*
X52032Y112516D01*
X51016D01*
X50000Y113532D01*
X48984Y112516D01*
X47968D01*
X48984Y111500D01*
X47968Y110484D01*
X48984D01*
X50000Y109468D01*
Y94468D02*
X51016Y95484D01*
X52032D01*
X51016Y96500D01*
X52032Y97516D01*
X51016D01*
X50000Y98532D01*
X48984Y97516D01*
X47968D01*
X48984Y96500D01*
X47968Y95484D01*
X48984D01*
X50000Y94468D01*
Y79468D02*
X51016Y80484D01*
X52032D01*
X51016Y81500D01*
X52032Y82516D01*
X51016D01*
X50000Y83532D01*
X48984Y82516D01*
X47968D01*
X48984Y81500D01*
X47968Y80484D01*
X48984D01*
X50000Y79468D01*
Y64468D02*
X51016Y65484D01*
X52032D01*
X51016Y66500D01*
X52032Y67516D01*
X51016D01*
X50000Y68532D01*
X48984Y67516D01*
X47968D01*
X48984Y66500D01*
X47968Y65484D01*
X48984D01*
X50000Y64468D01*
Y49468D02*
X51016Y50484D01*
X52032D01*
X51016Y51500D01*
X52032Y52516D01*
X51016D01*
X50000Y53532D01*
X48984Y52516D01*
X47968D01*
X48984Y51500D01*
X47968Y50484D01*
X48984D01*
X50000Y49468D01*
Y34468D02*
X51016Y35484D01*
X52032D01*
X51016Y36500D01*
X52032Y37516D01*
X51016D01*
X50000Y38532D01*
X48984Y37516D01*
X47968D01*
X48984Y36500D01*
X47968Y35484D01*
X48984D01*
X50000Y34468D01*
X35000Y169468D02*
X36016Y170484D01*
X37032D01*
X36016Y171500D01*
X37032Y172516D01*
X36016D01*
X35000Y173532D01*
X33984Y172516D01*
X32968D01*
X33984Y171500D01*
X32968Y170484D01*
X33984D01*
X35000Y169468D01*
Y154468D02*
X36016Y155484D01*
X37032D01*
X36016Y156500D01*
X37032Y157516D01*
X36016D01*
X35000Y158532D01*
X33984Y157516D01*
X32968D01*
X33984Y156500D01*
X32968Y155484D01*
X33984D01*
X35000Y154468D01*
Y139468D02*
X36016Y140484D01*
X37032D01*
X36016Y141500D01*
X37032Y142516D01*
X36016D01*
X35000Y143532D01*
X33984Y142516D01*
X32968D01*
X33984Y141500D01*
X32968Y140484D01*
X33984D01*
X35000Y139468D01*
Y124468D02*
X36016Y125484D01*
X37032D01*
X36016Y126500D01*
X37032Y127516D01*
X36016D01*
X35000Y128532D01*
X33984Y127516D01*
X32968D01*
X33984Y126500D01*
X32968Y125484D01*
X33984D01*
X35000Y124468D01*
Y109468D02*
X36016Y110484D01*
X37032D01*
X36016Y111500D01*
X37032Y112516D01*
X36016D01*
X35000Y113532D01*
X33984Y112516D01*
X32968D01*
X33984Y111500D01*
X32968Y110484D01*
X33984D01*
X35000Y109468D01*
Y94468D02*
X36016Y95484D01*
X37032D01*
X36016Y96500D01*
X37032Y97516D01*
X36016D01*
X35000Y98532D01*
X33984Y97516D01*
X32968D01*
X33984Y96500D01*
X32968Y95484D01*
X33984D01*
X35000Y94468D01*
Y79468D02*
X36016Y80484D01*
X37032D01*
X36016Y81500D01*
X37032Y82516D01*
X36016D01*
X35000Y83532D01*
X33984Y82516D01*
X32968D01*
X33984Y81500D01*
X32968Y80484D01*
X33984D01*
X35000Y79468D01*
Y64468D02*
X36016Y65484D01*
X37032D01*
X36016Y66500D01*
X37032Y67516D01*
X36016D01*
X35000Y68532D01*
X33984Y67516D01*
X32968D01*
X33984Y66500D01*
X32968Y65484D01*
X33984D01*
X35000Y64468D01*
Y49468D02*
X36016Y50484D01*
X37032D01*
X36016Y51500D01*
X37032Y52516D01*
X36016D01*
X35000Y53532D01*
X33984Y52516D01*
X32968D01*
X33984Y51500D01*
X32968Y50484D01*
X33984D01*
X35000Y49468D01*
X20000Y169468D02*
X21016Y170484D01*
X22032D01*
X21016Y171500D01*
X22032Y172516D01*
X21016D01*
X20000Y173532D01*
X18984Y172516D01*
X17968D01*
X18984Y171500D01*
X17968Y170484D01*
X18984D01*
X20000Y169468D01*
Y154468D02*
X21016Y155484D01*
X22032D01*
X21016Y156500D01*
X22032Y157516D01*
X21016D01*
X20000Y158532D01*
X18984Y157516D01*
X17968D01*
X18984Y156500D01*
X17968Y155484D01*
X18984D01*
X20000Y154468D01*
Y139468D02*
X21016Y140484D01*
X22032D01*
X21016Y141500D01*
X22032Y142516D01*
X21016D01*
X20000Y143532D01*
X18984Y142516D01*
X17968D01*
X18984Y141500D01*
X17968Y140484D01*
X18984D01*
X20000Y139468D01*
Y124468D02*
X21016Y125484D01*
X22032D01*
X21016Y126500D01*
X22032Y127516D01*
X21016D01*
X20000Y128532D01*
X18984Y127516D01*
X17968D01*
X18984Y126500D01*
X17968Y125484D01*
X18984D01*
X20000Y124468D01*
Y109468D02*
X21016Y110484D01*
X22032D01*
X21016Y111500D01*
X22032Y112516D01*
X21016D01*
X20000Y113532D01*
X18984Y112516D01*
X17968D01*
X18984Y111500D01*
X17968Y110484D01*
X18984D01*
X20000Y109468D01*
Y94468D02*
X21016Y95484D01*
X22032D01*
X21016Y96500D01*
X22032Y97516D01*
X21016D01*
X20000Y98532D01*
X18984Y97516D01*
X17968D01*
X18984Y96500D01*
X17968Y95484D01*
X18984D01*
X20000Y94468D01*
Y79468D02*
X21016Y80484D01*
X22032D01*
X21016Y81500D01*
X22032Y82516D01*
X21016D01*
X20000Y83532D01*
X18984Y82516D01*
X17968D01*
X18984Y81500D01*
X17968Y80484D01*
X18984D01*
X20000Y79468D01*
Y64468D02*
X21016Y65484D01*
X22032D01*
X21016Y66500D01*
X22032Y67516D01*
X21016D01*
X20000Y68532D01*
X18984Y67516D01*
X17968D01*
X18984Y66500D01*
X17968Y65484D01*
X18984D01*
X20000Y64468D01*
Y49468D02*
X21016Y50484D01*
X22032D01*
X21016Y51500D01*
X22032Y52516D01*
X21016D01*
X20000Y53532D01*
X18984Y52516D01*
X17968D01*
X18984Y51500D01*
X17968Y50484D01*
X18984D01*
X20000Y49468D01*
X172500Y98468D02*
X173516Y99484D01*
X174532D01*
X173516Y100500D01*
X174532Y101516D01*
X173516D01*
X172500Y102532D01*
X171484Y101516D01*
X170468D01*
X171484Y100500D01*
X170468Y99484D01*
X171484D01*
X172500Y98468D01*
X389250Y86718D02*
X390266Y87734D01*
X391282D01*
X390266Y88750D01*
X391282Y89766D01*
X390266D01*
X389250Y90782D01*
X388234Y89766D01*
X387218D01*
X388234Y88750D01*
X387218Y87734D01*
X388234D01*
X389250Y86718D01*
X392500Y94468D02*
X393516Y95484D01*
X394532D01*
X393516Y96500D01*
X394532Y97516D01*
X393516D01*
X392500Y98532D01*
X391484Y97516D01*
X390468D01*
X391484Y96500D01*
X390468Y95484D01*
X391484D01*
X392500Y94468D01*
Y79468D02*
X393516Y80484D01*
X394532D01*
X393516Y81500D01*
X394532Y82516D01*
X393516D01*
X392500Y83532D01*
X391484Y82516D01*
X390468D01*
X391484Y81500D01*
X390468Y80484D01*
X391484D01*
X392500Y79468D01*
Y109468D02*
X393516Y110484D01*
X394532D01*
X393516Y111500D01*
X394532Y112516D01*
X393516D01*
X392500Y113532D01*
X391484Y112516D01*
X390468D01*
X391484Y111500D01*
X390468Y110484D01*
X391484D01*
X392500Y109468D01*
X7500Y49468D02*
X8516Y50484D01*
X9532D01*
X8516Y51500D01*
X9532Y52516D01*
X8516D01*
X7500Y53532D01*
X6484Y52516D01*
X5468D01*
X6484Y51500D01*
X5468Y50484D01*
X6484D01*
X7500Y49468D01*
Y64468D02*
X8516Y65484D01*
X9532D01*
X8516Y66500D01*
X9532Y67516D01*
X8516D01*
X7500Y68532D01*
X6484Y67516D01*
X5468D01*
X6484Y66500D01*
X5468Y65484D01*
X6484D01*
X7500Y64468D01*
Y79468D02*
X8516Y80484D01*
X9532D01*
X8516Y81500D01*
X9532Y82516D01*
X8516D01*
X7500Y83532D01*
X6484Y82516D01*
X5468D01*
X6484Y81500D01*
X5468Y80484D01*
X6484D01*
X7500Y79468D01*
Y94468D02*
X8516Y95484D01*
X9532D01*
X8516Y96500D01*
X9532Y97516D01*
X8516D01*
X7500Y98532D01*
X6484Y97516D01*
X5468D01*
X6484Y96500D01*
X5468Y95484D01*
X6484D01*
X7500Y94468D01*
Y109468D02*
X8516Y110484D01*
X9532D01*
X8516Y111500D01*
X9532Y112516D01*
X8516D01*
X7500Y113532D01*
X6484Y112516D01*
X5468D01*
X6484Y111500D01*
X5468Y110484D01*
X6484D01*
X7500Y109468D01*
Y124468D02*
X8516Y125484D01*
X9532D01*
X8516Y126500D01*
X9532Y127516D01*
X8516D01*
X7500Y128532D01*
X6484Y127516D01*
X5468D01*
X6484Y126500D01*
X5468Y125484D01*
X6484D01*
X7500Y124468D01*
Y139468D02*
X8516Y140484D01*
X9532D01*
X8516Y141500D01*
X9532Y142516D01*
X8516D01*
X7500Y143532D01*
X6484Y142516D01*
X5468D01*
X6484Y141500D01*
X5468Y140484D01*
X6484D01*
X7500Y139468D01*
Y154468D02*
X8516Y155484D01*
X9532D01*
X8516Y156500D01*
X9532Y157516D01*
X8516D01*
X7500Y158532D01*
X6484Y157516D01*
X5468D01*
X6484Y156500D01*
X5468Y155484D01*
X6484D01*
X7500Y154468D01*
Y169468D02*
X8516Y170484D01*
X9532D01*
X8516Y171500D01*
X9532Y172516D01*
X8516D01*
X7500Y173532D01*
X6484Y172516D01*
X5468D01*
X6484Y171500D01*
X5468Y170484D01*
X6484D01*
X7500Y169468D01*
X392500Y139468D02*
X393516Y140484D01*
X394532D01*
X393516Y141500D01*
X394532Y142516D01*
X393516D01*
X392500Y143532D01*
X391484Y142516D01*
X390468D01*
X391484Y141500D01*
X390468Y140484D01*
X391484D01*
X392500Y139468D01*
Y124468D02*
X393516Y125484D01*
X394532D01*
X393516Y126500D01*
X394532Y127516D01*
X393516D01*
X392500Y128532D01*
X391484Y127516D01*
X390468D01*
X391484Y126500D01*
X390468Y125484D01*
X391484D01*
X392500Y124468D01*
X212968Y109468D02*
X213984Y111500D01*
X212968Y113532D01*
X215000Y112516D01*
X217032Y113532D01*
X216016Y111500D01*
X217032Y109468D01*
X215000Y110484D01*
X212968Y109468D01*
X130968Y159468D02*
X131984Y161500D01*
X130968Y163532D01*
X133000Y162516D01*
X135032Y163532D01*
X134016Y161500D01*
X135032Y159468D01*
X133000Y160484D01*
X130968Y159468D01*
X142968Y130468D02*
X143984Y132500D01*
X142968Y134532D01*
X145000Y133516D01*
X147032Y134532D01*
X146016Y132500D01*
X147032Y130468D01*
X145000Y131484D01*
X142968Y130468D01*
X146218Y110718D02*
X147234Y112750D01*
X146218Y114782D01*
X148250Y113766D01*
X150282Y114782D01*
X149266Y112750D01*
X150282Y110718D01*
X148250Y111734D01*
X146218Y110718D01*
X132968Y97968D02*
X133984Y100000D01*
X132968Y102032D01*
X135000Y101016D01*
X137032Y102032D01*
X136016Y100000D01*
X137032Y97968D01*
X135000Y98984D01*
X132968Y97968D01*
X135468Y59468D02*
X136484Y61500D01*
X135468Y63532D01*
X137500Y62516D01*
X139532Y63532D01*
X138516Y61500D01*
X139532Y59468D01*
X137500Y60484D01*
X135468Y59468D01*
X172968Y47968D02*
X173984Y50000D01*
X172968Y52032D01*
X175000Y51016D01*
X177032Y52032D01*
X176016Y50000D01*
X177032Y47968D01*
X175000Y48984D01*
X172968Y47968D01*
X203968Y55468D02*
X204984Y57500D01*
X203968Y59532D01*
X206000Y58516D01*
X208032Y59532D01*
X207016Y57500D01*
X208032Y55468D01*
X206000Y56484D01*
X203968Y55468D01*
X222968Y47968D02*
X223984Y50000D01*
X222968Y52032D01*
X225000Y51016D01*
X227032Y52032D01*
X226016Y50000D01*
X227032Y47968D01*
X225000Y48984D01*
X222968Y47968D01*
X250468Y49468D02*
X251484Y51500D01*
X250468Y53532D01*
X252500Y52516D01*
X254532Y53532D01*
X253516Y51500D01*
X254532Y49468D01*
X252500Y50484D01*
X250468Y49468D01*
X257968Y99468D02*
X258984Y101500D01*
X257968Y103532D01*
X260000Y102516D01*
X262032Y103532D01*
X261016Y101500D01*
X262032Y99468D01*
X260000Y100484D01*
X257968Y99468D01*
X272968D02*
X273984Y101500D01*
X272968Y103532D01*
X275000Y102516D01*
X277032Y103532D01*
X276016Y101500D01*
X277032Y99468D01*
X275000Y100484D01*
X272968Y99468D01*
X362968Y152968D02*
X363984Y155000D01*
X362968Y157032D01*
X365000Y156016D01*
X367032Y157032D01*
X366016Y155000D01*
X367032Y152968D01*
X365000Y153984D01*
X362968Y152968D01*
X346468Y116718D02*
X347484Y118750D01*
X346468Y120782D01*
X348500Y119766D01*
X350532Y120782D01*
X349516Y118750D01*
X350532Y116718D01*
X348500Y117734D01*
X346468Y116718D01*
Y132468D02*
X347484Y134500D01*
X346468Y136532D01*
X348500Y135516D01*
X350532Y136532D01*
X349516Y134500D01*
X350532Y132468D01*
X348500Y133484D01*
X346468Y132468D01*
X332968Y139468D02*
X333984Y141500D01*
X332968Y143532D01*
X335000Y142516D01*
X337032Y143532D01*
X336016Y141500D01*
X337032Y139468D01*
X335000Y140484D01*
X332968Y139468D01*
X360750Y113468D02*
X361766Y114484D01*
X362782D01*
X361766Y115500D01*
X362782Y116516D01*
X361766D01*
X360750Y117532D01*
X359734Y116516D01*
X358718D01*
X359734Y115500D01*
X358718Y114484D01*
X359734D01*
X360750Y113468D01*
X305000Y169468D02*
X306016Y170484D01*
X307032D01*
X306016Y171500D01*
X307032Y172516D01*
X306016D01*
X305000Y173532D01*
X303984Y172516D01*
X302968D01*
X303984Y171500D01*
X302968Y170484D01*
X303984D01*
X305000Y169468D01*
X365000D02*
X366016Y170484D01*
X367032D01*
X366016Y171500D01*
X367032Y172516D01*
X366016D01*
X365000Y173532D01*
X363984Y172516D01*
X362968D01*
X363984Y171500D01*
X362968Y170484D01*
X363984D01*
X365000Y169468D01*
X290000D02*
X291016Y170484D01*
X292032D01*
X291016Y171500D01*
X292032Y172516D01*
X291016D01*
X290000Y173532D01*
X288984Y172516D01*
X287968D01*
X288984Y171500D01*
X287968Y170484D01*
X288984D01*
X290000Y169468D01*
X251000D02*
X252016Y170484D01*
X253032D01*
X252016Y171500D01*
X253032Y172516D01*
X252016D01*
X251000Y173532D01*
X249984Y172516D01*
X248968D01*
X249984Y171500D01*
X248968Y170484D01*
X249984D01*
X251000Y169468D01*
X350000D02*
X351016Y170484D01*
X352032D01*
X351016Y171500D01*
X352032Y172516D01*
X351016D01*
X350000Y173532D01*
X348984Y172516D01*
X347968D01*
X348984Y171500D01*
X347968Y170484D01*
X348984D01*
X350000Y169468D01*
X320000D02*
X321016Y170484D01*
X322032D01*
X321016Y171500D01*
X322032Y172516D01*
X321016D01*
X320000Y173532D01*
X318984Y172516D01*
X317968D01*
X318984Y171500D01*
X317968Y170484D01*
X318984D01*
X320000Y169468D01*
X260000D02*
X261016Y170484D01*
X262032D01*
X261016Y171500D01*
X262032Y172516D01*
X261016D01*
X260000Y173532D01*
X258984Y172516D01*
X257968D01*
X258984Y171500D01*
X257968Y170484D01*
X258984D01*
X260000Y169468D01*
X335000D02*
X336016Y170484D01*
X337032D01*
X336016Y171500D01*
X337032Y172516D01*
X336016D01*
X335000Y173532D01*
X333984Y172516D01*
X332968D01*
X333984Y171500D01*
X332968Y170484D01*
X333984D01*
X335000Y169468D01*
X275000D02*
X276016Y170484D01*
X277032D01*
X276016Y171500D01*
X277032Y172516D01*
X276016D01*
X275000Y173532D01*
X273984Y172516D01*
X272968D01*
X273984Y171500D01*
X272968Y170484D01*
X273984D01*
X275000Y169468D01*
X148750Y169218D02*
X149766Y170234D01*
X150782D01*
X149766Y171250D01*
X150782Y172266D01*
X149766D01*
X148750Y173282D01*
X147734Y172266D01*
X146718D01*
X147734Y171250D01*
X146718Y170234D01*
X147734D01*
X148750Y169218D01*
Y148468D02*
X149766Y149484D01*
X150782D01*
X149766Y150500D01*
X150782Y151516D01*
X149766D01*
X148750Y152532D01*
X147734Y151516D01*
X146718D01*
X147734Y150500D01*
X146718Y149484D01*
X147734D01*
X148750Y148468D01*
Y159468D02*
X149766Y160484D01*
X150782D01*
X149766Y161500D01*
X150782Y162516D01*
X149766D01*
X148750Y163532D01*
X147734Y162516D01*
X146718D01*
X147734Y161500D01*
X146718Y160484D01*
X147734D01*
X148750Y159468D01*
X251250Y82468D02*
X252266Y83484D01*
X253282D01*
X252266Y84500D01*
X253282Y85516D01*
X252266D01*
X251250Y86532D01*
X250234Y85516D01*
X249218D01*
X250234Y84500D01*
X249218Y83484D01*
X250234D01*
X251250Y82468D01*
X244000Y75468D02*
X245016Y76484D01*
X246032D01*
X245016Y77500D01*
X246032Y78516D01*
X245016D01*
X244000Y79532D01*
X242984Y78516D01*
X241968D01*
X242984Y77500D01*
X241968Y76484D01*
X242984D01*
X244000Y75468D01*
X233000D02*
X234016Y76484D01*
X235032D01*
X234016Y77500D01*
X235032Y78516D01*
X234016D01*
X233000Y79532D01*
X231984Y78516D01*
X230968D01*
X231984Y77500D01*
X230968Y76484D01*
X231984D01*
X233000Y75468D01*
X235750Y90468D02*
X236766Y91484D01*
X237782D01*
X236766Y92500D01*
X237782Y93516D01*
X236766D01*
X235750Y94532D01*
X234734Y93516D01*
X233718D01*
X234734Y92500D01*
X233718Y91484D01*
X234734D01*
X235750Y90468D01*
X164250D02*
X165266Y91484D01*
X166282D01*
X165266Y92500D01*
X166282Y93516D01*
X165266D01*
X164250Y94532D01*
X163234Y93516D01*
X162218D01*
X163234Y92500D01*
X162218Y91484D01*
X163234D01*
X164250Y90468D01*
X150250Y68968D02*
X151266Y69984D01*
X152282D01*
X151266Y71000D01*
X152282Y72016D01*
X151266D01*
X150250Y73032D01*
X149234Y72016D01*
X148218D01*
X149234Y71000D01*
X148218Y69984D01*
X149234D01*
X150250Y68968D01*
X148750Y82468D02*
X149766Y83484D01*
X150782D01*
X149766Y84500D01*
X150782Y85516D01*
X149766D01*
X148750Y86532D01*
X147734Y85516D01*
X146718D01*
X147734Y84500D01*
X146718Y83484D01*
X147734D01*
X148750Y82468D01*
X50000Y5468D02*
X51016Y6484D01*
X52032D01*
X51016Y7500D01*
X52032Y8516D01*
X51016D01*
X50000Y9532D01*
X48984Y8516D01*
X47968D01*
X48984Y7500D01*
X47968Y6484D01*
X48984D01*
X50000Y5468D01*
X65000D02*
X66016Y6484D01*
X67032D01*
X66016Y7500D01*
X67032Y8516D01*
X66016D01*
X65000Y9532D01*
X63984Y8516D01*
X62968D01*
X63984Y7500D01*
X62968Y6484D01*
X63984D01*
X65000Y5468D01*
X80000D02*
X81016Y6484D01*
X82032D01*
X81016Y7500D01*
X82032Y8516D01*
X81016D01*
X80000Y9532D01*
X78984Y8516D01*
X77968D01*
X78984Y7500D01*
X77968Y6484D01*
X78984D01*
X80000Y5468D01*
X95000D02*
X96016Y6484D01*
X97032D01*
X96016Y7500D01*
X97032Y8516D01*
X96016D01*
X95000Y9532D01*
X93984Y8516D01*
X92968D01*
X93984Y7500D01*
X92968Y6484D01*
X93984D01*
X95000Y5468D01*
X110000D02*
X111016Y6484D01*
X112032D01*
X111016Y7500D01*
X112032Y8516D01*
X111016D01*
X110000Y9532D01*
X108984Y8516D01*
X107968D01*
X108984Y7500D01*
X107968Y6484D01*
X108984D01*
X110000Y5468D01*
X125000D02*
X126016Y6484D01*
X127032D01*
X126016Y7500D01*
X127032Y8516D01*
X126016D01*
X125000Y9532D01*
X123984Y8516D01*
X122968D01*
X123984Y7500D01*
X122968Y6484D01*
X123984D01*
X125000Y5468D01*
X140000D02*
X141016Y6484D01*
X142032D01*
X141016Y7500D01*
X142032Y8516D01*
X141016D01*
X140000Y9532D01*
X138984Y8516D01*
X137968D01*
X138984Y7500D01*
X137968Y6484D01*
X138984D01*
X140000Y5468D01*
X155000D02*
X156016Y6484D01*
X157032D01*
X156016Y7500D01*
X157032Y8516D01*
X156016D01*
X155000Y9532D01*
X153984Y8516D01*
X152968D01*
X153984Y7500D01*
X152968Y6484D01*
X153984D01*
X155000Y5468D01*
X170000D02*
X171016Y6484D01*
X172032D01*
X171016Y7500D01*
X172032Y8516D01*
X171016D01*
X170000Y9532D01*
X168984Y8516D01*
X167968D01*
X168984Y7500D01*
X167968Y6484D01*
X168984D01*
X170000Y5468D01*
X230000D02*
X231016Y6484D01*
X232032D01*
X231016Y7500D01*
X232032Y8516D01*
X231016D01*
X230000Y9532D01*
X228984Y8516D01*
X227968D01*
X228984Y7500D01*
X227968Y6484D01*
X228984D01*
X230000Y5468D01*
X245000D02*
X246016Y6484D01*
X247032D01*
X246016Y7500D01*
X247032Y8516D01*
X246016D01*
X245000Y9532D01*
X243984Y8516D01*
X242968D01*
X243984Y7500D01*
X242968Y6484D01*
X243984D01*
X245000Y5468D01*
X260000D02*
X261016Y6484D01*
X262032D01*
X261016Y7500D01*
X262032Y8516D01*
X261016D01*
X260000Y9532D01*
X258984Y8516D01*
X257968D01*
X258984Y7500D01*
X257968Y6484D01*
X258984D01*
X260000Y5468D01*
X275000D02*
X276016Y6484D01*
X277032D01*
X276016Y7500D01*
X277032Y8516D01*
X276016D01*
X275000Y9532D01*
X273984Y8516D01*
X272968D01*
X273984Y7500D01*
X272968Y6484D01*
X273984D01*
X275000Y5468D01*
X290000D02*
X291016Y6484D01*
X292032D01*
X291016Y7500D01*
X292032Y8516D01*
X291016D01*
X290000Y9532D01*
X288984Y8516D01*
X287968D01*
X288984Y7500D01*
X287968Y6484D01*
X288984D01*
X290000Y5468D01*
X305000D02*
X306016Y6484D01*
X307032D01*
X306016Y7500D01*
X307032Y8516D01*
X306016D01*
X305000Y9532D01*
X303984Y8516D01*
X302968D01*
X303984Y7500D01*
X302968Y6484D01*
X303984D01*
X305000Y5468D01*
X320000D02*
X321016Y6484D01*
X322032D01*
X321016Y7500D01*
X322032Y8516D01*
X321016D01*
X320000Y9532D01*
X318984Y8516D01*
X317968D01*
X318984Y7500D01*
X317968Y6484D01*
X318984D01*
X320000Y5468D01*
X335000D02*
X336016Y6484D01*
X337032D01*
X336016Y7500D01*
X337032Y8516D01*
X336016D01*
X335000Y9532D01*
X333984Y8516D01*
X332968D01*
X333984Y7500D01*
X332968Y6484D01*
X333984D01*
X335000Y5468D01*
X350000D02*
X351016Y6484D01*
X352032D01*
X351016Y7500D01*
X352032Y8516D01*
X351016D01*
X350000Y9532D01*
X348984Y8516D01*
X347968D01*
X348984Y7500D01*
X347968Y6484D01*
X348984D01*
X350000Y5468D01*
X392500Y49468D02*
X393516Y50484D01*
X394532D01*
X393516Y51500D01*
X394532Y52516D01*
X393516D01*
X392500Y53532D01*
X391484Y52516D01*
X390468D01*
X391484Y51500D01*
X390468Y50484D01*
X391484D01*
X392500Y49468D01*
Y154468D02*
X393516Y155484D01*
X394532D01*
X393516Y156500D01*
X394532Y157516D01*
X393516D01*
X392500Y158532D01*
X391484Y157516D01*
X390468D01*
X391484Y156500D01*
X390468Y155484D01*
X391484D01*
X392500Y154468D01*
Y169468D02*
X393516Y170484D01*
X394532D01*
X393516Y171500D01*
X394532Y172516D01*
X393516D01*
X392500Y173532D01*
X391484Y172516D01*
X390468D01*
X391484Y171500D01*
X390468Y170484D01*
X391484D01*
X392500Y169468D01*
X360000Y145218D02*
X361016Y146234D01*
X362032D01*
X361016Y147250D01*
X362032Y148266D01*
X361016D01*
X360000Y149282D01*
X358984Y148266D01*
X357968D01*
X358984Y147250D01*
X357968Y146234D01*
X358984D01*
X360000Y145218D01*
X121750Y98968D02*
X122766Y99984D01*
X123782D01*
X122766Y101000D01*
X123782Y102016D01*
X122766D01*
X121750Y103032D01*
X120734Y102016D01*
X119718D01*
X120734Y101000D01*
X119718Y99984D01*
X120734D01*
X121750Y98968D01*
X222250D02*
X223266Y99984D01*
X224282D01*
X223266Y101000D01*
X224282Y102016D01*
X223266D01*
X222250Y103032D01*
X221234Y102016D01*
X220218D01*
X221234Y101000D01*
X220218Y99984D01*
X221234D01*
X222250Y98968D01*
X171750Y164968D02*
X172766Y165984D01*
X173782D01*
X172766Y167000D01*
X173782Y168016D01*
X172766D01*
X171750Y169032D01*
X170734Y168016D01*
X169718D01*
X170734Y167000D01*
X169718Y165984D01*
X170734D01*
X171750Y164968D01*
X223250Y169468D02*
X224266Y170484D01*
X225282D01*
X224266Y171500D01*
X225282Y172516D01*
X224266D01*
X223250Y173532D01*
X222234Y172516D01*
X221218D01*
X222234Y171500D01*
X221218Y170484D01*
X222234D01*
X223250Y169468D01*
X209750D02*
X210766Y170484D01*
X211782D01*
X210766Y171500D01*
X211782Y172516D01*
X210766D01*
X209750Y173532D01*
X208734Y172516D01*
X207718D01*
X208734Y171500D01*
X207718Y170484D01*
X208734D01*
X209750Y169468D01*
X190250D02*
X191266Y170484D01*
X192282D01*
X191266Y171500D01*
X192282Y172516D01*
X191266D01*
X190250Y173532D01*
X189234Y172516D01*
X188218D01*
X189234Y171500D01*
X188218Y170484D01*
X189234D01*
X190250Y169468D01*
X176750D02*
X177766Y170484D01*
X178782D01*
X177766Y171500D01*
X178782Y172516D01*
X177766D01*
X176750Y173532D01*
X175734Y172516D01*
X174718D01*
X175734Y171500D01*
X174718Y170484D01*
X175734D01*
X176750Y169468D01*
X225000Y159968D02*
X226016Y160984D01*
X227032D01*
X226016Y162000D01*
X227032Y163016D01*
X226016D01*
X225000Y164032D01*
X223984Y163016D01*
X222968D01*
X223984Y162000D01*
X222968Y160984D01*
X223984D01*
X225000Y159968D01*
X171750Y153968D02*
X172766Y154984D01*
X173782D01*
X172766Y156000D01*
X173782Y157016D01*
X172766D01*
X171750Y158032D01*
X170734Y157016D01*
X169718D01*
X170734Y156000D01*
X169718Y154984D01*
X170734D01*
X171750Y153968D01*
D47*
X27032Y25000D02*
G03*
X27032Y25000I-2032J0D01*
G01*
X377032D02*
G03*
X377032Y25000I-2032J0D01*
G01*
M02*
