G04*
G04 #@! TF.GenerationSoftware,Altium Limited,Altium Designer,21.6.4 (81)*
G04*
G04 Layer_Color=128*
%FSLAX44Y44*%
%MOMM*%
G71*
G04*
G04 #@! TF.SameCoordinates,9C7C5B9B-610B-4B87-8B93-73775DEEA3A0*
G04*
G04*
G04 #@! TF.FilePolarity,Positive*
G04*
G01*
G75*
%ADD44C,0.0508*%
D44*
X359765Y64550D02*
X369715D01*
X364740Y59575D02*
Y69525D01*
X380085Y64550D02*
X390035D01*
X385060Y59575D02*
Y69525D01*
X369925Y115350D02*
X379875D01*
X374900Y110375D02*
Y120325D01*
X16000Y25000D02*
X34000D01*
X25000Y16000D02*
Y34000D01*
X105600Y41700D02*
X116600D01*
X111100Y36200D02*
Y47200D01*
X131000Y41700D02*
X142000D01*
X136500Y36200D02*
Y47200D01*
X232600Y41700D02*
X243600D01*
X238100Y36200D02*
Y47200D01*
X283400Y41700D02*
X294400D01*
X288900Y36200D02*
Y47200D01*
X258000Y41700D02*
X269000D01*
X263500Y36200D02*
Y47200D01*
X207200Y41700D02*
X218200D01*
X212700Y36200D02*
Y47200D01*
X181800Y41700D02*
X192800D01*
X187300Y36200D02*
Y47200D01*
X156400Y41700D02*
X167400D01*
X161900Y36200D02*
Y47200D01*
X366000Y25000D02*
X384000D01*
X375000Y16000D02*
Y34000D01*
X162250Y63250D02*
X165250D01*
X163750Y61750D02*
Y64750D01*
X185730Y67000D02*
X188770D01*
X187250Y65480D02*
Y68520D01*
X329750Y148000D02*
X332750D01*
X331250Y146500D02*
Y149500D01*
X313500Y137000D02*
X316500D01*
X315000Y135500D02*
Y138500D01*
X252250Y128500D02*
X255250D01*
X253750Y127000D02*
Y130000D01*
X273500Y126500D02*
X276500D01*
X275000Y125000D02*
Y128000D01*
X288500Y126500D02*
X291500D01*
X290000Y125000D02*
Y128000D01*
X303500Y126500D02*
X306500D01*
X305000Y125000D02*
Y128000D01*
X254750Y143750D02*
X257750D01*
X256250Y142250D02*
Y145250D01*
X348500Y21500D02*
X351500D01*
X350000Y20000D02*
Y23000D01*
X48500Y21500D02*
X51500D01*
X50000Y20000D02*
Y23000D01*
X378500Y171500D02*
X381500D01*
X380000Y170000D02*
Y173000D01*
X378500Y141500D02*
X381500D01*
X380000Y140000D02*
Y143000D01*
X378500Y51500D02*
X381500D01*
X380000Y50000D02*
Y53000D01*
X363500Y126500D02*
X366500D01*
X365000Y125000D02*
Y128000D01*
X363500Y51500D02*
X366500D01*
X365000Y50000D02*
Y53000D01*
X348500Y96500D02*
X351500D01*
X350000Y95000D02*
Y98000D01*
X348500Y81500D02*
X351500D01*
X350000Y80000D02*
Y83000D01*
X348500Y66500D02*
X351500D01*
X350000Y65000D02*
Y68000D01*
X348500Y51500D02*
X351500D01*
X350000Y50000D02*
Y53000D01*
X348500Y36500D02*
X351500D01*
X350000Y35000D02*
Y38000D01*
X333500Y126500D02*
X336500D01*
X335000Y125000D02*
Y128000D01*
X333500Y111500D02*
X336500D01*
X335000Y110000D02*
Y113000D01*
X333500Y81500D02*
X336500D01*
X335000Y80000D02*
Y83000D01*
X333500Y66500D02*
X336500D01*
X335000Y65000D02*
Y68000D01*
X333500Y51500D02*
X336500D01*
X335000Y50000D02*
Y53000D01*
X333500Y36500D02*
X336500D01*
X335000Y35000D02*
Y38000D01*
X333500Y21500D02*
X336500D01*
X335000Y20000D02*
Y23000D01*
X318500Y111500D02*
X321500D01*
X320000Y110000D02*
Y113000D01*
X318500Y96500D02*
X321500D01*
X320000Y95000D02*
Y98000D01*
X318500Y81500D02*
X321500D01*
X320000Y80000D02*
Y83000D01*
X318500Y66500D02*
X321500D01*
X320000Y65000D02*
Y68000D01*
X318500Y51500D02*
X321500D01*
X320000Y50000D02*
Y53000D01*
X318500Y36500D02*
X321500D01*
X320000Y35000D02*
Y38000D01*
X318500Y21500D02*
X321500D01*
X320000Y20000D02*
Y23000D01*
X303500Y111500D02*
X306500D01*
X305000Y110000D02*
Y113000D01*
X303500Y81500D02*
X306500D01*
X305000Y80000D02*
Y83000D01*
X303500Y66500D02*
X306500D01*
X305000Y65000D02*
Y68000D01*
X303500Y51500D02*
X306500D01*
X305000Y50000D02*
Y53000D01*
X303500Y36500D02*
X306500D01*
X305000Y35000D02*
Y38000D01*
X303500Y21500D02*
X306500D01*
X305000Y20000D02*
Y23000D01*
X288500Y111500D02*
X291500D01*
X290000Y110000D02*
Y113000D01*
X288500Y81500D02*
X291500D01*
X290000Y80000D02*
Y83000D01*
X288500Y66500D02*
X291500D01*
X290000Y65000D02*
Y68000D01*
X288500Y21500D02*
X291500D01*
X290000Y20000D02*
Y23000D01*
X273500Y111500D02*
X276500D01*
X275000Y110000D02*
Y113000D01*
X273500Y81500D02*
X276500D01*
X275000Y80000D02*
Y83000D01*
X273500Y66500D02*
X276500D01*
X275000Y65000D02*
Y68000D01*
X273500Y51500D02*
X276500D01*
X275000Y50000D02*
Y53000D01*
X273500Y21500D02*
X276500D01*
X275000Y20000D02*
Y23000D01*
X258500Y111500D02*
X261500D01*
X260000Y110000D02*
Y113000D01*
X258500Y81500D02*
X261500D01*
X260000Y80000D02*
Y83000D01*
X258500Y66500D02*
X261500D01*
X260000Y65000D02*
Y68000D01*
X258500Y21500D02*
X261500D01*
X260000Y20000D02*
Y23000D01*
X243500Y66500D02*
X246500D01*
X245000Y65000D02*
Y68000D01*
X243500Y21500D02*
X246500D01*
X245000Y20000D02*
Y23000D01*
X228500Y21500D02*
X231500D01*
X230000Y20000D02*
Y23000D01*
X213500Y156500D02*
X216500D01*
X215000Y155000D02*
Y158000D01*
X213500Y141500D02*
X216500D01*
X215000Y140000D02*
Y143000D01*
X213500Y126500D02*
X216500D01*
X215000Y125000D02*
Y128000D01*
X213500Y66500D02*
X216500D01*
X215000Y65000D02*
Y68000D01*
X213500Y21500D02*
X216500D01*
X215000Y20000D02*
Y23000D01*
X198500Y171500D02*
X201500D01*
X200000Y170000D02*
Y173000D01*
X198500Y156500D02*
X201500D01*
X200000Y155000D02*
Y158000D01*
X198500Y141500D02*
X201500D01*
X200000Y140000D02*
Y143000D01*
X198500Y126500D02*
X201500D01*
X200000Y125000D02*
Y128000D01*
X198500Y111500D02*
X201500D01*
X200000Y110000D02*
Y113000D01*
X198500Y21500D02*
X201500D01*
X200000Y20000D02*
Y23000D01*
X183500Y156500D02*
X186500D01*
X185000Y155000D02*
Y158000D01*
X183500Y141500D02*
X186500D01*
X185000Y140000D02*
Y143000D01*
X183500Y126500D02*
X186500D01*
X185000Y125000D02*
Y128000D01*
X183500Y111500D02*
X186500D01*
X185000Y110000D02*
Y113000D01*
X183500Y21500D02*
X186500D01*
X185000Y20000D02*
Y23000D01*
X168500Y21500D02*
X171500D01*
X170000Y20000D02*
Y23000D01*
X153500Y21500D02*
X156500D01*
X155000Y20000D02*
Y23000D01*
X138500Y171500D02*
X141500D01*
X140000Y170000D02*
Y173000D01*
X138500Y21500D02*
X141500D01*
X140000Y20000D02*
Y23000D01*
X123500Y171500D02*
X126500D01*
X125000Y170000D02*
Y173000D01*
X123500Y51500D02*
X126500D01*
X125000Y50000D02*
Y53000D01*
X123500Y21500D02*
X126500D01*
X125000Y20000D02*
Y23000D01*
X108500Y171500D02*
X111500D01*
X110000Y170000D02*
Y173000D01*
X108500Y156500D02*
X111500D01*
X110000Y155000D02*
Y158000D01*
X108500Y141500D02*
X111500D01*
X110000Y140000D02*
Y143000D01*
X108500Y126500D02*
X111500D01*
X110000Y125000D02*
Y128000D01*
X108500Y111500D02*
X111500D01*
X110000Y110000D02*
Y113000D01*
X108500Y81500D02*
X111500D01*
X110000Y80000D02*
Y83000D01*
X108500Y66500D02*
X111500D01*
X110000Y65000D02*
Y68000D01*
X108500Y21500D02*
X111500D01*
X110000Y20000D02*
Y23000D01*
X93500Y171500D02*
X96500D01*
X95000Y170000D02*
Y173000D01*
X93500Y156500D02*
X96500D01*
X95000Y155000D02*
Y158000D01*
X93500Y141500D02*
X96500D01*
X95000Y140000D02*
Y143000D01*
X93500Y126500D02*
X96500D01*
X95000Y125000D02*
Y128000D01*
X93500Y111500D02*
X96500D01*
X95000Y110000D02*
Y113000D01*
X93500Y81500D02*
X96500D01*
X95000Y80000D02*
Y83000D01*
X93500Y66500D02*
X96500D01*
X95000Y65000D02*
Y68000D01*
X93500Y51500D02*
X96500D01*
X95000Y50000D02*
Y53000D01*
X93500Y36500D02*
X96500D01*
X95000Y35000D02*
Y38000D01*
X93500Y21500D02*
X96500D01*
X95000Y20000D02*
Y23000D01*
X78500Y171500D02*
X81500D01*
X80000Y170000D02*
Y173000D01*
X78500Y156500D02*
X81500D01*
X80000Y155000D02*
Y158000D01*
X78500Y141500D02*
X81500D01*
X80000Y140000D02*
Y143000D01*
X78500Y126500D02*
X81500D01*
X80000Y125000D02*
Y128000D01*
X78500Y111500D02*
X81500D01*
X80000Y110000D02*
Y113000D01*
X78500Y96500D02*
X81500D01*
X80000Y95000D02*
Y98000D01*
X78500Y81500D02*
X81500D01*
X80000Y80000D02*
Y83000D01*
X78500Y66500D02*
X81500D01*
X80000Y65000D02*
Y68000D01*
X78500Y51500D02*
X81500D01*
X80000Y50000D02*
Y53000D01*
X78500Y36500D02*
X81500D01*
X80000Y35000D02*
Y38000D01*
X78500Y21500D02*
X81500D01*
X80000Y20000D02*
Y23000D01*
X63500Y171500D02*
X66500D01*
X65000Y170000D02*
Y173000D01*
X63500Y156500D02*
X66500D01*
X65000Y155000D02*
Y158000D01*
X63500Y141500D02*
X66500D01*
X65000Y140000D02*
Y143000D01*
X63500Y126500D02*
X66500D01*
X65000Y125000D02*
Y128000D01*
X63500Y111500D02*
X66500D01*
X65000Y110000D02*
Y113000D01*
X63500Y81500D02*
X66500D01*
X65000Y80000D02*
Y83000D01*
X63500Y66500D02*
X66500D01*
X65000Y65000D02*
Y68000D01*
X63500Y51500D02*
X66500D01*
X65000Y50000D02*
Y53000D01*
X63500Y36500D02*
X66500D01*
X65000Y35000D02*
Y38000D01*
X63500Y21500D02*
X66500D01*
X65000Y20000D02*
Y23000D01*
X48500Y171500D02*
X51500D01*
X50000Y170000D02*
Y173000D01*
X48500Y156500D02*
X51500D01*
X50000Y155000D02*
Y158000D01*
X48500Y141500D02*
X51500D01*
X50000Y140000D02*
Y143000D01*
X48500Y126500D02*
X51500D01*
X50000Y125000D02*
Y128000D01*
X48500Y111500D02*
X51500D01*
X50000Y110000D02*
Y113000D01*
X48500Y96500D02*
X51500D01*
X50000Y95000D02*
Y98000D01*
X48500Y81500D02*
X51500D01*
X50000Y80000D02*
Y83000D01*
X48500Y66500D02*
X51500D01*
X50000Y65000D02*
Y68000D01*
X48500Y51500D02*
X51500D01*
X50000Y50000D02*
Y53000D01*
X48500Y36500D02*
X51500D01*
X50000Y35000D02*
Y38000D01*
X33500Y171500D02*
X36500D01*
X35000Y170000D02*
Y173000D01*
X33500Y156500D02*
X36500D01*
X35000Y155000D02*
Y158000D01*
X33500Y141500D02*
X36500D01*
X35000Y140000D02*
Y143000D01*
X33500Y126500D02*
X36500D01*
X35000Y125000D02*
Y128000D01*
X33500Y111500D02*
X36500D01*
X35000Y110000D02*
Y113000D01*
X33500Y96500D02*
X36500D01*
X35000Y95000D02*
Y98000D01*
X33500Y81500D02*
X36500D01*
X35000Y80000D02*
Y83000D01*
X33500Y66500D02*
X36500D01*
X35000Y65000D02*
Y68000D01*
X33500Y51500D02*
X36500D01*
X35000Y50000D02*
Y53000D01*
X18500Y171500D02*
X21500D01*
X20000Y170000D02*
Y173000D01*
X18500Y156500D02*
X21500D01*
X20000Y155000D02*
Y158000D01*
X18500Y141500D02*
X21500D01*
X20000Y140000D02*
Y143000D01*
X18500Y126500D02*
X21500D01*
X20000Y125000D02*
Y128000D01*
X18500Y111500D02*
X21500D01*
X20000Y110000D02*
Y113000D01*
X18500Y96500D02*
X21500D01*
X20000Y95000D02*
Y98000D01*
X18500Y81500D02*
X21500D01*
X20000Y80000D02*
Y83000D01*
X18500Y66500D02*
X21500D01*
X20000Y65000D02*
Y68000D01*
X18500Y51500D02*
X21500D01*
X20000Y50000D02*
Y53000D01*
X171000Y100500D02*
X174000D01*
X172500Y99000D02*
Y102000D01*
X387750Y88750D02*
X390750D01*
X389250Y87250D02*
Y90250D01*
X391000Y96500D02*
X394000D01*
X392500Y95000D02*
Y98000D01*
X391000Y81500D02*
X394000D01*
X392500Y80000D02*
Y83000D01*
X391000Y111500D02*
X394000D01*
X392500Y110000D02*
Y113000D01*
X6000Y51500D02*
X9000D01*
X7500Y50000D02*
Y53000D01*
X6000Y66500D02*
X9000D01*
X7500Y65000D02*
Y68000D01*
X6000Y81500D02*
X9000D01*
X7500Y80000D02*
Y83000D01*
X6000Y96500D02*
X9000D01*
X7500Y95000D02*
Y98000D01*
X6000Y111500D02*
X9000D01*
X7500Y110000D02*
Y113000D01*
X6000Y126500D02*
X9000D01*
X7500Y125000D02*
Y128000D01*
X6000Y141500D02*
X9000D01*
X7500Y140000D02*
Y143000D01*
X6000Y156500D02*
X9000D01*
X7500Y155000D02*
Y158000D01*
X6000Y171500D02*
X9000D01*
X7500Y170000D02*
Y173000D01*
X391000Y141500D02*
X394000D01*
X392500Y140000D02*
Y143000D01*
X391000Y126500D02*
X394000D01*
X392500Y125000D02*
Y128000D01*
X213480Y111500D02*
X216520D01*
X215000Y109980D02*
Y113020D01*
X131480Y161500D02*
X134520D01*
X133000Y159980D02*
Y163020D01*
X143480Y132500D02*
X146520D01*
X145000Y130980D02*
Y134020D01*
X146730Y112750D02*
X149770D01*
X148250Y111230D02*
Y114270D01*
X133480Y100000D02*
X136520D01*
X135000Y98480D02*
Y101520D01*
X135980Y61500D02*
X139020D01*
X137500Y59980D02*
Y63020D01*
X173480Y50000D02*
X176520D01*
X175000Y48480D02*
Y51520D01*
X204480Y57500D02*
X207520D01*
X206000Y55980D02*
Y59020D01*
X223480Y50000D02*
X226520D01*
X225000Y48480D02*
Y51520D01*
X250980Y51500D02*
X254020D01*
X252500Y49980D02*
Y53020D01*
X258480Y101500D02*
X261520D01*
X260000Y99980D02*
Y103020D01*
X273480Y101500D02*
X276520D01*
X275000Y99980D02*
Y103020D01*
X363480Y155000D02*
X366520D01*
X365000Y153480D02*
Y156520D01*
X346980Y118750D02*
X350020D01*
X348500Y117230D02*
Y120270D01*
X346980Y134500D02*
X350020D01*
X348500Y132980D02*
Y136020D01*
X333480Y141500D02*
X336520D01*
X335000Y139980D02*
Y143020D01*
X359250Y115500D02*
X362250D01*
X360750Y114000D02*
Y117000D01*
X303500Y171500D02*
X306500D01*
X305000Y170000D02*
Y173000D01*
X363500Y171500D02*
X366500D01*
X365000Y170000D02*
Y173000D01*
X288500Y171500D02*
X291500D01*
X290000Y170000D02*
Y173000D01*
X249500Y171500D02*
X252500D01*
X251000Y170000D02*
Y173000D01*
X348500Y171500D02*
X351500D01*
X350000Y170000D02*
Y173000D01*
X318500Y171500D02*
X321500D01*
X320000Y170000D02*
Y173000D01*
X258500Y171500D02*
X261500D01*
X260000Y170000D02*
Y173000D01*
X333500Y171500D02*
X336500D01*
X335000Y170000D02*
Y173000D01*
X273500Y171500D02*
X276500D01*
X275000Y170000D02*
Y173000D01*
X147250Y171250D02*
X150250D01*
X148750Y169750D02*
Y172750D01*
X147250Y150500D02*
X150250D01*
X148750Y149000D02*
Y152000D01*
X147250Y161500D02*
X150250D01*
X148750Y160000D02*
Y163000D01*
X249750Y84500D02*
X252750D01*
X251250Y83000D02*
Y86000D01*
X242500Y77500D02*
X245500D01*
X244000Y76000D02*
Y79000D01*
X231500Y77500D02*
X234500D01*
X233000Y76000D02*
Y79000D01*
X234250Y92500D02*
X237250D01*
X235750Y91000D02*
Y94000D01*
X162750Y92500D02*
X165750D01*
X164250Y91000D02*
Y94000D01*
X148750Y71000D02*
X151750D01*
X150250Y69500D02*
Y72500D01*
X147250Y84500D02*
X150250D01*
X148750Y83000D02*
Y86000D01*
X48500Y7500D02*
X51500D01*
X50000Y6000D02*
Y9000D01*
X63500Y7500D02*
X66500D01*
X65000Y6000D02*
Y9000D01*
X78500Y7500D02*
X81500D01*
X80000Y6000D02*
Y9000D01*
X93500Y7500D02*
X96500D01*
X95000Y6000D02*
Y9000D01*
X108500Y7500D02*
X111500D01*
X110000Y6000D02*
Y9000D01*
X123500Y7500D02*
X126500D01*
X125000Y6000D02*
Y9000D01*
X138500Y7500D02*
X141500D01*
X140000Y6000D02*
Y9000D01*
X153500Y7500D02*
X156500D01*
X155000Y6000D02*
Y9000D01*
X168500Y7500D02*
X171500D01*
X170000Y6000D02*
Y9000D01*
X228500Y7500D02*
X231500D01*
X230000Y6000D02*
Y9000D01*
X243500Y7500D02*
X246500D01*
X245000Y6000D02*
Y9000D01*
X258500Y7500D02*
X261500D01*
X260000Y6000D02*
Y9000D01*
X273500Y7500D02*
X276500D01*
X275000Y6000D02*
Y9000D01*
X288500Y7500D02*
X291500D01*
X290000Y6000D02*
Y9000D01*
X303500Y7500D02*
X306500D01*
X305000Y6000D02*
Y9000D01*
X318500Y7500D02*
X321500D01*
X320000Y6000D02*
Y9000D01*
X333500Y7500D02*
X336500D01*
X335000Y6000D02*
Y9000D01*
X348500Y7500D02*
X351500D01*
X350000Y6000D02*
Y9000D01*
X391000Y51500D02*
X394000D01*
X392500Y50000D02*
Y53000D01*
X391000Y156500D02*
X394000D01*
X392500Y155000D02*
Y158000D01*
X391000Y171500D02*
X394000D01*
X392500Y170000D02*
Y173000D01*
X358500Y147250D02*
X361500D01*
X360000Y145750D02*
Y148750D01*
X120250Y101000D02*
X123250D01*
X121750Y99500D02*
Y102500D01*
X220750Y101000D02*
X223750D01*
X222250Y99500D02*
Y102500D01*
X170250Y167000D02*
X173250D01*
X171750Y165500D02*
Y168500D01*
X221750Y171500D02*
X224750D01*
X223250Y170000D02*
Y173000D01*
X208250Y171500D02*
X211250D01*
X209750Y170000D02*
Y173000D01*
X188750Y171500D02*
X191750D01*
X190250Y170000D02*
Y173000D01*
X175250Y171500D02*
X178250D01*
X176750Y170000D02*
Y173000D01*
X223500Y162000D02*
X226500D01*
X225000Y160500D02*
Y163500D01*
X170250Y156000D02*
X173250D01*
X171750Y154500D02*
Y157500D01*
M02*
