G04*
G04 #@! TF.GenerationSoftware,Altium Limited,Altium Designer,21.6.4 (81)*
G04*
G04 Layer_Physical_Order=2*
G04 Layer_Color=36540*
%FSLAX44Y44*%
%MOMM*%
G71*
G04*
G04 #@! TF.SameCoordinates,9C7C5B9B-610B-4B87-8B93-73775DEEA3A0*
G04*
G04*
G04 #@! TF.FilePolarity,Positive*
G04*
G01*
G75*
%ADD37C,0.9000*%
%ADD39C,1.6500*%
%ADD40R,1.6500X1.6500*%
%ADD41C,0.6000*%
%ADD42C,2.1590*%
G36*
X395922Y4078D02*
X4078Y4078D01*
X4078Y175000D01*
X395922D01*
X395922Y4078D01*
D02*
G37*
%LPC*%
G36*
X331250Y152354D02*
X329584Y152022D01*
X328172Y151079D01*
X327228Y149666D01*
X326896Y148000D01*
X327228Y146334D01*
X328172Y144922D01*
X329584Y143978D01*
X331250Y143646D01*
X332916Y143978D01*
X334328Y144922D01*
X335272Y146334D01*
X335604Y148000D01*
X335272Y149666D01*
X334328Y151079D01*
X332916Y152022D01*
X331250Y152354D01*
D02*
G37*
G36*
X360000Y151604D02*
X358334Y151272D01*
X356922Y150329D01*
X355978Y148916D01*
X355646Y147250D01*
X355978Y145584D01*
X356922Y144171D01*
X358334Y143228D01*
X360000Y142896D01*
X361666Y143228D01*
X363078Y144171D01*
X364022Y145584D01*
X364354Y147250D01*
X364022Y148916D01*
X363078Y150329D01*
X361666Y151272D01*
X360000Y151604D01*
D02*
G37*
G36*
X315000Y141354D02*
X313334Y141022D01*
X311922Y140078D01*
X310978Y138666D01*
X310646Y137000D01*
X310978Y135334D01*
X311922Y133921D01*
X313334Y132978D01*
X315000Y132646D01*
X316666Y132978D01*
X318078Y133921D01*
X319022Y135334D01*
X319354Y137000D01*
X319022Y138666D01*
X318078Y140078D01*
X316666Y141022D01*
X315000Y141354D01*
D02*
G37*
G36*
X253750Y132854D02*
X252084Y132522D01*
X250672Y131579D01*
X249728Y130166D01*
X249396Y128500D01*
X249728Y126834D01*
X250672Y125421D01*
X252084Y124478D01*
X253750Y124146D01*
X255416Y124478D01*
X256828Y125421D01*
X257772Y126834D01*
X258104Y128500D01*
X257772Y130166D01*
X256828Y131579D01*
X255416Y132522D01*
X253750Y132854D01*
D02*
G37*
G36*
X360750Y119854D02*
X359084Y119522D01*
X357672Y118579D01*
X356728Y117166D01*
X356396Y115500D01*
X356728Y113834D01*
X357672Y112422D01*
X359084Y111478D01*
X360750Y111146D01*
X362416Y111478D01*
X363829Y112422D01*
X364772Y113834D01*
X365104Y115500D01*
X364772Y117166D01*
X363829Y118579D01*
X362416Y119522D01*
X360750Y119854D01*
D02*
G37*
G36*
X374900Y121717D02*
X372463Y121233D01*
X370398Y119852D01*
X369017Y117787D01*
X368533Y115350D01*
X369017Y112913D01*
X370398Y110848D01*
X372463Y109467D01*
X374900Y108983D01*
X377337Y109467D01*
X379402Y110848D01*
X380783Y112913D01*
X381267Y115350D01*
X380783Y117787D01*
X379402Y119852D01*
X377337Y121233D01*
X374900Y121717D01*
D02*
G37*
G36*
X222250Y105354D02*
X220584Y105022D01*
X219172Y104079D01*
X218228Y102666D01*
X217896Y101000D01*
X218228Y99334D01*
X219172Y97921D01*
X220584Y96978D01*
X222250Y96646D01*
X223916Y96978D01*
X225329Y97921D01*
X226272Y99334D01*
X226604Y101000D01*
X226272Y102666D01*
X225329Y104079D01*
X223916Y105022D01*
X222250Y105354D01*
D02*
G37*
G36*
X121750D02*
X120084Y105022D01*
X118672Y104079D01*
X117728Y102666D01*
X117396Y101000D01*
X117728Y99334D01*
X118672Y97921D01*
X120084Y96978D01*
X121750Y96646D01*
X123416Y96978D01*
X124829Y97921D01*
X125772Y99334D01*
X126104Y101000D01*
X125772Y102666D01*
X124829Y104079D01*
X123416Y105022D01*
X121750Y105354D01*
D02*
G37*
G36*
X389250Y93104D02*
X387584Y92772D01*
X386171Y91828D01*
X385228Y90416D01*
X384896Y88750D01*
X385228Y87084D01*
X386171Y85672D01*
X387584Y84728D01*
X389250Y84396D01*
X390916Y84728D01*
X392328Y85672D01*
X393272Y87084D01*
X393604Y88750D01*
X393272Y90416D01*
X392328Y91828D01*
X390916Y92772D01*
X389250Y93104D01*
D02*
G37*
G36*
X163750Y67604D02*
X162084Y67272D01*
X160672Y66329D01*
X159728Y64916D01*
X159396Y63250D01*
X159728Y61584D01*
X160672Y60171D01*
X162084Y59228D01*
X163750Y58896D01*
X165416Y59228D01*
X166828Y60171D01*
X167772Y61584D01*
X168104Y63250D01*
X167772Y64916D01*
X166828Y66329D01*
X165416Y67272D01*
X163750Y67604D01*
D02*
G37*
G36*
X385060Y70917D02*
X382623Y70433D01*
X380558Y69052D01*
X379177Y66987D01*
X378693Y64550D01*
X379177Y62113D01*
X380558Y60048D01*
X382623Y58667D01*
X385060Y58183D01*
X387497Y58667D01*
X389562Y60048D01*
X390943Y62113D01*
X391427Y64550D01*
X390943Y66987D01*
X389562Y69052D01*
X387497Y70433D01*
X385060Y70917D01*
D02*
G37*
G36*
X364740D02*
X362303Y70433D01*
X360238Y69052D01*
X358857Y66987D01*
X358373Y64550D01*
X358857Y62113D01*
X360238Y60048D01*
X362303Y58667D01*
X364740Y58183D01*
X367177Y58667D01*
X369242Y60048D01*
X370623Y62113D01*
X371107Y64550D01*
X370623Y66987D01*
X369242Y69052D01*
X367177Y70433D01*
X364740Y70917D01*
D02*
G37*
G36*
X111862Y51202D02*
Y42462D01*
X120602D01*
X120375Y44185D01*
X119416Y46501D01*
X117890Y48490D01*
X115901Y50016D01*
X113585Y50975D01*
X111862Y51202D01*
D02*
G37*
G36*
X110338D02*
X108615Y50975D01*
X106299Y50016D01*
X104310Y48490D01*
X102784Y46501D01*
X101825Y44185D01*
X101598Y42462D01*
X110338D01*
Y51202D01*
D02*
G37*
G36*
X120602Y40938D02*
X111862D01*
Y32198D01*
X113585Y32425D01*
X115901Y33384D01*
X117890Y34910D01*
X119416Y36899D01*
X120375Y39215D01*
X120602Y40938D01*
D02*
G37*
G36*
X110338D02*
X101598D01*
X101825Y39215D01*
X102784Y36899D01*
X104310Y34910D01*
X106299Y33384D01*
X108615Y32425D01*
X110338Y32198D01*
Y40938D01*
D02*
G37*
G36*
X298420Y51220D02*
X279380D01*
Y32180D01*
X298420D01*
Y51220D01*
D02*
G37*
G36*
X263500Y51302D02*
X261015Y50975D01*
X258699Y50016D01*
X256710Y48490D01*
X255184Y46501D01*
X254225Y44185D01*
X253898Y41700D01*
X254225Y39215D01*
X255184Y36899D01*
X256710Y34910D01*
X258699Y33384D01*
X261015Y32425D01*
X263500Y32098D01*
X265985Y32425D01*
X268301Y33384D01*
X270290Y34910D01*
X271816Y36899D01*
X272775Y39215D01*
X273102Y41700D01*
X272775Y44185D01*
X271816Y46501D01*
X270290Y48490D01*
X268301Y50016D01*
X265985Y50975D01*
X263500Y51302D01*
D02*
G37*
G36*
X238100D02*
X235615Y50975D01*
X233299Y50016D01*
X231310Y48490D01*
X229784Y46501D01*
X228825Y44185D01*
X228498Y41700D01*
X228825Y39215D01*
X229784Y36899D01*
X231310Y34910D01*
X233299Y33384D01*
X235615Y32425D01*
X238100Y32098D01*
X240585Y32425D01*
X242901Y33384D01*
X244890Y34910D01*
X246416Y36899D01*
X247375Y39215D01*
X247702Y41700D01*
X247375Y44185D01*
X246416Y46501D01*
X244890Y48490D01*
X242901Y50016D01*
X240585Y50975D01*
X238100Y51302D01*
D02*
G37*
G36*
X212700D02*
X210215Y50975D01*
X207899Y50016D01*
X205910Y48490D01*
X204384Y46501D01*
X203425Y44185D01*
X203098Y41700D01*
X203425Y39215D01*
X204384Y36899D01*
X205910Y34910D01*
X207899Y33384D01*
X210215Y32425D01*
X212700Y32098D01*
X215185Y32425D01*
X217501Y33384D01*
X219490Y34910D01*
X221016Y36899D01*
X221975Y39215D01*
X222302Y41700D01*
X221975Y44185D01*
X221016Y46501D01*
X219490Y48490D01*
X217501Y50016D01*
X215185Y50975D01*
X212700Y51302D01*
D02*
G37*
G36*
X187300D02*
X184815Y50975D01*
X182499Y50016D01*
X180510Y48490D01*
X178984Y46501D01*
X178025Y44185D01*
X177698Y41700D01*
X178025Y39215D01*
X178984Y36899D01*
X180510Y34910D01*
X182499Y33384D01*
X184815Y32425D01*
X187300Y32098D01*
X189785Y32425D01*
X192101Y33384D01*
X194090Y34910D01*
X195616Y36899D01*
X196575Y39215D01*
X196902Y41700D01*
X196575Y44185D01*
X195616Y46501D01*
X194090Y48490D01*
X192101Y50016D01*
X189785Y50975D01*
X187300Y51302D01*
D02*
G37*
G36*
X161900D02*
X159415Y50975D01*
X157099Y50016D01*
X155110Y48490D01*
X153584Y46501D01*
X152625Y44185D01*
X152298Y41700D01*
X152625Y39215D01*
X153584Y36899D01*
X155110Y34910D01*
X157099Y33384D01*
X159415Y32425D01*
X161900Y32098D01*
X164385Y32425D01*
X166701Y33384D01*
X168690Y34910D01*
X170216Y36899D01*
X171175Y39215D01*
X171502Y41700D01*
X171175Y44185D01*
X170216Y46501D01*
X168690Y48490D01*
X166701Y50016D01*
X164385Y50975D01*
X161900Y51302D01*
D02*
G37*
G36*
X136500D02*
X134015Y50975D01*
X131699Y50016D01*
X129710Y48490D01*
X128184Y46501D01*
X127225Y44185D01*
X126898Y41700D01*
X127225Y39215D01*
X128184Y36899D01*
X129710Y34910D01*
X131699Y33384D01*
X134015Y32425D01*
X136500Y32098D01*
X138985Y32425D01*
X141301Y33384D01*
X143290Y34910D01*
X144816Y36899D01*
X145775Y39215D01*
X146102Y41700D01*
X145775Y44185D01*
X144816Y46501D01*
X143290Y48490D01*
X141301Y50016D01*
X138985Y50975D01*
X136500Y51302D01*
D02*
G37*
G36*
X375762Y37069D02*
Y25762D01*
X387069D01*
X386754Y28150D01*
X385539Y31085D01*
X383605Y33605D01*
X381085Y35539D01*
X378150Y36755D01*
X375762Y37069D01*
D02*
G37*
G36*
X374238D02*
X371850Y36755D01*
X368915Y35539D01*
X366395Y33605D01*
X364461Y31085D01*
X363246Y28150D01*
X362931Y25762D01*
X374238D01*
Y37069D01*
D02*
G37*
G36*
X25762D02*
Y25762D01*
X37069D01*
X36755Y28150D01*
X35539Y31085D01*
X33605Y33605D01*
X31084Y35539D01*
X28150Y36755D01*
X25762Y37069D01*
D02*
G37*
G36*
X24238D02*
X21850Y36755D01*
X18915Y35539D01*
X16395Y33605D01*
X14461Y31085D01*
X13246Y28150D01*
X12931Y25762D01*
X24238D01*
Y37069D01*
D02*
G37*
G36*
X387069Y24238D02*
X375762D01*
Y12931D01*
X378150Y13246D01*
X381085Y14461D01*
X383605Y16395D01*
X385539Y18915D01*
X386754Y21850D01*
X387069Y24238D01*
D02*
G37*
G36*
X374238D02*
X362931D01*
X363246Y21850D01*
X364461Y18915D01*
X366395Y16395D01*
X368915Y14461D01*
X371850Y13246D01*
X374238Y12931D01*
Y24238D01*
D02*
G37*
G36*
X37069D02*
X25762D01*
Y12931D01*
X28150Y13246D01*
X31084Y14461D01*
X33605Y16395D01*
X35539Y18915D01*
X36755Y21850D01*
X37069Y24238D01*
D02*
G37*
G36*
X24238D02*
X12931D01*
X13246Y21850D01*
X14461Y18915D01*
X16395Y16395D01*
X18915Y14461D01*
X21850Y13246D01*
X24238Y12931D01*
Y24238D01*
D02*
G37*
%LPD*%
D37*
X364740Y64550D02*
D03*
X385060D02*
D03*
X374900Y115350D02*
D03*
D39*
X111100Y41700D02*
D03*
X136500D02*
D03*
X238100D02*
D03*
X263500D02*
D03*
X212700D02*
D03*
X187300D02*
D03*
X161900D02*
D03*
D40*
X288900D02*
D03*
D41*
X163750Y63250D02*
D03*
X187250Y67000D02*
D03*
X331250Y148000D02*
D03*
X315000Y137000D02*
D03*
X253750Y128500D02*
D03*
X275000Y126500D02*
D03*
X290000D02*
D03*
X305000D02*
D03*
X256250Y143750D02*
D03*
X350000Y21500D02*
D03*
X50000D02*
D03*
X380000Y171500D02*
D03*
Y141500D02*
D03*
Y51500D02*
D03*
X365000Y126500D02*
D03*
Y51500D02*
D03*
X350000Y96500D02*
D03*
Y81500D02*
D03*
Y66500D02*
D03*
Y51500D02*
D03*
Y36500D02*
D03*
X335000Y126500D02*
D03*
Y111500D02*
D03*
Y81500D02*
D03*
Y66500D02*
D03*
Y51500D02*
D03*
Y36500D02*
D03*
Y21500D02*
D03*
X320000Y111500D02*
D03*
Y96500D02*
D03*
Y81500D02*
D03*
Y66500D02*
D03*
Y51500D02*
D03*
Y36500D02*
D03*
Y21500D02*
D03*
X305000Y111500D02*
D03*
Y81500D02*
D03*
Y66500D02*
D03*
Y51500D02*
D03*
Y36500D02*
D03*
Y21500D02*
D03*
X290000Y111500D02*
D03*
Y81500D02*
D03*
Y66500D02*
D03*
Y21500D02*
D03*
X275000Y111500D02*
D03*
Y81500D02*
D03*
Y66500D02*
D03*
Y51500D02*
D03*
Y21500D02*
D03*
X260000Y111500D02*
D03*
Y81500D02*
D03*
Y66500D02*
D03*
Y21500D02*
D03*
X245000Y66500D02*
D03*
Y21500D02*
D03*
X230000D02*
D03*
X215000Y156500D02*
D03*
Y141500D02*
D03*
Y126500D02*
D03*
Y66500D02*
D03*
Y21500D02*
D03*
X200000Y171500D02*
D03*
Y156500D02*
D03*
Y141500D02*
D03*
Y126500D02*
D03*
Y111500D02*
D03*
Y21500D02*
D03*
X185000Y156500D02*
D03*
Y141500D02*
D03*
Y126500D02*
D03*
Y111500D02*
D03*
Y21500D02*
D03*
X170000D02*
D03*
X155000D02*
D03*
X140000Y171500D02*
D03*
Y21500D02*
D03*
X125000Y171500D02*
D03*
Y51500D02*
D03*
Y21500D02*
D03*
X110000Y171500D02*
D03*
Y156500D02*
D03*
Y141500D02*
D03*
Y126500D02*
D03*
Y111500D02*
D03*
Y81500D02*
D03*
Y66500D02*
D03*
Y21500D02*
D03*
X95000Y171500D02*
D03*
Y156500D02*
D03*
Y141500D02*
D03*
Y126500D02*
D03*
Y111500D02*
D03*
Y81500D02*
D03*
Y66500D02*
D03*
Y51500D02*
D03*
Y36500D02*
D03*
Y21500D02*
D03*
X80000Y171500D02*
D03*
Y156500D02*
D03*
Y141500D02*
D03*
Y126500D02*
D03*
Y111500D02*
D03*
Y96500D02*
D03*
Y81500D02*
D03*
Y66500D02*
D03*
Y51500D02*
D03*
Y36500D02*
D03*
Y21500D02*
D03*
X65000Y171500D02*
D03*
Y156500D02*
D03*
Y141500D02*
D03*
Y126500D02*
D03*
Y111500D02*
D03*
Y81500D02*
D03*
Y66500D02*
D03*
Y51500D02*
D03*
Y36500D02*
D03*
Y21500D02*
D03*
X50000Y171500D02*
D03*
Y156500D02*
D03*
Y141500D02*
D03*
Y126500D02*
D03*
Y111500D02*
D03*
Y96500D02*
D03*
Y81500D02*
D03*
Y66500D02*
D03*
Y51500D02*
D03*
Y36500D02*
D03*
X35000Y171500D02*
D03*
Y156500D02*
D03*
Y141500D02*
D03*
Y126500D02*
D03*
Y111500D02*
D03*
Y96500D02*
D03*
Y81500D02*
D03*
Y66500D02*
D03*
Y51500D02*
D03*
X20000Y171500D02*
D03*
Y156500D02*
D03*
Y141500D02*
D03*
Y126500D02*
D03*
Y111500D02*
D03*
Y96500D02*
D03*
Y81500D02*
D03*
Y66500D02*
D03*
Y51500D02*
D03*
X172500Y100500D02*
D03*
X389250Y88750D02*
D03*
X392500Y96500D02*
D03*
Y81500D02*
D03*
Y111500D02*
D03*
X7500Y51500D02*
D03*
Y66500D02*
D03*
Y81500D02*
D03*
Y96500D02*
D03*
Y111500D02*
D03*
Y126500D02*
D03*
Y141500D02*
D03*
Y156500D02*
D03*
Y171500D02*
D03*
X392500Y141500D02*
D03*
Y126500D02*
D03*
X215000Y111500D02*
D03*
X133000Y161500D02*
D03*
X145000Y132500D02*
D03*
X148250Y112750D02*
D03*
X135000Y100000D02*
D03*
X137500Y61500D02*
D03*
X175000Y50000D02*
D03*
X206000Y57500D02*
D03*
X225000Y50000D02*
D03*
X252500Y51500D02*
D03*
X260000Y101500D02*
D03*
X275000D02*
D03*
X365000Y155000D02*
D03*
X348500Y118750D02*
D03*
Y134500D02*
D03*
X335000Y141500D02*
D03*
X360750Y115500D02*
D03*
X305000Y171500D02*
D03*
X365000D02*
D03*
X290000D02*
D03*
X251000D02*
D03*
X350000D02*
D03*
X320000D02*
D03*
X260000D02*
D03*
X335000D02*
D03*
X275000D02*
D03*
X148750Y171250D02*
D03*
Y150500D02*
D03*
Y161500D02*
D03*
X251250Y84500D02*
D03*
X244000Y77500D02*
D03*
X233000D02*
D03*
X235750Y92500D02*
D03*
X164250D02*
D03*
X150250Y71000D02*
D03*
X148750Y84500D02*
D03*
X50000Y7500D02*
D03*
X65000D02*
D03*
X80000D02*
D03*
X95000D02*
D03*
X110000D02*
D03*
X125000D02*
D03*
X140000D02*
D03*
X155000D02*
D03*
X170000D02*
D03*
X230000D02*
D03*
X245000D02*
D03*
X260000D02*
D03*
X275000D02*
D03*
X290000D02*
D03*
X305000D02*
D03*
X320000D02*
D03*
X335000D02*
D03*
X350000D02*
D03*
X392500Y51500D02*
D03*
Y156500D02*
D03*
Y171500D02*
D03*
X360000Y147250D02*
D03*
X121750Y101000D02*
D03*
X222250D02*
D03*
X171750Y167000D02*
D03*
X223250Y171500D02*
D03*
X209750D02*
D03*
X190250D02*
D03*
X176750D02*
D03*
X225000Y162000D02*
D03*
X171750Y156000D02*
D03*
D42*
X25000Y25000D02*
D03*
X375000D02*
D03*
M02*
