G04*
G04 #@! TF.GenerationSoftware,Altium Limited,Altium Designer,21.6.4 (81)*
G04*
G04 Layer_Color=8388736*
%FSLAX44Y44*%
%MOMM*%
G71*
G04*
G04 #@! TF.SameCoordinates,9C7C5B9B-610B-4B87-8B93-73775DEEA3A0*
G04*
G04*
G04 #@! TF.FilePolarity,Negative*
G04*
G01*
G75*
%ADD22R,1.6500X1.1000*%
%ADD23C,0.8900*%
%ADD24R,0.4500X0.4600*%
%ADD25R,0.6200X0.6500*%
%ADD26R,0.7200X0.7200*%
%ADD27R,0.5900X0.5900*%
%ADD28R,0.9000X1.8000*%
%ADD29R,1.1000X0.9000*%
%ADD30C,1.0000*%
%ADD31C,3.5000*%
%ADD32C,1.7500*%
%ADD33R,1.7500X1.7500*%
D22*
X135000Y112750D02*
D03*
Y86750D02*
D03*
D23*
X381250Y77250D02*
D03*
X368550D02*
D03*
X381250Y89950D02*
D03*
X368550D02*
D03*
X381250Y102650D02*
D03*
X368550D02*
D03*
D24*
X287250Y95500D02*
D03*
Y103900D02*
D03*
X110500Y103950D02*
D03*
Y95550D02*
D03*
D25*
X270500Y148000D02*
D03*
X278500D02*
D03*
X316500D02*
D03*
X324500D02*
D03*
X278500Y137000D02*
D03*
X270500D02*
D03*
D26*
X158000Y71000D02*
D03*
X167000D02*
D03*
X126000Y125750D02*
D03*
X135000D02*
D03*
X126000Y73500D02*
D03*
X135000D02*
D03*
X126000Y150000D02*
D03*
X135000D02*
D03*
X126000Y139500D02*
D03*
X135000D02*
D03*
D27*
X183500Y172500D02*
D03*
X216500D02*
D03*
X165000Y101000D02*
D03*
Y112000D02*
D03*
Y123000D02*
D03*
Y134000D02*
D03*
Y145000D02*
D03*
Y156000D02*
D03*
X156000Y95500D02*
D03*
Y106500D02*
D03*
Y117500D02*
D03*
Y128500D02*
D03*
Y139500D02*
D03*
Y150500D02*
D03*
Y161500D02*
D03*
X165000Y167000D02*
D03*
X156000Y172500D02*
D03*
Y84500D02*
D03*
X167000D02*
D03*
X178000D02*
D03*
X189000D02*
D03*
X200000D02*
D03*
X211000D02*
D03*
X222000D02*
D03*
X233000D02*
D03*
X244000D02*
D03*
X172500Y93500D02*
D03*
X183500D02*
D03*
X194500D02*
D03*
X205500D02*
D03*
X216500D02*
D03*
X227500D02*
D03*
X244000Y95500D02*
D03*
Y106500D02*
D03*
Y117500D02*
D03*
Y128500D02*
D03*
Y139500D02*
D03*
Y150500D02*
D03*
Y161500D02*
D03*
Y172500D02*
D03*
X235000Y101000D02*
D03*
Y112000D02*
D03*
Y123000D02*
D03*
Y134000D02*
D03*
Y145000D02*
D03*
Y156000D02*
D03*
Y167000D02*
D03*
D28*
X337000Y95500D02*
D03*
X303000D02*
D03*
X97000D02*
D03*
X63000D02*
D03*
D29*
X305000Y137000D02*
D03*
X290000D02*
D03*
Y148000D02*
D03*
X305000D02*
D03*
D30*
X364740Y64550D02*
D03*
X385060D02*
D03*
X374900Y115350D02*
D03*
D31*
X25000Y25000D02*
D03*
X375000D02*
D03*
D32*
X111100Y41700D02*
D03*
X136500D02*
D03*
X238100D02*
D03*
X263500D02*
D03*
X212700D02*
D03*
X187300D02*
D03*
X161900D02*
D03*
D33*
X288900D02*
D03*
M02*
