M48
;Layer_Color=9474304
;FILE_FORMAT=4:4
METRIC,LZ
;TYPE=PLATED
T1F00S00C0.3000
T2F00S00C1.1000
T3F00S00C1.8000
;TYPE=NON_PLATED
T4F00S00C0.9950
%
T01
X00007518Y00046998
X0002Y00047
Y00062
X00007518Y00061998
Y00076998
X0002Y00077
Y00092
X000075
Y00107
X0002
Y00122
X00007518Y00121998
Y00136998
X0002Y00137
Y00152
X00007518Y00151998
Y00166998
X0002Y00167
Y00182
X00007518Y00181998
Y00196998
X0002Y00197
Y00212
X00007518Y00211998
X00035Y00212
X0005
X00065
X0008
X00095
X0011
X00125
X0014
Y00197
X00155
X0016175Y002005
Y002125
X00168Y002065
Y001945
X0015Y0019
X00155264Y00180967
X00145Y00175
X001345Y0018625
X00125Y00197
X0011
X00095
X001Y0019
X0008Y00197
Y00182
X00065
Y00197
X0005
Y00182
Y00167
X00065
X0007375Y001685
X0008Y00152
X00095
X0011
X00125
X0014
X001345Y0015825
X00155Y00152
X0015645Y0016328
X00161Y001265
X00155Y00122
Y00107
X0017
X00185
Y00115
X001915Y0012
X001975Y001125
X0020125Y00105
X00215Y0010225
X00232Y0012025
X00245Y00137
X0026
X00275
X0029
X00305
X0032
X00335
X0035
X00365
X0038
X003925Y00137
Y00122
Y001095
X00385Y0011125
X0038875Y0009
X003925Y00077
Y00047
X0038
X00365
X0035
Y00062
Y00077
X00335
Y00062
Y00047
Y00032
X00335Y00018
Y0000775
X0032
Y00018
X0032Y00032
Y00047
Y00062
Y00077
X00305
Y00062
Y00047
Y00032
X00305Y00018
X003055Y0000775
X0029
Y00018
X00275
Y0000775
X0026
Y00018
X00245
Y0000775
X0023
Y00018
Y00032
X00215Y000205
X002
Y00032
Y00047
Y00077
X00185
Y00092
X0017
Y00077
Y00062
Y00032
X0017Y00018
Y0000775
X00155
Y00018
X0014
Y0000775
X00125
Y00018
X00125Y00032
Y00047
Y00062
X0014
Y00077
X00155
Y00092
X0014
Y00107
Y00137
X00125
Y00122
X0011
Y00137
X00095
Y00122
X0008
Y00137
X00065
Y00152
X0005
Y00137
Y00122
X00065
X0008Y00107
Y00092
Y00077
X00095
X0011
X00125
Y00092
X0011Y00062
X00095
Y00047
Y00032
X0009525Y00018
X00095Y0000775
X0008
X000795Y00018
X0008Y00032
Y00047
Y00062
X00065
Y00077
X0005
Y00092
Y00107
X00035
Y00122
Y00137
Y00152
Y00167
Y00182
Y00197
Y00092
Y00077
Y00062
X0005
Y00047
X00065
Y00032
X0006475Y00018
X00065Y0000775
X0005
Y00018
X0005Y00032
X00035Y00047
X0011Y00018
Y0000775
X00185Y000205
X0022125Y0006025
X0023Y00062
Y00077
X00245
X0026
X00275
X0029
Y00062
X00275
X002675Y000675
X00275Y00047
Y00032
X00245Y00062
X00275473Y0009493
X00275Y00122
X0029
X00305
X0032
X00335
X0035
X00365
X0036075Y0011025
X00359Y0009
X0035Y00032
X0035Y00018
Y0000775
X0035Y00152
X00365
X0038
X003925Y00152
Y00167
X0038Y00167
Y00182
X003925Y00182
Y00197
X0038Y00197
Y00212
X003925Y00212
X00365Y00212
Y00197
Y00182
Y00167
X0035
Y00182
Y00197
Y00212
X00335
Y00197
Y00182
Y00167
Y00152
X0032
Y00167
Y00182
Y00197
Y00212
X00305
Y00197
Y00182
Y00167
Y00152
X0029
Y00167
Y00182
Y00197
Y00212
X00275
Y00197
Y00182
Y00167
Y00152
X0026Y00182
Y00197
Y00212
X0023825Y002125
Y002005
X00245Y00197
Y00182
X0023825Y0018825
X00232Y001945
Y002065
X002105Y001835
X00198
X0018925
X0019575Y001755
X0020425Y00167
Y00148
X0019225Y00140871
T02
X001111Y000417
X001365
X001619
X001873
X002127
X002381
X002635
X002889
T03
X00025Y00025
X00375
T04
X0036474Y0006455
X0038506
X003749Y0011535
M30
