G04*
G04 #@! TF.GenerationSoftware,Altium Limited,Altium Designer,21.6.4 (81)*
G04*
G04 Layer_Color=8388736*
%FSLAX44Y44*%
%MOMM*%
G71*
G04*
G04 #@! TF.SameCoordinates,2C076353-3E30-4277-8679-B38F3AF88BA9*
G04*
G04*
G04 #@! TF.FilePolarity,Negative*
G04*
G01*
G75*
%ADD25R,0.8800X0.8400*%
%ADD26R,0.4500X0.4600*%
%ADD27R,0.6200X0.6500*%
%ADD28R,1.8000X0.9000*%
%ADD29C,0.8900*%
%ADD30R,0.8000X0.8000*%
%ADD31R,1.2500X0.8000*%
%ADD32R,0.8000X1.2500*%
%ADD33R,0.8000X0.8000*%
%ADD34R,1.1000X0.9000*%
%ADD35C,3.5000*%
%ADD36C,1.7500*%
%ADD37R,1.7500X1.7500*%
%ADD38C,1.0000*%
D25*
X269166Y165186D02*
D03*
X259366D02*
D03*
X269066Y177186D02*
D03*
X259266D02*
D03*
D26*
X104000Y112200D02*
D03*
Y103800D02*
D03*
X295000Y103800D02*
D03*
Y112200D02*
D03*
D27*
X376000Y158000D02*
D03*
X368000D02*
D03*
X368000Y148000D02*
D03*
X376000D02*
D03*
X326000Y147000D02*
D03*
X318000D02*
D03*
D28*
X83000Y78000D02*
D03*
Y112000D02*
D03*
X316000Y112000D02*
D03*
Y78000D02*
D03*
D29*
X37350Y110900D02*
D03*
X24650D02*
D03*
X37350Y123600D02*
D03*
X24650D02*
D03*
X37350Y136300D02*
D03*
X24650D02*
D03*
D30*
X156500Y187000D02*
D03*
Y212500D02*
D03*
X243500D02*
D03*
Y187000D02*
D03*
X227500Y101500D02*
D03*
Y112500D02*
D03*
Y123500D02*
D03*
Y134500D02*
D03*
Y145500D02*
D03*
X172500D02*
D03*
Y134500D02*
D03*
Y123500D02*
D03*
Y112500D02*
D03*
Y101500D02*
D03*
X183500D02*
D03*
X194500D02*
D03*
X205500D02*
D03*
X216500D02*
D03*
X160000Y75500D02*
D03*
X170000D02*
D03*
X180000D02*
D03*
X190000D02*
D03*
X200000D02*
D03*
X210000D02*
D03*
X220000D02*
D03*
X230000D02*
D03*
X240000D02*
D03*
X227500Y156500D02*
D03*
X172500D02*
D03*
D31*
X241250Y87000D02*
D03*
Y97000D02*
D03*
Y107000D02*
D03*
Y117000D02*
D03*
Y127000D02*
D03*
Y137000D02*
D03*
Y147000D02*
D03*
Y157000D02*
D03*
Y167000D02*
D03*
Y177000D02*
D03*
X158750D02*
D03*
Y167000D02*
D03*
Y157000D02*
D03*
Y147000D02*
D03*
Y137000D02*
D03*
Y127000D02*
D03*
Y117000D02*
D03*
Y107000D02*
D03*
Y97000D02*
D03*
Y87000D02*
D03*
D32*
X180000Y176250D02*
D03*
X190000D02*
D03*
X200000D02*
D03*
X210000D02*
D03*
X220000D02*
D03*
Y87750D02*
D03*
X210000D02*
D03*
X200000D02*
D03*
X190000D02*
D03*
X180000D02*
D03*
D33*
X217250Y149250D02*
D03*
X205750D02*
D03*
X194250D02*
D03*
X182750D02*
D03*
Y126250D02*
D03*
X194250Y137750D02*
D03*
X205750D02*
D03*
Y114750D02*
D03*
X217250Y126250D02*
D03*
X205750D02*
D03*
X194250D02*
D03*
Y114750D02*
D03*
D34*
X339500Y158500D02*
D03*
X354500D02*
D03*
Y147500D02*
D03*
X339500D02*
D03*
D35*
X375000Y25000D02*
D03*
X25000D02*
D03*
D36*
X111100Y41700D02*
D03*
X136500D02*
D03*
X238100D02*
D03*
X263500D02*
D03*
X212700D02*
D03*
X187300D02*
D03*
X161900D02*
D03*
D37*
X288900D02*
D03*
D38*
X20840Y98200D02*
D03*
X41160D02*
D03*
X31000Y149000D02*
D03*
M02*
