G04*
G04 #@! TF.GenerationSoftware,Altium Limited,Altium Designer,21.6.4 (81)*
G04*
G04 Layer_Color=32768*
%FSLAX44Y44*%
%MOMM*%
G71*
G04*
G04 #@! TF.SameCoordinates,2C076353-3E30-4277-8679-B38F3AF88BA9*
G04*
G04*
G04 #@! TF.FilePolarity,Positive*
G04*
G01*
G75*
%ADD49C,0.0500*%
%ADD50C,0.1000*%
D49*
X253266Y159186D02*
X275266D01*
X253266Y171186D02*
X275266D01*
Y159186D02*
Y171186D01*
X253266Y159186D02*
Y171186D01*
X100000Y115500D02*
X108000D01*
X100000Y101000D02*
X108000D01*
Y115500D01*
X100000Y101000D02*
Y115500D01*
X104000Y104750D02*
Y111000D01*
X100750Y108000D02*
X106750D01*
X380000Y154000D02*
Y162000D01*
X364000Y154000D02*
Y162000D01*
Y154000D02*
X380000D01*
X364000Y162000D02*
X380000D01*
X369000Y158000D02*
X375000D01*
X372000Y155000D02*
Y161000D01*
X69250Y118000D02*
X97000D01*
X69250Y72000D02*
Y118000D01*
Y72000D02*
X97000D01*
Y118000D01*
X78000Y95000D02*
X88000D01*
X83000Y90000D02*
Y100000D01*
X94900Y-60700D02*
Y51950D01*
Y-60700D02*
X305100D01*
Y51950D01*
X94900D02*
X305100D01*
X200000Y9000D02*
Y19000D01*
X195000Y14000D02*
X205000D01*
X200000Y139000D02*
Y149000D01*
X148000Y221000D02*
X252000D01*
Y67000D02*
Y221000D01*
X195000Y144000D02*
X205000D01*
X148000Y67000D02*
X252000D01*
X148000D02*
Y221000D01*
X362000Y141000D02*
Y165000D01*
X332000D02*
X362000D01*
X332000Y141000D02*
Y165000D01*
Y141000D02*
X362000D01*
X347000Y148000D02*
Y158000D01*
X342000Y153000D02*
X352000D01*
X275166Y171186D02*
Y183186D01*
X253166Y171186D02*
Y183186D01*
Y171186D02*
X275166D01*
X253166Y183186D02*
X275166D01*
X316000Y90000D02*
Y100000D01*
X311000Y95000D02*
X321000D01*
X330000Y72000D02*
Y118000D01*
X302250Y72000D02*
X330000D01*
X302250D02*
Y118000D01*
X330000D01*
X372000Y145000D02*
Y151000D01*
X369000Y148000D02*
X375000D01*
X364000Y152000D02*
X380000D01*
X364000Y144000D02*
X380000D01*
X364000D02*
Y152000D01*
X380000Y144000D02*
Y152000D01*
X322000Y144000D02*
Y150000D01*
X319000Y147000D02*
X325000D01*
X314000Y143000D02*
X330000D01*
X314000Y151000D02*
X330000D01*
Y143000D02*
Y151000D01*
X314000Y143000D02*
Y151000D01*
X291750Y108000D02*
X297750D01*
X295000Y104750D02*
Y111000D01*
X291000Y101000D02*
Y115500D01*
X299000Y101000D02*
Y115500D01*
X291000Y101000D02*
X299000D01*
X291000Y115500D02*
X299000D01*
D50*
X264266Y162186D02*
Y168186D01*
X261266Y165186D02*
X267266D01*
X261166Y177186D02*
X267166D01*
X264166Y174186D02*
Y180186D01*
X189003Y145000D02*
X197334D01*
X199000Y146666D01*
Y149998D01*
X197334Y151664D01*
X189003D01*
X199000Y154997D02*
Y158329D01*
Y156663D01*
X189003D01*
X190669Y154997D01*
M02*
