G04*
G04 #@! TF.GenerationSoftware,Altium Limited,Altium Designer,21.6.4 (81)*
G04*
G04 Layer_Color=128*
%FSLAX44Y44*%
%MOMM*%
G71*
G04*
G04 #@! TF.SameCoordinates,816F8A91-06EC-47E4-87ED-5788FB9A99D2*
G04*
G04*
G04 #@! TF.FilePolarity,Positive*
G04*
G01*
G75*
%ADD50C,0.0508*%
D50*
X353515Y94550D02*
X363465D01*
X358490Y89575D02*
Y99525D01*
X373835Y94550D02*
X383785D01*
X378810Y89575D02*
Y99525D01*
X363675Y145350D02*
X373625D01*
X368650Y140375D02*
Y150325D01*
X156400Y41700D02*
X167400D01*
X161900Y36200D02*
Y47200D01*
X181800Y41700D02*
X192800D01*
X187300Y36200D02*
Y47200D01*
X207200Y41700D02*
X218200D01*
X212700Y36200D02*
Y47200D01*
X258000Y41700D02*
X269000D01*
X263500Y36200D02*
Y47200D01*
X283400Y41700D02*
X294400D01*
X288900Y36200D02*
Y47200D01*
X232600Y41700D02*
X243600D01*
X238100Y36200D02*
Y47200D01*
X131000Y41700D02*
X142000D01*
X136500Y36200D02*
Y47200D01*
X105600Y41700D02*
X116600D01*
X111100Y36200D02*
Y47200D01*
X366000Y25000D02*
X384000D01*
X375000Y16000D02*
Y34000D01*
X16000Y25000D02*
X34000D01*
X25000Y16000D02*
Y34000D01*
X182750Y107250D02*
X185750D01*
X184250Y105750D02*
Y108750D01*
X197980Y126328D02*
X200980D01*
X199480Y124828D02*
Y127828D01*
X209500Y208000D02*
X212500D01*
X211000Y206500D02*
Y209500D01*
X381500Y208000D02*
X384500D01*
X383000Y206500D02*
Y209500D01*
X381500Y193000D02*
X384500D01*
X383000Y191500D02*
Y194500D01*
X381500Y178000D02*
X384500D01*
X383000Y176500D02*
Y179500D01*
X381500Y163000D02*
X384500D01*
X383000Y161500D02*
Y164500D01*
X381500Y103000D02*
X384500D01*
X383000Y101500D02*
Y104500D01*
X381500Y73000D02*
X384500D01*
X383000Y71500D02*
Y74500D01*
X381500Y58000D02*
X384500D01*
X383000Y56500D02*
Y59500D01*
X366500Y208000D02*
X369500D01*
X368000Y206500D02*
Y209500D01*
X366500Y193000D02*
X369500D01*
X368000Y191500D02*
Y194500D01*
X366500Y178000D02*
X369500D01*
X368000Y176500D02*
Y179500D01*
X366500Y163000D02*
X369500D01*
X368000Y161500D02*
Y164500D01*
X366500Y88000D02*
X369500D01*
X368000Y86500D02*
Y89500D01*
X366500Y58000D02*
X369500D01*
X368000Y56500D02*
Y59500D01*
X351500Y208000D02*
X354500D01*
X353000Y206500D02*
Y209500D01*
X351500Y193000D02*
X354500D01*
X353000Y191500D02*
Y194500D01*
X351500Y178000D02*
X354500D01*
X353000Y176500D02*
Y179500D01*
X351500Y163000D02*
X354500D01*
X353000Y161500D02*
Y164500D01*
X351500Y148000D02*
X354500D01*
X353000Y146500D02*
Y149500D01*
X351500Y58000D02*
X354500D01*
X353000Y56500D02*
Y59500D01*
X351500Y43000D02*
X354500D01*
X353000Y41500D02*
Y44500D01*
X351500Y28000D02*
X354500D01*
X353000Y26500D02*
Y29500D01*
X336500Y208000D02*
X339500D01*
X338000Y206500D02*
Y209500D01*
X336500Y193000D02*
X339500D01*
X338000Y191500D02*
Y194500D01*
X336500Y178000D02*
X339500D01*
X338000Y176500D02*
Y179500D01*
X336500Y163000D02*
X339500D01*
X338000Y161500D02*
Y164500D01*
X336500Y148000D02*
X339500D01*
X338000Y146500D02*
Y149500D01*
X336500Y133000D02*
X339500D01*
X338000Y131500D02*
Y134500D01*
X336500Y103000D02*
X339500D01*
X338000Y101500D02*
Y104500D01*
X336500Y73000D02*
X339500D01*
X338000Y71500D02*
Y74500D01*
X336500Y58000D02*
X339500D01*
X338000Y56500D02*
Y59500D01*
X336500Y43000D02*
X339500D01*
X338000Y41500D02*
Y44500D01*
X336500Y28000D02*
X339500D01*
X338000Y26500D02*
Y29500D01*
X321500Y208000D02*
X324500D01*
X323000Y206500D02*
Y209500D01*
X321500Y193000D02*
X324500D01*
X323000Y191500D02*
Y194500D01*
X321500Y178000D02*
X324500D01*
X323000Y176500D02*
Y179500D01*
X321500Y163000D02*
X324500D01*
X323000Y161500D02*
Y164500D01*
X321500Y148000D02*
X324500D01*
X323000Y146500D02*
Y149500D01*
X321500Y133000D02*
X324500D01*
X323000Y131500D02*
Y134500D01*
X321500Y88000D02*
X324500D01*
X323000Y86500D02*
Y89500D01*
X321500Y58000D02*
X324500D01*
X323000Y56500D02*
Y59500D01*
X321500Y43000D02*
X324500D01*
X323000Y41500D02*
Y44500D01*
X321500Y28000D02*
X324500D01*
X323000Y26500D02*
Y29500D01*
X306500Y208000D02*
X309500D01*
X308000Y206500D02*
Y209500D01*
X306500Y193000D02*
X309500D01*
X308000Y191500D02*
Y194500D01*
X306500Y178000D02*
X309500D01*
X308000Y176500D02*
Y179500D01*
X306500Y163000D02*
X309500D01*
X308000Y161500D02*
Y164500D01*
X306500Y148000D02*
X309500D01*
X308000Y146500D02*
Y149500D01*
X306500Y133000D02*
X309500D01*
X308000Y131500D02*
Y134500D01*
X306500Y103000D02*
X309500D01*
X308000Y101500D02*
Y104500D01*
X306500Y88000D02*
X309500D01*
X308000Y86500D02*
Y89500D01*
X306500Y73000D02*
X309500D01*
X308000Y71500D02*
Y74500D01*
X306500Y43000D02*
X309500D01*
X308000Y41500D02*
Y44500D01*
X306500Y28000D02*
X309500D01*
X308000Y26500D02*
Y29500D01*
X291500Y208000D02*
X294500D01*
X293000Y206500D02*
Y209500D01*
X291500Y193000D02*
X294500D01*
X293000Y191500D02*
Y194500D01*
X291500Y178000D02*
X294500D01*
X293000Y176500D02*
Y179500D01*
X291500Y163000D02*
X294500D01*
X293000Y161500D02*
Y164500D01*
X291500Y148000D02*
X294500D01*
X293000Y146500D02*
Y149500D01*
X291500Y133000D02*
X294500D01*
X293000Y131500D02*
Y134500D01*
X291500Y103000D02*
X294500D01*
X293000Y101500D02*
Y104500D01*
X291500Y88000D02*
X294500D01*
X293000Y86500D02*
Y89500D01*
X291500Y73000D02*
X294500D01*
X293000Y71500D02*
Y74500D01*
X276500Y178000D02*
X279500D01*
X278000Y176500D02*
Y179500D01*
X276500Y163000D02*
X279500D01*
X278000Y161500D02*
Y164500D01*
X276500Y148000D02*
X279500D01*
X278000Y146500D02*
Y149500D01*
X276500Y133000D02*
X279500D01*
X278000Y131500D02*
Y134500D01*
X276500Y103000D02*
X279500D01*
X278000Y101500D02*
Y104500D01*
X276500Y88000D02*
X279500D01*
X278000Y86500D02*
Y89500D01*
X276500Y28000D02*
X279500D01*
X278000Y26500D02*
Y29500D01*
X261500Y148000D02*
X264500D01*
X263000Y146500D02*
Y149500D01*
X261500Y133000D02*
X264500D01*
X263000Y131500D02*
Y134500D01*
X261500Y28000D02*
X264500D01*
X263000Y26500D02*
Y29500D01*
X246500Y148000D02*
X249500D01*
X248000Y146500D02*
Y149500D01*
X246500Y133000D02*
X249500D01*
X248000Y131500D02*
Y134500D01*
X246500Y103000D02*
X249500D01*
X248000Y101500D02*
Y104500D01*
X246500Y73000D02*
X249500D01*
X248000Y71500D02*
Y74500D01*
X246500Y58000D02*
X249500D01*
X248000Y56500D02*
Y59500D01*
X246500Y28000D02*
X249500D01*
X248000Y26500D02*
Y29500D01*
X231500Y103000D02*
X234500D01*
X233000Y101500D02*
Y104500D01*
X231500Y73000D02*
X234500D01*
X233000Y71500D02*
Y74500D01*
X231500Y28000D02*
X234500D01*
X233000Y26500D02*
Y29500D01*
X216500Y28000D02*
X219500D01*
X218000Y26500D02*
Y29500D01*
X201500Y208000D02*
X204500D01*
X203000Y206500D02*
Y209500D01*
X201500Y58000D02*
X204500D01*
X203000Y56500D02*
Y59500D01*
X201500Y28000D02*
X204500D01*
X203000Y26500D02*
Y29500D01*
X186500Y208000D02*
X189500D01*
X188000Y206500D02*
Y209500D01*
X186500Y28000D02*
X189500D01*
X188000Y26500D02*
Y29500D01*
X171500Y208000D02*
X174500D01*
X173000Y206500D02*
Y209500D01*
X171500Y88000D02*
X174500D01*
X173000Y86500D02*
Y89500D01*
X171500Y73000D02*
X174500D01*
X173000Y71500D02*
Y74500D01*
X171500Y58000D02*
X174500D01*
X173000Y56500D02*
Y59500D01*
X171500Y28000D02*
X174500D01*
X173000Y26500D02*
Y29500D01*
X156500Y208000D02*
X159500D01*
X158000Y206500D02*
Y209500D01*
X156500Y28000D02*
X159500D01*
X158000Y26500D02*
Y29500D01*
X141500Y208000D02*
X144500D01*
X143000Y206500D02*
Y209500D01*
X141500Y163000D02*
X144500D01*
X143000Y161500D02*
Y164500D01*
X141500Y118000D02*
X144500D01*
X143000Y116500D02*
Y119500D01*
X141500Y103000D02*
X144500D01*
X143000Y101500D02*
Y104500D01*
X141500Y73000D02*
X144500D01*
X143000Y71500D02*
Y74500D01*
X141500Y58000D02*
X144500D01*
X143000Y56500D02*
Y59500D01*
X141500Y28000D02*
X144500D01*
X143000Y26500D02*
Y29500D01*
X126500Y208000D02*
X129500D01*
X128000Y206500D02*
Y209500D01*
X126500Y163000D02*
X129500D01*
X128000Y161500D02*
Y164500D01*
X126500Y148000D02*
X129500D01*
X128000Y146500D02*
Y149500D01*
X126500Y118000D02*
X129500D01*
X128000Y116500D02*
Y119500D01*
X126500Y103000D02*
X129500D01*
X128000Y101500D02*
Y104500D01*
X126500Y88000D02*
X129500D01*
X128000Y86500D02*
Y89500D01*
X126500Y73000D02*
X129500D01*
X128000Y71500D02*
Y74500D01*
X126500Y58000D02*
X129500D01*
X128000Y56500D02*
Y59500D01*
X126500Y28000D02*
X129500D01*
X128000Y26500D02*
Y29500D01*
X111500Y208000D02*
X114500D01*
X113000Y206500D02*
Y209500D01*
X111500Y163000D02*
X114500D01*
X113000Y161500D02*
Y164500D01*
X111500Y148000D02*
X114500D01*
X113000Y146500D02*
Y149500D01*
X111500Y133000D02*
X114500D01*
X113000Y131500D02*
Y134500D01*
X111500Y118000D02*
X114500D01*
X113000Y116500D02*
Y119500D01*
X111500Y103000D02*
X114500D01*
X113000Y101500D02*
Y104500D01*
X111500Y88000D02*
X114500D01*
X113000Y86500D02*
Y89500D01*
X111500Y73000D02*
X114500D01*
X113000Y71500D02*
Y74500D01*
X111500Y58000D02*
X114500D01*
X113000Y56500D02*
Y59500D01*
X111500Y28000D02*
X114500D01*
X113000Y26500D02*
Y29500D01*
X96500Y208000D02*
X99500D01*
X98000Y206500D02*
Y209500D01*
X96500Y193000D02*
X99500D01*
X98000Y191500D02*
Y194500D01*
X81500Y208000D02*
X84500D01*
X83000Y206500D02*
Y209500D01*
X81500Y163000D02*
X84500D01*
X83000Y161500D02*
Y164500D01*
X81500Y148000D02*
X84500D01*
X83000Y146500D02*
Y149500D01*
X81500Y133000D02*
X84500D01*
X83000Y131500D02*
Y134500D01*
X81500Y88000D02*
X84500D01*
X83000Y86500D02*
Y89500D01*
X81500Y73000D02*
X84500D01*
X83000Y71500D02*
Y74500D01*
X81500Y58000D02*
X84500D01*
X83000Y56500D02*
Y59500D01*
X81500Y43000D02*
X84500D01*
X83000Y41500D02*
Y44500D01*
X81500Y28000D02*
X84500D01*
X83000Y26500D02*
Y29500D01*
X66500Y208000D02*
X69500D01*
X68000Y206500D02*
Y209500D01*
X66500Y193000D02*
X69500D01*
X68000Y191500D02*
Y194500D01*
X66500Y163000D02*
X69500D01*
X68000Y161500D02*
Y164500D01*
X66500Y148000D02*
X69500D01*
X68000Y146500D02*
Y149500D01*
X66500Y133000D02*
X69500D01*
X68000Y131500D02*
Y134500D01*
X66500Y88000D02*
X69500D01*
X68000Y86500D02*
Y89500D01*
X66500Y73000D02*
X69500D01*
X68000Y71500D02*
Y74500D01*
X66500Y58000D02*
X69500D01*
X68000Y56500D02*
Y59500D01*
X66500Y43000D02*
X69500D01*
X68000Y41500D02*
Y44500D01*
X66500Y28000D02*
X69500D01*
X68000Y26500D02*
Y29500D01*
X51500Y208000D02*
X54500D01*
X53000Y206500D02*
Y209500D01*
X51500Y193000D02*
X54500D01*
X53000Y191500D02*
Y194500D01*
X51500Y178000D02*
X54500D01*
X53000Y176500D02*
Y179500D01*
X51500Y163000D02*
X54500D01*
X53000Y161500D02*
Y164500D01*
X51500Y148000D02*
X54500D01*
X53000Y146500D02*
Y149500D01*
X51500Y133000D02*
X54500D01*
X53000Y131500D02*
Y134500D01*
X51500Y118000D02*
X54500D01*
X53000Y116500D02*
Y119500D01*
X51500Y103000D02*
X54500D01*
X53000Y101500D02*
Y104500D01*
X51500Y88000D02*
X54500D01*
X53000Y86500D02*
Y89500D01*
X51500Y73000D02*
X54500D01*
X53000Y71500D02*
Y74500D01*
X51500Y58000D02*
X54500D01*
X53000Y56500D02*
Y59500D01*
X51500Y43000D02*
X54500D01*
X53000Y41500D02*
Y44500D01*
X51500Y28000D02*
X54500D01*
X53000Y26500D02*
Y29500D01*
X36500Y208000D02*
X39500D01*
X38000Y206500D02*
Y209500D01*
X36500Y193000D02*
X39500D01*
X38000Y191500D02*
Y194500D01*
X36500Y163000D02*
X39500D01*
X38000Y161500D02*
Y164500D01*
X36500Y148000D02*
X39500D01*
X38000Y146500D02*
Y149500D01*
X36500Y133000D02*
X39500D01*
X38000Y131500D02*
Y134500D01*
X36500Y88000D02*
X39500D01*
X38000Y86500D02*
Y89500D01*
X36500Y73000D02*
X39500D01*
X38000Y71500D02*
Y74500D01*
X36500Y58000D02*
X39500D01*
X38000Y56500D02*
Y59500D01*
X36500Y43000D02*
X39500D01*
X38000Y41500D02*
Y44500D01*
X21500Y208000D02*
X24500D01*
X23000Y206500D02*
Y209500D01*
X21500Y193000D02*
X24500D01*
X23000Y191500D02*
Y194500D01*
X21500Y178000D02*
X24500D01*
X23000Y176500D02*
Y179500D01*
X21500Y163000D02*
X24500D01*
X23000Y161500D02*
Y164500D01*
X21500Y148000D02*
X24500D01*
X23000Y146500D02*
Y149500D01*
X21500Y133000D02*
X24500D01*
X23000Y131500D02*
Y134500D01*
X21500Y118000D02*
X24500D01*
X23000Y116500D02*
Y119500D01*
X21500Y103000D02*
X24500D01*
X23000Y101500D02*
Y104500D01*
X21500Y88000D02*
X24500D01*
X23000Y86500D02*
Y89500D01*
X21500Y73000D02*
X24500D01*
X23000Y71500D02*
Y74500D01*
X21500Y58000D02*
X24500D01*
X23000Y56500D02*
Y59500D01*
X6500Y208000D02*
X9500D01*
X8000Y206500D02*
Y209500D01*
X6500Y193000D02*
X9500D01*
X8000Y191500D02*
Y194500D01*
X6500Y178000D02*
X9500D01*
X8000Y176500D02*
Y179500D01*
X6500Y163000D02*
X9500D01*
X8000Y161500D02*
Y164500D01*
X6500Y148000D02*
X9500D01*
X8000Y146500D02*
Y149500D01*
X6500Y133000D02*
X9500D01*
X8000Y131500D02*
Y134500D01*
X6500Y118000D02*
X9500D01*
X8000Y116500D02*
Y119500D01*
X6500Y103000D02*
X9500D01*
X8000Y101500D02*
Y104500D01*
X6500Y88000D02*
X9500D01*
X8000Y86500D02*
Y89500D01*
X6500Y73000D02*
X9500D01*
X8000Y71500D02*
Y74500D01*
X6500Y58000D02*
X9500D01*
X8000Y56500D02*
Y59500D01*
X6500Y43000D02*
X9500D01*
X8000Y41500D02*
Y44500D01*
X221500Y162000D02*
X224500D01*
X223000Y160500D02*
Y163500D01*
X228500Y162000D02*
X231500D01*
X230000Y160500D02*
Y163500D01*
X235500Y162000D02*
X238500D01*
X237000Y160500D02*
Y163500D01*
X242500Y162000D02*
X245500D01*
X244000Y160500D02*
Y163500D01*
X249500Y162000D02*
X252500D01*
X251000Y160500D02*
Y163500D01*
X256500Y162000D02*
X259500D01*
X258000Y160500D02*
Y163500D01*
X263500Y162000D02*
X266500D01*
X265000Y160500D02*
Y163500D01*
X269500Y166000D02*
X272500D01*
X271000Y164500D02*
Y167500D01*
X269500Y173000D02*
X272500D01*
X271000Y171500D02*
Y174500D01*
X269500Y180000D02*
X272500D01*
X271000Y178500D02*
Y181500D01*
X269500Y187000D02*
X272500D01*
X271000Y185500D02*
Y188500D01*
X269500Y194000D02*
X272500D01*
X271000Y192500D02*
Y195500D01*
X269500Y201000D02*
X272500D01*
X271000Y199500D02*
Y202500D01*
X269500Y208000D02*
X272500D01*
X271000Y206500D02*
Y209500D01*
X261000Y107500D02*
X264000D01*
X262500Y106000D02*
Y109000D01*
X226000Y145000D02*
X229000D01*
X227500Y143500D02*
Y146500D01*
X391000Y117500D02*
X394000D01*
X392500Y116000D02*
Y119000D01*
X391000Y132500D02*
X394000D01*
X392500Y131000D02*
Y134000D01*
X391000Y147500D02*
X394000D01*
X392500Y146000D02*
Y149000D01*
X391000Y162500D02*
X394000D01*
X392500Y161000D02*
Y164000D01*
X391000Y177500D02*
X394000D01*
X392500Y176000D02*
Y179000D01*
X391000Y192500D02*
X394000D01*
X392500Y191000D02*
Y194000D01*
X391000Y207500D02*
X394000D01*
X392500Y206000D02*
Y209000D01*
X391000Y72500D02*
X394000D01*
X392500Y71000D02*
Y74000D01*
X391000Y57500D02*
X394000D01*
X392500Y56000D02*
Y59000D01*
X351000Y7500D02*
X354000D01*
X352500Y6000D02*
Y9000D01*
X336000Y7500D02*
X339000D01*
X337500Y6000D02*
Y9000D01*
X321000Y7500D02*
X324000D01*
X322500Y6000D02*
Y9000D01*
X306000Y7500D02*
X309000D01*
X307500Y6000D02*
Y9000D01*
X291000Y7500D02*
X294000D01*
X292500Y6000D02*
Y9000D01*
X276000Y7500D02*
X279000D01*
X277500Y6000D02*
Y9000D01*
X261000Y7500D02*
X264000D01*
X262500Y6000D02*
Y9000D01*
X246000Y7500D02*
X249000D01*
X247500Y6000D02*
Y9000D01*
X231000Y7500D02*
X234000D01*
X232500Y6000D02*
Y9000D01*
X216000Y7500D02*
X219000D01*
X217500Y6000D02*
Y9000D01*
X201000Y7500D02*
X204000D01*
X202500Y6000D02*
Y9000D01*
X186000Y7500D02*
X189000D01*
X187500Y6000D02*
Y9000D01*
X96000Y7500D02*
X99000D01*
X97500Y6000D02*
Y9000D01*
X171000Y7500D02*
X174000D01*
X172500Y6000D02*
Y9000D01*
X156000Y7500D02*
X159000D01*
X157500Y6000D02*
Y9000D01*
X141000Y7500D02*
X144000D01*
X142500Y6000D02*
Y9000D01*
X126000Y7500D02*
X129000D01*
X127500Y6000D02*
Y9000D01*
X111000Y7500D02*
X114000D01*
X112500Y6000D02*
Y9000D01*
X81000Y7500D02*
X84000D01*
X82500Y6000D02*
Y9000D01*
X66000Y7500D02*
X69000D01*
X67500Y6000D02*
Y9000D01*
X51000Y7500D02*
X54000D01*
X52500Y6000D02*
Y9000D01*
X350544Y131826D02*
X353544D01*
X352044Y130326D02*
Y133326D01*
X199414Y147828D02*
X202414D01*
X200914Y146328D02*
Y149328D01*
X176808Y147066D02*
X179808D01*
X178308Y145566D02*
Y148566D01*
X191540Y153416D02*
X194540D01*
X193040Y151916D02*
Y154916D01*
X185273Y147620D02*
X188273D01*
X186773Y146120D02*
Y149120D01*
X81500Y187000D02*
X84500D01*
X83000Y185500D02*
Y188500D01*
X159282Y184150D02*
X162282D01*
X160782Y182650D02*
Y185650D01*
X160044Y176784D02*
X163044D01*
X161544Y175284D02*
Y178284D01*
X176500Y180000D02*
X179500D01*
X178000Y178500D02*
Y181500D01*
X349500Y120000D02*
X352500D01*
X351000Y118500D02*
Y121500D01*
X183400Y163500D02*
X186400D01*
X184900Y162000D02*
Y165000D01*
X194200Y175000D02*
X197200D01*
X195700Y173500D02*
Y176500D01*
X199700Y179900D02*
X202700D01*
X201200Y178400D02*
Y181400D01*
X200750Y173500D02*
X203750D01*
X202250Y172000D02*
Y175000D01*
X183100Y173100D02*
X186100D01*
X184600Y171600D02*
Y174600D01*
X82500Y121000D02*
X85500D01*
X84000Y119500D02*
Y122500D01*
X185000Y197750D02*
X188000D01*
X186500Y196250D02*
Y199250D01*
X208000Y197750D02*
X211000D01*
X209500Y196250D02*
Y199250D01*
X206750Y179250D02*
X209750D01*
X208250Y177750D02*
Y180750D01*
X192500Y199000D02*
X195500D01*
X194000Y197500D02*
Y200500D01*
X201000Y163500D02*
X204000D01*
X202500Y162000D02*
Y165000D01*
X178000Y197750D02*
X181000D01*
X179500Y196250D02*
Y199250D01*
X201000Y198250D02*
X204000D01*
X202500Y196750D02*
Y199750D01*
X207000Y185750D02*
X210000D01*
X208500Y184250D02*
Y187250D01*
X191500Y163700D02*
X194500D01*
X193000Y162200D02*
Y165200D01*
M02*
