G04*
G04 #@! TF.GenerationSoftware,Altium Limited,Altium Designer,21.6.4 (81)*
G04*
G04 Layer_Color=2752767*
%FSLAX44Y44*%
%MOMM*%
G71*
G04*
G04 #@! TF.SameCoordinates,816F8A91-06EC-47E4-87ED-5788FB9A99D2*
G04*
G04*
G04 #@! TF.FilePolarity,Positive*
G04*
G01*
G75*
%ADD50C,0.0508*%
%ADD55C,0.0677*%
D50*
X356458Y92518D02*
Y96582D01*
X360522D01*
Y92518D01*
X356458D01*
X376778D02*
Y96582D01*
X380842D01*
Y92518D01*
X376778D01*
X366618Y143318D02*
Y147382D01*
X370682D01*
Y143318D01*
X366618D01*
X375000Y22968D02*
X372968Y27032D01*
X377032D01*
X375000Y22968D01*
X25000D02*
X22968Y27032D01*
X27032D01*
X25000Y22968D01*
X184250Y105218D02*
X185266Y106234D01*
X186282D01*
X185266Y107250D01*
X186282Y108266D01*
X185266D01*
X184250Y109282D01*
X183234Y108266D01*
X182218D01*
X183234Y107250D01*
X182218Y106234D01*
X183234D01*
X184250Y105218D01*
X199480Y124296D02*
X200496Y125312D01*
X201512D01*
X200496Y126328D01*
X201512Y127344D01*
X200496D01*
X199480Y128360D01*
X198464Y127344D01*
X197448D01*
X198464Y126328D01*
X197448Y125312D01*
X198464D01*
X199480Y124296D01*
X211000Y205968D02*
X212016Y206984D01*
X213032D01*
X212016Y208000D01*
X213032Y209016D01*
X212016D01*
X211000Y210032D01*
X209984Y209016D01*
X208968D01*
X209984Y208000D01*
X208968Y206984D01*
X209984D01*
X211000Y205968D01*
X383000D02*
X384016Y206984D01*
X385032D01*
X384016Y208000D01*
X385032Y209016D01*
X384016D01*
X383000Y210032D01*
X381984Y209016D01*
X380968D01*
X381984Y208000D01*
X380968Y206984D01*
X381984D01*
X383000Y205968D01*
Y190968D02*
X384016Y191984D01*
X385032D01*
X384016Y193000D01*
X385032Y194016D01*
X384016D01*
X383000Y195032D01*
X381984Y194016D01*
X380968D01*
X381984Y193000D01*
X380968Y191984D01*
X381984D01*
X383000Y190968D01*
Y175968D02*
X384016Y176984D01*
X385032D01*
X384016Y178000D01*
X385032Y179016D01*
X384016D01*
X383000Y180032D01*
X381984Y179016D01*
X380968D01*
X381984Y178000D01*
X380968Y176984D01*
X381984D01*
X383000Y175968D01*
Y160968D02*
X384016Y161984D01*
X385032D01*
X384016Y163000D01*
X385032Y164016D01*
X384016D01*
X383000Y165032D01*
X381984Y164016D01*
X380968D01*
X381984Y163000D01*
X380968Y161984D01*
X381984D01*
X383000Y160968D01*
Y100968D02*
X384016Y101984D01*
X385032D01*
X384016Y103000D01*
X385032Y104016D01*
X384016D01*
X383000Y105032D01*
X381984Y104016D01*
X380968D01*
X381984Y103000D01*
X380968Y101984D01*
X381984D01*
X383000Y100968D01*
Y70968D02*
X384016Y71984D01*
X385032D01*
X384016Y73000D01*
X385032Y74016D01*
X384016D01*
X383000Y75032D01*
X381984Y74016D01*
X380968D01*
X381984Y73000D01*
X380968Y71984D01*
X381984D01*
X383000Y70968D01*
Y55968D02*
X384016Y56984D01*
X385032D01*
X384016Y58000D01*
X385032Y59016D01*
X384016D01*
X383000Y60032D01*
X381984Y59016D01*
X380968D01*
X381984Y58000D01*
X380968Y56984D01*
X381984D01*
X383000Y55968D01*
X368000Y205968D02*
X369016Y206984D01*
X370032D01*
X369016Y208000D01*
X370032Y209016D01*
X369016D01*
X368000Y210032D01*
X366984Y209016D01*
X365968D01*
X366984Y208000D01*
X365968Y206984D01*
X366984D01*
X368000Y205968D01*
Y190968D02*
X369016Y191984D01*
X370032D01*
X369016Y193000D01*
X370032Y194016D01*
X369016D01*
X368000Y195032D01*
X366984Y194016D01*
X365968D01*
X366984Y193000D01*
X365968Y191984D01*
X366984D01*
X368000Y190968D01*
Y175968D02*
X369016Y176984D01*
X370032D01*
X369016Y178000D01*
X370032Y179016D01*
X369016D01*
X368000Y180032D01*
X366984Y179016D01*
X365968D01*
X366984Y178000D01*
X365968Y176984D01*
X366984D01*
X368000Y175968D01*
Y160968D02*
X369016Y161984D01*
X370032D01*
X369016Y163000D01*
X370032Y164016D01*
X369016D01*
X368000Y165032D01*
X366984Y164016D01*
X365968D01*
X366984Y163000D01*
X365968Y161984D01*
X366984D01*
X368000Y160968D01*
Y85968D02*
X369016Y86984D01*
X370032D01*
X369016Y88000D01*
X370032Y89016D01*
X369016D01*
X368000Y90032D01*
X366984Y89016D01*
X365968D01*
X366984Y88000D01*
X365968Y86984D01*
X366984D01*
X368000Y85968D01*
Y55968D02*
X369016Y56984D01*
X370032D01*
X369016Y58000D01*
X370032Y59016D01*
X369016D01*
X368000Y60032D01*
X366984Y59016D01*
X365968D01*
X366984Y58000D01*
X365968Y56984D01*
X366984D01*
X368000Y55968D01*
X353000Y205968D02*
X354016Y206984D01*
X355032D01*
X354016Y208000D01*
X355032Y209016D01*
X354016D01*
X353000Y210032D01*
X351984Y209016D01*
X350968D01*
X351984Y208000D01*
X350968Y206984D01*
X351984D01*
X353000Y205968D01*
Y190968D02*
X354016Y191984D01*
X355032D01*
X354016Y193000D01*
X355032Y194016D01*
X354016D01*
X353000Y195032D01*
X351984Y194016D01*
X350968D01*
X351984Y193000D01*
X350968Y191984D01*
X351984D01*
X353000Y190968D01*
Y175968D02*
X354016Y176984D01*
X355032D01*
X354016Y178000D01*
X355032Y179016D01*
X354016D01*
X353000Y180032D01*
X351984Y179016D01*
X350968D01*
X351984Y178000D01*
X350968Y176984D01*
X351984D01*
X353000Y175968D01*
Y160968D02*
X354016Y161984D01*
X355032D01*
X354016Y163000D01*
X355032Y164016D01*
X354016D01*
X353000Y165032D01*
X351984Y164016D01*
X350968D01*
X351984Y163000D01*
X350968Y161984D01*
X351984D01*
X353000Y160968D01*
Y145968D02*
X354016Y146984D01*
X355032D01*
X354016Y148000D01*
X355032Y149016D01*
X354016D01*
X353000Y150032D01*
X351984Y149016D01*
X350968D01*
X351984Y148000D01*
X350968Y146984D01*
X351984D01*
X353000Y145968D01*
Y55968D02*
X354016Y56984D01*
X355032D01*
X354016Y58000D01*
X355032Y59016D01*
X354016D01*
X353000Y60032D01*
X351984Y59016D01*
X350968D01*
X351984Y58000D01*
X350968Y56984D01*
X351984D01*
X353000Y55968D01*
Y40968D02*
X354016Y41984D01*
X355032D01*
X354016Y43000D01*
X355032Y44016D01*
X354016D01*
X353000Y45032D01*
X351984Y44016D01*
X350968D01*
X351984Y43000D01*
X350968Y41984D01*
X351984D01*
X353000Y40968D01*
Y25968D02*
X354016Y26984D01*
X355032D01*
X354016Y28000D01*
X355032Y29016D01*
X354016D01*
X353000Y30032D01*
X351984Y29016D01*
X350968D01*
X351984Y28000D01*
X350968Y26984D01*
X351984D01*
X353000Y25968D01*
X338000Y205968D02*
X339016Y206984D01*
X340032D01*
X339016Y208000D01*
X340032Y209016D01*
X339016D01*
X338000Y210032D01*
X336984Y209016D01*
X335968D01*
X336984Y208000D01*
X335968Y206984D01*
X336984D01*
X338000Y205968D01*
Y190968D02*
X339016Y191984D01*
X340032D01*
X339016Y193000D01*
X340032Y194016D01*
X339016D01*
X338000Y195032D01*
X336984Y194016D01*
X335968D01*
X336984Y193000D01*
X335968Y191984D01*
X336984D01*
X338000Y190968D01*
Y175968D02*
X339016Y176984D01*
X340032D01*
X339016Y178000D01*
X340032Y179016D01*
X339016D01*
X338000Y180032D01*
X336984Y179016D01*
X335968D01*
X336984Y178000D01*
X335968Y176984D01*
X336984D01*
X338000Y175968D01*
Y160968D02*
X339016Y161984D01*
X340032D01*
X339016Y163000D01*
X340032Y164016D01*
X339016D01*
X338000Y165032D01*
X336984Y164016D01*
X335968D01*
X336984Y163000D01*
X335968Y161984D01*
X336984D01*
X338000Y160968D01*
Y145968D02*
X339016Y146984D01*
X340032D01*
X339016Y148000D01*
X340032Y149016D01*
X339016D01*
X338000Y150032D01*
X336984Y149016D01*
X335968D01*
X336984Y148000D01*
X335968Y146984D01*
X336984D01*
X338000Y145968D01*
Y130968D02*
X339016Y131984D01*
X340032D01*
X339016Y133000D01*
X340032Y134016D01*
X339016D01*
X338000Y135032D01*
X336984Y134016D01*
X335968D01*
X336984Y133000D01*
X335968Y131984D01*
X336984D01*
X338000Y130968D01*
Y100968D02*
X339016Y101984D01*
X340032D01*
X339016Y103000D01*
X340032Y104016D01*
X339016D01*
X338000Y105032D01*
X336984Y104016D01*
X335968D01*
X336984Y103000D01*
X335968Y101984D01*
X336984D01*
X338000Y100968D01*
Y70968D02*
X339016Y71984D01*
X340032D01*
X339016Y73000D01*
X340032Y74016D01*
X339016D01*
X338000Y75032D01*
X336984Y74016D01*
X335968D01*
X336984Y73000D01*
X335968Y71984D01*
X336984D01*
X338000Y70968D01*
Y55968D02*
X339016Y56984D01*
X340032D01*
X339016Y58000D01*
X340032Y59016D01*
X339016D01*
X338000Y60032D01*
X336984Y59016D01*
X335968D01*
X336984Y58000D01*
X335968Y56984D01*
X336984D01*
X338000Y55968D01*
Y40968D02*
X339016Y41984D01*
X340032D01*
X339016Y43000D01*
X340032Y44016D01*
X339016D01*
X338000Y45032D01*
X336984Y44016D01*
X335968D01*
X336984Y43000D01*
X335968Y41984D01*
X336984D01*
X338000Y40968D01*
Y25968D02*
X339016Y26984D01*
X340032D01*
X339016Y28000D01*
X340032Y29016D01*
X339016D01*
X338000Y30032D01*
X336984Y29016D01*
X335968D01*
X336984Y28000D01*
X335968Y26984D01*
X336984D01*
X338000Y25968D01*
X323000Y205968D02*
X324016Y206984D01*
X325032D01*
X324016Y208000D01*
X325032Y209016D01*
X324016D01*
X323000Y210032D01*
X321984Y209016D01*
X320968D01*
X321984Y208000D01*
X320968Y206984D01*
X321984D01*
X323000Y205968D01*
Y190968D02*
X324016Y191984D01*
X325032D01*
X324016Y193000D01*
X325032Y194016D01*
X324016D01*
X323000Y195032D01*
X321984Y194016D01*
X320968D01*
X321984Y193000D01*
X320968Y191984D01*
X321984D01*
X323000Y190968D01*
Y175968D02*
X324016Y176984D01*
X325032D01*
X324016Y178000D01*
X325032Y179016D01*
X324016D01*
X323000Y180032D01*
X321984Y179016D01*
X320968D01*
X321984Y178000D01*
X320968Y176984D01*
X321984D01*
X323000Y175968D01*
Y160968D02*
X324016Y161984D01*
X325032D01*
X324016Y163000D01*
X325032Y164016D01*
X324016D01*
X323000Y165032D01*
X321984Y164016D01*
X320968D01*
X321984Y163000D01*
X320968Y161984D01*
X321984D01*
X323000Y160968D01*
Y145968D02*
X324016Y146984D01*
X325032D01*
X324016Y148000D01*
X325032Y149016D01*
X324016D01*
X323000Y150032D01*
X321984Y149016D01*
X320968D01*
X321984Y148000D01*
X320968Y146984D01*
X321984D01*
X323000Y145968D01*
Y130968D02*
X324016Y131984D01*
X325032D01*
X324016Y133000D01*
X325032Y134016D01*
X324016D01*
X323000Y135032D01*
X321984Y134016D01*
X320968D01*
X321984Y133000D01*
X320968Y131984D01*
X321984D01*
X323000Y130968D01*
Y85968D02*
X324016Y86984D01*
X325032D01*
X324016Y88000D01*
X325032Y89016D01*
X324016D01*
X323000Y90032D01*
X321984Y89016D01*
X320968D01*
X321984Y88000D01*
X320968Y86984D01*
X321984D01*
X323000Y85968D01*
Y55968D02*
X324016Y56984D01*
X325032D01*
X324016Y58000D01*
X325032Y59016D01*
X324016D01*
X323000Y60032D01*
X321984Y59016D01*
X320968D01*
X321984Y58000D01*
X320968Y56984D01*
X321984D01*
X323000Y55968D01*
Y40968D02*
X324016Y41984D01*
X325032D01*
X324016Y43000D01*
X325032Y44016D01*
X324016D01*
X323000Y45032D01*
X321984Y44016D01*
X320968D01*
X321984Y43000D01*
X320968Y41984D01*
X321984D01*
X323000Y40968D01*
Y25968D02*
X324016Y26984D01*
X325032D01*
X324016Y28000D01*
X325032Y29016D01*
X324016D01*
X323000Y30032D01*
X321984Y29016D01*
X320968D01*
X321984Y28000D01*
X320968Y26984D01*
X321984D01*
X323000Y25968D01*
X308000Y205968D02*
X309016Y206984D01*
X310032D01*
X309016Y208000D01*
X310032Y209016D01*
X309016D01*
X308000Y210032D01*
X306984Y209016D01*
X305968D01*
X306984Y208000D01*
X305968Y206984D01*
X306984D01*
X308000Y205968D01*
Y190968D02*
X309016Y191984D01*
X310032D01*
X309016Y193000D01*
X310032Y194016D01*
X309016D01*
X308000Y195032D01*
X306984Y194016D01*
X305968D01*
X306984Y193000D01*
X305968Y191984D01*
X306984D01*
X308000Y190968D01*
Y175968D02*
X309016Y176984D01*
X310032D01*
X309016Y178000D01*
X310032Y179016D01*
X309016D01*
X308000Y180032D01*
X306984Y179016D01*
X305968D01*
X306984Y178000D01*
X305968Y176984D01*
X306984D01*
X308000Y175968D01*
Y160968D02*
X309016Y161984D01*
X310032D01*
X309016Y163000D01*
X310032Y164016D01*
X309016D01*
X308000Y165032D01*
X306984Y164016D01*
X305968D01*
X306984Y163000D01*
X305968Y161984D01*
X306984D01*
X308000Y160968D01*
Y145968D02*
X309016Y146984D01*
X310032D01*
X309016Y148000D01*
X310032Y149016D01*
X309016D01*
X308000Y150032D01*
X306984Y149016D01*
X305968D01*
X306984Y148000D01*
X305968Y146984D01*
X306984D01*
X308000Y145968D01*
Y130968D02*
X309016Y131984D01*
X310032D01*
X309016Y133000D01*
X310032Y134016D01*
X309016D01*
X308000Y135032D01*
X306984Y134016D01*
X305968D01*
X306984Y133000D01*
X305968Y131984D01*
X306984D01*
X308000Y130968D01*
Y100968D02*
X309016Y101984D01*
X310032D01*
X309016Y103000D01*
X310032Y104016D01*
X309016D01*
X308000Y105032D01*
X306984Y104016D01*
X305968D01*
X306984Y103000D01*
X305968Y101984D01*
X306984D01*
X308000Y100968D01*
Y85968D02*
X309016Y86984D01*
X310032D01*
X309016Y88000D01*
X310032Y89016D01*
X309016D01*
X308000Y90032D01*
X306984Y89016D01*
X305968D01*
X306984Y88000D01*
X305968Y86984D01*
X306984D01*
X308000Y85968D01*
Y70968D02*
X309016Y71984D01*
X310032D01*
X309016Y73000D01*
X310032Y74016D01*
X309016D01*
X308000Y75032D01*
X306984Y74016D01*
X305968D01*
X306984Y73000D01*
X305968Y71984D01*
X306984D01*
X308000Y70968D01*
Y40968D02*
X309016Y41984D01*
X310032D01*
X309016Y43000D01*
X310032Y44016D01*
X309016D01*
X308000Y45032D01*
X306984Y44016D01*
X305968D01*
X306984Y43000D01*
X305968Y41984D01*
X306984D01*
X308000Y40968D01*
Y25968D02*
X309016Y26984D01*
X310032D01*
X309016Y28000D01*
X310032Y29016D01*
X309016D01*
X308000Y30032D01*
X306984Y29016D01*
X305968D01*
X306984Y28000D01*
X305968Y26984D01*
X306984D01*
X308000Y25968D01*
X293000Y205968D02*
X294016Y206984D01*
X295032D01*
X294016Y208000D01*
X295032Y209016D01*
X294016D01*
X293000Y210032D01*
X291984Y209016D01*
X290968D01*
X291984Y208000D01*
X290968Y206984D01*
X291984D01*
X293000Y205968D01*
Y190968D02*
X294016Y191984D01*
X295032D01*
X294016Y193000D01*
X295032Y194016D01*
X294016D01*
X293000Y195032D01*
X291984Y194016D01*
X290968D01*
X291984Y193000D01*
X290968Y191984D01*
X291984D01*
X293000Y190968D01*
Y175968D02*
X294016Y176984D01*
X295032D01*
X294016Y178000D01*
X295032Y179016D01*
X294016D01*
X293000Y180032D01*
X291984Y179016D01*
X290968D01*
X291984Y178000D01*
X290968Y176984D01*
X291984D01*
X293000Y175968D01*
Y160968D02*
X294016Y161984D01*
X295032D01*
X294016Y163000D01*
X295032Y164016D01*
X294016D01*
X293000Y165032D01*
X291984Y164016D01*
X290968D01*
X291984Y163000D01*
X290968Y161984D01*
X291984D01*
X293000Y160968D01*
Y145968D02*
X294016Y146984D01*
X295032D01*
X294016Y148000D01*
X295032Y149016D01*
X294016D01*
X293000Y150032D01*
X291984Y149016D01*
X290968D01*
X291984Y148000D01*
X290968Y146984D01*
X291984D01*
X293000Y145968D01*
Y130968D02*
X294016Y131984D01*
X295032D01*
X294016Y133000D01*
X295032Y134016D01*
X294016D01*
X293000Y135032D01*
X291984Y134016D01*
X290968D01*
X291984Y133000D01*
X290968Y131984D01*
X291984D01*
X293000Y130968D01*
Y100968D02*
X294016Y101984D01*
X295032D01*
X294016Y103000D01*
X295032Y104016D01*
X294016D01*
X293000Y105032D01*
X291984Y104016D01*
X290968D01*
X291984Y103000D01*
X290968Y101984D01*
X291984D01*
X293000Y100968D01*
Y85968D02*
X294016Y86984D01*
X295032D01*
X294016Y88000D01*
X295032Y89016D01*
X294016D01*
X293000Y90032D01*
X291984Y89016D01*
X290968D01*
X291984Y88000D01*
X290968Y86984D01*
X291984D01*
X293000Y85968D01*
Y70968D02*
X294016Y71984D01*
X295032D01*
X294016Y73000D01*
X295032Y74016D01*
X294016D01*
X293000Y75032D01*
X291984Y74016D01*
X290968D01*
X291984Y73000D01*
X290968Y71984D01*
X291984D01*
X293000Y70968D01*
X278000Y175968D02*
X279016Y176984D01*
X280032D01*
X279016Y178000D01*
X280032Y179016D01*
X279016D01*
X278000Y180032D01*
X276984Y179016D01*
X275968D01*
X276984Y178000D01*
X275968Y176984D01*
X276984D01*
X278000Y175968D01*
Y160968D02*
X279016Y161984D01*
X280032D01*
X279016Y163000D01*
X280032Y164016D01*
X279016D01*
X278000Y165032D01*
X276984Y164016D01*
X275968D01*
X276984Y163000D01*
X275968Y161984D01*
X276984D01*
X278000Y160968D01*
Y145968D02*
X279016Y146984D01*
X280032D01*
X279016Y148000D01*
X280032Y149016D01*
X279016D01*
X278000Y150032D01*
X276984Y149016D01*
X275968D01*
X276984Y148000D01*
X275968Y146984D01*
X276984D01*
X278000Y145968D01*
Y130968D02*
X279016Y131984D01*
X280032D01*
X279016Y133000D01*
X280032Y134016D01*
X279016D01*
X278000Y135032D01*
X276984Y134016D01*
X275968D01*
X276984Y133000D01*
X275968Y131984D01*
X276984D01*
X278000Y130968D01*
Y100968D02*
X279016Y101984D01*
X280032D01*
X279016Y103000D01*
X280032Y104016D01*
X279016D01*
X278000Y105032D01*
X276984Y104016D01*
X275968D01*
X276984Y103000D01*
X275968Y101984D01*
X276984D01*
X278000Y100968D01*
Y85968D02*
X279016Y86984D01*
X280032D01*
X279016Y88000D01*
X280032Y89016D01*
X279016D01*
X278000Y90032D01*
X276984Y89016D01*
X275968D01*
X276984Y88000D01*
X275968Y86984D01*
X276984D01*
X278000Y85968D01*
Y25968D02*
X279016Y26984D01*
X280032D01*
X279016Y28000D01*
X280032Y29016D01*
X279016D01*
X278000Y30032D01*
X276984Y29016D01*
X275968D01*
X276984Y28000D01*
X275968Y26984D01*
X276984D01*
X278000Y25968D01*
X263000Y145968D02*
X264016Y146984D01*
X265032D01*
X264016Y148000D01*
X265032Y149016D01*
X264016D01*
X263000Y150032D01*
X261984Y149016D01*
X260968D01*
X261984Y148000D01*
X260968Y146984D01*
X261984D01*
X263000Y145968D01*
Y130968D02*
X264016Y131984D01*
X265032D01*
X264016Y133000D01*
X265032Y134016D01*
X264016D01*
X263000Y135032D01*
X261984Y134016D01*
X260968D01*
X261984Y133000D01*
X260968Y131984D01*
X261984D01*
X263000Y130968D01*
Y25968D02*
X264016Y26984D01*
X265032D01*
X264016Y28000D01*
X265032Y29016D01*
X264016D01*
X263000Y30032D01*
X261984Y29016D01*
X260968D01*
X261984Y28000D01*
X260968Y26984D01*
X261984D01*
X263000Y25968D01*
X248000Y145968D02*
X249016Y146984D01*
X250032D01*
X249016Y148000D01*
X250032Y149016D01*
X249016D01*
X248000Y150032D01*
X246984Y149016D01*
X245968D01*
X246984Y148000D01*
X245968Y146984D01*
X246984D01*
X248000Y145968D01*
Y130968D02*
X249016Y131984D01*
X250032D01*
X249016Y133000D01*
X250032Y134016D01*
X249016D01*
X248000Y135032D01*
X246984Y134016D01*
X245968D01*
X246984Y133000D01*
X245968Y131984D01*
X246984D01*
X248000Y130968D01*
Y100968D02*
X249016Y101984D01*
X250032D01*
X249016Y103000D01*
X250032Y104016D01*
X249016D01*
X248000Y105032D01*
X246984Y104016D01*
X245968D01*
X246984Y103000D01*
X245968Y101984D01*
X246984D01*
X248000Y100968D01*
Y70968D02*
X249016Y71984D01*
X250032D01*
X249016Y73000D01*
X250032Y74016D01*
X249016D01*
X248000Y75032D01*
X246984Y74016D01*
X245968D01*
X246984Y73000D01*
X245968Y71984D01*
X246984D01*
X248000Y70968D01*
Y55968D02*
X249016Y56984D01*
X250032D01*
X249016Y58000D01*
X250032Y59016D01*
X249016D01*
X248000Y60032D01*
X246984Y59016D01*
X245968D01*
X246984Y58000D01*
X245968Y56984D01*
X246984D01*
X248000Y55968D01*
Y25968D02*
X249016Y26984D01*
X250032D01*
X249016Y28000D01*
X250032Y29016D01*
X249016D01*
X248000Y30032D01*
X246984Y29016D01*
X245968D01*
X246984Y28000D01*
X245968Y26984D01*
X246984D01*
X248000Y25968D01*
X233000Y100968D02*
X234016Y101984D01*
X235032D01*
X234016Y103000D01*
X235032Y104016D01*
X234016D01*
X233000Y105032D01*
X231984Y104016D01*
X230968D01*
X231984Y103000D01*
X230968Y101984D01*
X231984D01*
X233000Y100968D01*
Y70968D02*
X234016Y71984D01*
X235032D01*
X234016Y73000D01*
X235032Y74016D01*
X234016D01*
X233000Y75032D01*
X231984Y74016D01*
X230968D01*
X231984Y73000D01*
X230968Y71984D01*
X231984D01*
X233000Y70968D01*
Y25968D02*
X234016Y26984D01*
X235032D01*
X234016Y28000D01*
X235032Y29016D01*
X234016D01*
X233000Y30032D01*
X231984Y29016D01*
X230968D01*
X231984Y28000D01*
X230968Y26984D01*
X231984D01*
X233000Y25968D01*
X218000D02*
X219016Y26984D01*
X220032D01*
X219016Y28000D01*
X220032Y29016D01*
X219016D01*
X218000Y30032D01*
X216984Y29016D01*
X215968D01*
X216984Y28000D01*
X215968Y26984D01*
X216984D01*
X218000Y25968D01*
X203000Y205968D02*
X204016Y206984D01*
X205032D01*
X204016Y208000D01*
X205032Y209016D01*
X204016D01*
X203000Y210032D01*
X201984Y209016D01*
X200968D01*
X201984Y208000D01*
X200968Y206984D01*
X201984D01*
X203000Y205968D01*
Y55968D02*
X204016Y56984D01*
X205032D01*
X204016Y58000D01*
X205032Y59016D01*
X204016D01*
X203000Y60032D01*
X201984Y59016D01*
X200968D01*
X201984Y58000D01*
X200968Y56984D01*
X201984D01*
X203000Y55968D01*
Y25968D02*
X204016Y26984D01*
X205032D01*
X204016Y28000D01*
X205032Y29016D01*
X204016D01*
X203000Y30032D01*
X201984Y29016D01*
X200968D01*
X201984Y28000D01*
X200968Y26984D01*
X201984D01*
X203000Y25968D01*
X188000Y205968D02*
X189016Y206984D01*
X190032D01*
X189016Y208000D01*
X190032Y209016D01*
X189016D01*
X188000Y210032D01*
X186984Y209016D01*
X185968D01*
X186984Y208000D01*
X185968Y206984D01*
X186984D01*
X188000Y205968D01*
Y25968D02*
X189016Y26984D01*
X190032D01*
X189016Y28000D01*
X190032Y29016D01*
X189016D01*
X188000Y30032D01*
X186984Y29016D01*
X185968D01*
X186984Y28000D01*
X185968Y26984D01*
X186984D01*
X188000Y25968D01*
X173000Y205968D02*
X174016Y206984D01*
X175032D01*
X174016Y208000D01*
X175032Y209016D01*
X174016D01*
X173000Y210032D01*
X171984Y209016D01*
X170968D01*
X171984Y208000D01*
X170968Y206984D01*
X171984D01*
X173000Y205968D01*
Y85968D02*
X174016Y86984D01*
X175032D01*
X174016Y88000D01*
X175032Y89016D01*
X174016D01*
X173000Y90032D01*
X171984Y89016D01*
X170968D01*
X171984Y88000D01*
X170968Y86984D01*
X171984D01*
X173000Y85968D01*
Y70968D02*
X174016Y71984D01*
X175032D01*
X174016Y73000D01*
X175032Y74016D01*
X174016D01*
X173000Y75032D01*
X171984Y74016D01*
X170968D01*
X171984Y73000D01*
X170968Y71984D01*
X171984D01*
X173000Y70968D01*
Y55968D02*
X174016Y56984D01*
X175032D01*
X174016Y58000D01*
X175032Y59016D01*
X174016D01*
X173000Y60032D01*
X171984Y59016D01*
X170968D01*
X171984Y58000D01*
X170968Y56984D01*
X171984D01*
X173000Y55968D01*
Y25968D02*
X174016Y26984D01*
X175032D01*
X174016Y28000D01*
X175032Y29016D01*
X174016D01*
X173000Y30032D01*
X171984Y29016D01*
X170968D01*
X171984Y28000D01*
X170968Y26984D01*
X171984D01*
X173000Y25968D01*
X158000Y205968D02*
X159016Y206984D01*
X160032D01*
X159016Y208000D01*
X160032Y209016D01*
X159016D01*
X158000Y210032D01*
X156984Y209016D01*
X155968D01*
X156984Y208000D01*
X155968Y206984D01*
X156984D01*
X158000Y205968D01*
Y25968D02*
X159016Y26984D01*
X160032D01*
X159016Y28000D01*
X160032Y29016D01*
X159016D01*
X158000Y30032D01*
X156984Y29016D01*
X155968D01*
X156984Y28000D01*
X155968Y26984D01*
X156984D01*
X158000Y25968D01*
X143000Y205968D02*
X144016Y206984D01*
X145032D01*
X144016Y208000D01*
X145032Y209016D01*
X144016D01*
X143000Y210032D01*
X141984Y209016D01*
X140968D01*
X141984Y208000D01*
X140968Y206984D01*
X141984D01*
X143000Y205968D01*
Y160968D02*
X144016Y161984D01*
X145032D01*
X144016Y163000D01*
X145032Y164016D01*
X144016D01*
X143000Y165032D01*
X141984Y164016D01*
X140968D01*
X141984Y163000D01*
X140968Y161984D01*
X141984D01*
X143000Y160968D01*
Y115968D02*
X144016Y116984D01*
X145032D01*
X144016Y118000D01*
X145032Y119016D01*
X144016D01*
X143000Y120032D01*
X141984Y119016D01*
X140968D01*
X141984Y118000D01*
X140968Y116984D01*
X141984D01*
X143000Y115968D01*
Y100968D02*
X144016Y101984D01*
X145032D01*
X144016Y103000D01*
X145032Y104016D01*
X144016D01*
X143000Y105032D01*
X141984Y104016D01*
X140968D01*
X141984Y103000D01*
X140968Y101984D01*
X141984D01*
X143000Y100968D01*
Y70968D02*
X144016Y71984D01*
X145032D01*
X144016Y73000D01*
X145032Y74016D01*
X144016D01*
X143000Y75032D01*
X141984Y74016D01*
X140968D01*
X141984Y73000D01*
X140968Y71984D01*
X141984D01*
X143000Y70968D01*
Y55968D02*
X144016Y56984D01*
X145032D01*
X144016Y58000D01*
X145032Y59016D01*
X144016D01*
X143000Y60032D01*
X141984Y59016D01*
X140968D01*
X141984Y58000D01*
X140968Y56984D01*
X141984D01*
X143000Y55968D01*
Y25968D02*
X144016Y26984D01*
X145032D01*
X144016Y28000D01*
X145032Y29016D01*
X144016D01*
X143000Y30032D01*
X141984Y29016D01*
X140968D01*
X141984Y28000D01*
X140968Y26984D01*
X141984D01*
X143000Y25968D01*
X128000Y205968D02*
X129016Y206984D01*
X130032D01*
X129016Y208000D01*
X130032Y209016D01*
X129016D01*
X128000Y210032D01*
X126984Y209016D01*
X125968D01*
X126984Y208000D01*
X125968Y206984D01*
X126984D01*
X128000Y205968D01*
Y160968D02*
X129016Y161984D01*
X130032D01*
X129016Y163000D01*
X130032Y164016D01*
X129016D01*
X128000Y165032D01*
X126984Y164016D01*
X125968D01*
X126984Y163000D01*
X125968Y161984D01*
X126984D01*
X128000Y160968D01*
Y145968D02*
X129016Y146984D01*
X130032D01*
X129016Y148000D01*
X130032Y149016D01*
X129016D01*
X128000Y150032D01*
X126984Y149016D01*
X125968D01*
X126984Y148000D01*
X125968Y146984D01*
X126984D01*
X128000Y145968D01*
Y115968D02*
X129016Y116984D01*
X130032D01*
X129016Y118000D01*
X130032Y119016D01*
X129016D01*
X128000Y120032D01*
X126984Y119016D01*
X125968D01*
X126984Y118000D01*
X125968Y116984D01*
X126984D01*
X128000Y115968D01*
Y100968D02*
X129016Y101984D01*
X130032D01*
X129016Y103000D01*
X130032Y104016D01*
X129016D01*
X128000Y105032D01*
X126984Y104016D01*
X125968D01*
X126984Y103000D01*
X125968Y101984D01*
X126984D01*
X128000Y100968D01*
Y85968D02*
X129016Y86984D01*
X130032D01*
X129016Y88000D01*
X130032Y89016D01*
X129016D01*
X128000Y90032D01*
X126984Y89016D01*
X125968D01*
X126984Y88000D01*
X125968Y86984D01*
X126984D01*
X128000Y85968D01*
Y70968D02*
X129016Y71984D01*
X130032D01*
X129016Y73000D01*
X130032Y74016D01*
X129016D01*
X128000Y75032D01*
X126984Y74016D01*
X125968D01*
X126984Y73000D01*
X125968Y71984D01*
X126984D01*
X128000Y70968D01*
Y55968D02*
X129016Y56984D01*
X130032D01*
X129016Y58000D01*
X130032Y59016D01*
X129016D01*
X128000Y60032D01*
X126984Y59016D01*
X125968D01*
X126984Y58000D01*
X125968Y56984D01*
X126984D01*
X128000Y55968D01*
Y25968D02*
X129016Y26984D01*
X130032D01*
X129016Y28000D01*
X130032Y29016D01*
X129016D01*
X128000Y30032D01*
X126984Y29016D01*
X125968D01*
X126984Y28000D01*
X125968Y26984D01*
X126984D01*
X128000Y25968D01*
X113000Y205968D02*
X114016Y206984D01*
X115032D01*
X114016Y208000D01*
X115032Y209016D01*
X114016D01*
X113000Y210032D01*
X111984Y209016D01*
X110968D01*
X111984Y208000D01*
X110968Y206984D01*
X111984D01*
X113000Y205968D01*
Y160968D02*
X114016Y161984D01*
X115032D01*
X114016Y163000D01*
X115032Y164016D01*
X114016D01*
X113000Y165032D01*
X111984Y164016D01*
X110968D01*
X111984Y163000D01*
X110968Y161984D01*
X111984D01*
X113000Y160968D01*
Y145968D02*
X114016Y146984D01*
X115032D01*
X114016Y148000D01*
X115032Y149016D01*
X114016D01*
X113000Y150032D01*
X111984Y149016D01*
X110968D01*
X111984Y148000D01*
X110968Y146984D01*
X111984D01*
X113000Y145968D01*
Y130968D02*
X114016Y131984D01*
X115032D01*
X114016Y133000D01*
X115032Y134016D01*
X114016D01*
X113000Y135032D01*
X111984Y134016D01*
X110968D01*
X111984Y133000D01*
X110968Y131984D01*
X111984D01*
X113000Y130968D01*
Y115968D02*
X114016Y116984D01*
X115032D01*
X114016Y118000D01*
X115032Y119016D01*
X114016D01*
X113000Y120032D01*
X111984Y119016D01*
X110968D01*
X111984Y118000D01*
X110968Y116984D01*
X111984D01*
X113000Y115968D01*
Y100968D02*
X114016Y101984D01*
X115032D01*
X114016Y103000D01*
X115032Y104016D01*
X114016D01*
X113000Y105032D01*
X111984Y104016D01*
X110968D01*
X111984Y103000D01*
X110968Y101984D01*
X111984D01*
X113000Y100968D01*
Y85968D02*
X114016Y86984D01*
X115032D01*
X114016Y88000D01*
X115032Y89016D01*
X114016D01*
X113000Y90032D01*
X111984Y89016D01*
X110968D01*
X111984Y88000D01*
X110968Y86984D01*
X111984D01*
X113000Y85968D01*
Y70968D02*
X114016Y71984D01*
X115032D01*
X114016Y73000D01*
X115032Y74016D01*
X114016D01*
X113000Y75032D01*
X111984Y74016D01*
X110968D01*
X111984Y73000D01*
X110968Y71984D01*
X111984D01*
X113000Y70968D01*
Y55968D02*
X114016Y56984D01*
X115032D01*
X114016Y58000D01*
X115032Y59016D01*
X114016D01*
X113000Y60032D01*
X111984Y59016D01*
X110968D01*
X111984Y58000D01*
X110968Y56984D01*
X111984D01*
X113000Y55968D01*
Y25968D02*
X114016Y26984D01*
X115032D01*
X114016Y28000D01*
X115032Y29016D01*
X114016D01*
X113000Y30032D01*
X111984Y29016D01*
X110968D01*
X111984Y28000D01*
X110968Y26984D01*
X111984D01*
X113000Y25968D01*
X98000Y205968D02*
X99016Y206984D01*
X100032D01*
X99016Y208000D01*
X100032Y209016D01*
X99016D01*
X98000Y210032D01*
X96984Y209016D01*
X95968D01*
X96984Y208000D01*
X95968Y206984D01*
X96984D01*
X98000Y205968D01*
Y190968D02*
X99016Y191984D01*
X100032D01*
X99016Y193000D01*
X100032Y194016D01*
X99016D01*
X98000Y195032D01*
X96984Y194016D01*
X95968D01*
X96984Y193000D01*
X95968Y191984D01*
X96984D01*
X98000Y190968D01*
X83000Y205968D02*
X84016Y206984D01*
X85032D01*
X84016Y208000D01*
X85032Y209016D01*
X84016D01*
X83000Y210032D01*
X81984Y209016D01*
X80968D01*
X81984Y208000D01*
X80968Y206984D01*
X81984D01*
X83000Y205968D01*
Y160968D02*
X84016Y161984D01*
X85032D01*
X84016Y163000D01*
X85032Y164016D01*
X84016D01*
X83000Y165032D01*
X81984Y164016D01*
X80968D01*
X81984Y163000D01*
X80968Y161984D01*
X81984D01*
X83000Y160968D01*
Y145968D02*
X84016Y146984D01*
X85032D01*
X84016Y148000D01*
X85032Y149016D01*
X84016D01*
X83000Y150032D01*
X81984Y149016D01*
X80968D01*
X81984Y148000D01*
X80968Y146984D01*
X81984D01*
X83000Y145968D01*
Y130968D02*
X84016Y131984D01*
X85032D01*
X84016Y133000D01*
X85032Y134016D01*
X84016D01*
X83000Y135032D01*
X81984Y134016D01*
X80968D01*
X81984Y133000D01*
X80968Y131984D01*
X81984D01*
X83000Y130968D01*
Y85968D02*
X84016Y86984D01*
X85032D01*
X84016Y88000D01*
X85032Y89016D01*
X84016D01*
X83000Y90032D01*
X81984Y89016D01*
X80968D01*
X81984Y88000D01*
X80968Y86984D01*
X81984D01*
X83000Y85968D01*
Y70968D02*
X84016Y71984D01*
X85032D01*
X84016Y73000D01*
X85032Y74016D01*
X84016D01*
X83000Y75032D01*
X81984Y74016D01*
X80968D01*
X81984Y73000D01*
X80968Y71984D01*
X81984D01*
X83000Y70968D01*
Y55968D02*
X84016Y56984D01*
X85032D01*
X84016Y58000D01*
X85032Y59016D01*
X84016D01*
X83000Y60032D01*
X81984Y59016D01*
X80968D01*
X81984Y58000D01*
X80968Y56984D01*
X81984D01*
X83000Y55968D01*
Y40968D02*
X84016Y41984D01*
X85032D01*
X84016Y43000D01*
X85032Y44016D01*
X84016D01*
X83000Y45032D01*
X81984Y44016D01*
X80968D01*
X81984Y43000D01*
X80968Y41984D01*
X81984D01*
X83000Y40968D01*
Y25968D02*
X84016Y26984D01*
X85032D01*
X84016Y28000D01*
X85032Y29016D01*
X84016D01*
X83000Y30032D01*
X81984Y29016D01*
X80968D01*
X81984Y28000D01*
X80968Y26984D01*
X81984D01*
X83000Y25968D01*
X68000Y205968D02*
X69016Y206984D01*
X70032D01*
X69016Y208000D01*
X70032Y209016D01*
X69016D01*
X68000Y210032D01*
X66984Y209016D01*
X65968D01*
X66984Y208000D01*
X65968Y206984D01*
X66984D01*
X68000Y205968D01*
Y190968D02*
X69016Y191984D01*
X70032D01*
X69016Y193000D01*
X70032Y194016D01*
X69016D01*
X68000Y195032D01*
X66984Y194016D01*
X65968D01*
X66984Y193000D01*
X65968Y191984D01*
X66984D01*
X68000Y190968D01*
Y160968D02*
X69016Y161984D01*
X70032D01*
X69016Y163000D01*
X70032Y164016D01*
X69016D01*
X68000Y165032D01*
X66984Y164016D01*
X65968D01*
X66984Y163000D01*
X65968Y161984D01*
X66984D01*
X68000Y160968D01*
Y145968D02*
X69016Y146984D01*
X70032D01*
X69016Y148000D01*
X70032Y149016D01*
X69016D01*
X68000Y150032D01*
X66984Y149016D01*
X65968D01*
X66984Y148000D01*
X65968Y146984D01*
X66984D01*
X68000Y145968D01*
Y130968D02*
X69016Y131984D01*
X70032D01*
X69016Y133000D01*
X70032Y134016D01*
X69016D01*
X68000Y135032D01*
X66984Y134016D01*
X65968D01*
X66984Y133000D01*
X65968Y131984D01*
X66984D01*
X68000Y130968D01*
Y85968D02*
X69016Y86984D01*
X70032D01*
X69016Y88000D01*
X70032Y89016D01*
X69016D01*
X68000Y90032D01*
X66984Y89016D01*
X65968D01*
X66984Y88000D01*
X65968Y86984D01*
X66984D01*
X68000Y85968D01*
Y70968D02*
X69016Y71984D01*
X70032D01*
X69016Y73000D01*
X70032Y74016D01*
X69016D01*
X68000Y75032D01*
X66984Y74016D01*
X65968D01*
X66984Y73000D01*
X65968Y71984D01*
X66984D01*
X68000Y70968D01*
Y55968D02*
X69016Y56984D01*
X70032D01*
X69016Y58000D01*
X70032Y59016D01*
X69016D01*
X68000Y60032D01*
X66984Y59016D01*
X65968D01*
X66984Y58000D01*
X65968Y56984D01*
X66984D01*
X68000Y55968D01*
Y40968D02*
X69016Y41984D01*
X70032D01*
X69016Y43000D01*
X70032Y44016D01*
X69016D01*
X68000Y45032D01*
X66984Y44016D01*
X65968D01*
X66984Y43000D01*
X65968Y41984D01*
X66984D01*
X68000Y40968D01*
Y25968D02*
X69016Y26984D01*
X70032D01*
X69016Y28000D01*
X70032Y29016D01*
X69016D01*
X68000Y30032D01*
X66984Y29016D01*
X65968D01*
X66984Y28000D01*
X65968Y26984D01*
X66984D01*
X68000Y25968D01*
X53000Y205968D02*
X54016Y206984D01*
X55032D01*
X54016Y208000D01*
X55032Y209016D01*
X54016D01*
X53000Y210032D01*
X51984Y209016D01*
X50968D01*
X51984Y208000D01*
X50968Y206984D01*
X51984D01*
X53000Y205968D01*
Y190968D02*
X54016Y191984D01*
X55032D01*
X54016Y193000D01*
X55032Y194016D01*
X54016D01*
X53000Y195032D01*
X51984Y194016D01*
X50968D01*
X51984Y193000D01*
X50968Y191984D01*
X51984D01*
X53000Y190968D01*
Y175968D02*
X54016Y176984D01*
X55032D01*
X54016Y178000D01*
X55032Y179016D01*
X54016D01*
X53000Y180032D01*
X51984Y179016D01*
X50968D01*
X51984Y178000D01*
X50968Y176984D01*
X51984D01*
X53000Y175968D01*
Y160968D02*
X54016Y161984D01*
X55032D01*
X54016Y163000D01*
X55032Y164016D01*
X54016D01*
X53000Y165032D01*
X51984Y164016D01*
X50968D01*
X51984Y163000D01*
X50968Y161984D01*
X51984D01*
X53000Y160968D01*
Y145968D02*
X54016Y146984D01*
X55032D01*
X54016Y148000D01*
X55032Y149016D01*
X54016D01*
X53000Y150032D01*
X51984Y149016D01*
X50968D01*
X51984Y148000D01*
X50968Y146984D01*
X51984D01*
X53000Y145968D01*
Y130968D02*
X54016Y131984D01*
X55032D01*
X54016Y133000D01*
X55032Y134016D01*
X54016D01*
X53000Y135032D01*
X51984Y134016D01*
X50968D01*
X51984Y133000D01*
X50968Y131984D01*
X51984D01*
X53000Y130968D01*
Y115968D02*
X54016Y116984D01*
X55032D01*
X54016Y118000D01*
X55032Y119016D01*
X54016D01*
X53000Y120032D01*
X51984Y119016D01*
X50968D01*
X51984Y118000D01*
X50968Y116984D01*
X51984D01*
X53000Y115968D01*
Y100968D02*
X54016Y101984D01*
X55032D01*
X54016Y103000D01*
X55032Y104016D01*
X54016D01*
X53000Y105032D01*
X51984Y104016D01*
X50968D01*
X51984Y103000D01*
X50968Y101984D01*
X51984D01*
X53000Y100968D01*
Y85968D02*
X54016Y86984D01*
X55032D01*
X54016Y88000D01*
X55032Y89016D01*
X54016D01*
X53000Y90032D01*
X51984Y89016D01*
X50968D01*
X51984Y88000D01*
X50968Y86984D01*
X51984D01*
X53000Y85968D01*
Y70968D02*
X54016Y71984D01*
X55032D01*
X54016Y73000D01*
X55032Y74016D01*
X54016D01*
X53000Y75032D01*
X51984Y74016D01*
X50968D01*
X51984Y73000D01*
X50968Y71984D01*
X51984D01*
X53000Y70968D01*
Y55968D02*
X54016Y56984D01*
X55032D01*
X54016Y58000D01*
X55032Y59016D01*
X54016D01*
X53000Y60032D01*
X51984Y59016D01*
X50968D01*
X51984Y58000D01*
X50968Y56984D01*
X51984D01*
X53000Y55968D01*
Y40968D02*
X54016Y41984D01*
X55032D01*
X54016Y43000D01*
X55032Y44016D01*
X54016D01*
X53000Y45032D01*
X51984Y44016D01*
X50968D01*
X51984Y43000D01*
X50968Y41984D01*
X51984D01*
X53000Y40968D01*
Y25968D02*
X54016Y26984D01*
X55032D01*
X54016Y28000D01*
X55032Y29016D01*
X54016D01*
X53000Y30032D01*
X51984Y29016D01*
X50968D01*
X51984Y28000D01*
X50968Y26984D01*
X51984D01*
X53000Y25968D01*
X38000Y205968D02*
X39016Y206984D01*
X40032D01*
X39016Y208000D01*
X40032Y209016D01*
X39016D01*
X38000Y210032D01*
X36984Y209016D01*
X35968D01*
X36984Y208000D01*
X35968Y206984D01*
X36984D01*
X38000Y205968D01*
Y190968D02*
X39016Y191984D01*
X40032D01*
X39016Y193000D01*
X40032Y194016D01*
X39016D01*
X38000Y195032D01*
X36984Y194016D01*
X35968D01*
X36984Y193000D01*
X35968Y191984D01*
X36984D01*
X38000Y190968D01*
Y160968D02*
X39016Y161984D01*
X40032D01*
X39016Y163000D01*
X40032Y164016D01*
X39016D01*
X38000Y165032D01*
X36984Y164016D01*
X35968D01*
X36984Y163000D01*
X35968Y161984D01*
X36984D01*
X38000Y160968D01*
Y145968D02*
X39016Y146984D01*
X40032D01*
X39016Y148000D01*
X40032Y149016D01*
X39016D01*
X38000Y150032D01*
X36984Y149016D01*
X35968D01*
X36984Y148000D01*
X35968Y146984D01*
X36984D01*
X38000Y145968D01*
Y130968D02*
X39016Y131984D01*
X40032D01*
X39016Y133000D01*
X40032Y134016D01*
X39016D01*
X38000Y135032D01*
X36984Y134016D01*
X35968D01*
X36984Y133000D01*
X35968Y131984D01*
X36984D01*
X38000Y130968D01*
Y85968D02*
X39016Y86984D01*
X40032D01*
X39016Y88000D01*
X40032Y89016D01*
X39016D01*
X38000Y90032D01*
X36984Y89016D01*
X35968D01*
X36984Y88000D01*
X35968Y86984D01*
X36984D01*
X38000Y85968D01*
Y70968D02*
X39016Y71984D01*
X40032D01*
X39016Y73000D01*
X40032Y74016D01*
X39016D01*
X38000Y75032D01*
X36984Y74016D01*
X35968D01*
X36984Y73000D01*
X35968Y71984D01*
X36984D01*
X38000Y70968D01*
Y55968D02*
X39016Y56984D01*
X40032D01*
X39016Y58000D01*
X40032Y59016D01*
X39016D01*
X38000Y60032D01*
X36984Y59016D01*
X35968D01*
X36984Y58000D01*
X35968Y56984D01*
X36984D01*
X38000Y55968D01*
Y40968D02*
X39016Y41984D01*
X40032D01*
X39016Y43000D01*
X40032Y44016D01*
X39016D01*
X38000Y45032D01*
X36984Y44016D01*
X35968D01*
X36984Y43000D01*
X35968Y41984D01*
X36984D01*
X38000Y40968D01*
X23000Y205968D02*
X24016Y206984D01*
X25032D01*
X24016Y208000D01*
X25032Y209016D01*
X24016D01*
X23000Y210032D01*
X21984Y209016D01*
X20968D01*
X21984Y208000D01*
X20968Y206984D01*
X21984D01*
X23000Y205968D01*
Y190968D02*
X24016Y191984D01*
X25032D01*
X24016Y193000D01*
X25032Y194016D01*
X24016D01*
X23000Y195032D01*
X21984Y194016D01*
X20968D01*
X21984Y193000D01*
X20968Y191984D01*
X21984D01*
X23000Y190968D01*
Y175968D02*
X24016Y176984D01*
X25032D01*
X24016Y178000D01*
X25032Y179016D01*
X24016D01*
X23000Y180032D01*
X21984Y179016D01*
X20968D01*
X21984Y178000D01*
X20968Y176984D01*
X21984D01*
X23000Y175968D01*
Y160968D02*
X24016Y161984D01*
X25032D01*
X24016Y163000D01*
X25032Y164016D01*
X24016D01*
X23000Y165032D01*
X21984Y164016D01*
X20968D01*
X21984Y163000D01*
X20968Y161984D01*
X21984D01*
X23000Y160968D01*
Y145968D02*
X24016Y146984D01*
X25032D01*
X24016Y148000D01*
X25032Y149016D01*
X24016D01*
X23000Y150032D01*
X21984Y149016D01*
X20968D01*
X21984Y148000D01*
X20968Y146984D01*
X21984D01*
X23000Y145968D01*
Y130968D02*
X24016Y131984D01*
X25032D01*
X24016Y133000D01*
X25032Y134016D01*
X24016D01*
X23000Y135032D01*
X21984Y134016D01*
X20968D01*
X21984Y133000D01*
X20968Y131984D01*
X21984D01*
X23000Y130968D01*
Y115968D02*
X24016Y116984D01*
X25032D01*
X24016Y118000D01*
X25032Y119016D01*
X24016D01*
X23000Y120032D01*
X21984Y119016D01*
X20968D01*
X21984Y118000D01*
X20968Y116984D01*
X21984D01*
X23000Y115968D01*
Y100968D02*
X24016Y101984D01*
X25032D01*
X24016Y103000D01*
X25032Y104016D01*
X24016D01*
X23000Y105032D01*
X21984Y104016D01*
X20968D01*
X21984Y103000D01*
X20968Y101984D01*
X21984D01*
X23000Y100968D01*
Y85968D02*
X24016Y86984D01*
X25032D01*
X24016Y88000D01*
X25032Y89016D01*
X24016D01*
X23000Y90032D01*
X21984Y89016D01*
X20968D01*
X21984Y88000D01*
X20968Y86984D01*
X21984D01*
X23000Y85968D01*
Y70968D02*
X24016Y71984D01*
X25032D01*
X24016Y73000D01*
X25032Y74016D01*
X24016D01*
X23000Y75032D01*
X21984Y74016D01*
X20968D01*
X21984Y73000D01*
X20968Y71984D01*
X21984D01*
X23000Y70968D01*
Y55968D02*
X24016Y56984D01*
X25032D01*
X24016Y58000D01*
X25032Y59016D01*
X24016D01*
X23000Y60032D01*
X21984Y59016D01*
X20968D01*
X21984Y58000D01*
X20968Y56984D01*
X21984D01*
X23000Y55968D01*
X8000Y205968D02*
X9016Y206984D01*
X10032D01*
X9016Y208000D01*
X10032Y209016D01*
X9016D01*
X8000Y210032D01*
X6984Y209016D01*
X5968D01*
X6984Y208000D01*
X5968Y206984D01*
X6984D01*
X8000Y205968D01*
Y190968D02*
X9016Y191984D01*
X10032D01*
X9016Y193000D01*
X10032Y194016D01*
X9016D01*
X8000Y195032D01*
X6984Y194016D01*
X5968D01*
X6984Y193000D01*
X5968Y191984D01*
X6984D01*
X8000Y190968D01*
Y175968D02*
X9016Y176984D01*
X10032D01*
X9016Y178000D01*
X10032Y179016D01*
X9016D01*
X8000Y180032D01*
X6984Y179016D01*
X5968D01*
X6984Y178000D01*
X5968Y176984D01*
X6984D01*
X8000Y175968D01*
Y160968D02*
X9016Y161984D01*
X10032D01*
X9016Y163000D01*
X10032Y164016D01*
X9016D01*
X8000Y165032D01*
X6984Y164016D01*
X5968D01*
X6984Y163000D01*
X5968Y161984D01*
X6984D01*
X8000Y160968D01*
Y145968D02*
X9016Y146984D01*
X10032D01*
X9016Y148000D01*
X10032Y149016D01*
X9016D01*
X8000Y150032D01*
X6984Y149016D01*
X5968D01*
X6984Y148000D01*
X5968Y146984D01*
X6984D01*
X8000Y145968D01*
Y130968D02*
X9016Y131984D01*
X10032D01*
X9016Y133000D01*
X10032Y134016D01*
X9016D01*
X8000Y135032D01*
X6984Y134016D01*
X5968D01*
X6984Y133000D01*
X5968Y131984D01*
X6984D01*
X8000Y130968D01*
Y115968D02*
X9016Y116984D01*
X10032D01*
X9016Y118000D01*
X10032Y119016D01*
X9016D01*
X8000Y120032D01*
X6984Y119016D01*
X5968D01*
X6984Y118000D01*
X5968Y116984D01*
X6984D01*
X8000Y115968D01*
Y100968D02*
X9016Y101984D01*
X10032D01*
X9016Y103000D01*
X10032Y104016D01*
X9016D01*
X8000Y105032D01*
X6984Y104016D01*
X5968D01*
X6984Y103000D01*
X5968Y101984D01*
X6984D01*
X8000Y100968D01*
Y85968D02*
X9016Y86984D01*
X10032D01*
X9016Y88000D01*
X10032Y89016D01*
X9016D01*
X8000Y90032D01*
X6984Y89016D01*
X5968D01*
X6984Y88000D01*
X5968Y86984D01*
X6984D01*
X8000Y85968D01*
Y70968D02*
X9016Y71984D01*
X10032D01*
X9016Y73000D01*
X10032Y74016D01*
X9016D01*
X8000Y75032D01*
X6984Y74016D01*
X5968D01*
X6984Y73000D01*
X5968Y71984D01*
X6984D01*
X8000Y70968D01*
Y55968D02*
X9016Y56984D01*
X10032D01*
X9016Y58000D01*
X10032Y59016D01*
X9016D01*
X8000Y60032D01*
X6984Y59016D01*
X5968D01*
X6984Y58000D01*
X5968Y56984D01*
X6984D01*
X8000Y55968D01*
Y40968D02*
X9016Y41984D01*
X10032D01*
X9016Y43000D01*
X10032Y44016D01*
X9016D01*
X8000Y45032D01*
X6984Y44016D01*
X5968D01*
X6984Y43000D01*
X5968Y41984D01*
X6984D01*
X8000Y40968D01*
X223000Y159968D02*
X224016Y160984D01*
X225032D01*
X224016Y162000D01*
X225032Y163016D01*
X224016D01*
X223000Y164032D01*
X221984Y163016D01*
X220968D01*
X221984Y162000D01*
X220968Y160984D01*
X221984D01*
X223000Y159968D01*
X230000D02*
X231016Y160984D01*
X232032D01*
X231016Y162000D01*
X232032Y163016D01*
X231016D01*
X230000Y164032D01*
X228984Y163016D01*
X227968D01*
X228984Y162000D01*
X227968Y160984D01*
X228984D01*
X230000Y159968D01*
X237000D02*
X238016Y160984D01*
X239032D01*
X238016Y162000D01*
X239032Y163016D01*
X238016D01*
X237000Y164032D01*
X235984Y163016D01*
X234968D01*
X235984Y162000D01*
X234968Y160984D01*
X235984D01*
X237000Y159968D01*
X244000D02*
X245016Y160984D01*
X246032D01*
X245016Y162000D01*
X246032Y163016D01*
X245016D01*
X244000Y164032D01*
X242984Y163016D01*
X241968D01*
X242984Y162000D01*
X241968Y160984D01*
X242984D01*
X244000Y159968D01*
X251000D02*
X252016Y160984D01*
X253032D01*
X252016Y162000D01*
X253032Y163016D01*
X252016D01*
X251000Y164032D01*
X249984Y163016D01*
X248968D01*
X249984Y162000D01*
X248968Y160984D01*
X249984D01*
X251000Y159968D01*
X258000D02*
X259016Y160984D01*
X260032D01*
X259016Y162000D01*
X260032Y163016D01*
X259016D01*
X258000Y164032D01*
X256984Y163016D01*
X255968D01*
X256984Y162000D01*
X255968Y160984D01*
X256984D01*
X258000Y159968D01*
X265000D02*
X266016Y160984D01*
X267032D01*
X266016Y162000D01*
X267032Y163016D01*
X266016D01*
X265000Y164032D01*
X263984Y163016D01*
X262968D01*
X263984Y162000D01*
X262968Y160984D01*
X263984D01*
X265000Y159968D01*
X271000Y163968D02*
X272016Y164984D01*
X273032D01*
X272016Y166000D01*
X273032Y167016D01*
X272016D01*
X271000Y168032D01*
X269984Y167016D01*
X268968D01*
X269984Y166000D01*
X268968Y164984D01*
X269984D01*
X271000Y163968D01*
Y170968D02*
X272016Y171984D01*
X273032D01*
X272016Y173000D01*
X273032Y174016D01*
X272016D01*
X271000Y175032D01*
X269984Y174016D01*
X268968D01*
X269984Y173000D01*
X268968Y171984D01*
X269984D01*
X271000Y170968D01*
Y177968D02*
X272016Y178984D01*
X273032D01*
X272016Y180000D01*
X273032Y181016D01*
X272016D01*
X271000Y182032D01*
X269984Y181016D01*
X268968D01*
X269984Y180000D01*
X268968Y178984D01*
X269984D01*
X271000Y177968D01*
Y184968D02*
X272016Y185984D01*
X273032D01*
X272016Y187000D01*
X273032Y188016D01*
X272016D01*
X271000Y189032D01*
X269984Y188016D01*
X268968D01*
X269984Y187000D01*
X268968Y185984D01*
X269984D01*
X271000Y184968D01*
Y191968D02*
X272016Y192984D01*
X273032D01*
X272016Y194000D01*
X273032Y195016D01*
X272016D01*
X271000Y196032D01*
X269984Y195016D01*
X268968D01*
X269984Y194000D01*
X268968Y192984D01*
X269984D01*
X271000Y191968D01*
Y198968D02*
X272016Y199984D01*
X273032D01*
X272016Y201000D01*
X273032Y202016D01*
X272016D01*
X271000Y203032D01*
X269984Y202016D01*
X268968D01*
X269984Y201000D01*
X268968Y199984D01*
X269984D01*
X271000Y198968D01*
Y205968D02*
X272016Y206984D01*
X273032D01*
X272016Y208000D01*
X273032Y209016D01*
X272016D01*
X271000Y210032D01*
X269984Y209016D01*
X268968D01*
X269984Y208000D01*
X268968Y206984D01*
X269984D01*
X271000Y205968D01*
X262500Y105468D02*
X263516Y106484D01*
X264532D01*
X263516Y107500D01*
X264532Y108516D01*
X263516D01*
X262500Y109532D01*
X261484Y108516D01*
X260468D01*
X261484Y107500D01*
X260468Y106484D01*
X261484D01*
X262500Y105468D01*
X227500Y142968D02*
X228516Y143984D01*
X229532D01*
X228516Y145000D01*
X229532Y146016D01*
X228516D01*
X227500Y147032D01*
X226484Y146016D01*
X225468D01*
X226484Y145000D01*
X225468Y143984D01*
X226484D01*
X227500Y142968D01*
X392500Y115468D02*
X393516Y116484D01*
X394532D01*
X393516Y117500D01*
X394532Y118516D01*
X393516D01*
X392500Y119532D01*
X391484Y118516D01*
X390468D01*
X391484Y117500D01*
X390468Y116484D01*
X391484D01*
X392500Y115468D01*
Y130468D02*
X393516Y131484D01*
X394532D01*
X393516Y132500D01*
X394532Y133516D01*
X393516D01*
X392500Y134532D01*
X391484Y133516D01*
X390468D01*
X391484Y132500D01*
X390468Y131484D01*
X391484D01*
X392500Y130468D01*
Y145468D02*
X393516Y146484D01*
X394532D01*
X393516Y147500D01*
X394532Y148516D01*
X393516D01*
X392500Y149532D01*
X391484Y148516D01*
X390468D01*
X391484Y147500D01*
X390468Y146484D01*
X391484D01*
X392500Y145468D01*
Y160468D02*
X393516Y161484D01*
X394532D01*
X393516Y162500D01*
X394532Y163516D01*
X393516D01*
X392500Y164532D01*
X391484Y163516D01*
X390468D01*
X391484Y162500D01*
X390468Y161484D01*
X391484D01*
X392500Y160468D01*
Y175468D02*
X393516Y176484D01*
X394532D01*
X393516Y177500D01*
X394532Y178516D01*
X393516D01*
X392500Y179532D01*
X391484Y178516D01*
X390468D01*
X391484Y177500D01*
X390468Y176484D01*
X391484D01*
X392500Y175468D01*
Y190468D02*
X393516Y191484D01*
X394532D01*
X393516Y192500D01*
X394532Y193516D01*
X393516D01*
X392500Y194532D01*
X391484Y193516D01*
X390468D01*
X391484Y192500D01*
X390468Y191484D01*
X391484D01*
X392500Y190468D01*
Y205468D02*
X393516Y206484D01*
X394532D01*
X393516Y207500D01*
X394532Y208516D01*
X393516D01*
X392500Y209532D01*
X391484Y208516D01*
X390468D01*
X391484Y207500D01*
X390468Y206484D01*
X391484D01*
X392500Y205468D01*
Y70468D02*
X393516Y71484D01*
X394532D01*
X393516Y72500D01*
X394532Y73516D01*
X393516D01*
X392500Y74532D01*
X391484Y73516D01*
X390468D01*
X391484Y72500D01*
X390468Y71484D01*
X391484D01*
X392500Y70468D01*
Y55468D02*
X393516Y56484D01*
X394532D01*
X393516Y57500D01*
X394532Y58516D01*
X393516D01*
X392500Y59532D01*
X391484Y58516D01*
X390468D01*
X391484Y57500D01*
X390468Y56484D01*
X391484D01*
X392500Y55468D01*
X352500Y5468D02*
X353516Y6484D01*
X354532D01*
X353516Y7500D01*
X354532Y8516D01*
X353516D01*
X352500Y9532D01*
X351484Y8516D01*
X350468D01*
X351484Y7500D01*
X350468Y6484D01*
X351484D01*
X352500Y5468D01*
X337500D02*
X338516Y6484D01*
X339532D01*
X338516Y7500D01*
X339532Y8516D01*
X338516D01*
X337500Y9532D01*
X336484Y8516D01*
X335468D01*
X336484Y7500D01*
X335468Y6484D01*
X336484D01*
X337500Y5468D01*
X322500D02*
X323516Y6484D01*
X324532D01*
X323516Y7500D01*
X324532Y8516D01*
X323516D01*
X322500Y9532D01*
X321484Y8516D01*
X320468D01*
X321484Y7500D01*
X320468Y6484D01*
X321484D01*
X322500Y5468D01*
X307500D02*
X308516Y6484D01*
X309532D01*
X308516Y7500D01*
X309532Y8516D01*
X308516D01*
X307500Y9532D01*
X306484Y8516D01*
X305468D01*
X306484Y7500D01*
X305468Y6484D01*
X306484D01*
X307500Y5468D01*
X292500D02*
X293516Y6484D01*
X294532D01*
X293516Y7500D01*
X294532Y8516D01*
X293516D01*
X292500Y9532D01*
X291484Y8516D01*
X290468D01*
X291484Y7500D01*
X290468Y6484D01*
X291484D01*
X292500Y5468D01*
X277500D02*
X278516Y6484D01*
X279532D01*
X278516Y7500D01*
X279532Y8516D01*
X278516D01*
X277500Y9532D01*
X276484Y8516D01*
X275468D01*
X276484Y7500D01*
X275468Y6484D01*
X276484D01*
X277500Y5468D01*
X262500D02*
X263516Y6484D01*
X264532D01*
X263516Y7500D01*
X264532Y8516D01*
X263516D01*
X262500Y9532D01*
X261484Y8516D01*
X260468D01*
X261484Y7500D01*
X260468Y6484D01*
X261484D01*
X262500Y5468D01*
X247500D02*
X248516Y6484D01*
X249532D01*
X248516Y7500D01*
X249532Y8516D01*
X248516D01*
X247500Y9532D01*
X246484Y8516D01*
X245468D01*
X246484Y7500D01*
X245468Y6484D01*
X246484D01*
X247500Y5468D01*
X232500D02*
X233516Y6484D01*
X234532D01*
X233516Y7500D01*
X234532Y8516D01*
X233516D01*
X232500Y9532D01*
X231484Y8516D01*
X230468D01*
X231484Y7500D01*
X230468Y6484D01*
X231484D01*
X232500Y5468D01*
X217500D02*
X218516Y6484D01*
X219532D01*
X218516Y7500D01*
X219532Y8516D01*
X218516D01*
X217500Y9532D01*
X216484Y8516D01*
X215468D01*
X216484Y7500D01*
X215468Y6484D01*
X216484D01*
X217500Y5468D01*
X202500D02*
X203516Y6484D01*
X204532D01*
X203516Y7500D01*
X204532Y8516D01*
X203516D01*
X202500Y9532D01*
X201484Y8516D01*
X200468D01*
X201484Y7500D01*
X200468Y6484D01*
X201484D01*
X202500Y5468D01*
X187500D02*
X188516Y6484D01*
X189532D01*
X188516Y7500D01*
X189532Y8516D01*
X188516D01*
X187500Y9532D01*
X186484Y8516D01*
X185468D01*
X186484Y7500D01*
X185468Y6484D01*
X186484D01*
X187500Y5468D01*
X97500D02*
X98516Y6484D01*
X99532D01*
X98516Y7500D01*
X99532Y8516D01*
X98516D01*
X97500Y9532D01*
X96484Y8516D01*
X95468D01*
X96484Y7500D01*
X95468Y6484D01*
X96484D01*
X97500Y5468D01*
X172500D02*
X173516Y6484D01*
X174532D01*
X173516Y7500D01*
X174532Y8516D01*
X173516D01*
X172500Y9532D01*
X171484Y8516D01*
X170468D01*
X171484Y7500D01*
X170468Y6484D01*
X171484D01*
X172500Y5468D01*
X157500D02*
X158516Y6484D01*
X159532D01*
X158516Y7500D01*
X159532Y8516D01*
X158516D01*
X157500Y9532D01*
X156484Y8516D01*
X155468D01*
X156484Y7500D01*
X155468Y6484D01*
X156484D01*
X157500Y5468D01*
X142500D02*
X143516Y6484D01*
X144532D01*
X143516Y7500D01*
X144532Y8516D01*
X143516D01*
X142500Y9532D01*
X141484Y8516D01*
X140468D01*
X141484Y7500D01*
X140468Y6484D01*
X141484D01*
X142500Y5468D01*
X127500D02*
X128516Y6484D01*
X129532D01*
X128516Y7500D01*
X129532Y8516D01*
X128516D01*
X127500Y9532D01*
X126484Y8516D01*
X125468D01*
X126484Y7500D01*
X125468Y6484D01*
X126484D01*
X127500Y5468D01*
X112500D02*
X113516Y6484D01*
X114532D01*
X113516Y7500D01*
X114532Y8516D01*
X113516D01*
X112500Y9532D01*
X111484Y8516D01*
X110468D01*
X111484Y7500D01*
X110468Y6484D01*
X111484D01*
X112500Y5468D01*
X82500D02*
X83516Y6484D01*
X84532D01*
X83516Y7500D01*
X84532Y8516D01*
X83516D01*
X82500Y9532D01*
X81484Y8516D01*
X80468D01*
X81484Y7500D01*
X80468Y6484D01*
X81484D01*
X82500Y5468D01*
X67500D02*
X68516Y6484D01*
X69532D01*
X68516Y7500D01*
X69532Y8516D01*
X68516D01*
X67500Y9532D01*
X66484Y8516D01*
X65468D01*
X66484Y7500D01*
X65468Y6484D01*
X66484D01*
X67500Y5468D01*
X52500D02*
X53516Y6484D01*
X54532D01*
X53516Y7500D01*
X54532Y8516D01*
X53516D01*
X52500Y9532D01*
X51484Y8516D01*
X50468D01*
X51484Y7500D01*
X50468Y6484D01*
X51484D01*
X52500Y5468D01*
X352044Y129794D02*
X353060Y130810D01*
X354076D01*
X353060Y131826D01*
X354076Y132842D01*
X353060D01*
X352044Y133858D01*
X351028Y132842D01*
X350012D01*
X351028Y131826D01*
X350012Y130810D01*
X351028D01*
X352044Y129794D01*
X200914Y145796D02*
X201930Y146812D01*
X202946D01*
X201930Y147828D01*
X202946Y148844D01*
X201930D01*
X200914Y149860D01*
X199898Y148844D01*
X198882D01*
X199898Y147828D01*
X198882Y146812D01*
X199898D01*
X200914Y145796D01*
X178308Y145034D02*
X179324Y146050D01*
X180340D01*
X179324Y147066D01*
X180340Y148082D01*
X179324D01*
X178308Y149098D01*
X177292Y148082D01*
X176276D01*
X177292Y147066D01*
X176276Y146050D01*
X177292D01*
X178308Y145034D01*
X193040Y151384D02*
X194056Y152400D01*
X195072D01*
X194056Y153416D01*
X195072Y154432D01*
X194056D01*
X193040Y155448D01*
X192024Y154432D01*
X191008D01*
X192024Y153416D01*
X191008Y152400D01*
X192024D01*
X193040Y151384D01*
X186773Y145588D02*
X187789Y146604D01*
X188805D01*
X187789Y147620D01*
X188805Y148636D01*
X187789D01*
X186773Y149652D01*
X185757Y148636D01*
X184741D01*
X185757Y147620D01*
X184741Y146604D01*
X185757D01*
X186773Y145588D01*
X83000Y184968D02*
X84016Y185984D01*
X85032D01*
X84016Y187000D01*
X85032Y188016D01*
X84016D01*
X83000Y189032D01*
X81984Y188016D01*
X80968D01*
X81984Y187000D01*
X80968Y185984D01*
X81984D01*
X83000Y184968D01*
X160782Y182118D02*
X161798Y183134D01*
X162814D01*
X161798Y184150D01*
X162814Y185166D01*
X161798D01*
X160782Y186182D01*
X159766Y185166D01*
X158750D01*
X159766Y184150D01*
X158750Y183134D01*
X159766D01*
X160782Y182118D01*
X161544Y174752D02*
X162560Y175768D01*
X163576D01*
X162560Y176784D01*
X163576Y177800D01*
X162560D01*
X161544Y178816D01*
X160528Y177800D01*
X159512D01*
X160528Y176784D01*
X159512Y175768D01*
X160528D01*
X161544Y174752D01*
X178000Y177968D02*
X179016Y178984D01*
X180032D01*
X179016Y180000D01*
X180032Y181016D01*
X179016D01*
X178000Y182032D01*
X176984Y181016D01*
X175968D01*
X176984Y180000D01*
X175968Y178984D01*
X176984D01*
X178000Y177968D01*
X351000Y117968D02*
X352016Y118984D01*
X353032D01*
X352016Y120000D01*
X353032Y121016D01*
X352016D01*
X351000Y122032D01*
X349984Y121016D01*
X348968D01*
X349984Y120000D01*
X348968Y118984D01*
X349984D01*
X351000Y117968D01*
X184900Y161468D02*
X185916Y162484D01*
X186932D01*
X185916Y163500D01*
X186932Y164516D01*
X185916D01*
X184900Y165532D01*
X183884Y164516D01*
X182868D01*
X183884Y163500D01*
X182868Y162484D01*
X183884D01*
X184900Y161468D01*
X195700Y172968D02*
X196716Y173984D01*
X197732D01*
X196716Y175000D01*
X197732Y176016D01*
X196716D01*
X195700Y177032D01*
X194684Y176016D01*
X193668D01*
X194684Y175000D01*
X193668Y173984D01*
X194684D01*
X195700Y172968D01*
X201200Y177868D02*
X202216Y178884D01*
X203232D01*
X202216Y179900D01*
X203232Y180916D01*
X202216D01*
X201200Y181932D01*
X200184Y180916D01*
X199168D01*
X200184Y179900D01*
X199168Y178884D01*
X200184D01*
X201200Y177868D01*
X202250Y171468D02*
X203266Y172484D01*
X204282D01*
X203266Y173500D01*
X204282Y174516D01*
X203266D01*
X202250Y175532D01*
X201234Y174516D01*
X200218D01*
X201234Y173500D01*
X200218Y172484D01*
X201234D01*
X202250Y171468D01*
X184600Y171068D02*
X185616Y172084D01*
X186632D01*
X185616Y173100D01*
X186632Y174116D01*
X185616D01*
X184600Y175132D01*
X183584Y174116D01*
X182568D01*
X183584Y173100D01*
X182568Y172084D01*
X183584D01*
X184600Y171068D01*
X84000Y118968D02*
X85016Y119984D01*
X86032D01*
X85016Y121000D01*
X86032Y122016D01*
X85016D01*
X84000Y123032D01*
X82984Y122016D01*
X81968D01*
X82984Y121000D01*
X81968Y119984D01*
X82984D01*
X84000Y118968D01*
X186500Y195718D02*
X187516Y196734D01*
X188532D01*
X187516Y197750D01*
X188532Y198766D01*
X187516D01*
X186500Y199782D01*
X185484Y198766D01*
X184468D01*
X185484Y197750D01*
X184468Y196734D01*
X185484D01*
X186500Y195718D01*
X209500D02*
X210516Y196734D01*
X211532D01*
X210516Y197750D01*
X211532Y198766D01*
X210516D01*
X209500Y199782D01*
X208484Y198766D01*
X207468D01*
X208484Y197750D01*
X207468Y196734D01*
X208484D01*
X209500Y195718D01*
X208250Y177218D02*
X209266Y178234D01*
X210282D01*
X209266Y179250D01*
X210282Y180266D01*
X209266D01*
X208250Y181282D01*
X207234Y180266D01*
X206218D01*
X207234Y179250D01*
X206218Y178234D01*
X207234D01*
X208250Y177218D01*
X194000Y196968D02*
X195016Y197984D01*
X196032D01*
X195016Y199000D01*
X196032Y200016D01*
X195016D01*
X194000Y201032D01*
X192984Y200016D01*
X191968D01*
X192984Y199000D01*
X191968Y197984D01*
X192984D01*
X194000Y196968D01*
X202500Y161468D02*
X203516Y162484D01*
X204532D01*
X203516Y163500D01*
X204532Y164516D01*
X203516D01*
X202500Y165532D01*
X201484Y164516D01*
X200468D01*
X201484Y163500D01*
X200468Y162484D01*
X201484D01*
X202500Y161468D01*
X179500Y195718D02*
X180516Y196734D01*
X181532D01*
X180516Y197750D01*
X181532Y198766D01*
X180516D01*
X179500Y199782D01*
X178484Y198766D01*
X177468D01*
X178484Y197750D01*
X177468Y196734D01*
X178484D01*
X179500Y195718D01*
X202500Y196218D02*
X203516Y197234D01*
X204532D01*
X203516Y198250D01*
X204532Y199266D01*
X203516D01*
X202500Y200282D01*
X201484Y199266D01*
X200468D01*
X201484Y198250D01*
X200468Y197234D01*
X201484D01*
X202500Y196218D01*
X208500Y183718D02*
X209516Y184734D01*
X210532D01*
X209516Y185750D01*
X210532Y186766D01*
X209516D01*
X208500Y187782D01*
X207484Y186766D01*
X206468D01*
X207484Y185750D01*
X206468Y184734D01*
X207484D01*
X208500Y183718D01*
X193000Y161668D02*
X194016Y162684D01*
X195032D01*
X194016Y163700D01*
X195032Y164716D01*
X194016D01*
X193000Y165732D01*
X191984Y164716D01*
X190968D01*
X191984Y163700D01*
X190968Y162684D01*
X191984D01*
X193000Y161668D01*
D55*
X163932Y41700D02*
G03*
X163932Y41700I-2032J0D01*
G01*
X189332D02*
G03*
X189332Y41700I-2032J0D01*
G01*
X214732D02*
G03*
X214732Y41700I-2032J0D01*
G01*
X265532D02*
G03*
X265532Y41700I-2032J0D01*
G01*
X290932D02*
G03*
X290932Y41700I-2032J0D01*
G01*
X240132D02*
G03*
X240132Y41700I-2032J0D01*
G01*
X138532D02*
G03*
X138532Y41700I-2032J0D01*
G01*
X113132D02*
G03*
X113132Y41700I-2032J0D01*
G01*
M02*
