G04*
G04 #@! TF.GenerationSoftware,Altium Limited,Altium Designer,21.6.4 (81)*
G04*
G04 Layer_Color=8388736*
%FSLAX44Y44*%
%MOMM*%
G71*
G04*
G04 #@! TF.SameCoordinates,816F8A91-06EC-47E4-87ED-5788FB9A99D2*
G04*
G04*
G04 #@! TF.FilePolarity,Negative*
G04*
G01*
G75*
%ADD24R,0.4500X0.4500*%
%ADD25R,0.5200X0.5200*%
%ADD26C,0.8900*%
%ADD27R,0.6500X0.6200*%
%ADD28R,0.8200X0.8200*%
%ADD29R,0.4500X0.4600*%
%ADD30R,0.6200X0.6500*%
%ADD31R,0.9000X1.8000*%
%ADD32R,1.6500X1.1000*%
%ADD33R,1.1000X0.9000*%
%ADD34C,1.0000*%
%ADD35C,1.7500*%
%ADD36R,1.7500X1.7500*%
%ADD37C,3.5000*%
D24*
X228400Y191900D02*
D03*
X221900D02*
D03*
X212480D02*
D03*
X205980D02*
D03*
X199480D02*
D03*
X192980D02*
D03*
X186480D02*
D03*
X179980D02*
D03*
X173480D02*
D03*
X202730Y185400D02*
D03*
X196230D02*
D03*
X189730D02*
D03*
X183230D02*
D03*
X171600Y183000D02*
D03*
Y176500D02*
D03*
Y163500D02*
D03*
Y157000D02*
D03*
Y144000D02*
D03*
X178100Y173250D02*
D03*
Y160250D02*
D03*
Y153750D02*
D03*
X173480Y135100D02*
D03*
X179980D02*
D03*
X186480D02*
D03*
X192980D02*
D03*
X199480D02*
D03*
X205980D02*
D03*
X212480D02*
D03*
X221900D02*
D03*
X228400D02*
D03*
X183230Y141600D02*
D03*
X189730D02*
D03*
X196230D02*
D03*
X202730D02*
D03*
X214350Y144000D02*
D03*
Y150500D02*
D03*
Y157000D02*
D03*
Y163500D02*
D03*
Y170000D02*
D03*
Y176500D02*
D03*
Y183000D02*
D03*
X207850Y160250D02*
D03*
Y173250D02*
D03*
X171600Y170000D02*
D03*
Y150500D02*
D03*
X178100Y166750D02*
D03*
X207850Y153750D02*
D03*
Y166750D02*
D03*
D25*
X197480Y168700D02*
D03*
X188480D02*
D03*
Y158300D02*
D03*
X197480D02*
D03*
D26*
X375000Y107250D02*
D03*
X362300D02*
D03*
X375000Y119950D02*
D03*
X362300D02*
D03*
X375000Y132650D02*
D03*
X362300D02*
D03*
D27*
X159000Y200000D02*
D03*
Y192000D02*
D03*
X263000Y93000D02*
D03*
Y101000D02*
D03*
D28*
X131650Y132850D02*
D03*
X141850D02*
D03*
Y186850D02*
D03*
X131650D02*
D03*
D29*
X83000Y177950D02*
D03*
Y169550D02*
D03*
X84250Y105550D02*
D03*
Y113950D02*
D03*
D30*
X210000Y82000D02*
D03*
X218000D02*
D03*
Y94000D02*
D03*
X210000D02*
D03*
D31*
X33750Y178000D02*
D03*
X67750D02*
D03*
X67250Y114000D02*
D03*
X33250D02*
D03*
D32*
X141250Y172850D02*
D03*
Y146850D02*
D03*
D33*
X247500Y82500D02*
D03*
X232500D02*
D03*
Y93500D02*
D03*
X247500D02*
D03*
D34*
X358490Y94550D02*
D03*
X378810D02*
D03*
X368650Y145350D02*
D03*
D35*
X161900Y41700D02*
D03*
X187300D02*
D03*
X212700D02*
D03*
X263500D02*
D03*
X238100D02*
D03*
X136500D02*
D03*
X111100D02*
D03*
D36*
X288900D02*
D03*
D37*
X375000Y25000D02*
D03*
X25000D02*
D03*
M02*
