G04*
G04 #@! TF.GenerationSoftware,Altium Limited,Altium Designer,21.6.4 (81)*
G04*
G04 Layer_Physical_Order=2*
G04 Layer_Color=36540*
%FSLAX44Y44*%
%MOMM*%
G71*
G04*
G04 #@! TF.SameCoordinates,816F8A91-06EC-47E4-87ED-5788FB9A99D2*
G04*
G04*
G04 #@! TF.FilePolarity,Positive*
G04*
G01*
G75*
%ADD42C,0.9000*%
%ADD43C,1.6500*%
%ADD44R,1.6500X1.6500*%
%ADD46C,0.6000*%
%ADD47C,2.1590*%
G36*
X395922Y4078D02*
X4078Y4078D01*
X4078Y211500D01*
X212930D01*
X214200Y211500D01*
X214200Y210230D01*
Y190100D01*
X216100D01*
Y160300D01*
X211000D01*
Y156700D01*
X202400D01*
Y154200D01*
X198000D01*
X198000Y151016D01*
X197836Y150906D01*
X197497Y150400D01*
X190051D01*
X190000Y150477D01*
Y154200D01*
X181000Y154200D01*
Y176869D01*
X181078Y176921D01*
X181131Y177000D01*
X193000Y177000D01*
Y188600D01*
X202600D01*
Y196000D01*
X189400D01*
Y188400D01*
X176700D01*
Y200500D01*
X164800D01*
Y187934D01*
X163530Y187449D01*
X162448Y188172D01*
X160782Y188504D01*
X159116Y188172D01*
X157704Y187229D01*
X156760Y185816D01*
X156428Y184150D01*
X156760Y182484D01*
X157704Y181071D01*
X157933Y180918D01*
X158083Y179290D01*
X157522Y178450D01*
X157190Y176784D01*
X157522Y175118D01*
X158465Y173706D01*
X159878Y172762D01*
X161544Y172430D01*
X163210Y172762D01*
X163530Y172976D01*
X164800Y172297D01*
Y128300D01*
X194251D01*
X195266Y127030D01*
X195126Y126328D01*
X195458Y124662D01*
X196402Y123250D01*
X197814Y122306D01*
X199480Y121974D01*
X201146Y122306D01*
X202558Y123250D01*
X203502Y124662D01*
X203834Y126328D01*
X203694Y127030D01*
X204709Y128300D01*
X218000D01*
Y139500D01*
X220100D01*
Y165000D01*
X267300D01*
Y210230D01*
X267300Y211500D01*
X268570Y211500D01*
X395922D01*
X395922Y4078D01*
D02*
G37*
%LPC*%
G36*
X83000Y191354D02*
X81334Y191022D01*
X79921Y190079D01*
X78978Y188666D01*
X78646Y187000D01*
X78978Y185334D01*
X79921Y183922D01*
X81334Y182978D01*
X83000Y182646D01*
X84666Y182978D01*
X86079Y183922D01*
X87022Y185334D01*
X87354Y187000D01*
X87022Y188666D01*
X86079Y190079D01*
X84666Y191022D01*
X83000Y191354D01*
D02*
G37*
G36*
X368650Y151717D02*
X366213Y151233D01*
X364148Y149852D01*
X362767Y147787D01*
X362283Y145350D01*
X362767Y142913D01*
X364148Y140848D01*
X366213Y139467D01*
X368650Y138983D01*
X371087Y139467D01*
X373152Y140848D01*
X374533Y142913D01*
X375017Y145350D01*
X374533Y147787D01*
X373152Y149852D01*
X371087Y151233D01*
X368650Y151717D01*
D02*
G37*
G36*
X352044Y136180D02*
X350378Y135848D01*
X348965Y134904D01*
X348022Y133492D01*
X347690Y131826D01*
X348022Y130160D01*
X348965Y128748D01*
X350378Y127804D01*
X352044Y127472D01*
X353710Y127804D01*
X355122Y128748D01*
X356066Y130160D01*
X356398Y131826D01*
X356066Y133492D01*
X355122Y134904D01*
X353710Y135848D01*
X352044Y136180D01*
D02*
G37*
G36*
X84000Y125354D02*
X82334Y125022D01*
X80921Y124079D01*
X79978Y122666D01*
X79646Y121000D01*
X79978Y119334D01*
X80921Y117921D01*
X82334Y116978D01*
X84000Y116646D01*
X85666Y116978D01*
X87079Y117921D01*
X88022Y119334D01*
X88354Y121000D01*
X88022Y122666D01*
X87079Y124079D01*
X85666Y125022D01*
X84000Y125354D01*
D02*
G37*
G36*
X351000Y124354D02*
X349334Y124022D01*
X347921Y123078D01*
X346978Y121666D01*
X346646Y120000D01*
X346978Y118334D01*
X347921Y116922D01*
X349334Y115978D01*
X351000Y115646D01*
X352666Y115978D01*
X354078Y116922D01*
X355022Y118334D01*
X355354Y120000D01*
X355022Y121666D01*
X354078Y123078D01*
X352666Y124022D01*
X351000Y124354D01*
D02*
G37*
G36*
X262500Y111854D02*
X260834Y111522D01*
X259422Y110578D01*
X258478Y109166D01*
X258146Y107500D01*
X258478Y105834D01*
X259422Y104422D01*
X260834Y103478D01*
X262500Y103146D01*
X264166Y103478D01*
X265578Y104422D01*
X266522Y105834D01*
X266854Y107500D01*
X266522Y109166D01*
X265578Y110578D01*
X264166Y111522D01*
X262500Y111854D01*
D02*
G37*
G36*
X184250Y111604D02*
X182584Y111272D01*
X181171Y110329D01*
X180228Y108916D01*
X179896Y107250D01*
X180228Y105584D01*
X181171Y104171D01*
X182584Y103228D01*
X184250Y102896D01*
X185916Y103228D01*
X187328Y104171D01*
X188272Y105584D01*
X188604Y107250D01*
X188272Y108916D01*
X187328Y110329D01*
X185916Y111272D01*
X184250Y111604D01*
D02*
G37*
G36*
X378810Y100917D02*
X376373Y100433D01*
X374308Y99052D01*
X372927Y96987D01*
X372443Y94550D01*
X372927Y92113D01*
X374308Y90048D01*
X376373Y88667D01*
X378810Y88183D01*
X381247Y88667D01*
X383312Y90048D01*
X384693Y92113D01*
X385177Y94550D01*
X384693Y96987D01*
X383312Y99052D01*
X381247Y100433D01*
X378810Y100917D01*
D02*
G37*
G36*
X358490D02*
X356053Y100433D01*
X353988Y99052D01*
X352607Y96987D01*
X352123Y94550D01*
X352607Y92113D01*
X353988Y90048D01*
X356053Y88667D01*
X358490Y88183D01*
X360927Y88667D01*
X362992Y90048D01*
X364373Y92113D01*
X364857Y94550D01*
X364373Y96987D01*
X362992Y99052D01*
X360927Y100433D01*
X358490Y100917D01*
D02*
G37*
G36*
X111862Y51202D02*
Y42462D01*
X120602D01*
X120375Y44185D01*
X119416Y46501D01*
X117890Y48490D01*
X115901Y50016D01*
X113585Y50975D01*
X111862Y51202D01*
D02*
G37*
G36*
X110338D02*
X108615Y50975D01*
X106299Y50016D01*
X104310Y48490D01*
X102784Y46501D01*
X101825Y44185D01*
X101598Y42462D01*
X110338D01*
Y51202D01*
D02*
G37*
G36*
X120602Y40938D02*
X111862D01*
Y32198D01*
X113585Y32425D01*
X115901Y33384D01*
X117890Y34910D01*
X119416Y36899D01*
X120375Y39215D01*
X120602Y40938D01*
D02*
G37*
G36*
X110338D02*
X101598D01*
X101825Y39215D01*
X102784Y36899D01*
X104310Y34910D01*
X106299Y33384D01*
X108615Y32425D01*
X110338Y32198D01*
Y40938D01*
D02*
G37*
G36*
X298420Y51220D02*
X279380D01*
Y32180D01*
X298420D01*
Y51220D01*
D02*
G37*
G36*
X263500Y51302D02*
X261015Y50975D01*
X258699Y50016D01*
X256710Y48490D01*
X255184Y46501D01*
X254225Y44185D01*
X253898Y41700D01*
X254225Y39215D01*
X255184Y36899D01*
X256710Y34910D01*
X258699Y33384D01*
X261015Y32425D01*
X263500Y32098D01*
X265985Y32425D01*
X268301Y33384D01*
X270290Y34910D01*
X271816Y36899D01*
X272775Y39215D01*
X273102Y41700D01*
X272775Y44185D01*
X271816Y46501D01*
X270290Y48490D01*
X268301Y50016D01*
X265985Y50975D01*
X263500Y51302D01*
D02*
G37*
G36*
X238100D02*
X235615Y50975D01*
X233299Y50016D01*
X231310Y48490D01*
X229784Y46501D01*
X228825Y44185D01*
X228498Y41700D01*
X228825Y39215D01*
X229784Y36899D01*
X231310Y34910D01*
X233299Y33384D01*
X235615Y32425D01*
X238100Y32098D01*
X240585Y32425D01*
X242901Y33384D01*
X244890Y34910D01*
X246416Y36899D01*
X247375Y39215D01*
X247702Y41700D01*
X247375Y44185D01*
X246416Y46501D01*
X244890Y48490D01*
X242901Y50016D01*
X240585Y50975D01*
X238100Y51302D01*
D02*
G37*
G36*
X212700D02*
X210215Y50975D01*
X207899Y50016D01*
X205910Y48490D01*
X204384Y46501D01*
X203425Y44185D01*
X203098Y41700D01*
X203425Y39215D01*
X204384Y36899D01*
X205910Y34910D01*
X207899Y33384D01*
X210215Y32425D01*
X212700Y32098D01*
X215185Y32425D01*
X217501Y33384D01*
X219490Y34910D01*
X221016Y36899D01*
X221975Y39215D01*
X222302Y41700D01*
X221975Y44185D01*
X221016Y46501D01*
X219490Y48490D01*
X217501Y50016D01*
X215185Y50975D01*
X212700Y51302D01*
D02*
G37*
G36*
X187300D02*
X184815Y50975D01*
X182499Y50016D01*
X180510Y48490D01*
X178984Y46501D01*
X178025Y44185D01*
X177698Y41700D01*
X178025Y39215D01*
X178984Y36899D01*
X180510Y34910D01*
X182499Y33384D01*
X184815Y32425D01*
X187300Y32098D01*
X189785Y32425D01*
X192101Y33384D01*
X194090Y34910D01*
X195616Y36899D01*
X196575Y39215D01*
X196902Y41700D01*
X196575Y44185D01*
X195616Y46501D01*
X194090Y48490D01*
X192101Y50016D01*
X189785Y50975D01*
X187300Y51302D01*
D02*
G37*
G36*
X161900D02*
X159415Y50975D01*
X157099Y50016D01*
X155110Y48490D01*
X153584Y46501D01*
X152625Y44185D01*
X152298Y41700D01*
X152625Y39215D01*
X153584Y36899D01*
X155110Y34910D01*
X157099Y33384D01*
X159415Y32425D01*
X161900Y32098D01*
X164385Y32425D01*
X166701Y33384D01*
X168690Y34910D01*
X170216Y36899D01*
X171175Y39215D01*
X171502Y41700D01*
X171175Y44185D01*
X170216Y46501D01*
X168690Y48490D01*
X166701Y50016D01*
X164385Y50975D01*
X161900Y51302D01*
D02*
G37*
G36*
X136500D02*
X134015Y50975D01*
X131699Y50016D01*
X129710Y48490D01*
X128184Y46501D01*
X127225Y44185D01*
X126898Y41700D01*
X127225Y39215D01*
X128184Y36899D01*
X129710Y34910D01*
X131699Y33384D01*
X134015Y32425D01*
X136500Y32098D01*
X138985Y32425D01*
X141301Y33384D01*
X143290Y34910D01*
X144816Y36899D01*
X145775Y39215D01*
X146102Y41700D01*
X145775Y44185D01*
X144816Y46501D01*
X143290Y48490D01*
X141301Y50016D01*
X138985Y50975D01*
X136500Y51302D01*
D02*
G37*
G36*
X375762Y37069D02*
Y25762D01*
X387069D01*
X386754Y28150D01*
X385539Y31085D01*
X383605Y33605D01*
X381085Y35539D01*
X378150Y36755D01*
X375762Y37069D01*
D02*
G37*
G36*
X374238D02*
X371850Y36755D01*
X368915Y35539D01*
X366395Y33605D01*
X364461Y31085D01*
X363246Y28150D01*
X362931Y25762D01*
X374238D01*
Y37069D01*
D02*
G37*
G36*
X25762D02*
Y25762D01*
X37069D01*
X36755Y28150D01*
X35539Y31085D01*
X33605Y33605D01*
X31084Y35539D01*
X28150Y36755D01*
X25762Y37069D01*
D02*
G37*
G36*
X24238D02*
X21850Y36755D01*
X18915Y35539D01*
X16395Y33605D01*
X14461Y31085D01*
X13246Y28150D01*
X12931Y25762D01*
X24238D01*
Y37069D01*
D02*
G37*
G36*
X387069Y24238D02*
X375762D01*
Y12931D01*
X378150Y13246D01*
X381085Y14461D01*
X383605Y16395D01*
X385539Y18915D01*
X386754Y21850D01*
X387069Y24238D01*
D02*
G37*
G36*
X374238D02*
X362931D01*
X363246Y21850D01*
X364461Y18915D01*
X366395Y16395D01*
X368915Y14461D01*
X371850Y13246D01*
X374238Y12931D01*
Y24238D01*
D02*
G37*
G36*
X37069D02*
X25762D01*
Y12931D01*
X28150Y13246D01*
X31084Y14461D01*
X33605Y16395D01*
X35539Y18915D01*
X36755Y21850D01*
X37069Y24238D01*
D02*
G37*
G36*
X24238D02*
X12931D01*
X13246Y21850D01*
X14461Y18915D01*
X16395Y16395D01*
X18915Y14461D01*
X21850Y13246D01*
X24238Y12931D01*
Y24238D01*
D02*
G37*
%LPD*%
D42*
X358490Y94550D02*
D03*
X378810D02*
D03*
X368650Y145350D02*
D03*
D43*
X161900Y41700D02*
D03*
X187300D02*
D03*
X212700D02*
D03*
X263500D02*
D03*
X238100D02*
D03*
X136500D02*
D03*
X111100D02*
D03*
D44*
X288900D02*
D03*
D46*
X184250Y107250D02*
D03*
X199480Y126328D02*
D03*
X211000Y208000D02*
D03*
X383000D02*
D03*
Y193000D02*
D03*
Y178000D02*
D03*
Y163000D02*
D03*
Y103000D02*
D03*
Y73000D02*
D03*
Y58000D02*
D03*
X368000Y208000D02*
D03*
Y193000D02*
D03*
Y178000D02*
D03*
Y163000D02*
D03*
Y88000D02*
D03*
Y58000D02*
D03*
X353000Y208000D02*
D03*
Y193000D02*
D03*
Y178000D02*
D03*
Y163000D02*
D03*
Y148000D02*
D03*
Y58000D02*
D03*
Y43000D02*
D03*
Y28000D02*
D03*
X338000Y208000D02*
D03*
Y193000D02*
D03*
Y178000D02*
D03*
Y163000D02*
D03*
Y148000D02*
D03*
Y133000D02*
D03*
Y103000D02*
D03*
Y73000D02*
D03*
Y58000D02*
D03*
Y43000D02*
D03*
Y28000D02*
D03*
X323000Y208000D02*
D03*
Y193000D02*
D03*
Y178000D02*
D03*
Y163000D02*
D03*
Y148000D02*
D03*
Y133000D02*
D03*
Y88000D02*
D03*
Y58000D02*
D03*
Y43000D02*
D03*
Y28000D02*
D03*
X308000Y208000D02*
D03*
Y193000D02*
D03*
Y178000D02*
D03*
Y163000D02*
D03*
Y148000D02*
D03*
Y133000D02*
D03*
Y103000D02*
D03*
Y88000D02*
D03*
Y73000D02*
D03*
Y43000D02*
D03*
Y28000D02*
D03*
X293000Y208000D02*
D03*
Y193000D02*
D03*
Y178000D02*
D03*
Y163000D02*
D03*
Y148000D02*
D03*
Y133000D02*
D03*
Y103000D02*
D03*
Y88000D02*
D03*
Y73000D02*
D03*
X278000Y178000D02*
D03*
Y163000D02*
D03*
Y148000D02*
D03*
Y133000D02*
D03*
Y103000D02*
D03*
Y88000D02*
D03*
Y28000D02*
D03*
X263000Y148000D02*
D03*
Y133000D02*
D03*
Y28000D02*
D03*
X248000Y148000D02*
D03*
Y133000D02*
D03*
Y103000D02*
D03*
Y73000D02*
D03*
Y58000D02*
D03*
Y28000D02*
D03*
X233000Y103000D02*
D03*
Y73000D02*
D03*
Y28000D02*
D03*
X218000D02*
D03*
X203000Y208000D02*
D03*
Y58000D02*
D03*
Y28000D02*
D03*
X188000Y208000D02*
D03*
Y28000D02*
D03*
X173000Y208000D02*
D03*
Y88000D02*
D03*
Y73000D02*
D03*
Y58000D02*
D03*
Y28000D02*
D03*
X158000Y208000D02*
D03*
Y28000D02*
D03*
X143000Y208000D02*
D03*
Y163000D02*
D03*
Y118000D02*
D03*
Y103000D02*
D03*
Y73000D02*
D03*
Y58000D02*
D03*
Y28000D02*
D03*
X128000Y208000D02*
D03*
Y163000D02*
D03*
Y148000D02*
D03*
Y118000D02*
D03*
Y103000D02*
D03*
Y88000D02*
D03*
Y73000D02*
D03*
Y58000D02*
D03*
Y28000D02*
D03*
X113000Y208000D02*
D03*
Y163000D02*
D03*
Y148000D02*
D03*
Y133000D02*
D03*
Y118000D02*
D03*
Y103000D02*
D03*
Y88000D02*
D03*
Y73000D02*
D03*
Y58000D02*
D03*
Y28000D02*
D03*
X98000Y208000D02*
D03*
Y193000D02*
D03*
X83000Y208000D02*
D03*
Y163000D02*
D03*
Y148000D02*
D03*
Y133000D02*
D03*
Y88000D02*
D03*
Y73000D02*
D03*
Y58000D02*
D03*
Y43000D02*
D03*
Y28000D02*
D03*
X68000Y208000D02*
D03*
Y193000D02*
D03*
Y163000D02*
D03*
Y148000D02*
D03*
Y133000D02*
D03*
Y88000D02*
D03*
Y73000D02*
D03*
Y58000D02*
D03*
Y43000D02*
D03*
Y28000D02*
D03*
X53000Y208000D02*
D03*
Y193000D02*
D03*
Y178000D02*
D03*
Y163000D02*
D03*
Y148000D02*
D03*
Y133000D02*
D03*
Y118000D02*
D03*
Y103000D02*
D03*
Y88000D02*
D03*
Y73000D02*
D03*
Y58000D02*
D03*
Y43000D02*
D03*
Y28000D02*
D03*
X38000Y208000D02*
D03*
Y193000D02*
D03*
Y163000D02*
D03*
Y148000D02*
D03*
Y133000D02*
D03*
Y88000D02*
D03*
Y73000D02*
D03*
Y58000D02*
D03*
Y43000D02*
D03*
X23000Y208000D02*
D03*
Y193000D02*
D03*
Y178000D02*
D03*
Y163000D02*
D03*
Y148000D02*
D03*
Y133000D02*
D03*
Y118000D02*
D03*
Y103000D02*
D03*
Y88000D02*
D03*
Y73000D02*
D03*
Y58000D02*
D03*
X8000Y208000D02*
D03*
Y193000D02*
D03*
Y178000D02*
D03*
Y163000D02*
D03*
Y148000D02*
D03*
Y133000D02*
D03*
Y118000D02*
D03*
Y103000D02*
D03*
Y88000D02*
D03*
Y73000D02*
D03*
Y58000D02*
D03*
Y43000D02*
D03*
X223000Y162000D02*
D03*
X230000D02*
D03*
X237000D02*
D03*
X244000D02*
D03*
X251000D02*
D03*
X258000D02*
D03*
X265000D02*
D03*
X271000Y166000D02*
D03*
Y173000D02*
D03*
Y180000D02*
D03*
Y187000D02*
D03*
Y194000D02*
D03*
Y201000D02*
D03*
Y208000D02*
D03*
X262500Y107500D02*
D03*
X227500Y145000D02*
D03*
X392500Y117500D02*
D03*
Y132500D02*
D03*
Y147500D02*
D03*
Y162500D02*
D03*
Y177500D02*
D03*
Y192500D02*
D03*
Y207500D02*
D03*
Y72500D02*
D03*
Y57500D02*
D03*
X352500Y7500D02*
D03*
X337500D02*
D03*
X322500D02*
D03*
X307500D02*
D03*
X292500D02*
D03*
X277500D02*
D03*
X262500D02*
D03*
X247500D02*
D03*
X232500D02*
D03*
X217500D02*
D03*
X202500D02*
D03*
X187500D02*
D03*
X97500D02*
D03*
X172500D02*
D03*
X157500D02*
D03*
X142500D02*
D03*
X127500D02*
D03*
X112500D02*
D03*
X82500D02*
D03*
X67500D02*
D03*
X52500D02*
D03*
X352044Y131826D02*
D03*
X200914Y147828D02*
D03*
X178308Y147066D02*
D03*
X193040Y153416D02*
D03*
X186773Y147620D02*
D03*
X83000Y187000D02*
D03*
X160782Y184150D02*
D03*
X161544Y176784D02*
D03*
X178000Y180000D02*
D03*
X351000Y120000D02*
D03*
X184900Y163500D02*
D03*
X195700Y175000D02*
D03*
X201200Y179900D02*
D03*
X202250Y173500D02*
D03*
X184600Y173100D02*
D03*
X84000Y121000D02*
D03*
X186500Y197750D02*
D03*
X209500D02*
D03*
X208250Y179250D02*
D03*
X194000Y199000D02*
D03*
X202500Y163500D02*
D03*
X179500Y197750D02*
D03*
X202500Y198250D02*
D03*
X208500Y185750D02*
D03*
X193000Y163700D02*
D03*
D47*
X375000Y25000D02*
D03*
X25000D02*
D03*
M02*
