G04*
G04 #@! TF.GenerationSoftware,Altium Limited,Altium Designer,21.6.4 (81)*
G04*
G04 Layer_Color=16711935*
%FSLAX44Y44*%
%MOMM*%
G71*
G04*
G04 #@! TF.SameCoordinates,816F8A91-06EC-47E4-87ED-5788FB9A99D2*
G04*
G04*
G04 #@! TF.FilePolarity,Positive*
G04*
G01*
G75*
%ADD48C,0.0500*%
%ADD51C,0.1000*%
D48*
X383890Y25000D02*
G03*
X383890Y25000I-8890J0D01*
G01*
X33890D02*
G03*
X33890Y25000I-8890J0D01*
G01*
X167500Y131000D02*
Y196000D01*
Y131000D02*
X232500D01*
Y196000D01*
X167500D02*
X232500D01*
X156000Y201500D02*
X162000D01*
X156000Y190500D02*
Y201500D01*
Y190500D02*
X162000D01*
Y201500D01*
X80000Y177749D02*
X86000D01*
X80000Y169749D02*
X86000D01*
Y177749D01*
X80000Y169749D02*
Y177749D01*
X208500Y79000D02*
Y85000D01*
X219500Y79000D02*
Y85000D01*
X208500D02*
X219500D01*
X208500Y79000D02*
X219500D01*
X30750Y190500D02*
X70750D01*
X30750Y165500D02*
Y190500D01*
X70750Y165500D02*
Y190500D01*
X30750Y165500D02*
X42250D01*
X59250D02*
X70750D01*
X59248Y165501D02*
X59250Y165500D01*
X42250D02*
X59248Y165501D01*
X133250Y143350D02*
Y176350D01*
X149250Y143350D02*
Y176350D01*
X133250Y143350D02*
X149250D01*
X133250Y176350D02*
X149250D01*
X229500Y77500D02*
Y98500D01*
Y77500D02*
X250500D01*
Y98500D01*
X229500D02*
X250500D01*
X41750Y101500D02*
X58748Y101501D01*
X58750Y101500D01*
X70250D01*
X30250D02*
X41750D01*
X70250D02*
Y126500D01*
X30250Y101500D02*
Y126500D01*
X70250D01*
X208500Y91000D02*
X219500D01*
X208500Y97000D02*
X219500D01*
Y91000D02*
Y97000D01*
X208500Y91000D02*
Y97000D01*
X260000Y91500D02*
Y102500D01*
X266000Y91500D02*
Y102500D01*
X260000Y91500D02*
X266000D01*
X260000Y102500D02*
X266000D01*
X81250Y105749D02*
Y113749D01*
X87250Y105749D02*
Y113749D01*
X81250Y105749D02*
X87250D01*
X81250Y113749D02*
X87250D01*
D51*
X98400Y26700D02*
X301600D01*
Y1300D02*
Y26700D01*
X98400Y1300D02*
X301600D01*
X98400D02*
Y26700D01*
X131500Y135600D02*
X142000D01*
X131500Y130100D02*
X142000D01*
X131500D02*
Y135600D01*
X142000Y130100D02*
Y135600D01*
Y184100D02*
Y189600D01*
X131500Y184100D02*
Y189600D01*
Y184100D02*
X142000D01*
X131500Y189600D02*
X142000D01*
M02*
