G04*
G04 #@! TF.GenerationSoftware,Altium Limited,Altium Designer,21.6.4 (81)*
G04*
G04 Layer_Color=32768*
%FSLAX44Y44*%
%MOMM*%
G71*
G04*
G04 #@! TF.SameCoordinates,816F8A91-06EC-47E4-87ED-5788FB9A99D2*
G04*
G04*
G04 #@! TF.FilePolarity,Positive*
G04*
G01*
G75*
%ADD48C,0.0500*%
%ADD49C,0.0300*%
%ADD50C,0.0508*%
D48*
X359760Y21190D02*
Y31187D01*
X363092Y27854D01*
X366424Y31187D01*
Y21190D01*
X369757Y31187D02*
Y21190D01*
Y26188D01*
X376421D01*
Y31187D01*
Y21190D01*
X386418D02*
X379754D01*
X386418Y27854D01*
Y29521D01*
X384752Y31187D01*
X381420D01*
X379754Y29521D01*
X9760Y21190D02*
Y31187D01*
X13092Y27854D01*
X16424Y31187D01*
Y21190D01*
X19757Y31187D02*
Y21190D01*
Y26188D01*
X26421D01*
Y31187D01*
Y21190D01*
X29754D02*
X33086D01*
X31420D01*
Y31187D01*
X29754Y29521D01*
X208500Y79750D02*
Y84748D01*
X210999D01*
X211832Y83915D01*
Y82249D01*
X210999Y81416D01*
X208500D01*
X210166D02*
X211832Y79750D01*
X213498Y83915D02*
X214331Y84748D01*
X215998D01*
X216831Y83915D01*
Y83082D01*
X215998Y82249D01*
X215165D01*
X215998D01*
X216831Y81416D01*
Y80583D01*
X215998Y79750D01*
X214331D01*
X213498Y80583D01*
X63753Y172504D02*
X66252Y170005D01*
X71251D01*
X73750Y172504D01*
Y175003D01*
X71251Y177502D01*
X66252D01*
X63753Y180002D01*
Y182501D01*
X66252Y185000D01*
X71251D01*
X73750Y182501D01*
X58755Y170005D02*
Y185000D01*
X53756Y180002D01*
X48758Y185000D01*
Y170005D01*
X33763Y185000D02*
X43760D01*
X33763Y175003D01*
Y172504D01*
X36262Y170005D01*
X41260D01*
X43760Y172504D01*
X145747Y173100D02*
X137750Y167768D01*
X145747D02*
X137750Y173100D01*
Y165103D02*
Y162437D01*
Y163770D01*
X145747D01*
X144415Y165103D01*
X230000Y91997D02*
Y84000D01*
X233999D01*
X235332Y85333D01*
Y90665D01*
X233999Y91997D01*
X230000D01*
X237997Y90665D02*
X239330Y91997D01*
X241996D01*
X243329Y90665D01*
Y89332D01*
X241996Y87999D01*
X240663D01*
X241996D01*
X243329Y86666D01*
Y85333D01*
X241996Y84000D01*
X239330D01*
X237997Y85333D01*
X63253Y108504D02*
X65753Y106005D01*
X70751D01*
X73250Y108504D01*
Y111003D01*
X70751Y113502D01*
X65753D01*
X63253Y116002D01*
Y118501D01*
X65753Y121000D01*
X70751D01*
X73250Y118501D01*
X58255Y106005D02*
Y121000D01*
X53257Y116002D01*
X48258Y121000D01*
Y106005D01*
X43260Y121000D02*
X38261D01*
X40761D01*
Y106005D01*
X43260Y108504D01*
X208500Y91750D02*
Y96748D01*
X210999D01*
X211832Y95915D01*
Y94249D01*
X210999Y93416D01*
X208500D01*
X210166D02*
X211832Y91750D01*
X216831D02*
X213498D01*
X216831Y95082D01*
Y95915D01*
X215998Y96748D01*
X214331D01*
X213498Y95915D01*
X260750Y102500D02*
X265748D01*
Y100001D01*
X264915Y99168D01*
X263249D01*
X262416Y100001D01*
Y102500D01*
Y100834D02*
X260750Y99168D01*
Y97502D02*
Y95836D01*
Y96669D01*
X265748D01*
X264915Y97502D01*
D49*
X158750Y193000D02*
X158500Y192750D01*
Y192250D01*
X158750Y192000D01*
X159750D01*
X160000Y192250D01*
Y192750D01*
X159750Y193000D01*
X158750Y193500D02*
X158500Y193749D01*
Y194249D01*
X158750Y194499D01*
X159000D01*
X159250Y194249D01*
Y193999D01*
Y194249D01*
X159500Y194499D01*
X159750D01*
X160000Y194249D01*
Y193749D01*
X159750Y193500D01*
D50*
X85499Y180750D02*
X81000D01*
Y178501D01*
X81750Y177751D01*
X84749D01*
X85499Y178501D01*
Y180750D01*
X81000Y173253D02*
Y176252D01*
X83999Y173253D01*
X84749D01*
X85499Y174002D01*
Y175502D01*
X84749Y176252D01*
X86749Y116750D02*
X82250D01*
Y114501D01*
X83000Y113751D01*
X85999D01*
X86749Y114501D01*
Y116750D01*
X82250Y112251D02*
Y110752D01*
Y111502D01*
X86749D01*
X85999Y112251D01*
M02*
