G04*
G04 #@! TF.GenerationSoftware,Altium Limited,Altium Designer,21.6.4 (81)*
G04*
G04 Layer_Physical_Order=4*
G04 Layer_Color=16711680*
%FSLAX44Y44*%
%MOMM*%
G71*
G04*
G04 #@! TF.SameCoordinates,816F8A91-06EC-47E4-87ED-5788FB9A99D2*
G04*
G04*
G04 #@! TF.FilePolarity,Positive*
G04*
G01*
G75*
%ADD39C,0.1520*%
%ADD41C,0.3500*%
%ADD42C,0.9000*%
%ADD43C,1.6500*%
%ADD44R,1.6500X1.6500*%
%ADD45C,3.4000*%
%ADD46C,0.6000*%
G36*
X395922Y4078D02*
X4078Y4078D01*
X4078Y211500D01*
X214200D01*
Y190100D01*
X216100D01*
Y160300D01*
X211000D01*
Y156700D01*
X203097D01*
X199888Y159910D01*
X199216Y160358D01*
X198424Y160516D01*
X183698D01*
X181000Y163214D01*
Y176869D01*
X181078Y176921D01*
X181131Y177000D01*
X193000Y177000D01*
Y188600D01*
X202600D01*
Y196000D01*
X189400D01*
Y188400D01*
X176700D01*
Y200500D01*
X164800D01*
Y187934D01*
X163530Y187449D01*
X162448Y188172D01*
X160782Y188504D01*
X159116Y188172D01*
X157704Y187229D01*
X157029Y186220D01*
X95345D01*
X87316Y194249D01*
X86644Y194698D01*
X85852Y194856D01*
X80518D01*
X79726Y194698D01*
X79054Y194249D01*
X76006Y191201D01*
X75558Y190530D01*
X75400Y189738D01*
Y127530D01*
X75558Y126738D01*
X76006Y126067D01*
X79883Y122190D01*
X79646Y121000D01*
X79978Y119334D01*
X80921Y117921D01*
X82334Y116978D01*
X84000Y116646D01*
X85666Y116978D01*
X87079Y117921D01*
X88022Y119334D01*
X88354Y121000D01*
X88022Y122666D01*
X87079Y124079D01*
X85666Y125022D01*
X84000Y125354D01*
X82810Y125117D01*
X79540Y128387D01*
Y182649D01*
X80810Y183328D01*
X81334Y182978D01*
X83000Y182646D01*
X84190Y182883D01*
X87177Y179896D01*
X87848Y179448D01*
X88640Y179290D01*
X150523D01*
X154493Y175320D01*
X155164Y174872D01*
X155956Y174714D01*
X157792D01*
X158465Y173706D01*
X159878Y172762D01*
X161544Y172430D01*
X163210Y172762D01*
X163530Y172976D01*
X164800Y172297D01*
Y128300D01*
X176238D01*
Y124809D01*
X134537Y83108D01*
X134088Y82436D01*
X133930Y81644D01*
Y50940D01*
X131699Y50016D01*
X129710Y48490D01*
X128184Y46501D01*
X127225Y44185D01*
X126898Y41700D01*
X127225Y39215D01*
X128184Y36899D01*
X129710Y34910D01*
X131699Y33384D01*
X134015Y32425D01*
X136500Y32098D01*
X138985Y32425D01*
X141301Y33384D01*
X143290Y34910D01*
X144816Y36899D01*
X145775Y39215D01*
X146102Y41700D01*
X145775Y44185D01*
X144816Y46501D01*
X143290Y48490D01*
X141301Y50016D01*
X138985Y50975D01*
X138070Y51095D01*
Y80787D01*
X179771Y122488D01*
X180220Y123160D01*
X180378Y123952D01*
Y128300D01*
X184704D01*
Y121631D01*
X160436Y97364D01*
X159988Y96692D01*
X159830Y95900D01*
Y51030D01*
X159415Y50975D01*
X157099Y50016D01*
X155110Y48490D01*
X153584Y46501D01*
X152625Y44185D01*
X152298Y41700D01*
X152625Y39215D01*
X153584Y36899D01*
X155110Y34910D01*
X157099Y33384D01*
X159415Y32425D01*
X161900Y32098D01*
X164385Y32425D01*
X166701Y33384D01*
X168690Y34910D01*
X170216Y36899D01*
X171175Y39215D01*
X171502Y41700D01*
X171175Y44185D01*
X170216Y46501D01*
X168690Y48490D01*
X166701Y50016D01*
X164385Y50975D01*
X163970Y51030D01*
Y95043D01*
X188237Y119310D01*
X188686Y119981D01*
X188843Y120773D01*
Y128300D01*
X190970D01*
Y119960D01*
X191128Y119168D01*
X191576Y118497D01*
X204930Y105143D01*
Y70887D01*
X205088Y70094D01*
X205536Y69423D01*
X210630Y64329D01*
Y51030D01*
X210215Y50975D01*
X207899Y50016D01*
X205910Y48490D01*
X204384Y46501D01*
X203425Y44185D01*
X203098Y41700D01*
X203425Y39215D01*
X204384Y36899D01*
X205910Y34910D01*
X207899Y33384D01*
X210215Y32425D01*
X212700Y32098D01*
X215185Y32425D01*
X217501Y33384D01*
X219490Y34910D01*
X221016Y36899D01*
X221975Y39215D01*
X222302Y41700D01*
X221975Y44185D01*
X221016Y46501D01*
X219490Y48490D01*
X217501Y50016D01*
X215185Y50975D01*
X214770Y51030D01*
Y65187D01*
X214612Y65979D01*
X214164Y66650D01*
X209070Y71744D01*
Y106000D01*
X208912Y106792D01*
X208463Y107464D01*
X195110Y120817D01*
Y122897D01*
X196380Y123282D01*
X196402Y123250D01*
X197814Y122306D01*
X199480Y121974D01*
X200670Y122211D01*
X210807Y112074D01*
X211478Y111626D01*
X212270Y111468D01*
X256699D01*
X258687Y109480D01*
X258478Y109166D01*
X258146Y107500D01*
X258478Y105834D01*
X259422Y104422D01*
X260834Y103478D01*
X262500Y103146D01*
X264166Y103478D01*
X265578Y104422D01*
X266522Y105834D01*
X266854Y107500D01*
X266522Y109166D01*
X265578Y110578D01*
X264166Y111522D01*
X262500Y111854D01*
X262223Y111798D01*
X259020Y115001D01*
X258348Y115450D01*
X257556Y115608D01*
X213127D01*
X203597Y125138D01*
X203834Y126328D01*
X203694Y127030D01*
X204709Y128300D01*
X211036D01*
Y127762D01*
X211194Y126970D01*
X211642Y126299D01*
X219405Y118536D01*
X220076Y118088D01*
X220868Y117930D01*
X347248D01*
X347921Y116922D01*
X349334Y115978D01*
X351000Y115646D01*
X352666Y115978D01*
X352821Y116081D01*
X353941Y115483D01*
Y111095D01*
X294065Y51220D01*
X279380D01*
Y32180D01*
X298420D01*
Y46865D01*
X359197Y107643D01*
X359865Y108642D01*
X360099Y109820D01*
Y126850D01*
X359865Y128028D01*
X359197Y129027D01*
X356397Y131827D01*
X356066Y133492D01*
X355122Y134904D01*
X353710Y135848D01*
X352044Y136180D01*
X350378Y135848D01*
X348965Y134904D01*
X348022Y133492D01*
X347690Y131826D01*
X348022Y130160D01*
X348965Y128748D01*
X350378Y127804D01*
X352043Y127473D01*
X353830Y125686D01*
X353739Y124656D01*
X353559Y124550D01*
X352600Y124035D01*
X351000Y124354D01*
X349334Y124022D01*
X347921Y123078D01*
X347248Y122070D01*
X221725D01*
X216668Y127127D01*
X217155Y128300D01*
X218000D01*
Y139500D01*
X220100D01*
Y165000D01*
X267300D01*
Y211500D01*
X395922D01*
X395922Y4078D01*
D02*
G37*
%LPC*%
G36*
X368650Y151717D02*
X366213Y151233D01*
X364148Y149852D01*
X362767Y147787D01*
X362283Y145350D01*
X362767Y142913D01*
X364148Y140848D01*
X366213Y139467D01*
X368650Y138983D01*
X371087Y139467D01*
X373152Y140848D01*
X374533Y142913D01*
X375017Y145350D01*
X374533Y147787D01*
X373152Y149852D01*
X371087Y151233D01*
X368650Y151717D01*
D02*
G37*
G36*
X378810Y100917D02*
X376373Y100433D01*
X374308Y99052D01*
X372927Y96987D01*
X372443Y94550D01*
X372927Y92113D01*
X374308Y90048D01*
X376373Y88667D01*
X378810Y88183D01*
X381247Y88667D01*
X383312Y90048D01*
X384693Y92113D01*
X385177Y94550D01*
X384693Y96987D01*
X383312Y99052D01*
X381247Y100433D01*
X378810Y100917D01*
D02*
G37*
G36*
X358490D02*
X356053Y100433D01*
X353988Y99052D01*
X352607Y96987D01*
X352123Y94550D01*
X352607Y92113D01*
X353988Y90048D01*
X356053Y88667D01*
X358490Y88183D01*
X360927Y88667D01*
X362992Y90048D01*
X364373Y92113D01*
X364857Y94550D01*
X364373Y96987D01*
X362992Y99052D01*
X360927Y100433D01*
X358490Y100917D01*
D02*
G37*
G36*
X111862Y51202D02*
Y42462D01*
X120602D01*
X120375Y44185D01*
X119416Y46501D01*
X117890Y48490D01*
X115901Y50016D01*
X113585Y50975D01*
X111862Y51202D01*
D02*
G37*
G36*
X110338D02*
X108615Y50975D01*
X106299Y50016D01*
X104310Y48490D01*
X102784Y46501D01*
X101825Y44185D01*
X101598Y42462D01*
X110338D01*
Y51202D01*
D02*
G37*
G36*
X120602Y40938D02*
X111862D01*
Y32198D01*
X113585Y32425D01*
X115901Y33384D01*
X117890Y34910D01*
X119416Y36899D01*
X120375Y39215D01*
X120602Y40938D01*
D02*
G37*
G36*
X110338D02*
X101598D01*
X101825Y39215D01*
X102784Y36899D01*
X104310Y34910D01*
X106299Y33384D01*
X108615Y32425D01*
X110338Y32198D01*
Y40938D01*
D02*
G37*
G36*
X263500Y51302D02*
X261015Y50975D01*
X258699Y50016D01*
X256710Y48490D01*
X255184Y46501D01*
X254225Y44185D01*
X253898Y41700D01*
X254225Y39215D01*
X255184Y36899D01*
X256710Y34910D01*
X258699Y33384D01*
X261015Y32425D01*
X263500Y32098D01*
X265985Y32425D01*
X268301Y33384D01*
X270290Y34910D01*
X271816Y36899D01*
X272775Y39215D01*
X273102Y41700D01*
X272775Y44185D01*
X271816Y46501D01*
X270290Y48490D01*
X268301Y50016D01*
X265985Y50975D01*
X263500Y51302D01*
D02*
G37*
G36*
X238100D02*
X235615Y50975D01*
X233299Y50016D01*
X231310Y48490D01*
X229784Y46501D01*
X228825Y44185D01*
X228498Y41700D01*
X228825Y39215D01*
X229784Y36899D01*
X231310Y34910D01*
X233299Y33384D01*
X235615Y32425D01*
X238100Y32098D01*
X240585Y32425D01*
X242901Y33384D01*
X244890Y34910D01*
X246416Y36899D01*
X247375Y39215D01*
X247702Y41700D01*
X247375Y44185D01*
X246416Y46501D01*
X244890Y48490D01*
X242901Y50016D01*
X240585Y50975D01*
X238100Y51302D01*
D02*
G37*
G36*
X184250Y111604D02*
X182584Y111272D01*
X181171Y110329D01*
X180228Y108916D01*
X179896Y107250D01*
X180228Y105584D01*
X181171Y104171D01*
X182584Y103228D01*
X184250Y102896D01*
X184280Y102902D01*
X185230Y102056D01*
Y51030D01*
X184815Y50975D01*
X182499Y50016D01*
X180510Y48490D01*
X178984Y46501D01*
X178025Y44185D01*
X177698Y41700D01*
X178025Y39215D01*
X178984Y36899D01*
X180510Y34910D01*
X182499Y33384D01*
X184815Y32425D01*
X187300Y32098D01*
X189785Y32425D01*
X192101Y33384D01*
X194090Y34910D01*
X195616Y36899D01*
X196575Y39215D01*
X196902Y41700D01*
X196575Y44185D01*
X195616Y46501D01*
X194090Y48490D01*
X192101Y50016D01*
X189785Y50975D01*
X189370Y51030D01*
Y102988D01*
X189212Y103780D01*
X188764Y104451D01*
X188015Y105199D01*
X188272Y105584D01*
X188604Y107250D01*
X188272Y108916D01*
X187328Y110329D01*
X185916Y111272D01*
X184250Y111604D01*
D02*
G37*
G36*
X375762Y43283D02*
Y25762D01*
X393283D01*
X393006Y28582D01*
X391961Y32025D01*
X390264Y35199D01*
X387981Y37981D01*
X385199Y40264D01*
X382025Y41961D01*
X378582Y43006D01*
X375762Y43283D01*
D02*
G37*
G36*
X374238D02*
X371418Y43006D01*
X367975Y41961D01*
X364801Y40264D01*
X362019Y37981D01*
X359736Y35199D01*
X358039Y32025D01*
X356994Y28582D01*
X356717Y25762D01*
X374238D01*
Y43283D01*
D02*
G37*
G36*
X25762D02*
Y25762D01*
X43283D01*
X43006Y28582D01*
X41961Y32025D01*
X40264Y35199D01*
X37981Y37981D01*
X35199Y40264D01*
X32025Y41961D01*
X28582Y43006D01*
X25762Y43283D01*
D02*
G37*
G36*
X24238D02*
X21418Y43006D01*
X17975Y41961D01*
X14801Y40264D01*
X12019Y37981D01*
X9736Y35199D01*
X8039Y32025D01*
X6994Y28582D01*
X6717Y25762D01*
X24238D01*
Y43283D01*
D02*
G37*
G36*
X341210Y21676D02*
X314960D01*
Y10668D01*
X341210D01*
Y21676D01*
D02*
G37*
G36*
X393283Y24238D02*
X375762D01*
Y6717D01*
X378582Y6994D01*
X382025Y8039D01*
X385199Y9736D01*
X387981Y12019D01*
X390264Y14801D01*
X391961Y17975D01*
X393006Y21418D01*
X393283Y24238D01*
D02*
G37*
G36*
X374238D02*
X356717D01*
X356994Y21418D01*
X358039Y17975D01*
X359736Y14801D01*
X362019Y12019D01*
X364801Y9736D01*
X367975Y8039D01*
X371418Y6994D01*
X374238Y6717D01*
Y24238D01*
D02*
G37*
G36*
X43283D02*
X25762D01*
Y6717D01*
X28582Y6994D01*
X32025Y8039D01*
X35199Y9736D01*
X37981Y12019D01*
X40264Y14801D01*
X41961Y17975D01*
X43006Y21418D01*
X43283Y24238D01*
D02*
G37*
G36*
X24238D02*
X6717D01*
X6994Y21418D01*
X8039Y17975D01*
X9736Y14801D01*
X12019Y12019D01*
X14801Y9736D01*
X17975Y8039D01*
X21418Y6994D01*
X24238Y6717D01*
Y24238D01*
D02*
G37*
%LPD*%
G36*
X333357Y12311D02*
X332283D01*
Y15127D01*
X330957Y16406D01*
X328064Y12311D01*
X326645D01*
X330206Y17134D01*
X326791Y20431D01*
X328252D01*
X332283Y16401D01*
Y20431D01*
X333357D01*
Y12311D01*
D02*
G37*
G36*
X339664D02*
X334595D01*
Y13267D01*
X338591D01*
Y20431D01*
X339664D01*
Y12311D01*
D02*
G37*
G36*
X325571D02*
X324497D01*
Y20431D01*
X325571D01*
Y12311D01*
D02*
G37*
G36*
X319956Y20566D02*
X320102Y20561D01*
X320243Y20549D01*
X320384Y20531D01*
X320513Y20508D01*
X320636Y20484D01*
X320748Y20461D01*
X320853Y20431D01*
X320953Y20408D01*
X321041Y20379D01*
X321112Y20355D01*
X321176Y20338D01*
X321229Y20314D01*
X321264Y20302D01*
X321288Y20296D01*
X321293Y20291D01*
X321417Y20238D01*
X321528Y20179D01*
X321634Y20115D01*
X321734Y20050D01*
X321827Y19980D01*
X321909Y19915D01*
X321986Y19845D01*
X322050Y19780D01*
X322109Y19721D01*
X322162Y19663D01*
X322209Y19616D01*
X322244Y19569D01*
X322273Y19534D01*
X322291Y19504D01*
X322303Y19487D01*
X322309Y19481D01*
X322367Y19381D01*
X322420Y19276D01*
X322467Y19176D01*
X322508Y19076D01*
X322543Y18976D01*
X322573Y18882D01*
X322590Y18794D01*
X322614Y18706D01*
X322625Y18624D01*
X322637Y18554D01*
X322643Y18489D01*
X322649Y18436D01*
X322655Y18390D01*
Y18360D01*
Y18337D01*
Y18331D01*
X322649Y18225D01*
X322643Y18125D01*
X322608Y17938D01*
X322567Y17768D01*
X322537Y17691D01*
X322514Y17615D01*
X322485Y17550D01*
X322461Y17492D01*
X322438Y17445D01*
X322414Y17404D01*
X322397Y17369D01*
X322385Y17345D01*
X322379Y17328D01*
X322373Y17322D01*
X322314Y17240D01*
X322256Y17157D01*
X322115Y17011D01*
X321974Y16882D01*
X321833Y16776D01*
X321763Y16729D01*
X321704Y16688D01*
X321646Y16647D01*
X321599Y16618D01*
X321558Y16594D01*
X321528Y16576D01*
X321511Y16571D01*
X321505Y16565D01*
X321411Y16518D01*
X321311Y16477D01*
X321194Y16430D01*
X321071Y16383D01*
X320812Y16295D01*
X320554Y16219D01*
X320437Y16183D01*
X320320Y16154D01*
X320214Y16125D01*
X320126Y16101D01*
X320050Y16084D01*
X319991Y16066D01*
X319973Y16060D01*
X319956D01*
X319950Y16054D01*
X319944D01*
X319744Y16007D01*
X319563Y15961D01*
X319392Y15919D01*
X319246Y15878D01*
X319111Y15843D01*
X318993Y15814D01*
X318894Y15784D01*
X318800Y15755D01*
X318724Y15732D01*
X318659Y15714D01*
X318612Y15696D01*
X318571Y15685D01*
X318536Y15673D01*
X318518Y15667D01*
X318506Y15661D01*
X318501D01*
X318407Y15620D01*
X318325Y15585D01*
X318242Y15544D01*
X318172Y15503D01*
X318102Y15462D01*
X318043Y15421D01*
X317990Y15380D01*
X317943Y15344D01*
X317902Y15309D01*
X317867Y15274D01*
X317808Y15221D01*
X317779Y15186D01*
X317767Y15180D01*
Y15174D01*
X317691Y15063D01*
X317632Y14951D01*
X317591Y14840D01*
X317568Y14740D01*
X317550Y14646D01*
X317544Y14611D01*
Y14576D01*
X317538Y14546D01*
Y14529D01*
Y14517D01*
Y14511D01*
X317550Y14376D01*
X317574Y14241D01*
X317615Y14124D01*
X317656Y14024D01*
X317697Y13936D01*
X317720Y13901D01*
X317738Y13872D01*
X317750Y13848D01*
X317761Y13831D01*
X317773Y13819D01*
Y13813D01*
X317867Y13701D01*
X317978Y13602D01*
X318096Y13514D01*
X318207Y13443D01*
X318313Y13391D01*
X318354Y13367D01*
X318395Y13349D01*
X318424Y13332D01*
X318448Y13320D01*
X318465Y13314D01*
X318471D01*
X318653Y13256D01*
X318835Y13209D01*
X319017Y13179D01*
X319187Y13156D01*
X319263Y13150D01*
X319334Y13144D01*
X319392Y13138D01*
X319445D01*
X319492Y13132D01*
X319551D01*
X319803Y13144D01*
X320038Y13168D01*
X320149Y13191D01*
X320249Y13209D01*
X320349Y13232D01*
X320437Y13256D01*
X320513Y13273D01*
X320589Y13297D01*
X320648Y13320D01*
X320701Y13338D01*
X320742Y13349D01*
X320777Y13361D01*
X320795Y13373D01*
X320801D01*
X320900Y13420D01*
X320994Y13467D01*
X321082Y13520D01*
X321158Y13572D01*
X321235Y13625D01*
X321299Y13678D01*
X321364Y13731D01*
X321417Y13778D01*
X321464Y13825D01*
X321505Y13866D01*
X321540Y13901D01*
X321563Y13936D01*
X321587Y13966D01*
X321604Y13983D01*
X321610Y13995D01*
X321616Y14001D01*
X321704Y14159D01*
X321775Y14324D01*
X321833Y14494D01*
X321874Y14652D01*
X321892Y14728D01*
X321909Y14793D01*
X321921Y14857D01*
X321927Y14910D01*
X321939Y14951D01*
Y14981D01*
X321945Y15004D01*
Y15010D01*
X322960Y14922D01*
X322954Y14769D01*
X322936Y14623D01*
X322913Y14482D01*
X322883Y14347D01*
X322848Y14224D01*
X322813Y14101D01*
X322772Y13989D01*
X322731Y13883D01*
X322696Y13789D01*
X322655Y13707D01*
X322620Y13637D01*
X322584Y13572D01*
X322561Y13526D01*
X322537Y13490D01*
X322526Y13467D01*
X322520Y13461D01*
X322438Y13344D01*
X322350Y13232D01*
X322256Y13132D01*
X322156Y13039D01*
X322062Y12951D01*
X321962Y12868D01*
X321869Y12798D01*
X321775Y12733D01*
X321692Y12681D01*
X321610Y12628D01*
X321540Y12587D01*
X321475Y12551D01*
X321423Y12528D01*
X321387Y12510D01*
X321358Y12499D01*
X321352Y12493D01*
X321211Y12440D01*
X321059Y12387D01*
X320906Y12346D01*
X320748Y12311D01*
X320437Y12252D01*
X320290Y12235D01*
X320149Y12217D01*
X320014Y12205D01*
X319891Y12194D01*
X319780Y12188D01*
X319686Y12182D01*
X319610Y12176D01*
X319504D01*
X319345Y12182D01*
X319187Y12188D01*
X319035Y12205D01*
X318894Y12223D01*
X318759Y12252D01*
X318630Y12276D01*
X318506Y12305D01*
X318395Y12334D01*
X318295Y12364D01*
X318207Y12393D01*
X318131Y12422D01*
X318066Y12446D01*
X318014Y12464D01*
X317973Y12481D01*
X317949Y12487D01*
X317943Y12493D01*
X317814Y12557D01*
X317697Y12622D01*
X317585Y12692D01*
X317486Y12763D01*
X317392Y12839D01*
X317304Y12915D01*
X317222Y12986D01*
X317151Y13056D01*
X317087Y13121D01*
X317034Y13179D01*
X316987Y13238D01*
X316952Y13285D01*
X316922Y13326D01*
X316899Y13355D01*
X316887Y13373D01*
X316881Y13379D01*
X316817Y13490D01*
X316758Y13596D01*
X316705Y13707D01*
X316664Y13813D01*
X316629Y13919D01*
X316600Y14018D01*
X316570Y14118D01*
X316553Y14206D01*
X316535Y14294D01*
X316523Y14370D01*
X316517Y14435D01*
X316511Y14494D01*
X316506Y14541D01*
Y14576D01*
Y14599D01*
Y14605D01*
X316511Y14728D01*
X316517Y14840D01*
X316535Y14951D01*
X316558Y15057D01*
X316582Y15163D01*
X316611Y15256D01*
X316646Y15344D01*
X316676Y15426D01*
X316705Y15497D01*
X316740Y15561D01*
X316770Y15620D01*
X316793Y15667D01*
X316817Y15702D01*
X316828Y15732D01*
X316840Y15749D01*
X316846Y15755D01*
X316916Y15849D01*
X316987Y15937D01*
X317151Y16101D01*
X317327Y16242D01*
X317415Y16307D01*
X317497Y16359D01*
X317579Y16412D01*
X317656Y16459D01*
X317720Y16494D01*
X317779Y16530D01*
X317826Y16553D01*
X317867Y16571D01*
X317890Y16582D01*
X317896Y16588D01*
X317996Y16629D01*
X318113Y16670D01*
X318242Y16717D01*
X318383Y16758D01*
X318530Y16805D01*
X318677Y16846D01*
X318976Y16923D01*
X319117Y16964D01*
X319252Y16993D01*
X319375Y17023D01*
X319480Y17052D01*
X319568Y17069D01*
X319604Y17081D01*
X319633Y17087D01*
X319657Y17093D01*
X319674D01*
X319686Y17099D01*
X319692D01*
X319926Y17157D01*
X320138Y17210D01*
X320325Y17263D01*
X320495Y17316D01*
X320642Y17369D01*
X320777Y17416D01*
X320889Y17463D01*
X320988Y17504D01*
X321071Y17545D01*
X321135Y17580D01*
X321194Y17609D01*
X321235Y17638D01*
X321270Y17656D01*
X321288Y17674D01*
X321299Y17680D01*
X321305Y17686D01*
X321358Y17738D01*
X321405Y17797D01*
X321452Y17856D01*
X321487Y17920D01*
X321540Y18038D01*
X321575Y18155D01*
X321599Y18255D01*
X321604Y18296D01*
X321610Y18337D01*
X321616Y18366D01*
Y18390D01*
Y18401D01*
Y18407D01*
X321610Y18501D01*
X321599Y18589D01*
X321575Y18677D01*
X321546Y18753D01*
X321475Y18900D01*
X321434Y18970D01*
X321393Y19029D01*
X321352Y19082D01*
X321317Y19129D01*
X321276Y19170D01*
X321246Y19205D01*
X321217Y19234D01*
X321194Y19252D01*
X321182Y19264D01*
X321176Y19270D01*
X321088Y19334D01*
X320988Y19387D01*
X320877Y19434D01*
X320765Y19475D01*
X320648Y19510D01*
X320531Y19540D01*
X320296Y19581D01*
X320190Y19598D01*
X320085Y19610D01*
X319997Y19616D01*
X319915Y19622D01*
X319850Y19628D01*
X319756D01*
X319586Y19622D01*
X319428Y19610D01*
X319281Y19592D01*
X319140Y19569D01*
X319017Y19534D01*
X318900Y19504D01*
X318794Y19469D01*
X318700Y19434D01*
X318618Y19393D01*
X318547Y19358D01*
X318489Y19328D01*
X318436Y19299D01*
X318395Y19270D01*
X318372Y19252D01*
X318354Y19240D01*
X318348Y19234D01*
X318266Y19158D01*
X318190Y19070D01*
X318119Y18982D01*
X318060Y18888D01*
X318008Y18789D01*
X317961Y18695D01*
X317920Y18601D01*
X317890Y18507D01*
X317861Y18419D01*
X317838Y18337D01*
X317820Y18261D01*
X317808Y18202D01*
X317796Y18149D01*
X317791Y18108D01*
X317785Y18084D01*
Y18073D01*
X316752Y18149D01*
X316764Y18278D01*
X316776Y18407D01*
X316799Y18530D01*
X316828Y18648D01*
X316858Y18759D01*
X316893Y18865D01*
X316928Y18965D01*
X316963Y19053D01*
X317004Y19135D01*
X317034Y19205D01*
X317069Y19270D01*
X317098Y19323D01*
X317122Y19364D01*
X317139Y19399D01*
X317151Y19416D01*
X317157Y19422D01*
X317227Y19528D01*
X317309Y19622D01*
X317392Y19716D01*
X317480Y19798D01*
X317568Y19874D01*
X317656Y19944D01*
X317738Y20009D01*
X317826Y20062D01*
X317902Y20115D01*
X317978Y20156D01*
X318043Y20197D01*
X318102Y20226D01*
X318148Y20250D01*
X318184Y20267D01*
X318207Y20273D01*
X318213Y20279D01*
X318342Y20332D01*
X318477Y20379D01*
X318612Y20414D01*
X318753Y20449D01*
X319017Y20502D01*
X319146Y20519D01*
X319263Y20537D01*
X319381Y20549D01*
X319480Y20555D01*
X319574Y20566D01*
X319651D01*
X319715Y20572D01*
X319803D01*
X319956Y20566D01*
D02*
G37*
D39*
X184250Y106038D02*
X187300Y102988D01*
X184250Y106038D02*
Y107250D01*
X187300Y41700D02*
Y102988D01*
X207000Y70887D02*
X212700Y65187D01*
X207000Y70887D02*
Y106000D01*
X193040Y119960D02*
X207000Y106000D01*
X212700Y41700D02*
Y65187D01*
X193040Y119960D02*
Y139954D01*
X200914Y147828D01*
X199480Y126328D02*
X212270Y113538D01*
X257556D01*
X161900Y95900D02*
X186773Y120773D01*
X161900Y41700D02*
Y95900D01*
X186773Y120773D02*
Y147620D01*
X220868Y120000D02*
X351000D01*
X182840Y158446D02*
X198424D01*
X213106Y127762D02*
X220868Y120000D01*
X213106Y127762D02*
Y143764D01*
X198424Y158446D02*
X213106Y143764D01*
X136000Y81644D02*
X178308Y123952D01*
Y147066D01*
X178000Y163286D02*
X182840Y158446D01*
X178000Y163286D02*
Y179999D01*
X136000Y42200D02*
Y81644D01*
X77470Y127530D02*
X84000Y121000D01*
X77470Y189738D02*
X80518Y192786D01*
X77470Y127530D02*
Y189738D01*
X83000Y187000D02*
X88640Y181360D01*
X151380D01*
X80518Y192786D02*
X85852D01*
X94488Y184150D01*
X151380Y181360D02*
X155956Y176784D01*
X94488Y184150D02*
X160782D01*
X155956Y176784D02*
X161544D01*
X257556Y113538D02*
X262890Y108204D01*
X178000Y180000D02*
X178000Y179999D01*
X136000Y42200D02*
X136500Y41700D01*
D41*
X288900D02*
X357020Y109820D01*
Y126850D01*
X352044Y131826D02*
X357020Y126850D01*
D42*
X358490Y94550D02*
D03*
X378810D02*
D03*
X368650Y145350D02*
D03*
D43*
X161900Y41700D02*
D03*
X187300D02*
D03*
X212700D02*
D03*
X263500D02*
D03*
X238100D02*
D03*
X136500D02*
D03*
X111100D02*
D03*
D44*
X288900D02*
D03*
D45*
X375000Y25000D02*
D03*
X25000D02*
D03*
D46*
X184250Y107250D02*
D03*
X199480Y126328D02*
D03*
X211000Y208000D02*
D03*
X383000D02*
D03*
Y193000D02*
D03*
Y178000D02*
D03*
Y163000D02*
D03*
Y103000D02*
D03*
Y73000D02*
D03*
Y58000D02*
D03*
X368000Y208000D02*
D03*
Y193000D02*
D03*
Y178000D02*
D03*
Y163000D02*
D03*
Y88000D02*
D03*
Y58000D02*
D03*
X353000Y208000D02*
D03*
Y193000D02*
D03*
Y178000D02*
D03*
Y163000D02*
D03*
Y148000D02*
D03*
Y58000D02*
D03*
Y43000D02*
D03*
Y28000D02*
D03*
X338000Y208000D02*
D03*
Y193000D02*
D03*
Y178000D02*
D03*
Y163000D02*
D03*
Y148000D02*
D03*
Y133000D02*
D03*
Y103000D02*
D03*
Y73000D02*
D03*
Y58000D02*
D03*
Y43000D02*
D03*
Y28000D02*
D03*
X323000Y208000D02*
D03*
Y193000D02*
D03*
Y178000D02*
D03*
Y163000D02*
D03*
Y148000D02*
D03*
Y133000D02*
D03*
Y88000D02*
D03*
Y58000D02*
D03*
Y43000D02*
D03*
Y28000D02*
D03*
X308000Y208000D02*
D03*
Y193000D02*
D03*
Y178000D02*
D03*
Y163000D02*
D03*
Y148000D02*
D03*
Y133000D02*
D03*
Y103000D02*
D03*
Y88000D02*
D03*
Y73000D02*
D03*
Y43000D02*
D03*
Y28000D02*
D03*
X293000Y208000D02*
D03*
Y193000D02*
D03*
Y178000D02*
D03*
Y163000D02*
D03*
Y148000D02*
D03*
Y133000D02*
D03*
Y103000D02*
D03*
Y88000D02*
D03*
Y73000D02*
D03*
X278000Y178000D02*
D03*
Y163000D02*
D03*
Y148000D02*
D03*
Y133000D02*
D03*
Y103000D02*
D03*
Y88000D02*
D03*
Y28000D02*
D03*
X263000Y148000D02*
D03*
Y133000D02*
D03*
Y28000D02*
D03*
X248000Y148000D02*
D03*
Y133000D02*
D03*
Y103000D02*
D03*
Y73000D02*
D03*
Y58000D02*
D03*
Y28000D02*
D03*
X233000Y103000D02*
D03*
Y73000D02*
D03*
Y28000D02*
D03*
X218000D02*
D03*
X203000Y208000D02*
D03*
Y58000D02*
D03*
Y28000D02*
D03*
X188000Y208000D02*
D03*
Y28000D02*
D03*
X173000Y208000D02*
D03*
Y88000D02*
D03*
Y73000D02*
D03*
Y58000D02*
D03*
Y28000D02*
D03*
X158000Y208000D02*
D03*
Y28000D02*
D03*
X143000Y208000D02*
D03*
Y163000D02*
D03*
Y118000D02*
D03*
Y103000D02*
D03*
Y73000D02*
D03*
Y58000D02*
D03*
Y28000D02*
D03*
X128000Y208000D02*
D03*
Y163000D02*
D03*
Y148000D02*
D03*
Y118000D02*
D03*
Y103000D02*
D03*
Y88000D02*
D03*
Y73000D02*
D03*
Y58000D02*
D03*
Y28000D02*
D03*
X113000Y208000D02*
D03*
Y163000D02*
D03*
Y148000D02*
D03*
Y133000D02*
D03*
Y118000D02*
D03*
Y103000D02*
D03*
Y88000D02*
D03*
Y73000D02*
D03*
Y58000D02*
D03*
Y28000D02*
D03*
X98000Y208000D02*
D03*
Y193000D02*
D03*
X83000Y208000D02*
D03*
Y163000D02*
D03*
Y148000D02*
D03*
Y133000D02*
D03*
Y88000D02*
D03*
Y73000D02*
D03*
Y58000D02*
D03*
Y43000D02*
D03*
Y28000D02*
D03*
X68000Y208000D02*
D03*
Y193000D02*
D03*
Y163000D02*
D03*
Y148000D02*
D03*
Y133000D02*
D03*
Y88000D02*
D03*
Y73000D02*
D03*
Y58000D02*
D03*
Y43000D02*
D03*
Y28000D02*
D03*
X53000Y208000D02*
D03*
Y193000D02*
D03*
Y178000D02*
D03*
Y163000D02*
D03*
Y148000D02*
D03*
Y133000D02*
D03*
Y118000D02*
D03*
Y103000D02*
D03*
Y88000D02*
D03*
Y73000D02*
D03*
Y58000D02*
D03*
Y43000D02*
D03*
Y28000D02*
D03*
X38000Y208000D02*
D03*
Y193000D02*
D03*
Y163000D02*
D03*
Y148000D02*
D03*
Y133000D02*
D03*
Y88000D02*
D03*
Y73000D02*
D03*
Y58000D02*
D03*
Y43000D02*
D03*
X23000Y208000D02*
D03*
Y193000D02*
D03*
Y178000D02*
D03*
Y163000D02*
D03*
Y148000D02*
D03*
Y133000D02*
D03*
Y118000D02*
D03*
Y103000D02*
D03*
Y88000D02*
D03*
Y73000D02*
D03*
Y58000D02*
D03*
X8000Y208000D02*
D03*
Y193000D02*
D03*
Y178000D02*
D03*
Y163000D02*
D03*
Y148000D02*
D03*
Y133000D02*
D03*
Y118000D02*
D03*
Y103000D02*
D03*
Y88000D02*
D03*
Y73000D02*
D03*
Y58000D02*
D03*
Y43000D02*
D03*
X223000Y162000D02*
D03*
X230000D02*
D03*
X237000D02*
D03*
X244000D02*
D03*
X251000D02*
D03*
X258000D02*
D03*
X265000D02*
D03*
X271000Y166000D02*
D03*
Y173000D02*
D03*
Y180000D02*
D03*
Y187000D02*
D03*
Y194000D02*
D03*
Y201000D02*
D03*
Y208000D02*
D03*
X262500Y107500D02*
D03*
X227500Y145000D02*
D03*
X392500Y117500D02*
D03*
Y132500D02*
D03*
Y147500D02*
D03*
Y162500D02*
D03*
Y177500D02*
D03*
Y192500D02*
D03*
Y207500D02*
D03*
Y72500D02*
D03*
Y57500D02*
D03*
X352500Y7500D02*
D03*
X337500D02*
D03*
X322500D02*
D03*
X307500D02*
D03*
X292500D02*
D03*
X277500D02*
D03*
X262500D02*
D03*
X247500D02*
D03*
X232500D02*
D03*
X217500D02*
D03*
X202500D02*
D03*
X187500D02*
D03*
X97500D02*
D03*
X172500D02*
D03*
X157500D02*
D03*
X142500D02*
D03*
X127500D02*
D03*
X112500D02*
D03*
X82500D02*
D03*
X67500D02*
D03*
X52500D02*
D03*
X352044Y131826D02*
D03*
X200914Y147828D02*
D03*
X178308Y147066D02*
D03*
X193040Y153416D02*
D03*
X186773Y147620D02*
D03*
X83000Y187000D02*
D03*
X160782Y184150D02*
D03*
X161544Y176784D02*
D03*
X178000Y180000D02*
D03*
X351000Y120000D02*
D03*
X184900Y163500D02*
D03*
X195700Y175000D02*
D03*
X201200Y179900D02*
D03*
X202250Y173500D02*
D03*
X184600Y173100D02*
D03*
X84000Y121000D02*
D03*
X186500Y197750D02*
D03*
X209500D02*
D03*
X208250Y179250D02*
D03*
X194000Y199000D02*
D03*
X202500Y163500D02*
D03*
X179500Y197750D02*
D03*
X202500Y198250D02*
D03*
X208500Y185750D02*
D03*
X193000Y163700D02*
D03*
M02*
