G04*
G04 #@! TF.GenerationSoftware,Altium Limited,Altium Designer,21.6.4 (81)*
G04*
G04 Layer_Color=32896*
%FSLAX44Y44*%
%MOMM*%
G71*
G04*
G04 #@! TF.SameCoordinates,816F8A91-06EC-47E4-87ED-5788FB9A99D2*
G04*
G04*
G04 #@! TF.FilePolarity,Positive*
G04*
G01*
G75*
G36*
X207791Y159343D02*
X208038D01*
X208285Y159325D01*
X208532Y159307D01*
X208620D01*
X208726Y159290D01*
X208849D01*
X208955Y159272D01*
X209061D01*
X209149Y159255D01*
X209184Y159237D01*
Y159219D01*
X209202Y159184D01*
Y159131D01*
X209219Y159025D01*
Y158867D01*
X209237Y158761D01*
Y158655D01*
Y158514D01*
Y158356D01*
Y158338D01*
Y158320D01*
Y158267D01*
Y158197D01*
Y158109D01*
X209254Y158003D01*
Y157880D01*
Y157739D01*
Y157404D01*
X209272Y156998D01*
Y156522D01*
Y155993D01*
Y155976D01*
Y155923D01*
Y155852D01*
Y155729D01*
Y155588D01*
Y155429D01*
Y155235D01*
Y155006D01*
Y154760D01*
Y154513D01*
X209290Y154213D01*
Y153913D01*
Y153261D01*
X209307Y152556D01*
Y152538D01*
Y152468D01*
Y152362D01*
Y152221D01*
Y152027D01*
Y151816D01*
Y151569D01*
Y151287D01*
Y150987D01*
Y150670D01*
Y150317D01*
Y149965D01*
Y149189D01*
Y148378D01*
Y137608D01*
X205288D01*
Y138560D01*
Y138577D01*
Y138630D01*
Y138701D01*
Y138806D01*
Y139036D01*
X205271Y139247D01*
Y139265D01*
Y139300D01*
X205253Y139388D01*
X205235Y139494D01*
Y139512D01*
X205218Y139529D01*
X205182Y139512D01*
X205112Y139441D01*
X205059Y139388D01*
X204989Y139318D01*
X204971D01*
X204953Y139282D01*
X204830Y139194D01*
X204671Y139036D01*
X204477Y138859D01*
X204460Y138842D01*
X204425Y138824D01*
X204372Y138771D01*
X204301Y138701D01*
X204213Y138630D01*
X204107Y138542D01*
X203825Y138331D01*
X203490Y138119D01*
X203102Y137890D01*
X202662Y137678D01*
X202186Y137502D01*
X202168D01*
X202133Y137484D01*
X202045Y137467D01*
X201957Y137449D01*
X201833Y137414D01*
X201692Y137396D01*
X201516Y137361D01*
X201322Y137343D01*
X201128Y137308D01*
X200899Y137290D01*
X200406Y137273D01*
X199877Y137290D01*
X199295Y137343D01*
X199277D01*
X199207Y137361D01*
X199119Y137379D01*
X198978Y137396D01*
X198837Y137432D01*
X198643Y137467D01*
X198431Y137502D01*
X198220Y137573D01*
X197726Y137714D01*
X197215Y137907D01*
X196704Y138137D01*
X196228Y138436D01*
X196210Y138454D01*
X196175Y138472D01*
X196104Y138525D01*
X196016Y138595D01*
X195910Y138683D01*
X195787Y138806D01*
X195664Y138930D01*
X195505Y139088D01*
X195346Y139247D01*
X195188Y139441D01*
X195029Y139635D01*
X194853Y139864D01*
X194676Y140111D01*
X194518Y140375D01*
X194359Y140640D01*
X194201Y140939D01*
Y140957D01*
X194183Y140975D01*
X194165Y141028D01*
X194130Y141098D01*
X194060Y141292D01*
X193954Y141539D01*
X193848Y141839D01*
X193760Y142173D01*
X193654Y142526D01*
X193584Y142914D01*
Y142931D01*
X193566Y142967D01*
Y143020D01*
X193548Y143108D01*
X193531Y143196D01*
X193513Y143319D01*
X193495Y143460D01*
X193478Y143619D01*
X193443Y143971D01*
X193425Y144395D01*
X193390Y144870D01*
Y145382D01*
Y145399D01*
Y145470D01*
Y145576D01*
Y145734D01*
X193407Y145910D01*
Y146104D01*
X193425Y146334D01*
X193460Y146598D01*
X193478Y146862D01*
X193513Y147162D01*
X193601Y147761D01*
X193725Y148361D01*
X193901Y148960D01*
Y148978D01*
X193918Y149031D01*
X193954Y149119D01*
X193989Y149224D01*
X194042Y149348D01*
X194112Y149507D01*
X194183Y149683D01*
X194271Y149859D01*
X194483Y150282D01*
X194747Y150705D01*
X195047Y151146D01*
X195399Y151551D01*
X195417Y151569D01*
X195452Y151604D01*
X195505Y151639D01*
X195576Y151710D01*
X195664Y151798D01*
X195787Y151886D01*
X196051Y152115D01*
X196404Y152345D01*
X196774Y152591D01*
X197215Y152803D01*
X197673Y152997D01*
X197691D01*
X197726Y153014D01*
X197797Y153032D01*
X197902Y153067D01*
X198008Y153103D01*
X198167Y153138D01*
X198325Y153173D01*
X198519Y153208D01*
X198731Y153244D01*
X198960Y153279D01*
X199207Y153314D01*
X199471Y153332D01*
X200035Y153367D01*
X200793D01*
X200881Y153349D01*
X200987D01*
X201111Y153332D01*
X201393Y153296D01*
X201710Y153244D01*
X202045Y153173D01*
X202397Y153085D01*
X202715Y152979D01*
X202750Y152962D01*
X202856Y152926D01*
X203014Y152838D01*
X203208Y152732D01*
X203455Y152574D01*
X203720Y152397D01*
X204019Y152186D01*
X204319Y151921D01*
X204989Y151287D01*
Y159360D01*
X207562D01*
X207791Y159343D01*
D02*
G37*
G36*
X166472Y153085D02*
X166984D01*
X167107Y153067D01*
X167248D01*
X167371Y153050D01*
X167442D01*
X167477Y153032D01*
X167460Y153014D01*
X167442Y152961D01*
X167371Y152873D01*
X167283Y152732D01*
X167213Y152644D01*
X167142Y152521D01*
X167054Y152397D01*
X166948Y152239D01*
X166825Y152062D01*
X166684Y151868D01*
X166666Y151851D01*
X166649Y151816D01*
X166596Y151763D01*
X166543Y151675D01*
X166455Y151569D01*
X166367Y151428D01*
X166261Y151287D01*
X166137Y151128D01*
X165996Y150934D01*
X165855Y150723D01*
X165538Y150282D01*
X165168Y149771D01*
X164762Y149207D01*
X164745Y149189D01*
X164710Y149136D01*
X164657Y149048D01*
X164569Y148942D01*
X164463Y148801D01*
X164357Y148643D01*
X164216Y148466D01*
X164075Y148290D01*
X163775Y147867D01*
X163458Y147409D01*
X163123Y146950D01*
X162823Y146510D01*
X162806Y146492D01*
X162788Y146457D01*
X162753Y146404D01*
X162700Y146334D01*
X162577Y146157D01*
X162436Y145946D01*
X162295Y145734D01*
X162171Y145540D01*
X162118Y145452D01*
X162083Y145399D01*
X162048Y145346D01*
Y145329D01*
X162065Y145311D01*
X162101Y145258D01*
X162171Y145170D01*
X162277Y145029D01*
X162348Y144923D01*
X162436Y144817D01*
X162541Y144677D01*
X162647Y144535D01*
X162771Y144341D01*
X162929Y144148D01*
X162947Y144130D01*
X162964Y144095D01*
X163017Y144024D01*
X163070Y143936D01*
X163158Y143830D01*
X163246Y143707D01*
X163370Y143548D01*
X163493Y143372D01*
X163617Y143178D01*
X163775Y142967D01*
X164110Y142508D01*
X164480Y141979D01*
X164904Y141398D01*
X167777Y137608D01*
X165397Y137643D01*
X163017Y137678D01*
X161343Y139987D01*
Y140005D01*
X161307Y140023D01*
X161272Y140076D01*
X161219Y140146D01*
X161096Y140323D01*
X160920Y140552D01*
X160743Y140798D01*
X160532Y141080D01*
X160320Y141362D01*
X160126Y141627D01*
X160109Y141662D01*
X160038Y141733D01*
X159950Y141856D01*
X159862Y141979D01*
X159756Y142103D01*
X159650Y142226D01*
X159580Y142297D01*
X159545Y142332D01*
X159527D01*
X159509Y142314D01*
X159457Y142261D01*
X159404Y142191D01*
X159298Y142068D01*
X159174Y141909D01*
X158998Y141680D01*
X158981Y141644D01*
X158910Y141556D01*
X158787Y141415D01*
X158646Y141222D01*
X158469Y140975D01*
X158258Y140693D01*
X158011Y140375D01*
X157764Y140023D01*
X156019Y137678D01*
X153534Y137643D01*
X153357D01*
X153163Y137625D01*
X151507D01*
X151365Y137643D01*
X151242D01*
X151119Y137661D01*
X151031D01*
X150995Y137678D01*
X151013Y137696D01*
X151031Y137731D01*
X151101Y137819D01*
X151207Y137960D01*
X151277Y138048D01*
X151348Y138154D01*
X151454Y138295D01*
X151559Y138454D01*
X151700Y138630D01*
X151841Y138824D01*
X151859Y138842D01*
X151877Y138877D01*
X151930Y138947D01*
X151982Y139036D01*
X152071Y139141D01*
X152159Y139282D01*
X152282Y139423D01*
X152406Y139600D01*
X152547Y139794D01*
X152705Y140005D01*
X153040Y140481D01*
X153446Y140992D01*
X153869Y141574D01*
X153886Y141592D01*
X153921Y141644D01*
X153992Y141733D01*
X154080Y141856D01*
X154186Y141997D01*
X154309Y142173D01*
X154433Y142367D01*
X154591Y142561D01*
X154909Y143002D01*
X155244Y143478D01*
X155578Y143936D01*
X155878Y144377D01*
Y144394D01*
X155913Y144430D01*
X155949Y144483D01*
X155984Y144553D01*
X156107Y144729D01*
X156248Y144941D01*
X156372Y145152D01*
X156495Y145346D01*
X156530Y145417D01*
X156566Y145487D01*
X156583Y145540D01*
Y145558D01*
X156566Y145576D01*
X156530Y145611D01*
X156477Y145664D01*
X156407Y145752D01*
X156319Y145875D01*
X156195Y146034D01*
X156037Y146263D01*
X156019Y146298D01*
X155949Y146386D01*
X155861Y146527D01*
X155719Y146704D01*
X155561Y146933D01*
X155385Y147197D01*
X155173Y147479D01*
X154944Y147797D01*
Y147814D01*
X154909Y147832D01*
X154891Y147885D01*
X154838Y147938D01*
X154715Y148114D01*
X154538Y148361D01*
X154345Y148625D01*
X154115Y148960D01*
X153851Y149312D01*
X153569Y149700D01*
X153551Y149718D01*
X153534Y149753D01*
X153498Y149806D01*
X153446Y149877D01*
X153305Y150070D01*
X153111Y150317D01*
X152917Y150582D01*
X152705Y150881D01*
X152494Y151163D01*
X152300Y151428D01*
X152282Y151463D01*
X152212Y151534D01*
X152123Y151657D01*
X152018Y151798D01*
X151894Y151974D01*
X151753Y152151D01*
X151489Y152521D01*
X151471Y152538D01*
X151436Y152591D01*
X151383Y152679D01*
X151313Y152767D01*
X151260Y152856D01*
X151207Y152944D01*
X151172Y152997D01*
X151154Y153032D01*
X151172D01*
X151189Y153050D01*
X151242D01*
X151313Y153067D01*
X151436D01*
X151595Y153085D01*
X153111D01*
X153463Y153067D01*
X155755Y153032D01*
X157394Y150758D01*
Y150740D01*
X157429Y150723D01*
X157465Y150670D01*
X157500Y150599D01*
X157641Y150423D01*
X157800Y150194D01*
X157976Y149947D01*
X158187Y149665D01*
X158381Y149401D01*
X158593Y149136D01*
X158610Y149101D01*
X158681Y149031D01*
X158751Y148925D01*
X158857Y148801D01*
X158945Y148678D01*
X159033Y148572D01*
X159104Y148502D01*
X159139Y148466D01*
X159157D01*
X159174Y148484D01*
X159227Y148519D01*
X159298Y148607D01*
X159386Y148713D01*
X159527Y148872D01*
X159703Y149101D01*
X159721Y149136D01*
X159791Y149224D01*
X159897Y149383D01*
X160038Y149577D01*
X160215Y149824D01*
X160408Y150106D01*
X160638Y150405D01*
X160884Y150758D01*
X162559Y153103D01*
X166173D01*
X166472Y153085D01*
D02*
G37*
G36*
X190604Y148466D02*
Y137608D01*
X186444D01*
Y159360D01*
X190604D01*
Y148466D01*
D02*
G37*
G36*
X177014Y153314D02*
X177454Y153279D01*
X177877Y153244D01*
X178071Y153208D01*
X178248Y153173D01*
X178265D01*
X178336Y153155D01*
X178442Y153120D01*
X178582Y153085D01*
X178759Y153014D01*
X178970Y152944D01*
X179200Y152856D01*
X179446Y152768D01*
X179993Y152503D01*
X180292Y152362D01*
X180574Y152186D01*
X180874Y151992D01*
X181174Y151780D01*
X181456Y151551D01*
X181738Y151305D01*
X181756Y151287D01*
X181808Y151234D01*
X181879Y151164D01*
X181967Y151058D01*
X182090Y150917D01*
X182214Y150758D01*
X182355Y150564D01*
X182514Y150353D01*
X182672Y150123D01*
X182831Y149859D01*
X182989Y149577D01*
X183148Y149277D01*
X183289Y148960D01*
X183430Y148625D01*
X183536Y148272D01*
X183642Y147902D01*
Y147885D01*
Y147867D01*
X183659Y147814D01*
X183677Y147726D01*
X183694Y147638D01*
Y147514D01*
X183712Y147391D01*
X183730Y147233D01*
X183747Y147056D01*
X183765Y146862D01*
X183783Y146651D01*
X183800Y146439D01*
X183818Y145928D01*
X183836Y145346D01*
Y145329D01*
Y145276D01*
Y145188D01*
Y145082D01*
Y144941D01*
X183818Y144782D01*
Y144430D01*
X183783Y144024D01*
X183747Y143601D01*
X183712Y143178D01*
X183642Y142808D01*
Y142790D01*
X183624Y142720D01*
X183589Y142614D01*
X183554Y142473D01*
X183483Y142297D01*
X183412Y142085D01*
X183324Y141856D01*
X183236Y141609D01*
X182972Y141081D01*
X182831Y140798D01*
X182654Y140516D01*
X182478Y140217D01*
X182267Y139935D01*
X182038Y139670D01*
X181791Y139406D01*
X181773Y139388D01*
X181720Y139353D01*
X181650Y139282D01*
X181544Y139194D01*
X181403Y139071D01*
X181244Y138947D01*
X181050Y138806D01*
X180839Y138666D01*
X180592Y138507D01*
X180328Y138348D01*
X180046Y138189D01*
X179746Y138031D01*
X179411Y137890D01*
X179058Y137749D01*
X178688Y137626D01*
X178300Y137520D01*
X178283D01*
X178265Y137502D01*
X178195D01*
X178124Y137484D01*
X178036Y137467D01*
X177930Y137449D01*
X177789Y137414D01*
X177631Y137396D01*
X177472Y137379D01*
X177278Y137343D01*
X176855Y137308D01*
X176361Y137290D01*
X175797Y137273D01*
X175410D01*
X175251Y137290D01*
X174898Y137308D01*
X174493Y137326D01*
X174088Y137379D01*
X173682Y137431D01*
X173312Y137520D01*
X173294D01*
X173224Y137537D01*
X173118Y137572D01*
X172977Y137608D01*
X172801Y137678D01*
X172607Y137731D01*
X172395Y137819D01*
X172148Y137907D01*
X171637Y138154D01*
X171091Y138436D01*
X170544Y138789D01*
X170298Y138983D01*
X170051Y139194D01*
X170033Y139212D01*
X169998Y139247D01*
X169927Y139318D01*
X169839Y139406D01*
X169733Y139529D01*
X169610Y139670D01*
X169487Y139846D01*
X169328Y140040D01*
X169169Y140252D01*
X169011Y140481D01*
X168852Y140745D01*
X168693Y141028D01*
X168535Y141327D01*
X168394Y141644D01*
X168235Y141979D01*
X168112Y142332D01*
X168094Y142350D01*
X168076Y142402D01*
X168041Y142508D01*
X168006Y142632D01*
X167971Y142773D01*
X167935Y142949D01*
X167900Y143125D01*
X167882Y143337D01*
Y143372D01*
Y143442D01*
X167865Y143601D01*
Y143795D01*
Y144077D01*
X167847Y144412D01*
Y144606D01*
Y144817D01*
Y145047D01*
Y145293D01*
Y145311D01*
Y145364D01*
Y145435D01*
Y145523D01*
Y145646D01*
Y145769D01*
Y146069D01*
X167865Y146404D01*
Y146721D01*
X167882Y147039D01*
Y147162D01*
X167900Y147285D01*
Y147321D01*
X167918Y147391D01*
Y147497D01*
X167953Y147655D01*
X167988Y147832D01*
X168024Y148043D01*
X168147Y148502D01*
Y148519D01*
X168165Y148572D01*
X168200Y148660D01*
X168253Y148784D01*
X168306Y148925D01*
X168376Y149101D01*
X168447Y149277D01*
X168552Y149489D01*
X168782Y149930D01*
X169081Y150405D01*
X169434Y150864D01*
X169857Y151322D01*
X169874Y151340D01*
X169910Y151375D01*
X169980Y151428D01*
X170068Y151516D01*
X170192Y151604D01*
X170333Y151710D01*
X170491Y151833D01*
X170685Y151974D01*
X170897Y152115D01*
X171126Y152256D01*
X171373Y152397D01*
X171637Y152538D01*
X171937Y152679D01*
X172237Y152820D01*
X172906Y153067D01*
X172942Y153085D01*
X172977D01*
X173047Y153103D01*
X173118Y153120D01*
X173224Y153138D01*
X173347Y153155D01*
X173488Y153191D01*
X173647Y153208D01*
X173841Y153226D01*
X174052Y153261D01*
X174281Y153279D01*
X174546Y153296D01*
X174828Y153314D01*
X175145Y153332D01*
X176555Y153332D01*
X177014Y153314D01*
D02*
G37*
G36*
X232276Y168544D02*
X232294D01*
X232382Y168527D01*
X232488Y168509D01*
X232646Y168491D01*
X232840Y168456D01*
X233069Y168421D01*
X233334Y168368D01*
X233616Y168315D01*
X233933Y168245D01*
X234251Y168174D01*
X234956Y168015D01*
X235678Y167804D01*
X236419Y167575D01*
X236436D01*
X236507Y167540D01*
X236613Y167504D01*
X236754Y167451D01*
X236930Y167381D01*
X237124Y167310D01*
X237353Y167222D01*
X237617Y167116D01*
X237882Y166993D01*
X238181Y166870D01*
X238798Y166570D01*
X239468Y166235D01*
X240120Y165865D01*
X240138Y165847D01*
X240191Y165812D01*
X240297Y165759D01*
X240420Y165689D01*
X240561Y165583D01*
X240737Y165459D01*
X240949Y165318D01*
X241161Y165177D01*
X241654Y164807D01*
X242183Y164402D01*
X242747Y163926D01*
X243293Y163415D01*
X243311Y163397D01*
X243364Y163344D01*
X243434Y163274D01*
X243540Y163168D01*
X243681Y163027D01*
X243822Y162868D01*
X243999Y162692D01*
X244175Y162480D01*
X244386Y162251D01*
X244598Y162004D01*
X245056Y161476D01*
X245515Y160876D01*
X245973Y160242D01*
X245990Y160224D01*
X246026Y160154D01*
X246096Y160048D01*
X246184Y159907D01*
X246290Y159713D01*
X246413Y159501D01*
X246555Y159255D01*
X246713Y158973D01*
X246872Y158673D01*
X247048Y158338D01*
X247224Y157985D01*
X247401Y157633D01*
X247736Y156840D01*
X248053Y156011D01*
Y155993D01*
X248088Y155905D01*
X248123Y155782D01*
X248176Y155623D01*
X248229Y155412D01*
X248300Y155165D01*
X248370Y154883D01*
X248441Y154583D01*
X248529Y154231D01*
X248599Y153878D01*
X248670Y153490D01*
X248758Y153085D01*
X248881Y152239D01*
X248969Y151357D01*
Y151322D01*
Y151252D01*
X248987Y151128D01*
Y150952D01*
Y150740D01*
Y150476D01*
X249005Y150194D01*
X248987Y149877D01*
Y149524D01*
X248969Y149154D01*
X248952Y148766D01*
X248917Y148361D01*
X248829Y147514D01*
X248687Y146633D01*
Y146598D01*
X248670Y146527D01*
X248635Y146404D01*
X248599Y146228D01*
X248564Y146016D01*
X248494Y145769D01*
X248423Y145487D01*
X248353Y145170D01*
X248247Y144835D01*
X248141Y144483D01*
X247894Y143725D01*
X247577Y142914D01*
X247224Y142103D01*
X247207Y142085D01*
X247171Y142015D01*
X247119Y141909D01*
X247048Y141750D01*
X246960Y141574D01*
X246854Y141362D01*
X246713Y141133D01*
X246572Y140869D01*
X246413Y140587D01*
X246237Y140287D01*
X245832Y139653D01*
X245373Y139000D01*
X244880Y138348D01*
X244862Y138331D01*
X244809Y138278D01*
X244739Y138189D01*
X244633Y138066D01*
X244510Y137907D01*
X244351Y137731D01*
X244175Y137537D01*
X243981Y137326D01*
X243752Y137097D01*
X243523Y136850D01*
X242994Y136339D01*
X242412Y135810D01*
X241795Y135299D01*
X241777Y135281D01*
X241725Y135246D01*
X241619Y135175D01*
X241495Y135070D01*
X241337Y134964D01*
X241143Y134823D01*
X240931Y134682D01*
X240685Y134523D01*
X240420Y134347D01*
X240138Y134170D01*
X239821Y133976D01*
X239503Y133800D01*
X238816Y133430D01*
X238076Y133077D01*
X238058Y133060D01*
X237987Y133042D01*
X237882Y132989D01*
X237723Y132936D01*
X237547Y132848D01*
X237335Y132760D01*
X237071Y132672D01*
X236807Y132566D01*
X236489Y132461D01*
X236172Y132337D01*
X235819Y132231D01*
X235449Y132108D01*
X234674Y131896D01*
X233845Y131703D01*
X233827D01*
X233792Y131685D01*
X233704D01*
X233616Y131667D01*
X233475Y131650D01*
X233316Y131614D01*
X233140Y131597D01*
X232928Y131579D01*
X232699Y131544D01*
X232435Y131526D01*
X232135Y131509D01*
X231835Y131473D01*
X231483Y131456D01*
X231130D01*
X230743Y131438D01*
X229773D01*
X229562Y131456D01*
X229315D01*
X229068Y131473D01*
X228504Y131509D01*
X227940Y131544D01*
X227393Y131614D01*
X227129Y131650D01*
X226900Y131703D01*
X226864D01*
X226776Y131738D01*
X226635Y131773D01*
X226441Y131808D01*
X226195Y131879D01*
X225913Y131949D01*
X225595Y132055D01*
X225243Y132161D01*
X224873Y132267D01*
X224467Y132408D01*
X224044Y132549D01*
X223603Y132707D01*
X222722Y133077D01*
X221823Y133501D01*
X221788Y133518D01*
X221717Y133553D01*
X221594Y133624D01*
X221418Y133712D01*
X221224Y133835D01*
X220977Y133976D01*
X220695Y134135D01*
X220395Y134329D01*
X220078Y134523D01*
X219743Y134752D01*
X219390Y134999D01*
X219020Y135263D01*
X218280Y135845D01*
X217557Y136480D01*
X216447Y137608D01*
X218298D01*
Y138348D01*
Y138366D01*
Y138401D01*
Y138472D01*
Y138542D01*
Y138718D01*
X218315Y138895D01*
Y138912D01*
Y138930D01*
X218333Y139018D01*
X218350Y139088D01*
Y139106D01*
X218368Y139124D01*
X218386D01*
X218421Y139106D01*
X218509Y139053D01*
X218632Y138947D01*
X218668Y138912D01*
X218756Y138842D01*
X218879Y138718D01*
X219038Y138560D01*
X219056D01*
X219073Y138525D01*
X219126Y138489D01*
X219196Y138436D01*
X219373Y138295D01*
X219620Y138137D01*
X219919Y137943D01*
X220254Y137767D01*
X220624Y137590D01*
X221012Y137449D01*
X221030D01*
X221065Y137432D01*
X221118Y137414D01*
X221206Y137396D01*
X221312Y137379D01*
X221435Y137343D01*
X221576Y137326D01*
X221735Y137290D01*
X222105Y137255D01*
X222528Y137220D01*
X223022D01*
X223550Y137238D01*
X223639D01*
X223744Y137255D01*
X223868Y137273D01*
X224044Y137290D01*
X224220Y137326D01*
X224450Y137361D01*
X224679Y137414D01*
X225190Y137537D01*
X225736Y137714D01*
X226283Y137960D01*
X226547Y138119D01*
X226794Y138278D01*
X226812Y138295D01*
X226847Y138331D01*
X226917Y138383D01*
X227006Y138454D01*
X227111Y138542D01*
X227235Y138666D01*
X227376Y138806D01*
X227517Y138947D01*
X227675Y139124D01*
X227834Y139318D01*
X227975Y139529D01*
X228134Y139758D01*
X228416Y140270D01*
X228539Y140534D01*
X228645Y140834D01*
Y140851D01*
X228662Y140922D01*
X228698Y141028D01*
X228715Y141204D01*
X228751Y141415D01*
X228786Y141697D01*
X228821Y142032D01*
X228839Y142420D01*
Y142438D01*
Y142473D01*
Y142561D01*
Y142667D01*
X228856Y142808D01*
Y142984D01*
Y143213D01*
X228874Y143478D01*
Y143778D01*
X228892Y144130D01*
Y144536D01*
X228909Y144994D01*
Y145487D01*
X228927Y146051D01*
Y146668D01*
X228945Y147338D01*
X228980Y153103D01*
X224661Y153032D01*
Y148466D01*
Y148449D01*
Y148431D01*
Y148378D01*
Y148308D01*
Y148132D01*
Y147902D01*
Y147620D01*
Y147285D01*
Y146933D01*
X224643Y146563D01*
Y145769D01*
X224626Y145364D01*
Y144994D01*
X224608Y144624D01*
Y144289D01*
X224590Y143989D01*
X224573Y143725D01*
Y143707D01*
Y143672D01*
X224555Y143601D01*
Y143531D01*
X224520Y143319D01*
X224485Y143055D01*
X224414Y142790D01*
X224344Y142508D01*
X224238Y142261D01*
X224185Y142156D01*
X224132Y142068D01*
X224115Y142050D01*
X224062Y141980D01*
X223974Y141874D01*
X223885Y141768D01*
X223762Y141627D01*
X223621Y141503D01*
X223480Y141398D01*
X223321Y141310D01*
X223304D01*
X223251Y141274D01*
X223145Y141257D01*
X223004Y141222D01*
X222828Y141169D01*
X222599Y141133D01*
X222334Y141098D01*
X222017Y141063D01*
X221682D01*
X221559Y141081D01*
X221276Y141098D01*
X220942Y141133D01*
X220589Y141204D01*
X220254Y141292D01*
X219954Y141415D01*
X219937D01*
X219919Y141433D01*
X219831Y141486D01*
X219690Y141592D01*
X219514Y141733D01*
X219320Y141927D01*
X219126Y142173D01*
X218932Y142455D01*
X218756Y142808D01*
Y142826D01*
X218738Y142879D01*
X218703Y142967D01*
X218668Y143108D01*
X218632Y143284D01*
X218597Y143495D01*
X218562Y143760D01*
X218544Y144059D01*
Y144077D01*
Y144112D01*
Y144165D01*
X218527Y144253D01*
Y144377D01*
Y144518D01*
Y144694D01*
X218509Y144923D01*
Y145170D01*
X218491Y145470D01*
Y145822D01*
Y146210D01*
X218474Y146633D01*
Y147109D01*
X218456Y147656D01*
Y148237D01*
X218421Y153103D01*
X214137D01*
Y146968D01*
Y140869D01*
X213661Y141803D01*
Y141821D01*
X213644Y141856D01*
X213608Y141909D01*
X213573Y141980D01*
X213520Y142068D01*
X213468Y142191D01*
X213415Y142314D01*
X213344Y142473D01*
X213186Y142826D01*
X213027Y143231D01*
X212851Y143707D01*
X212674Y144218D01*
Y144236D01*
X212657Y144289D01*
X212621Y144359D01*
X212604Y144465D01*
X212551Y144588D01*
X212516Y144747D01*
X212463Y144906D01*
X212410Y145100D01*
X212304Y145505D01*
X212198Y145946D01*
X212093Y146404D01*
X212022Y146862D01*
Y146880D01*
X212004Y146915D01*
Y146986D01*
X211987Y147092D01*
X211969Y147215D01*
X211952Y147356D01*
X211934Y147532D01*
X211899Y147726D01*
X211881Y147938D01*
X211863Y148184D01*
X211846Y148431D01*
X211828Y148713D01*
X211810Y149013D01*
Y149313D01*
X211793Y149982D01*
Y150000D01*
Y150070D01*
Y150159D01*
Y150300D01*
Y150458D01*
X211810Y150635D01*
Y150846D01*
X211828Y151075D01*
X211846Y151569D01*
X211881Y152080D01*
X211952Y152609D01*
X212022Y153103D01*
Y153138D01*
X212040Y153226D01*
X212075Y153385D01*
X212110Y153596D01*
X212163Y153843D01*
X212234Y154143D01*
X212322Y154477D01*
X212410Y154848D01*
X212533Y155253D01*
X212657Y155676D01*
X212798Y156117D01*
X212956Y156575D01*
X213133Y157051D01*
X213326Y157509D01*
X213538Y157985D01*
X213767Y158461D01*
X213785Y158497D01*
X213820Y158567D01*
X213908Y158708D01*
X213996Y158884D01*
X214120Y159096D01*
X214278Y159360D01*
X214455Y159642D01*
X214666Y159960D01*
X214878Y160294D01*
X215124Y160647D01*
X215407Y161017D01*
X215689Y161405D01*
X215988Y161793D01*
X216306Y162181D01*
X217011Y162939D01*
X217028Y162956D01*
X217099Y163027D01*
X217205Y163133D01*
X217346Y163274D01*
X217540Y163450D01*
X217751Y163644D01*
X217998Y163873D01*
X218280Y164102D01*
X218597Y164366D01*
X218932Y164631D01*
X219302Y164913D01*
X219672Y165195D01*
X220096Y165477D01*
X220519Y165759D01*
X221418Y166306D01*
X221453Y166323D01*
X221523Y166358D01*
X221664Y166429D01*
X221858Y166535D01*
X222087Y166640D01*
X222369Y166782D01*
X222687Y166922D01*
X223039Y167064D01*
X223427Y167222D01*
X223850Y167398D01*
X224291Y167557D01*
X224767Y167716D01*
X225260Y167874D01*
X225754Y168015D01*
X226283Y168157D01*
X226812Y168280D01*
X226847D01*
X226900Y168298D01*
X226970D01*
X227058Y168315D01*
X227182Y168333D01*
X227305Y168350D01*
X227464Y168368D01*
X227658Y168386D01*
X227852Y168403D01*
X228081Y168421D01*
X228328Y168438D01*
X228610Y168456D01*
X228909Y168474D01*
X229244Y168491D01*
X229597Y168509D01*
X229685D01*
X229773Y168527D01*
X230073D01*
X230249Y168544D01*
X230443D01*
X230654Y168562D01*
X232118D01*
X232276Y168544D01*
D02*
G37*
G36*
X204721Y93101D02*
X203045D01*
Y94672D01*
X202814Y94360D01*
X202560Y94083D01*
X202294Y93840D01*
X202005Y93632D01*
X201716Y93459D01*
X201427Y93308D01*
X201127Y93193D01*
X200849Y93101D01*
X200572Y93020D01*
X200329Y92962D01*
X200098Y92927D01*
X199902Y92892D01*
X199740Y92881D01*
X199613Y92869D01*
X199509D01*
X199128Y92881D01*
X198758Y92927D01*
X198423Y92997D01*
X198099Y93077D01*
X197810Y93181D01*
X197533Y93297D01*
X197290Y93424D01*
X197070Y93551D01*
X196874Y93667D01*
X196689Y93794D01*
X196550Y93910D01*
X196423Y94014D01*
X196331Y94094D01*
X196261Y94164D01*
X196215Y94210D01*
X196203Y94221D01*
X195996Y94487D01*
X195811Y94776D01*
X195649Y95077D01*
X195510Y95389D01*
X195395Y95712D01*
X195291Y96024D01*
X195210Y96336D01*
X195152Y96637D01*
X195106Y96926D01*
X195059Y97192D01*
X195036Y97423D01*
X195025Y97631D01*
X195013Y97804D01*
X195002Y97873D01*
Y97931D01*
Y97978D01*
Y98012D01*
Y98024D01*
Y98035D01*
X195013Y98486D01*
X195048Y98902D01*
X195117Y99295D01*
X195187Y99665D01*
X195279Y100012D01*
X195383Y100324D01*
X195487Y100601D01*
X195603Y100867D01*
X195718Y101086D01*
X195822Y101294D01*
X195926Y101456D01*
X196019Y101595D01*
X196088Y101710D01*
X196146Y101791D01*
X196192Y101838D01*
X196203Y101849D01*
X196435Y102092D01*
X196689Y102300D01*
X196955Y102485D01*
X197232Y102635D01*
X197498Y102774D01*
X197775Y102878D01*
X198041Y102970D01*
X198307Y103040D01*
X198550Y103097D01*
X198781Y103144D01*
X198989Y103167D01*
X199162Y103190D01*
X199301Y103201D01*
X199416Y103213D01*
X199509D01*
X199925Y103190D01*
X200329Y103144D01*
X200688Y103051D01*
X201034Y102935D01*
X201346Y102808D01*
X201635Y102658D01*
X201890Y102496D01*
X202121Y102334D01*
X202329Y102173D01*
X202502Y102011D01*
X202652Y101861D01*
X202780Y101734D01*
X202872Y101618D01*
X202941Y101537D01*
X202987Y101479D01*
X202999Y101456D01*
Y107131D01*
X204721D01*
Y93101D01*
D02*
G37*
G36*
X133334Y103201D02*
X133703Y103155D01*
X134027Y103086D01*
X134177Y103051D01*
X134316Y103016D01*
X134431Y102970D01*
X134535Y102935D01*
X134639Y102901D01*
X134709Y102878D01*
X134778Y102843D01*
X134824Y102831D01*
X134847Y102808D01*
X134859D01*
X135148Y102647D01*
X135414Y102462D01*
X135633Y102277D01*
X135830Y102092D01*
X135992Y101930D01*
X136107Y101803D01*
X136142Y101757D01*
X136177Y101722D01*
X136188Y101699D01*
X136200Y101687D01*
Y102982D01*
X137875D01*
Y93101D01*
X136153D01*
Y98925D01*
X136142Y99168D01*
X136119Y99399D01*
X136084Y99607D01*
X136038Y99803D01*
X135980Y99977D01*
X135911Y100150D01*
X135853Y100301D01*
X135772Y100428D01*
X135703Y100543D01*
X135645Y100647D01*
X135576Y100740D01*
X135518Y100809D01*
X135471Y100867D01*
X135437Y100901D01*
X135414Y100925D01*
X135402Y100936D01*
X135252Y101052D01*
X135090Y101167D01*
X134928Y101248D01*
X134767Y101329D01*
X134593Y101398D01*
X134420Y101456D01*
X134096Y101537D01*
X133946Y101560D01*
X133807Y101583D01*
X133680Y101595D01*
X133576Y101606D01*
X133495Y101618D01*
X133368D01*
X133125Y101606D01*
X132906Y101583D01*
X132698Y101549D01*
X132513Y101514D01*
X132340Y101456D01*
X132178Y101398D01*
X132039Y101329D01*
X131912Y101271D01*
X131796Y101202D01*
X131704Y101133D01*
X131623Y101075D01*
X131554Y101029D01*
X131508Y100982D01*
X131461Y100948D01*
X131450Y100925D01*
X131438Y100913D01*
X131334Y100774D01*
X131230Y100612D01*
X131149Y100451D01*
X131080Y100277D01*
X130976Y99908D01*
X130906Y99561D01*
X130872Y99388D01*
X130860Y99237D01*
X130849Y99099D01*
X130837Y98971D01*
X130826Y98867D01*
Y98798D01*
Y98740D01*
Y98729D01*
Y93101D01*
X129104D01*
Y98925D01*
X129092Y99168D01*
X129069Y99399D01*
X129034Y99607D01*
X128988Y99803D01*
X128930Y99977D01*
X128861Y100150D01*
X128792Y100301D01*
X128722Y100428D01*
X128653Y100543D01*
X128583Y100647D01*
X128514Y100740D01*
X128456Y100809D01*
X128410Y100867D01*
X128376Y100901D01*
X128352Y100925D01*
X128341Y100936D01*
X128191Y101052D01*
X128029Y101167D01*
X127867Y101248D01*
X127694Y101329D01*
X127532Y101398D01*
X127359Y101456D01*
X127035Y101537D01*
X126896Y101560D01*
X126757Y101583D01*
X126630Y101595D01*
X126526Y101606D01*
X126434Y101618D01*
X126318D01*
X126076Y101606D01*
X125856Y101583D01*
X125648Y101549D01*
X125452Y101514D01*
X125278Y101456D01*
X125116Y101398D01*
X124978Y101329D01*
X124851Y101271D01*
X124735Y101202D01*
X124643Y101133D01*
X124562Y101075D01*
X124492Y101029D01*
X124446Y100982D01*
X124400Y100948D01*
X124388Y100925D01*
X124377Y100913D01*
X124273Y100774D01*
X124169Y100612D01*
X124088Y100451D01*
X124018Y100277D01*
X123914Y99908D01*
X123845Y99561D01*
X123811Y99388D01*
X123799Y99237D01*
X123787Y99099D01*
X123776Y98971D01*
X123764Y98867D01*
Y98798D01*
Y98740D01*
Y98729D01*
Y93101D01*
X122042D01*
Y99006D01*
X122054Y99376D01*
X122088Y99723D01*
X122135Y100046D01*
X122192Y100347D01*
X122273Y100636D01*
X122354Y100890D01*
X122447Y101121D01*
X122539Y101329D01*
X122632Y101514D01*
X122724Y101676D01*
X122805Y101814D01*
X122886Y101930D01*
X122944Y102011D01*
X122990Y102080D01*
X123025Y102115D01*
X123036Y102127D01*
X123233Y102323D01*
X123441Y102485D01*
X123660Y102635D01*
X123903Y102751D01*
X124134Y102855D01*
X124377Y102947D01*
X124608Y103016D01*
X124839Y103074D01*
X125059Y103120D01*
X125255Y103155D01*
X125440Y103178D01*
X125590Y103201D01*
X125717D01*
X125821Y103213D01*
X125902D01*
X126365Y103190D01*
X126781Y103132D01*
X127174Y103040D01*
X127543Y102912D01*
X127867Y102762D01*
X128167Y102600D01*
X128433Y102427D01*
X128676Y102242D01*
X128884Y102057D01*
X129057Y101884D01*
X129208Y101722D01*
X129335Y101572D01*
X129427Y101456D01*
X129485Y101352D01*
X129531Y101294D01*
X129543Y101271D01*
X129728Y101618D01*
X129947Y101907D01*
X130190Y102173D01*
X130456Y102392D01*
X130733Y102577D01*
X131011Y102739D01*
X131299Y102866D01*
X131577Y102970D01*
X131854Y103051D01*
X132108Y103109D01*
X132328Y103155D01*
X132536Y103178D01*
X132709Y103201D01*
X132767D01*
X132837Y103213D01*
X132941D01*
X133334Y103201D01*
D02*
G37*
G36*
X173402Y98070D02*
X177111Y93101D01*
X175124D01*
X172350Y96891D01*
X169541Y93101D01*
X167496D01*
X171206Y98058D01*
X167565Y102982D01*
X169541D01*
X172234Y99237D01*
X174962Y102982D01*
X177031D01*
X173402Y98070D01*
D02*
G37*
G36*
X213262Y97735D02*
X206917D01*
Y99457D01*
X213262D01*
Y97735D01*
D02*
G37*
G36*
X274641Y93101D02*
X272803D01*
X270330Y101005D01*
X267868Y93101D01*
X266031D01*
X262691Y102982D01*
X264344D01*
X266956Y94892D01*
X269406Y102982D01*
X271208D01*
X273659Y94950D01*
X276224Y102982D01*
X277958D01*
X274641Y93101D01*
D02*
G37*
G36*
X258970D02*
X257132D01*
X254659Y101005D01*
X252197Y93101D01*
X250360D01*
X247020Y102982D01*
X248672D01*
X251284Y94892D01*
X253734Y102982D01*
X255537D01*
X257987Y94950D01*
X260553Y102982D01*
X262286D01*
X258970Y93101D01*
D02*
G37*
G36*
X243298D02*
X241461D01*
X238988Y101005D01*
X236526Y93101D01*
X234688D01*
X231348Y102982D01*
X233001D01*
X235613Y94892D01*
X238063Y102982D01*
X239866D01*
X242316Y94950D01*
X244882Y102982D01*
X246615D01*
X243298Y93101D01*
D02*
G37*
G36*
X224333Y96833D02*
X224322Y96579D01*
X224310Y96325D01*
X224287Y96094D01*
X224252Y95886D01*
X224218Y95678D01*
X224172Y95493D01*
X224125Y95319D01*
X224079Y95158D01*
X224033Y95019D01*
X223987Y94903D01*
X223940Y94788D01*
X223906Y94707D01*
X223871Y94638D01*
X223848Y94591D01*
X223825Y94557D01*
Y94545D01*
X223617Y94233D01*
X223386Y93979D01*
X223143Y93759D01*
X222923Y93574D01*
X222715Y93436D01*
X222623Y93378D01*
X222554Y93343D01*
X222484Y93308D01*
X222438Y93285D01*
X222415Y93262D01*
X222403D01*
X222057Y93135D01*
X221698Y93031D01*
X221352Y92962D01*
X221028Y92916D01*
X220878Y92904D01*
X220739Y92893D01*
X220623Y92881D01*
X220520D01*
X220439Y92869D01*
X220323D01*
X219942Y92881D01*
X219595Y92927D01*
X219283Y92985D01*
X219144Y93020D01*
X219006Y93066D01*
X218890Y93101D01*
X218786Y93135D01*
X218705Y93158D01*
X218624Y93193D01*
X218566Y93216D01*
X218520Y93239D01*
X218497Y93251D01*
X218485D01*
X218197Y93413D01*
X217942Y93597D01*
X217711Y93782D01*
X217526Y93967D01*
X217364Y94141D01*
X217249Y94268D01*
X217214Y94326D01*
X217180Y94360D01*
X217168Y94383D01*
X217156Y94395D01*
Y93101D01*
X215457D01*
Y102982D01*
X217180D01*
Y97446D01*
X217191Y97157D01*
X217214Y96891D01*
X217249Y96649D01*
X217295Y96417D01*
X217364Y96209D01*
X217422Y96024D01*
X217491Y95863D01*
X217561Y95712D01*
X217642Y95574D01*
X217711Y95470D01*
X217769Y95366D01*
X217827Y95296D01*
X217885Y95239D01*
X217919Y95192D01*
X217942Y95169D01*
X217954Y95158D01*
X218104Y95030D01*
X218254Y94927D01*
X218428Y94834D01*
X218589Y94753D01*
X218763Y94684D01*
X218936Y94626D01*
X219260Y94545D01*
X219410Y94510D01*
X219549Y94487D01*
X219664Y94476D01*
X219780Y94464D01*
X219861Y94453D01*
X219988D01*
X220219Y94464D01*
X220427Y94476D01*
X220635Y94510D01*
X220820Y94545D01*
X220993Y94603D01*
X221155Y94649D01*
X221305Y94707D01*
X221432Y94765D01*
X221548Y94823D01*
X221652Y94880D01*
X221733Y94938D01*
X221802Y94984D01*
X221860Y95019D01*
X221895Y95054D01*
X221918Y95065D01*
X221929Y95077D01*
X222045Y95204D01*
X222149Y95343D01*
X222241Y95493D01*
X222322Y95655D01*
X222392Y95816D01*
X222449Y95990D01*
X222530Y96313D01*
X222554Y96475D01*
X222577Y96614D01*
X222588Y96753D01*
X222600Y96856D01*
X222611Y96960D01*
Y97030D01*
Y97076D01*
Y97088D01*
Y102982D01*
X224333D01*
Y96833D01*
D02*
G37*
G36*
X156505Y103201D02*
X156760Y103190D01*
X157002Y103155D01*
X157233Y103120D01*
X157453Y103074D01*
X157661Y103028D01*
X157846Y102982D01*
X158031Y102924D01*
X158193Y102866D01*
X158331Y102820D01*
X158447Y102774D01*
X158551Y102727D01*
X158632Y102693D01*
X158701Y102658D01*
X158736Y102647D01*
X158747Y102635D01*
X158944Y102519D01*
X159129Y102404D01*
X159302Y102265D01*
X159475Y102127D01*
X159626Y101988D01*
X159764Y101838D01*
X159892Y101699D01*
X160007Y101560D01*
X160111Y101433D01*
X160192Y101306D01*
X160273Y101202D01*
X160331Y101098D01*
X160377Y101029D01*
X160423Y100959D01*
X160435Y100925D01*
X160446Y100913D01*
X160550Y100693D01*
X160643Y100462D01*
X160735Y100220D01*
X160805Y99977D01*
X160909Y99503D01*
X160955Y99272D01*
X160978Y99041D01*
X161012Y98833D01*
X161024Y98648D01*
X161036Y98475D01*
X161047Y98324D01*
X161059Y98209D01*
Y98116D01*
Y98058D01*
Y98035D01*
X161047Y97723D01*
X161036Y97411D01*
X161001Y97122D01*
X160966Y96856D01*
X160920Y96602D01*
X160862Y96360D01*
X160805Y96140D01*
X160747Y95943D01*
X160700Y95759D01*
X160643Y95608D01*
X160585Y95470D01*
X160539Y95354D01*
X160504Y95262D01*
X160469Y95204D01*
X160458Y95158D01*
X160446Y95146D01*
X160331Y94938D01*
X160192Y94742D01*
X160065Y94568D01*
X159926Y94395D01*
X159776Y94245D01*
X159637Y94106D01*
X159499Y93979D01*
X159371Y93863D01*
X159244Y93759D01*
X159129Y93678D01*
X159013Y93597D01*
X158921Y93540D01*
X158851Y93493D01*
X158793Y93459D01*
X158759Y93447D01*
X158747Y93436D01*
X158539Y93332D01*
X158331Y93251D01*
X158112Y93170D01*
X157892Y93112D01*
X157476Y93008D01*
X157268Y92973D01*
X157083Y92939D01*
X156898Y92916D01*
X156736Y92904D01*
X156598Y92892D01*
X156471Y92881D01*
X156367Y92869D01*
X156228D01*
X155870Y92881D01*
X155523Y92916D01*
X155199Y92962D01*
X154910Y93020D01*
X154633Y93089D01*
X154379Y93170D01*
X154148Y93262D01*
X153940Y93355D01*
X153755Y93436D01*
X153593Y93528D01*
X153454Y93609D01*
X153339Y93678D01*
X153258Y93736D01*
X153188Y93782D01*
X153154Y93817D01*
X153142Y93829D01*
X152946Y94014D01*
X152772Y94221D01*
X152622Y94430D01*
X152483Y94649D01*
X152368Y94857D01*
X152264Y95077D01*
X152171Y95285D01*
X152102Y95493D01*
X152044Y95689D01*
X151987Y95863D01*
X151952Y96024D01*
X151929Y96163D01*
X151906Y96267D01*
X151894Y96360D01*
X151882Y96406D01*
Y96429D01*
X153604D01*
X153639Y96244D01*
X153685Y96082D01*
X153801Y95782D01*
X153963Y95516D01*
X154136Y95285D01*
X154344Y95100D01*
X154564Y94938D01*
X154795Y94799D01*
X155026Y94695D01*
X155257Y94614D01*
X155477Y94557D01*
X155685Y94510D01*
X155858Y94487D01*
X156008Y94464D01*
X156124Y94453D01*
X156228D01*
X156482Y94464D01*
X156725Y94487D01*
X156956Y94534D01*
X157176Y94591D01*
X157372Y94649D01*
X157557Y94719D01*
X157730Y94799D01*
X157880Y94880D01*
X158019Y94961D01*
X158135Y95042D01*
X158239Y95111D01*
X158331Y95169D01*
X158389Y95227D01*
X158447Y95273D01*
X158470Y95296D01*
X158482Y95308D01*
X158632Y95481D01*
X158759Y95678D01*
X158863Y95886D01*
X158967Y96105D01*
X159048Y96325D01*
X159106Y96556D01*
X159163Y96776D01*
X159210Y96995D01*
X159244Y97203D01*
X159267Y97400D01*
X159291Y97573D01*
X159302Y97735D01*
Y97862D01*
X159314Y97954D01*
Y98012D01*
Y98035D01*
X159302Y98371D01*
X159279Y98682D01*
X159233Y98983D01*
X159186Y99249D01*
X159117Y99492D01*
X159048Y99711D01*
X158978Y99908D01*
X158897Y100092D01*
X158817Y100243D01*
X158747Y100381D01*
X158678Y100497D01*
X158609Y100589D01*
X158562Y100659D01*
X158516Y100716D01*
X158493Y100740D01*
X158482Y100751D01*
X158320Y100901D01*
X158146Y101040D01*
X157961Y101156D01*
X157776Y101248D01*
X157592Y101341D01*
X157407Y101410D01*
X157222Y101468D01*
X157048Y101514D01*
X156887Y101549D01*
X156736Y101572D01*
X156598Y101595D01*
X156482Y101606D01*
X156390Y101618D01*
X156043D01*
X155835Y101595D01*
X155465Y101537D01*
X155141Y101433D01*
X154853Y101306D01*
X154610Y101156D01*
X154390Y100994D01*
X154217Y100809D01*
X154067Y100636D01*
X153940Y100451D01*
X153847Y100266D01*
X153766Y100104D01*
X153708Y99954D01*
X153674Y99827D01*
X153639Y99723D01*
X153628Y99665D01*
Y99653D01*
Y99642D01*
X151906D01*
X151940Y99942D01*
X151998Y100220D01*
X152067Y100485D01*
X152160Y100740D01*
X152252Y100971D01*
X152356Y101179D01*
X152472Y101375D01*
X152576Y101549D01*
X152691Y101710D01*
X152795Y101849D01*
X152888Y101965D01*
X152980Y102069D01*
X153050Y102138D01*
X153108Y102196D01*
X153142Y102231D01*
X153154Y102242D01*
X153373Y102415D01*
X153604Y102566D01*
X153847Y102693D01*
X154101Y102808D01*
X154356Y102901D01*
X154621Y102982D01*
X154864Y103040D01*
X155118Y103097D01*
X155350Y103132D01*
X155558Y103167D01*
X155754Y103178D01*
X155916Y103201D01*
X156054D01*
X156159Y103213D01*
X156251D01*
X156505Y103201D01*
D02*
G37*
G36*
X229650Y93101D02*
X227431D01*
Y95447D01*
X229650D01*
Y93101D01*
D02*
G37*
G36*
X192413Y93101D02*
X190691D01*
Y107131D01*
X192413D01*
Y93101D01*
D02*
G37*
G36*
X165601D02*
X163382D01*
Y95447D01*
X165601D01*
Y93101D01*
D02*
G37*
G36*
X183664Y103201D02*
X184057Y103155D01*
X184415Y103097D01*
X184762Y103005D01*
X185074Y102912D01*
X185375Y102797D01*
X185640Y102681D01*
X185883Y102566D01*
X186103Y102438D01*
X186299Y102323D01*
X186461Y102207D01*
X186600Y102115D01*
X186704Y102022D01*
X186785Y101965D01*
X186831Y101918D01*
X186842Y101907D01*
X187073Y101653D01*
X187281Y101364D01*
X187467Y101063D01*
X187617Y100751D01*
X187744Y100428D01*
X187859Y100104D01*
X187940Y99792D01*
X188010Y99480D01*
X188067Y99191D01*
X188114Y98914D01*
X188137Y98671D01*
X188160Y98451D01*
X188171Y98278D01*
X188183Y98209D01*
Y98151D01*
Y98105D01*
Y98070D01*
Y98047D01*
Y98035D01*
X188171Y97573D01*
X188125Y97134D01*
X188056Y96729D01*
X187975Y96348D01*
X187871Y96001D01*
X187755Y95678D01*
X187640Y95400D01*
X187513Y95134D01*
X187386Y94915D01*
X187270Y94707D01*
X187154Y94545D01*
X187050Y94406D01*
X186970Y94302D01*
X186900Y94221D01*
X186854Y94175D01*
X186842Y94164D01*
X186577Y93933D01*
X186299Y93736D01*
X186010Y93563D01*
X185710Y93413D01*
X185409Y93285D01*
X185109Y93181D01*
X184820Y93101D01*
X184543Y93031D01*
X184277Y92973D01*
X184034Y92939D01*
X183814Y92904D01*
X183629Y92892D01*
X183479Y92881D01*
X183352Y92869D01*
X183260D01*
X182855Y92881D01*
X182462Y92927D01*
X182104Y92985D01*
X181757Y93077D01*
X181445Y93170D01*
X181145Y93274D01*
X180879Y93401D01*
X180636Y93517D01*
X180417Y93632D01*
X180232Y93759D01*
X180070Y93863D01*
X179931Y93967D01*
X179827Y94048D01*
X179746Y94106D01*
X179700Y94152D01*
X179689Y94164D01*
X179446Y94418D01*
X179238Y94707D01*
X179065Y95007D01*
X178903Y95319D01*
X178776Y95643D01*
X178672Y95967D01*
X178579Y96279D01*
X178510Y96591D01*
X178452Y96880D01*
X178406Y97157D01*
X178383Y97400D01*
X178360Y97619D01*
X178348Y97793D01*
X178336Y97862D01*
Y97920D01*
Y97966D01*
Y98012D01*
Y98024D01*
Y98035D01*
X178348Y98498D01*
X178394Y98937D01*
X178463Y99341D01*
X178544Y99723D01*
X178648Y100069D01*
X178764Y100393D01*
X178891Y100670D01*
X179007Y100936D01*
X179134Y101156D01*
X179261Y101364D01*
X179377Y101525D01*
X179481Y101664D01*
X179562Y101768D01*
X179631Y101849D01*
X179677Y101895D01*
X179689Y101907D01*
X179954Y102138D01*
X180232Y102334D01*
X180521Y102508D01*
X180810Y102658D01*
X181110Y102785D01*
X181411Y102889D01*
X181700Y102982D01*
X181977Y103051D01*
X182243Y103109D01*
X182485Y103144D01*
X182705Y103178D01*
X182890Y103190D01*
X183040Y103201D01*
X183156Y103213D01*
X183260D01*
X183664Y103201D01*
D02*
G37*
G36*
X145711D02*
X146104Y103155D01*
X146462Y103097D01*
X146809Y103005D01*
X147121Y102912D01*
X147421Y102797D01*
X147687Y102681D01*
X147930Y102566D01*
X148149Y102438D01*
X148346Y102323D01*
X148508Y102207D01*
X148646Y102115D01*
X148750Y102022D01*
X148831Y101965D01*
X148878Y101918D01*
X148889Y101907D01*
X149120Y101653D01*
X149328Y101364D01*
X149513Y101063D01*
X149663Y100751D01*
X149791Y100428D01*
X149906Y100104D01*
X149987Y99792D01*
X150056Y99480D01*
X150114Y99191D01*
X150161Y98914D01*
X150184Y98671D01*
X150207Y98451D01*
X150218Y98278D01*
X150230Y98209D01*
Y98151D01*
Y98105D01*
Y98070D01*
Y98047D01*
Y98035D01*
X150218Y97573D01*
X150172Y97134D01*
X150103Y96729D01*
X150022Y96348D01*
X149918Y96001D01*
X149802Y95678D01*
X149687Y95400D01*
X149559Y95134D01*
X149432Y94915D01*
X149317Y94707D01*
X149201Y94545D01*
X149097Y94406D01*
X149016Y94302D01*
X148947Y94221D01*
X148901Y94175D01*
X148889Y94164D01*
X148623Y93933D01*
X148346Y93736D01*
X148057Y93563D01*
X147757Y93413D01*
X147456Y93285D01*
X147156Y93181D01*
X146867Y93101D01*
X146589Y93031D01*
X146323Y92973D01*
X146081Y92939D01*
X145861Y92904D01*
X145676Y92892D01*
X145526Y92881D01*
X145399Y92869D01*
X145307D01*
X144902Y92881D01*
X144509Y92927D01*
X144151Y92985D01*
X143804Y93077D01*
X143492Y93170D01*
X143192Y93274D01*
X142926Y93401D01*
X142683Y93517D01*
X142464Y93632D01*
X142279Y93759D01*
X142117Y93863D01*
X141978Y93967D01*
X141874Y94048D01*
X141793Y94106D01*
X141747Y94152D01*
X141735Y94164D01*
X141493Y94418D01*
X141285Y94707D01*
X141111Y95007D01*
X140949Y95319D01*
X140822Y95643D01*
X140718Y95967D01*
X140626Y96279D01*
X140557Y96591D01*
X140499Y96880D01*
X140453Y97157D01*
X140429Y97400D01*
X140406Y97619D01*
X140395Y97793D01*
X140383Y97862D01*
Y97920D01*
Y97966D01*
Y98012D01*
Y98024D01*
Y98035D01*
X140395Y98498D01*
X140441Y98937D01*
X140510Y99341D01*
X140591Y99723D01*
X140695Y100069D01*
X140811Y100393D01*
X140938Y100670D01*
X141053Y100936D01*
X141181Y101156D01*
X141308Y101364D01*
X141423Y101525D01*
X141527Y101664D01*
X141608Y101768D01*
X141678Y101849D01*
X141724Y101895D01*
X141735Y101907D01*
X142001Y102138D01*
X142279Y102334D01*
X142568Y102508D01*
X142856Y102658D01*
X143157Y102785D01*
X143457Y102889D01*
X143746Y102982D01*
X144024Y103051D01*
X144290Y103109D01*
X144532Y103144D01*
X144752Y103178D01*
X144937Y103190D01*
X145087Y103201D01*
X145203Y103213D01*
X145307D01*
X145711Y103201D01*
D02*
G37*
%LPC*%
G36*
X201763Y149700D02*
X201551D01*
X201304Y149683D01*
X201040Y149665D01*
X201005D01*
X200917Y149648D01*
X200776Y149630D01*
X200599Y149595D01*
X200388Y149542D01*
X200176Y149489D01*
X199718Y149348D01*
X199683Y149330D01*
X199612Y149295D01*
X199489Y149224D01*
X199330Y149136D01*
X199172Y149013D01*
X198978Y148872D01*
X198784Y148696D01*
X198590Y148484D01*
X198572Y148466D01*
X198502Y148378D01*
X198414Y148272D01*
X198308Y148114D01*
X198184Y147920D01*
X198079Y147708D01*
X197973Y147479D01*
X197885Y147233D01*
X197867Y147197D01*
X197850Y147109D01*
X197814Y146951D01*
X197779Y146739D01*
X197744Y146475D01*
X197708Y146140D01*
X197673Y145769D01*
Y145329D01*
Y145311D01*
Y145276D01*
Y145205D01*
Y145135D01*
Y145029D01*
X197691Y144906D01*
Y144641D01*
X197726Y144324D01*
X197761Y144007D01*
X197814Y143689D01*
X197885Y143407D01*
Y143390D01*
X197902Y143337D01*
X197938Y143249D01*
X197990Y143143D01*
X198043Y143020D01*
X198132Y142861D01*
X198220Y142702D01*
X198343Y142526D01*
X198484Y142350D01*
X198643Y142156D01*
X198819Y141980D01*
X199030Y141786D01*
X199242Y141627D01*
X199506Y141451D01*
X199788Y141310D01*
X200088Y141186D01*
X200106D01*
X200159Y141169D01*
X200264Y141133D01*
X200388Y141098D01*
X200529Y141063D01*
X200705Y141045D01*
X200917Y141010D01*
X201146Y140992D01*
X201393Y140975D01*
X201639D01*
X201921Y140992D01*
X202204Y141028D01*
X202486Y141098D01*
X202785Y141169D01*
X203085Y141292D01*
X203384Y141433D01*
X203402D01*
X203420Y141451D01*
X203473Y141486D01*
X203543Y141521D01*
X203702Y141644D01*
X203913Y141803D01*
X204125Y142015D01*
X204354Y142261D01*
X204566Y142561D01*
X204760Y142896D01*
Y142914D01*
X204777Y142949D01*
X204795Y143002D01*
X204830Y143072D01*
X204865Y143160D01*
X204900Y143284D01*
X204936Y143407D01*
X204971Y143566D01*
X205024Y143742D01*
X205059Y143919D01*
X205130Y144342D01*
X205182Y144835D01*
X205218Y145382D01*
Y145399D01*
Y145452D01*
Y145558D01*
X205200Y145681D01*
Y145822D01*
X205182Y145999D01*
X205147Y146193D01*
X205130Y146404D01*
X205042Y146862D01*
X204900Y147338D01*
X204724Y147814D01*
X204477Y148255D01*
X204460Y148272D01*
X204442Y148308D01*
X204389Y148361D01*
X204336Y148431D01*
X204160Y148625D01*
X203931Y148837D01*
X203631Y149083D01*
X203261Y149313D01*
X202838Y149507D01*
X202591Y149577D01*
X202344Y149648D01*
X202309D01*
X202239Y149665D01*
X202115Y149683D01*
X201957D01*
X201763Y149700D01*
D02*
G37*
G36*
X176344Y149700D02*
X175674D01*
X175392Y149683D01*
X175357D01*
X175268Y149665D01*
X175128Y149648D01*
X174934Y149630D01*
X174740Y149595D01*
X174528Y149542D01*
X174317Y149489D01*
X174123Y149418D01*
X174088Y149401D01*
X173999Y149348D01*
X173841Y149242D01*
X173647Y149119D01*
X173629D01*
X173594Y149083D01*
X173541Y149048D01*
X173470Y148995D01*
X173294Y148872D01*
X173118Y148713D01*
X173100Y148696D01*
X173065Y148660D01*
X172994Y148590D01*
X172924Y148484D01*
X172818Y148343D01*
X172712Y148184D01*
X172607Y147991D01*
X172483Y147779D01*
X172378Y147532D01*
X172272Y147250D01*
X172166Y146950D01*
X172096Y146615D01*
X172025Y146245D01*
X171972Y145857D01*
X171954Y145435D01*
X171972Y144976D01*
Y144941D01*
Y144870D01*
X171990Y144747D01*
X172025Y144571D01*
X172043Y144377D01*
X172096Y144148D01*
X172148Y143901D01*
X172219Y143636D01*
X172307Y143354D01*
X172430Y143072D01*
X172554Y142790D01*
X172712Y142508D01*
X172889Y142261D01*
X173083Y142015D01*
X173312Y141803D01*
X173576Y141609D01*
X173594D01*
X173612Y141592D01*
X173664Y141556D01*
X173752Y141521D01*
X173841Y141468D01*
X173946Y141415D01*
X174211Y141292D01*
X174528Y141169D01*
X174881Y141063D01*
X175286Y140992D01*
X175709Y140939D01*
X175903D01*
X176009Y140957D01*
X176132D01*
X176414Y140992D01*
X176749Y141063D01*
X177119Y141169D01*
X177490Y141310D01*
X177877Y141503D01*
X177895Y141521D01*
X177966Y141556D01*
X178054Y141609D01*
X178159Y141680D01*
X178389Y141874D01*
X178494Y141962D01*
X178600Y142068D01*
X178618Y142085D01*
X178635Y142121D01*
X178688Y142191D01*
X178741Y142279D01*
X178812Y142385D01*
X178900Y142544D01*
X179006Y142702D01*
X179111Y142914D01*
X179129Y142949D01*
X179164Y143020D01*
X179217Y143143D01*
X179288Y143284D01*
X179429Y143619D01*
X179482Y143778D01*
X179517Y143919D01*
Y143936D01*
X179534Y143989D01*
Y144077D01*
X179552Y144218D01*
X179570Y144412D01*
Y144659D01*
X179587Y144958D01*
Y145329D01*
Y145346D01*
Y145364D01*
Y145417D01*
Y145487D01*
Y145664D01*
Y145857D01*
X179570Y146087D01*
Y146316D01*
X179552Y146510D01*
X179534Y146686D01*
Y146704D01*
X179517Y146757D01*
X179499Y146845D01*
X179482Y146951D01*
X179429Y147074D01*
X179376Y147233D01*
X179305Y147391D01*
X179217Y147567D01*
Y147585D01*
X179200Y147603D01*
X179147Y147708D01*
X179058Y147885D01*
X178935Y148079D01*
X178794Y148308D01*
X178635Y148537D01*
X178442Y148766D01*
X178230Y148960D01*
X178195Y148978D01*
X178124Y149048D01*
X178001Y149136D01*
X177824Y149242D01*
X177595Y149348D01*
X177349Y149471D01*
X177049Y149559D01*
X176732Y149648D01*
X176714D01*
X176626Y149665D01*
X176520Y149683D01*
X176344Y149700D01*
D02*
G37*
G36*
X234321Y160083D02*
X234004D01*
X233792Y160065D01*
X233545Y160030D01*
X233281Y159977D01*
X232999Y159889D01*
X232699Y159766D01*
X232682D01*
X232664Y159748D01*
X232576Y159695D01*
X232417Y159589D01*
X232241Y159466D01*
X232047Y159307D01*
X231835Y159096D01*
X231642Y158867D01*
X231465Y158602D01*
X231448Y158567D01*
X231395Y158479D01*
X231324Y158320D01*
X231236Y158109D01*
X231166Y157862D01*
X231095Y157562D01*
X231042Y157245D01*
X231025Y156892D01*
Y156875D01*
Y156822D01*
X231042Y156716D01*
Y156593D01*
X231077Y156452D01*
X231113Y156276D01*
X231166Y156099D01*
X231218Y155888D01*
X231307Y155676D01*
X231412Y155465D01*
X231553Y155235D01*
X231712Y155024D01*
X231888Y154812D01*
X232118Y154601D01*
X232364Y154407D01*
X232646Y154231D01*
X232664Y154213D01*
X232717Y154195D01*
X232805Y154160D01*
X232928Y154107D01*
X233069Y154054D01*
X233228Y154019D01*
X233422Y153966D01*
X233651Y153931D01*
X233880Y153896D01*
X234127Y153878D01*
X234391Y153896D01*
X234656Y153931D01*
X234938Y153984D01*
X235238Y154072D01*
X235520Y154213D01*
X235819Y154372D01*
X235837Y154389D01*
X235872Y154407D01*
X235943Y154460D01*
X236031Y154530D01*
X236137Y154619D01*
X236260Y154724D01*
X236383Y154865D01*
X236507Y155006D01*
X236630Y155183D01*
X236771Y155359D01*
X236877Y155570D01*
X236983Y155800D01*
X237071Y156046D01*
X237141Y156311D01*
X237194Y156610D01*
X237212Y156910D01*
Y156928D01*
Y156981D01*
Y157069D01*
X237194Y157192D01*
X237177Y157333D01*
X237141Y157492D01*
X237106Y157668D01*
X237053Y157862D01*
X236983Y158074D01*
X236895Y158285D01*
X236789Y158497D01*
X236665Y158726D01*
X236507Y158937D01*
X236331Y159131D01*
X236119Y159325D01*
X235890Y159501D01*
X235855Y159519D01*
X235766Y159589D01*
X235608Y159678D01*
X235414Y159766D01*
X235185Y159872D01*
X234920Y159977D01*
X234621Y160048D01*
X234321Y160083D01*
D02*
G37*
G36*
X200052Y101618D02*
X199902D01*
X199624Y101606D01*
X199359Y101583D01*
X199116Y101537D01*
X198896Y101479D01*
X198677Y101410D01*
X198492Y101341D01*
X198319Y101260D01*
X198157Y101179D01*
X198018Y101086D01*
X197891Y101005D01*
X197787Y100936D01*
X197706Y100867D01*
X197637Y100809D01*
X197590Y100763D01*
X197567Y100740D01*
X197556Y100728D01*
X197405Y100555D01*
X197290Y100358D01*
X197174Y100150D01*
X197082Y99931D01*
X197001Y99711D01*
X196932Y99480D01*
X196885Y99260D01*
X196839Y99052D01*
X196805Y98844D01*
X196781Y98648D01*
X196758Y98486D01*
X196747Y98336D01*
X196735Y98209D01*
Y98116D01*
Y98058D01*
Y98035D01*
X196747Y97712D01*
X196770Y97400D01*
X196816Y97122D01*
X196862Y96856D01*
X196920Y96614D01*
X196989Y96394D01*
X197070Y96186D01*
X197140Y96013D01*
X197221Y95851D01*
X197302Y95724D01*
X197371Y95608D01*
X197429Y95516D01*
X197475Y95435D01*
X197521Y95389D01*
X197544Y95354D01*
X197556Y95343D01*
X197717Y95181D01*
X197891Y95054D01*
X198076Y94927D01*
X198272Y94834D01*
X198469Y94742D01*
X198654Y94672D01*
X198850Y94614D01*
X199035Y94568D01*
X199208Y94522D01*
X199370Y94499D01*
X199520Y94476D01*
X199648Y94464D01*
X199751D01*
X199832Y94453D01*
X199902D01*
X200179Y94464D01*
X200445Y94487D01*
X200688Y94534D01*
X200907Y94591D01*
X201127Y94661D01*
X201312Y94730D01*
X201485Y94811D01*
X201647Y94903D01*
X201786Y94984D01*
X201913Y95065D01*
X202005Y95134D01*
X202098Y95204D01*
X202167Y95262D01*
X202213Y95308D01*
X202236Y95331D01*
X202248Y95343D01*
X202386Y95516D01*
X202514Y95712D01*
X202629Y95920D01*
X202722Y96140D01*
X202803Y96360D01*
X202872Y96591D01*
X202918Y96810D01*
X202964Y97018D01*
X202999Y97226D01*
X203022Y97423D01*
X203045Y97585D01*
X203057Y97735D01*
X203068Y97862D01*
Y97954D01*
Y98012D01*
Y98035D01*
X203057Y98359D01*
X203034Y98671D01*
X202987Y98948D01*
X202941Y99214D01*
X202883Y99457D01*
X202814Y99676D01*
X202733Y99884D01*
X202652Y100058D01*
X202583Y100220D01*
X202502Y100347D01*
X202433Y100462D01*
X202375Y100566D01*
X202329Y100636D01*
X202283Y100682D01*
X202259Y100716D01*
X202248Y100728D01*
X202086Y100890D01*
X201913Y101017D01*
X201728Y101144D01*
X201531Y101248D01*
X201335Y101329D01*
X201150Y101398D01*
X200954Y101456D01*
X200769Y101502D01*
X200595Y101549D01*
X200422Y101572D01*
X200283Y101595D01*
X200156Y101606D01*
X200052Y101618D01*
D02*
G37*
G36*
X183410D02*
X183260D01*
X182982Y101606D01*
X182717Y101583D01*
X182474Y101537D01*
X182254Y101479D01*
X182035Y101410D01*
X181850Y101341D01*
X181676Y101260D01*
X181515Y101179D01*
X181376Y101086D01*
X181249Y101005D01*
X181145Y100936D01*
X181064Y100867D01*
X180994Y100809D01*
X180948Y100763D01*
X180925Y100740D01*
X180914Y100728D01*
X180763Y100555D01*
X180636Y100358D01*
X180532Y100150D01*
X180428Y99931D01*
X180347Y99711D01*
X180290Y99480D01*
X180232Y99260D01*
X180186Y99052D01*
X180151Y98844D01*
X180128Y98648D01*
X180105Y98486D01*
X180093Y98336D01*
X180082Y98209D01*
Y98116D01*
Y98058D01*
Y98035D01*
X180093Y97712D01*
X180116Y97400D01*
X180162Y97122D01*
X180209Y96856D01*
X180278Y96614D01*
X180347Y96394D01*
X180417Y96186D01*
X180498Y96013D01*
X180578Y95851D01*
X180648Y95724D01*
X180717Y95608D01*
X180786Y95516D01*
X180833Y95435D01*
X180879Y95389D01*
X180902Y95354D01*
X180914Y95343D01*
X181075Y95181D01*
X181249Y95054D01*
X181434Y94927D01*
X181630Y94834D01*
X181827Y94742D01*
X182012Y94672D01*
X182208Y94614D01*
X182393Y94568D01*
X182566Y94522D01*
X182728Y94499D01*
X182878Y94476D01*
X183006Y94464D01*
X183109D01*
X183190Y94453D01*
X183260D01*
X183537Y94464D01*
X183803Y94487D01*
X184046Y94534D01*
X184277Y94591D01*
X184485Y94661D01*
X184681Y94730D01*
X184855Y94811D01*
X185005Y94903D01*
X185155Y94984D01*
X185271Y95065D01*
X185375Y95134D01*
X185467Y95204D01*
X185525Y95262D01*
X185583Y95308D01*
X185606Y95331D01*
X185617Y95343D01*
X185756Y95516D01*
X185883Y95712D01*
X185999Y95920D01*
X186091Y96140D01*
X186172Y96360D01*
X186241Y96591D01*
X186288Y96810D01*
X186334Y97018D01*
X186369Y97226D01*
X186392Y97423D01*
X186415Y97585D01*
X186426Y97735D01*
X186438Y97862D01*
Y97954D01*
Y98012D01*
Y98035D01*
X186426Y98359D01*
X186403Y98671D01*
X186357Y98948D01*
X186311Y99214D01*
X186253Y99457D01*
X186184Y99676D01*
X186103Y99884D01*
X186022Y100058D01*
X185952Y100220D01*
X185872Y100347D01*
X185802Y100462D01*
X185744Y100566D01*
X185698Y100636D01*
X185652Y100682D01*
X185629Y100716D01*
X185617Y100728D01*
X185455Y100890D01*
X185282Y101017D01*
X185086Y101144D01*
X184901Y101248D01*
X184704Y101329D01*
X184508Y101398D01*
X184311Y101456D01*
X184126Y101502D01*
X183953Y101549D01*
X183791Y101572D01*
X183641Y101595D01*
X183514Y101606D01*
X183410Y101618D01*
D02*
G37*
G36*
X145457D02*
X145307D01*
X145029Y101606D01*
X144763Y101583D01*
X144521Y101537D01*
X144301Y101479D01*
X144081Y101410D01*
X143897Y101341D01*
X143723Y101260D01*
X143561Y101179D01*
X143423Y101086D01*
X143296Y101005D01*
X143192Y100936D01*
X143111Y100867D01*
X143041Y100809D01*
X142995Y100763D01*
X142972Y100740D01*
X142960Y100728D01*
X142810Y100555D01*
X142683Y100358D01*
X142579Y100150D01*
X142475Y99931D01*
X142394Y99711D01*
X142336Y99480D01*
X142279Y99260D01*
X142232Y99052D01*
X142198Y98844D01*
X142175Y98648D01*
X142151Y98486D01*
X142140Y98336D01*
X142128Y98209D01*
Y98116D01*
Y98058D01*
Y98035D01*
X142140Y97712D01*
X142163Y97400D01*
X142209Y97122D01*
X142255Y96856D01*
X142325Y96614D01*
X142394Y96394D01*
X142464Y96186D01*
X142544Y96013D01*
X142625Y95851D01*
X142695Y95724D01*
X142764Y95608D01*
X142833Y95516D01*
X142879Y95435D01*
X142926Y95389D01*
X142949Y95354D01*
X142960Y95343D01*
X143122Y95181D01*
X143296Y95054D01*
X143481Y94927D01*
X143677Y94834D01*
X143873Y94742D01*
X144058Y94672D01*
X144255Y94614D01*
X144440Y94568D01*
X144613Y94522D01*
X144775Y94499D01*
X144925Y94476D01*
X145052Y94464D01*
X145156D01*
X145237Y94453D01*
X145307D01*
X145584Y94464D01*
X145850Y94487D01*
X146092Y94534D01*
X146323Y94591D01*
X146532Y94661D01*
X146728Y94730D01*
X146901Y94811D01*
X147052Y94903D01*
X147202Y94984D01*
X147317Y95065D01*
X147421Y95134D01*
X147514Y95204D01*
X147572Y95262D01*
X147629Y95308D01*
X147653Y95331D01*
X147664Y95343D01*
X147803Y95516D01*
X147930Y95712D01*
X148046Y95920D01*
X148138Y96140D01*
X148219Y96360D01*
X148288Y96591D01*
X148335Y96810D01*
X148381Y97018D01*
X148415Y97226D01*
X148439Y97423D01*
X148462Y97585D01*
X148473Y97735D01*
X148485Y97862D01*
Y97954D01*
Y98012D01*
Y98035D01*
X148473Y98359D01*
X148450Y98671D01*
X148404Y98948D01*
X148358Y99214D01*
X148300Y99457D01*
X148230Y99676D01*
X148149Y99884D01*
X148069Y100058D01*
X147999Y100220D01*
X147918Y100347D01*
X147849Y100462D01*
X147791Y100566D01*
X147745Y100636D01*
X147699Y100682D01*
X147676Y100716D01*
X147664Y100728D01*
X147502Y100890D01*
X147329Y101017D01*
X147133Y101144D01*
X146948Y101248D01*
X146751Y101329D01*
X146555Y101398D01*
X146358Y101456D01*
X146173Y101502D01*
X146000Y101549D01*
X145838Y101572D01*
X145688Y101595D01*
X145561Y101606D01*
X145457Y101618D01*
D02*
G37*
%LPD*%
M02*
