G04*
G04 #@! TF.GenerationSoftware,Altium Limited,Altium Designer,21.6.4 (81)*
G04*
G04 Layer_Color=32768*
%FSLAX44Y44*%
%MOMM*%
G71*
G04*
G04 #@! TF.SameCoordinates,816F8A91-06EC-47E4-87ED-5788FB9A99D2*
G04*
G04*
G04 #@! TF.FilePolarity,Positive*
G04*
G01*
G75*
%ADD48C,0.0500*%
%ADD51C,0.1000*%
%ADD52C,0.0100*%
%ADD53C,0.0050*%
D48*
X235000Y128500D02*
Y198500D01*
X165000Y128500D02*
X235000D01*
X165000Y198500D02*
X235000D01*
X165000Y128500D02*
Y198500D01*
X200000Y158500D02*
Y168500D01*
X195000Y163500D02*
X205000D01*
X195000Y14000D02*
X205000D01*
X200000Y9000D02*
Y19000D01*
X94900Y51950D02*
X305100D01*
Y-60700D02*
Y51950D01*
X94900Y-60700D02*
X305100D01*
X94900D02*
Y51950D01*
X125750Y138850D02*
X147750D01*
X125750Y126850D02*
X147750D01*
X125750D02*
Y138850D01*
X147750Y126850D02*
Y138850D01*
X79000Y181250D02*
X87000D01*
X79000Y166750D02*
X87000D01*
Y181250D01*
X79000Y166750D02*
Y181250D01*
X83000Y170500D02*
Y176750D01*
X79750Y173750D02*
X85750D01*
X206000Y78000D02*
Y86000D01*
X222000Y78000D02*
Y86000D01*
X206000D02*
X222000D01*
X206000Y78000D02*
X222000D01*
X211000Y82000D02*
X217000D01*
X214000Y79000D02*
Y85000D01*
X73750Y164000D02*
Y191750D01*
X27750D02*
X73750D01*
X27750Y164000D02*
Y191750D01*
Y164000D02*
X73750D01*
X50750Y173000D02*
Y183000D01*
X45750Y178000D02*
X55750D01*
X136250Y159850D02*
X146250D01*
X141250Y154850D02*
Y164850D01*
X132000Y139850D02*
Y179850D01*
X150750Y139850D02*
Y179850D01*
X132000Y139850D02*
X150750D01*
X132000Y179850D02*
X150750D01*
X225000Y76000D02*
Y100000D01*
Y76000D02*
X255000D01*
Y100000D01*
X225000D02*
X255000D01*
X240000Y83000D02*
Y93000D01*
X235000Y88000D02*
X245000D01*
X147750Y180850D02*
Y192850D01*
X125750Y180850D02*
Y192850D01*
Y180850D02*
X147750D01*
X125750Y192850D02*
X147750D01*
X45250Y114000D02*
X55250D01*
X50250Y109000D02*
Y119000D01*
X27250Y100000D02*
X73250D01*
X27250D02*
Y127750D01*
X73250D01*
Y100000D02*
Y127750D01*
X214000Y91000D02*
Y97000D01*
X211000Y94000D02*
X217000D01*
X206000Y90000D02*
X222000D01*
X206000Y98000D02*
X222000D01*
Y90000D02*
Y98000D01*
X206000Y90000D02*
Y98000D01*
X260000Y97000D02*
X266000D01*
X263000Y94000D02*
Y100000D01*
X259000Y89000D02*
Y105000D01*
X267000Y89000D02*
Y105000D01*
X259000Y89000D02*
X267000D01*
X259000Y105000D02*
X267000D01*
X81000Y109750D02*
X87000D01*
X84250Y106500D02*
Y112750D01*
X80250Y102750D02*
Y117250D01*
X88250Y102750D02*
Y117250D01*
X80250Y102750D02*
X88250D01*
X80250Y117250D02*
X88250D01*
D51*
X136750Y130100D02*
Y135600D01*
X134000Y132850D02*
X139500D01*
X134000Y186850D02*
X139500D01*
X136750Y184100D02*
Y189600D01*
X210997Y162500D02*
X202666D01*
X201000Y160834D01*
Y157502D01*
X202666Y155836D01*
X210997D01*
X201000Y152503D02*
Y149171D01*
Y150837D01*
X210997D01*
X209331Y152503D01*
D52*
X156000Y196000D02*
X162000D01*
X159000Y193000D02*
Y199000D01*
D53*
X163000Y188400D02*
Y203600D01*
X155000Y188400D02*
Y203600D01*
X163000D01*
X155000Y188400D02*
X163000D01*
M02*
