M48
;Layer_Color=9474304
;FILE_FORMAT=4:4
METRIC,LZ
;TYPE=PLATED
T1F00S00C0.3000
T2F00S00C1.1000
T3F00S00C1.8000
;TYPE=NON_PLATED
T4F00S00C0.9950
%
T01
X00008Y00047
Y00062
Y00197
Y00212
X00023
X00038
X00053
X00068
X00083
X00098
X00113
X00128
X00143
X00158
X00173
X00188
X00203
X00218
X00233
X00248
X00263
X00278
X00293
X00308
X00323
X00338
X00353
X00368
X00383
X00392
Y00197
X00383
Y00182
X00392Y00182
Y00167
X00383Y00167
Y00152
X00392Y00152
Y00137
X0038735Y00108966
X00393192Y00089662
X00392Y00077
X00383Y00047
X00368
X00353
Y00062
X00338
Y00047
Y00032
X00353
X00353Y00019
Y00008
X00308
Y00019
X00308Y00032
X00323
Y00047
X00308Y00062
X00293
X00278
X00263
X00248
X00233
X00218
X00203
X00203Y0008
X00203Y00092
X00218
X00218Y0008
X00233
X00233Y00092
X00248
X00248Y0008
X00263
X00263Y00092
X00278
X00293
X00308
X00323
X00338
Y00107
X00323
Y00122
X00308
Y00107
X00288Y0013
X00266Y00136
X00263Y00122
X00258064Y00114046
X00248Y00107
X00233
X00218
X00203
X00188
Y00092
X00188Y0008
X00173
X00173Y00092
Y00107
X00158
Y00092
X00158Y0008
X00143
X00143Y00092
Y00107
X0013Y00107
X00128Y00092
X00116Y00092
X00105Y00098
X00105123Y00106967
X00113Y00107
X00105156Y00117094
X00107Y00131
X00079Y00126
X00081Y00109
X00068Y00116
Y00137
X00079Y00149
X00076962Y00163322
X00083Y00197
X00098
X00113
X00128
X00143
X00158
X00173
X00188
X00203
X00218
X00233
X00248
X00263
X00278
X00293
X00308
X00323
X00338
X00353
X00368
Y00182
Y00167
Y00152
X00353
Y00167
Y00182
X00338
Y00167
Y00152
X00323
Y00167
Y00182
X00308
Y00167
X00293
X00278
X00263
Y00182
X00248
Y00167
X00233
Y00182
X00218
Y00167
X00203
Y00182
X00188
Y00167
X00173
Y00182
X00158
Y00167
X00143
Y00182
X00152Y00141
X0015Y00124
X001605Y001285
X00134Y00124
X00128Y0008
X00104
X00098Y00047
Y00032
X00098Y00019
Y00008
X00113
Y00019
X00128
Y00008
X00143
Y00019
X00158
Y00008
X00173
Y00019
X00188
Y00008
X00203
Y00019
X00218
Y00008
X00233
Y00019
X00248
Y00008
X00263
Y00019
X00278
Y00008
X00293
Y00019
X00357632Y00101854
X00353Y00122
X00368
X00248Y00137
X00228Y00141
Y00123
X00181Y00066
X00128Y00032
X00083
X00083Y00019
Y00008
X00068
Y00019
Y00032
Y00047
X00083
X00053
Y00032
Y00019
Y00008
X00038Y00047
X00023
X00038Y00077
X00053
X00068
X00036Y00117
X00034Y00137
X00023Y00152
Y00167
X00034544Y0016383
X00023Y00182
Y00197
X00038
X00053
X00068
T02
X001111Y000417
X001365
X001619
X001873
X002127
X002381
X002635
X002889
T03
X00025Y00025
X00375
T04
X0036484Y000642
X0038516
X00375Y00115
M30
