G04*
G04 #@! TF.GenerationSoftware,Altium Limited,Altium Designer,21.6.4 (81)*
G04*
G04 Layer_Color=128*
%FSLAX44Y44*%
%MOMM*%
G71*
G04*
G04 #@! TF.SameCoordinates,F5FF2EED-A301-45B2-9F22-88543F1AE188*
G04*
G04*
G04 #@! TF.FilePolarity,Positive*
G04*
G01*
G75*
%ADD51C,0.0508*%
D51*
X130425Y89840D02*
X140375D01*
X135400Y84865D02*
Y94815D01*
X130425Y110160D02*
X140375D01*
X135400Y105185D02*
Y115135D01*
X79625Y100000D02*
X89575D01*
X84600Y95025D02*
Y104975D01*
X15600Y42200D02*
X26600D01*
X21100Y36700D02*
Y47700D01*
X41000Y42200D02*
X52000D01*
X46500Y36700D02*
Y47700D01*
X142600Y42200D02*
X153600D01*
X148100Y36700D02*
Y47700D01*
X193400Y42200D02*
X204400D01*
X198900Y36700D02*
Y47700D01*
X168000Y42200D02*
X179000D01*
X173500Y36700D02*
Y47700D01*
X117200Y42200D02*
X128200D01*
X122700Y36700D02*
Y47700D01*
X91800Y42200D02*
X102800D01*
X97300Y36700D02*
Y47700D01*
X66400Y42200D02*
X77400D01*
X71900Y36700D02*
Y47700D01*
X26000Y100000D02*
X44000D01*
X35000Y91000D02*
Y109000D01*
X176000Y100000D02*
X194000D01*
X185000Y91000D02*
Y109000D01*
X95750Y71250D02*
X98750D01*
X97250Y69750D02*
Y72750D01*
X111500Y338000D02*
X114500D01*
X113000Y336500D02*
Y339500D01*
X101500Y338000D02*
X104500D01*
X103000Y336500D02*
Y339500D01*
X79500Y268000D02*
X82500D01*
X81000Y266500D02*
Y269500D01*
X137500Y268000D02*
X140500D01*
X139000Y266500D02*
Y269500D01*
X120500Y345000D02*
X123500D01*
X122000Y343500D02*
Y346500D01*
X91500Y338000D02*
X94500D01*
X93000Y336500D02*
Y339500D01*
X91500Y318000D02*
X94500D01*
X93000Y316500D02*
Y319500D01*
X124500Y296000D02*
X127500D01*
X126000Y294500D02*
Y297500D01*
X92500Y295000D02*
X95500D01*
X94000Y293500D02*
Y296500D01*
X19500Y204000D02*
X22500D01*
X21000Y202500D02*
Y205500D01*
X107500Y215000D02*
X110500D01*
X109000Y213500D02*
Y216500D01*
X188500Y206000D02*
X191500D01*
X190000Y204500D02*
Y207500D01*
X6500Y215000D02*
X9500D01*
X8000Y213500D02*
Y216500D01*
X6500Y204000D02*
X9500D01*
X8000Y202500D02*
Y205500D01*
X79500Y205000D02*
X82500D01*
X81000Y203500D02*
Y206500D01*
X113500Y204000D02*
X116500D01*
X115000Y202500D02*
Y205500D01*
X121500Y204000D02*
X124500D01*
X123000Y202500D02*
Y205500D01*
X210500Y204000D02*
X213500D01*
X212000Y202500D02*
Y205500D01*
X210500Y215000D02*
X213500D01*
X212000Y213500D02*
Y216500D01*
X210500Y227000D02*
X213500D01*
X212000Y225500D02*
Y228500D01*
X210500Y242000D02*
X213500D01*
X212000Y240500D02*
Y243500D01*
X210500Y257000D02*
X213500D01*
X212000Y255500D02*
Y258500D01*
X210500Y272000D02*
X213500D01*
X212000Y270500D02*
Y273500D01*
X210500Y287000D02*
X213500D01*
X212000Y285500D02*
Y288500D01*
X210500Y302000D02*
X213500D01*
X212000Y300500D02*
Y303500D01*
X210500Y317000D02*
X213500D01*
X212000Y315500D02*
Y318500D01*
X210500Y332000D02*
X213500D01*
X212000Y330500D02*
Y333500D01*
X210500Y347000D02*
X213500D01*
X212000Y345500D02*
Y348500D01*
X210500Y362000D02*
X213500D01*
X212000Y360500D02*
Y363500D01*
X210500Y377000D02*
X213500D01*
X212000Y375500D02*
Y378500D01*
X210500Y392000D02*
X213500D01*
X212000Y390500D02*
Y393500D01*
X201500Y392000D02*
X204500D01*
X203000Y390500D02*
Y393500D01*
X201500Y377000D02*
X204500D01*
X203000Y375500D02*
Y378500D01*
X201500Y362000D02*
X204500D01*
X203000Y360500D02*
Y363500D01*
X201500Y347000D02*
X204500D01*
X203000Y345500D02*
Y348500D01*
X201500Y332000D02*
X204500D01*
X203000Y330500D02*
Y333500D01*
X201500Y317000D02*
X204500D01*
X203000Y315500D02*
Y318500D01*
X186500Y392000D02*
X189500D01*
X188000Y390500D02*
Y393500D01*
X186500Y377000D02*
X189500D01*
X188000Y375500D02*
Y378500D01*
X186500Y332000D02*
X189500D01*
X188000Y330500D02*
Y333500D01*
X186500Y302000D02*
X189500D01*
X188000Y300500D02*
Y303500D01*
X186500Y287000D02*
X189500D01*
X188000Y285500D02*
Y288500D01*
X186500Y272000D02*
X189500D01*
X188000Y270500D02*
Y273500D01*
X186500Y257000D02*
X189500D01*
X188000Y255500D02*
Y258500D01*
X186500Y242000D02*
X189500D01*
X188000Y240500D02*
Y243500D01*
X186500Y227000D02*
X189500D01*
X188000Y225500D02*
Y228500D01*
X171500Y392000D02*
X174500D01*
X173000Y390500D02*
Y393500D01*
X171500Y377000D02*
X174500D01*
X173000Y375500D02*
Y378500D01*
X171500Y317000D02*
X174500D01*
X173000Y315500D02*
Y318500D01*
X171500Y302000D02*
X174500D01*
X173000Y300500D02*
Y303500D01*
X156500Y377000D02*
X159500D01*
X158000Y375500D02*
Y378500D01*
X141500Y242000D02*
X144500D01*
X143000Y240500D02*
Y243500D01*
X141500Y227000D02*
X144500D01*
X143000Y225500D02*
Y228500D01*
X126500Y317000D02*
X129500D01*
X128000Y315500D02*
Y318500D01*
X126500Y227000D02*
X129500D01*
X128000Y225500D02*
Y228500D01*
X111500Y242000D02*
X114500D01*
X113000Y240500D02*
Y243500D01*
X96500Y242000D02*
X99500D01*
X98000Y240500D02*
Y243500D01*
X96500Y227000D02*
X99500D01*
X98000Y225500D02*
Y228500D01*
X81500Y242000D02*
X84500D01*
X83000Y240500D02*
Y243500D01*
X81500Y227000D02*
X84500D01*
X83000Y225500D02*
Y228500D01*
X51500Y392000D02*
X54500D01*
X53000Y390500D02*
Y393500D01*
X51500Y377000D02*
X54500D01*
X53000Y375500D02*
Y378500D01*
X51500Y362000D02*
X54500D01*
X53000Y360500D02*
Y363500D01*
X51500Y347000D02*
X54500D01*
X53000Y345500D02*
Y348500D01*
X51500Y332000D02*
X54500D01*
X53000Y330500D02*
Y333500D01*
X51500Y302000D02*
X54500D01*
X53000Y300500D02*
Y303500D01*
X51500Y272000D02*
X54500D01*
X53000Y270500D02*
Y273500D01*
X51500Y257000D02*
X54500D01*
X53000Y255500D02*
Y258500D01*
X51500Y242000D02*
X54500D01*
X53000Y240500D02*
Y243500D01*
X36500Y392000D02*
X39500D01*
X38000Y390500D02*
Y393500D01*
X36500Y377000D02*
X39500D01*
X38000Y375500D02*
Y378500D01*
X36500Y362000D02*
X39500D01*
X38000Y360500D02*
Y363500D01*
X36500Y347000D02*
X39500D01*
X38000Y345500D02*
Y348500D01*
X36500Y332000D02*
X39500D01*
X38000Y330500D02*
Y333500D01*
X36500Y317000D02*
X39500D01*
X38000Y315500D02*
Y318500D01*
X36500Y302000D02*
X39500D01*
X38000Y300500D02*
Y303500D01*
X36500Y287000D02*
X39500D01*
X38000Y285500D02*
Y288500D01*
X36500Y272000D02*
X39500D01*
X38000Y270500D02*
Y273500D01*
X36500Y257000D02*
X39500D01*
X38000Y255500D02*
Y258500D01*
X36500Y242000D02*
X39500D01*
X38000Y240500D02*
Y243500D01*
X36500Y227000D02*
X39500D01*
X38000Y225500D02*
Y228500D01*
X21500Y392000D02*
X24500D01*
X23000Y390500D02*
Y393500D01*
X21500Y377000D02*
X24500D01*
X23000Y375500D02*
Y378500D01*
X21500Y362000D02*
X24500D01*
X23000Y360500D02*
Y363500D01*
X21500Y347000D02*
X24500D01*
X23000Y345500D02*
Y348500D01*
X21500Y332000D02*
X24500D01*
X23000Y330500D02*
Y333500D01*
X21500Y317000D02*
X24500D01*
X23000Y315500D02*
Y318500D01*
X21500Y302000D02*
X24500D01*
X23000Y300500D02*
Y303500D01*
X21500Y287000D02*
X24500D01*
X23000Y285500D02*
Y288500D01*
X21500Y272000D02*
X24500D01*
X23000Y270500D02*
Y273500D01*
X21500Y257000D02*
X24500D01*
X23000Y255500D02*
Y258500D01*
X21500Y242000D02*
X24500D01*
X23000Y240500D02*
Y243500D01*
X21500Y227000D02*
X24500D01*
X23000Y225500D02*
Y228500D01*
X6500Y392000D02*
X9500D01*
X8000Y390500D02*
Y393500D01*
X6500Y377000D02*
X9500D01*
X8000Y375500D02*
Y378500D01*
X6500Y362000D02*
X9500D01*
X8000Y360500D02*
Y363500D01*
X6500Y347000D02*
X9500D01*
X8000Y345500D02*
Y348500D01*
X6500Y332000D02*
X9500D01*
X8000Y330500D02*
Y333500D01*
X6500Y317000D02*
X9500D01*
X8000Y315500D02*
Y318500D01*
X6500Y302000D02*
X9500D01*
X8000Y300500D02*
Y303500D01*
X6500Y287000D02*
X9500D01*
X8000Y285500D02*
Y288500D01*
X6500Y272000D02*
X9500D01*
X8000Y270500D02*
Y273500D01*
X6500Y257000D02*
X9500D01*
X8000Y255500D02*
Y258500D01*
X6500Y242000D02*
X9500D01*
X8000Y240500D02*
Y243500D01*
X6500Y227000D02*
X9500D01*
X8000Y225500D02*
Y228500D01*
X84500Y140000D02*
X87500D01*
X86000Y138500D02*
Y141500D01*
X99500Y161970D02*
X102500D01*
X101000Y160470D02*
Y163470D01*
X125500Y175030D02*
X128500D01*
X127000Y173530D02*
Y176530D01*
X133884Y159330D02*
X136884D01*
X135384Y157830D02*
Y160830D01*
X150461Y180024D02*
X153461D01*
X151961Y178524D02*
Y181524D01*
X126500Y152000D02*
X129500D01*
X128000Y150500D02*
Y153500D01*
X180500Y179000D02*
X183500D01*
X182000Y177500D02*
Y180500D01*
X160500Y180000D02*
X163500D01*
X162000Y178500D02*
Y181500D01*
X190500Y179000D02*
X193500D01*
X192000Y177500D02*
Y180500D01*
X57750Y287000D02*
X60750D01*
X59250Y285500D02*
Y288500D01*
X160750Y277000D02*
X163750D01*
X162250Y275500D02*
Y278500D01*
X160750Y287000D02*
X163750D01*
X162250Y285500D02*
Y288500D01*
X57750Y327000D02*
X60750D01*
X59250Y325500D02*
Y328500D01*
X68500Y202000D02*
X71500D01*
X70000Y200500D02*
Y203500D01*
X58500Y202000D02*
X61500D01*
X60000Y200500D02*
Y203500D01*
X48500Y202000D02*
X51500D01*
X50000Y200500D02*
Y203500D01*
X38500Y202000D02*
X41500D01*
X40000Y200500D02*
Y203500D01*
X28500Y202000D02*
X31500D01*
X30000Y200500D02*
Y203500D01*
X57750Y297000D02*
X60750D01*
X59250Y295500D02*
Y298500D01*
X57750Y307000D02*
X60750D01*
X59250Y305500D02*
Y308500D01*
X57750Y317000D02*
X60750D01*
X59250Y315500D02*
Y318500D01*
X99500Y202000D02*
X102500D01*
X101000Y200500D02*
Y203500D01*
X89500Y202000D02*
X92500D01*
X91000Y200500D02*
Y203500D01*
X88750Y346000D02*
X91750D01*
X90250Y344500D02*
Y347500D01*
X128750Y346000D02*
X131750D01*
X130250Y344500D02*
Y347500D01*
X130500Y202000D02*
X133500D01*
X132000Y200500D02*
Y203500D01*
X140500Y202000D02*
X143500D01*
X142000Y200500D02*
Y203500D01*
X16300Y177000D02*
X19300D01*
X17800Y175500D02*
Y178500D01*
X95500Y84000D02*
X98500D01*
X97000Y82500D02*
Y85500D01*
X89500Y180000D02*
X92500D01*
X91000Y178500D02*
Y181500D01*
X99500Y180000D02*
X102500D01*
X101000Y178500D02*
Y181500D01*
X41500Y163000D02*
X44500D01*
X43000Y161500D02*
Y164500D01*
M02*
