G04*
G04 #@! TF.GenerationSoftware,Altium Limited,Altium Designer,21.6.4 (81)*
G04*
G04 Layer_Color=8388736*
%FSLAX44Y44*%
%MOMM*%
G71*
G04*
G04 #@! TF.SameCoordinates,F5FF2EED-A301-45B2-9F22-88543F1AE188*
G04*
G04*
G04 #@! TF.FilePolarity,Negative*
G04*
G01*
G75*
%ADD26R,0.6500X0.6200*%
%ADD27R,1.1200X0.7400*%
%ADD28R,0.8000X0.8000*%
%ADD29R,1.2500X0.8000*%
%ADD30R,0.8000X1.2500*%
%ADD31R,0.8000X0.8000*%
%ADD32C,0.8900*%
%ADD33R,0.9000X1.8000*%
%ADD34R,0.4600X0.4500*%
%ADD35R,0.8800X0.8400*%
%ADD36R,1.1000X0.9000*%
%ADD37C,1.0000*%
%ADD38C,1.7500*%
%ADD39R,1.7500X1.7500*%
%ADD40C,3.5000*%
D26*
X40000Y187000D02*
D03*
Y195000D02*
D03*
X152000D02*
D03*
Y187000D02*
D03*
X132000Y195000D02*
D03*
Y187000D02*
D03*
X142000Y195000D02*
D03*
Y187000D02*
D03*
X70000Y195000D02*
D03*
Y187000D02*
D03*
X162000D02*
D03*
Y195000D02*
D03*
X30000Y187000D02*
D03*
Y195000D02*
D03*
X101000Y187000D02*
D03*
Y195000D02*
D03*
X60000Y187000D02*
D03*
Y195000D02*
D03*
X172000Y187000D02*
D03*
Y195000D02*
D03*
X91000Y187000D02*
D03*
Y195000D02*
D03*
X50000Y187000D02*
D03*
Y195000D02*
D03*
X182000D02*
D03*
Y187000D02*
D03*
X192000Y195000D02*
D03*
Y187000D02*
D03*
D27*
X209000Y194850D02*
D03*
Y181150D02*
D03*
X119000Y181150D02*
D03*
Y194850D02*
D03*
D28*
X66500Y367000D02*
D03*
Y392500D02*
D03*
X153500D02*
D03*
Y367000D02*
D03*
X137500Y281500D02*
D03*
Y292500D02*
D03*
Y303500D02*
D03*
Y314500D02*
D03*
Y325500D02*
D03*
X82500D02*
D03*
Y314500D02*
D03*
Y303500D02*
D03*
Y292500D02*
D03*
Y281500D02*
D03*
X93500D02*
D03*
X104500D02*
D03*
X115500D02*
D03*
X126500D02*
D03*
X70000Y255500D02*
D03*
X80000D02*
D03*
X90000D02*
D03*
X100000D02*
D03*
X110000D02*
D03*
X120000D02*
D03*
X130000D02*
D03*
X140000D02*
D03*
X150000D02*
D03*
X137500Y336500D02*
D03*
X82500D02*
D03*
D29*
X151250Y267000D02*
D03*
Y277000D02*
D03*
Y287000D02*
D03*
Y297000D02*
D03*
Y307000D02*
D03*
Y317000D02*
D03*
Y327000D02*
D03*
Y337000D02*
D03*
Y347000D02*
D03*
Y357000D02*
D03*
X68750D02*
D03*
Y347000D02*
D03*
Y337000D02*
D03*
Y327000D02*
D03*
Y317000D02*
D03*
Y307000D02*
D03*
Y297000D02*
D03*
Y287000D02*
D03*
Y277000D02*
D03*
Y267000D02*
D03*
D30*
X90000Y356250D02*
D03*
X100000D02*
D03*
X110000D02*
D03*
X120000D02*
D03*
X130000D02*
D03*
Y267750D02*
D03*
X120000D02*
D03*
X110000D02*
D03*
X100000D02*
D03*
X90000D02*
D03*
D31*
X127250Y329250D02*
D03*
X115750D02*
D03*
X104250D02*
D03*
X92750D02*
D03*
Y306250D02*
D03*
X104250Y317750D02*
D03*
X115750D02*
D03*
Y294750D02*
D03*
X127250Y306250D02*
D03*
X115750D02*
D03*
X104250D02*
D03*
Y294750D02*
D03*
D32*
X122700Y106350D02*
D03*
Y93650D02*
D03*
X110000Y106350D02*
D03*
Y93650D02*
D03*
X97300Y106350D02*
D03*
Y93650D02*
D03*
D33*
X52000Y150000D02*
D03*
X18000D02*
D03*
X202000D02*
D03*
X168000D02*
D03*
D34*
X17800Y170000D02*
D03*
X26200D02*
D03*
X167800D02*
D03*
X176200D02*
D03*
D35*
X172250Y357000D02*
D03*
X182050D02*
D03*
Y345000D02*
D03*
X172250D02*
D03*
D36*
X99500Y140500D02*
D03*
X114500D02*
D03*
Y151500D02*
D03*
X99500D02*
D03*
D37*
X135400Y89840D02*
D03*
Y110160D02*
D03*
X84600Y100000D02*
D03*
D38*
X21100Y42200D02*
D03*
X46500D02*
D03*
X148100D02*
D03*
X173500D02*
D03*
X122700D02*
D03*
X97300D02*
D03*
X71900D02*
D03*
D39*
X198900D02*
D03*
D40*
X35000Y100000D02*
D03*
X185000D02*
D03*
M02*
