G04*
G04 #@! TF.GenerationSoftware,Altium Limited,Altium Designer,21.6.4 (81)*
G04*
G04 Layer_Physical_Order=2*
G04 Layer_Color=36540*
%FSLAX44Y44*%
%MOMM*%
G71*
G04*
G04 #@! TF.SameCoordinates,F5FF2EED-A301-45B2-9F22-88543F1AE188*
G04*
G04*
G04 #@! TF.FilePolarity,Positive*
G04*
G01*
G75*
%ADD44C,0.9000*%
%ADD45C,1.6500*%
%ADD46R,1.6500X1.6500*%
%ADD48C,0.6000*%
%ADD49C,2.1590*%
G36*
X215922Y200000D02*
X147210D01*
X146208Y201270D01*
X146354Y202000D01*
X146022Y203666D01*
X145078Y205079D01*
X143666Y206022D01*
X142000Y206354D01*
X140334Y206022D01*
X138921Y205079D01*
X137978Y203666D01*
X137646Y202000D01*
X137000Y201460D01*
X136354Y202000D01*
X136022Y203666D01*
X135078Y205079D01*
X133666Y206022D01*
X132000Y206354D01*
X130334Y206022D01*
X128921Y205079D01*
X127978Y203666D01*
X127646Y202000D01*
X127792Y201270D01*
X126790Y200000D01*
X106210D01*
X105208Y201270D01*
X105354Y202000D01*
X105022Y203666D01*
X104079Y205079D01*
X102666Y206022D01*
X101000Y206354D01*
X99334Y206022D01*
X97921Y205079D01*
X96978Y203666D01*
X96646Y202000D01*
X96000Y201460D01*
X95354Y202000D01*
X95022Y203666D01*
X94079Y205079D01*
X92666Y206022D01*
X91000Y206354D01*
X89334Y206022D01*
X87921Y205079D01*
X86978Y203666D01*
X86646Y202000D01*
X86792Y201270D01*
X85790Y200000D01*
X75210D01*
X74208Y201270D01*
X74354Y202000D01*
X74022Y203666D01*
X73078Y205079D01*
X71666Y206022D01*
X70000Y206354D01*
X68334Y206022D01*
X66922Y205079D01*
X65978Y203666D01*
X65646Y202000D01*
X65000Y201460D01*
X64354Y202000D01*
X64022Y203666D01*
X63078Y205079D01*
X61666Y206022D01*
X60000Y206354D01*
X58334Y206022D01*
X56922Y205079D01*
X55978Y203666D01*
X55646Y202000D01*
X55000Y201460D01*
X54354Y202000D01*
X54022Y203666D01*
X53078Y205079D01*
X51666Y206022D01*
X50000Y206354D01*
X48334Y206022D01*
X46922Y205079D01*
X45978Y203666D01*
X45646Y202000D01*
X45000Y201460D01*
X44354Y202000D01*
X44022Y203666D01*
X43078Y205079D01*
X41666Y206022D01*
X40000Y206354D01*
X38334Y206022D01*
X36922Y205079D01*
X35978Y203666D01*
X35646Y202000D01*
X35000Y201460D01*
X34354Y202000D01*
X34022Y203666D01*
X33078Y205079D01*
X31666Y206022D01*
X30000Y206354D01*
X28334Y206022D01*
X26922Y205079D01*
X25978Y203666D01*
X25646Y202000D01*
X25792Y201270D01*
X24790Y200000D01*
X4078D01*
X4078Y395922D01*
X70000D01*
Y368000D01*
X150000D01*
Y395922D01*
X215922D01*
Y200000D01*
D02*
G37*
%LPC*%
G36*
X130250Y350354D02*
X128584Y350022D01*
X127171Y349078D01*
X126228Y347666D01*
X125896Y346000D01*
X126228Y344334D01*
X127171Y342921D01*
X128584Y341978D01*
X130250Y341646D01*
X131916Y341978D01*
X133329Y342921D01*
X134272Y344334D01*
X134604Y346000D01*
X134272Y347666D01*
X133329Y349078D01*
X131916Y350022D01*
X130250Y350354D01*
D02*
G37*
G36*
X90250D02*
X88584Y350022D01*
X87171Y349078D01*
X86228Y347666D01*
X85896Y346000D01*
X86228Y344334D01*
X87171Y342921D01*
X88584Y341978D01*
X90250Y341646D01*
X91916Y341978D01*
X93329Y342921D01*
X94272Y344334D01*
X94604Y346000D01*
X94272Y347666D01*
X93329Y349078D01*
X91916Y350022D01*
X90250Y350354D01*
D02*
G37*
G36*
X59250Y331354D02*
X57584Y331022D01*
X56171Y330079D01*
X55228Y328666D01*
X54896Y327000D01*
X55228Y325334D01*
X56171Y323922D01*
X57584Y322978D01*
X59250Y322646D01*
X60916Y322978D01*
X62329Y323922D01*
X63272Y325334D01*
X63604Y327000D01*
X63272Y328666D01*
X62329Y330079D01*
X60916Y331022D01*
X59250Y331354D01*
D02*
G37*
G36*
Y321354D02*
X57584Y321022D01*
X56171Y320079D01*
X55228Y318666D01*
X54896Y317000D01*
X55228Y315334D01*
X56171Y313922D01*
X57584Y312978D01*
X59250Y312646D01*
X60916Y312978D01*
X62329Y313922D01*
X63272Y315334D01*
X63604Y317000D01*
X63272Y318666D01*
X62329Y320079D01*
X60916Y321022D01*
X59250Y321354D01*
D02*
G37*
G36*
Y311354D02*
X57584Y311022D01*
X56171Y310079D01*
X55228Y308666D01*
X54896Y307000D01*
X55228Y305334D01*
X56171Y303922D01*
X57584Y302978D01*
X59250Y302646D01*
X60916Y302978D01*
X62329Y303922D01*
X63272Y305334D01*
X63604Y307000D01*
X63272Y308666D01*
X62329Y310079D01*
X60916Y311022D01*
X59250Y311354D01*
D02*
G37*
G36*
Y301354D02*
X57584Y301022D01*
X56171Y300079D01*
X55228Y298666D01*
X54896Y297000D01*
X55228Y295334D01*
X56171Y293922D01*
X57584Y292978D01*
X59250Y292646D01*
X60916Y292978D01*
X62329Y293922D01*
X63272Y295334D01*
X63604Y297000D01*
X63272Y298666D01*
X62329Y300079D01*
X60916Y301022D01*
X59250Y301354D01*
D02*
G37*
G36*
Y291354D02*
X57584Y291022D01*
X56171Y290079D01*
X55228Y288666D01*
X54896Y287000D01*
X55228Y285334D01*
X56171Y283922D01*
X57584Y282978D01*
X59250Y282646D01*
X60916Y282978D01*
X62329Y283922D01*
X63272Y285334D01*
X63604Y287000D01*
X63272Y288666D01*
X62329Y290079D01*
X60916Y291022D01*
X59250Y291354D01*
D02*
G37*
G36*
X162250Y291354D02*
X160584Y291022D01*
X159171Y290079D01*
X158228Y288666D01*
X157896Y287000D01*
X158228Y285334D01*
X159171Y283922D01*
X160584Y282978D01*
X162250Y282646D01*
X163916Y282978D01*
X165329Y283922D01*
X166272Y285334D01*
X166604Y287000D01*
X166272Y288666D01*
X165329Y290079D01*
X163916Y291022D01*
X162250Y291354D01*
D02*
G37*
G36*
Y281354D02*
X160584Y281022D01*
X159171Y280079D01*
X158228Y278666D01*
X157896Y277000D01*
X158228Y275334D01*
X159171Y273922D01*
X160584Y272978D01*
X162250Y272646D01*
X163916Y272978D01*
X165329Y273922D01*
X166272Y275334D01*
X166604Y277000D01*
X166272Y278666D01*
X165329Y280079D01*
X163916Y281022D01*
X162250Y281354D01*
D02*
G37*
%LPD*%
D44*
X135400Y89840D02*
D03*
Y110160D02*
D03*
X84600Y100000D02*
D03*
D45*
X21100Y42200D02*
D03*
X46500D02*
D03*
X148100D02*
D03*
X173500D02*
D03*
X122700D02*
D03*
X97300D02*
D03*
X71900D02*
D03*
D46*
X198900D02*
D03*
D48*
X97250Y71250D02*
D03*
X113000Y338000D02*
D03*
X103000D02*
D03*
X81000Y268000D02*
D03*
X139000D02*
D03*
X122000Y345000D02*
D03*
X93000Y338000D02*
D03*
Y318000D02*
D03*
X126000Y296000D02*
D03*
X94000Y295000D02*
D03*
X21000Y204000D02*
D03*
X109000Y215000D02*
D03*
X190000Y206000D02*
D03*
X8000Y215000D02*
D03*
Y204000D02*
D03*
X81000Y205000D02*
D03*
X115000Y204000D02*
D03*
X123000D02*
D03*
X212000D02*
D03*
Y215000D02*
D03*
Y227000D02*
D03*
Y242000D02*
D03*
Y257000D02*
D03*
Y272000D02*
D03*
Y287000D02*
D03*
Y302000D02*
D03*
Y317000D02*
D03*
Y332000D02*
D03*
Y347000D02*
D03*
Y362000D02*
D03*
Y377000D02*
D03*
Y392000D02*
D03*
X203000D02*
D03*
Y377000D02*
D03*
Y362000D02*
D03*
Y347000D02*
D03*
Y332000D02*
D03*
Y317000D02*
D03*
X188000Y392000D02*
D03*
Y377000D02*
D03*
Y332000D02*
D03*
Y302000D02*
D03*
Y287000D02*
D03*
Y272000D02*
D03*
Y257000D02*
D03*
Y242000D02*
D03*
Y227000D02*
D03*
X173000Y392000D02*
D03*
Y377000D02*
D03*
Y317000D02*
D03*
Y302000D02*
D03*
X158000Y377000D02*
D03*
X143000Y242000D02*
D03*
Y227000D02*
D03*
X128000Y317000D02*
D03*
Y227000D02*
D03*
X113000Y242000D02*
D03*
X98000D02*
D03*
Y227000D02*
D03*
X83000Y242000D02*
D03*
Y227000D02*
D03*
X53000Y392000D02*
D03*
Y377000D02*
D03*
Y362000D02*
D03*
Y347000D02*
D03*
Y332000D02*
D03*
Y302000D02*
D03*
Y272000D02*
D03*
Y257000D02*
D03*
Y242000D02*
D03*
X38000Y392000D02*
D03*
Y377000D02*
D03*
Y362000D02*
D03*
Y347000D02*
D03*
Y332000D02*
D03*
Y317000D02*
D03*
Y302000D02*
D03*
Y287000D02*
D03*
Y272000D02*
D03*
Y257000D02*
D03*
Y242000D02*
D03*
Y227000D02*
D03*
X23000Y392000D02*
D03*
Y377000D02*
D03*
Y362000D02*
D03*
Y347000D02*
D03*
Y332000D02*
D03*
Y317000D02*
D03*
Y302000D02*
D03*
Y287000D02*
D03*
Y272000D02*
D03*
Y257000D02*
D03*
Y242000D02*
D03*
Y227000D02*
D03*
X8000Y392000D02*
D03*
Y377000D02*
D03*
Y362000D02*
D03*
Y347000D02*
D03*
Y332000D02*
D03*
Y317000D02*
D03*
Y302000D02*
D03*
Y287000D02*
D03*
Y272000D02*
D03*
Y257000D02*
D03*
Y242000D02*
D03*
Y227000D02*
D03*
X86000Y140000D02*
D03*
X101000Y161970D02*
D03*
X127000Y175030D02*
D03*
X135384Y159330D02*
D03*
X151961Y180024D02*
D03*
X128000Y152000D02*
D03*
X182000Y179000D02*
D03*
X162000Y180000D02*
D03*
X192000Y179000D02*
D03*
X59250Y287000D02*
D03*
X162250Y277000D02*
D03*
Y287000D02*
D03*
X59250Y327000D02*
D03*
X70000Y202000D02*
D03*
X60000D02*
D03*
X50000D02*
D03*
X40000D02*
D03*
X30000D02*
D03*
X59250Y297000D02*
D03*
Y307000D02*
D03*
Y317000D02*
D03*
X101000Y202000D02*
D03*
X91000D02*
D03*
X90250Y346000D02*
D03*
X130250D02*
D03*
X132000Y202000D02*
D03*
X142000D02*
D03*
X17800Y177000D02*
D03*
X97000Y84000D02*
D03*
X91000Y180000D02*
D03*
X101000D02*
D03*
X43000Y163000D02*
D03*
D49*
X35000Y100000D02*
D03*
X185000D02*
D03*
M02*
