G04*
G04 #@! TF.GenerationSoftware,Altium Limited,Altium Designer,21.6.4 (81)*
G04*
G04 Layer_Physical_Order=1*
G04 Layer_Color=255*
%FSLAX44Y44*%
%MOMM*%
G71*
G04*
G04 #@! TF.SameCoordinates,F5FF2EED-A301-45B2-9F22-88543F1AE188*
G04*
G04*
G04 #@! TF.FilePolarity,Positive*
G04*
G01*
G75*
%ADD10C,0.2540*%
%ADD15R,0.5500X0.5200*%
%ADD16R,1.0200X0.6400*%
%ADD17R,0.7000X0.7000*%
%ADD18R,1.1500X0.7000*%
%ADD19R,0.7000X1.1500*%
%ADD20R,0.7000X0.7000*%
%ADD22R,0.8000X1.7000*%
%ADD23R,0.3600X0.3500*%
%ADD24R,0.7800X0.7400*%
%ADD25R,1.0000X0.8000*%
%ADD41C,0.7900*%
%ADD42C,0.1520*%
%ADD43C,0.3500*%
%ADD44C,0.9000*%
%ADD45C,1.6500*%
%ADD46R,1.6500X1.6500*%
%ADD47C,3.4000*%
%ADD48C,0.6000*%
G36*
X215922Y200000D02*
X206355D01*
X201079Y205275D01*
Y313250D01*
X200845Y314428D01*
X200177Y315427D01*
X200177Y315427D01*
X176748Y338857D01*
X177234Y340030D01*
X181288D01*
Y345000D01*
Y349970D01*
X175329D01*
Y352030D01*
X181288D01*
Y357000D01*
Y361970D01*
X167080D01*
Y360079D01*
X158270D01*
Y361770D01*
X158270Y361770D01*
Y362230D01*
X158270D01*
X158270Y363040D01*
Y366238D01*
X153500D01*
X148730D01*
Y362230D01*
X147651Y361770D01*
X144230D01*
Y352230D01*
X144230D01*
Y351770D01*
X144230D01*
Y342230D01*
X144230D01*
Y341770D01*
X144230D01*
Y332230D01*
X144230D01*
Y331770D01*
X144230D01*
Y323040D01*
X144230Y322230D01*
X144230Y320960D01*
Y317762D01*
X151250D01*
X158270D01*
Y320960D01*
X158270Y321770D01*
X158270Y323040D01*
Y324930D01*
X173143D01*
X176890Y321183D01*
Y290833D01*
X175620Y290307D01*
X160203Y305723D01*
X159532Y306172D01*
X158740Y306330D01*
X158270D01*
Y310960D01*
X158270Y311770D01*
X158270Y313040D01*
Y316238D01*
X151250D01*
X144230D01*
Y313040D01*
X144230Y312230D01*
X144230Y310960D01*
Y303040D01*
X144230Y302230D01*
X144230D01*
Y301770D01*
X144230D01*
Y293040D01*
X144230Y292230D01*
X144230Y290960D01*
Y283040D01*
X144230Y282230D01*
X144230Y280960D01*
Y273040D01*
X144230Y272230D01*
X144230Y270960D01*
Y262230D01*
X155343D01*
X156930Y260643D01*
Y202857D01*
X154073Y200000D01*
X147210D01*
X146208Y201270D01*
X146354Y202000D01*
X146022Y203666D01*
X145078Y205079D01*
X143666Y206022D01*
X142000Y206354D01*
X140334Y206022D01*
X138921Y205079D01*
X137978Y203666D01*
X137646Y202000D01*
X137000Y201460D01*
X136354Y202000D01*
X136022Y203666D01*
X135078Y205079D01*
X133666Y206022D01*
X132000Y206354D01*
X130334Y206022D01*
X128921Y205079D01*
X127978Y203666D01*
X127646Y202000D01*
X127792Y201270D01*
X126790Y200000D01*
X106210D01*
X105208Y201270D01*
X105354Y202000D01*
X105022Y203666D01*
X104079Y205079D01*
X102666Y206022D01*
X101000Y206354D01*
X99334Y206022D01*
X97921Y205079D01*
X96978Y203666D01*
X96646Y202000D01*
X96000Y201460D01*
X95354Y202000D01*
X95022Y203666D01*
X94079Y205079D01*
X92666Y206022D01*
X91000Y206354D01*
X89334Y206022D01*
X87921Y205079D01*
X86978Y203666D01*
X86646Y202000D01*
X86792Y201270D01*
X85790Y200000D01*
X75210D01*
X74208Y201270D01*
X74354Y202000D01*
X74022Y203666D01*
X73078Y205079D01*
X71666Y206022D01*
X70000Y206354D01*
X68334Y206022D01*
X66922Y205079D01*
X65978Y203666D01*
X65646Y202000D01*
X65000Y201460D01*
X64354Y202000D01*
X64022Y203666D01*
X63078Y205079D01*
X61666Y206022D01*
X60000Y206354D01*
X58334Y206022D01*
X56922Y205079D01*
X55978Y203666D01*
X55646Y202000D01*
X55000Y201460D01*
X54354Y202000D01*
X54022Y203666D01*
X53078Y205079D01*
X51666Y206022D01*
X50000Y206354D01*
X48334Y206022D01*
X46922Y205079D01*
X45978Y203666D01*
X45646Y202000D01*
X45000Y201460D01*
X44354Y202000D01*
X44022Y203666D01*
X43078Y205079D01*
X41666Y206022D01*
X40000Y206354D01*
X38334Y206022D01*
X36922Y205079D01*
X35978Y203666D01*
X35646Y202000D01*
X35000Y201460D01*
X34354Y202000D01*
X34022Y203666D01*
X33078Y205079D01*
X31666Y206022D01*
X30000Y206354D01*
X28334Y206022D01*
X26922Y205079D01*
X25978Y203666D01*
X25646Y202000D01*
X25792Y201270D01*
X24790Y200000D01*
X4078D01*
X4078Y395922D01*
X61730D01*
Y393262D01*
X66500D01*
Y392500D01*
X67262D01*
Y387730D01*
X70000D01*
Y371770D01*
X67262D01*
Y367762D01*
X71270D01*
Y368000D01*
X148730D01*
Y367762D01*
X152738D01*
Y371770D01*
X150000D01*
Y387730D01*
X152738D01*
Y392500D01*
X153500D01*
Y393262D01*
X158270D01*
Y395922D01*
X215922D01*
Y200000D01*
D02*
G37*
G36*
X194921Y311975D02*
Y204000D01*
X195155Y202822D01*
X195823Y201823D01*
X196472Y201173D01*
X195986Y200000D01*
X189777D01*
X184070Y205707D01*
Y321166D01*
X185243Y321652D01*
X194921Y311975D01*
D02*
G37*
%LPC*%
G36*
X158270Y391738D02*
X154262D01*
Y387730D01*
X158270D01*
Y391738D01*
D02*
G37*
G36*
X65738Y391738D02*
X61730D01*
Y387730D01*
X65738D01*
Y391738D01*
D02*
G37*
G36*
X158270Y371770D02*
X154262D01*
Y367762D01*
X158270D01*
Y371770D01*
D02*
G37*
G36*
X65738D02*
X61730D01*
Y367762D01*
X65738D01*
Y371770D01*
D02*
G37*
G36*
X125230Y363270D02*
X123960Y363270D01*
X120762D01*
Y356250D01*
Y349230D01*
X123960D01*
X124770Y349230D01*
X125745D01*
X126424Y347960D01*
X126228Y347666D01*
X125896Y346000D01*
X126228Y344334D01*
X127171Y342921D01*
X128584Y341978D01*
X130250Y341646D01*
X131619Y341919D01*
X131739Y341942D01*
X132415Y341375D01*
X132730Y340994D01*
X132730Y340198D01*
Y334996D01*
X132020Y334020D01*
X131460Y334020D01*
X128012D01*
Y329250D01*
Y324480D01*
X131460D01*
X132020Y324480D01*
X132730Y323504D01*
Y320730D01*
X142270D01*
Y330270D01*
X133788D01*
X133365Y331000D01*
X133788Y331730D01*
X142270D01*
Y341270D01*
X133886Y341270D01*
X133612D01*
X133128Y341319D01*
X132758Y342540D01*
X133329Y342921D01*
X134272Y344334D01*
X134604Y346000D01*
X134272Y347666D01*
X134076Y347960D01*
X134755Y349230D01*
X134770D01*
Y363270D01*
X125230Y363270D01*
D02*
G37*
G36*
X115230D02*
X113960Y363270D01*
X106040D01*
X105230Y363270D01*
X103960Y363270D01*
X100762D01*
Y356250D01*
Y349230D01*
X103960D01*
X104770Y349230D01*
X106040Y349230D01*
X113960D01*
X114770Y349230D01*
X116040Y349230D01*
X119238D01*
Y356250D01*
Y363270D01*
X116040D01*
X115230Y363270D01*
D02*
G37*
G36*
X187220Y361970D02*
X182812D01*
Y357762D01*
X187220D01*
Y361970D01*
D02*
G37*
G36*
Y356238D02*
X182812D01*
Y352030D01*
X187220D01*
Y356238D01*
D02*
G37*
G36*
X95230Y363270D02*
X93960Y363270D01*
X85230D01*
Y349230D01*
X85745D01*
X86424Y347960D01*
X86228Y347666D01*
X85896Y346000D01*
X86228Y344334D01*
X87171Y342921D01*
X88584Y341978D01*
X90250Y341646D01*
X91916Y341978D01*
X93329Y342921D01*
X94272Y344334D01*
X94604Y346000D01*
X94272Y347666D01*
X94076Y347960D01*
X94755Y349230D01*
X96040Y349230D01*
X99238D01*
Y356250D01*
Y363270D01*
X96040D01*
X95230Y363270D01*
D02*
G37*
G36*
X187220Y349970D02*
X182812D01*
Y345762D01*
X187220D01*
Y349970D01*
D02*
G37*
G36*
Y344238D02*
X182812D01*
Y340030D01*
X187220D01*
Y344238D01*
D02*
G37*
G36*
X71270Y366238D02*
X66500D01*
X61730D01*
Y363040D01*
X61730Y361770D01*
X61730Y360960D01*
Y353040D01*
X61730Y352230D01*
X61730Y350960D01*
Y343040D01*
X61730Y342230D01*
X61730Y340960D01*
Y333040D01*
X61730Y331770D01*
X60460Y331113D01*
X59250Y331354D01*
X57584Y331022D01*
X56171Y330079D01*
X55228Y328666D01*
X54896Y327000D01*
X55228Y325334D01*
X56171Y323922D01*
X57584Y322978D01*
X59250Y322646D01*
X59523Y322701D01*
X60410Y322000D01*
X59523Y321299D01*
X59250Y321354D01*
X57584Y321022D01*
X56171Y320079D01*
X55228Y318666D01*
X54896Y317000D01*
X55228Y315334D01*
X56171Y313922D01*
X57584Y312978D01*
X59250Y312646D01*
X59523Y312701D01*
X60410Y312000D01*
X59523Y311299D01*
X59250Y311354D01*
X57584Y311022D01*
X56171Y310079D01*
X55228Y308666D01*
X54896Y307000D01*
X55228Y305334D01*
X56171Y303922D01*
X57584Y302978D01*
X59250Y302646D01*
X59523Y302701D01*
X60410Y302000D01*
X59523Y301299D01*
X59250Y301354D01*
X57584Y301022D01*
X56171Y300079D01*
X55228Y298666D01*
X54896Y297000D01*
X55228Y295334D01*
X56171Y293922D01*
X57584Y292978D01*
X59250Y292646D01*
X59523Y292701D01*
X60410Y292000D01*
X59523Y291299D01*
X59250Y291354D01*
X57584Y291022D01*
X56171Y290079D01*
X55228Y288666D01*
X54896Y287000D01*
X55228Y285334D01*
X56171Y283922D01*
X57584Y282978D01*
X59250Y282646D01*
X60460Y282887D01*
X61730Y282230D01*
X61730Y280960D01*
Y273040D01*
X61730Y272230D01*
X61730Y270960D01*
Y262230D01*
X75770D01*
Y270960D01*
X75770Y271770D01*
X75770Y273040D01*
Y280960D01*
X75770Y281770D01*
X75770Y283040D01*
Y290960D01*
X75770Y291770D01*
X75770Y293040D01*
Y300960D01*
X75770Y301770D01*
X75770Y303040D01*
Y310960D01*
X75770Y311770D01*
X75770Y313040D01*
Y320960D01*
X75770Y321770D01*
X75770Y323040D01*
Y330960D01*
X75770Y331770D01*
X75770Y333040D01*
Y340960D01*
X75770Y341770D01*
X75770Y343040D01*
Y350960D01*
X75770Y351770D01*
X75770Y353040D01*
Y361770D01*
X72350D01*
X71270Y362230D01*
X71270Y363040D01*
Y366238D01*
D02*
G37*
G36*
X120520Y334020D02*
X116512D01*
Y330012D01*
X120520D01*
Y334020D01*
D02*
G37*
G36*
X93512D02*
Y330012D01*
X97520D01*
Y334020D01*
X93512D01*
D02*
G37*
G36*
X109020D02*
X105012D01*
Y330012D01*
X109020D01*
Y334020D01*
D02*
G37*
G36*
X126488D02*
X122480D01*
Y330012D01*
X126488D01*
Y334020D01*
D02*
G37*
G36*
X114988D02*
X110980D01*
Y330012D01*
X114988D01*
Y334020D01*
D02*
G37*
G36*
X103488D02*
X99480D01*
Y330012D01*
X103488D01*
Y334020D01*
D02*
G37*
G36*
X120520Y328488D02*
X116512D01*
Y324480D01*
X120520D01*
Y328488D01*
D02*
G37*
G36*
X114988D02*
X110980D01*
Y324480D01*
X114988D01*
Y328488D01*
D02*
G37*
G36*
X109020D02*
X105012D01*
Y324480D01*
X109020D01*
Y328488D01*
D02*
G37*
G36*
X103488D02*
X99480D01*
Y324480D01*
X103488D01*
Y328488D01*
D02*
G37*
G36*
X97520D02*
X93512D01*
Y324480D01*
X97520D01*
Y328488D01*
D02*
G37*
G36*
X126488D02*
X122480D01*
Y324480D01*
X126488D01*
Y328488D01*
D02*
G37*
G36*
X87270Y341270D02*
X77730D01*
Y331730D01*
X86212D01*
X86635Y331000D01*
X86212Y330270D01*
X77730D01*
Y320730D01*
X87270D01*
Y323504D01*
X87980Y324480D01*
X88540Y324480D01*
X91988D01*
Y329250D01*
Y334020D01*
X88540D01*
X87980Y334020D01*
X87270Y334996D01*
Y341270D01*
D02*
G37*
G36*
X120520Y322520D02*
X116512D01*
Y318512D01*
X120520D01*
Y322520D01*
D02*
G37*
G36*
X109020D02*
X105012D01*
Y318512D01*
X109020D01*
Y322520D01*
D02*
G37*
G36*
X114988D02*
X110980D01*
Y318512D01*
X114988D01*
Y322520D01*
D02*
G37*
G36*
X103488D02*
X99480D01*
Y318512D01*
X103488D01*
Y322520D01*
D02*
G37*
G36*
X115750Y317750D02*
D01*
D01*
D01*
D02*
G37*
G36*
X120520Y316988D02*
X116512D01*
Y312980D01*
X120520D01*
Y316988D01*
D02*
G37*
G36*
X114988D02*
X110980D01*
Y312980D01*
X114988D01*
Y316988D01*
D02*
G37*
G36*
X109020D02*
X105012D01*
Y312980D01*
X109020D01*
Y316988D01*
D02*
G37*
G36*
X103488D02*
X99480D01*
Y312980D01*
X103488D01*
Y316988D01*
D02*
G37*
G36*
X120520Y311020D02*
X116512D01*
Y307012D01*
X120520D01*
Y311020D01*
D02*
G37*
G36*
X93512D02*
Y307012D01*
X97520D01*
Y311020D01*
X93512D01*
D02*
G37*
G36*
X109020D02*
X105012D01*
Y307012D01*
X109020D01*
Y311020D01*
D02*
G37*
G36*
X126488D02*
X122480D01*
Y307012D01*
X126488D01*
Y311020D01*
D02*
G37*
G36*
X114988D02*
X110980D01*
Y307012D01*
X114988D01*
Y311020D01*
D02*
G37*
G36*
X103488D02*
X99480D01*
Y307012D01*
X103488D01*
Y311020D01*
D02*
G37*
G36*
X120520Y305488D02*
X116512D01*
Y301480D01*
X120520D01*
Y305488D01*
D02*
G37*
G36*
X114988D02*
X110980D01*
Y301480D01*
X114988D01*
Y305488D01*
D02*
G37*
G36*
X109020D02*
X105012D01*
Y301480D01*
X109020D01*
Y305488D01*
D02*
G37*
G36*
X103488D02*
X99480D01*
Y301480D01*
X103488D01*
Y305488D01*
D02*
G37*
G36*
X97520D02*
X93512D01*
Y301480D01*
X97520D01*
Y305488D01*
D02*
G37*
G36*
X126488D02*
X122480D01*
Y301480D01*
X126488D01*
Y305488D01*
D02*
G37*
G36*
X142270Y319270D02*
X132730D01*
Y311996D01*
X132020Y311020D01*
X131460Y311020D01*
X128012D01*
Y306250D01*
Y301480D01*
X131460D01*
X132020Y301480D01*
X132730Y300504D01*
Y298730D01*
X142270D01*
Y308270D01*
X133788D01*
X133365Y309000D01*
X133788Y309730D01*
X142270D01*
Y319270D01*
D02*
G37*
G36*
X87270D02*
X77730D01*
Y309730D01*
X86212D01*
X86635Y309000D01*
X86212Y308270D01*
X77730D01*
Y298730D01*
X87270D01*
Y300504D01*
X87980Y301480D01*
X88540Y301480D01*
X91988D01*
Y306250D01*
Y311020D01*
X88540D01*
X87980Y311020D01*
X87270Y311996D01*
Y319270D01*
D02*
G37*
G36*
X120520Y299520D02*
X116512D01*
Y295512D01*
X120520D01*
Y299520D01*
D02*
G37*
G36*
X109020D02*
X105012D01*
Y295512D01*
X109020D01*
Y299520D01*
D02*
G37*
G36*
X114988D02*
X110980D01*
Y295512D01*
X114988D01*
Y299520D01*
D02*
G37*
G36*
X103488D02*
X99480D01*
Y295512D01*
X103488D01*
Y299520D01*
D02*
G37*
G36*
X115750Y294750D02*
D01*
D01*
D01*
D02*
G37*
G36*
X120520Y293988D02*
X116512D01*
Y289980D01*
X120520D01*
Y293988D01*
D02*
G37*
G36*
X114988D02*
X110980D01*
Y289980D01*
X114988D01*
Y293988D01*
D02*
G37*
G36*
X109020D02*
X105012D01*
Y289980D01*
X109020D01*
Y293988D01*
D02*
G37*
G36*
X103488D02*
X99480D01*
Y289980D01*
X103488D01*
Y293988D01*
D02*
G37*
G36*
X142270Y297270D02*
X132730D01*
Y287730D01*
X142270D01*
Y297270D01*
D02*
G37*
G36*
X87270D02*
X77730D01*
Y287730D01*
X87270D01*
Y297270D01*
D02*
G37*
G36*
X142270Y286270D02*
X132730D01*
Y276730D01*
X142270D01*
Y286270D01*
D02*
G37*
G36*
X131270D02*
X121730D01*
Y276730D01*
X131270D01*
Y286270D01*
D02*
G37*
G36*
X120270D02*
X110730D01*
Y276730D01*
X120270D01*
Y286270D01*
D02*
G37*
G36*
X109270D02*
X99730D01*
Y276730D01*
X109270D01*
Y286270D01*
D02*
G37*
G36*
X98270D02*
X88730D01*
Y276730D01*
X98270D01*
Y286270D01*
D02*
G37*
G36*
X87270D02*
X77730D01*
Y276730D01*
X87270D01*
Y286270D01*
D02*
G37*
G36*
X125230Y274770D02*
X123960Y274770D01*
X116040D01*
X115230Y274770D01*
X113960Y274770D01*
X106040D01*
X105230Y274770D01*
X103960Y274770D01*
X96040D01*
X95230Y274770D01*
X93960Y274770D01*
X90762D01*
Y267750D01*
X90000D01*
Y266988D01*
X85230D01*
Y261349D01*
X84908Y260593D01*
X84151Y260270D01*
X83960D01*
X76040D01*
X75230Y260270D01*
X73960Y260270D01*
X65230D01*
Y250730D01*
X73960D01*
X74770Y250730D01*
X76040Y250730D01*
X83960D01*
X84770Y250730D01*
X86040Y250730D01*
X93960D01*
X94770Y250730D01*
X96040Y250730D01*
X103960D01*
X104770Y250730D01*
X106040Y250730D01*
X113960D01*
X114770Y250730D01*
X116040Y250730D01*
X123960D01*
X124770Y250730D01*
X126040Y250730D01*
X129238D01*
Y255500D01*
X130762D01*
Y250730D01*
X133960D01*
X134770Y250730D01*
X136040Y250730D01*
X143960D01*
X144770Y250730D01*
X146040Y250730D01*
X154770D01*
Y260270D01*
X146040D01*
X145230Y260270D01*
X143960Y260270D01*
X135850D01*
X135093Y260593D01*
X134770Y261349D01*
Y261540D01*
Y266988D01*
X130000D01*
Y267750D01*
X129238D01*
Y274770D01*
X125230D01*
D02*
G37*
G36*
X89238Y274770D02*
X85230D01*
Y268512D01*
X89238D01*
Y274770D01*
D02*
G37*
G36*
X130762D02*
Y268512D01*
X134770D01*
Y274770D01*
X130762D01*
D02*
G37*
%LPD*%
D10*
X127000Y175030D02*
Y175050D01*
X26200Y170000D02*
X36500D01*
X52000Y117357D02*
Y150000D01*
X35000Y100357D02*
X52000Y117357D01*
X35000Y100000D02*
Y100357D01*
Y93443D02*
Y100000D01*
X21100Y79543D02*
X35000Y93443D01*
X21100Y42200D02*
Y79543D01*
X130500Y100000D02*
X185000D01*
X124150Y93650D02*
X130500Y100000D01*
X122700Y93650D02*
X124150D01*
X185000Y100000D02*
Y100357D01*
X202000Y117357D01*
Y150000D01*
X192000Y170000D02*
X202000Y160000D01*
X176200Y170000D02*
X192000D01*
X202000Y150000D02*
Y160000D01*
X21100Y42200D02*
X42300Y21000D01*
X174000D01*
X186000Y33000D01*
Y99000D01*
X185000Y100000D02*
X186000Y99000D01*
X120900Y181150D02*
X127000Y175050D01*
X119000Y181150D02*
X120900D01*
X36500Y170000D02*
X43000Y163500D01*
Y163000D02*
Y163500D01*
Y163000D02*
X43500D01*
X52000Y154500D01*
Y150000D02*
Y154500D01*
D15*
X40000Y187000D02*
D03*
Y195000D02*
D03*
X152000D02*
D03*
Y187000D02*
D03*
X132000Y195000D02*
D03*
Y187000D02*
D03*
X142000Y195000D02*
D03*
Y187000D02*
D03*
X70000Y195000D02*
D03*
Y187000D02*
D03*
X162000D02*
D03*
Y195000D02*
D03*
X30000Y187000D02*
D03*
Y195000D02*
D03*
X101000Y187000D02*
D03*
Y195000D02*
D03*
X60000Y187000D02*
D03*
Y195000D02*
D03*
X172000Y187000D02*
D03*
Y195000D02*
D03*
X91000Y187000D02*
D03*
Y195000D02*
D03*
X50000Y187000D02*
D03*
Y195000D02*
D03*
X182000D02*
D03*
Y187000D02*
D03*
X192000Y195000D02*
D03*
Y187000D02*
D03*
D16*
X209000Y194850D02*
D03*
Y181150D02*
D03*
X119000Y181150D02*
D03*
Y194850D02*
D03*
D17*
X66500Y367000D02*
D03*
Y392500D02*
D03*
X153500D02*
D03*
Y367000D02*
D03*
X137500Y281500D02*
D03*
Y292500D02*
D03*
Y303500D02*
D03*
Y314500D02*
D03*
Y325500D02*
D03*
X82500D02*
D03*
Y314500D02*
D03*
Y303500D02*
D03*
Y292500D02*
D03*
Y281500D02*
D03*
X93500D02*
D03*
X104500D02*
D03*
X115500D02*
D03*
X126500D02*
D03*
X70000Y255500D02*
D03*
X80000D02*
D03*
X90000D02*
D03*
X100000D02*
D03*
X110000D02*
D03*
X120000D02*
D03*
X130000D02*
D03*
X140000D02*
D03*
X150000D02*
D03*
X137500Y336500D02*
D03*
X82500D02*
D03*
D18*
X151250Y267000D02*
D03*
Y277000D02*
D03*
Y287000D02*
D03*
Y297000D02*
D03*
Y307000D02*
D03*
Y317000D02*
D03*
Y327000D02*
D03*
Y337000D02*
D03*
Y347000D02*
D03*
Y357000D02*
D03*
X68750D02*
D03*
Y347000D02*
D03*
Y337000D02*
D03*
Y327000D02*
D03*
Y317000D02*
D03*
Y307000D02*
D03*
Y297000D02*
D03*
Y287000D02*
D03*
Y277000D02*
D03*
Y267000D02*
D03*
D19*
X90000Y356250D02*
D03*
X100000D02*
D03*
X110000D02*
D03*
X120000D02*
D03*
X130000D02*
D03*
Y267750D02*
D03*
X120000D02*
D03*
X110000D02*
D03*
X100000D02*
D03*
X90000D02*
D03*
D20*
X127250Y329250D02*
D03*
X115750D02*
D03*
X104250D02*
D03*
X92750D02*
D03*
Y306250D02*
D03*
X104250Y317750D02*
D03*
X115750D02*
D03*
Y294750D02*
D03*
X127250Y306250D02*
D03*
X115750D02*
D03*
X104250D02*
D03*
Y294750D02*
D03*
D22*
X52000Y150000D02*
D03*
X18000D02*
D03*
X202000D02*
D03*
X168000D02*
D03*
D23*
X17800Y170000D02*
D03*
X26200D02*
D03*
X167800D02*
D03*
X176200D02*
D03*
D24*
X172250Y357000D02*
D03*
X182050D02*
D03*
Y345000D02*
D03*
X172250D02*
D03*
D25*
X99500Y140500D02*
D03*
X114500D02*
D03*
Y151500D02*
D03*
X99500D02*
D03*
D41*
X122700Y106350D02*
D03*
Y93650D02*
D03*
X110000Y106350D02*
D03*
Y93650D02*
D03*
X97300Y106350D02*
D03*
Y93650D02*
D03*
D42*
Y62700D02*
X102200D01*
X122700Y42200D01*
X93650Y71250D02*
X97250D01*
X68040Y91960D02*
X97300Y62700D01*
X68040Y91960D02*
Y169110D01*
X71080Y93820D02*
X93650Y71250D01*
X74120Y95079D02*
Y183030D01*
Y95079D02*
X91199Y78000D01*
X103000D01*
X152000Y180000D02*
Y187000D01*
X135384Y150384D02*
Y159330D01*
X151961Y180024D02*
X151985Y180000D01*
X152000D01*
X116000Y142000D02*
X127000D01*
X135384Y150384D01*
X115000Y152000D02*
X128000D01*
X114500Y151500D02*
X115000Y152000D01*
X182000Y179000D02*
Y187000D01*
X162000Y180000D02*
Y187000D01*
X192000Y179000D02*
Y187000D01*
X86000Y140000D02*
X86500Y140500D01*
X99500D01*
X59250Y287000D02*
X68750D01*
X66500Y367000D02*
Y392500D01*
X130000Y255500D02*
Y267750D01*
X114500Y140500D02*
X116000Y142000D01*
X136259Y118960D02*
X153040Y135741D01*
X130259Y118960D02*
X136259D01*
X112950Y122000D02*
X135000D01*
X150000Y137000D02*
Y157000D01*
X135000Y122000D02*
X150000Y137000D01*
X153040Y135741D02*
Y141741D01*
X175040Y197890D02*
Y287960D01*
X163990Y196990D02*
X172000Y205000D01*
X158740Y304260D02*
X175040Y287960D01*
X161701Y297000D02*
X172000Y286701D01*
X151250Y307000D02*
X153990Y304260D01*
X158740D01*
X172150Y195000D02*
X175040Y197890D01*
X172000Y205000D02*
Y286701D01*
Y195000D02*
X172150D01*
X182000Y204850D02*
X191850Y195000D01*
X178960Y198040D02*
X180010Y196990D01*
X174000Y327000D02*
X178960Y322040D01*
X168299Y337000D02*
X182000Y323299D01*
X180010Y196840D02*
Y196990D01*
X182000Y204850D02*
Y323299D01*
X178960Y198040D02*
Y322040D01*
X181850Y195000D02*
X182000D01*
X180010Y196840D02*
X181850Y195000D01*
X151250Y327000D02*
X174000D01*
X151250Y337000D02*
X168299D01*
X159000Y202000D02*
Y261500D01*
X152000Y195000D02*
X152150D01*
X153990Y196840D01*
Y196990D01*
X159000Y202000D01*
X151250Y297000D02*
X161701D01*
X162150Y195000D02*
X163990Y196840D01*
Y196990D01*
X162000Y195000D02*
X162150D01*
X191850D02*
X192000D01*
X151250Y277000D02*
X162250D01*
X151250Y287000D02*
X162250D01*
X153500Y267000D02*
X159000Y261500D01*
X151250Y267000D02*
X153500D01*
X59250Y327000D02*
X68750D01*
X59250Y307000D02*
X68750D01*
X70000Y195000D02*
Y202000D01*
X60000Y195000D02*
Y202000D01*
X50000Y195000D02*
Y202000D01*
X40000Y195000D02*
Y202000D01*
X30000Y195000D02*
Y202000D01*
X59250Y297000D02*
X68750D01*
X59250Y317000D02*
X68750D01*
X101000Y195000D02*
X101000Y195000D01*
X101000Y195000D02*
Y202000D01*
X91000Y195000D02*
X91000Y195000D01*
X91000Y195000D02*
Y202000D01*
X90000Y346250D02*
X90250Y346000D01*
X90000Y346250D02*
Y356250D01*
X130000Y346250D02*
X130250Y346000D01*
X130000Y346250D02*
Y356250D01*
X132000Y195000D02*
Y202000D01*
X142000Y195000D02*
Y202000D01*
X167800Y150200D02*
Y170000D01*
Y150200D02*
X168000Y150000D01*
X152000Y187000D02*
X152250Y186750D01*
X167800Y174800D02*
X172000Y179000D01*
Y187000D01*
X167800Y170000D02*
Y174800D01*
X17800Y170000D02*
Y177000D01*
X132000Y187000D02*
X138000Y181000D01*
X142000Y169299D02*
Y187000D01*
X138000Y169000D02*
Y181000D01*
X142000Y169299D02*
X152000Y159299D01*
X153040Y158259D01*
X138000Y169000D02*
X150000Y157000D01*
X153040Y141741D02*
Y158259D01*
X122610Y118960D02*
X130259D01*
X110000Y106350D02*
X122610Y118960D01*
X97300Y106350D02*
X112950Y122000D01*
X110000Y85000D02*
Y93650D01*
X103000Y78000D02*
X110000Y85000D01*
X50000Y187000D02*
X50150D01*
X41990Y185010D02*
Y185160D01*
X40150Y187000D02*
X41990Y185160D01*
X40000Y187000D02*
X40150D01*
X70000D02*
X70150D01*
X61990Y185010D02*
Y185160D01*
X60150Y187000D02*
X61990Y185160D01*
X60000Y187000D02*
X60150D01*
X61990Y185010D02*
X71080Y175920D01*
X50150Y187000D02*
X68040Y169110D01*
X71080Y93820D02*
Y175920D01*
X41990Y185010D02*
X65000Y162000D01*
X70150Y187000D02*
X74120Y183030D01*
X44848Y172302D02*
X45422D01*
X30150Y187000D02*
X44848Y172302D01*
X30000Y187000D02*
X30150D01*
X65000Y90701D02*
Y162000D01*
Y90701D02*
X86040Y69661D01*
X83000Y32000D02*
X88000Y27000D01*
X86040Y33259D02*
Y69661D01*
X88000Y27000D02*
X158300D01*
X173500Y42200D01*
X89259Y30040D02*
X135940D01*
X148100Y42200D01*
X86040Y33259D02*
X89259Y30040D01*
X61960Y89040D02*
X83000Y68000D01*
Y32000D02*
Y68000D01*
X51598Y170362D02*
X61960Y160000D01*
X47362Y170362D02*
X51598D01*
X61960Y89040D02*
Y160000D01*
X45422Y172302D02*
X47362Y170362D01*
X17800Y150200D02*
Y170000D01*
Y150200D02*
X18000Y150000D01*
X91000Y180000D02*
Y187000D01*
X101000Y180000D02*
Y187000D01*
D43*
X100698Y152698D02*
Y161668D01*
X99500Y151500D02*
X100698Y152698D01*
Y161668D02*
X101000Y161970D01*
X172250Y339000D02*
X198000Y313250D01*
Y204000D02*
Y313250D01*
X207100Y194850D02*
X209000D01*
X205650Y196300D02*
X207100Y194850D01*
X205650Y196300D02*
Y196350D01*
X198000Y204000D02*
X205650Y196350D01*
X172250Y339000D02*
Y345000D01*
X97000Y84000D02*
Y93350D01*
X97300Y93650D01*
X209000Y172000D02*
X213000Y168000D01*
X209000Y172000D02*
Y181150D01*
X213000Y56300D02*
Y168000D01*
X198900Y42200D02*
X213000Y56300D01*
X151250Y357000D02*
X172250D01*
X163250Y345000D02*
X172250D01*
X161250Y347000D02*
X163250Y345000D01*
X151250Y347000D02*
X161250D01*
X172250Y345000D02*
Y357000D01*
X119000Y194850D02*
Y203000D01*
D44*
X135400Y89840D02*
D03*
Y110160D02*
D03*
X84600Y100000D02*
D03*
D45*
X21100Y42200D02*
D03*
X46500D02*
D03*
X148100D02*
D03*
X173500D02*
D03*
X122700D02*
D03*
X97300D02*
D03*
X71900D02*
D03*
D46*
X198900D02*
D03*
D47*
X35000Y100000D02*
D03*
X185000D02*
D03*
D48*
X97250Y71250D02*
D03*
X113000Y338000D02*
D03*
X103000D02*
D03*
X81000Y268000D02*
D03*
X139000D02*
D03*
X122000Y345000D02*
D03*
X93000Y338000D02*
D03*
Y318000D02*
D03*
X126000Y296000D02*
D03*
X94000Y295000D02*
D03*
X21000Y204000D02*
D03*
X109000Y215000D02*
D03*
X190000Y206000D02*
D03*
X8000Y215000D02*
D03*
Y204000D02*
D03*
X81000Y205000D02*
D03*
X115000Y204000D02*
D03*
X123000D02*
D03*
X212000D02*
D03*
Y215000D02*
D03*
Y227000D02*
D03*
Y242000D02*
D03*
Y257000D02*
D03*
Y272000D02*
D03*
Y287000D02*
D03*
Y302000D02*
D03*
Y317000D02*
D03*
Y332000D02*
D03*
Y347000D02*
D03*
Y362000D02*
D03*
Y377000D02*
D03*
Y392000D02*
D03*
X203000D02*
D03*
Y377000D02*
D03*
Y362000D02*
D03*
Y347000D02*
D03*
Y332000D02*
D03*
Y317000D02*
D03*
X188000Y392000D02*
D03*
Y377000D02*
D03*
Y332000D02*
D03*
Y302000D02*
D03*
Y287000D02*
D03*
Y272000D02*
D03*
Y257000D02*
D03*
Y242000D02*
D03*
Y227000D02*
D03*
X173000Y392000D02*
D03*
Y377000D02*
D03*
Y317000D02*
D03*
Y302000D02*
D03*
X158000Y377000D02*
D03*
X143000Y242000D02*
D03*
Y227000D02*
D03*
X128000Y317000D02*
D03*
Y227000D02*
D03*
X113000Y242000D02*
D03*
X98000D02*
D03*
Y227000D02*
D03*
X83000Y242000D02*
D03*
Y227000D02*
D03*
X53000Y392000D02*
D03*
Y377000D02*
D03*
Y362000D02*
D03*
Y347000D02*
D03*
Y332000D02*
D03*
Y302000D02*
D03*
Y272000D02*
D03*
Y257000D02*
D03*
Y242000D02*
D03*
X38000Y392000D02*
D03*
Y377000D02*
D03*
Y362000D02*
D03*
Y347000D02*
D03*
Y332000D02*
D03*
Y317000D02*
D03*
Y302000D02*
D03*
Y287000D02*
D03*
Y272000D02*
D03*
Y257000D02*
D03*
Y242000D02*
D03*
Y227000D02*
D03*
X23000Y392000D02*
D03*
Y377000D02*
D03*
Y362000D02*
D03*
Y347000D02*
D03*
Y332000D02*
D03*
Y317000D02*
D03*
Y302000D02*
D03*
Y287000D02*
D03*
Y272000D02*
D03*
Y257000D02*
D03*
Y242000D02*
D03*
Y227000D02*
D03*
X8000Y392000D02*
D03*
Y377000D02*
D03*
Y362000D02*
D03*
Y347000D02*
D03*
Y332000D02*
D03*
Y317000D02*
D03*
Y302000D02*
D03*
Y287000D02*
D03*
Y272000D02*
D03*
Y257000D02*
D03*
Y242000D02*
D03*
Y227000D02*
D03*
X86000Y140000D02*
D03*
X101000Y161970D02*
D03*
X127000Y175030D02*
D03*
X135384Y159330D02*
D03*
X151961Y180024D02*
D03*
X128000Y152000D02*
D03*
X182000Y179000D02*
D03*
X162000Y180000D02*
D03*
X192000Y179000D02*
D03*
X59250Y287000D02*
D03*
X162250Y277000D02*
D03*
Y287000D02*
D03*
X59250Y327000D02*
D03*
X70000Y202000D02*
D03*
X60000D02*
D03*
X50000D02*
D03*
X40000D02*
D03*
X30000D02*
D03*
X59250Y297000D02*
D03*
Y307000D02*
D03*
Y317000D02*
D03*
X101000Y202000D02*
D03*
X91000D02*
D03*
X90250Y346000D02*
D03*
X130250D02*
D03*
X132000Y202000D02*
D03*
X142000D02*
D03*
X17800Y177000D02*
D03*
X97000Y84000D02*
D03*
X91000Y180000D02*
D03*
X101000D02*
D03*
X43000Y163000D02*
D03*
M02*
