G04*
G04 #@! TF.GenerationSoftware,Altium Limited,Altium Designer,21.6.4 (81)*
G04*
G04 Layer_Color=32768*
%FSLAX44Y44*%
%MOMM*%
G71*
G04*
G04 #@! TF.SameCoordinates,998CE461-73B7-439C-9EE3-FAF607E45F75*
G04*
G04*
G04 #@! TF.FilePolarity,Positive*
G04*
G01*
G75*
%ADD47C,0.0508*%
%ADD48C,0.0500*%
D47*
X165000Y172498D02*
Y168000D01*
X167249D01*
X167999Y168750D01*
Y171749D01*
X167249Y172498D01*
X165000D01*
X172498Y168000D02*
X169499D01*
X172498Y170999D01*
Y171749D01*
X171748Y172498D01*
X170248D01*
X169499Y171749D01*
X15000Y172498D02*
Y168000D01*
X17249D01*
X17999Y168750D01*
Y171749D01*
X17249Y172498D01*
X15000D01*
X19498Y168000D02*
X20998D01*
X20248D01*
Y172498D01*
X19498Y171749D01*
D48*
X169750Y196500D02*
X174748D01*
Y194001D01*
X173915Y193168D01*
X172249D01*
X171416Y194001D01*
Y196500D01*
Y194834D02*
X169750Y193168D01*
Y191502D02*
Y189835D01*
Y190669D01*
X174748D01*
X173915Y191502D01*
X174748Y187336D02*
Y184004D01*
X173915D01*
X170583Y187336D01*
X169750D01*
X171997Y155496D02*
X169498Y157995D01*
X164499D01*
X162000Y155496D01*
Y152997D01*
X164499Y150498D01*
X169498D01*
X171997Y147998D01*
Y145499D01*
X169498Y143000D01*
X164499D01*
X162000Y145499D01*
X176995Y157995D02*
Y143000D01*
X181994Y147998D01*
X186992Y143000D01*
Y157995D01*
X201987Y143000D02*
X191990D01*
X201987Y152997D01*
Y155496D01*
X199488Y157995D01*
X194489D01*
X191990Y155496D01*
X34150Y270247D02*
X39482Y262250D01*
Y270247D02*
X34150Y262250D01*
X42147D02*
X44813D01*
X43480D01*
Y270247D01*
X42147Y268915D01*
X169760Y96190D02*
Y106187D01*
X173092Y102854D01*
X176425Y106187D01*
Y96190D01*
X179757Y106187D02*
Y96190D01*
Y101188D01*
X186421D01*
Y106187D01*
Y96190D01*
X196418D02*
X189754D01*
X196418Y102854D01*
Y104521D01*
X194752Y106187D01*
X191420D01*
X189754Y104521D01*
X202250Y185500D02*
X197252D01*
Y187999D01*
X198085Y188832D01*
X199751D01*
X200584Y187999D01*
Y185500D01*
Y187166D02*
X202250Y188832D01*
Y190498D02*
Y192164D01*
Y191331D01*
X197252D01*
X198085Y190498D01*
X197252Y197996D02*
Y194664D01*
X199751D01*
X198918Y196330D01*
Y197163D01*
X199751Y197996D01*
X201417D01*
X202250Y197163D01*
Y195497D01*
X201417Y194664D01*
X117950Y147133D02*
Y155130D01*
X113951D01*
X112618Y153797D01*
Y148465D01*
X113951Y147133D01*
X117950D01*
X109953Y148465D02*
X108620Y147133D01*
X105954D01*
X104621Y148465D01*
Y149798D01*
X105954Y151131D01*
X107287D01*
X105954D01*
X104621Y152464D01*
Y153797D01*
X105954Y155130D01*
X108620D01*
X109953Y153797D01*
X46250Y185500D02*
X41252D01*
Y187999D01*
X42085Y188832D01*
X43751D01*
X44584Y187999D01*
Y185500D01*
Y187166D02*
X46250Y188832D01*
Y190498D02*
Y192164D01*
Y191331D01*
X41252D01*
X42085Y190498D01*
X46250Y197163D02*
X41252D01*
X43751Y194664D01*
Y197996D01*
X192250Y185500D02*
X187252D01*
Y187999D01*
X188085Y188832D01*
X189751D01*
X190584Y187999D01*
Y185500D01*
Y187166D02*
X192250Y188832D01*
Y190498D02*
Y192164D01*
Y191331D01*
X187252D01*
X188085Y190498D01*
X192250Y197996D02*
Y194664D01*
X188918Y197996D01*
X188085D01*
X187252Y197163D01*
Y195497D01*
X188085Y194664D01*
X21750Y196500D02*
X26748D01*
Y194001D01*
X25915Y193168D01*
X24249D01*
X23416Y194001D01*
Y196500D01*
Y194834D02*
X21750Y193168D01*
Y191502D02*
Y189835D01*
Y190669D01*
X26748D01*
X25915Y191502D01*
X21750Y187336D02*
Y185670D01*
Y186503D01*
X26748D01*
X25915Y187336D01*
X31750Y196500D02*
X36748D01*
Y194001D01*
X35915Y193168D01*
X34249D01*
X33416Y194001D01*
Y196500D01*
Y194834D02*
X31750Y193168D01*
Y191502D02*
Y189835D01*
Y190669D01*
X36748D01*
X35915Y191502D01*
Y187336D02*
X36748Y186503D01*
Y184837D01*
X35915Y184004D01*
X32583D01*
X31750Y184837D01*
Y186503D01*
X32583Y187336D01*
X35915D01*
X98750Y196500D02*
X103748D01*
Y194001D01*
X102915Y193168D01*
X101249D01*
X100416Y194001D01*
Y196500D01*
Y194834D02*
X98750Y193168D01*
X99583Y191502D02*
X98750Y190669D01*
Y189002D01*
X99583Y188169D01*
X102915D01*
X103748Y189002D01*
Y190669D01*
X102915Y191502D01*
X102082D01*
X101249Y190669D01*
Y188169D01*
X128750Y196500D02*
X133748D01*
Y194001D01*
X132915Y193168D01*
X131249D01*
X130416Y194001D01*
Y196500D01*
Y194834D02*
X128750Y193168D01*
X132915Y191502D02*
X133748Y190669D01*
Y189002D01*
X132915Y188169D01*
X132082D01*
X131249Y189002D01*
X130416Y188169D01*
X129583D01*
X128750Y189002D01*
Y190669D01*
X129583Y191502D01*
X130416D01*
X131249Y190669D01*
X132082Y191502D01*
X132915D01*
X131249Y190669D02*
Y189002D01*
X108750Y196500D02*
X113748D01*
Y194001D01*
X112915Y193168D01*
X111249D01*
X110416Y194001D01*
Y196500D01*
Y194834D02*
X108750Y193168D01*
X113748Y191502D02*
Y188169D01*
X112915D01*
X109583Y191502D01*
X108750D01*
X118750Y196500D02*
X123748D01*
Y194001D01*
X122915Y193168D01*
X121249D01*
X120416Y194001D01*
Y196500D01*
Y194834D02*
X118750Y193168D01*
X123748Y188169D02*
X122915Y189835D01*
X121249Y191502D01*
X119583D01*
X118750Y190669D01*
Y189002D01*
X119583Y188169D01*
X120416D01*
X121249Y189002D01*
Y191502D01*
X138750Y196500D02*
X143748D01*
Y194001D01*
X142915Y193168D01*
X141249D01*
X140416Y194001D01*
Y196500D01*
Y194834D02*
X138750Y193168D01*
X143748Y188169D02*
Y191502D01*
X141249D01*
X142082Y189835D01*
Y189002D01*
X141249Y188169D01*
X139583D01*
X138750Y189002D01*
Y190669D01*
X139583Y191502D01*
X88750Y196500D02*
X93748D01*
Y194001D01*
X92915Y193168D01*
X91249D01*
X90416Y194001D01*
Y196500D01*
Y194834D02*
X88750Y193168D01*
Y189002D02*
X93748D01*
X91249Y191502D01*
Y188169D01*
X19760Y96190D02*
Y106187D01*
X23092Y102854D01*
X26425Y106187D01*
Y96190D01*
X29757Y106187D02*
Y96190D01*
Y101188D01*
X36421D01*
Y106187D01*
Y96190D01*
X39754D02*
X43086D01*
X41420D01*
Y106187D01*
X39754Y104521D01*
X159750Y196500D02*
X164748D01*
Y194001D01*
X163915Y193168D01*
X162249D01*
X161416Y194001D01*
Y196500D01*
Y194834D02*
X159750Y193168D01*
Y191502D02*
Y189835D01*
Y190669D01*
X164748D01*
X163915Y191502D01*
Y187336D02*
X164748Y186503D01*
Y184837D01*
X163915Y184004D01*
X163082D01*
X162249Y184837D01*
Y185670D01*
Y184837D01*
X161416Y184004D01*
X160583D01*
X159750Y184837D01*
Y186503D01*
X160583Y187336D01*
X149750Y196500D02*
X154748D01*
Y194001D01*
X153915Y193168D01*
X152249D01*
X151416Y194001D01*
Y196500D01*
Y194834D02*
X149750Y193168D01*
Y191502D02*
Y189835D01*
Y190669D01*
X154748D01*
X153915Y191502D01*
X154748Y184004D02*
X153915Y185670D01*
X152249Y187336D01*
X150583D01*
X149750Y186503D01*
Y184837D01*
X150583Y184004D01*
X151416D01*
X152249Y184837D01*
Y187336D01*
X21997Y155496D02*
X19498Y157995D01*
X14499D01*
X12000Y155496D01*
Y152997D01*
X14499Y150498D01*
X19498D01*
X21997Y147998D01*
Y145499D01*
X19498Y143000D01*
X14499D01*
X12000Y145499D01*
X26995Y157995D02*
Y143000D01*
X31994Y147998D01*
X36992Y143000D01*
Y157995D01*
X41990Y143000D02*
X46989D01*
X44489D01*
Y157995D01*
X41990Y155496D01*
M02*
