G04*
G04 #@! TF.GenerationSoftware,Altium Limited,Altium Designer,21.6.4 (81)*
G04*
G04 Layer_Color=16711935*
%FSLAX44Y44*%
%MOMM*%
G71*
G04*
G04 #@! TF.SameCoordinates,998CE461-73B7-439C-9EE3-FAF607E45F75*
G04*
G04*
G04 #@! TF.FilePolarity,Positive*
G04*
G01*
G75*
%ADD48C,0.0500*%
%ADD49C,0.1000*%
D48*
X193890Y100000D02*
G03*
X193890Y100000I-8890J0D01*
G01*
X43890D02*
G03*
X43890Y100000I-8890J0D01*
G01*
X168001Y167000D02*
X176001D01*
X168001Y173000D02*
X176001D01*
Y167000D02*
Y173000D01*
X168001Y167000D02*
Y173000D01*
X169000Y185500D02*
Y196500D01*
X175000Y185500D02*
Y196500D01*
X169000Y185500D02*
X175000D01*
X169000Y196500D02*
X175000D01*
X176502Y162499D02*
X193500Y162500D01*
X176500D02*
X176502Y162499D01*
X165000Y162500D02*
X176500D01*
X193500D02*
X205000D01*
X165000Y137500D02*
Y162500D01*
X205000Y137500D02*
Y162500D01*
X165000Y137500D02*
X205000D01*
X11400Y294520D02*
Y359520D01*
X76400D01*
Y294520D02*
Y359520D01*
X11400Y294520D02*
X76400D01*
X30900Y257750D02*
Y273750D01*
X63900Y257750D02*
Y273750D01*
X30900D02*
X63900D01*
X30900Y257750D02*
X63900D01*
X197000Y185500D02*
X203000D01*
X197000Y196500D02*
X203000D01*
X197000Y185500D02*
Y196500D01*
X203000Y185500D02*
Y196500D01*
X97450Y140630D02*
X118450D01*
X97450D02*
Y161630D01*
X118450D01*
Y140630D02*
Y161630D01*
X47000Y185500D02*
Y196500D01*
X41000Y185500D02*
Y196500D01*
X47000D01*
X41000Y185500D02*
X47000D01*
X193000D02*
Y196500D01*
X187000Y185500D02*
Y196500D01*
X193000D01*
X187000Y185500D02*
X193000D01*
X21000Y185500D02*
Y196500D01*
X27000Y185500D02*
Y196500D01*
X21000Y185500D02*
X27000D01*
X21000Y196500D02*
X27000D01*
X31000Y185500D02*
Y196500D01*
X37000Y185500D02*
Y196500D01*
X31000Y185500D02*
X37000D01*
X31000Y196500D02*
X37000D01*
X98000Y185500D02*
Y196500D01*
X104000Y185500D02*
Y196500D01*
X98000Y185500D02*
X104000D01*
X98000Y196500D02*
X104000D01*
X128000Y185500D02*
Y196500D01*
X134000Y185500D02*
Y196500D01*
X128000Y185500D02*
X134000D01*
X128000Y196500D02*
X134000D01*
X108000Y185500D02*
Y196500D01*
X114000Y185500D02*
Y196500D01*
X108000Y185500D02*
X114000D01*
X108000Y196500D02*
X114000D01*
X118000Y185500D02*
Y196500D01*
X124000Y185500D02*
Y196500D01*
X118000Y185500D02*
X124000D01*
X118000Y196500D02*
X124000D01*
X138000Y185500D02*
Y196500D01*
X144000Y185500D02*
Y196500D01*
X138000Y185500D02*
X144000D01*
X138000Y196500D02*
X144000D01*
X88000Y185500D02*
Y196500D01*
X94000Y185500D02*
Y196500D01*
X88000Y185500D02*
X94000D01*
X88000Y196500D02*
X94000D01*
X159000D02*
X165000D01*
X159000Y185500D02*
X165000D01*
Y196500D01*
X159000Y185500D02*
Y196500D01*
X149000D02*
X155000D01*
X149000Y185500D02*
X155000D01*
Y196500D01*
X149000Y185500D02*
Y196500D01*
X26502Y162499D02*
X43500Y162500D01*
X26500D02*
X26502Y162499D01*
X15000Y162500D02*
X26500D01*
X43500D02*
X55000D01*
X15000Y137500D02*
Y162500D01*
X55000Y137500D02*
Y162500D01*
X15000Y137500D02*
X55000D01*
X18001Y167000D02*
X26001D01*
X18001Y173000D02*
X26001D01*
Y167000D02*
Y173000D01*
X18001Y167000D02*
Y173000D01*
D49*
X71650Y266500D02*
X77150D01*
X71650Y256000D02*
X77150D01*
Y266500D01*
X71650Y256000D02*
Y266500D01*
X8400Y1800D02*
Y27200D01*
Y1800D02*
X211600D01*
Y27200D01*
X8400D02*
X211600D01*
X72500Y179000D02*
Y197000D01*
X61500Y179000D02*
Y197000D01*
X72500D01*
X61500Y179000D02*
X72500D01*
X4500Y197000D02*
X15500D01*
X4500Y179000D02*
X15500D01*
Y197000D01*
X4500Y179000D02*
Y197000D01*
X17650Y266500D02*
X23150D01*
X17650Y256000D02*
X23150D01*
Y266500D01*
X17650Y256000D02*
Y266500D01*
M02*
