G04*
G04 #@! TF.GenerationSoftware,Altium Limited,Altium Designer,21.6.4 (81)*
G04*
G04 Layer_Physical_Order=1*
G04 Layer_Color=255*
%FSLAX44Y44*%
%MOMM*%
G71*
G04*
G04 #@! TF.SameCoordinates,998CE461-73B7-439C-9EE3-FAF607E45F75*
G04*
G04*
G04 #@! TF.FilePolarity,Positive*
G04*
G01*
G75*
%ADD10C,0.2540*%
%ADD14R,0.7200X0.7200*%
%ADD15R,0.3600X0.3500*%
%ADD16R,0.5500X0.5200*%
%ADD17R,0.8000X1.7000*%
%ADD18R,0.3500X0.3500*%
%ADD19R,0.4200X0.4200*%
%ADD20R,1.0000X1.5500*%
%ADD22R,1.0200X0.6400*%
%ADD23R,1.0000X0.8000*%
%ADD38C,0.7900*%
%ADD39C,0.1520*%
%ADD40C,0.3500*%
%ADD41C,3.4000*%
%ADD42C,1.6500*%
%ADD43R,1.6500X1.6500*%
%ADD44C,0.9000*%
%ADD45C,0.6000*%
G36*
X66500Y379420D02*
X61500D01*
Y389420D01*
X18000D01*
Y359420D01*
X13000D01*
Y394420D01*
X66500D01*
Y379420D01*
D02*
G37*
G36*
X21380Y343480D02*
Y342132D01*
X24400D01*
Y341370D01*
X25162D01*
Y338350D01*
X26610D01*
X27420Y338350D01*
X28690Y338350D01*
X30051D01*
X31130Y337890D01*
X31130Y337080D01*
Y335632D01*
X34150D01*
Y334870D01*
X34912D01*
Y331850D01*
X36360D01*
X37170Y331850D01*
X38440Y331850D01*
X39888D01*
Y334870D01*
X41412D01*
Y331850D01*
X42860D01*
X43670Y331850D01*
X44940Y331850D01*
X46388D01*
Y334870D01*
X47912D01*
Y331850D01*
X49360D01*
X50170Y331850D01*
X51440Y331850D01*
X54105D01*
X54911Y330868D01*
X54828Y330454D01*
X55160Y328788D01*
X56104Y327375D01*
X57516Y326432D01*
X59182Y326100D01*
X60848Y326432D01*
X61510Y326874D01*
X62166Y326800D01*
X62780Y326195D01*
X62780Y325460D01*
Y323256D01*
X62002Y322618D01*
X60395D01*
X59721Y323627D01*
X58308Y324570D01*
X56642Y324902D01*
X54976Y324570D01*
X53740Y323744D01*
X53027Y323945D01*
X52470Y324276D01*
Y327870D01*
X49862D01*
Y324500D01*
Y321130D01*
X51733D01*
X52309Y320066D01*
X51327Y318870D01*
X49862D01*
Y315500D01*
X49100D01*
Y314738D01*
X45730D01*
Y312130D01*
X46657D01*
X47183Y310860D01*
X45686Y309363D01*
X45238Y308692D01*
X45128Y308140D01*
X44130Y308140D01*
X42860Y308140D01*
X38440D01*
X37630Y308140D01*
X36360Y308140D01*
X31130D01*
X30479Y308659D01*
X30419Y308738D01*
X30419Y308738D01*
X29410Y309412D01*
Y311635D01*
X29252Y312427D01*
X28804Y313098D01*
X25020Y316882D01*
X25020Y319770D01*
X25020Y321040D01*
Y322488D01*
X22000D01*
Y324012D01*
X25020D01*
Y325460D01*
X25020Y326270D01*
X25020Y327540D01*
Y328988D01*
X22000D01*
Y329750D01*
X21238D01*
Y332770D01*
X18980D01*
X18520Y333849D01*
X18520Y336020D01*
X18520Y337290D01*
Y342520D01*
X12480D01*
Y337290D01*
X12480Y336480D01*
X12480Y335210D01*
Y333762D01*
X15500D01*
Y332238D01*
X12480D01*
Y330790D01*
X12480Y329980D01*
X12480Y328710D01*
Y326797D01*
X12421Y326500D01*
Y320000D01*
X12480Y319703D01*
X12480Y316980D01*
X12480Y315710D01*
Y314262D01*
X15500D01*
Y312738D01*
X12480D01*
Y311290D01*
X12480Y310480D01*
X12480Y309210D01*
Y307762D01*
X15500D01*
Y306238D01*
X12480D01*
Y303980D01*
X12480Y303980D01*
Y303520D01*
X12480D01*
X12480Y302710D01*
Y300797D01*
X12421Y300500D01*
Y298633D01*
X5252Y291464D01*
X4078Y291950D01*
Y344750D01*
X20259D01*
X21380Y343480D01*
D02*
G37*
G36*
X39610Y295600D02*
X40420Y295600D01*
X41310Y294699D01*
Y279073D01*
X37008Y274770D01*
X28130D01*
Y268340D01*
X25270D01*
Y271220D01*
X15530Y271220D01*
X15070Y272299D01*
Y283143D01*
X25864Y293937D01*
X26312Y294608D01*
X26393Y295014D01*
X27420Y295600D01*
X27880D01*
Y295600D01*
X33110D01*
X33920Y295600D01*
X35190Y295600D01*
X39610D01*
D02*
G37*
G36*
X54662Y294870D02*
X54830Y294702D01*
Y293850D01*
X54988Y293058D01*
X55437Y292386D01*
X63787Y284036D01*
X64458Y283588D01*
X65250Y283430D01*
X76752D01*
X94958Y265224D01*
Y201771D01*
X93187Y200000D01*
X48478Y200000D01*
X47879Y201120D01*
X48022Y201334D01*
X48354Y203000D01*
X48022Y204666D01*
X47078Y206078D01*
X45666Y207022D01*
X44000Y207354D01*
X42334Y207022D01*
X40922Y206078D01*
X39978Y204666D01*
X39646Y203000D01*
X39978Y201334D01*
X40121Y201120D01*
X39522Y200000D01*
X36070D01*
Y210837D01*
X35912Y211629D01*
X35464Y212301D01*
X15070Y232695D01*
Y250201D01*
X15530Y251280D01*
X16340Y251280D01*
X19638D01*
Y256150D01*
X20400D01*
Y256912D01*
X25270D01*
Y260210D01*
X25270Y261020D01*
X25270Y262262D01*
X26168Y263160D01*
X28130D01*
Y256730D01*
X40670D01*
Y271108D01*
X45731Y276169D01*
X46293Y277009D01*
X46490Y278000D01*
Y293516D01*
X47150Y293904D01*
X47810Y293516D01*
Y278500D01*
X48007Y277509D01*
X48569Y276669D01*
X54130Y271108D01*
Y256730D01*
X66670D01*
Y263160D01*
X68632D01*
X69530Y262262D01*
Y261480D01*
X69530Y260210D01*
Y256912D01*
X79270D01*
Y260210D01*
X79270Y261020D01*
X79270Y262290D01*
Y271220D01*
X69530D01*
Y268340D01*
X66670D01*
Y274770D01*
X57792D01*
X52990Y279573D01*
Y294210D01*
X54067Y295057D01*
X54662Y294870D01*
D02*
G37*
G36*
X21930Y215681D02*
Y200000D01*
X13079D01*
Y203000D01*
X13079Y203000D01*
X12845Y204178D01*
X12177Y205177D01*
X9079Y208275D01*
Y226872D01*
X10252Y227358D01*
X21930Y215681D01*
D02*
G37*
G36*
X149930Y248463D02*
Y200000D01*
X145478D01*
X144879Y201120D01*
X145022Y201334D01*
X145354Y203000D01*
X145022Y204666D01*
X144079Y206078D01*
X142666Y207022D01*
X141000Y207354D01*
X139334Y207022D01*
X137921Y206078D01*
X136978Y204666D01*
X136646Y203000D01*
X136976Y201342D01*
X136966Y201312D01*
X136366Y200213D01*
X135634D01*
X135034Y201312D01*
X135024Y201342D01*
X135354Y203000D01*
X135022Y204666D01*
X134078Y206078D01*
X132666Y207022D01*
X131000Y207354D01*
X129334Y207022D01*
X127921Y206078D01*
X126978Y204666D01*
X126646Y203000D01*
X126976Y201343D01*
X126966Y201312D01*
X126366Y200213D01*
X125634D01*
X125034Y201312D01*
X125024Y201343D01*
X125354Y203000D01*
X125022Y204666D01*
X124079Y206078D01*
X122666Y207022D01*
X121000Y207354D01*
X119334Y207022D01*
X117921Y206078D01*
X116978Y204666D01*
X116646Y203000D01*
X116978Y201334D01*
X117121Y201120D01*
X116522Y200000D01*
X108743D01*
X105194Y203549D01*
Y269474D01*
X105036Y270266D01*
X104587Y270938D01*
X82482Y293044D01*
X81811Y293492D01*
X81018Y293650D01*
X74027D01*
X71370Y296307D01*
X71856Y297480D01*
X75320D01*
Y303520D01*
X75320D01*
Y303980D01*
X75320D01*
Y309210D01*
X75320Y310020D01*
X75320Y311290D01*
Y315710D01*
X75320Y316520D01*
X75320Y317790D01*
Y321277D01*
X76590Y321803D01*
X149930Y248463D01*
D02*
G37*
G36*
X169930Y249799D02*
Y200000D01*
X164070Y200000D01*
Y244146D01*
X163912Y244938D01*
X163463Y245610D01*
X75599Y333474D01*
X75320Y333660D01*
Y336020D01*
X75320D01*
Y336160D01*
X76092Y337430D01*
X82299D01*
X169930Y249799D01*
D02*
G37*
G36*
X215922Y200000D02*
X204478D01*
X203879Y201120D01*
X204022Y201334D01*
X204354Y203000D01*
X204022Y204666D01*
X203078Y206078D01*
X201666Y207022D01*
X200000Y207354D01*
X198334Y207022D01*
X196922Y206078D01*
X195978Y204666D01*
X195646Y203000D01*
X195976Y201342D01*
X195966Y201313D01*
X195366Y200213D01*
X194634D01*
X194034Y201313D01*
X194024Y201342D01*
X194354Y203000D01*
X194022Y204666D01*
X193078Y206078D01*
X191666Y207022D01*
X190000Y207354D01*
X188334Y207022D01*
X186922Y206078D01*
X185978Y204666D01*
X185646Y203000D01*
X185978Y201334D01*
X186121Y201120D01*
X185522Y200000D01*
X174070D01*
Y250656D01*
X173912Y251448D01*
X173463Y252120D01*
X84620Y340964D01*
X83948Y341412D01*
X83156Y341570D01*
X75320D01*
Y342520D01*
X69280D01*
Y336480D01*
X69280D01*
Y336020D01*
X69280D01*
Y333849D01*
X68820Y332770D01*
X68010Y332770D01*
X62780D01*
X62780Y332770D01*
Y332770D01*
X62456Y333245D01*
X62260Y333532D01*
X61990Y333713D01*
X61252Y334207D01*
Y338350D01*
X66420D01*
Y344390D01*
X60380D01*
X60380Y344390D01*
X59920D01*
Y344390D01*
X59110Y344390D01*
X58197D01*
X57519Y345660D01*
X57616Y345806D01*
X57948Y347472D01*
X57616Y349138D01*
X56673Y350550D01*
X55260Y351494D01*
X53594Y351826D01*
X51928Y351494D01*
X50515Y350550D01*
X49572Y349138D01*
X49240Y347472D01*
X49337Y346984D01*
X49146Y346664D01*
X49020Y346579D01*
X47750Y347254D01*
Y359750D01*
X76500D01*
X76500Y395922D01*
X215922D01*
X215922Y200000D01*
D02*
G37*
%LPC*%
G36*
X23638Y340608D02*
X21380D01*
Y338350D01*
X23638D01*
Y340608D01*
D02*
G37*
G36*
X33388Y334108D02*
X31130D01*
Y331850D01*
X33388D01*
Y334108D01*
D02*
G37*
G36*
X22762Y332770D02*
Y330512D01*
X25020D01*
Y332770D01*
X22762D01*
D02*
G37*
G36*
X48338Y327870D02*
X45730D01*
Y325262D01*
X48338D01*
Y327870D01*
D02*
G37*
G36*
X42070D02*
X39462D01*
Y325262D01*
X42070D01*
Y327870D01*
D02*
G37*
G36*
X37938D02*
X35330D01*
Y325262D01*
X37938D01*
Y327870D01*
D02*
G37*
G36*
X42070Y323738D02*
X39462D01*
Y321130D01*
X42070D01*
Y323738D01*
D02*
G37*
G36*
X37938D02*
X35330D01*
Y321130D01*
X37938D01*
Y323738D01*
D02*
G37*
G36*
X48338D02*
X45730D01*
Y321130D01*
X48338D01*
Y323738D01*
D02*
G37*
G36*
Y318870D02*
X45730D01*
Y316262D01*
X48338D01*
Y318870D01*
D02*
G37*
G36*
X42070D02*
X39462D01*
Y316262D01*
X42070D01*
Y318870D01*
D02*
G37*
G36*
X37938D02*
X35330D01*
Y316262D01*
X37938D01*
Y318870D01*
D02*
G37*
G36*
X42070Y314738D02*
X39462D01*
Y312130D01*
X42070D01*
Y314738D01*
D02*
G37*
G36*
X37938D02*
X35330D01*
Y312130D01*
X37938D01*
Y314738D01*
D02*
G37*
G36*
X79270Y255388D02*
X75162D01*
Y251280D01*
X79270D01*
Y255388D01*
D02*
G37*
G36*
X73638D02*
X69530D01*
Y251280D01*
X73638D01*
Y255388D01*
D02*
G37*
G36*
X25270D02*
X21162D01*
Y251280D01*
X25270D01*
Y255388D01*
D02*
G37*
G36*
X75320Y358440D02*
X73062D01*
Y356182D01*
X75320D01*
Y358440D01*
D02*
G37*
G36*
X71538D02*
X69280D01*
Y356182D01*
X71538D01*
Y358440D01*
D02*
G37*
G36*
X75320Y354658D02*
X69280D01*
Y353210D01*
X69280Y352400D01*
X69280Y351130D01*
Y349682D01*
X75320D01*
Y351130D01*
X75320Y351940D01*
X75320Y353210D01*
Y354658D01*
D02*
G37*
G36*
Y348158D02*
X73062D01*
Y345900D01*
X75320D01*
Y348158D01*
D02*
G37*
G36*
X71538D02*
X69280D01*
Y345900D01*
X71538D01*
Y348158D01*
D02*
G37*
%LPD*%
D10*
X122700Y93650D02*
X129050Y100000D01*
X185000D01*
Y100357D01*
X202000Y117357D01*
X21100Y42200D02*
Y85907D01*
X35000Y99807D02*
Y100000D01*
X21100Y85907D02*
X35000Y99807D01*
X52000Y118618D02*
Y150000D01*
X35000Y100000D02*
Y101618D01*
X52000Y118618D01*
X176111Y169911D02*
X176200Y170000D01*
X176111Y163411D02*
Y169911D01*
X176022Y163322D02*
X176111Y163411D01*
X75232Y181150D02*
X78232Y184150D01*
Y190500D01*
X67000Y181150D02*
X75232D01*
X49784Y165608D02*
X52000Y163392D01*
X45392Y170000D02*
X49784Y165608D01*
X65100Y181150D02*
X67000D01*
X49784Y165834D02*
X65100Y181150D01*
X49784Y165608D02*
Y165834D01*
X52000Y150000D02*
Y163392D01*
X26200Y170000D02*
X45392D01*
X122700Y93650D02*
X122700D01*
X202000Y117357D02*
Y150000D01*
Y163506D01*
X176200Y170000D02*
X195506D01*
X202000Y163506D01*
X15500Y355420D02*
X15500Y355420D01*
X50400Y278500D02*
Y298620D01*
Y278500D02*
X60400Y268500D01*
X43900Y278000D02*
Y298620D01*
X34400Y268500D02*
X43900Y278000D01*
X60400Y265750D02*
Y268500D01*
X34400Y265750D02*
Y268500D01*
X60400Y265750D02*
X60400Y265750D01*
X74400D01*
X34400D02*
X34400Y265750D01*
X20400Y265750D02*
X34400D01*
D14*
X74400Y266350D02*
D03*
Y256150D02*
D03*
X20400Y266350D02*
D03*
Y256150D02*
D03*
D15*
X176200Y170000D02*
D03*
X167800D02*
D03*
X26200D02*
D03*
X17800D02*
D03*
D16*
X172000Y187000D02*
D03*
Y195000D02*
D03*
X200000Y187000D02*
D03*
Y195000D02*
D03*
X44000D02*
D03*
Y187000D02*
D03*
X190000Y195000D02*
D03*
Y187000D02*
D03*
X24000D02*
D03*
Y195000D02*
D03*
X34000Y187000D02*
D03*
Y195000D02*
D03*
X101000Y187000D02*
D03*
Y195000D02*
D03*
X131000Y187000D02*
D03*
Y195000D02*
D03*
X111000Y187000D02*
D03*
Y195000D02*
D03*
X121000Y187000D02*
D03*
Y195000D02*
D03*
X141000Y187000D02*
D03*
Y195000D02*
D03*
X91000Y187000D02*
D03*
Y195000D02*
D03*
X152000Y187000D02*
D03*
X162000D02*
D03*
X152000Y195000D02*
D03*
X162000D02*
D03*
D17*
X168000Y150000D02*
D03*
X202000D02*
D03*
X18000D02*
D03*
X52000D02*
D03*
D18*
X40650Y334870D02*
D03*
X53650D02*
D03*
X40650Y305120D02*
D03*
X56900Y298620D02*
D03*
X37400D02*
D03*
X34150Y334870D02*
D03*
X47150D02*
D03*
X24400Y341370D02*
D03*
X30900D02*
D03*
X37400D02*
D03*
X43900D02*
D03*
X50400D02*
D03*
X56900D02*
D03*
X63400D02*
D03*
X65800Y329750D02*
D03*
Y323250D02*
D03*
Y316750D02*
D03*
Y310250D02*
D03*
X72300Y355420D02*
D03*
Y348920D02*
D03*
Y339500D02*
D03*
Y333000D02*
D03*
Y326500D02*
D03*
Y320000D02*
D03*
Y313500D02*
D03*
Y307000D02*
D03*
Y300500D02*
D03*
X53650Y305120D02*
D03*
X47150D02*
D03*
X34150D02*
D03*
X63400Y298620D02*
D03*
X50400D02*
D03*
X43900D02*
D03*
X30900D02*
D03*
X24400D02*
D03*
X22000Y310250D02*
D03*
Y316750D02*
D03*
Y323250D02*
D03*
Y329750D02*
D03*
X15500Y300500D02*
D03*
Y307000D02*
D03*
Y313500D02*
D03*
Y320000D02*
D03*
Y326500D02*
D03*
Y333000D02*
D03*
Y339500D02*
D03*
Y348920D02*
D03*
Y355420D02*
D03*
D19*
X49100Y324500D02*
D03*
Y315500D02*
D03*
X38700D02*
D03*
Y324500D02*
D03*
D20*
X60400Y265750D02*
D03*
X34400D02*
D03*
D22*
X67000Y194850D02*
D03*
Y181150D02*
D03*
X10000Y194850D02*
D03*
Y181150D02*
D03*
D23*
X100450Y145630D02*
D03*
X115450D02*
D03*
Y156630D02*
D03*
X100450D02*
D03*
D38*
X97300Y93650D02*
D03*
Y106350D02*
D03*
X110000Y93650D02*
D03*
Y106350D02*
D03*
X122700Y93650D02*
D03*
Y106350D02*
D03*
D39*
X68580Y79420D02*
Y149389D01*
X92000Y56000D02*
X108900D01*
X68580Y79420D02*
X92000Y56000D01*
X108900D02*
X122700Y42200D01*
X152000Y195000D02*
Y249320D01*
X75402Y325918D02*
X152000Y249320D01*
X100450Y145630D02*
X103500Y142580D01*
Y132000D02*
Y142580D01*
X137850Y145000D02*
X145034Y152184D01*
X116080Y145000D02*
X137850D01*
X172042Y182922D02*
Y187000D01*
X168952Y179832D02*
X172042Y182922D01*
X162602Y179832D02*
X168952D01*
X150223Y185223D02*
X152000Y187000D01*
X150223Y183243D02*
Y185223D01*
X132080Y165100D02*
X150223Y183243D01*
X161850Y187000D02*
X162000D01*
X145034Y170184D02*
X161850Y187000D01*
X145034Y152184D02*
Y170184D01*
X152000Y187000D02*
X152125Y186875D01*
X162052Y187008D02*
X162052Y187008D01*
X115450Y145630D02*
X116080Y145000D01*
X115450Y156630D02*
X129580D01*
X55340Y310610D02*
X56896Y312166D01*
X47150Y307900D02*
X49860Y310610D01*
X55340D01*
X54570Y304800D02*
X60706D01*
X54270Y304500D02*
X54570Y304800D01*
X62002Y320548D02*
X65800Y316750D01*
X56642Y320548D02*
X62002D01*
X72300Y326500D02*
X72882Y325918D01*
X75402D01*
X59182Y330454D02*
Y339088D01*
X56900Y341370D02*
X59182Y339088D01*
X50400Y344278D02*
X53594Y347472D01*
X50400Y341370D02*
Y344278D01*
X160528Y167386D02*
X163142Y170000D01*
X167800D01*
X127000Y168656D02*
X141000Y182656D01*
X87846Y168656D02*
X127000D01*
X141000Y182656D02*
Y187000D01*
X150114Y146304D02*
Y167640D01*
X157226Y174752D01*
X194912D01*
X128016Y124206D02*
X150114Y146304D01*
X103124Y202692D02*
Y269474D01*
X109160Y196840D02*
X111000Y195000D01*
X103124Y202692D02*
X108976Y196840D01*
X109160D01*
X101000Y195000D02*
Y200517D01*
X100084Y201433D02*
X101000Y200517D01*
X100084Y201433D02*
Y268215D01*
X97028Y200914D02*
Y266082D01*
X92990Y196840D02*
Y196876D01*
X97028Y200914D01*
X77610Y285500D02*
X97028Y266082D01*
X81018Y291580D02*
X103124Y269474D01*
X81650Y286650D02*
X100084Y268215D01*
X65250Y285500D02*
X77610D01*
X91150Y195000D02*
X92990Y196840D01*
X91000Y195000D02*
X91150D01*
X162000D02*
Y244146D01*
X72300Y333000D02*
X73290Y332010D01*
X74136D01*
X162000Y244146D01*
X83156Y339500D02*
X172000Y250656D01*
Y195000D02*
Y250656D01*
X72300Y339500D02*
X83156D01*
X24000Y195000D02*
Y216538D01*
X9960Y230578D02*
X24000Y216538D01*
X9960Y230578D02*
Y285259D01*
X13000Y231837D02*
Y284000D01*
Y231837D02*
X34000Y210837D01*
Y195000D02*
Y210837D01*
X71900Y42200D02*
Y43512D01*
X65540Y49872D02*
X71900Y43512D01*
X62500Y151908D02*
X85344Y174752D01*
X46500Y42200D02*
X62500Y58200D01*
X68580Y149389D02*
X87846Y168656D01*
X62500Y58200D02*
Y151908D01*
X65540Y49872D02*
Y150649D01*
X86595Y171704D01*
X97300Y106350D02*
X115156Y124206D01*
X128016D01*
X116934Y113284D02*
X117094D01*
X110008Y106358D02*
X116934Y113284D01*
X194912Y174752D02*
X199992Y179832D01*
X189992Y186992D02*
X190000Y187000D01*
X189992Y179832D02*
Y186992D01*
X167800Y150200D02*
Y170000D01*
X43992Y179832D02*
Y186992D01*
X109992Y86482D02*
Y93642D01*
X110992Y179832D02*
Y186992D01*
X33992Y179832D02*
Y186992D01*
X90992Y179832D02*
Y186992D01*
X86595Y171704D02*
X122428D01*
X85344Y174752D02*
X114808D01*
X122428Y171704D02*
X131000Y180276D01*
Y187000D01*
X121000Y180944D02*
Y187000D01*
X114808Y174752D02*
X121000Y180944D01*
X100992Y179832D02*
Y186992D01*
X199992Y179832D02*
Y186992D01*
X17800Y150200D02*
X18000Y150000D01*
X17800Y150200D02*
Y170000D01*
X167800Y150200D02*
X168000Y150000D01*
X24000Y180000D02*
Y187000D01*
X17800Y173800D02*
X24000Y180000D01*
X17800Y170000D02*
Y173800D01*
X200000Y195000D02*
Y203000D01*
X190000Y195000D02*
Y203000D01*
X141000Y195000D02*
Y203000D01*
X131000Y195000D02*
Y203000D01*
X121000Y195000D02*
Y203000D01*
X73170Y291580D02*
X81018D01*
X79759Y288540D02*
X81650Y286650D01*
X69210Y288540D02*
X79759D01*
X68000Y296750D02*
X73170Y291580D01*
X68000Y296750D02*
Y308050D01*
X56900Y293850D02*
X65250Y285500D01*
X44000Y195000D02*
X44000Y195000D01*
X44000Y195000D02*
Y203000D01*
X13000Y284000D02*
X24400Y295400D01*
X9960Y285259D02*
X19770Y295069D01*
X24400Y295400D02*
Y298620D01*
X19770Y295069D02*
Y303770D01*
X22000Y306000D01*
Y310250D01*
X27340Y305660D02*
Y311635D01*
X53650Y305120D02*
X54270Y304500D01*
X63400Y294350D02*
X69210Y288540D01*
X22000Y316750D02*
X22990Y315760D01*
X47150Y305120D02*
Y307900D01*
X23214Y315760D02*
X27340Y311635D01*
X22990Y315760D02*
X23214D01*
X56900Y293850D02*
Y298620D01*
X63400Y294350D02*
Y298620D01*
X65800Y310250D02*
X68000Y308050D01*
D40*
X10000Y194850D02*
Y203000D01*
X6000Y207000D02*
X10000Y203000D01*
X6000Y207000D02*
Y287857D01*
X15500Y297357D01*
X74168Y144780D02*
X86018Y156630D01*
X100450D01*
X74168Y92710D02*
Y144780D01*
X67000Y194850D02*
Y202890D01*
X67310Y203200D01*
X182354Y25654D02*
X198900Y42200D01*
X14478Y25654D02*
X182354D01*
X7112Y33020D02*
X14478Y25654D01*
X8562Y181150D02*
X10000D01*
X7112Y179700D02*
X8562Y181150D01*
X7112Y33020D02*
Y179700D01*
X74168Y92710D02*
X77724Y89154D01*
X96109Y93650D02*
X97300D01*
X91613Y89154D02*
X96109Y93650D01*
X77724Y89154D02*
X91613D01*
X102108Y74930D02*
X114300Y62738D01*
X97300Y93650D02*
X102108Y88842D01*
Y74930D02*
Y88842D01*
X198900Y42200D02*
Y54592D01*
X190754Y62738D02*
X198900Y54592D01*
X114300Y62738D02*
X190754D01*
X15500Y297357D02*
Y300500D01*
Y320000D02*
Y326500D01*
X30900Y341370D02*
X37400D01*
X15500Y355420D02*
Y359420D01*
X24400Y341370D02*
X30900D01*
X37400D02*
X43900D01*
X28500Y336000D02*
X28802Y336302D01*
D41*
X185000Y100000D02*
D03*
X35000D02*
D03*
D42*
X21100Y42200D02*
D03*
X46500D02*
D03*
X148100D02*
D03*
X173500D02*
D03*
X122700D02*
D03*
X97300D02*
D03*
X71900D02*
D03*
D43*
X198900D02*
D03*
D44*
X84600Y100000D02*
D03*
X135400Y110160D02*
D03*
Y89840D02*
D03*
D45*
X15589Y205236D02*
D03*
X55000Y205000D02*
D03*
X80000D02*
D03*
X180000Y212500D02*
D03*
X212500D02*
D03*
Y227500D02*
D03*
Y242500D02*
D03*
Y257500D02*
D03*
Y272500D02*
D03*
Y287500D02*
D03*
Y302500D02*
D03*
Y317500D02*
D03*
Y332500D02*
D03*
Y347500D02*
D03*
Y362500D02*
D03*
Y377500D02*
D03*
Y392500D02*
D03*
X20000Y275000D02*
D03*
X57500Y282500D02*
D03*
X45000Y270000D02*
D03*
X155000Y260000D02*
D03*
X140000Y275000D02*
D03*
X125000Y290000D02*
D03*
X110000Y305000D02*
D03*
X95000Y320000D02*
D03*
X82500Y332500D02*
D03*
X200000Y392500D02*
D03*
Y377500D02*
D03*
Y362500D02*
D03*
Y347500D02*
D03*
Y332500D02*
D03*
Y317500D02*
D03*
Y302500D02*
D03*
Y287500D02*
D03*
Y272500D02*
D03*
Y257500D02*
D03*
Y242500D02*
D03*
Y227500D02*
D03*
X185000Y392500D02*
D03*
Y377500D02*
D03*
Y362500D02*
D03*
Y347500D02*
D03*
Y332500D02*
D03*
Y317500D02*
D03*
Y302500D02*
D03*
Y287500D02*
D03*
Y272500D02*
D03*
Y257500D02*
D03*
Y242500D02*
D03*
Y227500D02*
D03*
X170000Y392500D02*
D03*
Y377500D02*
D03*
Y362500D02*
D03*
Y347500D02*
D03*
Y332500D02*
D03*
Y317500D02*
D03*
Y302500D02*
D03*
Y287500D02*
D03*
Y272500D02*
D03*
X155000Y392500D02*
D03*
Y377500D02*
D03*
Y362500D02*
D03*
Y347500D02*
D03*
Y332500D02*
D03*
Y317500D02*
D03*
Y302500D02*
D03*
Y287500D02*
D03*
X140000Y392500D02*
D03*
Y377500D02*
D03*
Y362500D02*
D03*
Y347500D02*
D03*
Y332500D02*
D03*
Y317500D02*
D03*
Y302500D02*
D03*
X125000Y392500D02*
D03*
Y377500D02*
D03*
Y362500D02*
D03*
Y347500D02*
D03*
Y332500D02*
D03*
Y317500D02*
D03*
X110000Y392500D02*
D03*
Y377500D02*
D03*
Y362500D02*
D03*
Y347500D02*
D03*
Y332500D02*
D03*
Y242500D02*
D03*
Y227500D02*
D03*
X95000Y392500D02*
D03*
Y377500D02*
D03*
Y362500D02*
D03*
Y347500D02*
D03*
X80000Y392500D02*
D03*
Y377500D02*
D03*
Y362500D02*
D03*
Y347500D02*
D03*
Y242500D02*
D03*
Y227500D02*
D03*
X65000Y347500D02*
D03*
Y242500D02*
D03*
Y227500D02*
D03*
X50000Y257500D02*
D03*
Y242500D02*
D03*
Y227500D02*
D03*
X35000Y287500D02*
D03*
Y242500D02*
D03*
Y227500D02*
D03*
X20000Y242500D02*
D03*
X103500Y132000D02*
D03*
X130303Y156209D02*
D03*
X162602Y179832D02*
D03*
X132080Y165100D02*
D03*
X60706Y304800D02*
D03*
X56896Y312166D02*
D03*
X56642Y320548D02*
D03*
X53594Y347472D02*
D03*
X59182Y330454D02*
D03*
X160528Y167386D02*
D03*
X176022Y163322D02*
D03*
X78232Y190500D02*
D03*
X117094Y113284D02*
D03*
X189992Y179832D02*
D03*
X43992D02*
D03*
X109992Y86482D02*
D03*
X110992Y179832D02*
D03*
X33992D02*
D03*
X90992D02*
D03*
X100992D02*
D03*
X199992D02*
D03*
X200000Y203000D02*
D03*
X190000D02*
D03*
X141000D02*
D03*
X131000D02*
D03*
X121000D02*
D03*
X44000Y203000D02*
D03*
X43542Y320957D02*
D03*
X44250Y330250D02*
D03*
X27340Y305660D02*
D03*
X66250Y355750D02*
D03*
X30734Y318008D02*
D03*
X51250Y355750D02*
D03*
X58750D02*
D03*
X22252Y335965D02*
D03*
X28500Y326750D02*
D03*
X10000Y333250D02*
D03*
X37500Y330250D02*
D03*
X28500Y336000D02*
D03*
M02*
