G04*
G04 #@! TF.GenerationSoftware,Altium Limited,Altium Designer,21.6.4 (81)*
G04*
G04 Layer_Color=8388736*
%FSLAX44Y44*%
%MOMM*%
G71*
G04*
G04 #@! TF.SameCoordinates,998CE461-73B7-439C-9EE3-FAF607E45F75*
G04*
G04*
G04 #@! TF.FilePolarity,Negative*
G04*
G01*
G75*
%ADD24R,0.8200X0.8200*%
%ADD25R,0.4600X0.4500*%
%ADD26R,0.6500X0.6200*%
%ADD27R,0.9000X1.8000*%
%ADD28R,0.4500X0.4500*%
%ADD29R,0.5200X0.5200*%
%ADD30R,1.1000X1.6500*%
%ADD31C,0.8900*%
%ADD32R,1.1200X0.7400*%
%ADD33R,1.1000X0.9000*%
%ADD34C,3.5000*%
%ADD35C,1.7500*%
%ADD36R,1.7500X1.7500*%
%ADD37C,1.0000*%
D24*
X74400Y266350D02*
D03*
Y256150D02*
D03*
X20400Y266350D02*
D03*
Y256150D02*
D03*
D25*
X176200Y170000D02*
D03*
X167800D02*
D03*
X26200D02*
D03*
X17800D02*
D03*
D26*
X172000Y187000D02*
D03*
Y195000D02*
D03*
X200000Y187000D02*
D03*
Y195000D02*
D03*
X44000D02*
D03*
Y187000D02*
D03*
X190000Y195000D02*
D03*
Y187000D02*
D03*
X24000D02*
D03*
Y195000D02*
D03*
X34000Y187000D02*
D03*
Y195000D02*
D03*
X101000Y187000D02*
D03*
Y195000D02*
D03*
X131000Y187000D02*
D03*
Y195000D02*
D03*
X111000Y187000D02*
D03*
Y195000D02*
D03*
X121000Y187000D02*
D03*
Y195000D02*
D03*
X141000Y187000D02*
D03*
Y195000D02*
D03*
X91000Y187000D02*
D03*
Y195000D02*
D03*
X152000Y187000D02*
D03*
X162000D02*
D03*
X152000Y195000D02*
D03*
X162000D02*
D03*
D27*
X168000Y150000D02*
D03*
X202000D02*
D03*
X18000D02*
D03*
X52000D02*
D03*
D28*
X40650Y334870D02*
D03*
X53650D02*
D03*
X40650Y305120D02*
D03*
X56900Y298620D02*
D03*
X37400D02*
D03*
X34150Y334870D02*
D03*
X47150D02*
D03*
X24400Y341370D02*
D03*
X30900D02*
D03*
X37400D02*
D03*
X43900D02*
D03*
X50400D02*
D03*
X56900D02*
D03*
X63400D02*
D03*
X65800Y329750D02*
D03*
Y323250D02*
D03*
Y316750D02*
D03*
Y310250D02*
D03*
X72300Y355420D02*
D03*
Y348920D02*
D03*
Y339500D02*
D03*
Y333000D02*
D03*
Y326500D02*
D03*
Y320000D02*
D03*
Y313500D02*
D03*
Y307000D02*
D03*
Y300500D02*
D03*
X53650Y305120D02*
D03*
X47150D02*
D03*
X34150D02*
D03*
X63400Y298620D02*
D03*
X50400D02*
D03*
X43900D02*
D03*
X30900D02*
D03*
X24400D02*
D03*
X22000Y310250D02*
D03*
Y316750D02*
D03*
Y323250D02*
D03*
Y329750D02*
D03*
X15500Y300500D02*
D03*
Y307000D02*
D03*
Y313500D02*
D03*
Y320000D02*
D03*
Y326500D02*
D03*
Y333000D02*
D03*
Y339500D02*
D03*
Y348920D02*
D03*
Y355420D02*
D03*
D29*
X49100Y324500D02*
D03*
Y315500D02*
D03*
X38700D02*
D03*
Y324500D02*
D03*
D30*
X60400Y265750D02*
D03*
X34400D02*
D03*
D31*
X97300Y93650D02*
D03*
Y106350D02*
D03*
X110000Y93650D02*
D03*
Y106350D02*
D03*
X122700Y93650D02*
D03*
Y106350D02*
D03*
D32*
X67000Y194850D02*
D03*
Y181150D02*
D03*
X10000Y194850D02*
D03*
Y181150D02*
D03*
D33*
X100450Y145630D02*
D03*
X115450D02*
D03*
Y156630D02*
D03*
X100450D02*
D03*
D34*
X185000Y100000D02*
D03*
X35000D02*
D03*
D35*
X21100Y42200D02*
D03*
X46500D02*
D03*
X148100D02*
D03*
X173500D02*
D03*
X122700D02*
D03*
X97300D02*
D03*
X71900D02*
D03*
D36*
X198900D02*
D03*
D37*
X84600Y100000D02*
D03*
X135400Y110160D02*
D03*
Y89840D02*
D03*
M02*
