G04*
G04 #@! TF.GenerationSoftware,Altium Limited,Altium Designer,21.6.4 (81)*
G04*
G04 Layer_Physical_Order=4*
G04 Layer_Color=16711680*
%FSLAX44Y44*%
%MOMM*%
G71*
G04*
G04 #@! TF.SameCoordinates,998CE461-73B7-439C-9EE3-FAF607E45F75*
G04*
G04*
G04 #@! TF.FilePolarity,Positive*
G04*
G01*
G75*
%ADD10C,0.2540*%
%ADD39C,0.1520*%
%ADD41C,3.4000*%
%ADD42C,1.6500*%
%ADD43R,1.6500X1.6500*%
%ADD44C,0.9000*%
%ADD45C,0.6000*%
G36*
X215922Y200000D02*
X203131D01*
X204022Y201334D01*
X204354Y203000D01*
X204022Y204666D01*
X203078Y206078D01*
X201666Y207022D01*
X200000Y207354D01*
X198602Y207076D01*
X57884Y347793D01*
X57616Y349138D01*
X56673Y350550D01*
X55260Y351494D01*
X53594Y351826D01*
X51928Y351494D01*
X50515Y350550D01*
X49572Y349138D01*
X49240Y347472D01*
X49572Y345806D01*
X50515Y344394D01*
X51928Y343450D01*
X53594Y343118D01*
X55260Y343450D01*
X55927Y343896D01*
X195842Y203981D01*
X195646Y203000D01*
X195978Y201334D01*
X196869Y200000D01*
X193131D01*
X194022Y201334D01*
X194354Y203000D01*
X194022Y204666D01*
X193078Y206078D01*
X191666Y207022D01*
X190000Y207354D01*
X188334Y207022D01*
X186922Y206078D01*
X186248Y205070D01*
X183175D01*
X61427Y326818D01*
X62260Y327375D01*
X63204Y328788D01*
X63536Y330454D01*
X63204Y332120D01*
X62260Y333532D01*
X60848Y334476D01*
X59182Y334808D01*
X57516Y334476D01*
X56104Y333532D01*
X55160Y332120D01*
X54828Y330454D01*
X55160Y328788D01*
X56104Y327375D01*
X57167Y326665D01*
Y326082D01*
X57324Y325289D01*
X57728Y324686D01*
X56642Y324902D01*
X54976Y324570D01*
X53563Y323627D01*
X52620Y322214D01*
X52288Y320548D01*
X52620Y318882D01*
X53563Y317470D01*
X54976Y316526D01*
X55951Y316332D01*
X55230Y316188D01*
X53818Y315245D01*
X52874Y313832D01*
X52542Y312166D01*
X52874Y310500D01*
X53818Y309088D01*
X55230Y308144D01*
X56896Y307812D01*
X57797Y307992D01*
X57628Y307878D01*
X56684Y306466D01*
X56352Y304800D01*
X56684Y303134D01*
X57628Y301721D01*
X59040Y300778D01*
X60706Y300446D01*
X61682Y300641D01*
X118930Y243393D01*
Y206752D01*
X117921Y206078D01*
X116978Y204666D01*
X116646Y203000D01*
X116978Y201334D01*
X117869Y200000D01*
X47131Y200000D01*
X48022Y201334D01*
X48354Y203000D01*
X48022Y204666D01*
X47078Y206078D01*
X45666Y207022D01*
X44000Y207354D01*
X42334Y207022D01*
X40922Y206078D01*
X40248Y205070D01*
X39411D01*
X12070Y232411D01*
Y287463D01*
X26150Y301543D01*
X27340Y301306D01*
X29006Y301638D01*
X30419Y302582D01*
X31362Y303994D01*
X31694Y305660D01*
X31362Y307326D01*
X30419Y308738D01*
X29006Y309682D01*
X27340Y310014D01*
X25674Y309682D01*
X24262Y308738D01*
X23318Y307326D01*
X22986Y305660D01*
X23223Y304470D01*
X8536Y289784D01*
X8088Y289112D01*
X7930Y288320D01*
Y231554D01*
X8088Y230762D01*
X8536Y230090D01*
X37090Y201537D01*
X37762Y201088D01*
X38554Y200930D01*
X40248D01*
X40869Y200000D01*
X4078Y200000D01*
Y344750D01*
X47750Y344750D01*
Y359750D01*
X76500D01*
Y395922D01*
X215922D01*
X215922Y200000D01*
D02*
G37*
G36*
X24913Y66397D02*
X23839D01*
Y69213D01*
X22513Y70492D01*
X19620Y66397D01*
X18201D01*
X21762Y71220D01*
X18347Y74517D01*
X19808D01*
X23839Y70486D01*
Y74517D01*
X24913D01*
Y66397D01*
D02*
G37*
G36*
X31220D02*
X26151D01*
Y67353D01*
X30147D01*
Y74517D01*
X31220D01*
Y66397D01*
D02*
G37*
G36*
X17127D02*
X16053D01*
Y74517D01*
X17127D01*
Y66397D01*
D02*
G37*
G36*
X11512Y74652D02*
X11658Y74647D01*
X11799Y74635D01*
X11940Y74617D01*
X12069Y74594D01*
X12192Y74570D01*
X12304Y74547D01*
X12409Y74517D01*
X12509Y74494D01*
X12597Y74465D01*
X12668Y74441D01*
X12732Y74423D01*
X12785Y74400D01*
X12820Y74388D01*
X12844Y74383D01*
X12850Y74377D01*
X12973Y74324D01*
X13084Y74265D01*
X13190Y74201D01*
X13290Y74136D01*
X13383Y74066D01*
X13466Y74001D01*
X13542Y73931D01*
X13606Y73866D01*
X13665Y73808D01*
X13718Y73749D01*
X13765Y73702D01*
X13800Y73655D01*
X13829Y73620D01*
X13847Y73590D01*
X13859Y73573D01*
X13865Y73567D01*
X13923Y73467D01*
X13976Y73362D01*
X14023Y73262D01*
X14064Y73162D01*
X14099Y73062D01*
X14129Y72968D01*
X14146Y72880D01*
X14170Y72792D01*
X14181Y72710D01*
X14193Y72640D01*
X14199Y72575D01*
X14205Y72523D01*
X14211Y72476D01*
Y72446D01*
Y72423D01*
Y72417D01*
X14205Y72311D01*
X14199Y72211D01*
X14164Y72024D01*
X14123Y71854D01*
X14093Y71777D01*
X14070Y71701D01*
X14041Y71637D01*
X14017Y71578D01*
X13994Y71531D01*
X13970Y71490D01*
X13953Y71455D01*
X13941Y71431D01*
X13935Y71414D01*
X13929Y71408D01*
X13870Y71326D01*
X13812Y71243D01*
X13671Y71097D01*
X13530Y70968D01*
X13389Y70862D01*
X13319Y70815D01*
X13260Y70774D01*
X13202Y70733D01*
X13155Y70704D01*
X13113Y70680D01*
X13084Y70662D01*
X13067Y70657D01*
X13061Y70651D01*
X12967Y70604D01*
X12867Y70563D01*
X12750Y70516D01*
X12627Y70469D01*
X12368Y70381D01*
X12110Y70305D01*
X11993Y70269D01*
X11875Y70240D01*
X11770Y70211D01*
X11682Y70187D01*
X11606Y70170D01*
X11547Y70152D01*
X11529Y70146D01*
X11512D01*
X11506Y70140D01*
X11500D01*
X11300Y70093D01*
X11119Y70047D01*
X10948Y70005D01*
X10802Y69964D01*
X10667Y69929D01*
X10549Y69900D01*
X10450Y69870D01*
X10356Y69841D01*
X10280Y69818D01*
X10215Y69800D01*
X10168Y69782D01*
X10127Y69771D01*
X10092Y69759D01*
X10074Y69753D01*
X10063Y69747D01*
X10057D01*
X9963Y69706D01*
X9881Y69671D01*
X9798Y69630D01*
X9728Y69589D01*
X9658Y69548D01*
X9599Y69507D01*
X9546Y69466D01*
X9499Y69430D01*
X9458Y69395D01*
X9423Y69360D01*
X9364Y69307D01*
X9335Y69272D01*
X9323Y69266D01*
Y69260D01*
X9247Y69149D01*
X9188Y69037D01*
X9147Y68926D01*
X9124Y68826D01*
X9106Y68732D01*
X9100Y68697D01*
Y68662D01*
X9094Y68632D01*
Y68615D01*
Y68603D01*
Y68597D01*
X9106Y68462D01*
X9129Y68327D01*
X9171Y68210D01*
X9212Y68110D01*
X9253Y68022D01*
X9276Y67987D01*
X9294Y67958D01*
X9306Y67934D01*
X9317Y67917D01*
X9329Y67905D01*
Y67899D01*
X9423Y67787D01*
X9534Y67688D01*
X9652Y67600D01*
X9763Y67529D01*
X9869Y67477D01*
X9910Y67453D01*
X9951Y67435D01*
X9980Y67418D01*
X10004Y67406D01*
X10021Y67400D01*
X10027D01*
X10209Y67342D01*
X10391Y67295D01*
X10573Y67265D01*
X10743Y67242D01*
X10819Y67236D01*
X10890Y67230D01*
X10948Y67224D01*
X11001D01*
X11048Y67218D01*
X11107D01*
X11359Y67230D01*
X11594Y67254D01*
X11705Y67277D01*
X11805Y67295D01*
X11905Y67318D01*
X11993Y67342D01*
X12069Y67359D01*
X12145Y67383D01*
X12204Y67406D01*
X12257Y67424D01*
X12298Y67435D01*
X12333Y67447D01*
X12351Y67459D01*
X12357D01*
X12456Y67506D01*
X12550Y67553D01*
X12638Y67606D01*
X12715Y67658D01*
X12791Y67711D01*
X12855Y67764D01*
X12920Y67817D01*
X12973Y67864D01*
X13020Y67911D01*
X13061Y67952D01*
X13096Y67987D01*
X13119Y68022D01*
X13143Y68052D01*
X13161Y68069D01*
X13166Y68081D01*
X13172Y68087D01*
X13260Y68245D01*
X13331Y68410D01*
X13389Y68580D01*
X13430Y68738D01*
X13448Y68814D01*
X13466Y68879D01*
X13477Y68943D01*
X13483Y68996D01*
X13495Y69037D01*
Y69067D01*
X13501Y69090D01*
Y69096D01*
X14516Y69008D01*
X14510Y68855D01*
X14492Y68709D01*
X14469Y68568D01*
X14440Y68433D01*
X14404Y68310D01*
X14369Y68186D01*
X14328Y68075D01*
X14287Y67969D01*
X14252Y67875D01*
X14211Y67793D01*
X14175Y67723D01*
X14140Y67658D01*
X14117Y67611D01*
X14093Y67576D01*
X14082Y67553D01*
X14076Y67547D01*
X13994Y67430D01*
X13906Y67318D01*
X13812Y67218D01*
X13712Y67125D01*
X13618Y67036D01*
X13518Y66954D01*
X13425Y66884D01*
X13331Y66819D01*
X13248Y66767D01*
X13166Y66714D01*
X13096Y66673D01*
X13031Y66638D01*
X12979Y66614D01*
X12943Y66596D01*
X12914Y66585D01*
X12908Y66579D01*
X12767Y66526D01*
X12615Y66473D01*
X12462Y66432D01*
X12304Y66397D01*
X11993Y66338D01*
X11846Y66321D01*
X11705Y66303D01*
X11570Y66291D01*
X11447Y66280D01*
X11336Y66274D01*
X11242Y66268D01*
X11165Y66262D01*
X11060D01*
X10901Y66268D01*
X10743Y66274D01*
X10590Y66291D01*
X10450Y66309D01*
X10315Y66338D01*
X10186Y66362D01*
X10063Y66391D01*
X9951Y66420D01*
X9851Y66450D01*
X9763Y66479D01*
X9687Y66508D01*
X9622Y66532D01*
X9570Y66550D01*
X9528Y66567D01*
X9505Y66573D01*
X9499Y66579D01*
X9370Y66643D01*
X9253Y66708D01*
X9141Y66778D01*
X9042Y66849D01*
X8948Y66925D01*
X8860Y67001D01*
X8777Y67072D01*
X8707Y67142D01*
X8643Y67207D01*
X8590Y67265D01*
X8543Y67324D01*
X8508Y67371D01*
X8478Y67412D01*
X8455Y67441D01*
X8443Y67459D01*
X8437Y67465D01*
X8373Y67576D01*
X8314Y67682D01*
X8261Y67793D01*
X8220Y67899D01*
X8185Y68005D01*
X8156Y68104D01*
X8126Y68204D01*
X8109Y68292D01*
X8091Y68380D01*
X8079Y68456D01*
X8073Y68521D01*
X8067Y68580D01*
X8062Y68627D01*
Y68662D01*
Y68685D01*
Y68691D01*
X8067Y68814D01*
X8073Y68926D01*
X8091Y69037D01*
X8115Y69143D01*
X8138Y69248D01*
X8167Y69342D01*
X8202Y69430D01*
X8232Y69513D01*
X8261Y69583D01*
X8296Y69647D01*
X8326Y69706D01*
X8349Y69753D01*
X8373Y69788D01*
X8384Y69818D01*
X8396Y69835D01*
X8402Y69841D01*
X8472Y69935D01*
X8543Y70023D01*
X8707Y70187D01*
X8883Y70328D01*
X8971Y70393D01*
X9053Y70445D01*
X9135Y70498D01*
X9212Y70545D01*
X9276Y70580D01*
X9335Y70616D01*
X9382Y70639D01*
X9423Y70657D01*
X9446Y70668D01*
X9452Y70674D01*
X9552Y70715D01*
X9669Y70756D01*
X9798Y70803D01*
X9939Y70844D01*
X10086Y70891D01*
X10233Y70932D01*
X10532Y71009D01*
X10673Y71050D01*
X10808Y71079D01*
X10931Y71108D01*
X11036Y71138D01*
X11125Y71155D01*
X11160Y71167D01*
X11189Y71173D01*
X11213Y71179D01*
X11230D01*
X11242Y71185D01*
X11248D01*
X11482Y71243D01*
X11694Y71296D01*
X11881Y71349D01*
X12052Y71402D01*
X12198Y71455D01*
X12333Y71502D01*
X12445Y71549D01*
X12544Y71590D01*
X12627Y71631D01*
X12691Y71666D01*
X12750Y71695D01*
X12791Y71725D01*
X12826Y71742D01*
X12844Y71760D01*
X12855Y71766D01*
X12861Y71771D01*
X12914Y71824D01*
X12961Y71883D01*
X13008Y71942D01*
X13043Y72006D01*
X13096Y72123D01*
X13131Y72241D01*
X13155Y72341D01*
X13161Y72382D01*
X13166Y72423D01*
X13172Y72452D01*
Y72476D01*
Y72487D01*
Y72493D01*
X13166Y72587D01*
X13155Y72675D01*
X13131Y72763D01*
X13102Y72839D01*
X13031Y72986D01*
X12990Y73056D01*
X12949Y73115D01*
X12908Y73168D01*
X12873Y73215D01*
X12832Y73256D01*
X12802Y73291D01*
X12773Y73320D01*
X12750Y73338D01*
X12738Y73350D01*
X12732Y73356D01*
X12644Y73420D01*
X12544Y73473D01*
X12433Y73520D01*
X12321Y73561D01*
X12204Y73596D01*
X12087Y73626D01*
X11852Y73667D01*
X11746Y73684D01*
X11641Y73696D01*
X11553Y73702D01*
X11471Y73708D01*
X11406Y73714D01*
X11312D01*
X11142Y73708D01*
X10984Y73696D01*
X10837Y73678D01*
X10696Y73655D01*
X10573Y73620D01*
X10456Y73590D01*
X10350Y73555D01*
X10256Y73520D01*
X10174Y73479D01*
X10103Y73444D01*
X10045Y73414D01*
X9992Y73385D01*
X9951Y73356D01*
X9927Y73338D01*
X9910Y73326D01*
X9904Y73320D01*
X9822Y73244D01*
X9746Y73156D01*
X9675Y73068D01*
X9617Y72974D01*
X9564Y72875D01*
X9517Y72781D01*
X9476Y72687D01*
X9446Y72593D01*
X9417Y72505D01*
X9394Y72423D01*
X9376Y72347D01*
X9364Y72288D01*
X9352Y72235D01*
X9347Y72194D01*
X9341Y72171D01*
Y72159D01*
X8308Y72235D01*
X8320Y72364D01*
X8332Y72493D01*
X8355Y72616D01*
X8384Y72734D01*
X8414Y72845D01*
X8449Y72951D01*
X8484Y73051D01*
X8519Y73139D01*
X8560Y73221D01*
X8590Y73291D01*
X8625Y73356D01*
X8654Y73408D01*
X8678Y73450D01*
X8695Y73485D01*
X8707Y73502D01*
X8713Y73508D01*
X8783Y73614D01*
X8866Y73708D01*
X8948Y73802D01*
X9036Y73884D01*
X9124Y73960D01*
X9212Y74030D01*
X9294Y74095D01*
X9382Y74148D01*
X9458Y74201D01*
X9534Y74242D01*
X9599Y74283D01*
X9658Y74312D01*
X9705Y74335D01*
X9740Y74353D01*
X9763Y74359D01*
X9769Y74365D01*
X9898Y74418D01*
X10033Y74465D01*
X10168Y74500D01*
X10309Y74535D01*
X10573Y74588D01*
X10702Y74605D01*
X10819Y74623D01*
X10937Y74635D01*
X11036Y74641D01*
X11130Y74652D01*
X11207D01*
X11271Y74658D01*
X11359D01*
X11512Y74652D01*
D02*
G37*
D10*
X167894Y195580D02*
X176022Y187452D01*
Y163322D02*
Y187452D01*
X83312Y195580D02*
X167894D01*
X78232Y190500D02*
X83312Y195580D01*
D39*
X73914Y65586D02*
X97300Y42200D01*
X103500Y132000D02*
Y136520D01*
X132080Y165100D01*
X129794Y156718D02*
X132080D01*
X129794D02*
X130303Y156209D01*
Y156209D02*
Y156209D01*
X155194Y179832D02*
X162560D01*
X132080Y156718D02*
X155194Y179832D01*
X60454Y312166D02*
X131000Y241619D01*
X56896Y312166D02*
X60454D01*
X131000Y203000D02*
Y241619D01*
X60706Y304544D02*
Y304800D01*
Y304544D02*
X121000Y244250D01*
X141000Y203000D02*
Y236190D01*
X56642Y320548D02*
X141000Y236190D01*
X182318Y203000D02*
X190000D01*
X59182Y330454D02*
X59236Y330400D01*
Y326082D02*
X182318Y203000D01*
X59236Y326082D02*
Y330400D01*
X53594Y347472D02*
X55278D01*
X199750Y203000D01*
X200000D01*
X38554Y203000D02*
X44000D01*
X10000Y231554D02*
X38554Y203000D01*
X10000Y231554D02*
Y288320D01*
X160528Y167386D02*
Y167386D01*
X167640Y174498D02*
Y184912D01*
X160528Y167386D02*
X167640Y174498D01*
X117094Y113284D02*
X126492Y122682D01*
X149098D02*
X189992Y163576D01*
X126492Y122682D02*
X149098D01*
X189992Y163576D02*
Y179832D01*
X86598Y191246D02*
X161306D01*
X167640Y184912D01*
X73914Y169963D02*
X89116Y185166D01*
X43992Y179832D02*
X79483D01*
X80264Y184912D02*
X86598Y191246D01*
X89116Y185166D02*
X105658D01*
X73914Y65586D02*
Y169963D01*
X79483Y179832D02*
X87857Y188206D01*
X110293D01*
X39072Y184912D02*
X80264D01*
X33992Y179832D02*
X39072Y184912D01*
X110293Y188206D02*
X116586Y181912D01*
X96512Y154940D02*
X116586Y175014D01*
Y181912D01*
X96512Y99962D02*
Y154940D01*
Y99962D02*
X109992Y86482D01*
X93472Y172312D02*
X100992Y179832D01*
X93472Y80491D02*
X111747Y62217D01*
X93472Y80491D02*
Y172312D01*
X105658Y185166D02*
X110992Y179832D01*
X153483Y62217D02*
X173500Y42200D01*
X111747Y62217D02*
X153483D01*
X76954Y92710D02*
X111498Y58166D01*
X132134D01*
X148100Y42200D01*
X76954Y92710D02*
Y165794D01*
X90992Y179832D01*
X121000Y203000D02*
Y244250D01*
X10000Y288320D02*
X27340Y305660D01*
D41*
X185000Y100000D02*
D03*
X35000D02*
D03*
D42*
X21100Y42200D02*
D03*
X46500D02*
D03*
X148100D02*
D03*
X173500D02*
D03*
X122700D02*
D03*
X97300D02*
D03*
X71900D02*
D03*
D43*
X198900D02*
D03*
D44*
X84600Y100000D02*
D03*
X135400Y110160D02*
D03*
Y89840D02*
D03*
D45*
X15589Y205236D02*
D03*
X55000Y205000D02*
D03*
X80000D02*
D03*
X180000Y212500D02*
D03*
X212500D02*
D03*
Y227500D02*
D03*
Y242500D02*
D03*
Y257500D02*
D03*
Y272500D02*
D03*
Y287500D02*
D03*
Y302500D02*
D03*
Y317500D02*
D03*
Y332500D02*
D03*
Y347500D02*
D03*
Y362500D02*
D03*
Y377500D02*
D03*
Y392500D02*
D03*
X20000Y275000D02*
D03*
X57500Y282500D02*
D03*
X45000Y270000D02*
D03*
X155000Y260000D02*
D03*
X140000Y275000D02*
D03*
X125000Y290000D02*
D03*
X110000Y305000D02*
D03*
X95000Y320000D02*
D03*
X82500Y332500D02*
D03*
X200000Y392500D02*
D03*
Y377500D02*
D03*
Y362500D02*
D03*
Y347500D02*
D03*
Y332500D02*
D03*
Y317500D02*
D03*
Y302500D02*
D03*
Y287500D02*
D03*
Y272500D02*
D03*
Y257500D02*
D03*
Y242500D02*
D03*
Y227500D02*
D03*
X185000Y392500D02*
D03*
Y377500D02*
D03*
Y362500D02*
D03*
Y347500D02*
D03*
Y332500D02*
D03*
Y317500D02*
D03*
Y302500D02*
D03*
Y287500D02*
D03*
Y272500D02*
D03*
Y257500D02*
D03*
Y242500D02*
D03*
Y227500D02*
D03*
X170000Y392500D02*
D03*
Y377500D02*
D03*
Y362500D02*
D03*
Y347500D02*
D03*
Y332500D02*
D03*
Y317500D02*
D03*
Y302500D02*
D03*
Y287500D02*
D03*
Y272500D02*
D03*
X155000Y392500D02*
D03*
Y377500D02*
D03*
Y362500D02*
D03*
Y347500D02*
D03*
Y332500D02*
D03*
Y317500D02*
D03*
Y302500D02*
D03*
Y287500D02*
D03*
X140000Y392500D02*
D03*
Y377500D02*
D03*
Y362500D02*
D03*
Y347500D02*
D03*
Y332500D02*
D03*
Y317500D02*
D03*
Y302500D02*
D03*
X125000Y392500D02*
D03*
Y377500D02*
D03*
Y362500D02*
D03*
Y347500D02*
D03*
Y332500D02*
D03*
Y317500D02*
D03*
X110000Y392500D02*
D03*
Y377500D02*
D03*
Y362500D02*
D03*
Y347500D02*
D03*
Y332500D02*
D03*
Y242500D02*
D03*
Y227500D02*
D03*
X95000Y392500D02*
D03*
Y377500D02*
D03*
Y362500D02*
D03*
Y347500D02*
D03*
X80000Y392500D02*
D03*
Y377500D02*
D03*
Y362500D02*
D03*
Y347500D02*
D03*
Y242500D02*
D03*
Y227500D02*
D03*
X65000Y347500D02*
D03*
Y242500D02*
D03*
Y227500D02*
D03*
X50000Y257500D02*
D03*
Y242500D02*
D03*
Y227500D02*
D03*
X35000Y287500D02*
D03*
Y242500D02*
D03*
Y227500D02*
D03*
X20000Y242500D02*
D03*
X103500Y132000D02*
D03*
X130303Y156209D02*
D03*
X162602Y179832D02*
D03*
X132080Y165100D02*
D03*
X60706Y304800D02*
D03*
X56896Y312166D02*
D03*
X56642Y320548D02*
D03*
X53594Y347472D02*
D03*
X59182Y330454D02*
D03*
X160528Y167386D02*
D03*
X176022Y163322D02*
D03*
X78232Y190500D02*
D03*
X117094Y113284D02*
D03*
X189992Y179832D02*
D03*
X43992D02*
D03*
X109992Y86482D02*
D03*
X110992Y179832D02*
D03*
X33992D02*
D03*
X90992D02*
D03*
X100992D02*
D03*
X199992D02*
D03*
X200000Y203000D02*
D03*
X190000D02*
D03*
X141000D02*
D03*
X131000D02*
D03*
X121000D02*
D03*
X44000Y203000D02*
D03*
X43542Y320957D02*
D03*
X44250Y330250D02*
D03*
X27340Y305660D02*
D03*
X66250Y355750D02*
D03*
X30734Y318008D02*
D03*
X51250Y355750D02*
D03*
X58750D02*
D03*
X22252Y335965D02*
D03*
X28500Y326750D02*
D03*
X10000Y333250D02*
D03*
X37500Y330250D02*
D03*
X28500Y336000D02*
D03*
M02*
