M48
;Layer_Color=9474304
;FILE_FORMAT=4:4
METRIC,LZ
;TYPE=PLATED
T1F00S00C0.3000
T2F00S00C0.3040
T3F00S00C1.1000
T4F00S00C1.8000
;TYPE=NON_PLATED
T5F00S00C0.9950
%
T01
X000075Y000515
X0002
Y000665
X000075
Y000815
X0002
Y000965
X000075Y000965
Y001115
X0002Y001115
Y001265
X000075Y001265
Y001415
X0002Y001415
Y001565
X000075Y001565
Y001715
X0002Y001715
X00035
X0005
X00065
X0008
X00095
X0011
X00125
X0014
X0014875Y0017125
Y001615
Y001505
X0017175Y00156
Y00167
X0017675Y001715
X0019025
X002Y001715
X0020975Y001715
X0022325
X00225Y00162
X00215Y001565
Y001415
Y001265
X002
Y001415
Y001565
X00185
Y001415
Y001265
Y001115
X002
X0022225Y00101
X0023575Y000925
X00233Y000775
X00244
X00245Y000665
X0026
X00275
X0029
X00305
X0032
X00335
X0035
Y000815
Y000965
X0036075Y001155
X00365Y001265
X0036Y0014725
X0038Y001415
X003925Y001415
Y001565
Y001715
X0038Y001715
X00365Y001715
X0035
X00335
X0032
X00305
X0029
X00275
X0026
X00251
X0025625Y0014375
X0025375Y001285
X00275Y001265
X0029
X00305
Y001115
X0032
X00335
Y001265
X0033125Y00148
X00315Y00137
X0032Y000965
Y000815
X00335
Y000515
X0035
X00365
X0038
X003925Y000515
Y000815
X0038925Y0008875
X003925Y000965
Y001115
Y001265
X0029Y001115
X00275
X0026
Y000815
X0025125Y000845
X00275Y000815
X0029
X00305
Y000515
X0032
Y000365
X00335
X0035
X0035Y000215
Y000075
X00335
X00335Y000215
X0032
X0032Y000075
X00305
X00305Y000215
Y000365
X0029Y000215
X0029Y000075
X00275
X00275Y000215
X0026
Y000075
X00245
Y000215
X0023
Y000075
X00215Y000215
X002
X00185
X0017
X0017Y000075
X00155
X00155Y000215
X0014
X0014Y000075
X00125
X00125Y000215
X0011
X0011Y000075
X00095
X00095Y000215
Y000365
Y000515
Y000665
X0011
Y000815
X00095
X0008
Y000965
Y001115
X00095
X0011
Y001265
Y001415
Y001565
X00095
Y001415
Y001265
X0008
Y001415
Y001565
X00065
Y001415
Y001265
Y001115
X0005
Y001265
Y001415
Y001565
X00035
Y001415
Y001265
Y001115
Y000965
X0005
Y000815
X00065
Y000665
X0008
Y000515
Y000365
Y000215
X0008Y000075
X00065
X00065Y000215
Y000365
Y000515
X0005
Y000665
X00035
Y000815
Y000515
X0005Y000365
X0005Y000215
Y000075
X00125Y000515
X0015025Y00071
X0014875Y000845
X0016425Y000925
X001725Y001005
X0016375Y0006325
X00215Y000665
X00275Y000515
X0012175Y00101
T02
X001375Y000615
X00135Y001
X0014825Y0011275
X00145Y001325
X00133Y001615
X00215Y001115
X0026Y001015
X00275
X002525Y000515
X00225Y0005
X00206Y000575
X0018725Y00067
X00175Y0005
X003485Y0011875
Y001345
X00335Y001415
X00365Y00155
T03
X001111Y000417
X001365
X001619
X001873
X002127
X002381
X002635
X002889
T04
X00025Y00025
X00375
T05
X0036474Y0006455
X0038506
X003749Y0011535
M30
