M48
;Layer_Color=9474304
;FILE_FORMAT=4:4
METRIC,LZ
;TYPE=PLATED
T1F00S00C0.3000
T2F00S00C1.1000
T3F00S00C1.8000
;TYPE=NON_PLATED
T4F00S00C0.9950
%
T01
X000075Y000515
X0002
Y000665
X000075
Y000815
X0002
Y000965
X000075Y000965
Y001115
X0002Y001115
Y001265
X000075Y001265
Y001415
X0002Y001415
Y001565
X000075Y001565
Y001715
X0002Y001715
X00035
X0005
X00065
X0008
X00095
X0011
X00125
X0014
X00148739Y00171457
X001485Y001615
Y001505
X0014Y001565
X00125
X0011
Y001415
Y001265
Y001115
X00095
Y001265
Y001415
Y001565
X0008
Y001415
Y001265
Y001115
Y000965
Y000815
X00095
X0011
Y000665
X00095
Y000515
Y000365
Y000215
Y000075
X0008
Y000215
Y000365
Y000515
Y000665
X00065
Y000815
X0005
Y000965
Y001115
X00065
Y001265
Y001415
Y001565
X0005
Y001415
Y001265
X00035
Y001415
Y001565
Y001115
Y000965
Y000815
Y000665
X0005
Y000515
X00065
Y000365
Y000215
Y000075
X0005
Y000215
Y000365
X00035Y000515
X00125
Y000365
Y000215
X00125Y000075
X0014
X0014Y000215
X00155
X00155Y000075
X0017
X0017Y000215
X00185
X002
X00215
X0023
X0023Y000075
X00245
X00245Y000215
X0026
X0026Y000075
X00275
X00275Y000215
X0029
X0029Y000075
X00305
X00305Y000215
X0032
X0032Y000075
X00335
X00335Y000215
Y000365
X0035
Y000515
X00365
X0038
X003925
Y000815
X0038825Y0009
X003925Y000965
Y001115
Y001265
Y001415
X0038Y001415
X00355Y001415
X0035843Y00149086
X00365Y00155
X0035
Y001715
X00365
X0038Y001715
X003925Y001715
Y001565
X00365Y001265
Y001115
X00360518Y00102768
X0035Y000965
Y001115
Y001265
X00335
Y001115
X0032
Y000965
Y000815
X00335
X0035
Y000665
X00335
Y000515
X0032
Y000665
X00305
Y000815
X0029
Y000665
X00275
Y000815
X0026
X0025125Y000845
X00247Y0007675
X0026Y000665
X00275Y000515
Y000365
X00305
X0032
X00305Y000515
Y001115
Y001265
X0029
Y001115
X00275
Y001265
X00254Y001285
X002565Y0014425
X0026Y001715
X00251Y001715
X00275
X0029
X00305
X0032
X00335
X0033125Y00148
X003165Y00137
X0026Y001115
X0023575Y0009275
X00218Y001165
X00215Y001265
Y001415
Y001565
X002
Y001715
X0020975Y001715
X0022325
X00190239Y00171457
X0017675Y001715
X00185Y001565
Y001415
X002
Y001265
X00185
X001835Y0011
X001945
X002055Y00111
X001725Y001005
X0016425Y0009275
X00149Y000845
X0014Y000665
X00125
X00119Y000955
X0013525Y0011125
X001705Y00061
X0018247Y00055156
X0019625Y00061
X002Y000365
X0023Y000515
X0011Y000215
X0011Y000075
X0035
Y000215
T02
X001111Y000417
X001365
X001619
X001873
X002127
X002381
X002635
X002889
T03
X00025Y00025
X00375
T04
X0036474Y0006455
X0038506
X003749Y0011535
M30
