M48
;Layer_Color=9474304
;FILE_FORMAT=4:4
METRIC,LZ
;TYPE=PLATED
T1F00S00C0.3000
T2F00S00C1.1000
T3F00S00C1.8000
;TYPE=NON_PLATED
T4F00S00C0.9950
%
T01
X000075Y000475
X0002Y000475
X0002175Y001105
X00008Y001275
Y00134
Y001535
X00021502Y00156465
X0002775Y001565
Y0014725
X00031Y00139
X00029Y00131
X00029078Y00110672
X00035Y001025
X00045Y0009
X0005Y000775
Y000625
X00065
X0008
X00095
X0011
X00125
Y000775
X0011
Y000925
X00095
Y000775
Y000475
X00125
Y000325
X00125Y000075
X0014
X00155
X0017
X00185
X002
X00215
X0023
X00245
X0026
X00275
X0029
X00305
Y000175
X00305Y000325
X0032
X00335
X0035
Y000475
X00365
X0038
X003925Y000475
Y000625
X0038Y000625
Y000775
X003925Y000775
Y000925
Y001075
X003844Y001201
X00385Y0013275
X003925Y0015
Y001675
X0038Y001675
Y001825
X003925Y001825
Y001975
X0038
Y002125
X003925
X00365
Y001975
Y001825
Y001675
X0035
Y001825
Y001975
Y002125
X00335
Y001975
Y001825
Y001675
X0032Y001825
Y001975
Y002125
X00305
Y001975
Y001675
X0029
Y001825
X00275
Y001675
X0026
Y001825
X00245
Y001675
X0023
Y001825
X00215
Y001675
X002
Y001825
Y002125
X00215
X0023
X00245
X0026
X00275
X0029
X0029Y001475
X00305
X0032
X0032Y001225
Y001075
Y000925
Y000775
Y000625
X00305
Y000775
Y000925
Y001075
Y001225
X0029
Y001075
Y000925
Y000775
Y000625
X00275
Y000775
Y000925
Y001075
Y001225
X0026
Y001075
Y000775
X00245
Y000625
X00225Y00055
Y000325
X0025
X00275Y000325
Y000475
X00335
X0035Y000625
X00365
Y000775
X0035
Y001075
X00352Y0012
X0035Y000175
Y000075
X002Y000325
Y000475
Y000625
X001875Y000775
X0018Y000875
X0019525Y00096
X00185Y001075
Y001225
X002
X00215
X0023
X00245
X00245Y001475
X0026
X00275
X0023
X0023Y001075
Y000925
Y000775
X0017Y000625
X00155
X0015Y000325
X0011Y000075
X00095
Y000175
X0008
Y000075
X00065
Y000175
X0005
Y000075
Y000325
X00065
X0008
X00065Y000475
X0005
X00035
Y000625
X000575Y001025
X0005891Y0012514
X00055Y00132
X00059Y00139
X0005925Y00156
X00054Y00168
X000505Y0017625
X00058
X000655
X0008Y001825
X00095
X0011
Y001975
Y002125
X00125
X0014
X00155
X0017
X00185
X00179Y00203
X00174Y00175
X00159Y00174
X00133
X0014Y001375
X0014725Y00141
X00155Y001225
X0017
Y001075
X0014Y000925
X00125Y001075
X0011Y001225
X00085Y001175
X0008Y001675
X00095
Y001975
Y002125
X0008
Y001975
X000435Y0015075
X0003675
X00185Y001675
T02
X001111Y000417
X001365
X001619
X001873
X002127
X002381
X002635
X002889
T03
X00025Y00025
X00375
T04
X0035849Y0009455
X0037881
X0036865Y0014535
M30
