G04*
G04 #@! TF.GenerationSoftware,Altium Limited,Altium Designer,21.6.4 (81)*
G04*
G04 Layer_Color=128*
%FSLAX44Y44*%
%MOMM*%
G71*
G04*
G04 #@! TF.SameCoordinates,8C3636EA-CFF2-41A9-9EC8-A279A3EE80BB*
G04*
G04*
G04 #@! TF.FilePolarity,Positive*
G04*
G01*
G75*
%ADD49C,0.0508*%
D49*
X131475Y89490D02*
X141425D01*
X136450Y84515D02*
Y94465D01*
X131475Y109810D02*
X141425D01*
X136450Y104835D02*
Y114785D01*
X80675Y99650D02*
X90625D01*
X85650Y94675D02*
Y104625D01*
X66400Y42200D02*
X77400D01*
X71900Y36700D02*
Y47700D01*
X91800Y42200D02*
X102800D01*
X97300Y36700D02*
Y47700D01*
X117200Y42200D02*
X128200D01*
X122700Y36700D02*
Y47700D01*
X168000Y42200D02*
X179000D01*
X173500Y36700D02*
Y47700D01*
X193400Y42200D02*
X204400D01*
X198900Y36700D02*
Y47700D01*
X142600Y42200D02*
X153600D01*
X148100Y36700D02*
Y47700D01*
X41000Y42200D02*
X52000D01*
X46500Y36700D02*
Y47700D01*
X15600Y42200D02*
X26600D01*
X21100Y36700D02*
Y47700D01*
X176000Y100000D02*
X194000D01*
X185000Y91000D02*
Y109000D01*
X26000Y100000D02*
X44000D01*
X35000Y91000D02*
Y109000D01*
X67250Y66250D02*
X70250D01*
X68750Y64750D02*
Y67750D01*
X96000Y68750D02*
X99000D01*
X97500Y67250D02*
Y70250D01*
X53750Y329250D02*
X56750D01*
X55250Y327750D02*
Y330750D01*
X23750Y330750D02*
X26750D01*
X25250Y329250D02*
Y332250D01*
X23750Y356750D02*
X26750D01*
X25250Y355250D02*
Y358250D01*
X56250Y359500D02*
X59250D01*
X57750Y358000D02*
Y361000D01*
X6000Y391500D02*
X9000D01*
X7500Y390000D02*
Y393000D01*
X199500Y391500D02*
X202500D01*
X201000Y390000D02*
Y393000D01*
X199500Y376500D02*
X202500D01*
X201000Y375000D02*
Y378000D01*
X199500Y361500D02*
X202500D01*
X201000Y360000D02*
Y363000D01*
X199500Y346500D02*
X202500D01*
X201000Y345000D02*
Y348000D01*
X199500Y331500D02*
X202500D01*
X201000Y330000D02*
Y333000D01*
X199500Y316500D02*
X202500D01*
X201000Y315000D02*
Y318000D01*
X199500Y301500D02*
X202500D01*
X201000Y300000D02*
Y303000D01*
X199500Y286500D02*
X202500D01*
X201000Y285000D02*
Y288000D01*
X199500Y271500D02*
X202500D01*
X201000Y270000D02*
Y273000D01*
X199500Y256500D02*
X202500D01*
X201000Y255000D02*
Y258000D01*
X199500Y241500D02*
X202500D01*
X201000Y240000D02*
Y243000D01*
X199500Y226500D02*
X202500D01*
X201000Y225000D02*
Y228000D01*
X184500Y391500D02*
X187500D01*
X186000Y390000D02*
Y393000D01*
X184500Y376500D02*
X187500D01*
X186000Y375000D02*
Y378000D01*
X184500Y361500D02*
X187500D01*
X186000Y360000D02*
Y363000D01*
X184500Y346500D02*
X187500D01*
X186000Y345000D02*
Y348000D01*
X184500Y331500D02*
X187500D01*
X186000Y330000D02*
Y333000D01*
X184500Y316500D02*
X187500D01*
X186000Y315000D02*
Y318000D01*
X184500Y301500D02*
X187500D01*
X186000Y300000D02*
Y303000D01*
X184500Y286500D02*
X187500D01*
X186000Y285000D02*
Y288000D01*
X184500Y271500D02*
X187500D01*
X186000Y270000D02*
Y273000D01*
X184500Y256500D02*
X187500D01*
X186000Y255000D02*
Y258000D01*
X184500Y241500D02*
X187500D01*
X186000Y240000D02*
Y243000D01*
X184500Y226500D02*
X187500D01*
X186000Y225000D02*
Y228000D01*
X169500Y391500D02*
X172500D01*
X171000Y390000D02*
Y393000D01*
X169500Y376500D02*
X172500D01*
X171000Y375000D02*
Y378000D01*
X169500Y361500D02*
X172500D01*
X171000Y360000D02*
Y363000D01*
X169500Y346500D02*
X172500D01*
X171000Y345000D02*
Y348000D01*
X169500Y331500D02*
X172500D01*
X171000Y330000D02*
Y333000D01*
X169500Y316500D02*
X172500D01*
X171000Y315000D02*
Y318000D01*
X169500Y301500D02*
X172500D01*
X171000Y300000D02*
Y303000D01*
X169500Y286500D02*
X172500D01*
X171000Y285000D02*
Y288000D01*
X169500Y271500D02*
X172500D01*
X171000Y270000D02*
Y273000D01*
X169500Y256500D02*
X172500D01*
X171000Y255000D02*
Y258000D01*
X169500Y241500D02*
X172500D01*
X171000Y240000D02*
Y243000D01*
X169500Y226500D02*
X172500D01*
X171000Y225000D02*
Y228000D01*
X154500Y331500D02*
X157500D01*
X156000Y330000D02*
Y333000D01*
X154500Y316500D02*
X157500D01*
X156000Y315000D02*
Y318000D01*
X154500Y301500D02*
X157500D01*
X156000Y300000D02*
Y303000D01*
X154500Y286500D02*
X157500D01*
X156000Y285000D02*
Y288000D01*
X154500Y271500D02*
X157500D01*
X156000Y270000D02*
Y273000D01*
X154500Y256500D02*
X157500D01*
X156000Y255000D02*
Y258000D01*
X154500Y241500D02*
X157500D01*
X156000Y240000D02*
Y243000D01*
X139500Y331500D02*
X142500D01*
X141000Y330000D02*
Y333000D01*
X139500Y316500D02*
X142500D01*
X141000Y315000D02*
Y318000D01*
X139500Y301500D02*
X142500D01*
X141000Y300000D02*
Y303000D01*
X139500Y286500D02*
X142500D01*
X141000Y285000D02*
Y288000D01*
X139500Y271500D02*
X142500D01*
X141000Y270000D02*
Y273000D01*
X139500Y256500D02*
X142500D01*
X141000Y255000D02*
Y258000D01*
X124500Y301500D02*
X127500D01*
X126000Y300000D02*
Y303000D01*
X124500Y286500D02*
X127500D01*
X126000Y285000D02*
Y288000D01*
X124500Y271500D02*
X127500D01*
X126000Y270000D02*
Y273000D01*
X109500Y241500D02*
X112500D01*
X111000Y240000D02*
Y243000D01*
X109500Y226500D02*
X112500D01*
X111000Y225000D02*
Y228000D01*
X94500Y256500D02*
X97500D01*
X96000Y255000D02*
Y258000D01*
X94500Y241500D02*
X97500D01*
X96000Y240000D02*
Y243000D01*
X94500Y226500D02*
X97500D01*
X96000Y225000D02*
Y228000D01*
X79500Y301500D02*
X82500D01*
X81000Y300000D02*
Y303000D01*
X79500Y286500D02*
X82500D01*
X81000Y285000D02*
Y288000D01*
X79500Y271500D02*
X82500D01*
X81000Y270000D02*
Y273000D01*
X79500Y256500D02*
X82500D01*
X81000Y255000D02*
Y258000D01*
X79500Y241500D02*
X82500D01*
X81000Y240000D02*
Y243000D01*
X49500Y316500D02*
X52500D01*
X51000Y315000D02*
Y318000D01*
X49500Y301500D02*
X52500D01*
X51000Y300000D02*
Y303000D01*
X49500Y286500D02*
X52500D01*
X51000Y285000D02*
Y288000D01*
X49500Y271500D02*
X52500D01*
X51000Y270000D02*
Y273000D01*
X49500Y256500D02*
X52500D01*
X51000Y255000D02*
Y258000D01*
X49500Y241500D02*
X52500D01*
X51000Y240000D02*
Y243000D01*
X49500Y226500D02*
X52500D01*
X51000Y225000D02*
Y228000D01*
X34500Y346500D02*
X37500D01*
X36000Y345000D02*
Y348000D01*
X34500Y301500D02*
X37500D01*
X36000Y300000D02*
Y303000D01*
X34500Y286500D02*
X37500D01*
X36000Y285000D02*
Y288000D01*
X34500Y271500D02*
X37500D01*
X36000Y270000D02*
Y273000D01*
X34500Y256500D02*
X37500D01*
X36000Y255000D02*
Y258000D01*
X34500Y241500D02*
X37500D01*
X36000Y240000D02*
Y243000D01*
X34500Y226500D02*
X37500D01*
X36000Y225000D02*
Y228000D01*
X63000Y392750D02*
X66000D01*
X64500Y391250D02*
Y394250D01*
X70500Y392750D02*
X73500D01*
X72000Y391250D02*
Y394250D01*
X78000Y392750D02*
X81000D01*
X79500Y391250D02*
Y394250D01*
X87000Y392750D02*
X90000D01*
X88500Y391250D02*
Y394250D01*
X94500Y392750D02*
X97500D01*
X96000Y391250D02*
Y394250D01*
X102000Y392750D02*
X105000D01*
X103500Y391250D02*
Y394250D01*
X109500Y392750D02*
X112500D01*
X111000Y391250D02*
Y394250D01*
X124500Y346250D02*
X127500D01*
X126000Y344750D02*
Y347750D01*
X181500Y205500D02*
X184500D01*
X183000Y204000D02*
Y207000D01*
X211500Y204000D02*
X214500D01*
X213000Y202500D02*
Y205500D01*
X211500Y211500D02*
X214500D01*
X213000Y210000D02*
Y213000D01*
X211500Y226500D02*
X214500D01*
X213000Y225000D02*
Y228000D01*
X211500Y241500D02*
X214500D01*
X213000Y240000D02*
Y243000D01*
X211500Y256500D02*
X214500D01*
X213000Y255000D02*
Y258000D01*
X211500Y271500D02*
X214500D01*
X213000Y270000D02*
Y273000D01*
X211500Y286500D02*
X214500D01*
X213000Y285000D02*
Y288000D01*
X211500Y301500D02*
X214500D01*
X213000Y300000D02*
Y303000D01*
X211500Y316500D02*
X214500D01*
X213000Y315000D02*
Y318000D01*
X211500Y331500D02*
X214500D01*
X213000Y330000D02*
Y333000D01*
X210000Y346500D02*
X213000D01*
X211500Y345000D02*
Y348000D01*
Y361500D02*
X214500D01*
X213000Y360000D02*
Y363000D01*
X211500Y376500D02*
X214500D01*
X213000Y375000D02*
Y378000D01*
X211500Y391500D02*
X214500D01*
X213000Y390000D02*
Y393000D01*
X132000Y346250D02*
X135000D01*
X133500Y344750D02*
Y347750D01*
X139500Y346250D02*
X142500D01*
X141000Y344750D02*
Y347750D01*
X147000Y346250D02*
X150000D01*
X148500Y344750D02*
Y347750D01*
X154500Y346250D02*
X157500D01*
X156000Y344750D02*
Y347750D01*
X162000Y346250D02*
X165000D01*
X163500Y344750D02*
Y347750D01*
X169500Y354000D02*
X172500D01*
X171000Y352500D02*
Y355500D01*
X169500Y369000D02*
X172500D01*
X171000Y367500D02*
Y370500D01*
X169500Y384000D02*
X172500D01*
X171000Y382500D02*
Y385500D01*
X24750Y225000D02*
X27750D01*
X26250Y223500D02*
Y226500D01*
X126500Y156750D02*
X129500D01*
X128000Y155250D02*
Y158250D01*
X138500Y168750D02*
X141500D01*
X140000Y167250D02*
Y170250D01*
X106450Y331216D02*
X109450D01*
X107950Y329716D02*
Y332716D01*
X83400Y347960D02*
X86400D01*
X84900Y346460D02*
Y349460D01*
X76478Y331216D02*
X79478D01*
X77978Y329716D02*
Y332716D01*
X91500Y338729D02*
X94500D01*
X93000Y337229D02*
Y340229D01*
X83082Y335534D02*
X86082D01*
X84582Y334034D02*
Y337034D01*
X89500Y331459D02*
X92500D01*
X91000Y329959D02*
Y332959D01*
X95000Y161778D02*
X98000D01*
X96500Y160278D02*
Y163278D01*
X48792Y172212D02*
X51792D01*
X50292Y170712D02*
Y173712D01*
X30500Y179000D02*
X33500D01*
X32000Y177500D02*
Y180500D01*
X5104Y173228D02*
X8104D01*
X6604Y171728D02*
Y174728D01*
X109498Y85218D02*
X112498D01*
X110998Y83718D02*
Y86718D01*
X122452Y84074D02*
X125452D01*
X123952Y82574D02*
Y85574D01*
X169188Y176784D02*
X172188D01*
X170688Y175284D02*
Y178284D01*
X161500Y203000D02*
X164500D01*
X163000Y201500D02*
Y204500D01*
X171500Y203000D02*
X174500D01*
X173000Y201500D02*
Y204500D01*
X74500Y203000D02*
X77500D01*
X76000Y201500D02*
Y204500D01*
X64500Y203000D02*
X67500D01*
X66000Y201500D02*
Y204500D01*
X54500Y203000D02*
X57500D01*
X56000Y201500D02*
Y204500D01*
X38632Y203454D02*
X41632D01*
X40132Y201954D02*
Y204954D01*
X76500Y365460D02*
X79500D01*
X78000Y363960D02*
Y366960D01*
X119500Y334460D02*
X122500D01*
X121000Y332960D02*
Y335960D01*
X94200Y359460D02*
X97200D01*
X95700Y357960D02*
Y360960D01*
X99700Y364360D02*
X102700D01*
X101200Y362860D02*
Y365860D01*
X100750Y357960D02*
X103750D01*
X102250Y356460D02*
Y359460D01*
X83100Y357560D02*
X86100D01*
X84600Y356060D02*
Y359060D01*
X85114Y385572D02*
X88114D01*
X86614Y384072D02*
Y387072D01*
X107974Y385572D02*
X110974D01*
X109474Y384072D02*
Y387072D01*
X106750Y363710D02*
X109750D01*
X108250Y362210D02*
Y365210D01*
X92480Y385572D02*
X95480D01*
X93980Y384072D02*
Y387072D01*
X101000Y347960D02*
X104000D01*
X102500Y346460D02*
Y349460D01*
X78256Y385318D02*
X81256D01*
X79756Y383818D02*
Y386818D01*
X100862Y385572D02*
X103862D01*
X102362Y384072D02*
Y387072D01*
X107000Y370210D02*
X110000D01*
X108500Y368710D02*
Y371710D01*
X91500Y348160D02*
X94500D01*
X93000Y346660D02*
Y349660D01*
M02*
