G04*
G04 #@! TF.GenerationSoftware,Altium Limited,Altium Designer,21.6.4 (81)*
G04*
G04 Layer_Color=2752767*
%FSLAX44Y44*%
%MOMM*%
G71*
G04*
G04 #@! TF.SameCoordinates,8C3636EA-CFF2-41A9-9EC8-A279A3EE80BB*
G04*
G04*
G04 #@! TF.FilePolarity,Positive*
G04*
G01*
G75*
%ADD49C,0.0508*%
%ADD52C,0.0677*%
D49*
X134418Y87458D02*
Y91522D01*
X138482D01*
Y87458D01*
X134418D01*
Y107778D02*
Y111842D01*
X138482D01*
Y107778D01*
X134418D01*
X83618Y97618D02*
Y101682D01*
X87682D01*
Y97618D01*
X83618D01*
X185000Y97968D02*
X182968Y102032D01*
X187032D01*
X185000Y97968D01*
X35000D02*
X32968Y102032D01*
X37032D01*
X35000Y97968D01*
X68750Y64218D02*
X69766Y65234D01*
X70782D01*
X69766Y66250D01*
X70782Y67266D01*
X69766D01*
X68750Y68282D01*
X67734Y67266D01*
X66718D01*
X67734Y66250D01*
X66718Y65234D01*
X67734D01*
X68750Y64218D01*
X97500Y66718D02*
X98516Y67734D01*
X99532D01*
X98516Y68750D01*
X99532Y69766D01*
X98516D01*
X97500Y70782D01*
X96484Y69766D01*
X95468D01*
X96484Y68750D01*
X95468Y67734D01*
X96484D01*
X97500Y66718D01*
X55250Y327218D02*
X56266Y328234D01*
X57282D01*
X56266Y329250D01*
X57282Y330266D01*
X56266D01*
X55250Y331282D01*
X54234Y330266D01*
X53218D01*
X54234Y329250D01*
X53218Y328234D01*
X54234D01*
X55250Y327218D01*
X25250Y328718D02*
X26266Y329734D01*
X27282D01*
X26266Y330750D01*
X27282Y331766D01*
X26266D01*
X25250Y332782D01*
X24234Y331766D01*
X23218D01*
X24234Y330750D01*
X23218Y329734D01*
X24234D01*
X25250Y328718D01*
Y354718D02*
X26266Y355734D01*
X27282D01*
X26266Y356750D01*
X27282Y357766D01*
X26266D01*
X25250Y358782D01*
X24234Y357766D01*
X23218D01*
X24234Y356750D01*
X23218Y355734D01*
X24234D01*
X25250Y354718D01*
X57750Y357468D02*
X58766Y358484D01*
X59782D01*
X58766Y359500D01*
X59782Y360516D01*
X58766D01*
X57750Y361532D01*
X56734Y360516D01*
X55718D01*
X56734Y359500D01*
X55718Y358484D01*
X56734D01*
X57750Y357468D01*
X7500Y389468D02*
X8516Y390484D01*
X9532D01*
X8516Y391500D01*
X9532Y392516D01*
X8516D01*
X7500Y393532D01*
X6484Y392516D01*
X5468D01*
X6484Y391500D01*
X5468Y390484D01*
X6484D01*
X7500Y389468D01*
X201000D02*
X202016Y390484D01*
X203032D01*
X202016Y391500D01*
X203032Y392516D01*
X202016D01*
X201000Y393532D01*
X199984Y392516D01*
X198968D01*
X199984Y391500D01*
X198968Y390484D01*
X199984D01*
X201000Y389468D01*
Y374468D02*
X202016Y375484D01*
X203032D01*
X202016Y376500D01*
X203032Y377516D01*
X202016D01*
X201000Y378532D01*
X199984Y377516D01*
X198968D01*
X199984Y376500D01*
X198968Y375484D01*
X199984D01*
X201000Y374468D01*
Y359468D02*
X202016Y360484D01*
X203032D01*
X202016Y361500D01*
X203032Y362516D01*
X202016D01*
X201000Y363532D01*
X199984Y362516D01*
X198968D01*
X199984Y361500D01*
X198968Y360484D01*
X199984D01*
X201000Y359468D01*
Y344468D02*
X202016Y345484D01*
X203032D01*
X202016Y346500D01*
X203032Y347516D01*
X202016D01*
X201000Y348532D01*
X199984Y347516D01*
X198968D01*
X199984Y346500D01*
X198968Y345484D01*
X199984D01*
X201000Y344468D01*
Y329468D02*
X202016Y330484D01*
X203032D01*
X202016Y331500D01*
X203032Y332516D01*
X202016D01*
X201000Y333532D01*
X199984Y332516D01*
X198968D01*
X199984Y331500D01*
X198968Y330484D01*
X199984D01*
X201000Y329468D01*
Y314468D02*
X202016Y315484D01*
X203032D01*
X202016Y316500D01*
X203032Y317516D01*
X202016D01*
X201000Y318532D01*
X199984Y317516D01*
X198968D01*
X199984Y316500D01*
X198968Y315484D01*
X199984D01*
X201000Y314468D01*
Y299468D02*
X202016Y300484D01*
X203032D01*
X202016Y301500D01*
X203032Y302516D01*
X202016D01*
X201000Y303532D01*
X199984Y302516D01*
X198968D01*
X199984Y301500D01*
X198968Y300484D01*
X199984D01*
X201000Y299468D01*
Y284468D02*
X202016Y285484D01*
X203032D01*
X202016Y286500D01*
X203032Y287516D01*
X202016D01*
X201000Y288532D01*
X199984Y287516D01*
X198968D01*
X199984Y286500D01*
X198968Y285484D01*
X199984D01*
X201000Y284468D01*
Y269468D02*
X202016Y270484D01*
X203032D01*
X202016Y271500D01*
X203032Y272516D01*
X202016D01*
X201000Y273532D01*
X199984Y272516D01*
X198968D01*
X199984Y271500D01*
X198968Y270484D01*
X199984D01*
X201000Y269468D01*
Y254468D02*
X202016Y255484D01*
X203032D01*
X202016Y256500D01*
X203032Y257516D01*
X202016D01*
X201000Y258532D01*
X199984Y257516D01*
X198968D01*
X199984Y256500D01*
X198968Y255484D01*
X199984D01*
X201000Y254468D01*
Y239468D02*
X202016Y240484D01*
X203032D01*
X202016Y241500D01*
X203032Y242516D01*
X202016D01*
X201000Y243532D01*
X199984Y242516D01*
X198968D01*
X199984Y241500D01*
X198968Y240484D01*
X199984D01*
X201000Y239468D01*
Y224468D02*
X202016Y225484D01*
X203032D01*
X202016Y226500D01*
X203032Y227516D01*
X202016D01*
X201000Y228532D01*
X199984Y227516D01*
X198968D01*
X199984Y226500D01*
X198968Y225484D01*
X199984D01*
X201000Y224468D01*
X186000Y389468D02*
X187016Y390484D01*
X188032D01*
X187016Y391500D01*
X188032Y392516D01*
X187016D01*
X186000Y393532D01*
X184984Y392516D01*
X183968D01*
X184984Y391500D01*
X183968Y390484D01*
X184984D01*
X186000Y389468D01*
Y374468D02*
X187016Y375484D01*
X188032D01*
X187016Y376500D01*
X188032Y377516D01*
X187016D01*
X186000Y378532D01*
X184984Y377516D01*
X183968D01*
X184984Y376500D01*
X183968Y375484D01*
X184984D01*
X186000Y374468D01*
Y359468D02*
X187016Y360484D01*
X188032D01*
X187016Y361500D01*
X188032Y362516D01*
X187016D01*
X186000Y363532D01*
X184984Y362516D01*
X183968D01*
X184984Y361500D01*
X183968Y360484D01*
X184984D01*
X186000Y359468D01*
Y344468D02*
X187016Y345484D01*
X188032D01*
X187016Y346500D01*
X188032Y347516D01*
X187016D01*
X186000Y348532D01*
X184984Y347516D01*
X183968D01*
X184984Y346500D01*
X183968Y345484D01*
X184984D01*
X186000Y344468D01*
Y329468D02*
X187016Y330484D01*
X188032D01*
X187016Y331500D01*
X188032Y332516D01*
X187016D01*
X186000Y333532D01*
X184984Y332516D01*
X183968D01*
X184984Y331500D01*
X183968Y330484D01*
X184984D01*
X186000Y329468D01*
Y314468D02*
X187016Y315484D01*
X188032D01*
X187016Y316500D01*
X188032Y317516D01*
X187016D01*
X186000Y318532D01*
X184984Y317516D01*
X183968D01*
X184984Y316500D01*
X183968Y315484D01*
X184984D01*
X186000Y314468D01*
Y299468D02*
X187016Y300484D01*
X188032D01*
X187016Y301500D01*
X188032Y302516D01*
X187016D01*
X186000Y303532D01*
X184984Y302516D01*
X183968D01*
X184984Y301500D01*
X183968Y300484D01*
X184984D01*
X186000Y299468D01*
Y284468D02*
X187016Y285484D01*
X188032D01*
X187016Y286500D01*
X188032Y287516D01*
X187016D01*
X186000Y288532D01*
X184984Y287516D01*
X183968D01*
X184984Y286500D01*
X183968Y285484D01*
X184984D01*
X186000Y284468D01*
Y269468D02*
X187016Y270484D01*
X188032D01*
X187016Y271500D01*
X188032Y272516D01*
X187016D01*
X186000Y273532D01*
X184984Y272516D01*
X183968D01*
X184984Y271500D01*
X183968Y270484D01*
X184984D01*
X186000Y269468D01*
Y254468D02*
X187016Y255484D01*
X188032D01*
X187016Y256500D01*
X188032Y257516D01*
X187016D01*
X186000Y258532D01*
X184984Y257516D01*
X183968D01*
X184984Y256500D01*
X183968Y255484D01*
X184984D01*
X186000Y254468D01*
Y239468D02*
X187016Y240484D01*
X188032D01*
X187016Y241500D01*
X188032Y242516D01*
X187016D01*
X186000Y243532D01*
X184984Y242516D01*
X183968D01*
X184984Y241500D01*
X183968Y240484D01*
X184984D01*
X186000Y239468D01*
Y224468D02*
X187016Y225484D01*
X188032D01*
X187016Y226500D01*
X188032Y227516D01*
X187016D01*
X186000Y228532D01*
X184984Y227516D01*
X183968D01*
X184984Y226500D01*
X183968Y225484D01*
X184984D01*
X186000Y224468D01*
X171000Y389468D02*
X172016Y390484D01*
X173032D01*
X172016Y391500D01*
X173032Y392516D01*
X172016D01*
X171000Y393532D01*
X169984Y392516D01*
X168968D01*
X169984Y391500D01*
X168968Y390484D01*
X169984D01*
X171000Y389468D01*
Y374468D02*
X172016Y375484D01*
X173032D01*
X172016Y376500D01*
X173032Y377516D01*
X172016D01*
X171000Y378532D01*
X169984Y377516D01*
X168968D01*
X169984Y376500D01*
X168968Y375484D01*
X169984D01*
X171000Y374468D01*
Y359468D02*
X172016Y360484D01*
X173032D01*
X172016Y361500D01*
X173032Y362516D01*
X172016D01*
X171000Y363532D01*
X169984Y362516D01*
X168968D01*
X169984Y361500D01*
X168968Y360484D01*
X169984D01*
X171000Y359468D01*
Y344468D02*
X172016Y345484D01*
X173032D01*
X172016Y346500D01*
X173032Y347516D01*
X172016D01*
X171000Y348532D01*
X169984Y347516D01*
X168968D01*
X169984Y346500D01*
X168968Y345484D01*
X169984D01*
X171000Y344468D01*
Y329468D02*
X172016Y330484D01*
X173032D01*
X172016Y331500D01*
X173032Y332516D01*
X172016D01*
X171000Y333532D01*
X169984Y332516D01*
X168968D01*
X169984Y331500D01*
X168968Y330484D01*
X169984D01*
X171000Y329468D01*
Y314468D02*
X172016Y315484D01*
X173032D01*
X172016Y316500D01*
X173032Y317516D01*
X172016D01*
X171000Y318532D01*
X169984Y317516D01*
X168968D01*
X169984Y316500D01*
X168968Y315484D01*
X169984D01*
X171000Y314468D01*
Y299468D02*
X172016Y300484D01*
X173032D01*
X172016Y301500D01*
X173032Y302516D01*
X172016D01*
X171000Y303532D01*
X169984Y302516D01*
X168968D01*
X169984Y301500D01*
X168968Y300484D01*
X169984D01*
X171000Y299468D01*
Y284468D02*
X172016Y285484D01*
X173032D01*
X172016Y286500D01*
X173032Y287516D01*
X172016D01*
X171000Y288532D01*
X169984Y287516D01*
X168968D01*
X169984Y286500D01*
X168968Y285484D01*
X169984D01*
X171000Y284468D01*
Y269468D02*
X172016Y270484D01*
X173032D01*
X172016Y271500D01*
X173032Y272516D01*
X172016D01*
X171000Y273532D01*
X169984Y272516D01*
X168968D01*
X169984Y271500D01*
X168968Y270484D01*
X169984D01*
X171000Y269468D01*
Y254468D02*
X172016Y255484D01*
X173032D01*
X172016Y256500D01*
X173032Y257516D01*
X172016D01*
X171000Y258532D01*
X169984Y257516D01*
X168968D01*
X169984Y256500D01*
X168968Y255484D01*
X169984D01*
X171000Y254468D01*
Y239468D02*
X172016Y240484D01*
X173032D01*
X172016Y241500D01*
X173032Y242516D01*
X172016D01*
X171000Y243532D01*
X169984Y242516D01*
X168968D01*
X169984Y241500D01*
X168968Y240484D01*
X169984D01*
X171000Y239468D01*
Y224468D02*
X172016Y225484D01*
X173032D01*
X172016Y226500D01*
X173032Y227516D01*
X172016D01*
X171000Y228532D01*
X169984Y227516D01*
X168968D01*
X169984Y226500D01*
X168968Y225484D01*
X169984D01*
X171000Y224468D01*
X156000Y329468D02*
X157016Y330484D01*
X158032D01*
X157016Y331500D01*
X158032Y332516D01*
X157016D01*
X156000Y333532D01*
X154984Y332516D01*
X153968D01*
X154984Y331500D01*
X153968Y330484D01*
X154984D01*
X156000Y329468D01*
Y314468D02*
X157016Y315484D01*
X158032D01*
X157016Y316500D01*
X158032Y317516D01*
X157016D01*
X156000Y318532D01*
X154984Y317516D01*
X153968D01*
X154984Y316500D01*
X153968Y315484D01*
X154984D01*
X156000Y314468D01*
Y299468D02*
X157016Y300484D01*
X158032D01*
X157016Y301500D01*
X158032Y302516D01*
X157016D01*
X156000Y303532D01*
X154984Y302516D01*
X153968D01*
X154984Y301500D01*
X153968Y300484D01*
X154984D01*
X156000Y299468D01*
Y284468D02*
X157016Y285484D01*
X158032D01*
X157016Y286500D01*
X158032Y287516D01*
X157016D01*
X156000Y288532D01*
X154984Y287516D01*
X153968D01*
X154984Y286500D01*
X153968Y285484D01*
X154984D01*
X156000Y284468D01*
Y269468D02*
X157016Y270484D01*
X158032D01*
X157016Y271500D01*
X158032Y272516D01*
X157016D01*
X156000Y273532D01*
X154984Y272516D01*
X153968D01*
X154984Y271500D01*
X153968Y270484D01*
X154984D01*
X156000Y269468D01*
Y254468D02*
X157016Y255484D01*
X158032D01*
X157016Y256500D01*
X158032Y257516D01*
X157016D01*
X156000Y258532D01*
X154984Y257516D01*
X153968D01*
X154984Y256500D01*
X153968Y255484D01*
X154984D01*
X156000Y254468D01*
Y239468D02*
X157016Y240484D01*
X158032D01*
X157016Y241500D01*
X158032Y242516D01*
X157016D01*
X156000Y243532D01*
X154984Y242516D01*
X153968D01*
X154984Y241500D01*
X153968Y240484D01*
X154984D01*
X156000Y239468D01*
X141000Y329468D02*
X142016Y330484D01*
X143032D01*
X142016Y331500D01*
X143032Y332516D01*
X142016D01*
X141000Y333532D01*
X139984Y332516D01*
X138968D01*
X139984Y331500D01*
X138968Y330484D01*
X139984D01*
X141000Y329468D01*
Y314468D02*
X142016Y315484D01*
X143032D01*
X142016Y316500D01*
X143032Y317516D01*
X142016D01*
X141000Y318532D01*
X139984Y317516D01*
X138968D01*
X139984Y316500D01*
X138968Y315484D01*
X139984D01*
X141000Y314468D01*
Y299468D02*
X142016Y300484D01*
X143032D01*
X142016Y301500D01*
X143032Y302516D01*
X142016D01*
X141000Y303532D01*
X139984Y302516D01*
X138968D01*
X139984Y301500D01*
X138968Y300484D01*
X139984D01*
X141000Y299468D01*
Y284468D02*
X142016Y285484D01*
X143032D01*
X142016Y286500D01*
X143032Y287516D01*
X142016D01*
X141000Y288532D01*
X139984Y287516D01*
X138968D01*
X139984Y286500D01*
X138968Y285484D01*
X139984D01*
X141000Y284468D01*
Y269468D02*
X142016Y270484D01*
X143032D01*
X142016Y271500D01*
X143032Y272516D01*
X142016D01*
X141000Y273532D01*
X139984Y272516D01*
X138968D01*
X139984Y271500D01*
X138968Y270484D01*
X139984D01*
X141000Y269468D01*
Y254468D02*
X142016Y255484D01*
X143032D01*
X142016Y256500D01*
X143032Y257516D01*
X142016D01*
X141000Y258532D01*
X139984Y257516D01*
X138968D01*
X139984Y256500D01*
X138968Y255484D01*
X139984D01*
X141000Y254468D01*
X126000Y299468D02*
X127016Y300484D01*
X128032D01*
X127016Y301500D01*
X128032Y302516D01*
X127016D01*
X126000Y303532D01*
X124984Y302516D01*
X123968D01*
X124984Y301500D01*
X123968Y300484D01*
X124984D01*
X126000Y299468D01*
Y284468D02*
X127016Y285484D01*
X128032D01*
X127016Y286500D01*
X128032Y287516D01*
X127016D01*
X126000Y288532D01*
X124984Y287516D01*
X123968D01*
X124984Y286500D01*
X123968Y285484D01*
X124984D01*
X126000Y284468D01*
Y269468D02*
X127016Y270484D01*
X128032D01*
X127016Y271500D01*
X128032Y272516D01*
X127016D01*
X126000Y273532D01*
X124984Y272516D01*
X123968D01*
X124984Y271500D01*
X123968Y270484D01*
X124984D01*
X126000Y269468D01*
X111000Y239468D02*
X112016Y240484D01*
X113032D01*
X112016Y241500D01*
X113032Y242516D01*
X112016D01*
X111000Y243532D01*
X109984Y242516D01*
X108968D01*
X109984Y241500D01*
X108968Y240484D01*
X109984D01*
X111000Y239468D01*
Y224468D02*
X112016Y225484D01*
X113032D01*
X112016Y226500D01*
X113032Y227516D01*
X112016D01*
X111000Y228532D01*
X109984Y227516D01*
X108968D01*
X109984Y226500D01*
X108968Y225484D01*
X109984D01*
X111000Y224468D01*
X96000Y254468D02*
X97016Y255484D01*
X98032D01*
X97016Y256500D01*
X98032Y257516D01*
X97016D01*
X96000Y258532D01*
X94984Y257516D01*
X93968D01*
X94984Y256500D01*
X93968Y255484D01*
X94984D01*
X96000Y254468D01*
Y239468D02*
X97016Y240484D01*
X98032D01*
X97016Y241500D01*
X98032Y242516D01*
X97016D01*
X96000Y243532D01*
X94984Y242516D01*
X93968D01*
X94984Y241500D01*
X93968Y240484D01*
X94984D01*
X96000Y239468D01*
Y224468D02*
X97016Y225484D01*
X98032D01*
X97016Y226500D01*
X98032Y227516D01*
X97016D01*
X96000Y228532D01*
X94984Y227516D01*
X93968D01*
X94984Y226500D01*
X93968Y225484D01*
X94984D01*
X96000Y224468D01*
X81000Y299468D02*
X82016Y300484D01*
X83032D01*
X82016Y301500D01*
X83032Y302516D01*
X82016D01*
X81000Y303532D01*
X79984Y302516D01*
X78968D01*
X79984Y301500D01*
X78968Y300484D01*
X79984D01*
X81000Y299468D01*
Y284468D02*
X82016Y285484D01*
X83032D01*
X82016Y286500D01*
X83032Y287516D01*
X82016D01*
X81000Y288532D01*
X79984Y287516D01*
X78968D01*
X79984Y286500D01*
X78968Y285484D01*
X79984D01*
X81000Y284468D01*
Y269468D02*
X82016Y270484D01*
X83032D01*
X82016Y271500D01*
X83032Y272516D01*
X82016D01*
X81000Y273532D01*
X79984Y272516D01*
X78968D01*
X79984Y271500D01*
X78968Y270484D01*
X79984D01*
X81000Y269468D01*
Y254468D02*
X82016Y255484D01*
X83032D01*
X82016Y256500D01*
X83032Y257516D01*
X82016D01*
X81000Y258532D01*
X79984Y257516D01*
X78968D01*
X79984Y256500D01*
X78968Y255484D01*
X79984D01*
X81000Y254468D01*
Y239468D02*
X82016Y240484D01*
X83032D01*
X82016Y241500D01*
X83032Y242516D01*
X82016D01*
X81000Y243532D01*
X79984Y242516D01*
X78968D01*
X79984Y241500D01*
X78968Y240484D01*
X79984D01*
X81000Y239468D01*
X51000Y314468D02*
X52016Y315484D01*
X53032D01*
X52016Y316500D01*
X53032Y317516D01*
X52016D01*
X51000Y318532D01*
X49984Y317516D01*
X48968D01*
X49984Y316500D01*
X48968Y315484D01*
X49984D01*
X51000Y314468D01*
Y299468D02*
X52016Y300484D01*
X53032D01*
X52016Y301500D01*
X53032Y302516D01*
X52016D01*
X51000Y303532D01*
X49984Y302516D01*
X48968D01*
X49984Y301500D01*
X48968Y300484D01*
X49984D01*
X51000Y299468D01*
Y284468D02*
X52016Y285484D01*
X53032D01*
X52016Y286500D01*
X53032Y287516D01*
X52016D01*
X51000Y288532D01*
X49984Y287516D01*
X48968D01*
X49984Y286500D01*
X48968Y285484D01*
X49984D01*
X51000Y284468D01*
Y269468D02*
X52016Y270484D01*
X53032D01*
X52016Y271500D01*
X53032Y272516D01*
X52016D01*
X51000Y273532D01*
X49984Y272516D01*
X48968D01*
X49984Y271500D01*
X48968Y270484D01*
X49984D01*
X51000Y269468D01*
Y254468D02*
X52016Y255484D01*
X53032D01*
X52016Y256500D01*
X53032Y257516D01*
X52016D01*
X51000Y258532D01*
X49984Y257516D01*
X48968D01*
X49984Y256500D01*
X48968Y255484D01*
X49984D01*
X51000Y254468D01*
Y239468D02*
X52016Y240484D01*
X53032D01*
X52016Y241500D01*
X53032Y242516D01*
X52016D01*
X51000Y243532D01*
X49984Y242516D01*
X48968D01*
X49984Y241500D01*
X48968Y240484D01*
X49984D01*
X51000Y239468D01*
Y224468D02*
X52016Y225484D01*
X53032D01*
X52016Y226500D01*
X53032Y227516D01*
X52016D01*
X51000Y228532D01*
X49984Y227516D01*
X48968D01*
X49984Y226500D01*
X48968Y225484D01*
X49984D01*
X51000Y224468D01*
X36000Y344468D02*
X37016Y345484D01*
X38032D01*
X37016Y346500D01*
X38032Y347516D01*
X37016D01*
X36000Y348532D01*
X34984Y347516D01*
X33968D01*
X34984Y346500D01*
X33968Y345484D01*
X34984D01*
X36000Y344468D01*
Y299468D02*
X37016Y300484D01*
X38032D01*
X37016Y301500D01*
X38032Y302516D01*
X37016D01*
X36000Y303532D01*
X34984Y302516D01*
X33968D01*
X34984Y301500D01*
X33968Y300484D01*
X34984D01*
X36000Y299468D01*
Y284468D02*
X37016Y285484D01*
X38032D01*
X37016Y286500D01*
X38032Y287516D01*
X37016D01*
X36000Y288532D01*
X34984Y287516D01*
X33968D01*
X34984Y286500D01*
X33968Y285484D01*
X34984D01*
X36000Y284468D01*
Y269468D02*
X37016Y270484D01*
X38032D01*
X37016Y271500D01*
X38032Y272516D01*
X37016D01*
X36000Y273532D01*
X34984Y272516D01*
X33968D01*
X34984Y271500D01*
X33968Y270484D01*
X34984D01*
X36000Y269468D01*
Y254468D02*
X37016Y255484D01*
X38032D01*
X37016Y256500D01*
X38032Y257516D01*
X37016D01*
X36000Y258532D01*
X34984Y257516D01*
X33968D01*
X34984Y256500D01*
X33968Y255484D01*
X34984D01*
X36000Y254468D01*
Y239468D02*
X37016Y240484D01*
X38032D01*
X37016Y241500D01*
X38032Y242516D01*
X37016D01*
X36000Y243532D01*
X34984Y242516D01*
X33968D01*
X34984Y241500D01*
X33968Y240484D01*
X34984D01*
X36000Y239468D01*
Y224468D02*
X37016Y225484D01*
X38032D01*
X37016Y226500D01*
X38032Y227516D01*
X37016D01*
X36000Y228532D01*
X34984Y227516D01*
X33968D01*
X34984Y226500D01*
X33968Y225484D01*
X34984D01*
X36000Y224468D01*
X64500Y390718D02*
X65516Y391734D01*
X66532D01*
X65516Y392750D01*
X66532Y393766D01*
X65516D01*
X64500Y394782D01*
X63484Y393766D01*
X62468D01*
X63484Y392750D01*
X62468Y391734D01*
X63484D01*
X64500Y390718D01*
X72000D02*
X73016Y391734D01*
X74032D01*
X73016Y392750D01*
X74032Y393766D01*
X73016D01*
X72000Y394782D01*
X70984Y393766D01*
X69968D01*
X70984Y392750D01*
X69968Y391734D01*
X70984D01*
X72000Y390718D01*
X79500D02*
X80516Y391734D01*
X81532D01*
X80516Y392750D01*
X81532Y393766D01*
X80516D01*
X79500Y394782D01*
X78484Y393766D01*
X77468D01*
X78484Y392750D01*
X77468Y391734D01*
X78484D01*
X79500Y390718D01*
X88500D02*
X89516Y391734D01*
X90532D01*
X89516Y392750D01*
X90532Y393766D01*
X89516D01*
X88500Y394782D01*
X87484Y393766D01*
X86468D01*
X87484Y392750D01*
X86468Y391734D01*
X87484D01*
X88500Y390718D01*
X96000D02*
X97016Y391734D01*
X98032D01*
X97016Y392750D01*
X98032Y393766D01*
X97016D01*
X96000Y394782D01*
X94984Y393766D01*
X93968D01*
X94984Y392750D01*
X93968Y391734D01*
X94984D01*
X96000Y390718D01*
X103500D02*
X104516Y391734D01*
X105532D01*
X104516Y392750D01*
X105532Y393766D01*
X104516D01*
X103500Y394782D01*
X102484Y393766D01*
X101468D01*
X102484Y392750D01*
X101468Y391734D01*
X102484D01*
X103500Y390718D01*
X111000D02*
X112016Y391734D01*
X113032D01*
X112016Y392750D01*
X113032Y393766D01*
X112016D01*
X111000Y394782D01*
X109984Y393766D01*
X108968D01*
X109984Y392750D01*
X108968Y391734D01*
X109984D01*
X111000Y390718D01*
X126000Y344218D02*
X127016Y345234D01*
X128032D01*
X127016Y346250D01*
X128032Y347266D01*
X127016D01*
X126000Y348282D01*
X124984Y347266D01*
X123968D01*
X124984Y346250D01*
X123968Y345234D01*
X124984D01*
X126000Y344218D01*
X183000Y203468D02*
X184016Y204484D01*
X185032D01*
X184016Y205500D01*
X185032Y206516D01*
X184016D01*
X183000Y207532D01*
X181984Y206516D01*
X180968D01*
X181984Y205500D01*
X180968Y204484D01*
X181984D01*
X183000Y203468D01*
X213000Y201968D02*
X214016Y202984D01*
X215032D01*
X214016Y204000D01*
X215032Y205016D01*
X214016D01*
X213000Y206032D01*
X211984Y205016D01*
X210968D01*
X211984Y204000D01*
X210968Y202984D01*
X211984D01*
X213000Y201968D01*
Y209468D02*
X214016Y210484D01*
X215032D01*
X214016Y211500D01*
X215032Y212516D01*
X214016D01*
X213000Y213532D01*
X211984Y212516D01*
X210968D01*
X211984Y211500D01*
X210968Y210484D01*
X211984D01*
X213000Y209468D01*
Y224468D02*
X214016Y225484D01*
X215032D01*
X214016Y226500D01*
X215032Y227516D01*
X214016D01*
X213000Y228532D01*
X211984Y227516D01*
X210968D01*
X211984Y226500D01*
X210968Y225484D01*
X211984D01*
X213000Y224468D01*
Y239468D02*
X214016Y240484D01*
X215032D01*
X214016Y241500D01*
X215032Y242516D01*
X214016D01*
X213000Y243532D01*
X211984Y242516D01*
X210968D01*
X211984Y241500D01*
X210968Y240484D01*
X211984D01*
X213000Y239468D01*
Y254468D02*
X214016Y255484D01*
X215032D01*
X214016Y256500D01*
X215032Y257516D01*
X214016D01*
X213000Y258532D01*
X211984Y257516D01*
X210968D01*
X211984Y256500D01*
X210968Y255484D01*
X211984D01*
X213000Y254468D01*
Y269468D02*
X214016Y270484D01*
X215032D01*
X214016Y271500D01*
X215032Y272516D01*
X214016D01*
X213000Y273532D01*
X211984Y272516D01*
X210968D01*
X211984Y271500D01*
X210968Y270484D01*
X211984D01*
X213000Y269468D01*
Y284468D02*
X214016Y285484D01*
X215032D01*
X214016Y286500D01*
X215032Y287516D01*
X214016D01*
X213000Y288532D01*
X211984Y287516D01*
X210968D01*
X211984Y286500D01*
X210968Y285484D01*
X211984D01*
X213000Y284468D01*
Y299468D02*
X214016Y300484D01*
X215032D01*
X214016Y301500D01*
X215032Y302516D01*
X214016D01*
X213000Y303532D01*
X211984Y302516D01*
X210968D01*
X211984Y301500D01*
X210968Y300484D01*
X211984D01*
X213000Y299468D01*
Y314468D02*
X214016Y315484D01*
X215032D01*
X214016Y316500D01*
X215032Y317516D01*
X214016D01*
X213000Y318532D01*
X211984Y317516D01*
X210968D01*
X211984Y316500D01*
X210968Y315484D01*
X211984D01*
X213000Y314468D01*
Y329468D02*
X214016Y330484D01*
X215032D01*
X214016Y331500D01*
X215032Y332516D01*
X214016D01*
X213000Y333532D01*
X211984Y332516D01*
X210968D01*
X211984Y331500D01*
X210968Y330484D01*
X211984D01*
X213000Y329468D01*
X211500Y344468D02*
X212516Y345484D01*
X213532D01*
X212516Y346500D01*
X213532Y347516D01*
X212516D01*
X211500Y348532D01*
X210484Y347516D01*
X209468D01*
X210484Y346500D01*
X209468Y345484D01*
X210484D01*
X211500Y344468D01*
X213000Y359468D02*
X214016Y360484D01*
X215032D01*
X214016Y361500D01*
X215032Y362516D01*
X214016D01*
X213000Y363532D01*
X211984Y362516D01*
X210968D01*
X211984Y361500D01*
X210968Y360484D01*
X211984D01*
X213000Y359468D01*
Y374468D02*
X214016Y375484D01*
X215032D01*
X214016Y376500D01*
X215032Y377516D01*
X214016D01*
X213000Y378532D01*
X211984Y377516D01*
X210968D01*
X211984Y376500D01*
X210968Y375484D01*
X211984D01*
X213000Y374468D01*
Y389468D02*
X214016Y390484D01*
X215032D01*
X214016Y391500D01*
X215032Y392516D01*
X214016D01*
X213000Y393532D01*
X211984Y392516D01*
X210968D01*
X211984Y391500D01*
X210968Y390484D01*
X211984D01*
X213000Y389468D01*
X133500Y344218D02*
X134516Y345234D01*
X135532D01*
X134516Y346250D01*
X135532Y347266D01*
X134516D01*
X133500Y348282D01*
X132484Y347266D01*
X131468D01*
X132484Y346250D01*
X131468Y345234D01*
X132484D01*
X133500Y344218D01*
X141000D02*
X142016Y345234D01*
X143032D01*
X142016Y346250D01*
X143032Y347266D01*
X142016D01*
X141000Y348282D01*
X139984Y347266D01*
X138968D01*
X139984Y346250D01*
X138968Y345234D01*
X139984D01*
X141000Y344218D01*
X148500D02*
X149516Y345234D01*
X150532D01*
X149516Y346250D01*
X150532Y347266D01*
X149516D01*
X148500Y348282D01*
X147484Y347266D01*
X146468D01*
X147484Y346250D01*
X146468Y345234D01*
X147484D01*
X148500Y344218D01*
X156000D02*
X157016Y345234D01*
X158032D01*
X157016Y346250D01*
X158032Y347266D01*
X157016D01*
X156000Y348282D01*
X154984Y347266D01*
X153968D01*
X154984Y346250D01*
X153968Y345234D01*
X154984D01*
X156000Y344218D01*
X163500D02*
X164516Y345234D01*
X165532D01*
X164516Y346250D01*
X165532Y347266D01*
X164516D01*
X163500Y348282D01*
X162484Y347266D01*
X161468D01*
X162484Y346250D01*
X161468Y345234D01*
X162484D01*
X163500Y344218D01*
X171000Y351968D02*
X172016Y352984D01*
X173032D01*
X172016Y354000D01*
X173032Y355016D01*
X172016D01*
X171000Y356032D01*
X169984Y355016D01*
X168968D01*
X169984Y354000D01*
X168968Y352984D01*
X169984D01*
X171000Y351968D01*
Y366968D02*
X172016Y367984D01*
X173032D01*
X172016Y369000D01*
X173032Y370016D01*
X172016D01*
X171000Y371032D01*
X169984Y370016D01*
X168968D01*
X169984Y369000D01*
X168968Y367984D01*
X169984D01*
X171000Y366968D01*
Y381968D02*
X172016Y382984D01*
X173032D01*
X172016Y384000D01*
X173032Y385016D01*
X172016D01*
X171000Y386032D01*
X169984Y385016D01*
X168968D01*
X169984Y384000D01*
X168968Y382984D01*
X169984D01*
X171000Y381968D01*
X26250Y222968D02*
X27266Y223984D01*
X28282D01*
X27266Y225000D01*
X28282Y226016D01*
X27266D01*
X26250Y227032D01*
X25234Y226016D01*
X24218D01*
X25234Y225000D01*
X24218Y223984D01*
X25234D01*
X26250Y222968D01*
X128000Y154718D02*
X129016Y155734D01*
X130032D01*
X129016Y156750D01*
X130032Y157766D01*
X129016D01*
X128000Y158782D01*
X126984Y157766D01*
X125968D01*
X126984Y156750D01*
X125968Y155734D01*
X126984D01*
X128000Y154718D01*
X140000Y166718D02*
X141016Y167734D01*
X142032D01*
X141016Y168750D01*
X142032Y169766D01*
X141016D01*
X140000Y170782D01*
X138984Y169766D01*
X137968D01*
X138984Y168750D01*
X137968Y167734D01*
X138984D01*
X140000Y166718D01*
X107950Y329184D02*
X108966Y330200D01*
X109982D01*
X108966Y331216D01*
X109982Y332232D01*
X108966D01*
X107950Y333248D01*
X106934Y332232D01*
X105918D01*
X106934Y331216D01*
X105918Y330200D01*
X106934D01*
X107950Y329184D01*
X84900Y345928D02*
X85916Y346944D01*
X86932D01*
X85916Y347960D01*
X86932Y348976D01*
X85916D01*
X84900Y349992D01*
X83884Y348976D01*
X82868D01*
X83884Y347960D01*
X82868Y346944D01*
X83884D01*
X84900Y345928D01*
X77978Y329184D02*
X78994Y330200D01*
X80010D01*
X78994Y331216D01*
X80010Y332232D01*
X78994D01*
X77978Y333248D01*
X76962Y332232D01*
X75946D01*
X76962Y331216D01*
X75946Y330200D01*
X76962D01*
X77978Y329184D01*
X93000Y336697D02*
X94016Y337713D01*
X95032D01*
X94016Y338729D01*
X95032Y339745D01*
X94016D01*
X93000Y340761D01*
X91984Y339745D01*
X90968D01*
X91984Y338729D01*
X90968Y337713D01*
X91984D01*
X93000Y336697D01*
X84582Y333502D02*
X85598Y334518D01*
X86614D01*
X85598Y335534D01*
X86614Y336550D01*
X85598D01*
X84582Y337566D01*
X83566Y336550D01*
X82550D01*
X83566Y335534D01*
X82550Y334518D01*
X83566D01*
X84582Y333502D01*
X91000Y329427D02*
X92016Y330443D01*
X93032D01*
X92016Y331459D01*
X93032Y332475D01*
X92016D01*
X91000Y333491D01*
X89984Y332475D01*
X88968D01*
X89984Y331459D01*
X88968Y330443D01*
X89984D01*
X91000Y329427D01*
X96500Y159746D02*
X97516Y160762D01*
X98532D01*
X97516Y161778D01*
X98532Y162794D01*
X97516D01*
X96500Y163810D01*
X95484Y162794D01*
X94468D01*
X95484Y161778D01*
X94468Y160762D01*
X95484D01*
X96500Y159746D01*
X50292Y170180D02*
X51308Y171196D01*
X52324D01*
X51308Y172212D01*
X52324Y173228D01*
X51308D01*
X50292Y174244D01*
X49276Y173228D01*
X48260D01*
X49276Y172212D01*
X48260Y171196D01*
X49276D01*
X50292Y170180D01*
X32000Y176968D02*
X33016Y177984D01*
X34032D01*
X33016Y179000D01*
X34032Y180016D01*
X33016D01*
X32000Y181032D01*
X30984Y180016D01*
X29968D01*
X30984Y179000D01*
X29968Y177984D01*
X30984D01*
X32000Y176968D01*
X6604Y171196D02*
X7620Y172212D01*
X8636D01*
X7620Y173228D01*
X8636Y174244D01*
X7620D01*
X6604Y175260D01*
X5588Y174244D01*
X4572D01*
X5588Y173228D01*
X4572Y172212D01*
X5588D01*
X6604Y171196D01*
X110998Y83186D02*
X112014Y84202D01*
X113030D01*
X112014Y85218D01*
X113030Y86234D01*
X112014D01*
X110998Y87250D01*
X109982Y86234D01*
X108966D01*
X109982Y85218D01*
X108966Y84202D01*
X109982D01*
X110998Y83186D01*
X123952Y82042D02*
X124968Y83058D01*
X125984D01*
X124968Y84074D01*
X125984Y85090D01*
X124968D01*
X123952Y86106D01*
X122936Y85090D01*
X121920D01*
X122936Y84074D01*
X121920Y83058D01*
X122936D01*
X123952Y82042D01*
X170688Y174752D02*
X171704Y175768D01*
X172720D01*
X171704Y176784D01*
X172720Y177800D01*
X171704D01*
X170688Y178816D01*
X169672Y177800D01*
X168656D01*
X169672Y176784D01*
X168656Y175768D01*
X169672D01*
X170688Y174752D01*
X163000Y200968D02*
X164016Y201984D01*
X165032D01*
X164016Y203000D01*
X165032Y204016D01*
X164016D01*
X163000Y205032D01*
X161984Y204016D01*
X160968D01*
X161984Y203000D01*
X160968Y201984D01*
X161984D01*
X163000Y200968D01*
X173000Y200968D02*
X174016Y201984D01*
X175032D01*
X174016Y203000D01*
X175032Y204016D01*
X174016D01*
X173000Y205032D01*
X171984Y204016D01*
X170968D01*
X171984Y203000D01*
X170968Y201984D01*
X171984D01*
X173000Y200968D01*
X76000Y200968D02*
X77016Y201984D01*
X78032D01*
X77016Y203000D01*
X78032Y204016D01*
X77016D01*
X76000Y205032D01*
X74984Y204016D01*
X73968D01*
X74984Y203000D01*
X73968Y201984D01*
X74984D01*
X76000Y200968D01*
X66000D02*
X67016Y201984D01*
X68032D01*
X67016Y203000D01*
X68032Y204016D01*
X67016D01*
X66000Y205032D01*
X64984Y204016D01*
X63968D01*
X64984Y203000D01*
X63968Y201984D01*
X64984D01*
X66000Y200968D01*
X56000D02*
X57016Y201984D01*
X58032D01*
X57016Y203000D01*
X58032Y204016D01*
X57016D01*
X56000Y205032D01*
X54984Y204016D01*
X53968D01*
X54984Y203000D01*
X53968Y201984D01*
X54984D01*
X56000Y200968D01*
X40132Y201422D02*
X41148Y202438D01*
X42164D01*
X41148Y203454D01*
X42164Y204470D01*
X41148D01*
X40132Y205486D01*
X39116Y204470D01*
X38100D01*
X39116Y203454D01*
X38100Y202438D01*
X39116D01*
X40132Y201422D01*
X78000Y363428D02*
X79016Y364444D01*
X80032D01*
X79016Y365460D01*
X80032Y366476D01*
X79016D01*
X78000Y367492D01*
X76984Y366476D01*
X75968D01*
X76984Y365460D01*
X75968Y364444D01*
X76984D01*
X78000Y363428D01*
X121000Y332428D02*
X122016Y333444D01*
X123032D01*
X122016Y334460D01*
X123032Y335476D01*
X122016D01*
X121000Y336492D01*
X119984Y335476D01*
X118968D01*
X119984Y334460D01*
X118968Y333444D01*
X119984D01*
X121000Y332428D01*
X95700Y357428D02*
X96716Y358444D01*
X97732D01*
X96716Y359460D01*
X97732Y360476D01*
X96716D01*
X95700Y361492D01*
X94684Y360476D01*
X93668D01*
X94684Y359460D01*
X93668Y358444D01*
X94684D01*
X95700Y357428D01*
X101200Y362328D02*
X102216Y363344D01*
X103232D01*
X102216Y364360D01*
X103232Y365376D01*
X102216D01*
X101200Y366392D01*
X100184Y365376D01*
X99168D01*
X100184Y364360D01*
X99168Y363344D01*
X100184D01*
X101200Y362328D01*
X102250Y355928D02*
X103266Y356944D01*
X104282D01*
X103266Y357960D01*
X104282Y358976D01*
X103266D01*
X102250Y359992D01*
X101234Y358976D01*
X100218D01*
X101234Y357960D01*
X100218Y356944D01*
X101234D01*
X102250Y355928D01*
X84600Y355528D02*
X85616Y356544D01*
X86632D01*
X85616Y357560D01*
X86632Y358576D01*
X85616D01*
X84600Y359592D01*
X83584Y358576D01*
X82568D01*
X83584Y357560D01*
X82568Y356544D01*
X83584D01*
X84600Y355528D01*
X86614Y383540D02*
X87630Y384556D01*
X88646D01*
X87630Y385572D01*
X88646Y386588D01*
X87630D01*
X86614Y387604D01*
X85598Y386588D01*
X84582D01*
X85598Y385572D01*
X84582Y384556D01*
X85598D01*
X86614Y383540D01*
X109474D02*
X110490Y384556D01*
X111506D01*
X110490Y385572D01*
X111506Y386588D01*
X110490D01*
X109474Y387604D01*
X108458Y386588D01*
X107442D01*
X108458Y385572D01*
X107442Y384556D01*
X108458D01*
X109474Y383540D01*
X108250Y361678D02*
X109266Y362694D01*
X110282D01*
X109266Y363710D01*
X110282Y364726D01*
X109266D01*
X108250Y365742D01*
X107234Y364726D01*
X106218D01*
X107234Y363710D01*
X106218Y362694D01*
X107234D01*
X108250Y361678D01*
X93980Y383540D02*
X94996Y384556D01*
X96012D01*
X94996Y385572D01*
X96012Y386588D01*
X94996D01*
X93980Y387604D01*
X92964Y386588D01*
X91948D01*
X92964Y385572D01*
X91948Y384556D01*
X92964D01*
X93980Y383540D01*
X102500Y345928D02*
X103516Y346944D01*
X104532D01*
X103516Y347960D01*
X104532Y348976D01*
X103516D01*
X102500Y349992D01*
X101484Y348976D01*
X100468D01*
X101484Y347960D01*
X100468Y346944D01*
X101484D01*
X102500Y345928D01*
X79756Y383286D02*
X80772Y384302D01*
X81788D01*
X80772Y385318D01*
X81788Y386334D01*
X80772D01*
X79756Y387350D01*
X78740Y386334D01*
X77724D01*
X78740Y385318D01*
X77724Y384302D01*
X78740D01*
X79756Y383286D01*
X102362Y383540D02*
X103378Y384556D01*
X104394D01*
X103378Y385572D01*
X104394Y386588D01*
X103378D01*
X102362Y387604D01*
X101346Y386588D01*
X100330D01*
X101346Y385572D01*
X100330Y384556D01*
X101346D01*
X102362Y383540D01*
X108500Y368178D02*
X109516Y369194D01*
X110532D01*
X109516Y370210D01*
X110532Y371226D01*
X109516D01*
X108500Y372242D01*
X107484Y371226D01*
X106468D01*
X107484Y370210D01*
X106468Y369194D01*
X107484D01*
X108500Y368178D01*
X93000Y346128D02*
X94016Y347144D01*
X95032D01*
X94016Y348160D01*
X95032Y349176D01*
X94016D01*
X93000Y350192D01*
X91984Y349176D01*
X90968D01*
X91984Y348160D01*
X90968Y347144D01*
X91984D01*
X93000Y346128D01*
D52*
X73932Y42200D02*
G03*
X73932Y42200I-2032J0D01*
G01*
X99332D02*
G03*
X99332Y42200I-2032J0D01*
G01*
X124732D02*
G03*
X124732Y42200I-2032J0D01*
G01*
X175532D02*
G03*
X175532Y42200I-2032J0D01*
G01*
X200932D02*
G03*
X200932Y42200I-2032J0D01*
G01*
X150132D02*
G03*
X150132Y42200I-2032J0D01*
G01*
X48532D02*
G03*
X48532Y42200I-2032J0D01*
G01*
X23132D02*
G03*
X23132Y42200I-2032J0D01*
G01*
M02*
