G04*
G04 #@! TF.GenerationSoftware,Altium Limited,Altium Designer,21.6.4 (81)*
G04*
G04 Layer_Color=32768*
%FSLAX44Y44*%
%MOMM*%
G71*
G04*
G04 #@! TF.SameCoordinates,8C3636EA-CFF2-41A9-9EC8-A279A3EE80BB*
G04*
G04*
G04 #@! TF.FilePolarity,Positive*
G04*
G01*
G75*
%ADD48C,0.0500*%
%ADD49C,0.0508*%
D48*
X165250Y185500D02*
X160252D01*
Y187999D01*
X161085Y188832D01*
X162751D01*
X163584Y187999D01*
Y185500D01*
Y187166D02*
X165250Y188832D01*
Y190498D02*
Y192164D01*
Y191331D01*
X160252D01*
X161085Y190498D01*
X160252Y197996D02*
Y194664D01*
X162751D01*
X161918Y196330D01*
Y197163D01*
X162751Y197996D01*
X164417D01*
X165250Y197163D01*
Y195497D01*
X164417Y194664D01*
X44250Y185500D02*
X39252D01*
Y187999D01*
X40085Y188832D01*
X41751D01*
X42584Y187999D01*
Y185500D01*
Y187166D02*
X44250Y188832D01*
Y190498D02*
Y192164D01*
Y191331D01*
X39252D01*
X40085Y190498D01*
X44250Y197163D02*
X39252D01*
X41751Y194664D01*
Y197996D01*
X175250Y185500D02*
X170252D01*
Y187999D01*
X171085Y188832D01*
X172751D01*
X173584Y187999D01*
Y185500D01*
Y187166D02*
X175250Y188832D01*
Y190498D02*
Y192164D01*
Y191331D01*
X170252D01*
X171085Y190498D01*
X175250Y197996D02*
Y194664D01*
X171918Y197996D01*
X171085D01*
X170252Y197163D01*
Y195497D01*
X171085Y194664D01*
X19750Y196500D02*
X24748D01*
Y194001D01*
X23915Y193168D01*
X22249D01*
X21416Y194001D01*
Y196500D01*
Y194834D02*
X19750Y193168D01*
Y191502D02*
Y189835D01*
Y190669D01*
X24748D01*
X23915Y191502D01*
X19750Y187336D02*
Y185670D01*
Y186503D01*
X24748D01*
X23915Y187336D01*
X29750Y196500D02*
X34748D01*
Y194001D01*
X33915Y193168D01*
X32249D01*
X31416Y194001D01*
Y196500D01*
Y194834D02*
X29750Y193168D01*
Y191502D02*
Y189835D01*
Y190669D01*
X34748D01*
X33915Y191502D01*
Y187336D02*
X34748Y186503D01*
Y184837D01*
X33915Y184004D01*
X30583D01*
X29750Y184837D01*
Y186503D01*
X30583Y187336D01*
X33915D01*
X93750Y196500D02*
X98748D01*
Y194001D01*
X97915Y193168D01*
X96249D01*
X95416Y194001D01*
Y196500D01*
Y194834D02*
X93750Y193168D01*
X94583Y191502D02*
X93750Y190669D01*
Y189002D01*
X94583Y188169D01*
X97915D01*
X98748Y189002D01*
Y190669D01*
X97915Y191502D01*
X97082D01*
X96249Y190669D01*
Y188169D01*
X63750Y196500D02*
X68748D01*
Y194001D01*
X67915Y193168D01*
X66249D01*
X65416Y194001D01*
Y196500D01*
Y194834D02*
X63750Y193168D01*
X67915Y191502D02*
X68748Y190669D01*
Y189002D01*
X67915Y188169D01*
X67082D01*
X66249Y189002D01*
X65416Y188169D01*
X64583D01*
X63750Y189002D01*
Y190669D01*
X64583Y191502D01*
X65416D01*
X66249Y190669D01*
X67082Y191502D01*
X67915D01*
X66249Y190669D02*
Y189002D01*
X103750Y196500D02*
X108748D01*
Y194001D01*
X107915Y193168D01*
X106249D01*
X105416Y194001D01*
Y196500D01*
Y194834D02*
X103750Y193168D01*
X108748Y191502D02*
Y188169D01*
X107915D01*
X104583Y191502D01*
X103750D01*
X53750Y196500D02*
X58748D01*
Y194001D01*
X57915Y193168D01*
X56249D01*
X55416Y194001D01*
Y196500D01*
Y194834D02*
X53750Y193168D01*
X58748Y188169D02*
X57915Y189835D01*
X56249Y191502D01*
X54583D01*
X53750Y190669D01*
Y189002D01*
X54583Y188169D01*
X55416D01*
X56249Y189002D01*
Y191502D01*
X73750Y196500D02*
X78748D01*
Y194001D01*
X77915Y193168D01*
X76249D01*
X75416Y194001D01*
Y196500D01*
Y194834D02*
X73750Y193168D01*
X78748Y188169D02*
Y191502D01*
X76249D01*
X77082Y189835D01*
Y189002D01*
X76249Y188169D01*
X74583D01*
X73750Y189002D01*
Y190669D01*
X74583Y191502D01*
X83750Y196500D02*
X88748D01*
Y194001D01*
X87915Y193168D01*
X86249D01*
X85416Y194001D01*
Y196500D01*
Y194834D02*
X83750Y193168D01*
Y189002D02*
X88748D01*
X86249Y191502D01*
Y188169D01*
X169760Y96190D02*
Y106187D01*
X173092Y102854D01*
X176425Y106187D01*
Y96190D01*
X179757Y106187D02*
Y96190D01*
Y101188D01*
X186421D01*
Y106187D01*
Y96190D01*
X196418D02*
X189754D01*
X196418Y102854D01*
Y104521D01*
X194752Y106187D01*
X191420D01*
X189754Y104521D01*
X19760Y96190D02*
Y106187D01*
X23092Y102854D01*
X26425Y106187D01*
Y96190D01*
X29757Y106187D02*
Y96190D01*
Y101188D01*
X36421D01*
Y106187D01*
Y96190D01*
X39754D02*
X43086D01*
X41420D01*
Y106187D01*
X39754Y104521D01*
X141250Y196500D02*
X146248D01*
Y194001D01*
X145415Y193168D01*
X143749D01*
X142916Y194001D01*
Y196500D01*
Y194834D02*
X141250Y193168D01*
X145415Y191502D02*
X146248Y190669D01*
Y189002D01*
X145415Y188169D01*
X144582D01*
X143749Y189002D01*
Y189835D01*
Y189002D01*
X142916Y188169D01*
X142083D01*
X141250Y189002D01*
Y190669D01*
X142083Y191502D01*
X171997Y155496D02*
X169498Y157995D01*
X164499D01*
X162000Y155496D01*
Y152997D01*
X164499Y150498D01*
X169498D01*
X171997Y147998D01*
Y145499D01*
X169498Y143000D01*
X164499D01*
X162000Y145499D01*
X176995Y157995D02*
Y143000D01*
X181994Y147998D01*
X186992Y143000D01*
Y157995D01*
X201987Y143000D02*
X191990D01*
X201987Y152997D01*
Y155496D01*
X199488Y157995D01*
X194489D01*
X191990Y155496D01*
X45747Y357560D02*
X37750Y352228D01*
X45747D02*
X37750Y357560D01*
Y349563D02*
Y346897D01*
Y348230D01*
X45747D01*
X44415Y349563D01*
X113886Y141799D02*
Y149796D01*
X109887D01*
X108554Y148463D01*
Y143132D01*
X109887Y141799D01*
X113886D01*
X105889Y143132D02*
X104556Y141799D01*
X101890D01*
X100557Y143132D01*
Y144464D01*
X101890Y145797D01*
X103223D01*
X101890D01*
X100557Y147130D01*
Y148463D01*
X101890Y149796D01*
X104556D01*
X105889Y148463D01*
X21997Y155496D02*
X19498Y157995D01*
X14499D01*
X12000Y155496D01*
Y152997D01*
X14499Y150498D01*
X19498D01*
X21997Y147998D01*
Y145499D01*
X19498Y143000D01*
X14499D01*
X12000Y145499D01*
X26995Y157995D02*
Y143000D01*
X31994Y147998D01*
X36992Y143000D01*
Y157995D01*
X41990Y143000D02*
X46989D01*
X44489D01*
Y157995D01*
X41990Y155496D01*
X131000Y196500D02*
X135998D01*
Y194001D01*
X135165Y193168D01*
X133499D01*
X132666Y194001D01*
Y196500D01*
Y194834D02*
X131000Y193168D01*
Y188169D02*
Y191502D01*
X134332Y188169D01*
X135165D01*
X135998Y189002D01*
Y190669D01*
X135165Y191502D01*
X120750Y196500D02*
X125748D01*
Y194001D01*
X124915Y193168D01*
X123249D01*
X122416Y194001D01*
Y196500D01*
Y194834D02*
X120750Y193168D01*
Y191502D02*
Y189835D01*
Y190669D01*
X125748D01*
X124915Y191502D01*
D49*
X165000Y172498D02*
Y168000D01*
X167249D01*
X167999Y168750D01*
Y171749D01*
X167249Y172498D01*
X165000D01*
X172498Y168000D02*
X169499D01*
X172498Y170999D01*
Y171749D01*
X171748Y172498D01*
X170248D01*
X169499Y171749D01*
X15000Y172498D02*
Y168000D01*
X17249D01*
X17999Y168750D01*
Y171749D01*
X17249Y172498D01*
X15000D01*
X19498Y168000D02*
X20998D01*
X20248D01*
Y172498D01*
X19498Y171749D01*
M02*
