G04*
G04 #@! TF.GenerationSoftware,Altium Limited,Altium Designer,21.6.4 (81)*
G04*
G04 Layer_Color=32768*
%FSLAX44Y44*%
%MOMM*%
G71*
G04*
G04 #@! TF.SameCoordinates,8C3636EA-CFF2-41A9-9EC8-A279A3EE80BB*
G04*
G04*
G04 #@! TF.FilePolarity,Positive*
G04*
G01*
G75*
%ADD48C,0.0500*%
%ADD50C,0.1000*%
D48*
X135000Y312960D02*
Y382960D01*
X65000Y312960D02*
X135000D01*
X65000Y382960D02*
X135000D01*
X65000Y312960D02*
Y382960D01*
X100000Y342960D02*
Y352960D01*
X95000Y347960D02*
X105000D01*
X160000Y191000D02*
X166000D01*
X163000Y188000D02*
Y194000D01*
X167000Y183000D02*
Y199000D01*
X159000Y183000D02*
Y199000D01*
X167000D01*
X159000Y183000D02*
X167000D01*
X39000Y191000D02*
X45000D01*
X42000Y188000D02*
Y194000D01*
X46000Y183000D02*
Y199000D01*
X38000Y183000D02*
Y199000D01*
X46000D01*
X38000Y183000D02*
X46000D01*
X170000Y191000D02*
X176000D01*
X173000Y188000D02*
Y194000D01*
X177000Y183000D02*
Y199000D01*
X169000Y183000D02*
Y199000D01*
X177000D01*
X169000Y183000D02*
X177000D01*
X19000Y191000D02*
X25000D01*
X22000Y188000D02*
Y194000D01*
X18000Y183000D02*
Y199000D01*
X26000Y183000D02*
Y199000D01*
X18000Y183000D02*
X26000D01*
X18000Y199000D02*
X26000D01*
X29000Y191000D02*
X35000D01*
X32000Y188000D02*
Y194000D01*
X28000Y183000D02*
Y199000D01*
X36000Y183000D02*
Y199000D01*
X28000Y183000D02*
X36000D01*
X28000Y199000D02*
X36000D01*
X93000Y191000D02*
X99000D01*
X96000Y188000D02*
Y194000D01*
X92000Y183000D02*
Y199000D01*
X100000Y183000D02*
Y199000D01*
X92000Y183000D02*
X100000D01*
X92000Y199000D02*
X100000D01*
X63000Y191000D02*
X69000D01*
X66000Y188000D02*
Y194000D01*
X62000Y183000D02*
Y199000D01*
X70000Y183000D02*
Y199000D01*
X62000Y183000D02*
X70000D01*
X62000Y199000D02*
X70000D01*
X103000Y191000D02*
X109000D01*
X106000Y188000D02*
Y194000D01*
X102000Y183000D02*
Y199000D01*
X110000Y183000D02*
Y199000D01*
X102000Y183000D02*
X110000D01*
X102000Y199000D02*
X110000D01*
X53000Y191000D02*
X59000D01*
X56000Y188000D02*
Y194000D01*
X52000Y183000D02*
Y199000D01*
X60000Y183000D02*
Y199000D01*
X52000Y183000D02*
X60000D01*
X52000Y199000D02*
X60000D01*
X73000Y191000D02*
X79000D01*
X76000Y188000D02*
Y194000D01*
X72000Y183000D02*
Y199000D01*
X80000Y183000D02*
Y199000D01*
X72000Y183000D02*
X80000D01*
X72000Y199000D02*
X80000D01*
X83000Y191000D02*
X89000D01*
X86000Y188000D02*
Y194000D01*
X82000Y183000D02*
Y199000D01*
X90000Y183000D02*
Y199000D01*
X82000Y183000D02*
X90000D01*
X82000Y199000D02*
X90000D01*
X105000Y14500D02*
X115000D01*
X110000Y9500D02*
Y19500D01*
X4900Y52450D02*
X215100D01*
Y-60200D02*
Y52450D01*
X4900Y-60200D02*
X215100D01*
X4900D02*
Y52450D01*
X189500Y177000D02*
X202500D01*
X189500Y199000D02*
X202500D01*
X189500Y177000D02*
Y199000D01*
X202500Y177000D02*
Y199000D01*
X2500Y199000D02*
X15500D01*
X2500Y177000D02*
X15500D01*
Y199000D01*
X2500Y177000D02*
Y199000D01*
X25750Y323310D02*
X47750D01*
X25750Y311310D02*
X47750D01*
X25750D02*
Y323310D01*
X47750Y311310D02*
Y323310D01*
X164500Y166000D02*
Y174000D01*
X179000Y166000D02*
Y174000D01*
X164500D02*
X179000D01*
X164500Y166000D02*
X179000D01*
X169000Y170000D02*
X175250D01*
X172000Y166750D02*
Y172750D01*
X139500Y199000D02*
X147500D01*
X139500Y183000D02*
X147500D01*
Y199000D01*
X139500Y183000D02*
Y199000D01*
X143500Y188000D02*
Y194000D01*
X140500Y191000D02*
X146500D01*
X162000Y136250D02*
Y164000D01*
Y136250D02*
X208000D01*
Y164000D01*
X162000D02*
X208000D01*
X185000Y145000D02*
Y155000D01*
X180000Y150000D02*
X190000D01*
X36250Y344310D02*
X46250D01*
X41250Y339310D02*
Y349310D01*
X32000Y324310D02*
Y364310D01*
X50750Y324310D02*
Y364310D01*
X32000Y324310D02*
X50750D01*
X32000Y364310D02*
X50750D01*
X118886Y133796D02*
Y157796D01*
X88886D02*
X118886D01*
X88886Y133796D02*
Y157796D01*
Y133796D02*
X118886D01*
X103886Y140796D02*
Y150796D01*
X98886Y145796D02*
X108886D01*
X47750Y365310D02*
Y377310D01*
X25750Y365310D02*
Y377310D01*
Y365310D02*
X47750D01*
X25750Y377310D02*
X47750D01*
X30000Y150000D02*
X40000D01*
X35000Y145000D02*
Y155000D01*
X12000Y164000D02*
X58000D01*
Y136250D02*
Y164000D01*
X12000Y136250D02*
X58000D01*
X12000D02*
Y164000D01*
X130250Y191000D02*
X136250D01*
X133250Y188000D02*
Y194000D01*
X129250Y183000D02*
Y199000D01*
X137250Y183000D02*
Y199000D01*
X129250Y183000D02*
X137250D01*
X129250Y199000D02*
X137250D01*
X120000Y191000D02*
X126000D01*
X123000Y188000D02*
Y194000D01*
X119000Y183000D02*
Y199000D01*
X127000Y183000D02*
Y199000D01*
X119000Y183000D02*
X127000D01*
X119000Y199000D02*
X127000D01*
X22000Y166750D02*
Y172750D01*
X19000Y170000D02*
X25250D01*
X14500Y166000D02*
X29000D01*
X14500Y174000D02*
X29000D01*
Y166000D02*
Y174000D01*
X14500Y166000D02*
Y174000D01*
D50*
X196000Y183000D02*
Y193000D01*
X191000Y188000D02*
X201000D01*
X9000Y183000D02*
Y193000D01*
X4000Y188000D02*
X14000D01*
X36750Y314560D02*
Y320060D01*
X34000Y317310D02*
X39500D01*
X34000Y371310D02*
X39500D01*
X36750Y368560D02*
Y374060D01*
X110997Y346960D02*
X102666D01*
X101000Y345294D01*
Y341962D01*
X102666Y340295D01*
X110997D01*
X101000Y336963D02*
Y333631D01*
Y335297D01*
X110997D01*
X109331Y336963D01*
M02*
