G04*
G04 #@! TF.GenerationSoftware,Altium Limited,Altium Designer,21.6.4 (81)*
G04*
G04 Layer_Physical_Order=3*
G04 Layer_Color=16440176*
%FSLAX44Y44*%
%MOMM*%
G71*
G04*
G04 #@! TF.SameCoordinates,8C3636EA-CFF2-41A9-9EC8-A279A3EE80BB*
G04*
G04*
G04 #@! TF.FilePolarity,Positive*
G04*
G01*
G75*
%ADD42C,0.9000*%
%ADD43C,1.6500*%
%ADD44R,1.6500X1.6500*%
%ADD46C,0.6000*%
%ADD47C,2.1590*%
G36*
X215922Y200000D02*
X177478D01*
X176879Y201120D01*
X177022Y201334D01*
X177354Y203000D01*
X177022Y204666D01*
X176078Y206078D01*
X174666Y207022D01*
X173000Y207354D01*
X171334Y207022D01*
X169921Y206078D01*
X168978Y204666D01*
X168646Y203000D01*
X168976Y201343D01*
X168966Y201312D01*
X168366Y200213D01*
X167634D01*
X167034Y201312D01*
X167024Y201343D01*
X167354Y203000D01*
X167022Y204666D01*
X166078Y206078D01*
X164666Y207022D01*
X163000Y207354D01*
X161334Y207022D01*
X159922Y206078D01*
X158978Y204666D01*
X158646Y203000D01*
X158978Y201334D01*
X159121Y201120D01*
X158522Y200000D01*
X80478Y200000D01*
X79879Y201120D01*
X80022Y201334D01*
X80354Y203000D01*
X80022Y204666D01*
X79078Y206078D01*
X77666Y207022D01*
X76000Y207354D01*
X74334Y207022D01*
X72922Y206078D01*
X71978Y204666D01*
X71646Y203000D01*
X71976Y201342D01*
X71966Y201313D01*
X71366Y200213D01*
X70634D01*
X70034Y201313D01*
X70024Y201342D01*
X70354Y203000D01*
X70022Y204666D01*
X69078Y206078D01*
X67666Y207022D01*
X66000Y207354D01*
X64334Y207022D01*
X62922Y206078D01*
X61978Y204666D01*
X61646Y203000D01*
X61976Y201342D01*
X61966Y201313D01*
X61366Y200213D01*
X60634D01*
X60034Y201313D01*
X60024Y201342D01*
X60354Y203000D01*
X60022Y204666D01*
X59078Y206078D01*
X57666Y207022D01*
X56000Y207354D01*
X54334Y207022D01*
X52922Y206078D01*
X51978Y204666D01*
X51646Y203000D01*
X51978Y201334D01*
X52121Y201120D01*
X51522Y200000D01*
X44487D01*
X43808Y201270D01*
X44154Y201788D01*
X44486Y203454D01*
X44154Y205120D01*
X43211Y206532D01*
X41798Y207476D01*
X40132Y207808D01*
X38466Y207476D01*
X37053Y206532D01*
X36110Y205120D01*
X35778Y203454D01*
X36110Y201788D01*
X36456Y201270D01*
X35777Y200000D01*
X4078D01*
X4078Y395922D01*
X114200D01*
Y374560D01*
X116100D01*
Y344760D01*
X111000D01*
Y341160D01*
X102400D01*
Y338660D01*
X98000D01*
X98000Y334860D01*
X93596D01*
X92666Y335482D01*
X91000Y335813D01*
X90982Y335809D01*
X90000Y336615D01*
Y338660D01*
X87589D01*
X86248Y339556D01*
X84582Y339888D01*
X82916Y339556D01*
X82270Y339125D01*
X81000Y339804D01*
Y361460D01*
X93000Y361460D01*
Y373060D01*
X102600D01*
Y380460D01*
X89400D01*
Y372860D01*
X76700D01*
Y384960D01*
X64800D01*
Y312760D01*
X118000D01*
Y323960D01*
X120100D01*
Y329368D01*
X121000Y330106D01*
X122666Y330438D01*
X124079Y331381D01*
X125022Y332794D01*
X125354Y334460D01*
X125022Y336126D01*
X124079Y337538D01*
X122666Y338482D01*
X121000Y338814D01*
X120100Y339552D01*
Y349460D01*
X167300D01*
Y392460D01*
X123700D01*
Y374560D01*
X120100D01*
Y395922D01*
X215922D01*
X215922Y200000D01*
D02*
G37*
D42*
X136450Y89490D02*
D03*
Y109810D02*
D03*
X85650Y99650D02*
D03*
D43*
X71900Y42200D02*
D03*
X97300D02*
D03*
X122700D02*
D03*
X173500D02*
D03*
X148100D02*
D03*
X46500D02*
D03*
X21100D02*
D03*
D44*
X198900D02*
D03*
D46*
X68750Y66250D02*
D03*
X97500Y68750D02*
D03*
X55250Y329250D02*
D03*
X25250Y330750D02*
D03*
Y356750D02*
D03*
X57750Y359500D02*
D03*
X7500Y391500D02*
D03*
X201000D02*
D03*
Y376500D02*
D03*
Y361500D02*
D03*
Y346500D02*
D03*
Y331500D02*
D03*
Y316500D02*
D03*
Y301500D02*
D03*
Y286500D02*
D03*
Y271500D02*
D03*
Y256500D02*
D03*
Y241500D02*
D03*
Y226500D02*
D03*
X186000Y391500D02*
D03*
Y376500D02*
D03*
Y361500D02*
D03*
Y346500D02*
D03*
Y331500D02*
D03*
Y316500D02*
D03*
Y301500D02*
D03*
Y286500D02*
D03*
Y271500D02*
D03*
Y256500D02*
D03*
Y241500D02*
D03*
Y226500D02*
D03*
X171000Y391500D02*
D03*
Y376500D02*
D03*
Y361500D02*
D03*
Y346500D02*
D03*
Y331500D02*
D03*
Y316500D02*
D03*
Y301500D02*
D03*
Y286500D02*
D03*
Y271500D02*
D03*
Y256500D02*
D03*
Y241500D02*
D03*
Y226500D02*
D03*
X156000Y331500D02*
D03*
Y316500D02*
D03*
Y301500D02*
D03*
Y286500D02*
D03*
Y271500D02*
D03*
Y256500D02*
D03*
Y241500D02*
D03*
X141000Y331500D02*
D03*
Y316500D02*
D03*
Y301500D02*
D03*
Y286500D02*
D03*
Y271500D02*
D03*
Y256500D02*
D03*
X126000Y301500D02*
D03*
Y286500D02*
D03*
Y271500D02*
D03*
X111000Y241500D02*
D03*
Y226500D02*
D03*
X96000Y256500D02*
D03*
Y241500D02*
D03*
Y226500D02*
D03*
X81000Y301500D02*
D03*
Y286500D02*
D03*
Y271500D02*
D03*
Y256500D02*
D03*
Y241500D02*
D03*
X51000Y316500D02*
D03*
Y301500D02*
D03*
Y286500D02*
D03*
Y271500D02*
D03*
Y256500D02*
D03*
Y241500D02*
D03*
Y226500D02*
D03*
X36000Y346500D02*
D03*
Y301500D02*
D03*
Y286500D02*
D03*
Y271500D02*
D03*
Y256500D02*
D03*
Y241500D02*
D03*
Y226500D02*
D03*
X64500Y392750D02*
D03*
X72000D02*
D03*
X79500D02*
D03*
X88500D02*
D03*
X96000D02*
D03*
X103500D02*
D03*
X111000D02*
D03*
X126000Y346250D02*
D03*
X183000Y205500D02*
D03*
X213000Y204000D02*
D03*
Y211500D02*
D03*
Y226500D02*
D03*
Y241500D02*
D03*
Y256500D02*
D03*
Y271500D02*
D03*
Y286500D02*
D03*
Y301500D02*
D03*
Y316500D02*
D03*
Y331500D02*
D03*
X211500Y346500D02*
D03*
X213000Y361500D02*
D03*
Y376500D02*
D03*
Y391500D02*
D03*
X133500Y346250D02*
D03*
X141000D02*
D03*
X148500D02*
D03*
X156000D02*
D03*
X163500D02*
D03*
X171000Y354000D02*
D03*
Y369000D02*
D03*
Y384000D02*
D03*
X26250Y225000D02*
D03*
X128000Y156750D02*
D03*
X140000Y168750D02*
D03*
X107950Y331216D02*
D03*
X84900Y347960D02*
D03*
X77978Y331216D02*
D03*
X93000Y338729D02*
D03*
X84582Y335534D02*
D03*
X91000Y331459D02*
D03*
X96500Y161778D02*
D03*
X50292Y172212D02*
D03*
X32000Y179000D02*
D03*
X6604Y173228D02*
D03*
X110998Y85218D02*
D03*
X123952Y84074D02*
D03*
X170688Y176784D02*
D03*
X163000Y203000D02*
D03*
X173000Y203000D02*
D03*
X76000Y203000D02*
D03*
X66000D02*
D03*
X56000D02*
D03*
X40132Y203454D02*
D03*
X78000Y365460D02*
D03*
X121000Y334460D02*
D03*
X95700Y359460D02*
D03*
X101200Y364360D02*
D03*
X102250Y357960D02*
D03*
X84600Y357560D02*
D03*
X86614Y385572D02*
D03*
X109474D02*
D03*
X108250Y363710D02*
D03*
X93980Y385572D02*
D03*
X102500Y347960D02*
D03*
X79756Y385318D02*
D03*
X102362Y385572D02*
D03*
X108500Y370210D02*
D03*
X93000Y348160D02*
D03*
D47*
X185000Y100000D02*
D03*
X35000D02*
D03*
M02*
