G04*
G04 #@! TF.GenerationSoftware,Altium Limited,Altium Designer,21.6.4 (81)*
G04*
G04 Layer_Physical_Order=4*
G04 Layer_Color=16711680*
%FSLAX44Y44*%
%MOMM*%
G71*
G04*
G04 #@! TF.SameCoordinates,8C3636EA-CFF2-41A9-9EC8-A279A3EE80BB*
G04*
G04*
G04 #@! TF.FilePolarity,Positive*
G04*
G01*
G75*
%ADD10C,0.2540*%
%ADD39C,0.1520*%
%ADD41C,0.3500*%
%ADD42C,0.9000*%
%ADD43C,1.6500*%
%ADD44R,1.6500X1.6500*%
%ADD45C,3.4000*%
%ADD46C,0.6000*%
G36*
X114200Y374560D02*
X116100D01*
Y344760D01*
X111000D01*
Y341160D01*
X102400D01*
Y338660D01*
X98000D01*
X98000Y334860D01*
X93596D01*
X92666Y335482D01*
X91000Y335813D01*
X90982Y335809D01*
X90000Y336615D01*
Y338660D01*
X87589D01*
X86248Y339556D01*
X84582Y339888D01*
X82916Y339556D01*
X82270Y339125D01*
X81000Y339804D01*
Y361460D01*
X93000Y361460D01*
Y373060D01*
X102600D01*
Y380460D01*
X89400D01*
Y372860D01*
X76700D01*
Y384960D01*
X64800D01*
X64800Y384960D01*
Y384960D01*
X63630Y385297D01*
X62464Y386464D01*
X61792Y386912D01*
X61000Y387070D01*
X21000D01*
X20208Y386912D01*
X19536Y386464D01*
X14536Y381464D01*
X14088Y380792D01*
X13930Y380000D01*
Y227586D01*
X14088Y226794D01*
X14536Y226122D01*
X36015Y204644D01*
X35778Y203454D01*
X36110Y201788D01*
X36456Y201270D01*
X35777Y200000D01*
X4078D01*
X4078Y395922D01*
X114200D01*
Y374560D01*
D02*
G37*
G36*
X64800Y378273D02*
Y320965D01*
X60536Y316702D01*
X60088Y316030D01*
X59930Y315238D01*
Y209857D01*
X57190Y207117D01*
X56000Y207354D01*
X54334Y207022D01*
X52922Y206078D01*
X51978Y204666D01*
X51646Y203000D01*
X51978Y201334D01*
X52121Y201120D01*
X51522Y200000D01*
X44487D01*
X43808Y201270D01*
X44154Y201788D01*
X44486Y203454D01*
X44154Y205120D01*
X43211Y206532D01*
X41798Y207476D01*
X40132Y207808D01*
X38942Y207571D01*
X18070Y228443D01*
Y379143D01*
X21857Y382930D01*
X60143D01*
X64800Y378273D01*
D02*
G37*
G36*
X215922Y200000D02*
X177478D01*
X176879Y201120D01*
X177022Y201334D01*
X177354Y203000D01*
X177022Y204666D01*
X176078Y206078D01*
X174666Y207022D01*
X173000Y207354D01*
X172379Y207230D01*
X110020Y269589D01*
Y312760D01*
X118000D01*
Y323960D01*
X120100D01*
Y329368D01*
X121000Y330106D01*
X122666Y330438D01*
X124079Y331381D01*
X125022Y332794D01*
X125354Y334460D01*
X125022Y336126D01*
X124079Y337538D01*
X122666Y338482D01*
X121000Y338814D01*
X120100Y339552D01*
Y349460D01*
X167300D01*
Y395922D01*
X215922D01*
X215922Y200000D01*
D02*
G37*
G36*
X99784Y270146D02*
X99942Y269354D01*
X100391Y268682D01*
X160930Y208143D01*
Y206752D01*
X159922Y206078D01*
X158978Y204666D01*
X158646Y203000D01*
X158978Y201334D01*
X159121Y201120D01*
X158522Y200000D01*
X80478D01*
X79879Y201120D01*
X80022Y201334D01*
X80354Y203000D01*
X80022Y204666D01*
X79078Y206078D01*
X77666Y207022D01*
X76000Y207354D01*
X74810Y207117D01*
X72070Y209857D01*
Y309602D01*
X75228Y312760D01*
X99784D01*
Y270146D01*
D02*
G37*
G36*
X22969Y65381D02*
X21895D01*
Y68197D01*
X20569Y69476D01*
X17676Y65381D01*
X16257D01*
X19818Y70204D01*
X16403Y73501D01*
X17864D01*
X21895Y69471D01*
Y73501D01*
X22969D01*
Y65381D01*
D02*
G37*
G36*
X29276D02*
X24207D01*
Y66337D01*
X28203D01*
Y73501D01*
X29276D01*
Y65381D01*
D02*
G37*
G36*
X15183D02*
X14109D01*
Y73501D01*
X15183D01*
Y65381D01*
D02*
G37*
G36*
X9568Y73636D02*
X9714Y73630D01*
X9855Y73619D01*
X9996Y73601D01*
X10125Y73578D01*
X10248Y73554D01*
X10360Y73531D01*
X10465Y73501D01*
X10565Y73478D01*
X10653Y73449D01*
X10724Y73425D01*
X10788Y73408D01*
X10841Y73384D01*
X10876Y73372D01*
X10900Y73366D01*
X10905Y73361D01*
X11029Y73308D01*
X11140Y73249D01*
X11246Y73185D01*
X11345Y73120D01*
X11439Y73050D01*
X11522Y72985D01*
X11598Y72915D01*
X11662Y72850D01*
X11721Y72792D01*
X11774Y72733D01*
X11821Y72686D01*
X11856Y72639D01*
X11885Y72604D01*
X11903Y72574D01*
X11915Y72557D01*
X11920Y72551D01*
X11979Y72451D01*
X12032Y72346D01*
X12079Y72246D01*
X12120Y72146D01*
X12155Y72046D01*
X12185Y71952D01*
X12202Y71864D01*
X12226Y71776D01*
X12237Y71694D01*
X12249Y71624D01*
X12255Y71559D01*
X12261Y71507D01*
X12267Y71460D01*
Y71430D01*
Y71407D01*
Y71401D01*
X12261Y71295D01*
X12255Y71196D01*
X12220Y71008D01*
X12179Y70838D01*
X12149Y70761D01*
X12126Y70685D01*
X12097Y70620D01*
X12073Y70562D01*
X12050Y70515D01*
X12026Y70474D01*
X12009Y70439D01*
X11997Y70415D01*
X11991Y70398D01*
X11985Y70392D01*
X11926Y70310D01*
X11868Y70227D01*
X11727Y70081D01*
X11586Y69952D01*
X11445Y69846D01*
X11375Y69799D01*
X11316Y69758D01*
X11257Y69717D01*
X11211Y69688D01*
X11170Y69664D01*
X11140Y69647D01*
X11123Y69641D01*
X11117Y69635D01*
X11023Y69588D01*
X10923Y69547D01*
X10806Y69500D01*
X10682Y69453D01*
X10424Y69365D01*
X10166Y69289D01*
X10049Y69253D01*
X9931Y69224D01*
X9826Y69195D01*
X9738Y69171D01*
X9662Y69154D01*
X9603Y69136D01*
X9585Y69130D01*
X9568D01*
X9562Y69124D01*
X9556D01*
X9356Y69077D01*
X9175Y69030D01*
X9004Y68989D01*
X8858Y68948D01*
X8723Y68913D01*
X8605Y68884D01*
X8506Y68854D01*
X8412Y68825D01*
X8335Y68802D01*
X8271Y68784D01*
X8224Y68766D01*
X8183Y68755D01*
X8148Y68743D01*
X8130Y68737D01*
X8118Y68731D01*
X8113D01*
X8019Y68690D01*
X7937Y68655D01*
X7854Y68614D01*
X7784Y68573D01*
X7714Y68532D01*
X7655Y68491D01*
X7602Y68450D01*
X7555Y68414D01*
X7514Y68379D01*
X7479Y68344D01*
X7420Y68291D01*
X7391Y68256D01*
X7379Y68250D01*
Y68244D01*
X7303Y68133D01*
X7244Y68021D01*
X7203Y67910D01*
X7180Y67810D01*
X7162Y67716D01*
X7156Y67681D01*
Y67646D01*
X7150Y67616D01*
Y67599D01*
Y67587D01*
Y67581D01*
X7162Y67446D01*
X7186Y67311D01*
X7227Y67194D01*
X7268Y67094D01*
X7309Y67006D01*
X7332Y66971D01*
X7350Y66942D01*
X7362Y66918D01*
X7373Y66901D01*
X7385Y66889D01*
Y66883D01*
X7479Y66771D01*
X7590Y66672D01*
X7708Y66584D01*
X7819Y66513D01*
X7925Y66460D01*
X7966Y66437D01*
X8007Y66420D01*
X8036Y66402D01*
X8060Y66390D01*
X8077Y66384D01*
X8083D01*
X8265Y66326D01*
X8447Y66279D01*
X8629Y66249D01*
X8799Y66226D01*
X8875Y66220D01*
X8946Y66214D01*
X9004Y66208D01*
X9057D01*
X9104Y66202D01*
X9163D01*
X9415Y66214D01*
X9650Y66238D01*
X9761Y66261D01*
X9861Y66279D01*
X9961Y66302D01*
X10049Y66326D01*
X10125Y66343D01*
X10201Y66367D01*
X10260Y66390D01*
X10313Y66408D01*
X10354Y66420D01*
X10389Y66431D01*
X10407Y66443D01*
X10413D01*
X10512Y66490D01*
X10606Y66537D01*
X10694Y66590D01*
X10770Y66642D01*
X10847Y66695D01*
X10911Y66748D01*
X10976Y66801D01*
X11029Y66848D01*
X11076Y66895D01*
X11117Y66936D01*
X11152Y66971D01*
X11175Y67006D01*
X11199Y67036D01*
X11216Y67053D01*
X11222Y67065D01*
X11228Y67071D01*
X11316Y67229D01*
X11387Y67393D01*
X11445Y67564D01*
X11486Y67722D01*
X11504Y67798D01*
X11522Y67863D01*
X11533Y67927D01*
X11539Y67980D01*
X11551Y68021D01*
Y68051D01*
X11557Y68074D01*
Y68080D01*
X12572Y67992D01*
X12566Y67839D01*
X12548Y67693D01*
X12525Y67552D01*
X12495Y67417D01*
X12460Y67294D01*
X12425Y67171D01*
X12384Y67059D01*
X12343Y66953D01*
X12308Y66859D01*
X12267Y66777D01*
X12232Y66707D01*
X12196Y66642D01*
X12173Y66596D01*
X12149Y66560D01*
X12138Y66537D01*
X12132Y66531D01*
X12050Y66414D01*
X11962Y66302D01*
X11868Y66202D01*
X11768Y66108D01*
X11674Y66020D01*
X11574Y65938D01*
X11480Y65868D01*
X11387Y65803D01*
X11304Y65751D01*
X11222Y65698D01*
X11152Y65657D01*
X11087Y65622D01*
X11034Y65598D01*
X10999Y65580D01*
X10970Y65569D01*
X10964Y65563D01*
X10823Y65510D01*
X10671Y65457D01*
X10518Y65416D01*
X10360Y65381D01*
X10049Y65322D01*
X9902Y65305D01*
X9761Y65287D01*
X9626Y65275D01*
X9503Y65264D01*
X9392Y65258D01*
X9298Y65252D01*
X9222Y65246D01*
X9116D01*
X8957Y65252D01*
X8799Y65258D01*
X8647Y65275D01*
X8506Y65293D01*
X8371Y65322D01*
X8242Y65346D01*
X8118Y65375D01*
X8007Y65404D01*
X7907Y65434D01*
X7819Y65463D01*
X7743Y65492D01*
X7678Y65516D01*
X7626Y65533D01*
X7584Y65551D01*
X7561Y65557D01*
X7555Y65563D01*
X7426Y65627D01*
X7309Y65692D01*
X7197Y65762D01*
X7097Y65833D01*
X7004Y65909D01*
X6916Y65985D01*
X6834Y66056D01*
X6763Y66126D01*
X6698Y66191D01*
X6646Y66249D01*
X6599Y66308D01*
X6564Y66355D01*
X6534Y66396D01*
X6511Y66425D01*
X6499Y66443D01*
X6493Y66449D01*
X6429Y66560D01*
X6370Y66666D01*
X6317Y66777D01*
X6276Y66883D01*
X6241Y66989D01*
X6212Y67088D01*
X6182Y67188D01*
X6165Y67276D01*
X6147Y67364D01*
X6135Y67440D01*
X6129Y67505D01*
X6123Y67564D01*
X6118Y67611D01*
Y67646D01*
Y67669D01*
Y67675D01*
X6123Y67798D01*
X6129Y67910D01*
X6147Y68021D01*
X6170Y68127D01*
X6194Y68232D01*
X6223Y68326D01*
X6259Y68414D01*
X6288Y68496D01*
X6317Y68567D01*
X6352Y68632D01*
X6382Y68690D01*
X6405Y68737D01*
X6429Y68772D01*
X6440Y68802D01*
X6452Y68819D01*
X6458Y68825D01*
X6528Y68919D01*
X6599Y69007D01*
X6763Y69171D01*
X6939Y69312D01*
X7027Y69377D01*
X7109Y69429D01*
X7191Y69482D01*
X7268Y69529D01*
X7332Y69564D01*
X7391Y69600D01*
X7438Y69623D01*
X7479Y69641D01*
X7502Y69652D01*
X7508Y69658D01*
X7608Y69699D01*
X7725Y69740D01*
X7854Y69787D01*
X7995Y69828D01*
X8142Y69875D01*
X8289Y69916D01*
X8588Y69993D01*
X8729Y70034D01*
X8864Y70063D01*
X8987Y70093D01*
X9092Y70122D01*
X9180Y70139D01*
X9216Y70151D01*
X9245Y70157D01*
X9269Y70163D01*
X9286D01*
X9298Y70169D01*
X9304D01*
X9538Y70227D01*
X9750Y70280D01*
X9937Y70333D01*
X10108Y70386D01*
X10254Y70439D01*
X10389Y70486D01*
X10501Y70532D01*
X10600Y70574D01*
X10682Y70615D01*
X10747Y70650D01*
X10806Y70679D01*
X10847Y70708D01*
X10882Y70726D01*
X10900Y70744D01*
X10911Y70750D01*
X10917Y70756D01*
X10970Y70808D01*
X11017Y70867D01*
X11064Y70926D01*
X11099Y70990D01*
X11152Y71108D01*
X11187Y71225D01*
X11211Y71325D01*
X11216Y71366D01*
X11222Y71407D01*
X11228Y71436D01*
Y71460D01*
Y71471D01*
Y71477D01*
X11222Y71571D01*
X11211Y71659D01*
X11187Y71747D01*
X11158Y71823D01*
X11087Y71970D01*
X11046Y72040D01*
X11005Y72099D01*
X10964Y72152D01*
X10929Y72199D01*
X10888Y72240D01*
X10859Y72275D01*
X10829Y72305D01*
X10806Y72322D01*
X10794Y72334D01*
X10788Y72340D01*
X10700Y72404D01*
X10600Y72457D01*
X10489Y72504D01*
X10377Y72545D01*
X10260Y72580D01*
X10143Y72610D01*
X9908Y72651D01*
X9802Y72668D01*
X9697Y72680D01*
X9609Y72686D01*
X9527Y72692D01*
X9462Y72698D01*
X9368D01*
X9198Y72692D01*
X9040Y72680D01*
X8893Y72662D01*
X8752Y72639D01*
X8629Y72604D01*
X8512Y72574D01*
X8406Y72539D01*
X8312Y72504D01*
X8230Y72463D01*
X8159Y72428D01*
X8101Y72398D01*
X8048Y72369D01*
X8007Y72340D01*
X7983Y72322D01*
X7966Y72310D01*
X7960Y72305D01*
X7878Y72228D01*
X7802Y72140D01*
X7731Y72052D01*
X7673Y71958D01*
X7620Y71859D01*
X7573Y71765D01*
X7532Y71671D01*
X7502Y71577D01*
X7473Y71489D01*
X7450Y71407D01*
X7432Y71330D01*
X7420Y71272D01*
X7408Y71219D01*
X7403Y71178D01*
X7397Y71154D01*
Y71143D01*
X6364Y71219D01*
X6376Y71348D01*
X6388Y71477D01*
X6411Y71600D01*
X6440Y71718D01*
X6470Y71829D01*
X6505Y71935D01*
X6540Y72035D01*
X6575Y72123D01*
X6616Y72205D01*
X6646Y72275D01*
X6681Y72340D01*
X6710Y72393D01*
X6734Y72434D01*
X6751Y72469D01*
X6763Y72486D01*
X6769Y72492D01*
X6839Y72598D01*
X6921Y72692D01*
X7004Y72786D01*
X7092Y72868D01*
X7180Y72944D01*
X7268Y73014D01*
X7350Y73079D01*
X7438Y73132D01*
X7514Y73185D01*
X7590Y73226D01*
X7655Y73267D01*
X7714Y73296D01*
X7760Y73320D01*
X7796Y73337D01*
X7819Y73343D01*
X7825Y73349D01*
X7954Y73402D01*
X8089Y73449D01*
X8224Y73484D01*
X8365Y73519D01*
X8629Y73572D01*
X8758Y73589D01*
X8875Y73607D01*
X8993Y73619D01*
X9092Y73625D01*
X9186Y73636D01*
X9263D01*
X9327Y73642D01*
X9415D01*
X9568Y73636D01*
D02*
G37*
D10*
X123698Y84074D02*
X123952D01*
X115570Y75946D02*
X123698Y84074D01*
X35000Y100000D02*
X59054Y75946D01*
X115570D01*
D39*
X92250Y31250D02*
X111750D01*
X122700Y42200D01*
X85000Y38500D02*
X92250Y31250D01*
X85000Y38500D02*
Y50000D01*
X68750Y66250D02*
X85000Y50000D01*
X97300Y42200D02*
X97400Y42300D01*
Y68650D01*
X97500Y68750D01*
X128000Y156750D02*
X140000Y168750D01*
X51340Y172212D02*
X60843Y162709D01*
X50292Y172212D02*
X51340D01*
X16000Y227586D02*
Y380000D01*
Y227586D02*
X40132Y203454D01*
X101854Y270146D02*
X163000Y209000D01*
X101854Y333502D02*
X105410Y337058D01*
X101854Y270146D02*
Y333502D01*
X105410Y337058D02*
X112522D01*
X115120Y334460D01*
X121000D01*
X107950Y268732D02*
X173000Y203682D01*
X107950Y268732D02*
Y331216D01*
X62000Y315238D02*
X77978Y331216D01*
X62000Y209000D02*
Y315238D01*
X65960Y311324D02*
X84582Y329946D01*
X65960Y203040D02*
Y311324D01*
X84582Y329946D02*
Y335534D01*
X65960Y203040D02*
X66000Y203000D01*
X70000Y310459D02*
X91000Y331459D01*
X70000Y209000D02*
Y310459D01*
Y209000D02*
X76000Y203000D01*
X60843Y102479D02*
Y162709D01*
X32000Y179000D02*
X37658Y184658D01*
X78104Y85218D02*
X110998D01*
X60843Y102479D02*
X78104Y85218D01*
X163068Y184658D02*
X170688Y177038D01*
Y176784D02*
Y177038D01*
X37658Y184658D02*
X163068D01*
X163000Y203000D02*
Y209000D01*
X173000Y203000D02*
Y203682D01*
X56000Y203000D02*
X62000Y209000D01*
X21000Y385000D02*
X61000D01*
X16000Y380000D02*
X21000Y385000D01*
X61000D02*
X78000Y368000D01*
D41*
X77684Y180594D02*
X96500Y161778D01*
X43688Y180594D02*
X77684D01*
X32766Y169672D02*
X43688Y180594D01*
X10588Y169672D02*
X32766D01*
X6604Y173228D02*
X7031D01*
X10588Y169672D01*
D42*
X136450Y89490D02*
D03*
Y109810D02*
D03*
X85650Y99650D02*
D03*
D43*
X71900Y42200D02*
D03*
X97300D02*
D03*
X122700D02*
D03*
X173500D02*
D03*
X148100D02*
D03*
X46500D02*
D03*
X21100D02*
D03*
D44*
X198900D02*
D03*
D45*
X185000Y100000D02*
D03*
X35000D02*
D03*
D46*
X68750Y66250D02*
D03*
X97500Y68750D02*
D03*
X55250Y329250D02*
D03*
X25250Y330750D02*
D03*
Y356750D02*
D03*
X57750Y359500D02*
D03*
X7500Y391500D02*
D03*
X201000D02*
D03*
Y376500D02*
D03*
Y361500D02*
D03*
Y346500D02*
D03*
Y331500D02*
D03*
Y316500D02*
D03*
Y301500D02*
D03*
Y286500D02*
D03*
Y271500D02*
D03*
Y256500D02*
D03*
Y241500D02*
D03*
Y226500D02*
D03*
X186000Y391500D02*
D03*
Y376500D02*
D03*
Y361500D02*
D03*
Y346500D02*
D03*
Y331500D02*
D03*
Y316500D02*
D03*
Y301500D02*
D03*
Y286500D02*
D03*
Y271500D02*
D03*
Y256500D02*
D03*
Y241500D02*
D03*
Y226500D02*
D03*
X171000Y391500D02*
D03*
Y376500D02*
D03*
Y361500D02*
D03*
Y346500D02*
D03*
Y331500D02*
D03*
Y316500D02*
D03*
Y301500D02*
D03*
Y286500D02*
D03*
Y271500D02*
D03*
Y256500D02*
D03*
Y241500D02*
D03*
Y226500D02*
D03*
X156000Y331500D02*
D03*
Y316500D02*
D03*
Y301500D02*
D03*
Y286500D02*
D03*
Y271500D02*
D03*
Y256500D02*
D03*
Y241500D02*
D03*
X141000Y331500D02*
D03*
Y316500D02*
D03*
Y301500D02*
D03*
Y286500D02*
D03*
Y271500D02*
D03*
Y256500D02*
D03*
X126000Y301500D02*
D03*
Y286500D02*
D03*
Y271500D02*
D03*
X111000Y241500D02*
D03*
Y226500D02*
D03*
X96000Y256500D02*
D03*
Y241500D02*
D03*
Y226500D02*
D03*
X81000Y301500D02*
D03*
Y286500D02*
D03*
Y271500D02*
D03*
Y256500D02*
D03*
Y241500D02*
D03*
X51000Y316500D02*
D03*
Y301500D02*
D03*
Y286500D02*
D03*
Y271500D02*
D03*
Y256500D02*
D03*
Y241500D02*
D03*
Y226500D02*
D03*
X36000Y346500D02*
D03*
Y301500D02*
D03*
Y286500D02*
D03*
Y271500D02*
D03*
Y256500D02*
D03*
Y241500D02*
D03*
Y226500D02*
D03*
X64500Y392750D02*
D03*
X72000D02*
D03*
X79500D02*
D03*
X88500D02*
D03*
X96000D02*
D03*
X103500D02*
D03*
X111000D02*
D03*
X126000Y346250D02*
D03*
X183000Y205500D02*
D03*
X213000Y204000D02*
D03*
Y211500D02*
D03*
Y226500D02*
D03*
Y241500D02*
D03*
Y256500D02*
D03*
Y271500D02*
D03*
Y286500D02*
D03*
Y301500D02*
D03*
Y316500D02*
D03*
Y331500D02*
D03*
X211500Y346500D02*
D03*
X213000Y361500D02*
D03*
Y376500D02*
D03*
Y391500D02*
D03*
X133500Y346250D02*
D03*
X141000D02*
D03*
X148500D02*
D03*
X156000D02*
D03*
X163500D02*
D03*
X171000Y354000D02*
D03*
Y369000D02*
D03*
Y384000D02*
D03*
X26250Y225000D02*
D03*
X128000Y156750D02*
D03*
X140000Y168750D02*
D03*
X107950Y331216D02*
D03*
X84900Y347960D02*
D03*
X77978Y331216D02*
D03*
X93000Y338729D02*
D03*
X84582Y335534D02*
D03*
X91000Y331459D02*
D03*
X96500Y161778D02*
D03*
X50292Y172212D02*
D03*
X32000Y179000D02*
D03*
X6604Y173228D02*
D03*
X110998Y85218D02*
D03*
X123952Y84074D02*
D03*
X170688Y176784D02*
D03*
X163000Y203000D02*
D03*
X173000Y203000D02*
D03*
X76000Y203000D02*
D03*
X66000D02*
D03*
X56000D02*
D03*
X40132Y203454D02*
D03*
X78000Y365460D02*
D03*
X121000Y334460D02*
D03*
X95700Y359460D02*
D03*
X101200Y364360D02*
D03*
X102250Y357960D02*
D03*
X84600Y357560D02*
D03*
X86614Y385572D02*
D03*
X109474D02*
D03*
X108250Y363710D02*
D03*
X93980Y385572D02*
D03*
X102500Y347960D02*
D03*
X79756Y385318D02*
D03*
X102362Y385572D02*
D03*
X108500Y370210D02*
D03*
X93000Y348160D02*
D03*
M02*
