G04*
G04 #@! TF.GenerationSoftware,Altium Limited,Altium Designer,21.6.4 (81)*
G04*
G04 Layer_Color=8421504*
%FSLAX44Y44*%
%MOMM*%
G71*
G04*
G04 #@! TF.SameCoordinates,8C3636EA-CFF2-41A9-9EC8-A279A3EE80BB*
G04*
G04*
G04 #@! TF.FilePolarity,Positive*
G04*
G01*
G75*
%ADD14R,0.3500X0.3500*%
%ADD15R,0.4200X0.4200*%
%ADD16R,0.5500X0.5200*%
%ADD17C,0.0100*%
%ADD18R,1.0200X0.6400*%
%ADD19R,0.7200X0.7200*%
%ADD20R,0.3600X0.3500*%
%ADD21R,0.8000X1.7000*%
%ADD22R,1.5500X1.0000*%
%ADD23R,1.0000X0.8000*%
D14*
X128400Y376360D02*
D03*
X121900D02*
D03*
X112480D02*
D03*
X105980D02*
D03*
X99480D02*
D03*
X92980D02*
D03*
X86480D02*
D03*
X79980D02*
D03*
X73480D02*
D03*
X102730Y369860D02*
D03*
X96230D02*
D03*
X89730D02*
D03*
X83230D02*
D03*
X71600Y367460D02*
D03*
Y360960D02*
D03*
Y347960D02*
D03*
Y341460D02*
D03*
Y328460D02*
D03*
X78100Y357710D02*
D03*
Y344710D02*
D03*
Y338210D02*
D03*
X73480Y319560D02*
D03*
X79980D02*
D03*
X86480D02*
D03*
X92980D02*
D03*
X99480D02*
D03*
X105980D02*
D03*
X112480D02*
D03*
X121900D02*
D03*
X128400D02*
D03*
X83230Y326060D02*
D03*
X89730D02*
D03*
X96230D02*
D03*
X102730D02*
D03*
X114350Y328460D02*
D03*
Y334960D02*
D03*
Y341460D02*
D03*
Y347960D02*
D03*
Y354460D02*
D03*
Y360960D02*
D03*
Y367460D02*
D03*
X107850Y344710D02*
D03*
Y357710D02*
D03*
X71600Y354460D02*
D03*
Y334960D02*
D03*
X78100Y351210D02*
D03*
X107850Y338210D02*
D03*
Y351210D02*
D03*
D15*
X97480Y353160D02*
D03*
X88480D02*
D03*
Y342760D02*
D03*
X97480D02*
D03*
D16*
X163000Y195000D02*
D03*
Y187000D02*
D03*
X42000Y195000D02*
D03*
Y187000D02*
D03*
X173000Y195000D02*
D03*
Y187000D02*
D03*
X22000Y187000D02*
D03*
Y195000D02*
D03*
X32000Y187000D02*
D03*
Y195000D02*
D03*
X96000Y187000D02*
D03*
Y195000D02*
D03*
X66000Y187000D02*
D03*
Y195000D02*
D03*
X106000Y187000D02*
D03*
Y195000D02*
D03*
X56000Y187000D02*
D03*
Y195000D02*
D03*
X76000Y187000D02*
D03*
Y195000D02*
D03*
X86000Y187000D02*
D03*
Y195000D02*
D03*
X143500D02*
D03*
Y187000D02*
D03*
X133250D02*
D03*
Y195000D02*
D03*
X123000Y187000D02*
D03*
Y195000D02*
D03*
D17*
X123750Y106000D02*
D03*
Y93300D02*
D03*
X111050Y106000D02*
D03*
Y93300D02*
D03*
X98350Y106000D02*
D03*
Y93300D02*
D03*
D18*
X196000Y181150D02*
D03*
Y194850D02*
D03*
X9000Y194850D02*
D03*
Y181150D02*
D03*
D19*
X31650Y317310D02*
D03*
X41850D02*
D03*
Y371310D02*
D03*
X31650D02*
D03*
D20*
X167800Y170000D02*
D03*
X176200D02*
D03*
X26200D02*
D03*
X17800D02*
D03*
D21*
X202000Y150000D02*
D03*
X168000D02*
D03*
X18000D02*
D03*
X52000D02*
D03*
D22*
X41250Y357310D02*
D03*
Y331310D02*
D03*
D23*
X96386Y151296D02*
D03*
X111386D02*
D03*
Y140296D02*
D03*
X96386D02*
D03*
M02*
