G04*
G04 #@! TF.GenerationSoftware,Altium Limited,Altium Designer,21.6.4 (81)*
G04*
G04 Layer_Color=8388736*
%FSLAX44Y44*%
%MOMM*%
G71*
G04*
G04 #@! TF.SameCoordinates,2E20B190-24BC-4988-8018-A0B7A5D4220C*
G04*
G04*
G04 #@! TF.FilePolarity,Negative*
G04*
G01*
G75*
%ADD26R,1.1000X0.9000*%
%ADD27R,1.1200X0.7400*%
%ADD28R,0.6500X0.6200*%
%ADD29R,1.2500X0.8000*%
%ADD30R,0.8000X1.2500*%
%ADD31R,0.8000X0.8000*%
%ADD32R,0.8000X0.8000*%
%ADD33R,0.8800X0.8400*%
%ADD34C,0.8900*%
%ADD35R,0.9000X1.8000*%
%ADD36R,0.4600X0.4500*%
%ADD37C,3.5000*%
%ADD38C,1.7500*%
%ADD39R,1.7500X1.7500*%
%ADD40C,1.0000*%
D26*
X98500Y142500D02*
D03*
X113500D02*
D03*
Y153500D02*
D03*
X98500D02*
D03*
D27*
X119000Y181150D02*
D03*
Y194850D02*
D03*
X209000Y194850D02*
D03*
Y181150D02*
D03*
D28*
X30000Y187000D02*
D03*
Y195000D02*
D03*
X40000Y187000D02*
D03*
Y195000D02*
D03*
X70000D02*
D03*
Y187000D02*
D03*
X60000D02*
D03*
Y195000D02*
D03*
X50000Y187000D02*
D03*
Y195000D02*
D03*
X142000D02*
D03*
Y187000D02*
D03*
X101000D02*
D03*
Y195000D02*
D03*
X132000D02*
D03*
Y187000D02*
D03*
X91000D02*
D03*
Y195000D02*
D03*
X162000Y187000D02*
D03*
Y195000D02*
D03*
X172000Y187000D02*
D03*
Y195000D02*
D03*
X192000Y187000D02*
D03*
Y195000D02*
D03*
X182000Y187000D02*
D03*
Y195000D02*
D03*
X152000Y187000D02*
D03*
Y195000D02*
D03*
D29*
X98500Y266000D02*
D03*
Y276000D02*
D03*
Y286000D02*
D03*
Y296000D02*
D03*
Y306000D02*
D03*
Y316000D02*
D03*
Y326000D02*
D03*
Y336000D02*
D03*
Y346000D02*
D03*
Y356000D02*
D03*
X16000D02*
D03*
Y346000D02*
D03*
Y336000D02*
D03*
Y326000D02*
D03*
Y316000D02*
D03*
Y306000D02*
D03*
Y296000D02*
D03*
Y286000D02*
D03*
Y276000D02*
D03*
Y266000D02*
D03*
D30*
X37250Y355250D02*
D03*
X47250D02*
D03*
X57250D02*
D03*
X67250D02*
D03*
X77250D02*
D03*
Y266750D02*
D03*
X67250D02*
D03*
X57250D02*
D03*
X47250D02*
D03*
X37250D02*
D03*
D31*
X74500Y328250D02*
D03*
X63000D02*
D03*
X51500D02*
D03*
X40000D02*
D03*
Y305250D02*
D03*
X51500Y316750D02*
D03*
X63000D02*
D03*
Y293750D02*
D03*
X74500Y305250D02*
D03*
X63000D02*
D03*
X51500D02*
D03*
Y293750D02*
D03*
D32*
X84750Y280500D02*
D03*
Y291500D02*
D03*
Y302500D02*
D03*
Y313500D02*
D03*
Y324500D02*
D03*
Y335500D02*
D03*
X29750D02*
D03*
Y324500D02*
D03*
Y313500D02*
D03*
Y302500D02*
D03*
Y291500D02*
D03*
Y280500D02*
D03*
X40750D02*
D03*
X51750D02*
D03*
X62750D02*
D03*
X73750D02*
D03*
X17250Y254500D02*
D03*
X27250D02*
D03*
X37250D02*
D03*
X47250D02*
D03*
X57250D02*
D03*
X67250D02*
D03*
X77250D02*
D03*
X87250D02*
D03*
X97250D02*
D03*
D33*
X118000Y344000D02*
D03*
X127800D02*
D03*
Y356000D02*
D03*
X118000D02*
D03*
D34*
X97300Y93650D02*
D03*
Y106350D02*
D03*
X110000Y93650D02*
D03*
Y106350D02*
D03*
X122700Y93650D02*
D03*
Y106350D02*
D03*
D35*
X168000Y150000D02*
D03*
X202000D02*
D03*
X18000D02*
D03*
X52000D02*
D03*
D36*
X176200Y170000D02*
D03*
X167800D02*
D03*
X26200D02*
D03*
X17800D02*
D03*
D37*
X185000Y100000D02*
D03*
X35000D02*
D03*
D38*
X71900Y42200D02*
D03*
X97300D02*
D03*
X122700D02*
D03*
X173500D02*
D03*
X148100D02*
D03*
X46500D02*
D03*
X21100D02*
D03*
D39*
X198900D02*
D03*
D40*
X84600Y100000D02*
D03*
X135400Y110160D02*
D03*
Y89840D02*
D03*
M02*
