G04*
G04 #@! TF.GenerationSoftware,Altium Limited,Altium Designer,21.6.4 (81)*
G04*
G04 Layer_Color=16711935*
%FSLAX44Y44*%
%MOMM*%
G71*
G04*
G04 #@! TF.SameCoordinates,2E20B190-24BC-4988-8018-A0B7A5D4220C*
G04*
G04*
G04 #@! TF.FilePolarity,Positive*
G04*
G01*
G75*
%ADD50C,0.0500*%
%ADD52C,0.1000*%
D50*
X193890Y100000D02*
G03*
X193890Y100000I-8890J0D01*
G01*
X43890D02*
G03*
X43890Y100000I-8890J0D01*
G01*
X95500Y137500D02*
X116500D01*
X95500D02*
Y158500D01*
X116500D01*
Y137500D02*
Y158500D01*
X27000Y185500D02*
Y196500D01*
X33000Y185500D02*
Y196500D01*
X27000Y185500D02*
X33000D01*
X27000Y196500D02*
X33000D01*
X37000Y185500D02*
Y196500D01*
X43000Y185500D02*
Y196500D01*
X37000Y185500D02*
X43000D01*
X37000Y196500D02*
X43000D01*
X73000Y185500D02*
Y196500D01*
X67000Y185500D02*
Y196500D01*
X73000D01*
X67000Y185500D02*
X73000D01*
X57000Y185500D02*
Y196500D01*
X63000Y185500D02*
Y196500D01*
X57000Y185500D02*
X63000D01*
X57000Y196500D02*
X63000D01*
X47000Y185500D02*
Y196500D01*
X53000Y185500D02*
Y196500D01*
X47000Y185500D02*
X53000D01*
X47000Y196500D02*
X53000D01*
X145000Y185500D02*
Y196500D01*
X139000Y185500D02*
Y196500D01*
X145000D01*
X139000Y185500D02*
X145000D01*
X98000Y185500D02*
Y196500D01*
X104000Y185500D02*
Y196500D01*
X98000Y185500D02*
X104000D01*
X98000Y196500D02*
X104000D01*
X135000Y185500D02*
Y196500D01*
X129000Y185500D02*
Y196500D01*
X135000D01*
X129000Y185500D02*
X135000D01*
X88000Y185500D02*
Y196500D01*
X94000Y185500D02*
Y196500D01*
X88000Y185500D02*
X94000D01*
X88000Y196500D02*
X94000D01*
X159000Y185500D02*
Y196500D01*
X165000Y185500D02*
Y196500D01*
X159000Y185500D02*
X165000D01*
X159000Y196500D02*
X165000D01*
X169000Y185500D02*
Y196500D01*
X175000Y185500D02*
Y196500D01*
X169000Y185500D02*
X175000D01*
X169000Y196500D02*
X175000D01*
X176502Y162499D02*
X193500Y162500D01*
X176500D02*
X176502Y162499D01*
X165000Y162500D02*
X176500D01*
X193500D02*
X205000D01*
X165000Y137500D02*
Y162500D01*
X205000Y137500D02*
Y162500D01*
X165000Y137500D02*
X205000D01*
X26502Y162499D02*
X43500Y162500D01*
X26500D02*
X26502Y162499D01*
X15000Y162500D02*
X26500D01*
X43500D02*
X55000D01*
X15000Y137500D02*
Y162500D01*
X55000Y137500D02*
Y162500D01*
X15000Y137500D02*
X55000D01*
X189000Y185500D02*
Y196500D01*
X195000Y185500D02*
Y196500D01*
X189000Y185500D02*
X195000D01*
X189000Y196500D02*
X195000D01*
X179000Y185500D02*
Y196500D01*
X185000Y185500D02*
Y196500D01*
X179000Y185500D02*
X185000D01*
X179000Y196500D02*
X185000D01*
X149000Y185500D02*
Y196500D01*
X155000Y185500D02*
Y196500D01*
X149000Y185500D02*
X155000D01*
X149000Y196500D02*
X155000D01*
X168001Y167000D02*
X176001D01*
X168001Y173000D02*
X176001D01*
Y167000D02*
Y173000D01*
X168001Y167000D02*
Y173000D01*
X18001Y167000D02*
X26001D01*
X18001Y173000D02*
X26001D01*
Y167000D02*
Y173000D01*
X18001Y167000D02*
Y173000D01*
D52*
X113500Y179000D02*
X124500D01*
X113500Y197000D02*
X124500D01*
X113500Y179000D02*
Y197000D01*
X124500Y179000D02*
Y197000D01*
X203500Y197000D02*
X214500D01*
X203500Y179000D02*
X214500D01*
Y197000D01*
X203500Y179000D02*
Y197000D01*
X8400Y27200D02*
X211600D01*
Y1800D02*
Y27200D01*
X8400Y1800D02*
X211600D01*
X8400D02*
Y27200D01*
X107250Y248000D02*
Y398000D01*
X7250D02*
X107250D01*
X7250Y248000D02*
Y398000D01*
Y248000D02*
X107250D01*
X117400Y341000D02*
Y347000D01*
X128400Y341000D02*
Y347000D01*
X117400D02*
X128400D01*
X117400Y341000D02*
X128400D01*
X128400Y353000D02*
Y359000D01*
X117400Y353000D02*
Y359000D01*
Y353000D02*
X128400D01*
X117400Y359000D02*
X128400D01*
M02*
