G04*
G04 #@! TF.GenerationSoftware,Altium Limited,Altium Designer,21.6.4 (81)*
G04*
G04 Layer_Color=128*
%FSLAX44Y44*%
%MOMM*%
G71*
G04*
G04 #@! TF.SameCoordinates,2E20B190-24BC-4988-8018-A0B7A5D4220C*
G04*
G04*
G04 #@! TF.FilePolarity,Positive*
G04*
G01*
G75*
%ADD51C,0.0508*%
D51*
X176000Y100000D02*
X194000D01*
X185000Y91000D02*
Y109000D01*
X26000Y100000D02*
X44000D01*
X35000Y91000D02*
Y109000D01*
X66400Y42200D02*
X77400D01*
X71900Y36700D02*
Y47700D01*
X91800Y42200D02*
X102800D01*
X97300Y36700D02*
Y47700D01*
X117200Y42200D02*
X128200D01*
X122700Y36700D02*
Y47700D01*
X168000Y42200D02*
X179000D01*
X173500Y36700D02*
Y47700D01*
X193400Y42200D02*
X204400D01*
X198900Y36700D02*
Y47700D01*
X142600Y42200D02*
X153600D01*
X148100Y36700D02*
Y47700D01*
X41000Y42200D02*
X52000D01*
X46500Y36700D02*
Y47700D01*
X15600Y42200D02*
X26600D01*
X21100Y36700D02*
Y47700D01*
X79625Y100000D02*
X89575D01*
X84600Y95025D02*
Y104975D01*
X130425Y110160D02*
X140375D01*
X135400Y105185D02*
Y115135D01*
X130425Y89840D02*
X140375D01*
X135400Y84865D02*
Y94815D01*
X95750Y72500D02*
X98750D01*
X97250Y71000D02*
Y74000D01*
X45750Y344750D02*
X48750D01*
X47250Y343250D02*
Y346250D01*
X66000Y344750D02*
X69000D01*
X67500Y343250D02*
Y346250D01*
X36250Y336250D02*
X39250D01*
X37750Y334750D02*
Y337750D01*
X60500Y337000D02*
X63500D01*
X62000Y335500D02*
Y338500D01*
X5750Y286000D02*
X8750D01*
X7250Y284500D02*
Y287500D01*
X5750Y296000D02*
X8750D01*
X7250Y294500D02*
Y297500D01*
X5750Y306250D02*
X8750D01*
X7250Y304750D02*
Y307750D01*
X5500Y316000D02*
X8500D01*
X7000Y314500D02*
Y317500D01*
X5750Y326000D02*
X8750D01*
X7250Y324500D02*
Y327500D01*
X65750Y366000D02*
X68750D01*
X67250Y364500D02*
Y367500D01*
X45750Y366000D02*
X48750D01*
X47250Y364500D02*
Y367500D01*
X69500Y317000D02*
X72500D01*
X71000Y315500D02*
Y318500D01*
X70500Y294000D02*
X73500D01*
X72000Y292500D02*
Y295500D01*
X37500Y294000D02*
X40500D01*
X39000Y292500D02*
Y295500D01*
X27250Y266750D02*
X30250D01*
X28750Y265250D02*
Y268250D01*
X84000Y266750D02*
X87000D01*
X85500Y265250D02*
Y268250D01*
X147500Y268000D02*
X150500D01*
X149000Y266500D02*
Y269500D01*
X20500Y215000D02*
X23500D01*
X22000Y213500D02*
Y216500D01*
X20500Y204000D02*
X23500D01*
X22000Y202500D02*
Y205500D01*
X6500Y215000D02*
X9500D01*
X8000Y213500D02*
Y216500D01*
X6500Y204000D02*
X9500D01*
X8000Y202500D02*
Y205500D01*
X78500Y205000D02*
X81500D01*
X80000Y203500D02*
Y206500D01*
X113500Y206000D02*
X116500D01*
X115000Y204500D02*
Y207500D01*
X121500Y206000D02*
X124500D01*
X123000Y204500D02*
Y207500D01*
X210500Y257000D02*
X213500D01*
X212000Y255500D02*
Y258500D01*
X210500Y272000D02*
X213500D01*
X212000Y270500D02*
Y273500D01*
X210500Y287000D02*
X213500D01*
X212000Y285500D02*
Y288500D01*
X210500Y302000D02*
X213500D01*
X212000Y300500D02*
Y303500D01*
X210500Y317000D02*
X213500D01*
X212000Y315500D02*
Y318500D01*
X210500Y332000D02*
X213500D01*
X212000Y330500D02*
Y333500D01*
X210500Y347000D02*
X213500D01*
X212000Y345500D02*
Y348500D01*
X210500Y362000D02*
X213500D01*
X212000Y360500D02*
Y363500D01*
X210500Y377000D02*
X213500D01*
X212000Y375500D02*
Y378500D01*
X210500Y392000D02*
X213500D01*
X212000Y390500D02*
Y393500D01*
X201500Y392000D02*
X204500D01*
X203000Y390500D02*
Y393500D01*
X201500Y377000D02*
X204500D01*
X203000Y375500D02*
Y378500D01*
X201500Y362000D02*
X204500D01*
X203000Y360500D02*
Y363500D01*
X201500Y347000D02*
X204500D01*
X203000Y345500D02*
Y348500D01*
X201500Y332000D02*
X204500D01*
X203000Y330500D02*
Y333500D01*
X201500Y317000D02*
X204500D01*
X203000Y315500D02*
Y318500D01*
X201500Y302000D02*
X204500D01*
X203000Y300500D02*
Y303500D01*
X201500Y287000D02*
X204500D01*
X203000Y285500D02*
Y288500D01*
X201500Y272000D02*
X204500D01*
X203000Y270500D02*
Y273500D01*
X186500Y392000D02*
X189500D01*
X188000Y390500D02*
Y393500D01*
X186500Y377000D02*
X189500D01*
X188000Y375500D02*
Y378500D01*
X186500Y362000D02*
X189500D01*
X188000Y360500D02*
Y363500D01*
X186500Y347000D02*
X189500D01*
X188000Y345500D02*
Y348500D01*
X186500Y332000D02*
X189500D01*
X188000Y330500D02*
Y333500D01*
X186500Y317000D02*
X189500D01*
X188000Y315500D02*
Y318500D01*
X186500Y302000D02*
X189500D01*
X188000Y300500D02*
Y303500D01*
X186500Y287000D02*
X189500D01*
X188000Y285500D02*
Y288500D01*
X171500Y392000D02*
X174500D01*
X173000Y390500D02*
Y393500D01*
X171500Y377000D02*
X174500D01*
X173000Y375500D02*
Y378500D01*
X171500Y362000D02*
X174500D01*
X173000Y360500D02*
Y363500D01*
X171500Y347000D02*
X174500D01*
X173000Y345500D02*
Y348500D01*
X171500Y332000D02*
X174500D01*
X173000Y330500D02*
Y333500D01*
X171500Y317000D02*
X174500D01*
X173000Y315500D02*
Y318500D01*
X171500Y302000D02*
X174500D01*
X173000Y300500D02*
Y303500D01*
X156500Y392000D02*
X159500D01*
X158000Y390500D02*
Y393500D01*
X156500Y377000D02*
X159500D01*
X158000Y375500D02*
Y378500D01*
X156500Y362000D02*
X159500D01*
X158000Y360500D02*
Y363500D01*
X156500Y347000D02*
X159500D01*
X158000Y345500D02*
Y348500D01*
X156500Y332000D02*
X159500D01*
X158000Y330500D02*
Y333500D01*
X156500Y317000D02*
X159500D01*
X158000Y315500D02*
Y318500D01*
X156500Y257000D02*
X159500D01*
X158000Y255500D02*
Y258500D01*
X141500Y392000D02*
X144500D01*
X143000Y390500D02*
Y393500D01*
X141500Y377000D02*
X144500D01*
X143000Y375500D02*
Y378500D01*
X141500Y362000D02*
X144500D01*
X143000Y360500D02*
Y363500D01*
X141500Y347000D02*
X144500D01*
X143000Y345500D02*
Y348500D01*
X141500Y332000D02*
X144500D01*
X143000Y330500D02*
Y333500D01*
X126500Y392000D02*
X129500D01*
X128000Y390500D02*
Y393500D01*
X126500Y377000D02*
X129500D01*
X128000Y375500D02*
Y378500D01*
X126500Y242000D02*
X129500D01*
X128000Y240500D02*
Y243500D01*
X126500Y227000D02*
X129500D01*
X128000Y225500D02*
Y228500D01*
X111500Y392000D02*
X114500D01*
X113000Y390500D02*
Y393500D01*
X111500Y377000D02*
X114500D01*
X113000Y375500D02*
Y378500D01*
X111500Y257000D02*
X114500D01*
X113000Y255500D02*
Y258500D01*
X111500Y242000D02*
X114500D01*
X113000Y240500D02*
Y243500D01*
X111500Y227000D02*
X114500D01*
X113000Y225500D02*
Y228500D01*
X96500Y392000D02*
X99500D01*
X98000Y390500D02*
Y393500D01*
X96500Y377000D02*
X99500D01*
X98000Y375500D02*
Y378500D01*
X81500Y392000D02*
X84500D01*
X83000Y390500D02*
Y393500D01*
X81500Y377000D02*
X84500D01*
X83000Y375500D02*
Y378500D01*
X81500Y242000D02*
X84500D01*
X83000Y240500D02*
Y243500D01*
X81500Y227000D02*
X84500D01*
X83000Y225500D02*
Y228500D01*
X66500Y392000D02*
X69500D01*
X68000Y390500D02*
Y393500D01*
X66500Y377000D02*
X69500D01*
X68000Y375500D02*
Y378500D01*
X66500Y242000D02*
X69500D01*
X68000Y240500D02*
Y243500D01*
X66500Y227000D02*
X69500D01*
X68000Y225500D02*
Y228500D01*
X51500Y392000D02*
X54500D01*
X53000Y390500D02*
Y393500D01*
X51500Y377000D02*
X54500D01*
X53000Y375500D02*
Y378500D01*
X51500Y242000D02*
X54500D01*
X53000Y240500D02*
Y243500D01*
X51500Y227000D02*
X54500D01*
X53000Y225500D02*
Y228500D01*
X36500Y392000D02*
X39500D01*
X38000Y390500D02*
Y393500D01*
X36500Y377000D02*
X39500D01*
X38000Y375500D02*
Y378500D01*
X36500Y317000D02*
X39500D01*
X38000Y315500D02*
Y318500D01*
X36500Y242000D02*
X39500D01*
X38000Y240500D02*
Y243500D01*
X21500Y392000D02*
X24500D01*
X23000Y390500D02*
Y393500D01*
X21500Y377000D02*
X24500D01*
X23000Y375500D02*
Y378500D01*
X6500Y392000D02*
X9500D01*
X8000Y390500D02*
Y393500D01*
X6500Y377000D02*
X9500D01*
X8000Y375500D02*
Y378500D01*
X6500Y227000D02*
X9500D01*
X8000Y225500D02*
Y228500D01*
X83500Y155000D02*
X86500D01*
X85000Y153500D02*
Y156500D01*
X125500Y175000D02*
X128500D01*
X127000Y173500D02*
Y176500D01*
X142500Y147000D02*
X145500D01*
X144000Y145500D02*
Y148500D01*
X142500Y155000D02*
X145500D01*
X144000Y153500D02*
Y156500D01*
X41500Y163000D02*
X44500D01*
X43000Y161500D02*
Y164500D01*
X99500Y180000D02*
X102500D01*
X101000Y178500D02*
Y181500D01*
X99500Y162000D02*
X102500D01*
X101000Y160500D02*
Y163500D01*
X89500Y180000D02*
X92500D01*
X91000Y178500D02*
Y181500D01*
X95500Y84000D02*
X98500D01*
X97000Y82500D02*
Y85500D01*
X150500Y180000D02*
X153500D01*
X152000Y178500D02*
Y181500D01*
X16300Y177000D02*
X19300D01*
X17800Y175500D02*
Y178500D01*
X160500Y180000D02*
X163500D01*
X162000Y178500D02*
Y181500D01*
X190500Y180000D02*
X193500D01*
X192000Y178500D02*
Y181500D01*
X180500Y180000D02*
X183500D01*
X182000Y178500D02*
Y181500D01*
X140500Y202000D02*
X143500D01*
X142000Y200500D02*
Y203500D01*
X130500Y202000D02*
X133500D01*
X132000Y200500D02*
Y203500D01*
X76000Y345000D02*
X79000D01*
X77500Y343500D02*
Y346500D01*
X108000Y276000D02*
X111000D01*
X109500Y274500D02*
Y277500D01*
X108000Y286000D02*
X111000D01*
X109500Y284500D02*
Y287500D01*
X36000Y345000D02*
X39000D01*
X37500Y343500D02*
Y346500D01*
X89500Y202000D02*
X92500D01*
X91000Y200500D02*
Y203500D01*
X99500Y202000D02*
X102500D01*
X101000Y200500D02*
Y203500D01*
X28500Y202000D02*
X31500D01*
X30000Y200500D02*
Y203500D01*
X38500Y202000D02*
X41500D01*
X40000Y200500D02*
Y203500D01*
X48500Y202000D02*
X51500D01*
X50000Y200500D02*
Y203500D01*
X58500Y202000D02*
X61500D01*
X60000Y200500D02*
Y203500D01*
X68500Y202000D02*
X71500D01*
X70000Y200500D02*
Y203500D01*
M02*
