G04*
G04 #@! TF.GenerationSoftware,Altium Limited,Altium Designer,21.6.4 (81)*
G04*
G04 Layer_Color=32768*
%FSLAX44Y44*%
%MOMM*%
G71*
G04*
G04 #@! TF.SameCoordinates,2E20B190-24BC-4988-8018-A0B7A5D4220C*
G04*
G04*
G04 #@! TF.FilePolarity,Positive*
G04*
G01*
G75*
%ADD50C,0.0500*%
%ADD52C,0.1000*%
D50*
X101000Y148000D02*
X111000D01*
X106000Y143000D02*
Y153000D01*
X91000Y136000D02*
X121000D01*
X91000D02*
Y160000D01*
X121000D01*
Y136000D02*
Y160000D01*
X112500Y177000D02*
X125500D01*
X112500Y199000D02*
X125500D01*
X112500Y177000D02*
Y199000D01*
X125500Y177000D02*
Y199000D01*
X202500Y199000D02*
X215500D01*
X202500Y177000D02*
X215500D01*
Y199000D01*
X202500Y177000D02*
Y199000D01*
X27000Y191000D02*
X33000D01*
X30000Y188000D02*
Y194000D01*
X26000Y183000D02*
Y199000D01*
X34000Y183000D02*
Y199000D01*
X26000Y183000D02*
X34000D01*
X26000Y199000D02*
X34000D01*
X37000Y191000D02*
X43000D01*
X40000Y188000D02*
Y194000D01*
X36000Y183000D02*
Y199000D01*
X44000Y183000D02*
Y199000D01*
X36000Y183000D02*
X44000D01*
X36000Y199000D02*
X44000D01*
X67000Y191000D02*
X73000D01*
X70000Y188000D02*
Y194000D01*
X74000Y183000D02*
Y199000D01*
X66000Y183000D02*
Y199000D01*
X74000D01*
X66000Y183000D02*
X74000D01*
X57000Y191000D02*
X63000D01*
X60000Y188000D02*
Y194000D01*
X56000Y183000D02*
Y199000D01*
X64000Y183000D02*
Y199000D01*
X56000Y183000D02*
X64000D01*
X56000Y199000D02*
X64000D01*
X47000Y191000D02*
X53000D01*
X50000Y188000D02*
Y194000D01*
X46000Y183000D02*
Y199000D01*
X54000Y183000D02*
Y199000D01*
X46000Y183000D02*
X54000D01*
X46000Y199000D02*
X54000D01*
X139000Y191000D02*
X145000D01*
X142000Y188000D02*
Y194000D01*
X146000Y183000D02*
Y199000D01*
X138000Y183000D02*
Y199000D01*
X146000D01*
X138000Y183000D02*
X146000D01*
X98000Y191000D02*
X104000D01*
X101000Y188000D02*
Y194000D01*
X97000Y183000D02*
Y199000D01*
X105000Y183000D02*
Y199000D01*
X97000Y183000D02*
X105000D01*
X97000Y199000D02*
X105000D01*
X129000Y191000D02*
X135000D01*
X132000Y188000D02*
Y194000D01*
X136000Y183000D02*
Y199000D01*
X128000Y183000D02*
Y199000D01*
X136000D01*
X128000Y183000D02*
X136000D01*
X88000Y191000D02*
X94000D01*
X91000Y188000D02*
Y194000D01*
X87000Y183000D02*
Y199000D01*
X95000Y183000D02*
Y199000D01*
X87000Y183000D02*
X95000D01*
X87000Y199000D02*
X95000D01*
X159000Y191000D02*
X165000D01*
X162000Y188000D02*
Y194000D01*
X158000Y183000D02*
Y199000D01*
X166000Y183000D02*
Y199000D01*
X158000Y183000D02*
X166000D01*
X158000Y199000D02*
X166000D01*
X169000Y191000D02*
X175000D01*
X172000Y188000D02*
Y194000D01*
X168000Y183000D02*
Y199000D01*
X176000Y183000D02*
Y199000D01*
X168000Y183000D02*
X176000D01*
X168000Y199000D02*
X176000D01*
X105000Y14500D02*
X115000D01*
X110000Y9500D02*
Y19500D01*
X4900Y52450D02*
X215100D01*
Y-60200D02*
Y52450D01*
X4900Y-60200D02*
X215100D01*
X4900D02*
Y52450D01*
X57250Y318000D02*
Y328000D01*
X5250Y400000D02*
X109250D01*
Y246000D02*
Y400000D01*
X52250Y323000D02*
X62250D01*
X5250Y246000D02*
X109250D01*
X5250D02*
Y400000D01*
X111900Y338000D02*
Y350000D01*
X133900Y338000D02*
Y350000D01*
X111900D02*
X133900D01*
X111900Y338000D02*
X133900D01*
Y350000D02*
Y362000D01*
X111900Y350000D02*
Y362000D01*
Y350000D02*
X133900D01*
X111900Y362000D02*
X133900D01*
X180000Y150000D02*
X190000D01*
X185000Y145000D02*
Y155000D01*
X162000Y164000D02*
X208000D01*
Y136250D02*
Y164000D01*
X162000Y136250D02*
X208000D01*
X162000D02*
Y164000D01*
X30000Y150000D02*
X40000D01*
X35000Y145000D02*
Y155000D01*
X12000Y164000D02*
X58000D01*
Y136250D02*
Y164000D01*
X12000Y136250D02*
X58000D01*
X12000D02*
Y164000D01*
X189000Y191000D02*
X195000D01*
X192000Y188000D02*
Y194000D01*
X188000Y183000D02*
Y199000D01*
X196000Y183000D02*
Y199000D01*
X188000Y183000D02*
X196000D01*
X188000Y199000D02*
X196000D01*
X179000Y191000D02*
X185000D01*
X182000Y188000D02*
Y194000D01*
X178000Y183000D02*
Y199000D01*
X186000Y183000D02*
Y199000D01*
X178000Y183000D02*
X186000D01*
X178000Y199000D02*
X186000D01*
X149000Y191000D02*
X155000D01*
X152000Y188000D02*
Y194000D01*
X148000Y183000D02*
Y199000D01*
X156000Y183000D02*
Y199000D01*
X148000Y183000D02*
X156000D01*
X148000Y199000D02*
X156000D01*
X172000Y166750D02*
Y172750D01*
X169000Y170000D02*
X175250D01*
X164500Y166000D02*
X179000D01*
X164500Y174000D02*
X179000D01*
Y166000D02*
Y174000D01*
X164500Y166000D02*
Y174000D01*
X22000Y166750D02*
Y172750D01*
X19000Y170000D02*
X25250D01*
X14500Y166000D02*
X29000D01*
X14500Y174000D02*
X29000D01*
Y166000D02*
Y174000D01*
X14500Y166000D02*
Y174000D01*
D52*
X119000Y183000D02*
Y193000D01*
X114000Y188000D02*
X124000D01*
X209000Y183000D02*
Y193000D01*
X204000Y188000D02*
X214000D01*
X119900Y344000D02*
X125900D01*
X122900Y341000D02*
Y347000D01*
X119900Y356000D02*
X125900D01*
X122900Y353000D02*
Y359000D01*
X46253Y324000D02*
X54584D01*
X56250Y325666D01*
Y328998D01*
X54584Y330664D01*
X46253D01*
X56250Y333997D02*
Y337329D01*
Y335663D01*
X46253D01*
X47919Y333997D01*
M02*
