G04*
G04 #@! TF.GenerationSoftware,Altium Limited,Altium Designer,21.6.4 (81)*
G04*
G04 Layer_Physical_Order=3*
G04 Layer_Color=16440176*
%FSLAX44Y44*%
%MOMM*%
G71*
G04*
G04 #@! TF.SameCoordinates,2E20B190-24BC-4988-8018-A0B7A5D4220C*
G04*
G04*
G04 #@! TF.FilePolarity,Positive*
G04*
G01*
G75*
%ADD45C,1.6500*%
%ADD46R,1.6500X1.6500*%
%ADD47C,0.9000*%
%ADD48C,0.6000*%
%ADD49C,2.1590*%
G36*
X215922Y200000D02*
X147210D01*
X146208Y201270D01*
X146354Y202000D01*
X146022Y203666D01*
X145078Y205079D01*
X143666Y206022D01*
X142000Y206354D01*
X140334Y206022D01*
X138921Y205079D01*
X137978Y203666D01*
X137646Y202000D01*
X137000Y201460D01*
X136354Y202000D01*
X136022Y203666D01*
X135078Y205079D01*
X133666Y206022D01*
X132000Y206354D01*
X130334Y206022D01*
X128921Y205079D01*
X127978Y203666D01*
X127646Y202000D01*
X127792Y201270D01*
X126790Y200000D01*
X106210D01*
X105208Y201270D01*
X105354Y202000D01*
X105022Y203666D01*
X104079Y205079D01*
X102666Y206022D01*
X101000Y206354D01*
X99334Y206022D01*
X97921Y205079D01*
X96978Y203666D01*
X96646Y202000D01*
X96000Y201460D01*
X95354Y202000D01*
X95022Y203666D01*
X94079Y205079D01*
X92666Y206022D01*
X91000Y206354D01*
X89334Y206022D01*
X87921Y205079D01*
X86978Y203666D01*
X86646Y202000D01*
X86792Y201270D01*
X85790Y200000D01*
X75210D01*
X74208Y201270D01*
X74354Y202000D01*
X74022Y203666D01*
X73078Y205079D01*
X71666Y206022D01*
X70000Y206354D01*
X68334Y206022D01*
X66922Y205079D01*
X65978Y203666D01*
X65646Y202000D01*
X65000Y201460D01*
X64354Y202000D01*
X64022Y203666D01*
X63078Y205079D01*
X61666Y206022D01*
X60000Y206354D01*
X58334Y206022D01*
X56922Y205079D01*
X55978Y203666D01*
X55646Y202000D01*
X55000Y201460D01*
X54354Y202000D01*
X54022Y203666D01*
X53078Y205079D01*
X51666Y206022D01*
X50000Y206354D01*
X48334Y206022D01*
X46922Y205079D01*
X45978Y203666D01*
X45646Y202000D01*
X45000Y201460D01*
X44354Y202000D01*
X44022Y203666D01*
X43078Y205079D01*
X41666Y206022D01*
X40000Y206354D01*
X38334Y206022D01*
X36922Y205079D01*
X35978Y203666D01*
X35646Y202000D01*
X35000Y201460D01*
X34354Y202000D01*
X34022Y203666D01*
X33078Y205079D01*
X31666Y206022D01*
X30000Y206354D01*
X28334Y206022D01*
X26922Y205079D01*
X25978Y203666D01*
X25646Y202000D01*
X25792Y201270D01*
X24790Y200000D01*
X4078D01*
X4078Y281456D01*
X5348Y282135D01*
X5584Y281978D01*
X7250Y281646D01*
X8916Y281978D01*
X10329Y282922D01*
X11272Y284334D01*
X11604Y286000D01*
X11272Y287666D01*
X10329Y289079D01*
X8916Y290022D01*
X7250Y290354D01*
X5652Y290036D01*
X5294Y290205D01*
X4499Y290705D01*
Y291295D01*
X5294Y291795D01*
X5652Y291964D01*
X7250Y291646D01*
X8916Y291978D01*
X10329Y292922D01*
X11272Y294334D01*
X11604Y296000D01*
X11272Y297666D01*
X10329Y299079D01*
X8916Y300022D01*
X7250Y300354D01*
X5584Y300022D01*
X5348Y299865D01*
X4104Y300530D01*
Y301720D01*
X5348Y302385D01*
X5584Y302228D01*
X7250Y301896D01*
X8916Y302228D01*
X10329Y303172D01*
X11272Y304584D01*
X11604Y306250D01*
X11272Y307916D01*
X10329Y309328D01*
X8916Y310272D01*
X7759Y310502D01*
Y311797D01*
X8666Y311978D01*
X10078Y312922D01*
X11022Y314334D01*
X11353Y316000D01*
X11022Y317666D01*
X10078Y319079D01*
X8666Y320022D01*
X7000Y320354D01*
X5652Y320085D01*
X4714Y320706D01*
X4478Y320965D01*
Y321326D01*
X5468Y321909D01*
X5624Y321970D01*
X7250Y321646D01*
X8916Y321978D01*
X10329Y322921D01*
X11272Y324334D01*
X11604Y326000D01*
X11272Y327666D01*
X10329Y329078D01*
X8916Y330022D01*
X7250Y330354D01*
X5584Y330022D01*
X5348Y329865D01*
X4078Y330544D01*
Y395922D01*
X215922D01*
Y200000D01*
D02*
G37*
%LPC*%
G36*
X77500Y349354D02*
X75834Y349022D01*
X74422Y348078D01*
X73478Y346666D01*
X73146Y345000D01*
X73478Y343334D01*
X74422Y341922D01*
X75834Y340978D01*
X77500Y340646D01*
X79166Y340978D01*
X80578Y341922D01*
X81522Y343334D01*
X81854Y345000D01*
X81522Y346666D01*
X80578Y348078D01*
X79166Y349022D01*
X77500Y349354D01*
D02*
G37*
G36*
X37500D02*
X35834Y349022D01*
X34422Y348078D01*
X33478Y346666D01*
X33146Y345000D01*
X33478Y343334D01*
X34422Y341922D01*
X35834Y340978D01*
X37500Y340646D01*
X39166Y340978D01*
X40578Y341922D01*
X41522Y343334D01*
X41854Y345000D01*
X41522Y346666D01*
X40578Y348078D01*
X39166Y349022D01*
X37500Y349354D01*
D02*
G37*
G36*
X109500Y290354D02*
X107834Y290022D01*
X106421Y289078D01*
X105478Y287666D01*
X105146Y286000D01*
X105478Y284334D01*
X106421Y282922D01*
X107834Y281978D01*
X109500Y281646D01*
X111166Y281978D01*
X112578Y282922D01*
X113522Y284334D01*
X113854Y286000D01*
X113522Y287666D01*
X112578Y289078D01*
X111166Y290022D01*
X109500Y290354D01*
D02*
G37*
G36*
Y280354D02*
X107834Y280022D01*
X106421Y279078D01*
X105478Y277666D01*
X105146Y276000D01*
X105478Y274334D01*
X106421Y272922D01*
X107834Y271978D01*
X109500Y271646D01*
X111166Y271978D01*
X112578Y272922D01*
X113522Y274334D01*
X113854Y276000D01*
X113522Y277666D01*
X112578Y279078D01*
X111166Y280022D01*
X109500Y280354D01*
D02*
G37*
%LPD*%
D45*
X71900Y42200D02*
D03*
X97300D02*
D03*
X122700D02*
D03*
X173500D02*
D03*
X148100D02*
D03*
X46500D02*
D03*
X21100D02*
D03*
D46*
X198900D02*
D03*
D47*
X84600Y100000D02*
D03*
X135400Y110160D02*
D03*
Y89840D02*
D03*
D48*
X97250Y72500D02*
D03*
X47250Y344750D02*
D03*
X67500D02*
D03*
X37750Y336250D02*
D03*
X62000Y337000D02*
D03*
X7250Y286000D02*
D03*
Y296000D02*
D03*
Y306250D02*
D03*
X7000Y316000D02*
D03*
X7250Y326000D02*
D03*
X67250Y366000D02*
D03*
X47250D02*
D03*
X71000Y317000D02*
D03*
X72000Y294000D02*
D03*
X39000D02*
D03*
X28750Y266750D02*
D03*
X85500D02*
D03*
X149000Y268000D02*
D03*
X22000Y215000D02*
D03*
Y204000D02*
D03*
X8000Y215000D02*
D03*
Y204000D02*
D03*
X80000Y205000D02*
D03*
X115000Y206000D02*
D03*
X123000D02*
D03*
X212000Y257000D02*
D03*
Y272000D02*
D03*
Y287000D02*
D03*
Y302000D02*
D03*
Y317000D02*
D03*
Y332000D02*
D03*
Y347000D02*
D03*
Y362000D02*
D03*
Y377000D02*
D03*
Y392000D02*
D03*
X203000D02*
D03*
Y377000D02*
D03*
Y362000D02*
D03*
Y347000D02*
D03*
Y332000D02*
D03*
Y317000D02*
D03*
Y302000D02*
D03*
Y287000D02*
D03*
Y272000D02*
D03*
X188000Y392000D02*
D03*
Y377000D02*
D03*
Y362000D02*
D03*
Y347000D02*
D03*
Y332000D02*
D03*
Y317000D02*
D03*
Y302000D02*
D03*
Y287000D02*
D03*
X173000Y392000D02*
D03*
Y377000D02*
D03*
Y362000D02*
D03*
Y347000D02*
D03*
Y332000D02*
D03*
Y317000D02*
D03*
Y302000D02*
D03*
X158000Y392000D02*
D03*
Y377000D02*
D03*
Y362000D02*
D03*
Y347000D02*
D03*
Y332000D02*
D03*
Y317000D02*
D03*
Y257000D02*
D03*
X143000Y392000D02*
D03*
Y377000D02*
D03*
Y362000D02*
D03*
Y347000D02*
D03*
Y332000D02*
D03*
X128000Y392000D02*
D03*
Y377000D02*
D03*
Y242000D02*
D03*
Y227000D02*
D03*
X113000Y392000D02*
D03*
Y377000D02*
D03*
Y257000D02*
D03*
Y242000D02*
D03*
Y227000D02*
D03*
X98000Y392000D02*
D03*
Y377000D02*
D03*
X83000Y392000D02*
D03*
Y377000D02*
D03*
Y242000D02*
D03*
Y227000D02*
D03*
X68000Y392000D02*
D03*
Y377000D02*
D03*
Y242000D02*
D03*
Y227000D02*
D03*
X53000Y392000D02*
D03*
Y377000D02*
D03*
Y242000D02*
D03*
Y227000D02*
D03*
X38000Y392000D02*
D03*
Y377000D02*
D03*
Y317000D02*
D03*
Y242000D02*
D03*
X23000Y392000D02*
D03*
Y377000D02*
D03*
X8000Y392000D02*
D03*
Y377000D02*
D03*
Y227000D02*
D03*
X85000Y155000D02*
D03*
X127000Y175000D02*
D03*
X144000Y147000D02*
D03*
Y155000D02*
D03*
X43000Y163000D02*
D03*
X101000Y180000D02*
D03*
X101000Y162000D02*
D03*
X91000Y180000D02*
D03*
X97000Y84000D02*
D03*
X152000Y180000D02*
D03*
X17800Y177000D02*
D03*
X162000Y180000D02*
D03*
X192000D02*
D03*
X182000D02*
D03*
X142000Y202000D02*
D03*
X132000D02*
D03*
X77500Y345000D02*
D03*
X109500Y276000D02*
D03*
Y286000D02*
D03*
X37500Y345000D02*
D03*
X91000Y202000D02*
D03*
X101000D02*
D03*
X30000D02*
D03*
X40000D02*
D03*
X50000D02*
D03*
X60000D02*
D03*
X70000D02*
D03*
D49*
X185000Y100000D02*
D03*
X35000D02*
D03*
M02*
