M48
;Layer_Color=9474304
;FILE_FORMAT=4:4
METRIC,LZ
;TYPE=PLATED
T1F00S00C0.3000
T2F00S00C1.1000
T3F00S00C1.8000
;TYPE=NON_PLATED
T4F00S00C0.9950
%
T01
X000075Y000475
X0002Y000475
Y000625
X000075Y000625
Y000775
X0002Y000775
Y000925
X000075
X0000757Y001075
X0002
Y001225
X0000757
Y001375
X0002
Y001525
X000075Y001525
Y001675
X0002Y001675
Y001825
X000075Y001825
Y001975
X0002Y001975
Y002125
X000075Y002125
X00035Y002125
X0005
X00065
X0008
X00095
X0011
X00125
X0014
X00155
X00166Y002125
X0017175Y0020775
Y0019575
X00166Y001905
Y002015
X00155Y001975
X00155Y001875
X0015875Y00181
X0016Y001725
Y0015125
X00155Y001375
X0016575Y0013625
X00171676Y0012975
X0017Y001075
X00185
Y000925
Y000775
Y000625
X0017
Y000925
X00155
Y000775
X0014
Y000625
X00125
Y000775
X0011
Y000625
X00095
Y000775
X0008
Y000925
Y001075
Y001225
X00095
X0011
X00125
X0014
X00155
X0014Y001375
Y001525
Y001675
Y001825
Y001975
X00125
Y001825
Y001675
Y001525
Y001375
X0011
Y001525
Y001675
Y001825
Y001975
X00095
Y001825
Y001675
Y001525
Y001375
X0008
Y001525
Y001675
Y001825
Y001975
X00065
Y001825
Y001675
Y001525
Y001375
Y001225
X0005
Y001375
Y001525
Y001675
Y001825
Y001975
X00035
Y001825
Y001675
Y001525
Y001375
Y001225
Y001075
X0005
Y000925
Y000775
X00065
Y000625
X0008
Y000475
X00095
Y000325
X0008
X00065
Y000475
X0005
Y000625
X00035
Y000775
Y000925
Y000475
X0005Y000325
X0005Y000175
Y000075
X00065
Y000175
X0008
Y000075
X00095
Y000175
X0011
Y000075
X00125
Y000175
X0014
Y000075
X00155
Y000175
X0017
Y000075
X002Y000325
Y000475
X00215Y000625
X0023
X0026
X00275
X0029
X00305
X0032
X00335
X0035
Y000775
Y000925
X0036025Y0011075
X00365Y001225
Y001375
Y001525
X0035125Y001475
X00335Y001525
Y001375
Y001225
X0032
Y001075
Y000925
Y000775
X00335
Y000475
X0035
X00365
X0038
X003925Y000475
X00375Y0005825
X003925Y000775
Y000925
X0039257Y001075
Y001225
Y001375
X003925Y001525
X00384019Y00155508
X0037875Y001475
X0038Y001675
X003925Y001675
Y001825
X0038Y001825
Y001975
X003925Y001975
Y002125
X0038Y002125
X00365
Y001975
Y001825
X0035
Y001975
Y002125
X00335
Y001975
Y001825
X0032
Y001975
Y002125
X00305
Y001975
Y001825
X0029
Y001975
Y002125
X00275
Y001975
Y001825
X0026
Y001975
Y002125
X00245
X00235Y002125
Y0020175
Y001895
X0022775Y0019575
Y0020775
X00245Y001975
Y001825
Y0016275
X002525Y00155
X002625Y0015375
X0023825Y001495
X0023525Y001325
X0024425
X0026Y001225
Y001075
X00275
Y000925
Y000775
X0029
X0028725Y0008875
X00305Y000775
Y000475
X0032
Y000325
X00335
X0035
X0035Y000175
Y000075
X00335
Y000175
X0032
Y000075
X00305
X0030525Y000175
X0029
Y000075
X00275
Y000175
X0026
Y000075
X00245
Y000175
X0023
Y000075
X00275Y000325
Y000475
X00305Y000325
Y001225
X0029
X003155Y00137
X0026Y000925
Y000775
X00245
Y000925
X0023
X00225Y001125
X0018925Y00119
X00195Y001255
X00193932Y00150818
X00206342Y00151158
X00201Y0015775
X0021275Y001575
Y0017986
X00199991Y00179856
X00193707Y0017615
X0018725Y0017975
X00185457Y0015752
X0014Y001075
X00125
Y000475
Y000325
X00215Y000775
T02
X001111Y000417
X001365
X001619
X001873
X002127
X002381
X002635
X002889
T03
X00025Y00025
X00375
T04
X0036474Y0006455
X0038506
X003749Y0011535
M30
