M48
;Layer_Color=9474304
;FILE_FORMAT=4:4
METRIC,LZ
;TYPE=PLATED
T1F00S00C0.3000
T2F00S00C1.1000
T3F00S00C2.4000
;TYPE=NON_PLATED
T4F00S00C0.9950
%
T01
X0006Y0006
X0009725Y00082
X001025Y0012
X0011675Y0011375
X0014Y001
X00146297Y00068797
X001165Y0017125
X00114Y0017975
X00106Y0018875
X00098Y0021125
X00082
X00074Y0021425
X000675
X00061
X00053Y0021
X000575Y002275
X000725
X000875
X0009297Y002365
X001045Y0022625
X0011625Y0023125
X001175Y002425
X0011875Y002525
X00132
Y002425
X0014875Y0024
X0016625Y0023875
X001625Y002275
X0015875Y0021425
X001525
X0014625
X00154Y002545
X001615Y00262
X001625Y002725
X001625Y0029125
X001695Y0028775
X001625Y003025
X0016975Y0031
X001625Y003175
X001925
X002075
Y003325
Y003475
Y003625
Y003775
Y003925
X001925
Y003775
Y003625
Y003475
Y003325
Y003025
X002075
Y002875
Y002725
Y002575
Y002425
Y002275
X0021125Y002125
X00199Y0018625
X00183
X00175Y0018925
X001925Y002425
Y002575
Y002725
Y002875
X001775Y003475
Y003625
Y003775
Y003925
X001625
Y003775
Y003625
X001245Y0036075
X001175
X001025
X000955
X0009625Y0035
Y0033925
X001045
X001155
X0012375
Y0035
Y00328
Y00317
X001155Y0029825
X001045
X0009625Y00317
Y00328
X00058Y003335
Y003445
X000575Y003625
Y003775
Y003925
X000425
Y003775
Y003625
Y003475
Y003325
Y003175
X000575
X000275
Y003325
Y003475
Y003625
Y003775
Y003925
X000125
Y003775
Y003625
Y003475
Y003325
Y003175
Y003025
X000275
Y002875
Y002725
Y002575
X000425
Y002425
X000575
X00076784Y0024475
X00066Y0025625
X0005825Y0026375
X000575Y0028375
X000415
X000125Y002875
Y002725
Y002575
Y002425
X000275
Y002275
X000425
X000125
Y002125
Y0020325
X000275
Y002125
X000675Y0018625
X0007475Y0018225
X000925Y0015
X0008747Y00284
T02
X000211Y000422
X000465
X000719
X000973
X001227
X001481
X001735
X001989
T03
X00035Y001
X00185
T04
X000846Y001001
X001354Y0011026
Y0008994
M30
