G04*
G04 #@! TF.GenerationSoftware,Altium Limited,Altium Designer,21.6.4 (81)*
G04*
G04 Layer_Physical_Order=1*
G04 Layer_Color=255*
%FSLAX44Y44*%
%MOMM*%
G71*
G04*
G04 #@! TF.SameCoordinates,B426352F-7976-453D-B7C3-6DF0A089D787*
G04*
G04*
G04 #@! TF.FilePolarity,Positive*
G04*
G01*
G75*
%ADD11C,0.2540*%
%ADD14C,0.1524*%
%ADD15R,0.3600X0.3500*%
%ADD16R,0.8000X1.7000*%
%ADD17R,1.5500X1.0000*%
%ADD18R,0.3900X0.3900*%
%ADD19R,0.3900X0.3900*%
%ADD20R,1.0200X0.6400*%
%ADD22R,0.6200X0.6200*%
%ADD23R,0.5500X0.5200*%
%ADD24R,1.0000X0.8000*%
%ADD39C,0.7900*%
%ADD40C,0.1520*%
%ADD41C,3.4000*%
%ADD42C,1.6500*%
%ADD43R,1.6500X1.6500*%
%ADD44C,0.9000*%
%ADD45C,0.6000*%
G36*
X86400Y367720D02*
X81280D01*
X81220Y368965D01*
Y371970D01*
X78762D01*
Y368750D01*
X78000D01*
Y367988D01*
X74780D01*
Y366431D01*
X74687Y366412D01*
X74016Y365964D01*
X45786Y337734D01*
X45338Y337063D01*
X45180Y336271D01*
Y237140D01*
X16526Y208486D01*
X16115Y207870D01*
X11059D01*
Y209382D01*
X12560Y210883D01*
X13750Y210646D01*
X15416Y210978D01*
X16829Y211922D01*
X17772Y213334D01*
X18104Y215000D01*
X17772Y216666D01*
X16829Y218078D01*
X15416Y219022D01*
X13750Y219354D01*
X12084Y219022D01*
X10671Y218078D01*
X9728Y216666D01*
X9396Y215000D01*
X9633Y213810D01*
X7526Y211703D01*
X7077Y211032D01*
X6920Y210240D01*
Y207870D01*
X4078D01*
X4078Y395922D01*
X74780Y395922D01*
Y394012D01*
X78000D01*
X81220D01*
Y395922D01*
X86400D01*
Y367720D01*
D02*
G37*
G36*
X132280Y361280D02*
X138042Y361280D01*
X138604Y360250D01*
X138042Y359220D01*
X132280D01*
Y352780D01*
X138042Y352780D01*
X138604Y351750D01*
X138042Y350720D01*
X132280D01*
Y344280D01*
X138042Y344280D01*
X138604Y343250D01*
X138042Y342220D01*
X132280D01*
Y335780D01*
X138042Y335780D01*
X138604Y334750D01*
X138042Y333720D01*
X132280D01*
Y327280D01*
X138042Y327280D01*
X138604Y326250D01*
X138042Y325220D01*
X132280D01*
Y318780D01*
X138042D01*
X138604Y317750D01*
X138042Y316720D01*
X132280D01*
X132280Y310958D01*
X131250Y310396D01*
X130220Y310958D01*
Y316720D01*
X123780D01*
X123780Y310958D01*
X122750Y310396D01*
X121720Y310958D01*
Y316720D01*
X115280D01*
Y310958D01*
X114250Y310396D01*
X113220Y310958D01*
Y316720D01*
X106780D01*
Y310958D01*
X105750Y310396D01*
X104720Y310958D01*
Y316720D01*
X98280D01*
Y310958D01*
X97250Y310396D01*
X96220Y310958D01*
Y316720D01*
X89780D01*
Y311929D01*
X88694Y311479D01*
X87720Y312272D01*
Y316720D01*
X81958Y316720D01*
X81396Y317750D01*
X81958Y318780D01*
X87720D01*
Y325220D01*
X81958Y325220D01*
X81396Y326250D01*
X81958Y327280D01*
X87720D01*
Y333720D01*
X81958D01*
X81396Y334750D01*
X81958Y335780D01*
X87720D01*
Y342220D01*
X81958D01*
X81396Y343250D01*
X81958Y344280D01*
X87720D01*
Y350720D01*
X81958D01*
X81396Y351750D01*
X81958Y352780D01*
X87720D01*
Y359220D01*
X81958D01*
X81396Y360250D01*
X81958Y361280D01*
X87720D01*
Y367000D01*
X89780D01*
Y365262D01*
X96220D01*
Y367000D01*
X111030D01*
Y365262D01*
X117470D01*
Y367000D01*
X123780D01*
Y365262D01*
X130220D01*
Y367000D01*
X132280D01*
Y361280D01*
D02*
G37*
G36*
X215922Y200000D02*
X161236D01*
X160020Y200130D01*
X160020Y201270D01*
Y207870D01*
X158070D01*
Y214998D01*
X159079Y215672D01*
X160022Y217084D01*
X160354Y218750D01*
X160022Y220416D01*
X159079Y221828D01*
X157666Y222772D01*
X156000Y223104D01*
X154334Y222772D01*
X152921Y221828D01*
X151978Y220416D01*
X151646Y218750D01*
X151978Y217084D01*
X152921Y215672D01*
X153930Y214998D01*
Y207870D01*
X151980D01*
X151980Y200130D01*
X150764Y200000D01*
X131236D01*
X130020Y200130D01*
X130020Y201270D01*
Y207870D01*
X128070D01*
Y209250D01*
X127912Y210042D01*
X127464Y210714D01*
X123360Y214817D01*
Y292433D01*
X132874Y301947D01*
X133323Y302618D01*
X133480Y303410D01*
Y303780D01*
X134470D01*
X134470Y310220D01*
X135715Y310280D01*
X137535D01*
X138723Y310223D01*
X138780Y309035D01*
Y307762D01*
X145220D01*
Y310160D01*
X145220Y310220D01*
X145364Y311430D01*
X146893D01*
X150730Y307593D01*
Y298480D01*
X157680D01*
Y296120D01*
X155380D01*
Y287380D01*
X163110D01*
X164120Y287380D01*
X165390Y287380D01*
X167988D01*
Y291750D01*
Y296120D01*
X165390D01*
X164380Y296120D01*
X163110Y296120D01*
X161820D01*
Y298480D01*
X168770D01*
Y311020D01*
X153157D01*
X149213Y314963D01*
X148542Y315412D01*
X147750Y315570D01*
X145220D01*
Y319928D01*
X148750D01*
X148750Y319928D01*
X149543Y320086D01*
X150215Y320535D01*
X154160Y324480D01*
X168770D01*
Y337020D01*
X162565D01*
X162130Y338290D01*
X162720Y338880D01*
X164120Y338880D01*
X165390Y338880D01*
X167988D01*
Y343250D01*
Y347620D01*
X165390D01*
X164380Y347620D01*
X163110Y347620D01*
X155380D01*
Y345100D01*
X154110Y344975D01*
X154022Y345416D01*
X153078Y346828D01*
X151666Y347772D01*
X150000Y348104D01*
X148334Y347772D01*
X146922Y346828D01*
X146490Y346183D01*
X145220Y346470D01*
Y346470D01*
X139458Y346470D01*
X138896Y347500D01*
X139458Y348530D01*
X145220D01*
Y354970D01*
X139458Y354970D01*
X138896Y356000D01*
X139458Y357030D01*
X145220D01*
Y363470D01*
X139458Y363470D01*
X138896Y364500D01*
X139458Y365530D01*
X141238D01*
Y368750D01*
Y371970D01*
X139170D01*
X138780Y371970D01*
X137900Y372876D01*
Y376875D01*
X138780Y377780D01*
X139170Y377780D01*
X141238D01*
Y381000D01*
Y384220D01*
X139170D01*
X138780Y384220D01*
X137900Y385126D01*
Y389124D01*
X138780Y390030D01*
X141238D01*
Y393250D01*
X142000D01*
Y394012D01*
X145220D01*
Y395922D01*
X215922Y395922D01*
X215922Y200000D01*
D02*
G37*
G36*
X74780Y323030D02*
X80542Y323030D01*
X81104Y322000D01*
X80542Y320970D01*
X74780D01*
Y314530D01*
X81220Y314530D01*
X81280Y313285D01*
Y311494D01*
X81280Y311465D01*
X81223Y310277D01*
X80036Y310220D01*
X80006Y310220D01*
X78762D01*
Y307762D01*
X81220D01*
Y309006D01*
X81220Y309036D01*
X81277Y310223D01*
X82465Y310280D01*
X82494Y310280D01*
X82689D01*
X82715Y310152D01*
X83276Y309312D01*
X85530Y307057D01*
Y303780D01*
X86160D01*
Y298268D01*
X85262Y297370D01*
X84380D01*
X83110Y297370D01*
X80512D01*
Y293000D01*
Y288630D01*
X83475Y288630D01*
X84491Y287602D01*
X84518Y287360D01*
X84396Y286750D01*
X84728Y285084D01*
X85672Y283671D01*
X87084Y282728D01*
X88750Y282396D01*
X90416Y282728D01*
X91828Y283671D01*
X92772Y285084D01*
X93104Y286750D01*
X92982Y287360D01*
X93120Y288630D01*
X93120Y288630D01*
X93120Y288630D01*
Y297370D01*
X91340D01*
Y303780D01*
X91970D01*
X91970Y309542D01*
X93000Y310105D01*
X94030Y309542D01*
Y303780D01*
X99430D01*
Y299250D01*
X99588Y298458D01*
X100036Y297787D01*
X107680Y290143D01*
Y225357D01*
X92536Y210214D01*
X92088Y209542D01*
X91930Y208750D01*
Y207870D01*
X89980D01*
X89980Y200130D01*
X88764Y200000D01*
X69236D01*
X68020Y200130D01*
Y207870D01*
X66070D01*
Y211159D01*
X67340Y211544D01*
X67421Y211422D01*
X68834Y210478D01*
X70500Y210146D01*
X70580Y210081D01*
Y208780D01*
X70630Y208530D01*
Y202380D01*
X83370D01*
Y208530D01*
X83420Y208780D01*
Y209607D01*
X84073Y210260D01*
X85166Y210478D01*
X86579Y211422D01*
X87522Y212834D01*
X87854Y214500D01*
X87522Y216166D01*
X86579Y217579D01*
X85166Y218522D01*
X83500Y218854D01*
X81834Y218522D01*
X80422Y217579D01*
X80078D01*
X78666Y218522D01*
X77000Y218854D01*
X75334Y218522D01*
X74740Y218126D01*
X73750Y217659D01*
X72760Y218126D01*
X72166Y218522D01*
X70500Y218854D01*
X68834Y218522D01*
X67421Y217579D01*
X67340Y217456D01*
X66070Y217841D01*
Y325893D01*
X68607Y328430D01*
X74780D01*
Y323030D01*
D02*
G37*
%LPC*%
G36*
X81220Y392488D02*
X78762D01*
Y390030D01*
X81220D01*
Y392488D01*
D02*
G37*
G36*
X77238D02*
X74780D01*
Y390030D01*
X77238D01*
Y392488D01*
D02*
G37*
G36*
X81220Y384220D02*
X78762D01*
Y381762D01*
X81220D01*
Y384220D01*
D02*
G37*
G36*
X77238D02*
X74780D01*
Y381762D01*
X77238D01*
Y384220D01*
D02*
G37*
G36*
X81220Y380238D02*
X78762D01*
Y377780D01*
X81220D01*
Y380238D01*
D02*
G37*
G36*
X77238D02*
X74780D01*
Y377780D01*
X77238D01*
Y380238D01*
D02*
G37*
G36*
Y371970D02*
X74780D01*
Y369512D01*
X77238D01*
Y371970D01*
D02*
G37*
G36*
X130220Y363738D02*
X127762D01*
Y361280D01*
X130220D01*
Y363738D01*
D02*
G37*
G36*
X126238D02*
X123780D01*
Y361280D01*
X126238D01*
Y363738D01*
D02*
G37*
G36*
X117470D02*
X115012D01*
Y361280D01*
X117470D01*
Y363738D01*
D02*
G37*
G36*
X113488D02*
X111030D01*
Y361280D01*
X113488D01*
Y363738D01*
D02*
G37*
G36*
X96220D02*
X93762D01*
Y361280D01*
X96220D01*
Y363738D01*
D02*
G37*
G36*
X92238D02*
X89780D01*
Y361280D01*
X92238D01*
Y363738D01*
D02*
G37*
G36*
X130220Y359220D02*
X123780D01*
Y352780D01*
X130220D01*
Y359220D01*
D02*
G37*
G36*
X117470D02*
X111030D01*
Y352780D01*
X117470D01*
Y359220D01*
D02*
G37*
G36*
X96220D02*
X89780D01*
Y352780D01*
X96220D01*
Y359220D01*
D02*
G37*
G36*
X130220Y350720D02*
X123780D01*
Y344280D01*
X130220D01*
Y350720D01*
D02*
G37*
G36*
X108970D02*
X102530D01*
Y344280D01*
X108970D01*
Y350720D01*
D02*
G37*
G36*
X96220D02*
X89780D01*
Y344280D01*
X96220D01*
Y350720D01*
D02*
G37*
G36*
X130220Y342220D02*
X123780D01*
Y335780D01*
X130220D01*
Y342220D01*
D02*
G37*
G36*
X117470D02*
X111030D01*
Y335780D01*
X117470D01*
Y342220D01*
D02*
G37*
G36*
X96220D02*
X89780D01*
Y335780D01*
X96220D01*
Y342220D01*
D02*
G37*
G36*
X130220Y333720D02*
X123780D01*
Y327280D01*
X130220D01*
Y333720D01*
D02*
G37*
G36*
X108970D02*
X102530D01*
Y328144D01*
X101341Y327086D01*
X101250Y327104D01*
X100060Y326867D01*
X96220Y330707D01*
Y333720D01*
X89780D01*
Y327280D01*
X93793D01*
X94680Y326393D01*
X94194Y325220D01*
X89780D01*
Y318780D01*
X96220D01*
Y320306D01*
X97490Y320691D01*
X98172Y319671D01*
X99584Y318728D01*
X101250Y318396D01*
X102916Y318728D01*
X104328Y319671D01*
X105272Y321084D01*
X105604Y322750D01*
X105272Y324416D01*
X104328Y325829D01*
X104057Y326010D01*
X104442Y327280D01*
X108970D01*
Y333720D01*
D02*
G37*
G36*
X117470Y325220D02*
X115012D01*
Y322762D01*
X117470D01*
Y325220D01*
D02*
G37*
G36*
X113488D02*
X111030D01*
Y322762D01*
X113488D01*
Y325220D01*
D02*
G37*
G36*
X130220D02*
X123780D01*
Y318780D01*
X130220D01*
Y325220D01*
D02*
G37*
G36*
X117470Y321238D02*
X115012D01*
Y318780D01*
X117470D01*
Y321238D01*
D02*
G37*
G36*
X113488D02*
X111030D01*
Y318780D01*
X113488D01*
Y321238D01*
D02*
G37*
G36*
X145220Y392488D02*
X142762D01*
Y390030D01*
X145220D01*
Y392488D01*
D02*
G37*
G36*
X142762Y384220D02*
Y381762D01*
X145220D01*
Y384220D01*
X142762D01*
D02*
G37*
G36*
X145220Y380238D02*
X142762D01*
Y377780D01*
X145220D01*
Y380238D01*
D02*
G37*
G36*
X142762Y371970D02*
Y369512D01*
X145220D01*
Y371970D01*
X142762D01*
D02*
G37*
G36*
X145220Y367988D02*
X142762D01*
Y365530D01*
X145220D01*
Y367988D01*
D02*
G37*
G36*
X169512Y347620D02*
Y344012D01*
X173120D01*
Y347620D01*
X169512D01*
D02*
G37*
G36*
X173120Y342488D02*
X169512D01*
Y338880D01*
X173120D01*
Y342488D01*
D02*
G37*
G36*
X145220Y306238D02*
X142762D01*
Y303780D01*
X145220D01*
Y306238D01*
D02*
G37*
G36*
X141238D02*
X138780D01*
Y303780D01*
X141238D01*
Y306238D01*
D02*
G37*
G36*
X169512Y296120D02*
Y292512D01*
X173120D01*
Y296120D01*
X169512D01*
D02*
G37*
G36*
X173120Y290988D02*
X169512D01*
Y287380D01*
X173120D01*
Y290988D01*
D02*
G37*
G36*
X149370Y211320D02*
X143762D01*
Y207612D01*
X149370D01*
Y211320D01*
D02*
G37*
G36*
X142238D02*
X136630D01*
Y207612D01*
X142238D01*
Y211320D01*
D02*
G37*
G36*
X149370Y206088D02*
X143762D01*
Y202380D01*
X149370D01*
Y206088D01*
D02*
G37*
G36*
X142238D02*
X136630D01*
Y202380D01*
X142238D01*
Y206088D01*
D02*
G37*
G36*
X77238Y310220D02*
X74780D01*
Y307762D01*
X77238D01*
Y310220D01*
D02*
G37*
G36*
X81220Y306238D02*
X78762D01*
Y303780D01*
X81220D01*
Y306238D01*
D02*
G37*
G36*
X77238D02*
X74780D01*
Y303780D01*
X77238D01*
Y306238D01*
D02*
G37*
G36*
X78988Y297370D02*
X75380D01*
Y293762D01*
X78988D01*
Y297370D01*
D02*
G37*
G36*
Y292238D02*
X75380D01*
Y288630D01*
X78988D01*
Y292238D01*
D02*
G37*
%LPD*%
D11*
X116500Y139000D02*
X117500D01*
X113770Y136270D02*
X116500Y139000D01*
X113770Y135270D02*
Y136270D01*
X109750Y131250D02*
X113770Y135270D01*
X77000Y131250D02*
X109750D01*
X88750Y286250D02*
Y293000D01*
Y285750D02*
Y286250D01*
X88750Y307000D02*
X88750Y307000D01*
X88750Y293000D02*
Y307000D01*
Y286250D02*
Y287250D01*
Y286250D02*
X88750Y286250D01*
X97250Y73750D02*
Y93700D01*
X97300Y93750D01*
X122700D02*
X128950Y100000D01*
X143000D01*
Y193150D01*
X77000Y182500D02*
Y193150D01*
X168000Y150000D02*
X170730Y152730D01*
Y159930D01*
X180270Y169470D01*
Y169520D01*
X180750Y170000D01*
X180800D01*
X168000Y117000D02*
X185000Y100000D01*
X168000Y117000D02*
Y150000D01*
X49270Y152730D02*
X52000Y150000D01*
X49270Y152730D02*
Y159930D01*
X39730Y169470D02*
X49270Y159930D01*
X39730Y169470D02*
Y169520D01*
X39250Y170000D02*
X39730Y169520D01*
X39200Y170000D02*
X39250D01*
X35000Y100000D02*
X52000Y117000D01*
Y150000D01*
X75100Y206850D02*
X77000D01*
X73170Y208780D02*
X75100Y206850D01*
X73170Y208780D02*
Y211282D01*
X70500Y213952D02*
X73170Y211282D01*
X70500Y213952D02*
Y214500D01*
X77000Y206850D02*
X78900D01*
X80830Y208780D01*
Y210680D01*
X82838Y212688D01*
Y213838D01*
X83500Y214500D01*
X77000Y206850D02*
Y214500D01*
X85107Y311143D02*
X88750Y307500D01*
X85107Y311143D02*
Y313393D01*
X84500Y314000D02*
X85107Y313393D01*
X143000Y206850D02*
Y213750D01*
D14*
X110000Y172250D02*
Y196000D01*
X110000Y196000D02*
X110000Y196000D01*
X126000Y188750D02*
Y196000D01*
X8000Y80700D02*
X46500Y42200D01*
X8000Y80700D02*
Y196000D01*
X159750Y330250D02*
Y342750D01*
X157000Y330250D02*
X159750D01*
X148750Y322000D02*
X157000Y330250D01*
X135500Y322000D02*
X148750D01*
D15*
X189200Y170000D02*
D03*
X180800D02*
D03*
X39200Y170000D02*
D03*
X30800D02*
D03*
D16*
X168000Y150000D02*
D03*
X202000D02*
D03*
X18000D02*
D03*
X52000D02*
D03*
D17*
X159750Y330750D02*
D03*
Y304750D02*
D03*
D18*
X93000Y313500D02*
D03*
X88750Y307000D02*
D03*
X78000D02*
D03*
X84500Y313500D02*
D03*
X78000Y317750D02*
D03*
Y326250D02*
D03*
X84500Y322000D02*
D03*
X93000D02*
D03*
X78000Y334750D02*
D03*
X84500Y330500D02*
D03*
X93000D02*
D03*
X78000Y343250D02*
D03*
X84500Y339000D02*
D03*
X93000D02*
D03*
X78000Y351750D02*
D03*
X84500Y347500D02*
D03*
X93000D02*
D03*
Y356000D02*
D03*
X84500D02*
D03*
X78000Y360250D02*
D03*
X93000Y364500D02*
D03*
X84500D02*
D03*
X78000Y368750D02*
D03*
Y381000D02*
D03*
X97250Y307000D02*
D03*
X101500Y313500D02*
D03*
X105750Y307000D02*
D03*
X110000Y313500D02*
D03*
X114250Y307000D02*
D03*
X118500Y313500D02*
D03*
X122750Y307000D02*
D03*
X127000Y313500D02*
D03*
X131250Y307000D02*
D03*
X142000D02*
D03*
X135500Y313500D02*
D03*
X142000Y317750D02*
D03*
X135500Y322000D02*
D03*
X127000D02*
D03*
X142000Y326250D02*
D03*
X135500Y330500D02*
D03*
X127000D02*
D03*
X142000Y334750D02*
D03*
X135500Y339000D02*
D03*
X127000D02*
D03*
X142000Y343250D02*
D03*
X135500Y347500D02*
D03*
X127000D02*
D03*
X142000Y351750D02*
D03*
X135500Y356000D02*
D03*
X127000D02*
D03*
X142000Y360250D02*
D03*
X135500Y364500D02*
D03*
X127000D02*
D03*
X142000Y368750D02*
D03*
Y381000D02*
D03*
Y393250D02*
D03*
X114250Y364500D02*
D03*
Y356000D02*
D03*
X105750Y347500D02*
D03*
X114250Y339000D02*
D03*
X105750Y330500D02*
D03*
X114250Y322000D02*
D03*
D19*
X78000Y393250D02*
D03*
D20*
X143000Y206850D02*
D03*
Y193150D02*
D03*
X77000D02*
D03*
Y206850D02*
D03*
D22*
X88750Y293000D02*
D03*
X79750D02*
D03*
X168750Y291750D02*
D03*
X159750D02*
D03*
X168750Y343250D02*
D03*
X159750D02*
D03*
D23*
X48000Y204000D02*
D03*
Y196000D02*
D03*
X24000D02*
D03*
Y204000D02*
D03*
X16000Y196000D02*
D03*
Y204000D02*
D03*
X94000D02*
D03*
Y196000D02*
D03*
X118000Y204000D02*
D03*
Y196000D02*
D03*
X8000Y204000D02*
D03*
Y196000D02*
D03*
X102000Y204000D02*
D03*
Y196000D02*
D03*
X110000Y204000D02*
D03*
Y196000D02*
D03*
X126000Y204000D02*
D03*
Y196000D02*
D03*
X156000D02*
D03*
Y204000D02*
D03*
X64000Y196000D02*
D03*
Y204000D02*
D03*
X56000Y196000D02*
D03*
Y204000D02*
D03*
X40000Y196000D02*
D03*
Y204000D02*
D03*
X32000Y196000D02*
D03*
Y204000D02*
D03*
D24*
X117500Y139000D02*
D03*
X102500D02*
D03*
Y150000D02*
D03*
X117500D02*
D03*
D39*
X97300Y93750D02*
D03*
Y106450D02*
D03*
X110000Y93750D02*
D03*
Y106450D02*
D03*
X122700Y93750D02*
D03*
Y106450D02*
D03*
D40*
X142000Y343750D02*
X150000D01*
X117500Y150000D02*
X126750D01*
X70750Y139000D02*
X102500D01*
X62790Y146960D02*
X70750Y139000D01*
X117500Y150000D02*
X117500Y150000D01*
X102500Y150000D02*
Y158500D01*
X97250Y163750D02*
X102500Y158500D01*
X101750Y168750D02*
X102778D01*
X94000Y176500D02*
X101750Y168750D01*
X101500Y299250D02*
X109750Y291000D01*
Y224500D02*
Y291000D01*
X101500Y299250D02*
Y313500D01*
X110000Y294750D02*
Y313500D01*
X112670Y219170D02*
Y292080D01*
X110000Y294750D02*
X112670Y292080D01*
X114500Y294250D02*
Y306750D01*
X115460Y213960D02*
Y293290D01*
X114500Y294250D02*
X115460Y293290D01*
X114250Y307000D02*
X114500Y306750D01*
X121290Y213960D02*
Y293290D01*
X131410Y303410D02*
Y306840D01*
X121290Y293290D02*
X131410Y303410D01*
X131250Y307000D02*
X131410Y306840D01*
X118000Y204000D02*
X118500Y204500D01*
Y313500D01*
X118500Y313500D01*
X121290Y213960D02*
X126000Y209250D01*
X50040Y235127D02*
Y332518D01*
X48000Y221250D02*
X58410Y231660D01*
Y329051D01*
X50040Y332518D02*
X73522Y356000D01*
X32000Y213141D02*
X52830Y233971D01*
X24000Y209087D02*
X50040Y235127D01*
X59250Y228554D02*
X61200Y230504D01*
X47250Y236283D02*
Y336271D01*
X55620Y232816D02*
Y330207D01*
X52830Y331363D02*
X70208Y348740D01*
X55620Y330207D02*
X71363Y345950D01*
X58410Y329051D02*
X72519Y343160D01*
X61200Y327896D02*
X66594Y333290D01*
X52830Y233971D02*
Y331363D01*
X47250Y336271D02*
X75479Y364500D01*
X17990Y207023D02*
X47250Y236283D01*
X40000Y217196D02*
X55620Y232816D01*
X61200Y230504D02*
Y327896D01*
X59250Y228500D02*
Y228554D01*
X64000Y326750D02*
X67750Y330500D01*
X64000Y204000D02*
Y326750D01*
X56000Y225250D02*
X59250Y228500D01*
X75479Y364500D02*
X84500D01*
X73522Y356000D02*
X84500D01*
X70208Y348740D02*
X73217Y351750D01*
X78000D01*
X70208Y348740D02*
X70208D01*
X71363Y345950D02*
X71364D01*
X72913Y347500D02*
X84500D01*
X71364Y345950D02*
X72913Y347500D01*
X72519Y343160D02*
X77910D01*
X66594Y333290D02*
X72304Y339000D01*
X66594Y333290D02*
X66594D01*
X72304Y339000D02*
X84500D01*
X77910Y343160D02*
X78000Y343250D01*
X67750Y330500D02*
X84500D01*
X84500Y347500D02*
X84500Y347500D01*
X30775Y169911D02*
Y170025D01*
X30800Y170000D01*
X30750Y170050D02*
X30775Y170025D01*
X30750Y170050D02*
Y177500D01*
X24000Y171250D02*
Y196000D01*
X26084Y165220D02*
X30775Y169911D01*
X25970Y165220D02*
X26084D01*
X20640Y159890D02*
X25970Y165220D01*
X56000Y187446D02*
Y196000D01*
X48000Y191500D02*
X60000Y179500D01*
X48000Y191500D02*
Y196000D01*
X56000Y187446D02*
X62790Y180656D01*
X64000Y188750D02*
Y196000D01*
X40000Y192000D02*
Y196000D01*
Y192000D02*
X47250Y184750D01*
X32000Y191750D02*
X39500Y184250D01*
X32000Y191750D02*
Y196000D01*
X189150Y170000D02*
X189200D01*
X188160Y170990D02*
X189150Y170000D01*
X188160Y170990D02*
Y171040D01*
X163200Y196000D02*
X188160Y171040D01*
X156000Y196000D02*
X163200D01*
X199310Y152690D02*
X202000Y150000D01*
X199310Y152690D02*
Y159890D01*
X190240Y168960D02*
X199310Y159890D01*
X190240Y168960D02*
Y169010D01*
X189250Y170000D02*
X190240Y169010D01*
X189200Y170000D02*
X189250D01*
X94000Y176500D02*
Y196000D01*
X97250Y113750D02*
X97275Y113725D01*
X102000Y177500D02*
Y196000D01*
X118000Y183750D02*
Y196000D01*
X62790Y146960D02*
Y180656D01*
X97275Y106475D02*
Y113725D01*
Y106475D02*
X97300Y106450D01*
X60000Y87500D02*
Y179500D01*
X110000Y106450D02*
Y113750D01*
Y83750D02*
Y93750D01*
X18000Y150000D02*
X20640Y152640D01*
Y159890D01*
X16000Y190000D02*
Y196000D01*
X94000Y208750D02*
X109750Y224500D01*
X102000Y208500D02*
X112670Y219170D01*
X126000Y204000D02*
Y209250D01*
X110000Y208500D02*
X115460Y213960D01*
X94000Y204000D02*
Y208750D01*
X102000Y204000D02*
Y208500D01*
X110000Y204000D02*
Y208500D01*
X156000Y204000D02*
Y218750D01*
X8990Y204990D02*
Y210240D01*
X13750Y215000D01*
X16000Y204000D02*
X16150D01*
X17990Y205840D01*
Y207023D01*
X24000Y204000D02*
Y209087D01*
X32000Y204000D02*
Y213141D01*
X40000Y204000D02*
Y217196D01*
X48000Y204000D02*
Y221250D01*
X56000Y204000D02*
Y225250D01*
X8000Y204000D02*
X8990Y204990D01*
X93000Y331000D02*
X101250Y322750D01*
Y322750D02*
Y322750D01*
X135500Y313500D02*
X147750D01*
X157000Y304250D02*
X159750D01*
X147750Y313500D02*
X157000Y304250D01*
X159750Y291250D02*
Y304250D01*
D41*
X185000Y100000D02*
D03*
X35000D02*
D03*
D42*
X21100Y42200D02*
D03*
X46500D02*
D03*
X148100D02*
D03*
X173500D02*
D03*
X122700D02*
D03*
X97300D02*
D03*
X71900D02*
D03*
D43*
X198900D02*
D03*
D44*
X84600Y100100D02*
D03*
X135400Y110260D02*
D03*
Y89940D02*
D03*
D45*
X35182Y287318D02*
D03*
X20182Y272318D02*
D03*
X20000Y257500D02*
D03*
Y242500D02*
D03*
Y227500D02*
D03*
X105750Y338720D02*
D03*
X126750Y290500D02*
D03*
X142332Y300674D02*
D03*
X126750Y150000D02*
D03*
X77000Y131250D02*
D03*
X97250Y163750D02*
D03*
X102778Y168750D02*
D03*
X200000Y392500D02*
D03*
Y377500D02*
D03*
Y362500D02*
D03*
Y347500D02*
D03*
Y332500D02*
D03*
Y317500D02*
D03*
Y302500D02*
D03*
Y287500D02*
D03*
Y272500D02*
D03*
Y257500D02*
D03*
Y242500D02*
D03*
Y227500D02*
D03*
X185000Y392500D02*
D03*
Y377500D02*
D03*
Y362500D02*
D03*
Y347500D02*
D03*
Y332500D02*
D03*
Y317500D02*
D03*
Y302500D02*
D03*
Y287500D02*
D03*
Y272500D02*
D03*
Y257500D02*
D03*
Y242500D02*
D03*
Y227500D02*
D03*
X170000Y392500D02*
D03*
Y377500D02*
D03*
Y362500D02*
D03*
Y317500D02*
D03*
Y272500D02*
D03*
Y257500D02*
D03*
Y242500D02*
D03*
Y227500D02*
D03*
X155000Y377500D02*
D03*
Y362500D02*
D03*
Y317500D02*
D03*
Y272500D02*
D03*
Y257500D02*
D03*
Y242500D02*
D03*
Y227500D02*
D03*
X140000Y272500D02*
D03*
Y257500D02*
D03*
Y242500D02*
D03*
Y227500D02*
D03*
X95000Y272500D02*
D03*
Y257500D02*
D03*
Y242500D02*
D03*
Y227500D02*
D03*
X80000Y257500D02*
D03*
Y242500D02*
D03*
Y227500D02*
D03*
X65000Y392500D02*
D03*
Y377500D02*
D03*
Y362500D02*
D03*
X50000Y392500D02*
D03*
Y377500D02*
D03*
Y362500D02*
D03*
Y347500D02*
D03*
X35000Y392500D02*
D03*
Y377500D02*
D03*
Y362500D02*
D03*
Y347500D02*
D03*
Y332500D02*
D03*
Y317500D02*
D03*
Y302500D02*
D03*
Y272500D02*
D03*
Y257500D02*
D03*
Y242500D02*
D03*
X20000Y392500D02*
D03*
Y377500D02*
D03*
Y362500D02*
D03*
Y347500D02*
D03*
Y332500D02*
D03*
Y317500D02*
D03*
Y302500D02*
D03*
Y287500D02*
D03*
X212500Y213500D02*
D03*
Y203500D02*
D03*
X200000D02*
D03*
X185000D02*
D03*
X170000D02*
D03*
X200000Y213500D02*
D03*
X185000D02*
D03*
X170000D02*
D03*
X7500Y392500D02*
D03*
Y377500D02*
D03*
Y362500D02*
D03*
Y347500D02*
D03*
Y332500D02*
D03*
Y317500D02*
D03*
Y302500D02*
D03*
Y287500D02*
D03*
Y272500D02*
D03*
Y257500D02*
D03*
Y242500D02*
D03*
Y227500D02*
D03*
X78500Y300500D02*
D03*
X88750Y286750D02*
D03*
X30750Y177500D02*
D03*
X24000Y171250D02*
D03*
X64000Y188750D02*
D03*
X47250Y184750D02*
D03*
X39500Y184250D02*
D03*
X97250Y113750D02*
D03*
Y73750D02*
D03*
X110000Y172250D02*
D03*
X102000Y177500D02*
D03*
X118000Y183750D02*
D03*
X126000Y188750D02*
D03*
X143000Y100000D02*
D03*
X77000Y182500D02*
D03*
X110000Y113750D02*
D03*
Y83750D02*
D03*
X60000Y87500D02*
D03*
X16000Y190000D02*
D03*
X136750Y214500D02*
D03*
X149250D02*
D03*
X143000D02*
D03*
X156000Y218750D02*
D03*
X13750Y215000D02*
D03*
X70500Y214500D02*
D03*
X83500D02*
D03*
X77000D02*
D03*
X101250Y322750D02*
D03*
X150000Y343750D02*
D03*
X212500Y227500D02*
D03*
Y242500D02*
D03*
Y257500D02*
D03*
Y272500D02*
D03*
Y287500D02*
D03*
Y302500D02*
D03*
Y317500D02*
D03*
Y332500D02*
D03*
Y347500D02*
D03*
Y362500D02*
D03*
Y377500D02*
D03*
Y392500D02*
D03*
X148000Y368750D02*
D03*
Y381000D02*
D03*
Y392750D02*
D03*
X72000Y369000D02*
D03*
X83250Y392750D02*
D03*
X78000Y374750D02*
D03*
X83750Y381000D02*
D03*
X78000Y387250D02*
D03*
X114250Y330500D02*
D03*
Y347500D02*
D03*
X105750Y356000D02*
D03*
X120500Y363750D02*
D03*
X108000D02*
D03*
X99250D02*
D03*
X142000Y375000D02*
D03*
Y387250D02*
D03*
M02*
