G04*
G04 #@! TF.GenerationSoftware,Altium Limited,Altium Designer,21.6.4 (81)*
G04*
G04 Layer_Color=8388736*
%FSLAX44Y44*%
%MOMM*%
G71*
G04*
G04 #@! TF.SameCoordinates,B426352F-7976-453D-B7C3-6DF0A089D787*
G04*
G04*
G04 #@! TF.FilePolarity,Negative*
G04*
G01*
G75*
%ADD25R,0.4600X0.4500*%
%ADD26R,0.9000X1.8000*%
%ADD27R,1.6500X1.1000*%
%ADD28R,0.4900X0.4900*%
%ADD29R,0.4900X0.4900*%
%ADD30R,1.1200X0.7400*%
%ADD31C,0.8900*%
%ADD32R,0.7200X0.7200*%
%ADD33R,0.6500X0.6200*%
%ADD34R,1.1000X0.9000*%
%ADD35C,3.5000*%
%ADD36C,1.7500*%
%ADD37R,1.7500X1.7500*%
%ADD38C,1.0000*%
D25*
X189200Y170000D02*
D03*
X180800D02*
D03*
X39200Y170000D02*
D03*
X30800D02*
D03*
D26*
X168000Y150000D02*
D03*
X202000D02*
D03*
X18000D02*
D03*
X52000D02*
D03*
D27*
X159750Y330750D02*
D03*
Y304750D02*
D03*
D28*
X93000Y313500D02*
D03*
X88750Y307000D02*
D03*
X78000D02*
D03*
X84500Y313500D02*
D03*
X78000Y317750D02*
D03*
Y326250D02*
D03*
X84500Y322000D02*
D03*
X93000D02*
D03*
X78000Y334750D02*
D03*
X84500Y330500D02*
D03*
X93000D02*
D03*
X78000Y343250D02*
D03*
X84500Y339000D02*
D03*
X93000D02*
D03*
X78000Y351750D02*
D03*
X84500Y347500D02*
D03*
X93000D02*
D03*
Y356000D02*
D03*
X84500D02*
D03*
X78000Y360250D02*
D03*
X93000Y364500D02*
D03*
X84500D02*
D03*
X78000Y368750D02*
D03*
Y381000D02*
D03*
X97250Y307000D02*
D03*
X101500Y313500D02*
D03*
X105750Y307000D02*
D03*
X110000Y313500D02*
D03*
X114250Y307000D02*
D03*
X118500Y313500D02*
D03*
X122750Y307000D02*
D03*
X127000Y313500D02*
D03*
X131250Y307000D02*
D03*
X142000D02*
D03*
X135500Y313500D02*
D03*
X142000Y317750D02*
D03*
X135500Y322000D02*
D03*
X127000D02*
D03*
X142000Y326250D02*
D03*
X135500Y330500D02*
D03*
X127000D02*
D03*
X142000Y334750D02*
D03*
X135500Y339000D02*
D03*
X127000D02*
D03*
X142000Y343250D02*
D03*
X135500Y347500D02*
D03*
X127000D02*
D03*
X142000Y351750D02*
D03*
X135500Y356000D02*
D03*
X127000D02*
D03*
X142000Y360250D02*
D03*
X135500Y364500D02*
D03*
X127000D02*
D03*
X142000Y368750D02*
D03*
Y381000D02*
D03*
Y393250D02*
D03*
X114250Y364500D02*
D03*
Y356000D02*
D03*
X105750Y347500D02*
D03*
X114250Y339000D02*
D03*
X105750Y330500D02*
D03*
X114250Y322000D02*
D03*
D29*
X78000Y393250D02*
D03*
D30*
X143000Y206850D02*
D03*
Y193150D02*
D03*
X77000D02*
D03*
Y206850D02*
D03*
D31*
X97300Y93750D02*
D03*
Y106450D02*
D03*
X110000Y93750D02*
D03*
Y106450D02*
D03*
X122700Y93750D02*
D03*
Y106450D02*
D03*
D32*
X88750Y293000D02*
D03*
X79750D02*
D03*
X168750Y291750D02*
D03*
X159750D02*
D03*
X168750Y343250D02*
D03*
X159750D02*
D03*
D33*
X48000Y204000D02*
D03*
Y196000D02*
D03*
X24000D02*
D03*
Y204000D02*
D03*
X16000Y196000D02*
D03*
Y204000D02*
D03*
X94000D02*
D03*
Y196000D02*
D03*
X118000Y204000D02*
D03*
Y196000D02*
D03*
X8000Y204000D02*
D03*
Y196000D02*
D03*
X102000Y204000D02*
D03*
Y196000D02*
D03*
X110000Y204000D02*
D03*
Y196000D02*
D03*
X126000Y204000D02*
D03*
Y196000D02*
D03*
X156000D02*
D03*
Y204000D02*
D03*
X64000Y196000D02*
D03*
Y204000D02*
D03*
X56000Y196000D02*
D03*
Y204000D02*
D03*
X40000Y196000D02*
D03*
Y204000D02*
D03*
X32000Y196000D02*
D03*
Y204000D02*
D03*
D34*
X117500Y139000D02*
D03*
X102500D02*
D03*
Y150000D02*
D03*
X117500D02*
D03*
D35*
X185000Y100000D02*
D03*
X35000D02*
D03*
D36*
X21100Y42200D02*
D03*
X46500D02*
D03*
X148100D02*
D03*
X173500D02*
D03*
X122700D02*
D03*
X97300D02*
D03*
X71900D02*
D03*
D37*
X198900D02*
D03*
D38*
X84600Y100100D02*
D03*
X135400Y110260D02*
D03*
Y89940D02*
D03*
M02*
