G04*
G04 #@! TF.GenerationSoftware,Altium Limited,Altium Designer,21.6.4 (81)*
G04*
G04 Layer_Color=128*
%FSLAX44Y44*%
%MOMM*%
G71*
G04*
G04 #@! TF.SameCoordinates,B426352F-7976-453D-B7C3-6DF0A089D787*
G04*
G04*
G04 #@! TF.FilePolarity,Positive*
G04*
G01*
G75*
%ADD48C,0.0508*%
D48*
X176000Y100000D02*
X194000D01*
X185000Y91000D02*
Y109000D01*
X26000Y100000D02*
X44000D01*
X35000Y91000D02*
Y109000D01*
X15600Y42200D02*
X26600D01*
X21100Y36700D02*
Y47700D01*
X41000Y42200D02*
X52000D01*
X46500Y36700D02*
Y47700D01*
X142600Y42200D02*
X153600D01*
X148100Y36700D02*
Y47700D01*
X193400Y42200D02*
X204400D01*
X198900Y36700D02*
Y47700D01*
X168000Y42200D02*
X179000D01*
X173500Y36700D02*
Y47700D01*
X117200Y42200D02*
X128200D01*
X122700Y36700D02*
Y47700D01*
X91800Y42200D02*
X102800D01*
X97300Y36700D02*
Y47700D01*
X66400Y42200D02*
X77400D01*
X71900Y36700D02*
Y47700D01*
X79625Y100100D02*
X89575D01*
X84600Y95125D02*
Y105075D01*
X130425Y110260D02*
X140375D01*
X135400Y105285D02*
Y115235D01*
X130425Y89940D02*
X140375D01*
X135400Y84965D02*
Y94915D01*
X33682Y287318D02*
X36682D01*
X35182Y285818D02*
Y288818D01*
X18682Y272318D02*
X21682D01*
X20182Y270818D02*
Y273818D01*
X18500Y257500D02*
X21500D01*
X20000Y256000D02*
Y259000D01*
X18500Y242500D02*
X21500D01*
X20000Y241000D02*
Y244000D01*
X18500Y227500D02*
X21500D01*
X20000Y226000D02*
Y229000D01*
X104250Y338720D02*
X107250D01*
X105750Y337220D02*
Y340220D01*
X125250Y290500D02*
X128250D01*
X126750Y289000D02*
Y292000D01*
X140832Y300674D02*
X143832D01*
X142332Y299174D02*
Y302174D01*
X125250Y150000D02*
X128250D01*
X126750Y148500D02*
Y151500D01*
X75500Y131250D02*
X78500D01*
X77000Y129750D02*
Y132750D01*
X95750Y163750D02*
X98750D01*
X97250Y162250D02*
Y165250D01*
X101278Y168750D02*
X104278D01*
X102778Y167250D02*
Y170250D01*
X198500Y392500D02*
X201500D01*
X200000Y391000D02*
Y394000D01*
X198500Y377500D02*
X201500D01*
X200000Y376000D02*
Y379000D01*
X198500Y362500D02*
X201500D01*
X200000Y361000D02*
Y364000D01*
X198500Y347500D02*
X201500D01*
X200000Y346000D02*
Y349000D01*
X198500Y332500D02*
X201500D01*
X200000Y331000D02*
Y334000D01*
X198500Y317500D02*
X201500D01*
X200000Y316000D02*
Y319000D01*
X198500Y302500D02*
X201500D01*
X200000Y301000D02*
Y304000D01*
X198500Y287500D02*
X201500D01*
X200000Y286000D02*
Y289000D01*
X198500Y272500D02*
X201500D01*
X200000Y271000D02*
Y274000D01*
X198500Y257500D02*
X201500D01*
X200000Y256000D02*
Y259000D01*
X198500Y242500D02*
X201500D01*
X200000Y241000D02*
Y244000D01*
X198500Y227500D02*
X201500D01*
X200000Y226000D02*
Y229000D01*
X183500Y392500D02*
X186500D01*
X185000Y391000D02*
Y394000D01*
X183500Y377500D02*
X186500D01*
X185000Y376000D02*
Y379000D01*
X183500Y362500D02*
X186500D01*
X185000Y361000D02*
Y364000D01*
X183500Y347500D02*
X186500D01*
X185000Y346000D02*
Y349000D01*
X183500Y332500D02*
X186500D01*
X185000Y331000D02*
Y334000D01*
X183500Y317500D02*
X186500D01*
X185000Y316000D02*
Y319000D01*
X183500Y302500D02*
X186500D01*
X185000Y301000D02*
Y304000D01*
X183500Y287500D02*
X186500D01*
X185000Y286000D02*
Y289000D01*
X183500Y272500D02*
X186500D01*
X185000Y271000D02*
Y274000D01*
X183500Y257500D02*
X186500D01*
X185000Y256000D02*
Y259000D01*
X183500Y242500D02*
X186500D01*
X185000Y241000D02*
Y244000D01*
X183500Y227500D02*
X186500D01*
X185000Y226000D02*
Y229000D01*
X168500Y392500D02*
X171500D01*
X170000Y391000D02*
Y394000D01*
X168500Y377500D02*
X171500D01*
X170000Y376000D02*
Y379000D01*
X168500Y362500D02*
X171500D01*
X170000Y361000D02*
Y364000D01*
X168500Y317500D02*
X171500D01*
X170000Y316000D02*
Y319000D01*
X168500Y272500D02*
X171500D01*
X170000Y271000D02*
Y274000D01*
X168500Y257500D02*
X171500D01*
X170000Y256000D02*
Y259000D01*
X168500Y242500D02*
X171500D01*
X170000Y241000D02*
Y244000D01*
X168500Y227500D02*
X171500D01*
X170000Y226000D02*
Y229000D01*
X153500Y377500D02*
X156500D01*
X155000Y376000D02*
Y379000D01*
X153500Y362500D02*
X156500D01*
X155000Y361000D02*
Y364000D01*
X153500Y317500D02*
X156500D01*
X155000Y316000D02*
Y319000D01*
X153500Y272500D02*
X156500D01*
X155000Y271000D02*
Y274000D01*
X153500Y257500D02*
X156500D01*
X155000Y256000D02*
Y259000D01*
X153500Y242500D02*
X156500D01*
X155000Y241000D02*
Y244000D01*
X153500Y227500D02*
X156500D01*
X155000Y226000D02*
Y229000D01*
X138500Y272500D02*
X141500D01*
X140000Y271000D02*
Y274000D01*
X138500Y257500D02*
X141500D01*
X140000Y256000D02*
Y259000D01*
X138500Y242500D02*
X141500D01*
X140000Y241000D02*
Y244000D01*
X138500Y227500D02*
X141500D01*
X140000Y226000D02*
Y229000D01*
X93500Y272500D02*
X96500D01*
X95000Y271000D02*
Y274000D01*
X93500Y257500D02*
X96500D01*
X95000Y256000D02*
Y259000D01*
X93500Y242500D02*
X96500D01*
X95000Y241000D02*
Y244000D01*
X93500Y227500D02*
X96500D01*
X95000Y226000D02*
Y229000D01*
X78500Y257500D02*
X81500D01*
X80000Y256000D02*
Y259000D01*
X78500Y242500D02*
X81500D01*
X80000Y241000D02*
Y244000D01*
X78500Y227500D02*
X81500D01*
X80000Y226000D02*
Y229000D01*
X63500Y392500D02*
X66500D01*
X65000Y391000D02*
Y394000D01*
X63500Y377500D02*
X66500D01*
X65000Y376000D02*
Y379000D01*
X63500Y362500D02*
X66500D01*
X65000Y361000D02*
Y364000D01*
X48500Y392500D02*
X51500D01*
X50000Y391000D02*
Y394000D01*
X48500Y377500D02*
X51500D01*
X50000Y376000D02*
Y379000D01*
X48500Y362500D02*
X51500D01*
X50000Y361000D02*
Y364000D01*
X48500Y347500D02*
X51500D01*
X50000Y346000D02*
Y349000D01*
X33500Y392500D02*
X36500D01*
X35000Y391000D02*
Y394000D01*
X33500Y377500D02*
X36500D01*
X35000Y376000D02*
Y379000D01*
X33500Y362500D02*
X36500D01*
X35000Y361000D02*
Y364000D01*
X33500Y347500D02*
X36500D01*
X35000Y346000D02*
Y349000D01*
X33500Y332500D02*
X36500D01*
X35000Y331000D02*
Y334000D01*
X33500Y317500D02*
X36500D01*
X35000Y316000D02*
Y319000D01*
X33500Y302500D02*
X36500D01*
X35000Y301000D02*
Y304000D01*
X33500Y272500D02*
X36500D01*
X35000Y271000D02*
Y274000D01*
X33500Y257500D02*
X36500D01*
X35000Y256000D02*
Y259000D01*
X33500Y242500D02*
X36500D01*
X35000Y241000D02*
Y244000D01*
X18500Y392500D02*
X21500D01*
X20000Y391000D02*
Y394000D01*
X18500Y377500D02*
X21500D01*
X20000Y376000D02*
Y379000D01*
X18500Y362500D02*
X21500D01*
X20000Y361000D02*
Y364000D01*
X18500Y347500D02*
X21500D01*
X20000Y346000D02*
Y349000D01*
X18500Y332500D02*
X21500D01*
X20000Y331000D02*
Y334000D01*
X18500Y317500D02*
X21500D01*
X20000Y316000D02*
Y319000D01*
X18500Y302500D02*
X21500D01*
X20000Y301000D02*
Y304000D01*
X18500Y287500D02*
X21500D01*
X20000Y286000D02*
Y289000D01*
X211000Y213500D02*
X214000D01*
X212500Y212000D02*
Y215000D01*
X211000Y203500D02*
X214000D01*
X212500Y202000D02*
Y205000D01*
X198500Y203500D02*
X201500D01*
X200000Y202000D02*
Y205000D01*
X183500Y203500D02*
X186500D01*
X185000Y202000D02*
Y205000D01*
X168500Y203500D02*
X171500D01*
X170000Y202000D02*
Y205000D01*
X198500Y213500D02*
X201500D01*
X200000Y212000D02*
Y215000D01*
X183500Y213500D02*
X186500D01*
X185000Y212000D02*
Y215000D01*
X168500Y213500D02*
X171500D01*
X170000Y212000D02*
Y215000D01*
X6000Y392500D02*
X9000D01*
X7500Y391000D02*
Y394000D01*
X6000Y377500D02*
X9000D01*
X7500Y376000D02*
Y379000D01*
X6000Y362500D02*
X9000D01*
X7500Y361000D02*
Y364000D01*
X6000Y347500D02*
X9000D01*
X7500Y346000D02*
Y349000D01*
X6000Y332500D02*
X9000D01*
X7500Y331000D02*
Y334000D01*
X6000Y317500D02*
X9000D01*
X7500Y316000D02*
Y319000D01*
X6000Y302500D02*
X9000D01*
X7500Y301000D02*
Y304000D01*
X6000Y287500D02*
X9000D01*
X7500Y286000D02*
Y289000D01*
X6000Y272500D02*
X9000D01*
X7500Y271000D02*
Y274000D01*
X6000Y257500D02*
X9000D01*
X7500Y256000D02*
Y259000D01*
X6000Y242500D02*
X9000D01*
X7500Y241000D02*
Y244000D01*
X6000Y227500D02*
X9000D01*
X7500Y226000D02*
Y229000D01*
X77000Y300500D02*
X80000D01*
X78500Y299000D02*
Y302000D01*
X87250Y286750D02*
X90250D01*
X88750Y285250D02*
Y288250D01*
X29250Y177500D02*
X32250D01*
X30750Y176000D02*
Y179000D01*
X22500Y171250D02*
X25500D01*
X24000Y169750D02*
Y172750D01*
X62500Y188750D02*
X65500D01*
X64000Y187250D02*
Y190250D01*
X45750Y184750D02*
X48750D01*
X47250Y183250D02*
Y186250D01*
X38000Y184250D02*
X41000D01*
X39500Y182750D02*
Y185750D01*
X95750Y113750D02*
X98750D01*
X97250Y112250D02*
Y115250D01*
X95750Y73750D02*
X98750D01*
X97250Y72250D02*
Y75250D01*
X108500Y172250D02*
X111500D01*
X110000Y170750D02*
Y173750D01*
X100500Y177500D02*
X103500D01*
X102000Y176000D02*
Y179000D01*
X116500Y183750D02*
X119500D01*
X118000Y182250D02*
Y185250D01*
X124500Y188750D02*
X127500D01*
X126000Y187250D02*
Y190250D01*
X141500Y100000D02*
X144500D01*
X143000Y98500D02*
Y101500D01*
X75500Y182500D02*
X78500D01*
X77000Y181000D02*
Y184000D01*
X108500Y113750D02*
X111500D01*
X110000Y112250D02*
Y115250D01*
X108500Y83750D02*
X111500D01*
X110000Y82250D02*
Y85250D01*
X58500Y87500D02*
X61500D01*
X60000Y86000D02*
Y89000D01*
X14500Y190000D02*
X17500D01*
X16000Y188500D02*
Y191500D01*
X135250Y214500D02*
X138250D01*
X136750Y213000D02*
Y216000D01*
X147750Y214500D02*
X150750D01*
X149250Y213000D02*
Y216000D01*
X141500Y214500D02*
X144500D01*
X143000Y213000D02*
Y216000D01*
X154500Y218750D02*
X157500D01*
X156000Y217250D02*
Y220250D01*
X12250Y215000D02*
X15250D01*
X13750Y213500D02*
Y216500D01*
X69000Y214500D02*
X72000D01*
X70500Y213000D02*
Y216000D01*
X82000Y214500D02*
X85000D01*
X83500Y213000D02*
Y216000D01*
X75500Y214500D02*
X78500D01*
X77000Y213000D02*
Y216000D01*
X99750Y322750D02*
X102750D01*
X101250Y321250D02*
Y324250D01*
X148500Y343750D02*
X151500D01*
X150000Y342250D02*
Y345250D01*
X211000Y227500D02*
X214000D01*
X212500Y226000D02*
Y229000D01*
X211000Y242500D02*
X214000D01*
X212500Y241000D02*
Y244000D01*
X211000Y257500D02*
X214000D01*
X212500Y256000D02*
Y259000D01*
X211000Y272500D02*
X214000D01*
X212500Y271000D02*
Y274000D01*
X211000Y287500D02*
X214000D01*
X212500Y286000D02*
Y289000D01*
X211000Y302500D02*
X214000D01*
X212500Y301000D02*
Y304000D01*
X211000Y317500D02*
X214000D01*
X212500Y316000D02*
Y319000D01*
X211000Y332500D02*
X214000D01*
X212500Y331000D02*
Y334000D01*
X211000Y347500D02*
X214000D01*
X212500Y346000D02*
Y349000D01*
X211000Y362500D02*
X214000D01*
X212500Y361000D02*
Y364000D01*
X211000Y377500D02*
X214000D01*
X212500Y376000D02*
Y379000D01*
X211000Y392500D02*
X214000D01*
X212500Y391000D02*
Y394000D01*
X146500Y368750D02*
X149500D01*
X148000Y367250D02*
Y370250D01*
X146500Y381000D02*
X149500D01*
X148000Y379500D02*
Y382500D01*
X146500Y392750D02*
X149500D01*
X148000Y391250D02*
Y394250D01*
X70500Y369000D02*
X73500D01*
X72000Y367500D02*
Y370500D01*
X81750Y392750D02*
X84750D01*
X83250Y391250D02*
Y394250D01*
X76500Y374750D02*
X79500D01*
X78000Y373250D02*
Y376250D01*
X82250Y381000D02*
X85250D01*
X83750Y379500D02*
Y382500D01*
X76500Y387250D02*
X79500D01*
X78000Y385750D02*
Y388750D01*
X112750Y330500D02*
X115750D01*
X114250Y329000D02*
Y332000D01*
X112750Y347500D02*
X115750D01*
X114250Y346000D02*
Y349000D01*
X104250Y356000D02*
X107250D01*
X105750Y354500D02*
Y357500D01*
X119000Y363750D02*
X122000D01*
X120500Y362250D02*
Y365250D01*
X106500Y363750D02*
X109500D01*
X108000Y362250D02*
Y365250D01*
X97750Y363750D02*
X100750D01*
X99250Y362250D02*
Y365250D01*
X140500Y375000D02*
X143500D01*
X142000Y373500D02*
Y376500D01*
X140500Y387250D02*
X143500D01*
X142000Y385750D02*
Y388750D01*
M02*
