G04*
G04 #@! TF.GenerationSoftware,Altium Limited,Altium Designer,21.6.4 (81)*
G04*
G04 Layer_Color=16711935*
%FSLAX44Y44*%
%MOMM*%
G71*
G04*
G04 #@! TF.SameCoordinates,B426352F-7976-453D-B7C3-6DF0A089D787*
G04*
G04*
G04 #@! TF.FilePolarity,Positive*
G04*
G01*
G75*
%ADD47C,0.0500*%
%ADD49C,0.1000*%
D47*
X193890Y100000D02*
G03*
X193890Y100000I-8890J0D01*
G01*
X43890D02*
G03*
X43890Y100000I-8890J0D01*
G01*
X188999Y167000D02*
Y173000D01*
X180999Y167000D02*
Y173000D01*
Y167000D02*
X188999D01*
X180999Y173000D02*
X188999D01*
X165000Y162500D02*
X205000D01*
X165000Y137500D02*
Y162500D01*
X205000Y137500D02*
Y162500D01*
X165000Y137500D02*
X176500D01*
X193500D02*
X205000D01*
X193498Y137501D02*
X193500Y137500D01*
X176500D02*
X193498Y137501D01*
X151750Y301250D02*
Y334250D01*
X167750Y301250D02*
Y334250D01*
X151750Y301250D02*
X167750D01*
X151750Y334250D02*
X167750D01*
X72498Y302999D02*
X147498D01*
X72498D02*
Y397999D01*
X147500Y302999D02*
Y398000D01*
X72498D02*
X147500D01*
X78750Y296000D02*
X89750D01*
Y290000D02*
Y296000D01*
X78750Y290000D02*
X89750D01*
X78750D02*
Y296000D01*
X45000Y205500D02*
X51000D01*
X45000Y194500D02*
X51000D01*
Y205500D01*
X45000Y194500D02*
Y205500D01*
X99500Y134000D02*
Y155000D01*
Y134000D02*
X120500D01*
Y155000D01*
X99500D02*
X120500D01*
X21000Y194500D02*
Y205500D01*
X27000Y194500D02*
Y205500D01*
X21000Y194500D02*
X27000D01*
X21000Y205500D02*
X27000D01*
X13000Y194500D02*
Y205500D01*
X19000Y194500D02*
Y205500D01*
X13000Y194500D02*
X19000D01*
X13000Y205500D02*
X19000D01*
X26502Y162499D02*
X43500Y162500D01*
X26500D02*
X26502Y162499D01*
X15000Y162500D02*
X26500D01*
X43500D02*
X55000D01*
X15000Y137500D02*
Y162500D01*
X55000Y137500D02*
Y162500D01*
X15000Y137500D02*
X55000D01*
X97000Y194500D02*
Y205500D01*
X91000Y194500D02*
Y205500D01*
X97000D01*
X91000Y194500D02*
X97000D01*
X121000D02*
Y205500D01*
X115000Y194500D02*
Y205500D01*
X121000D01*
X115000Y194500D02*
X121000D01*
X11000D02*
Y205500D01*
X5000Y194500D02*
Y205500D01*
X11000D01*
X5000Y194500D02*
X11000D01*
X105000D02*
Y205500D01*
X99000Y194500D02*
Y205500D01*
X105000D01*
X99000Y194500D02*
X105000D01*
X113000D02*
Y205500D01*
X107000Y194500D02*
Y205500D01*
X113000D01*
X107000Y194500D02*
X113000D01*
X129000D02*
Y205500D01*
X123000Y194500D02*
Y205500D01*
X129000D01*
X123000Y194500D02*
X129000D01*
X153000Y194500D02*
Y205500D01*
X159000Y194500D02*
Y205500D01*
X153000Y194500D02*
X159000D01*
X153000Y205500D02*
X159000D01*
X61000Y194500D02*
Y205500D01*
X67000Y194500D02*
Y205500D01*
X61000Y194500D02*
X67000D01*
X61000Y205500D02*
X67000D01*
X53000Y194500D02*
Y205500D01*
X59000Y194500D02*
Y205500D01*
X53000Y194500D02*
X59000D01*
X53000Y205500D02*
X59000D01*
X37000Y194500D02*
Y205500D01*
X43000Y194500D02*
Y205500D01*
X37000Y194500D02*
X43000D01*
X37000Y205500D02*
X43000D01*
X29000Y194500D02*
Y205500D01*
X35000Y194500D02*
Y205500D01*
X29000Y194500D02*
X35000D01*
X29000Y205500D02*
X35000D01*
X31001Y167000D02*
X39001D01*
X31001Y173000D02*
X39001D01*
Y167000D02*
Y173000D01*
X31001Y167000D02*
Y173000D01*
X169750Y288750D02*
Y294750D01*
X158750D02*
X169750D01*
X158750Y288750D02*
Y294750D01*
Y288750D02*
X169750D01*
Y340250D02*
Y346250D01*
X158750D02*
X169750D01*
X158750Y340250D02*
Y346250D01*
Y340250D02*
X169750D01*
D49*
X8400Y1800D02*
Y27200D01*
Y1800D02*
X211600D01*
Y27200D01*
X8400D02*
X211600D01*
X148500Y191000D02*
Y209000D01*
X137500Y191000D02*
Y209000D01*
X148500D01*
X137500Y191000D02*
X148500D01*
X71500D02*
X82500D01*
X71500Y209000D02*
X82500D01*
X71500Y191000D02*
Y209000D01*
X82500Y191000D02*
Y209000D01*
M02*
