G04*
G04 #@! TF.GenerationSoftware,Altium Limited,Altium Designer,21.6.4 (81)*
G04*
G04 Layer_Color=32768*
%FSLAX44Y44*%
%MOMM*%
G71*
G04*
G04 #@! TF.SameCoordinates,B426352F-7976-453D-B7C3-6DF0A089D787*
G04*
G04*
G04 #@! TF.FilePolarity,Positive*
G04*
G01*
G75*
%ADD47C,0.0500*%
%ADD48C,0.0508*%
D47*
X169760Y96190D02*
Y106187D01*
X173092Y102854D01*
X176425Y106187D01*
Y96190D01*
X179757Y106187D02*
Y96190D01*
Y101188D01*
X186421D01*
Y106187D01*
Y96190D01*
X196418D02*
X189754D01*
X196418Y102854D01*
Y104521D01*
X194752Y106187D01*
X191420D01*
X189754Y104521D01*
X19760Y96190D02*
Y106187D01*
X23092Y102854D01*
X26425Y106187D01*
Y96190D01*
X29757Y106187D02*
Y96190D01*
Y101188D01*
X36421D01*
Y106187D01*
Y96190D01*
X39754D02*
X43086D01*
X41420D01*
Y106187D01*
X39754Y104521D01*
X198003Y144504D02*
X200502Y142005D01*
X205501D01*
X208000Y144504D01*
Y147003D01*
X205501Y149502D01*
X200502D01*
X198003Y152002D01*
Y154501D01*
X200502Y157000D01*
X205501D01*
X208000Y154501D01*
X193005Y142005D02*
Y157000D01*
X188006Y152002D01*
X183008Y157000D01*
Y142005D01*
X168013Y157000D02*
X178010D01*
X168013Y147003D01*
Y144504D01*
X170512Y142005D01*
X175511D01*
X178010Y144504D01*
X164247Y331000D02*
X156250Y325668D01*
X164247D02*
X156250Y331000D01*
Y323003D02*
Y320337D01*
Y321670D01*
X164247D01*
X162915Y323003D01*
X86668Y291335D02*
X87501Y290502D01*
X89167D01*
X90000Y291335D01*
Y294667D01*
X89167Y295500D01*
X87501D01*
X86668Y294667D01*
X85002Y291335D02*
X84169Y290502D01*
X82502D01*
X81669Y291335D01*
Y292168D01*
X82502Y293001D01*
X83336D01*
X82502D01*
X81669Y293834D01*
Y294667D01*
X82502Y295500D01*
X84169D01*
X85002Y294667D01*
X45750Y205500D02*
X50748D01*
Y203001D01*
X49915Y202168D01*
X48249D01*
X47416Y203001D01*
Y205500D01*
Y203834D02*
X45750Y202168D01*
X49915Y200502D02*
X50748Y199669D01*
Y198002D01*
X49915Y197169D01*
X49082D01*
X48249Y198002D01*
Y198836D01*
Y198002D01*
X47416Y197169D01*
X46583D01*
X45750Y198002D01*
Y199669D01*
X46583Y200502D01*
X100000Y148497D02*
Y140500D01*
X103999D01*
X105332Y141833D01*
Y147164D01*
X103999Y148497D01*
X100000D01*
X107997Y147164D02*
X109330Y148497D01*
X111996D01*
X113329Y147164D01*
Y145832D01*
X111996Y144499D01*
X110663D01*
X111996D01*
X113329Y143166D01*
Y141833D01*
X111996Y140500D01*
X109330D01*
X107997Y141833D01*
X21750Y205500D02*
X26748D01*
Y203001D01*
X25915Y202168D01*
X24249D01*
X23416Y203001D01*
Y205500D01*
Y203834D02*
X21750Y202168D01*
Y200502D02*
Y198836D01*
Y199669D01*
X26748D01*
X25915Y200502D01*
X13750Y205500D02*
X18748D01*
Y203001D01*
X17915Y202168D01*
X16249D01*
X15416Y203001D01*
Y205500D01*
Y203834D02*
X13750Y202168D01*
Y197169D02*
Y200502D01*
X17082Y197169D01*
X17915D01*
X18748Y198002D01*
Y199669D01*
X17915Y200502D01*
X21997Y155496D02*
X19498Y157995D01*
X14499D01*
X12000Y155496D01*
Y152997D01*
X14499Y150498D01*
X19498D01*
X21997Y147998D01*
Y145499D01*
X19498Y143000D01*
X14499D01*
X12000Y145499D01*
X26995Y157995D02*
Y143000D01*
X31994Y147998D01*
X36992Y143000D01*
Y157995D01*
X41990Y143000D02*
X46989D01*
X44489D01*
Y157995D01*
X41990Y155496D01*
X96250Y194500D02*
X91252D01*
Y196999D01*
X92085Y197832D01*
X93751D01*
X94584Y196999D01*
Y194500D01*
Y196166D02*
X96250Y197832D01*
Y199498D02*
Y201164D01*
Y200331D01*
X91252D01*
X92085Y199498D01*
X96250Y206163D02*
X91252D01*
X93751Y203664D01*
Y206996D01*
X120250Y194500D02*
X115252D01*
Y196999D01*
X116085Y197832D01*
X117751D01*
X118584Y196999D01*
Y194500D01*
Y196166D02*
X120250Y197832D01*
Y199498D02*
Y201164D01*
Y200331D01*
X115252D01*
X116085Y199498D01*
Y203664D02*
X115252Y204497D01*
Y206163D01*
X116085Y206996D01*
X116918D01*
X117751Y206163D01*
Y205330D01*
Y206163D01*
X118584Y206996D01*
X119417D01*
X120250Y206163D01*
Y204497D01*
X119417Y203664D01*
X10250Y194500D02*
X5252D01*
Y196999D01*
X6085Y197832D01*
X7751D01*
X8584Y196999D01*
Y194500D01*
Y196166D02*
X10250Y197832D01*
Y199498D02*
Y201164D01*
Y200331D01*
X5252D01*
X6085Y199498D01*
X10250Y206996D02*
Y203664D01*
X6918Y206996D01*
X6085D01*
X5252Y206163D01*
Y204497D01*
X6085Y203664D01*
X104250Y194500D02*
X99252D01*
Y196999D01*
X100085Y197832D01*
X101751D01*
X102584Y196999D01*
Y194500D01*
Y196166D02*
X104250Y197832D01*
Y199498D02*
Y201164D01*
Y200331D01*
X99252D01*
X100085Y199498D01*
X104250Y203664D02*
Y205330D01*
Y204497D01*
X99252D01*
X100085Y203664D01*
X112250Y194500D02*
X107252D01*
Y196999D01*
X108085Y197832D01*
X109751D01*
X110584Y196999D01*
Y194500D01*
Y196166D02*
X112250Y197832D01*
Y199498D02*
Y201164D01*
Y200331D01*
X107252D01*
X108085Y199498D01*
Y203664D02*
X107252Y204497D01*
Y206163D01*
X108085Y206996D01*
X111417D01*
X112250Y206163D01*
Y204497D01*
X111417Y203664D01*
X108085D01*
X128250Y194500D02*
X123252D01*
Y196999D01*
X124085Y197832D01*
X125751D01*
X126584Y196999D01*
Y194500D01*
Y196166D02*
X128250Y197832D01*
X127417Y199498D02*
X128250Y200331D01*
Y201998D01*
X127417Y202831D01*
X124085D01*
X123252Y201998D01*
Y200331D01*
X124085Y199498D01*
X124918D01*
X125751Y200331D01*
Y202831D01*
X153750Y205500D02*
X158748D01*
Y203001D01*
X157915Y202168D01*
X156249D01*
X155416Y203001D01*
Y205500D01*
Y203834D02*
X153750Y202168D01*
X157915Y200502D02*
X158748Y199669D01*
Y198002D01*
X157915Y197169D01*
X157082D01*
X156249Y198002D01*
X155416Y197169D01*
X154583D01*
X153750Y198002D01*
Y199669D01*
X154583Y200502D01*
X155416D01*
X156249Y199669D01*
X157082Y200502D01*
X157915D01*
X156249Y199669D02*
Y198002D01*
X61750Y205500D02*
X66748D01*
Y203001D01*
X65915Y202168D01*
X64249D01*
X63416Y203001D01*
Y205500D01*
Y203834D02*
X61750Y202168D01*
X66748Y200502D02*
Y197169D01*
X65915D01*
X62583Y200502D01*
X61750D01*
X53750Y205500D02*
X58748D01*
Y203001D01*
X57915Y202168D01*
X56249D01*
X55416Y203001D01*
Y205500D01*
Y203834D02*
X53750Y202168D01*
X58748Y197169D02*
X57915Y198836D01*
X56249Y200502D01*
X54583D01*
X53750Y199669D01*
Y198002D01*
X54583Y197169D01*
X55416D01*
X56249Y198002D01*
Y200502D01*
X37750Y205500D02*
X42748D01*
Y203001D01*
X41915Y202168D01*
X40249D01*
X39416Y203001D01*
Y205500D01*
Y203834D02*
X37750Y202168D01*
X42748Y197169D02*
Y200502D01*
X40249D01*
X41082Y198836D01*
Y198002D01*
X40249Y197169D01*
X38583D01*
X37750Y198002D01*
Y199669D01*
X38583Y200502D01*
X29750Y205500D02*
X34748D01*
Y203001D01*
X33915Y202168D01*
X32249D01*
X31416Y203001D01*
Y205500D01*
Y203834D02*
X29750Y202168D01*
Y198002D02*
X34748D01*
X32249Y200502D01*
Y197169D01*
X161832Y293415D02*
X160999Y294248D01*
X159333D01*
X158500Y293415D01*
Y290083D01*
X159333Y289250D01*
X160999D01*
X161832Y290083D01*
X166831Y289250D02*
X163498D01*
X166831Y292582D01*
Y293415D01*
X165998Y294248D01*
X164331D01*
X163498Y293415D01*
X161832Y344915D02*
X160999Y345748D01*
X159333D01*
X158500Y344915D01*
Y341583D01*
X159333Y340750D01*
X160999D01*
X161832Y341583D01*
X163498Y340750D02*
X165165D01*
X164331D01*
Y345748D01*
X163498Y344915D01*
D48*
X192000Y167501D02*
Y172000D01*
X189751D01*
X189001Y171250D01*
Y168251D01*
X189751Y167501D01*
X192000D01*
X184503Y172000D02*
X187502D01*
X184503Y169001D01*
Y168251D01*
X185252Y167501D01*
X186752D01*
X187502Y168251D01*
X28000Y172498D02*
Y168000D01*
X30249D01*
X30999Y168750D01*
Y171749D01*
X30249Y172498D01*
X28000D01*
X32499Y168000D02*
X33998D01*
X33248D01*
Y172498D01*
X32499Y171749D01*
M02*
