G04*
G04 #@! TF.GenerationSoftware,Altium Limited,Altium Designer,21.6.4 (81)*
G04*
G04 Layer_Color=2752767*
%FSLAX44Y44*%
%MOMM*%
G71*
G04*
G04 #@! TF.SameCoordinates,B426352F-7976-453D-B7C3-6DF0A089D787*
G04*
G04*
G04 #@! TF.FilePolarity,Positive*
G04*
G01*
G75*
%ADD48C,0.0508*%
%ADD51C,0.0677*%
D48*
X182968Y97968D02*
Y102032D01*
X187032D01*
Y97968D01*
X182968D01*
X32968D02*
Y102032D01*
X37032D01*
Y97968D01*
X32968D01*
X84600Y98068D02*
X82568Y102132D01*
X86632D01*
X84600Y98068D01*
X135400Y108228D02*
X133368Y112292D01*
X137432D01*
X135400Y108228D01*
Y87908D02*
X133368Y91972D01*
X137432D01*
X135400Y87908D01*
X35182Y285286D02*
X36198Y286302D01*
X37214D01*
X36198Y287318D01*
X37214Y288334D01*
X36198D01*
X35182Y289350D01*
X34166Y288334D01*
X33150D01*
X34166Y287318D01*
X33150Y286302D01*
X34166D01*
X35182Y285286D01*
X20182Y270286D02*
X21198Y271302D01*
X22214D01*
X21198Y272318D01*
X22214Y273334D01*
X21198D01*
X20182Y274350D01*
X19166Y273334D01*
X18150D01*
X19166Y272318D01*
X18150Y271302D01*
X19166D01*
X20182Y270286D01*
X20000Y255468D02*
X21016Y256484D01*
X22032D01*
X21016Y257500D01*
X22032Y258516D01*
X21016D01*
X20000Y259532D01*
X18984Y258516D01*
X17968D01*
X18984Y257500D01*
X17968Y256484D01*
X18984D01*
X20000Y255468D01*
Y240468D02*
X21016Y241484D01*
X22032D01*
X21016Y242500D01*
X22032Y243516D01*
X21016D01*
X20000Y244532D01*
X18984Y243516D01*
X17968D01*
X18984Y242500D01*
X17968Y241484D01*
X18984D01*
X20000Y240468D01*
Y225468D02*
X21016Y226484D01*
X22032D01*
X21016Y227500D01*
X22032Y228516D01*
X21016D01*
X20000Y229532D01*
X18984Y228516D01*
X17968D01*
X18984Y227500D01*
X17968Y226484D01*
X18984D01*
X20000Y225468D01*
X105750Y336688D02*
X106766Y337704D01*
X107782D01*
X106766Y338720D01*
X107782Y339736D01*
X106766D01*
X105750Y340752D01*
X104734Y339736D01*
X103718D01*
X104734Y338720D01*
X103718Y337704D01*
X104734D01*
X105750Y336688D01*
X126750Y288468D02*
X127766Y289484D01*
X128782D01*
X127766Y290500D01*
X128782Y291516D01*
X127766D01*
X126750Y292532D01*
X125734Y291516D01*
X124718D01*
X125734Y290500D01*
X124718Y289484D01*
X125734D01*
X126750Y288468D01*
X142332Y298642D02*
X143348Y299658D01*
X144364D01*
X143348Y300674D01*
X144364Y301690D01*
X143348D01*
X142332Y302706D01*
X141316Y301690D01*
X140300D01*
X141316Y300674D01*
X140300Y299658D01*
X141316D01*
X142332Y298642D01*
X126750Y147968D02*
X127766Y148984D01*
X128782D01*
X127766Y150000D01*
X128782Y151016D01*
X127766D01*
X126750Y152032D01*
X125734Y151016D01*
X124718D01*
X125734Y150000D01*
X124718Y148984D01*
X125734D01*
X126750Y147968D01*
X77000Y129218D02*
X78016Y130234D01*
X79032D01*
X78016Y131250D01*
X79032Y132266D01*
X78016D01*
X77000Y133282D01*
X75984Y132266D01*
X74968D01*
X75984Y131250D01*
X74968Y130234D01*
X75984D01*
X77000Y129218D01*
X97250Y161718D02*
X98266Y162734D01*
X99282D01*
X98266Y163750D01*
X99282Y164766D01*
X98266D01*
X97250Y165782D01*
X96234Y164766D01*
X95218D01*
X96234Y163750D01*
X95218Y162734D01*
X96234D01*
X97250Y161718D01*
X102778Y166718D02*
X103794Y167734D01*
X104810D01*
X103794Y168750D01*
X104810Y169766D01*
X103794D01*
X102778Y170782D01*
X101762Y169766D01*
X100746D01*
X101762Y168750D01*
X100746Y167734D01*
X101762D01*
X102778Y166718D01*
X200000Y390468D02*
X201016Y391484D01*
X202032D01*
X201016Y392500D01*
X202032Y393516D01*
X201016D01*
X200000Y394532D01*
X198984Y393516D01*
X197968D01*
X198984Y392500D01*
X197968Y391484D01*
X198984D01*
X200000Y390468D01*
Y375468D02*
X201016Y376484D01*
X202032D01*
X201016Y377500D01*
X202032Y378516D01*
X201016D01*
X200000Y379532D01*
X198984Y378516D01*
X197968D01*
X198984Y377500D01*
X197968Y376484D01*
X198984D01*
X200000Y375468D01*
Y360468D02*
X201016Y361484D01*
X202032D01*
X201016Y362500D01*
X202032Y363516D01*
X201016D01*
X200000Y364532D01*
X198984Y363516D01*
X197968D01*
X198984Y362500D01*
X197968Y361484D01*
X198984D01*
X200000Y360468D01*
Y345468D02*
X201016Y346484D01*
X202032D01*
X201016Y347500D01*
X202032Y348516D01*
X201016D01*
X200000Y349532D01*
X198984Y348516D01*
X197968D01*
X198984Y347500D01*
X197968Y346484D01*
X198984D01*
X200000Y345468D01*
Y330468D02*
X201016Y331484D01*
X202032D01*
X201016Y332500D01*
X202032Y333516D01*
X201016D01*
X200000Y334532D01*
X198984Y333516D01*
X197968D01*
X198984Y332500D01*
X197968Y331484D01*
X198984D01*
X200000Y330468D01*
Y315468D02*
X201016Y316484D01*
X202032D01*
X201016Y317500D01*
X202032Y318516D01*
X201016D01*
X200000Y319532D01*
X198984Y318516D01*
X197968D01*
X198984Y317500D01*
X197968Y316484D01*
X198984D01*
X200000Y315468D01*
Y300468D02*
X201016Y301484D01*
X202032D01*
X201016Y302500D01*
X202032Y303516D01*
X201016D01*
X200000Y304532D01*
X198984Y303516D01*
X197968D01*
X198984Y302500D01*
X197968Y301484D01*
X198984D01*
X200000Y300468D01*
Y285468D02*
X201016Y286484D01*
X202032D01*
X201016Y287500D01*
X202032Y288516D01*
X201016D01*
X200000Y289532D01*
X198984Y288516D01*
X197968D01*
X198984Y287500D01*
X197968Y286484D01*
X198984D01*
X200000Y285468D01*
Y270468D02*
X201016Y271484D01*
X202032D01*
X201016Y272500D01*
X202032Y273516D01*
X201016D01*
X200000Y274532D01*
X198984Y273516D01*
X197968D01*
X198984Y272500D01*
X197968Y271484D01*
X198984D01*
X200000Y270468D01*
Y255468D02*
X201016Y256484D01*
X202032D01*
X201016Y257500D01*
X202032Y258516D01*
X201016D01*
X200000Y259532D01*
X198984Y258516D01*
X197968D01*
X198984Y257500D01*
X197968Y256484D01*
X198984D01*
X200000Y255468D01*
Y240468D02*
X201016Y241484D01*
X202032D01*
X201016Y242500D01*
X202032Y243516D01*
X201016D01*
X200000Y244532D01*
X198984Y243516D01*
X197968D01*
X198984Y242500D01*
X197968Y241484D01*
X198984D01*
X200000Y240468D01*
Y225468D02*
X201016Y226484D01*
X202032D01*
X201016Y227500D01*
X202032Y228516D01*
X201016D01*
X200000Y229532D01*
X198984Y228516D01*
X197968D01*
X198984Y227500D01*
X197968Y226484D01*
X198984D01*
X200000Y225468D01*
X185000Y390468D02*
X186016Y391484D01*
X187032D01*
X186016Y392500D01*
X187032Y393516D01*
X186016D01*
X185000Y394532D01*
X183984Y393516D01*
X182968D01*
X183984Y392500D01*
X182968Y391484D01*
X183984D01*
X185000Y390468D01*
Y375468D02*
X186016Y376484D01*
X187032D01*
X186016Y377500D01*
X187032Y378516D01*
X186016D01*
X185000Y379532D01*
X183984Y378516D01*
X182968D01*
X183984Y377500D01*
X182968Y376484D01*
X183984D01*
X185000Y375468D01*
Y360468D02*
X186016Y361484D01*
X187032D01*
X186016Y362500D01*
X187032Y363516D01*
X186016D01*
X185000Y364532D01*
X183984Y363516D01*
X182968D01*
X183984Y362500D01*
X182968Y361484D01*
X183984D01*
X185000Y360468D01*
Y345468D02*
X186016Y346484D01*
X187032D01*
X186016Y347500D01*
X187032Y348516D01*
X186016D01*
X185000Y349532D01*
X183984Y348516D01*
X182968D01*
X183984Y347500D01*
X182968Y346484D01*
X183984D01*
X185000Y345468D01*
Y330468D02*
X186016Y331484D01*
X187032D01*
X186016Y332500D01*
X187032Y333516D01*
X186016D01*
X185000Y334532D01*
X183984Y333516D01*
X182968D01*
X183984Y332500D01*
X182968Y331484D01*
X183984D01*
X185000Y330468D01*
Y315468D02*
X186016Y316484D01*
X187032D01*
X186016Y317500D01*
X187032Y318516D01*
X186016D01*
X185000Y319532D01*
X183984Y318516D01*
X182968D01*
X183984Y317500D01*
X182968Y316484D01*
X183984D01*
X185000Y315468D01*
Y300468D02*
X186016Y301484D01*
X187032D01*
X186016Y302500D01*
X187032Y303516D01*
X186016D01*
X185000Y304532D01*
X183984Y303516D01*
X182968D01*
X183984Y302500D01*
X182968Y301484D01*
X183984D01*
X185000Y300468D01*
Y285468D02*
X186016Y286484D01*
X187032D01*
X186016Y287500D01*
X187032Y288516D01*
X186016D01*
X185000Y289532D01*
X183984Y288516D01*
X182968D01*
X183984Y287500D01*
X182968Y286484D01*
X183984D01*
X185000Y285468D01*
Y270468D02*
X186016Y271484D01*
X187032D01*
X186016Y272500D01*
X187032Y273516D01*
X186016D01*
X185000Y274532D01*
X183984Y273516D01*
X182968D01*
X183984Y272500D01*
X182968Y271484D01*
X183984D01*
X185000Y270468D01*
Y255468D02*
X186016Y256484D01*
X187032D01*
X186016Y257500D01*
X187032Y258516D01*
X186016D01*
X185000Y259532D01*
X183984Y258516D01*
X182968D01*
X183984Y257500D01*
X182968Y256484D01*
X183984D01*
X185000Y255468D01*
Y240468D02*
X186016Y241484D01*
X187032D01*
X186016Y242500D01*
X187032Y243516D01*
X186016D01*
X185000Y244532D01*
X183984Y243516D01*
X182968D01*
X183984Y242500D01*
X182968Y241484D01*
X183984D01*
X185000Y240468D01*
Y225468D02*
X186016Y226484D01*
X187032D01*
X186016Y227500D01*
X187032Y228516D01*
X186016D01*
X185000Y229532D01*
X183984Y228516D01*
X182968D01*
X183984Y227500D01*
X182968Y226484D01*
X183984D01*
X185000Y225468D01*
X170000Y390468D02*
X171016Y391484D01*
X172032D01*
X171016Y392500D01*
X172032Y393516D01*
X171016D01*
X170000Y394532D01*
X168984Y393516D01*
X167968D01*
X168984Y392500D01*
X167968Y391484D01*
X168984D01*
X170000Y390468D01*
Y375468D02*
X171016Y376484D01*
X172032D01*
X171016Y377500D01*
X172032Y378516D01*
X171016D01*
X170000Y379532D01*
X168984Y378516D01*
X167968D01*
X168984Y377500D01*
X167968Y376484D01*
X168984D01*
X170000Y375468D01*
Y360468D02*
X171016Y361484D01*
X172032D01*
X171016Y362500D01*
X172032Y363516D01*
X171016D01*
X170000Y364532D01*
X168984Y363516D01*
X167968D01*
X168984Y362500D01*
X167968Y361484D01*
X168984D01*
X170000Y360468D01*
Y315468D02*
X171016Y316484D01*
X172032D01*
X171016Y317500D01*
X172032Y318516D01*
X171016D01*
X170000Y319532D01*
X168984Y318516D01*
X167968D01*
X168984Y317500D01*
X167968Y316484D01*
X168984D01*
X170000Y315468D01*
Y270468D02*
X171016Y271484D01*
X172032D01*
X171016Y272500D01*
X172032Y273516D01*
X171016D01*
X170000Y274532D01*
X168984Y273516D01*
X167968D01*
X168984Y272500D01*
X167968Y271484D01*
X168984D01*
X170000Y270468D01*
Y255468D02*
X171016Y256484D01*
X172032D01*
X171016Y257500D01*
X172032Y258516D01*
X171016D01*
X170000Y259532D01*
X168984Y258516D01*
X167968D01*
X168984Y257500D01*
X167968Y256484D01*
X168984D01*
X170000Y255468D01*
Y240468D02*
X171016Y241484D01*
X172032D01*
X171016Y242500D01*
X172032Y243516D01*
X171016D01*
X170000Y244532D01*
X168984Y243516D01*
X167968D01*
X168984Y242500D01*
X167968Y241484D01*
X168984D01*
X170000Y240468D01*
Y225468D02*
X171016Y226484D01*
X172032D01*
X171016Y227500D01*
X172032Y228516D01*
X171016D01*
X170000Y229532D01*
X168984Y228516D01*
X167968D01*
X168984Y227500D01*
X167968Y226484D01*
X168984D01*
X170000Y225468D01*
X155000Y375468D02*
X156016Y376484D01*
X157032D01*
X156016Y377500D01*
X157032Y378516D01*
X156016D01*
X155000Y379532D01*
X153984Y378516D01*
X152968D01*
X153984Y377500D01*
X152968Y376484D01*
X153984D01*
X155000Y375468D01*
Y360468D02*
X156016Y361484D01*
X157032D01*
X156016Y362500D01*
X157032Y363516D01*
X156016D01*
X155000Y364532D01*
X153984Y363516D01*
X152968D01*
X153984Y362500D01*
X152968Y361484D01*
X153984D01*
X155000Y360468D01*
Y315468D02*
X156016Y316484D01*
X157032D01*
X156016Y317500D01*
X157032Y318516D01*
X156016D01*
X155000Y319532D01*
X153984Y318516D01*
X152968D01*
X153984Y317500D01*
X152968Y316484D01*
X153984D01*
X155000Y315468D01*
Y270468D02*
X156016Y271484D01*
X157032D01*
X156016Y272500D01*
X157032Y273516D01*
X156016D01*
X155000Y274532D01*
X153984Y273516D01*
X152968D01*
X153984Y272500D01*
X152968Y271484D01*
X153984D01*
X155000Y270468D01*
Y255468D02*
X156016Y256484D01*
X157032D01*
X156016Y257500D01*
X157032Y258516D01*
X156016D01*
X155000Y259532D01*
X153984Y258516D01*
X152968D01*
X153984Y257500D01*
X152968Y256484D01*
X153984D01*
X155000Y255468D01*
Y240468D02*
X156016Y241484D01*
X157032D01*
X156016Y242500D01*
X157032Y243516D01*
X156016D01*
X155000Y244532D01*
X153984Y243516D01*
X152968D01*
X153984Y242500D01*
X152968Y241484D01*
X153984D01*
X155000Y240468D01*
Y225468D02*
X156016Y226484D01*
X157032D01*
X156016Y227500D01*
X157032Y228516D01*
X156016D01*
X155000Y229532D01*
X153984Y228516D01*
X152968D01*
X153984Y227500D01*
X152968Y226484D01*
X153984D01*
X155000Y225468D01*
X140000Y270468D02*
X141016Y271484D01*
X142032D01*
X141016Y272500D01*
X142032Y273516D01*
X141016D01*
X140000Y274532D01*
X138984Y273516D01*
X137968D01*
X138984Y272500D01*
X137968Y271484D01*
X138984D01*
X140000Y270468D01*
Y255468D02*
X141016Y256484D01*
X142032D01*
X141016Y257500D01*
X142032Y258516D01*
X141016D01*
X140000Y259532D01*
X138984Y258516D01*
X137968D01*
X138984Y257500D01*
X137968Y256484D01*
X138984D01*
X140000Y255468D01*
Y240468D02*
X141016Y241484D01*
X142032D01*
X141016Y242500D01*
X142032Y243516D01*
X141016D01*
X140000Y244532D01*
X138984Y243516D01*
X137968D01*
X138984Y242500D01*
X137968Y241484D01*
X138984D01*
X140000Y240468D01*
Y225468D02*
X141016Y226484D01*
X142032D01*
X141016Y227500D01*
X142032Y228516D01*
X141016D01*
X140000Y229532D01*
X138984Y228516D01*
X137968D01*
X138984Y227500D01*
X137968Y226484D01*
X138984D01*
X140000Y225468D01*
X95000Y270468D02*
X96016Y271484D01*
X97032D01*
X96016Y272500D01*
X97032Y273516D01*
X96016D01*
X95000Y274532D01*
X93984Y273516D01*
X92968D01*
X93984Y272500D01*
X92968Y271484D01*
X93984D01*
X95000Y270468D01*
Y255468D02*
X96016Y256484D01*
X97032D01*
X96016Y257500D01*
X97032Y258516D01*
X96016D01*
X95000Y259532D01*
X93984Y258516D01*
X92968D01*
X93984Y257500D01*
X92968Y256484D01*
X93984D01*
X95000Y255468D01*
Y240468D02*
X96016Y241484D01*
X97032D01*
X96016Y242500D01*
X97032Y243516D01*
X96016D01*
X95000Y244532D01*
X93984Y243516D01*
X92968D01*
X93984Y242500D01*
X92968Y241484D01*
X93984D01*
X95000Y240468D01*
Y225468D02*
X96016Y226484D01*
X97032D01*
X96016Y227500D01*
X97032Y228516D01*
X96016D01*
X95000Y229532D01*
X93984Y228516D01*
X92968D01*
X93984Y227500D01*
X92968Y226484D01*
X93984D01*
X95000Y225468D01*
X80000Y255468D02*
X81016Y256484D01*
X82032D01*
X81016Y257500D01*
X82032Y258516D01*
X81016D01*
X80000Y259532D01*
X78984Y258516D01*
X77968D01*
X78984Y257500D01*
X77968Y256484D01*
X78984D01*
X80000Y255468D01*
Y240468D02*
X81016Y241484D01*
X82032D01*
X81016Y242500D01*
X82032Y243516D01*
X81016D01*
X80000Y244532D01*
X78984Y243516D01*
X77968D01*
X78984Y242500D01*
X77968Y241484D01*
X78984D01*
X80000Y240468D01*
Y225468D02*
X81016Y226484D01*
X82032D01*
X81016Y227500D01*
X82032Y228516D01*
X81016D01*
X80000Y229532D01*
X78984Y228516D01*
X77968D01*
X78984Y227500D01*
X77968Y226484D01*
X78984D01*
X80000Y225468D01*
X65000Y390468D02*
X66016Y391484D01*
X67032D01*
X66016Y392500D01*
X67032Y393516D01*
X66016D01*
X65000Y394532D01*
X63984Y393516D01*
X62968D01*
X63984Y392500D01*
X62968Y391484D01*
X63984D01*
X65000Y390468D01*
Y375468D02*
X66016Y376484D01*
X67032D01*
X66016Y377500D01*
X67032Y378516D01*
X66016D01*
X65000Y379532D01*
X63984Y378516D01*
X62968D01*
X63984Y377500D01*
X62968Y376484D01*
X63984D01*
X65000Y375468D01*
Y360468D02*
X66016Y361484D01*
X67032D01*
X66016Y362500D01*
X67032Y363516D01*
X66016D01*
X65000Y364532D01*
X63984Y363516D01*
X62968D01*
X63984Y362500D01*
X62968Y361484D01*
X63984D01*
X65000Y360468D01*
X50000Y390468D02*
X51016Y391484D01*
X52032D01*
X51016Y392500D01*
X52032Y393516D01*
X51016D01*
X50000Y394532D01*
X48984Y393516D01*
X47968D01*
X48984Y392500D01*
X47968Y391484D01*
X48984D01*
X50000Y390468D01*
Y375468D02*
X51016Y376484D01*
X52032D01*
X51016Y377500D01*
X52032Y378516D01*
X51016D01*
X50000Y379532D01*
X48984Y378516D01*
X47968D01*
X48984Y377500D01*
X47968Y376484D01*
X48984D01*
X50000Y375468D01*
Y360468D02*
X51016Y361484D01*
X52032D01*
X51016Y362500D01*
X52032Y363516D01*
X51016D01*
X50000Y364532D01*
X48984Y363516D01*
X47968D01*
X48984Y362500D01*
X47968Y361484D01*
X48984D01*
X50000Y360468D01*
Y345468D02*
X51016Y346484D01*
X52032D01*
X51016Y347500D01*
X52032Y348516D01*
X51016D01*
X50000Y349532D01*
X48984Y348516D01*
X47968D01*
X48984Y347500D01*
X47968Y346484D01*
X48984D01*
X50000Y345468D01*
X35000Y390468D02*
X36016Y391484D01*
X37032D01*
X36016Y392500D01*
X37032Y393516D01*
X36016D01*
X35000Y394532D01*
X33984Y393516D01*
X32968D01*
X33984Y392500D01*
X32968Y391484D01*
X33984D01*
X35000Y390468D01*
Y375468D02*
X36016Y376484D01*
X37032D01*
X36016Y377500D01*
X37032Y378516D01*
X36016D01*
X35000Y379532D01*
X33984Y378516D01*
X32968D01*
X33984Y377500D01*
X32968Y376484D01*
X33984D01*
X35000Y375468D01*
Y360468D02*
X36016Y361484D01*
X37032D01*
X36016Y362500D01*
X37032Y363516D01*
X36016D01*
X35000Y364532D01*
X33984Y363516D01*
X32968D01*
X33984Y362500D01*
X32968Y361484D01*
X33984D01*
X35000Y360468D01*
Y345468D02*
X36016Y346484D01*
X37032D01*
X36016Y347500D01*
X37032Y348516D01*
X36016D01*
X35000Y349532D01*
X33984Y348516D01*
X32968D01*
X33984Y347500D01*
X32968Y346484D01*
X33984D01*
X35000Y345468D01*
Y330468D02*
X36016Y331484D01*
X37032D01*
X36016Y332500D01*
X37032Y333516D01*
X36016D01*
X35000Y334532D01*
X33984Y333516D01*
X32968D01*
X33984Y332500D01*
X32968Y331484D01*
X33984D01*
X35000Y330468D01*
Y315468D02*
X36016Y316484D01*
X37032D01*
X36016Y317500D01*
X37032Y318516D01*
X36016D01*
X35000Y319532D01*
X33984Y318516D01*
X32968D01*
X33984Y317500D01*
X32968Y316484D01*
X33984D01*
X35000Y315468D01*
Y300468D02*
X36016Y301484D01*
X37032D01*
X36016Y302500D01*
X37032Y303516D01*
X36016D01*
X35000Y304532D01*
X33984Y303516D01*
X32968D01*
X33984Y302500D01*
X32968Y301484D01*
X33984D01*
X35000Y300468D01*
Y270468D02*
X36016Y271484D01*
X37032D01*
X36016Y272500D01*
X37032Y273516D01*
X36016D01*
X35000Y274532D01*
X33984Y273516D01*
X32968D01*
X33984Y272500D01*
X32968Y271484D01*
X33984D01*
X35000Y270468D01*
Y255468D02*
X36016Y256484D01*
X37032D01*
X36016Y257500D01*
X37032Y258516D01*
X36016D01*
X35000Y259532D01*
X33984Y258516D01*
X32968D01*
X33984Y257500D01*
X32968Y256484D01*
X33984D01*
X35000Y255468D01*
Y240468D02*
X36016Y241484D01*
X37032D01*
X36016Y242500D01*
X37032Y243516D01*
X36016D01*
X35000Y244532D01*
X33984Y243516D01*
X32968D01*
X33984Y242500D01*
X32968Y241484D01*
X33984D01*
X35000Y240468D01*
X20000Y390468D02*
X21016Y391484D01*
X22032D01*
X21016Y392500D01*
X22032Y393516D01*
X21016D01*
X20000Y394532D01*
X18984Y393516D01*
X17968D01*
X18984Y392500D01*
X17968Y391484D01*
X18984D01*
X20000Y390468D01*
Y375468D02*
X21016Y376484D01*
X22032D01*
X21016Y377500D01*
X22032Y378516D01*
X21016D01*
X20000Y379532D01*
X18984Y378516D01*
X17968D01*
X18984Y377500D01*
X17968Y376484D01*
X18984D01*
X20000Y375468D01*
Y360468D02*
X21016Y361484D01*
X22032D01*
X21016Y362500D01*
X22032Y363516D01*
X21016D01*
X20000Y364532D01*
X18984Y363516D01*
X17968D01*
X18984Y362500D01*
X17968Y361484D01*
X18984D01*
X20000Y360468D01*
Y345468D02*
X21016Y346484D01*
X22032D01*
X21016Y347500D01*
X22032Y348516D01*
X21016D01*
X20000Y349532D01*
X18984Y348516D01*
X17968D01*
X18984Y347500D01*
X17968Y346484D01*
X18984D01*
X20000Y345468D01*
Y330468D02*
X21016Y331484D01*
X22032D01*
X21016Y332500D01*
X22032Y333516D01*
X21016D01*
X20000Y334532D01*
X18984Y333516D01*
X17968D01*
X18984Y332500D01*
X17968Y331484D01*
X18984D01*
X20000Y330468D01*
Y315468D02*
X21016Y316484D01*
X22032D01*
X21016Y317500D01*
X22032Y318516D01*
X21016D01*
X20000Y319532D01*
X18984Y318516D01*
X17968D01*
X18984Y317500D01*
X17968Y316484D01*
X18984D01*
X20000Y315468D01*
Y300468D02*
X21016Y301484D01*
X22032D01*
X21016Y302500D01*
X22032Y303516D01*
X21016D01*
X20000Y304532D01*
X18984Y303516D01*
X17968D01*
X18984Y302500D01*
X17968Y301484D01*
X18984D01*
X20000Y300468D01*
Y285468D02*
X21016Y286484D01*
X22032D01*
X21016Y287500D01*
X22032Y288516D01*
X21016D01*
X20000Y289532D01*
X18984Y288516D01*
X17968D01*
X18984Y287500D01*
X17968Y286484D01*
X18984D01*
X20000Y285468D01*
X212500Y211468D02*
X213516Y212484D01*
X214532D01*
X213516Y213500D01*
X214532Y214516D01*
X213516D01*
X212500Y215532D01*
X211484Y214516D01*
X210468D01*
X211484Y213500D01*
X210468Y212484D01*
X211484D01*
X212500Y211468D01*
Y201468D02*
X213516Y202484D01*
X214532D01*
X213516Y203500D01*
X214532Y204516D01*
X213516D01*
X212500Y205532D01*
X211484Y204516D01*
X210468D01*
X211484Y203500D01*
X210468Y202484D01*
X211484D01*
X212500Y201468D01*
X200000D02*
X201016Y202484D01*
X202032D01*
X201016Y203500D01*
X202032Y204516D01*
X201016D01*
X200000Y205532D01*
X198984Y204516D01*
X197968D01*
X198984Y203500D01*
X197968Y202484D01*
X198984D01*
X200000Y201468D01*
X185000D02*
X186016Y202484D01*
X187032D01*
X186016Y203500D01*
X187032Y204516D01*
X186016D01*
X185000Y205532D01*
X183984Y204516D01*
X182968D01*
X183984Y203500D01*
X182968Y202484D01*
X183984D01*
X185000Y201468D01*
X170000D02*
X171016Y202484D01*
X172032D01*
X171016Y203500D01*
X172032Y204516D01*
X171016D01*
X170000Y205532D01*
X168984Y204516D01*
X167968D01*
X168984Y203500D01*
X167968Y202484D01*
X168984D01*
X170000Y201468D01*
X200000Y211468D02*
X201016Y212484D01*
X202032D01*
X201016Y213500D01*
X202032Y214516D01*
X201016D01*
X200000Y215532D01*
X198984Y214516D01*
X197968D01*
X198984Y213500D01*
X197968Y212484D01*
X198984D01*
X200000Y211468D01*
X185000D02*
X186016Y212484D01*
X187032D01*
X186016Y213500D01*
X187032Y214516D01*
X186016D01*
X185000Y215532D01*
X183984Y214516D01*
X182968D01*
X183984Y213500D01*
X182968Y212484D01*
X183984D01*
X185000Y211468D01*
X170000D02*
X171016Y212484D01*
X172032D01*
X171016Y213500D01*
X172032Y214516D01*
X171016D01*
X170000Y215532D01*
X168984Y214516D01*
X167968D01*
X168984Y213500D01*
X167968Y212484D01*
X168984D01*
X170000Y211468D01*
X7500Y390468D02*
X8516Y391484D01*
X9532D01*
X8516Y392500D01*
X9532Y393516D01*
X8516D01*
X7500Y394532D01*
X6484Y393516D01*
X5468D01*
X6484Y392500D01*
X5468Y391484D01*
X6484D01*
X7500Y390468D01*
Y375468D02*
X8516Y376484D01*
X9532D01*
X8516Y377500D01*
X9532Y378516D01*
X8516D01*
X7500Y379532D01*
X6484Y378516D01*
X5468D01*
X6484Y377500D01*
X5468Y376484D01*
X6484D01*
X7500Y375468D01*
Y360468D02*
X8516Y361484D01*
X9532D01*
X8516Y362500D01*
X9532Y363516D01*
X8516D01*
X7500Y364532D01*
X6484Y363516D01*
X5468D01*
X6484Y362500D01*
X5468Y361484D01*
X6484D01*
X7500Y360468D01*
Y345468D02*
X8516Y346484D01*
X9532D01*
X8516Y347500D01*
X9532Y348516D01*
X8516D01*
X7500Y349532D01*
X6484Y348516D01*
X5468D01*
X6484Y347500D01*
X5468Y346484D01*
X6484D01*
X7500Y345468D01*
Y330468D02*
X8516Y331484D01*
X9532D01*
X8516Y332500D01*
X9532Y333516D01*
X8516D01*
X7500Y334532D01*
X6484Y333516D01*
X5468D01*
X6484Y332500D01*
X5468Y331484D01*
X6484D01*
X7500Y330468D01*
Y315468D02*
X8516Y316484D01*
X9532D01*
X8516Y317500D01*
X9532Y318516D01*
X8516D01*
X7500Y319532D01*
X6484Y318516D01*
X5468D01*
X6484Y317500D01*
X5468Y316484D01*
X6484D01*
X7500Y315468D01*
Y300468D02*
X8516Y301484D01*
X9532D01*
X8516Y302500D01*
X9532Y303516D01*
X8516D01*
X7500Y304532D01*
X6484Y303516D01*
X5468D01*
X6484Y302500D01*
X5468Y301484D01*
X6484D01*
X7500Y300468D01*
Y285468D02*
X8516Y286484D01*
X9532D01*
X8516Y287500D01*
X9532Y288516D01*
X8516D01*
X7500Y289532D01*
X6484Y288516D01*
X5468D01*
X6484Y287500D01*
X5468Y286484D01*
X6484D01*
X7500Y285468D01*
Y270468D02*
X8516Y271484D01*
X9532D01*
X8516Y272500D01*
X9532Y273516D01*
X8516D01*
X7500Y274532D01*
X6484Y273516D01*
X5468D01*
X6484Y272500D01*
X5468Y271484D01*
X6484D01*
X7500Y270468D01*
Y255468D02*
X8516Y256484D01*
X9532D01*
X8516Y257500D01*
X9532Y258516D01*
X8516D01*
X7500Y259532D01*
X6484Y258516D01*
X5468D01*
X6484Y257500D01*
X5468Y256484D01*
X6484D01*
X7500Y255468D01*
Y240468D02*
X8516Y241484D01*
X9532D01*
X8516Y242500D01*
X9532Y243516D01*
X8516D01*
X7500Y244532D01*
X6484Y243516D01*
X5468D01*
X6484Y242500D01*
X5468Y241484D01*
X6484D01*
X7500Y240468D01*
Y225468D02*
X8516Y226484D01*
X9532D01*
X8516Y227500D01*
X9532Y228516D01*
X8516D01*
X7500Y229532D01*
X6484Y228516D01*
X5468D01*
X6484Y227500D01*
X5468Y226484D01*
X6484D01*
X7500Y225468D01*
X78500Y298468D02*
X79516Y299484D01*
X80532D01*
X79516Y300500D01*
X80532Y301516D01*
X79516D01*
X78500Y302532D01*
X77484Y301516D01*
X76468D01*
X77484Y300500D01*
X76468Y299484D01*
X77484D01*
X78500Y298468D01*
X88750Y284718D02*
X89766Y285734D01*
X90782D01*
X89766Y286750D01*
X90782Y287766D01*
X89766D01*
X88750Y288782D01*
X87734Y287766D01*
X86718D01*
X87734Y286750D01*
X86718Y285734D01*
X87734D01*
X88750Y284718D01*
X30750Y175468D02*
X31766Y176484D01*
X32782D01*
X31766Y177500D01*
X32782Y178516D01*
X31766D01*
X30750Y179532D01*
X29734Y178516D01*
X28718D01*
X29734Y177500D01*
X28718Y176484D01*
X29734D01*
X30750Y175468D01*
X24000Y169218D02*
X25016Y170234D01*
X26032D01*
X25016Y171250D01*
X26032Y172266D01*
X25016D01*
X24000Y173282D01*
X22984Y172266D01*
X21968D01*
X22984Y171250D01*
X21968Y170234D01*
X22984D01*
X24000Y169218D01*
X64000Y186718D02*
X65016Y187734D01*
X66032D01*
X65016Y188750D01*
X66032Y189766D01*
X65016D01*
X64000Y190782D01*
X62984Y189766D01*
X61968D01*
X62984Y188750D01*
X61968Y187734D01*
X62984D01*
X64000Y186718D01*
X47250Y182718D02*
X48266Y183734D01*
X49282D01*
X48266Y184750D01*
X49282Y185766D01*
X48266D01*
X47250Y186782D01*
X46234Y185766D01*
X45218D01*
X46234Y184750D01*
X45218Y183734D01*
X46234D01*
X47250Y182718D01*
X39500Y182218D02*
X40516Y183234D01*
X41532D01*
X40516Y184250D01*
X41532Y185266D01*
X40516D01*
X39500Y186282D01*
X38484Y185266D01*
X37468D01*
X38484Y184250D01*
X37468Y183234D01*
X38484D01*
X39500Y182218D01*
X97250Y111718D02*
X98266Y112734D01*
X99282D01*
X98266Y113750D01*
X99282Y114766D01*
X98266D01*
X97250Y115782D01*
X96234Y114766D01*
X95218D01*
X96234Y113750D01*
X95218Y112734D01*
X96234D01*
X97250Y111718D01*
Y71718D02*
X98266Y72734D01*
X99282D01*
X98266Y73750D01*
X99282Y74766D01*
X98266D01*
X97250Y75782D01*
X96234Y74766D01*
X95218D01*
X96234Y73750D01*
X95218Y72734D01*
X96234D01*
X97250Y71718D01*
X110000Y170218D02*
X111016Y171234D01*
X112032D01*
X111016Y172250D01*
X112032Y173266D01*
X111016D01*
X110000Y174282D01*
X108984Y173266D01*
X107968D01*
X108984Y172250D01*
X107968Y171234D01*
X108984D01*
X110000Y170218D01*
X102000Y175468D02*
X103016Y176484D01*
X104032D01*
X103016Y177500D01*
X104032Y178516D01*
X103016D01*
X102000Y179532D01*
X100984Y178516D01*
X99968D01*
X100984Y177500D01*
X99968Y176484D01*
X100984D01*
X102000Y175468D01*
X118000Y181718D02*
X119016Y182734D01*
X120032D01*
X119016Y183750D01*
X120032Y184766D01*
X119016D01*
X118000Y185782D01*
X116984Y184766D01*
X115968D01*
X116984Y183750D01*
X115968Y182734D01*
X116984D01*
X118000Y181718D01*
X126000Y186718D02*
X127016Y187734D01*
X128032D01*
X127016Y188750D01*
X128032Y189766D01*
X127016D01*
X126000Y190782D01*
X124984Y189766D01*
X123968D01*
X124984Y188750D01*
X123968Y187734D01*
X124984D01*
X126000Y186718D01*
X143000Y97968D02*
X144016Y98984D01*
X145032D01*
X144016Y100000D01*
X145032Y101016D01*
X144016D01*
X143000Y102032D01*
X141984Y101016D01*
X140968D01*
X141984Y100000D01*
X140968Y98984D01*
X141984D01*
X143000Y97968D01*
X77000Y180468D02*
X78016Y181484D01*
X79032D01*
X78016Y182500D01*
X79032Y183516D01*
X78016D01*
X77000Y184532D01*
X75984Y183516D01*
X74968D01*
X75984Y182500D01*
X74968Y181484D01*
X75984D01*
X77000Y180468D01*
X110000Y111718D02*
X111016Y112734D01*
X112032D01*
X111016Y113750D01*
X112032Y114766D01*
X111016D01*
X110000Y115782D01*
X108984Y114766D01*
X107968D01*
X108984Y113750D01*
X107968Y112734D01*
X108984D01*
X110000Y111718D01*
Y81718D02*
X111016Y82734D01*
X112032D01*
X111016Y83750D01*
X112032Y84766D01*
X111016D01*
X110000Y85782D01*
X108984Y84766D01*
X107968D01*
X108984Y83750D01*
X107968Y82734D01*
X108984D01*
X110000Y81718D01*
X60000Y85468D02*
X61016Y86484D01*
X62032D01*
X61016Y87500D01*
X62032Y88516D01*
X61016D01*
X60000Y89532D01*
X58984Y88516D01*
X57968D01*
X58984Y87500D01*
X57968Y86484D01*
X58984D01*
X60000Y85468D01*
X16000Y187968D02*
X17016Y188984D01*
X18032D01*
X17016Y190000D01*
X18032Y191016D01*
X17016D01*
X16000Y192032D01*
X14984Y191016D01*
X13968D01*
X14984Y190000D01*
X13968Y188984D01*
X14984D01*
X16000Y187968D01*
X136750Y212468D02*
X137766Y213484D01*
X138782D01*
X137766Y214500D01*
X138782Y215516D01*
X137766D01*
X136750Y216532D01*
X135734Y215516D01*
X134718D01*
X135734Y214500D01*
X134718Y213484D01*
X135734D01*
X136750Y212468D01*
X149250D02*
X150266Y213484D01*
X151282D01*
X150266Y214500D01*
X151282Y215516D01*
X150266D01*
X149250Y216532D01*
X148234Y215516D01*
X147218D01*
X148234Y214500D01*
X147218Y213484D01*
X148234D01*
X149250Y212468D01*
X143000D02*
X144016Y213484D01*
X145032D01*
X144016Y214500D01*
X145032Y215516D01*
X144016D01*
X143000Y216532D01*
X141984Y215516D01*
X140968D01*
X141984Y214500D01*
X140968Y213484D01*
X141984D01*
X143000Y212468D01*
X156000Y216718D02*
X157016Y217734D01*
X158032D01*
X157016Y218750D01*
X158032Y219766D01*
X157016D01*
X156000Y220782D01*
X154984Y219766D01*
X153968D01*
X154984Y218750D01*
X153968Y217734D01*
X154984D01*
X156000Y216718D01*
X13750Y212968D02*
X14766Y213984D01*
X15782D01*
X14766Y215000D01*
X15782Y216016D01*
X14766D01*
X13750Y217032D01*
X12734Y216016D01*
X11718D01*
X12734Y215000D01*
X11718Y213984D01*
X12734D01*
X13750Y212968D01*
X70500Y212468D02*
X71516Y213484D01*
X72532D01*
X71516Y214500D01*
X72532Y215516D01*
X71516D01*
X70500Y216532D01*
X69484Y215516D01*
X68468D01*
X69484Y214500D01*
X68468Y213484D01*
X69484D01*
X70500Y212468D01*
X83500D02*
X84516Y213484D01*
X85532D01*
X84516Y214500D01*
X85532Y215516D01*
X84516D01*
X83500Y216532D01*
X82484Y215516D01*
X81468D01*
X82484Y214500D01*
X81468Y213484D01*
X82484D01*
X83500Y212468D01*
X77000D02*
X78016Y213484D01*
X79032D01*
X78016Y214500D01*
X79032Y215516D01*
X78016D01*
X77000Y216532D01*
X75984Y215516D01*
X74968D01*
X75984Y214500D01*
X74968Y213484D01*
X75984D01*
X77000Y212468D01*
X101250Y320718D02*
X102266Y321734D01*
X103282D01*
X102266Y322750D01*
X103282Y323766D01*
X102266D01*
X101250Y324782D01*
X100234Y323766D01*
X99218D01*
X100234Y322750D01*
X99218Y321734D01*
X100234D01*
X101250Y320718D01*
X150000Y341718D02*
X151016Y342734D01*
X152032D01*
X151016Y343750D01*
X152032Y344766D01*
X151016D01*
X150000Y345782D01*
X148984Y344766D01*
X147968D01*
X148984Y343750D01*
X147968Y342734D01*
X148984D01*
X150000Y341718D01*
X212500Y225468D02*
X213516Y226484D01*
X214532D01*
X213516Y227500D01*
X214532Y228516D01*
X213516D01*
X212500Y229532D01*
X211484Y228516D01*
X210468D01*
X211484Y227500D01*
X210468Y226484D01*
X211484D01*
X212500Y225468D01*
Y240468D02*
X213516Y241484D01*
X214532D01*
X213516Y242500D01*
X214532Y243516D01*
X213516D01*
X212500Y244532D01*
X211484Y243516D01*
X210468D01*
X211484Y242500D01*
X210468Y241484D01*
X211484D01*
X212500Y240468D01*
Y255468D02*
X213516Y256484D01*
X214532D01*
X213516Y257500D01*
X214532Y258516D01*
X213516D01*
X212500Y259532D01*
X211484Y258516D01*
X210468D01*
X211484Y257500D01*
X210468Y256484D01*
X211484D01*
X212500Y255468D01*
Y270468D02*
X213516Y271484D01*
X214532D01*
X213516Y272500D01*
X214532Y273516D01*
X213516D01*
X212500Y274532D01*
X211484Y273516D01*
X210468D01*
X211484Y272500D01*
X210468Y271484D01*
X211484D01*
X212500Y270468D01*
Y285468D02*
X213516Y286484D01*
X214532D01*
X213516Y287500D01*
X214532Y288516D01*
X213516D01*
X212500Y289532D01*
X211484Y288516D01*
X210468D01*
X211484Y287500D01*
X210468Y286484D01*
X211484D01*
X212500Y285468D01*
Y300468D02*
X213516Y301484D01*
X214532D01*
X213516Y302500D01*
X214532Y303516D01*
X213516D01*
X212500Y304532D01*
X211484Y303516D01*
X210468D01*
X211484Y302500D01*
X210468Y301484D01*
X211484D01*
X212500Y300468D01*
Y315468D02*
X213516Y316484D01*
X214532D01*
X213516Y317500D01*
X214532Y318516D01*
X213516D01*
X212500Y319532D01*
X211484Y318516D01*
X210468D01*
X211484Y317500D01*
X210468Y316484D01*
X211484D01*
X212500Y315468D01*
Y330468D02*
X213516Y331484D01*
X214532D01*
X213516Y332500D01*
X214532Y333516D01*
X213516D01*
X212500Y334532D01*
X211484Y333516D01*
X210468D01*
X211484Y332500D01*
X210468Y331484D01*
X211484D01*
X212500Y330468D01*
Y345468D02*
X213516Y346484D01*
X214532D01*
X213516Y347500D01*
X214532Y348516D01*
X213516D01*
X212500Y349532D01*
X211484Y348516D01*
X210468D01*
X211484Y347500D01*
X210468Y346484D01*
X211484D01*
X212500Y345468D01*
Y360468D02*
X213516Y361484D01*
X214532D01*
X213516Y362500D01*
X214532Y363516D01*
X213516D01*
X212500Y364532D01*
X211484Y363516D01*
X210468D01*
X211484Y362500D01*
X210468Y361484D01*
X211484D01*
X212500Y360468D01*
Y375468D02*
X213516Y376484D01*
X214532D01*
X213516Y377500D01*
X214532Y378516D01*
X213516D01*
X212500Y379532D01*
X211484Y378516D01*
X210468D01*
X211484Y377500D01*
X210468Y376484D01*
X211484D01*
X212500Y375468D01*
Y390468D02*
X213516Y391484D01*
X214532D01*
X213516Y392500D01*
X214532Y393516D01*
X213516D01*
X212500Y394532D01*
X211484Y393516D01*
X210468D01*
X211484Y392500D01*
X210468Y391484D01*
X211484D01*
X212500Y390468D01*
X148000Y366718D02*
X149016Y367734D01*
X150032D01*
X149016Y368750D01*
X150032Y369766D01*
X149016D01*
X148000Y370782D01*
X146984Y369766D01*
X145968D01*
X146984Y368750D01*
X145968Y367734D01*
X146984D01*
X148000Y366718D01*
Y378968D02*
X149016Y379984D01*
X150032D01*
X149016Y381000D01*
X150032Y382016D01*
X149016D01*
X148000Y383032D01*
X146984Y382016D01*
X145968D01*
X146984Y381000D01*
X145968Y379984D01*
X146984D01*
X148000Y378968D01*
Y390718D02*
X149016Y391734D01*
X150032D01*
X149016Y392750D01*
X150032Y393766D01*
X149016D01*
X148000Y394782D01*
X146984Y393766D01*
X145968D01*
X146984Y392750D01*
X145968Y391734D01*
X146984D01*
X148000Y390718D01*
X72000Y366968D02*
X73016Y367984D01*
X74032D01*
X73016Y369000D01*
X74032Y370016D01*
X73016D01*
X72000Y371032D01*
X70984Y370016D01*
X69968D01*
X70984Y369000D01*
X69968Y367984D01*
X70984D01*
X72000Y366968D01*
X83250Y390718D02*
X84266Y391734D01*
X85282D01*
X84266Y392750D01*
X85282Y393766D01*
X84266D01*
X83250Y394782D01*
X82234Y393766D01*
X81218D01*
X82234Y392750D01*
X81218Y391734D01*
X82234D01*
X83250Y390718D01*
X78000Y372718D02*
X79016Y373734D01*
X80032D01*
X79016Y374750D01*
X80032Y375766D01*
X79016D01*
X78000Y376782D01*
X76984Y375766D01*
X75968D01*
X76984Y374750D01*
X75968Y373734D01*
X76984D01*
X78000Y372718D01*
X83750Y378968D02*
X84766Y379984D01*
X85782D01*
X84766Y381000D01*
X85782Y382016D01*
X84766D01*
X83750Y383032D01*
X82734Y382016D01*
X81718D01*
X82734Y381000D01*
X81718Y379984D01*
X82734D01*
X83750Y378968D01*
X78000Y385218D02*
X79016Y386234D01*
X80032D01*
X79016Y387250D01*
X80032Y388266D01*
X79016D01*
X78000Y389282D01*
X76984Y388266D01*
X75968D01*
X76984Y387250D01*
X75968Y386234D01*
X76984D01*
X78000Y385218D01*
X114250Y328468D02*
X115266Y329484D01*
X116282D01*
X115266Y330500D01*
X116282Y331516D01*
X115266D01*
X114250Y332532D01*
X113234Y331516D01*
X112218D01*
X113234Y330500D01*
X112218Y329484D01*
X113234D01*
X114250Y328468D01*
Y345468D02*
X115266Y346484D01*
X116282D01*
X115266Y347500D01*
X116282Y348516D01*
X115266D01*
X114250Y349532D01*
X113234Y348516D01*
X112218D01*
X113234Y347500D01*
X112218Y346484D01*
X113234D01*
X114250Y345468D01*
X105750Y353968D02*
X106766Y354984D01*
X107782D01*
X106766Y356000D01*
X107782Y357016D01*
X106766D01*
X105750Y358032D01*
X104734Y357016D01*
X103718D01*
X104734Y356000D01*
X103718Y354984D01*
X104734D01*
X105750Y353968D01*
X120500Y361718D02*
X121516Y362734D01*
X122532D01*
X121516Y363750D01*
X122532Y364766D01*
X121516D01*
X120500Y365782D01*
X119484Y364766D01*
X118468D01*
X119484Y363750D01*
X118468Y362734D01*
X119484D01*
X120500Y361718D01*
X108000D02*
X109016Y362734D01*
X110032D01*
X109016Y363750D01*
X110032Y364766D01*
X109016D01*
X108000Y365782D01*
X106984Y364766D01*
X105968D01*
X106984Y363750D01*
X105968Y362734D01*
X106984D01*
X108000Y361718D01*
X99250D02*
X100266Y362734D01*
X101282D01*
X100266Y363750D01*
X101282Y364766D01*
X100266D01*
X99250Y365782D01*
X98234Y364766D01*
X97218D01*
X98234Y363750D01*
X97218Y362734D01*
X98234D01*
X99250Y361718D01*
X142000Y372968D02*
X143016Y373984D01*
X144032D01*
X143016Y375000D01*
X144032Y376016D01*
X143016D01*
X142000Y377032D01*
X140984Y376016D01*
X139968D01*
X140984Y375000D01*
X139968Y373984D01*
X140984D01*
X142000Y372968D01*
Y385218D02*
X143016Y386234D01*
X144032D01*
X143016Y387250D01*
X144032Y388266D01*
X143016D01*
X142000Y389282D01*
X140984Y388266D01*
X139968D01*
X140984Y387250D01*
X139968Y386234D01*
X140984D01*
X142000Y385218D01*
D51*
X23132Y42200D02*
G03*
X23132Y42200I-2032J0D01*
G01*
X48532D02*
G03*
X48532Y42200I-2032J0D01*
G01*
X150132D02*
G03*
X150132Y42200I-2032J0D01*
G01*
X200932D02*
G03*
X200932Y42200I-2032J0D01*
G01*
X175532D02*
G03*
X175532Y42200I-2032J0D01*
G01*
X124732D02*
G03*
X124732Y42200I-2032J0D01*
G01*
X99332D02*
G03*
X99332Y42200I-2032J0D01*
G01*
X73932D02*
G03*
X73932Y42200I-2032J0D01*
G01*
M02*
