M48
;Layer_Color=9474304
;FILE_FORMAT=4:4
METRIC,LZ
;TYPE=PLATED
T1F00S00C0.3000
T2F00S00C1.1000
T3F00S00C1.8000
;TYPE=NON_PLATED
T4F00S00C0.9950
%
T01
X00008Y00047
Y00062
Y00077
X00007Y0010675
Y0011675
Y0012675
Y0013675
X00007Y001465
X00008Y00197
Y00212
X00023
X00038
X00053
X00068
X00083
X00098
X00113
X00128
X00143
X00158
X00173
X00188
X00203
X00218
X00233
X00248
X00263
X00278
X00293
X00308
X00323
X00338
X00353
X00368
X00383
X00392
Y00197
X00383
Y00182
X00392Y00182
Y00167
X00383Y00167
Y00152
X00392Y00152
Y00137
X00386842Y00112014
X0039243Y00089662
X00359664Y00102362
X00353Y00122
X00368
X00353Y00137
X00338
Y00122
Y00107
Y00092
X00323
Y00107
Y00122
Y00137
X00308
Y00122
Y00107
Y00092
Y00077
X00308Y00064
X00293Y00063
X00278
X00263
X00263Y00077
Y00092
X00278
X00293
X00323Y00077
Y00047
X00338
X00353
X00368
X00383
X00353Y00062
Y00032
X00353Y0002
Y00008
X00338Y00032
X00323
X00308
X00293Y00008
X00278
X00263
X00248
X00233
X00218
X00203
X00188
X00173
X00158
X00143
X00128
X00113
X00098
X00083
Y0002
X00068
Y00008
X00053
Y0002
Y00032
X00068
X00053Y00047
X00038
Y00062
X00023
Y00047
X00098
X00101092Y00057658
X00113Y00077
X0010925Y0008675
Y0009675
Y0010675
X001185Y0009575
X00143Y00092
X00158
X00173
X00188
X00203
X00218
X00233
X00248
Y00077
X00248Y00063
X00233
X00233Y00077
X00218
X00218Y00063
X00203
X00203Y00077
X00188
X00188Y00063
X00173
X00173Y00077
X00158
X00135Y0007925
X00143Y00063
X00143Y00122
X00158
X00173
X0018288Y00122174
X00164592Y00137922
X00158Y00167
X00173
X00188
X00203
X00218
X00233
X00248
X00263
X00278
X00293
X00308
X00323
X00338
X00353
X00368
Y00182
Y00197
X00353
Y00182
X00338
Y00197
X00323
Y00182
X00308
Y00197
X00293
X00278
X00263
Y00182
X00248
Y00197
X00233
Y00182
X00218
Y00197
X00203
Y00182
X00188
Y00197
X00173
Y00182
X00158
Y00197
X00143
Y00182
Y00167
X00128Y00197
X00113
X00098
X00083
X00068
X00053
X00038
X00023
X00037Y00165
X00038Y00137
X0007874Y00164846
X00113Y00137
X00128Y00122
X00245364Y0012446
X00263Y00122
X00230886Y00143764
X00203Y00032
T02
X001111Y000417
X001365
X001619
X001873
X002127
X002381
X002635
X002889
T03
X00025Y00025
X00375
T04
X0036484Y000642
X0038516
X00375Y00115
M30
