M48
;Layer_Color=9474304
;FILE_FORMAT=4:4
METRIC,LZ
;TYPE=PLATED
T1F00S00C0.3000
T2F00S00C1.1000
T3F00S00C1.8000
;TYPE=NON_PLATED
T4F00S00C0.9950
%
T01
X00006604Y00173228
X00032Y00179
X00050292Y00172212
X00056Y00203
X00066
X00076
X00040132Y00203454
X000965Y00161778
X00128Y0015675
X0014Y0016875
X00170688Y00176784
X00173Y00203
X00163Y00203
X00183Y002055
X00213Y00204
Y002115
X00123952Y00084074
X00110998Y00085218
X000975Y0006875
X0006875Y0006625
X00051Y002265
Y002415
Y002565
Y002715
Y002865
Y003015
Y003165
X0005525Y0032925
X00077978Y00331216
X00084582Y00335534
X00091Y00331459
X00093Y00338729
Y0034816
X000849Y0034796
X000846Y0035756
X000957Y0035946
X0010225Y0035796
X001012Y0036436
X0010825Y0036371
X001085Y0037021
X00109474Y00385572
X00102362
X001035Y0039275
X00096
X000885
X000795
X00072
X000645
X00079756Y00385318
X00086614Y00385572
X0009398
X00111Y0039275
X001025Y0034796
X0010795Y00331216
X00121Y0033446
X00126Y0034625
X001335
X00141
X001485
X00156
X001635
X00171Y003465
X00171Y00354
X00171Y003615
X00171Y00369
X00171Y003765
X00171Y00384
X00171Y003915
X00186
X00201
X00213
Y003765
X00201
Y003615
X00213Y003615
X002115Y003465
X00201Y003465
Y003315
X00213Y003315
Y003165
X00201Y003165
Y003015
X00213Y003015
Y002865
X00201Y002865
Y002715
X00213Y002715
Y002565
X00201Y002565
Y002415
X00213Y002415
Y002265
X00201Y002265
X00186
Y002415
Y002565
Y002715
Y002865
Y003015
Y003165
Y003315
Y003465
Y003615
Y003765
X00171Y003315
Y003165
Y003015
Y002865
Y002715
Y002565
Y002415
Y002265
X00156Y002415
Y002565
Y002715
Y002865
Y003015
Y003165
Y003315
X00141
Y003165
Y003015
Y002865
Y002715
Y002565
X00126Y002715
Y002865
Y003015
X00081
Y002865
Y002715
Y002565
X00096
Y002415
X00111
Y002265
X00096
X00081Y002415
X00036
Y002565
Y002715
Y002865
Y003015
X0002525Y0033075
Y0035675
X00036Y003465
X0005775Y003595
X00078Y0036546
X00036Y002265
X0002625Y00225
X000075Y003915
T02
X000211Y000422
X000465
X000719
X000973
X001227
X001481
X001735
X001989
T03
X00035Y001
X00185
T04
X0008565Y0009965
X0013645Y0008949
Y0010981
M30
