M48
;Layer_Color=9474304
;FILE_FORMAT=4:4
METRIC,LZ
;TYPE=PLATED
T1F00S00C0.3000
T2F00S00C1.1000
T3F00S00C1.8000
;TYPE=NON_PLATED
T4F00S00C0.9950
%
T01
X0009725Y0007875
X0011Y0008575
X0012275
X0011Y0011625
X0009025Y0012625
X0007875
X00077Y001825
X00064Y0018875
X00056Y001815
X00048Y0018875
X0003075Y0017625
X0001675Y0020325
X000075
Y002125
X0002
X0002Y002275
X000075
Y002425
X0002
X00035
Y002575
Y002725
Y002875
Y003025
Y003175
Y003325
Y003475
X0005
Y003625
X00065
Y003775
Y003925
X000755Y003925
X000815Y003885
X000755Y003825
X000815Y0037625
X000755Y0037025
X0009725Y003595
X0010375Y0036525
X0011Y003595
X0011625Y0036525
X0012275Y003595
Y0033625
X0011625Y00332
X0010375
X0009725Y0033625
X0011Y0033875
Y003475
X00155
X0017
X00185
X002
X002125Y00348
Y003625
X002Y003625
Y003775
X002125Y00377
Y003925
X002Y003925
X00185
Y003775
Y003625
X0017
Y003775
Y003925
X00155
X001445Y003925
Y003825
Y0037025
X0013775Y003765
Y003885
X00155Y003775
Y003625
X0015Y0033
X001625
X0017025Y003225
X001625Y003145
X00153042Y00313072
X00139354Y00312532
X0014Y002725
X001315
X00125Y002575
X0014
X00155
X0017
X00185
X002
X002125
Y002425
X002
Y002275
X002125
Y002125
Y0020325
X002
Y002125
X00185
Y0020325
X0017125
X0017Y002125
Y002275
X00185
Y002425
X0017
X00155
X0014
Y002275
X00125
Y002425
X00095
Y002575
Y002725
Y002875
X0008
Y003025
X0008225Y0031
X0007475Y00317
X0008Y002725
Y002575
Y002425
Y002275
X00095
X00098Y002125
X0008325Y002145
X00077
X0007075
X0009Y0018875
X00106
X00114Y00189
X00122Y001735
X0013Y00178718
X00143Y0018625
X00142993Y00214443
X0013675Y002145
X0014925
X00156Y002225
X0017Y002725
X00185
X002
X002125
Y002875
X002Y002875
Y003025
X002125Y003025
Y003175
X002Y003175
Y003325
X002125Y003325
X00185Y003325
Y003175
Y003025
Y002875
X0017
X0018925Y0018875
X0012875Y001505
X00135Y001395
X001025Y001645
X00035Y002275
X0002Y002575
X000075
Y002725
X0002
Y002875
X000075Y002875
Y003025
X0002Y003025
Y003175
X000075Y003175
Y003325
X0002Y003325
Y003475
X000075Y00348
Y003625
X0002Y003625
X00035
Y003775
X0005
Y003925
X00035
X0002
X000075Y003925
Y00377
X0002Y003775
T02
X000211Y000422
X000465
X000719
X000973
X001227
X001481
X001735
X001989
T03
X00035Y001
X00185
T04
X000846Y001001
X001354Y0011026
Y0008994
M30
