M48
;Layer_Color=9474304
;FILE_FORMAT=4:4
METRIC,LZ
;TYPE=PLATED
T1F00S00C0.3000
T2F00S00C1.1000
T3F00S00C1.8000
;TYPE=NON_PLATED
T4F00S00C0.9950
%
T01
X000975Y00085
X0011
X0012975Y001395
X00150825Y00145675
X00159Y00152
X00163Y0018875
X00155
X00143Y00184
X0013Y0018875
X00122
X00114
X00106
X00098
X0009
X00098Y0021125
X00099Y002225
Y0024075
X001155Y00233
X00114Y0021125
X0013
X0013675Y002145
X00143
X0014925
X00155Y002165
Y002315
Y002465
X001555Y0025725
X00161Y0026475
X0014575Y0027325
X0013025Y002825
X00125Y002915
X001155Y0029
X001045
X000935
X00095Y003065
X0011
X00125
Y003215
Y003365
X0011
Y003515
X0011975
X0013325
X0016075
X0017
X00185
X002
X002125
Y003365
X002
Y003215
X002125Y003215
Y003065
X002Y003065
Y002915
X002125Y002915
Y002765
X002Y002765
Y002615
X002125Y002615
Y002465
X002Y002465
Y002315
X002125Y002315
Y002165
X00211Y0018875
X00203
X00194942Y00188643
X0018925Y0017875
X00179Y0018875
X0014Y002315
Y002465
X00077Y00233
X00065Y002315
X0005
Y002465
X00035
Y002315
X0002
X000075Y002315
Y002465
X0002Y002465
Y002615
X000075Y002615
Y002765
X0002Y002765
Y002915
X000075Y002915
Y003065
X0002Y003065
Y003215
X000075Y003215
Y003365
X0002
X00035
X0005
X00059Y003415
Y003515
X0005
X00035
X0002
X000075
X00035Y003215
X0005
X0005925Y0033075
X00056Y0030875
X0005825Y002945
X0005Y00282
X00035
X0005875Y002645
X0006375Y00257
X0007425Y0027275
X0008275Y002805
X00095Y003215
X0011
X00095Y003365
X0010025Y003515
X0008675
X0008175Y003485
X0017Y003365
X00185
Y003215
Y003065
Y002915
X0017Y003215
X000835Y002145
X00077
X000705
X00065Y002035
X0005
X0005Y002165
X00035
X00035Y002035
X0003075Y00195
X0002Y002035
X000075
Y002165
X0002
T02
X000211Y000422
X000465
X000719
X000973
X001227
X001481
X001735
X001989
T03
X00035Y001
X00185
T04
X000846Y001001
X001354Y0008994
Y0011026
M30
