G04*
G04 #@! TF.GenerationSoftware,Altium Limited,Altium Designer,21.6.4 (81)*
G04*
G04 Layer_Color=32768*
%FSLAX44Y44*%
%MOMM*%
G71*
G04*
G04 #@! TF.SameCoordinates,6379334F-7AA2-413A-8348-2233F6679C20*
G04*
G04*
G04 #@! TF.FilePolarity,Positive*
G04*
G01*
G75*
%ADD43C,0.0500*%
%ADD44C,0.0508*%
D43*
X359760Y21190D02*
Y31187D01*
X363092Y27854D01*
X366424Y31187D01*
Y21190D01*
X369757Y31187D02*
Y21190D01*
Y26188D01*
X376421D01*
Y31187D01*
Y21190D01*
X386418D02*
X379754D01*
X386418Y27854D01*
Y29521D01*
X384752Y31187D01*
X381420D01*
X379754Y29521D01*
X9760Y21190D02*
Y31187D01*
X13092Y27854D01*
X16424Y31187D01*
Y21190D01*
X19757Y31187D02*
Y21190D01*
Y26188D01*
X26421D01*
Y31187D01*
Y21190D01*
X29754D02*
X33086D01*
X31420D01*
Y31187D01*
X29754Y29521D01*
X241582Y142665D02*
X240749Y143498D01*
X239083D01*
X238250Y142665D01*
Y139333D01*
X239083Y138500D01*
X240749D01*
X241582Y139333D01*
X243248Y142665D02*
X244081Y143498D01*
X245748D01*
X246581Y142665D01*
Y141832D01*
X245748Y140999D01*
X244914D01*
X245748D01*
X246581Y140166D01*
Y139333D01*
X245748Y138500D01*
X244081D01*
X243248Y139333D01*
X214082Y101915D02*
X213249Y102748D01*
X211583D01*
X210750Y101915D01*
Y98583D01*
X211583Y97750D01*
X213249D01*
X214082Y98583D01*
X219081Y97750D02*
X215748D01*
X219081Y101082D01*
Y101915D01*
X218248Y102748D01*
X216581D01*
X215748Y101915D01*
X237668Y98585D02*
X238501Y97752D01*
X240167D01*
X241000Y98585D01*
Y101917D01*
X240167Y102750D01*
X238501D01*
X237668Y101917D01*
X236002Y102750D02*
X234335D01*
X235169D01*
Y97752D01*
X236002Y98585D01*
X269000Y145750D02*
Y150748D01*
X271499D01*
X272332Y149915D01*
Y148249D01*
X271499Y147416D01*
X269000D01*
X270666D02*
X272332Y145750D01*
X273998Y149915D02*
X274832Y150748D01*
X276498D01*
X277331Y149915D01*
Y149082D01*
X276498Y148249D01*
X275665D01*
X276498D01*
X277331Y147416D01*
Y146583D01*
X276498Y145750D01*
X274832D01*
X273998Y146583D01*
X306997Y100996D02*
X304498Y103495D01*
X299499D01*
X297000Y100996D01*
Y98497D01*
X299499Y95998D01*
X304498D01*
X306997Y93498D01*
Y90999D01*
X304498Y88500D01*
X299499D01*
X297000Y90999D01*
X311995Y103495D02*
Y88500D01*
X316994Y93498D01*
X321992Y88500D01*
Y103495D01*
X336987Y88500D02*
X326990D01*
X336987Y98497D01*
Y100996D01*
X334488Y103495D01*
X329490D01*
X326990Y100996D01*
X239000Y114253D02*
X233668Y122250D01*
Y114253D02*
X239000Y122250D01*
X231003D02*
X228337D01*
X229670D01*
Y114253D01*
X231003Y115585D01*
X287500Y146497D02*
Y138500D01*
X291499D01*
X292832Y139833D01*
Y145164D01*
X291499Y146497D01*
X287500D01*
X295497Y145164D02*
X296830Y146497D01*
X299496D01*
X300829Y145164D01*
Y143832D01*
X299496Y142499D01*
X298163D01*
X299496D01*
X300829Y141166D01*
Y139833D01*
X299496Y138500D01*
X296830D01*
X295497Y139833D01*
X93003Y90004D02*
X95502Y87505D01*
X100501D01*
X103000Y90004D01*
Y92503D01*
X100501Y95002D01*
X95502D01*
X93003Y97502D01*
Y100001D01*
X95502Y102500D01*
X100501D01*
X103000Y100001D01*
X88005Y87505D02*
Y102500D01*
X83006Y97502D01*
X78008Y102500D01*
Y87505D01*
X73010Y102500D02*
X68011D01*
X70511D01*
Y87505D01*
X73010Y90004D01*
X269000Y134750D02*
Y139748D01*
X271499D01*
X272332Y138915D01*
Y137249D01*
X271499Y136416D01*
X269000D01*
X270666D02*
X272332Y134750D01*
X277331D02*
X273998D01*
X277331Y138082D01*
Y138915D01*
X276498Y139748D01*
X274832D01*
X273998Y138915D01*
X326000Y150250D02*
Y145252D01*
X323501D01*
X322668Y146085D01*
Y147751D01*
X323501Y148584D01*
X326000D01*
X324334D02*
X322668Y150250D01*
X321002D02*
X319335D01*
X320168D01*
Y145252D01*
X321002Y146085D01*
D44*
X284751Y92700D02*
X289250D01*
Y94949D01*
X288500Y95699D01*
X285501D01*
X284751Y94949D01*
Y92700D01*
X289250Y100198D02*
Y97198D01*
X286251Y100198D01*
X285501D01*
X284751Y99448D01*
Y97948D01*
X285501Y97198D01*
X108001Y92750D02*
X112500D01*
Y94999D01*
X111750Y95749D01*
X108751D01*
X108001Y94999D01*
Y92750D01*
X112500Y97248D02*
Y98748D01*
Y97998D01*
X108001D01*
X108751Y97248D01*
M02*
