G04*
G04 #@! TF.GenerationSoftware,Altium Limited,Altium Designer,21.6.4 (81)*
G04*
G04 Layer_Color=8421504*
%FSLAX44Y44*%
%MOMM*%
G71*
G04*
G04 #@! TF.SameCoordinates,6379334F-7AA2-413A-8348-2233F6679C20*
G04*
G04*
G04 #@! TF.FilePolarity,Positive*
G04*
G01*
G75*
%ADD14C,0.0100*%
%ADD15R,0.6200X0.6200*%
%ADD16R,0.3500X0.3600*%
%ADD17R,0.5200X0.5500*%
%ADD18R,0.8000X1.7000*%
%ADD19R,0.4000X0.4000*%
%ADD20R,1.0000X1.5500*%
%ADD21R,1.0000X0.8000*%
D14*
X381250Y77250D02*
D03*
X368550D02*
D03*
X381250Y89950D02*
D03*
X368550D02*
D03*
X381250Y102650D02*
D03*
X368550D02*
D03*
D15*
X248500Y141000D02*
D03*
X239500D02*
D03*
X221000Y100250D02*
D03*
X212000D02*
D03*
X230750D02*
D03*
X239750D02*
D03*
D16*
X287250Y95500D02*
D03*
Y103900D02*
D03*
X110500Y103950D02*
D03*
Y95550D02*
D03*
D17*
X270500Y148000D02*
D03*
X278500D02*
D03*
Y137000D02*
D03*
X270500D02*
D03*
X316500Y148000D02*
D03*
X324500D02*
D03*
D18*
X337000Y95500D02*
D03*
X303000D02*
D03*
X97000D02*
D03*
X63000D02*
D03*
D19*
X212750Y151250D02*
D03*
X187250D02*
D03*
Y185250D02*
D03*
X227750Y201750D02*
D03*
X221250Y185250D02*
D03*
Y176750D02*
D03*
Y168250D02*
D03*
X212750D02*
D03*
X200000Y151250D02*
D03*
X187250Y168250D02*
D03*
X227750Y214000D02*
D03*
Y189500D02*
D03*
Y181000D02*
D03*
Y172500D02*
D03*
Y164000D02*
D03*
X221250Y151250D02*
D03*
X227750Y136250D02*
D03*
X217000D02*
D03*
X208500D02*
D03*
X200000D02*
D03*
X191500D02*
D03*
X221250Y159750D02*
D03*
X227750Y155500D02*
D03*
Y147000D02*
D03*
X221250Y142750D02*
D03*
X212750D02*
D03*
X204250D02*
D03*
X195750D02*
D03*
X187250D02*
D03*
X183000Y136250D02*
D03*
X172250Y214000D02*
D03*
Y201750D02*
D03*
Y189500D02*
D03*
Y181000D02*
D03*
Y172500D02*
D03*
Y164000D02*
D03*
Y155500D02*
D03*
Y147000D02*
D03*
Y136250D02*
D03*
X178750Y185250D02*
D03*
Y176750D02*
D03*
Y168250D02*
D03*
Y159750D02*
D03*
Y151250D02*
D03*
Y142750D02*
D03*
X212750Y185250D02*
D03*
X200000D02*
D03*
D20*
X238750Y118750D02*
D03*
X212750D02*
D03*
D21*
X305000Y137000D02*
D03*
X290000D02*
D03*
Y148000D02*
D03*
X305000D02*
D03*
M02*
