G04*
G04 #@! TF.GenerationSoftware,Altium Limited,Altium Designer,21.6.4 (81)*
G04*
G04 Layer_Physical_Order=1*
G04 Layer_Color=255*
%FSLAX44Y44*%
%MOMM*%
G71*
G04*
G04 #@! TF.SameCoordinates,6379334F-7AA2-413A-8348-2233F6679C20*
G04*
G04*
G04 #@! TF.FilePolarity,Positive*
G04*
G01*
G75*
%ADD10C,0.2540*%
%ADD11C,0.1270*%
%ADD15R,0.6200X0.6200*%
%ADD16R,0.3500X0.3600*%
%ADD17R,0.5200X0.5500*%
%ADD18R,0.8000X1.7000*%
%ADD19R,0.4000X0.4000*%
%ADD20R,1.0000X1.5500*%
%ADD21R,1.0000X0.8000*%
%ADD34C,0.7900*%
%ADD35C,0.1520*%
%ADD36C,0.1524*%
%ADD37C,0.9000*%
%ADD38C,3.4000*%
%ADD39C,1.6500*%
%ADD40R,1.6500X1.6500*%
%ADD41C,0.6000*%
G36*
X395922Y4078D02*
X4078Y4078D01*
X4078Y215922D01*
X168980Y215922D01*
Y214762D01*
X172250D01*
Y214000D01*
X173012D01*
Y210730D01*
X174250D01*
Y205020D01*
X173012D01*
Y201750D01*
Y198480D01*
X174250D01*
Y192770D01*
X173012D01*
Y189500D01*
X172250D01*
Y188738D01*
X168980D01*
Y187320D01*
X163107D01*
X161464Y188964D01*
X160792Y189412D01*
X160000Y189570D01*
X158752D01*
X158078Y190578D01*
X156666Y191522D01*
X155000Y191854D01*
X153334Y191522D01*
X151922Y190578D01*
X150978Y189166D01*
X150646Y187500D01*
X150978Y185834D01*
X151922Y184422D01*
X153334Y183478D01*
X153695Y183406D01*
X154728Y182666D01*
X154601Y182029D01*
X154396Y181000D01*
X154728Y179334D01*
X155672Y177922D01*
X156907Y177096D01*
X157081Y176281D01*
X157079Y175684D01*
X156922Y175578D01*
X155978Y174166D01*
X155646Y172500D01*
X155978Y170834D01*
X156922Y169422D01*
X158334Y168478D01*
X160000Y168146D01*
X161666Y168478D01*
X163078Y169422D01*
X163752Y170430D01*
X168980D01*
Y169230D01*
X175480D01*
Y167270D01*
X168980D01*
Y160730D01*
X175480D01*
Y158770D01*
X168980D01*
Y153320D01*
X163752D01*
X163078Y154328D01*
X161666Y155272D01*
X160000Y155604D01*
X158334Y155272D01*
X156922Y154328D01*
X155978Y152916D01*
X155646Y151250D01*
X155978Y149584D01*
X156922Y148172D01*
X158334Y147228D01*
X160000Y146896D01*
X161666Y147228D01*
X163078Y148172D01*
X163752Y149180D01*
X168980D01*
Y143730D01*
X175480D01*
Y140733D01*
X175480Y139520D01*
X174266Y139520D01*
X173012D01*
Y136250D01*
Y132980D01*
X175520D01*
Y132980D01*
X176680Y132715D01*
Y126107D01*
X148193Y97620D01*
X113520D01*
Y98620D01*
X107480D01*
Y97620D01*
X102270D01*
Y105270D01*
X91730D01*
Y85730D01*
X102270D01*
Y93480D01*
X107480D01*
Y92480D01*
X113520D01*
Y93480D01*
X149050D01*
X149842Y93638D01*
X150513Y94087D01*
X180214Y123786D01*
X180662Y124458D01*
X180820Y125250D01*
Y132980D01*
X186270D01*
Y139480D01*
X188230D01*
Y132980D01*
X190639D01*
X191125Y131807D01*
X187786Y128469D01*
X187338Y127797D01*
X187180Y127005D01*
Y122753D01*
X186171Y122079D01*
X185228Y120666D01*
X184896Y119000D01*
X185228Y117334D01*
X186171Y115921D01*
X187584Y114978D01*
X189250Y114646D01*
X190916Y114978D01*
X192328Y115921D01*
X193272Y117334D01*
X193604Y119000D01*
X193370Y120176D01*
X194172Y121177D01*
X194347Y121276D01*
X195000Y121146D01*
X196666Y121478D01*
X198078Y122422D01*
X199022Y123834D01*
X199160Y124527D01*
X200430Y124402D01*
Y69357D01*
X185837Y54764D01*
X185388Y54092D01*
X185230Y53300D01*
Y51030D01*
X184815Y50975D01*
X182499Y50016D01*
X180510Y48490D01*
X178984Y46501D01*
X178025Y44185D01*
X177698Y41700D01*
X178025Y39215D01*
X178984Y36899D01*
X180510Y34910D01*
X182499Y33384D01*
X184815Y32425D01*
X187300Y32098D01*
X189785Y32425D01*
X192101Y33384D01*
X194090Y34910D01*
X195616Y36899D01*
X196575Y39215D01*
X196902Y41700D01*
X196575Y44185D01*
X195616Y46501D01*
X194090Y48490D01*
X192101Y50016D01*
X189785Y50975D01*
X189370Y51030D01*
Y52443D01*
X202297Y65370D01*
X203470Y64884D01*
Y49432D01*
X203628Y48639D01*
X204076Y47968D01*
X204888Y47157D01*
X204384Y46501D01*
X203425Y44185D01*
X203098Y41700D01*
X203425Y39215D01*
X204384Y36899D01*
X205910Y34910D01*
X207899Y33384D01*
X210215Y32425D01*
X212700Y32098D01*
X215185Y32425D01*
X217501Y33384D01*
X219490Y34910D01*
X221016Y36899D01*
X221975Y39215D01*
X222302Y41700D01*
X221975Y44185D01*
X221016Y46501D01*
X219490Y48490D01*
X217501Y50016D01*
X215185Y50975D01*
X212700Y51302D01*
X210215Y50975D01*
X208880Y50422D01*
X207610Y51271D01*
Y94618D01*
X207630Y95880D01*
X215360D01*
X216370Y95880D01*
X217640Y95880D01*
X220238D01*
Y100250D01*
Y104620D01*
X217640D01*
X216630Y104620D01*
X215718Y104620D01*
X214820Y105518D01*
Y109730D01*
X219020D01*
Y127770D01*
X214820D01*
Y132980D01*
X217340D01*
X226047Y124273D01*
X226047Y124273D01*
X226719Y123824D01*
X227512Y123666D01*
X232480D01*
Y109730D01*
X236678D01*
Y105518D01*
X235780Y104620D01*
X234110Y104620D01*
X231512D01*
Y100250D01*
Y95880D01*
X234110D01*
X235120Y95880D01*
X236390Y95880D01*
X244120D01*
Y104620D01*
X240822D01*
Y109730D01*
X245020D01*
Y127187D01*
X245020Y127770D01*
X245979Y128520D01*
X247328Y129422D01*
X248272Y130834D01*
X248604Y132500D01*
X248272Y134166D01*
X247474Y135360D01*
X247723Y136163D01*
X247738Y136186D01*
Y141000D01*
Y145370D01*
X244130D01*
X244130Y145370D01*
X243870D01*
Y145370D01*
X242037Y145370D01*
X241723Y145837D01*
X241474Y146640D01*
X242272Y147834D01*
X242604Y149500D01*
X242272Y151166D01*
X241329Y152578D01*
X239916Y153522D01*
X238250Y153854D01*
X236584Y153522D01*
X235172Y152578D01*
X234498Y151570D01*
X232017D01*
X231020Y152230D01*
X231020Y152529D01*
Y158770D01*
X224520D01*
Y160730D01*
X231020D01*
Y167270D01*
X224520D01*
Y169230D01*
X231020D01*
Y175770D01*
X224520D01*
Y177730D01*
X231020D01*
Y184270D01*
X224520D01*
Y186230D01*
X226988D01*
Y189500D01*
Y192770D01*
X224480D01*
X224250Y193945D01*
Y197305D01*
X224480Y198480D01*
X225520Y198480D01*
X226988D01*
Y201750D01*
Y205020D01*
X224480Y205020D01*
X224250Y206195D01*
Y209555D01*
X224480Y210730D01*
X226988D01*
Y214000D01*
X227750D01*
Y214762D01*
X231020D01*
Y215922D01*
X395922Y215922D01*
X395922Y4078D01*
D02*
G37*
G36*
X217980Y181980D02*
X224480D01*
Y180020D01*
X217980D01*
Y173480D01*
X224480D01*
Y171520D01*
X217980D01*
Y164980D01*
X224480D01*
Y163020D01*
X217980D01*
Y160022D01*
X216802Y159248D01*
X216710Y159259D01*
X215828Y160578D01*
X214416Y161522D01*
X212750Y161854D01*
X211084Y161522D01*
X209671Y160578D01*
X208728Y159166D01*
X208396Y157500D01*
X208728Y155834D01*
X208915Y155554D01*
X209480Y154520D01*
X209480D01*
X209480Y154520D01*
Y147980D01*
X216020D01*
Y154520D01*
X216020Y154520D01*
X216020D01*
X216583Y155551D01*
X216772Y155834D01*
X216839Y156169D01*
X217980Y156480D01*
X218196Y156480D01*
X224480D01*
Y154520D01*
X217980D01*
Y147980D01*
X224480D01*
Y146020D01*
X217980D01*
Y139520D01*
X216020D01*
Y146020D01*
X209480D01*
Y139520D01*
X207520D01*
Y146020D01*
X200980D01*
Y139520D01*
X199020D01*
Y146020D01*
X192480D01*
Y139520D01*
X190520D01*
Y146020D01*
X183980D01*
Y139520D01*
X182020D01*
Y146020D01*
X175520D01*
Y147980D01*
X182020D01*
Y152555D01*
X183252Y153246D01*
X183980Y152824D01*
Y147980D01*
X190520D01*
Y151488D01*
X190731Y151804D01*
X194607Y155680D01*
X196465D01*
X196730Y154520D01*
X196730Y154520D01*
X196730Y154520D01*
Y152012D01*
X200000D01*
X203270D01*
Y154131D01*
X204079Y154671D01*
X205022Y156084D01*
X205354Y157750D01*
X205022Y159416D01*
X204079Y160828D01*
X202666Y161772D01*
X201000Y162104D01*
X199334Y161772D01*
X197922Y160828D01*
X197248Y159820D01*
X193750D01*
X192958Y159662D01*
X192286Y159213D01*
X191021Y157948D01*
X189643Y158366D01*
X189480Y159186D01*
X188536Y160598D01*
X187124Y161542D01*
X185457Y161874D01*
X184105Y161605D01*
X184020Y161662D01*
X183227Y161820D01*
X182020D01*
Y163020D01*
X175520D01*
Y164980D01*
X182020D01*
Y168314D01*
X182771Y168904D01*
X183980Y168369D01*
Y164980D01*
X190520D01*
Y170430D01*
X190620D01*
X191412Y170588D01*
X192083Y171036D01*
X192986Y171940D01*
X193707Y171796D01*
X195373Y172128D01*
X196785Y173072D01*
X197729Y174484D01*
X198060Y176150D01*
X197729Y177816D01*
X196785Y179228D01*
X195373Y180172D01*
X193707Y180504D01*
X192041Y180172D01*
X190628Y179228D01*
X189685Y177816D01*
X189353Y176150D01*
X189472Y175551D01*
X188667Y174570D01*
X183000D01*
X182020Y175670D01*
Y180020D01*
X175520D01*
Y181980D01*
X182020D01*
Y187250D01*
X183980D01*
Y186012D01*
X187250D01*
X190520D01*
Y187250D01*
X196730D01*
Y186012D01*
X200000D01*
X203270D01*
Y187250D01*
X209480D01*
Y186012D01*
X212750D01*
X216020D01*
Y187250D01*
X217980D01*
Y181980D01*
D02*
G37*
%LPC*%
G36*
X231020Y213238D02*
X228512D01*
Y210730D01*
X231020D01*
Y213238D01*
D02*
G37*
G36*
X171488D02*
X168980D01*
Y210730D01*
X171488D01*
Y213238D01*
D02*
G37*
G36*
X228512Y205020D02*
Y202512D01*
X231020D01*
Y205020D01*
X228512D01*
D02*
G37*
G36*
X171488D02*
X168980D01*
Y202512D01*
X171488D01*
Y205020D01*
D02*
G37*
G36*
X231020Y200988D02*
X228512D01*
Y198480D01*
X231020D01*
Y200988D01*
D02*
G37*
G36*
X171488D02*
X168980D01*
Y198480D01*
X171488D01*
Y200988D01*
D02*
G37*
G36*
X228512Y192770D02*
Y190262D01*
X231020D01*
Y192770D01*
X228512D01*
D02*
G37*
G36*
X171488D02*
X168980D01*
Y190262D01*
X171488D01*
Y192770D01*
D02*
G37*
G36*
X231020Y188738D02*
X228512D01*
Y186230D01*
X231020D01*
Y188738D01*
D02*
G37*
G36*
X245000Y167104D02*
X243334Y166772D01*
X241922Y165828D01*
X240978Y164416D01*
X240646Y162750D01*
X240978Y161084D01*
X241922Y159671D01*
X243334Y158728D01*
X245000Y158396D01*
X246666Y158728D01*
X248078Y159671D01*
X248752Y160680D01*
X314393D01*
X321783Y153290D01*
X321257Y152020D01*
X320630D01*
X319360Y152020D01*
X312630D01*
Y150070D01*
X311270D01*
Y153270D01*
X298730D01*
Y143540D01*
X298730Y142730D01*
X298730Y141460D01*
Y131730D01*
X311270D01*
Y133359D01*
X311980Y133706D01*
X312540Y133842D01*
X313834Y132978D01*
X315500Y132646D01*
X317166Y132978D01*
X318578Y133921D01*
X319522Y135334D01*
X319854Y137000D01*
X319522Y138666D01*
X318578Y140078D01*
X317166Y141022D01*
X315500Y141354D01*
X313834Y141022D01*
X312540Y140158D01*
X311980Y140294D01*
X311270Y140641D01*
X311270Y142270D01*
X311270Y143540D01*
Y145930D01*
X312630D01*
Y143980D01*
X319360D01*
X320370Y143980D01*
X321640Y143980D01*
X328370D01*
Y152020D01*
X326570D01*
Y153500D01*
X326412Y154292D01*
X325964Y154964D01*
X316714Y164214D01*
X316042Y164662D01*
X315250Y164820D01*
X248752D01*
X248078Y165828D01*
X246666Y166772D01*
X245000Y167104D01*
D02*
G37*
G36*
X384019Y159861D02*
X382353Y159530D01*
X380940Y158586D01*
X379996Y157174D01*
X379665Y155508D01*
X379996Y153841D01*
X380754Y152707D01*
X380088Y151588D01*
X378750Y151854D01*
X377084Y151522D01*
X375672Y150578D01*
X374728Y149166D01*
X374396Y147500D01*
X374728Y145834D01*
X375672Y144422D01*
X377084Y143478D01*
X378750Y143146D01*
X380148Y143425D01*
X382680Y140893D01*
Y108689D01*
X381698Y107883D01*
X381250Y107972D01*
X379213Y107567D01*
X377487Y106413D01*
X376333Y104687D01*
X375948Y102750D01*
X373852D01*
X373467Y104687D01*
X372313Y106413D01*
X370587Y107567D01*
X368550Y107972D01*
X366999Y107664D01*
X364489Y110174D01*
X364604Y110750D01*
X364272Y112416D01*
X363329Y113828D01*
X361916Y114772D01*
X360250Y115104D01*
X358584Y114772D01*
X357172Y113828D01*
X356228Y112416D01*
X355896Y110750D01*
X356228Y109084D01*
X357172Y107671D01*
X358584Y106728D01*
X360250Y106396D01*
X360826Y106511D01*
X363470Y103868D01*
X363228Y102650D01*
X363633Y100613D01*
X364787Y98887D01*
X366513Y97733D01*
X368550Y97328D01*
Y95272D01*
X366552Y94875D01*
X353320Y108107D01*
Y143748D01*
X354328Y144422D01*
X355272Y145834D01*
X355604Y147500D01*
X355272Y149166D01*
X354328Y150578D01*
X352916Y151522D01*
X351250Y151854D01*
X349584Y151522D01*
X348172Y150578D01*
X347228Y149166D01*
X346896Y147500D01*
X347228Y145834D01*
X348172Y144422D01*
X349180Y143748D01*
Y107250D01*
X349338Y106458D01*
X349786Y105787D01*
X363625Y91948D01*
X363228Y89950D01*
X363633Y87913D01*
X364787Y86187D01*
X366513Y85033D01*
X368550Y84628D01*
Y82572D01*
X366513Y82167D01*
X364787Y81013D01*
X363633Y79287D01*
X363379Y78012D01*
X368550D01*
Y77250D01*
X369312D01*
Y72079D01*
X370587Y72333D01*
X372313Y73487D01*
X373467Y75213D01*
X373872Y77250D01*
X375928D01*
X376333Y75213D01*
X377487Y73487D01*
X379213Y72333D01*
X381250Y71928D01*
X383287Y72333D01*
X385013Y73487D01*
X386167Y75213D01*
X386572Y77250D01*
X386167Y79287D01*
X385013Y81013D01*
X383287Y82167D01*
X381250Y82572D01*
Y84628D01*
X383287Y85033D01*
X385013Y86187D01*
X386167Y87913D01*
X386572Y89950D01*
X386175Y91948D01*
X389004Y94776D01*
X389452Y95448D01*
X389610Y96240D01*
Y147498D01*
X389452Y148290D01*
X389004Y148961D01*
X386869Y151096D01*
X386993Y152360D01*
X387097Y152429D01*
X388041Y153841D01*
X388372Y155508D01*
X388041Y157174D01*
X387097Y158586D01*
X385685Y159530D01*
X384019Y159861D01*
D02*
G37*
G36*
X252870Y145370D02*
X249262D01*
Y141762D01*
X252870D01*
Y145370D01*
D02*
G37*
G36*
X171488Y139520D02*
X168980D01*
Y137012D01*
X171488D01*
Y139520D01*
D02*
G37*
G36*
X252870Y140238D02*
X249262D01*
Y136630D01*
X252870D01*
Y140238D01*
D02*
G37*
G36*
X171488Y135488D02*
X168980D01*
Y132980D01*
X171488D01*
Y135488D01*
D02*
G37*
G36*
X252500Y159354D02*
X250834Y159022D01*
X249422Y158078D01*
X248478Y156666D01*
X248146Y155000D01*
X248478Y153334D01*
X249422Y151922D01*
X250834Y150978D01*
X252500Y150646D01*
X253690Y150883D01*
X266630Y137943D01*
Y132980D01*
X273360D01*
X274370Y132980D01*
X275640Y132980D01*
X282370D01*
Y134930D01*
X283730D01*
Y131730D01*
X296270D01*
Y141460D01*
X296270Y142270D01*
X296270Y143540D01*
Y153270D01*
X283730D01*
Y150070D01*
X282370D01*
Y152020D01*
X275640D01*
X274630Y152020D01*
X273360Y152020D01*
X267804D01*
X266762Y153290D01*
X266854Y153750D01*
X266522Y155416D01*
X265578Y156828D01*
X264166Y157772D01*
X262500Y158104D01*
X260834Y157772D01*
X259422Y156828D01*
X258478Y155416D01*
X258414Y155094D01*
X257009Y154542D01*
X256905Y154617D01*
X256813Y154797D01*
X256854Y155000D01*
X256522Y156666D01*
X255578Y158078D01*
X254166Y159022D01*
X252500Y159354D01*
D02*
G37*
G36*
X374900Y121717D02*
X372463Y121233D01*
X370398Y119852D01*
X369017Y117787D01*
X368533Y115350D01*
X369017Y112913D01*
X370398Y110848D01*
X372463Y109467D01*
X374900Y108983D01*
X377337Y109467D01*
X379402Y110848D01*
X380783Y112913D01*
X381267Y115350D01*
X380783Y117787D01*
X379402Y119852D01*
X377337Y121233D01*
X374900Y121717D01*
D02*
G37*
G36*
X113520Y107020D02*
X111262D01*
Y104712D01*
X113520D01*
Y107020D01*
D02*
G37*
G36*
X109738D02*
X107480D01*
Y104712D01*
X109738D01*
Y107020D01*
D02*
G37*
G36*
X290270Y106970D02*
X288012D01*
Y104662D01*
X290270D01*
Y106970D01*
D02*
G37*
G36*
X286488D02*
X284230D01*
Y104662D01*
X286488D01*
Y106970D01*
D02*
G37*
G36*
X226380Y104620D02*
X225370D01*
X225110Y104620D01*
X221762D01*
Y100250D01*
Y95880D01*
X225110D01*
X225370Y95880D01*
X226380D01*
X226640Y95880D01*
X229988D01*
Y100250D01*
Y104620D01*
X226640D01*
X226380Y104620D01*
D02*
G37*
G36*
X113520Y103188D02*
X111262D01*
Y100880D01*
X113520D01*
Y103188D01*
D02*
G37*
G36*
X109738D02*
X107480D01*
Y100880D01*
X109738D01*
Y103188D01*
D02*
G37*
G36*
X290270Y103138D02*
X288012D01*
Y100830D01*
X290270D01*
Y103138D01*
D02*
G37*
G36*
X286488D02*
X284230D01*
Y100830D01*
X286488D01*
Y103138D01*
D02*
G37*
G36*
X308270Y105270D02*
X297730D01*
Y97570D01*
X290270D01*
Y98570D01*
X284230D01*
Y92430D01*
X284230Y92430D01*
X283834Y91324D01*
X283228Y90416D01*
X282896Y88750D01*
X283228Y87084D01*
X284172Y85672D01*
X285584Y84728D01*
X287250Y84396D01*
X288916Y84728D01*
X290329Y85672D01*
X291272Y87084D01*
X291604Y88750D01*
X291272Y90416D01*
X290666Y91324D01*
X290366Y92160D01*
X290947Y93430D01*
X297730D01*
Y85730D01*
X308270D01*
Y105270D01*
D02*
G37*
G36*
X342270D02*
X337762D01*
Y96262D01*
X342270D01*
Y105270D01*
D02*
G37*
G36*
X336238D02*
X331730D01*
Y96262D01*
X336238D01*
Y105270D01*
D02*
G37*
G36*
X68270D02*
X63762D01*
Y96262D01*
X68270D01*
Y105270D01*
D02*
G37*
G36*
X62238D02*
X57730D01*
Y96262D01*
X62238D01*
Y105270D01*
D02*
G37*
G36*
X342270Y94738D02*
X337762D01*
Y85730D01*
X342270D01*
Y94738D01*
D02*
G37*
G36*
X336238D02*
X331730D01*
Y85730D01*
X336238D01*
Y94738D01*
D02*
G37*
G36*
X68270Y94738D02*
X63762D01*
Y85730D01*
X68270D01*
Y94738D01*
D02*
G37*
G36*
X62238D02*
X57730D01*
Y85730D01*
X62238D01*
Y94738D01*
D02*
G37*
G36*
X367788Y76488D02*
X363379D01*
X363633Y75213D01*
X364787Y73487D01*
X366513Y72333D01*
X367788Y72079D01*
Y76488D01*
D02*
G37*
G36*
X385060Y70917D02*
X382623Y70433D01*
X380558Y69052D01*
X379177Y66987D01*
X378693Y64550D01*
X379177Y62113D01*
X380558Y60048D01*
X382623Y58667D01*
X385060Y58183D01*
X387497Y58667D01*
X389562Y60048D01*
X390943Y62113D01*
X391427Y64550D01*
X390943Y66987D01*
X389562Y69052D01*
X387497Y70433D01*
X385060Y70917D01*
D02*
G37*
G36*
X364740D02*
X362303Y70433D01*
X360238Y69052D01*
X358857Y66987D01*
X358373Y64550D01*
X358857Y62113D01*
X360238Y60048D01*
X362303Y58667D01*
X364740Y58183D01*
X367177Y58667D01*
X369242Y60048D01*
X370623Y62113D01*
X371107Y64550D01*
X370623Y66987D01*
X369242Y69052D01*
X367177Y70433D01*
X364740Y70917D01*
D02*
G37*
G36*
X111862Y51202D02*
Y42462D01*
X120602D01*
X120375Y44185D01*
X119416Y46501D01*
X117890Y48490D01*
X115901Y50016D01*
X113585Y50975D01*
X111862Y51202D01*
D02*
G37*
G36*
X110338D02*
X108615Y50975D01*
X106299Y50016D01*
X104310Y48490D01*
X102784Y46501D01*
X101825Y44185D01*
X101598Y42462D01*
X110338D01*
Y51202D01*
D02*
G37*
G36*
X120602Y40938D02*
X111862D01*
Y32198D01*
X113585Y32425D01*
X115901Y33384D01*
X117890Y34910D01*
X119416Y36899D01*
X120375Y39215D01*
X120602Y40938D01*
D02*
G37*
G36*
X110338D02*
X101598D01*
X101825Y39215D01*
X102784Y36899D01*
X104310Y34910D01*
X106299Y33384D01*
X108615Y32425D01*
X110338Y32198D01*
Y40938D01*
D02*
G37*
G36*
X298420Y51220D02*
X279380D01*
Y32180D01*
X298420D01*
Y51220D01*
D02*
G37*
G36*
X263500Y51302D02*
X261015Y50975D01*
X258699Y50016D01*
X256710Y48490D01*
X255184Y46501D01*
X254225Y44185D01*
X253898Y41700D01*
X254225Y39215D01*
X255184Y36899D01*
X256710Y34910D01*
X258699Y33384D01*
X261015Y32425D01*
X263500Y32098D01*
X265985Y32425D01*
X268301Y33384D01*
X270290Y34910D01*
X271816Y36899D01*
X272775Y39215D01*
X273102Y41700D01*
X272775Y44185D01*
X271816Y46501D01*
X270290Y48490D01*
X268301Y50016D01*
X265985Y50975D01*
X263500Y51302D01*
D02*
G37*
G36*
X238100D02*
X235615Y50975D01*
X233299Y50016D01*
X231310Y48490D01*
X229784Y46501D01*
X228825Y44185D01*
X228498Y41700D01*
X228825Y39215D01*
X229784Y36899D01*
X231310Y34910D01*
X233299Y33384D01*
X235615Y32425D01*
X238100Y32098D01*
X240585Y32425D01*
X242901Y33384D01*
X244890Y34910D01*
X246416Y36899D01*
X247375Y39215D01*
X247702Y41700D01*
X247375Y44185D01*
X246416Y46501D01*
X244890Y48490D01*
X242901Y50016D01*
X240585Y50975D01*
X238100Y51302D01*
D02*
G37*
G36*
X161900D02*
X159415Y50975D01*
X157099Y50016D01*
X155110Y48490D01*
X153584Y46501D01*
X152625Y44185D01*
X152298Y41700D01*
X152625Y39215D01*
X153584Y36899D01*
X155110Y34910D01*
X157099Y33384D01*
X159415Y32425D01*
X161900Y32098D01*
X164385Y32425D01*
X166701Y33384D01*
X168690Y34910D01*
X170216Y36899D01*
X171175Y39215D01*
X171502Y41700D01*
X171175Y44185D01*
X170216Y46501D01*
X168690Y48490D01*
X166701Y50016D01*
X164385Y50975D01*
X161900Y51302D01*
D02*
G37*
G36*
X136500D02*
X134015Y50975D01*
X131699Y50016D01*
X129710Y48490D01*
X128184Y46501D01*
X127225Y44185D01*
X126898Y41700D01*
X127225Y39215D01*
X128184Y36899D01*
X129710Y34910D01*
X131699Y33384D01*
X134015Y32425D01*
X136500Y32098D01*
X138985Y32425D01*
X141301Y33384D01*
X143290Y34910D01*
X144816Y36899D01*
X145775Y39215D01*
X146102Y41700D01*
X145775Y44185D01*
X144816Y46501D01*
X143290Y48490D01*
X141301Y50016D01*
X138985Y50975D01*
X136500Y51302D01*
D02*
G37*
G36*
X375762Y43283D02*
Y25762D01*
X393283D01*
X393006Y28582D01*
X391961Y32025D01*
X390264Y35199D01*
X387981Y37981D01*
X385199Y40264D01*
X382025Y41961D01*
X378582Y43006D01*
X375762Y43283D01*
D02*
G37*
G36*
X374238D02*
X371418Y43006D01*
X367975Y41961D01*
X364801Y40264D01*
X362019Y37981D01*
X359736Y35199D01*
X358039Y32025D01*
X356994Y28582D01*
X356717Y25762D01*
X374238D01*
Y43283D01*
D02*
G37*
G36*
X25762D02*
Y25762D01*
X43283D01*
X43006Y28582D01*
X41961Y32025D01*
X40264Y35199D01*
X37981Y37981D01*
X35199Y40264D01*
X32025Y41961D01*
X28582Y43006D01*
X25762Y43283D01*
D02*
G37*
G36*
X24238D02*
X21418Y43006D01*
X17975Y41961D01*
X14801Y40264D01*
X12019Y37981D01*
X9736Y35199D01*
X8039Y32025D01*
X6994Y28582D01*
X6717Y25762D01*
X24238D01*
Y43283D01*
D02*
G37*
G36*
X393283Y24238D02*
X375762D01*
Y6717D01*
X378582Y6994D01*
X382025Y8039D01*
X385199Y9736D01*
X387981Y12019D01*
X390264Y14801D01*
X391961Y17975D01*
X393006Y21418D01*
X393283Y24238D01*
D02*
G37*
G36*
X374238D02*
X356717D01*
X356994Y21418D01*
X358039Y17975D01*
X359736Y14801D01*
X362019Y12019D01*
X364801Y9736D01*
X367975Y8039D01*
X371418Y6994D01*
X374238Y6717D01*
Y24238D01*
D02*
G37*
G36*
X43283D02*
X25762D01*
Y6717D01*
X28582Y6994D01*
X32025Y8039D01*
X35199Y9736D01*
X37981Y12019D01*
X40264Y14801D01*
X41961Y17975D01*
X43006Y21418D01*
X43283Y24238D01*
D02*
G37*
G36*
X24238D02*
X6717D01*
X6994Y21418D01*
X8039Y17975D01*
X9736Y14801D01*
X12019Y12019D01*
X14801Y9736D01*
X17975Y8039D01*
X21418Y6994D01*
X24238Y6717D01*
Y24238D01*
D02*
G37*
G36*
X216020Y184488D02*
X213512D01*
Y181980D01*
X216020D01*
Y184488D01*
D02*
G37*
G36*
X211988D02*
X209480D01*
Y181980D01*
X211988D01*
Y184488D01*
D02*
G37*
G36*
X203270Y184488D02*
X200762D01*
Y181980D01*
X203270D01*
Y184488D01*
D02*
G37*
G36*
X199238D02*
X196730D01*
Y181980D01*
X199238D01*
Y184488D01*
D02*
G37*
G36*
X190520D02*
X188012D01*
Y181980D01*
X190520D01*
Y184488D01*
D02*
G37*
G36*
X186488D02*
X183980D01*
Y181980D01*
X186488D01*
Y184488D01*
D02*
G37*
G36*
X216020Y171520D02*
X209480D01*
Y164980D01*
X216020D01*
Y171520D01*
D02*
G37*
G36*
X203270Y150488D02*
X200762D01*
Y147980D01*
X203270D01*
Y150488D01*
D02*
G37*
G36*
X199238D02*
X196730D01*
Y147980D01*
X199238D01*
Y150488D01*
D02*
G37*
%LPD*%
D10*
X241330Y135606D02*
X244250Y132686D01*
Y132500D02*
Y132686D01*
X241330Y135606D02*
Y139170D01*
X239500Y141000D02*
X241330Y139170D01*
X221250Y142750D02*
X223000Y141000D01*
X239500D01*
X305000Y137000D02*
X315500D01*
X368350Y102650D02*
X368550D01*
X360250Y110750D02*
X368350Y102650D01*
D11*
X231500Y136250D02*
X235250Y132500D01*
X227750Y136250D02*
X227750Y136250D01*
X227750Y136250D02*
X227750Y136250D01*
X227750Y136250D02*
Y136250D01*
X227750Y136250D02*
X231500D01*
X227750Y214000D02*
X232000D01*
X232000Y214000D01*
D15*
X248500Y141000D02*
D03*
X239500D02*
D03*
X221000Y100250D02*
D03*
X212000D02*
D03*
X230750D02*
D03*
X239750D02*
D03*
D16*
X287250Y95500D02*
D03*
Y103900D02*
D03*
X110500Y103950D02*
D03*
Y95550D02*
D03*
D17*
X270500Y148000D02*
D03*
X278500D02*
D03*
Y137000D02*
D03*
X270500D02*
D03*
X316500Y148000D02*
D03*
X324500D02*
D03*
D18*
X337000Y95500D02*
D03*
X303000D02*
D03*
X97000D02*
D03*
X63000D02*
D03*
D19*
X212750Y151250D02*
D03*
X187250D02*
D03*
Y185250D02*
D03*
X227750Y201750D02*
D03*
X221250Y185250D02*
D03*
Y176750D02*
D03*
Y168250D02*
D03*
X212750D02*
D03*
X200000Y151250D02*
D03*
X187250Y168250D02*
D03*
X227750Y214000D02*
D03*
Y189500D02*
D03*
Y181000D02*
D03*
Y172500D02*
D03*
Y164000D02*
D03*
X221250Y151250D02*
D03*
X227750Y136250D02*
D03*
X217000D02*
D03*
X208500D02*
D03*
X200000D02*
D03*
X191500D02*
D03*
X221250Y159750D02*
D03*
X227750Y155500D02*
D03*
Y147000D02*
D03*
X221250Y142750D02*
D03*
X212750D02*
D03*
X204250D02*
D03*
X195750D02*
D03*
X187250D02*
D03*
X183000Y136250D02*
D03*
X172250Y214000D02*
D03*
Y201750D02*
D03*
Y189500D02*
D03*
Y181000D02*
D03*
Y172500D02*
D03*
Y164000D02*
D03*
Y155500D02*
D03*
Y147000D02*
D03*
Y136250D02*
D03*
X178750Y185250D02*
D03*
Y176750D02*
D03*
Y168250D02*
D03*
Y159750D02*
D03*
Y151250D02*
D03*
Y142750D02*
D03*
X212750Y185250D02*
D03*
X200000D02*
D03*
D20*
X238750Y118750D02*
D03*
X212750D02*
D03*
D21*
X305000Y137000D02*
D03*
X290000D02*
D03*
Y148000D02*
D03*
X305000D02*
D03*
D34*
X381250Y77250D02*
D03*
X368550D02*
D03*
X381250Y89950D02*
D03*
X368550D02*
D03*
X381250Y102650D02*
D03*
X368550D02*
D03*
D35*
X305000Y148000D02*
X316500D01*
X316500Y148000D01*
X278500Y137000D02*
X290000D01*
X278500Y148000D02*
X290000D01*
X290000Y148000D01*
X265000Y148000D02*
X270500D01*
X262500Y153750D02*
X263088Y153161D01*
Y149911D02*
Y153161D01*
Y149911D02*
X265000Y148000D01*
X270500Y137000D02*
Y137150D01*
X268660Y138990D02*
X270500Y137150D01*
X268510Y138990D02*
X268660D01*
X252500Y155000D02*
X268510Y138990D01*
X252500Y155000D02*
X252500D01*
X315250Y162750D02*
X324500Y153500D01*
X245000Y162750D02*
X315250D01*
X324500Y148000D02*
Y153500D01*
X387540Y96240D02*
Y147498D01*
X384019Y151019D02*
X387540Y147498D01*
X384019Y151019D02*
Y155508D01*
X381250Y89950D02*
X387540Y96240D01*
X378750Y147500D02*
X379000D01*
X384750Y106701D02*
Y141750D01*
X379000Y147500D02*
X384750Y141750D01*
X381250Y103201D02*
X384750Y106701D01*
X381250Y102650D02*
Y103201D01*
X193707Y175587D02*
Y176150D01*
X287250Y88750D02*
Y95500D01*
X227750Y147000D02*
X230250Y149500D01*
X238250D01*
X193750Y157750D02*
X201000D01*
X183227Y159750D02*
X185457Y157520D01*
X160000Y151250D02*
X178750D01*
X188902Y152902D02*
X193750Y157750D01*
X178750Y159750D02*
X183227D01*
X190620Y172500D02*
X193707Y175587D01*
X183000Y172500D02*
X190620D01*
X178750Y168250D02*
X183000Y172500D01*
X158750Y181000D02*
X172250D01*
X160000Y172500D02*
X172250D01*
X187250Y151250D02*
X188720Y152720D01*
X188902D02*
Y152902D01*
X188720Y152720D02*
X188902D01*
X212750Y101000D02*
Y118750D01*
X212000Y100250D02*
X212750Y101000D01*
X212750Y118750D02*
Y142750D01*
X212750Y118750D02*
X212750Y118750D01*
X351250Y107250D02*
X368550Y89950D01*
X351250Y107250D02*
Y147500D01*
X160000Y172500D02*
X160000Y172500D01*
X155000Y187500D02*
X160000D01*
X162250Y185250D02*
X178750D01*
X160000Y187500D02*
X162250Y185250D01*
X287250Y95500D02*
X303000D01*
X195750Y133505D02*
Y142750D01*
X189250Y127005D02*
X195750Y133505D01*
X189250Y119000D02*
Y127005D01*
X200000Y131970D02*
Y136250D01*
X195000Y126970D02*
X200000Y131970D01*
X195000Y125500D02*
Y126970D01*
X202500Y68500D02*
Y130175D01*
X187300Y53300D02*
X202500Y68500D01*
Y130175D02*
X204250Y131925D01*
X110500Y95550D02*
X149050D01*
X178750Y125250D02*
Y142750D01*
X149050Y95550D02*
X178750Y125250D01*
X204250Y131925D02*
Y142750D01*
X97000Y95500D02*
X97050Y95550D01*
X110500D01*
X212700Y41700D02*
Y42271D01*
X205540Y49432D02*
X212700Y42271D01*
X187300Y41700D02*
Y53300D01*
X205540Y49432D02*
Y128915D01*
X208500Y131875D01*
Y136250D01*
D36*
X212750Y151250D02*
Y157500D01*
X212750Y157500D02*
X212750Y157500D01*
X238750Y101250D02*
Y118750D01*
Y101250D02*
X239750Y100250D01*
X217000Y136250D02*
X227512Y125738D01*
X234512D01*
X238750Y121500D01*
Y118750D02*
Y121500D01*
D37*
X364740Y64550D02*
D03*
X385060D02*
D03*
X374900Y115350D02*
D03*
D38*
X375000Y25000D02*
D03*
X25000D02*
D03*
D39*
X111100Y41700D02*
D03*
X136500D02*
D03*
X238100D02*
D03*
X263500D02*
D03*
X212700D02*
D03*
X187300D02*
D03*
X161900D02*
D03*
D40*
X288900D02*
D03*
D41*
X380000Y212500D02*
D03*
Y197500D02*
D03*
Y182500D02*
D03*
Y167500D02*
D03*
Y47500D02*
D03*
X365000Y212500D02*
D03*
Y197500D02*
D03*
Y182500D02*
D03*
Y152500D02*
D03*
Y137500D02*
D03*
Y122500D02*
D03*
Y47500D02*
D03*
X350000Y212500D02*
D03*
Y197500D02*
D03*
Y182500D02*
D03*
Y92500D02*
D03*
Y77500D02*
D03*
Y62500D02*
D03*
Y47500D02*
D03*
Y32500D02*
D03*
X335000Y212500D02*
D03*
Y197500D02*
D03*
Y182500D02*
D03*
Y152500D02*
D03*
Y137500D02*
D03*
Y122500D02*
D03*
Y77500D02*
D03*
Y62500D02*
D03*
Y47500D02*
D03*
Y32500D02*
D03*
X320000Y212500D02*
D03*
Y197500D02*
D03*
Y182500D02*
D03*
Y122500D02*
D03*
Y107500D02*
D03*
Y92500D02*
D03*
Y77500D02*
D03*
Y62500D02*
D03*
Y47500D02*
D03*
Y32500D02*
D03*
X305000Y212500D02*
D03*
Y197500D02*
D03*
Y182500D02*
D03*
Y122500D02*
D03*
Y77500D02*
D03*
Y62500D02*
D03*
Y47500D02*
D03*
Y32500D02*
D03*
X290000Y212500D02*
D03*
Y197500D02*
D03*
Y182500D02*
D03*
Y122500D02*
D03*
Y77500D02*
D03*
Y62500D02*
D03*
X275000Y212500D02*
D03*
Y197500D02*
D03*
Y182500D02*
D03*
Y107500D02*
D03*
Y92500D02*
D03*
Y77500D02*
D03*
Y62500D02*
D03*
Y47500D02*
D03*
Y32500D02*
D03*
X260000Y212500D02*
D03*
Y197500D02*
D03*
Y182500D02*
D03*
Y122500D02*
D03*
Y107500D02*
D03*
Y92500D02*
D03*
Y77500D02*
D03*
Y62500D02*
D03*
X245000Y212500D02*
D03*
Y197500D02*
D03*
Y182500D02*
D03*
Y92500D02*
D03*
Y77500D02*
D03*
X230000Y92500D02*
D03*
Y62500D02*
D03*
X215000Y77500D02*
D03*
Y62500D02*
D03*
X200000Y47500D02*
D03*
Y32500D02*
D03*
X185000Y107500D02*
D03*
Y92500D02*
D03*
Y77500D02*
D03*
Y62500D02*
D03*
X170000Y107500D02*
D03*
Y92500D02*
D03*
Y62500D02*
D03*
X155000Y212500D02*
D03*
Y197500D02*
D03*
Y137500D02*
D03*
Y122500D02*
D03*
Y92500D02*
D03*
Y77500D02*
D03*
X140000Y212500D02*
D03*
Y197500D02*
D03*
Y182500D02*
D03*
Y167500D02*
D03*
Y152500D02*
D03*
Y137500D02*
D03*
Y122500D02*
D03*
Y107500D02*
D03*
Y77500D02*
D03*
Y62500D02*
D03*
X125000Y212500D02*
D03*
Y197500D02*
D03*
Y182500D02*
D03*
Y167500D02*
D03*
Y152500D02*
D03*
Y137500D02*
D03*
Y122500D02*
D03*
Y107500D02*
D03*
Y77500D02*
D03*
Y62500D02*
D03*
Y47500D02*
D03*
Y32500D02*
D03*
X110000Y212500D02*
D03*
Y197500D02*
D03*
Y182500D02*
D03*
Y167500D02*
D03*
Y152500D02*
D03*
Y137500D02*
D03*
Y122500D02*
D03*
Y77500D02*
D03*
Y62500D02*
D03*
X95000Y212500D02*
D03*
Y197500D02*
D03*
Y182500D02*
D03*
Y167500D02*
D03*
Y152500D02*
D03*
Y137500D02*
D03*
Y122500D02*
D03*
Y77500D02*
D03*
Y62500D02*
D03*
Y47500D02*
D03*
Y32500D02*
D03*
X80000Y212500D02*
D03*
Y197500D02*
D03*
Y182500D02*
D03*
Y167500D02*
D03*
Y152500D02*
D03*
Y137500D02*
D03*
Y122500D02*
D03*
Y107500D02*
D03*
Y92500D02*
D03*
Y77500D02*
D03*
Y62500D02*
D03*
Y47500D02*
D03*
Y32500D02*
D03*
X65000Y212500D02*
D03*
Y197500D02*
D03*
Y182500D02*
D03*
Y167500D02*
D03*
Y152500D02*
D03*
Y137500D02*
D03*
Y122500D02*
D03*
Y77500D02*
D03*
Y62500D02*
D03*
Y47500D02*
D03*
Y32500D02*
D03*
X50000Y212500D02*
D03*
Y197500D02*
D03*
Y182500D02*
D03*
Y167500D02*
D03*
Y152500D02*
D03*
Y137500D02*
D03*
Y122500D02*
D03*
Y107500D02*
D03*
Y92500D02*
D03*
Y77500D02*
D03*
Y62500D02*
D03*
Y47500D02*
D03*
Y32500D02*
D03*
X35000Y212500D02*
D03*
Y197500D02*
D03*
Y182500D02*
D03*
Y167500D02*
D03*
Y152500D02*
D03*
Y137500D02*
D03*
Y122500D02*
D03*
Y107500D02*
D03*
Y92500D02*
D03*
Y77500D02*
D03*
Y62500D02*
D03*
Y47500D02*
D03*
X20000Y212500D02*
D03*
Y197500D02*
D03*
Y182500D02*
D03*
Y167500D02*
D03*
Y152500D02*
D03*
Y137500D02*
D03*
Y122500D02*
D03*
Y107500D02*
D03*
Y92500D02*
D03*
Y77500D02*
D03*
Y62500D02*
D03*
Y47500D02*
D03*
X244250Y132500D02*
D03*
X235250D02*
D03*
X262500Y153750D02*
D03*
X252500Y155000D02*
D03*
X245000Y162750D02*
D03*
X235000Y212500D02*
D03*
X7500Y62500D02*
D03*
Y212500D02*
D03*
Y197500D02*
D03*
Y182500D02*
D03*
Y167500D02*
D03*
Y92500D02*
D03*
Y47500D02*
D03*
Y77500D02*
D03*
Y152500D02*
D03*
X7570Y122500D02*
D03*
Y137500D02*
D03*
Y107500D02*
D03*
X305250Y17500D02*
D03*
X290000D02*
D03*
X275000D02*
D03*
X260000D02*
D03*
X245000D02*
D03*
X230000D02*
D03*
X170000D02*
D03*
X155000D02*
D03*
X140000D02*
D03*
X125000D02*
D03*
X110000D02*
D03*
X95000D02*
D03*
X392570Y107500D02*
D03*
Y137500D02*
D03*
Y122500D02*
D03*
X384019Y155508D02*
D03*
X392500Y152500D02*
D03*
X378750Y147500D02*
D03*
X392500Y77500D02*
D03*
X193707Y176150D02*
D03*
X287250Y88750D02*
D03*
X238250Y149500D02*
D03*
X212750Y179860D02*
D03*
X201000Y157750D02*
D03*
X185457Y157520D02*
D03*
X199991Y179856D02*
D03*
X187250Y179750D02*
D03*
X212750Y157500D02*
D03*
X193932Y150818D02*
D03*
X160000Y151250D02*
D03*
X171676Y129750D02*
D03*
X206342Y151158D02*
D03*
X351250Y147500D02*
D03*
X160000Y172500D02*
D03*
X158750Y181000D02*
D03*
X166000Y190500D02*
D03*
X155000Y187500D02*
D03*
X195000Y125500D02*
D03*
X225000Y112500D02*
D03*
X189250Y119000D02*
D03*
X165750Y136250D02*
D03*
X171750Y195750D02*
D03*
Y207750D02*
D03*
X227750Y195750D02*
D03*
Y207750D02*
D03*
X235000Y189500D02*
D03*
X315500Y137000D02*
D03*
X360250Y110750D02*
D03*
X80000Y17500D02*
D03*
X65000D02*
D03*
X50000D02*
D03*
Y7500D02*
D03*
X65000D02*
D03*
X80000D02*
D03*
X95000D02*
D03*
X110000D02*
D03*
X125000D02*
D03*
X140000D02*
D03*
X155000D02*
D03*
X170000D02*
D03*
X230000D02*
D03*
X245000D02*
D03*
X260000D02*
D03*
X275000D02*
D03*
X290000D02*
D03*
X305000D02*
D03*
X320000D02*
D03*
Y17500D02*
D03*
X335000D02*
D03*
Y7500D02*
D03*
X350000D02*
D03*
Y17500D02*
D03*
X392500Y47500D02*
D03*
Y92500D02*
D03*
Y167500D02*
D03*
Y182500D02*
D03*
Y197500D02*
D03*
Y212500D02*
D03*
X166000Y201500D02*
D03*
Y212500D02*
D03*
X235000Y201750D02*
D03*
X375000Y58250D02*
D03*
M02*
