G04*
G04 #@! TF.GenerationSoftware,Altium Limited,Altium Designer,21.6.4 (81)*
G04*
G04 Layer_Color=128*
%FSLAX44Y44*%
%MOMM*%
G71*
G04*
G04 #@! TF.SameCoordinates,6379334F-7AA2-413A-8348-2233F6679C20*
G04*
G04*
G04 #@! TF.FilePolarity,Positive*
G04*
G01*
G75*
%ADD44C,0.0508*%
D44*
X359765Y64550D02*
X369715D01*
X364740Y59575D02*
Y69525D01*
X380085Y64550D02*
X390035D01*
X385060Y59575D02*
Y69525D01*
X369925Y115350D02*
X379875D01*
X374900Y110375D02*
Y120325D01*
X366000Y25000D02*
X384000D01*
X375000Y16000D02*
Y34000D01*
X16000Y25000D02*
X34000D01*
X25000Y16000D02*
Y34000D01*
X105600Y41700D02*
X116600D01*
X111100Y36200D02*
Y47200D01*
X131000Y41700D02*
X142000D01*
X136500Y36200D02*
Y47200D01*
X232600Y41700D02*
X243600D01*
X238100Y36200D02*
Y47200D01*
X283400Y41700D02*
X294400D01*
X288900Y36200D02*
Y47200D01*
X258000Y41700D02*
X269000D01*
X263500Y36200D02*
Y47200D01*
X207200Y41700D02*
X218200D01*
X212700Y36200D02*
Y47200D01*
X181800Y41700D02*
X192800D01*
X187300Y36200D02*
Y47200D01*
X156400Y41700D02*
X167400D01*
X161900Y36200D02*
Y47200D01*
X378500Y212500D02*
X381500D01*
X380000Y211000D02*
Y214000D01*
X378500Y197500D02*
X381500D01*
X380000Y196000D02*
Y199000D01*
X378500Y182500D02*
X381500D01*
X380000Y181000D02*
Y184000D01*
X378500Y167500D02*
X381500D01*
X380000Y166000D02*
Y169000D01*
X378500Y47500D02*
X381500D01*
X380000Y46000D02*
Y49000D01*
X363500Y212500D02*
X366500D01*
X365000Y211000D02*
Y214000D01*
X363500Y197500D02*
X366500D01*
X365000Y196000D02*
Y199000D01*
X363500Y182500D02*
X366500D01*
X365000Y181000D02*
Y184000D01*
X363500Y152500D02*
X366500D01*
X365000Y151000D02*
Y154000D01*
X363500Y137500D02*
X366500D01*
X365000Y136000D02*
Y139000D01*
X363500Y122500D02*
X366500D01*
X365000Y121000D02*
Y124000D01*
X363500Y47500D02*
X366500D01*
X365000Y46000D02*
Y49000D01*
X348500Y212500D02*
X351500D01*
X350000Y211000D02*
Y214000D01*
X348500Y197500D02*
X351500D01*
X350000Y196000D02*
Y199000D01*
X348500Y182500D02*
X351500D01*
X350000Y181000D02*
Y184000D01*
X348500Y92500D02*
X351500D01*
X350000Y91000D02*
Y94000D01*
X348500Y77500D02*
X351500D01*
X350000Y76000D02*
Y79000D01*
X348500Y62500D02*
X351500D01*
X350000Y61000D02*
Y64000D01*
X348500Y47500D02*
X351500D01*
X350000Y46000D02*
Y49000D01*
X348500Y32500D02*
X351500D01*
X350000Y31000D02*
Y34000D01*
X333500Y212500D02*
X336500D01*
X335000Y211000D02*
Y214000D01*
X333500Y197500D02*
X336500D01*
X335000Y196000D02*
Y199000D01*
X333500Y182500D02*
X336500D01*
X335000Y181000D02*
Y184000D01*
X333500Y152500D02*
X336500D01*
X335000Y151000D02*
Y154000D01*
X333500Y137500D02*
X336500D01*
X335000Y136000D02*
Y139000D01*
X333500Y122500D02*
X336500D01*
X335000Y121000D02*
Y124000D01*
X333500Y77500D02*
X336500D01*
X335000Y76000D02*
Y79000D01*
X333500Y62500D02*
X336500D01*
X335000Y61000D02*
Y64000D01*
X333500Y47500D02*
X336500D01*
X335000Y46000D02*
Y49000D01*
X333500Y32500D02*
X336500D01*
X335000Y31000D02*
Y34000D01*
X318500Y212500D02*
X321500D01*
X320000Y211000D02*
Y214000D01*
X318500Y197500D02*
X321500D01*
X320000Y196000D02*
Y199000D01*
X318500Y182500D02*
X321500D01*
X320000Y181000D02*
Y184000D01*
X318500Y122500D02*
X321500D01*
X320000Y121000D02*
Y124000D01*
X318500Y107500D02*
X321500D01*
X320000Y106000D02*
Y109000D01*
X318500Y92500D02*
X321500D01*
X320000Y91000D02*
Y94000D01*
X318500Y77500D02*
X321500D01*
X320000Y76000D02*
Y79000D01*
X318500Y62500D02*
X321500D01*
X320000Y61000D02*
Y64000D01*
X318500Y47500D02*
X321500D01*
X320000Y46000D02*
Y49000D01*
X318500Y32500D02*
X321500D01*
X320000Y31000D02*
Y34000D01*
X303500Y212500D02*
X306500D01*
X305000Y211000D02*
Y214000D01*
X303500Y197500D02*
X306500D01*
X305000Y196000D02*
Y199000D01*
X303500Y182500D02*
X306500D01*
X305000Y181000D02*
Y184000D01*
X303500Y122500D02*
X306500D01*
X305000Y121000D02*
Y124000D01*
X303500Y77500D02*
X306500D01*
X305000Y76000D02*
Y79000D01*
X303500Y62500D02*
X306500D01*
X305000Y61000D02*
Y64000D01*
X303500Y47500D02*
X306500D01*
X305000Y46000D02*
Y49000D01*
X303500Y32500D02*
X306500D01*
X305000Y31000D02*
Y34000D01*
X288500Y212500D02*
X291500D01*
X290000Y211000D02*
Y214000D01*
X288500Y197500D02*
X291500D01*
X290000Y196000D02*
Y199000D01*
X288500Y182500D02*
X291500D01*
X290000Y181000D02*
Y184000D01*
X288500Y122500D02*
X291500D01*
X290000Y121000D02*
Y124000D01*
X288500Y77500D02*
X291500D01*
X290000Y76000D02*
Y79000D01*
X288500Y62500D02*
X291500D01*
X290000Y61000D02*
Y64000D01*
X273500Y212500D02*
X276500D01*
X275000Y211000D02*
Y214000D01*
X273500Y197500D02*
X276500D01*
X275000Y196000D02*
Y199000D01*
X273500Y182500D02*
X276500D01*
X275000Y181000D02*
Y184000D01*
X273500Y107500D02*
X276500D01*
X275000Y106000D02*
Y109000D01*
X273500Y92500D02*
X276500D01*
X275000Y91000D02*
Y94000D01*
X273500Y77500D02*
X276500D01*
X275000Y76000D02*
Y79000D01*
X273500Y62500D02*
X276500D01*
X275000Y61000D02*
Y64000D01*
X273500Y47500D02*
X276500D01*
X275000Y46000D02*
Y49000D01*
X273500Y32500D02*
X276500D01*
X275000Y31000D02*
Y34000D01*
X258500Y212500D02*
X261500D01*
X260000Y211000D02*
Y214000D01*
X258500Y197500D02*
X261500D01*
X260000Y196000D02*
Y199000D01*
X258500Y182500D02*
X261500D01*
X260000Y181000D02*
Y184000D01*
X258500Y122500D02*
X261500D01*
X260000Y121000D02*
Y124000D01*
X258500Y107500D02*
X261500D01*
X260000Y106000D02*
Y109000D01*
X258500Y92500D02*
X261500D01*
X260000Y91000D02*
Y94000D01*
X258500Y77500D02*
X261500D01*
X260000Y76000D02*
Y79000D01*
X258500Y62500D02*
X261500D01*
X260000Y61000D02*
Y64000D01*
X243500Y212500D02*
X246500D01*
X245000Y211000D02*
Y214000D01*
X243500Y197500D02*
X246500D01*
X245000Y196000D02*
Y199000D01*
X243500Y182500D02*
X246500D01*
X245000Y181000D02*
Y184000D01*
X243500Y92500D02*
X246500D01*
X245000Y91000D02*
Y94000D01*
X243500Y77500D02*
X246500D01*
X245000Y76000D02*
Y79000D01*
X228500Y92500D02*
X231500D01*
X230000Y91000D02*
Y94000D01*
X228500Y62500D02*
X231500D01*
X230000Y61000D02*
Y64000D01*
X213500Y77500D02*
X216500D01*
X215000Y76000D02*
Y79000D01*
X213500Y62500D02*
X216500D01*
X215000Y61000D02*
Y64000D01*
X198500Y47500D02*
X201500D01*
X200000Y46000D02*
Y49000D01*
X198500Y32500D02*
X201500D01*
X200000Y31000D02*
Y34000D01*
X183500Y107500D02*
X186500D01*
X185000Y106000D02*
Y109000D01*
X183500Y92500D02*
X186500D01*
X185000Y91000D02*
Y94000D01*
X183500Y77500D02*
X186500D01*
X185000Y76000D02*
Y79000D01*
X183500Y62500D02*
X186500D01*
X185000Y61000D02*
Y64000D01*
X168500Y107500D02*
X171500D01*
X170000Y106000D02*
Y109000D01*
X168500Y92500D02*
X171500D01*
X170000Y91000D02*
Y94000D01*
X168500Y62500D02*
X171500D01*
X170000Y61000D02*
Y64000D01*
X153500Y212500D02*
X156500D01*
X155000Y211000D02*
Y214000D01*
X153500Y197500D02*
X156500D01*
X155000Y196000D02*
Y199000D01*
X153500Y137500D02*
X156500D01*
X155000Y136000D02*
Y139000D01*
X153500Y122500D02*
X156500D01*
X155000Y121000D02*
Y124000D01*
X153500Y92500D02*
X156500D01*
X155000Y91000D02*
Y94000D01*
X153500Y77500D02*
X156500D01*
X155000Y76000D02*
Y79000D01*
X138500Y212500D02*
X141500D01*
X140000Y211000D02*
Y214000D01*
X138500Y197500D02*
X141500D01*
X140000Y196000D02*
Y199000D01*
X138500Y182500D02*
X141500D01*
X140000Y181000D02*
Y184000D01*
X138500Y167500D02*
X141500D01*
X140000Y166000D02*
Y169000D01*
X138500Y152500D02*
X141500D01*
X140000Y151000D02*
Y154000D01*
X138500Y137500D02*
X141500D01*
X140000Y136000D02*
Y139000D01*
X138500Y122500D02*
X141500D01*
X140000Y121000D02*
Y124000D01*
X138500Y107500D02*
X141500D01*
X140000Y106000D02*
Y109000D01*
X138500Y77500D02*
X141500D01*
X140000Y76000D02*
Y79000D01*
X138500Y62500D02*
X141500D01*
X140000Y61000D02*
Y64000D01*
X123500Y212500D02*
X126500D01*
X125000Y211000D02*
Y214000D01*
X123500Y197500D02*
X126500D01*
X125000Y196000D02*
Y199000D01*
X123500Y182500D02*
X126500D01*
X125000Y181000D02*
Y184000D01*
X123500Y167500D02*
X126500D01*
X125000Y166000D02*
Y169000D01*
X123500Y152500D02*
X126500D01*
X125000Y151000D02*
Y154000D01*
X123500Y137500D02*
X126500D01*
X125000Y136000D02*
Y139000D01*
X123500Y122500D02*
X126500D01*
X125000Y121000D02*
Y124000D01*
X123500Y107500D02*
X126500D01*
X125000Y106000D02*
Y109000D01*
X123500Y77500D02*
X126500D01*
X125000Y76000D02*
Y79000D01*
X123500Y62500D02*
X126500D01*
X125000Y61000D02*
Y64000D01*
X123500Y47500D02*
X126500D01*
X125000Y46000D02*
Y49000D01*
X123500Y32500D02*
X126500D01*
X125000Y31000D02*
Y34000D01*
X108500Y212500D02*
X111500D01*
X110000Y211000D02*
Y214000D01*
X108500Y197500D02*
X111500D01*
X110000Y196000D02*
Y199000D01*
X108500Y182500D02*
X111500D01*
X110000Y181000D02*
Y184000D01*
X108500Y167500D02*
X111500D01*
X110000Y166000D02*
Y169000D01*
X108500Y152500D02*
X111500D01*
X110000Y151000D02*
Y154000D01*
X108500Y137500D02*
X111500D01*
X110000Y136000D02*
Y139000D01*
X108500Y122500D02*
X111500D01*
X110000Y121000D02*
Y124000D01*
X108500Y77500D02*
X111500D01*
X110000Y76000D02*
Y79000D01*
X108500Y62500D02*
X111500D01*
X110000Y61000D02*
Y64000D01*
X93500Y212500D02*
X96500D01*
X95000Y211000D02*
Y214000D01*
X93500Y197500D02*
X96500D01*
X95000Y196000D02*
Y199000D01*
X93500Y182500D02*
X96500D01*
X95000Y181000D02*
Y184000D01*
X93500Y167500D02*
X96500D01*
X95000Y166000D02*
Y169000D01*
X93500Y152500D02*
X96500D01*
X95000Y151000D02*
Y154000D01*
X93500Y137500D02*
X96500D01*
X95000Y136000D02*
Y139000D01*
X93500Y122500D02*
X96500D01*
X95000Y121000D02*
Y124000D01*
X93500Y77500D02*
X96500D01*
X95000Y76000D02*
Y79000D01*
X93500Y62500D02*
X96500D01*
X95000Y61000D02*
Y64000D01*
X93500Y47500D02*
X96500D01*
X95000Y46000D02*
Y49000D01*
X93500Y32500D02*
X96500D01*
X95000Y31000D02*
Y34000D01*
X78500Y212500D02*
X81500D01*
X80000Y211000D02*
Y214000D01*
X78500Y197500D02*
X81500D01*
X80000Y196000D02*
Y199000D01*
X78500Y182500D02*
X81500D01*
X80000Y181000D02*
Y184000D01*
X78500Y167500D02*
X81500D01*
X80000Y166000D02*
Y169000D01*
X78500Y152500D02*
X81500D01*
X80000Y151000D02*
Y154000D01*
X78500Y137500D02*
X81500D01*
X80000Y136000D02*
Y139000D01*
X78500Y122500D02*
X81500D01*
X80000Y121000D02*
Y124000D01*
X78500Y107500D02*
X81500D01*
X80000Y106000D02*
Y109000D01*
X78500Y92500D02*
X81500D01*
X80000Y91000D02*
Y94000D01*
X78500Y77500D02*
X81500D01*
X80000Y76000D02*
Y79000D01*
X78500Y62500D02*
X81500D01*
X80000Y61000D02*
Y64000D01*
X78500Y47500D02*
X81500D01*
X80000Y46000D02*
Y49000D01*
X78500Y32500D02*
X81500D01*
X80000Y31000D02*
Y34000D01*
X63500Y212500D02*
X66500D01*
X65000Y211000D02*
Y214000D01*
X63500Y197500D02*
X66500D01*
X65000Y196000D02*
Y199000D01*
X63500Y182500D02*
X66500D01*
X65000Y181000D02*
Y184000D01*
X63500Y167500D02*
X66500D01*
X65000Y166000D02*
Y169000D01*
X63500Y152500D02*
X66500D01*
X65000Y151000D02*
Y154000D01*
X63500Y137500D02*
X66500D01*
X65000Y136000D02*
Y139000D01*
X63500Y122500D02*
X66500D01*
X65000Y121000D02*
Y124000D01*
X63500Y77500D02*
X66500D01*
X65000Y76000D02*
Y79000D01*
X63500Y62500D02*
X66500D01*
X65000Y61000D02*
Y64000D01*
X63500Y47500D02*
X66500D01*
X65000Y46000D02*
Y49000D01*
X63500Y32500D02*
X66500D01*
X65000Y31000D02*
Y34000D01*
X48500Y212500D02*
X51500D01*
X50000Y211000D02*
Y214000D01*
X48500Y197500D02*
X51500D01*
X50000Y196000D02*
Y199000D01*
X48500Y182500D02*
X51500D01*
X50000Y181000D02*
Y184000D01*
X48500Y167500D02*
X51500D01*
X50000Y166000D02*
Y169000D01*
X48500Y152500D02*
X51500D01*
X50000Y151000D02*
Y154000D01*
X48500Y137500D02*
X51500D01*
X50000Y136000D02*
Y139000D01*
X48500Y122500D02*
X51500D01*
X50000Y121000D02*
Y124000D01*
X48500Y107500D02*
X51500D01*
X50000Y106000D02*
Y109000D01*
X48500Y92500D02*
X51500D01*
X50000Y91000D02*
Y94000D01*
X48500Y77500D02*
X51500D01*
X50000Y76000D02*
Y79000D01*
X48500Y62500D02*
X51500D01*
X50000Y61000D02*
Y64000D01*
X48500Y47500D02*
X51500D01*
X50000Y46000D02*
Y49000D01*
X48500Y32500D02*
X51500D01*
X50000Y31000D02*
Y34000D01*
X33500Y212500D02*
X36500D01*
X35000Y211000D02*
Y214000D01*
X33500Y197500D02*
X36500D01*
X35000Y196000D02*
Y199000D01*
X33500Y182500D02*
X36500D01*
X35000Y181000D02*
Y184000D01*
X33500Y167500D02*
X36500D01*
X35000Y166000D02*
Y169000D01*
X33500Y152500D02*
X36500D01*
X35000Y151000D02*
Y154000D01*
X33500Y137500D02*
X36500D01*
X35000Y136000D02*
Y139000D01*
X33500Y122500D02*
X36500D01*
X35000Y121000D02*
Y124000D01*
X33500Y107500D02*
X36500D01*
X35000Y106000D02*
Y109000D01*
X33500Y92500D02*
X36500D01*
X35000Y91000D02*
Y94000D01*
X33500Y77500D02*
X36500D01*
X35000Y76000D02*
Y79000D01*
X33500Y62500D02*
X36500D01*
X35000Y61000D02*
Y64000D01*
X33500Y47500D02*
X36500D01*
X35000Y46000D02*
Y49000D01*
X18500Y212500D02*
X21500D01*
X20000Y211000D02*
Y214000D01*
X18500Y197500D02*
X21500D01*
X20000Y196000D02*
Y199000D01*
X18500Y182500D02*
X21500D01*
X20000Y181000D02*
Y184000D01*
X18500Y167500D02*
X21500D01*
X20000Y166000D02*
Y169000D01*
X18500Y152500D02*
X21500D01*
X20000Y151000D02*
Y154000D01*
X18500Y137500D02*
X21500D01*
X20000Y136000D02*
Y139000D01*
X18500Y122500D02*
X21500D01*
X20000Y121000D02*
Y124000D01*
X18500Y107500D02*
X21500D01*
X20000Y106000D02*
Y109000D01*
X18500Y92500D02*
X21500D01*
X20000Y91000D02*
Y94000D01*
X18500Y77500D02*
X21500D01*
X20000Y76000D02*
Y79000D01*
X18500Y62500D02*
X21500D01*
X20000Y61000D02*
Y64000D01*
X18500Y47500D02*
X21500D01*
X20000Y46000D02*
Y49000D01*
X242750Y132500D02*
X245750D01*
X244250Y131000D02*
Y134000D01*
X233750Y132500D02*
X236750D01*
X235250Y131000D02*
Y134000D01*
X261000Y153750D02*
X264000D01*
X262500Y152250D02*
Y155250D01*
X251000Y155000D02*
X254000D01*
X252500Y153500D02*
Y156500D01*
X243500Y162750D02*
X246500D01*
X245000Y161250D02*
Y164250D01*
X233500Y212500D02*
X236500D01*
X235000Y211000D02*
Y214000D01*
X6000Y62500D02*
X9000D01*
X7500Y61000D02*
Y64000D01*
X6000Y212500D02*
X9000D01*
X7500Y211000D02*
Y214000D01*
X6000Y197500D02*
X9000D01*
X7500Y196000D02*
Y199000D01*
X6000Y182500D02*
X9000D01*
X7500Y181000D02*
Y184000D01*
X6000Y167500D02*
X9000D01*
X7500Y166000D02*
Y169000D01*
X6000Y92500D02*
X9000D01*
X7500Y91000D02*
Y94000D01*
X6000Y47500D02*
X9000D01*
X7500Y46000D02*
Y49000D01*
X6000Y77500D02*
X9000D01*
X7500Y76000D02*
Y79000D01*
X6000Y152500D02*
X9000D01*
X7500Y151000D02*
Y154000D01*
X6070Y122500D02*
X9070D01*
X7570Y121000D02*
Y124000D01*
X6070Y137500D02*
X9070D01*
X7570Y136000D02*
Y139000D01*
X6070Y107500D02*
X9070D01*
X7570Y106000D02*
Y109000D01*
X303750Y17500D02*
X306750D01*
X305250Y16000D02*
Y19000D01*
X288500Y17500D02*
X291500D01*
X290000Y16000D02*
Y19000D01*
X273500Y17500D02*
X276500D01*
X275000Y16000D02*
Y19000D01*
X258500Y17500D02*
X261500D01*
X260000Y16000D02*
Y19000D01*
X243500Y17500D02*
X246500D01*
X245000Y16000D02*
Y19000D01*
X228500Y17500D02*
X231500D01*
X230000Y16000D02*
Y19000D01*
X168500Y17500D02*
X171500D01*
X170000Y16000D02*
Y19000D01*
X153500Y17500D02*
X156500D01*
X155000Y16000D02*
Y19000D01*
X138500Y17500D02*
X141500D01*
X140000Y16000D02*
Y19000D01*
X123500Y17500D02*
X126500D01*
X125000Y16000D02*
Y19000D01*
X108500Y17500D02*
X111500D01*
X110000Y16000D02*
Y19000D01*
X93500Y17500D02*
X96500D01*
X95000Y16000D02*
Y19000D01*
X391070Y107500D02*
X394070D01*
X392570Y106000D02*
Y109000D01*
X391070Y137500D02*
X394070D01*
X392570Y136000D02*
Y139000D01*
X391070Y122500D02*
X394070D01*
X392570Y121000D02*
Y124000D01*
X382519Y155508D02*
X385519D01*
X384019Y154008D02*
Y157008D01*
X391000Y152500D02*
X394000D01*
X392500Y151000D02*
Y154000D01*
X377250Y147500D02*
X380250D01*
X378750Y146000D02*
Y149000D01*
X391000Y77500D02*
X394000D01*
X392500Y76000D02*
Y79000D01*
X192207Y176150D02*
X195207D01*
X193707Y174650D02*
Y177650D01*
X285750Y88750D02*
X288750D01*
X287250Y87250D02*
Y90250D01*
X236750Y149500D02*
X239750D01*
X238250Y148000D02*
Y151000D01*
X211250Y179860D02*
X214250D01*
X212750Y178360D02*
Y181360D01*
X199500Y157750D02*
X202500D01*
X201000Y156250D02*
Y159250D01*
X183957Y157520D02*
X186957D01*
X185457Y156020D02*
Y159020D01*
X198491Y179856D02*
X201491D01*
X199991Y178356D02*
Y181356D01*
X185750Y179750D02*
X188750D01*
X187250Y178250D02*
Y181250D01*
X211250Y157500D02*
X214250D01*
X212750Y156000D02*
Y159000D01*
X192432Y150818D02*
X195432D01*
X193932Y149318D02*
Y152318D01*
X158500Y151250D02*
X161500D01*
X160000Y149750D02*
Y152750D01*
X170176Y129750D02*
X173176D01*
X171676Y128250D02*
Y131250D01*
X204842Y151158D02*
X207842D01*
X206342Y149658D02*
Y152658D01*
X349750Y147500D02*
X352750D01*
X351250Y146000D02*
Y149000D01*
X158500Y172500D02*
X161500D01*
X160000Y171000D02*
Y174000D01*
X157250Y181000D02*
X160250D01*
X158750Y179500D02*
Y182500D01*
X164500Y190500D02*
X167500D01*
X166000Y189000D02*
Y192000D01*
X153500Y187500D02*
X156500D01*
X155000Y186000D02*
Y189000D01*
X193500Y125500D02*
X196500D01*
X195000Y124000D02*
Y127000D01*
X223500Y112500D02*
X226500D01*
X225000Y111000D02*
Y114000D01*
X187750Y119000D02*
X190750D01*
X189250Y117500D02*
Y120500D01*
X164250Y136250D02*
X167250D01*
X165750Y134750D02*
Y137750D01*
X170250Y195750D02*
X173250D01*
X171750Y194250D02*
Y197250D01*
X170250Y207750D02*
X173250D01*
X171750Y206250D02*
Y209250D01*
X226250Y195750D02*
X229250D01*
X227750Y194250D02*
Y197250D01*
X226250Y207750D02*
X229250D01*
X227750Y206250D02*
Y209250D01*
X233500Y189500D02*
X236500D01*
X235000Y188000D02*
Y191000D01*
X314000Y137000D02*
X317000D01*
X315500Y135500D02*
Y138500D01*
X358750Y110750D02*
X361750D01*
X360250Y109250D02*
Y112250D01*
X78500Y17500D02*
X81500D01*
X80000Y16000D02*
Y19000D01*
X63500Y17500D02*
X66500D01*
X65000Y16000D02*
Y19000D01*
X48500Y17500D02*
X51500D01*
X50000Y16000D02*
Y19000D01*
X48500Y7500D02*
X51500D01*
X50000Y6000D02*
Y9000D01*
X63500Y7500D02*
X66500D01*
X65000Y6000D02*
Y9000D01*
X78500Y7500D02*
X81500D01*
X80000Y6000D02*
Y9000D01*
X93500Y7500D02*
X96500D01*
X95000Y6000D02*
Y9000D01*
X108500Y7500D02*
X111500D01*
X110000Y6000D02*
Y9000D01*
X123500Y7500D02*
X126500D01*
X125000Y6000D02*
Y9000D01*
X138500Y7500D02*
X141500D01*
X140000Y6000D02*
Y9000D01*
X153500Y7500D02*
X156500D01*
X155000Y6000D02*
Y9000D01*
X168500Y7500D02*
X171500D01*
X170000Y6000D02*
Y9000D01*
X228500Y7500D02*
X231500D01*
X230000Y6000D02*
Y9000D01*
X243500Y7500D02*
X246500D01*
X245000Y6000D02*
Y9000D01*
X258500Y7500D02*
X261500D01*
X260000Y6000D02*
Y9000D01*
X273500Y7500D02*
X276500D01*
X275000Y6000D02*
Y9000D01*
X288500Y7500D02*
X291500D01*
X290000Y6000D02*
Y9000D01*
X303500Y7500D02*
X306500D01*
X305000Y6000D02*
Y9000D01*
X318500Y7500D02*
X321500D01*
X320000Y6000D02*
Y9000D01*
X318500Y17500D02*
X321500D01*
X320000Y16000D02*
Y19000D01*
X333500Y17500D02*
X336500D01*
X335000Y16000D02*
Y19000D01*
X333500Y7500D02*
X336500D01*
X335000Y6000D02*
Y9000D01*
X348500Y7500D02*
X351500D01*
X350000Y6000D02*
Y9000D01*
X348500Y17500D02*
X351500D01*
X350000Y16000D02*
Y19000D01*
X391000Y47500D02*
X394000D01*
X392500Y46000D02*
Y49000D01*
X391000Y92500D02*
X394000D01*
X392500Y91000D02*
Y94000D01*
X391000Y167500D02*
X394000D01*
X392500Y166000D02*
Y169000D01*
X391000Y182500D02*
X394000D01*
X392500Y181000D02*
Y184000D01*
X391000Y197500D02*
X394000D01*
X392500Y196000D02*
Y199000D01*
X391000Y212500D02*
X394000D01*
X392500Y211000D02*
Y214000D01*
X164500Y201500D02*
X167500D01*
X166000Y200000D02*
Y203000D01*
X164500Y212500D02*
X167500D01*
X166000Y211000D02*
Y214000D01*
X233500Y201750D02*
X236500D01*
X235000Y200250D02*
Y203250D01*
X373500Y58250D02*
X376500D01*
X375000Y56750D02*
Y59750D01*
M02*
