G04*
G04 #@! TF.GenerationSoftware,Altium Limited,Altium Designer,21.6.4 (81)*
G04*
G04 Layer_Color=8388736*
%FSLAX44Y44*%
%MOMM*%
G71*
G04*
G04 #@! TF.SameCoordinates,0AEC0AEB-8793-4253-9BAD-FCEC690E4261*
G04*
G04*
G04 #@! TF.FilePolarity,Negative*
G04*
G01*
G75*
%ADD24R,0.4500X0.4500*%
%ADD25R,0.5200X0.5200*%
%ADD26C,0.8900*%
%ADD27R,0.6200X0.6500*%
%ADD28R,0.6500X0.6200*%
%ADD29R,0.9000X1.1000*%
%ADD30R,0.8200X0.8200*%
%ADD31R,1.1000X1.6500*%
%ADD32R,0.9000X1.8000*%
%ADD33R,0.4500X0.4600*%
%ADD34C,1.0000*%
%ADD35C,1.7500*%
%ADD36R,1.7500X1.7500*%
%ADD37C,3.5000*%
D24*
X14750Y175920D02*
D03*
Y169420D02*
D03*
Y160000D02*
D03*
Y153500D02*
D03*
Y147000D02*
D03*
Y140500D02*
D03*
Y134000D02*
D03*
Y127500D02*
D03*
Y121000D02*
D03*
X21250Y150250D02*
D03*
Y143750D02*
D03*
Y137250D02*
D03*
Y130750D02*
D03*
X23650Y119120D02*
D03*
X30150D02*
D03*
X43150D02*
D03*
X49650D02*
D03*
X62650D02*
D03*
X33400Y125620D02*
D03*
X46400D02*
D03*
X52900D02*
D03*
X71550Y121000D02*
D03*
Y127500D02*
D03*
Y134000D02*
D03*
Y140500D02*
D03*
Y147000D02*
D03*
Y153500D02*
D03*
Y160000D02*
D03*
Y169420D02*
D03*
Y175920D02*
D03*
X65050Y130750D02*
D03*
Y137250D02*
D03*
Y143750D02*
D03*
Y150250D02*
D03*
X62650Y161870D02*
D03*
X56150D02*
D03*
X49650D02*
D03*
X43150D02*
D03*
X36650D02*
D03*
X30150D02*
D03*
X23650D02*
D03*
X46400Y155370D02*
D03*
X33400D02*
D03*
X36650Y119120D02*
D03*
X56150D02*
D03*
X39900Y125620D02*
D03*
X52900Y155370D02*
D03*
X39900D02*
D03*
D25*
X37950Y145000D02*
D03*
Y136000D02*
D03*
X48350D02*
D03*
Y145000D02*
D03*
D26*
X375000Y107250D02*
D03*
X362300D02*
D03*
X375000Y119950D02*
D03*
X362300D02*
D03*
X375000Y132650D02*
D03*
X362300D02*
D03*
D27*
X14750Y105000D02*
D03*
X6750D02*
D03*
D28*
X126000Y188000D02*
D03*
Y196000D02*
D03*
X176000Y193000D02*
D03*
Y185000D02*
D03*
X166000D02*
D03*
Y193000D02*
D03*
D29*
X151500Y181500D02*
D03*
Y196500D02*
D03*
X140500D02*
D03*
Y181500D02*
D03*
D30*
X73650Y86850D02*
D03*
Y76650D02*
D03*
X19650Y86850D02*
D03*
Y76650D02*
D03*
D31*
X59650Y86250D02*
D03*
X33650D02*
D03*
D32*
X218250Y96000D02*
D03*
X252250D02*
D03*
X172750Y141000D02*
D03*
X206750D02*
D03*
D33*
X203000Y104450D02*
D03*
Y96050D02*
D03*
X155750Y149450D02*
D03*
Y141050D02*
D03*
D34*
X358490Y94550D02*
D03*
X378810D02*
D03*
X368650Y145350D02*
D03*
D35*
X161900Y41700D02*
D03*
X187300D02*
D03*
X212700D02*
D03*
X263500D02*
D03*
X238100D02*
D03*
X136500D02*
D03*
X111100D02*
D03*
D36*
X288900D02*
D03*
D37*
X375000Y25000D02*
D03*
X25000D02*
D03*
M02*
