G04*
G04 #@! TF.GenerationSoftware,Altium Limited,Altium Designer,21.6.4 (81)*
G04*
G04 Layer_Color=8421504*
%FSLAX44Y44*%
%MOMM*%
G71*
G04*
G04 #@! TF.SameCoordinates,0AEC0AEB-8793-4253-9BAD-FCEC690E4261*
G04*
G04*
G04 #@! TF.FilePolarity,Positive*
G04*
G01*
G75*
%ADD14R,0.3500X0.3500*%
%ADD15R,0.4200X0.4200*%
%ADD16C,0.0100*%
%ADD17R,0.5200X0.5500*%
%ADD18R,0.5500X0.5200*%
%ADD19R,0.8000X1.0000*%
%ADD20R,0.7200X0.7200*%
%ADD21R,1.0000X1.5500*%
%ADD22R,0.8000X1.7000*%
%ADD23R,0.3500X0.3600*%
D14*
X14750Y175920D02*
D03*
Y169420D02*
D03*
Y160000D02*
D03*
Y153500D02*
D03*
Y147000D02*
D03*
Y140500D02*
D03*
Y134000D02*
D03*
Y127500D02*
D03*
Y121000D02*
D03*
X21250Y150250D02*
D03*
Y143750D02*
D03*
Y137250D02*
D03*
Y130750D02*
D03*
X23650Y119120D02*
D03*
X30150D02*
D03*
X43150D02*
D03*
X49650D02*
D03*
X62650D02*
D03*
X33400Y125620D02*
D03*
X46400D02*
D03*
X52900D02*
D03*
X71550Y121000D02*
D03*
Y127500D02*
D03*
Y134000D02*
D03*
Y140500D02*
D03*
Y147000D02*
D03*
Y153500D02*
D03*
Y160000D02*
D03*
Y169420D02*
D03*
Y175920D02*
D03*
X65050Y130750D02*
D03*
Y137250D02*
D03*
Y143750D02*
D03*
Y150250D02*
D03*
X62650Y161870D02*
D03*
X56150D02*
D03*
X49650D02*
D03*
X43150D02*
D03*
X36650D02*
D03*
X30150D02*
D03*
X23650D02*
D03*
X46400Y155370D02*
D03*
X33400D02*
D03*
X36650Y119120D02*
D03*
X56150D02*
D03*
X39900Y125620D02*
D03*
X52900Y155370D02*
D03*
X39900D02*
D03*
D15*
X37950Y145000D02*
D03*
Y136000D02*
D03*
X48350D02*
D03*
Y145000D02*
D03*
D16*
X375000Y107250D02*
D03*
X362300D02*
D03*
X375000Y119950D02*
D03*
X362300D02*
D03*
X375000Y132650D02*
D03*
X362300D02*
D03*
D17*
X14750Y105000D02*
D03*
X6750D02*
D03*
D18*
X126000Y188000D02*
D03*
Y196000D02*
D03*
X176000Y193000D02*
D03*
Y185000D02*
D03*
X166000D02*
D03*
Y193000D02*
D03*
D19*
X151500Y181500D02*
D03*
Y196500D02*
D03*
X140500D02*
D03*
Y181500D02*
D03*
D20*
X73650Y86850D02*
D03*
Y76650D02*
D03*
X19650Y86850D02*
D03*
Y76650D02*
D03*
D21*
X59650Y86250D02*
D03*
X33650D02*
D03*
D22*
X218250Y96000D02*
D03*
X252250D02*
D03*
X172750Y141000D02*
D03*
X206750D02*
D03*
D23*
X203000Y104450D02*
D03*
Y96050D02*
D03*
X155750Y149450D02*
D03*
Y141050D02*
D03*
M02*
