G04*
G04 #@! TF.GenerationSoftware,Altium Limited,Altium Designer,21.6.4 (81)*
G04*
G04 Layer_Color=16711935*
%FSLAX44Y44*%
%MOMM*%
G71*
G04*
G04 #@! TF.SameCoordinates,0AEC0AEB-8793-4253-9BAD-FCEC690E4261*
G04*
G04*
G04 #@! TF.FilePolarity,Positive*
G04*
G01*
G75*
%ADD47C,0.0500*%
%ADD50C,0.1000*%
D47*
X383890Y25000D02*
G03*
X383890Y25000I-8890J0D01*
G01*
X33890D02*
G03*
X33890Y25000I-8890J0D01*
G01*
X10650Y115020D02*
X75650D01*
Y180020D01*
X10650D02*
X75650D01*
X10650Y115020D02*
Y180020D01*
X16250Y102000D02*
Y108000D01*
X5250D02*
X16250D01*
X5250Y102000D02*
Y108000D01*
Y102000D02*
X16250D01*
X123000Y186500D02*
X129000D01*
X123000Y197500D02*
X129000D01*
X123000Y186500D02*
Y197500D01*
X129000Y186500D02*
Y197500D01*
X173000Y194500D02*
X179000D01*
X173000Y183500D02*
X179000D01*
Y194500D01*
X173000Y183500D02*
Y194500D01*
X163000Y183500D02*
X169000D01*
X163000Y194500D02*
X169000D01*
X163000Y183500D02*
Y194500D01*
X169000Y183500D02*
Y194500D01*
X156500Y178500D02*
Y199500D01*
X135500Y178500D02*
X156500D01*
X135500D02*
Y199500D01*
X156500D01*
X30150Y78250D02*
Y94250D01*
X63150Y78250D02*
Y94250D01*
X30150D02*
X63150D01*
X30150Y78250D02*
X63150D01*
X226752Y108499D02*
X243750Y108500D01*
X226750D02*
X226752Y108499D01*
X215250Y108500D02*
X226750D01*
X243750D02*
X255250D01*
X215250Y83500D02*
Y108500D01*
X255250Y83500D02*
Y108500D01*
X215250Y83500D02*
X255250D01*
X181252Y153499D02*
X198250Y153500D01*
X181250D02*
X181252Y153499D01*
X169750Y153500D02*
X181250D01*
X198250D02*
X209750D01*
X169750Y128500D02*
Y153500D01*
X209750Y128500D02*
Y153500D01*
X169750Y128500D02*
X209750D01*
X206000Y96251D02*
Y104251D01*
X200000Y96251D02*
Y104251D01*
X206000D01*
X200000Y96251D02*
X206000D01*
X158750Y141251D02*
Y149251D01*
X152750Y141251D02*
Y149251D01*
X158750D01*
X152750Y141251D02*
X158750D01*
D50*
X98400Y26700D02*
X301600D01*
Y1300D02*
Y26700D01*
X98400Y1300D02*
X301600D01*
X98400D02*
Y26700D01*
X70900Y87000D02*
X76400D01*
X70900Y76500D02*
X76400D01*
Y87000D01*
X70900Y76500D02*
Y87000D01*
X16900D02*
X22400D01*
X16900Y76500D02*
X22400D01*
Y87000D01*
X16900Y76500D02*
Y87000D01*
M02*
