G04*
G04 #@! TF.GenerationSoftware,Altium Limited,Altium Designer,21.6.4 (81)*
G04*
G04 Layer_Color=128*
%FSLAX44Y44*%
%MOMM*%
G71*
G04*
G04 #@! TF.SameCoordinates,0AEC0AEB-8793-4253-9BAD-FCEC690E4261*
G04*
G04*
G04 #@! TF.FilePolarity,Positive*
G04*
G01*
G75*
%ADD49C,0.0508*%
D49*
X353515Y94550D02*
X363465D01*
X358490Y89575D02*
Y99525D01*
X373835Y94550D02*
X383785D01*
X378810Y89575D02*
Y99525D01*
X363675Y145350D02*
X373625D01*
X368650Y140375D02*
Y150325D01*
X156400Y41700D02*
X167400D01*
X161900Y36200D02*
Y47200D01*
X181800Y41700D02*
X192800D01*
X187300Y36200D02*
Y47200D01*
X207200Y41700D02*
X218200D01*
X212700Y36200D02*
Y47200D01*
X258000Y41700D02*
X269000D01*
X263500Y36200D02*
Y47200D01*
X283400Y41700D02*
X294400D01*
X288900Y36200D02*
Y47200D01*
X232600Y41700D02*
X243600D01*
X238100Y36200D02*
Y47200D01*
X131000Y41700D02*
X142000D01*
X136500Y36200D02*
Y47200D01*
X105600Y41700D02*
X116600D01*
X111100Y36200D02*
Y47200D01*
X366000Y25000D02*
X384000D01*
X375000Y16000D02*
Y34000D01*
X16000Y25000D02*
X34000D01*
X25000Y16000D02*
Y34000D01*
X186000Y77500D02*
X189000D01*
X187500Y76000D02*
Y79000D01*
X198500Y47500D02*
X201500D01*
X200000Y46000D02*
Y49000D01*
X6500Y127500D02*
X9500D01*
X8000Y126000D02*
Y129000D01*
X391000Y47500D02*
X394000D01*
X392500Y46000D02*
Y49000D01*
X391000Y62500D02*
X394000D01*
X392500Y61000D02*
Y64000D01*
X391000Y77500D02*
X394000D01*
X392500Y76000D02*
Y79000D01*
X391000Y92500D02*
X394000D01*
X392500Y91000D02*
Y94000D01*
X391000Y107500D02*
X394000D01*
X392500Y106000D02*
Y109000D01*
X391000Y150000D02*
X394000D01*
X392500Y148500D02*
Y151500D01*
X391000Y167500D02*
X394000D01*
X392500Y166000D02*
Y169000D01*
X391000Y182500D02*
X394000D01*
X392500Y181000D02*
Y184000D01*
X391000Y197500D02*
X394000D01*
X392500Y196000D02*
Y199000D01*
X391000Y212500D02*
X394000D01*
X392500Y211000D02*
Y214000D01*
X83500Y117500D02*
X86500D01*
X85000Y116000D02*
Y119000D01*
X288500Y7500D02*
X291500D01*
X290000Y6000D02*
Y9000D01*
X273500Y7500D02*
X276500D01*
X275000Y6000D02*
Y9000D01*
X258500Y7500D02*
X261500D01*
X260000Y6000D02*
Y9000D01*
X243500Y7500D02*
X246500D01*
X245000Y6000D02*
Y9000D01*
X228500Y7500D02*
X231500D01*
X230000Y6000D02*
Y9000D01*
X213500Y7500D02*
X216500D01*
X215000Y6000D02*
Y9000D01*
X198500Y7500D02*
X201500D01*
X200000Y6000D02*
Y9000D01*
X183500Y7500D02*
X186500D01*
X185000Y6000D02*
Y9000D01*
X168500Y7500D02*
X171500D01*
X170000Y6000D02*
Y9000D01*
X153500Y7500D02*
X156500D01*
X155000Y6000D02*
Y9000D01*
X138500Y7500D02*
X141500D01*
X140000Y6000D02*
Y9000D01*
X123500Y7500D02*
X126500D01*
X125000Y6000D02*
Y9000D01*
X108500Y7500D02*
X111500D01*
X110000Y6000D02*
Y9000D01*
X248500Y32500D02*
X251500D01*
X250000Y31000D02*
Y34000D01*
X223500Y32500D02*
X226500D01*
X225000Y31000D02*
Y34000D01*
X148500Y32500D02*
X151500D01*
X150000Y31000D02*
Y34000D01*
X223500Y55000D02*
X226500D01*
X225000Y53500D02*
Y56500D01*
X318500Y147500D02*
X321500D01*
X320000Y146000D02*
Y149000D01*
X303500Y147500D02*
X306500D01*
X305000Y146000D02*
Y149000D01*
X288500Y147500D02*
X291500D01*
X290000Y146000D02*
Y149000D01*
X273500Y147500D02*
X276500D01*
X275000Y146000D02*
Y149000D01*
X258500Y147500D02*
X261500D01*
X260000Y146000D02*
Y149000D01*
X243500Y147500D02*
X246500D01*
X245000Y146000D02*
Y149000D01*
X228500Y147500D02*
X231500D01*
X230000Y146000D02*
Y149000D01*
X178500Y87500D02*
X181500D01*
X180000Y86000D02*
Y89000D01*
X43500Y90000D02*
X46500D01*
X45000Y88500D02*
Y91500D01*
X56000Y102500D02*
X59000D01*
X57500Y101000D02*
Y104000D01*
X33500Y102500D02*
X36500D01*
X35000Y101000D02*
Y104000D01*
X6000Y47500D02*
X9000D01*
X7500Y46000D02*
Y49000D01*
X48500Y7500D02*
X51500D01*
X50000Y6000D02*
Y9000D01*
X63500Y7500D02*
X66500D01*
X65000Y6000D02*
Y9000D01*
X78500Y7500D02*
X81500D01*
X80000Y6000D02*
Y9000D01*
X93500Y7500D02*
X96500D01*
X95000Y6000D02*
Y9000D01*
X303500Y7500D02*
X306500D01*
X305000Y6000D02*
Y9000D01*
X348500Y7500D02*
X351500D01*
X350000Y6000D02*
Y9000D01*
X348500Y17500D02*
X351500D01*
X350000Y16000D02*
Y19000D01*
X303500Y17500D02*
X306500D01*
X305000Y16000D02*
Y19000D01*
X93500Y17500D02*
X96500D01*
X95000Y16000D02*
Y19000D01*
X78500Y17500D02*
X81500D01*
X80000Y16000D02*
Y19000D01*
X63500Y17500D02*
X66500D01*
X65000Y16000D02*
Y19000D01*
X48500Y17500D02*
X51500D01*
X50000Y16000D02*
Y19000D01*
X378500Y212500D02*
X381500D01*
X380000Y211000D02*
Y214000D01*
X378500Y197500D02*
X381500D01*
X380000Y196000D02*
Y199000D01*
X378500Y182500D02*
X381500D01*
X380000Y181000D02*
Y184000D01*
X378500Y167500D02*
X381500D01*
X380000Y166000D02*
Y169000D01*
X378500Y77500D02*
X381500D01*
X380000Y76000D02*
Y79000D01*
X378500Y62500D02*
X381500D01*
X380000Y61000D02*
Y64000D01*
X378500Y47500D02*
X381500D01*
X380000Y46000D02*
Y49000D01*
X363500Y212500D02*
X366500D01*
X365000Y211000D02*
Y214000D01*
X363500Y197500D02*
X366500D01*
X365000Y196000D02*
Y199000D01*
X363500Y182500D02*
X366500D01*
X365000Y181000D02*
Y184000D01*
X363500Y167500D02*
X366500D01*
X365000Y166000D02*
Y169000D01*
X363500Y77500D02*
X366500D01*
X365000Y76000D02*
Y79000D01*
X363500Y62500D02*
X366500D01*
X365000Y61000D02*
Y64000D01*
X363500Y47500D02*
X366500D01*
X365000Y46000D02*
Y49000D01*
X348500Y212500D02*
X351500D01*
X350000Y211000D02*
Y214000D01*
X348500Y197500D02*
X351500D01*
X350000Y196000D02*
Y199000D01*
X348500Y182500D02*
X351500D01*
X350000Y181000D02*
Y184000D01*
X348500Y167500D02*
X351500D01*
X350000Y166000D02*
Y169000D01*
X348500Y107500D02*
X351500D01*
X350000Y106000D02*
Y109000D01*
X348500Y77500D02*
X351500D01*
X350000Y76000D02*
Y79000D01*
X348500Y62500D02*
X351500D01*
X350000Y61000D02*
Y64000D01*
X348500Y47500D02*
X351500D01*
X350000Y46000D02*
Y49000D01*
X348500Y32500D02*
X351500D01*
X350000Y31000D02*
Y34000D01*
X333500Y212500D02*
X336500D01*
X335000Y211000D02*
Y214000D01*
X333500Y197500D02*
X336500D01*
X335000Y196000D02*
Y199000D01*
X333500Y182500D02*
X336500D01*
X335000Y181000D02*
Y184000D01*
X333500Y167500D02*
X336500D01*
X335000Y166000D02*
Y169000D01*
X333500Y47500D02*
X336500D01*
X335000Y46000D02*
Y49000D01*
X333500Y32500D02*
X336500D01*
X335000Y31000D02*
Y34000D01*
X318500Y212500D02*
X321500D01*
X320000Y211000D02*
Y214000D01*
X318500Y197500D02*
X321500D01*
X320000Y196000D02*
Y199000D01*
X318500Y182500D02*
X321500D01*
X320000Y181000D02*
Y184000D01*
X318500Y122500D02*
X321500D01*
X320000Y121000D02*
Y124000D01*
X318500Y107500D02*
X321500D01*
X320000Y106000D02*
Y109000D01*
X318500Y92500D02*
X321500D01*
X320000Y91000D02*
Y94000D01*
X318500Y77500D02*
X321500D01*
X320000Y76000D02*
Y79000D01*
X318500Y62500D02*
X321500D01*
X320000Y61000D02*
Y64000D01*
X318500Y32500D02*
X321500D01*
X320000Y31000D02*
Y34000D01*
X303500Y212500D02*
X306500D01*
X305000Y211000D02*
Y214000D01*
X303500Y197500D02*
X306500D01*
X305000Y196000D02*
Y199000D01*
X303500Y167500D02*
X306500D01*
X305000Y166000D02*
Y169000D01*
X303500Y122500D02*
X306500D01*
X305000Y121000D02*
Y124000D01*
X303500Y107500D02*
X306500D01*
X305000Y106000D02*
Y109000D01*
X303500Y92500D02*
X306500D01*
X305000Y91000D02*
Y94000D01*
X303500Y77500D02*
X306500D01*
X305000Y76000D02*
Y79000D01*
X303500Y62500D02*
X306500D01*
X305000Y61000D02*
Y64000D01*
X303500Y32500D02*
X306500D01*
X305000Y31000D02*
Y34000D01*
X288500Y212500D02*
X291500D01*
X290000Y211000D02*
Y214000D01*
X288500Y182500D02*
X291500D01*
X290000Y181000D02*
Y184000D01*
X288500Y167500D02*
X291500D01*
X290000Y166000D02*
Y169000D01*
X288500Y122500D02*
X291500D01*
X290000Y121000D02*
Y124000D01*
X288500Y107500D02*
X291500D01*
X290000Y106000D02*
Y109000D01*
X288500Y92500D02*
X291500D01*
X290000Y91000D02*
Y94000D01*
X288500Y77500D02*
X291500D01*
X290000Y76000D02*
Y79000D01*
X288500Y62500D02*
X291500D01*
X290000Y61000D02*
Y64000D01*
X273500Y212500D02*
X276500D01*
X275000Y211000D02*
Y214000D01*
X273500Y182500D02*
X276500D01*
X275000Y181000D02*
Y184000D01*
X273500Y167500D02*
X276500D01*
X275000Y166000D02*
Y169000D01*
X273500Y122500D02*
X276500D01*
X275000Y121000D02*
Y124000D01*
X273500Y107500D02*
X276500D01*
X275000Y106000D02*
Y109000D01*
X273500Y92500D02*
X276500D01*
X275000Y91000D02*
Y94000D01*
X273500Y77500D02*
X276500D01*
X275000Y76000D02*
Y79000D01*
X273500Y62500D02*
X276500D01*
X275000Y61000D02*
Y64000D01*
X273500Y47500D02*
X276500D01*
X275000Y46000D02*
Y49000D01*
X273500Y32500D02*
X276500D01*
X275000Y31000D02*
Y34000D01*
X258500Y212500D02*
X261500D01*
X260000Y211000D02*
Y214000D01*
X258500Y182500D02*
X261500D01*
X260000Y181000D02*
Y184000D01*
X258500Y167500D02*
X261500D01*
X260000Y166000D02*
Y169000D01*
X258500Y122500D02*
X261500D01*
X260000Y121000D02*
Y124000D01*
X258500Y107500D02*
X261500D01*
X260000Y106000D02*
Y109000D01*
X258500Y77500D02*
X261500D01*
X260000Y76000D02*
Y79000D01*
X243500Y212500D02*
X246500D01*
X245000Y211000D02*
Y214000D01*
X243500Y182500D02*
X246500D01*
X245000Y181000D02*
Y184000D01*
X243500Y167500D02*
X246500D01*
X245000Y166000D02*
Y169000D01*
X243500Y122500D02*
X246500D01*
X245000Y121000D02*
Y124000D01*
X243500Y77500D02*
X246500D01*
X245000Y76000D02*
Y79000D01*
X243500Y62500D02*
X246500D01*
X245000Y61000D02*
Y64000D01*
X228500Y212500D02*
X231500D01*
X230000Y211000D02*
Y214000D01*
X228500Y182500D02*
X231500D01*
X230000Y181000D02*
Y184000D01*
X228500Y167500D02*
X231500D01*
X230000Y166000D02*
Y169000D01*
X228500Y122500D02*
X231500D01*
X230000Y121000D02*
Y124000D01*
X228500Y107500D02*
X231500D01*
X230000Y106000D02*
Y109000D01*
X228500Y92500D02*
X231500D01*
X230000Y91000D02*
Y94000D01*
X228500Y77500D02*
X231500D01*
X230000Y76000D02*
Y79000D01*
X213500Y212500D02*
X216500D01*
X215000Y211000D02*
Y214000D01*
X213500Y182500D02*
X216500D01*
X215000Y181000D02*
Y184000D01*
X213500Y167500D02*
X216500D01*
X215000Y166000D02*
Y169000D01*
X213500Y122500D02*
X216500D01*
X215000Y121000D02*
Y124000D01*
X198500Y212500D02*
X201500D01*
X200000Y211000D02*
Y214000D01*
X198500Y182500D02*
X201500D01*
X200000Y181000D02*
Y184000D01*
X198500Y167500D02*
X201500D01*
X200000Y166000D02*
Y169000D01*
X198500Y122500D02*
X201500D01*
X200000Y121000D02*
Y124000D01*
X198500Y62500D02*
X201500D01*
X200000Y61000D02*
Y64000D01*
X198500Y32500D02*
X201500D01*
X200000Y31000D02*
Y34000D01*
X183500Y212500D02*
X186500D01*
X185000Y211000D02*
Y214000D01*
X183500Y167500D02*
X186500D01*
X185000Y166000D02*
Y169000D01*
X183500Y122500D02*
X186500D01*
X185000Y121000D02*
Y124000D01*
X183500Y107500D02*
X186500D01*
X185000Y106000D02*
Y109000D01*
X168500Y212500D02*
X171500D01*
X170000Y211000D02*
Y214000D01*
X168500Y122500D02*
X171500D01*
X170000Y121000D02*
Y124000D01*
X168500Y107500D02*
X171500D01*
X170000Y106000D02*
Y109000D01*
X168500Y62500D02*
X171500D01*
X170000Y61000D02*
Y64000D01*
X153500Y212500D02*
X156500D01*
X155000Y211000D02*
Y214000D01*
X153500Y122500D02*
X156500D01*
X155000Y121000D02*
Y124000D01*
X153500Y62500D02*
X156500D01*
X155000Y61000D02*
Y64000D01*
X138500Y212500D02*
X141500D01*
X140000Y211000D02*
Y214000D01*
X138500Y137500D02*
X141500D01*
X140000Y136000D02*
Y139000D01*
X138500Y92500D02*
X141500D01*
X140000Y91000D02*
Y94000D01*
X123500Y212500D02*
X126500D01*
X125000Y211000D02*
Y214000D01*
X123500Y107500D02*
X126500D01*
X125000Y106000D02*
Y109000D01*
X123500Y77500D02*
X126500D01*
X125000Y76000D02*
Y79000D01*
X123500Y62500D02*
X126500D01*
X125000Y61000D02*
Y64000D01*
X123500Y47500D02*
X126500D01*
X125000Y46000D02*
Y49000D01*
X123500Y32500D02*
X126500D01*
X125000Y31000D02*
Y34000D01*
X108500Y212500D02*
X111500D01*
X110000Y211000D02*
Y214000D01*
X108500Y197500D02*
X111500D01*
X110000Y196000D02*
Y199000D01*
X108500Y182500D02*
X111500D01*
X110000Y181000D02*
Y184000D01*
X108500Y122500D02*
X111500D01*
X110000Y121000D02*
Y124000D01*
X108500Y92500D02*
X111500D01*
X110000Y91000D02*
Y94000D01*
X108500Y77500D02*
X111500D01*
X110000Y76000D02*
Y79000D01*
X108500Y62500D02*
X111500D01*
X110000Y61000D02*
Y64000D01*
X93500Y212500D02*
X96500D01*
X95000Y211000D02*
Y214000D01*
X93500Y197500D02*
X96500D01*
X95000Y196000D02*
Y199000D01*
X93500Y182500D02*
X96500D01*
X95000Y181000D02*
Y184000D01*
X93500Y167500D02*
X96500D01*
X95000Y166000D02*
Y169000D01*
X93500Y92500D02*
X96500D01*
X95000Y91000D02*
Y94000D01*
X93500Y77500D02*
X96500D01*
X95000Y76000D02*
Y79000D01*
X93500Y62500D02*
X96500D01*
X95000Y61000D02*
Y64000D01*
X93500Y47500D02*
X96500D01*
X95000Y46000D02*
Y49000D01*
X78500Y212500D02*
X81500D01*
X80000Y211000D02*
Y214000D01*
X78500Y197500D02*
X81500D01*
X80000Y196000D02*
Y199000D01*
X78500Y182500D02*
X81500D01*
X80000Y181000D02*
Y184000D01*
X78500Y167500D02*
X81500D01*
X80000Y166000D02*
Y169000D01*
X78500Y62500D02*
X81500D01*
X80000Y61000D02*
Y64000D01*
X78500Y32500D02*
X81500D01*
X80000Y31000D02*
Y34000D01*
X63500Y62500D02*
X66500D01*
X65000Y61000D02*
Y64000D01*
X63500Y47500D02*
X66500D01*
X65000Y46000D02*
Y49000D01*
X63500Y32500D02*
X66500D01*
X65000Y31000D02*
Y34000D01*
X48500Y77500D02*
X51500D01*
X50000Y76000D02*
Y79000D01*
X48500Y62500D02*
X51500D01*
X50000Y61000D02*
Y64000D01*
X48500Y47500D02*
X51500D01*
X50000Y46000D02*
Y49000D01*
X48500Y32500D02*
X51500D01*
X50000Y31000D02*
Y34000D01*
X33500Y62500D02*
X36500D01*
X35000Y61000D02*
Y64000D01*
X33500Y47500D02*
X36500D01*
X35000Y46000D02*
Y49000D01*
X18500Y47500D02*
X21500D01*
X20000Y46000D02*
Y49000D01*
X57750Y156000D02*
X60750D01*
X59250Y154500D02*
Y157500D01*
X57410Y125140D02*
X60410D01*
X58910Y123640D02*
Y126640D01*
X53500Y132000D02*
X56500D01*
X55000Y130500D02*
Y133500D01*
X42000Y150750D02*
X45000D01*
X43500Y149250D02*
Y152250D01*
X172500Y175000D02*
X175500D01*
X174000Y173500D02*
Y176500D01*
X27500Y131000D02*
X30500D01*
X29000Y129500D02*
Y132500D01*
X26250Y147250D02*
X29250D01*
X27750Y145750D02*
Y148750D01*
X64000Y176250D02*
X67000D01*
X65500Y174750D02*
Y177750D01*
X56500Y176250D02*
X59500D01*
X58000Y174750D02*
Y177750D01*
X131500Y174000D02*
X134500D01*
X133000Y172500D02*
Y175500D01*
X157500Y174000D02*
X160500D01*
X159000Y172500D02*
Y175500D01*
X57500Y139000D02*
X60500D01*
X59000Y137500D02*
Y140500D01*
X382900Y120100D02*
X385900D01*
X384400Y118600D02*
Y121600D01*
X145750Y141000D02*
X148750D01*
X147250Y139500D02*
Y142500D01*
X52500Y168000D02*
X55500D01*
X54000Y166500D02*
Y169500D01*
X177500Y203000D02*
X180500D01*
X179000Y201500D02*
Y204500D01*
X6500Y134000D02*
X9500D01*
X8000Y132500D02*
Y135500D01*
X27578Y110672D02*
X30578D01*
X29078Y109172D02*
Y112172D01*
X350500Y120000D02*
X353500D01*
X352000Y118500D02*
Y121500D01*
X193750Y96000D02*
X196750D01*
X195250Y94500D02*
Y97500D01*
X20250Y110500D02*
X23250D01*
X21750Y109000D02*
Y112000D01*
X383500Y132750D02*
X386500D01*
X385000Y131250D02*
Y134250D01*
X29500Y139000D02*
X32500D01*
X31000Y137500D02*
Y140500D01*
X49000Y176250D02*
X52000D01*
X50500Y174750D02*
Y177750D01*
X20002Y156465D02*
X23002D01*
X21502Y154965D02*
Y157965D01*
X6500Y153500D02*
X9500D01*
X8000Y152000D02*
Y155000D01*
X35250Y150750D02*
X38250D01*
X36750Y149250D02*
Y152250D01*
X26250Y156500D02*
X29250D01*
X27750Y155000D02*
Y158000D01*
M02*
