G04*
G04 #@! TF.GenerationSoftware,Altium Limited,Altium Designer,21.6.4 (81)*
G04*
G04 Layer_Color=2752767*
%FSLAX44Y44*%
%MOMM*%
G71*
G04*
G04 #@! TF.SameCoordinates,0AEC0AEB-8793-4253-9BAD-FCEC690E4261*
G04*
G04*
G04 #@! TF.FilePolarity,Positive*
G04*
G01*
G75*
%ADD49C,0.0508*%
%ADD54C,0.0677*%
D49*
X356458Y92518D02*
Y96582D01*
X360522D01*
Y92518D01*
X356458D01*
X376778D02*
Y96582D01*
X380842D01*
Y92518D01*
X376778D01*
X366618Y143318D02*
Y147382D01*
X370682D01*
Y143318D01*
X366618D01*
X375000Y22968D02*
X372968Y27032D01*
X377032D01*
X375000Y22968D01*
X25000D02*
X22968Y27032D01*
X27032D01*
X25000Y22968D01*
X187500Y75468D02*
X188516Y76484D01*
X189532D01*
X188516Y77500D01*
X189532Y78516D01*
X188516D01*
X187500Y79532D01*
X186484Y78516D01*
X185468D01*
X186484Y77500D01*
X185468Y76484D01*
X186484D01*
X187500Y75468D01*
X200000Y45468D02*
X201016Y46484D01*
X202032D01*
X201016Y47500D01*
X202032Y48516D01*
X201016D01*
X200000Y49532D01*
X198984Y48516D01*
X197968D01*
X198984Y47500D01*
X197968Y46484D01*
X198984D01*
X200000Y45468D01*
X8000Y125468D02*
X9016Y126484D01*
X10032D01*
X9016Y127500D01*
X10032Y128516D01*
X9016D01*
X8000Y129532D01*
X6984Y128516D01*
X5968D01*
X6984Y127500D01*
X5968Y126484D01*
X6984D01*
X8000Y125468D01*
X392500Y45468D02*
X393516Y46484D01*
X394532D01*
X393516Y47500D01*
X394532Y48516D01*
X393516D01*
X392500Y49532D01*
X391484Y48516D01*
X390468D01*
X391484Y47500D01*
X390468Y46484D01*
X391484D01*
X392500Y45468D01*
Y60468D02*
X393516Y61484D01*
X394532D01*
X393516Y62500D01*
X394532Y63516D01*
X393516D01*
X392500Y64532D01*
X391484Y63516D01*
X390468D01*
X391484Y62500D01*
X390468Y61484D01*
X391484D01*
X392500Y60468D01*
Y75468D02*
X393516Y76484D01*
X394532D01*
X393516Y77500D01*
X394532Y78516D01*
X393516D01*
X392500Y79532D01*
X391484Y78516D01*
X390468D01*
X391484Y77500D01*
X390468Y76484D01*
X391484D01*
X392500Y75468D01*
Y90468D02*
X393516Y91484D01*
X394532D01*
X393516Y92500D01*
X394532Y93516D01*
X393516D01*
X392500Y94532D01*
X391484Y93516D01*
X390468D01*
X391484Y92500D01*
X390468Y91484D01*
X391484D01*
X392500Y90468D01*
Y105468D02*
X393516Y106484D01*
X394532D01*
X393516Y107500D01*
X394532Y108516D01*
X393516D01*
X392500Y109532D01*
X391484Y108516D01*
X390468D01*
X391484Y107500D01*
X390468Y106484D01*
X391484D01*
X392500Y105468D01*
Y147968D02*
X393516Y148984D01*
X394532D01*
X393516Y150000D01*
X394532Y151016D01*
X393516D01*
X392500Y152032D01*
X391484Y151016D01*
X390468D01*
X391484Y150000D01*
X390468Y148984D01*
X391484D01*
X392500Y147968D01*
Y165468D02*
X393516Y166484D01*
X394532D01*
X393516Y167500D01*
X394532Y168516D01*
X393516D01*
X392500Y169532D01*
X391484Y168516D01*
X390468D01*
X391484Y167500D01*
X390468Y166484D01*
X391484D01*
X392500Y165468D01*
Y180468D02*
X393516Y181484D01*
X394532D01*
X393516Y182500D01*
X394532Y183516D01*
X393516D01*
X392500Y184532D01*
X391484Y183516D01*
X390468D01*
X391484Y182500D01*
X390468Y181484D01*
X391484D01*
X392500Y180468D01*
Y195468D02*
X393516Y196484D01*
X394532D01*
X393516Y197500D01*
X394532Y198516D01*
X393516D01*
X392500Y199532D01*
X391484Y198516D01*
X390468D01*
X391484Y197500D01*
X390468Y196484D01*
X391484D01*
X392500Y195468D01*
Y210468D02*
X393516Y211484D01*
X394532D01*
X393516Y212500D01*
X394532Y213516D01*
X393516D01*
X392500Y214532D01*
X391484Y213516D01*
X390468D01*
X391484Y212500D01*
X390468Y211484D01*
X391484D01*
X392500Y210468D01*
X85000Y115468D02*
X86016Y116484D01*
X87032D01*
X86016Y117500D01*
X87032Y118516D01*
X86016D01*
X85000Y119532D01*
X83984Y118516D01*
X82968D01*
X83984Y117500D01*
X82968Y116484D01*
X83984D01*
X85000Y115468D01*
X290000Y5468D02*
X291016Y6484D01*
X292032D01*
X291016Y7500D01*
X292032Y8516D01*
X291016D01*
X290000Y9532D01*
X288984Y8516D01*
X287968D01*
X288984Y7500D01*
X287968Y6484D01*
X288984D01*
X290000Y5468D01*
X275000D02*
X276016Y6484D01*
X277032D01*
X276016Y7500D01*
X277032Y8516D01*
X276016D01*
X275000Y9532D01*
X273984Y8516D01*
X272968D01*
X273984Y7500D01*
X272968Y6484D01*
X273984D01*
X275000Y5468D01*
X260000D02*
X261016Y6484D01*
X262032D01*
X261016Y7500D01*
X262032Y8516D01*
X261016D01*
X260000Y9532D01*
X258984Y8516D01*
X257968D01*
X258984Y7500D01*
X257968Y6484D01*
X258984D01*
X260000Y5468D01*
X245000D02*
X246016Y6484D01*
X247032D01*
X246016Y7500D01*
X247032Y8516D01*
X246016D01*
X245000Y9532D01*
X243984Y8516D01*
X242968D01*
X243984Y7500D01*
X242968Y6484D01*
X243984D01*
X245000Y5468D01*
X230000D02*
X231016Y6484D01*
X232032D01*
X231016Y7500D01*
X232032Y8516D01*
X231016D01*
X230000Y9532D01*
X228984Y8516D01*
X227968D01*
X228984Y7500D01*
X227968Y6484D01*
X228984D01*
X230000Y5468D01*
X215000D02*
X216016Y6484D01*
X217032D01*
X216016Y7500D01*
X217032Y8516D01*
X216016D01*
X215000Y9532D01*
X213984Y8516D01*
X212968D01*
X213984Y7500D01*
X212968Y6484D01*
X213984D01*
X215000Y5468D01*
X200000D02*
X201016Y6484D01*
X202032D01*
X201016Y7500D01*
X202032Y8516D01*
X201016D01*
X200000Y9532D01*
X198984Y8516D01*
X197968D01*
X198984Y7500D01*
X197968Y6484D01*
X198984D01*
X200000Y5468D01*
X185000D02*
X186016Y6484D01*
X187032D01*
X186016Y7500D01*
X187032Y8516D01*
X186016D01*
X185000Y9532D01*
X183984Y8516D01*
X182968D01*
X183984Y7500D01*
X182968Y6484D01*
X183984D01*
X185000Y5468D01*
X170000D02*
X171016Y6484D01*
X172032D01*
X171016Y7500D01*
X172032Y8516D01*
X171016D01*
X170000Y9532D01*
X168984Y8516D01*
X167968D01*
X168984Y7500D01*
X167968Y6484D01*
X168984D01*
X170000Y5468D01*
X155000D02*
X156016Y6484D01*
X157032D01*
X156016Y7500D01*
X157032Y8516D01*
X156016D01*
X155000Y9532D01*
X153984Y8516D01*
X152968D01*
X153984Y7500D01*
X152968Y6484D01*
X153984D01*
X155000Y5468D01*
X140000D02*
X141016Y6484D01*
X142032D01*
X141016Y7500D01*
X142032Y8516D01*
X141016D01*
X140000Y9532D01*
X138984Y8516D01*
X137968D01*
X138984Y7500D01*
X137968Y6484D01*
X138984D01*
X140000Y5468D01*
X125000D02*
X126016Y6484D01*
X127032D01*
X126016Y7500D01*
X127032Y8516D01*
X126016D01*
X125000Y9532D01*
X123984Y8516D01*
X122968D01*
X123984Y7500D01*
X122968Y6484D01*
X123984D01*
X125000Y5468D01*
X110000D02*
X111016Y6484D01*
X112032D01*
X111016Y7500D01*
X112032Y8516D01*
X111016D01*
X110000Y9532D01*
X108984Y8516D01*
X107968D01*
X108984Y7500D01*
X107968Y6484D01*
X108984D01*
X110000Y5468D01*
X250000Y30468D02*
X251016Y31484D01*
X252032D01*
X251016Y32500D01*
X252032Y33516D01*
X251016D01*
X250000Y34532D01*
X248984Y33516D01*
X247968D01*
X248984Y32500D01*
X247968Y31484D01*
X248984D01*
X250000Y30468D01*
X225000D02*
X226016Y31484D01*
X227032D01*
X226016Y32500D01*
X227032Y33516D01*
X226016D01*
X225000Y34532D01*
X223984Y33516D01*
X222968D01*
X223984Y32500D01*
X222968Y31484D01*
X223984D01*
X225000Y30468D01*
X150000D02*
X151016Y31484D01*
X152032D01*
X151016Y32500D01*
X152032Y33516D01*
X151016D01*
X150000Y34532D01*
X148984Y33516D01*
X147968D01*
X148984Y32500D01*
X147968Y31484D01*
X148984D01*
X150000Y30468D01*
X225000Y52968D02*
X226016Y53984D01*
X227032D01*
X226016Y55000D01*
X227032Y56016D01*
X226016D01*
X225000Y57032D01*
X223984Y56016D01*
X222968D01*
X223984Y55000D01*
X222968Y53984D01*
X223984D01*
X225000Y52968D01*
X320000Y145468D02*
X321016Y146484D01*
X322032D01*
X321016Y147500D01*
X322032Y148516D01*
X321016D01*
X320000Y149532D01*
X318984Y148516D01*
X317968D01*
X318984Y147500D01*
X317968Y146484D01*
X318984D01*
X320000Y145468D01*
X305000D02*
X306016Y146484D01*
X307032D01*
X306016Y147500D01*
X307032Y148516D01*
X306016D01*
X305000Y149532D01*
X303984Y148516D01*
X302968D01*
X303984Y147500D01*
X302968Y146484D01*
X303984D01*
X305000Y145468D01*
X290000D02*
X291016Y146484D01*
X292032D01*
X291016Y147500D01*
X292032Y148516D01*
X291016D01*
X290000Y149532D01*
X288984Y148516D01*
X287968D01*
X288984Y147500D01*
X287968Y146484D01*
X288984D01*
X290000Y145468D01*
X275000D02*
X276016Y146484D01*
X277032D01*
X276016Y147500D01*
X277032Y148516D01*
X276016D01*
X275000Y149532D01*
X273984Y148516D01*
X272968D01*
X273984Y147500D01*
X272968Y146484D01*
X273984D01*
X275000Y145468D01*
X260000D02*
X261016Y146484D01*
X262032D01*
X261016Y147500D01*
X262032Y148516D01*
X261016D01*
X260000Y149532D01*
X258984Y148516D01*
X257968D01*
X258984Y147500D01*
X257968Y146484D01*
X258984D01*
X260000Y145468D01*
X245000D02*
X246016Y146484D01*
X247032D01*
X246016Y147500D01*
X247032Y148516D01*
X246016D01*
X245000Y149532D01*
X243984Y148516D01*
X242968D01*
X243984Y147500D01*
X242968Y146484D01*
X243984D01*
X245000Y145468D01*
X230000D02*
X231016Y146484D01*
X232032D01*
X231016Y147500D01*
X232032Y148516D01*
X231016D01*
X230000Y149532D01*
X228984Y148516D01*
X227968D01*
X228984Y147500D01*
X227968Y146484D01*
X228984D01*
X230000Y145468D01*
X180000Y85468D02*
X181016Y86484D01*
X182032D01*
X181016Y87500D01*
X182032Y88516D01*
X181016D01*
X180000Y89532D01*
X178984Y88516D01*
X177968D01*
X178984Y87500D01*
X177968Y86484D01*
X178984D01*
X180000Y85468D01*
X45000Y87968D02*
X46016Y88984D01*
X47032D01*
X46016Y90000D01*
X47032Y91016D01*
X46016D01*
X45000Y92032D01*
X43984Y91016D01*
X42968D01*
X43984Y90000D01*
X42968Y88984D01*
X43984D01*
X45000Y87968D01*
X57500Y100468D02*
X58516Y101484D01*
X59532D01*
X58516Y102500D01*
X59532Y103516D01*
X58516D01*
X57500Y104532D01*
X56484Y103516D01*
X55468D01*
X56484Y102500D01*
X55468Y101484D01*
X56484D01*
X57500Y100468D01*
X35000D02*
X36016Y101484D01*
X37032D01*
X36016Y102500D01*
X37032Y103516D01*
X36016D01*
X35000Y104532D01*
X33984Y103516D01*
X32968D01*
X33984Y102500D01*
X32968Y101484D01*
X33984D01*
X35000Y100468D01*
X7500Y45468D02*
X8516Y46484D01*
X9532D01*
X8516Y47500D01*
X9532Y48516D01*
X8516D01*
X7500Y49532D01*
X6484Y48516D01*
X5468D01*
X6484Y47500D01*
X5468Y46484D01*
X6484D01*
X7500Y45468D01*
X50000Y5468D02*
X51016Y6484D01*
X52032D01*
X51016Y7500D01*
X52032Y8516D01*
X51016D01*
X50000Y9532D01*
X48984Y8516D01*
X47968D01*
X48984Y7500D01*
X47968Y6484D01*
X48984D01*
X50000Y5468D01*
X65000D02*
X66016Y6484D01*
X67032D01*
X66016Y7500D01*
X67032Y8516D01*
X66016D01*
X65000Y9532D01*
X63984Y8516D01*
X62968D01*
X63984Y7500D01*
X62968Y6484D01*
X63984D01*
X65000Y5468D01*
X80000D02*
X81016Y6484D01*
X82032D01*
X81016Y7500D01*
X82032Y8516D01*
X81016D01*
X80000Y9532D01*
X78984Y8516D01*
X77968D01*
X78984Y7500D01*
X77968Y6484D01*
X78984D01*
X80000Y5468D01*
X95000D02*
X96016Y6484D01*
X97032D01*
X96016Y7500D01*
X97032Y8516D01*
X96016D01*
X95000Y9532D01*
X93984Y8516D01*
X92968D01*
X93984Y7500D01*
X92968Y6484D01*
X93984D01*
X95000Y5468D01*
X305000D02*
X306016Y6484D01*
X307032D01*
X306016Y7500D01*
X307032Y8516D01*
X306016D01*
X305000Y9532D01*
X303984Y8516D01*
X302968D01*
X303984Y7500D01*
X302968Y6484D01*
X303984D01*
X305000Y5468D01*
X350000D02*
X351016Y6484D01*
X352032D01*
X351016Y7500D01*
X352032Y8516D01*
X351016D01*
X350000Y9532D01*
X348984Y8516D01*
X347968D01*
X348984Y7500D01*
X347968Y6484D01*
X348984D01*
X350000Y5468D01*
Y15468D02*
X351016Y16484D01*
X352032D01*
X351016Y17500D01*
X352032Y18516D01*
X351016D01*
X350000Y19532D01*
X348984Y18516D01*
X347968D01*
X348984Y17500D01*
X347968Y16484D01*
X348984D01*
X350000Y15468D01*
X305000D02*
X306016Y16484D01*
X307032D01*
X306016Y17500D01*
X307032Y18516D01*
X306016D01*
X305000Y19532D01*
X303984Y18516D01*
X302968D01*
X303984Y17500D01*
X302968Y16484D01*
X303984D01*
X305000Y15468D01*
X95000D02*
X96016Y16484D01*
X97032D01*
X96016Y17500D01*
X97032Y18516D01*
X96016D01*
X95000Y19532D01*
X93984Y18516D01*
X92968D01*
X93984Y17500D01*
X92968Y16484D01*
X93984D01*
X95000Y15468D01*
X80000D02*
X81016Y16484D01*
X82032D01*
X81016Y17500D01*
X82032Y18516D01*
X81016D01*
X80000Y19532D01*
X78984Y18516D01*
X77968D01*
X78984Y17500D01*
X77968Y16484D01*
X78984D01*
X80000Y15468D01*
X65000D02*
X66016Y16484D01*
X67032D01*
X66016Y17500D01*
X67032Y18516D01*
X66016D01*
X65000Y19532D01*
X63984Y18516D01*
X62968D01*
X63984Y17500D01*
X62968Y16484D01*
X63984D01*
X65000Y15468D01*
X50000D02*
X51016Y16484D01*
X52032D01*
X51016Y17500D01*
X52032Y18516D01*
X51016D01*
X50000Y19532D01*
X48984Y18516D01*
X47968D01*
X48984Y17500D01*
X47968Y16484D01*
X48984D01*
X50000Y15468D01*
X380000Y210468D02*
X381016Y211484D01*
X382032D01*
X381016Y212500D01*
X382032Y213516D01*
X381016D01*
X380000Y214532D01*
X378984Y213516D01*
X377968D01*
X378984Y212500D01*
X377968Y211484D01*
X378984D01*
X380000Y210468D01*
Y195468D02*
X381016Y196484D01*
X382032D01*
X381016Y197500D01*
X382032Y198516D01*
X381016D01*
X380000Y199532D01*
X378984Y198516D01*
X377968D01*
X378984Y197500D01*
X377968Y196484D01*
X378984D01*
X380000Y195468D01*
Y180468D02*
X381016Y181484D01*
X382032D01*
X381016Y182500D01*
X382032Y183516D01*
X381016D01*
X380000Y184532D01*
X378984Y183516D01*
X377968D01*
X378984Y182500D01*
X377968Y181484D01*
X378984D01*
X380000Y180468D01*
Y165468D02*
X381016Y166484D01*
X382032D01*
X381016Y167500D01*
X382032Y168516D01*
X381016D01*
X380000Y169532D01*
X378984Y168516D01*
X377968D01*
X378984Y167500D01*
X377968Y166484D01*
X378984D01*
X380000Y165468D01*
Y75468D02*
X381016Y76484D01*
X382032D01*
X381016Y77500D01*
X382032Y78516D01*
X381016D01*
X380000Y79532D01*
X378984Y78516D01*
X377968D01*
X378984Y77500D01*
X377968Y76484D01*
X378984D01*
X380000Y75468D01*
Y60468D02*
X381016Y61484D01*
X382032D01*
X381016Y62500D01*
X382032Y63516D01*
X381016D01*
X380000Y64532D01*
X378984Y63516D01*
X377968D01*
X378984Y62500D01*
X377968Y61484D01*
X378984D01*
X380000Y60468D01*
Y45468D02*
X381016Y46484D01*
X382032D01*
X381016Y47500D01*
X382032Y48516D01*
X381016D01*
X380000Y49532D01*
X378984Y48516D01*
X377968D01*
X378984Y47500D01*
X377968Y46484D01*
X378984D01*
X380000Y45468D01*
X365000Y210468D02*
X366016Y211484D01*
X367032D01*
X366016Y212500D01*
X367032Y213516D01*
X366016D01*
X365000Y214532D01*
X363984Y213516D01*
X362968D01*
X363984Y212500D01*
X362968Y211484D01*
X363984D01*
X365000Y210468D01*
Y195468D02*
X366016Y196484D01*
X367032D01*
X366016Y197500D01*
X367032Y198516D01*
X366016D01*
X365000Y199532D01*
X363984Y198516D01*
X362968D01*
X363984Y197500D01*
X362968Y196484D01*
X363984D01*
X365000Y195468D01*
Y180468D02*
X366016Y181484D01*
X367032D01*
X366016Y182500D01*
X367032Y183516D01*
X366016D01*
X365000Y184532D01*
X363984Y183516D01*
X362968D01*
X363984Y182500D01*
X362968Y181484D01*
X363984D01*
X365000Y180468D01*
Y165468D02*
X366016Y166484D01*
X367032D01*
X366016Y167500D01*
X367032Y168516D01*
X366016D01*
X365000Y169532D01*
X363984Y168516D01*
X362968D01*
X363984Y167500D01*
X362968Y166484D01*
X363984D01*
X365000Y165468D01*
Y75468D02*
X366016Y76484D01*
X367032D01*
X366016Y77500D01*
X367032Y78516D01*
X366016D01*
X365000Y79532D01*
X363984Y78516D01*
X362968D01*
X363984Y77500D01*
X362968Y76484D01*
X363984D01*
X365000Y75468D01*
Y60468D02*
X366016Y61484D01*
X367032D01*
X366016Y62500D01*
X367032Y63516D01*
X366016D01*
X365000Y64532D01*
X363984Y63516D01*
X362968D01*
X363984Y62500D01*
X362968Y61484D01*
X363984D01*
X365000Y60468D01*
Y45468D02*
X366016Y46484D01*
X367032D01*
X366016Y47500D01*
X367032Y48516D01*
X366016D01*
X365000Y49532D01*
X363984Y48516D01*
X362968D01*
X363984Y47500D01*
X362968Y46484D01*
X363984D01*
X365000Y45468D01*
X350000Y210468D02*
X351016Y211484D01*
X352032D01*
X351016Y212500D01*
X352032Y213516D01*
X351016D01*
X350000Y214532D01*
X348984Y213516D01*
X347968D01*
X348984Y212500D01*
X347968Y211484D01*
X348984D01*
X350000Y210468D01*
Y195468D02*
X351016Y196484D01*
X352032D01*
X351016Y197500D01*
X352032Y198516D01*
X351016D01*
X350000Y199532D01*
X348984Y198516D01*
X347968D01*
X348984Y197500D01*
X347968Y196484D01*
X348984D01*
X350000Y195468D01*
Y180468D02*
X351016Y181484D01*
X352032D01*
X351016Y182500D01*
X352032Y183516D01*
X351016D01*
X350000Y184532D01*
X348984Y183516D01*
X347968D01*
X348984Y182500D01*
X347968Y181484D01*
X348984D01*
X350000Y180468D01*
Y165468D02*
X351016Y166484D01*
X352032D01*
X351016Y167500D01*
X352032Y168516D01*
X351016D01*
X350000Y169532D01*
X348984Y168516D01*
X347968D01*
X348984Y167500D01*
X347968Y166484D01*
X348984D01*
X350000Y165468D01*
Y105468D02*
X351016Y106484D01*
X352032D01*
X351016Y107500D01*
X352032Y108516D01*
X351016D01*
X350000Y109532D01*
X348984Y108516D01*
X347968D01*
X348984Y107500D01*
X347968Y106484D01*
X348984D01*
X350000Y105468D01*
Y75468D02*
X351016Y76484D01*
X352032D01*
X351016Y77500D01*
X352032Y78516D01*
X351016D01*
X350000Y79532D01*
X348984Y78516D01*
X347968D01*
X348984Y77500D01*
X347968Y76484D01*
X348984D01*
X350000Y75468D01*
Y60468D02*
X351016Y61484D01*
X352032D01*
X351016Y62500D01*
X352032Y63516D01*
X351016D01*
X350000Y64532D01*
X348984Y63516D01*
X347968D01*
X348984Y62500D01*
X347968Y61484D01*
X348984D01*
X350000Y60468D01*
Y45468D02*
X351016Y46484D01*
X352032D01*
X351016Y47500D01*
X352032Y48516D01*
X351016D01*
X350000Y49532D01*
X348984Y48516D01*
X347968D01*
X348984Y47500D01*
X347968Y46484D01*
X348984D01*
X350000Y45468D01*
Y30468D02*
X351016Y31484D01*
X352032D01*
X351016Y32500D01*
X352032Y33516D01*
X351016D01*
X350000Y34532D01*
X348984Y33516D01*
X347968D01*
X348984Y32500D01*
X347968Y31484D01*
X348984D01*
X350000Y30468D01*
X335000Y210468D02*
X336016Y211484D01*
X337032D01*
X336016Y212500D01*
X337032Y213516D01*
X336016D01*
X335000Y214532D01*
X333984Y213516D01*
X332968D01*
X333984Y212500D01*
X332968Y211484D01*
X333984D01*
X335000Y210468D01*
Y195468D02*
X336016Y196484D01*
X337032D01*
X336016Y197500D01*
X337032Y198516D01*
X336016D01*
X335000Y199532D01*
X333984Y198516D01*
X332968D01*
X333984Y197500D01*
X332968Y196484D01*
X333984D01*
X335000Y195468D01*
Y180468D02*
X336016Y181484D01*
X337032D01*
X336016Y182500D01*
X337032Y183516D01*
X336016D01*
X335000Y184532D01*
X333984Y183516D01*
X332968D01*
X333984Y182500D01*
X332968Y181484D01*
X333984D01*
X335000Y180468D01*
Y165468D02*
X336016Y166484D01*
X337032D01*
X336016Y167500D01*
X337032Y168516D01*
X336016D01*
X335000Y169532D01*
X333984Y168516D01*
X332968D01*
X333984Y167500D01*
X332968Y166484D01*
X333984D01*
X335000Y165468D01*
Y45468D02*
X336016Y46484D01*
X337032D01*
X336016Y47500D01*
X337032Y48516D01*
X336016D01*
X335000Y49532D01*
X333984Y48516D01*
X332968D01*
X333984Y47500D01*
X332968Y46484D01*
X333984D01*
X335000Y45468D01*
Y30468D02*
X336016Y31484D01*
X337032D01*
X336016Y32500D01*
X337032Y33516D01*
X336016D01*
X335000Y34532D01*
X333984Y33516D01*
X332968D01*
X333984Y32500D01*
X332968Y31484D01*
X333984D01*
X335000Y30468D01*
X320000Y210468D02*
X321016Y211484D01*
X322032D01*
X321016Y212500D01*
X322032Y213516D01*
X321016D01*
X320000Y214532D01*
X318984Y213516D01*
X317968D01*
X318984Y212500D01*
X317968Y211484D01*
X318984D01*
X320000Y210468D01*
Y195468D02*
X321016Y196484D01*
X322032D01*
X321016Y197500D01*
X322032Y198516D01*
X321016D01*
X320000Y199532D01*
X318984Y198516D01*
X317968D01*
X318984Y197500D01*
X317968Y196484D01*
X318984D01*
X320000Y195468D01*
Y180468D02*
X321016Y181484D01*
X322032D01*
X321016Y182500D01*
X322032Y183516D01*
X321016D01*
X320000Y184532D01*
X318984Y183516D01*
X317968D01*
X318984Y182500D01*
X317968Y181484D01*
X318984D01*
X320000Y180468D01*
Y120468D02*
X321016Y121484D01*
X322032D01*
X321016Y122500D01*
X322032Y123516D01*
X321016D01*
X320000Y124532D01*
X318984Y123516D01*
X317968D01*
X318984Y122500D01*
X317968Y121484D01*
X318984D01*
X320000Y120468D01*
Y105468D02*
X321016Y106484D01*
X322032D01*
X321016Y107500D01*
X322032Y108516D01*
X321016D01*
X320000Y109532D01*
X318984Y108516D01*
X317968D01*
X318984Y107500D01*
X317968Y106484D01*
X318984D01*
X320000Y105468D01*
Y90468D02*
X321016Y91484D01*
X322032D01*
X321016Y92500D01*
X322032Y93516D01*
X321016D01*
X320000Y94532D01*
X318984Y93516D01*
X317968D01*
X318984Y92500D01*
X317968Y91484D01*
X318984D01*
X320000Y90468D01*
Y75468D02*
X321016Y76484D01*
X322032D01*
X321016Y77500D01*
X322032Y78516D01*
X321016D01*
X320000Y79532D01*
X318984Y78516D01*
X317968D01*
X318984Y77500D01*
X317968Y76484D01*
X318984D01*
X320000Y75468D01*
Y60468D02*
X321016Y61484D01*
X322032D01*
X321016Y62500D01*
X322032Y63516D01*
X321016D01*
X320000Y64532D01*
X318984Y63516D01*
X317968D01*
X318984Y62500D01*
X317968Y61484D01*
X318984D01*
X320000Y60468D01*
Y30468D02*
X321016Y31484D01*
X322032D01*
X321016Y32500D01*
X322032Y33516D01*
X321016D01*
X320000Y34532D01*
X318984Y33516D01*
X317968D01*
X318984Y32500D01*
X317968Y31484D01*
X318984D01*
X320000Y30468D01*
X305000Y210468D02*
X306016Y211484D01*
X307032D01*
X306016Y212500D01*
X307032Y213516D01*
X306016D01*
X305000Y214532D01*
X303984Y213516D01*
X302968D01*
X303984Y212500D01*
X302968Y211484D01*
X303984D01*
X305000Y210468D01*
Y195468D02*
X306016Y196484D01*
X307032D01*
X306016Y197500D01*
X307032Y198516D01*
X306016D01*
X305000Y199532D01*
X303984Y198516D01*
X302968D01*
X303984Y197500D01*
X302968Y196484D01*
X303984D01*
X305000Y195468D01*
Y165468D02*
X306016Y166484D01*
X307032D01*
X306016Y167500D01*
X307032Y168516D01*
X306016D01*
X305000Y169532D01*
X303984Y168516D01*
X302968D01*
X303984Y167500D01*
X302968Y166484D01*
X303984D01*
X305000Y165468D01*
Y120468D02*
X306016Y121484D01*
X307032D01*
X306016Y122500D01*
X307032Y123516D01*
X306016D01*
X305000Y124532D01*
X303984Y123516D01*
X302968D01*
X303984Y122500D01*
X302968Y121484D01*
X303984D01*
X305000Y120468D01*
Y105468D02*
X306016Y106484D01*
X307032D01*
X306016Y107500D01*
X307032Y108516D01*
X306016D01*
X305000Y109532D01*
X303984Y108516D01*
X302968D01*
X303984Y107500D01*
X302968Y106484D01*
X303984D01*
X305000Y105468D01*
Y90468D02*
X306016Y91484D01*
X307032D01*
X306016Y92500D01*
X307032Y93516D01*
X306016D01*
X305000Y94532D01*
X303984Y93516D01*
X302968D01*
X303984Y92500D01*
X302968Y91484D01*
X303984D01*
X305000Y90468D01*
Y75468D02*
X306016Y76484D01*
X307032D01*
X306016Y77500D01*
X307032Y78516D01*
X306016D01*
X305000Y79532D01*
X303984Y78516D01*
X302968D01*
X303984Y77500D01*
X302968Y76484D01*
X303984D01*
X305000Y75468D01*
Y60468D02*
X306016Y61484D01*
X307032D01*
X306016Y62500D01*
X307032Y63516D01*
X306016D01*
X305000Y64532D01*
X303984Y63516D01*
X302968D01*
X303984Y62500D01*
X302968Y61484D01*
X303984D01*
X305000Y60468D01*
Y30468D02*
X306016Y31484D01*
X307032D01*
X306016Y32500D01*
X307032Y33516D01*
X306016D01*
X305000Y34532D01*
X303984Y33516D01*
X302968D01*
X303984Y32500D01*
X302968Y31484D01*
X303984D01*
X305000Y30468D01*
X290000Y210468D02*
X291016Y211484D01*
X292032D01*
X291016Y212500D01*
X292032Y213516D01*
X291016D01*
X290000Y214532D01*
X288984Y213516D01*
X287968D01*
X288984Y212500D01*
X287968Y211484D01*
X288984D01*
X290000Y210468D01*
Y180468D02*
X291016Y181484D01*
X292032D01*
X291016Y182500D01*
X292032Y183516D01*
X291016D01*
X290000Y184532D01*
X288984Y183516D01*
X287968D01*
X288984Y182500D01*
X287968Y181484D01*
X288984D01*
X290000Y180468D01*
Y165468D02*
X291016Y166484D01*
X292032D01*
X291016Y167500D01*
X292032Y168516D01*
X291016D01*
X290000Y169532D01*
X288984Y168516D01*
X287968D01*
X288984Y167500D01*
X287968Y166484D01*
X288984D01*
X290000Y165468D01*
Y120468D02*
X291016Y121484D01*
X292032D01*
X291016Y122500D01*
X292032Y123516D01*
X291016D01*
X290000Y124532D01*
X288984Y123516D01*
X287968D01*
X288984Y122500D01*
X287968Y121484D01*
X288984D01*
X290000Y120468D01*
Y105468D02*
X291016Y106484D01*
X292032D01*
X291016Y107500D01*
X292032Y108516D01*
X291016D01*
X290000Y109532D01*
X288984Y108516D01*
X287968D01*
X288984Y107500D01*
X287968Y106484D01*
X288984D01*
X290000Y105468D01*
Y90468D02*
X291016Y91484D01*
X292032D01*
X291016Y92500D01*
X292032Y93516D01*
X291016D01*
X290000Y94532D01*
X288984Y93516D01*
X287968D01*
X288984Y92500D01*
X287968Y91484D01*
X288984D01*
X290000Y90468D01*
Y75468D02*
X291016Y76484D01*
X292032D01*
X291016Y77500D01*
X292032Y78516D01*
X291016D01*
X290000Y79532D01*
X288984Y78516D01*
X287968D01*
X288984Y77500D01*
X287968Y76484D01*
X288984D01*
X290000Y75468D01*
Y60468D02*
X291016Y61484D01*
X292032D01*
X291016Y62500D01*
X292032Y63516D01*
X291016D01*
X290000Y64532D01*
X288984Y63516D01*
X287968D01*
X288984Y62500D01*
X287968Y61484D01*
X288984D01*
X290000Y60468D01*
X275000Y210468D02*
X276016Y211484D01*
X277032D01*
X276016Y212500D01*
X277032Y213516D01*
X276016D01*
X275000Y214532D01*
X273984Y213516D01*
X272968D01*
X273984Y212500D01*
X272968Y211484D01*
X273984D01*
X275000Y210468D01*
Y180468D02*
X276016Y181484D01*
X277032D01*
X276016Y182500D01*
X277032Y183516D01*
X276016D01*
X275000Y184532D01*
X273984Y183516D01*
X272968D01*
X273984Y182500D01*
X272968Y181484D01*
X273984D01*
X275000Y180468D01*
Y165468D02*
X276016Y166484D01*
X277032D01*
X276016Y167500D01*
X277032Y168516D01*
X276016D01*
X275000Y169532D01*
X273984Y168516D01*
X272968D01*
X273984Y167500D01*
X272968Y166484D01*
X273984D01*
X275000Y165468D01*
Y120468D02*
X276016Y121484D01*
X277032D01*
X276016Y122500D01*
X277032Y123516D01*
X276016D01*
X275000Y124532D01*
X273984Y123516D01*
X272968D01*
X273984Y122500D01*
X272968Y121484D01*
X273984D01*
X275000Y120468D01*
Y105468D02*
X276016Y106484D01*
X277032D01*
X276016Y107500D01*
X277032Y108516D01*
X276016D01*
X275000Y109532D01*
X273984Y108516D01*
X272968D01*
X273984Y107500D01*
X272968Y106484D01*
X273984D01*
X275000Y105468D01*
Y90468D02*
X276016Y91484D01*
X277032D01*
X276016Y92500D01*
X277032Y93516D01*
X276016D01*
X275000Y94532D01*
X273984Y93516D01*
X272968D01*
X273984Y92500D01*
X272968Y91484D01*
X273984D01*
X275000Y90468D01*
Y75468D02*
X276016Y76484D01*
X277032D01*
X276016Y77500D01*
X277032Y78516D01*
X276016D01*
X275000Y79532D01*
X273984Y78516D01*
X272968D01*
X273984Y77500D01*
X272968Y76484D01*
X273984D01*
X275000Y75468D01*
Y60468D02*
X276016Y61484D01*
X277032D01*
X276016Y62500D01*
X277032Y63516D01*
X276016D01*
X275000Y64532D01*
X273984Y63516D01*
X272968D01*
X273984Y62500D01*
X272968Y61484D01*
X273984D01*
X275000Y60468D01*
Y45468D02*
X276016Y46484D01*
X277032D01*
X276016Y47500D01*
X277032Y48516D01*
X276016D01*
X275000Y49532D01*
X273984Y48516D01*
X272968D01*
X273984Y47500D01*
X272968Y46484D01*
X273984D01*
X275000Y45468D01*
Y30468D02*
X276016Y31484D01*
X277032D01*
X276016Y32500D01*
X277032Y33516D01*
X276016D01*
X275000Y34532D01*
X273984Y33516D01*
X272968D01*
X273984Y32500D01*
X272968Y31484D01*
X273984D01*
X275000Y30468D01*
X260000Y210468D02*
X261016Y211484D01*
X262032D01*
X261016Y212500D01*
X262032Y213516D01*
X261016D01*
X260000Y214532D01*
X258984Y213516D01*
X257968D01*
X258984Y212500D01*
X257968Y211484D01*
X258984D01*
X260000Y210468D01*
Y180468D02*
X261016Y181484D01*
X262032D01*
X261016Y182500D01*
X262032Y183516D01*
X261016D01*
X260000Y184532D01*
X258984Y183516D01*
X257968D01*
X258984Y182500D01*
X257968Y181484D01*
X258984D01*
X260000Y180468D01*
Y165468D02*
X261016Y166484D01*
X262032D01*
X261016Y167500D01*
X262032Y168516D01*
X261016D01*
X260000Y169532D01*
X258984Y168516D01*
X257968D01*
X258984Y167500D01*
X257968Y166484D01*
X258984D01*
X260000Y165468D01*
Y120468D02*
X261016Y121484D01*
X262032D01*
X261016Y122500D01*
X262032Y123516D01*
X261016D01*
X260000Y124532D01*
X258984Y123516D01*
X257968D01*
X258984Y122500D01*
X257968Y121484D01*
X258984D01*
X260000Y120468D01*
Y105468D02*
X261016Y106484D01*
X262032D01*
X261016Y107500D01*
X262032Y108516D01*
X261016D01*
X260000Y109532D01*
X258984Y108516D01*
X257968D01*
X258984Y107500D01*
X257968Y106484D01*
X258984D01*
X260000Y105468D01*
Y75468D02*
X261016Y76484D01*
X262032D01*
X261016Y77500D01*
X262032Y78516D01*
X261016D01*
X260000Y79532D01*
X258984Y78516D01*
X257968D01*
X258984Y77500D01*
X257968Y76484D01*
X258984D01*
X260000Y75468D01*
X245000Y210468D02*
X246016Y211484D01*
X247032D01*
X246016Y212500D01*
X247032Y213516D01*
X246016D01*
X245000Y214532D01*
X243984Y213516D01*
X242968D01*
X243984Y212500D01*
X242968Y211484D01*
X243984D01*
X245000Y210468D01*
Y180468D02*
X246016Y181484D01*
X247032D01*
X246016Y182500D01*
X247032Y183516D01*
X246016D01*
X245000Y184532D01*
X243984Y183516D01*
X242968D01*
X243984Y182500D01*
X242968Y181484D01*
X243984D01*
X245000Y180468D01*
Y165468D02*
X246016Y166484D01*
X247032D01*
X246016Y167500D01*
X247032Y168516D01*
X246016D01*
X245000Y169532D01*
X243984Y168516D01*
X242968D01*
X243984Y167500D01*
X242968Y166484D01*
X243984D01*
X245000Y165468D01*
Y120468D02*
X246016Y121484D01*
X247032D01*
X246016Y122500D01*
X247032Y123516D01*
X246016D01*
X245000Y124532D01*
X243984Y123516D01*
X242968D01*
X243984Y122500D01*
X242968Y121484D01*
X243984D01*
X245000Y120468D01*
Y75468D02*
X246016Y76484D01*
X247032D01*
X246016Y77500D01*
X247032Y78516D01*
X246016D01*
X245000Y79532D01*
X243984Y78516D01*
X242968D01*
X243984Y77500D01*
X242968Y76484D01*
X243984D01*
X245000Y75468D01*
Y60468D02*
X246016Y61484D01*
X247032D01*
X246016Y62500D01*
X247032Y63516D01*
X246016D01*
X245000Y64532D01*
X243984Y63516D01*
X242968D01*
X243984Y62500D01*
X242968Y61484D01*
X243984D01*
X245000Y60468D01*
X230000Y210468D02*
X231016Y211484D01*
X232032D01*
X231016Y212500D01*
X232032Y213516D01*
X231016D01*
X230000Y214532D01*
X228984Y213516D01*
X227968D01*
X228984Y212500D01*
X227968Y211484D01*
X228984D01*
X230000Y210468D01*
Y180468D02*
X231016Y181484D01*
X232032D01*
X231016Y182500D01*
X232032Y183516D01*
X231016D01*
X230000Y184532D01*
X228984Y183516D01*
X227968D01*
X228984Y182500D01*
X227968Y181484D01*
X228984D01*
X230000Y180468D01*
Y165468D02*
X231016Y166484D01*
X232032D01*
X231016Y167500D01*
X232032Y168516D01*
X231016D01*
X230000Y169532D01*
X228984Y168516D01*
X227968D01*
X228984Y167500D01*
X227968Y166484D01*
X228984D01*
X230000Y165468D01*
Y120468D02*
X231016Y121484D01*
X232032D01*
X231016Y122500D01*
X232032Y123516D01*
X231016D01*
X230000Y124532D01*
X228984Y123516D01*
X227968D01*
X228984Y122500D01*
X227968Y121484D01*
X228984D01*
X230000Y120468D01*
Y105468D02*
X231016Y106484D01*
X232032D01*
X231016Y107500D01*
X232032Y108516D01*
X231016D01*
X230000Y109532D01*
X228984Y108516D01*
X227968D01*
X228984Y107500D01*
X227968Y106484D01*
X228984D01*
X230000Y105468D01*
Y90468D02*
X231016Y91484D01*
X232032D01*
X231016Y92500D01*
X232032Y93516D01*
X231016D01*
X230000Y94532D01*
X228984Y93516D01*
X227968D01*
X228984Y92500D01*
X227968Y91484D01*
X228984D01*
X230000Y90468D01*
Y75468D02*
X231016Y76484D01*
X232032D01*
X231016Y77500D01*
X232032Y78516D01*
X231016D01*
X230000Y79532D01*
X228984Y78516D01*
X227968D01*
X228984Y77500D01*
X227968Y76484D01*
X228984D01*
X230000Y75468D01*
X215000Y210468D02*
X216016Y211484D01*
X217032D01*
X216016Y212500D01*
X217032Y213516D01*
X216016D01*
X215000Y214532D01*
X213984Y213516D01*
X212968D01*
X213984Y212500D01*
X212968Y211484D01*
X213984D01*
X215000Y210468D01*
Y180468D02*
X216016Y181484D01*
X217032D01*
X216016Y182500D01*
X217032Y183516D01*
X216016D01*
X215000Y184532D01*
X213984Y183516D01*
X212968D01*
X213984Y182500D01*
X212968Y181484D01*
X213984D01*
X215000Y180468D01*
Y165468D02*
X216016Y166484D01*
X217032D01*
X216016Y167500D01*
X217032Y168516D01*
X216016D01*
X215000Y169532D01*
X213984Y168516D01*
X212968D01*
X213984Y167500D01*
X212968Y166484D01*
X213984D01*
X215000Y165468D01*
Y120468D02*
X216016Y121484D01*
X217032D01*
X216016Y122500D01*
X217032Y123516D01*
X216016D01*
X215000Y124532D01*
X213984Y123516D01*
X212968D01*
X213984Y122500D01*
X212968Y121484D01*
X213984D01*
X215000Y120468D01*
X200000Y210468D02*
X201016Y211484D01*
X202032D01*
X201016Y212500D01*
X202032Y213516D01*
X201016D01*
X200000Y214532D01*
X198984Y213516D01*
X197968D01*
X198984Y212500D01*
X197968Y211484D01*
X198984D01*
X200000Y210468D01*
Y180468D02*
X201016Y181484D01*
X202032D01*
X201016Y182500D01*
X202032Y183516D01*
X201016D01*
X200000Y184532D01*
X198984Y183516D01*
X197968D01*
X198984Y182500D01*
X197968Y181484D01*
X198984D01*
X200000Y180468D01*
Y165468D02*
X201016Y166484D01*
X202032D01*
X201016Y167500D01*
X202032Y168516D01*
X201016D01*
X200000Y169532D01*
X198984Y168516D01*
X197968D01*
X198984Y167500D01*
X197968Y166484D01*
X198984D01*
X200000Y165468D01*
Y120468D02*
X201016Y121484D01*
X202032D01*
X201016Y122500D01*
X202032Y123516D01*
X201016D01*
X200000Y124532D01*
X198984Y123516D01*
X197968D01*
X198984Y122500D01*
X197968Y121484D01*
X198984D01*
X200000Y120468D01*
Y60468D02*
X201016Y61484D01*
X202032D01*
X201016Y62500D01*
X202032Y63516D01*
X201016D01*
X200000Y64532D01*
X198984Y63516D01*
X197968D01*
X198984Y62500D01*
X197968Y61484D01*
X198984D01*
X200000Y60468D01*
Y30468D02*
X201016Y31484D01*
X202032D01*
X201016Y32500D01*
X202032Y33516D01*
X201016D01*
X200000Y34532D01*
X198984Y33516D01*
X197968D01*
X198984Y32500D01*
X197968Y31484D01*
X198984D01*
X200000Y30468D01*
X185000Y210468D02*
X186016Y211484D01*
X187032D01*
X186016Y212500D01*
X187032Y213516D01*
X186016D01*
X185000Y214532D01*
X183984Y213516D01*
X182968D01*
X183984Y212500D01*
X182968Y211484D01*
X183984D01*
X185000Y210468D01*
Y165468D02*
X186016Y166484D01*
X187032D01*
X186016Y167500D01*
X187032Y168516D01*
X186016D01*
X185000Y169532D01*
X183984Y168516D01*
X182968D01*
X183984Y167500D01*
X182968Y166484D01*
X183984D01*
X185000Y165468D01*
Y120468D02*
X186016Y121484D01*
X187032D01*
X186016Y122500D01*
X187032Y123516D01*
X186016D01*
X185000Y124532D01*
X183984Y123516D01*
X182968D01*
X183984Y122500D01*
X182968Y121484D01*
X183984D01*
X185000Y120468D01*
Y105468D02*
X186016Y106484D01*
X187032D01*
X186016Y107500D01*
X187032Y108516D01*
X186016D01*
X185000Y109532D01*
X183984Y108516D01*
X182968D01*
X183984Y107500D01*
X182968Y106484D01*
X183984D01*
X185000Y105468D01*
X170000Y210468D02*
X171016Y211484D01*
X172032D01*
X171016Y212500D01*
X172032Y213516D01*
X171016D01*
X170000Y214532D01*
X168984Y213516D01*
X167968D01*
X168984Y212500D01*
X167968Y211484D01*
X168984D01*
X170000Y210468D01*
Y120468D02*
X171016Y121484D01*
X172032D01*
X171016Y122500D01*
X172032Y123516D01*
X171016D01*
X170000Y124532D01*
X168984Y123516D01*
X167968D01*
X168984Y122500D01*
X167968Y121484D01*
X168984D01*
X170000Y120468D01*
Y105468D02*
X171016Y106484D01*
X172032D01*
X171016Y107500D01*
X172032Y108516D01*
X171016D01*
X170000Y109532D01*
X168984Y108516D01*
X167968D01*
X168984Y107500D01*
X167968Y106484D01*
X168984D01*
X170000Y105468D01*
Y60468D02*
X171016Y61484D01*
X172032D01*
X171016Y62500D01*
X172032Y63516D01*
X171016D01*
X170000Y64532D01*
X168984Y63516D01*
X167968D01*
X168984Y62500D01*
X167968Y61484D01*
X168984D01*
X170000Y60468D01*
X155000Y210468D02*
X156016Y211484D01*
X157032D01*
X156016Y212500D01*
X157032Y213516D01*
X156016D01*
X155000Y214532D01*
X153984Y213516D01*
X152968D01*
X153984Y212500D01*
X152968Y211484D01*
X153984D01*
X155000Y210468D01*
Y120468D02*
X156016Y121484D01*
X157032D01*
X156016Y122500D01*
X157032Y123516D01*
X156016D01*
X155000Y124532D01*
X153984Y123516D01*
X152968D01*
X153984Y122500D01*
X152968Y121484D01*
X153984D01*
X155000Y120468D01*
Y60468D02*
X156016Y61484D01*
X157032D01*
X156016Y62500D01*
X157032Y63516D01*
X156016D01*
X155000Y64532D01*
X153984Y63516D01*
X152968D01*
X153984Y62500D01*
X152968Y61484D01*
X153984D01*
X155000Y60468D01*
X140000Y210468D02*
X141016Y211484D01*
X142032D01*
X141016Y212500D01*
X142032Y213516D01*
X141016D01*
X140000Y214532D01*
X138984Y213516D01*
X137968D01*
X138984Y212500D01*
X137968Y211484D01*
X138984D01*
X140000Y210468D01*
Y135468D02*
X141016Y136484D01*
X142032D01*
X141016Y137500D01*
X142032Y138516D01*
X141016D01*
X140000Y139532D01*
X138984Y138516D01*
X137968D01*
X138984Y137500D01*
X137968Y136484D01*
X138984D01*
X140000Y135468D01*
Y90468D02*
X141016Y91484D01*
X142032D01*
X141016Y92500D01*
X142032Y93516D01*
X141016D01*
X140000Y94532D01*
X138984Y93516D01*
X137968D01*
X138984Y92500D01*
X137968Y91484D01*
X138984D01*
X140000Y90468D01*
X125000Y210468D02*
X126016Y211484D01*
X127032D01*
X126016Y212500D01*
X127032Y213516D01*
X126016D01*
X125000Y214532D01*
X123984Y213516D01*
X122968D01*
X123984Y212500D01*
X122968Y211484D01*
X123984D01*
X125000Y210468D01*
Y105468D02*
X126016Y106484D01*
X127032D01*
X126016Y107500D01*
X127032Y108516D01*
X126016D01*
X125000Y109532D01*
X123984Y108516D01*
X122968D01*
X123984Y107500D01*
X122968Y106484D01*
X123984D01*
X125000Y105468D01*
Y75468D02*
X126016Y76484D01*
X127032D01*
X126016Y77500D01*
X127032Y78516D01*
X126016D01*
X125000Y79532D01*
X123984Y78516D01*
X122968D01*
X123984Y77500D01*
X122968Y76484D01*
X123984D01*
X125000Y75468D01*
Y60468D02*
X126016Y61484D01*
X127032D01*
X126016Y62500D01*
X127032Y63516D01*
X126016D01*
X125000Y64532D01*
X123984Y63516D01*
X122968D01*
X123984Y62500D01*
X122968Y61484D01*
X123984D01*
X125000Y60468D01*
Y45468D02*
X126016Y46484D01*
X127032D01*
X126016Y47500D01*
X127032Y48516D01*
X126016D01*
X125000Y49532D01*
X123984Y48516D01*
X122968D01*
X123984Y47500D01*
X122968Y46484D01*
X123984D01*
X125000Y45468D01*
Y30468D02*
X126016Y31484D01*
X127032D01*
X126016Y32500D01*
X127032Y33516D01*
X126016D01*
X125000Y34532D01*
X123984Y33516D01*
X122968D01*
X123984Y32500D01*
X122968Y31484D01*
X123984D01*
X125000Y30468D01*
X110000Y210468D02*
X111016Y211484D01*
X112032D01*
X111016Y212500D01*
X112032Y213516D01*
X111016D01*
X110000Y214532D01*
X108984Y213516D01*
X107968D01*
X108984Y212500D01*
X107968Y211484D01*
X108984D01*
X110000Y210468D01*
Y195468D02*
X111016Y196484D01*
X112032D01*
X111016Y197500D01*
X112032Y198516D01*
X111016D01*
X110000Y199532D01*
X108984Y198516D01*
X107968D01*
X108984Y197500D01*
X107968Y196484D01*
X108984D01*
X110000Y195468D01*
Y180468D02*
X111016Y181484D01*
X112032D01*
X111016Y182500D01*
X112032Y183516D01*
X111016D01*
X110000Y184532D01*
X108984Y183516D01*
X107968D01*
X108984Y182500D01*
X107968Y181484D01*
X108984D01*
X110000Y180468D01*
Y120468D02*
X111016Y121484D01*
X112032D01*
X111016Y122500D01*
X112032Y123516D01*
X111016D01*
X110000Y124532D01*
X108984Y123516D01*
X107968D01*
X108984Y122500D01*
X107968Y121484D01*
X108984D01*
X110000Y120468D01*
Y90468D02*
X111016Y91484D01*
X112032D01*
X111016Y92500D01*
X112032Y93516D01*
X111016D01*
X110000Y94532D01*
X108984Y93516D01*
X107968D01*
X108984Y92500D01*
X107968Y91484D01*
X108984D01*
X110000Y90468D01*
Y75468D02*
X111016Y76484D01*
X112032D01*
X111016Y77500D01*
X112032Y78516D01*
X111016D01*
X110000Y79532D01*
X108984Y78516D01*
X107968D01*
X108984Y77500D01*
X107968Y76484D01*
X108984D01*
X110000Y75468D01*
Y60468D02*
X111016Y61484D01*
X112032D01*
X111016Y62500D01*
X112032Y63516D01*
X111016D01*
X110000Y64532D01*
X108984Y63516D01*
X107968D01*
X108984Y62500D01*
X107968Y61484D01*
X108984D01*
X110000Y60468D01*
X95000Y210468D02*
X96016Y211484D01*
X97032D01*
X96016Y212500D01*
X97032Y213516D01*
X96016D01*
X95000Y214532D01*
X93984Y213516D01*
X92968D01*
X93984Y212500D01*
X92968Y211484D01*
X93984D01*
X95000Y210468D01*
Y195468D02*
X96016Y196484D01*
X97032D01*
X96016Y197500D01*
X97032Y198516D01*
X96016D01*
X95000Y199532D01*
X93984Y198516D01*
X92968D01*
X93984Y197500D01*
X92968Y196484D01*
X93984D01*
X95000Y195468D01*
Y180468D02*
X96016Y181484D01*
X97032D01*
X96016Y182500D01*
X97032Y183516D01*
X96016D01*
X95000Y184532D01*
X93984Y183516D01*
X92968D01*
X93984Y182500D01*
X92968Y181484D01*
X93984D01*
X95000Y180468D01*
Y165468D02*
X96016Y166484D01*
X97032D01*
X96016Y167500D01*
X97032Y168516D01*
X96016D01*
X95000Y169532D01*
X93984Y168516D01*
X92968D01*
X93984Y167500D01*
X92968Y166484D01*
X93984D01*
X95000Y165468D01*
Y90468D02*
X96016Y91484D01*
X97032D01*
X96016Y92500D01*
X97032Y93516D01*
X96016D01*
X95000Y94532D01*
X93984Y93516D01*
X92968D01*
X93984Y92500D01*
X92968Y91484D01*
X93984D01*
X95000Y90468D01*
Y75468D02*
X96016Y76484D01*
X97032D01*
X96016Y77500D01*
X97032Y78516D01*
X96016D01*
X95000Y79532D01*
X93984Y78516D01*
X92968D01*
X93984Y77500D01*
X92968Y76484D01*
X93984D01*
X95000Y75468D01*
Y60468D02*
X96016Y61484D01*
X97032D01*
X96016Y62500D01*
X97032Y63516D01*
X96016D01*
X95000Y64532D01*
X93984Y63516D01*
X92968D01*
X93984Y62500D01*
X92968Y61484D01*
X93984D01*
X95000Y60468D01*
Y45468D02*
X96016Y46484D01*
X97032D01*
X96016Y47500D01*
X97032Y48516D01*
X96016D01*
X95000Y49532D01*
X93984Y48516D01*
X92968D01*
X93984Y47500D01*
X92968Y46484D01*
X93984D01*
X95000Y45468D01*
X80000Y210468D02*
X81016Y211484D01*
X82032D01*
X81016Y212500D01*
X82032Y213516D01*
X81016D01*
X80000Y214532D01*
X78984Y213516D01*
X77968D01*
X78984Y212500D01*
X77968Y211484D01*
X78984D01*
X80000Y210468D01*
Y195468D02*
X81016Y196484D01*
X82032D01*
X81016Y197500D01*
X82032Y198516D01*
X81016D01*
X80000Y199532D01*
X78984Y198516D01*
X77968D01*
X78984Y197500D01*
X77968Y196484D01*
X78984D01*
X80000Y195468D01*
Y180468D02*
X81016Y181484D01*
X82032D01*
X81016Y182500D01*
X82032Y183516D01*
X81016D01*
X80000Y184532D01*
X78984Y183516D01*
X77968D01*
X78984Y182500D01*
X77968Y181484D01*
X78984D01*
X80000Y180468D01*
Y165468D02*
X81016Y166484D01*
X82032D01*
X81016Y167500D01*
X82032Y168516D01*
X81016D01*
X80000Y169532D01*
X78984Y168516D01*
X77968D01*
X78984Y167500D01*
X77968Y166484D01*
X78984D01*
X80000Y165468D01*
Y60468D02*
X81016Y61484D01*
X82032D01*
X81016Y62500D01*
X82032Y63516D01*
X81016D01*
X80000Y64532D01*
X78984Y63516D01*
X77968D01*
X78984Y62500D01*
X77968Y61484D01*
X78984D01*
X80000Y60468D01*
Y30468D02*
X81016Y31484D01*
X82032D01*
X81016Y32500D01*
X82032Y33516D01*
X81016D01*
X80000Y34532D01*
X78984Y33516D01*
X77968D01*
X78984Y32500D01*
X77968Y31484D01*
X78984D01*
X80000Y30468D01*
X65000Y60468D02*
X66016Y61484D01*
X67032D01*
X66016Y62500D01*
X67032Y63516D01*
X66016D01*
X65000Y64532D01*
X63984Y63516D01*
X62968D01*
X63984Y62500D01*
X62968Y61484D01*
X63984D01*
X65000Y60468D01*
Y45468D02*
X66016Y46484D01*
X67032D01*
X66016Y47500D01*
X67032Y48516D01*
X66016D01*
X65000Y49532D01*
X63984Y48516D01*
X62968D01*
X63984Y47500D01*
X62968Y46484D01*
X63984D01*
X65000Y45468D01*
Y30468D02*
X66016Y31484D01*
X67032D01*
X66016Y32500D01*
X67032Y33516D01*
X66016D01*
X65000Y34532D01*
X63984Y33516D01*
X62968D01*
X63984Y32500D01*
X62968Y31484D01*
X63984D01*
X65000Y30468D01*
X50000Y75468D02*
X51016Y76484D01*
X52032D01*
X51016Y77500D01*
X52032Y78516D01*
X51016D01*
X50000Y79532D01*
X48984Y78516D01*
X47968D01*
X48984Y77500D01*
X47968Y76484D01*
X48984D01*
X50000Y75468D01*
Y60468D02*
X51016Y61484D01*
X52032D01*
X51016Y62500D01*
X52032Y63516D01*
X51016D01*
X50000Y64532D01*
X48984Y63516D01*
X47968D01*
X48984Y62500D01*
X47968Y61484D01*
X48984D01*
X50000Y60468D01*
Y45468D02*
X51016Y46484D01*
X52032D01*
X51016Y47500D01*
X52032Y48516D01*
X51016D01*
X50000Y49532D01*
X48984Y48516D01*
X47968D01*
X48984Y47500D01*
X47968Y46484D01*
X48984D01*
X50000Y45468D01*
Y30468D02*
X51016Y31484D01*
X52032D01*
X51016Y32500D01*
X52032Y33516D01*
X51016D01*
X50000Y34532D01*
X48984Y33516D01*
X47968D01*
X48984Y32500D01*
X47968Y31484D01*
X48984D01*
X50000Y30468D01*
X35000Y60468D02*
X36016Y61484D01*
X37032D01*
X36016Y62500D01*
X37032Y63516D01*
X36016D01*
X35000Y64532D01*
X33984Y63516D01*
X32968D01*
X33984Y62500D01*
X32968Y61484D01*
X33984D01*
X35000Y60468D01*
Y45468D02*
X36016Y46484D01*
X37032D01*
X36016Y47500D01*
X37032Y48516D01*
X36016D01*
X35000Y49532D01*
X33984Y48516D01*
X32968D01*
X33984Y47500D01*
X32968Y46484D01*
X33984D01*
X35000Y45468D01*
X20000D02*
X21016Y46484D01*
X22032D01*
X21016Y47500D01*
X22032Y48516D01*
X21016D01*
X20000Y49532D01*
X18984Y48516D01*
X17968D01*
X18984Y47500D01*
X17968Y46484D01*
X18984D01*
X20000Y45468D01*
X59250Y153968D02*
X60266Y154984D01*
X61282D01*
X60266Y156000D01*
X61282Y157016D01*
X60266D01*
X59250Y158032D01*
X58234Y157016D01*
X57218D01*
X58234Y156000D01*
X57218Y154984D01*
X58234D01*
X59250Y153968D01*
X58910Y123108D02*
X59926Y124124D01*
X60942D01*
X59926Y125140D01*
X60942Y126156D01*
X59926D01*
X58910Y127172D01*
X57894Y126156D01*
X56878D01*
X57894Y125140D01*
X56878Y124124D01*
X57894D01*
X58910Y123108D01*
X55000Y129968D02*
X56016Y130984D01*
X57032D01*
X56016Y132000D01*
X57032Y133016D01*
X56016D01*
X55000Y134032D01*
X53984Y133016D01*
X52968D01*
X53984Y132000D01*
X52968Y130984D01*
X53984D01*
X55000Y129968D01*
X43500Y148718D02*
X44516Y149734D01*
X45532D01*
X44516Y150750D01*
X45532Y151766D01*
X44516D01*
X43500Y152782D01*
X42484Y151766D01*
X41468D01*
X42484Y150750D01*
X41468Y149734D01*
X42484D01*
X43500Y148718D01*
X174000Y172968D02*
X175016Y173984D01*
X176032D01*
X175016Y175000D01*
X176032Y176016D01*
X175016D01*
X174000Y177032D01*
X172984Y176016D01*
X171968D01*
X172984Y175000D01*
X171968Y173984D01*
X172984D01*
X174000Y172968D01*
X29000Y128968D02*
X30016Y129984D01*
X31032D01*
X30016Y131000D01*
X31032Y132016D01*
X30016D01*
X29000Y133032D01*
X27984Y132016D01*
X26968D01*
X27984Y131000D01*
X26968Y129984D01*
X27984D01*
X29000Y128968D01*
X27750Y145218D02*
X28766Y146234D01*
X29782D01*
X28766Y147250D01*
X29782Y148266D01*
X28766D01*
X27750Y149282D01*
X26734Y148266D01*
X25718D01*
X26734Y147250D01*
X25718Y146234D01*
X26734D01*
X27750Y145218D01*
X65500Y174218D02*
X66516Y175234D01*
X67532D01*
X66516Y176250D01*
X67532Y177266D01*
X66516D01*
X65500Y178282D01*
X64484Y177266D01*
X63468D01*
X64484Y176250D01*
X63468Y175234D01*
X64484D01*
X65500Y174218D01*
X58000D02*
X59016Y175234D01*
X60032D01*
X59016Y176250D01*
X60032Y177266D01*
X59016D01*
X58000Y178282D01*
X56984Y177266D01*
X55968D01*
X56984Y176250D01*
X55968Y175234D01*
X56984D01*
X58000Y174218D01*
X133000Y171968D02*
X134016Y172984D01*
X135032D01*
X134016Y174000D01*
X135032Y175016D01*
X134016D01*
X133000Y176032D01*
X131984Y175016D01*
X130968D01*
X131984Y174000D01*
X130968Y172984D01*
X131984D01*
X133000Y171968D01*
X159000D02*
X160016Y172984D01*
X161032D01*
X160016Y174000D01*
X161032Y175016D01*
X160016D01*
X159000Y176032D01*
X157984Y175016D01*
X156968D01*
X157984Y174000D01*
X156968Y172984D01*
X157984D01*
X159000Y171968D01*
X59000Y136968D02*
X60016Y137984D01*
X61032D01*
X60016Y139000D01*
X61032Y140016D01*
X60016D01*
X59000Y141032D01*
X57984Y140016D01*
X56968D01*
X57984Y139000D01*
X56968Y137984D01*
X57984D01*
X59000Y136968D01*
X384400Y118068D02*
X385416Y119084D01*
X386432D01*
X385416Y120100D01*
X386432Y121116D01*
X385416D01*
X384400Y122132D01*
X383384Y121116D01*
X382368D01*
X383384Y120100D01*
X382368Y119084D01*
X383384D01*
X384400Y118068D01*
X147250Y138968D02*
X148266Y139984D01*
X149282D01*
X148266Y141000D01*
X149282Y142016D01*
X148266D01*
X147250Y143032D01*
X146234Y142016D01*
X145218D01*
X146234Y141000D01*
X145218Y139984D01*
X146234D01*
X147250Y138968D01*
X54000Y165968D02*
X55016Y166984D01*
X56032D01*
X55016Y168000D01*
X56032Y169016D01*
X55016D01*
X54000Y170032D01*
X52984Y169016D01*
X51968D01*
X52984Y168000D01*
X51968Y166984D01*
X52984D01*
X54000Y165968D01*
X179000Y200968D02*
X180016Y201984D01*
X181032D01*
X180016Y203000D01*
X181032Y204016D01*
X180016D01*
X179000Y205032D01*
X177984Y204016D01*
X176968D01*
X177984Y203000D01*
X176968Y201984D01*
X177984D01*
X179000Y200968D01*
X8000Y131968D02*
X9016Y132984D01*
X10032D01*
X9016Y134000D01*
X10032Y135016D01*
X9016D01*
X8000Y136032D01*
X6984Y135016D01*
X5968D01*
X6984Y134000D01*
X5968Y132984D01*
X6984D01*
X8000Y131968D01*
X29078Y108640D02*
X30094Y109656D01*
X31110D01*
X30094Y110672D01*
X31110Y111688D01*
X30094D01*
X29078Y112704D01*
X28062Y111688D01*
X27046D01*
X28062Y110672D01*
X27046Y109656D01*
X28062D01*
X29078Y108640D01*
X352000Y117968D02*
X353016Y118984D01*
X354032D01*
X353016Y120000D01*
X354032Y121016D01*
X353016D01*
X352000Y122032D01*
X350984Y121016D01*
X349968D01*
X350984Y120000D01*
X349968Y118984D01*
X350984D01*
X352000Y117968D01*
X195250Y93968D02*
X196266Y94984D01*
X197282D01*
X196266Y96000D01*
X197282Y97016D01*
X196266D01*
X195250Y98032D01*
X194234Y97016D01*
X193218D01*
X194234Y96000D01*
X193218Y94984D01*
X194234D01*
X195250Y93968D01*
X21750Y108468D02*
X22766Y109484D01*
X23782D01*
X22766Y110500D01*
X23782Y111516D01*
X22766D01*
X21750Y112532D01*
X20734Y111516D01*
X19718D01*
X20734Y110500D01*
X19718Y109484D01*
X20734D01*
X21750Y108468D01*
X385000Y130718D02*
X386016Y131734D01*
X387032D01*
X386016Y132750D01*
X387032Y133766D01*
X386016D01*
X385000Y134782D01*
X383984Y133766D01*
X382968D01*
X383984Y132750D01*
X382968Y131734D01*
X383984D01*
X385000Y130718D01*
X31000Y136968D02*
X32016Y137984D01*
X33032D01*
X32016Y139000D01*
X33032Y140016D01*
X32016D01*
X31000Y141032D01*
X29984Y140016D01*
X28968D01*
X29984Y139000D01*
X28968Y137984D01*
X29984D01*
X31000Y136968D01*
X50500Y174218D02*
X51516Y175234D01*
X52532D01*
X51516Y176250D01*
X52532Y177266D01*
X51516D01*
X50500Y178282D01*
X49484Y177266D01*
X48468D01*
X49484Y176250D01*
X48468Y175234D01*
X49484D01*
X50500Y174218D01*
X21502Y154433D02*
X22518Y155449D01*
X23534D01*
X22518Y156465D01*
X23534Y157481D01*
X22518D01*
X21502Y158497D01*
X20486Y157481D01*
X19470D01*
X20486Y156465D01*
X19470Y155449D01*
X20486D01*
X21502Y154433D01*
X8000Y151468D02*
X9016Y152484D01*
X10032D01*
X9016Y153500D01*
X10032Y154516D01*
X9016D01*
X8000Y155532D01*
X6984Y154516D01*
X5968D01*
X6984Y153500D01*
X5968Y152484D01*
X6984D01*
X8000Y151468D01*
X36750Y148718D02*
X37766Y149734D01*
X38782D01*
X37766Y150750D01*
X38782Y151766D01*
X37766D01*
X36750Y152782D01*
X35734Y151766D01*
X34718D01*
X35734Y150750D01*
X34718Y149734D01*
X35734D01*
X36750Y148718D01*
X27750Y154468D02*
X28766Y155484D01*
X29782D01*
X28766Y156500D01*
X29782Y157516D01*
X28766D01*
X27750Y158532D01*
X26734Y157516D01*
X25718D01*
X26734Y156500D01*
X25718Y155484D01*
X26734D01*
X27750Y154468D01*
D54*
X163932Y41700D02*
G03*
X163932Y41700I-2032J0D01*
G01*
X189332D02*
G03*
X189332Y41700I-2032J0D01*
G01*
X214732D02*
G03*
X214732Y41700I-2032J0D01*
G01*
X265532D02*
G03*
X265532Y41700I-2032J0D01*
G01*
X290932D02*
G03*
X290932Y41700I-2032J0D01*
G01*
X240132D02*
G03*
X240132Y41700I-2032J0D01*
G01*
X138532D02*
G03*
X138532Y41700I-2032J0D01*
G01*
X113132D02*
G03*
X113132Y41700I-2032J0D01*
G01*
M02*
