G04*
G04 #@! TF.GenerationSoftware,Altium Limited,Altium Designer,21.6.4 (81)*
G04*
G04 Layer_Color=32768*
%FSLAX44Y44*%
%MOMM*%
G71*
G04*
G04 #@! TF.SameCoordinates,0AEC0AEB-8793-4253-9BAD-FCEC690E4261*
G04*
G04*
G04 #@! TF.FilePolarity,Positive*
G04*
G01*
G75*
%ADD47C,0.0500*%
%ADD50C,0.1000*%
%ADD51C,0.0100*%
%ADD52C,0.0050*%
D47*
X8150Y182520D02*
X78150D01*
Y112520D02*
Y182520D01*
X8150Y112520D02*
Y182520D01*
Y112520D02*
X78150D01*
X38150Y147520D02*
X48150D01*
X43150Y142520D02*
Y152520D01*
X195000Y14000D02*
X205000D01*
X200000Y9000D02*
Y19000D01*
X94900Y51950D02*
X305100D01*
Y-60700D02*
Y51950D01*
X94900Y-60700D02*
X305100D01*
X94900D02*
Y51950D01*
X122000Y184000D02*
X130000D01*
X122000Y200000D02*
X130000D01*
X122000Y184000D02*
Y200000D01*
X130000Y184000D02*
Y200000D01*
X126000Y189000D02*
Y195000D01*
X123000Y192000D02*
X129000D01*
X172000Y197000D02*
X180000D01*
X172000Y181000D02*
X180000D01*
Y197000D01*
X172000Y181000D02*
Y197000D01*
X176000Y186000D02*
Y192000D01*
X173000Y189000D02*
X179000D01*
X162000Y181000D02*
X170000D01*
X162000Y197000D02*
X170000D01*
X162000Y181000D02*
Y197000D01*
X170000Y181000D02*
Y197000D01*
X166000Y186000D02*
Y192000D01*
X163000Y189000D02*
X169000D01*
X146000Y184000D02*
Y194000D01*
X141000Y189000D02*
X151000D01*
X158000Y174000D02*
Y204000D01*
X134000Y174000D02*
X158000D01*
X134000D02*
Y204000D01*
X158000D01*
X67650Y92750D02*
X79650D01*
X67650Y70750D02*
X79650D01*
Y92750D01*
X67650Y70750D02*
Y92750D01*
X13650D02*
X25650D01*
X13650Y70750D02*
X25650D01*
Y92750D01*
X13650Y70750D02*
Y92750D01*
X26650Y77000D02*
Y95750D01*
X66650Y77000D02*
Y95750D01*
X26650D02*
X66650D01*
X26650Y77000D02*
X66650D01*
X41650Y86250D02*
X51650D01*
X46650Y81250D02*
Y91250D01*
X230250Y96000D02*
X240250D01*
X235250Y91000D02*
Y101000D01*
X212250Y110000D02*
X258250D01*
Y82250D02*
Y110000D01*
X212250Y82250D02*
X258250D01*
X212250D02*
Y110000D01*
X184750Y141000D02*
X194750D01*
X189750Y136000D02*
Y146000D01*
X166750Y155000D02*
X212750D01*
Y127250D02*
Y155000D01*
X166750Y127250D02*
X212750D01*
X166750D02*
Y155000D01*
X200250Y100250D02*
X206250D01*
X203000Y97250D02*
Y103500D01*
X207000Y92750D02*
Y107250D01*
X199000Y92750D02*
Y107250D01*
X207000D01*
X199000Y92750D02*
X207000D01*
X153000Y145250D02*
X159000D01*
X155750Y142250D02*
Y148500D01*
X159750Y137750D02*
Y152250D01*
X151750Y137750D02*
Y152250D01*
X159750D01*
X151750Y137750D02*
X159750D01*
D50*
X73650Y79000D02*
Y84500D01*
X70900Y81750D02*
X76400D01*
X19650Y79000D02*
Y84500D01*
X16900Y81750D02*
X22400D01*
X44150Y158517D02*
Y150186D01*
X45816Y148520D01*
X49148D01*
X50814Y150186D01*
Y158517D01*
X54147Y148520D02*
X57479D01*
X55813D01*
Y158517D01*
X54147Y156851D01*
D51*
X10750Y102000D02*
Y108000D01*
X7750Y105000D02*
X13750D01*
D52*
X3150Y101000D02*
X18350D01*
X3150Y109000D02*
X18350D01*
Y101000D02*
Y109000D01*
X3150Y101000D02*
Y109000D01*
M02*
