G04*
G04 #@! TF.GenerationSoftware,Altium Limited,Altium Designer,21.6.4 (81)*
G04*
G04 Layer_Physical_Order=1*
G04 Layer_Color=255*
%FSLAX44Y44*%
%MOMM*%
G71*
G04*
G04 #@! TF.SameCoordinates,0AEC0AEB-8793-4253-9BAD-FCEC690E4261*
G04*
G04*
G04 #@! TF.FilePolarity,Positive*
G04*
G01*
G75*
%ADD10C,0.2540*%
%ADD12C,0.2000*%
%ADD14R,0.3500X0.3500*%
%ADD15R,0.4200X0.4200*%
%ADD17R,0.5200X0.5500*%
%ADD18R,0.5500X0.5200*%
%ADD19R,0.8000X1.0000*%
%ADD20R,0.7200X0.7200*%
%ADD21R,1.0000X1.5500*%
%ADD22R,0.8000X1.7000*%
%ADD23R,0.3500X0.3600*%
%ADD38C,0.7900*%
%ADD39C,0.3500*%
%ADD40C,0.1520*%
%ADD41C,0.9000*%
%ADD42C,1.6500*%
%ADD43R,1.6500X1.6500*%
%ADD44C,3.4000*%
%ADD45C,0.6000*%
G36*
X65750Y199920D02*
X60750D01*
Y209920D01*
X17250D01*
Y179920D01*
X12250D01*
Y214920D01*
X65750D01*
Y199920D01*
D02*
G37*
G36*
X20630Y164890D02*
X20630Y163980D01*
Y162632D01*
X23650D01*
Y161870D01*
X24412D01*
Y158850D01*
X25860D01*
X26670Y158850D01*
X27940Y158850D01*
X29301D01*
X30380Y158390D01*
X30380Y157580D01*
Y156132D01*
X33400D01*
Y155370D01*
X34162D01*
Y152350D01*
X35610D01*
X36420Y152350D01*
X37690Y152350D01*
X39138D01*
Y155370D01*
X40662D01*
Y152350D01*
X42110D01*
X42920Y152350D01*
X44190Y152350D01*
X45638D01*
Y155370D01*
X47162D01*
Y152350D01*
X48610D01*
X49420Y152350D01*
X50690Y152350D01*
X55920D01*
X55920Y152350D01*
Y152350D01*
X57155Y152265D01*
X57584Y151978D01*
X59250Y151646D01*
X60760Y151947D01*
X61251Y151799D01*
X62030Y151382D01*
X62030Y147230D01*
X62030Y145960D01*
Y143458D01*
X60910Y142859D01*
X60666Y143022D01*
X59000Y143354D01*
X57334Y143022D01*
X55922Y142079D01*
X54978Y140666D01*
X54646Y139000D01*
X54937Y137537D01*
X54950Y137293D01*
X54210Y136197D01*
X53334Y136022D01*
X52990Y135792D01*
X51720Y136471D01*
Y139370D01*
X49112D01*
Y136000D01*
X48350D01*
Y135238D01*
X44980D01*
Y132630D01*
X47907D01*
X48433Y131360D01*
X45926Y128854D01*
X45784Y128640D01*
X43380Y128640D01*
X42110Y128640D01*
X37690D01*
X36880Y128640D01*
X35610Y128640D01*
X33970D01*
X33137Y129910D01*
X33354Y131000D01*
X33022Y132666D01*
X32078Y134078D01*
X30666Y135022D01*
X29000Y135353D01*
X27334Y135022D01*
X26912Y134740D01*
X24270Y137381D01*
X24270Y140270D01*
X24270Y141540D01*
Y142988D01*
X21250D01*
Y144512D01*
X24270D01*
Y145960D01*
X24270Y146770D01*
X24270Y148040D01*
Y149488D01*
X21250D01*
Y150250D01*
X20488D01*
Y153270D01*
X18230D01*
X17770Y154349D01*
X17770Y156520D01*
X17770Y157790D01*
Y163020D01*
X11730D01*
Y157790D01*
X11730Y156980D01*
X11730Y155710D01*
Y154262D01*
X14750D01*
Y152738D01*
X11730D01*
Y151290D01*
X11730Y150480D01*
X11730Y149210D01*
Y147297D01*
X11671Y147000D01*
Y140500D01*
X11730Y140203D01*
X11730Y137480D01*
X11730Y136210D01*
Y134762D01*
X14750D01*
Y133238D01*
X11730D01*
Y131790D01*
X11730Y130980D01*
X11730Y129710D01*
Y128262D01*
X14750D01*
Y126738D01*
X11730D01*
Y125290D01*
X11730Y124480D01*
X11730Y123210D01*
Y121297D01*
X11671Y121000D01*
Y109549D01*
X10620Y109020D01*
X7512D01*
Y105000D01*
X5988D01*
Y109020D01*
X4078D01*
X4078Y165250D01*
X19509D01*
X20630Y164890D01*
D02*
G37*
G36*
X395922Y4078D02*
X4078Y4078D01*
Y63908D01*
X5252Y64394D01*
X16573Y53073D01*
X17572Y52405D01*
X18750Y52171D01*
X67975D01*
X104323Y15823D01*
X105322Y15155D01*
X106500Y14921D01*
X279750D01*
X280928Y15155D01*
X281927Y15823D01*
X291077Y24973D01*
X291745Y25972D01*
X291979Y27150D01*
Y32180D01*
X298420D01*
Y38621D01*
X313700D01*
X314878Y38855D01*
X315877Y39523D01*
X338427Y62073D01*
X339095Y63072D01*
X339329Y64250D01*
X339329Y64250D01*
Y120975D01*
X347525Y129171D01*
X358347D01*
X358537Y128887D01*
X360263Y127733D01*
X362300Y127328D01*
Y125272D01*
X360263Y124867D01*
X358537Y123713D01*
X357422Y122045D01*
X355769D01*
X355079Y123078D01*
X353666Y124022D01*
X352000Y124354D01*
X350334Y124022D01*
X348922Y123078D01*
X347978Y121666D01*
X347646Y120000D01*
X347978Y118334D01*
X348922Y116922D01*
X350334Y115978D01*
X352000Y115646D01*
X353666Y115978D01*
X355079Y116922D01*
X355736Y117905D01*
X357388D01*
X358537Y116187D01*
X360263Y115033D01*
X362300Y114628D01*
Y112572D01*
X360263Y112167D01*
X358537Y111013D01*
X357383Y109287D01*
X357129Y108012D01*
X362300D01*
Y107250D01*
X363062D01*
Y102079D01*
X364337Y102333D01*
X366063Y103487D01*
X367217Y105213D01*
X367622Y107250D01*
X369678D01*
X370083Y105213D01*
X371237Y103487D01*
X372963Y102333D01*
X375000Y101928D01*
X377037Y102333D01*
X378763Y103487D01*
X379917Y105213D01*
X380322Y107250D01*
X379917Y109287D01*
X378763Y111013D01*
X377037Y112167D01*
X375000Y112572D01*
Y114628D01*
X377037Y115033D01*
X378763Y116187D01*
X379576Y117403D01*
X381018Y117466D01*
X381027Y117462D01*
X381321Y117022D01*
X382734Y116078D01*
X384400Y115746D01*
X386066Y116078D01*
X387478Y117022D01*
X388422Y118434D01*
X388754Y120100D01*
X388422Y121766D01*
X387478Y123178D01*
X386066Y124122D01*
X384400Y124454D01*
X382734Y124122D01*
X381321Y123178D01*
X380912Y122566D01*
X379530D01*
X378763Y123713D01*
X377037Y124867D01*
X375000Y125272D01*
Y127328D01*
X377037Y127733D01*
X378763Y128887D01*
X379917Y130613D01*
X379921Y130630D01*
X381281D01*
X381922Y129671D01*
X383334Y128728D01*
X385000Y128396D01*
X386666Y128728D01*
X388078Y129671D01*
X389022Y131084D01*
X389354Y132750D01*
X389022Y134416D01*
X388078Y135829D01*
X386666Y136772D01*
X385000Y137104D01*
X383334Y136772D01*
X381922Y135829D01*
X381214Y134770D01*
X379862D01*
X378763Y136413D01*
X377037Y137567D01*
X375000Y137972D01*
X372963Y137567D01*
X371237Y136413D01*
X370083Y134687D01*
X369698Y132750D01*
X367602D01*
X367217Y134687D01*
X366063Y136413D01*
X364337Y137567D01*
X362300Y137972D01*
X360263Y137567D01*
X358537Y136413D01*
X357812Y135329D01*
X349329D01*
Y144500D01*
X349329Y144500D01*
X349095Y145678D01*
X348427Y146677D01*
X348427Y146677D01*
X289695Y205409D01*
X288696Y206077D01*
X287518Y206311D01*
X181730D01*
X180666Y207022D01*
X179000Y207354D01*
X177334Y207022D01*
X175921Y206078D01*
X174978Y204666D01*
X174646Y203000D01*
X174978Y201334D01*
X175921Y199921D01*
X177334Y198978D01*
X179000Y198646D01*
X180666Y198978D01*
X182078Y199921D01*
X182233Y200153D01*
X286243D01*
X343171Y143225D01*
Y133525D01*
X334073Y124427D01*
X333405Y123428D01*
X333171Y122250D01*
Y65525D01*
X312425Y44779D01*
X298420D01*
Y51220D01*
X279380D01*
Y32180D01*
X285821D01*
Y28425D01*
X278475Y21079D01*
X107775D01*
X71427Y57427D01*
X70428Y58095D01*
X69250Y58329D01*
X20025D01*
X9079Y69275D01*
Y91974D01*
X16927Y99823D01*
X17595Y100822D01*
X17626Y100980D01*
X18620D01*
Y105928D01*
X19890Y106607D01*
X20084Y106478D01*
X21750Y106146D01*
X23416Y106478D01*
X24828Y107422D01*
X26325Y107376D01*
X27412Y106650D01*
X29078Y106318D01*
X30744Y106650D01*
X32156Y107594D01*
X33100Y109006D01*
X33432Y110672D01*
X33100Y112338D01*
X32156Y113750D01*
X30744Y114694D01*
X30062Y114830D01*
X30187Y116100D01*
X33170Y116100D01*
X34440Y116100D01*
X38860D01*
X39670Y116100D01*
X40560Y115199D01*
Y99573D01*
X36258Y95270D01*
X27380D01*
Y88840D01*
X24520D01*
Y91720D01*
X14780D01*
Y82790D01*
X14780Y81980D01*
X14780Y80710D01*
Y77412D01*
X24520D01*
Y80710D01*
X24520Y81520D01*
X24520Y82762D01*
X25418Y83660D01*
X27380D01*
Y77230D01*
X39920D01*
Y91608D01*
X44981Y96669D01*
X45543Y97509D01*
X45740Y98500D01*
Y114016D01*
X46400Y114404D01*
X47060Y114016D01*
Y99000D01*
X47257Y98009D01*
X47819Y97169D01*
X53380Y91608D01*
Y77230D01*
X65920D01*
Y83660D01*
X67882D01*
X68780Y82762D01*
Y81980D01*
X68780Y80710D01*
Y77412D01*
X78520D01*
Y80710D01*
X78520Y81520D01*
X78520Y82790D01*
Y91720D01*
X68780D01*
Y88840D01*
X65920D01*
Y95270D01*
X57042D01*
X52240Y100073D01*
Y114289D01*
X53510Y115141D01*
X53836Y115007D01*
Y114350D01*
X54012Y113464D01*
X54514Y112713D01*
X65654Y101573D01*
X66404Y101072D01*
X67290Y100896D01*
X106081D01*
X140613Y66363D01*
X141364Y65862D01*
X142250Y65686D01*
X221291D01*
X234916Y52060D01*
X234618Y50562D01*
X233299Y50016D01*
X231310Y48490D01*
X229784Y46501D01*
X228825Y44185D01*
X228498Y41700D01*
X228825Y39215D01*
X229784Y36899D01*
X231310Y34910D01*
X233299Y33384D01*
X235615Y32425D01*
X238100Y32098D01*
X240585Y32425D01*
X242901Y33384D01*
X244890Y34910D01*
X246416Y36899D01*
X247375Y39215D01*
X247702Y41700D01*
X247375Y44185D01*
X246416Y46501D01*
X244890Y48490D01*
X242901Y50016D01*
X240585Y50975D01*
X240415Y50997D01*
Y52150D01*
X240238Y53036D01*
X239737Y53787D01*
X225108Y68415D01*
X225634Y69686D01*
X243041D01*
X260579Y52148D01*
X260266Y50665D01*
X258699Y50016D01*
X256710Y48490D01*
X255184Y46501D01*
X254225Y44185D01*
X253898Y41700D01*
X254225Y39215D01*
X255184Y36899D01*
X256710Y34910D01*
X258699Y33384D01*
X261015Y32425D01*
X263500Y32098D01*
X265985Y32425D01*
X268301Y33384D01*
X270290Y34910D01*
X271816Y36899D01*
X272775Y39215D01*
X273102Y41700D01*
X272775Y44185D01*
X271816Y46501D01*
X270290Y48490D01*
X268301Y50016D01*
X265985Y50975D01*
X265814Y50997D01*
Y52500D01*
X265638Y53386D01*
X265137Y54137D01*
X245637Y73637D01*
X244886Y74138D01*
X244000Y74314D01*
X192034D01*
X191356Y75585D01*
X191522Y75834D01*
X191854Y77500D01*
X191522Y79166D01*
X190578Y80578D01*
X189166Y81522D01*
X187500Y81854D01*
X185834Y81522D01*
X184422Y80578D01*
X183911Y79815D01*
X144687D01*
X112615Y111887D01*
X111864Y112388D01*
X110978Y112564D01*
X75209D01*
X70967Y116807D01*
X71452Y117980D01*
X74570D01*
Y124020D01*
X74570D01*
Y124480D01*
X74570D01*
Y129710D01*
X74570Y130520D01*
X74570Y131790D01*
Y136210D01*
X74570Y137020D01*
X74570Y138290D01*
Y142710D01*
X74570Y143520D01*
X75471Y144410D01*
X104483D01*
X105475Y144607D01*
X106315Y145169D01*
X121556Y160410D01*
X170000D01*
X170991Y160607D01*
X171831Y161169D01*
X184831Y174169D01*
X185393Y175009D01*
X185590Y176000D01*
Y190000D01*
X185393Y190991D01*
X184831Y191831D01*
X182660Y194002D01*
X181820Y194564D01*
X180829Y194761D01*
X180020D01*
Y196870D01*
X171980D01*
Y189130D01*
X171980D01*
Y188870D01*
X171980D01*
Y181130D01*
X173410D01*
Y179236D01*
X172334Y179022D01*
X170921Y178078D01*
X169978Y176666D01*
X169860Y176073D01*
X168590Y176198D01*
Y181130D01*
X170020D01*
Y187860D01*
X170020Y188870D01*
X170020Y190140D01*
Y196870D01*
X165643D01*
X164181Y198331D01*
X163341Y198893D01*
X162350Y199090D01*
X156770D01*
Y202770D01*
X147040D01*
X146230Y202770D01*
X144960Y202770D01*
X135230D01*
Y198590D01*
X130020D01*
Y199870D01*
X121980D01*
Y193140D01*
X121980Y192130D01*
X121980Y190860D01*
Y184130D01*
X123410D01*
Y181073D01*
X104927Y162590D01*
X74570D01*
Y163020D01*
X68530D01*
Y156980D01*
X68530D01*
Y156520D01*
X68530D01*
Y154349D01*
X68070Y153270D01*
X67260Y153270D01*
X63938D01*
X63313Y154540D01*
X63604Y156000D01*
X63289Y157580D01*
X63299Y157860D01*
X63828Y158850D01*
X65670D01*
Y164890D01*
X59630D01*
Y164890D01*
X59170D01*
X58199Y165612D01*
X57906Y166160D01*
X58022Y166334D01*
X58354Y168000D01*
X58022Y169666D01*
X57078Y171078D01*
X55666Y172022D01*
X54000Y172353D01*
X52334Y172022D01*
X50921Y171078D01*
X49978Y169666D01*
X49646Y168000D01*
X49883Y166810D01*
X49139Y166066D01*
X48690Y165394D01*
X48270Y165315D01*
X47827Y165490D01*
X47000Y166316D01*
Y180250D01*
X75750D01*
Y215922D01*
X395922Y215922D01*
X395922Y4078D01*
D02*
G37*
%LPC*%
G36*
X22888Y161108D02*
X20630D01*
Y158850D01*
X22888D01*
Y161108D01*
D02*
G37*
G36*
X32638Y154608D02*
X30380D01*
Y152350D01*
X32638D01*
Y154608D01*
D02*
G37*
G36*
X22012Y153270D02*
Y151012D01*
X24270D01*
Y153270D01*
X22012D01*
D02*
G37*
G36*
X51720Y148370D02*
X49112D01*
Y145762D01*
X51720D01*
Y148370D01*
D02*
G37*
G36*
X47588D02*
X44980D01*
Y145762D01*
X47588D01*
Y148370D01*
D02*
G37*
G36*
X41320D02*
X38712D01*
Y145762D01*
X41320D01*
Y148370D01*
D02*
G37*
G36*
X37188D02*
X34580D01*
Y145762D01*
X37188D01*
Y148370D01*
D02*
G37*
G36*
X51720Y144238D02*
X49112D01*
Y141630D01*
X51720D01*
Y144238D01*
D02*
G37*
G36*
X47588D02*
X44980D01*
Y141630D01*
X47588D01*
Y144238D01*
D02*
G37*
G36*
X41320D02*
X38712D01*
Y141630D01*
X41320D01*
Y144238D01*
D02*
G37*
G36*
X37188D02*
X34580D01*
Y141630D01*
X37188D01*
Y144238D01*
D02*
G37*
G36*
X47588Y139370D02*
X44980D01*
Y136762D01*
X47588D01*
Y139370D01*
D02*
G37*
G36*
X41320D02*
X38712D01*
Y136762D01*
X41320D01*
Y139370D01*
D02*
G37*
G36*
X37188D02*
X34580D01*
Y136762D01*
X37188D01*
Y139370D01*
D02*
G37*
G36*
X41320Y135238D02*
X38712D01*
Y132630D01*
X41320D01*
Y135238D01*
D02*
G37*
G36*
X37188D02*
X34580D01*
Y132630D01*
X37188D01*
Y135238D01*
D02*
G37*
G36*
X74570Y178940D02*
X72312D01*
Y176682D01*
X74570D01*
Y178940D01*
D02*
G37*
G36*
X70788D02*
X68530D01*
Y176682D01*
X70788D01*
Y178940D01*
D02*
G37*
G36*
X74570Y175158D02*
X68530D01*
Y173710D01*
X68530Y172900D01*
X68530Y171630D01*
Y170182D01*
X74570D01*
Y171630D01*
X74570Y172440D01*
X74570Y173710D01*
Y175158D01*
D02*
G37*
G36*
Y168658D02*
X72312D01*
Y166400D01*
X74570D01*
Y168658D01*
D02*
G37*
G36*
X70788D02*
X68530D01*
Y166400D01*
X70788D01*
Y168658D01*
D02*
G37*
G36*
X158770Y152520D02*
X156512D01*
Y150212D01*
X158770D01*
Y152520D01*
D02*
G37*
G36*
X154988D02*
X152730D01*
Y150212D01*
X154988D01*
Y152520D01*
D02*
G37*
G36*
X158770Y148688D02*
X156512D01*
Y146380D01*
X158770D01*
Y148688D01*
D02*
G37*
G36*
X154988D02*
X152730D01*
Y146380D01*
X154988D01*
Y148688D01*
D02*
G37*
G36*
X178020Y150770D02*
X167480D01*
Y143364D01*
X158770D01*
Y144120D01*
X152730D01*
Y143340D01*
X150822D01*
X150329Y144079D01*
X148916Y145022D01*
X147250Y145354D01*
X145584Y145022D01*
X144171Y144079D01*
X143228Y142666D01*
X142896Y141000D01*
X143228Y139334D01*
X144171Y137921D01*
X145584Y136978D01*
X147250Y136646D01*
X148916Y136978D01*
X150329Y137921D01*
X150856Y138710D01*
X152730D01*
Y137980D01*
X158770D01*
Y138736D01*
X167480D01*
Y131230D01*
X178020D01*
Y150770D01*
D02*
G37*
G36*
X212020D02*
X207512D01*
Y141762D01*
X212020D01*
Y150770D01*
D02*
G37*
G36*
X205988D02*
X201480D01*
Y141762D01*
X205988D01*
Y150770D01*
D02*
G37*
G36*
X368650Y151717D02*
X366213Y151233D01*
X364148Y149852D01*
X362767Y147787D01*
X362283Y145350D01*
X362767Y142913D01*
X364148Y140848D01*
X366213Y139467D01*
X368650Y138983D01*
X371087Y139467D01*
X373152Y140848D01*
X374533Y142913D01*
X375017Y145350D01*
X374533Y147787D01*
X373152Y149852D01*
X371087Y151233D01*
X368650Y151717D01*
D02*
G37*
G36*
X212020Y140238D02*
X207512D01*
Y131230D01*
X212020D01*
Y140238D01*
D02*
G37*
G36*
X205988D02*
X201480D01*
Y131230D01*
X205988D01*
Y140238D01*
D02*
G37*
G36*
X206020Y107520D02*
X203762D01*
Y105212D01*
X206020D01*
Y107520D01*
D02*
G37*
G36*
X202238D02*
X199980D01*
Y105212D01*
X202238D01*
Y107520D01*
D02*
G37*
G36*
X361538Y106488D02*
X357129D01*
X357383Y105213D01*
X358537Y103487D01*
X360263Y102333D01*
X361538Y102079D01*
Y106488D01*
D02*
G37*
G36*
X206020Y103688D02*
X203762D01*
Y101380D01*
X206020D01*
Y103688D01*
D02*
G37*
G36*
X202238D02*
X199980D01*
Y101380D01*
X202238D01*
Y103688D01*
D02*
G37*
G36*
X223520Y105770D02*
X212980D01*
Y98364D01*
X206020D01*
Y99120D01*
X199980D01*
Y98533D01*
X198710Y98507D01*
X198328Y99079D01*
X196916Y100022D01*
X195250Y100354D01*
X193584Y100022D01*
X192171Y99079D01*
X191228Y97666D01*
X190896Y96000D01*
X191228Y94334D01*
X192171Y92921D01*
X193584Y91978D01*
X195250Y91646D01*
X196916Y91978D01*
X198328Y92921D01*
X198710Y93493D01*
X199980Y93349D01*
Y92980D01*
X206020D01*
Y93736D01*
X212980D01*
Y86230D01*
X223520D01*
Y105770D01*
D02*
G37*
G36*
X257520D02*
X253012D01*
Y96762D01*
X257520D01*
Y105770D01*
D02*
G37*
G36*
X251488D02*
X246980D01*
Y96762D01*
X251488D01*
Y105770D01*
D02*
G37*
G36*
X378810Y100917D02*
X376373Y100433D01*
X374308Y99052D01*
X372927Y96987D01*
X372443Y94550D01*
X372927Y92113D01*
X374308Y90048D01*
X376373Y88667D01*
X378810Y88183D01*
X381247Y88667D01*
X383312Y90048D01*
X384693Y92113D01*
X385177Y94550D01*
X384693Y96987D01*
X383312Y99052D01*
X381247Y100433D01*
X378810Y100917D01*
D02*
G37*
G36*
X358490D02*
X356053Y100433D01*
X353988Y99052D01*
X352607Y96987D01*
X352123Y94550D01*
X352607Y92113D01*
X353988Y90048D01*
X356053Y88667D01*
X358490Y88183D01*
X360927Y88667D01*
X362992Y90048D01*
X364373Y92113D01*
X364857Y94550D01*
X364373Y96987D01*
X362992Y99052D01*
X360927Y100433D01*
X358490Y100917D01*
D02*
G37*
G36*
X257520Y95238D02*
X253012D01*
Y86230D01*
X257520D01*
Y95238D01*
D02*
G37*
G36*
X251488D02*
X246980D01*
Y86230D01*
X251488D01*
Y95238D01*
D02*
G37*
G36*
X78520Y75888D02*
X74412D01*
Y71780D01*
X78520D01*
Y75888D01*
D02*
G37*
G36*
X72888D02*
X68780D01*
Y71780D01*
X72888D01*
Y75888D01*
D02*
G37*
G36*
X24520D02*
X20412D01*
Y71780D01*
X24520D01*
Y75888D01*
D02*
G37*
G36*
X18888D02*
X14780D01*
Y71780D01*
X18888D01*
Y75888D01*
D02*
G37*
G36*
X111862Y51202D02*
Y42462D01*
X120602D01*
X120375Y44185D01*
X119416Y46501D01*
X117890Y48490D01*
X115901Y50016D01*
X113585Y50975D01*
X111862Y51202D01*
D02*
G37*
G36*
X110338D02*
X108615Y50975D01*
X106299Y50016D01*
X104310Y48490D01*
X102784Y46501D01*
X101825Y44185D01*
X101598Y42462D01*
X110338D01*
Y51202D01*
D02*
G37*
G36*
X120602Y40938D02*
X111862D01*
Y32198D01*
X113585Y32425D01*
X115901Y33384D01*
X117890Y34910D01*
X119416Y36899D01*
X120375Y39215D01*
X120602Y40938D01*
D02*
G37*
G36*
X110338D02*
X101598D01*
X101825Y39215D01*
X102784Y36899D01*
X104310Y34910D01*
X106299Y33384D01*
X108615Y32425D01*
X110338Y32198D01*
Y40938D01*
D02*
G37*
G36*
X212700Y51302D02*
X210215Y50975D01*
X207899Y50016D01*
X205910Y48490D01*
X204384Y46501D01*
X203425Y44185D01*
X203098Y41700D01*
X203425Y39215D01*
X204384Y36899D01*
X205910Y34910D01*
X207899Y33384D01*
X210215Y32425D01*
X212700Y32098D01*
X215185Y32425D01*
X217501Y33384D01*
X219490Y34910D01*
X221016Y36899D01*
X221975Y39215D01*
X222302Y41700D01*
X221975Y44185D01*
X221016Y46501D01*
X219490Y48490D01*
X217501Y50016D01*
X215185Y50975D01*
X212700Y51302D01*
D02*
G37*
G36*
X187300D02*
X184815Y50975D01*
X182499Y50016D01*
X180510Y48490D01*
X178984Y46501D01*
X178025Y44185D01*
X177698Y41700D01*
X178025Y39215D01*
X178984Y36899D01*
X180510Y34910D01*
X182499Y33384D01*
X184815Y32425D01*
X187300Y32098D01*
X189785Y32425D01*
X192101Y33384D01*
X194090Y34910D01*
X195616Y36899D01*
X196575Y39215D01*
X196902Y41700D01*
X196575Y44185D01*
X195616Y46501D01*
X194090Y48490D01*
X192101Y50016D01*
X189785Y50975D01*
X187300Y51302D01*
D02*
G37*
G36*
X161900D02*
X159415Y50975D01*
X157099Y50016D01*
X155110Y48490D01*
X153584Y46501D01*
X152625Y44185D01*
X152298Y41700D01*
X152625Y39215D01*
X153584Y36899D01*
X155110Y34910D01*
X157099Y33384D01*
X159415Y32425D01*
X161900Y32098D01*
X164385Y32425D01*
X166701Y33384D01*
X168690Y34910D01*
X170216Y36899D01*
X171175Y39215D01*
X171502Y41700D01*
X171175Y44185D01*
X170216Y46501D01*
X168690Y48490D01*
X166701Y50016D01*
X164385Y50975D01*
X161900Y51302D01*
D02*
G37*
G36*
X136500D02*
X134015Y50975D01*
X131699Y50016D01*
X129710Y48490D01*
X128184Y46501D01*
X127225Y44185D01*
X126898Y41700D01*
X127225Y39215D01*
X128184Y36899D01*
X129710Y34910D01*
X131699Y33384D01*
X134015Y32425D01*
X136500Y32098D01*
X138985Y32425D01*
X141301Y33384D01*
X143290Y34910D01*
X144816Y36899D01*
X145775Y39215D01*
X146102Y41700D01*
X145775Y44185D01*
X144816Y46501D01*
X143290Y48490D01*
X141301Y50016D01*
X138985Y50975D01*
X136500Y51302D01*
D02*
G37*
G36*
X375762Y43283D02*
Y25762D01*
X393283D01*
X393006Y28582D01*
X391961Y32025D01*
X390264Y35199D01*
X387981Y37981D01*
X385199Y40264D01*
X382025Y41961D01*
X378582Y43006D01*
X375762Y43283D01*
D02*
G37*
G36*
X374238D02*
X371418Y43006D01*
X367975Y41961D01*
X364801Y40264D01*
X362019Y37981D01*
X359736Y35199D01*
X358039Y32025D01*
X356994Y28582D01*
X356717Y25762D01*
X374238D01*
Y43283D01*
D02*
G37*
G36*
X25762D02*
Y25762D01*
X43283D01*
X43006Y28582D01*
X41961Y32025D01*
X40264Y35199D01*
X37981Y37981D01*
X35199Y40264D01*
X32025Y41961D01*
X28582Y43006D01*
X25762Y43283D01*
D02*
G37*
G36*
X24238D02*
X21418Y43006D01*
X17975Y41961D01*
X14801Y40264D01*
X12019Y37981D01*
X9736Y35199D01*
X8039Y32025D01*
X6994Y28582D01*
X6717Y25762D01*
X24238D01*
Y43283D01*
D02*
G37*
G36*
X393283Y24238D02*
X375762D01*
Y6717D01*
X378582Y6994D01*
X382025Y8039D01*
X385199Y9736D01*
X387981Y12019D01*
X390264Y14801D01*
X391961Y17975D01*
X393006Y21418D01*
X393283Y24238D01*
D02*
G37*
G36*
X374238D02*
X356717D01*
X356994Y21418D01*
X358039Y17975D01*
X359736Y14801D01*
X362019Y12019D01*
X364801Y9736D01*
X367975Y8039D01*
X371418Y6994D01*
X374238Y6717D01*
Y24238D01*
D02*
G37*
G36*
X43283D02*
X25762D01*
Y6717D01*
X28582Y6994D01*
X32025Y8039D01*
X35199Y9736D01*
X37981Y12019D01*
X40264Y14801D01*
X41961Y17975D01*
X43006Y21418D01*
X43283Y24238D01*
D02*
G37*
G36*
X24238D02*
X6717D01*
X6994Y21418D01*
X8039Y17975D01*
X9736Y14801D01*
X12019Y12019D01*
X14801Y9736D01*
X17975Y8039D01*
X21418Y6994D01*
X24238Y6717D01*
Y24238D01*
D02*
G37*
%LPD*%
D10*
X174000Y175000D02*
X176000Y177000D01*
X71550Y147000D02*
X104483D01*
X71550Y153500D02*
X105242D01*
X49650Y99000D02*
Y119120D01*
X126000Y180000D02*
Y188000D01*
X106000Y160000D02*
X126000Y180000D01*
X158000Y174000D02*
X159000D01*
X43150Y98500D02*
Y119120D01*
X151500Y180500D02*
X158000Y174000D01*
X104483Y147000D02*
X120484Y163000D01*
X170000D02*
X183000Y176000D01*
X120484Y163000D02*
X170000D01*
X180829Y192171D02*
X183000Y190000D01*
Y176000D02*
Y190000D01*
X176000Y193000D02*
X176829Y192171D01*
X180829D01*
X118742Y167000D02*
X162000D01*
X166000Y171000D02*
Y185000D01*
X162000Y167000D02*
X166000Y171000D01*
X71550Y160000D02*
X106000D01*
X105242Y153500D02*
X118742Y167000D01*
X126000Y196000D02*
X140000D01*
X140500Y196500D01*
X151500D02*
X162350D01*
X165850Y193000D01*
X166000D01*
X151500Y180500D02*
Y181500D01*
X176000Y177000D02*
Y185000D01*
X49650Y99000D02*
X59650Y89000D01*
X33650D02*
X43150Y98500D01*
X59650Y86250D02*
Y89000D01*
X33650Y86250D02*
Y89000D01*
X59650Y86250D02*
X59650Y86250D01*
X73650D01*
X33650D02*
X33650Y86250D01*
X19650Y86250D02*
X33650D01*
X14750Y175920D02*
X14750Y175920D01*
D12*
X143728Y77500D02*
X187500D01*
X110978Y110250D02*
X143728Y77500D01*
X244000Y72000D02*
X263500Y52500D01*
X144069Y72000D02*
X244000D01*
X109339Y106730D02*
X144069Y72000D01*
X56150Y114350D02*
X67290Y103210D01*
X56150Y114350D02*
Y119120D01*
X67250Y117250D02*
X74250Y110250D01*
X67250Y117250D02*
Y128550D01*
X21250Y123990D02*
Y130750D01*
X19020Y121760D02*
X21250Y123990D01*
X19020Y113230D02*
Y121760D01*
Y113230D02*
X21750Y110500D01*
X62650Y114850D02*
X70770Y106730D01*
X62650Y114850D02*
Y119120D01*
X70770Y106730D02*
X109339D01*
X67290Y103210D02*
X107040D01*
X147250Y141000D02*
X147275Y141025D01*
X23650Y116100D02*
X29078Y110672D01*
X74250Y110250D02*
X110978D01*
X142250Y68000D02*
X222250D01*
X107040Y103210D02*
X142250Y68000D01*
X222250D02*
X238100Y52150D01*
X263500Y41700D02*
Y52500D01*
X238100Y41700D02*
Y52150D01*
X65050Y130750D02*
X67250Y128550D01*
X147275Y141025D02*
X155725D01*
X155750Y141050D01*
X172700D02*
X172750Y141000D01*
X155750Y141050D02*
X172700D01*
X203050Y96050D02*
X218200D01*
X195275Y96025D02*
X202975D01*
X23650Y116100D02*
Y119120D01*
D14*
X14750Y175920D02*
D03*
Y169420D02*
D03*
Y160000D02*
D03*
Y153500D02*
D03*
Y147000D02*
D03*
Y140500D02*
D03*
Y134000D02*
D03*
Y127500D02*
D03*
Y121000D02*
D03*
X21250Y150250D02*
D03*
Y143750D02*
D03*
Y137250D02*
D03*
Y130750D02*
D03*
X23650Y119120D02*
D03*
X30150D02*
D03*
X43150D02*
D03*
X49650D02*
D03*
X62650D02*
D03*
X33400Y125620D02*
D03*
X46400D02*
D03*
X52900D02*
D03*
X71550Y121000D02*
D03*
Y127500D02*
D03*
Y134000D02*
D03*
Y140500D02*
D03*
Y147000D02*
D03*
Y153500D02*
D03*
Y160000D02*
D03*
Y169420D02*
D03*
Y175920D02*
D03*
X65050Y130750D02*
D03*
Y137250D02*
D03*
Y143750D02*
D03*
Y150250D02*
D03*
X62650Y161870D02*
D03*
X56150D02*
D03*
X49650D02*
D03*
X43150D02*
D03*
X36650D02*
D03*
X30150D02*
D03*
X23650D02*
D03*
X46400Y155370D02*
D03*
X33400D02*
D03*
X36650Y119120D02*
D03*
X56150D02*
D03*
X39900Y125620D02*
D03*
X52900Y155370D02*
D03*
X39900D02*
D03*
D15*
X37950Y145000D02*
D03*
Y136000D02*
D03*
X48350D02*
D03*
Y145000D02*
D03*
D17*
X14750Y105000D02*
D03*
X6750D02*
D03*
D18*
X126000Y188000D02*
D03*
Y196000D02*
D03*
X176000Y193000D02*
D03*
Y185000D02*
D03*
X166000D02*
D03*
Y193000D02*
D03*
D19*
X151500Y181500D02*
D03*
Y196500D02*
D03*
X140500D02*
D03*
Y181500D02*
D03*
D20*
X73650Y86850D02*
D03*
Y76650D02*
D03*
X19650Y86850D02*
D03*
Y76650D02*
D03*
D21*
X59650Y86250D02*
D03*
X33650D02*
D03*
D22*
X218250Y96000D02*
D03*
X252250D02*
D03*
X172750Y141000D02*
D03*
X206750D02*
D03*
D23*
X203000Y104450D02*
D03*
Y96050D02*
D03*
X155750Y149450D02*
D03*
Y141050D02*
D03*
D38*
X375000Y107250D02*
D03*
X362300D02*
D03*
X375000Y119950D02*
D03*
X362300D02*
D03*
X375000Y132650D02*
D03*
X362300D02*
D03*
D39*
X279750Y18000D02*
X288900Y27150D01*
X69250Y55250D02*
X106500Y18000D01*
X279750D01*
X133000Y173000D02*
Y174000D01*
X134000D01*
X14750Y107250D02*
Y121000D01*
X133000Y173000D02*
X133000Y173000D01*
X134000Y174000D02*
X140500Y180500D01*
X14750Y140500D02*
Y147000D01*
X179000Y203232D02*
X287518D01*
X140500Y180500D02*
Y181500D01*
X14750Y102000D02*
Y107250D01*
X287518Y203232D02*
X346250Y144500D01*
X23650Y161870D02*
X30150D01*
X36650D01*
X43150D01*
X27750Y156500D02*
X28052Y156802D01*
X6000Y93250D02*
X14750Y102000D01*
X6000Y68000D02*
Y93250D01*
X18750Y55250D02*
X69250D01*
X6000Y68000D02*
X18750Y55250D01*
X288900Y27150D02*
Y41700D01*
X346250Y132250D02*
Y144500D01*
X336250Y64250D02*
Y122250D01*
X346250Y132250D02*
X361900D01*
X336250Y122250D02*
X346250Y132250D01*
X361900D02*
X362300Y132650D01*
X313700Y41700D02*
X336250Y64250D01*
X288900Y41700D02*
X313700D01*
X14750Y175920D02*
Y179920D01*
D40*
X56150Y159100D02*
X59250Y156000D01*
X52900Y125620D02*
X53140Y125380D01*
X58670D01*
X58910Y125140D01*
X47390Y127390D02*
X51143Y131143D01*
X47390Y126610D02*
Y127390D01*
X51143Y131143D02*
X54143D01*
X46400Y125620D02*
X47390Y126610D01*
X54143Y131143D02*
X55000Y132000D01*
X29000Y130275D02*
Y131000D01*
X59000Y139000D02*
X63300D01*
X65050Y137250D01*
X22464Y136260D02*
X28725Y130000D01*
X29000Y130275D01*
X56150Y159100D02*
Y161870D01*
X375150Y120100D02*
X384400D01*
X54000Y168000D02*
X54000D01*
X49650Y161870D02*
X50602Y162822D01*
Y164602D01*
X54000Y168000D01*
X22240Y136260D02*
X22464D01*
X21250Y137250D02*
X22240Y136260D01*
X109339Y106730D02*
X109859D01*
X362275Y119975D02*
X362300Y119950D01*
X352025Y119975D02*
X362275D01*
X352000Y120000D02*
X352025Y119975D01*
X202975Y96025D02*
X203000Y96050D01*
Y96000D02*
X203050Y96050D01*
X218200D02*
X218250Y96000D01*
X195250D02*
X195275Y96025D01*
X375000Y132650D02*
X375050Y132700D01*
X384950D01*
X385000Y132750D01*
X375000Y119950D02*
X375150Y120100D01*
X203000Y96000D02*
Y96050D01*
D41*
X358490Y94550D02*
D03*
X378810D02*
D03*
X368650Y145350D02*
D03*
D42*
X161900Y41700D02*
D03*
X187300D02*
D03*
X212700D02*
D03*
X263500D02*
D03*
X238100D02*
D03*
X136500D02*
D03*
X111100D02*
D03*
D43*
X288900D02*
D03*
D44*
X375000Y25000D02*
D03*
X25000D02*
D03*
D45*
X187500Y77500D02*
D03*
X200000Y47500D02*
D03*
X8000Y127500D02*
D03*
X392500Y47500D02*
D03*
Y62500D02*
D03*
Y77500D02*
D03*
Y92500D02*
D03*
Y107500D02*
D03*
Y150000D02*
D03*
Y167500D02*
D03*
Y182500D02*
D03*
Y197500D02*
D03*
Y212500D02*
D03*
X85000Y117500D02*
D03*
X290000Y7500D02*
D03*
X275000D02*
D03*
X260000D02*
D03*
X245000D02*
D03*
X230000D02*
D03*
X215000D02*
D03*
X200000D02*
D03*
X185000D02*
D03*
X170000D02*
D03*
X155000D02*
D03*
X140000D02*
D03*
X125000D02*
D03*
X110000D02*
D03*
X250000Y32500D02*
D03*
X225000D02*
D03*
X150000D02*
D03*
X225000Y55000D02*
D03*
X320000Y147500D02*
D03*
X305000D02*
D03*
X290000D02*
D03*
X275000D02*
D03*
X260000D02*
D03*
X245000D02*
D03*
X230000D02*
D03*
X180000Y87500D02*
D03*
X45000Y90000D02*
D03*
X57500Y102500D02*
D03*
X35000D02*
D03*
X7500Y47500D02*
D03*
X50000Y7500D02*
D03*
X65000D02*
D03*
X80000D02*
D03*
X95000D02*
D03*
X305000D02*
D03*
X350000D02*
D03*
Y17500D02*
D03*
X305000D02*
D03*
X95000D02*
D03*
X80000D02*
D03*
X65000D02*
D03*
X50000D02*
D03*
X380000Y212500D02*
D03*
Y197500D02*
D03*
Y182500D02*
D03*
Y167500D02*
D03*
Y77500D02*
D03*
Y62500D02*
D03*
Y47500D02*
D03*
X365000Y212500D02*
D03*
Y197500D02*
D03*
Y182500D02*
D03*
Y167500D02*
D03*
Y77500D02*
D03*
Y62500D02*
D03*
Y47500D02*
D03*
X350000Y212500D02*
D03*
Y197500D02*
D03*
Y182500D02*
D03*
Y167500D02*
D03*
Y107500D02*
D03*
Y77500D02*
D03*
Y62500D02*
D03*
Y47500D02*
D03*
Y32500D02*
D03*
X335000Y212500D02*
D03*
Y197500D02*
D03*
Y182500D02*
D03*
Y167500D02*
D03*
Y47500D02*
D03*
Y32500D02*
D03*
X320000Y212500D02*
D03*
Y197500D02*
D03*
Y182500D02*
D03*
Y122500D02*
D03*
Y107500D02*
D03*
Y92500D02*
D03*
Y77500D02*
D03*
Y62500D02*
D03*
Y32500D02*
D03*
X305000Y212500D02*
D03*
Y197500D02*
D03*
Y167500D02*
D03*
Y122500D02*
D03*
Y107500D02*
D03*
Y92500D02*
D03*
Y77500D02*
D03*
Y62500D02*
D03*
Y32500D02*
D03*
X290000Y212500D02*
D03*
Y182500D02*
D03*
Y167500D02*
D03*
Y122500D02*
D03*
Y107500D02*
D03*
Y92500D02*
D03*
Y77500D02*
D03*
Y62500D02*
D03*
X275000Y212500D02*
D03*
Y182500D02*
D03*
Y167500D02*
D03*
Y122500D02*
D03*
Y107500D02*
D03*
Y92500D02*
D03*
Y77500D02*
D03*
Y62500D02*
D03*
Y47500D02*
D03*
Y32500D02*
D03*
X260000Y212500D02*
D03*
Y182500D02*
D03*
Y167500D02*
D03*
Y122500D02*
D03*
Y107500D02*
D03*
Y77500D02*
D03*
X245000Y212500D02*
D03*
Y182500D02*
D03*
Y167500D02*
D03*
Y122500D02*
D03*
Y77500D02*
D03*
Y62500D02*
D03*
X230000Y212500D02*
D03*
Y182500D02*
D03*
Y167500D02*
D03*
Y122500D02*
D03*
Y107500D02*
D03*
Y92500D02*
D03*
Y77500D02*
D03*
X215000Y212500D02*
D03*
Y182500D02*
D03*
Y167500D02*
D03*
Y122500D02*
D03*
X200000Y212500D02*
D03*
Y182500D02*
D03*
Y167500D02*
D03*
Y122500D02*
D03*
Y62500D02*
D03*
Y32500D02*
D03*
X185000Y212500D02*
D03*
Y167500D02*
D03*
Y122500D02*
D03*
Y107500D02*
D03*
X170000Y212500D02*
D03*
Y122500D02*
D03*
Y107500D02*
D03*
Y62500D02*
D03*
X155000Y212500D02*
D03*
Y122500D02*
D03*
Y62500D02*
D03*
X140000Y212500D02*
D03*
Y137500D02*
D03*
Y92500D02*
D03*
X125000Y212500D02*
D03*
Y107500D02*
D03*
Y77500D02*
D03*
Y62500D02*
D03*
Y47500D02*
D03*
Y32500D02*
D03*
X110000Y212500D02*
D03*
Y197500D02*
D03*
Y182500D02*
D03*
Y122500D02*
D03*
Y92500D02*
D03*
Y77500D02*
D03*
Y62500D02*
D03*
X95000Y212500D02*
D03*
Y197500D02*
D03*
Y182500D02*
D03*
Y167500D02*
D03*
Y92500D02*
D03*
Y77500D02*
D03*
Y62500D02*
D03*
Y47500D02*
D03*
X80000Y212500D02*
D03*
Y197500D02*
D03*
Y182500D02*
D03*
Y167500D02*
D03*
Y62500D02*
D03*
Y32500D02*
D03*
X65000Y62500D02*
D03*
Y47500D02*
D03*
Y32500D02*
D03*
X50000Y77500D02*
D03*
Y62500D02*
D03*
Y47500D02*
D03*
Y32500D02*
D03*
X35000Y62500D02*
D03*
Y47500D02*
D03*
X20000D02*
D03*
X59250Y156000D02*
D03*
X58910Y125140D02*
D03*
X55000Y132000D02*
D03*
X43500Y150750D02*
D03*
X174000Y175000D02*
D03*
X29000Y131000D02*
D03*
X27750Y147250D02*
D03*
X65500Y176250D02*
D03*
X58000D02*
D03*
X133000Y174000D02*
D03*
X159000D02*
D03*
X59000Y139000D02*
D03*
X384400Y120100D02*
D03*
X147250Y141000D02*
D03*
X54000Y168000D02*
D03*
X179000Y203000D02*
D03*
X8000Y134000D02*
D03*
X29078Y110672D02*
D03*
X352000Y120000D02*
D03*
X195250Y96000D02*
D03*
X21750Y110500D02*
D03*
X385000Y132750D02*
D03*
X31000Y139000D02*
D03*
X50500Y176250D02*
D03*
X21502Y156465D02*
D03*
X8000Y153500D02*
D03*
X36750Y150750D02*
D03*
X27750Y156500D02*
D03*
M02*
